<svg xmlns="http://www.w3.org/2000/svg" width="159.072" height="11.584" viewBox="0 0 159.072 11.584">
  <path id="パス_130448" data-name="パス 130448" d="M9.84-8.544a2.653,2.653,0,0,0-2.976-2.848H2.9L.608,0H2.256l.992-4.864H5.36L6.816,0H8.624L7.008-5.024A3.615,3.615,0,0,0,9.84-8.544Zm-1.664.08A2.187,2.187,0,0,1,5.888-6.24H3.5l.752-3.7H6.624A1.364,1.364,0,0,1,8.176-8.464Zm11.648-2.928H12.912L10.624,0h7.024l.288-1.44h-5.36l.72-3.584h4.512l.288-1.44H13.584l.688-3.488h5.264Zm8.9,3.344a3.145,3.145,0,0,0-3.36-3.44,4.275,4.275,0,0,0-3.12,1.28C21.28-9.2,21.024-8.1,20.544-5.7a13.642,13.642,0,0,0-.352,2.64A3.112,3.112,0,0,0,23.568.1a4.508,4.508,0,0,0,4.368-3.44h-1.7a2.741,2.741,0,0,1-2.544,2A1.751,1.751,0,0,1,21.84-3.152,14.69,14.69,0,0,1,22.192-5.7c.448-2.192.7-2.976,1.248-3.536a2.393,2.393,0,0,1,1.84-.816c1.2,0,1.776.832,1.792,2Zm9.92-.5a2.653,2.653,0,0,0-2.976-2.848H31.7L29.408,0h1.648l.992-4.864H34.16L35.616,0h1.808L35.808-5.024A3.615,3.615,0,0,0,38.64-8.544Zm-1.664.08A2.187,2.187,0,0,1,34.688-6.24H32.3l.752-3.7h2.368A1.364,1.364,0,0,1,36.976-8.464Zm12.336-2.928H47.664L46.192-4.016c-.352,1.76-1.456,2.656-2.784,2.656a1.677,1.677,0,0,1-1.792-1.808,5.157,5.157,0,0,1,.08-.768l1.488-7.456H41.536L40.08-4.064a5.854,5.854,0,0,0-.112.992A3.113,3.113,0,0,0,43.3.1a4.425,4.425,0,0,0,4.5-3.92Zm4.32,0H51.984L49.7,0h1.648Zm9.44,0H55.488l-.3,1.456h3.008L56.192,0H57.84l2-9.936h2.944Zm3.536,0H64.96L62.672,0H64.32Zm10.976,0H75.936L74.3-3.232l-3.424-8.16H69.424L67.136,0h1.648l1.648-8.16L73.856,0H75.3Zm9.488,3.36a3.187,3.187,0,0,0-3.408-3.456,4.35,4.35,0,0,0-3.12,1.28c-.928.976-1.168,1.824-1.712,4.512a12.728,12.728,0,0,0-.352,2.64A3.1,3.1,0,0,0,81.872.1a4.228,4.228,0,0,0,3.072-1.264,5.979,5.979,0,0,0,1.5-3.248l.32-1.712H82.8l-.256,1.376h2.32l-.128.72a2.947,2.947,0,0,1-2.752,2.688,1.759,1.759,0,0,1-1.856-1.808A14.69,14.69,0,0,1,80.48-5.7c.432-2.08.672-2.928,1.264-3.536a2.4,2.4,0,0,1,1.856-.816c1.152,0,1.792.784,1.824,2.016Zm16.416-3.36h-1.616L97.264-4.416,95.5-11.392H93.936L91.648,0h1.664l1.552-7.744L96.32-2.3h1.216L101.1-7.68,99.552,0H101.2Zm9.728,0H106.3L104.016,0h7.024l.288-1.44h-5.36l.72-3.584H111.2l.288-1.44h-4.512l.688-3.488h5.264Zm8.416,1.248a3.817,3.817,0,0,0-3.12-1.344c-2.848,0-4.288,1.84-4.288,3.728,0,1.408,1.024,2.288,2.528,2.64l1.008.24c.816.192,1.408.512,1.408,1.5,0,1.168-1.152,2.016-2.624,2.016a3.081,3.081,0,0,1-2.624-1.168L112.7-1.472A4.3,4.3,0,0,0,116.4.1c2.368,0,4.416-1.184,4.416-3.584,0-1.6-.72-2.432-2.528-2.864l-.992-.24c-.784-.192-1.424-.544-1.424-1.344a2.266,2.266,0,0,1,2.448-2.128,2.553,2.553,0,0,1,2.16.928Zm8.9,0a3.817,3.817,0,0,0-3.12-1.344c-2.848,0-4.288,1.84-4.288,3.728,0,1.408,1.024,2.288,2.528,2.64l1.008.24c.816.192,1.408.512,1.408,1.5,0,1.168-1.152,2.016-2.624,2.016a3.081,3.081,0,0,1-2.624-1.168L121.6-1.472A4.3,4.3,0,0,0,125.3.1c2.368,0,4.416-1.184,4.416-3.584,0-1.6-.72-2.432-2.528-2.864l-.992-.24c-.784-.192-1.424-.544-1.424-1.344a2.266,2.266,0,0,1,2.448-2.128,2.553,2.553,0,0,1,2.16.928ZM139.232,0l-1.7-11.392h-1.328L129.968,0h1.776l1.232-2.336h4.288L137.552,0ZM137.12-3.7h-3.456l2.768-5.232Zm12.432-4.336a3.187,3.187,0,0,0-3.408-3.456,4.35,4.35,0,0,0-3.12,1.28c-.928.976-1.168,1.824-1.712,4.512a12.728,12.728,0,0,0-.352,2.64A3.1,3.1,0,0,0,144.352.1a4.228,4.228,0,0,0,3.072-1.264,5.979,5.979,0,0,0,1.5-3.248l.32-1.712H145.28l-.256,1.376h2.32l-.128.72a2.947,2.947,0,0,1-2.752,2.688,1.759,1.759,0,0,1-1.856-1.808A14.691,14.691,0,0,1,142.96-5.7c.432-2.08.672-2.928,1.264-3.536a2.4,2.4,0,0,1,1.856-.816c1.152,0,1.792.784,1.824,2.016Zm10.128-3.36h-6.912L150.48,0H157.5l.288-1.44h-5.36l.72-3.584h4.512l.288-1.44H153.44l.688-3.488h5.264Z" transform="translate(-0.608 11.488)" fill="#4a4a4a"/>
</svg>
