<?xml version="1.0" encoding="UTF-8"?>
<svg id="_レイヤー_1" data-name="レイヤー_1" xmlns="http://www.w3.org/2000/svg" width="560" height="46" version="1.1" viewBox="0 0 560 46">
  <!-- Generator: Adobe Illustrator 29.1.0, SVG Export Plug-In . SVG Version: 2.1.0 Build 142)  -->
  <defs>
    <style>
      .st0, .st1 {
        fill: #fff;
      }

      .st1 {
        stroke: #fff;
        stroke-width: .1px;
      }
    </style>
  </defs>
  <g id="_グループ_33000" data-name="グループ_33000">
    <path id="_パス_131071" data-name="パス_131071" class="st1" d="M389.7149887,24.6170578c1.6169968,0,2.5680008,0,2.5680008-.6660004,0-.5230007-2.947998-3-3.3759995-3s-1.473999,1.7600002-1.7590027,2.0450001c-.3330002.3330002-.5230026.3330002-2.5199966.3330002h-3.9950027c-.5230026,0-1.5220032,0-1.5220032-1.2840004,0-1.7119999.237999-2,.6660004-2.3299999.8079987-.7129993.9000015-.8080006.9000015-1.0939999,0-.4759998-.1900024-.5709991-2.1869965-1.427-.6752777-.3039398-1.40065-.4812164-2.1399994-.5230007-.3799973,0-.4759979.1000004-.4759979.4279995,0,.2849998.237999,1.6170006.237999,1.8999996.1429977,1.2360001.237999,2.6630001.237999,3,0,1.3320007-.9000015,1.3320007-1.5690002,1.3320007h-1.1409988c-2.663002,0-5.1360016-.1000004-6.5149994-.1429996-.3330002,0-1.7600021-.1900005-2.0920029-.1900005-.0770569.0044441-.1385574.0659389-.1429977.1429996q0,.0480003.1900024.2849998l.9000015,1.0939999c.1900024.2380009.2850037.3330002.4280014.3330002.3366165-.0208607.6710281-.0686817,1-.1429996,1-.0480003,4.0419998-.1429996,5.1360016-.1429996.5709991,0,1.473999,0,1.473999.8560009,0,1-3.9000015,6.2299995-5.3740005,7.9890003-.9509964,1.1890001-6.7050018,6.8000002-6.7050018,6.9429998,0,.0552278.0447693.099999.0999985.0999999.3799973,0,3.7089996-1.4270005,7.6090012-5.1830001,2.0920029-2,3.6139984-3.756999,5.3740005-5.7540007.1476059-.256422.4172897-.4183083.7129974-.4279995.3330002,0,.5230026.1900005.5230026.3330002,0,2.092001-.4759979,11.4610004-.4759979,13.3629999,0,.9000001.2850037,1.855,1.2360001,1.855,2.2829971,0,2.2829971-2.1399999,2.2829971-2.8530002,0-1.8070002-.237999-9.7490005-.237999-11.3649998,0-2.5680008,0-2.7110004.3799973-2.7110004.3330002,0,.3799973.1429996.6660004.8999996,3,7.323,8.2740021,12.5539999,8.9400024,12.5539999.2850037,0,1.2839966-1.0460005,1.473999-1.1890001.9399948-.5818605,2.0348892-.8636932,3.1389999-.8079996.237999-.0480003.7610016-.1000004.7610016-.4280005,0-.1899996-.3799973-.3800001-1.0459976-.7609997-4.4979935-2.2518463-8.4065552-5.5251312-11.413002-9.5580006-.7806015-.9191704-1.451767-1.9259186-2-3,0-.5230007.4280014-.8080006,1-.8080006l8.7509918.0030022ZM377.731987,7.0700588c0-.5229988.6660004-.618,1.2839966-.7130013,1.1409988-.1899986,8.0839996-1.2840004,8.75-1.2840004.9000015,0,1.6640015-.0999985,1.6640015-.8079987,0-.5709991-.7129974-.9000015-1.189003-1.1889992-.2850037-.1430016-3.0429993-1.5690002-3.1389999-1.5690002-.9108658.4182968-1.7855225.9113159-2.6149979,1.473999-3.2340012,1.4269981-7.276001,2.1870003-12.9820023,3.3289986-1.8069992.3330002-2.0449982.3800011-2.0449982.5709991,0,.237999.1900024.237999,1.7600021.237999.9000015,0,5.4209976-.3330002,6.4670029-.3330002.4974976-.0527496.9741135.214222,1.189003.6660004.6180344,1.463932.9721603,3.0256729,1.0459976,4.612999.1429977,1.9500008.237999,2.7109985,1.3789978,2.7109985,1.1196823-.134758,1.9472427-1.1082306,1.9000015-2.2350006,0-1.9000015-2.1399994-3.9000015-2.663002-4.4230003-.4729996-.4299927-.8059998-.7629929-.8059998-1.0479927ZM364.5119858,12.5860577c1.5690002,0,2.5199966,0,2.5199966-.6660004,0-.4760017-2.0449982-2.6150017-2.663002-2.6150017-.5230026,0-.6179962.237999-1.189003,1.1409988-.202713.5232391-.7245636.8516312-1.2839966.8079987-1.0459976,0-1.0459976-1-1.0459976-1.5690002,0-1.0460014,0-4.0900002.3799973-4.8510017.1429977-.237999,1.0940018-1.1409988,1.0940018-1.427002,0-.5229988-.2850037-.6660004-1.5220032-1.0940018-.4759979-.1899986-2.9000015-1.0460014-3.1389999-1.0460014-.3330002,0-.5709991.1430016-.5709991.3800011.0978622.3740425.2249146.7398338.3799973,1.0940018.2411346,2.4174042.3363113,4.8471451.2850037,7.276001.0632935.6458397-.4089584,1.2207069-1.0547943,1.2840004-.0762177.0074692-.1529846.0074692-.2292023,0-.9509964,0-5.0410004-.3330002-5.848999-.3330002-.0999985,0-.1900024.0480003-.1900024.1430016q0,.0480003.1900024.2849998l.9509964,1.0940018c.1429977.1899986.237999.3330002.4280014.3330002.0999985,0,.5709991-.0999985.6660004-.0999985.8079987-.0999985,2.7580032-.1430016,3.6620026-.1430016,1.1409988,0,1.473999.3800011,1.473999,1.473999,0,6.6580009,0,7.4179993-.3799973,8.0369987-.3799973.5709991-.5709991.618-1.7590027,1.0459995-1.4332504.5851917-2.9354248.9847641-4.4700012,1.1889992-.3799973,0-1,0-1,.2849998,0,.4759998.4280014,1.1889992,1.473999,3.0429993.5709991.9510002.6660004,1.1410007,1.0940018,1.1410007.3330002,0,1.3320007-1.2840004,1.6169968-1.473999.7898865-.4940701,1.6367264-.8906231,2.5220032-1.1809921.9509964,0,.9509964.4759998.9509964,4.2320004,0,1,0,8.3219995-.0479965,8.6549997-.0999985,1.0460005-.9000015,1.2839999-2.0920029,1.2839999-.3330002,0-1.7590027-.0479999-2.0449982-.0479999s-.9000015,0-.9000015.2849998c0,.3330002,1.5220032,1.2839999,1.711998,1.5219998.237999.2849998,1,1.7119999,1.2360001,1.9500003.2525787.3540967.6590805.5662668,1.0940018.5710001,1.2812729-.1704843,2.4520264-.8152719,3.2809982-1.8070002.7180557-1.0782804,1.0364304-2.3737154.9000015-3.6619997,0-1.2840004-.1900024-7.0860004-.1900024-8.2269993-.0479965-1.7119999-.0479965-3.4239998-.0479965-5.0879993,0-1.8999996.3799973-2.1399994,3.0910034-3.7089996,3.4710007-2.0450001,4.7549973-2.7110004,4.7549973-3.1860008,0-.1429996-.1900024-.1429996-.2850037-.1429996-.5709991,0-5.9919968,2.3299999-6.7529984,2.3299999-.7129974,0-.7610016-.5230007-.7610016-1.1410007v-5.9920006c0-1.3790016.7610016-1.3790016,1.711998-1.3790016l1.9990082-.0009995ZM390.4289856,7.4980564c-.603035-.4010811-1.2385864-.7509727-1.9000015-1.0460014-.0479965,0-.1429977.7610016-.1900024.855999-.1429977,1.2840004-1.5220032,3.757-2.2829971,5.1360016-.3799973.7130013-2.8059998,4.375-2.8059998,4.612999,0,.0480003.0479965.1000004.1429977.1000004,1.2360001,0,7.4179993-6.657999,8.1790009-7.0380001,1-.5229988,1.0940018-.5709991,1.0940018-.855999-.0019989-.3389969-.2399979-.480999-2.2369995-1.7649994ZM372.6439819,13.728056c-.1900024-1.473999-.8560028-2.7109985-3.4240036-4.9000015-1-.855999-1.1409988-.855999-1.3789978-.855999-.0479965,0-.1429977,0-.1429977.1430016s.0479965.237999.5709991,1.427002c.45298,1.0671997.6797485,2.2167282.6660004,3.3759995.1429977,2.4729996.1900024,3.757,1.6640015,3.757,1.3790054.0009995,2.2350006-1.473999,2.0450058-2.947998l-.0000076.0009956ZM423.3369827,28.228056c1.1409988,0,1.473999.4759998,1.473999,1.5219994,0,2-.2849998,10.7469997-.2849998,12.507,0,.618.0480003,1.2360001,1,1.2360001.8200493-.0202589,1.6082993-.3213668,2.2330055-.8529968.3330002-.3330002.4760017-.6659999.4760017-1.5690002,0-3.6619997,0-7.5609999-.0480003-10.9850006-.0480003-1.3789997.1899986-1.8549995,1.473999-1.8549995h9.6529999c.5229988,0,1.2360001,0,1.427.8560009.1000004.3799992.1000004,3.7089996.1000004,4.3269997,0,6.0389996-.0480003,6.5620003-1.9000015,6.5620003-.6660004,0-3.6619987-.2379999-4.2799988-.2379999-.237999,0-.5709991.1000004-.5709991.2849998,0,.2849998.7130013.428.855999.4759998.4280014.0999999,3.3289986,1.0939999,3.9949989,2.8059998.3330002.951.3800011,1.046.8079987,1.046,4.4230003,0,4.4230003-5.2789998,4.4230003-7.3709998,0-4.0419998-.2849998-21.5900002-.2849998-25.4890022,0-4.5180016.1429996-4.5649986,1.2360001-5.1360016.3799992-.1899986.7609997-.4760017.7609997-.9000015,0-.7610016-3.4710007-2.7109985-3.8519993-2.7109985-.3330002,0-.3799992.0999985-1.1889992.9510002-.427166.4521637-1.0492096.6656189-1.6640015.5709991h-23.2610016c-1.3337936.0209961-2.6429901-.3602295-3.757-1.0940018-.7528419-.3747597-1.5526848-.6465302-2.3779984-.8079987-.2849998,0-.3330002.0999985-.3330002.3800011,0,.0999985.3330002,2.8059998.3800011,3.3289986.3330002,3.519001.4280014,11.3180008.4280014,15.0750008,0,11.8409996-.8079987,16.0259991-2.7580032,20.0680008-.1900024.3800001-1.3320007,2.2349997-1.3320007,2.283.0152588.143218.1413574.2485223.2850037.2379999.7129974,0,5.9920006-5.0879993,6.7999992-13.4099998.1899986-1.7119999.1899986-2.0919991,1.5690002-2.0919991l8.5149956-.007ZM414.8719826,15.103056c-1.4269981,0-1.473999,0-1.473999-5.4210014,0-3.9469986,0-4.137001,1.4269981-4.137001h8.6549988c1.427002,0,1.427002.1430016,1.427002,4.7550011q0,4.7999992-1.427002,4.7999992l-8.6079979.0030022ZM414.8239822,26.9440556c-1.3790016,0-1.3790016-.8999996-1.3790016-1.6639996,0-1.0939999,0-7.8000011.0480003-8.0370007.1899986-.7609997.8079987-.8560009,1.3320007-.8560009h8.6549988c1.427002,0,1.427002.1900005,1.427002,4.4230003.0358734,1.8567276-.0275497,3.7140465-.1899986,5.5640011-.257225.4243355-.746151.6502075-1.2360001.5709991l-8.6570015-.0009995ZM439.2239838,16.3870564c1.473999,0,1.5219994.1000004,1.5219994,7.0860004,0,3.1389999,0,3.4710007-1.4269981,3.4710007h-9.7000008c-.3330002,0-1.0460014,0-1.2840004-.618-.1652031-1.8019905-.2286377-3.6118641-.1899986-5.4209995,0-4.375,0-4.5179996,1.473999-4.5179996l9.6049995-.0000019ZM438.9859848,5.5450573c1.5219994,0,1.5690002,0,1.5690002,6.3250008,0,2.7109985,0,3.2340012-1.473999,3.2340012h-9.4630013c-1.473999,0-1.473999-.8079987-1.473999-1.8069992,0-1.1409988,0-6.6100006.0480003-6.9000015.1899986-.7610016.8079987-.855999,1.427002-.855999l9.3669968.0039978ZM492.9079857,35.6970587c.4279995,0,1.3789997,0,1.3789997,1.1409998,0,3.757-.0480003,3.757-.5709991,4.0419998-.9072437.3872457-1.870245.6279116-2.8530006.7129998-.2380009,0-.5709991.0999999-.5709991.2849998s1.0939999.5710001,1.2840004.6659999c.6574249.3820915,1.2249374.9011731,1.6639996,1.5219998.1429996.2379999.2849998.428.5230007.428.7129993,0,3.7999992-1.3789997,3.7999992-3.9949999,0-1.5690002-.2849998-8.4650002-.2849998-9.8439999-.0409889-1.7142696.0224609-3.4294453.1900005-5.1359997.0480003-.0480003.4759998-.5230007.7609997-.8080006.2027359-.1829414.3228474-.4401131.3330002-.7129993,0-.4759998-.1900005-.618-1-1.0939999-1.6639996-.8999996-1.8549995-1-2.1870003-1-.3799992,0-.5230007.1000004-1.1410007.8080006-.3711891.3825665-.8965054.5750961-1.427.5230007h-10.5039997c-.5484772.0110188-1.0949583-.069416-1.6169996-.2380009-.4280005-.0440006-2.3300009-.8570004-2.7580009-.8570004-.3330002,0-.3800001.1429996-.3800001.5230007,0,.7609997.1430001,4.0419998.1430001,4.7549992,0,3.9949989-.0479999,8.4169998-.2379999,12.4119997,0,.5229998-.2379999,2.8529997-.2379999,3.329,0,1.0939999.1900001,1.2839999,1,1.2839999,1.2260456.0905614,2.2933664-.8299303,2.3839283-2.0559764.0101652-.1376224.0075111-.2758918-.0079279-.413023,0-.6659999,0-5.2309995.0480003-5.421.1899996-.7609997.7609997-.8559999,1.3789997-.8559999h10.8899994ZM492.9079857,24.5220585c1.3320007,0,1.3320007.618,1.3320007,3.0429993,0,1.1410007-1,1.1410007-1.3320007,1.1410007h-10.9379997c-1.2360001,0-1.2360001-.8560009-1.2360001-2,0-1.3789997,0-2.1870003,1.3319998-2.1870003l10.842.0030003ZM492.955986,29.943058c1.3320007,0,1.3320007.5230007,1.3320007,2.8529997,0,.8999996,0,1.6169996-1.3789997,1.6169996h-10.8910007c-1.3789997,0-1.3789997-.7130003-1.3789997-1.5220003,0-2.092,0-2.9480009,1.2360001-2.9480009l11.0809994.0000019ZM462.9979858,12.4400578c-.1429996,0-.2849998.237999-.3330002.7130013-.1032085,1.9593544-.7814493,3.8448639-1.9499998,5.4209995-1.3800001,1.6210003-1.6169996,1.8579998-1.6169996,2.6660004.0125923.8791466.7354908,1.5816288,1.6146374,1.5690365.0007877-.0000114.0015745-.0000229.0023623-.0000362,2,0,3.1389999-2.8999996,3.1389999-6.1340008-.0019999-1.1879997-.2869997-4.2350006-.8559999-4.2350006ZM470.5119858,2.92906c-.048-.3330002-.285-.5709991-1.046-.7130013-.4760001-.0999985-3.329-.618-3.5190001-.618s-.1900001.1899986-.1900001.4280014c0,.0480003.0479999.9510002.0999999,1.427002.2379999,3.8520012.2849998,4.5180016.2849998,7.6559982,0,5.9440002-.3330002,18.7840004-.5230002,25.6790009,0,.9510002-.2849998,5.5640001-.2849998,6.658,0,.8080001.3330002,1.1890001.8559999,1.1890001s2.52-.5229998,2.6630001-1.7589998v-18.0690031c0-2.3299999.3329999-17.0719986.3800001-19.1170006-.0409141-.6268196.2039075-1.2385063.6659999-1.6640015.3656863-.2470856.5924184-.6530533.6110004-1.093998l.002-.0029984ZM482.1119862,18.146059c-2.711,0-5.1830001-.1000004-6.5619998-.1900005-.3329999,0-1.7589999-.1429996-2.092-.1429996-.048,0-.143,0-.143.1000004s0,.1000004.1899999.3330002l.9000001,1.0939999c.1900001.1900005.2850001.2849998.428.2849998.1900001,0,.8559999-.1000004,1-.1000004,1.664-.1429996,4.9000001-.1429996,6.039-.1429996h18.0259991c1.6170006,0,2.5680008,0,2.5680008-.618,0-.4759998-2.7110004-2.8530006-3.4239998-2.8530006-.4759998,0-.5709991.1430016-1.5219994,1.427-.5709991.8080006-.8080006.8080006-3.0429993.8080006h-4.4220028c-1.3789997,0-1.3789997-.7129993-1.3789997-2.0919991,0-1.8069992,0-2.5200005,1.3789997-2.5200005h7.5130005c1.5690002,0,2.5680008,0,2.5680008-.618,0-.855999-3.3290005-2.7579994-3.7999992-2.7579994-.3799992,0-1.427,1.5219994-1.7119999,1.7589989-.3799992.3800011-.618.3800011-2.6149998.3800011h-1.9500008c-1.3789997,0-1.3789997-.855999-1.3789997-1.9000015,0-2.1870003,0-2.8059998,1.427-2.8059998h7.8409996c1.5690002,0,2.5200005,0,2.5200005-.618,0-.6660004-2.7579994-2.7109985-3.1389999-2.7109985s-1.3310013,1.5239983-1.5680008,1.7139969c-.4279995.3800011-.6660004.3800011-2.6630001.3800011h-2.948c-.4279995,0-1.427,0-1.427-1.1889992.019762-.4677696.1499786-.9242134.3799992-1.3320007.3314037-.361042.6187496-.7601738.8560009-1.1889992,0-.5229988-.5230007-.6660004-.8080006-.7130013-1.1348858-.306427-2.2977581-.4977264-3.4709997-.5709991-.1899996,0-.1899996.0999985-.1899996.237999,0,.237999.2379999,1.427002.2379999,1.6640015,0,2.663002,0,3.0909996-1.3789997,3.0909996h-1.618001c-2.7110004,0-5.1830001-.0999985-6.5619998-.1899986-.3329999,0-1.76-.1430016-2.092-.1430016-.0480001,0-.143,0-.143.0999985s0,.0999985.1899999.3330002l.9000001,1.0940018c.1900001.1899986.2850001.2849998.428.2849998.1900001,0,.8559999-.0999985,1-.0999985,1.664-.1430016,4.9000001-.1430016,6.039-.1430016h1.8070002c.4759998,0,1.474,0,1.474,1.1889992,0,2.8059998,0,3.519001-1.1890001,3.519001-.8999996,0-5.849-.1430016-6.1820002-.1899986-.2849998,0-1.474-.1430016-1.7119999-.1430016-.0479999,0-.1900001,0-.1900001.0999985s.0479999.1430016.2379999.3330002l.9000001,1.0940018c.1430001.1899986.2379999.2849998.428.2849998.1430001,0,.8559999-.0999985,1-.0999985,1.2359996-.0999985,4.5180001-.1430016,4.8509994-.1430016,1.2360001,0,1.7119999.1899986,1.7119999,1.3320007,0,2.948,0,3.2810001-1.427,3.2810001l-2.0889988-.0020008ZM470.6039858,10.4460583c-.3329999-.0999985-.523.0480003-.523.2849998.0139503.2332077.0788028.4605331.1900001.6660004.4330356.8200493.7366247,1.7021446.9,2.6150017.48,3.0919991.527,3.4279976,1.669,3.4279976,1.046,0,1.9000001-.9510002,1.9000001-2.4729996.0019999-2.3810005-3.4220001-4.3779984-4.1350001-4.5209999h-.001ZM541.8879852,21.2880592c-.8079987,0-1.6640015,0-1.6640015-1.3789997,0-.5230007.0479965-11.7459984.0999985-12.6489983.0479965-1.2840004.7610016-1.3320007,1.7590027-1.3320007h6.9000015c1.7600021,0,1.8550034.237999,1.8550034,2.4249992,0,2.0919991,0,4.0900002-.0999985,4.9000015-.1429977,1.3790016-.4759979,1.3790016-3.5189972,1.3790016-.1900024,0-.6660004,0-.6660004.1430016,0,.1899986,1.5690002,1.473999,2.1399994,2.0919991.3201065.5097008.6679611,1.00144,1.0419922,1.4729958.1633453.1686115.3837051.2702351.6179962.2849998,1.0981216-.3506432,2.0612793-1.0316296,2.7580032-1.9500008.7610016-1.0940018.7610016-2.1399994.7610016-6.2770004,0-1.7589989,0-2.9480019.5230026-3.3289986.8560028-.618.9509964-.7130013.9509964-1.0940018,0-1.0460014-2.3300018-3.3759995-3.3290024-3.3759995-.3330002,0-.4759979.1430016-1.6640015,1.5219994-.4280014.4760017-.5230026.5229988-1.0940018.5229988h-7.6559906c-.6675186.0438309-1.3319931-.1226387-1.9000015-.4760017-.819191-.4350128-1.7015991-.7387123-2.6149979-.9000015-.1429977,0-.1429977.1899986-.1429977.3330002,0,.3800011.1429977,2.1870003.1900024,2.5680008.0999985,3.1389999.0999985,14.6000004.0999985,18.5459995,0,4.375-.1900024,12.507-.3799973,16.4060001-.0570068.5190048-.0570068,1.471005-.0570068,1.8040047,0,1.0939999.237999,1.8070002,1.1409988,1.8070002,1.2442398.0250294,2.2805176-.9486141,2.3330002-2.1919999.0479965-2.0450001.237999-2.1399999,1.8550034-3.1860003,1.2820892-.8561497,2.5200043-1.7766609,3.7089996-2.7580004.1900024-.1429996.4759979-.4280005.7129974-.4280005.2850037,0,.4759979.2379999.9000015.7609997,1.2399979,1.6210012,4.3309937,4.7110014,4.8059998,4.7110014.5977783-.2275333,1.1713028-.5142941,1.711998-.8559999.9803162-.46808,2.0526733-.7116585,3.1389999-.7130003.0999985,0,.3799973-.0480003.3799973-.2849998,0-.1429996-.1429977-.2379999-1.5220032-.8559999-4.1849976-1.8550005-7.038002-4.9460001-7.038002-5.4210005,0-.2849998,1.5690002-2.948,1.8550034-3.519001.4280014-.8080006,2.1869965-4.8999996,2.663002-5.2789993.1900024-.1429996,1.189003-.6660004,1.3789978-.7609997.2224884-.1516209.3626709-.3973217.3799973-.6660004,0-.8999996-2.8529968-2.5680008-3.0910034-2.5680008-.3088608.1232319-.6094818.2661934-.9000015.4279995-.25811.0974369-.5321198.1459312-.8079987.1429996l-8.5159912.0010033ZM548.5459824,22.5240593c1,0,1.6169968,0,1.6169968.8560009,0,1.3320007-2.2829971,8.0369987-3.1389999,8.0369987-.9000015,0-4.137001-5.8999996-4.137001-8.3699989,0-.3330002.1900024-.5230007.6660004-.5230007h4.9930038ZM540.0809784,30.0850582c0-2,0-3.9949989.0479965-5.9920006,0-1,.237999-1.5690002,1.5220032-1.5690002.237999,0,.4280014.1429996.4759979.5230007.0400772,1.856369.3430862,3.6976852.9000015,5.4689999.2850037.8999996,2.3300018,5.3260002,2.3300018,5.6590004,0,.8079996-3.9469986,4.8509998-4.6600037,4.8509998-.2597656.0276346-.4927444-.1605444-.5203857-.42031-.0019608-.0184956-.0028381-.0370913-.0026169-.0556898v-2.5200005c.0020142-.855999-.0929871-4.9899998-.0929871-5.9440002l-.0000076-.0009995ZM533.8979874,15.3920574c1.6170006,0,2.5680008,0,2.5680008-.6660004s-3.2809982-3.0429993-3.7999992-3.0429993c-.4760017,0-2,2.0919991-2.4729996,2.2830009-.2849998.1430016-.618.1899986-2.7109985.1899986-1,0-1.3320007-.1899986-1.3320007-1.2360001v-2.7109985c0-1.2360001.5709991-1.2360001,1.6170006-1.2360001h3.9000015c1.5690002,0,2.5200005,0,2.5200005-.6660004,0-.5709991-2.5200005-2.8530006-3.3289986-2.8530006-.4760017,0-.5709991.1430016-1.6170006,1.473999-.417469.5931473-1.1412468.8900719-1.8549995.7610016-.855999,0-1.2360001-.2849998-1.2360001-1.1889992-.0470619-.6905022.0336227-1.3837585.237999-2.0449982.2991295-.4164352.5541649-.8628349.7610016-1.3320007,0-.9000015-3.9949989-1.7120018-4.2319984-1.7120018-.1430016,0-.1430016.0480003-.1430016.1899986,0,.5229988.3800011,4.0900002.3800011,4.7999992,0,.8079987-.1899986,1.2840004-1.1889992,1.2840004-.618,0-4.0900002-.1899986-4.4700012-.1899986-.237999,0-1.473999-.0999985-1.7120018-.0999985-.1430016,0-.1899986,0-.1899986.0999985,0,.0480003.0480003.0999985.1899986.2849998l.9510002,1.0940018c.1430016.237999.237999.3330002.4280014.3330002.0999985,0,.5709991-.0999985.6660004-.0999985,1.0460014-.1430016,3.3289986-.1430016,4.1850014-.1430016,1,0,1.1889992.4760017,1.1889992,1.3320007v2.5680008c0,1.2840004-.2849998,1.2840004-2.5200005,1.2840004-.9000015,0-4.5649986-.1430016-5.2779999-.1899986-.3330002,0-1.8549995-.1430016-2.1870003-.1430016-.0999985,0-.1430016,0-.1430016.0999985s0,.0999985.1899986.3330002l.9000015,1.0940018c.1899986.1899986.2849998.2849998.4280014.2849998s.855999-.0999985,1-.0999985c1.6640015-.1430016,4.9459991-.1430016,6.0390015-.1430016l12.2669907.0079956ZM522.3909874,22.1400585c.1076813-1.71908-.7308121-3.3600292-2.1870003-4.2800007-.601162-.5096226-1.2753181-.9262524-2-1.2360001-.1430016,0-.237999.0480003-.237999.1429996.0373535.1769905.0851021.3516273.1430016.5230007.5384865,1.2939186.8916321,2.6573677,1.048996,4.0500011.2400017,2.1359997.2849998,2.7999992,1.4259987,2.7999992s1.807003-1.3299999,1.807003-2ZM514.8779869,26.1400585c.1430016.2380009.237999.3330002.4280014.3330002.1430016,0,.855999-.1000004,1-.1000004.855999-.1000004,3.1389999-.1429996,4.0419998-.1429996,2.1399994,0,2.6150017,0,2.6150017,1.2360001,0,4.375,0,4.5650005-1.2360001,4.5650005-.9510002,0-5.4690018-.3330002-6.5149994-.3330002-.0999985,0-.1430016,0-.1430016.1000004s.0999985.1900005.1899986.3330002l.9000015,1.0939999c.1899986.1899996.2849998.2849998.4280014.2849998s.8079987-.1000004.9510002-.1000004c1.0940018-.1000004,2.7109985-.1429996,3.7999992-.1429996.8079987,0,1.5219994.1899996,1.5219994,1.427,0,1.0459995-.2849998,7.6090002-.2849998,8.6070004,0,.618.0999985,1.2839999,1,1.2839999,1.4662323-.015826,2.6420174-1.2172704,2.6261902-2.6835012-.000782-.0722885-.0045128-.144515-.0111885-.2164989,0-.9510002-.1430016-5.9000006-.1430016-6.9899998,0-1.427.9000015-1.427,1.7589989-1.427h5.0410004c1.5219994,0,2.5680008,0,2.5680008-.618,0-.4280005-2.4729996-3.1859999-3.3759995-3.1859999-.3800011,0-.5229988.1429996-1.5690002,1.7600002-.5229988.8080006-.9510002.8080006-2.6629982.8080006-1.1409988,0-1.6170006,0-1.7589989-.8080006v-3.6620007c0-1.1889992.4280014-1.3320007,1.4269981-1.3320007h5.848999c2.2830009,0,2.5200005,0,2.5200005-.618,0-.7129993-2.6150017-2.948-3.3289986-2.948-.3800011,0-.4760017.1429996-1.473999,1.5219994-.5709991.8080006-.8079987.8080006-3.1389999.8080006-.2469063.0159817-.460022-.1712208-.4760017-.4181271-.0012474-.0192719-.0012474-.0386028,0-.0578728.7746048-2.0046329,2.0130882-3.7972469,3.6139984-5.2310009.7130013-.5709991.855999-.6660004.855999-1,0-1.2360001-3.4239998-2.4249992-3.5670013-2.4249992-.1899986,0-.2849998.0480003-.3330002.3330002-.0999985.5709991-.2849998,3.3290005-.3800011,3.9470005-.7610016,4.8509998-1.1409988,4.8509998-2.5200005,4.8509998h-3.6559982c-1.2840004,0-3.9949989-.1429996-5.3740005-.1900005-.2849998,0-1.8069992-.1429996-2.1399994-.1429996-.0999985,0-.1899986,0-.1899986.1000004,0,.0480003.0480003.1000004.237999.3330002l.9039993,1.046999Z"/>
    <path id="_パス_131070" data-name="パス_131070" class="st0" d="M23.4249954,12.0862293c-.448-3.5309982-.7849998-5.7729988-1.0090008-7.7900009-2.3046265-.8268585-4.7263718-1.2808914-7.1739998-1.3450012C7.8999949,2.9512272,3.4719944,7.6032276,3.4719944,13.0952282c0,6.1650009,5.3800001,9.0229988,9.3599997,11.1000004,4.1999998,2.2420006,7.1739988,4.2590008,7.1739988,8.2390003s-2.4659996,6.5570002-6.5570002,6.5570002c-5.717,0-8.3509998-5.7729998-9.2480001-9.2480001l-1.737.448c.3112698,2.9797735.816678,5.9360571,1.5130029,8.8500013.9390488.4695449,1.9137521.8641081,2.915,1.1800003,1.77596.5635138,3.6287918.8472414,5.4919996.8410001,7.6219997,0,12.6660004-4.7639995,12.6660004-10.7609992,0-6.164999-5.0440006-8.8549995-9.6999998-11.2089996-4.54-2.2999992-7.118-4.1999989-7.118-8.1270008-.144453-3.1999931,2.332551-5.9112015,5.5325441-6.0556564.1920767-.0086708.3844671-.0077858.5764561.002655,4.7639999,0,6.3889999,3.9790001,7.3999996,7.5100021l1.684-.3360023ZM34.6899948,40.8942304c1.7707596.0585766,3.2537308-1.3294234,3.3123093-3.100184.0035133-.1062946.0017433-.212698-.0053101-.3188162.0774002-1.778883-1.3019218-3.283699-3.0808029-3.3611012-.0753555-.0032787-.1507988-.003912-.2261963-.0018988-1.7799301-.0475225-3.2613754,1.3568726-3.3088989,3.1368046-.0020123.0753975-.001379.1508427.0018997.2261953-.1175003,1.7678289,1.220356,3.2961903,2.9881821,3.413691.1061211.0070534.2125244.0088253.3188171.0053091ZM59.6899948,40.2212305v-1.625c-4.4840012-.3360004-4.987999-.6730003-4.987999-5.4359999V10.9102306c0-4.7639999.5-5.0999985,4.987999-5.4920006v-1.625h-15.1919975v1.625c4.4840012.3919983,4.987999.7290001,4.987999,5.4920006v22.25c0,4.7639999-.5,5.1000004-4.987999,5.4359999v1.625h15.1919975ZM69.4419937,40.8942304c1.7707596.0585766,3.2537308-1.3294234,3.3123093-3.100184.0035172-.1062946.0017395-.212698-.0053101-.3188162.0774002-1.778883-1.301918-3.283699-3.0808029-3.3611012-.0753555-.0032787-.1508026-.003912-.2261963-.0018988-1.7799301-.0475225-3.2613754,1.3568726-3.3088989,3.1368046-.0020142.0753975-.0013809.1508427.0018997.2261953-.1174469,1.7678323,1.220459,3.2961531,2.9882889,3.4136.1050873.0069814.2104492.0087833.315712.0054002h.0029984ZM117.4729919,3.7942333h-13.3419952v1.625c3.9790039.223999,5.2679977,1.0089989,5.548996,3.4749985.3007431,3.0904922.4316025,6.1951618.3919983,9.2999992v13.059h-.1679993L86.8689957,3.7922306h-8.6869965v1.625c2.6340027.223999,3.810997.6730003,4.9319992,2.0740013,1.0650024,1.3450012,1.177002,1.7369995,1.177002,5.7169991v12.2180004c.0338974,3.1806374-.0969391,6.3608961-.3919983,9.5279999-.2799988,2.6900005-1.6809998,3.4189997-4.8759995,3.6429996v1.6239996h13.3349915v-1.625c-3.8669968-.224-5.0999985-1.0089998-5.3799973-3.7550001-.2698898-3.1310425-.3820267-6.2736835-.3359985-9.4160004v-13.7840004h.1159973l23.762001,29.085001h1.9059982v-22.5300007c0-5.156002.1679993-7.6780014.3359985-9.4160004.2799988-2.4659996,1.5690002-3.1949997,4.7080002-3.362999l.0029984-1.6229973ZM172.5069885,23.24123h-14.6839905v1.625c5.548996.448,5.8849945.7849998,5.8849945,4.8199997v4.8759995c0,2.1859999-.6170044,2.9700003-1.6809998,3.5310001-1.4165039.6727457-2.9725494.9993787-4.5399933.9530001-10.5370026,0-15.1880035-9.3000002-15.1880035-17.486001,0-10.2560005,6.220993-16.5340004,14.3999939-16.5340004,5.3800049,0,9.5839996,2.0180016,10.9290009,8.743l1.6809998-.3359985c-.447998-3.8670006-.7290039-6.9500008-.8999939-8.8549995-3.5310059-.956665-7.1607666-1.5019531-10.8170013-1.625-11.1000061,0-21.5220032,6.3889999-21.5220032,19.3360004,0,11.1529999,8.2389984,18.7749996,20.7369995,18.7749996,4.4279938,0,9.1349945-1.2329998,12.5540009-2.0739999-.3147583-1.737431-.4461365-3.503119-.3919983-5.2680001v-4.7079992c0-3.362999.2799988-3.6429996,3.5310059-4.1469994l.0069885-1.6260014ZM210.5579987,39.1572304c-1.5329895-.4543056-2.8977051-1.3511314-3.9230042-2.5780001-1.6446533-1.8427219-3.1438141-3.8102942-4.4839935-5.8849993-1.6809998-2.5219994-3.9790039-6.2770004-4.9320068-8.0709991,4.0910034-1.7929993,7.1179962-4.7080002,7.1179962-9.5279999.1517029-2.9428139-1.2801666-5.7425079-3.7550049-7.3419991-2.1300049-1.4570007-4.8760071-1.9620018-9.1349945-1.9620018h-14.2319946v1.625c4.3159943.3919983,4.8200073.6730003,4.8200073,5.3800011v22.3619995c0,4.7080002-.5,5.1000004-5.0440063,5.4359999v1.6269989h15.1320038v-1.625c-4.4279938-.3360004-4.9320068-.7290001-4.9320068-5.4359999v-8.7999992h1.625c2.6900024,0,3.6430054.6730003,4.6519928,2.2999992,1.625,2.7460003,3.5870056,6.165,5.4360046,8.8000002,2.5220032,3.6429996,4.7640076,4.9320002,9.5279999,5.1560001.6730042.0560002,1.2890015.0560002,1.9060059.0560002l.2200012-1.5150008ZM187.1869965,22.4572296v-13.7889996c0-1.4570007.1679993-2.0740013.5599976-2.4099998.9139252-.4731369,1.9465332-.6678391,2.9700012-.5600014,4.0350037,0,7.8999939,2.2420006,7.8999939,8.295002.1779938,2.6422024-.927536,5.208395-2.9700012,6.894001-1.3999939,1.1210003-3.2510071,1.5690002-6,1.5690002l-2.4599915.0009975ZM232.1360016,2.9572277c-11.9380035,0-19,9.4160004-19,19.3920002,0,10.7609997,8.0709991,18.7189999,18.3829956,18.7189999s18.8309937-7.3999996,18.8309937-19.5c.0080109-11.218998-8.5139923-18.6169968-18.2099915-18.6169968l-.0039978.0059967ZM231.0149994,5.031229c7.2299957,0,13.0590057,6.3330002,13.0590057,18.0470009,0,10.6999998-5.3240051,15.9169998-11.3769989,15.9169998-7.7899933,0-13.2830048-7.79-13.2830048-18.1000004.0039978-10.3780003,5.4959869-15.8700008,11.6049957-15.8700008l-.0039978.0060005ZM293.506012,3.7982273h-13.4480286v1.625c3.9230042.2799988,5.1000061,1.0649986,5.4360046,3.1949997.3259277,2.9772644.4568787,5.9726524.3919983,8.9669991v4.5400009c0,9.3000002-2.5780029,15.7489996-10.3680115,15.7489996-6.7820129,0-10.256012-5.0999994-10.256012-14.0679998v-12.6100006c0-5.0999985.447998-5.4360008,4.7640076-5.7729988v-1.625h-14.9069824v1.625c4.3720093.4480019,4.8760071.6730003,4.8760071,5.7729988v13.8430004c0,6.5570002,1.5690002,10.7609997,4.8760071,13.283,2.6551208,1.9053016,5.8694153,2.8715281,9.1350098,2.7460003,3.7559509.1125073,7.396637-1.3047166,10.0879822-3.9269962,3.1950073-3.3629999,4.2000122-8.1829996,4.2000122-14.6279993v-4.9319992c-.0487061-2.9555779.063446-5.9116135.3359985-8.8549995.2799988-2.2420006,1.5690002-3.026001,4.8760071-3.3069992v-1.621006ZM298.15802,3.7982273v1.625c4.0910034.3359985,4.6000061.5600014,4.6000061,5.4920006v22.25c0,4.6520004-.5,5.1000004-4.9320068,5.4359999v1.6200027h15.5809937v-1.625c-4.9880066-.3360004-5.4360046-.6730003-5.4360046-5.3800001v-8.6310005l4.0910034,1.0650005c.8218079.0632477,1.6478882.044487,2.4660034-.0559998,5.5490112-.7290001,10.9849854-4.1999989,10.9849854-11.5450001.1696167-3.1037369-1.2177429-6.0880852-3.7000122-7.9589996-2.2420044-1.625-5.4360046-2.2999992-9.4719849-2.2999992l-14.1829834.0079956ZM307.9660339,8.7862263c0-1.4570007.1679993-2.1300011.5599976-2.4659996.8708801-.5387497,1.8950806-.7752953,2.9140015-.6730003,4.428009,0,8.1830139,2.5219994,8.1830139,8.6310005,0,7.1739998-4.428009,9.0229988-7.7900085,9.0229988-1.3148804.0182552-2.6230774-.1904736-3.8670044-.6170006v-13.8979988Z"/>
  </g>
</svg>