<?xml version="1.0" encoding="UTF-8"?>
<svg id="_レイヤー_1" data-name="レイヤー_1" xmlns="http://www.w3.org/2000/svg" width="120" height="164" version="1.1" viewBox="0 0 120 164">
  <!-- Generator: Adobe Illustrator 29.1.0, SVG Export Plug-In . SVG Version: 2.1.0 Build 142)  -->
  <defs>
    <style>
      .st0 {
        fill: #fff;
      }
    </style>
  </defs>
  <g id="_グループ_26779" data-name="グループ_26779">
    <g id="_グループ_26776" data-name="グループ_26776">
      <path id="_パス_39719" data-name="パス_39719" class="st0" d="M100.1659851,108.9221802c-1.0718842-3.470665-3.4081268-6.4122009-6.5460052-8.2419968-3.5550003-2.3099976-7.3339996-4.2160034-11.0919991-6.159996-2.5810013-1.3339996-5.2179985-2.5690002-7.6899986-4.0999985-1.9282684-1.0648575-3.2803459-2.9351044-3.6870003-5.0999985-.4099998-2.336998-.512001-4.6999969-.7229996-7.0540009-.0381012-.4347687.1335335-.8616257.4620018-1.1490021.9246712-.9144897,1.6839027-1.9822845,2.2439995-3.1559982.6861649-1.5700455,1.1784592-3.2178574,1.4659996-4.9069977,1.1215324.0210037,2.1152458-.7193451,2.4160004-1.8000031.3333702-1.0811462.5716133-2.1893654.7120018-3.3120003.0299988-.1080017.0589981-.2169991.0849991-.3269997.0439987-.1570015.0999985-.3250008.1599998-.5139999.5200005-1.5110016,1.7000008-4.8170013-.0400009-5.5470009-.1587296-.2902985-.4190331-.5117912-.730999-.6220016.0270004-.0569992.0499992-.1100006.0789986-.1679993,1.2779999-2.5999985,1.7550011-11.8170013-.2659988-14.7000008-1.7739983-2.5279999-6.3470001-8.6599998-12.1599998-10.0429993-.6775169-1.5479584-2.0640526-2.6709042-3.7190018-3.012001v-14.5140047c1.8549995,3.1350002,5.6899986,7.7249994,12.2560005,7.7249994,5.6511803.0627747,10.2832565-4.4675255,10.3460312-10.1187057.0309677-2.7876296-1.0767403-5.4672232-3.0670319-7.4192934-1.9604187-1.9861017-4.6519661-3.0776213-7.4420013-3.018-3.4310303.026752-6.7144814,1.3991653-9.144001,3.8220001-.2919998.2679999-2.9799995,2.7149999-4.2459984,3.8670003l-.5250015.4779997c-1.7399979-3.1230001-5.6289978-8.1890001-12.5239964-8.1890001-5.6511879-.0622274-10.2828255,4.4685197-10.3450527,10.1197071-.0306969,2.7877789,1.0773869,5.4673939,3.0680523,7.4192924,1.9603138,1.9856453,4.6513538,3.0771065,7.441,3.0179996,3.4312477-.027132,6.7148705-1.3994694,9.1450005-3.8220005.2109985-.1940002,1.6749992-1.5270004,2.947998-2.6859999v13.3160009c-1.6788826.3458557-3.0802994,1.4952545-3.7480011,3.0739994-5.7999992,1.3999996-10.3600006,7.5130005-12.1300011,10.0369987-2.0090008,2.862999-1.5489998,11.9700012-.2910004,14.6389999-.1675091.0936127-.3543491.1473389-.5459995.1570015-.2999992.0299988-.5569992.3699989-.6700001.6909981-.1784897.4645996-.2837429.9540977-.3120003,1.4510002-.0331593.5476036.0119629,1.0971375.1340008,1.632.0811195.9903946.2372341,1.9732132.467001,2.9399986.1640034.8729477.459713,1.7159004.8770008,2.4999962.0769997.3259964.1830006.7070007.342001,1.1829987.2406178.8798752.9560966,1.5493317,1.8500004,1.7310104.0480003.1849976.0930004.3720016.1369991.5650024.2350407,1.381691.6422081,2.728508,1.2119999,4.0090027.7319813,1.4332047,1.7140694,2.7241364,2.8999996,3.8119965.2159996.1999969.4780006.375.4389992.7549973-.2479992,2.3759995-.2749996,4.776001-.7350006,7.1279984-.3017616,1.6980209-1.2136097,3.2272568-2.5639992,4.3000031-1.236002.9424667-2.5664597,1.7541504-3.9699993,2.4219971-4.3439999,2.1999969-8.6940002,4.3949966-12.9280005,6.8000031-2.8093743,1.4082642-5.3124185,3.3583603-7.3649998,5.737999-1.5321194,2.0213699-2.47554,4.4269943-2.7259989,6.9509964h81.3430023c-.13311-.8807526-.3337021-1.7499771-.5999985-2.5999985M69.7599831,5.9791813c1.6748238-1.5099065,3.8774185-2.2986012,6.1300011-2.1949999,2.1551704-.1288157,4.2329063.8243709,5.5410004,2.5420001,1.1323814,1.6555977,1.7473946,3.6102819,1.7669983,5.6160002.0121841,5.4312859-4.374752,9.8473024-9.8059998,9.8710012-2.0381927.0109501-4.0470085-.4860115-5.8450012-1.4459991-1.5196724-.8302364-2.8778992-1.9266396-4.0100021-3.2369995-.90625-1.0365143-1.6966019-2.1688919-2.3569984-3.3769999,2.0769997-1.8889999,6.9000015-6.2729998,8.579998-7.77M50.4199829,17.8831806c-1.674654,1.510191-3.8773708,2.2989273-6.1300011,2.1949997-2.1551037.1284561-4.2326794-.8246555-5.5410004-2.5419998-1.1308918-1.6544514-1.7458096-3.6070852-1.7670002-5.6110001-.0110779-5.4314475,4.3765926-9.846852,9.8080025-9.8699991,2.0381413-.0115525,4.0470238.4850833,5.8449993,1.4450001,1.5204964.8315411,2.8791084,1.9296753,4.0110016,3.2419999.9066353,1.0362129,1.6970139,2.1686354,2.3569984,3.3770003-1.6640015,1.5120001-6.8339996,6.21-8.5799999,7.7690001"/>
    </g>
    <path id="_パス_131074" data-name="パス_131074" class="st0" d="M11.8910027,130.6376028c0-1.6379995-.8460007-3.1999998-3.3479996-3.1999998h-4.4640007l-2.5789986,12.8120003h1.8540001l1.1160011-5.4720001h2.3759995l1.6380005,5.4720001h2.0340004l-1.8180008-5.652c1.8597946-.4098225,3.1859703-2.0555944,3.1909981-3.9600005ZM10.019001,130.727603c.0235596,1.3584166-1.0585556,2.4787297-2.4169693,2.5022902-.0523567.0009079-.1047249.0001445-.157032-.0022902h-2.6819992l.8460007-4.158h2.6640015c.8396187-.1171913,1.6152649.4684515,1.7324562,1.3080692.0161819.1159363.0190506.2333431.0085449.3499308h.0049973ZM23.177002,127.4336033h-7.776001l-2.5789986,12.816h7.9000015l.3240013-1.62h-6.0299988l.8100014-4.0319999h5.0760002l.3240013-1.6199999h-5.0760002l.7739983-3.9240003h5.9220009l.3309937-1.6199999ZM33.2390022,131.1956034c.1879826-1.9454746-1.2367458-3.674984-3.1822205-3.8629675-.1987057-.0191994-.3986778-.0215521-.5977802-.0070324-1.3179016-.0213013-2.5867825.4992647-3.5100002,1.4400005-1.0800018,1.1339998-1.368,2.3759995-1.9080009,5.0760002-.2299042.9745803-.3638763,1.9693213-.4000015,2.97-.0325432,1.9327227,1.5078583,3.5258849,3.4405823,3.5584275.1199379.0020195.2399025-.0021285.359417-.0124275,2.3331432-.0062181,4.3610802-1.6033109,4.9139996-3.8699999h-1.907999c-.3620758,1.2933285-1.5197506,2.2034516-2.8619995,2.25-1.0852127.0697012-2.0214539-.7535334-2.091156-1.8387458-.0041733-.0649981-.0051231-.1301634-.0028381-.1952553.0495071-.96385.1833534-1.9215102.4000015-2.862.5-2.4660006.7919998-3.3480005,1.3999996-3.9779997.5215721-.5953226,1.2786236-.9310589,2.0699997-.9180002,1.3500004,0,2,.9359999,2.0160007,2.25h1.8619957ZM44.453002,130.6376038c0-1.6380005-.8459997-3.1999998-3.3480005-3.1999998h-4.4640007l-2.5789967,12.8119993h1.8540001l1.1159992-5.4720001h2.3759995l1.6380005,5.4720001h2.0340004l-1.8180008-5.652c1.8578081-.411839,3.1814928-2.057097,3.1860008-3.9600005l.0049982.000001ZM42.5810013,130.7276039c.0235596,1.3584166-1.0585537,2.4787297-2.4169693,2.5022902-.0523548.0009079-.1047249.000144-.1570301-.0022902h-2.6819992l.8460007-4.158h2.6639996c.8396187-.1171913,1.6152649.4684515,1.7324562,1.3080692.0161819.1159363.0190487.2333422.0085449.3499298l.0049973.000001ZM56.5130014,127.4336042h-1.8589978l-1.6560001,8.3000002c-.4000001,1.98-1.638,2.9879999-3.1320004,2.9879999-1.0394859.0746242-1.9426508-.707551-2.0172749-1.7470372-.0068598-.0955479-.0064335-.1914794.0012751-.2869627.0083609-.2898448.0384445-.5786543.0900002-.8639998l1.6739998-8.3879995h-1.8540001l-1.6379995,8.2440004c-.073699.367734-.1158524.741091-.1260004,1.1160002-.0389709,1.9326037,1.4961224,3.5308807,3.4287252,3.5698516.1051569.0021205.2103548-.0005002.3152752-.0078539,2.448,0,4.4640002-1.44,5.0580001-4.41l1.7149978-8.513999ZM61.4270015,127.4336042h-1.8589981l-2.5769999,12.815999h1.8569999l2.5789981-12.815999ZM72.1010017,127.4336042h-8.5369983l-.342,1.6379995h3.3839998l-2.25,11.1779995h1.8540001l2.2499995-11.1780005h3.3120003l.3289986-1.6379986ZM85.0250015,127.4336042h-1.822998l-5.184,7.8479991-1.9799995-7.848h-1.7640009l-2.5739994,12.816h1.8719997l1.7459993-8.7119999,1.6380005,6.1199999h1.368l4.0139999-6.0480003-1.7469997,8.6400003h1.8540001l2.579998-12.815999ZM96.0250015,127.4336042h-7.782999l-2.5739994,12.815999h7.9000015l.322998-1.62h-6.0300007l.8099995-4.0319999h5.0760002l.3240013-1.6199999h-5.073l.7740002-3.9240003h5.9189987l.3339996-1.6199989ZM107.8330002,127.4336042h-1.8609962l-1.8359985,9.1800003-3.8520012-9.1800003h-1.6380005l-2.5740013,12.815999h1.8540001l1.8540001-9.1800003,3.8520012,9.1800003h1.6199989l2.5809975-12.815999ZM118.507,127.4336042h-8.5389977l-.3419991,1.6379995h3.3839989l-2.25,11.1779995h1.8540001l2.25-11.1780005h3.3120003l.3309975-1.6379986ZM8.3289986,149.4336042h-1.8540001l-2.5839958,12.815999h1.8540001l2.5839958-12.815999ZM20.7289963,149.4336042h-1.8540001l-1.8359985,9.1800013-3.8520012-9.1800003h-1.6380005l-2.5789909,12.8159981h1.8540001l1.8540001-9.1800003,3.8519974,9.1800003h1.6199989l2.5789948-12.815999ZM31.7289963,149.4336042h-7.776001l-2.5809937,12.815999h1.8540001l1.0999985-5.4899998h5.0939999l.3239994-1.6380005h-5.0760002l.8100014-4.0679998h5.9220009l.3289948-1.6199989ZM41.4129963,152.871604c.0580006-1.9056044-1.4397774-3.4974213-3.3453827-3.5554218-.1269493-.0038633-.254015-.0007181-.3806171.0094213-1.325388-.0331707-2.6043701.488863-3.5279999,1.4400005-1.0620003,1.1160002-1.368,2.3940001-1.9080009,5.0760002-.230917.9743919-.3649025,1.9692345-.3999996,2.9699993-.060812,1.9022007,1.4319305,3.4935379,3.3341312,3.554348.1246834.0039864.2494888.0011997.3738689-.0083485,1.3313217.0367622,2.6172466-.4854412,3.5459995-1.4400005,1.0620003-1.1159992,1.368-2.394001,1.9080009-5.0760002.2285614-.9746284.3602047-1.9694672.3930073-2.9699993l.0069923.000001ZM39.5589962,153.015604c-.0501461.9519129-.1839962,1.897563-.3999996,2.8260002-.5,2.5200005-.8279991,3.3840008-1.3859997,3.9780006-.5282955.5965767-1.291254.9320145-2.0879993.9179993-1.0609074.0352287-1.949501-.7962456-1.9847298-1.8571529-.0023575-.070982-.0007782-.1420403.0047302-.2128468.0501461-.9519119.1839962-1.8975639.3999996-2.8260002.5-2.5200005.8279991-3.3839998,1.3859997-3.9779997.5282955-.5965767,1.291254-.9320154,2.0879993-.9180002,1.0610275-.0313578,1.9465828.8033543,1.9779396,1.8643827.0020275.0685778.0003796.1372147-.0049324.205616l.0069923.000001ZM52.9329958,152.6376038c0-1.6380005-.8460002-3.1999998-3.3480005-3.1999998h-4.4640007l-2.5809917,12.8119993h1.8510008l1.1160002-5.4720001h2.3839998l1.6329994,5.4720001h2.0339999l-1.8180003-5.6520004c1.8578081-.4118385,3.1814928-2.0570965,3.1860008-3.96l.0069923.000001ZM51.0609961,152.7276039c.0235605,1.3584166-1.0585537,2.4787292-2.4169703,2.5022898-.0523539.0009089-.1047239.000145-.1570301-.0022898h-2.6820002l.8459997-4.158h2.6639996c.8397732-.1160765,1.6146421.4705944,1.7307186,1.3103676.0159216.1151886.0187035.2318144.0082903.3476315l.0069923.000001ZM67.182003,149.4336033h-1.8179998l-5.1839998,7.8479996-1.98-7.8479996h-1.764l-2.5740001,12.816h1.872l1.7460001-8.7119999,1.638,6.1200008h1.368l4.0139999-6.0480013-1.7459998,8.6400003h1.8540001l2.5739994-12.816ZM76.8120041,162.2496033l-1.9080009-12.816h-1.4939995l-7.0190001,12.816h2l1.3859997-2.6280003h4.8240004l.3210001,2.6280003h1.8900003ZM74.4360046,158.0916023h-3.8880014l3.1140003-5.8859997.7740011,5.8859997ZM87.5220032,149.4336033h-8.5310001l-.342001,1.6380005h3.3840008l-2.2509995,11.1779995h1.8540001l2.25-11.1780005h3.3120003l.3239994-1.6379995ZM91.5540047,149.4336033h-1.854002l-2.5739994,12.816h1.8540001l2.5740013-12.816ZM102.1740036,152.871603c.0579987-1.9056044-1.4397774-3.4974203-3.3453827-3.5554209-.1269493-.0038643-.2540169-.0007191-.380619.0094213-1.325386-.0331707-2.6043701.488863-3.5279999,1.4400005-1.0620003,1.1160002-1.368,2.3940001-1.9080009,5.0760002-.2309189.9743919-.3649025,1.9692345-.4000015,2.9699993-.0608101,1.9022007,1.4319305,3.4935379,3.3341331,3.554348.1246796.0039864.2494888.0011997.373867-.0083485,1.3313217.0367641,2.6172485-.4854393,3.5460014-1.4400005,1.0620003-1.1159992,1.368-2.394001,1.9080009-5.0760002.2309189-.9743929.3649025-1.9692335.4000015-2.9699993ZM100.3200035,153.0156031c-.050148.9519129-.1839981,1.897563-.4000015,2.8260002-.5,2.5199995-.8279991,3.3839998-1.3860016,3.9779997-.5282974.5965767-1.291256.9320145-2.0880013.9179993-1.0609055.0352287-1.949501-.7962456-1.9847298-1.8571529-.0023575-.070982-.0007782-.1420403.0047302-.2128468.050148-.9519119.1839981-1.8975639.4000015-2.8260002.5-2.5200005.8279991-3.3839998,1.3860016-3.9779997.5282974-.5965767,1.291256-.9320154,2.0880013-.9180002,1.0609055-.0352297,1.949501.7962465,1.9847298,1.8571529.0023575.070982.0007782.1420403-.0047302.2128477ZM115.0620041,149.4336033h-1.8540001l-1.8359985,9.1800003-3.8520012-9.1800003h-1.6380005l-2.5740013,12.816h1.8540001l1.8540001-9.1800003,3.8520012,9.1800003h1.6230011l2.5709991-12.816Z"/>
  </g>
</svg>