<svg xmlns="http://www.w3.org/2000/svg" xmlns:xlink="http://www.w3.org/1999/xlink" width="595" height="159" viewBox="0 0 595 159">
  <defs>
    <clipPath id="clip-path">
      <rect id="長方形_38818" data-name="長方形 38818" width="595" height="159" transform="translate(396 235)" fill="#fff"/>
    </clipPath>
  </defs>
  <g id="マスクグループ_26608" data-name="マスクグループ 26608" transform="translate(-396 -235)" clip-path="url(#clip-path)">
    <path id="パス_130444" data-name="パス 130444" d="M18.938,3.563,17,2V-.25l4.438-1.562,1,.313a72.271,72.271,0,0,1,15.25-4.125h3.188l.938-1V-17.437l.375-.312v-3.5l-.375-.937.688-3.5v-3.187l.313-1.312-1.937-.625A161.885,161.885,0,0,0,20.5-25.687l-2.562-1.937v-1.562Q31-32.688,44.063-35.562l3.188,1.25.313.313v3.188l-.312.313v6.063l-.625,2.875v8.938l-.312.313V-5l.625,2.875A3.185,3.185,0,0,1,43.75-.875l-2.562-.937-.312.313H37.688Q28.5,1.063,18.938,3.563ZM91.26,6.188Q81.823-1.5,72.7-9.75v-1.812l2.625-.562Q83.885-4.437,92.76,2.313l1.188,3.25A3.409,3.409,0,0,1,91.26,6.188ZM90.7-12.125q-7.687-4.75-15.062-10L74.76-24.5l2.063-.875a96.874,96.874,0,0,0,14.438,8.5l2.063,2.688v.875A3.05,3.05,0,0,1,90.7-12.125Zm5.563-9.437L77.385-36.312v-1.5a2.314,2.314,0,0,1,2.375-.875l9.75,7.375v.625L98.948-24.5l.313,2.375A3.779,3.779,0,0,1,96.26-21.562Zm28.7,28.375-1.875-1.937V3.625q7.875-2.188,16.063-3.75l.938-4.125V-7.375l1.25-10.125-.937-1.25H138.52A60.687,60.687,0,0,0,125.9-14.937L124.02-16.25l-.312-2.5a105.22,105.22,0,0,1,14.5-3.437h5.375l1.875,1.25.313,1.875-.312.313v7.563l-1.25,8.5,2.188.625,7.875-1.875,1.938,1.563v1.313Q140.395,2.688,124.958,6.813ZM175.842-1.75a3.308,3.308,0,0,1-2.187-3.812l.938-.625h5.688l.313-.312h4.438l.313-.312h3.188l20.25-3.812h3.5l1.938,1.563v.938l-1,1.313-2.5.938h-5.375q-11.125,2.188-22.5,3.5h-3.187ZM181.9-21.437a3.892,3.892,0,0,1-1.937-3.437l2.563-1,.313.313H200.9l3.125-.625h3.188l1.875,1.625V-23a7.181,7.181,0,0,1-4.062,1.25H193.9l-1.875-.312-.312.313H187.9l-.312.313Zm65.323,26.25L245.04,3.5,244.665,1a231.212,231.212,0,0,0,5.75-25.5l-2.562-.625-11.437,3.188-.937,4.125v6.688l.625,1.938L233.54-7.625l-2.25-1.937-.312-.937v-5.375q1.313-7.687,2.563-15.625v-7.312l1.625-.625,2.188,1.25.625,3.5-.312.313v3.813l-.312,3.188h2.25a86.472,86.472,0,0,1,12.75-2.25h4.75l4.813-.937,3.5,1.625.313,1.875a15.9,15.9,0,0,1-5.75,1.625l-3.812-.625-.937.313A226.53,226.53,0,0,1,249.165,1l.313,1.875L248.54,4.5ZM285.55-12.125l-2.062-2.562.188-1.562q16.187-2.375,32.375-4.937l1.813,1.813.125,2-1.062,1.25-3.562-.375Q299.425-14.313,285.55-12.125ZM344.185,4.563a3.333,3.333,0,0,1-1.875-3.5,177.191,177.191,0,0,0,30.25-11.187l.313,1.625A63.284,63.284,0,0,1,344.185,4.563Zm4.188-13.375A74.507,74.507,0,0,1,335-17.437v-.937l.938-1.312h1.938a42.291,42.291,0,0,1,13,9.25Zm5.375-14L351.56-24.75a94.093,94.093,0,0,1-8.937-12.437l1.563-.937a3.944,3.944,0,0,1,3.5,1.938l2.875,3.813L355.685-27l.625,2.563Q356-22.5,353.747-22.812ZM397.7,4.938,395.82,3.063V1.813q8.125-3.125,16.25-5.937l1.188-2.812v-3.437L412.07-11a153.207,153.207,0,0,1-16.562,5.313L393.32-7.875v-1.25q10.313-2.812,20.563-6.25l.625-1.875v-4.375l-1.25-.625a74.067,74.067,0,0,0-14.937,4.688l-1.875-1.562-.312-1.562a72.122,72.122,0,0,1,19.938-5.25l1.563.938,1.25,3.375-.312,1.875.313.938L418.258-16l.313,1.875-1.25,7.188,3.75,1.563.313,1.25-.937,1.25Q409.257,1.188,397.7,4.938Zm57.448-1.062L452.58,1q9.5-6.313,18.688-13h.625l.313-.937A37.822,37.822,0,0,1,483.33-19.25l.313,1.563A217.71,217.71,0,0,1,459.518,2.625h-.625l-.312.938-.312.313Zm3.125-17.75-3.5-3.5A130.244,130.244,0,0,1,444.643-32.25a3.7,3.7,0,0,1,3.813-.937q5.375,6.625,10.75,13.625l1,1.875V-14.5Zm39.2,19.25L495.9,4.063V1.875l3.188-15.062-1.25-.312L491.4-9l-2.562-1.625-.312-1.312q5.75-4.125,11.188-7.625v-9.625L502.9-29.5a2.884,2.884,0,0,1,1.313,3.5l-.312.313v4.813l2.875.313,1.25-.625h5.437l3.25,1.938,1.563,5.438a40.118,40.118,0,0,1-4.437,17.25l-3.25.313-1.25-2.562a38.076,38.076,0,0,0,4.5-16.625l-1.312-2.25L512.215-18h-4.187l-3.812,1.625-.937,4.813V-7.75q-1.625,6.375-3.25,12.813ZM534.277-9A105.2,105.2,0,0,0,519.59-28.25l-2.562-2.562v-1.562l2.25-.625,5.063,4.438a111.42,111.42,0,0,1,13.125,17.938l-.937,1.25Zm-1.25-16.375q-4.5-6.063-9.312-12.437v-1.312a3.555,3.555,0,0,1,2.875-.625,122.127,122.127,0,0,1,8.688,11.188l.313,1.938A3.138,3.138,0,0,1,533.027-25.375Zm9.563-.937a102.993,102.993,0,0,0-8.937-13.125l-1.312-.937-.312-2.25,2.563-.625L536.84-42l1,1.938.938.313a24.128,24.128,0,0,1,6.063,13.438ZM34.438,115.375a5.414,5.414,0,0,1-4.687-2.562l-.25-1.625,1.875-1.5v-5l-.25-1.75.25-.375V98.125l-.25-1.812.688-.875h4.563L37.938,93V83.375L34.5,82.563,29.938,83.75H25.75l-2.562-2.5V79.938L24.5,77l-.375-1.562A53.588,53.588,0,0,1,37.938,62.313l3.375-.375,1.563,1.313v1.438l-4.5,2.5v1.875l3.938,1.75.125.188v6l3.5.875L56.813,76.25l1.375.75.938,2.5-5.437,1.75H45.313l-2.375,1.063-.5,4.125.375,1.438-.375.313V94.25a31.721,31.721,0,0,1,12.375,3.875,131.266,131.266,0,0,0,4.5,12.5l-1.437,4.5-.75.188a10.081,10.081,0,0,0-7.625-1.875l-3.25.75H41ZM9.625,112.813l-2.812-2.5v-.625a33.568,33.568,0,0,1,12.563-4.75l.5,1.313-1,2A86.063,86.063,0,0,1,9.625,112.813Zm42.938-4.187.5-2L50.438,99.75l-4.875-.937H40.438l-4,1.75-1,5.375,1.375,3.75.5.688h7.25l.375-.375h3.938ZM14.938,97.688a18.829,18.829,0,0,1-9-3.062l-.25-2.062,2.25-.812a26.63,26.63,0,0,1,10.125,3.938l.25,1.25Q17.437,98.312,14.938,97.688Zm2.188-12.75-8.75-8.312-.375-2a2.865,2.865,0,0,1,2.938-.75,40.648,40.648,0,0,1,7.875,7.75l.375,1.688-.625,1.625Zm19.75-6.812,1.063-2.812-.5-1.25.5-1.125a3.977,3.977,0,0,0-2.375-4l-9,7.688v1.75l.625.813h7.438ZM78.69,115.438a4.572,4.572,0,0,1-2.187-4.625L81.94,96.438l-4.562-1L76.128,93.5A79.674,79.674,0,0,1,85,91.75l2.375-6.875-.937-1H81.753L78.565,83l-7.75,11.625L67.94,95,67,94.188V92.25l.313-.812A113.39,113.39,0,0,0,77.19,76.875a26.068,26.068,0,0,1-8.25-7.125v-.625h3.25l5.625,4.813h2l4.75-8.5-4.5-.625L72,66,69.69,63.688v-.312L75.753,62H89.69l1.875,1.625V64.5A81.136,81.136,0,0,0,82.94,79.75l3,.188,3.125.5L89.628,80h4.438l.313-.5H105.69a59.88,59.88,0,0,1-9.75-12.125l-.375-1.812a65.88,65.88,0,0,1,16.125-5.937l1.875.938.188,1.063L102.5,67.438l-.625,2.438,3.188,4.438h2.125a21.291,21.291,0,0,1,7.625-8.75h2.75l1.875,1.625v.688A35.071,35.071,0,0,0,109.94,76l-.625,2.25,11.313,10v1.063l-2.187.438a63.056,63.056,0,0,0-7.875-6.562l-3.75-.812H99.19l-3,.375-3,.75a13.135,13.135,0,0,0-2.437,7.063l4.5.375L97,90l.938-2.937,1.25-2.187,2.062.75,1.188,3.813.625.813h6.25L112,91.563l.188,1.125a8.17,8.17,0,0,1-4.312,1.063l-4.5-.437L102,96.875a15.72,15.72,0,0,0,4.125,9.438,8.854,8.854,0,0,0,6.188,1.563l6.5-1.25,1.813,1.313v.75a10.679,10.679,0,0,1-5.562,2.375H108.69a12.136,12.136,0,0,1-6.562-4,24.756,24.756,0,0,1-5.062-12.687l-3.5-.625L88.19,95.125l-7.312,19.063.188.75Zm64.253-1.312a16.7,16.7,0,0,1-5.437-10.875V91.375l.313-.312V86.25l.625-2.187V79.875a3.555,3.555,0,0,1,2.875-.625l2.25,1.938V83.75l-1.25,4.125v3.188l-.375.313V98.75l-.312,1.313.313.313v3.5l1,4.188h1.25l2.25-.312.938,2.188a8.044,8.044,0,0,0-1.562,3.875Zm19.5-12.5a8.768,8.768,0,0,1-5.125-1.562l-.625-2.562a3.889,3.889,0,0,1,3.188-.687l5.125.688a13.932,13.932,0,0,0,4.188,0l.938-.312,4.188,1.25.313,2.25-2.25.938h-6.437l-1.25-.312Zm-7.375-12.812-1.875-1.875V85.313A94.691,94.691,0,0,1,170.755,80.5l1.938,1,.625,2.563a7.656,7.656,0,0,1-3.812,1.563h-3.187Q160.505,87.25,155.068,88.813ZM213.7,114.125a15.658,15.658,0,0,1-6.375-6.375l-.312-3.187a26.268,26.268,0,0,1,11.813-4.125l1.563-7.625v-3.5l.313-3.187-.312-2.562,2.25-.625L224.82,84.5l.375.313V88l-.375,1,.375,1.875-1.625,10.813a35.84,35.84,0,0,1,9.563,5.438l.313,1.938a2.583,2.583,0,0,1-2.875,1.25,17.338,17.338,0,0,0-7.312-4.437,69.506,69.506,0,0,1-3.5,7.313l-1.937.938Zm2.25-4.125a6.2,6.2,0,0,0,1.875-4.437l-1.562-.687-4.125,1.938-.312,1.563a3.911,3.911,0,0,0,3.188,2.25Zm-15.937-9.875-1.875-1.937-.375-3.812L201.258,81h-.937l-5.062,1.938L192.7,80.375v-1.25L204.133,75l2.25-6.687,1.938-.375,2.188,1.313.313,1.563L209.883,74l.938.313,5.438-.937,2.875,2.875-1,1.25h-3.125l-.375.313h-4.75l-2.25,1A58.5,58.5,0,0,0,202.57,93.75v3.188h.625l.313,2.25A3.914,3.914,0,0,1,200.008,100.125ZM238.2,82.938a90.547,90.547,0,0,1-12.375-8.312l-.312-2.187,2.188-.312a56.513,56.513,0,0,0,14.375,7.938l.313,1.625A4.876,4.876,0,0,1,238.2,82.938Zm36.878,30.25-6.375-3.5-.312-1.312a19.451,19.451,0,0,1,11.125-4.75h4.125l3.188-.937,1.625-5.437-1.625-3.5L283.01,91.5h-5.062a18,18,0,0,0-8.625,4.5l-1.937,1.875h-1.562l-1.937-3.187a72.638,72.638,0,0,0,14.688-17.812l1.563-5.062a3.889,3.889,0,0,0-3.187-.687l-7.625,1.938-2.562-2.25v-.937a64.884,64.884,0,0,1,8.313-1.937h3.813l4.75,1.938a3.494,3.494,0,0,1,1.313,3.5A109.85,109.85,0,0,1,276.01,88l.938.313h4.813a11.6,11.6,0,0,1,7.938,3.875l2.875,5.063v3.813l-3.5,7a24.6,24.6,0,0,1-8.312,5.125h-4.75l-.312-.312Zm6.688-3.812,2.5-2.875h-3.187l-6.625,2.25-.375,1.25,1,.625h3.813Zm68.5,6.25A5.118,5.118,0,0,1,349.2,111.5l.375-.5v-8.5l-1.5-9.437V89.188l-.687-1.75h-1.812a10.028,10.028,0,0,1-4.375,1.125h-4.125l-1.875.375-1.312-.5-.5.5h-4.625l-.375.375h-6.562a55.812,55.812,0,0,1-11.062,2.75l-2.125-1.312-.187-1a28.23,28.23,0,0,1,8.25-2.625h5.688l1.188-2.187-.812-2.437V73.75a7.417,7.417,0,0,0-5.062-1l-2,.313-2.5-1.5-.187-1.25,6.313-1,2.25.438,5.25-1.375.5-3.5-.437-.375V58.688l-.062.063h3.5a2.936,2.936,0,0,1,1.125,3l-.375.5v4.313l1.5,2h1.938l3.438-.75h4.875l1.375,2.25-7.062,1.688a30.063,30.063,0,0,1-4.75,14.625H335.2l9.063-1.125,2.125.438.688-.687.875-.875-.687-.75V79.75a9.349,9.349,0,0,1-1.125-5.812l.375-1.625L346.2,70.75l.25-.25,12.563-.062,8.938,1.813.438,1.688L359.7,82a26.841,26.841,0,0,1,9.188,9.375v1.563l-2.437,3.75-4.25,2.125h-4.625l-4.187-1.437v4.5l.688,3.5v7.813l-1.187,2.125Zm-26.062-3.75L321.95,110l-.312-2.062.688-1.375v-3.937l1.75-10.312h2.25l3.438,2.063,3.313-.812h6.375l1,.75v7.25l-.375.438v3.813l-1.75,2.5a18.891,18.891,0,0,1-5.75,1.688h-4.937Q326.138,112.188,324.2,111.875Zm10.438-5.75a15.353,15.353,0,0,0,1.625-8.937l-3.75-1.125L327.7,98.75l-1.187,5.813.875,1.875.688.75H333.2Zm28.313-12,1.563-3.375a28.764,28.764,0,0,0-10.562-8.5h-2.5v4.438l.375.375v4l1.688,4.063,1.5,1.063h4.25Zm-33.125-8.562,2.938-12.812-2.5-1.312-2.812,1.5-.937,1.5v4.125l.313,1-.312,2,2,5.563Zm26.5-6.875,3.875-3V74.375l-.75-.937h-7.187l-1.25,1.25v4.75l2.875.5Zm35,36.75-2.562-1.875-.25-1.687.25-.187H397.7l6.875-1.187,1.063-3.312-1.437-2.812-2.062-.562-2.75.875h-3.437l-1.812-1.312-.312-1.75.938-.437h6.375l2.313-.937.625-1.687L402.7,94.438l-6.625-1.562a2.817,2.817,0,0,1-1.125-2.75l5.313-5.687v-2.25H395.7l-3.562.375A3.136,3.136,0,0,1,390.39,80a8.941,8.941,0,0,1,3.813-.812h4.125l.438-.437h3.813l8.563-1.062,1.688.875.563,1.625a22.776,22.776,0,0,0-8.875,5.438l-2.75,5.125,3.75.563a20.586,20.586,0,0,0,7.125-2.125l1.063-3.125h2.188l1.813,1.813a25.237,25.237,0,0,0,1.438,5.75l-.437,1.5-2.312.313-3.062-2.75-6.125,2.25-.5,2.25,1.313,2.688,2.5.563L414.14,100l2.125,1.313.25,1.125-1,1H409.7l-1.125,1.375v4.563l.875.813h6.313l.375-.375H421.2l4-.812,2.625,1.375.438,1.438a4.94,4.94,0,0,1-3.75,1.375l-.375-.375h-5.187l-.375.375h-4.75l-1.062.375-1.437-.5-.437.5h-5l-5,1.125h-4.125Zm-17.812-2.25-1.437-1.5V107.75q7.313-20.687,15.5-41.75L384.2,63.438l-.5-1.875Q391.265,60.5,399.578,59H403.7l3.438-.75H410.7l1.75.813,1.125,4.813-1.25,4.25.688,2.25a23.648,23.648,0,0,1-6.25,1.563h-4.687a40.228,40.228,0,0,0-13.437,4.75q-7,16.625-12.375,33.813l.313,1.313-1.062,1.375Zm34.5-45.562,1.438-4.375A5.4,5.4,0,0,0,405.015,62l-6.687,1.125H394.14l-3,.5v2.063l.313.438v4.313h2.563A89.555,89.555,0,0,1,408.015,67.625Zm42.44,47.438-1.312-.312a7.5,7.5,0,0,1-1.625-3.562,10.687,10.687,0,0,1-7.437-4.812l-.312-1a20.882,20.882,0,0,1,6.5-14.5A13.9,13.9,0,0,1,452.7,87h3.563a10.273,10.273,0,0,1,4.813,2.875,13.411,13.411,0,0,1,2.625,5.5v3.25a49.226,49.226,0,0,1-11,16.125ZM452.08,108v-.687a23.166,23.166,0,0,0,7.063-11.937l-2.25-3.875-2.562-.312-3.562,1.625a19.219,19.219,0,0,0-5.812,13.25,4.97,4.97,0,0,0,3.563,2.25l.938-.312,1.625.313Z" transform="translate(388.441 278.642)" fill="#fff" stroke="#fff" stroke-width="0.1"/>
  </g>
</svg>
