<svg xmlns="http://www.w3.org/2000/svg" xmlns:xlink="http://www.w3.org/1999/xlink" width="194" height="219.763" viewBox="0 0 194 219.763">
  <defs>
    <clipPath id="clip-path">
      <rect id="長方形_9621" data-name="長方形 9621" width="111.06" height="150.023" fill="#fff"/>
    </clipPath>
  </defs>
  <g id="グループ_26708" data-name="グループ 26708" transform="translate(-4049.998 -1757.769)">
    <g id="グループ_26704" data-name="グループ 26704" transform="translate(4049.998 1930.225)">
      <path id="パス_39685" data-name="パス 39685" d="M22.572.039l-4.48,7L16.257.168,16.226.039h-2.85l2.9,9.687-1.331,6.652-.042.205h2.7L18.94,9.907l6.44-9.6.181-.268Z" transform="translate(33.117 0.094)" fill="#fff"/>
      <g id="グループ_26703" data-name="グループ 26703" transform="translate(0 0)">
        <g id="グループ_26770" data-name="グループ 26770">
          <path id="パス_39686" data-name="パス 39686" d="M21.65,16.816a6.145,6.145,0,0,0,4.605-1.873c1.394-1.463,1.78-3.142,2.457-6.5a18.993,18.993,0,0,0,.5-3.788A4.516,4.516,0,0,0,24.334,0a6.2,6.2,0,0,0-4.584,1.873c-1.4,1.463-1.783,3.142-2.457,6.5a19.063,19.063,0,0,0-.5,3.788,4.506,4.506,0,0,0,4.862,4.65M24.195,2.392a2.263,2.263,0,0,1,2.332,2.443,20.182,20.182,0,0,1-.5,3.542c-.6,3.041-1,4.2-1.707,4.942a3.272,3.272,0,0,1-2.513,1.105,2.26,2.26,0,0,1-2.329-2.443,20.352,20.352,0,0,1,.5-3.538c.608-3.045,1-4.2,1.707-4.946a3.277,3.277,0,0,1,2.513-1.105" transform="translate(41.564 -0.001)" fill="#fff"/>
          <path id="パス_39687" data-name="パス 39687" d="M26.051,16.722c3.4,0,5.85-2.134,6.562-5.714L34.775.248l.042-.209h-2.7L30,10.671c-.455,2.273-1.87,3.636-3.789,3.636a2.222,2.222,0,0,1-2.377-2.4,6.813,6.813,0,0,1,.115-1.057L26.062.248,26.1.039h-2.7L21.31,10.6a8.024,8.024,0,0,0-.163,1.446,4.6,4.6,0,0,0,4.9,4.678" transform="translate(52.356 0.093)" fill="#fff"/>
          <path id="パス_39688" data-name="パス 39688" d="M31.29,9.42h5.86l-1.394,6.958-.042.209h2.7L41.693.244l.045-.205h-2.7l-1.39,6.986H31.77L33.157.039h-2.7L27.179,16.379l-.042.209h2.7Z" transform="translate(67.185 0.094)" fill="#fff"/>
          <path id="パス_39689" data-name="パス 39689" d="M31.149,16.584h2.927l1.752-3.323h5.839l.389,3.17.021.153h2.742L42.379.186,42.355.04H40.217L31.288,16.327Zm5.839-5.6,3.549-6.7.879,6.7Z" transform="translate(77.118 0.096)" fill="#fff"/>
          <path id="パス_39690" data-name="パス 39690" d="M37.819,16.587h2.127L48.232.293l.125-.254H45.465L39.81,11.564,38.6.2,38.587.039H35.914L37.8,16.434Z" transform="translate(88.914 0.093)" fill="#fff"/>
          <path id="パス_39691" data-name="パス 39691" d="M50.115,14.192H42.5l.952-4.751h6.416l.476-2.395H43.928l.907-4.612h7.487L52.8.039H42.617L39.336,16.379l-.038.205H49.635Z" transform="translate(97.292 0.094)" fill="#fff"/>
          <path id="パス_39692" data-name="パス 39692" d="M.045,25.152,0,25.36H2.7L5.981,9.018l.045-.205h-2.7Z" transform="translate(0 21.814)" fill="#fff"/>
          <path id="パス_39693" data-name="パス 39693" d="M12.438,20,7.738,8.812H5.413L2.132,25.151l-.042.209h2.7L7.047,14.168l4.7,11.192h2.3L17.328,9.021l.045-.209h-2.7Z" transform="translate(5.176 21.813)" fill="#fff"/>
          <path id="パス_39694" data-name="パス 39694" d="M17.2,20,12.5,8.812H10.171L6.89,25.151l-.042.209h2.7L11.8,14.168,16.5,25.36h2.3L22.086,9.021l.045-.209h-2.7Z" transform="translate(16.955 21.813)" fill="#fff"/>
          <path id="パス_39695" data-name="パス 39695" d="M19.313,8.774a6.2,6.2,0,0,0-4.588,1.873c-1.394,1.467-1.78,3.142-2.457,6.5a18.964,18.964,0,0,0-.5,3.789,4.5,4.5,0,0,0,4.859,4.65,6.145,6.145,0,0,0,4.605-1.873c1.4-1.46,1.783-3.142,2.457-6.5a19.121,19.121,0,0,0,.5-3.788,4.518,4.518,0,0,0-4.88-4.654M16.786,23.2a2.263,2.263,0,0,1-2.332-2.443,20.115,20.115,0,0,1,.5-3.538c.6-3.045,1-4.2,1.707-4.946a3.272,3.272,0,0,1,2.513-1.105A2.26,2.26,0,0,1,21.5,13.609a20.421,20.421,0,0,1-.5,3.542c-.608,3.041-1,4.2-1.707,4.942A3.277,3.277,0,0,1,16.786,23.2" transform="translate(29.132 21.718)" fill="#fff"/>
          <path id="パス_39696" data-name="パス 39696" d="M28.66,8.813H25.768L20.113,20.334,18.9,8.969l-.017-.156H16.217L18.1,25.207l.017.153h2.127l8.286-16.3Z" transform="translate(40.149 21.814)" fill="#fff"/>
          <path id="パス_39697" data-name="パス 39697" d="M30.028,8.813H27.887L18.961,25.1l-.139.257h2.927L23.5,22.035h5.836l.393,3.17.017.153h2.746l-2.443-16.4Zm-.938,10.945H24.661l3.545-6.7Z" transform="translate(46.598 21.815)" fill="#fff"/>
          <path id="パス_39698" data-name="パス 39698" d="M24.052,8.813l-.5,2.416h4.279l-2.8,13.924-.042.209h2.7l2.843-14.132h4.188l.476-2.416Z" transform="translate(58.3 21.814)" fill="#fff"/>
          <path id="パス_39699" data-name="パス 39699" d="M26.92,25.152l-.042.209h2.7L32.857,9.018l.045-.205H30.2Z" transform="translate(66.544 21.814)" fill="#fff"/>
          <path id="パス_39700" data-name="パス 39700" d="M36.676,8.774a6.2,6.2,0,0,0-4.588,1.873c-1.394,1.467-1.78,3.142-2.457,6.5a18.964,18.964,0,0,0-.5,3.789,4.5,4.5,0,0,0,4.859,4.65,6.145,6.145,0,0,0,4.605-1.873c1.4-1.46,1.783-3.142,2.457-6.5a19.121,19.121,0,0,0,.5-3.788,4.518,4.518,0,0,0-4.88-4.654M34.149,23.2a2.263,2.263,0,0,1-2.332-2.443,20.115,20.115,0,0,1,.5-3.538c.6-3.045,1-4.2,1.707-4.946a3.272,3.272,0,0,1,2.513-1.105,2.26,2.26,0,0,1,2.329,2.443,20.421,20.421,0,0,1-.5,3.542c-.608,3.041-1,4.2-1.707,4.942A3.277,3.277,0,0,1,34.149,23.2" transform="translate(72.118 21.718)" fill="#fff"/>
          <path id="パス_39701" data-name="パス 39701" d="M43.6,20,38.9,8.812H36.576L33.3,25.151l-.042.209h2.7L38.21,14.168l4.7,11.192h2.3L48.491,9.021l.045-.209h-2.7Z" transform="translate(82.326 21.813)" fill="#fff"/>
          <path id="パス_39702" data-name="パス 39702" d="M48.036,18.482,45.631,8.941,45.6,8.813H43.087L39.809,25.152l-.042.209h2.718l2.089-10.424,1.88,7.017.035.129h1.95L53.076,15.1l-2.03,10.052L51,25.36h2.7L56.983,9.018l.045-.205H54.421Z" transform="translate(98.453 21.814)" fill="#fff"/>
          <path id="パス_39703" data-name="パス 39703" d="M45.139,25.152l-.045.209h2.7L51.075,9.018l.045-.205h-2.7Z" transform="translate(111.638 21.814)" fill="#fff"/>
          <path id="パス_39704" data-name="パス 39704" d="M57.531,20l-4.7-11.188H50.507L47.226,25.151l-.042.209h2.7L52.14,14.168l4.7,11.192h2.3L62.422,9.021l.045-.209h-2.7Z" transform="translate(116.814 21.813)" fill="#fff"/>
          <path id="パス_39705" data-name="パス 39705" d="M60.569,8.813H55.261L51.98,25.152l-.038.205h5.784a6.357,6.357,0,0,0,4.463-1.571c1.488-1.39,1.988-2.92,2.735-6.805a18.188,18.188,0,0,0,.483-3.535c0-2.947-1.762-4.633-4.838-4.633m-.41,2.395c1.672,0,2.558.838,2.558,2.419a19.2,19.2,0,0,1-.473,3.291c-.57,3.052-1.036,4.334-1.842,5.068a3.809,3.809,0,0,1-2.7.98H55.136l2.343-11.758Z" transform="translate(128.593 21.815)" fill="#fff"/>
        </g>
      </g>
    </g>
    <g id="グループ_26712" data-name="グループ 26712" transform="translate(4091.468 1757.769)">
      <g id="グループ_26709" data-name="グループ 26709" clip-path="url(#clip-path)">
        <path id="パス_39707" data-name="パス 39707" d="M110.246,146.473c-1.414-4.991-4.7-8.5-8.938-11.253-4.854-3.154-10.014-5.756-15.144-8.41-3.524-1.821-7.124-3.507-10.5-5.6a10.08,10.08,0,0,1-5.034-6.968c-.56-3.19-.7-6.417-.987-9.631a1.868,1.868,0,0,1,.63-1.568,15.37,15.37,0,0,0,3.063-4.31,28.8,28.8,0,0,0,2-6.7,3.358,3.358,0,0,0,3.3-2.457,26.51,26.51,0,0,0,.973-4.522c.041-.148.081-.3.117-.447.06-.214.131-.444.219-.7.71-2.063,2.325-6.577-.055-7.574a1.834,1.834,0,0,0-1-.849c.037-.078.069-.15.108-.229,1.744-3.552,2.4-16.134-.364-20.068-2.422-3.451-8.666-11.823-16.6-13.713a7.109,7.109,0,0,0-5.077-4.113V17.549C59.49,21.829,64.726,28.1,73.691,28.1A13.972,13.972,0,0,0,83.628,4.15,13.861,13.861,0,0,0,73.468.029,17.878,17.878,0,0,0,60.983,5.248c-.4.366-4.068,3.707-5.8,5.28l-.716.652C52.093,6.916,46.783,0,37.37,0a13.972,13.972,0,0,0-9.936,23.947,13.863,13.863,0,0,0,10.159,4.12,17.879,17.879,0,0,0,12.486-5.218c.288-.264,2.286-2.085,4.025-3.667V37.362a7.115,7.115,0,0,0-5.118,4.2c-7.917,1.908-14.144,10.258-16.561,13.7-2.742,3.908-2.115,16.343-.4,19.988a1.7,1.7,0,0,1-.746.214c-.414.041-.761.506-.915.943a6.563,6.563,0,0,0-.426,1.981,7.877,7.877,0,0,0,.182,2.228,26.835,26.835,0,0,0,.637,4.015,11.97,11.97,0,0,0,1.2,3.409c.105.446.25.965.467,1.615a3.3,3.3,0,0,0,2.532,2.368c.066.252.127.509.187.772A22.918,22.918,0,0,0,36.8,98.267a18.452,18.452,0,0,0,3.953,5.205c.295.271.652.512.6,1.03-.338,3.244-.376,6.521-1,9.732a9.656,9.656,0,0,1-3.5,5.875,30.679,30.679,0,0,1-5.42,3.307c-5.93,3.009-11.87,6-17.65,9.287-3.724,2.117-7.356,4.383-10.056,7.834A18.782,18.782,0,0,0,0,150.023H111.06a23.743,23.743,0,0,0-.814-3.55M68.731,5.921a11.7,11.7,0,0,1,8.37-3A8.846,8.846,0,0,1,84.666,6.4a13.822,13.822,0,0,1,2.413,7.662A13.448,13.448,0,0,1,73.691,27.534a16.753,16.753,0,0,1-7.981-1.974,19.746,19.746,0,0,1-5.476-4.419,25.821,25.821,0,0,1-3.217-4.61c2.836-2.579,9.424-8.564,11.714-10.609m-26.4,16.253a11.693,11.693,0,0,1-8.37,3A8.848,8.848,0,0,1,26.394,21.7a13.835,13.835,0,0,1-2.413-7.661A13.448,13.448,0,0,1,37.37.563,16.743,16.743,0,0,1,45.35,2.537a19.74,19.74,0,0,1,5.476,4.42,25.738,25.738,0,0,1,3.218,4.61c-2.272,2.065-9.331,8.479-11.715,10.608" fill="#fff"/>
      </g>
    </g>
  </g>
</svg>
