<svg xmlns="http://www.w3.org/2000/svg" xmlns:xlink="http://www.w3.org/1999/xlink" width="349.309" height="20.286" viewBox="0 0 349.309 20.286">
  <defs>
    <clipPath id="clip-path">
      <rect id="長方形_9612" data-name="長方形 9612" width="349.309" height="20.286" fill="#fff"/>
    </clipPath>
  </defs>
  <g id="グループ_26694" data-name="グループ 26694" transform="translate(0 0)">
    <g id="グループ_26693" data-name="グループ 26693" transform="translate(0 0)" clip-path="url(#clip-path)">
      <path id="パス_39643" data-name="パス 39643" d="M13.39,4.081a4.375,4.375,0,0,0-3.7-1.591A3.884,3.884,0,0,0,5.5,6.132c0,1.369,1.1,1.976,2.441,2.3l1.7.414c3.094.737,4.328,2.16,4.328,4.906,0,4.107-3.508,6.133-7.564,6.133C3.5,19.888,1.69,19.126.07,17.2L2.155,15.4a5.284,5.284,0,0,0,4.5,2c2.52,0,4.492-1.453,4.492-3.454,0-1.7-1.013-2.248-2.411-2.574l-1.725-.41c-2.579-.6-4.333-2.11-4.333-4.525C2.674,3.2,5.139.05,10.016.05a6.552,6.552,0,0,1,5.35,2.3Z" transform="translate(0.223 0.159)" fill="#fff"/>
      <path id="パス_39644" data-name="パス 39644" d="M13.39,4.081a4.375,4.375,0,0,0-3.7-1.591A3.884,3.884,0,0,0,5.5,6.132c0,1.369,1.1,1.976,2.441,2.3l1.7.414c3.094.737,4.328,2.16,4.328,4.906,0,4.107-3.508,6.133-7.564,6.133C3.5,19.888,1.69,19.126.07,17.2L2.155,15.4a5.284,5.284,0,0,0,4.5,2c2.52,0,4.492-1.453,4.492-3.454,0-1.7-1.013-2.248-2.411-2.574l-1.725-.41c-2.579-.6-4.333-2.11-4.333-4.525C2.674,3.2,5.139.05,10.016.05a6.552,6.552,0,0,1,5.35,2.3Z" transform="translate(0.223 0.159)" fill="#fff"/>
      <path id="パス_39645" data-name="パス 39645" d="M7.3,7.3H4.126l.657-3.345H7.96Z" transform="translate(13.144 12.589)" fill="#fff"/>
      <path id="パス_39646" data-name="パス 39646" d="M7.3,7.3H4.126l.657-3.345H7.96Z" transform="translate(13.144 12.589)" fill="#fff"/>
      <path id="パス_39647" data-name="パス 39647" d="M9.031,19.6H6.21L10.128.089h2.826Z" transform="translate(19.784 0.284)" fill="#fff"/>
      <path id="パス_39648" data-name="パス 39648" d="M9.031,19.6H6.21L10.128.089h2.826Z" transform="translate(19.784 0.284)" fill="#fff"/>
      <path id="パス_39649" data-name="パス 39649" d="M11.385,7.3H8.208l.657-3.345h3.177Z" transform="translate(26.15 12.589)" fill="#fff"/>
      <path id="パス_39650" data-name="パス 39650" d="M11.385,7.3H8.208l.657-3.345h3.177Z" transform="translate(26.15 12.589)" fill="#fff"/>
      <path id="パス_39651" data-name="パス 39651" d="M24.265,19.6H21.8L15.939,5.623,13.113,19.6H10.292L14.21.089H16.7L22.57,14.067,25.362.089h2.826Z" transform="translate(32.791 0.284)" fill="#fff"/>
      <path id="パス_39652" data-name="パス 39652" d="M24.265,19.6H21.8L15.939,5.623,13.113,19.6H10.292L14.21.089H16.7L22.57,14.067,25.362.089h2.826Z" transform="translate(32.791 0.284)" fill="#fff"/>
      <path id="パス_39653" data-name="パス 39653" d="M28.848,5.969c-.054-2.11-1.147-3.454-3.123-3.454a4.113,4.113,0,0,0-3.181,1.4C21.53,4.956,21.12,6.4,20.383,9.971a24.889,24.889,0,0,0-.607,4.354,3.016,3.016,0,0,0,3.181,3.1c1.888,0,4.081-1.369,4.714-4.6l.218-1.235H23.912l.444-2.357H31.15l-.548,2.93a10.244,10.244,0,0,1-2.574,5.568,7.269,7.269,0,0,1-5.262,2.16c-3.592,0-5.81-2.273-5.81-5.4a21.57,21.57,0,0,1,.6-4.521c.929-4.6,1.344-6.057,2.934-7.732A7.448,7.448,0,0,1,25.834.05c3.864,0,5.81,2.52,5.835,5.919Z" transform="translate(54.021 0.159)" fill="#fff"/>
      <path id="パス_39654" data-name="パス 39654" d="M28.848,5.969c-.054-2.11-1.147-3.454-3.123-3.454a4.113,4.113,0,0,0-3.181,1.4C21.53,4.956,21.12,6.4,20.383,9.971a24.889,24.889,0,0,0-.607,4.354,3.016,3.016,0,0,0,3.181,3.1c1.888,0,4.081-1.369,4.714-4.6l.218-1.235H23.912l.444-2.357H31.15l-.548,2.93a10.244,10.244,0,0,1-2.574,5.568,7.269,7.269,0,0,1-5.262,2.16c-3.592,0-5.81-2.273-5.81-5.4a21.57,21.57,0,0,1,.6-4.521c.929-4.6,1.344-6.057,2.934-7.732A7.448,7.448,0,0,1,25.834.05c3.864,0,5.81,2.52,5.835,5.919Z" transform="translate(54.021 0.159)" fill="#fff"/>
      <path id="パス_39655" data-name="パス 39655" d="M32.075,11l2.767,8.6H31.749l-2.495-8.33H25.637l-1.7,8.33H21.116L25.034.089h6.8c3.805,0,5.09,2.39,5.09,4.881A6.188,6.188,0,0,1,32.075,11m-.657-8.414H27.362L26.077,8.918h4.081a3.747,3.747,0,0,0,3.918-3.809,2.336,2.336,0,0,0-2.658-2.524" transform="translate(67.279 0.283)" fill="#fff"/>
      <path id="パス_39656" data-name="パス 39656" d="M32.075,11l2.767,8.6H31.749l-2.495-8.33H25.637l-1.7,8.33H21.116L25.034.089h6.8c3.805,0,5.09,2.39,5.09,4.881A6.188,6.188,0,0,1,32.075,11Zm-.657-8.414H27.362L26.077,8.918h4.081a3.747,3.747,0,0,0,3.918-3.809A2.336,2.336,0,0,0,31.418,2.584Z" transform="translate(67.279 0.283)" fill="#fff"/>
      <path id="パス_39657" data-name="パス 39657" d="M39.578,9.971c-.82,4.081-1.289,6.028-2.905,7.728a7.256,7.256,0,0,1-5.4,2.189c-3.458,0-5.647-2.273-5.647-5.4a23.034,23.034,0,0,1,.6-4.521c.82-4.081,1.285-6.028,2.905-7.728A7.227,7.227,0,0,1,34.509.05c3.479,0,5.672,2.277,5.672,5.4a23.455,23.455,0,0,1-.6,4.521M34.341,2.516a4.154,4.154,0,0,0-3.177,1.4c-.85.9-1.344,2.219-2.11,6.057a24.79,24.79,0,0,0-.6,4.3,2.927,2.927,0,0,0,3.014,3.152,4.162,4.162,0,0,0,3.177-1.4c.85-.9,1.348-2.223,2.11-6.057a24.5,24.5,0,0,0,.607-4.3,2.931,2.931,0,0,0-3.018-3.152" transform="translate(81.661 0.159)" fill="#fff"/>
      <path id="パス_39658" data-name="パス 39658" d="M39.578,9.971c-.82,4.081-1.289,6.028-2.905,7.728a7.256,7.256,0,0,1-5.4,2.189c-3.458,0-5.647-2.273-5.647-5.4a23.034,23.034,0,0,1,.6-4.521c.82-4.081,1.285-6.028,2.905-7.728A7.227,7.227,0,0,1,34.509.05c3.479,0,5.672,2.277,5.672,5.4A23.455,23.455,0,0,1,39.578,9.971ZM34.341,2.516a4.154,4.154,0,0,0-3.177,1.4c-.85.9-1.344,2.219-2.11,6.057a24.79,24.79,0,0,0-.6,4.3,2.927,2.927,0,0,0,3.014,3.152,4.162,4.162,0,0,0,3.177-1.4c.85-.9,1.348-2.223,2.11-6.057a24.5,24.5,0,0,0,.607-4.3A2.931,2.931,0,0,0,34.341,2.516Z" transform="translate(81.661 0.159)" fill="#fff"/>
      <path id="パス_39659" data-name="パス 39659" d="M43.383,13.053c-.9,4.521-3.973,6.715-7.7,6.715-2.96,0-5.7-1.867-5.7-5.425a9.562,9.562,0,0,1,.193-1.7L32.67.089h2.821L32.947,12.861a8.346,8.346,0,0,0-.138,1.319,2.872,2.872,0,0,0,3.068,3.094c2.273,0,4.165-1.532,4.768-4.546L43.165.089h2.821Z" transform="translate(95.543 0.283)" fill="#fff"/>
      <path id="パス_39660" data-name="パス 39660" d="M43.383,13.053c-.9,4.521-3.973,6.715-7.7,6.715-2.96,0-5.7-1.867-5.7-5.425a9.562,9.562,0,0,1,.193-1.7L32.67.089h2.821L32.947,12.861a8.346,8.346,0,0,0-.138,1.319,2.872,2.872,0,0,0,3.068,3.094c2.273,0,4.165-1.532,4.768-4.546L43.165.089h2.821Z" transform="translate(95.543 0.283)" fill="#fff"/>
      <path id="パス_39661" data-name="パス 39661" d="M42.974,11.739H38.645L37.054,19.6H34.233L38.147.089H44.92c3.454,0,5.12,2.223,5.12,4.935,0,3.588-2.545,6.715-7.066,6.715m1.532-9.155H40.479l-1.34,6.689h3.943a3.956,3.956,0,0,0,4.136-4.027,2.433,2.433,0,0,0-2.713-2.662" transform="translate(109.071 0.283)" fill="#fff"/>
      <path id="パス_39662" data-name="パス 39662" d="M42.974,11.739H38.645L37.054,19.6H34.233L38.147.089H44.92c3.454,0,5.12,2.223,5.12,4.935C50.04,8.612,47.495,11.739,42.974,11.739Zm1.532-9.155H40.479l-1.34,6.689h3.943a3.956,3.956,0,0,0,4.136-4.027A2.433,2.433,0,0,0,44.506,2.584Z" transform="translate(109.071 0.283)" fill="#fff"/>
      <path id="パス_39663" data-name="パス 39663" d="M51.051,9.833l-7.209,7.539h7.569l-.465,2.353H39.979l.5-2.353,8.766-9.184c1.155-1.206,1.7-2.055,1.7-3.37A2.112,2.112,0,0,0,48.7,2.411c-1.482,0-2.851.82-3.374,3.039H42.666c.657-3.588,2.96-5.4,6.275-5.4,2.88,0,4.684,1.674,4.684,4.659,0,2.248-1.118,3.617-2.574,5.124" transform="translate(127.379 0.159)" fill="#fff"/>
      <path id="パス_39664" data-name="パス 39664" d="M51.051,9.833l-7.209,7.539h7.569l-.465,2.353H39.979l.5-2.353,8.766-9.184c1.155-1.206,1.7-2.055,1.7-3.37A2.112,2.112,0,0,0,48.7,2.411c-1.482,0-2.851.82-3.374,3.039H42.666c.657-3.588,2.96-5.4,6.275-5.4,2.88,0,4.684,1.674,4.684,4.659C53.626,6.957,52.508,8.326,51.051,9.833Z" transform="translate(127.379 0.159)" fill="#fff"/>
      <path id="パス_39665" data-name="パス 39665" d="M56.286,5.831l-1.674,8.385c-.879,4.441-3.864,5.672-6.25,5.672a4.27,4.27,0,0,1-4.575-4.467,7.65,7.65,0,0,1,.134-1.314l1.674-8.385C46.474,1.281,49.458.05,51.844.05A4.27,4.27,0,0,1,56.42,4.517a7.61,7.61,0,0,1-.134,1.314M51.677,2.407c-1.369,0-2.955.766-3.449,3.257l-1.674,8.523a5.177,5.177,0,0,0-.138,1.1,2.035,2.035,0,0,0,2.114,2.248c1.369,0,2.96-.766,3.449-3.261l1.674-8.523a5.176,5.176,0,0,0,.138-1.1,2.033,2.033,0,0,0-2.114-2.244" transform="translate(139.508 0.159)" fill="#fff"/>
      <path id="パス_39666" data-name="パス 39666" d="M56.286,5.831l-1.674,8.385c-.879,4.441-3.864,5.672-6.25,5.672a4.27,4.27,0,0,1-4.575-4.467,7.65,7.65,0,0,1,.134-1.314l1.674-8.385C46.474,1.281,49.458.05,51.844.05A4.27,4.27,0,0,1,56.42,4.517,7.61,7.61,0,0,1,56.286,5.831ZM51.677,2.407c-1.369,0-2.955.766-3.449,3.257l-1.674,8.523a5.177,5.177,0,0,0-.138,1.1,2.035,2.035,0,0,0,2.114,2.248c1.369,0,2.96-.766,3.449-3.261l1.674-8.523a5.176,5.176,0,0,0,.138-1.1A2.033,2.033,0,0,0,51.677,2.407Z" transform="translate(139.508 0.159)" fill="#fff"/>
      <path id="パス_39667" data-name="パス 39667" d="M58.205,9.833,51,17.372h7.569L58.1,19.725H47.133l.5-2.353L56.4,8.188c1.155-1.206,1.7-2.055,1.7-3.37a2.112,2.112,0,0,0-2.248-2.407c-1.482,0-2.851.82-3.374,3.039H49.821C50.478,1.863,52.78.05,56.1.05c2.88,0,4.684,1.674,4.684,4.659,0,2.248-1.118,3.617-2.574,5.124" transform="translate(150.173 0.159)" fill="#fff"/>
      <path id="パス_39668" data-name="パス 39668" d="M58.205,9.833,51,17.372h7.569L58.1,19.725H47.133l.5-2.353L56.4,8.188c1.155-1.206,1.7-2.055,1.7-3.37a2.112,2.112,0,0,0-2.248-2.407c-1.482,0-2.851.82-3.374,3.039H49.821C50.478,1.863,52.78.05,56.1.05c2.88,0,4.684,1.674,4.684,4.659C60.78,6.957,59.662,8.326,58.205,9.833Z" transform="translate(150.173 0.159)" fill="#fff"/>
      <path id="パス_39669" data-name="パス 39669" d="M63.662,2.446H56.1L55.03,7.708a4.391,4.391,0,0,1,3.148-1.072c2.909,0,4.144,2,4.144,4.249A12.154,12.154,0,0,1,62.1,13.1a9.53,9.53,0,0,1-2.219,5.044A5.721,5.721,0,0,1,55.6,19.793c-3.152,0-4.63-1.976-4.63-4.333a5.977,5.977,0,0,1,.054-.85h2.549a4.678,4.678,0,0,0-.025.578,1.991,1.991,0,0,0,2.135,2.219c2.357,0,3.261-1.892,3.726-4.3a9.13,9.13,0,0,0,.193-1.859c0-1.348-.465-2.361-2.055-2.361a3.457,3.457,0,0,0-3.123,1.808H52.071l2.11-10.6h9.946Z" transform="translate(162.41 0.283)" fill="#fff"/>
      <path id="パス_39670" data-name="パス 39670" d="M63.662,2.446H56.1L55.03,7.708a4.391,4.391,0,0,1,3.148-1.072c2.909,0,4.144,2,4.144,4.249A12.154,12.154,0,0,1,62.1,13.1a9.53,9.53,0,0,1-2.219,5.044A5.721,5.721,0,0,1,55.6,19.793c-3.152,0-4.63-1.976-4.63-4.333a5.977,5.977,0,0,1,.054-.85h2.549a4.678,4.678,0,0,0-.025.578,1.991,1.991,0,0,0,2.135,2.219c2.357,0,3.261-1.892,3.726-4.3a9.13,9.13,0,0,0,.193-1.859c0-1.348-.465-2.361-2.055-2.361a3.457,3.457,0,0,0-3.123,1.808H52.071l2.11-10.6h9.946Z" transform="translate(162.41 0.283)" fill="#fff"/>
      <path id="パス_39671" data-name="パス 39671" d="M67.194,11l2.767,8.6H66.868l-2.495-8.33H60.756l-1.7,8.33H56.235L60.153.089h6.8c3.805,0,5.09,2.39,5.09,4.881A6.188,6.188,0,0,1,67.194,11m-.657-8.414H62.481L61.2,8.918h4.082A3.747,3.747,0,0,0,69.2,5.108a2.336,2.336,0,0,0-2.658-2.524" transform="translate(179.173 0.283)" fill="#fff"/>
      <path id="パス_39672" data-name="パス 39672" d="M67.194,11l2.767,8.6H66.868l-2.495-8.33H60.756l-1.7,8.33H56.235L60.153.089h6.8c3.805,0,5.09,2.39,5.09,4.881A6.188,6.188,0,0,1,67.194,11Zm-.657-8.414H62.481L61.2,8.918h4.082A3.747,3.747,0,0,0,69.2,5.108,2.336,2.336,0,0,0,66.537,2.584Z" transform="translate(179.173 0.283)" fill="#fff"/>
      <path id="パス_39673" data-name="パス 39673" d="M75.861,2.559H66.849l-1.18,5.974H73.4L72.9,11H65.174l-1.231,6.137h9.18L72.63,19.6H60.6L64.517.089H76.355Z" transform="translate(193.076 0.283)" fill="#fff"/>
      <path id="パス_39674" data-name="パス 39674" d="M75.861,2.559H66.849l-1.18,5.974H73.4L72.9,11H65.174l-1.231,6.137h9.18L72.63,19.6H60.6L64.517.089H76.355Z" transform="translate(193.076 0.283)" fill="#fff"/>
      <path id="パス_39675" data-name="パス 39675" d="M76.559,5.94c-.025-2-1.013-3.424-3.068-3.424a4.1,4.1,0,0,0-3.148,1.4c-.934.959-1.373,2.3-2.139,6.057a24.887,24.887,0,0,0-.607,4.354,3,3,0,0,0,3.181,3.1A4.691,4.691,0,0,0,75.136,14h2.905c-1.231,3.835-4.056,5.89-7.485,5.89-3.395,0-5.777-2.164-5.777-5.4a23.509,23.509,0,0,1,.6-4.521c.82-4.115,1.264-6,2.905-7.732A7.343,7.343,0,0,1,73.629.05c3.864,0,5.756,2.549,5.756,5.89Z" transform="translate(206.395 0.159)" fill="#fff"/>
      <path id="パス_39676" data-name="パス 39676" d="M76.559,5.94c-.025-2-1.013-3.424-3.068-3.424a4.1,4.1,0,0,0-3.148,1.4c-.934.959-1.373,2.3-2.139,6.057a24.887,24.887,0,0,0-.607,4.354,3,3,0,0,0,3.181,3.1A4.691,4.691,0,0,0,75.136,14h2.905c-1.231,3.835-4.056,5.89-7.485,5.89-3.395,0-5.777-2.164-5.777-5.4a23.509,23.509,0,0,1,.6-4.521c.82-4.115,1.264-6,2.905-7.732A7.343,7.343,0,0,1,73.629.05c3.864,0,5.756,2.549,5.756,5.89Z" transform="translate(206.395 0.159)" fill="#fff"/>
      <path id="パス_39677" data-name="パス 39677" d="M79.775,11l2.767,8.6H79.449l-2.495-8.33H73.337l-1.7,8.33H68.816L72.734.089h6.8c3.805,0,5.09,2.39,5.09,4.881A6.188,6.188,0,0,1,79.775,11m-.657-8.414H75.062L73.777,8.918h4.081a3.747,3.747,0,0,0,3.918-3.809,2.336,2.336,0,0,0-2.658-2.524" transform="translate(219.258 0.283)" fill="#fff"/>
      <path id="パス_39678" data-name="パス 39678" d="M79.775,11l2.767,8.6H79.449l-2.495-8.33H73.337l-1.7,8.33H68.816L72.734.089h6.8c3.805,0,5.09,2.39,5.09,4.881A6.188,6.188,0,0,1,79.775,11Zm-.657-8.414H75.062L73.777,8.918h4.081a3.747,3.747,0,0,0,3.918-3.809A2.336,2.336,0,0,0,79.118,2.584Z" transform="translate(219.258 0.283)" fill="#fff"/>
      <path id="パス_39679" data-name="パス 39679" d="M86.8,13.053c-.9,4.521-3.968,6.715-7.7,6.715-2.96,0-5.7-1.867-5.7-5.425a9.563,9.563,0,0,1,.193-1.7L76.085.089h2.821L76.362,12.861a8.34,8.34,0,0,0-.138,1.319,2.872,2.872,0,0,0,3.068,3.094c2.273,0,4.165-1.532,4.768-4.546L86.58.089H89.4Z" transform="translate(233.869 0.283)" fill="#fff"/>
      <path id="パス_39680" data-name="パス 39680" d="M86.8,13.053c-.9,4.521-3.968,6.715-7.7,6.715-2.96,0-5.7-1.867-5.7-5.425a9.563,9.563,0,0,1,.193-1.7L76.085.089h2.821L76.362,12.861a8.34,8.34,0,0,0-.138,1.319,2.872,2.872,0,0,0,3.068,3.094c2.273,0,4.165-1.532,4.768-4.546L86.58.089H89.4Z" transform="translate(233.869 0.283)" fill="#fff"/>
      <path id="パス_39681" data-name="パス 39681" d="M80.468,19.6H77.647L81.565.089h2.826Z" transform="translate(247.394 0.284)" fill="#fff"/>
      <path id="パス_39682" data-name="パス 39682" d="M80.468,19.6H77.647L81.565.089h2.826Z" transform="translate(247.394 0.284)" fill="#fff"/>
      <path id="パス_39683" data-name="パス 39683" d="M93.172,2.584H88.128L84.7,19.6H81.882L85.306,2.584H80.157L80.676.089H93.662Z" transform="translate(255.393 0.283)" fill="#fff"/>
      <path id="パス_39684" data-name="パス 39684" d="M93.172,2.584H88.128L84.7,19.6H81.882L85.306,2.584H80.157L80.676.089H93.662Z" transform="translate(255.393 0.283)" fill="#fff"/>
    </g>
  </g>
</svg>
