<svg id="グループ_31575" data-name="グループ 31575" xmlns="http://www.w3.org/2000/svg" xmlns:xlink="http://www.w3.org/1999/xlink" width="447.128" height="511.815" viewBox="0 0 447.128 511.815">
  <defs>
    <clipPath id="clip-path">
      <rect id="長方形_38853" data-name="長方形 38853" width="447.128" height="511.815" fill="none"/>
    </clipPath>
  </defs>
  <g id="グループ_31574" data-name="グループ 31574" clip-path="url(#clip-path)">
    <path id="パス_130451" data-name="パス 130451" d="M9.473,37.787a.894.894,0,0,0,.751.473c.1,0,.345-.031.623-.062s.62-.067.765-.071c2.277-.195,6.594-.195,8.667-.195h46.29c.815,0,1.833,0,1.833-.984C68.4,35.786,63.11,31,62.257,31c-.725,0-.979.395-2.655,2.971-.773,1.286-1.169,1.859-2.5,1.859H43c-.135,0-1.319-.031-1.431-1.122-.048-.475-.064-6.168-.064-11.341,0-2.86.074-3.848,1.5-3.848H61.147c.471,0,1.9,0,1.9-1.112s-5.168-4.84-6.273-4.84c-.6,0-1.1.155-2.831,2.294-1.312,1.559-2.025,1.559-2.653,1.559H26.417c-3.316,0-5.988-.062-8.945-.195-.219,0-.825-.067-1.414-.133-.628-.067-1.219-.133-1.459-.133-.418,0-.461.28-.461.4,0,.147.045.257.307.518l1.336,1.6c.323.319.5.435.649.435a5.93,5.93,0,0,0,.661-.093c.288-.045.651-.1.784-.1,2.237-.128,6.537-.2,8.215-.2h8.88c1.429,0,1.493.975,1.493,3,0,1.681-.128,9.591-.195,11.424,0,.979-.181,1.89-1.493,1.89H20.149c-2.37,0-7.476-.128-9.468-.261-.155,0-.661-.05-1.153-.1-.525-.05-1.022-.1-1.2-.1-.418,0-.464.283-.464.4s.057.19.183.359Z" transform="translate(10.836 18.683)" fill="#fff"/>
    <path id="パス_130452" data-name="パス 130452" d="M11.493,19.338c2.741,0,4.528-2.76,5.027-5.32.44-2.058.492-2.058,1.892-2.058h7.312c1.526,0,1.692.354,1.692,1.105,0,4.416-7.552,14.4-16.884,18.372-.064.04-.183.1-.321.169-.554.278-.749.392-.749.587a.462.462,0,0,0,.528.466A20.328,20.328,0,0,0,16.4,30.681a28.946,28.946,0,0,0,11.961-8.8c.25-.3.765-1,1.364-1.807a33.771,33.771,0,0,1,2.807-3.556c1.426-.651,2.077-.948,2.077-1.752,0-.461-.133-.718-1.54-1.614a10.023,10.023,0,0,1-1.528-1c0-.174.357-.19,1.3-.19h6.137a1.384,1.384,0,0,1,1.5,1.379c.131,2.146.131,7.3.131,9.779,0,6.145,1.557,6.145,11.692,6.145,4.5,0,7.212,0,9.456-.661,2.2-.6,4.065-2.394,4.065-3.915,0-.57-.162-.7-1.058-1.4-1.032-.787-1.032-1.73-1.032-3.028.057-1.429.062-1.811-.147-2.032a.509.509,0,0,0-.38-.135c-.245,0-.532.24-2.251,3.437-.09.171-.166.3-.2.376-1.707,2.648-2.225,2.648-8.581,2.648-5.667,0-6.508-.209-6.919-1.738a66.789,66.789,0,0,1-.452-9.025c0-.882.116-1.823,1.5-1.823h8.422c.872,0,1.036.043,1.036.254a11.125,11.125,0,0,1-1.4,2.6c-.563.891-.694,1.115-.694,1.257a.487.487,0,0,0,.464.53c.15,0,.494-.178,2.242-1.276.19-.121.34-.214.409-.254l.074-.045a7.572,7.572,0,0,1,3.68-1.3l.86-.021c4.678-.109,5.277-.121,5.277-1.552,0-.485-.133-1.046-1.723-2.127l-.447-.3C60.934,7.33,59.4,6.4,59.021,6.4c-.521,0-.908.777-1.36,1.688-.547,1.227-1.036,1.773-2.493,1.773H41c-1.429,0-1.429-1.1-1.429-1.692a11.192,11.192,0,0,1,.506-3.905,6.263,6.263,0,0,1,.537-.718c.578-.715.849-1.079.849-1.317C41.464.921,35.852,0,34.733,0c-1,0-1.048.606-1.048.725a2.3,2.3,0,0,0,.385.844c.086.152.193.34.209.385A19.424,19.424,0,0,1,34.6,5.685c0,3.309-.064,4.174-1.564,4.174H17.825a2.053,2.053,0,0,1-2.184-1.086l-.126-.185c-1.307-1.925-1.887-2.712-2.325-2.712-.578,0-.594,1.179-.594,1.3a16.123,16.123,0,0,1-1.284,5.859c-.093.185-.345.587-.635,1.051A11.608,11.608,0,0,0,8.94,17.439c0,.92.894,1.9,2.553,1.9" transform="translate(12.31 -0.001)" fill="#fff"/>
    <path id="パス_130453" data-name="パス 130453" d="M69.192,16.865l.138-.176c.021-.033.048-.069.076-.109a1.371,1.371,0,0,0,.347-.851c0-1.355-3.333-3.535-4.053-3.535-.67,0-1.41.734-1.98,1.379-.354.406-.559.516-1.35.516H52.187a12.819,12.819,0,0,1-2.434-.794,10.347,10.347,0,0,0-2.4-.773.692.692,0,0,0-.792.789c0,.185.055.668.109,1.136.043.383.088.777.088.906.19,2.275.2,8.253.2,8.928,0,2.705-.067,4.671-.264,8.075-.067.609-.131,2.379-.131,2.829,0,1.811.494,2.551,1.707,2.551,1.733,0,2.931-1.212,3.2-3.247.109-1.072.288-1.322,1.757-1.322h8.1c1.338,0,1.952,0,1.952,1.364,0,.956,0,2.553,1.64,2.553a4.362,4.362,0,0,0,2.9-1.512c.632-.775.632-1.669.632-3.456,0-.364-.01-1.2-.024-2.287-.043-3.489-.126-9.981.024-11.279a2.415,2.415,0,0,1,.744-1.685M51.41,25.455c0-1.167.378-1.167,1.623-1.167h8.945c1.3,0,1.4,0,1.566.749.029.15.062,1.4.062,4.466C63.606,31,63.418,31,61.978,31H53.033c-1.26,0-1.623-.043-1.623-1.036Zm10.7-3.337H52.9c-1.036,0-1.341-.031-1.493-.708V18.144c0-1.887.086-1.887,1.493-1.887h9.206c1.238,0,1.5,0,1.5,1.429l0,3.682c-.157.72-.464.751-1.5.751" transform="translate(64.117 16.791)" fill="#fff"/>
    <path id="パス_130454" data-name="パス 130454" d="M42.2,58.481c3.594,0,3.594-3.689,3.594-4.9,0-1.54-.19-8.422-.259-9.929-.04-1.645-.064-7.2-.064-16.513a26.7,26.7,0,0,1,.181-4.561c.278-.718,1.227-.718,2.227-.718h8.1c1.26,0,1.783,0,1.952,1.193.126.979.314,2.463,2.1,2.463.492,0,2.943-.214,2.943-4.445,0-.977-.086-3.646-.169-6.23-.078-2.484-.157-4.832-.157-5.653,0-1.747,0-2.218.418-2.753.055-.071.174-.2.319-.349.651-.694.96-1.072.96-1.338,0-1.072-3.366-3.532-4.186-3.532-.67,0-1.238.566-1.9,1.3a1.839,1.839,0,0,1-1.685.658H46.9c-.844,0-1-.031-2.715-.958l-.174-.088a8.705,8.705,0,0,0-2.986-1.108c-.466,0-.466.578-.466.856,0,.029.321,5.446.392,6.019.067.844.067,10.844.067,14.609,0,7.164,0,11.488-.654,30.88,0,.573-.029,1.464-.048,2.056-.01.283-.017.492-.017.556,0,2.165,1.188,2.489,1.9,2.489M56.563,11.462H47.229c-1.334,0-1.692,0-1.692-1.167V6.767c0-1.429.193-1.429,1.692-1.429h9.334c1.331,0,1.692,0,1.692,1.1V9.966c0,1.5-.193,1.5-1.692,1.5m-9.334,2.1h9.2c1.421,0,1.757.048,1.757,1.3v3.722c0,1.1-.442,1.1-1.757,1.1h-9.2c-1.452,0-1.757,0-1.757-1.234V14.666c0-1.1.442-1.1,1.757-1.1" transform="translate(55.496 1.4)" fill="#fff"/>
    <path id="パス_130455" data-name="パス 130455" d="M53.071,9.573c0,3.249,0,13.884.071,14.283a1.644,1.644,0,0,0,1.764,1.393c1.4,0,3-.794,3.2-2.256.176-.937.29-1.205,1.692-1.205h8.491c1.654,0,2.344,0,2.344,1.821,0,9.32-.133,25.71-.2,26.351-.174,1.635-.585,1.973-4.892,2.17-.333,0-3.268.019-3.268.661,0,.521,1.022.918,2.465,1.424a8.073,8.073,0,0,1,.837.321,4.316,4.316,0,0,1,1.752,1.816c.661,1.127,1.158,1.866,2,1.866a10.911,10.911,0,0,0,3.161-1.067c2.318-1.193,2.724-2.736,2.724-5.536,0-3.456-.038-12.99-.071-22.213-.029-8.864-.062-17.238-.062-20.157,0-2.315,0-2.455.97-3.3a1.715,1.715,0,0,0,.792-1.2c0-1.376-3.8-3.532-4.445-3.532-.485,0-.789.25-1.581,1.1a1.25,1.25,0,0,1-1.224.464H58.431a2.66,2.66,0,0,1-1.612-.368l-.048-.024a8.928,8.928,0,0,0-3.107-1.044c-.727,0-.922.86-.922,1.314,0,.578.088,2.142.174,3.656.076,1.438.154,2.793.154,3.264m4.775,4.571c0-1.105.361-1.105,1.695-1.105H69c1.317,0,1.631,0,1.631,1.169v4.307c0,1.169-.378,1.169-1.631,1.169H59.541c-1.367,0-1.695,0-1.695-1.234ZM70.635,9.637c0,1.234-.444,1.234-1.631,1.234H59.41c-.986,0-1.459-.033-1.566-.825-.038-.169-.059-1.471-.059-3.867,0-1.3.509-1.3,1.626-1.3H69c1.117,0,1.479.036,1.631.773Z" transform="translate(72.627 1.663)" fill="#fff"/>
    <path id="パス_130456" data-name="パス 130456" d="M78.562,43.608c2.339,0,5.74-1.093,11.331-9.622,6.059-9.154,6.758-15.363,6.758-19.239a39,39,0,0,0-.478-5.762c-.059-.442-.121-.879-.174-1.291a1.87,1.87,0,0,0-.078-.461,1.207,1.207,0,0,1-.052-.254c0-.3,0-.713,1.167-.713,16.594,0,17.885,13.689,17.885,17.882,0,16.149-14.069,21.695-20.83,24.359-1.714.685-1.892.756-1.892,1.1,0,.414.321.661.856.661a40.307,40.307,0,0,0,10.9-2.427A24.677,24.677,0,0,0,120.547,24.67c0-8.486-4.288-15.655-11.471-19.18-2.189-1.1-4.989-2.113-10.6-2.113A27.241,27.241,0,0,0,77.5,11.925c-4.847,4.9-7.3,10.547-7.3,16.791,0,7.934,3.908,14.892,8.365,14.892M94.288,10.5c0,5.738-2.379,12.8-6.366,18.885-4.616,6.962-6.083,7.48-7.794,7.48-3.991,0-5.479-6.042-5.479-9.85,0-11.875,12.32-20.559,18.731-20.559.6,0,.908,0,.908,4.043" transform="translate(96.661 4.65)" fill="#fff"/>
    <path id="パス_130457" data-name="パス 130457" d="M114.923,3.158A23.114,23.114,0,0,1,115.372,8c0,7.568-1.911,13.321-5.686,17.093-.164.166-.694.578-1.25,1.01-1.828,1.424-2.073,1.664-2.073,1.873,0,.28.266.466.661.466a12.749,12.749,0,0,0,3.627-1.464c4.794-2.776,9.632-9.865,9.632-19.434,0-1.029.126-1.952,1.623-1.952h5.158c1.093,0,1.588.338,1.759,1.191.04.335,0,2.472-.036,4.034-.017.815-.031,1.514-.031,1.818,0,8.7,0,11.628,8.037,11.628,8.526,0,10.777-3.164,10.777-4.837,0-.72-.233-.972-1.105-1.909l-.052-.052a5.99,5.99,0,0,1-1.329-2.848c-.44-2.013-.59-2.448-1.174-2.448-.658,0-.658.668-.658,1.771,0,3.9-.887,5.282-5.871,5.282-3.675,0-3.977,0-3.977-6.587,0-1.236.043-2.46.09-3.882l.04-1.2a2.068,2.068,0,0,1,.777-1.754l.09-.076c.794-.673,1.091-.922,1.091-1.645,0-.661-.135-.787-2.448-2.263l-.228-.138A8.792,8.792,0,0,0,130.133.356c-.435,0-.749.081-1.676,1.669a2.361,2.361,0,0,1-2.436,1.464h-3.394c-1.017,0-1.322,0-3.371-1.022l-.05-.026C116.018.85,115.683.682,115.117.682c-.525,0-.789.2-.789.6a4.978,4.978,0,0,0,.342,1.122c.107.307.223.62.252.758" transform="translate(146.462 0.49)" fill="#fff"/>
    <path id="パス_130458" data-name="パス 130458" d="M131.072,30.244c0-.278.152-.459,1.322-1.788l.261-.3c2.287-2.622,5.282-6.494,7.908-9.938a4.779,4.779,0,0,1,1.638-1.509c.425-.242,1.212-.689,1.212-1.353,0-.6-.29-.8-2.555-2.348l-.366-.247c-.076-.038-.34-.219-.62-.409-1.072-.725-1.49-.984-1.688-.984-.368,0-.875.549-1.8,1.7-.188.231-.352.433-.414.5-.544.423-1.165.609-4.835.609h-8.357c-3.268,0-6.2-.1-8.343-.164l-.9-.029c-.485-.069-2.5-.264-2.967-.264a.374.374,0,0,0-.4.4.565.565,0,0,0,.164.323c.038.05.088.112.147.2l1.322,1.524c.193.261.373.506.725.506.228,0,.948-.062,1.709-.126.8-.067,1.619-.135,1.88-.135,1.205,0,1.462.478,3.406,4.84a35.911,35.911,0,0,0,3.741,6.957l.045.062a5.461,5.461,0,0,1,.963,1.714c0,1.431-9.073,8.1-16.741,12.294-1.036.58-1.276.758-1.276,1.155,0,.2.083.528.656.528,1.814,0,9.513-3.7,14.923-6.881.288-.164.9-.563,1.616-1.024a34.908,34.908,0,0,1,4.024-2.41,15.859,15.859,0,0,1,2.879,2.175c5.588,4.64,11.269,7.3,11.944,7.3.366,0,1.06-.556,2.137-1.512.154-.138.276-.245.33-.29a8.541,8.541,0,0,1,4.474-1.662c.4-.038,1.227-.121,1.227-.725,0-.537-1.077-.775-1.543-.851-6.377-.932-17.849-6.5-17.849-7.832m-8.883-13.9h10.052c1.141,0,1.887.071,1.887,1.039,0,1.4-6.114,9.981-7.11,9.981-.485,0-2.192-1.574-4.2-4.2s-3.3-4.961-3.3-5.973c0-.8.687-.841,2.672-.841" transform="translate(146.312 15.658)" fill="#fff"/>
    <path id="パス_130459" data-name="パス 130459" d="M98.871,27.189c.456,0,2.2-1.089,6.033-3.751l.49-.342a5.586,5.586,0,0,1,1.7-1.065c.616,0,.7.321.83,1.046l.012.081c.126,1.136.195,5.5.195,7.026,0,8.51-.257,12.978-.461,16.568-.045.8-.09,1.555-.126,2.294-.043,1.286-.029,2.239.525,2.812a2.175,2.175,0,0,0,1.638.532c3.271,0,3.271-3.276,3.271-5.034,0-1.407-.069-5.3-.135-9.059-.064-3.651-.128-7.1-.128-8.308,0-5.947.373-7.207.6-7.44,1.1-1.227,1.227-1.417,1.227-1.83,0-.449-.544-.951-1.631-1.5-.732-.292-.982-.509-.982-.856s.128-.5,1.883-1.933c.723-.589,1.621-1.388,2.489-2.161s1.759-1.564,2.467-2.142a10.178,10.178,0,0,1,.979-.513c.319-.155.62-.3.754-.383a.7.7,0,0,0,.307-.637c0-.727-4.2-4.97-5.294-4.97-.711,0-.929.865-1.043,1.317-1.562,4.813-10.214,14.1-14.509,18l-.257.238c-1.06.963-1.367,1.307-1.367,1.536a.461.461,0,0,0,.528.466" transform="translate(135.418 7.752)" fill="#fff"/>
    <path id="パス_130460" data-name="パス 130460" d="M99.916,16.729c1.431,0,8.248-4.638,12.482-8.807,1.293-1.293,1.785-1.383,2.634-1.443.979-.069,2.192-.152,2.192-1.246a1.726,1.726,0,0,0-.152-.813l0-.007C116.838,4,112.84-.4,111.725.083c-.38.15-.72.773-1.481,2.453-.682,1.493-4.733,6.793-6.694,9.023-.174.193-.551.594-1.01,1.079-3.026,3.2-3.154,3.406-3.154,3.563a.513.513,0,0,0,.53.528" transform="translate(136.854 0.062)" fill="#fff"/>
    <path id="パス_130461" data-name="パス 130461" d="M132.062,17.087c1.749,0,4.447-1.6,4.709-6.038.064-1.666.064-1.666,1.036-1.666h19.325c.632,0,.908.048.908.516a8.931,8.931,0,0,1-.352,1.279,7.289,7.289,0,0,0-.366,1.4.542.542,0,0,0,.594.6,6.46,6.46,0,0,0,2.182-1.181c.152-.1.271-.181.318-.212a5.115,5.115,0,0,1,2.329-.632c.228,0,.91.071,1.514.135s1.16.124,1.357.124c.915,0,1.379-.4,1.379-1.181,0-1.369-5.612-4.642-6.011-4.642-.454,0-.925.333-1.9,1.1a2.341,2.341,0,0,1-1.823.6h-5.614c-1.141,0-1.5-.188-1.5-1.364,0-1.048.071-1.616.475-2.02l.147-.174c.57-.658.946-1.11.946-1.4,0-1.59-5.693-2.161-5.75-2.161-.4,0-.661.112-.661.658,0,.342.069,1.269.135,2.168.059.82.126,1.666.126,1.944,0,1.752,0,2.344-1.5,2.344h-6.463c-.925,0-1.131-.162-1.581-1.25-.773-1.688-1.255-1.883-1.552-1.883-.642,0-.713.383-1.115,2.512a12.3,12.3,0,0,1-2.182,4.944c-1.448,1.911-1.607,2.154-1.607,3.126a2.228,2.228,0,0,0,2.486,2.358" transform="translate(178.426 0.227)" fill="#fff"/>
    <path id="パス_130462" data-name="パス 130462" d="M146.475,5.693c.328,7.83.328,15.726.328,23.364,0,.96-.048,3.668-.093,6.534s-.1,5.852-.1,6.915c0,.589,0,2.161,1.571,2.161a6.606,6.606,0,0,0,2.855-1.079,2.039,2.039,0,0,0,.941-2.061c0-1.324-.2-5.957-.4-10.865-.24-5.71-.513-12.187-.513-14.336,0-6.572.083-7.994.133-8.291a1.3,1.3,0,0,1,.513-1.084c.727-.594.922-.844.922-1.462,0-1.588-5.436-2.358-5.493-2.358a.824.824,0,0,0-.6.193c-.093.1-.116.276-.116.794,0,.093.014.383.024.694.021.354.038.734.038.882" transform="translate(201.61 4.311)" fill="#fff"/>
    <path id="パス_130463" data-name="パス 130463" d="M157.357,4.364c.535,10.342.651,37.29.651,46.8,0,2.032-.673,2.08-9.525,2.08-.83,0-1.248.2-1.248.6,0,.364.5.53.654.582,2,.749,3.147,1.186,3.958,1.493.884.335,1.367.518,2.082.775l.093.055a1.434,1.434,0,0,1,.794,1.06c.383,1.6.473,1.982,1.241,1.982a10.221,10.221,0,0,0,4.828-2.068,6.022,6.022,0,0,0,2.1-5.251c0-.585-.062-2.225-.128-3.962s-.133-3.508-.133-4.136c-.207-8.148-.328-17.761-.328-26.373,0-7.483.069-11.992.195-12.691a6.4,6.4,0,0,1,.463-.846,4.384,4.384,0,0,0,.713-1.478c0-.449-.368-.875-1.127-1.3-1.612-.908-5-1.7-5.382-1.478l-.05.031-.026.052a1.859,1.859,0,0,0-.086.742c0,.618.086,1.5.164,2.275.038.392.074.765.1,1.065" transform="translate(202.744 0.221)" fill="#fff"/>
    <path id="パス_130464" data-name="パス 130464" d="M151.63,34.286l.017.086c.185,1.072.309,1.778,1.749,1.778.986,0,3.466-.815,3.466-2.745,0-.143-.038-1.034-.09-2.268-.093-2.175-.235-5.462-.235-6.351,0-1.322,0-2.194.53-2.665,1-1,1.036-1.039,1.036-1.514,0-1.236-4.6-3.468-5.1-3.468-.632,0-.872.335-1.4,1.063a1.863,1.863,0,0,1-1.73.7H138.837a5.6,5.6,0,0,1-3.173-.632,9.246,9.246,0,0,0-3.028-1.065c-.449,0-.725.185-.725,1.117,0,.813.086,3.035.171,5.184.078,2.032.157,3.951.157,4.609,0,.5-.036,1.918-.071,3.285-.029,1.288-.059,2.505-.059,2.914,0,1.616,0,2.427,1.507,2.427,2.928,0,3.311-1.711,3.463-2.382.231-1.046.521-1.146,1.759-1.146h11.034c1.319,0,1.65.2,1.759,1.072m-12.793-3.24c-.575,0-1.372-.069-1.643-.668a62.585,62.585,0,0,1-.181-7.16c0-1.455.086-2.213,1.887-2.213h10.97c1.821,0,1.821.832,1.821,2.341a63.074,63.074,0,0,1-.174,7.026c-.338.673-1.224.673-1.647.673Z" transform="translate(181.64 23.599)" fill="#fff"/>
    <path id="パス_130465" data-name="パス 130465" d="M142.962,28.293c-2.883,0-3.325,0-8.1-.2-.392,0-1.78-.1-2.793-.174-.773-.055-1.217-.086-1.319-.086a.419.419,0,0,0-.464.4c0,.121.083.238.373.521l1.234,1.5.031.043c.19.254.371.5.718.5a6.293,6.293,0,0,0,.72-.1c.252-.043.571-.1.663-.1,2.256-.126,6.782-.193,8.215-.193h19.651c3.119,0,3.6,0,3.6-1.053,0-.908-3.958-4.055-5.1-4.055-.82,0-1.678,1.086-2.246,1.807l-.128.159c-.853,1.039-1.032,1.039-3.958,1.039h-3c-1.833,0-1.887-.33-1.887-3.91,0-1.669.5-1.952,2.02-1.952H158.3c2.484,0,3.727,0,3.727-1.117,0-.951-3.7-3.468-4.445-3.468-.376,0-1.034.492-2.073,1.3a8.1,8.1,0,0,1-1.326.932,8.526,8.526,0,0,1-3.064.247c-1.887,0-1.887-.347-1.887-3.059,0-1.9,0-2.539,1.821-2.539h7.183a8.887,8.887,0,0,0,2.921-.2.907.907,0,0,0,.742-.913c0-.963-3.558-4.119-4.642-4.119-.578,0-.754.216-1.728,1.514-1.243,1.619-1.364,1.619-2.84,1.619h-1.7c-1.512,0-1.757-.226-1.757-1.626a14.915,14.915,0,0,1,.193-2.367,6.47,6.47,0,0,1,.323-.649,4.4,4.4,0,0,0,.594-1.357c0-1.519-5.305-1.9-5.358-1.9-.537,0-.789.119-.789.792,0,.392.076,1.433.157,2.534s.166,2.265.166,2.691c0,1.723-.38,1.885-2.146,1.885-1.041,0-4.906-.2-7.464-.338-1.31-.069-2.258-.119-2.4-.119-.107,0-.4,0-.4.333,0,.2.033.245.307.587l1.26,1.521c.278.276.447.444.723.444.1,0,.338-.026.713-.069.269-.029.573-.062.677-.062,1.431-.131,5.412-.195,5.6-.195h1.566c1.517,0,1.559.464,1.559,3.256,0,1.372-.109,2.341-1.5,2.341-1.044,0-4.283-.138-6.026-.212-.654-.029-1.1-.048-1.155-.048-.185,0-.7-.05-1.191-.1-.525-.05-1.02-.1-1.224-.1a.362.362,0,0,0-.4.335c0,.2.036.245.309.585l1.253,1.517c.283.28.452.452.73.452.062,0,.233-.014.421-.029.216-.017.454-.036.57-.038l.235-.014c1.169-.074,3.908-.245,5.3-.245H142.9c1.578,0,1.623.464,1.623,3.256,0,1.759-.067,2.605-1.559,2.605" transform="translate(179.409 6.504)" fill="#fff"/>
    <path id="パス_130466" data-name="パス 130466" d="M175.028,21.358a4.851,4.851,0,0,0-2.387-.677,4,4,0,0,0-2.95,1.234A4.238,4.238,0,0,0,168.4,25a3.922,3.922,0,0,0,2.315,3.829,3.736,3.736,0,0,0,2,.487,4.137,4.137,0,0,0,3.15-1.367A4.008,4.008,0,0,0,177.022,25a4.261,4.261,0,0,0-1.978-3.627Z" transform="translate(231.881 28.478)" fill="#fff"/>
    <path id="パス_130467" data-name="パス 130467" d="M168.5,18.945c3.035,0,4.576-1.386,4.576-4.119,0-2.517-1.165-3.794-3.466-3.794a3.255,3.255,0,0,0-2.681,1.35,6.647,6.647,0,0,1-.057-.689c0-1.8,1.008-3.53,3-5.13a14.465,14.465,0,0,1,9.275-3.157,12.056,12.056,0,0,1,7.709,2.372,8.221,8.221,0,0,1,3.252,6.827c0,3.111-1.7,6.58-5.039,10.309a27.419,27.419,0,0,0-4.143,5.66A24.757,24.757,0,0,0,178.548,39.9v1.631a1.135,1.135,0,0,0,1.246,1.248h.064c.54,0,1.181-.216,1.181-1.248v-1.3A20.5,20.5,0,0,1,182.85,31.1a18.881,18.881,0,0,1,5.819-6.458c4.989-4,7.516-7.923,7.516-11.647,0-3.589-1.719-6.568-5.111-8.85a19.025,19.025,0,0,0-11.084-3.1c-5.058,0-9.275,1.355-12.532,4.027-2.783,2.253-4.255,5.018-4.255,7.991a5.878,5.878,0,0,0,1.826,4.457,4.975,4.975,0,0,0,3.47,1.426" transform="translate(224.732 1.438)" fill="#fff"/>
    <path id="パス_130468" data-name="パス 130468" d="M8.159,106.867c.9,0,12.4-2.622,25.2-12.056a5.557,5.557,0,0,1,1.44-.937c.233,0,.321.176.321.647,0,1.685,0,3.784-.064,5.469l-.04.6c-.183,2.755-.352,5.317-.352,5.424,0,1.616.827,1.835,1.638,1.835a4.324,4.324,0,0,0,3.088-1.372c.7-.777.7-1.343.7-3.729,0-.7-.017-2.622-.033-4.495-.017-1.78-.031-3.518-.031-4.122,0-.216-.019-.913-.038-1.536-.014-.5-.029-.96-.029-1.074,0-.1.019-.582.385-.582.183,0,.254.074,1.269,1.31l.468.573c3.235,3.981,8.208,9.071,18.037,13.119l.264.107a14.205,14.205,0,0,0,3.012,1.017c.44,0,1.027-1.35,1.029-1.357a6.015,6.015,0,0,1,3.392-3.152l.124-.031c.991-.25,1.4-.349,1.4-.887s-.288-.585-1.681-.756l-.259-.031A47.018,47.018,0,0,1,45.364,92.27l-.563-.421c-1.562-1.167-1.707-1.286-1.707-1.7s.414-.449,1.429-.449H63.589c2.284,0,3.661,0,3.661-1.117,0-1.281-5.182-4.512-5.817-4.512-.518,0-1.3.82-2.446,2.068a8.685,8.685,0,0,1-1.217,1.21,12.642,12.642,0,0,1-3.126.183H41.39c-1.364,0-1.364-.63-1.364-1.429,0-3.088.033-3.323,1.431-3.323h14.3c2.161,0,3.466,0,3.466-1.248,0-1.191-4.093-4.445-5.227-4.445-.789,0-1.013.264-2.767,2.318l-.2.231c-.853.975-1.089.975-3.96.975H41.651c-1.626,0-1.626-.7-1.626-2.408,0-2.631.055-3.126,1.757-3.126H60c3.062,0,3.53,0,3.53-1.053,0-1.174-4.8-4.512-5.163-4.512-.5,0-1.326.941-2.351,2.17a10.317,10.317,0,0,1-.723.82c-.452.4-.67.406-3.387.406H46.025c-.642,0-1.039-.064-1.039-.385,0-.706,2.764-3.28,4.262-4.129.915-.456,1.286-.7,1.286-1.291,0-.749-.307-.929-2.327-2.092l-.357-.212c-1.034-.616-1.167-.7-1.167-.83s.376-.126.516-.126H62.151c2.327,0,3.729,0,3.729-1.115,0-.806-5.051-4.381-5.819-4.381-.44,0-1.16.773-2.208,1.952a9.243,9.243,0,0,1-.853.9c-.58.464-1.127.544-3.663.544h-3.2c-.273,0-.58-.078-.58-.174.155-.513,4.2-3.169,5.538-3.97.311-.25,2.37-1.578,2.551-1.654l.435-.152c1.051-.395,1.267-.475,1.267-1.027,0-1.336-4.84-4.058-5.16-4.058-.473,0-.568.223-1.3,1.952-1.143,2.638-5.771,9.083-6.736,9.083-.285,0-.452-.126-.452-.78-.021-1.153-.043-1.944-.064-2.643-.038-1.333-.064-2.3-.064-4.73a2.537,2.537,0,0,1,.677-2.163l.216-.288c.428-.566.542-.715.542-1.01a1.7,1.7,0,0,0-1.191-1.372c-3.668-1.048-4.138-1.181-4.561-1.181-.535,0-.853.418-.853,1.117a11.414,11.414,0,0,0,.195,1.471c.069,1.257.2,4.45.2,6.166,0,5.26-.05,5.412-1.692,5.412H36.755c-1.657,0-1.757,0-1.757-8.545,0-1.362.116-1.866.53-2.337.183-.188.711-.806.711-1.189,0-1.688-5.565-2.032-5.619-2.032-.487,0-.856.074-.856.989,0,.487.209,2.085.347,3.14.05.39.093.7.109.846.062,1.749.131,6.349.131,7.568,0,.789-.1,1.559-1.234,1.559H27.156c-.428,0-.513-.124-.513-.321,0-.233,0-.33.3-.822a3.6,3.6,0,0,0,.478-1.723c0-4.371-7.062-6.337-8.885-6.337a.794.794,0,0,0-.856.658v.086l.062.059c.021.021,2.282,2.22,2.657,2.653.918,1.253,2.57,4.336,2.57,5.168,0,.559-.133.58-1.167.58-2.826,0-5.469-.114-7.4-.195-.611-.026-1.15-.05-1.612-.067-.219,0-.83-.05-1.419-.1-.625-.05-1.217-.1-1.452-.1-.371,0-.4.257-.4.335,0,.2.033.245.307.592l1.3,1.486c.193.261.378.475.685.475.143,0,.433-.031.739-.067.283-.031.578-.062.72-.064,1.219-.128,5.548-.2,8.2-.2h1.631c1.177,0,1.961.107,3.223,2.187.851,1.448,2.648,5.648,2.648,6.558,0,.28-.1.319-.516.319H26.049c-3.311,0-6.356-.107-8.369-.178l-.575-.019c-.228,0-.908-.071-1.512-.135s-1.162-.124-1.362-.124a.409.409,0,0,0-.4.4c0,.135.017.159.309.521l1.236,1.5c.266.333.449.535.746.535.1,0,.335-.026.706-.069.271-.031.578-.064.682-.064,2.277-.195,6.791-.195,8.274-.195h7.9c1.391,0,1.493.958,1.493,2.539,0,2.422,0,3-1.69,3H29.377c-3.287,0-8.02-.162-8.945-.195-.226,0-.908-.074-1.512-.135s-1.162-.126-1.36-.126a.427.427,0,0,0-.464.4c0,.135.017.159.309.523l1.319,1.581.121.128a.768.768,0,0,0,.606.321c.1,0,.411-.038.908-.1.345-.043.77-.1.875-.1,1.429-.131,5.427-.131,7.816-.131h4.7c1.429,0,1.429.661,1.429,1.3,0,3.159-.031,3.451-1.169,3.451h-12.8c-3.171,0-8.415-.176-9.009-.2-.216,0-.825-.064-1.414-.128-.628-.067-1.219-.131-1.459-.131a.41.41,0,0,0-.4.4c0,.138.017.159.307.523l1.238,1.5c.266.33.444.532.746.532.143,0,.494-.043,1.015-.112.314-.04.67-.086.763-.086,1.688-.131,5.719-.131,7.884-.131H29.51c.616,0,.908.069.908.449,0,1.082-9.886,10.059-21.467,15.184-.033.024-.135.074-.266.14-.951.485-1.184.656-1.184.868,0,.387.4.53.658.53M40.28,72.9H33.032c-.14,0-.516,0-.516-.124a1.092,1.092,0,0,1,.116-.449l.15-.376a3.136,3.136,0,0,0,.321-1.4c0-1.807-1.326-3.653-4.091-5.667a7.7,7.7,0,0,1-1.262-.927c0-.04,0-.126.321-.126H43.154c1.12,0,1.167.2,1.167.647a21.5,21.5,0,0,1-1.229,5.881c-.7,2.089-1.015,2.536-2.812,2.536" transform="translate(10.329 65.508)" fill="#fff"/>
    <path id="パス_130469" data-name="パス 130469" d="M39.371,90.68c2.591,0,10.542-3.183,14.939-5.981a9.657,9.657,0,0,1,1.381-.875.757.757,0,0,1,.713.544c0,.176.033.485.069.87.057.57.126,1.284.126,1.778,0,9.2-4.409,13.157-6.527,15.063-.349.314-1.512,1.167-2.539,1.921-2.163,1.583-2.163,1.6-2.163,1.752,0,.466.575.466.789.466.114,0,12.04-2.358,14.823-12.753a35.908,35.908,0,0,0,1.048-8.148c0-.879.14-.958.556-1.2.7-.418.946-.87.946-1.153,0-1.11-1.291-1.231-3.245-1.412l-.428-.04c-.7-.057-.7-.069-.708-.207a6.931,6.931,0,0,1,.889-.87c.157-.138.29-.257.357-.323,1.1-.967,4.69-4.367,7.129-6.739a1.043,1.043,0,0,1,.765-.392c.342,0,.792.628,1.357,1.421l.045.062a54.1,54.1,0,0,0,5.458,6.242,3.506,3.506,0,0,1,.9,1.017c0,.033,0,.059-.124.059a6.937,6.937,0,0,1-.832-.19,5.521,5.521,0,0,0-.932-.2.689.689,0,0,0-.789.792,22.933,22.933,0,0,0,.418,2.631c.114.589.212,1.1.238,1.317a96.834,96.834,0,0,1,.518,11.4c0,.535-.071,2.03-.138,3.475-.062,1.374-.124,2.672-.124,3.119,0,1.231.257,2.489,2.163,2.489,1.212,0,3.268-.8,3.268-3.794,0-1.281-.155-4.756-.3-8.12-.147-3.23-.285-6.28-.285-7.354,0-1.688.164-2.211,1.172-2.211.421,0,.568.074,2.039.891l.345.193c1.628.891,6.808,3.485,8.191,3.485.739,0,1.058-.254,1.842-1.039,1.072-1.077,2.063-1.383,5.02-2.3l.15-.057c.544-.2,1.155-.421,1.155-.918,0-.395-.083-.435-3.637-.853A41.564,41.564,0,0,1,71.3,73.418c-1.374-1.241-1.438-1.391-1.438-1.681,0-.124,0-.252.516-.252H83.7c.706,0,1.21.181,1.369,1.077l.029.145c.247,1.25.442,2.239,1.866,2.239,1.564,0,3.142-1.26,3.142-3.665,0-1.31-.1-4.849-.2-8.272-.1-3.3-.188-6.418-.188-7.526,0-.953,0-1.776.675-2.17,1.058-.561,1.414-.749,1.414-1.421,0-.635-2.686-3.468-3.729-3.468-.625,0-.982.319-1.94,1.165l-.221.195c-.792.73-1.074.73-3.779.73H52.951a8.545,8.545,0,0,1-2.629-.319c-.261-.067-.834-.259-1.5-.48a18.708,18.708,0,0,0-3.382-.963c-.442,0-.725.233-.725.594a7.318,7.318,0,0,0,.487,1.671,8.434,8.434,0,0,1,.3.91c.357,2.089.454,9.168.454,13.021,0,.5-.052,1.918-.1,3.287-.048,1.286-.093,2.5-.093,2.914,0,2.394,1.314,2.75,2.1,2.75a3.751,3.751,0,0,0,2.864-1.426c.549-.915.594-.989,2.163-.989h7.378c.87,0,.972.368.972.647,0,.613-3.53,5.415-8.277,9.175a65.96,65.96,0,0,1-13.019,7.939c-.723.33-1.162.566-1.162,1.034,0,.4.416.4.594.4M63.788,59.85H52.364c-1.533,0-1.562,0-1.562-5.543,0-.872,0-1.626,1.626-1.626H63.721c1.692,0,1.692.689,1.692,2.736,0,4.31-.048,4.433-1.626,4.433m-11.49,2.1H63.721c1.07,0,1.571.364,1.635,1.222.026.138.057,1.379.057,4.45,0,.849-.116,1.757-1.5,1.757H52.559c-1.757,0-1.757,0-1.757-5.869,0-.658,0-1.559,1.5-1.559m18.22,1.952c0-1.134,0-1.952,1.562-1.952H83.5c1.628,0,1.628.775,1.628,2.472,0,4.68-.169,4.956-1.5,4.956H72.209c-.63,0-1.692-.176-1.692-1.364ZM83.636,59.85H72.012c-1.564,0-1.623-.174-1.623-4.628,0-1.952,0-2.541,1.887-2.541h10.9c1.707,0,1.887,0,1.887,5.607,0,.67-.15,1.562-1.431,1.562" transform="translate(53.396 66.68)" fill="#fff"/>
    <path id="パス_130470" data-name="パス 130470" d="M109.934,53.009c-2.2-1.1-5-2.113-10.6-2.113a27.236,27.236,0,0,0-20.972,8.55c-4.847,4.9-7.3,10.544-7.3,16.789,0,7.934,3.908,14.894,8.365,14.894,2.337,0,5.738-1.093,11.331-9.624,6.059-9.154,6.758-15.363,6.758-19.239a39,39,0,0,0-.478-5.762c-.059-.442-.121-.879-.174-1.291a1.869,1.869,0,0,0-.078-.461,1.236,1.236,0,0,1-.052-.254c0-.3,0-.713,1.167-.713,16.594,0,17.885,13.689,17.885,17.882,0,16.142-14.069,21.692-20.83,24.359-1.714.685-1.892.756-1.892,1.1,0,.414.321.661.856.661a40.307,40.307,0,0,0,10.9-2.427,24.677,24.677,0,0,0,16.589-23.171c0-8.486-4.288-15.655-11.471-19.18M95.147,58.02c0,5.74-2.379,12.8-6.366,18.888-4.616,6.962-6.083,7.48-7.794,7.48-3.991,0-5.479-6.042-5.479-9.85,0-11.875,12.32-20.559,18.731-20.559.6,0,.908,0,.908,4.041" transform="translate(97.844 70.084)" fill="#fff"/>
    <path id="パス_130471" data-name="パス 130471" d="M106.432,53.835l.157.314c2.365,4.8,2.669,5.415,4.138,5.415,1.823,0,2.486-1.956,2.486-3.271,0-1.759-1.814-4.041-3.613-5.391-.44-.3-4.364-2.971-5.729-2.971-.285,0-.594.162-.594.461,0,.1.017.126.485.711.152.185.357.437.4.521a32.51,32.51,0,0,1,2.265,4.212" transform="translate(142.214 66.001)" fill="#fff"/>
    <path id="パス_130472" data-name="パス 130472" d="M121.669,80.079c0,1.331-.166,6.068-.492,14.077-.021.464-.029.737-.029.746a1.909,1.909,0,0,0,2.028,2.225c2.558,0,3.468-2.23,3.468-4.314,0-.9-.017-3.473-.033-6.087-.014-2.7-.033-5.453-.033-6.449,0-1.172,0-2.018,1.757-2.018H139.3c1.69,0,1.759.185,1.759,4.956,0,5.153,0,5.574-2.068,5.94a28.226,28.226,0,0,1-4.913.385c-.2,0-.725,0-.725.464,0,.2.2.359.906.708,1.569.685,2.577,1.179,3.309,2.28,1.367,2.018,1.616,2.308,2.453,2.308a8.31,8.31,0,0,0,5.6-4.493c.411-.889.411-1.826.411-10.792,0-.178.026-.77.347-.929,1.174-.587,1.481-.763,1.481-1.355,0-1.533-4.176-3.794-4.9-3.794-.319,0-.806.442-1.569,1.172a5.973,5.973,0,0,1-.944.813,2.68,2.68,0,0,1-1.272.233H128.334c-1.823,0-1.823-.8-1.823-2.408a2.577,2.577,0,0,1,.171-1.005,5.886,5.886,0,0,1,.547-.6c.673-.685,1.112-1.158,1.112-1.467,0-.466-.587-.746-2.006-1.419l-.292-.145a1.44,1.44,0,0,1-.442-.264c.014-.021.09-.057.385-.057H134.6c.547,0,1.053.038,1.246.518.4,1.143.58,1.5,1.628,1.5a3.483,3.483,0,0,0,3.53-3.271c0-.352-.014-1.376-.031-2.422-.014-1.091-.033-2.2-.033-2.6a4.313,4.313,0,0,1,.212-2.025c.811-.944,1.093-1.3,1.093-1.894,0-1.64-3.147-3.337-3.989-3.337s-1.039.257-1.8,1.464a2.352,2.352,0,0,1-2.116.889H114.559a6.615,6.615,0,0,1-2.743-.383c-.185-.062-.59-.242-1.06-.452a11.046,11.046,0,0,0-2.66-1,.717.717,0,0,0-.725.792,4.773,4.773,0,0,0,.057.513c.024.159.05.347.076.559a24.183,24.183,0,0,1,.259,3.825c0,.575-.05,2.242-.1,3.848-.052,1.681-.1,3.418-.1,4.05,0,.487,0,1.966,2.094,1.966,2.482,0,2.907-.8,3.449-1.816.338-.73.887-.73,1.643-.73h5.027c1.134,0,1.954,0,1.954,5.218,0,1.2,0,2.144-1.759,2.144H108.945a4.239,4.239,0,0,1-2.073-.5A37.34,37.34,0,0,0,103.2,74.2c-.48,0-.725.266-.725.792,0,.207.062.782.133,1.393.062.573.128,1.165.128,1.35,0,1.044-.093,4.029-.188,7.19-.1,3.3-.2,6.71-.2,7.956,0,1.742.473,2.486,1.576,2.486a4.235,4.235,0,0,0,4.053-4.576c0-.387-.048-1.474-.1-2.624s-.1-2.365-.1-2.8c0-7.11.107-7.11,1.887-7.11h10.185c1.821,0,1.821.844,1.821,1.821m12.608-13.39H115.082c-1.74,0-2.018-.68-2.018-2.867,0-3.7.052-4.039,1.821-4.039h19.456c.613,0,1.759,0,1.759,1.557a31.024,31.024,0,0,1-.183,4.557,1.54,1.54,0,0,1-1.64.792" transform="translate(140.927 76.097)" fill="#fff"/>
    <path id="パス_130473" data-name="パス 130473" d="M105.1,59.944l-.616-1.048c-1-1.707-1.124-1.925-1.517-1.925-.594,0-.594.316-.594,1.64a12.467,12.467,0,0,1-1.795,6.156,4.965,4.965,0,0,0-1.143,2.917,2.891,2.891,0,0,0,2.486,3.012c1.659,0,3.986-3.164,4.188-6.549.059-1.024.059-1.024.775-1.024H147.75c.594,0,.713.031.713.385a27.266,27.266,0,0,1-.925,3.249,16.1,16.1,0,0,0-.644,2.234c0,.49.307.528.4.528.261,0,1.436-1.093,1.436-1.093l.062-.05c.925-.794,2.855-2.444,4.312-2.444a7.033,7.033,0,0,1,1.124.326,6.208,6.208,0,0,0,1.424.39,1.249,1.249,0,0,0,1.376-1.312c0-2.234-4.649-5.624-5.686-5.624a4.192,4.192,0,0,0-1.3.628,7.66,7.66,0,0,1-.673.368,4.165,4.165,0,0,1-1.683.311h-7.835c-.414,0-.582-.055-.582-.174.131-.587,4.581-5.46,6.515-6.023l.131-.038c2.163-.635,2.5-.732,2.5-1.462,0-1.079-5.931-4.642-6.339-4.642a.97.97,0,0,0-.913.8c-.131.447-.846,2.8-1.036,3.306-3.475,8.232-4.435,8.232-5.363,8.232h-2.676c-1.5,0-1.692-.9-1.692-1.69,0-.851.133-6.957.193-7.278a4.342,4.342,0,0,1,.609-.872c.475-.6.765-.986.765-1.25,0-1.467-5.7-2.684-5.947-2.684-.789,0-.789.475-.789.856,0,.414.059,1.633.124,2.921.067,1.367.138,2.779.138,3.28,0,.288-.017,1.065-.031,1.866-.019.846-.036,1.716-.036,2.051,0,1.992-.064,2.8-1.69,2.8H106.554c-.758,0-.963-.15-1.457-1.074" transform="translate(136.919 65.055)" fill="#fff"/>
    <path id="パス_130474" data-name="パス 130474" d="M140.687,59.219c.418,2.4.544,3.128,1.842,3.128,1.205,0,2.555-1.509,2.555-3.53,0-2.382-3.549-5.12-4.842-5.845-.473-.266-.639-.276-.792-.178a.946.946,0,0,0-.052.922,49.743,49.743,0,0,1,1.236,5.2Z" transform="translate(191.834 72.619)" fill="#fff"/>
    <path id="パス_130475" data-name="パス 130475" d="M131.838,59a.838.838,0,0,1,.081.1.756.756,0,0,0,.585.357,7.183,7.183,0,0,0,.713-.09c.326-.048.73-.107.863-.107,1.564-.064,3.016-.064,4.3-.064h6.984c1.317,0,2.358,0,2.358-.984,0-1.07-3.221-3.273-3.858-3.273-.437,0-.825.29-1.341,1-.789,1.093-.977,1.093-2.446,1.093h-1.892c-1.265,0-4.055-.124-5.567-.193a15.7,15.7,0,0,0-1.745-.264.373.373,0,0,0-.4.4c0,.133.033.245.235.513Z" transform="translate(179.662 75.644)" fill="#fff"/>
    <path id="パス_130476" data-name="パス 130476" d="M173.438,69.223a9.832,9.832,0,0,1-.578.8c-.532.414-3.23.414-4.381.414-.68,0-1.421-.076-1.631-1.027-.188-.675-.257-8.243-.257-9.739,0-7.01.34-8.234.485-8.434a10.022,10.022,0,0,0,1.345-1.816c0-1.11-6.6-1.576-6.667-1.576-.366,0-1.048,0-1.048.53a5.01,5.01,0,0,0,.734,1.673,7.971,7.971,0,0,1,.376.715c.083.535.844,18.177.846,18.31,0,1.269-.644,1.362-1.626,1.362h-6.268c-.573,0-.841-.05-.841-.516,0-.749,2.86-5.446,3.482-6.206a6.831,6.831,0,0,1,.6-.542c.777-.666,1.143-1.01,1.143-1.281,0-1.436-4.918-2.291-4.968-2.291-.82,0-.849.423-1.032,3.176l-.019.276a21.433,21.433,0,0,1-1.79,6.751,1.566,1.566,0,0,1-1.531.635c-3.3,0-5.641-.062-9.308-.195-.43-.062-2.486-.261-2.9-.261a.369.369,0,0,0-.4.4c0,.135.017.159.3.521l1.255,1.519c.057.055.1.107.152.155.181.195.338.361.58.361a6.2,6.2,0,0,0,.715-.1c.257-.043.573-.1.666-.1,2.28-.131,6.748-.131,8.215-.131h12.142c1.547,0,1.619.128,1.956,3.411a83.856,83.856,0,0,0,2.223,12.106,12.258,12.258,0,0,1,.649,3.083c0,1.892-4.685,7.83-13.273,11.961-.166.083-.532.25-.97.449a22.28,22.28,0,0,0-2.479,1.219.289.289,0,0,1-.057.048.388.388,0,0,0-.2.295c0,.333.4.333.53.333,2.265,0,10.563-2.282,15.681-6.522.261-.264,1.557-1.429,1.84-1.659l.1-.059a1.626,1.626,0,0,1,.654-.245c.725,0,1.21.834,1.652,1.593,1.761,3.157,5.729,7.744,7.944,7.744a2.113,2.113,0,0,0,2.1-2.36,12.473,12.473,0,0,0-.837-2.629c-.188-.5-.366-.967-.409-1.146a6,6,0,0,1-.193-1.578,25.779,25.779,0,0,1,.521-4.725c.007-.038.723-3.715.723-3.955,0-.6-.278-.661-.4-.661-.245,0-.4.254-1.493,2.479-.813,1.654-2.505,5.092-3.064,5.094-.368-.088-2.619-2.729-2.619-4.5a4.3,4.3,0,0,1,.9-2.225l.05-.074c.383-.559,1.372-2.132,2.42-3.8,1.21-1.923,2.581-4.105,2.774-4.331,1.051-.984,1.238-1.16,1.238-1.585,0-1.174-5.565-3.989-5.619-3.989-.392,0-.442.238-.675,1.376l-.112.554c-.585,3.207-2.467,7.8-3.2,7.8-1.086,0-2.474-10.82-2.474-12.268,0-1.179.647-1.234,1.887-1.234h8.1c3.245,0,3.661,0,3.661-.986,0-.956-4.5-4.512-5.36-4.512-.473,0-1.112.877-1.961,2.116" transform="translate(188.928 65.885)" fill="#fff"/>
    <path id="パス_130477" data-name="パス 130477" d="M130.723,55.682l.033.045c.19.252.368.5.715.5a10.4,10.4,0,0,0,1.4-.2c.166,0,.4-.01.753-.021,1.039-.036,3.2-.107,7.445-.107h6.266c3.23,0,3.727,0,3.727-.989,0-.825-2.886-3.268-3.858-3.268-.556,0-.9.4-1.3.87l-.164.185c-.77,1.01-1.039,1.034-4.345,1.034-2.862,0-5.536-.062-8.942-.2-.181,0-.761-.062-1.324-.121-.642-.067-1.3-.14-1.547-.14a.374.374,0,0,0-.4.4.848.848,0,0,0,.307.523Z" transform="translate(177.885 71.107)" fill="#fff"/>
    <path id="パス_130478" data-name="パス 130478" d="M152.774,50.427c-.8-.309-1.3-.342-1.536-.074-.233.352.147.918.273,1.086a12.144,12.144,0,0,1,1.647,4.5l.01.052c.456,2.28.818,4.081,2.617,4.081a3.32,3.32,0,0,0,2.943-3.4c0-2.743-3.941-5.46-5.954-6.24" transform="translate(208.154 69.086)" fill="#fff"/>
    <path id="パス_130479" data-name="パス 130479" d="M130.2,60.175a.941.941,0,0,0,.235.447l1.108,1.5.076.1c.152.209.276.373.544.373.143,0,.48-.033.839-.067.33-.031.673-.064.811-.064,1.559-.128,2.974-.128,4.226-.128H144.9c1.314,0,2.356,0,2.356-.989,0-.86-3.145-3.009-4.122-3.009a1.415,1.415,0,0,0-1.148.808c-.723,1.086-1.017,1.086-2.441,1.086h-1.633c-1.985,0-3.87-.138-5.548-.261-.162,0-.882-.09-1.315-.145-.242-.029-.425-.05-.449-.05a.371.371,0,0,0-.4.4" transform="translate(179.284 80.334)" fill="#fff"/>
    <path id="パス_130480" data-name="パス 130480" d="M147.225,67.117c.637-.494.86-.792.86-1.139,0-1.044-4.271-3.535-4.576-3.535-.528,0-1.115.794-1.345,1.136-.592.889-.749.889-1.985.889h-3.133a4.058,4.058,0,0,1-2.315-.561l-.166-.1a11.286,11.286,0,0,0-3.589-1.628c-.53,0-.53.6-.53.92,0,.466.2,2.448.264,2.821.223,3,.323,7.288.323,13.891,0,.464-.05,1.766-.1,3.028s-.1,2.429-.1,2.848c0,.932.651,1.445,1.835,1.445,1.493,0,3.271-.649,3.271-3.73,0-.238-.048-.844-.1-1.486-.05-.606-.1-1.231-.1-1.452,0-1.559,1.1-1.559,1.757-1.559h2.351c.9,0,1.835.155,1.887,1.3.067,1.875.169,2.415,2.03,2.415a2.705,2.705,0,0,0,3.009-2.748c0-.442-.086-1.669-.169-2.855-.076-1.108-.157-2.253-.157-2.629V69.829c0-2.154.119-2.239.77-2.712m-5.353,4.017c0,5.674,0,5.674-1.887,5.674h-2.417c-.442,0-1.367,0-1.64-.661-.181-.418-.181-.944-.181-5.013,0-4.371.05-4.5,1.821-4.5h2.417c1.835,0,1.887.126,1.887,4.5" transform="translate(179.624 85.629)" fill="#fff"/>
    <path id="パス_130481" data-name="パス 130481" d="M153.561,55.477c-.635.825-.972.965-1.666.965-1.188,0-1.236-.4-1.236-3.518a1.7,1.7,0,0,1,.24-1.084,3.9,3.9,0,0,1,.421-.5c.421-.464.58-.656.58-.827,0-1.985-5.888-2.881-5.947-2.881-.178,0-.725,0-.725.53a5.96,5.96,0,0,0,.338,1.272,7.028,7.028,0,0,1,.321,1.174,36.994,36.994,0,0,1,.126,3.756c0,1.257-.09,2.082-1.3,2.082-.456,0-1.759-.1-3.016-.2s-2.436-.19-2.857-.19c-.109,0-.4,0-.4.335,0,.2.033.245.3.58l1.105,1.5.069.093c.154.214.278.383.551.383.136,0,1.431-.121,1.73-.2,2.275-.128,5.039-.128,6.691-.128h6.66c2.836,0,3.271,0,3.271-.922,0-.87-2.548-3.4-3.663-3.4a1.988,1.988,0,0,0-1.6,1.188" transform="translate(190.63 65.584)" fill="#fff"/>
    <path id="パス_130482" data-name="パス 130482" d="M139.517,86.477a1.682,1.682,0,0,0,1.835,1.966c2.748,0,2.748-2.66,2.748-3.535,0-2.367,0-2.931,1.628-2.931H150.1c.639,0,1.364,0,1.7.906l.026.076c.2.606.371.979,1.343.979.568,0,3.4-.2,3.4-4.119,0-.433-.071-2.156-.157-4.15-.109-2.553-.235-5.446-.235-6.361,0-1.238,0-4.523.376-4.8l.418-.309c.86-.628.97-.708.97-1.1,0-1.022-4.473-3.335-4.968-3.335-.281,0-.6.383-1.255,1.3-.162.231-.318.447-.38.511a2.637,2.637,0,0,1-1.826.535h-3.72a5.441,5.441,0,0,1-3.551-1.082,7.8,7.8,0,0,0-2.586-1.008c-.53,0-.53.6-.53.922,0,.459.195,2.42.264,2.824.136,1.569.261,3.594.261,7.751,0,1.2-.036,4.531-.069,7.754-.033,3.157-.064,6.142-.064,7.2M149.774,70.6h-3.981c-1.842,0-1.887-.278-1.887-3.974,0-1.752,0-2.408,1.823-2.408h4.046c1.833,0,1.887.5,1.887,3.518,0,2.315,0,2.864-1.887,2.864m-3.981,2.106h3.981c1.887,0,1.887.468,1.887,3.518,0,3.28-.055,3.582-1.887,3.582h-3.981c-1.833,0-1.887-.124-1.887-4.431,0-2.051,0-2.669,1.887-2.669" transform="translate(191.575 82.302)" fill="#fff"/>
    <path id="パス_130483" data-name="パス 130483" d="M131.775,52.554a.95.95,0,0,0,.692.483c.1,0,.347-.036.742-.09.34-.048.763-.107.918-.109a24.96,24.96,0,0,1,3.537-.133c.242,0,.471,0,.68,0H144.8c1.471,0,2.358,0,2.358-1.051,0-1.131-3.575-3.727-4.445-3.727-.775,0-1.281.744-2.391,2.377-.138.188-.221.3-2.113.3-1.291,0-4.293-.131-5.614-.264-.119,0-.492-.05-.825-.1-.376-.05-.73-.1-.872-.1a.371.371,0,0,0-.4.4.707.707,0,0,0,.233.509Z" transform="translate(179.7 66.001)" fill="#fff"/>
    <path id="パス_130484" data-name="パス 130484" d="M175.5,68.888l-.017-.009a4.789,4.789,0,0,0-2.384-.68,4,4,0,0,0-2.95,1.234,4.24,4.24,0,0,0-1.3,3.083,3.921,3.921,0,0,0,2.315,3.829,3.727,3.727,0,0,0,2,.487,4.142,4.142,0,0,0,3.147-1.364,4.019,4.019,0,0,0,1.167-2.952,4.266,4.266,0,0,0-1.98-3.627" transform="translate(232.502 93.91)" fill="#fff"/>
    <path id="パス_130485" data-name="パス 130485" d="M196.636,60.516c0-3.587-1.721-6.565-5.111-8.85a19.042,19.042,0,0,0-11.084-3.1c-5.058,0-9.277,1.357-12.534,4.027-2.783,2.253-4.252,5.015-4.252,7.991a5.887,5.887,0,0,0,1.826,4.459,4.973,4.973,0,0,0,3.47,1.424c3.035,0,4.573-1.386,4.573-4.117,0-2.52-1.165-3.8-3.466-3.8a3.265,3.265,0,0,0-2.681,1.35c-.052-.437-.055-.685-.055-.689,0-1.8,1.008-3.527,3-5.132a14.465,14.465,0,0,1,9.273-3.154A12.051,12.051,0,0,1,187.3,53.3a8.221,8.221,0,0,1,3.252,6.827c0,3.111-1.695,6.582-5.039,10.309a27.571,27.571,0,0,0-4.143,5.66A24.8,24.8,0,0,0,179,87.414v1.633a1.137,1.137,0,0,0,1.248,1.248h.064a1.086,1.086,0,0,0,1.181-1.248V87.74a20.5,20.5,0,0,1,1.811-9.118,18.878,18.878,0,0,1,5.819-6.458c4.989-4,7.516-7.92,7.516-11.647" transform="translate(225.353 66.87)" fill="#fff"/>
    <path id="パス_130486" data-name="パス 130486" d="M46.561,129.624c0-9.064-6.035-15.153-15.02-15.153a35.317,35.317,0,0,0-8.227,1.253,8,8,0,0,1-1.828.316c-.623,0-.91,0-.91-1.431a8.56,8.56,0,0,1,.682-3.078c.357-.473,1.509-.768,5.108-1.621,5.529-1.367,8.053-1.992,8.053-4.245,0-1.279-1.348-2.358-2.945-2.358a25.315,25.315,0,0,0-4.179,1.046,27.368,27.368,0,0,1-4.44,1.11c-.644,0-.644-.026-.644-.449a8.5,8.5,0,0,1,.891-3.107c.01-.019,1.065-2.227,1.065-2.377,0-1.673-5.885-2.817-5.947-2.817-.494,0-.789.223-.789.594,0,.055.026.209.155.908.185,1.039.5,2.774.5,3.207a24.986,24.986,0,0,1-.575,4.754c-.126.319-.965.853-5.163.853a38.181,38.181,0,0,1-4.407-.257c-.14-.024-.53-.128-.939-.238a11.83,11.83,0,0,0-1.837-.421c-.609,0-.984.328-.984.858,0,.68,2.574,4.968,8.56,4.968.3,0,1.383-.055,2.173-.093.406-.021.718-.036.765-.036,1.12,0,1.234.219,1.234,1.165,0,4.657-.656,5.12-2.591,6.494C5.353,125.642,0,133.2,0,139.679c0,1.1.245,4.709,3.4,4.709,3.335,0,6.884-2.432,9.917-4.809l.68-.525c.832-.642,2.077-1.6,2.334-1.716.067.007.171.178.471.692l.116.2a2.487,2.487,0,0,0,2.151,1.524c1.412,0,2.291-1.329,2.291-3.466,0-.228-.045-.889-.1-1.588-.048-.727-.1-1.481-.1-1.74a3.243,3.243,0,0,1,.687-2.244l.081-.131c2.294-3.63,3.34-5.286,4.447-8.8,1.155-3.791,1.248-4.1,4.243-4.1,5.253,0,10.571,4.26,10.571,12.4,0,8.22-5.995,14.414-17.818,18.415-.894.3-1.44.5-1.44.908,0,.2.083.661.853.661a21.428,21.428,0,0,0,4.559-.792c5.748-1.545,19.211-5.165,19.211-19.651m-25.662-3.6c-.059,0-.582-.083-.582-2.931,0-2.308,0-4.3,3.192-4.3.5,0,.616.05.639.069a1.452,1.452,0,0,1,.138.513c0,1.78-2.653,6.651-3.387,6.651M4.975,138.849a1.391,1.391,0,0,1-.328-1.063c0-4.749,9.182-15.664,11.419-15.664.026,0,.254.038.254,1.3,0,.967-.143,7.566-.378,8.151v0c-.875,2.251-7.939,7.183-10.15,7.447a1.043,1.043,0,0,1-.818-.174" transform="translate(0 133.172)" fill="#fff"/>
    <path id="パス_130487" data-name="パス 130487" d="M39.254,97.821c0,.2.226.54.863,1.379.178.231.345.452.409.556a5.108,5.108,0,0,1,.882,2.764,2.885,2.885,0,0,1-.516,1.871,7.241,7.241,0,0,1-2.743.342,9.4,9.4,0,0,1-4.92-1.343c-1.322-.792-1.545-.877-1.866-.877-.406,0-.661.378-.661.986,0,.2.09,4.83,7.892,5.491,1.048.069,1.248.152,1.248.511a58.2,58.2,0,0,1-8.973,21.172c-1.942,2.783-2.189,3.178-2.189,4.165,0,.611.216,2.03,2.225,2.03,6.311,0,11.978-22.879,12.6-25.481.6-2.315.647-2.382,1.1-2.534,4.878-1.445,9.087-2.693,9.087-5.417,0-2.049-2.812-2.791-3.872-3.071C47.89,99.851,47.281,99.6,47,99.2c-1.058-1.452-2.151-2.957-4.866-2.957-1.391,0-2.879.632-2.879,1.576m5.954,5.745c.01-.309.487-2.672,1.364-2.672a6.5,6.5,0,0,1,2.474,1.436.57.57,0,0,1-.247.34,8.794,8.794,0,0,1-3.537,1.115.643.643,0,0,1-.055-.219" transform="translate(39.491 132.529)" fill="#fff"/>
    <path id="パス_130488" data-name="パス 130488" d="M61.284,140.739c1.45,0,1.966-1.284,1.966-2.486,0-1.733-1.821-3.6-5.26-5.4-.247-.135-.868-.378-1.585-.658a17.724,17.724,0,0,1-2.643-1.16c-1.74-1.217-2.524-10.661-2.524-12.957,0-1.338,0-3.832,1.509-5.272a7.609,7.609,0,0,1,4.621-1.9,7.126,7.126,0,0,1,2.707.756l.742.273a4.7,4.7,0,0,0,1.578.278,3.29,3.29,0,0,0,3.271-3.6,7.185,7.185,0,0,0-4.894-6.848,20.644,20.644,0,0,0-3.927-1.124c-.383,0-.658.223-.658.53,0,.364.314.661.908,1.188.53.53,1.768,1.9,1.768,3.185,0,1.481-.278,1.678-3.946,3.806l-.456.264c-5.714,3.264-5.978,7.029-5.978,13.951,0,.454.059,1.716.126,3.052s.135,2.722.135,3.216c0,.437-.107.513-.713.513-.216,0-.915-.031-1.59-.062-.751-.033-1.528-.069-1.8-.069-6.508,0-10.711,2.617-10.711,6.667a7.231,7.231,0,0,0,2.672,5.163,11.119,11.119,0,0,0,7.388,2.615c4.02,0,8.6-1.916,9.4-7.288l.055-.295c.083-.442.112-.544.216-.6.723-.3,3.532,1.448,5.469,3.166,1.015.879,1.438,1.093,2.156,1.093m-17.5-6.919c1.208,0,4.882,0,5.163.846a4.275,4.275,0,0,1-.849,3.161C47.291,139,45.62,140.4,42.285,140.4c-3.913,0-5.674-1.942-5.674-3.321,0-1.488,1.248-3.259,7.176-3.259" transform="translate(46.715 138.58)" fill="#fff"/>
    <path id="パス_130489" data-name="パス 130489" d="M74.229,101.9a5.222,5.222,0,0,1,.34-.9,3.6,3.6,0,0,0,.378-1.06c0-.858-2.313-3.665-5.427-3.665-1.8,0-3.138.9-3.138,1.707,0,.364.568,1.072,1.55,2.177.15.166.266.295.3.342a7.7,7.7,0,0,1,.758,3.943c0,.9-.261,4.859-.654,5.2-.406.359-3.1.537-4.5.537a23.949,23.949,0,0,1-5.762-.711,5.152,5.152,0,0,1-.53-.223,3.523,3.523,0,0,0-1.022-.371.471.471,0,0,0-.461.463c0,.777,1.4,2.653,3.5,3.706a12.835,12.835,0,0,0,5.9,1.2c2.146,0,2.146.033,2.146.428a88.69,88.69,0,0,1-8.593,23.951c-2,3.741-2.375,4.474-2.375,5.32,0,1.419.513,3.076,1.963,3.076,1.307,0,3.739,0,8.291-13.72l.131-.409c1.257-3.882,1.419-4.381,4.64-18.151.233-1.051.409-1.1,2.6-1.676,4.659-1.269,10.007-3.2,10.007-6.922,0-1.476-.792-2.227-2.356-2.227-.181,0-.658.036-1.124.071-.385.029-.784.059-.9.059-.8,0-5.672-1.165-5.672-2.146m3.839,4.374c0,.559-4.409,2.346-5.089,2.408a.126.126,0,0,1-.078-.017,1.359,1.359,0,0,1,.021-.587c.178-.87.259-1.319.342-1.771.064-.359.126-.72.245-1.3.124-.62.281-.62.518-.62.753,0,3.989,1.414,4.041,1.885" transform="translate(77.203 132.566)" fill="#fff"/>
    <path id="パス_130490" data-name="パス 130490" d="M77.278,109.926c-1.1.986-1.481,1.355-1.481,1.626s.176.4.53.4a7.887,7.887,0,0,0,2.2-.642l.616-.221a10.721,10.721,0,0,1,4.756-1.032c.247,0,1,.048,1.723.1.8.05,1.623.1,1.933.1.518,0,2.1,0,2.1-1.769,0-2.888-4.566-4.9-11.105-4.9-6.349,0-11.678,2.144-12.346,3.266a.469.469,0,0,0-.043.485c.057.114.193.245.77.245.276,0,1.795-.2,2.18-.264a39.335,39.335,0,0,1,4.673-.257c3.39,0,5.415.425,5.415.841,0,.307-1.2,1.386-1.916,2.03" transform="translate(91.03 142.628)" fill="#fff"/>
    <path id="パス_130491" data-name="パス 130491" d="M66.528,114.331c-.014-.036-.036-.114-.064-.226-.373-1.348-.563-1.738-.849-1.738-.82,0-1.117,1.837-1.117,3.073,0,7.266,6.777,11.108,19.6,11.108,5.648,0,8.165-.352,8.165-2.422,0-2.365-3.235-3.468-5.424-3.468-.523,0-1.959.109-3.482.223s-3.081.233-3.634.233c-3.475,0-11.714-.661-13.185-6.765Z" transform="translate(88.814 154.73)" fill="#fff"/>
    <path id="パス_130492" data-name="パス 130492" d="M84.295,123.753c0,7.934,3.908,14.892,8.365,14.892,2.339,0,5.74-1.093,11.331-9.622,6.059-9.154,6.758-15.363,6.758-19.239a39,39,0,0,0-.478-5.762c-.059-.442-.121-.88-.174-1.291a1.869,1.869,0,0,0-.078-.461,1.206,1.206,0,0,1-.052-.254c0-.3,0-.713,1.167-.713,16.594,0,17.885,13.689,17.885,17.882,0,16.149-14.069,21.695-20.83,24.359-1.714.685-1.892.756-1.892,1.1,0,.414.321.661.856.661a40.308,40.308,0,0,0,10.9-2.427,24.677,24.677,0,0,0,16.589-23.171c0-8.486-4.288-15.655-11.471-19.18-2.189-1.1-4.989-2.113-10.6-2.113A27.241,27.241,0,0,0,91.6,106.962c-4.847,4.9-7.3,10.547-7.3,16.791m24.091-18.213c0,5.738-2.379,12.8-6.366,18.885-4.616,6.962-6.083,7.48-7.794,7.48-3.991,0-5.479-6.042-5.479-9.85,0-11.876,12.32-20.559,18.731-20.559.6,0,.908,0,.908,4.043" transform="translate(116.074 135.516)" fill="#fff"/>
    <path id="パス_130493" data-name="パス 130493" d="M129.207,97.019c0,.2.071.756.154,1.4.078.618.171,1.317.171,1.547.261,7.112.261,22.04.261,31.918,0,9.232-.159,11.167-.252,11.493-.373,1.177-6.083,1.624-7.055,1.624-.2,0-.9-.059-1.512-.114s-.979-.083-1.1-.083a.75.75,0,0,0-.856.789c0,.074,2.477,7.321,3.86,7.321.378,0,.953-.613,1.856-1.624a8.21,8.21,0,0,1,.994-1.02c.133-.078,18.964-7.737,20.195-7.737.6,0,.727.081,2.184,2.2,3.5,5,6.487,7.989,7.347,7.989.328,0,.471-.131,1.386-.984l.128-.121a9.841,9.841,0,0,1,3.577-1.65,5.447,5.447,0,0,1,.661-.107c1.336-.183,2.282-.354,2.282-.868,0-.24-.3-.435-3.226-1.823-.8-.378-1.555-.737-1.837-.9-6.824-3.727-9.708-8.619-9.819-9.028,0-.383.067-.464,1.191-.991.727-.347,2.876-1.476,4.951-2.567,1.747-.92,3.4-1.788,3.834-1.992l.043-.007c1.457-.252,2.058-.357,2.058-1.429,0-1.445-4.84-4.053-5.36-4.053-.478,0-.573.238-1.1,1.559-.8,1.942-5.824,7.678-6.537,7.709-.9,0-5.346-9.641-5.346-12.4,0-1.055.418-1.169,1.3-1.169h6.332c.666,0,1.381.055,1.431.763.128,1.338.219,2.306,1.5,2.306,2.346,0,3.535-1.343,3.535-3.989,0-1.236-.014-4.821-.031-8.512-.017-3.922-.036-7.963-.036-9.441,0-.661.074-1,.492-1.265,1.108-.692,1.664-1.039,1.664-1.545a.609.609,0,0,0-.043-.193c-.01-.029-.021-.055-.024-.067l-.021-.093c-.2-.4-4.364-3.57-5.144-3.57-.718,0-.97.311-1.735,1.4a1.619,1.619,0,0,1-1.528.758H135.873a4.487,4.487,0,0,1-2.213-.666c-.1-.057-.207-.112-.307-.159l-.454-.231a11.715,11.715,0,0,0-2.836-1.229.819.819,0,0,0-.856.856m4.908,10.773v-5.353c0-.953.112-1.885,1.431-1.885H150.17c1.524,0,1.559.43,1.559,6.128,0,1.84-.392,2.344-1.818,2.344H135.806c-.532,0-1.521,0-1.69-1.234m1.757,3.4h14.039c1.7,0,1.754.124,1.754,4.433,0,3.758-.057,4.169-1.69,4.169H135.806a1.508,1.508,0,0,1-1.521-.744c-.233-.411-.233-1.16-.233-6.038,0-1.517.7-1.821,1.821-1.821m-.067,10.706h3.266c1.483,0,1.493.107,1.74,2.871l.014.147a43.885,43.885,0,0,0,3.223,12.536c.159.326,1.117,2.631,1.153,2.85,0,.658,0,.7-2.18,1.155l-.4.083c-1.265.25-7.181,1.367-7.535,1.367-.668,0-.777-.288-.777-.975,0-1.512-.05-5.643-.1-9.639-.045-3.825-.093-7.44-.093-8.707,0-.673,0-1.69,1.69-1.69" transform="translate(163.893 132.416)" fill="#fff"/>
    <path id="パス_130494" data-name="パス 130494" d="M124.249,136.21c-.116,0-.483-.029-.841-.057-.428-.038-.872-.074-1.053-.074-.494,0-.789.2-.789.53,0,.124.052.25.737.887l.043.043a8.892,8.892,0,0,1,2.432,3.385c.459,1.243.818,1.83,2.149,1.83s6.665-2.058,6.665-11.564c0-3.516-.478-5.239-1.193-6.744a18.428,18.428,0,0,0-7.324-8.441c-1.3-.82-1.407-1.177-1.407-1.246a13.047,13.047,0,0,1,1.079-1.738c.915-1.376,1.253-1.916,2.745-4.514l1.122-1.918c2.945-5.046,3.121-5.348,3.858-5.859.972-.78,1.25-1.032,1.25-1.662,0-1.215-5.113-3.4-5.165-3.4-.444,0-.682.273-1.212,1.139a1.781,1.781,0,0,1-1.856.887h-4.894a5.681,5.681,0,0,1-1.894-.252c-.183-.059-.625-.271-1.136-.513a11.847,11.847,0,0,0-3.043-1.193c-.7,0-1.048.376-1.048,1.117,0,.212.088,1.155.19,2.249.126,1.334.266,2.843.266,3.235v35.776c0,.15-.195,5.8-.261,7.1-.021.283-.078.913-.152,1.673-.154,1.692-.371,4.01-.371,4.737,0,.611.349,2.36,1.9,2.36a4.705,4.705,0,0,0,2.491-1.1c1.084-1.015,1.172-2.619,1.172-4.459,0-.259-.045-1-.093-1.778-.05-.811-.1-1.647-.1-1.949-.193-5.529-.392-20.616-.392-21.407,0-1.115.2-10.157.335-16.14.071-3.235.121-5.572.121-5.731,0-.77.2-1.559,1.69-1.559h4.7c1.3,0,1.364.808,1.364.972,0,.815-1.343,4.559-2.529,7.863a44.389,44.389,0,0,0-1.975,6.042c0,.932.487,1.421,1.892,2.7,3.342,3.038,4.963,7.644,4.963,14.081,0,4.692-2.054,4.692-4.433,4.692" transform="translate(155.799 131.735)" fill="#fff"/>
    <path id="パス_130495" data-name="パス 130495" d="M177.686,148.525c-.064,1.374-.124,2.669-.124,3.116,0,1.231.254,2.489,2.161,2.489,1.215,0,3.271-.8,3.271-3.794,0-1.281-.154-4.756-.307-8.12-.143-3.23-.281-6.28-.281-7.354,0-1.688.162-2.213,1.167-2.213.433,0,.613.1,2.03.887l.354.2c1.631.891,6.808,3.485,8.191,3.485.742,0,1.06-.254,1.845-1.039,1.072-1.077,2.063-1.383,5.018-2.306l.164-.059c.537-.2,1.143-.421,1.143-.913,0-.395-.083-.435-3.637-.853a41.583,41.583,0,0,1-24.11-11.112c-1.372-1.241-1.436-1.391-1.436-1.681,0-.124,0-.252.513-.252h13.321c.706,0,1.21.181,1.367,1.077l.031.145c.245,1.25.44,2.239,1.866,2.239,1.559,0,3.138-1.26,3.138-3.665,0-1.31-.1-4.849-.2-8.272-.1-3.3-.188-6.418-.188-7.526,0-.956,0-1.778.675-2.17,1.06-.563,1.414-.751,1.414-1.421,0-.635-2.686-3.468-3.727-3.468-.625,0-.984.321-1.947,1.169l-.214.193c-.789.727-1.074.727-3.779.727H156.22a8.538,8.538,0,0,1-2.627-.319c-.261-.067-.837-.259-1.5-.48a18.659,18.659,0,0,0-3.385-.963c-.44,0-.723.233-.723.594a7.269,7.269,0,0,0,.487,1.666,9.458,9.458,0,0,1,.3.915c.357,2.089.454,9.168.454,13.021,0,.5-.052,1.916-.1,3.283-.048,1.288-.093,2.508-.093,2.919,0,2.394,1.314,2.75,2.1,2.75a3.753,3.753,0,0,0,2.864-1.429c.547-.913.594-.986,2.163-.986h7.378c.87,0,.972.368.972.647,0,.613-3.532,5.415-8.279,9.175a65.877,65.877,0,0,1-13.016,7.939c-.725.33-1.162.566-1.162,1.034,0,.4.414.4.594.4,2.589,0,10.542-3.183,14.939-5.981a9.527,9.527,0,0,1,1.381-.875.76.76,0,0,1,.713.544c0,.176.031.487.069.872.055.568.126,1.279.126,1.773,0,9.2-4.412,13.161-6.532,15.065-.347.316-1.514,1.172-2.546,1.928-2.151,1.576-2.151,1.59-2.151,1.745,0,.466.573.466.789.466.114,0,12.039-2.358,14.821-12.753a35.927,35.927,0,0,0,1.051-8.148c0-.879.138-.958.554-1.2.7-.418.948-.87.948-1.153,0-1.11-1.291-1.231-3.247-1.412l-.426-.04c-.7-.057-.7-.067-.708-.2a6.579,6.579,0,0,1,.877-.863c.159-.143.3-.264.366-.333,1.07-.946,4.664-4.343,7.129-6.739a1.043,1.043,0,0,1,.768-.392c.345,0,.794.635,1.369,1.436l.031.048a54.6,54.6,0,0,0,5.455,6.242,3.457,3.457,0,0,1,.906,1.017c0,.033,0,.059-.124.059a6.927,6.927,0,0,1-.83-.19,5.481,5.481,0,0,0-.934-.2.69.69,0,0,0-.789.792,22.844,22.844,0,0,0,.416,2.6c.114.6.214,1.122.24,1.345a96.406,96.406,0,0,1,.521,11.4c0,.535-.069,2.032-.138,3.478m-3.9-37.1c0-1.134,0-1.952,1.559-1.952h11.426c1.626,0,1.626.775,1.626,2.472,0,4.68-.169,4.956-1.5,4.956H175.48c-.632,0-1.692-.176-1.692-1.364Zm13.116-4.055H175.283c-1.564,0-1.626-.174-1.626-4.628,0-1.952,0-2.541,1.887-2.541h10.9c1.709,0,1.887,0,1.887,5.61,0,.67-.147,1.559-1.431,1.559m-31.338,2.1h11.426c1.07,0,1.571.364,1.633,1.222.029.138.059,1.379.059,4.45,0,.849-.116,1.757-1.5,1.757H155.827c-1.757,0-1.757,0-1.757-5.866,0-.661,0-1.562,1.5-1.562m11.49-2.1H155.633c-1.531,0-1.562,0-1.562-5.543,0-.872,0-1.626,1.628-1.626h11.293c1.692,0,1.692.689,1.692,2.736,0,4.309-.048,4.433-1.628,4.433" transform="translate(195.6 132.113)" fill="#fff"/>
    <path id="パス_130496" data-name="パス 130496" d="M202.1,99.187a19.025,19.025,0,0,0-11.084-3.107c-5.058,0-9.275,1.357-12.534,4.027-2.781,2.256-4.252,5.02-4.252,7.994a5.882,5.882,0,0,0,1.825,4.457,4.986,4.986,0,0,0,3.47,1.426c3.035,0,4.576-1.386,4.576-4.119,0-2.517-1.167-3.794-3.466-3.794a3.259,3.259,0,0,0-2.681,1.348,6.591,6.591,0,0,1-.057-.689c0-1.8,1.008-3.527,3-5.13a14.461,14.461,0,0,1,9.273-3.154,12.044,12.044,0,0,1,7.711,2.372,8.217,8.217,0,0,1,3.252,6.824c0,3.112-1.7,6.582-5.039,10.311a27.415,27.415,0,0,0-4.143,5.657,24.766,24.766,0,0,0-2.375,11.324v1.631a1.136,1.136,0,0,0,1.248,1.248h.064c.54,0,1.181-.216,1.181-1.248v-1.307a20.518,20.518,0,0,1,1.811-9.118,18.877,18.877,0,0,1,5.819-6.456c4.989-4.005,7.516-7.923,7.516-11.65,0-3.587-1.719-6.565-5.111-8.847" transform="translate(239.916 132.302)" fill="#fff"/>
    <path id="パス_130497" data-name="パス 130497" d="M183.735,124.351a4.133,4.133,0,0,0,3.147-1.367,4.009,4.009,0,0,0,1.167-2.95,4.263,4.263,0,0,0-1.98-3.627l-.014-.012a4.843,4.843,0,0,0-2.384-.677,4,4,0,0,0-2.952,1.234,4.238,4.238,0,0,0-1.3,3.083,3.924,3.924,0,0,0,2.313,3.827,3.729,3.729,0,0,0,2,.49" transform="translate(247.065 159.343)" fill="#fff"/>
    <path id="パス_130498" data-name="パス 130498" d="M87.752,170.327a8.369,8.369,0,0,1-.834-4.172c0-5.562.131-6.523.922-6.862,1.231-.521,5.555-.637,6.969-.637.6,0,2.4.143,4.141.283,1.885.15,3.834.3,4.545.3,1.735,0,3.727-.283,3.727-2.489,0-2.669-3.523-2.748-3.924-2.748-.257,0-1,.074-1.787.15-.841.083-1.795.176-2.13.176a14.143,14.143,0,0,1-5.664-1.288c-3.965-1.681-5.624-2.6-5.624-3.927,0-.147.071-.589.131-.979.067-.445.133-.865.133-1.044,0-2.382-2.914-3.468-5.624-3.468-.471,0-1.574,0-1.574.661,0,.231.242.578.637,1.127a4.415,4.415,0,0,1,.485.758,39.167,39.167,0,0,1,.9,8.821c0,1.524-.2,1.559-3.62,2.151-3.749.666-12.978,2.215-17.723,2.215-.687,0-2.679-.228-3.867-.364l-.811-.093-.045,0-.043.012a.9.9,0,0,0-.461.846c0,2.831,5.522,5.622,7.057,5.622a22.391,22.391,0,0,0,4.8-1.719c.994-.423,1.852-.787,2.244-.9a80.946,80.946,0,0,1,11.493-2.6c1.072,0,1.105.1,1.105,3.713,0,3.344,0,3.546-1.659,3.784-6.035.934-6.5,7.283-6.5,9.209,0,4.992,2.95,8.755,6.862,8.755.1,0,.333-.026.708-.067.269-.029.575-.064.661-.064.212,0,.452.081.452.713,0,2.657-1.821,6.782-3.62,9.479-.207.295-.894,1.132-1.559,1.937-1.609,1.954-1.609,1.978-1.609,2.1a.484.484,0,0,0,.528.464c2.337,0,12.085-8.367,12.085-20.963a20.95,20.95,0,0,0-1.909-8.888M87.44,154.8c0-1.94.333-3.069.554-3.133h.012a16.652,16.652,0,0,1,4.711,3.264c0,.551-2.829.906-4.3.906-.787,0-.972-.1-.972-1.036m-3.278,21.871c0,1.778-.314,4.756-2.41,4.756-1.678,0-4.041-1.557-4.041-5.018,0-3.366,2.1-5.8,3.52-5.8s2.092,1.557,2.106,1.6a12.463,12.463,0,0,1,.825,4.466" transform="translate(77.956 197.773)" fill="#fff"/>
    <path id="パス_130499" data-name="パス 130499" d="M98.736,150.091c0,.437.891,1.112.925,1.136a20.057,20.057,0,0,1,4.271,4.2c1.761,2.482,2.394,3.154,3.492,3.154,1.269,0,2.227-1.628,2.227-2.686,0-2.881-4.523-6.534-9.6-6.534-.637,0-1.312.254-1.312.725" transform="translate(135.959 205.677)" fill="#fff"/>
    <path id="パス_130500" data-name="パス 130500" d="M107.54,152.741l.05.076c.925,1.521,1.8,2.959,3.325,2.959a2.122,2.122,0,0,0,1.963-2.291c0-3.192-3.639-6.114-8.46-6.791a3.663,3.663,0,0,0-2.5.295.547.547,0,0,0-.214.423c0,.318.259.625.822.963a15.634,15.634,0,0,1,5.015,4.367" transform="translate(140.043 201.89)" fill="#fff"/>
    <path id="パス_130501" data-name="パス 130501" d="M136.892,173.695c0-2.054-2.964-3.623-5.9-4.9a57.538,57.538,0,0,1-18.182-12.541c-4.7-4.7-6.765-5.346-8.3-5.346-2.417,0-3.744.573-9.135,4.873a25.1,25.1,0,0,1-10.551,4.989l-.247.043c-.913.159-1.16.2-1.16.613,0,1.236,4.01,4.381,6.534,4.381a1.966,1.966,0,0,0,1.136-.349c.2-.1,5.358-5.018,5.4-5.063l.109-.107c5.241-5.111,5.788-5.645,7.846-5.645.986,0,2.077.853,3.516,2.23.723.689,2.9,2.862,5,4.963,2.07,2.073,4.21,4.214,4.989,4.961,9.786,9.318,15.691,9.586,16.33,9.586,1.937,0,2.619-2.137,2.619-2.684" transform="translate(114.855 207.794)" fill="#fff"/>
    <path id="パス_130502" data-name="パス 130502" d="M148.944,186.459c-.231,0-1.2.069-2.32.15-1.481.107-3.323.24-3.882.24-3.093,0-7.766,0-7.766-11.483,0-16.682,9-24.279,17.362-24.279.368,0,1.481.176,2.555.347,1.21.19,2.348.371,2.8.371a2.791,2.791,0,0,0,2.812-2.617c0-2.448-3.242-3.337-5.424-3.337-4.21,0-17.792,3.82-24.319,5.657l-.806.226c-9,2.562-9.91,2.8-12.674,2.8a5.7,5.7,0,0,1-.6-.112c-1.272-.276-1.883-.349-2.1-.076-.261.3-.228.837.1,1.54.787,1.711,3.173,4.081,5.607,4.081a4.949,4.949,0,0,0,2.384-.875c2.28-1.281,15.653-6.957,19.292-6.957h.069c-.319.3-1.072.915-1.379,1.146-8.353,7.43-9.6,19.033-9.6,25.287,0,9.406,4.571,14.176,13.585,14.176.794,0,7.775-.1,7.775-3.665,0-1.638-1.3-2.617-3.466-2.617" transform="translate(157.536 200.835)" fill="#fff"/>
    <path id="パス_130503" data-name="パス 130503" d="M39.382,196.047c0-1.129-4.233-4.381-4.706-4.381-.216,0-.532.159-1.552,2.07a33.472,33.472,0,0,1-3.437,5.056l-.1.124c-.913,1.117-1.25,1.631-1.25,1.9,0,.578.233.765,1.65,1.795l.05.038a18.434,18.434,0,0,1,3.314,3.135l.133.145c1.709,1.9,2.572,2.86,3.87,2.86a2.132,2.132,0,0,0,1.833-2.291c0-2.9-4.388-4.744-7.148-5.225-.174-.036-.359-.071-.542-.107a11.625,11.625,0,0,1-1.462-.335,25.457,25.457,0,0,1,6.717-3.211c2.408-.637,2.631-.72,2.631-1.569" transform="translate(39.019 263.924)" fill="#fff"/>
    <path id="パス_130504" data-name="パス 130504" d="M66.368,215.261a9.641,9.641,0,0,1-.689-3.485c0-.247.112-1.167.2-1.906.081-.685.131-1.11.131-1.227a.486.486,0,0,0-.464-.53c-.133,0-.5,0-1.039,1.635-.941,2.646-1.913,4.043-2.812,4.043-3.644,0-12.27-6.256-12.27-16.118,0-.792.174-1.193.606-1.383,1.169-.587,1.55-.827,1.55-1.424,0-1.238-4.516-3.86-5.034-3.86-.33,0-.751.487-1.407,1.284a5.418,5.418,0,0,1-.891.953,11.61,11.61,0,0,1-4.167.44H23.891c-3.05,0-5.976-.062-8.918-.193-.468-.067-2.508-.264-2.962-.264a.374.374,0,0,0-.4.4c0,.207.307.523.311.523l1.248,1.514c.057.055.1.107.155.155.181.193.338.361.578.361a10.185,10.185,0,0,0,1.407-.2c2.284-.128,6.779-.128,8.258-.128H43.539c1.367,0,1.429.124,1.759,3.278,1.856,16.775,17.1,20.616,19.334,20.616,1.669,0,2.743-.849,2.743-2.158,0-.547-.133-.78-.86-2.075Z" transform="translate(15.986 263.015)" fill="#fff"/>
    <path id="パス_130505" data-name="パス 130505" d="M68.213,239.618a16.3,16.3,0,0,1-.257-2.251c0-.6.273-2.888.416-4.119.086-.694.1-.86.1-.958a.714.714,0,0,0-.131-.542.454.454,0,0,0-.333-.131c-.216,0-.418.242-1.276,1.531-.145.216-.278.421-.39.578-.166.238-.326.459-.471.67-1.105,1.583-1.664,2.379-2.826,2.379-3.882,0-9.263-8.536-9.263-10.048a.416.416,0,0,1,.452-.449c.663,0,1.99.537,4.526,3.1l.093.1c2.978,3.109,3.24,3.328,4,3.328a2.533,2.533,0,0,0,2.356-2.619c0-2.957-4.856-4.455-6.941-4.963a6.126,6.126,0,0,1-1.388-.466,23.127,23.127,0,0,1,4.975-2.731l.39-.09c1.065-.245,1.462-.337,1.462-1.084s-3.687-4.122-4.248-4.122c-.585,0-.875.63-1.174,1.714-.373,1.265-3.035,6.252-4.571,6.252-.4,0-.578-.183-.782-1.212-.131-.592-.582-4.68-.582-5.7a2.1,2.1,0,0,1,1.1-2.13l.052-.04c.347-.276.872-.694.872-1.227,0-.844-3.751-3.794-4.514-3.794-.456,0-.725.354-1.445,1.3l-.216.285a2.19,2.19,0,0,1-2.125,1.093h-3c-.647,0-1.357-.064-1.638-.844-.071-.276-.119-3.554-.119-8.355a51.567,51.567,0,0,1,.257-5.636,4.647,4.647,0,0,1,.582-.732c.537-.606.858-.994.858-1.267,0-1.191-4.8-2.424-6.468-2.424-.2,0-.725,0-.725.463a4.383,4.383,0,0,0,.492,1.2,8.2,8.2,0,0,1,.49,1.12c.078.44.128,6.114.128,15.18a1.345,1.345,0,0,1-1.431,1.3H30.8c-1.654,0-2.025-.3-2.085-1.711-.067-.585-.261-8.567-.261-10.1,0-1.074.494-1.238,1.816-1.678l.071-.024c3.249-1.084,3.532-1.284,3.532-1.826,0-.83-5.17-3.989-5.75-3.989-.354,0-.965.554-2.116,1.716-.245.25-.459.466-.542.537a106.117,106.117,0,0,1-12.03,6.57c-.036.009-3.337,1.45-3.337,1.759,0,.4.542.4.72.4.437,0,2.71-.516,5-1.044.535-.121.963-.221,1.179-.269.352-.074,1.141-.3,2.054-.561a33.713,33.713,0,0,1,3.649-.934c.839,0,.965.423,1.177,1.4.119.568.19,3.575.19,8.251,0,1.383-.82,1.493-1.887,1.493H21.008c-1.041,0-4.036-.114-6.019-.193-1.013-.038-1.747-.067-1.883-.067s-.611-.045-1.063-.09c-.53-.052-1.072-.1-1.288-.1a.373.373,0,0,0-.4.4c0,.109.064.19.159.316.038.052.088.116.147.2l1.253,1.519a1.445,1.445,0,0,1,.128.143.815.815,0,0,0,.6.371,6.562,6.562,0,0,0,.715-.1c.254-.043.575-.1.668-.1,1.229-.067,4.592-.193,6.646-.193h1.631c1.205,0,1.887.1,1.887,2.146,0,14.036-8.655,21.6-11.914,24.452l-.171.147c-.1.107-.257.247-.425.407-.965.894-1.393,1.341-1.393,1.631a.482.482,0,0,0,.461.463c1.545,0,5.077-2.767,6.727-4.226,9.147-7.78,10.68-16.14,11.039-21.757.133-2.745.221-3.264,2.146-3.264h4.768c1.436,0,1.5.9,1.5,3.126,0,2.1-.2,14.269-.523,21.153,0,.212-.062.925-.126,1.614-.067.77-.135,1.566-.135,1.845,0,.449,0,1.64,1.966,1.64,2.429,0,3.661-1.189,3.661-3.532,0-.675-.183-3.147-.319-4.951-.064-.849-.119-1.564-.138-1.913-.059-1.35-.067-11.949-.067-16.442,0-1.533.109-2.539,1.562-2.539h3.981c1.15,0,1.234.147,1.3,2.28.245,11.26,4.5,17.723,8.027,21.165,4,3.9,8.317,5.215,9.672,5.215,2,0,3.271-1.319,3.271-2.227a4.353,4.353,0,0,0-.487-1.31,6.023,6.023,0,0,1-.364-.88" transform="translate(13.908 267.063)" fill="#fff"/>
    <path id="パス_130506" data-name="パス 130506" d="M86.639,213.74c-5.8-4.017-7.625-10.609-8.144-13.259l-.071-.354c-1.243-6.161-1.5-7.445-3.72-7.445a2.358,2.358,0,0,0-2.356,2.553c0,.742.057,1.046.922,4.036a24.516,24.516,0,0,1,.841,7.064c0,4.811-.435,16.729-4.476,23.463a15.629,15.629,0,0,1-12.819,6.95c-7.894,0-9.981-6.827-9.981-10.437,0-7.725,7.908-24.317,12.265-25.729l.059-.019c2.486-.851,3.734-1.279,3.734-2.914a2.244,2.244,0,0,0-2.291-2.032c-.825,0-1.257.152-4.966,1.517a31.016,31.016,0,0,1-7.83,1.619c-.264,0-1.255-.121-1.982-.212-.611-.074-.934-.114-1.022-.114-.354,0-.594.318-.594.792,0,.045,1.2,4.64,3.858,4.64a7.539,7.539,0,0,0,1.918-.673,9.421,9.421,0,0,1,1.937-.7.355.355,0,0,1,.242.1c-.159.311-1.02,1.859-1.783,3.237-.849,1.528-1.65,2.971-1.771,3.216-3.081,5.531-6.228,12.142-6.228,19.228A13.7,13.7,0,0,0,56.425,242.25a18.776,18.776,0,0,0,18.217-14.585c1.766-7.2,1.766-13.782,1.766-21.4a2.13,2.13,0,0,1,.074-.471c.456.658,1.88,3.29,2.762,4.925.547,1.015,1.02,1.89,1.227,2.242,1.517,2.681,4.668,8.265,7.749,8.265a2.957,2.957,0,0,0,2.553-2.947c0-1.374-.694-2.137-4.134-4.54" transform="translate(58.363 265.323)" fill="#fff"/>
    <path id="パス_130507" data-name="パス 130507" d="M62.168,190.018c-1.013,0-2.619.269-2.619.986,0,.09.045.559.915.906a14.993,14.993,0,0,1,5.591,3.658c1.146,1.459,2.07,2.493,3.556,2.493a2.027,2.027,0,0,0,1.9-2.1c0-3.223-4.279-5.947-9.342-5.947" transform="translate(81.999 261.654)" fill="#fff"/>
    <path id="パス_130508" data-name="パス 130508" d="M62.917,198.314c1.666,2.5,2.249,3.29,3.432,3.29,1.31,0,2.227-1.742,2.227-2.686,0-3.207-4.923-6.729-9.408-6.729-.663,0-1.376.226-1.376.723,0,.444.894,1.115.92,1.134a20.467,20.467,0,0,1,4.2,4.269" transform="translate(79.579 264.642)" fill="#fff"/>
    <path id="パス_130509" data-name="パス 130509" d="M131.585,241.462a5.515,5.515,0,0,0-1.063.288,9.117,9.117,0,0,1-1.355.364l-.052.009c-4.024,1.1-8.305,1.3-15.809,1.3-12.629,0-23.062-1.129-24.809-2.691-.91-.787-.91-1.1-.91-9.182,0-2.165.143-2.474,2.28-2.474H94.7c2.327,0,3.73,0,3.73-1.181,0-1.044-3-3.991-4.055-3.991-.4,0-1.029.675-2.113,2-.223.271-.414.506-.5.589-.338.28-.692.411-2.482.411-1.628,0-1.692-.466-1.692-4.107,0-1.07,0-3.915,1.06-4.386l.209-.1c1.084-.511,1.343-.632,1.343-1.127,0-.872-.34-.979-1.966-1.5-1.112-.368-1.234-.673-1.234-.787,0-.064,0-.254.452-.254h8.355c2.284,0,3.663,0,3.663-1.115,0-.8-2.871-3.665-3.922-3.665-.347,0-.9.53-1.942,1.645-.264.285-.494.53-.6.618-.532.414-.744.414-3.337.414-1.959,0-2.016-.2-2.016-7.043,0-1.949,0-2.605,2.085-2.605H94.3c2.406,0,3.73,0,3.73-1.117,0-.991-3.09-3.794-4.186-3.794-.532,0-.7.214-1.8,1.6l-.185.235a2.266,2.266,0,0,1-2.2.906c-2.016,0-2.016-.972-2.016-3.323,0-1.683,0-2.135.582-2.719.951-.813,1.31-1.167,1.31-1.652,0-.6-.587-1.105-1.091-1.36a30.293,30.293,0,0,0-4.92-1.459c-.751,0-1.181.385-1.181,1.053a8.522,8.522,0,0,0,.3,1.326c.069.264.133.5.159.623a28.355,28.355,0,0,1,.385,5.56c0,1.177,0,1.951-1.69,1.951-.532,0-2.139-.1-3.841-.216-1.776-.119-3.611-.24-4.257-.24a.417.417,0,0,0-.461.4c0,.119.055.195.183.359l1.424,1.659.033.045c.19.254.368.492.715.492.383,0,1.521-.076,2.724-.155,1.288-.086,2.617-.173,3.088-.173.6,0,1.866,0,2.085.877.017.112.064.958.064,6.363,0,1.935-.347,2.408-1.757,2.408-2.391,0-6.867-.124-9.4-.259-.147,0-.613-.048-1.065-.09-.525-.052-1.072-.107-1.288-.107s-.461.124-.461.335a.468.468,0,0,0,.166.347c.048.052.112.124.2.235l1.238,1.5a.884.884,0,0,0,.749.473c.067,0,.269-.014.471-.033s.38-.031.456-.031c2.1-.128,5.493-.261,8.735-.261,1.158,0,1.766.264,1.887,1.7.131,2.41.131,6.42.131,19.705,0,.8-.076,1.623-.647,1.623-.872,0-5.282-4.521-5.282-6.715a25.9,25.9,0,0,1,2.075-5.931,4.839,4.839,0,0,1,.715-.666c.694-.58,1-.86,1-1.11,0-1.436-5.629-2.551-5.688-2.551a.959.959,0,0,0-1.048.984c0,.14.031.494.064.868.033.349.067.711.067.832,0,4.041-4.45,19.715-4.954,21.481-.019.055-.059.155-.107.271a3.359,3.359,0,0,0-.292.9.419.419,0,0,0,.461.4c.58,0,3.827-5.793,6-11.5.157-.471.44-.97.658-.97.28,0,.68.594,1,1.079,3.915,6.263,8.039,9.693,13.375,11.12,7.343,1.918,26.09,2.424,34.975,2.424a1.6,1.6,0,0,0,1.752-.967,9.457,9.457,0,0,1,1.593-2.814c.14-.143.5-.444.927-.8,1.716-1.426,2.135-1.835,2.135-2.089a.5.5,0,0,0-.528-.464" transform="translate(95.332 261.917)" fill="#fff"/>
    <path id="パス_130510" data-name="パス 130510" d="M105.721,191.2c-.475,0-.606.188-1.224,1.091l-.124.183a1.939,1.939,0,0,1-1.98.88H94.1c-2.669,0-5.008-.1-7.72-.209l-1.222-.05c-.221,0-.832-.05-1.421-.1-.625-.052-1.217-.1-1.452-.1-.114,0-.464,0-.464.333a.469.469,0,0,0,.124.314c.038.052.09.126.185.278l1.3,1.488a.887.887,0,0,0,.751.475c.1,0,.342-.029.62-.059s.62-.071.768-.071c1.236-.121,2.971-.2,4.421-.2,1.055,0,1.429.357,1.429,1.364,0,1.845-.483,8.381-6.665,15.068-.116.116-.366.357-.67.651-2.325,2.249-2.325,2.294-2.325,2.429a.5.5,0,0,0,.528.466,7.587,7.587,0,0,0,2.268-1.1c.2-.121.38-.226.511-.3,2.5-1.469,9.13-5.37,10.87-15.812.395-2.493.49-2.767,2.018-2.767h4.835c1.348,0,1.818.185,1.818,2.28,0,3.834-1.046,10.143-2,12.051-.92,1.842-2.023,1.911-6.541,1.911-.559,0-.858.34-.858.661,0,.561.273.59,1.431.711l.193.019a3.524,3.524,0,0,1,3.154,1.887c.387,1.032.637,1.569,1.628,1.569,7.15,0,7.514-15.833,7.514-19.006,0-.566,0-1.013.319-1.279,1.141-.941,1.509-1.3,1.509-1.918,0-1.455-4.968-3.142-5.229-3.142" transform="translate(112.578 263.281)" fill="#fff"/>
    <path id="パス_130511" data-name="パス 130511" d="M108.8,207.623c.661-.39,1.274-.844,1.274-1.545,0-1.552-4.16-3.8-4.706-3.8-.288,0-.7.425-1.5,1.374-.15.174-.271.316-.314.364a3.61,3.61,0,0,1-2.165.483H89.834a5.835,5.835,0,0,1-2.914-.566c-.152-.076-.494-.292-.891-.542a9.11,9.11,0,0,0-2.591-1.374.9.9,0,0,0-.858.989c0,.176.064.611.133,1.07.059.409.131.87.131,1.034.195,2.408.195,6.057.195,8.472a62.27,62.27,0,0,1-.193,6.5c-.069.466-.266,2.3-.266,2.707,0,1.174.551,1.771,1.64,1.771a3.123,3.123,0,0,0,3.2-2.325c.178-1.008.554-1.267,1.826-1.267h11.88c1.048,0,1.65.064,1.826,1.4l.019.1a1.924,1.924,0,0,0,2.139,1.826c3.076,0,3.076-2.2,3.076-3.661,0-.1-.012-.946-.031-2.092-.043-2.5-.1-6.29-.1-7.309,0-2.914,0-3.154.751-3.613m-5.4,7.136c0,3.758-.05,4.105-1.823,4.105H89.311c-.456,0-1.3,0-1.64-.723-.109-.288-.181-3.152-.181-7.3,0-3.879.043-4.174,1.821-4.174h12.272c.425,0,1.312,0,1.643.661.109.29.181,3.2.181,7.428" transform="translate(113.711 278.181)" fill="#fff"/>
    <path id="パス_130512" data-name="パス 130512" d="M110.063,200.742a.5.5,0,0,0,.461.528,6.21,6.21,0,0,0,1.7-.7,9.244,9.244,0,0,1,1.055-.482c1.528-.575,1.616-.575,6.194-.575a2.026,2.026,0,0,0,2.03-2.03c0-1.985-2.211-3.489-4.269-4.05-.34-.078-1.253-.257-2.308-.464-1.557-.3-3.5-.685-4.086-.839l-.012,0c-.133-.029-.509-.152-.87-.271a6.212,6.212,0,0,0-1.129-.323.5.5,0,0,0-.461.53c0,.718.775,1.609,2.3,2.646.235.169.461.326.673.475.777.547,1.659,1.165,1.659,1.383A9.614,9.614,0,0,1,111.287,199c-.889,1.07-1.224,1.5-1.224,1.745" transform="translate(149.22 263.735)" fill="#fff"/>
    <path id="パス_130513" data-name="パス 130513" d="M140.644,227.128a52.612,52.612,0,0,0-5.5.846,56.112,56.112,0,0,1-5.99.915c-3.233,0-3.585-2.413-3.585-3.451,0-.316.1-1.224.195-2.1.1-.929.195-1.807.195-2.144a5.1,5.1,0,0,0-4.966-4.968c-.107,0-.411.031-.858.076-.273.029-.521.055-.578.055-.245,0-.454-.086-.454-.176.1-.44,2.933-3.135,4-4.15.354-.338.635-.6.8-.77,5.063-4.676,7.6-7.022,7.6-9.456,0-2.092-2.168-3.794-4.835-3.794a8.509,8.509,0,0,0-2.81.471h0c-5.945,2.246-6.515,2.4-8.676,2.4a10.167,10.167,0,0,1-3.138-.516l-.055-.007c-.064-.009-.425-.107-.718-.188a7.637,7.637,0,0,0-1.115-.269.658.658,0,0,0-.661.725c0,.644,1.864,5.555,5.817,5.555,2.042,0,4.069-1.479,5.42-2.6,1.181-1.013,2.783-2.1,3.523-2.1a.8.8,0,0,1,.908.906c0,1.745-4.863,7.117-10.014,12.8l-.639.706c-10.761,11.742-10.761,12.494-10.761,14.3a2.61,2.61,0,0,0,2.555,2.555c2.306,0,3.392-1.978,5.189-5.253l.083-.14c3.292-6.114,7.343-7.728,9.023-7.728s1.752.207,1.883,5.56l0,.114c.067,4.58,1.219,8.816,9.147,8.816,7.6,0,12.672-.734,12.672-4.317,0-1.678-1.861-2.681-3.663-2.681" transform="translate(142.865 272.659)" fill="#fff"/>
    <path id="パス_130514" data-name="パス 130514" d="M158.005,231.69l-.116-.05c-3.444-1.459-3.7-1.621-3.932-2.479-.166-.606-.975-16.648-.975-18.227,0-1.3.162-1.483.509-1.569.193-.038,2.384-.057,4.447-.057,5.626,0,7.126-1.728,7.126-2.75,0-1.234-2.581-3.073-4.317-3.073a18.036,18.036,0,0,0-3.722,1.364c-.292.126-.528.228-.647.276a10.093,10.093,0,0,1-2.684.513c-.537,0-.58-.019-.58-.841a42.263,42.263,0,0,1,.582-4.457c.04-.157.145-.487.273-.887a14.555,14.555,0,0,0,.711-2.688,7.936,7.936,0,0,0-7.642-5.1c-.656,0-.794.254-.794.466a1.641,1.641,0,0,0,.44.913,7.165,7.165,0,0,1,1.716,3.806c.2,2.325.261,15.978.261,16.109,0,.82.164,3.991.326,7.06s.328,6.23.328,7.038c0,1.431-.342,1.431-1.169,1.431-.207,0-.834-.043-1.5-.088-.773-.052-1.576-.109-1.892-.109-7.932,0-13.913,3.121-13.913,7.257,0,4.029,5.555,7.839,11.431,7.839,2.26,0,7.789-.578,10.3-5.928.856-1.845.939-1.906,1.448-1.906a9.045,9.045,0,0,1,3.611,1.6c2.394,1.566,4.994,3.169,6.118,3.169A2.7,2.7,0,0,0,166.3,237.5c0-2.2-4.217-4.039-8.3-5.814m-15.472.4c3.309,0,6.087.694,6.271,1.3a3.742,3.742,0,0,1-.856,2.227c-.96,1.334-2.964,2.926-7.048,2.926-4.326,0-6.72-1.771-6.72-2.995,0-3.416,8.01-3.454,8.353-3.454" transform="translate(180.168 263.924)" fill="#fff"/>
    <path id="パス_130515" data-name="パス 130515" d="M175.413,197.763c-3.328,0-5.122.77-8.7,2.3-4.034,1.759-4.457,1.942-5.926,1.942a14.666,14.666,0,0,1-1.469-.226,13.871,13.871,0,0,0-1.533-.231c-.349,0-.856.259-.856.725,0,1.034,3.311,5.165,6.209,5.165,1.122,0,1.379-.316,3.064-2.372l.1-.119a12.22,12.22,0,0,1,8.588-3.775c1.923,0,6.394.889,6.394,9.13,0,12.089-8.12,20.359-14.92,25.158-.029.019-2.969,1.935-2.969,2.327,0,.078.029.333.4.333,1.842,0,22.726-6.972,22.726-27.49,0-9.5-5.983-12.869-11.105-12.869" transform="translate(216.095 272.319)" fill="#fff"/>
    <path id="パス_130516" data-name="パス 130516" d="M161.025,202.792a.439.439,0,0,0,.461.463,19.479,19.479,0,0,0,2.253-1.2c4.269-2.363,5.717-3.109,7.8-3.109.212,0,.877.062,1.519.124.723.067,1.469.138,1.747.138.751,0,3.2-.162,3.2-2.225,0-.485-.231-2.158-3.185-3.387-1.348-.606-2.094-.606-5.241-.606a17.766,17.766,0,0,1-2.971-.19l-.007,0c-.554-.074-2.479-.471-4.029-.794-1.7-.352-2.175-.447-2.265-.447-.742,0-.853.33-.853.528,0,.566,3.378,2.665,4.816,3.382,1.255.594,1.255.677,1.255.929,0,.775-2.211,3.459-3.4,4.9-1,1.217-1.105,1.357-1.105,1.5" transform="translate(219.575 263.772)" fill="#fff"/>
    <path id="パス_130517" data-name="パス 130517" d="M185.339,208.667a7.371,7.371,0,0,0-7.449,7.385,7.755,7.755,0,0,0,2,5.163,7.175,7.175,0,0,0,5.379,2.351,7.45,7.45,0,1,0,.067-14.9m.064,12.667a5.289,5.289,0,0,1-5.284-5.282,5.1,5.1,0,0,1,5.153-5.151,5.261,5.261,0,0,1,5.346,5.282,5.2,5.2,0,0,1-5.215,5.151" transform="translate(244.953 287.334)" fill="#fff"/>
  </g>
</svg>
