<svg xmlns="http://www.w3.org/2000/svg" width="334.532" height="30.184" viewBox="0 0 334.532 30.184">
  <path id="パス_130857" data-name="パス 130857" d="M28.072-29.656a2.587,2.587,0,0,1-2.288,1.1H9.064c-1.144,0-1.628-.088-2.068-1.1H5.984c-.484,2.376-1.276,5.28-2.068,7.92H5.28a17.1,17.1,0,0,1,2.2-3.96c.836-.968,1.628-1.32,5.28-1.32h2.2L10.824-5.324C10.164-1.892,9.856-1.5,6.16-1.232L5.852,0H18.216l.264-1.232c-3.96-.264-4.268-.616-3.652-4.092L18.92-27.016h2.6c3.168,0,4.136.264,4.576,1.276a9.869,9.869,0,0,1,.528,4l1.408-.088c.264-2.464.66-5.9,1.056-7.832Zm5.06,1.1-.308,1.232c3.608.308,3.828.572,3.124,4.092L32.516-5.324c-.7,3.52-1.056,3.784-4.576,4.092L27.632,0H48.4c.616-1.408,2.244-5.544,2.728-6.82l-1.276-.44A17.934,17.934,0,0,1,46.86-3.08c-1.188,1.144-2.508,1.5-5.676,1.5-2.376,0-3.652-.088-4.312-.66-.572-.528-.616-1.672-.176-4.092l1.452-7.7h4c3.784,0,3.784.308,3.7,3.476h1.32l1.672-8.448H47.52C46.464-16.1,46.2-15.8,42.5-15.8h-4l1.8-9.416c.308-1.628.44-1.8,1.98-1.8h3.168c3.124,0,3.74.4,4.224,1.408a9.069,9.069,0,0,1,.616,3.916l1.32-.088c.308-2.552.7-5.9.836-6.776Zm41.4,21.12a18.355,18.355,0,0,1-3.124,4.488c-1.1,1.056-2.6,1.364-5.06,1.364-1.936,0-3.256-.088-3.872-.616-.66-.572-.7-1.584-.44-3.168l3.476-18.084c.616-3.3.792-3.564,4.312-3.872l.264-1.232H58.7l-.264,1.232c3.564.308,3.784.528,3.124,3.872L57.992-5.192c-.66,3.344-.968,3.7-4.356,3.96L53.328,0H73c.66-1.408,2.244-5.5,2.816-6.952Zm28.028-20.5c-7.876,0-11.792,10.912-11.968,17.776C90.376-4.62,92.136.528,97.5.528c7.964,0,11.616-11.044,11.836-18.084C109.56-22.7,107.932-27.94,102.564-27.94Zm-.264,1.5c2.728,0,3.168,3.96,2.992,7.524-.22,5.632-2.552,17.952-7.524,17.952-2.728,0-3.3-3.96-3.124-8.008C94.82-15.18,97.24-26.444,102.3-26.444Zm31.152-.968h-16.72a54.452,54.452,0,0,1-1.936,6.336l1.232.4c1.54-2.9,2.068-3.3,4.752-3.3h9.284A223.569,223.569,0,0,1,112.948,0l.264.528L117,.044c5.544-9.02,11.4-18.084,16.764-26.928ZM154.4-28.2a38.614,38.614,0,0,0-5.72,1.32c-8.536,2.684-14.3,9.592-14.3,18.216,0,5.324,3.036,9.2,7.964,9.2a10.32,10.32,0,0,0,9.988-10.472c0-4.532-2.772-7.612-7-7.612a7.28,7.28,0,0,0-2.684.748l-2.728,1.32-.044-.088a17.639,17.639,0,0,1,9.944-9.768A22.984,22.984,0,0,1,154.7-26.8ZM143.308-15.136c3.828,0,4.928,3.08,4.928,5.94,0,4.4-2.024,8.228-5.236,8.228-3.168,0-4.532-3.7-4.532-7.48a14.54,14.54,0,0,1,.88-5.368A8.13,8.13,0,0,1,143.308-15.136ZM167.6-11.22H157.3l-.792,2.552h10.3Zm7.26-10.692.968.924c1.32-1.716,3.3-3.916,6.028-3.916,3.256,0,4.576,2.024,4.576,4.664,0,3.828-3.388,7.612-7.524,11.616-2.9,2.772-5.94,5.368-8.668,7.656L170.148,0h16.544c.792-1.892,1.54-3.74,2.464-5.676L188.012-6.2c-1.716,2.508-2.42,2.772-4.884,2.772h-7.7l6.292-5.5c5.192-4.4,8.8-7.48,8.8-12.056,0-4.268-2.728-6.952-6.952-6.952a8.59,8.59,0,0,0-5.9,2.42Zm22.748-.924.924.968c1.276-1.584,2.9-3.388,5.28-3.388A3.355,3.355,0,0,1,207.46-21.6c0,3.432-3.608,5.412-8.272,6.732l.264,1.232a10.636,10.636,0,0,1,2.508-.352c2.64,0,5.016,1.716,5.016,5.28,0,4.752-2.684,7-6.028,7a7.456,7.456,0,0,1-5.5-2.728.6.6,0,0,0-.924-.044,2.894,2.894,0,0,0-1.276,1.628,2.053,2.053,0,0,0,.924,1.848,6.794,6.794,0,0,0,4.312,1.54A15.112,15.112,0,0,0,206.316-2.2c3.212-2.2,4.884-4.84,4.884-7.744,0-3.256-2.156-5.456-5.192-6.292v-.088a28.23,28.23,0,0,0,3.388-2.244,5.014,5.014,0,0,0,2.068-4c0-2.948-2.244-5.368-5.94-5.368a8.12,8.12,0,0,0-5.764,2.376Zm39.468-4.576h-16.72a54.449,54.449,0,0,1-1.936,6.336l1.232.4c1.54-2.9,2.068-3.3,4.752-3.3h9.284A223.569,223.569,0,0,1,216.568,0l.264.528,3.784-.484c5.544-9.02,11.4-18.084,16.764-26.928ZM249.216-11.22h-10.3l-.792,2.552h10.3Zm25.476-16.192h-16.72a54.455,54.455,0,0,1-1.936,6.336l1.232.4c1.54-2.9,2.068-3.3,4.752-3.3H271.3A223.572,223.572,0,0,1,254.188,0l.264.528,3.784-.484c5.544-9.02,11.4-18.084,16.764-26.928Zm22,0h-16.72a54.449,54.449,0,0,1-1.936,6.336l1.232.4c1.54-2.9,2.068-3.3,4.752-3.3H293.3A223.574,223.574,0,0,1,276.188,0l.264.528,3.784-.484c5.544-9.02,11.4-18.084,16.764-26.928Zm3.784,5.5.968.924c1.32-1.716,3.3-3.916,6.028-3.916,3.256,0,4.576,2.024,4.576,4.664,0,3.828-3.388,7.612-7.524,11.616-2.9,2.772-5.94,5.368-8.668,7.656L295.768,0h16.544c.792-1.892,1.54-3.74,2.464-5.676L313.632-6.2c-1.716,2.508-2.42,2.772-4.884,2.772h-7.7l6.292-5.5c5.192-4.4,8.8-7.48,8.8-12.056,0-4.268-2.728-6.952-6.952-6.952a8.59,8.59,0,0,0-5.9,2.42Zm37.972-5.5H325.776l-3.608,12.936.308.4a12.7,12.7,0,0,1,3.916-.7c4.224,0,6.16,2.508,6.16,6.16,0,4.444-2.376,6.908-5.9,6.908a7.817,7.817,0,0,1-5.676-2.728.7.7,0,0,0-.968-.132A2.763,2.763,0,0,0,318.736-2.9a1.98,1.98,0,0,0,.748,1.716,7.343,7.343,0,0,0,4.84,1.716A13.793,13.793,0,0,0,331.1-1.628c3.52-2.156,5.588-5.236,5.588-8.58,0-3.74-2.816-7-7.656-7a18.175,18.175,0,0,0-4.62,1.056l2.42-7.832h10.252Z" transform="translate(-3.916 29.656)" fill="#fff"/>
</svg>
