<svg xmlns="http://www.w3.org/2000/svg" width="110.483" height="15.813" viewBox="0 0 110.483 15.813">
  <path id="パス_130497" data-name="パス 130497" d="M13.532-9.486A2.174,2.174,0,0,0,11.7-8.415c0,.051.017.068.068.068a.38.38,0,0,0,.17-.051,1.476,1.476,0,0,1,.663-.17c.578,0,1.428.238,1.428.918a.9.9,0,0,1-.068.306,1.171,1.171,0,0,0-.051.136.079.079,0,0,0,.085.085c.068,0,.425-.1.51-.119.085,0,.476.034.578.034.357,0,.561-.459.561-.816C15.64-8.806,14.841-9.486,13.532-9.486ZM7.293-9.979c-.034.017-.068.051-.068.068,0,.034.085.2.085.238,0,.238-.476.425-.595.425-.1,0-.136-.119-.136-.187a9.081,9.081,0,0,1,.17-1.1,6.852,6.852,0,0,0,.357-.884A1.7,1.7,0,0,0,5.355-12.58c-.1,0-.374.034-.374.187a1.7,1.7,0,0,0,.238.272,1.669,1.669,0,0,1,.561,1.36,12.713,12.713,0,0,1-.17,1.853,7.426,7.426,0,0,1-2.159.51,4.939,4.939,0,0,1-.782-.085c-.051,0-.255-.068-.306-.068a.12.12,0,0,0-.136.119c0,.119.646,1.292,1.224,1.292a3.646,3.646,0,0,0,1.207-.323,3.976,3.976,0,0,1,.782-.153c.187,0,.238.255.238.374.017.289.034,1.734.034,2.125,0,.476-.1.527-.969.952a3.634,3.634,0,0,1-1.768.578c-.1,0-.595-.085-.7-.085-.306,0-.493.357-.493.663,0,.561.867,1.071,1.054,1.071a3.358,3.358,0,0,0,.646-.34,1.417,1.417,0,0,1,.425-.1c.221,0,.306,0,.85,1.054.136.272.323.629.782.629.612,0,.867-1.122.867-1.9,0-.17-.051-.935-.051-1.122,0-.289.1-.34,1.054-.85a8.683,8.683,0,0,1,3.519-1.275,1.761,1.761,0,0,1,1.632,1.87c0,1.36-1.428,2.108-2.55,2.108-.17,0-1.1,0-1.1-.816a.7.7,0,0,1,.153-.459c.034-.051.068-.085.068-.136a.091.091,0,0,0-.085-.085,1.515,1.515,0,0,0-.85,1.343c0,.884.782,1.377,1.751,1.377,1.394,0,3.757-1.02,3.757-3.264a2.6,2.6,0,0,0-2.618-2.567,7.989,7.989,0,0,0-2.89.68c-.272.1-1.666.68-1.717.68-.153,0-.153-.2-.153-.306,0-.085,0-1.462.034-1.836.034-.6.051-.663.289-.748.408-.17,1.7-.68,1.7-1.241C8.347-9.775,7.531-10.013,7.293-9.979ZM5.61-3.519c.051.034.051.2.051.272,0,.833-.238,1.309-.476,1.309-.255,0-.714-.544-.714-.8C4.471-2.975,5.559-3.519,5.61-3.519Zm19.567-7.038c.255,0,.425,0,.459.238v1.173c0,.374-.17.374-.459.374H22.916c-.255,0-.408,0-.459-.255v-1.156c0-.374.17-.374.459-.374Zm5.134-2.55a1.088,1.088,0,0,1-.476-.119,2.236,2.236,0,0,0-.816-.306c-.153,0-.187.187-.187.272,0,.289.085,1.564.085,1.819,0,.527-.017,3.213-.017,3.349.017.51.289.544.425.544a.78.78,0,0,0,.782-.544c.068-.238.272-.238.51-.238H32.81c.374,0,.561,0,.561.493,0,.952-.034,5.151-.034,6,0,1.258,0,1.394-.7,1.394-.17,0-.85-.034-1-.034-.119,0-.187.034-.187.085,0,.085.9.527,1.054.68a.9.9,0,0,1,.238.68c0,.085.136.153.221.153A2.349,2.349,0,0,0,34.034.578a2.052,2.052,0,0,0,.425-1.6c0-.493-.034-2.686-.034-3.128v-7.769a.7.7,0,0,1,.272-.646c.1-.085.2-.187.2-.289,0-.306-.986-.867-1.122-.867-.119,0-.153.051-.493.442a.4.4,0,0,1-.408.17Zm-7.531,0a.81.81,0,0,1-.493-.119,2.328,2.328,0,0,0-.952-.391c-.068,0-.068.1-.068.17,0,.153.136,1.717.136,2.04,0,5.27-.017,5.916-.187,11.713,0,.051-.017.221-.017.306,0,.408.153.578.442.578A.974.974,0,0,0,22.559.085c0-.187-.051-1.037-.051-1.207-.034-1.241-.051-5.134-.051-6.035,0-1.054,0-1.173.544-1.173h2.057c.221,0,.476,0,.527.238s.1.51.476.51c.8,0,.8-.884.8-1.1,0-.238-.068-2.363-.068-2.788,0-.612,0-.663.119-.782.051-.051.391-.255.391-.323,0-.306-.85-1.054-1.122-1.054-.136,0-.238.1-.527.357a.468.468,0,0,1-.425.17Zm2.431.442c.374,0,.442.051.442.442v.986c-.034.221-.221.238-.442.238H22.9c-.289,0-.442-.017-.442-.374v-.952c0-.323.153-.34.442-.34ZM30.532-11c-.272,0-.408,0-.459-.17a4.155,4.155,0,0,1-.034-1c0-.476.085-.493.493-.493h2.346c.272,0,.408,0,.459.153a4.381,4.381,0,0,1,.034,1.02c0,.476-.1.493-.493.493Zm0,2.21c-.34,0-.476,0-.476-.374v-1c0-.391.136-.391.476-.391H32.9c.34,0,.476,0,.476.391v1c0,.374-.136.374-.476.374Zm-4,3.128a1.039,1.039,0,0,1-.561-.153c-.85-.391-.9-.391-1-.391-.068,0-.085.068-.085.136,0,.051.051.425.068.527.051.459.034,1.462.034,1.887,0,.68-.034,1.139-.068,1.87-.017.153-.034.612-.034.731,0,.374.085.629.391.629a.984.984,0,0,0,.884-.85c.034-.476.034-.561.544-.561h2.159c.289,0,.544,0,.544.408,0,.2.068.476.34.476a1.27,1.27,0,0,0,.748-.442c.136-.17.153-.374.153-.8,0-.391-.034-2.091-.017-2.431a.474.474,0,0,1,.136-.323c.153-.153.255-.238.255-.34,0-.34-.85-.952-1.037-.952-.17,0-.238.1-.476.408a.441.441,0,0,1-.425.17ZM26.724-2.3c-.357,0-.595-.034-.595-.323V-4.675c0-.476.1-.527.595-.527H28.9c.272,0,.476,0,.561.2.034.1.051,1.207.051,1.411A7.3,7.3,0,0,1,29.461-2.5c-.068.2-.306.2-.561.2Zm15.215-8.874c-.034,0-.1.017-.1.068a2.3,2.3,0,0,0,.136.578,4.723,4.723,0,0,1,.119.986c0,.442-.238,2.533-.238,3.009C41.854-3.281,44-1.5,45.084-1.5c.289,0,.646-.187.646-.527a4.264,4.264,0,0,0-.136-.561,2.294,2.294,0,0,1-.1-.68,4.77,4.77,0,0,1,.221-1.292,2.039,2.039,0,0,0,.051-.34c0-.068-.034-.136-.085-.136-.136,0-.425.408-.527.578-.51.85-.578.935-.867.935-.527,0-1.411-1.241-1.411-2.958a6,6,0,0,1,.408-2.193,2.329,2.329,0,0,0,.2-.68C43.486-9.809,42.721-11.169,41.939-11.169ZM50.048-9.6c-.085,0-.153.034-.153.085,0,.1.68.629.816.765.9.9.9,1.615.9,3.026,0,.221,0,1.139.833,1.139.816,0,.85-.8.85-1.122a4.231,4.231,0,0,0-1.513-3.247A3.309,3.309,0,0,0,50.048-9.6ZM63.682-4.811a1.545,1.545,0,0,1-.7-.1,8.673,8.673,0,0,0-1.02-.459c-.153,0-.153.136-.153.187,0,.068.085.459.085.527.051.306.034,1.292.034,1.649,0,.612-.153,3.74-.153,3.842a.4.4,0,0,0,.442.442,1.57,1.57,0,0,0,.9-.34c.119-.119.119-.17.119-.629s.34-.459.51-.459h5.134c.442,0,.442.187.442.9,0,.119,0,.442.374.442.238,0,1.088-.221,1.088-.68,0-.476-.1-2.839-.1-3.366,0-.255.017-1.02.187-1.173s.221-.2.221-.357c0-.289-1-1.071-1.105-1.071-.119,0-.561.493-.663.578a.732.732,0,0,1-.374.068ZM63.733-.6c-.493,0-.51-.306-.51-.527,0-.391.017-2.3.017-2.72,0-.255.034-.527.527-.527h5.168c.476,0,.476.323.476.527,0,.391-.017,2.3-.017,2.72,0,.2,0,.527-.493.527Zm1.734-13.94c-.051.034-.323.935-.408,1.1a21.852,21.852,0,0,1-4.148,5.7c-.306.306-1.955,1.768-1.955,1.853,0,.051.051.1.136.1.442,0,4.335-2.55,7.14-6.613.34-.493.374-.544.459-.544s.34.544.442.765a12.938,12.938,0,0,0,3.2,4.488,6.822,6.822,0,0,0,2.465,1.87c.068,0,.153-.085.221-.153a2.2,2.2,0,0,1,1.071-.476c.527-.119.6-.136.6-.289,0-.119,0-.119-.544-.323a13.983,13.983,0,0,1-4.284-2.618,11.98,11.98,0,0,1-2.652-3.57.155.155,0,0,1,.068-.136c.136-.1.187-.119.187-.221a.13.13,0,0,0-.034-.085A7.759,7.759,0,0,0,65.467-14.535Zm.374,7.072c-.8,0-1.513,0-2.346-.051-.1,0-.629-.068-.748-.068-.034,0-.051.017-.051.034,0,.034,0,.051.068.119l.323.391c.068.068.1.1.153.1s.306-.034.357-.034c.493-.034.952-.051,2.159-.051h3.2c.51,0,.918,0,.918-.2a6.471,6.471,0,0,0-1.547-1.224c-.153,0-.68.714-.816.833-.187.153-.391.153-1,.153Zm18.343-2.873c0-.187.051-.714.085-.986.034-.221.255-1.292.255-1.547,0-.561-1.156-1.258-1.615-1.258-.17,0-.578.085-.578.221,0,.068.034.1.323.442a3.217,3.217,0,0,1,.68,2.4,5.6,5.6,0,0,1-.153,1.445,5.663,5.663,0,0,1-.442.408C81.6-8.16,81.5-8.143,81.209-8.092c-.7.1-1.156.17-1.156.748,0,.306.051.374.6,1.054a2.978,2.978,0,0,1,.663,1.309,12.854,12.854,0,0,1-.85,1.649c-.425.714-.51.867-.51,1.156,0,.34.2.476.408.476.612,0,.969-.7,1.224-1.19.136-.272.357-.7.442-.7.408,0,.51,1.615.544,1.972.068,1.037.119,1.649.6,1.649a1.037,1.037,0,0,0,.748-.986c0-.1-.068-.663-.085-.8-.068-.9-.085-3.06-.085-3.434,0-1.156.1-1.445.323-1.7a6.861,6.861,0,0,1,4.454-1.751A2.458,2.458,0,0,1,91.086-6c0,2.533-2.465,4.4-3.315,4.981-.187.136-1.258.731-1.258.782,0,.034.034.034.068.034.391,0,5.831-1.326,5.831-5.406a3.514,3.514,0,0,0-3.859-3.57,7.07,7.07,0,0,0-3.434.986,3.4,3.4,0,0,1-.493.255.078.078,0,0,1-.068-.085.944.944,0,0,1,.119-.323,1.867,1.867,0,0,0,.238-.816c0-.119,0-.391-.442-.663C84.2-10,84.184-10.013,84.184-10.336ZM83.045-8.4c.068.017.068.1.068.238,0,.612,0,.646-1.054,2.193-.187.272-.238.357-.34.357-.187,0-.8-1.088-.8-1.326,0-.221.17-.238.714-.272a1.016,1.016,0,0,0,.731-.6C82.654-8.3,82.943-8.415,83.045-8.4Zm-.119,2.992c.051,0,.085.034.085.1,0,.782,0,1.7-.2,1.7-.153,0-.493-.442-.493-.663A2.605,2.605,0,0,1,82.926-5.406Zm25.942-6a1.376,1.376,0,0,0-1.445-1.19c-.085,0-.374.017-.374.187,0,.034.306.612.323.629a2.505,2.505,0,0,1,.2,1.173c0,.221-.034,1.037-.085,1.377-.068.357-.187.374-1.241.544-.442.068-2.584.544-2.7.544-.221,0-.221-.136-.221-.493a9.38,9.38,0,0,1,.085-1.309,3.477,3.477,0,0,0,.085-.527c0-.6-1.054-1.071-1.462-1.071-.2,0-.493.085-.493.238,0,.068.34.663.391.8a4.144,4.144,0,0,1,.272,1.785c0,.629-.017.782-.289.867a7.963,7.963,0,0,1-2.159.238c-.153,0-.867-.068-1.037-.068-.153,0-.221.017-.221.238,0,.935,1.377,1.258,1.751,1.258.255,0,1.428-.527,1.717-.527.306,0,.306.17.306,1.6,0,3.23,0,4.59,4.862,4.59.391,0,1.938,0,1.938-.8a.885.885,0,0,0-.918-.731,5.365,5.365,0,0,0-.816.119,7.657,7.657,0,0,1-1.5.136c-2.38,0-2.686-.8-2.686-2.4,0-.051.034-1.6.051-2.159a1.367,1.367,0,0,1,.153-.7c.221-.374,3.3-1.054,3.655-1.054.255,0,.255.085.255.221a7.551,7.551,0,0,1-.493,1.938.612.612,0,0,1-.578.442c-.153,0-.918-.306-1.105-.306-.034,0-.085,0-.085.034a2.036,2.036,0,0,0,.221.357,6.175,6.175,0,0,1,.323.748c.153.493.221.68.8.68.612,0,1.53-.867,1.853-3.383.1-.884.119-.918,1.1-.918.306,0,1.785.187,2.125.187s.833-.119.833-.561c0-.34-.255-.612-1.326-.918a9.157,9.157,0,0,0-1.224-.306c-.034,0-.136,0-.136.068a.14.14,0,0,0,.068.1c.306.289.34.323.34.425,0,.187-.153.2-.527.238-.136,0-.731.068-.8.068-.051,0-.187,0-.187-.085,0-.1.017-.221.136-1.36C108.63-10.591,108.868-11.373,108.868-11.407Z" transform="translate(-1.785 14.538)" fill="#fff"/>
</svg>
