<svg xmlns="http://www.w3.org/2000/svg" width="173.809" height="26.282" viewBox="0 0 173.809 26.282">
  <path id="パス_130496" data-name="パス 130496" d="M22.192-6.726C19.95-3.268,17.67-.8,14.022-.8,9.2-.8,6.536-4.978,6.536-10.45c0-7.106,4.522-13.414,10.982-13.414,3.61,0,5.586,1.292,5.89,5.852l1.178-.114c.152-1.9.228-3.99.3-5.928a18.67,18.67,0,0,0-6.536-1.216C9.576-25.27,2.47-19.418,2.47-10.336,2.47-3.268,7.258.57,13.642.57a27.382,27.382,0,0,0,6.574-.95,46.329,46.329,0,0,0,3-5.814ZM41.61-25.27c-7.98,0-13.87,7.106-13.87,15.048C27.74-3.762,31.882.57,37.886.57c8.132,0,13.908-6.84,13.908-14.934C51.794-20.748,47.728-25.27,41.61-25.27ZM41.344-23.9c4.712,0,6.46,4.028,6.46,9.044C47.8-8.55,44.27-.8,38.19-.8c-4.484,0-6.5-3.914-6.5-8.968C31.692-16.53,35.606-23.9,41.344-23.9Zm40.318-.76H73.036l-.3,1.064c2.774.152,3.458.57,3.306,2.356a58.781,58.781,0,0,1-.988,6.5L73.34-5.662h-.114l-10.982-19H56.506L56.24-23.6c2.014.114,2.736.342,3.192,1.14.456.836.608,1.444.19,3.534l-1.9,9.044c-.76,3.534-1.178,5.244-1.6,6.536-.494,1.672-1.368,2.166-3.344,2.28L52.516,0h8.816l.228-1.064c-2.66-.19-3.344-.608-3.23-2.356A48.973,48.973,0,0,1,59.28-9.8l1.938-9.88h.114L72.5.3H73.8l2.85-15.048a64.517,64.517,0,0,1,1.482-6.46c.494-1.672.988-2.28,3.306-2.394Zm22.648-.95a2.234,2.234,0,0,1-1.976.95H87.894c-.988,0-1.406-.076-1.786-.95h-.874c-.418,2.052-1.1,4.56-1.786,6.84h1.178a14.767,14.767,0,0,1,1.9-3.42c.722-.836,1.406-1.14,4.56-1.14h1.9L89.414-4.6c-.57,2.964-.836,3.306-4.028,3.534L85.12,0H95.8l.228-1.064C92.606-1.292,92.34-1.6,92.872-4.6l3.534-18.734h2.242c2.736,0,3.572.228,3.952,1.1a8.523,8.523,0,0,1,.456,3.458l1.216-.076c.228-2.128.57-5.092.912-6.764ZM125.02-1.064c-2.66-.3-2.888-.608-3.382-3.458-.836-4.636-1.672-9.462-2.47-14.4l-.988-6.308-1.33.342L105.526-4.864c-1.824,3.268-2.242,3.458-4.56,3.8L100.662,0h8.246l.266-1.064c-2.926-.266-3.154-.57-2.09-2.736.8-1.71,1.862-3.762,2.546-5.016h7.828c.342,2.09.646,3.838.874,5.4.228,1.672.076,2.09-2.508,2.356L115.52,0h9.234Zm-7.828-9.424h-6.726c1.634-3.154,3.382-6.232,5.168-9.576h.076Zm31.046,3.762C146-3.268,143.716-.8,140.068-.8c-4.826,0-7.486-4.18-7.486-9.652,0-7.106,4.522-13.414,10.982-13.414,3.61,0,5.586,1.292,5.89,5.852l1.178-.114c.152-1.9.228-3.99.3-5.928A18.67,18.67,0,0,0,144.4-25.27c-8.778,0-15.884,5.852-15.884,14.934C128.516-3.268,133.3.57,139.688.57a27.382,27.382,0,0,0,6.574-.95,46.329,46.329,0,0,0,3-5.814Zm27.056-18.886a2.234,2.234,0,0,1-1.976.95h-14.44c-.988,0-1.406-.076-1.786-.95h-.874c-.418,2.052-1.1,4.56-1.786,6.84h1.178a14.767,14.767,0,0,1,1.9-3.42c.722-.836,1.406-1.14,4.56-1.14h1.9L160.4-4.6c-.57,2.964-.836,3.306-4.028,3.534L156.1,0h10.678l.228-1.064c-3.42-.228-3.686-.532-3.154-3.534l3.534-18.734h2.242c2.736,0,3.572.228,3.952,1.1a8.523,8.523,0,0,1,.456,3.458l1.216-.076c.228-2.128.57-5.092.912-6.764Z" transform="translate(-2.42 25.662)" fill="#fff" stroke="#fff" stroke-width="0.1"/>
</svg>
