<svg xmlns="http://www.w3.org/2000/svg" width="126.544" height="14.624" viewBox="0 0 126.544 14.624">
  <path id="パス_130459" data-name="パス 130459" d="M-54.224-8.64c-.112,0-.32.016-.4-.112a27.844,27.844,0,0,1-.224-3.168.578.578,0,0,1,.064-.336,2.274,2.274,0,0,0,.336-.528c0-.4-1.648-.592-1.68-.592-.048,0-.128,0-.128.064,0,.1.16.544.176.64.08.48.368,3.888.368,3.9,0,.24-.048.24-.4.288l-.48.064h-.16c-.1,0-1.712.1-2.048.1-.112,0-.64-.032-.688-.032-.032,0-.064.016-.064.048,0,.016.016.032.08.1l.32.368c.064.064.08.1.144.1.08,0,.672-.1.8-.112.224-.032,1.312-.112,1.552-.144l.576-.064c.416-.048.464.224.5.544.752,6.1,3.536,8.7,5.568,8.7.24,0,.656-.08.656-.416A1,1,0,0,0-49.52.32a1.416,1.416,0,0,1-.224-.752c0-.24.224-1.5.224-1.552,0-.064-.032-.112-.08-.112-.064,0-.208.288-.256.368-.288.544-.672,1.216-1.008,1.216a1.277,1.277,0,0,1-.416-.144c-.576-.272-1.84-1.248-2.7-4.176a17.062,17.062,0,0,1-.592-3.024c0-.336.144-.352.416-.368l4.4-.272c.768-.048.848-.064.848-.256,0-.208-1.424-1.008-1.52-1.008-.16,0-.208.064-.64.608-.192.256-.272.256-1.008.32Zm-7.04,1.408c.08.016.1.208.1.272,0,1.9-.016,3.648-.08,5.552,0,.272-.1,1.52-.1,1.76,0,.32,0,.832.512.832.128,0,.752-.112.752-.7,0-1.1-.08-6.016-.08-7.008A6.454,6.454,0,0,1-60.1-7.776c.016-.08.192-.4.192-.48s-.032-.1-.256-.224c-.048-.032-.144-.1-.144-.176a4.149,4.149,0,0,1,.384-.7c.464-.784.9-1.568,1.312-2.368a1.014,1.014,0,0,1,.448-.512c.144-.08.224-.128.224-.224,0-.24-1.44-.944-1.52-.944-.128,0-.16.16-.192.48a33.15,33.15,0,0,1-3.392,7.3c-.176.288-.192.32-.192.384,0,.048.016.128.112.128C-62.768-5.12-61.408-7.264-61.264-7.232Zm8.352-4.96c-.32,0-.464.016-.464.128,0,.064.112.144.192.208a2.763,2.763,0,0,1,.64.784c.4.656.544.912.928.912a.609.609,0,0,0,.56-.64,1.408,1.408,0,0,0-.832-1.136A3,3,0,0,0-52.912-12.192Zm13.584,5.936c.192,0,.384.08.384.288a18.714,18.714,0,0,1-4.72,4.48,3.812,3.812,0,0,0-.576.448c0,.048.032.1.112.1a16.559,16.559,0,0,0,3.424-2,.661.661,0,0,1,.368-.176c.224,0,.224.112.224,1.152,0,.864,0,.944-.176,1.136a5.929,5.929,0,0,1-2.08.48c-.384.048-.416.048-.416.1,0,.08.736,1.392.976,1.392.048,0,.08-.016.24-.192.208-.24.88-.5,4.736-2.048.24-.1,1.6-.656,1.728-.656a.454.454,0,0,1,.384.176,10.25,10.25,0,0,0,2.9,2.16.244.244,0,0,0,.176-.1,1.483,1.483,0,0,1,.96-.672c.16-.048.368-.112.368-.192,0-.064-.048-.08-.112-.1-.112-.032-.176-.064-.88-.3-1.664-.576-3.232-1.744-3.232-2.032a.274.274,0,0,1,.112-.208,16.155,16.155,0,0,1,2.4-1.328c.112-.048.864-.16.864-.3s-.128-.224-.448-.432a9.028,9.028,0,0,0-1.072-.624c-.1,0-.128.08-.144.176A4.6,4.6,0,0,1-34.864-3.28c-.224,0-.352-.224-.8-.944a6.886,6.886,0,0,1-.8-1.664.37.37,0,0,1,.416-.368h4.976c.544,0,.864,0,.864-.224,0-.208-1.392-1.056-1.5-1.056-.144,0-.192.064-.64.592-.224.272-.3.272-1.024.272H-36.5c-.512,0-.512-.128-.512-1.232,0-.576,0-.768.512-.768h3.136c.528,0,.848,0,.848-.224,0-.208-1.392-1.056-1.488-1.056-.144,0-.192.048-.64.576-.24.272-.32.272-1.024.272h-.848a.449.449,0,0,1-.48-.256c-.032-.064-.032-.928-.032-1.072,0-.432.3-.432.5-.432h4.448c.528,0,.848,0,.848-.224,0-.208-1.392-1.056-1.488-1.056-.144,0-.208.048-.656.592-.224.256-.3.256-1.008.256h-2.1c-.176,0-.512,0-.512-.4a2.088,2.088,0,0,1,.08-.64c.032-.064.272-.288.272-.368,0-.272-1.424-.56-1.472-.56-.1,0-.128.032-.128.112,0,.208.08,1.216.08,1.44,0,.32-.192.416-.464.416h-1.792c-.752,0-1.408-.016-2.192-.048-.1,0-.592-.064-.7-.064-.032,0-.064.016-.064.048,0,.016.016.032.08.1l.3.368c.048.064.08.112.144.112a2.427,2.427,0,0,0,.336-.048c.16,0,.608-.032,2.016-.032h1.9c.48,0,.48.176.48,1.28,0,.48-.32.48-.5.48h-1.056c-.752,0-1.408,0-2.192-.048-.1,0-.592-.064-.7-.064a.042.042,0,0,0-.048.048c0,.016.016.048.064.1l.3.368c.064.064.08.112.144.112a2.427,2.427,0,0,0,.336-.048c.16,0,.624-.032,2.016-.032h1.12c.5,0,.5.224.5.688,0,1.168,0,1.312-.5,1.312h-2.992c-.752,0-1.408-.032-2.192-.064-.1,0-.592-.048-.7-.048-.032,0-.064,0-.064.032s.016.032.08.112l.3.368c.048.064.08.1.144.1.048,0,.288-.032.336-.032.16-.016.624-.048,2.016-.048ZM-35.3-2.288c0,.32-.384.432-.832.56-.176.048-2.224.608-2.416.608a.467.467,0,0,1-.432-.24c-.032-.08-.032-1.28-.032-1.488,0-1.44.048-1.488.432-1.84.1-.1.912-.96,1.376-1.424.048-.048.064-.08.128-.08.128,0,.16.1.192.272a11.137,11.137,0,0,0,1.36,3.1C-35.36-2.544-35.3-2.432-35.3-2.288Zm9.568-9.52c.048.064.08.1.144.1.112,0,.928-.064,1.072-.064.432,0,.416.336.432.5,0,.112.016,1.248.016,1.616,0,.608-.016,5.632-.08,5.952-.064.272-.224.592-1.424.608-.576.016-.64.016-.64.144,0,.256.64,1.616.832,1.616.144,0,.688-.56.832-.656a22.063,22.063,0,0,1,3.632-1.408c.368,0,.368.128.368,1.3,0,.768-.032,1.36-.064,1.936,0,.112-.048.672-.048.8,0,.192,0,.5.432.5.816,0,.816-.976.816-1.184,0-.192-.048-1.136-.048-1.344-.016-.624-.016-.96-.016-4.1,0-.816.048-4.848.048-5.76,0-.3.048-.528.48-.528h.816c.512,0,.848,0,.848-.208a2.959,2.959,0,0,0-1.2-.944c-.144,0-.176.032-.432.4-.256.336-.3.336-.544.336h-3.7c-.752,0-1.408-.016-2.192-.064-.112,0-.592-.048-.7-.048-.032,0-.064.016-.064.032,0,.032.032.064.064.112Zm3.136,5.3c-.256,0-.432-.08-.432-.576,0-1.824,0-1.856.464-1.856h1.648c.432,0,.432.208.432.96,0,1.392,0,1.472-.512,1.472Zm1.616-5.28c.448,0,.5.192.5.928,0,1.424,0,1.488-.432,1.488h-1.664c-.448,0-.448-.208-.448-.88,0-1.456,0-1.536.48-1.536Zm-.016,5.7c.464,0,.48.256.48.64,0,1.28-.08,1.44-.384,1.584a6.337,6.337,0,0,1-1.616.336c-.528,0-.528-.24-.528-1.728,0-.576,0-.832.448-.832Zm2.848-4.864c.048.064.08.112.144.112.032,0,.224-.032.256-.032.24,0,.384.08.5.768.144.784.288,2.048.448,2.832.1.48.912,2.688.912,2.96,0,.88-1.984,3.216-2.176,3.44C-18.24-.7-19.152.16-19.152.224a.134.134,0,0,0,.144.144c.048,0,1.36-.5,3.312-2.976.368-.464.4-.512.512-.512.128,0,.24.192.416.464.4.672,1.712,2.784,2.08,2.784.064,0,.128-.064.192-.128a1.8,1.8,0,0,1,.544-.368c.16-.064.992-.128.992-.224,0-.048-.8-.56-.944-.672-1.408-1.04-2.528-2.592-2.528-3.072a1.754,1.754,0,0,1,.24-.7,20.6,20.6,0,0,0,1.6-4.5,2.894,2.894,0,0,1,.56-1.248c.192-.144.224-.16.224-.272,0-.288-1.168-.9-1.344-.9-.1,0-.144.032-.256.16a.928.928,0,0,1-.832.416h-1.328c-.448,0-.88,0-2.192-.064-.1,0-.592-.048-.7-.048-.032,0-.064,0-.064.032s.016.032.08.112Zm3.664.032c.288,0,.752,0,.752.48,0,1.008-1.136,4.848-1.5,4.848-.432,0-1.7-3.744-1.7-4.8,0-.528.144-.528,1.344-.528ZM-2.72-6.112c.064.032.1.1.176.288.048.1.192.416.512.416.16,0,.448-.16.448-.656,0-1.168-1.712-2.192-1.792-2.192-.048,0-.048.048-.048.064a11.874,11.874,0,0,1,.5,1.376c0,.08-.048.144-.176.16-.192.032-1.1.032-1.376.032-.112,0-.336,0-.336-.144,0-.1,1.136-1.6,1.344-1.9.88-1.28.976-1.424,1.1-1.5a3.173,3.173,0,0,0,.32-.176c.032-.032.032-.128.032-.16,0-.32-1.168-.976-1.248-.976-.1,0-.1.064-.144.544a19.652,19.652,0,0,1-1.9,4.016.482.482,0,0,1-.48.288,6.513,6.513,0,0,1-.976-.08A3.853,3.853,0,0,0-7.3-6.96c-.112,0-.112.112-.112.144s.224,1.584.528,1.584c.08,0,.384-.256.448-.288.032,0,1.488-.272,1.568-.272.224,0,.256.176.256.368,0,1.36-.016,3.184-.1,4.512C-4.72-.656-4.816.512-4.816.64a.6.6,0,0,0,.56.544.748.748,0,0,0,.7-.816c0-.128-.032-.7-.032-.816C-3.616-1.264-3.616-3.056-3.616-4c0-1.7,0-1.872.176-2a1.684,1.684,0,0,1,.592-.144A.215.215,0,0,1-2.72-6.112ZM3.744-4.8c-.192,0-.5,0-.5-.384a4.606,4.606,0,0,1,.08-1.2,2.287,2.287,0,0,0,.3-.416c0-.352-1.232-.592-1.392-.592-.064,0-.192.016-.192.112,0,.048.16.592.176.7a10.226,10.226,0,0,1,.048,1.088c0,.5-.032.688-.5.688H1.024a1.006,1.006,0,0,1-.64-.16,2.776,2.776,0,0,0-.928-.432c-.08,0-.128.032-.128.112,0,.112.1.56.112.656A4.938,4.938,0,0,1-.5-3.7c0,.592-.048,1.616-.08,2.208C-.592-1.36-.688-.16-.688-.128c0,.16,0,.4.432.4C.512.272.512-.352.512-.64c0-1.216,0-3.376.016-3.424.048-.256.208-.32.48-.32h.768c.416,0,.5.224.5.576,0,.848-.016,1.744-.032,2.608,0,.288-.064,1.536-.064,1.792,0,.3.048.576.576.576A.616.616,0,0,0,3.376.48c0-.224-.08-1.232-.08-1.44-.032-.9-.048-1.856-.048-2.752,0-.368,0-.672.5-.672H4.88c.528,0,.528.1.528,1.648,0,.64,0,1.6-.208,1.776-.24.208-.432.208-1.3.208-.048,0-.128,0-.128.08,0,.048.608.48.72.592.064.064.272.416.336.48a.293.293,0,0,0,.24.1,1.5,1.5,0,0,0,.96-.5c.288-.288.336-.7.336-1.728,0-.24-.048-1.312-.048-1.52,0-.432.064-.544.16-.608.3-.208.4-.288.4-.4,0-.3-1.168-.992-1.3-.992-.112,0-.16.048-.352.272C5.088-4.8,4.944-4.8,4.7-4.8ZM5.12-7.472c.192,0,.464,0,.464.4,0,.128-.08.9-.08.944s.016.08.064.08c.064,0,.128-.1.176-.16A2.38,2.38,0,0,1,6.768-7.216c.4-.16.512-.208.512-.352,0-.336-1.168-.88-1.28-.88-.144,0-.16.048-.3.3-.064.128-.176.24-.528.24h-.88c-.08,0-.208,0-.208-.1A14.246,14.246,0,0,1,5.36-9.68c.08-.1.544-.432.544-.512,0-.208-.144-.288-.384-.416-.144-.08-.3-.16-.3-.24s.1-.08.192-.08H6.64c.5,0,.752,0,.752-.224,0-.24-1.168-1.2-1.344-1.2-.16,0-.608.736-.736.864-.16.144-.24.144-.976.144H3.792c-.384,0-.48-.112-.48-.544a2.007,2.007,0,0,1,.048-.672c.032-.064.352-.288.352-.368,0-.288-1.12-.48-1.44-.48-.176,0-.288.016-.288.16,0,.016.1.368.112.416a4.782,4.782,0,0,1,.128.96c0,.224-.048.528-.464.528H1.28c-.752,0-1.408-.016-2.192-.064-.112,0-.592-.048-.7-.048-.048,0-.064.016-.064.032,0,.032,0,.048.064.112l.32.368c.048.064.08.1.144.1.112,0,1.04-.064,1.216-.064.368,0,.48.16.8,1.744.208,1.008.24,1.12.5,1.12A.786.786,0,0,0,2-8.9c0-.224-.016-.512-.864-1.488a1.315,1.315,0,0,1-.3-.416c0-.128.128-.128.368-.128H4.032c.208,0,.384.048.384.368a7.258,7.258,0,0,1-.624,2.224c-.176.4-.272.432-.624.432H.16c-.352,0-.416-.1-.48-.32-.192-.672-.224-.752-.288-.752-.048,0-.4,1.216-.5,1.44a4.369,4.369,0,0,0-.4.88.54.54,0,0,0,.512.544.933.933,0,0,0,.8-.944c.016-.32.064-.416.464-.416ZM-5.92-10.256c-.064,0-1.232-.176-1.312-.176-.032,0-.128,0-.128.048,0,.016.72.688.848.816a15.93,15.93,0,0,0,1.12,1.184.506.506,0,0,0,.272.1.516.516,0,0,0,.464-.544,1.366,1.366,0,0,0-.416-.928c-.208-.208-.24-.24-.24-.336a8.019,8.019,0,0,1,1.488-2.048c.368-.192.416-.208.416-.352,0-.272-1.2-.944-1.36-.944-.144,0-.16.176-.16.4a19.513,19.513,0,0,1-.72,2.48C-5.7-10.416-5.776-10.256-5.92-10.256Zm.288,5.728a1.783,1.783,0,0,0-.5-.192.246.246,0,0,0-.24.256c0,.08.048.432.048.512a22.453,22.453,0,0,1-.88,3.5,1.724,1.724,0,0,0-.1.32A5.528,5.528,0,0,0-5.9-2.224c.08-.192.48-1.168.512-1.248.048-.1.416-.416.416-.528C-4.976-4.192-5.04-4.224-5.632-4.528Zm3.392.9a4.287,4.287,0,0,0-.9-.624.034.034,0,0,0-.032.032,1.408,1.408,0,0,0,.1.272,9.647,9.647,0,0,1,.64,1.792c.176.8.272,1.2.624,1.2.32,0,.592-.352.592-.816A3.051,3.051,0,0,0-2.24-3.632ZM19.776-6.144c-.928,0-1.76-.032-2.272-.048-.112-.016-.608-.064-.72-.064a.042.042,0,0,0-.048.048c0,.016.032.048.064.1l.32.368c.048.064.08.112.144.112.112,0,.752-.064.88-.064.336,0,.416.176.88,1.216a8.676,8.676,0,0,0,.912,1.7,1.346,1.346,0,0,1,.256.464c0,.416-2.432,2.128-4.128,3.056-.256.144-.288.176-.288.24,0,.08.08.08.112.08A15.446,15.446,0,0,0,19.52-.624a14.922,14.922,0,0,1,1.408-.848,3.57,3.57,0,0,1,.736.544A10.2,10.2,0,0,0,24.56.848c.112,0,.5-.368.576-.432A2.137,2.137,0,0,1,26.256,0c.16-.016.256-.048.256-.128,0-.064-.144-.128-.336-.16C24.752-.5,21.76-1.84,21.76-2.256c0-.1.048-.144.4-.544.544-.624,1.264-1.552,1.936-2.432a1.209,1.209,0,0,1,.416-.384c.112-.064.272-.16.272-.288S24.7-6.08,24.1-6.5a5.009,5.009,0,0,0-.544-.336c-.112,0-.432.448-.512.528-.144.112-.3.16-1.216.16Zm2.32.432c.24,0,.512,0,.512.3a7.093,7.093,0,0,1-1.792,2.5,5.468,5.468,0,0,1-1.888-2.544c0-.256.24-.256.7-.256Zm-7.328-7.712c-.08.032-.176.224-.336.576a17.455,17.455,0,0,1-1.648,2.224c-.16.176-1.008,1.056-1.008,1.1a.076.076,0,0,0,.08.08,10.4,10.4,0,0,0,3.024-2.144c.32-.32.448-.352.672-.368.24-.016.5-.032.5-.256a.375.375,0,0,0-.032-.176C15.936-12.528,14.992-13.52,14.768-13.424ZM13.424.416c-.016.48,0,.768.48.768.752,0,.752-.752.752-1.184,0-.672-.064-3.648-.064-4.256a6.407,6.407,0,0,1,.16-1.856c.272-.3.288-.336.288-.416,0-.128-.272-.272-.368-.32-.16-.064-.272-.128-.272-.256,0-.112.048-.16.48-.512.352-.288.864-.768,1.216-1.056.064-.048.352-.176.432-.224a.125.125,0,0,0,.048-.112,3.657,3.657,0,0,0-1.248-1.168c-.128,0-.176.16-.208.288-.384,1.184-2.5,3.456-3.568,4.432-.048.048-.384.336-.384.4,0,.032.016.064.08.064a11.74,11.74,0,0,0,1.568-.992,1.464,1.464,0,0,1,.448-.272c.208,0,.224.144.256.32.032.288.048,1.376.048,1.728C13.568-1.648,13.472-.56,13.424.416Zm7.44-12.48c.288,0,.432.1.48.336.016.128-.016,1.216-.016,1.44,0,2.144,0,2.8,1.92,2.8,2.208,0,2.592-.848,2.592-1.136,0-.16-.048-.208-.272-.448a1.506,1.506,0,0,1-.336-.72c-.112-.512-.144-.56-.24-.56-.112,0-.112.128-.112.384,0,.96-.208,1.344-1.488,1.344-.912,0-1.024,0-1.024-1.664,0-.384.016-.752.032-1.248A.551.551,0,0,1,22.608-12c.208-.176.272-.224.272-.384,0-.128,0-.144-.576-.512a2.776,2.776,0,0,0-.688-.352c-.08,0-.144,0-.368.384a.628.628,0,0,1-.64.384h-.832a1.454,1.454,0,0,1-.848-.256c-.768-.384-.864-.432-.992-.432-.08,0-.144.016-.144.1,0,.064.128.368.144.448a5.76,5.76,0,0,1,.112,1.2A5.869,5.869,0,0,1,16.64-7.2a10.247,10.247,0,0,0-.8.672c0,.048.064.064.112.064a3.157,3.157,0,0,0,.864-.352,5.444,5.444,0,0,0,2.336-4.72c0-.224.016-.528.448-.528ZM35.712.576c.064.08.1.112.144.112s.288-.048.336-.048c.56-.048,1.632-.032,2.016-.032h5.68c.528,0,.864,0,.864-.224,0-.272-1.408-1.312-1.552-1.312-.192,0-.24.064-.672.624a.994.994,0,0,1-.944.48h-.592c-.416,0-.416-.288-.416-.88,0-1.072-.048-5.76-.048-6.72,0-.288.032-.528.464-.528h2.224c.512,0,.848,0,.848-.208,0-.3-1.12-1.344-1.344-1.344-.144,0-.192.064-.656.688-.336.448-.416.448-1.168.448-.384,0-.384-.3-.384-.5,0-.432.048-3.088.144-3.312.032-.08.352-.352.352-.432,0-.272-.336-.352-.48-.4-.112-.032-1.1-.336-1.152-.336-.1,0-.128.032-.128.112,0,.128.1.688.1.816.08,1.2.112,1.92.112,3.392,0,.448-.032.656-.416.656-.544,0-1.84-.064-2-.064-.08,0-.656-.048-.672-.048s-.048,0-.048.032,0,.032.064.112l.3.368c.064.064.1.1.144.1.064,0,.288-.032.336-.032.56-.048,1.488-.048,1.888-.048.384,0,.384.336.384.5,0,.832-.032,6.992-.064,7.28-.032.352-.32.352-.464.352h-.624c-.9,0-1.728-.032-2.192-.048-.112,0-.608-.064-.7-.064a.051.051,0,0,0-.048.048c0,.016,0,.016.064.1ZM30.48-9.216c.048.064.08.1.144.1.048,0,.288-.032.336-.032.56-.032,1.232-.048,1.856-.048h1.12c.144,0,.256.016.256.16,0,.464-2.256,3.264-2.9,3.92A16.1,16.1,0,0,0,29.9-3.7c0,.048.048.048.08.048.416,0,2.5-1.808,2.656-1.808s.16.272.16.448c0,1.888-.064,3.552-.1,4.736C32.7-.1,32.64.64,32.64.8c0,.224.1.384.48.384a.763.763,0,0,0,.848-.736c0-.224-.08-1.216-.08-1.424,0-.656-.016-3.616-.016-4.224,0-.192,0-.416.144-.416.3,0,.832.816.928.992.416.848.592,1.168.976,1.168.288,0,.56-.24.56-.736,0-1.216-1.5-1.648-2.048-1.776-.384-.08-.528-.112-.528-.448,0-.288.048-.336.512-.816a18.416,18.416,0,0,1,1.488-1.6c.048-.016.272-.064.32-.08A.241.241,0,0,0,36.4-9.12c0-.1-.032-.128-.384-.464-.048-.032-.384-.432-.576-.624a.3.3,0,0,0-.224-.112c-.144,0-.608.48-.72.544a.57.57,0,0,1-.384.112c-.16,0-.256-.032-.256-.256v-1.344c0-.672,0-.752.08-.9.032-.064.32-.3.32-.368,0-.112-.1-.176-.176-.224a12.3,12.3,0,0,0-1.44-.432c-.016,0-.064,0-.064.032,0,.1.08.464.08.544.048.608.064,1.552.064,1.792,0,1.072,0,1.184-.448,1.184-.336,0-1.808-.1-2.112-.1-.016,0-.064,0-.064.032,0,.016.016.032.08.112ZM53.616-6.288c-.48,0-.48-.224-.48-1.008,0-.384.048-.592.5-.592h5.712c.448,0,.832,0,.832-.192a3.485,3.485,0,0,0-1.312-.976c-.128,0-.56.528-.656.624-.144.128-.208.128-.864.128H53.632c-.5,0-.5-.192-.5-1.024,0-.32,0-.608.464-.608h5.7c.464,0,.848,0,.848-.192a3.485,3.485,0,0,0-1.312-.976c-.128,0-.544.544-.656.64-.128.112-.208.112-.88.112H53.6c-.464,0-.464-.176-.464-.88,0-.448.048-.592.544-.592h6.864c.528,0,.848,0,.848-.24,0-.192-1.392-1.056-1.488-1.056-.144,0-.192.064-.64.592-.24.272-.32.272-1.024.272H53.9a1.832,1.832,0,0,1-.9-.208,7.346,7.346,0,0,0-1.056-.4c-.112,0-.112.08-.112.128,0,.064.144,1.44.16,1.712.032.608.032.96.032,4.112,0,.464-.032.624-.576.624-.384,0-2.1-.112-2.416-.112-.048,0-.064.016-.064.032,0,.032,0,.048.064.112l.32.368c.048.064.08.1.144.1.032,0,.176-.016.224-.016.32-.016,1.184-.064,1.552-.064.464,0,.56.08.56.656,0,.528.016,3.072.016,3.664,0,.368,0,.5-.272.544A8.408,8.408,0,0,1,49.84-.9c-.176,0-.416,0-.416.192a.708.708,0,0,0,.08.24c.032.08.256.448.3.528.384.7.432.784.608.784a.2.2,0,0,0,.1-.016c.064-.048.3-.3.368-.352.24-.144,4.048-1.376,4.8-1.632.624-.224,1.776-.608,1.872-.608.176,0,.224.064.72.56A9.577,9.577,0,0,0,61.488.88c.048,0,.272-.208.32-.24a5.843,5.843,0,0,1,1.056-.672c.16-.064.272-.128.272-.192s-.048-.1-.288-.128A8.377,8.377,0,0,1,57.984-2.88c0-.1.048-.112.464-.368a9.137,9.137,0,0,1,2.208-1.1c.56-.064.624-.064.624-.224v-.048a6.858,6.858,0,0,0-1.52-1.024c-.1,0-.16.16-.272.432A5.816,5.816,0,0,1,57.6-3.3c-.32,0-1.664-2.112-1.664-2.384,0-.128.112-.192.256-.192h6.256c.48,0,.864,0,.864-.192A4.387,4.387,0,0,0,61.968-7.2c-.144,0-.56.592-.688.688a1.7,1.7,0,0,1-1.136.224Zm1.52.416c.32,0,.352.08.64.736A24.549,24.549,0,0,0,56.9-2.864c.24.384.272.432.272.464,0,.176-.08.208-.752.4-.576.176-2.944.736-3.152.736-.24,0-.256-.16-.256-.384-.032-.8-.032-1.92-.032-2.72,0-.224,0-1.12.016-1.2.064-.3.288-.3.448-.3Z" transform="translate(63.232 13.44)" fill="#5d5959"/>
</svg>
