<svg xmlns="http://www.w3.org/2000/svg" width="187.128" height="32.832" viewBox="0 0 187.128 32.832">
  <path id="パス_130850" data-name="パス 130850" d="M-79.758-13.176c.108.144.18.216.324.216.324,0,2.124-.18,2.52-.18.828,0,.936.4.936.792a24.43,24.43,0,0,1-.756,2.88c-.9,2.844-2.772,6.12-6.732,9.72-.072.072-.936.792-.936.828s.072.072.108.072a19.587,19.587,0,0,0,9.18-9c.324-.684.432-.9.756-.9.288,0,.4.18.5.36.108.144.9,2.088,1.08,2.484a13.3,13.3,0,0,1,1.3,2.448c0,.756-4.212,4.32-8.964,5.508-.648.18-.72.144-.72.288,0,.072.072.072.468.072A18.022,18.022,0,0,0-72.666,0a14.07,14.07,0,0,1,2.844-1.62,1.759,1.759,0,0,1,.972.468c1.08.936,3.96,3.024,4.824,3.024.144,0,.648-.5.792-.612A6.754,6.754,0,0,1-60.57.108c.108-.036.54-.108.54-.216,0-.216-.108-.216-1.08-.468-3.672-.864-6.732-2.412-6.732-3.132A28.24,28.24,0,0,1-66.15-6.3c.576-.972,1.044-1.764,1.332-1.836.828-.144,1.152-.216,1.152-.792,0-1.116-2.3-2.124-2.448-2.124-.18,0-.828.756-1.008.9a1.421,1.421,0,0,1-1.116.324h-4.788c-.324,0-.9,0-.9-.612,0-.216.4-1.548.468-1.872a1.279,1.279,0,0,1,1.44-.828h9.252c1.188,0,1.332,0,1.332-.4A7.177,7.177,0,0,0-64.1-16.164c-.4,0-1.656,1.764-2.052,1.944a4.838,4.838,0,0,1-1.8.144h-3.96c-.4,0-.9,0-.9-.792,0-.18.288-2.592.324-2.664.18-.684.756-.684,1.152-.684h6.264c.792,0,1.044,0,1.548-.036.072,0,.756-.072.756-.432a4.852,4.852,0,0,0-2.448-2.34c-.288,0-.4.108-1.152,1.116-.54.72-.936.72-2.232.72h-4.68c-1.692,0-3.276-.036-4.932-.108-.216-.036-1.332-.144-1.584-.144-.072,0-.144.036-.144.108,0,.036.036.072.18.216l.684.828c.108.144.18.252.324.252.18,0,1.944-.18,2.34-.18.576,0,1.116,0,1.116.9,0,3.168-.72,3.168-1.3,3.168-.54,0-3.276-.18-3.888-.18-.108,0-.144,0-.144.072s.072.144.144.252ZM-68.85-8.892c.4,0,.828,0,.828.576,0,.36-1.152,3.168-1.908,3.168-.684,0-2.736-2.628-2.736-3.312,0-.432.5-.432.792-.432ZM-63.99-28.8a4.02,4.02,0,0,0-1.692-.936c-.18,0-.792.648-.972.72-2.088,1.08-5.616,1.908-10.476,2.592a8.762,8.762,0,0,0-1.62.324c0,.216,1.332.288,2.664.288,1.08,0,4.644-.036,9.432-.468,3.708-.36,4.068-.4,4.068-.972C-62.586-27.684-63.2-28.188-63.99-28.8ZM-90.2-9.612a4.149,4.149,0,0,0-1.44-.72.343.343,0,0,0-.288.18v.9c0,.9,0,1.26-.9,4.644-.18.612-1.08,3.636-1.08,3.888,0,.108.036.216.108.216.252,0,1.3-1.548,2.088-2.916.576-1.044,1.44-2.808,2.016-3.888.072-.18.792-.864.792-1.08C-88.9-8.748-89.8-9.36-90.2-9.612Zm6.084-5.58a1.351,1.351,0,0,1,.036.36c0,.252-.612.36-3.132.36-1.188,0-1.3,0-1.3-.324a.889.889,0,0,1,.288-.576A57.729,57.729,0,0,0-83.9-21.1c.684-1.044,1.008-1.224,1.224-1.332.792-.324.936-.4.936-.684,0-.576-2.088-1.98-2.772-1.98-.432,0-.576.216-.684.9a35.393,35.393,0,0,1-2.988,6.624c-1.62,2.808-1.656,2.844-2.556,2.844a6.968,6.968,0,0,1-1.872-.288,9.056,9.056,0,0,0-1.044-.432c-.288,0-.4.108-.4.36,0,.18.612,3.636,1.44,3.636a7.411,7.411,0,0,0,1.188-.612,27.489,27.489,0,0,1,3.2-.612c.432,0,.576.18.612.72.036.144.036,3.492.036,4.1,0,1.332-.144,7.812-.144,9.288,0,.432,0,1.116.576,1.116A2.138,2.138,0,0,0-85.266.4c0-.4-.252-8.5-.252-9.072,0-.756,0-3.96.108-4.248.144-.468.936-.648,1.368-.648.4,0,.54.144.684.684.216.828.36,1.4,1.116,1.4a1.591,1.591,0,0,0,1.368-1.728c0-1.836-3.384-4.752-3.96-4.752-.072,0-.216.036-.216.144a2.094,2.094,0,0,0,.18.576A17.794,17.794,0,0,1-84.114-15.192Zm19.656-10.152a7.451,7.451,0,0,0-1.332-.648c-.288,0-.288.144-.288.4a6.883,6.883,0,0,1-.864,2.376c-.288.468-1.908,2.88-1.908,3.024,0,.036,0,.144.108.144.216,0,4.464-3.384,4.644-3.456.9-.36,1.008-.4,1.008-.684C-63.09-24.516-63.234-24.588-64.458-25.344Zm-7.488.5a4.338,4.338,0,0,0-1.692-.648c-.144,0-.216.072-.216.144a1.929,1.929,0,0,0,.18.4c.18.36.612,1.26.936,2.124.684,1.944.792,2.16,1.476,2.16A1.343,1.343,0,0,0-70-22.1,3.889,3.889,0,0,0-71.946-24.84Zm-6.336.036c-.252-.18-.612-.4-1.08-.684-.36-.216-.468-.288-.648-.288-.108,0,.072.36.216.54A8.253,8.253,0,0,1-78.642-22.5c.468,1.908.612,2.592,1.512,2.592a1.336,1.336,0,0,0,1.3-1.476C-75.834-22.86-77.058-23.94-78.282-24.8ZM-88.83-22.9a4.743,4.743,0,0,1,1.008-1.476c1.98-2.376,2.268-2.736,2.556-2.844.828-.4.936-.432.936-.684,0-.756-2.916-1.656-3.1-1.656-.252,0-.324.36-.36.792-.144,1.836-1.62,5.4-2.3,5.4-.108,0-2.3-.756-2.772-.756-.108,0-.216.036-.216.072,0,.072,1.944,2.052,2.268,2.448a20.75,20.75,0,0,0,1.4,1.944.985.985,0,0,0,.792.324,1.166,1.166,0,0,0,1.152-1.26,2.066,2.066,0,0,0-.792-1.584C-88.614-22.5-88.83-22.68-88.83-22.9Zm5.94,14.364A8.1,8.1,0,0,0-84.762-9.54c-.072,0-.072.144-.072.18,0,.072,1.116,2.052,1.26,2.484.576,1.98.9,3.024,1.836,3.024.36,0,.972-.432.972-1.44A4.307,4.307,0,0,0-82.89-8.532Zm41.8,7.92c.5,0,1.08,0,1.152.72.036.468.072.972.828.972.54,0,1.764-.4,1.764-1.476,0-.072-.144-3.564-.144-4.176,0-1.836,0-2.016.216-2.376.108-.144.792-.684.792-.828,0-.684-2.484-1.476-2.592-1.476-.18,0-.756.648-.9.756a2.144,2.144,0,0,1-1.08.18h-2.52a3.06,3.06,0,0,1-1.4-.252A4.976,4.976,0,0,0-46.71-9.18c-.288,0-.4.072-.4.252,0,.144.144.936.18,1.26a45.185,45.185,0,0,1,.18,5.04c0,.684-.108,3.708-.108,4.32s.252.972.936.972A1.558,1.558,0,0,0-44.226,1.08,9.773,9.773,0,0,1-44.262.036c.108-.648.756-.648,1.08-.648Zm-2.232-.936a1.2,1.2,0,0,1-.936-.252c-.216-.252-.216-.5-.216-2.664s0-2.412.252-2.664a1.3,1.3,0,0,1,.9-.216h2.376a1.2,1.2,0,0,1,.936.252c.216.216.216.468.216,2.628s0,2.412-.216,2.664a1.244,1.244,0,0,1-.936.252Zm14.148-8.316a3.818,3.818,0,0,1-1.98-.4,6.5,6.5,0,0,0-2.124-.828.227.227,0,0,0-.252.252c0,.144.144.792.144.936.216,3.1.216,3.78.216,5.184a48.443,48.443,0,0,1-.18,5.328c0,.144-.108,1.26-.108,1.3,0,.756.468.828.9.828a2.123,2.123,0,0,0,1.692-.684,1.366,1.366,0,0,0,.252-.936c0-1.3,0-1.62,1.08-1.62h7.02c.324,0,1.044,0,1.044.972,0,.9,0,1.44.864,1.44A1.92,1.92,0,0,0-18.594.036c0-.324-.144-1.692-.144-1.98-.108-1.764-.108-3.744-.108-4.1,0-1.8,0-1.98.5-2.412.612-.468.756-.612.756-.9,0-.576-2.808-1.728-2.916-1.728-.324,0-.54.288-.756.612-.4.54-.72.612-1.476.612Zm6.7.936c1.188,0,1.188.36,1.188,1.764,0,.756,0,4.86-.144,5.22-.144.468-.612.468-1.08.468h-7.056c-.36,0-.936,0-1.116-.468-.144-.4-.144-4.536-.144-5.076,0-1.62,0-1.908,1.224-1.908ZM-42.5-27.576a16.588,16.588,0,0,1-1.908-.072c-.4-.036-2.268-.18-2.7-.18-.072,0-.108,0-.108.072,0,.036,0,.072.144.252l.684.792c.144.18.216.252.324.252s.648-.072.756-.072a23.529,23.529,0,0,1,2.628-.108h3.384c1.188,0,1.944,0,1.944-.54a5.259,5.259,0,0,0-2.088-1.98c-.252,0-.432.216-.72.756-.432.828-.792.828-1.728.828Zm-1.3,5.256c-.828,0-1.116-.036-1.908-.072-.4,0-2.268-.18-2.7-.18-.072,0-.108.036-.108.072,0,.072,0,.108.144.252l.684.828c.144.144.216.216.324.216s.648-.072.756-.072a23.529,23.529,0,0,1,2.628-.108h6.12c1.152,0,1.98,0,1.98-.468s-1.872-2.088-2.088-2.088c-.252,0-.936,1.152-1.116,1.332-.288.288-.4.288-1.548.288Zm1.224,4.5c-.612,0-3.6-.252-3.924-.252-.108,0-.144.036-.144.072,0,.072.036.144.144.252l.72.828c.108.144.18.216.324.216.252,0,2.412-.18,2.736-.18h3.42c1.116,0,1.944,0,1.944-.5,0-.324-1.584-1.692-1.836-1.692-.144,0-.4.324-.828.864-.288.4-.612.4-1.584.4Zm.18,4.968c-.612,0-.828,0-1.44-.036-.36-.036-2.2-.216-2.592-.216-.072,0-.144.036-.144.108,0,.036.036.072.18.216l.684.828c.108.144.18.252.324.252s2.376-.18,2.808-.18H-39.4c1.26,0,2.088-.036,2.088-.468a5.317,5.317,0,0,0-1.944-1.836c-.288,0-.612.468-.72.612-.54.72-.72.72-1.728.72Zm9.468-1.548c.144.144.216.216.324.216s.936-.072,1.08-.072c1.44-.072,3.2-.108,4.248-.108h7.56c1.332,0,2.088,0,2.088-.5,0-.4-1.908-2.088-2.2-2.088-.324,0-1.26,1.116-1.44,1.3-.432.36-.792.36-1.98.36h-.684c-.5,0-1.08-.036-1.116-.972,0-.072-.072-4.032-.072-4.572,0-.756,0-1.332,1.044-1.332h5.472c1.116,0,2.016,0,2.016-.5,0-.576-1.872-2.232-2.16-2.232-.324,0-1.224,1.224-1.4,1.4-.432.4-.828.4-2.016.4h-1.908c-1.044,0-1.044-.5-1.044-1.764,0-.792,0-2.664.324-3.024.468-.54.576-.648.576-.864a.6.6,0,0,0-.36-.54c-.18-.036-2.628-.684-2.772-.684-.288,0-.684,0-.684.54,0,.216.288,1.152.288,1.332.108,1.224.144,2.736.144,3.636,0,.864,0,1.368-1.08,1.368-.972,0-3.348-.072-4.32-.108-.252-.036-1.368-.144-1.584-.144-.036,0-.144,0-.144.072s.036.108.144.252l.72.828c.108.144.18.252.324.252.072,0,.9-.108,1.044-.108.72-.036,2.628-.108,3.672-.108,1.224,0,1.26.36,1.26,2.2,0,.612,0,3.78-.072,4.032-.108.432-.432.648-1.044.648-.756,0-4.248-.252-4.968-.252-.036,0-.108,0-.108.072s.036.144.144.252ZM34.794-24.912c-.792,0-.972-.4-.972-1.116a4.3,4.3,0,0,1,.144-1.188c.108-.216.936-.936.936-1.116,0-.792-3.42-1.4-3.564-1.4-.4,0-.5.216-.5.324,0,.18.288,1.044.288,1.188.036.36.036,1.656.036,2.088,0,.972-.18,1.224-1.008,1.224H27.234a4.56,4.56,0,0,1-2.448-1.008c-.792-.54-.936-.576-1.188-.576-.324,0-.432.072-.432.5,0,.792.144,4.212.144,4.9,0,1.476-.036,17.748-.108,18.108-.072.4-.576.54-1.116.612a25.986,25.986,0,0,1-2.88.252,8.109,8.109,0,0,1-1.368-.108,4.186,4.186,0,0,0-.648-.144.227.227,0,0,0-.252.252c0,.288,1.908,4.248,2.484,4.248.18,0,.72-.648.864-.72A17.106,17.106,0,0,1,23.562.216C25.326-.252,34.65-3.492,34.974-3.492s.5.18,1.26.9a21.877,21.877,0,0,0,8.82,4.932c.4,0,.468-.144.648-.792.252-.9,1.728-1.692,2.7-2.088.072-.036.432-.216.432-.288,0-.216-.252-.216-.36-.216a17.828,17.828,0,0,1-7.38-1.332C38.862-3.2,36.918-4.86,36.918-5.148c0-.324.4-.468.756-.612,1.152-.432,6.552-2.88,7.452-2.916.972-.072,1.3-.072,1.3-.612,0-.36-.18-.5-1.62-1.728a12.611,12.611,0,0,0-1.116-.972.613.613,0,0,0-.252-.036c-.18,0-.612.756-.72.864-1.188,1.44-5.652,5.112-6.66,5.112-.936,0-3.42-4.284-3.42-5.436,0-.684.468-.684.792-.684H38.5c.288,0,.864,0,1.08.432.18.324.468.972,1.188.972a1.627,1.627,0,0,0,1.548-1.728c0-.324-.144-1.728-.144-2.016C42.1-15.732,42.1-18.36,42.1-19.8c0-2.7.108-2.988.36-3.276.108-.18.972-.72.972-.9a5.229,5.229,0,0,0-2.52-2.376c-.324,0-.4.108-.972.9a1.359,1.359,0,0,1-1.332.54ZM26.73-13.14c-1.044,0-1.08-.324-1.08-2.52,0-2.232.036-2.592,1.08-2.592H38.682c1.008,0,1.044.432,1.044,2.556s-.036,2.556-1.044,2.556Zm0-6.048c-1.08,0-1.08-.54-1.08-2.376,0-1.872,0-2.376,1.08-2.376H38.718A.925.925,0,0,1,39.762-22.9v2.628a.946.946,0,0,1-1.044,1.08Zm4.212,7.02c.756,0,.864.216.972.756a26.961,26.961,0,0,0,1.368,4.176c.18.468,1.26,2.664,1.26,2.808,0,.432-.144.468-1.476.684-.4.072-6.3.828-6.552.828-.684,0-.828-.54-.828-.936,0-.864-.072-6.228-.072-6.66,0-1.08,0-1.656,1.008-1.656ZM79.758-25.524c-.468,0-1.152,0-1.152-.9a4.776,4.776,0,0,1,.108-1.476c.036-.144.648-.792.648-1.008,0-.684-3.168-1.188-3.24-1.188-.108,0-.324,0-.324.216,0,.108.144.72.144.864a12.066,12.066,0,0,1,.072,1.692c0,1.368,0,1.8-1.08,1.8h-4.68c-1.692,0-3.168-.036-4.932-.108-.216,0-1.332-.144-1.584-.144-.072,0-.144.036-.144.108,0,.036.036.072.18.216l.684.828c.108.144.18.252.324.252.108,0,.612-.108.756-.108.36-.036,1.368-.072,4.536-.072H89.19c1.188,0,1.944,0,1.944-.5s-3.2-2.736-3.456-2.736c-.36,0-1.224,1.728-1.512,1.98-.36.288-.54.288-2.052.288Zm11.376,10.08c1.188,0,1.944,0,1.944-.5,0-.576-3.276-2.736-3.492-2.736-.432,0-1.44,1.728-1.728,1.98-.324.288-.5.288-2.016.288H69.354a2.644,2.644,0,0,1-1.728-.54c-1.908-1.224-1.944-1.26-2.376-1.26-.4,0-.4.108-.4.252a4.4,4.4,0,0,0,.108.612,22.75,22.75,0,0,1,.288,3.924c0,2.556-.432,8.964-2.16,12.132A12.24,12.24,0,0,1,61,1.62c-.072.108-.144.18-.144.288s.108.108.144.108c.288,0,1.872-.972,3.42-3.2,2.664-3.888,2.808-7.128,3.1-12.96.036-.864.072-1.3,1.224-1.3Zm-8.892.648c-.036,0-.792.756-.972.9a38.6,38.6,0,0,1-5.04,2.412c-1.08.432-6.912,2.52-6.912,2.556,0,.072.144.072.216.072a32.875,32.875,0,0,0,9.612-1.836c.828-.252,4.788-1.692,5.724-1.872.5-.072,1.188-.216,1.188-.5C86.058-13.572,82.674-14.94,82.242-14.8ZM89.8-7.452a4.757,4.757,0,0,0-.756.9,17.192,17.192,0,0,1-2.7,1.728C80.226-1.44,69.714,1.188,68.022,1.548c-.144.036-1.26.288-1.26.324,0,.072.216.18.5.18.54,0,6.8-.18,16.092-3.2,1.008-.324,5.868-2.3,6.948-2.736A6.979,6.979,0,0,1,91.89-4c.288,0,.684,0,.684-.324a.592.592,0,0,0-.072-.324C92.5-4.68,90.2-7.524,89.8-7.452ZM69.786-23.94c-.036.072.036.216.072.252a17.892,17.892,0,0,1,1.44,3.42c.432,1.98.684,3.168,1.836,3.168.864,0,1.4-.828,1.4-1.8C74.538-21.816,70.074-24.336,69.786-23.94Zm9.54,7.236c.684.72,5.292-4.824,5.508-4.9.684-.36.756-.4.756-.612,0-.468-3.528-1.908-3.564-1.908-.108,0-.108.072-.108.756,0,1.944-1.368,4.464-2.2,5.76C79.47-17.244,79.182-16.848,79.326-16.7ZM85.7-11.052c-.108.036-.684.756-.828.864C83.034-8.82,76.842-6.012,71.082-4.176c-.468.144-1.224.36-1.224.468q0,.108.216.108A51.087,51.087,0,0,0,80.19-5.616c1.044-.324,6.372-2.3,6.552-2.34C88-8.1,88.11-8.1,88.11-8.46A9.31,9.31,0,0,0,85.7-11.052Z" transform="translate(94.05 30.096)" fill="#5d5959"/>
</svg>
