<svg xmlns="http://www.w3.org/2000/svg" width="226.54" height="24.215" viewBox="0 0 226.54 24.215">
  <path id="パス_130800" data-name="パス 130800" d="M22.33-23.59a2.058,2.058,0,0,1-1.82.875H7.21c-.91,0-1.3-.07-1.645-.875h-.8c-.385,1.89-1.015,4.2-1.645,6.3H4.2a13.6,13.6,0,0,1,1.75-3.15c.665-.77,1.295-1.05,4.2-1.05H11.9L8.61-4.235C8.085-1.5,7.84-1.19,4.9-.98L4.655,0H14.49l.21-.98c-3.15-.21-3.395-.49-2.9-3.255L15.05-21.49h2.065c2.52,0,3.29.21,3.64,1.015a7.85,7.85,0,0,1,.42,3.185l1.12-.07c.21-1.96.525-4.69.84-6.23Zm14.8.315c-7.35,0-12.775,6.545-12.775,13.86,0,5.95,3.815,9.94,9.345,9.94,7.49,0,12.81-6.3,12.81-13.755C46.515-19.11,42.77-23.275,37.135-23.275Zm-.245,1.26c4.34,0,5.95,3.71,5.95,8.33,0,5.81-3.255,12.95-8.855,12.95C29.855-.735,28-4.34,28-8.995,28-15.225,31.6-22.015,36.89-22.015Zm14.875-.7-.245.98c2.765.28,2.94.49,2.415,3.255l-2.8,14.1c-.6,2.94-.84,3.115-3.5,3.395L47.39,0h9.555l.21-.98c-3.185-.28-3.43-.49-2.87-3.395l1.05-5.495,2.38.735c.385,0,.84,0,1.3-.035,3.955-.28,8.365-2.695,8.365-7.63,0-3.99-2.695-5.915-7.525-5.915ZM57.19-19.6c.21-1.12.455-1.5.84-1.68a3.322,3.322,0,0,1,1.47-.28c2.87,0,4.445,1.68,4.445,4.585,0,4.48-3.29,6.405-5.88,6.405a6.754,6.754,0,0,1-2.485-.455Zm50.82-3.115h-5.88L91.525-5.635c-1.365-6.09-2.52-11.48-3.675-17.08H81.8l-.28.98c3.255.28,3.465.6,2.45,3.99l-2.03,6.965c-1.26,4.235-1.89,6.23-2.45,7.63-.595,1.505-1.295,2-3.255,2.17L75.985,0H83.9l.21-.98c-2.52-.245-2.87-.665-2.625-2.2A64.773,64.773,0,0,1,83.09-9.87l2.52-9.1h.105c1.26,6.685,2.38,12.6,3.465,18.83h.84L101.4-19.285h.1c-.735,4.83-1.5,9.38-2.275,14.525-.525,3.325-.7,3.5-3.325,3.78L95.655,0h9.065l.21-.98c-2.765-.28-2.975-.385-2.555-3.78.6-4.585,1.12-8.68,1.89-13.755.42-2.835.525-2.975,3.5-3.22Zm4.025,0-.245.98c2.87.245,3.045.455,2.485,3.255l-2.73,14.245c-.56,2.8-.84,3.01-3.64,3.255L107.66,0h16.52c.49-1.12,1.785-4.41,2.17-5.425l-1.015-.35a14.265,14.265,0,0,1-2.38,3.325c-.945.91-1.995,1.19-4.515,1.19-1.89,0-2.9-.07-3.43-.525-.455-.42-.49-1.33-.14-3.255l1.155-6.125h3.185c3.01,0,3.01.245,2.94,2.765h1.05l1.33-6.72h-1.05c-.84,2.31-1.05,2.555-3.99,2.555H116.3l1.435-7.49c.245-1.3.35-1.435,1.575-1.435h2.52c2.485,0,2.975.315,3.36,1.12a7.214,7.214,0,0,1,.49,3.115l1.05-.07c.245-2.03.56-4.69.665-5.39ZM129.22-6.895c.07,2.52.07,4.445.1,5.25a9.049,9.049,0,0,0,6.09,2.17c4.13,0,7.77-2.625,7.77-6.755,0-2.835-1.715-4.69-4.13-6.475l-1.05-.77c-1.82-1.365-3.15-2.625-3.15-4.62a3.815,3.815,0,0,1,3.815-3.99c3.01,0,3.92,2.52,4.2,5.075l1.05-.1c.035-1.68,0-3.535.105-4.97-.28-.105-.84-.35-1.505-.6a11.242,11.242,0,0,0-3.465-.6c-4.2,0-7.175,2.625-7.175,6.335,0,2.905,2.24,4.865,3.955,6.195l1.015.77C138.845-8.4,140-7.035,140-5.11c0,2.66-1.61,4.41-4.13,4.41-3.815,0-5.285-3.71-5.635-6.3Zm17.22,0c.07,2.52.07,4.445.1,5.25a9.049,9.049,0,0,0,6.09,2.17c4.13,0,7.77-2.625,7.77-6.755,0-2.835-1.715-4.69-4.13-6.475l-1.05-.77c-1.82-1.365-3.15-2.625-3.15-4.62a3.815,3.815,0,0,1,3.815-3.99c3.01,0,3.92,2.52,4.2,5.075l1.05-.1c.035-1.68,0-3.535.105-4.97-.28-.105-.84-.35-1.505-.6a11.242,11.242,0,0,0-3.465-.6c-4.2,0-7.175,2.625-7.175,6.335,0,2.905,2.24,4.865,3.955,6.195l1.015.77c1.995,1.575,3.15,2.94,3.15,4.865,0,2.66-1.61,4.41-4.13,4.41-3.815,0-5.285-3.71-5.635-6.3Zm37.7,5.915c-2.45-.28-2.66-.56-3.115-3.185-.77-4.27-1.54-8.715-2.275-13.265l-.91-5.81-1.225.315L166.18-4.48c-1.68,3.01-2.065,3.185-4.2,3.5L161.7,0h7.595l.245-.98c-2.7-.245-2.9-.525-1.925-2.52.735-1.575,1.715-3.465,2.345-4.62h7.21c.315,1.925.595,3.535.8,4.97.21,1.54.07,1.925-2.31,2.17l-.28.98h8.5Zm-7.21-8.68H170.73c1.5-2.9,3.115-5.74,4.76-8.82h.07Zm31.15-7c.14-2.415.315-4.445.42-5.53a19.564,19.564,0,0,0-6.23-1.085c-8.715,0-14.875,5.74-14.875,13.79,0,6.4,4.34,10.01,10.5,10.01a30.509,30.509,0,0,0,7.42-1.33,8.56,8.56,0,0,1,.175-2.73l.56-2.87c.49-2.625.665-2.765,2.59-3.045l.245-.945h-8.89l-.245.945c3.465.35,3.64.455,3.15,3.045l-.665,3.22c-.385,1.89-1.75,2.45-3.745,2.45-4.725,0-7.35-3.745-7.35-8.96,0-6.58,4.1-12.32,10.29-12.32,3.465,0,5.495,1.435,5.565,5.46Zm6.09-6.055-.245.98c2.87.245,3.045.455,2.485,3.255l-2.73,14.245c-.56,2.8-.84,3.01-3.64,3.255L209.79,0h16.52c.49-1.12,1.785-4.41,2.17-5.425l-1.015-.35a14.266,14.266,0,0,1-2.38,3.325c-.945.91-2,1.19-4.515,1.19-1.89,0-2.9-.07-3.43-.525-.455-.42-.49-1.33-.14-3.255l1.155-6.125h3.185c3.01,0,3.01.245,2.94,2.765h1.05l1.33-6.72h-1.05c-.84,2.31-1.05,2.555-3.99,2.555h-3.185l1.435-7.49c.245-1.3.35-1.435,1.575-1.435h2.52c2.485,0,2.975.315,3.36,1.12a7.214,7.214,0,0,1,.49,3.115l1.05-.07c.245-2.03.56-4.69.665-5.39Z" transform="translate(-3.048 23.64)" fill="#80868b" stroke="#80868b" stroke-width="0.1"/>
</svg>
