<svg xmlns="http://www.w3.org/2000/svg" width="528.512" height="171.332" viewBox="0 0 528.512 171.332">
  <path id="パス_130458" data-name="パス 130458" d="M4.9.216C4.824.54,5.148.54,5.22.54A31.076,31.076,0,0,0,18.5-8.136c.72-.756.936-1.008,1.26-1.008.36,0,.756.684.828.828C21.96-6.012,22.1-5.76,22.86-5.76a1.55,1.55,0,0,0,1.548-1.728c0-1.26-.648-2.052-1.512-3.168-.648-.828-.684-.9-.684-1.224,0-.576,2.844-4.32,3.348-5.148,1.152-1.836,1.26-2.016,1.836-2.268.612-.288.9-.432.9-1.008,0-.324-.144-.5-1.584-2.052-.324-.36-.936-1.044-1.62-1.044-.252,0-.4.036-1.008.54-.828.684-4.428.972-5.112.972-.468,0-1.224-.072-1.224-.612,0-.216.4-1.188.4-1.4,0-.72-1.332-2.124-3.24-2.124-.216,0-.684,0-.684.216,0,.252.576,1.4.576,1.692,0,2.052-2.952,7.128-7.236,11.772a11.812,11.812,0,0,0-1.3,1.548.168.168,0,0,0,.18.18c1.188,0,5.544-4.716,6.372-4.716.9,0,5.184,2.736,5.184,3.852S13.068-4.5,5.688-.324C5,.072,4.932.072,4.9.216ZM19.62-13.356a2.03,2.03,0,0,1-.828-.252,40.155,40.155,0,0,0-3.96-1.836c-.9-.36-1.224-.468-1.224-.972,0-.432,3.024-4,3.06-4.032a.567.567,0,0,1,.432-.144,2.056,2.056,0,0,1,.864.144,3.9,3.9,0,0,0,1.08.144c.648,0,3.816-.468,4.356-.468.252,0,.612.108.612.5C24.012-19.044,20.412-13.5,19.62-13.356ZM29.736-29.412c-.648,0-1.332.216-1.332.468,0,.072.108.216.468.36A8.761,8.761,0,0,1,32-26.532c.684.828,1.116,1.332,1.872,1.332.648,0,.9-.684.9-1.044C34.776-27.756,32.832-29.412,29.736-29.412Zm-2.844,3.024c-.216,0-.648.072-.648.252,0,.144.324.468.468.576a9.857,9.857,0,0,1,2.268,2.448c.864,1.368,1.224,1.764,1.8,1.764.648,0,1.116-.864,1.116-1.332C31.9-24.624,28.908-26.388,26.892-26.388Zm27.5.5c0,.252.036.252.828.576,4.464,1.692,4.716,1.8,6.84,3.276,1.4.972,2.232,1.548,2.664,1.548a1.189,1.189,0,0,0,1.08-1.26c0-3.528-6.588-4.392-9.936-4.392C54.972-26.136,54.4-26.028,54.4-25.884Zm.36,7.812c-2.088-.036-2.3-.036-2.3.288,0,.216.216.288.432.36,3.456,1.224,4.32,1.692,5.22,2.376,2.376,1.8,2.664,2.016,3.456,2.016a1.438,1.438,0,0,0,1.26-1.4C62.82-17.46,56.52-18.072,54.756-18.072ZM66.78-2.088c0-4.32-10.944-7.272-14.328-7.272-.144,0-.648,0-.648.324,0,.18.072.216.9.5a24.509,24.509,0,0,1,9.4,5.868c1.908,2.124,2.124,2.34,2.988,2.34A1.692,1.692,0,0,0,66.78-2.088Zm25.848-12.42a19.6,19.6,0,0,1-4.392-.324c-.18-.036-1.044-.432-1.224-.432s-.288.216-.288.432c0,1.224,1.656,3.456,3.2,3.456.432,0,2.376-.576,2.808-.648.864-.18,9.108-.648,14.076-.648.72,0,4.32.072,5.148.072,1.512,0,2.988-.108,2.988-1.116,0-.252-.324-1.584-2.52-1.584-.18,0-.576.036-.792.036C106.38-14.976,93.816-14.508,92.628-14.508Zm60.228-5.58a4.6,4.6,0,0,0-3.888,2.268c0,.108.036.144.144.144a.8.8,0,0,0,.36-.108,3.126,3.126,0,0,1,1.4-.36c1.224,0,3.024.5,3.024,1.944a1.894,1.894,0,0,1-.144.648,2.48,2.48,0,0,0-.108.288.168.168,0,0,0,.18.18c.144,0,.9-.216,1.08-.252.18,0,1.008.072,1.224.072.756,0,1.188-.972,1.188-1.728C157.32-18.648,155.628-20.088,152.856-20.088Zm-13.212-1.044c-.072.036-.144.108-.144.144,0,.072.18.432.18.5,0,.5-1.008.9-1.26.9-.216,0-.288-.252-.288-.4a19.229,19.229,0,0,1,.36-2.34,14.512,14.512,0,0,0,.756-1.872c0-.684-1.3-2.448-3.708-2.448-.216,0-.792.072-.792.4a3.606,3.606,0,0,0,.5.576,3.535,3.535,0,0,1,1.188,2.88,26.922,26.922,0,0,1-.36,3.924,15.725,15.725,0,0,1-4.572,1.08,10.459,10.459,0,0,1-1.656-.18c-.108,0-.54-.144-.648-.144a.255.255,0,0,0-.288.252c0,.252,1.368,2.736,2.592,2.736a7.72,7.72,0,0,0,2.556-.684,8.42,8.42,0,0,1,1.656-.324c.4,0,.5.54.5.792.036.612.072,3.672.072,4.5,0,1.008-.216,1.116-2.052,2.016C132.12-7.776,131.472-7.6,130.5-7.6c-.216,0-1.26-.18-1.476-.18-.648,0-1.044.756-1.044,1.4,0,1.188,1.836,2.268,2.232,2.268a7.112,7.112,0,0,0,1.368-.72,3,3,0,0,1,.9-.216c.468,0,.648,0,1.8,2.232.288.576.684,1.332,1.656,1.332,1.3,0,1.836-2.376,1.836-4.032,0-.36-.108-1.98-.108-2.376,0-.612.216-.72,2.232-1.8,4.212-2.232,6.444-2.7,7.452-2.7a3.73,3.73,0,0,1,3.456,3.96c0,2.88-3.024,4.464-5.4,4.464-.36,0-2.34,0-2.34-1.728a1.489,1.489,0,0,1,.324-.972c.072-.108.144-.18.144-.288a.193.193,0,0,0-.18-.18,3.208,3.208,0,0,0-1.8,2.844c0,1.872,1.656,2.916,3.708,2.916,2.952,0,7.956-2.16,7.956-6.912a5.512,5.512,0,0,0-5.544-5.436c-.936,0-2.556.108-6.12,1.44-.576.216-3.528,1.44-3.636,1.44-.324,0-.324-.432-.324-.648,0-.18,0-3.1.072-3.888.072-1.26.108-1.4.612-1.584.864-.36,3.6-1.44,3.6-2.628C141.876-20.7,140.148-21.2,139.644-21.132ZM136.08-7.452c.108.072.108.432.108.576,0,1.764-.5,2.772-1.008,2.772-.54,0-1.512-1.152-1.512-1.692C133.668-6.3,135.972-7.452,136.08-7.452ZM187.524.5c.684,0,1.08,0,1.152.72.036.576.108,1.116,1.044,1.116.216,0,1.836-.036,1.836-1.584,0-.18-.216-4.356-.216-5.184a.627.627,0,0,1,.36-.684c.72-.36.864-.432.864-.792,0-.648-2.412-2.16-2.556-2.16-.252,0-.828.648-1.08.936h-9.792c-.864,0-2.268-.864-2.268-1.152,0-.324.288-.432,1.044-.792a43.043,43.043,0,0,0,5.076-2.916c1.116-.792,1.26-.9,1.476-.9.324,0,.5.144,1.152.648a20.528,20.528,0,0,0,3.96,2.52A58.164,58.164,0,0,0,197.568-6.7c.18,0,.252-.18.36-.5a5.024,5.024,0,0,1,2.3-2.268c.252-.108.432-.216.432-.324,0-.18-.072-.18-.432-.18-7.128,0-14.076-3.636-14.076-4.32,0-.216.252-.468.828-1.044.972-.936,2.448-2.556,3.384-3.528.792-.828,1.008-1.044,1.692-1.152.5-.072,1.008-.144,1.008-.684,0-.252-.144-.36-1.26-1.3-1.08-.9-1.188-1.008-1.4-1.008-.18,0-.792.72-1.188,1.152a1.487,1.487,0,0,1-1.332.54h-6.12c-.108,0-.432,0-.432-.252s.36-.468.576-.54c.468-.18.576-.216.576-.4,0-.5-2.772-1.944-2.844-1.944-.144,0-.144.072-.36.684-1.008,3.024-6.192,6.984-7.956,8.316a13.133,13.133,0,0,0-1.548,1.224.155.155,0,0,0,.144.144c.036,0,1.548-.612,1.584-.612a24.7,24.7,0,0,0,6.48-3.852c.9-.792,1.008-.864,1.224-.864.324,0,.5.324.648.576a29.994,29.994,0,0,0,1.728,2.628,7.169,7.169,0,0,1,.936,1.476c0,.468-1.728,1.728-2.376,2.2A38.248,38.248,0,0,1,169.7-7.6c-.432.144-2.7.576-2.7.864,0,.108.072.18.252.18a29.078,29.078,0,0,0,6.444-.972c.18-.036,1.188-.4,1.4-.4.468,0,.648,0,.648,2.916,0,.9-.18,5.184-.18,6.192,0,.828.108,1.332,1.116,1.332.864,0,1.224-.468,1.512-1.188.288-.756.468-.828,1.116-.828Zm-.5-20.88c.4,0,.756,0,.756.432a15.04,15.04,0,0,1-2.088,2.628c-1.3,1.4-1.44,1.548-1.836,1.548-.828,0-3.564-3.852-3.564-4.212,0-.4.54-.4.72-.4Zm.72,14.184c.432,0,1.116.18,1.116.792,0,1.44-.036,4.176-.072,4.284-.144.432-.324.648-1.044.648h-8.352c-.612,0-.9-.108-1.08-.684-.036-.072-.036-3.816-.036-4.14,0-.9.864-.9,1.116-.9ZM185.8-25.776c-.756,0-1.008-.36-1.008-.972,0-1.224.144-1.332.54-1.548.288-.144.576-.288.576-.612s-.144-.324-1.332-.648c-.18-.036-2.3-.612-2.412-.612a.3.3,0,0,0-.324.324,4.353,4.353,0,0,0,.18.648,14.961,14.961,0,0,1,.108,2.232c0,.5,0,1.188-.972,1.188h-8.568c-.756,0-.828-.108-1.3-.972-.252-.432-.648-.936-.828-.936-.144,0-.144.144-.144.216a8.282,8.282,0,0,1-1.224,3.276c-1.224,1.872-1.368,2.088-1.368,2.7a1.415,1.415,0,0,0,1.548,1.4c1.8,0,2.376-2.412,2.484-3.2.144-1.152.18-1.548,1.08-1.548h20.7c.576,0,.828.072.828.792,0,.4-.5,2.484-.5,2.52,0,.072,0,.108.072.108.036,0,1.116-1.188,1.368-1.332a7.68,7.68,0,0,1,3.276-.756.676.676,0,0,0,.72-.648c0-.576-.18-.684-2.052-1.764a21.371,21.371,0,0,0-1.944-1.044c-.18,0-.18.036-.54.576a1.123,1.123,0,0,1-1.188.612Zm33.3,5.328c1.188,0,1.944,0,1.944-.5a6.609,6.609,0,0,0-2.232-1.944c-.288,0-.36.108-.9.936a1.2,1.2,0,0,1-1.116.54c-.5,0-.72-.072-.72-.648a36.937,36.937,0,0,1,.36-5.364c.036-.216.648-1.26.648-1.512,0-.324-.252-.432-.432-.5a13.283,13.283,0,0,0-2.7-.648c-.108,0-.252.036-.252.216,0,.5.324,2.052.4,2.844.036.324.036,3.492.036,4.068,0,.5,0,1.512-1.188,1.512-.612,0-3.492-.216-4.14-.216-.108,0-.144.036-.144.108,0,.036.036.072.144.216l.72.828c.108.144.18.252.324.252.288,0,2.3-.18,2.7-.18.288,0,.972,0,.972.756a31.286,31.286,0,0,1-3.528,10.116c-.216.36-1.512,2.268-1.512,2.3a.187.187,0,0,0,.18.18c.972,0,3.852-4.5,4.824-6.012a.514.514,0,0,1,.36-.252c.108,0,.144.18.144.288,0,.288-.252,10.332-.324,11.556-.036.9-.144,2.34-.144,3.2a.833.833,0,0,0,.936.972C216,2.664,216,1.08,216-.36c.036-2.2-.036-13.1-.036-15.588,0-.072,0-.432.18-.432.324,0,1.044,1.044,1.224,2.124.288,1.908.432,2.736,1.512,2.736.864,0,1.368-.756,1.368-1.8,0-1.116-.432-2.376-3.312-4-.756-.432-.972-.54-.972-1.08,0-1.692,0-2.052,1.152-2.052ZM224.964-10.3a12.686,12.686,0,0,0-3.852-2.16c-.144,0-.144.108-.144.18a.311.311,0,0,0,.108.216,16.922,16.922,0,0,1,2.448,4c.432.936.72,1.512,1.512,1.512.756,0,1.152-.54,1.152-1.332A3.262,3.262,0,0,0,224.964-10.3Zm12.852-7.128c1.224,0,1.908,0,1.908-.5,0-.468-3.06-2.448-3.2-2.448-.324,0-1.26,1.512-1.512,1.764-.288.252-.432.252-1.872.252H232.2c-.4,0-1.116-.036-1.116-.972,0-2.628.288-2.7,1.26-2.7h5.868c1.224,0,1.944,0,1.944-.5,0-.468-3.132-2.376-3.384-2.376-.4,0-.468.108-1.224,1.3-.4.612-.648.612-2.808.612-.216,0-.468-.072-.468-.216a35.914,35.914,0,0,1,4.248-4.248c.72-.432.9-.612.9-.864,0-.5-3.06-1.728-3.2-1.728s-.216.144-.252.324a24.357,24.357,0,0,1-.9,2.664C231.228-23,230.868-23,230.04-23h-2.376c-1.728,0-4.284-.108-4.608-.108-.216-.036-1.332-.144-1.584-.144-.072,0-.144.036-.144.108,0,.036.036.072.18.216l.684.828c.108.144.18.252.324.252a5.462,5.462,0,0,0,.756-.108c.72-.036,2.592-.072,3.6-.072h.9c1.008,0,1.008.468,1.008,2.412,0,.612,0,1.26-1.008,1.26-1.3,0-2.916-.072-4.248-.144-.216,0-1.332-.108-1.62-.108-.072,0-.108,0-.108.072s0,.072.144.252l.72.828c.108.144.18.216.288.216s.648-.072.792-.072c.936-.072,2.916-.108,4.032-.108,1.008,0,1.008.288,1.008,2.628,0,1.008-.576,1.008-1.224,1.008-1.332,0-3.564-.072-4.9-.144-.18,0-1.116-.108-1.3-.108-.108,0-.144,0-.144.072s.036.072.144.252l.72.828c.108.144.18.216.324.216.036,0,.252-.036.288-.036.828-.108,3.42-.144,5.148-.144a.914.914,0,0,1,.936,1.044c.036.864.036,6.948.036,9.144,0,2.016,0,2.268-2.088,2.268-.288,0-1.656-.108-1.944-.108-.072,0-.18,0-.18.108,0,.144.18.216.4.288a5.746,5.746,0,0,1,2.916,2.34c.072.144.144.324.4.324a4.25,4.25,0,0,0,1.836-.648c.864-.54,1.08-1.4,1.08-2.844,0-.972-.324-5.76-.324-6.876,0-.144.036-.936.036-1.116,0-.144,0-.324.18-.324.144,0,.144.072.468.792,2.952,6.876,6.624,8.6,6.912,8.6.252,0,1.3-1.008,1.548-1.188.324-.216,2.2-1.152,2.2-1.224,0-.108-.18-.108-.252-.108-3.564,0-7.956-3.528-7.956-4.32,0-.216.072-.288.36-.54,2.3-2.052,2.556-2.268,3.96-2.772.864-.288.972-.324.972-.612,0-.432-1.764-1.656-1.764-1.944,0-.252.324-.288.5-.288h1.152c1.224,0,1.944,0,1.944-.5,0-.432-2.952-2.376-3.06-2.376-.288,0-1.116,1.4-1.368,1.62-.36.324-.54.324-2.052.324h-2.556c-.468,0-1.152,0-1.152-1.044,0-2.2,0-2.592,1.116-2.592Zm-1.836,4.572c.144,0,.468,0,.468.432,0,.4-2.448,4.608-3.312,4.608-.576,0-2.232-3.348-2.232-4.14,0-.9.72-.9,1.116-.9ZM221-3.24a6.188,6.188,0,0,1-1.332.18c-.144,0-.216.036-.216.18,0,.072,1.728,3.06,2.232,3.06.288,0,.468-.4.648-.864.432-1.008,4.86-4.68,4.86-5.112a.151.151,0,0,0-.144-.144c-.072,0-1.8.936-2.124,1.116A21.279,21.279,0,0,1,221-3.24Zm6.444-24.372a7.259,7.259,0,0,0-3.492-2.268c-.144,0-.216.036-.216.144s.036.18.216.468a12.805,12.805,0,0,1,1.764,4.176c.18.756.36,1.44,1.008,1.44s1.512-.684,1.512-2.052A2.79,2.79,0,0,0,227.448-27.612Zm39.744,3.132c9.828,0,9.972,8.568,9.972,9.972,0,8.964-7.812,12.06-11.556,13.536-.9.36-.972.4-.972.5,0,.216.216.252.36.252a22.127,22.127,0,0,0,5.976-1.332,13.426,13.426,0,0,0,9.072-12.672A11.284,11.284,0,0,0,273.78-24.7a11.727,11.727,0,0,0-5.8-1.152,14.9,14.9,0,0,0-11.484,4.68,12.681,12.681,0,0,0-4,9.18c0,4.392,2.124,8.1,4.5,8.1,1.44,0,3.276-.864,6.156-5.256,3.168-4.788,3.708-8.136,3.708-10.548a27.593,27.593,0,0,0-.36-3.888c0-.144-.072-.288-.072-.4C266.436-24.192,266.472-24.48,267.192-24.48Zm-2.016.108c.468,0,.612.18.612,2.34a20.591,20.591,0,0,1-3.528,10.476c-2.484,3.744-3.348,4.176-4.392,4.176-2.2,0-3.132-3.2-3.132-5.544C254.736-19.728,261.756-24.372,265.176-24.372ZM7.92,54.816c-1.044,0-3.852,0-5-.108-.216,0-1.332-.144-1.512-.144-.036,0-.144,0-.144.072s.144.252.18.324L2.2,55.968c.108.108.18.216.324.216.108,0,.648-.072.756-.072C3.708,56.076,4.788,56,7.812,56H32.58c1.764,0,1.98,0,1.98-.5,0-.288-.288-.54-.864-1.044-2.52-2.232-2.736-2.232-3.1-2.232-.468,0-.648.18-2.088,1.98-.5.612-.684.612-2.3.612ZM65.16,69.648c.432,0,.972.144,1.044.684.144,1.008.18,1.26.864,1.26a3.344,3.344,0,0,0,1.692-.612c.324-.216.4-.432.4-1.044,0-1.044-.18-6.156-.18-7.344,0-1.3,0-1.872.648-2.52.108-.144.468-.5.756-.5.108,0,.18.036.54.324a3.17,3.17,0,0,0,1.692.9c.288,0,.432-.36.612-.72a4.055,4.055,0,0,1,2.52-1.872c.288-.072.72-.144.72-.4,0-.144-.216-.18-1.548-.4C65.628,56.04,61.56,49.7,61.56,49.524s.144-.216.432-.216h11.16c1.044,0,2.124,0,2.124-.4,0-.468-3.348-2.988-3.672-2.988-.252,0-.828.72-1.548,1.584-.684.864-.864.864-2.088.864H64.8c-.468,0-.576,0-.576-.18,0-.072,3.276-3.276,4.284-3.672.936-.4.972-.4.972-.648,0-.36-.108-.468-.9-.972-.108-.072-.972-.684-.972-.828,0-.288,1.44-.36,1.656-.36.144,0,.792.108.936.108.324,0,.468-.18.468-.324,0-.36-2.34-2.772-3.06-2.772-.324,0-1.8.612-2.124.684a126.425,126.425,0,0,1-18.072,3.1c-1.116.144-1.224.144-1.224.4s.144.252,1.62.36c.9.072,1.152.072,1.512.324.972.612,1.98,4.392,1.98,4.5,0,.288-.252.288-.684.288h-.828c-1.692,0-3.312-.036-4.932-.108-.252-.036-1.368-.144-1.62-.144-.072,0-.108.036-.108.072,0,.072,0,.108.144.252l.72.828c.108.144.18.216.288.216s.648-.072.792-.072c1.26-.072,3.708-.108,4.536-.108h4.14c.648,0,.9.036.9.324a8.262,8.262,0,0,1-.936,1.584A37.378,37.378,0,0,1,43.7,59.856c-1.08.576-1.224.648-1.224.828,0,.108.072.216.252.216.144,0,1.692-.252,5.256-2.2A8.759,8.759,0,0,1,49,58.2c.324,0,.324.144.324,1.476,0,1.836,0,6.516-.108,8.208-.036.5-.18,2.772-.18,3.132,0,.288,0,.792.936.792A1.812,1.812,0,0,0,52.02,70.26c.144-.612.648-.612,1.044-.612Zm-8.424-10.08c1.08,0,1.08.5,1.08,2.412,0,.936,0,1.584-1.044,1.584H52.92c-1.08,0-1.08-.4-1.08-2.412,0-.936,0-1.584,1.08-1.584Zm4.716,9.144c-1.116,0-1.116-.288-1.116-2.808,0-.828,0-1.4,1.08-1.4H65.3c1.116,0,1.116.54,1.116,1.692,0,2.16-.072,2.52-1.116,2.52Zm3.888-9.144c1.008,0,1.08.432,1.08,2.592,0,.72,0,1.4-1.044,1.4H61.344c-1.044,0-1.044-.648-1.044-1.44,0-2.052,0-2.556,1.044-2.556Zm-11.664-.936a2.44,2.44,0,0,1-1.98-.684c-.792-.612-.9-.684-.9-.828s.108-.216.936-.828a31.638,31.638,0,0,0,5.148-5.04c.072-.108.72-.828.864-.828.252,0,.252.216.252.684,0,.936-.288,5.04-.288,5.868,0,.36,0,1.044.936,1.044a2.25,2.25,0,0,0,1.332-.612,1.69,1.69,0,0,0,.468-1.368c0-.936-.072-5-.036-5.868,0-.36,0-.432.144-.432a9.38,9.38,0,0,1,.648,1.044,21.928,21.928,0,0,0,5.184,5.8c.468.4.5.432.5.576,0,.288-.648.864-.864,1.044a2.128,2.128,0,0,1-1.548.432Zm3.1,5.868c1.044,0,1.044.648,1.044,1.656,0,2.124-.036,2.556-1.08,2.556h-3.78c-1.08,0-1.08-.468-1.08-2.052,0-1.656,0-2.16,1.044-2.16Zm-2.34-16.128c-.684,0-.864,0-.864-.36,0-.144.108-.828.108-.972a3.582,3.582,0,0,0-1.728-2.916c-.216-.18-.9-.648-.9-.684,0-.144.072-.144.828-.18.9-.036,5.364-.4,5.616-.4.468,0,.576.324.576.72,0,3.528,0,3.924-.036,4.068-.072.5-.4.72-.972.72Zm7.02,0c-1.044,0-1.08-.54-1.08-1.188,0-1.44,0-4.14.036-4.284.108-.288.288-.324,1.98-.468,1.476-.144,2.916-.288,3.1-.288.252,0,.324.144.324.36,0,1.188-1.512,3.816-2.268,5.04a1.45,1.45,0,0,1-1.44.828ZM84.96,54.528c.144.144.18.216.324.216.072,0,2.772-.18,3.312-.18,1.584,0,1.98,0,1.98,1.116,0,7.92-.036,7.92-.432,8.388A19.489,19.489,0,0,1,85.716,66.8c-1.368.468-1.512.5-1.512.9,0,.072,1.872,2.736,2.232,2.736.4,0,1.332-1.8,1.584-2.088a38.087,38.087,0,0,1,3.672-4.212,1.042,1.042,0,0,1,.72-.324c.36,0,.5.216,1.548,2.052.9,1.512,1.908,3.168,6.12,4,2.772.54,10.872.648,13.9.648,1.692,0,1.872,0,2.052-.432a6.747,6.747,0,0,1,1.3-2.34,4.9,4.9,0,0,0,.432-.612c0-.216-.324-.216-.4-.216-.216,0-2.556.4-3.024.432a70.173,70.173,0,0,1-8.136.4c-6.8,0-9.216-.5-10.836-1.692-2.3-1.656-2.3-3.42-2.3-6.264,0-.936,0-4.1.324-4.68.144-.18.9-.9.9-1.116,0-.432-2.16-2.412-2.3-2.412-.324,0-1.08,1.332-1.26,1.548-.288.324-.5.5-1.332.5s-4.428-.252-5.148-.252c-.036,0-.144,0-.144.072s.072.144.18.288Zm.972-14.4a2.431,2.431,0,0,0-.5-.072c-.108,0-.324,0-.324.144,0,.072.432.432.432.468a20.8,20.8,0,0,1,4.428,5.4c.432.756.936,1.692,1.764,1.692a1.548,1.548,0,0,0,1.332-1.584,4.654,4.654,0,0,0-1.008-2.628C90.792,41.892,88.956,41.208,85.932,40.128ZM114.84,51.216c1.584,0,1.908-.072,1.908-.468s-2.772-2.556-3.168-2.556-1.44,1.548-1.728,1.728c-.468.36-.972.36-2.2.36h-7.488c-.972,0-1.152-.4-1.152-1.08,0-4.644,0-5.148.252-5.4.18-.216.36-.216,1.836-.36a70.842,70.842,0,0,0,8.46-1.188,7.64,7.64,0,0,1,1.836-.144c1.188,0,2.052,0,2.052-.54,0-.432-2.628-2.664-3.1-2.664-.18,0-.828.54-.972.648a44.4,44.4,0,0,1-9.9,3.312,3.043,3.043,0,0,1-1.512-.5c-.864-.468-1.08-.612-1.44-.612-.432,0-.432.36-.432.5a13.407,13.407,0,0,0,.4,1.728,52.642,52.642,0,0,1,.216,5.9c0,5,0,9.648-2.124,13.428a10.259,10.259,0,0,0-1.116,1.872c0,.072.036.216.18.216.252,0,4.356-2.7,5.112-9.18.144-1.188.18-2.772.252-4.032.036-.972.684-.972,1.188-.972h3.42c.4,0,.828,0,1.008.612.036.18.18,4.716.18,5.148,0,1.368-.288,8.316-.288,8.64,0,.648.216.936,1.116.936,1.512,0,1.656-.9,1.656-1.728,0-1.944-.144-10.476-.144-12.2,0-.756,0-1.4,1.08-1.4Zm16.092-5.868c-.072,0-.216.036-.216.144A4.863,4.863,0,0,0,131,46.716a10,10,0,0,1,.252,2.088c0,.936-.5,5.364-.5,6.372,0,6.876,4.536,10.656,6.84,10.656.612,0,1.368-.4,1.368-1.116a9.03,9.03,0,0,0-.288-1.188,4.859,4.859,0,0,1-.216-1.44,10.1,10.1,0,0,1,.468-2.736,4.319,4.319,0,0,0,.108-.72c0-.144-.072-.288-.18-.288-.288,0-.9.864-1.116,1.224-1.08,1.8-1.224,1.98-1.836,1.98-1.116,0-2.988-2.628-2.988-6.264a12.715,12.715,0,0,1,.864-4.644,4.932,4.932,0,0,0,.432-1.44C134.208,48.228,132.588,45.348,130.932,45.348ZM148.1,48.66c-.18,0-.324.072-.324.18,0,.216,1.44,1.332,1.728,1.62,1.908,1.908,1.908,3.42,1.908,6.408,0,.468,0,2.412,1.764,2.412,1.728,0,1.8-1.692,1.8-2.376a8.96,8.96,0,0,0-3.2-6.876A7.007,7.007,0,0,0,148.1,48.66Zm27.972,14.976c0,5.652,5.22,5.652,6.876,5.652,1.908,0,9.252-.18,9.252-2.016,0-.9-1.152-1.728-2.376-1.728a9.8,9.8,0,0,0-2.7.54,16.1,16.1,0,0,1-4.32.648c-2.916,0-5-.9-5-3.348,0-2.34,1.224-4.968,9.792-8.424,1.3-.5,2.772-1.08,2.772-2.16A1.383,1.383,0,0,0,189,51.468c-1.044,0-3.312,1.44-3.708,1.692-1.944,1.224-2.16,1.368-2.664,1.368-.936,0-.936-2.916-.936-4.284a33.886,33.886,0,0,1,.324-4.752c.072-.36.5-1.98.5-2.3,0-1.044-1.836-2.7-3.888-2.7-.108,0-.972.036-.972.18,0,.108.108.216.864,1.008a3.364,3.364,0,0,1,1.08,2.916c0,.936-.18,5.112-.18,5.94a11.576,11.576,0,0,0,.612,4.212,9.154,9.154,0,0,1,.324,1.116c0,.468-.468.936-1.548,1.944A8.161,8.161,0,0,0,176.076,63.636Zm43.668-20.2a11.447,11.447,0,0,0-1.188-.36c-.072,0-.18,0-.18.108,0,.36,1.656,2.628,6.336,3.492,1.044.18,1.152.216,1.152.432,0,.432-1.98,2.124-1.98,2.448,0,.072.072.072.108.072.144,0,.144.036.5-.18a9.889,9.889,0,0,1,4.536-1.728c2.484-.18,2.808-.18,2.808-.828a3.782,3.782,0,0,0-3.528-2.88c-.4,0-2.412.072-2.844.072A21.581,21.581,0,0,1,219.744,43.44Zm3.42,20.7c-2.556,0-5.9-1.08-6.912-3.6-.072-.18-.324-1.332-.576-1.332-.072,0-.468.4-.468,1.764,0,5.652,7.6,6.3,11.16,6.3,1.98,0,8.1-.18,8.1-2.124a2.233,2.233,0,0,0-2.376-1.692c-.18,0-5.652.756-6.732.756C225,64.212,223.416,64.14,223.164,64.14Zm35.244-19.98c-.108,0-.36.036-.36.216,0,.036,1.224,1.656,1.4,1.908a2.379,2.379,0,0,0,1.656.936c1.044,0,5.508-2.808,6.66-2.808a.36.36,0,0,1,.4.4c0,1.4-9.792,12.132-12.456,15.012C254.34,61.3,253.8,61.872,253.8,63.2a1.332,1.332,0,0,0,1.332,1.548c1.044,0,1.44-.684,2.772-2.988,1.656-2.916,6.732-7.236,12.348-7.236a4.653,4.653,0,0,1,5,4.968c0,6.336-10.4,9.36-10.764,9.468-1.26.36-1.4.4-1.4.612,0,.144.216.216.54.216,2.052,0,14.724-2.3,14.724-9.828a7.562,7.562,0,0,0-7.776-7.128,16.046,16.046,0,0,0-5.508,1.116,12.95,12.95,0,0,1-1.944.792c-.216,0-.252-.108-.252-.18a52.729,52.729,0,0,1,6.552-7.272c1.62-1.332,2.448-2.052,2.448-3.348,0-.9-.936-2.052-2.7-2.052a5.714,5.714,0,0,0-2.988.828,24.561,24.561,0,0,1-5.868,1.584C260.028,44.3,258.588,44.16,258.408,44.16Zm36.18,3.528c-.468.5,1.26,2.916,3.06,2.916a2.748,2.748,0,0,0,1.224-.468c1.188-.684,8.64-3.852,10.728-3.852.072,0,.216,0,.216.072a7.039,7.039,0,0,1-.9.756c-5.184,4.644-5.22,12.276-5.22,13.86,0,1.692,0,7.7,7.344,7.7.216,0,4.176,0,4.176-1.908,0-.864-.648-1.332-1.764-1.332-.324,0-2.88.216-3.42.216-2.124,0-4.392-.4-4.392-6.444,0-9.288,5.112-13.5,9.684-13.5.4,0,2.448.4,2.916.4a1.438,1.438,0,0,0,1.476-1.332c0-1.224-1.62-1.728-2.916-1.728-2.376,0-10.62,2.34-13.824,3.24-4.932,1.4-5.472,1.548-6.984,1.548C295.776,47.832,294.732,47.508,294.588,47.688Zm24.8,2.412a3.323,3.323,0,0,0-.9-.18c-.108,0-.5,0-.5.216,0,.18.144.324.324.468a9.327,9.327,0,0,1,2.376,2.88c.36.864.756,1.908,1.62,1.908.468,0,1.044-.4,1.044-1.332C323.352,52.332,321.516,50.784,319.392,50.1Zm-4.644,1.476c-.324-.072-.72-.036-.72.144a1.953,1.953,0,0,0,.36.648,9.423,9.423,0,0,1,1.8,2.808c.576,1.4.9,2.088,1.548,2.088A1.46,1.46,0,0,0,319,55.788C319,54.636,317.808,52.4,314.748,51.576ZM341.172,69.36c0-3.348-6.12-5.22-7.38-5.22-.288,0-.4.144-.4.252s.4.36.5.432a10.177,10.177,0,0,1,3.78,3.852c1.188,2.16,1.332,2.412,2.088,2.412A1.73,1.73,0,0,0,341.172,69.36ZM8.1,110.316a3.994,3.994,0,0,1-1.98-.432c-1.98-.9-2.2-1.008-2.484-1.008-.072,0-.216,0-.216.144,0,.216.288,1.26.324,1.512.216,1.908.216,15.336.216,18.252,0,3.312,0,3.888-.072,5.112-.036.864-.216,5.184-.216,5.472,0,.648,0,1.116,1.044,1.116A1.565,1.565,0,0,0,6.444,138.9c0-.972.72-.972,1.08-.972H28.512c1.08,0,1.08.432,1.08,1.44,0,.5.072,1.08.684,1.08,1.116,0,2.088-.5,2.088-1.728,0-2.34-.252-14.112-.252-14.8,0-1.8.036-10.836.072-11.592.036-.324.036-.5.324-.648.54-.288.612-.324.612-.576,0-.54-2.916-2.124-3.024-2.124-.18,0-.648.72-.792.864a1.706,1.706,0,0,1-1.3.468Zm20.484.936c.936,0,1.08.4,1.08,1.3.072,3.2.072,14.256.072,18.36,0,.792-.036,5.184-.108,5.472-.18.576-.72.576-1.044.576H7.416c-.72,0-1.044-.144-1.08-1.188-.036-3.1-.072-14.112-.072-18.108,0-1.152.036-5.364.072-5.616.108-.756.684-.792,1.08-.792Zm-18.324,8.5c.108.144.18.252.324.252.108,0,.612-.108.756-.108.828-.072,2.484-.072,3.348-.072.18,0,.684,0,.684.54,0,.612-2.3,6.192-7.02,12.024a4.757,4.757,0,0,0-.756.9l.072.072a2.842,2.842,0,0,0,.828-.5,27.89,27.89,0,0,0,7.776-9.5c.108-.18.18-.36.4-.36.324,0,.324.108.324,1.08,0,1.656-.036,5.76-.108,7.2-.036.576-.18,3.168-.18,3.6,0,.324.108.72.792.72.612,0,1.8-.4,1.8-1.332,0-.4-.18-2.268-.18-2.7-.144-4.932-.18-6.408-.18-10.332a.168.168,0,0,1,.18-.18c.18,0,.18.072.324.576,1.368,4.824,5.436,10.836,6.012,10.836a.768.768,0,0,0,.432-.252,4.844,4.844,0,0,1,1.26-.864c.288-.108,1.764-.36,2.016-.432-.144-.072-.4-.252-.468-.288a21.829,21.829,0,0,1-3.96-2.916,22.546,22.546,0,0,1-5.148-7.524c0-.36.288-.4.576-.4H24.7c1.98,0,2.2,0,2.2-.54,0-.576-2.268-2.34-2.484-2.34-.18,0-1.332,1.764-1.728,1.908a5.657,5.657,0,0,1-1.152.036H20.052c-1.152,0-1.152-.252-1.152-2.484a5.924,5.924,0,0,1,.144-1.692,3.718,3.718,0,0,0,.792-1.044c0-.648-3.132-1.08-3.276-1.08-.108,0-.36.036-.36.216a8.426,8.426,0,0,0,.324.864,26.923,26.923,0,0,1,.432,4.176.916.916,0,0,1-1.044,1.044c-1.908,0-3.888-.072-4.824-.144-.216,0-1.3-.108-1.548-.108-.108,0-.144.036-.144.108,0,.036.036.072.144.216Zm53.64,2.376c0,7.344-1.08,11.52-6.984,15.984-.828.612-.9.684-.9.792,0,.072.072.108.144.108a9.3,9.3,0,0,0,2.592-1.188c6.84-4.068,7.848-9.828,7.848-14.9,0-7.56-2.412-8.748-4.644-8.748-3.78,0-6.228,4.536-6.624,5.328-.252.468-.468.9-.648.9-.288,0-.288-.4-.288-.5a38.2,38.2,0,0,1,.792-4.464,22.5,22.5,0,0,0,.756-2.664,2.785,2.785,0,0,0-2.772-2.412,1.456,1.456,0,0,0-.972.252c0,.072.54.792.612.936a3.991,3.991,0,0,1,.468,2.232,24.61,24.61,0,0,1-.54,4.608,32.435,32.435,0,0,0-.648,5.724c0,2.844.792,5.832,2.448,5.832a1.2,1.2,0,0,0,1.3-1.3,3.6,3.6,0,0,0-.324-1.368,7.345,7.345,0,0,1-.468-2.664c0-3.816,2.88-8.856,5.94-8.856C63.18,115.752,63.9,118.164,63.9,122.124Zm29.736-8.676c-.936-.144-1.044-.18-1.152-.18-.072,0-.252.036-.252.144,0,.5,2.592,2.376,6.8,2.448,1.116.036,1.224.036,1.224.288,0,.432-1.584,2.34-1.584,2.628a.115.115,0,0,0,.108.108c.144,0,.18-.036.468-.288a10.622,10.622,0,0,1,4.248-2.376c2.412-.54,2.664-.648,2.664-1.188,0-.756-1.656-2.448-3.348-2.448a7.732,7.732,0,0,0-1.8.288,29.01,29.01,0,0,1-5.8.648A13.665,13.665,0,0,1,93.636,113.448Zm4.932,19.692c-2.772,0-6.264-1.188-7.092-4.032-.252-.828-.252-.9-.4-.9-.108,0-.5.5-.5,1.656,0,5.364,6.336,6.408,11.16,6.408,2.016,0,8.136-.18,8.136-2.124,0-.792-1.116-1.692-2.34-1.692-.468,0-2.808.36-3.348.432-1.512.18-2.952.324-3.42.324C100.4,133.212,98.784,133.14,98.568,133.14ZM110.736,114.1c-.612,0-1.332.18-1.332.432,0,.108.072.252.468.4A9.05,9.05,0,0,1,113,116.94c.684.792,1.116,1.332,1.872,1.332.648,0,.936-.684.936-1.08C115.812,115.752,113.94,114.1,110.736,114.1Zm-4.248,3.1c-.324,0-.612.216-.612.324,0,.144.4.4.576.54a9.487,9.487,0,0,1,2.628,1.98c1.224,1.332,1.476,1.476,1.944,1.476.576,0,1.008-.72,1.008-1.4a2.964,2.964,0,0,0-1.548-2.052A6.479,6.479,0,0,0,106.488,117.192Zm28.188,15.444c0,5.652,5.22,5.652,6.876,5.652,1.908,0,9.252-.18,9.252-2.016,0-.9-1.152-1.728-2.376-1.728a9.8,9.8,0,0,0-2.7.54,16.1,16.1,0,0,1-4.32.648c-2.916,0-5-.9-5-3.348,0-2.34,1.224-4.968,9.792-8.424,1.3-.5,2.772-1.08,2.772-2.16a1.383,1.383,0,0,0-1.368-1.332c-1.044,0-3.312,1.44-3.708,1.692-1.944,1.224-2.16,1.368-2.664,1.368-.936,0-.936-2.916-.936-4.284a33.886,33.886,0,0,1,.324-4.752c.072-.36.5-1.98.5-2.3,0-1.044-1.836-2.7-3.888-2.7-.108,0-.972.036-.972.18,0,.108.108.216.864,1.008a3.364,3.364,0,0,1,1.08,2.916c0,.936-.18,5.112-.18,5.94a11.576,11.576,0,0,0,.612,4.212,9.153,9.153,0,0,1,.324,1.116c0,.468-.468.936-1.548,1.944A8.161,8.161,0,0,0,134.676,132.636Zm39.24-4.392c1.152,0,1.548-.864,1.944-1.764.936-2.16,3.06-3.816,4.428-3.816,1.44,0,1.728,2.016,1.728,3.636a1.534,1.534,0,0,1-.54,1.26c-3.384,2.736-4.752,3.888-4.752,6.192,0,2.844,2.412,4.716,6.984,4.716.864,0,6.444-.144,6.444-2.376,0-.864-1.008-1.224-1.764-1.224-.468,0-2.772.576-3.276.648a11.143,11.143,0,0,1-2.3.216c-1.044,0-4.644,0-4.644-2.484,0-2.052,3.2-4.284,3.492-4.284.252,0,.252.288.252.432,0,.036-.108,1.764-.108,2.124,0,.648.144,1.836,1.116,1.836,1.332,0,1.332-2.052,1.332-2.628,0-.324-.072-1.836-.072-2.16,0-.756.036-1.152.612-1.512.648-.4,4.716-2.016,5.616-2.412,2.232-.972,5.076-2.16,5.076-3.852a3.4,3.4,0,0,0-3.384-3.2c-3.132,0-5.472,3.276-6.66,4.932a16.9,16.9,0,0,1-1.476,1.944c-.072,0-.108-.072-.36-.684a3.246,3.246,0,0,0-3.06-2.2,3.364,3.364,0,0,0-1.4.288,7.189,7.189,0,0,1-1.116.4.132.132,0,0,1-.144-.144c0-.144.072-.252.252-.576a27.917,27.917,0,0,0,1.944-3.888c.792-1.836.828-1.908,1.368-2.124,1.656-.648,4.284-1.656,4.284-2.844,0-.756-1.368-.936-1.62-.936-1.44-.108-1.584-.18-1.62-.648-.072-.792-.972-1.116-1.836-1.116-.648,0-1.584.288-1.584.576,0,.216.756.864.864,1.044a2.886,2.886,0,0,1,.288,1.26c0,.72,0,1.692-2.952,1.692a5.722,5.722,0,0,1-2.376-.648,8.085,8.085,0,0,0-1.368-.684c-.216,0-.216.144-.216.252a3.82,3.82,0,0,0,3.2,3.168c.324,0,1.8-.288,2.16-.288.144,0,.4.036.4.252A16.565,16.565,0,0,1,176,121.98c-2.448,2.844-3.456,4-3.456,5.076C172.548,128.028,173.232,128.244,173.916,128.244Zm7.74-15.048c0-.144.144-1.152.648-1.152.324,0,1.224.072,1.224.54,0,.4-1.728.864-1.8.864S181.656,113.34,181.656,113.2Zm9.432,5.76a1.108,1.108,0,0,1,1.26,1.08c0,2.376-7.092,5.256-7.2,5.256s-.144-.108-.144-.18C185,124.536,188.1,118.956,191.088,118.956Zm26.028-6.552c-.468,0-.792,0-.792-.36a3.464,3.464,0,0,1,.684-1.3c.108-.18.936-.972.936-1.224,0-.612-2.808-1.512-2.88-1.512-.144,0-.216.288-.324.828-.756,3.348-3.708,8.316-4,8.82a23.725,23.725,0,0,0-1.548,2.412c0,.108.036.18.18.18.468,0,2.052-1.908,2.232-1.908.216,0,.216.216.252.4.144,2.952.252,5.508.252,8.424,0,2.16-.18,7.956-2.016,12.6a5.3,5.3,0,0,0-.36.792c0,.108.072.108.144.108.216,0,.36-.144.648-.54,1.872-2.3,2.808-4.068,3.348-8.172.288-2.052.252-2.088,1.26-2.088h5.112c1.152,0,1.152.288,1.152,2.3,0,1.008-.072,4.5-.18,5-.144.5-.18.5-2.232.5-.756,0-.972.072-.972.216,0,.216.288.324.4.324a5.963,5.963,0,0,1,2.052,1.44c.468.576.576.756,1.044.756a2.308,2.308,0,0,0,2.052-2.124c0-1.944-.216-11.592-.216-13.788,0-.864.072-4.536.144-5.112.072-.216.792-1.08.792-1.3a3.215,3.215,0,0,0-1.8-1.944c-.288,0-.432.144-1.116.972a1.2,1.2,0,0,1-1.116.468c-.864,0-.972,0-.972-.252,0-.144,2.016-3.528,3.528-4.248.612-.288.864-.4.864-.756,0-.684-2.268-1.368-2.448-1.368-.216,0-.432.252-.9.828a1.43,1.43,0,0,1-1.44.612ZM215.28,123.1c-.936,0-.936-.324-.936-1.8,0-2.484,0-2.772.936-2.772h.612c.36,0,.756.108.864.432.108.252.108.5.108,2.772,0,.9,0,1.368-.936,1.368Zm-.108,5.8c-.936,0-.936-.5-.936-1.116,0-.4.072-2.916.108-3.168a.8.8,0,0,1,.9-.576h.684c.9,0,.9.252.9,2.52,0,2.124,0,2.34-.936,2.34Zm4.644-5.8a1.036,1.036,0,0,1-.72-.18c-.252-.252-.252-.5-.252-2.808,0-1.188,0-1.584.972-1.584,1.4,0,1.512,0,1.512,1.8a17.8,17.8,0,0,1-.072,2.376c-.144.4-.612.4-.864.4Zm.576.936c1.008,0,1.008.108,1.008,3.132,0,1.44,0,1.728-1.008,1.728-.936,0-1.26,0-1.44-.36a33.221,33.221,0,0,1-.108-3.384C218.844,124.068,219.1,124,220.392,124.032Zm-1.4-10.692c.216,0,.54,0,.54.36a24.3,24.3,0,0,1-1.332,3.1c-.288.612-.432.792-1.3.792h-2.052a1.688,1.688,0,0,1-1.728-1.008,23.607,23.607,0,0,1,1.476-2.232,1.892,1.892,0,0,1,1.908-1.008ZM225.54,111c.108.144.18.252.324.252.072,0,.4-.072.5-.072a30.7,30.7,0,0,1,3.168-.108c.252,0,.684,0,.684.612a12.334,12.334,0,0,1-3.456,7.668c-.252.288-1.764,1.512-1.764,1.62,0,.072.036.144.18.144a11.514,11.514,0,0,0,7.488-8.316c.4-1.584.432-1.728,1.368-1.728H236.7c1.08,0,1.116.576,1.116,1.116,0,6.12-1.152,6.12-2.484,6.12-.324,0-1.872-.072-2.2-.072-.072,0-.216,0-.216.144,0,.072.4.252.468.288a4.978,4.978,0,0,1,1.62,1.188c.828,1.116.864,1.152,1.152,1.152a4.442,4.442,0,0,0,3.42-2.988,52,52,0,0,0,.648-6.048c.036-.216.828-1.08.828-1.332,0-.828-2.2-1.512-2.52-1.512-.216,0-.288.036-.756.576a1.185,1.185,0,0,1-1.08.4h-5.868c-1.368,0-3.024-.072-4.392-.108-.252-.036-1.368-.144-1.62-.144-.072,0-.144.036-.144.108,0,.036.036.072.18.216Zm5.148,16.776c1.044,0,1.044.288,1.044,2.736,0,1.332,0,1.656-1.368,1.656-2.016-.036-3.888-.108-4.932-.144-.252,0-1.368-.144-1.584-.144a.115.115,0,0,0-.108.108c0,.036.108.144.144.216l.684.828c.144.18.216.252.324.252s1.332-.108,1.512-.144c1.44-.036,2.592-.036,4.212-.036,1.044,0,1.044.612,1.044,1.116,0,.864-.18,4.572-.18,5.364,0,.612.036,1.044.756,1.044a2,2,0,0,0,1.908-2.232c0-.324-.144-3.06-.144-3.672,0-1.08,0-1.62,1.116-1.62h4.392c1.728,0,1.908,0,1.908-.468,0-.4-1.836-2.3-2.376-2.3-.36,0-.468.108-1.4,1.224-.5.576-.72.648-2.556.612-1.08,0-1.08-.648-1.08-1.332,0-2.124,0-2.376.144-2.664a1.145,1.145,0,0,1,1.044-.4h2.664c1.728,0,1.944,0,1.944-.4a5.056,5.056,0,0,0-2.34-2.052c-.4,0-.5.144-1.08.9-.4.54-.648.612-1.62.612-.72,0-.72-.288-.72-1.3a7.456,7.456,0,0,1,.144-1.656c.036-.18.648-.72.648-.9,0-.612-2.592-1.08-3.2-1.08-.18,0-.4,0-.4.216a8.889,8.889,0,0,0,.36,1.044,21.777,21.777,0,0,1,.144,2.412c0,.828-.108,1.26-1.152,1.26H228.6c-.144,0-.432,0-.432-.288a9.688,9.688,0,0,1,1.116-1.908c.144-.216,1.116-.972,1.116-1.188,0-.468-2.736-1.62-2.916-1.62-.108,0-.18.036-.18.252,0,1.188,0,1.692-1.188,4.572-.288.648-1.8,3.96-1.8,4.032a.132.132,0,0,0,.144.144c.5,0,1.8-1.656,2.34-2.376a1.42,1.42,0,0,1,1.368-.684ZM281.2,125.76c.648,0,1.476,0,1.476-.5,0-.54-2.556-2.484-2.952-2.484-.288,0-.36.144-1.152,1.44-.144.216-.4.576-.72.576s-.612,0-.612-.4c0-.72.18-6.912.612-7.272.5-.468.684-.612.684-.864,0-.54-2.088-1.692-2.3-1.692-.18,0-.252.072-.828.684a1.51,1.51,0,0,1-1.4.54h-3.132c-.756,0-1.08-.288-1.08-1.044,0-.144.144-3.456.144-4.1,0-.612.036-.756.5-1.08.216-.144.468-.36.468-.612,0-.828-3.564-1.044-3.708-1.044-.18,0-.36,0-.36.144,0,.108.324,1.332.36,1.584.144,1.332.252,3.2.252,4.824,0,1.332-.216,1.332-2.16,1.332-.648,0-3.672-.108-4.212-.144-.18,0-1.116-.108-1.3-.108-.108,0-.144.036-.144.072,0,.072,0,.072.144.252l.72.828c.108.144.18.216.288.216.144,0,.648-.072.792-.072.4-.036,1.728-.108,4.428-.108.576,0,1.4,0,1.4.9,0,.36-.288,6.264-.36,6.588a.9.9,0,0,1-.972.612h-2.088c-1.368,0-3.024-.072-4.428-.144-.252,0-1.368-.108-1.62-.108-.072,0-.108,0-.108.072s0,.072.144.252l.684.828c.144.144.18.216.324.216.108,0,.648-.072.756-.072.576-.036,2.016-.108,4.068-.108h1.836c.324,0,1.116,0,1.116.9a23.561,23.561,0,0,1-1.548,5.688c-1.656,4.032-3.276,5.508-4.5,6.48a12.776,12.776,0,0,0-1.368,1.116c0,.144.18.144.216.144a7.917,7.917,0,0,0,2.736-1.224c4.572-3.132,6.228-8.136,6.768-12.276.108-.72.144-.828.36-.828.18,0,.288,0,.36.288a31.425,31.425,0,0,0,2.16,5.58,20.885,20.885,0,0,0,6.984,8.064.991.991,0,0,0,.54-.288,7.783,7.783,0,0,1,2.016-1.152c.216-.072,1.4-.18,1.4-.432a10.451,10.451,0,0,0-1.944-.756c-5.652-2.412-10.044-9.324-10.044-10.8,0-.5.5-.5,1.008-.5Zm-10.692-.936c-.792,0-1.116-.288-1.116-1.152,0-.216.252-5.364.288-6.012.036-.9.684-.936,1.08-.936h3.276c1.044,0,1.116.5,1.116,1.584,0,.252-.252,5.652-.252,5.76-.108.576-.468.756-1.08.756ZM253.476,109.6c.072.108.216.252.288.36a12.545,12.545,0,0,1,2.268,3.384c.324.828.72,1.08,1.116,1.08.324,0,1.152-.18,1.152-1.62a2.135,2.135,0,0,0-.864-1.872,9.453,9.453,0,0,0-3.636-1.584A.292.292,0,0,0,253.476,109.6Zm-3.6,8.748c.5.4,1.512,1.116,2.016,1.476a9.246,9.246,0,0,1,1.4,1.584c.18.252.648.828,1.08.828s1.008-.5,1.008-1.4c0-2.124-2.7-2.772-3.78-2.772C251.46,118.056,249.876,118.092,249.876,118.344Zm1.3,13.068a8.79,8.79,0,0,1,1.188.828,4.374,4.374,0,0,1,.972,2.484c0,.468-.216,2.664-.216,3.168,0,1.008.36,2.2,1.548,2.2A1.9,1.9,0,0,0,256.428,138c0-.864-1.44-5.076-1.44-6.084,0-1.4,3.816-12.636,3.816-13.9a.266.266,0,0,0-.252-.252c-.216,0-.216.072-.468.756-1.224,3.492-2.628,6.912-4.176,10.26-.864,1.872-1.26,2.052-1.656,2.232C252.108,131.088,251.136,131.232,251.172,131.412Zm43.416-14.724c-.468.5,1.26,2.916,3.06,2.916a2.748,2.748,0,0,0,1.224-.468c1.188-.684,8.64-3.852,10.728-3.852.072,0,.216,0,.216.072a7.039,7.039,0,0,1-.9.756c-5.184,4.644-5.22,12.276-5.22,13.86,0,1.692,0,7.7,7.344,7.7.216,0,4.176,0,4.176-1.908,0-.864-.648-1.332-1.764-1.332-.324,0-2.88.216-3.42.216-2.124,0-4.392-.4-4.392-6.444,0-9.288,5.112-13.5,9.684-13.5.4,0,2.448.4,2.916.4a1.438,1.438,0,0,0,1.476-1.332c0-1.224-1.62-1.728-2.916-1.728-2.376,0-10.62,2.34-13.824,3.24-4.932,1.4-5.472,1.548-6.984,1.548C295.776,116.832,294.732,116.508,294.588,116.688Zm24.8,2.412a3.323,3.323,0,0,0-.9-.18c-.108,0-.5,0-.5.216,0,.18.144.324.324.468a9.327,9.327,0,0,1,2.376,2.88c.36.864.756,1.908,1.62,1.908.468,0,1.044-.4,1.044-1.332C323.352,121.332,321.516,119.784,319.392,119.1Zm-4.644,1.476c-.324-.072-.72-.036-.72.144a1.953,1.953,0,0,0,.36.648,9.423,9.423,0,0,1,1.8,2.808c.576,1.4.9,2.088,1.548,2.088a1.46,1.46,0,0,0,1.26-1.476C319,123.636,317.808,121.4,314.748,120.576Zm29.016-11.088c-.72,0-1.4.612-1.4.972,0,.252.144.288,1.188.792a12.329,12.329,0,0,1,3.672,3.816c0,.252-1.26.432-2.124.432a6.588,6.588,0,0,1-2.484-.5,7.146,7.146,0,0,0-.936-.324.281.281,0,0,0-.288.288c0,.684,2.124,2.628,4.932,2.628.36,0,2.268-.324,2.34-.324.432,0,2.448,3.168,2.448,3.384s-2.736,1.152-5.58,1.152a9.176,9.176,0,0,1-3.78-.72,9.287,9.287,0,0,0-1.152-.648.332.332,0,0,0-.324.36,2.818,2.818,0,0,0,.864,1.548c1.116,1.08,2.592,1.368,4.752,1.368a17.115,17.115,0,0,0,4.32-.54c.288-.072,1.656-.468,1.872-.468.324,0,.36.108.9,1.152a12.789,12.789,0,0,1,1.62,4.428c0,.576-.4.756-.936.756a6.627,6.627,0,0,1-1.584-.216,14.882,14.882,0,0,0-3.456-.432c-5.436,0-6.984,3.564-6.984,5.652,0,5.04,6.048,5.04,7.092,5.04.432,0,4.212,0,4.212-2.052,0-1.152-1.26-1.3-1.692-1.3-.5,0-2.916.252-3.492.252-.936,0-4.1-.18-4.1-2.844,0-1.62,1.512-3.708,4.752-3.708a5.786,5.786,0,0,1,3.492,1.08c2.34,1.62,2.592,1.8,3.492,1.8a2.4,2.4,0,0,0,2.088-2.484c0-1.332-.54-2.916-2.3-5.652-1.116-1.764-1.152-1.836-1.152-2.016,0-.144.108-.216,1.044-.54,3.1-1.116,3.168-1.944,3.168-2.448,0-1.008-.936-1.584-2.124-1.584-.216,0-.936.072-2.232.18-.144.036-.5.072-.5.36,0,.144.468.648.468.792,0,.612-1.152,1.008-1.3,1.008-.324,0-1.944-2.592-2.2-3.024,0-.108.756-.4.864-.432a2.054,2.054,0,0,0,1.548-1.764,1.123,1.123,0,0,0-1.224-1.08c-.432,0-.54.072-1.26.5a3.374,3.374,0,0,1-1.4.576c-.252,0-1.26-1.512-1.872-3.708C346.68,109.92,344.556,109.488,343.764,109.488Zm50.472,25.38c-.5,0-.72-.324-1.224-.972a5.315,5.315,0,0,0-4.1-2.3c-2.052,0-3.564,1.62-3.564,2.916,0,1.8,2.556,3.708,6.12,3.708,4.572,0,9-3.2,9-7.776,0-4.068-3.492-7.488-8.1-7.488a8.708,8.708,0,0,0-3.168.576c-.216.072-.684.252-.9.324-.108,0-.216-.144-.216-.252,0-.612,3.168-5.544,5.76-7.38,1.728-1.188,2.556-1.764,2.556-2.808,0-1.584-2.34-2.484-3.78-2.484-.792,0-1.044.108-3.276,1.08a17.455,17.455,0,0,1-5.58,1.3c-.756,0-.864,0-.864.108,0,.18,1.116,2.484,2.808,2.484.612,0,1.116-.108,2.556-1.3.612-.5,2.736-2.3,4.068-2.3.432,0,.684.252.684.5,0,.4-.5,1.152-1.692,2.844-5.436,7.632-5.8,8.1-8.136,10.836-2.556,2.988-2.844,3.78-2.844,4.68a.992.992,0,0,0,1.044,1.008c.972,0,1.332-.684,2.052-1.908.648-1.116,3.708-6.048,8.46-6.048,3.6,0,6.084,2.52,6.084,5.472C397.98,132.672,395.46,134.868,394.236,134.868Zm-3.312.36a.6.6,0,0,1-.612.648c-1.548,0-3.1-.756-3.1-1.692a1.471,1.471,0,0,1,1.512-1.26A2.449,2.449,0,0,1,390.924,135.228Zm54.9-6.408c1.152,0,1.944,0,1.944-.468,0-.576-2.556-2.7-3.1-2.7-.4,0-1.476,1.584-1.728,1.8-.432.4-.864.4-1.656.4h-1.224c-1.008,0-1.008-.612-1.008-2.628a.943.943,0,0,1,.4-.9c.432-.36.612-.5.612-.792a.618.618,0,0,0-.432-.5c-.072-.036-.144-.072-.144-.18a18.421,18.421,0,0,1,1.872-1.62c.252-.18,1.944-1.548,1.98-1.548a.775.775,0,0,1,.4-.072c1.26,0,1.908,0,1.908-.72,0-.324-.18-.432-1.4-1.548-1.368-1.188-1.512-1.332-1.764-1.332-.324,0-.4.072-.828.864a1.221,1.221,0,0,1-1.152.576h-3.06c-2.052,0-3.924-.108-4.968-.144-.252,0-1.332-.108-1.548-.108-.072,0-.144,0-.144.072s0,.072.144.252l.72.828c.108.144.18.216.288.216.144,0,.684-.072.792-.072,1.224-.108,3.672-.108,4.536-.108h2.952a.476.476,0,0,1,.54.468,18.138,18.138,0,0,1-1.872,3.348.618.618,0,0,1-.54.324c-.108,0-1.3-.216-1.548-.216s-.468.036-.468.36c0,.216.288,1.152.324,1.332.072.684.18,2.232.18,2.916a.923.923,0,0,1-.972.936H433.8c-2.016,0-3.888-.072-4.932-.108-.252,0-1.368-.144-1.584-.144a.115.115,0,0,0-.108.108c0,.036,0,.036.144.216l.684.828c.144.18.216.252.324.252a5.461,5.461,0,0,0,.756-.108c1.26-.072,3.708-.072,4.536-.072h2.232a.954.954,0,0,1,1.044,1.008v6.228c0,1.152-.072,1.188-2.952,1.188-.216,0-1.224-.036-1.4-.036-.108.036-.324.036-.324.216a9.987,9.987,0,0,0,1.008.648,4.909,4.909,0,0,1,1.872,2.2c.18.288.288.4.576.4a4.221,4.221,0,0,0,2.772-1.26c.828-.9.9-1.908.9-3.456,0-.972-.144-5.22-.144-6.12a.916.916,0,0,1,.9-1.008Zm-19.3-15.084a.559.559,0,0,1,.576.576c0,.792-3.06,5.688-3.816,6.912-.324.5-.36.576-.864.576-.288,0-.288.144-.288.828s-3.312,5.076-4.932,6.8c-.18.18-1.476,1.62-1.476,1.656a.077.077,0,0,0,.072.072,30.288,30.288,0,0,0,5.508-4.572c.756-.792.828-.9.9-.9.18,0,.216.18.216.288.036.288.108,3.6.108,6.156,0,1.008,0,2.844-.072,4.464,0,.288-.144,3.024-.144,3.132a.853.853,0,0,0,.936.936c.108,0,1.728-.18,1.728-1.44,0-.828-.144-7.7-.18-9.144,0-.72-.108-4.248-.108-5.04a.742.742,0,0,1,.4-.792c.648-.432.756-.5.756-.792,0-.252-.216-.36-.792-.684-.144-.072-.252-.108-.252-.324,0-.144.036-.18.18-.36a44.405,44.405,0,0,0,4.788-7.488,1.349,1.349,0,0,1,1.4-.864H445.86c1.224,0,1.944,0,1.944-.54,0-.468-3.06-2.628-3.312-2.628-.324,0-.432.144-1.332,1.512-.468.684-.684.684-2.34.684h-9.54c-.288,0-.468-.108-.468-.36,0-.072.036-.108.18-.432.468-1.008.576-1.224,1.152-1.332.36-.072.9-.18.9-.684a.7.7,0,0,0-.576-.684c-.324-.18-3.384-1.512-3.42-1.512-.252,0-.252.108-.252,1.044a8.1,8.1,0,0,1-.684,3.276,1.1,1.1,0,0,1-1.152.684h-4.644c-1.692,0-3.168-.036-4.932-.108-.216-.036-1.332-.144-1.584-.144a.1.1,0,0,0-.108.108c0,.036,0,.072.144.216l.684.828c.144.144.18.252.324.252a5.461,5.461,0,0,0,.756-.108c.36,0,1.4-.072,4.536-.072Zm60.444,2.7c1.224,0,1.944,0,1.944-.54,0-.432-3.168-2.376-3.384-2.376-.324,0-.432.144-1.44,1.332-.54.612-.684.612-2.3.612H473c-.18,0-.792,0-.792-.5a20.6,20.6,0,0,1,1.908-4.1c.144-.144,1.008-.684,1.008-.9,0-.54-3.492-1.8-3.888-1.8-.144,0-.324.036-.324.252,0,.072.144.36.144.432a36.537,36.537,0,0,1-1.692,5.544c-.5,1.08-1.008,1.08-2.088,1.08h-2.664c-1.692,0-3.2-.036-4.968-.108-.216-.036-1.332-.144-1.584-.144a.1.1,0,0,0-.108.108.547.547,0,0,0,.144.216l.684.828c.108.144.216.252.324.252a5.461,5.461,0,0,0,.756-.108c.36-.036,1.4-.072,4.572-.072h2.592c.648,0,1.08.072,1.08.684,0,.684-2.016,4.572-3.24,6.48-.144.216-.216.216-.612.216-.288,0-.288.108-.288.828,0,.972-3.564,5-4.9,6.48-.5.54-1.224,1.368-1.548,1.692,0,.072.036.108.144.108.756,0,5.184-3.888,5.724-4.572a.6.6,0,0,1,.468-.288c.432,0,.5.18.5,4,0,1.4,0,4.716-.072,5.94,0,.36-.108,1.548-.108,1.764a.768.768,0,0,0,.864.828,1.634,1.634,0,0,0,1.836-1.548,7.766,7.766,0,0,0-.072-1.008c-.108-1.4-.18-3.6-.18-5.328,0-.936,0-5.976.18-6.444.072-.144.684-.648.684-.828,0-.252-.18-.324-.648-.612a.315.315,0,0,1-.216-.324.479.479,0,0,1,.108-.252,38.922,38.922,0,0,0,3.276-5.436c1.152-2.16,1.3-2.376,2.664-2.376Zm-1.188,10.4c1.224,0,1.944,0,1.944-.5,0-.432-3.132-2.376-3.384-2.376-.324,0-.432.144-1.44,1.332-.5.612-.684.612-2.3.612h-.648c-.36,0-1.044,0-1.116-.792v-4.1c0-.9.072-1.512.612-1.872.432-.252.5-.288.5-.432,0-.252-.252-.36-.5-.432a24.635,24.635,0,0,0-3.024-.648c-.216,0-.252.144-.252.36,0,.108.252,5.544.252,6.588,0,1.26-.432,1.332-1.26,1.332-.684,0-3.456-.108-3.924-.108-.216-.036-1.368-.144-1.62-.144-.072,0-.144.036-.144.072,0,.072.108.144.18.252l.684.828c.108.144.18.216.324.216.072,0,.936-.072,1.08-.072,1.224-.072,2.484-.108,3.744-.108a.908.908,0,0,1,.864.432,49.947,49.947,0,0,1,.18,5.4,26.882,26.882,0,0,1-.252,4.932c-.18.324-.468.36-.972.36-1.584,0-2.628,0-5.508-.108-.216,0-1.332-.144-1.584-.144-.072,0-.144.036-.144.108,0,.036.108.144.18.216l.684.828c.108.144.18.252.324.252a6.357,6.357,0,0,0,.756-.108c.36,0,1.4-.072,4.536-.072H487.08c1.224,0,1.944,0,1.944-.5,0-.468-3.132-2.376-3.384-2.376-.324,0-.432.108-1.44,1.332-.5.576-.684.576-2.3.576h-1.908c-1.044,0-1.08-.216-1.08-1.476,0-1.224-.108-7.272-.108-8.64,0-1.008.684-1.008,1.152-1.008Zm25.74-9.108c-1.224,0-1.944.252-4.968,2.664a13.667,13.667,0,0,1-5.868,2.772c-.612.072-.684.108-.684.252,0,.612,2.124,2.3,3.492,2.3a1,1,0,0,0,.576-.18c.072-.036,2.7-2.52,2.952-2.772,2.952-2.88,3.276-3.2,4.464-3.2.576,0,1.188.468,2.016,1.26.792.756,4.644,4.644,5.508,5.472,5.364,5.148,8.6,5.256,8.928,5.256,1.008,0,1.332-1.152,1.332-1.368,0-1.044-1.476-1.836-3.168-2.628a30.789,30.789,0,0,1-10.08-6.912C513.648,118.272,512.46,117.732,511.524,117.732Z" transform="translate(-1.01 30.418)" fill="#fff" stroke="#fff" stroke-width="0.5"/>
</svg>
