<svg xmlns="http://www.w3.org/2000/svg" width="145.146" height="14.178" viewBox="0 0 145.146 14.178">
  <path id="パス_130457" data-name="パス 130457" d="M6.239-12.682l.034.068a1.886,1.886,0,0,1,.578.782c.2.544.2,1.088.2,5.95A35.186,35.186,0,0,1,6.9-1.938c0,.068-.068.425-.068.493,0,.442.442,1.6.952,1.6.493,0,.493-1.122.493-1.547,0-.255-.017-.68-.034-.867-.068-1.53-.085-2.431-.085-4.233,0-1.258.068-1.258.238-1.258.527,0,1.326.8,1.8,1.428,1.139,1.479,1.19,1.547,1.615,1.547a.582.582,0,0,0,.612-.6c0-1.275-2.635-2.516-3.672-2.754-.493-.119-.561-.17-.561-.544a22.051,22.051,0,0,1,.153-2.363,4.926,4.926,0,0,0,.2-.714c0-.544-1.224-1.088-1.836-1.088C6.7-12.835,6.256-12.835,6.239-12.682ZM30.991-7.735c0,1.462-1.989,4.658-5.61,7.429a7.26,7.26,0,0,0-.952.714.11.11,0,0,0,.1.1,14.886,14.886,0,0,0,6.919-6,13.859,13.859,0,0,1,.867-1.462c.289-.17.357-.187.357-.323,0-.493-.68-.9-.952-1.037a3.783,3.783,0,0,0-.765-.425.115.115,0,0,0-.119.119,1.084,1.084,0,0,0,.034.153A1.724,1.724,0,0,1,30.991-7.735Zm-7.446.561c-.119,0-.221.051-.221.153,0,.051.034.1.119.221a6.081,6.081,0,0,1,.986,1.717c.119.374.238.765.612.765a.618.618,0,0,0,.578-.646C25.619-6.324,23.953-7.174,23.545-7.174Zm2.941-1.564c-.085-.017-.17.034-.17.085a1.921,1.921,0,0,0,.187.374,5.336,5.336,0,0,1,.629,1.615c.051.289.136.714.51.714.306,0,.578-.374.578-.867A2.154,2.154,0,0,0,26.486-8.738ZM53.618-13.26a1.615,1.615,0,0,0-1.666,1.615A1.67,1.67,0,0,0,53.6-10a1.658,1.658,0,0,0,1.632-1.649A1.582,1.582,0,0,0,53.618-13.26Zm-.034.578a1.137,1.137,0,0,1,1.088,1.071,1.048,1.048,0,0,1-1.054,1.037,1.055,1.055,0,0,1-1.105-1.02A1.094,1.094,0,0,1,53.584-12.682ZM41.327-10.608c-.1,0-.153.051-.153.374,0,.935,1.36,1.785,1.751,1.785a6.165,6.165,0,0,0,.85-.374,55.781,55.781,0,0,1,6.12-1.224c.085,0,.374.017.374.306a9.6,9.6,0,0,1-1.156,2.873A22.126,22.126,0,0,1,42.4-.136c-.17.119-.221.153-.221.221a.113.113,0,0,0,.119.1,17.3,17.3,0,0,0,8.772-7.922,2.814,2.814,0,0,1,.663-1.071c.306-.306.391-.391.391-.612,0-.238-.1-.425-.867-1.105-.527-.459-.8-.7-1.173-.7-.119,0-.187.034-.714.272a44.014,44.014,0,0,1-6.409.8,4,4,0,0,1-1.411-.357C41.514-10.506,41.361-10.608,41.327-10.608ZM64.022-8.789c-.119,0-.153.068-.153.136,0,.085.034.1.357.272.646.357,2.21,1.292,2.21,1.649a8.023,8.023,0,0,1-1.224,1.819,27.28,27.28,0,0,1-4.5,4.165c-.2.17-.527.425-.527.493s.068.085.119.085a17.2,17.2,0,0,0,6.664-5.338.489.489,0,0,1,.357-.238c.238,0,.561.578.731.884.595,1.054.85,1.5,1.462,1.5a.533.533,0,0,0,.544-.561c0-.425-.2-1.343-1.666-2.635a.676.676,0,0,1-.289-.459.78.78,0,0,1,.17-.425c.357-.561.68-1.139.969-1.7.442-.833.493-.918.68-1.02.374-.187.425-.2.425-.34a2.233,2.233,0,0,0-.731-1.224,2.65,2.65,0,0,0-1.139-.544.139.139,0,0,0-.136.153c0,.051.051.1.1.2a.757.757,0,0,1,.119.391,8.38,8.38,0,0,1-.629,2.04c-.2.493-.7,1.683-1.054,1.683a9.212,9.212,0,0,1-1.071-.459A6.831,6.831,0,0,0,64.022-8.789ZM89.131-7.735c0,1.462-1.989,4.658-5.61,7.429a7.26,7.26,0,0,0-.952.714.11.11,0,0,0,.1.1,14.886,14.886,0,0,0,6.919-6,13.86,13.86,0,0,1,.867-1.462c.289-.17.357-.187.357-.323,0-.493-.68-.9-.952-1.037a3.783,3.783,0,0,0-.765-.425.115.115,0,0,0-.119.119,1.084,1.084,0,0,0,.034.153A1.724,1.724,0,0,1,89.131-7.735Zm-7.446.561c-.119,0-.221.051-.221.153,0,.051.034.1.119.221a6.08,6.08,0,0,1,.986,1.717c.119.374.238.765.612.765a.618.618,0,0,0,.578-.646C83.759-6.324,82.093-7.174,81.685-7.174Zm2.941-1.564c-.085-.017-.17.034-.17.085a1.921,1.921,0,0,0,.187.374,5.336,5.336,0,0,1,.629,1.615c.051.289.136.714.51.714.306,0,.578-.374.578-.867A2.154,2.154,0,0,0,84.626-8.738ZM99.365-7.429c-.034,0-.1.017-.1.068,0,.068.68,1.36,1.547,1.36.374,0,.476-.051,1.479-.578a12.391,12.391,0,0,1,1.6-.476c.238,0,.34.119.34.391,0,.289-.034,1.768-.034,2.108,0,2.822.357,3.587,3.3,3.587.918,0,3.774,0,3.774-1.088a.659.659,0,0,0-.714-.544,6.405,6.405,0,0,0-1.411.238,14.42,14.42,0,0,1-1.87.17c-1.02,0-1.972-.153-2.108-1.5-.034-.323-.034-1.853-.034-3.281a.639.639,0,0,1,.527-.731c.221-.068,2.771-.9,2.805-.9.187,0,.2.238.2.34a2.913,2.913,0,0,1-.476,1.411c-.034.068-.323.544-.323.561a.1.1,0,0,0,.1.1,14.127,14.127,0,0,0,1.275-.765c.612-.374.8-.493,1.156-.493.068,0,.391.034.459.034.221,0,.306-.136.306-.255,0-.7-1.819-2.006-2.278-2.006a4.82,4.82,0,0,0-.731.357,20.6,20.6,0,0,1-2.55.714.3.3,0,0,1-.34-.323,14.207,14.207,0,0,1,.255-1.632,5.167,5.167,0,0,0,.323-.765c0-.17-.306-.459-.357-.51-.782-.663-.969-.748-1.173-.748-.153,0-.782.136-.782.289a3.387,3.387,0,0,0,.2.323c.408.612.612.9.612,2.737,0,.9-.034,1.037-.493,1.156-2.584.68-2.873.765-3.553.765a3.77,3.77,0,0,1-.629-.051A.994.994,0,0,0,99.365-7.429Zm21.556.578A9.258,9.258,0,0,1,118.847-7c-.085-.017-.493-.2-.578-.2s-.136.1-.136.2c0,.578.782,1.632,1.513,1.632.2,0,1.122-.272,1.326-.306.408-.085,4.3-.306,6.647-.306.34,0,2.04.034,2.431.034.714,0,1.411-.051,1.411-.527,0-.119-.153-.748-1.19-.748-.085,0-.272.017-.374.017C127.415-7.072,121.482-6.851,120.921-6.851ZM140.08-8.16c-.1,0-1.19,0-1.19.255,0,.068.119.136.17.17a4.407,4.407,0,0,1,1.547,1.394c.255.425.34.527.6.527.408,0,.646-.493.646-.85C141.848-7.5,140.811-8.16,140.08-8.16Zm2.839-3.145a2.34,2.34,0,0,0-.867-.17c-.51,0-1.292.17-1.292.357,0,.068.017.068.255.153a2.875,2.875,0,0,1,1.479.918c.6.7.663.782.85.782.272,0,.561-.357.561-.8A1.485,1.485,0,0,0,142.919-11.305ZM140.743-.323c.187,0,.255-.051.884-.544.136-.1.2-.153,1.241-.8,6.664-4.2,7.514-6.834,7.514-6.868a.109.109,0,0,0-.1-.1c-.051,0-1.037,1-1.224,1.19-2.992,2.754-7.616,5.287-8.534,5.287-.17,0-.935-.272-.986-.272a.125.125,0,0,0-.136.136.692.692,0,0,0,.085.306c.034.085.306.442.357.544C140.182-.714,140.386-.323,140.743-.323Zm8.432-13.345c-.306,0-.646,0-.646.153,0,.034.034.119.187.2a4.266,4.266,0,0,1,1.377,1.1c.238.391.476.748.833.748a.5.5,0,0,0,.459-.544C151.385-13.175,149.617-13.668,149.175-13.668ZM147.22-12.58c-.1,0-.306.017-.306.119,0,.068.153.221.221.272a5.3,5.3,0,0,1,1.088,1.139c.425.663.578.85.833.85.323,0,.544-.442.544-.646C149.6-11.747,148.206-12.58,147.22-12.58Z" transform="translate(-6.239 13.668)" fill="#fff"/>
</svg>
