<svg xmlns="http://www.w3.org/2000/svg" width="429.836" height="29.92" viewBox="0 0 429.836 29.92">
  <g id="グループ_12592" data-name="グループ 12592" transform="translate(-1.628 -15.2)">
    <path id="パス_38592" data-name="パス 38592" d="M1.628-8.668c.088,3.168.088,5.588.132,6.6C2.772-.924,5.852.66,9.416.66c5.192,0,9.768-3.3,9.768-8.492,0-3.564-2.156-5.9-5.192-8.14l-1.32-.968c-2.288-1.716-3.96-3.3-3.96-5.808a4.8,4.8,0,0,1,4.8-5.016c3.784,0,4.928,3.168,5.28,6.38l1.32-.132c.044-2.112,0-4.444.132-6.248-.352-.132-1.056-.44-1.892-.748a14.133,14.133,0,0,0-4.356-.748c-5.28,0-9.02,3.3-9.02,7.964,0,3.652,2.816,6.116,4.972,7.788l1.276.968c2.508,1.98,3.96,3.7,3.96,6.116C15.18-3.08,13.156-.88,9.988-.88,5.192-.88,3.344-5.544,2.9-8.8ZM26.8.528a2.684,2.684,0,0,0,2.684-2.86A2.283,2.283,0,0,0,27.236-4.8a2.732,2.732,0,0,0-2.728,2.9A2.279,2.279,0,0,0,26.8.528ZM52.36-28.556H40.876l-.308,1.232c3.608.308,3.916.572,3.3,3.828L40.3-5.236c-.66,3.388-.924,3.74-4.312,4L35.684,0H47.256l.264-1.232c-3.564-.264-3.872-.572-3.212-4l3.52-18.26c.66-3.256.88-3.52,4.268-3.828ZM56.408.528a2.684,2.684,0,0,0,2.684-2.86A2.283,2.283,0,0,0,56.848-4.8a2.732,2.732,0,0,0-2.728,2.9A2.279,2.279,0,0,0,56.408.528ZM98.736-28.556H88.748L88.4-27.324c3.212.176,4,.66,3.828,2.728a68.059,68.059,0,0,1-1.144,7.524L89.1-6.556h-.132l-12.716-22H69.608L69.3-27.324c2.332.132,3.168.4,3.7,1.32.528.968.7,1.672.22,4.092l-2.2,10.472c-.88,4.092-1.364,6.072-1.848,7.568C68.6-1.936,67.584-1.364,65.3-1.232L64.988,0H75.2l.264-1.232c-3.08-.22-3.872-.7-3.74-2.728a56.7,56.7,0,0,1,1.1-7.392l2.244-11.44H75.2L88.132.352h1.5l3.3-17.424a74.7,74.7,0,0,1,1.716-7.48c.572-1.936,1.144-2.64,3.828-2.772ZM111.672-8.668c.088,3.168.088,5.588.132,6.6C112.816-.924,115.9.66,119.46.66c5.192,0,9.768-3.3,9.768-8.492,0-3.564-2.156-5.9-5.192-8.14l-1.32-.968c-2.288-1.716-3.96-3.3-3.96-5.808a4.8,4.8,0,0,1,4.8-5.016c3.784,0,4.928,3.168,5.28,6.38l1.32-.132c.044-2.112,0-4.444.132-6.248-.352-.132-1.056-.44-1.892-.748a14.133,14.133,0,0,0-4.356-.748c-5.28,0-9.02,3.3-9.02,7.964,0,3.652,2.816,6.116,4.972,7.788l1.276.968c2.508,1.98,3.96,3.7,3.96,6.116,0,3.344-2.024,5.544-5.192,5.544-4.8,0-6.644-4.664-7.084-7.92ZM161.92-28.556h-9.548l-.352,1.232,1.276.176c1.672.264,1.936.616,1.012,2.156-1.716,2.9-4.8,7.3-6.864,10.208-1.232-3.08-2.992-7.964-3.872-10.428-.4-1.32-.308-1.672,1.144-1.892l1.5-.22.308-1.232H136.092l-.352,1.232c2.772.308,3.08.528,4.092,3.212,1.716,4.532,2.772,7.436,3.74,10.12a3.983,3.983,0,0,1,.22,2.64l-1.144,5.808c-.748,3.784-1.056,4.048-4.664,4.312L137.676,0H149.82l.308-1.232c-3.916-.352-4.268-.572-3.52-4.312l1.232-6.072a6.532,6.532,0,0,1,1.1-2.552c2.86-4.092,5.148-7.348,7.084-9.768,2.244-2.816,2.772-3.08,5.544-3.388Zm38.192,0H192.72L179.388-7.084c-1.716-7.656-3.168-14.432-4.62-21.472h-7.612l-.352,1.232c4.092.352,4.356.748,3.08,5.016l-2.552,8.756c-1.584,5.324-2.376,7.832-3.08,9.592-.748,1.892-1.628,2.508-4.092,2.728L159.852,0H169.8l.264-1.232c-3.168-.308-3.608-.836-3.3-2.772a81.427,81.427,0,0,1,2.024-8.4l3.168-11.44h.132c1.584,8.4,2.992,15.84,4.356,23.672H177.5l14.3-24.068h.132c-.924,6.072-1.892,11.792-2.86,18.26-.66,4.18-.88,4.4-4.18,4.752L184.58,0h11.4l.264-1.232c-3.476-.352-3.74-.484-3.212-4.752.748-5.764,1.408-10.912,2.376-17.292.528-3.564.66-3.74,4.4-4.048Zm6.292,0-.264,1.232c3.476.308,3.74.572,3.08,3.828L205.7-5.324c-.7,3.52-1.056,3.784-4.4,4.092L200.992,0h9.592c3.476,0,6.6-.352,9.064-1.54,2.948-1.408,5.016-3.872,5.016-7.128,0-4.048-3.036-6.16-6.468-6.864v-.088c3.916-.792,7.216-2.86,7.216-6.864,0-4.444-3.344-6.072-8.492-6.072Zm5.28,12.408,1.584-8.536c.22-1.188.484-1.716.836-1.98a3.384,3.384,0,0,1,1.98-.44c2.464,0,5.016,1.1,5.016,4.664,0,3.784-2.552,6.292-7.392,6.292Zm-.308,1.5h1.98c3.608,0,6.732,1.408,6.732,5.764a6.954,6.954,0,0,1-7.172,7.348c-2.684,0-3.916-.616-3.3-3.916ZM247.808-29.26c-9.24,0-16.06,8.228-16.06,17.424,0,7.48,4.8,12.5,11.748,12.5,9.416,0,16.1-7.92,16.1-17.292C259.6-24.024,254.892-29.26,247.808-29.26Zm-.308,1.584c5.456,0,7.48,4.664,7.48,10.472,0,7.3-4.092,16.28-11.132,16.28-5.192,0-7.524-4.532-7.524-10.384C236.324-19.14,240.856-27.676,247.5-27.676Zm35.508,20.24a18.355,18.355,0,0,1-3.124,4.488c-1.1,1.056-2.6,1.364-5.06,1.364-1.936,0-3.256-.088-3.872-.616-.66-.572-.7-1.584-.44-3.168l3.476-18.084c.616-3.3.792-3.564,4.312-3.872l.264-1.232h-11.4l-.264,1.232c3.564.308,3.784.528,3.124,3.872l-3.564,18.26c-.66,3.344-.968,3.7-4.356,3.96L261.8,0h19.668c.66-1.408,2.244-5.5,2.816-6.952ZM339.2-28.556H331.8L318.472-7.084c-1.716-7.656-3.168-14.432-4.62-21.472H306.24l-.352,1.232c4.092.352,4.356.748,3.08,5.016l-2.552,8.756c-1.584,5.324-2.376,7.832-3.08,9.592-.748,1.892-1.628,2.508-4.092,2.728L298.936,0h9.944l.264-1.232c-3.168-.308-3.608-.836-3.3-2.772a81.433,81.433,0,0,1,2.024-8.4l3.168-11.44h.132c1.584,8.4,2.992,15.84,4.356,23.672h1.056l14.3-24.068h.132c-.924,6.072-1.892,11.792-2.86,18.26-.66,4.18-.88,4.4-4.18,4.752L323.664,0h11.4l.264-1.232c-3.476-.352-3.74-.484-3.212-4.752.748-5.764,1.408-10.912,2.376-17.292.528-3.564.66-3.74,4.4-4.048ZM367.18-1.232c-3.08-.352-3.344-.7-3.916-4-.968-5.368-1.936-10.956-2.86-16.676l-1.144-7.3-1.54.4L344.608-5.632c-2.112,3.784-2.6,4-5.28,4.4L338.976,0h9.548l.308-1.232c-3.388-.308-3.652-.66-2.42-3.168.924-1.98,2.156-4.356,2.948-5.808h9.064c.4,2.42.748,4.444,1.012,6.248.264,1.936.088,2.42-2.9,2.728L356.18,0h10.692Zm-9.064-10.912h-7.788c1.892-3.652,3.916-7.216,5.984-11.088h.088ZM397.1-.792a5.3,5.3,0,0,1-2.9-2.068,32.879,32.879,0,0,1-2.728-4.664c-1.012-2.024-2.156-4.752-2.6-5.9,3.564-1.232,6.864-3.916,6.864-8.36a6.063,6.063,0,0,0-2.728-5.412c-1.54-1.056-3.916-1.364-6.336-1.364h-9.856l-.264,1.232c3.476.308,3.652.484,2.992,4.048L376.112-5.588c-.748,3.784-1.012,4-4.356,4.356L371.448,0h11.4l.264-1.232c-3.476-.308-3.784-.572-3.036-4.4L381.3-12.5h1.716c1.54,0,2.112.4,2.772,2.024.924,2.244,1.848,4.444,2.948,6.512,1.54,2.9,2.992,4.136,7.48,4.312h.528ZM381.612-13.948l2.068-10.78c.22-1.144.44-1.672.792-1.936a3.228,3.228,0,0,1,1.936-.44c3.036,0,4.972,1.892,4.972,5.676a7.615,7.615,0,0,1-3.256,6.38,8.1,8.1,0,0,1-4.62,1.1Zm49.852-14.608H421.212l-.308,1.232,1.232.176c1.54.22,1.628.616.352,1.892-3.036,3.036-6.424,6.072-8.712,7.964a10.284,10.284,0,0,1-3.3,1.936l1.5-7.744c.7-3.608.924-3.872,4.224-4.224l.264-1.232h-11l-.308,1.232c3.432.352,3.652.616,2.948,4.224L404.756-5.632c-.7,3.828-1.056,4.092-4.18,4.4L400.224,0h11.132l.264-1.232c-3.476-.308-3.652-.572-2.948-4.4l1.54-8.4c.88-.4,1.54-.176,2.376,1.276C415.1-8.536,417.912-4.092,420.552,0h6.688l.308-1.232c-2.42-.308-3.08-.7-4.8-3.036-2.068-2.948-5.5-8.228-7.744-12.1,3.652-3.168,6.732-5.852,9.416-8.008,2.728-2.2,3.608-2.552,6.732-2.992Z" transform="translate(0 44.46)" fill="#fff"/>
  </g>
</svg>
