<svg id="グループ_12597" data-name="グループ 12597" xmlns="http://www.w3.org/2000/svg" xmlns:xlink="http://www.w3.org/1999/xlink" width="398.298" height="307.507" viewBox="0 0 398.298 307.507">
  <defs>
    <clipPath id="clip-path">
      <rect id="長方形_8651" data-name="長方形 8651" width="398.296" height="307.507" fill="none"/>
    </clipPath>
    <linearGradient id="linear-gradient" x1="0.132" y1="1.092" x2="0.868" y2="-0.092" gradientUnits="objectBoundingBox">
      <stop offset="0" stop-color="#e6ebee"/>
      <stop offset="0.4" stop-color="#b1b8bd"/>
      <stop offset="0.52" stop-color="#abb2b7"/>
      <stop offset="0.68" stop-color="#9ba1a6"/>
      <stop offset="0.85" stop-color="#80868b"/>
      <stop offset="1" stop-color="#656b70"/>
    </linearGradient>
  </defs>
  <g id="グループ_12594" data-name="グループ 12594">
    <g id="グループ_12593" data-name="グループ 12593" clip-path="url(#clip-path)">
      <path id="パス_29020" data-name="パス 29020" d="M52.638,218.812c.229,1.582,1.081,3.725,3.369,3.725a2.445,2.445,0,0,0,2.5-2.685c0-1.185-.727-1.976-1.934-2.932l-.582-.458c-.959-.771-2.331-1.914-2.331-3.641,0-2.164,1.727-3.725,4.223-3.725a6.116,6.116,0,0,1,1.976.354c.4.145.749.27.916.332-.083.874-.041,1.976-.063,2.913l-.6.063c-.167-1.561-.709-2.976-2.5-2.976a2.324,2.324,0,0,0-2.331,2.434c0,1.207.854,1.956,1.936,2.789l.623.457c1.436,1.081,2.414,2.165,2.414,3.808,0,2.434-2.143,3.975-4.536,3.975a5.359,5.359,0,0,1-3.579-1.291c-.019-.479-.019-1.6-.062-3.08Z" transform="translate(19.747 79.29)" fill="#1a1311"/>
      <path id="パス_29021" data-name="パス 29021" d="M64.842,213a7.828,7.828,0,0,1,1.935-.25c2.142,0,3,1.021,3,2.871A6.72,6.72,0,0,1,68,219.932a8.227,8.227,0,0,1-3.87,2.415,3.375,3.375,0,0,1-1.227-.21l-.582,2.935c-.251,1.185-.126,1.372.9,1.476l.5.041-.062.542-4.807.25.084-.541c1.31-.251,1.539-.416,1.83-1.706.771-3.642,1.561-7.284,2.331-10.882a9.821,9.821,0,0,0-1.685.75l-.146-.52a9.994,9.994,0,0,1,2-1.041l.228-.936a6.357,6.357,0,0,1,1.52-1.205l.207.1Zm-1.6,7.719a1.869,1.869,0,0,0,1.291.708c1.476,0,3.495-2.809,3.495-5.473,0-1.851-.979-2.309-2.185-2.309a5.018,5.018,0,0,0-1.186.145Z" transform="translate(22.316 80.126)" fill="#1a1311"/>
      <path id="パス_29022" data-name="パス 29022" d="M78.1,219.782a5.675,5.675,0,0,1-3.038,2.165c-.4,0-.665-.313-.374-1.833l.417-1.976h-.043a15.056,15.056,0,0,1-2.683,2.873,3.456,3.456,0,0,1-1.936.936c-.542,0-1.207-.687-1.207-2.353a7.663,7.663,0,0,1,2.5-5.637,6.583,6.583,0,0,1,3.869-1.6,6.755,6.755,0,0,1,1.291.146,4.13,4.13,0,0,0,.79.126l.062.081c-.332,1.291-.956,4.12-1.434,6.762-.148.728-.084.9.04.9a4.508,4.508,0,0,0,1.5-1.081Zm-2.7-3.245c.229-.832.539-2.331.687-3a3.488,3.488,0,0,0-1.394-.291,2.588,2.588,0,0,0-1.479.436c-1.414,1.04-2.247,3.5-2.247,5.555,0,.936.27,1.374.561,1.374.811,0,3.164-2.643,3.871-4.078" transform="translate(26.253 80.526)" fill="#1a1311"/>
      <path id="パス_29023" data-name="パス 29023" d="M84.491,219.638a6.147,6.147,0,0,1-4.161,2.309c-1.331,0-2.227-1.061-2.227-3.058a7.2,7.2,0,0,1,2.143-4.994,6.117,6.117,0,0,1,3.331-1.541c.892,0,1.56.52,1.579,1.04a1.146,1.146,0,0,1-.687.959c-.166.1-.31.062-.457-.125a1.832,1.832,0,0,0-1.561-.9,2.156,2.156,0,0,0-1.725,1.375,8.159,8.159,0,0,0-.916,3.765c0,1.476.582,2.247,1.476,2.247a4.912,4.912,0,0,0,2.892-1.541Z" transform="translate(29.617 80.525)" fill="#1a1311"/>
      <path id="パス_29024" data-name="パス 29024" d="M91.951,219.595c-1.833,1.957-3.393,2.353-4.39,2.353-.959,0-2.289-.564-2.289-3.038a6.911,6.911,0,0,1,2.5-5.39,5.2,5.2,0,0,1,2.87-1.165,1.715,1.715,0,0,1,1.833,1.666c0,2.059-3.5,3.183-5.493,3.682a3.71,3.71,0,0,0-.043.666c0,1.123.354,2.35,1.623,2.35a4.841,4.841,0,0,0,3.038-1.6Zm-2.934-6.137c-.563.313-1.6,1.269-1.957,3.6,2.976-.79,3.849-1.747,3.849-2.7a1.024,1.024,0,0,0-1.04-1.143,1.708,1.708,0,0,0-.852.248" transform="translate(32.335 80.525)" fill="#1a1311"/>
      <path id="パス_29025" data-name="パス 29025" d="M104.859,209.879c-1.623.167-1.728.27-2.019,1.789l-1.684,8.759c-.313,1.6-.188,1.727,1.517,1.852l-.126.561H97.222l.146-.561c1.623-.126,1.767-.272,2.08-1.852l1.685-8.759c.292-1.518.145-1.622-1.582-1.789l.148-.542h5.282Z" transform="translate(36.867 79.381)" fill="#1a1311"/>
      <path id="パス_29026" data-name="パス 29026" d="M113.065,219.929a5.667,5.667,0,0,1-2.934,2.018c-.52,0-.708-.563-.332-2.164.4-1.561.749-3.08,1.123-4.619.291-1.186.167-1.5-.166-1.5-.916,0-3.328,2.579-4.371,4.349-.248,1.019-.561,2.266-.811,3.516a10.1,10.1,0,0,0-1.5.417l-.124-.166c.561-2.249,1.186-4.746,1.684-7.055.168-.665.106-.832-.019-.832a3.841,3.841,0,0,0-1.353.936l-.27-.5a5.634,5.634,0,0,1,2.934-1.976c.479,0,.561.708.166,2.309l-.436,1.811h.041a14.029,14.029,0,0,1,3.829-3.662,2.805,2.805,0,0,1,1.394-.458c.5,0,1.081.313.457,2.976-.332,1.415-.666,2.87-1.018,4.327-.126.563-.106.749.041.749a3.634,3.634,0,0,0,1.372-.978Z" transform="translate(39.419 80.525)" fill="#1a1311"/>
      <path id="パス_29027" data-name="パス 29027" d="M122.345,219.929a5.667,5.667,0,0,1-2.934,2.018c-.52,0-.708-.563-.332-2.164.4-1.561.749-3.08,1.123-4.619.291-1.186.167-1.5-.165-1.5-.916,0-3.331,2.579-4.371,4.349-.248,1.019-.561,2.266-.811,3.516a10.1,10.1,0,0,0-1.5.417l-.124-.166c.561-2.249,1.186-4.746,1.684-7.055.168-.665.106-.832-.019-.832a3.841,3.841,0,0,0-1.353.936l-.27-.5a5.634,5.634,0,0,1,2.934-1.976c.479,0,.561.708.166,2.309l-.436,1.811h.041a14.029,14.029,0,0,1,3.829-3.662,2.805,2.805,0,0,1,1.394-.458c.5,0,1.081.313.457,2.976-.332,1.415-.666,2.87-1.018,4.327-.126.563-.106.749.041.749a3.623,3.623,0,0,0,1.372-.978Z" transform="translate(42.938 80.525)" fill="#1a1311"/>
      <path id="パス_29028" data-name="パス 29028" d="M122.5,218.7a6.33,6.33,0,0,1,3.164-5.68,5.274,5.274,0,0,1,2.247-.668c1.725,0,2.767,1.187,2.767,3.247a6.735,6.735,0,0,1-2.226,5.034,5.172,5.172,0,0,1-3.2,1.313c-1.978,0-2.747-1.561-2.747-3.247m4.162,2.288c1.123-.479,2.266-2.683,2.266-5.346,0-1.685-.727-2.5-1.684-2.5a1.86,1.86,0,0,0-.792.185c-.811.354-2.205,2.062-2.205,5.266,0,1.539.645,2.517,1.749,2.517a1.716,1.716,0,0,0,.666-.125" transform="translate(46.452 80.525)" fill="#1a1311"/>
      <path id="パス_29029" data-name="パス 29029" d="M134.562,219.886c.852-1.059,3.225-4.1,3.225-5.492a1.762,1.762,0,0,0-.229-.916.749.749,0,0,1,0-.52,1.011,1.011,0,0,1,.9-.6c.5,0,.873.479.894,1.187a5.2,5.2,0,0,1-1.291,2.787c-1.205,1.685-3.058,4.077-4.3,5.618h-.563c-.063-1.935-.291-5.2-.4-6.471-.1-1.248-.229-1.6-.374-1.6-.188,0-.563.332-1.227,1.1l-.332-.458c.749-1.081,1.81-2.164,2.476-2.164.541,0,.811.792.914,2.309.084,1.833.208,3.518.27,5.223Z" transform="translate(49.622 80.525)" fill="#1a1311"/>
      <path id="パス_29030" data-name="パス 29030" d="M147.859,219.782a5.682,5.682,0,0,1-3.04,2.165c-.4,0-.663-.313-.372-1.833l.417-1.976h-.044a15.007,15.007,0,0,1-2.681,2.873,3.459,3.459,0,0,1-1.938.936c-.541,0-1.207-.687-1.207-2.353a7.659,7.659,0,0,1,2.5-5.637,6.583,6.583,0,0,1,3.867-1.6,6.769,6.769,0,0,1,1.292.146,4.118,4.118,0,0,0,.789.126l.062.081c-.331,1.291-.954,4.12-1.433,6.762-.148.728-.084.9.039.9a4.508,4.508,0,0,0,1.5-1.081Zm-2.7-3.245c.229-.832.539-2.331.687-3a3.493,3.493,0,0,0-1.394-.291,2.593,2.593,0,0,0-1.48.436c-1.412,1.04-2.247,3.5-2.247,5.555,0,.936.27,1.374.561,1.374.812,0,3.165-2.643,3.873-4.078" transform="translate(52.707 80.526)" fill="#1a1311"/>
      <path id="パス_29031" data-name="パス 29031" d="M153.1,214.2l-2.061.1-1.226,5.742c-.21,1.021-.106,1.25.123,1.25a4.59,4.59,0,0,0,1.873-1.207l.292.436c-.687.833-2.247,2.227-3.35,2.227-.479,0-.9-.6-.436-2.747l1.226-5.7H148l-.062-.188.52-.623h1.247l.48-1.976,1.582-1.291.188.126-.73,3.142h2.415Z" transform="translate(56.1 79.719)" fill="#1a1311"/>
      <path id="パス_29032" data-name="パス 29032" d="M157.558,220.965c-.685.852-2.309,2.08-3.036,2.08-.417,0-.687-.334-.272-2.038l1.29-5.326c.126-.458.126-.666-.021-.666a4.013,4.013,0,0,0-1.414.9l-.251-.479a7,7,0,0,1,3.164-1.978c.458,0,.436.668.207,1.645l-1.434,5.742c-.126.5-.084.665.04.665a4.237,4.237,0,0,0,1.458-.978Zm.542-10.57A1.162,1.162,0,0,1,157,211.6a.876.876,0,0,1-.873-.916,1.223,1.223,0,0,1,1.143-1.228.862.862,0,0,1,.833.936" transform="translate(58.342 79.427)" fill="#1a1311"/>
      <path id="パス_29033" data-name="パス 29033" d="M159.244,218.7a6.33,6.33,0,0,1,3.164-5.68,5.275,5.275,0,0,1,2.247-.668c1.725,0,2.767,1.187,2.767,3.247a6.735,6.735,0,0,1-2.226,5.034,5.173,5.173,0,0,1-3.2,1.313c-1.978,0-2.747-1.561-2.747-3.247m4.162,2.288c1.123-.479,2.266-2.683,2.266-5.346,0-1.685-.727-2.5-1.684-2.5a1.86,1.86,0,0,0-.792.185c-.811.354-2.205,2.062-2.205,5.266,0,1.539.645,2.517,1.749,2.517a1.716,1.716,0,0,0,.666-.125" transform="translate(60.386 80.525)" fill="#1a1311"/>
      <path id="パス_29034" data-name="パス 29034" d="M176.972,219.929a5.667,5.667,0,0,1-2.934,2.018c-.52,0-.708-.563-.332-2.164.4-1.561.749-3.08,1.123-4.619.291-1.186.167-1.5-.165-1.5-.916,0-3.328,2.579-4.371,4.349-.248,1.019-.561,2.266-.811,3.516a10.1,10.1,0,0,0-1.5.417l-.124-.166c.561-2.249,1.186-4.746,1.684-7.055.168-.665.106-.832-.019-.832a3.841,3.841,0,0,0-1.353.936l-.27-.5a5.634,5.634,0,0,1,2.934-1.976c.479,0,.561.708.165,2.309l-.436,1.811h.041a14.029,14.029,0,0,1,3.829-3.662,2.805,2.805,0,0,1,1.394-.458c.5,0,1.081.313.456,2.976-.332,1.415-.666,2.87-1.018,4.327-.125.563-.106.749.041.749a3.634,3.634,0,0,0,1.372-.978Z" transform="translate(63.653 80.525)" fill="#1a1311"/>
      <path id="パス_29035" data-name="パス 29035" d="M197.3,209.879c-1.25.083-1.541.394-1.811,1.31a35.107,35.107,0,0,0-.79,3.536l-1.581,8.281H192.5l-6.158-11.025h-.063l-1.081,5.533a28.414,28.414,0,0,0-.541,3.5c-.041.956.334,1.165,1.77,1.269l-.126.561h-4.765l.125-.561c1.081-.062,1.56-.313,1.832-1.207a32.265,32.265,0,0,0,.872-3.62l1.084-5.12c.207-1.059.145-1.35-.125-1.808-.25-.439-.6-.563-1.77-.645l.126-.542h3l6.136,10.591h.084l.957-5.2a32.9,32.9,0,0,0,.561-3.556c.063-.981-.269-1.187-1.811-1.291l.148-.542h4.681Z" transform="translate(68.837 79.381)" fill="#1a1311"/>
      <path id="パス_29036" data-name="パス 29036" d="M200.553,219.595c-1.833,1.957-3.393,2.353-4.39,2.353-.959,0-2.29-.564-2.29-3.038a6.911,6.911,0,0,1,2.5-5.39,5.2,5.2,0,0,1,2.87-1.165,1.715,1.715,0,0,1,1.833,1.666c0,2.059-3.5,3.183-5.493,3.682a3.71,3.71,0,0,0-.043.666c0,1.123.354,2.35,1.623,2.35a4.841,4.841,0,0,0,3.038-1.6Zm-2.934-6.137c-.563.313-1.6,1.269-1.957,3.6,2.976-.79,3.849-1.747,3.849-2.7a1.024,1.024,0,0,0-1.04-1.143,1.708,1.708,0,0,0-.852.248" transform="translate(73.518 80.525)" fill="#1a1311"/>
      <path id="パス_29037" data-name="パス 29037" d="M206.776,214.2l-2.06.1-1.226,5.742c-.21,1.021-.106,1.25.126,1.25a4.6,4.6,0,0,0,1.87-1.207l.292.436c-.687.833-2.247,2.227-3.35,2.227-.479,0-.9-.6-.436-2.747l1.226-5.7h-1.539l-.062-.188.52-.623h1.247l.48-1.976,1.582-1.291.188.126-.73,3.142h2.415Z" transform="translate(76.454 79.719)" fill="#1a1311"/>
      <path id="パス_29038" data-name="パス 29038" d="M216.084,219.8c.852-1.165,2.934-4.037,2.934-5.369a2.184,2.184,0,0,0-.208-.956.567.567,0,0,1,0-.52,1,1,0,0,1,.852-.6c.521,0,.9.456.9,1.186a4.685,4.685,0,0,1-.852,2.185c-.709,1.143-3.227,4.618-4.393,6.222h-.582c-.167-2.205-.374-4.39-.582-6.492h-.041c-1.332,2.225-2.851,4.659-3.974,6.492h-.542c-.019-2.018-.124-4.7-.207-6.7-.043-1-.125-1.372-.332-1.372-.146,0-.459.251-1.228,1.062l-.354-.417c.874-1.165,1.956-2.164,2.663-2.164.479,0,.708.625.749,2.061.041,1.663.062,3.536.062,4.91h.041c1.25-2.143,2.641-4.412,3.87-6.659h.52c.229,2.331.417,4.744.666,7.137Z" transform="translate(78.674 80.526)" fill="#1a1311"/>
      <path id="パス_29039" data-name="パス 29039" d="M219.046,218.7a6.33,6.33,0,0,1,3.164-5.68,5.274,5.274,0,0,1,2.247-.668c1.725,0,2.767,1.187,2.767,3.247A6.734,6.734,0,0,1,225,220.635a5.172,5.172,0,0,1-3.2,1.313c-1.978,0-2.747-1.561-2.747-3.247m4.162,2.288c1.123-.479,2.266-2.683,2.266-5.346,0-1.685-.727-2.5-1.684-2.5a1.86,1.86,0,0,0-.792.185c-.811.354-2.205,2.062-2.205,5.266,0,1.539.645,2.517,1.749,2.517a1.716,1.716,0,0,0,.666-.125" transform="translate(83.063 80.525)" fill="#1a1311"/>
      <path id="パス_29040" data-name="パス 29040" d="M227.54,214.394a5.992,5.992,0,0,1,2.913-2.04c.52,0,.543.959.229,2.415l-.205,1.04h.062c1.059-2.038,2.287-3.455,3.121-3.455a1.123,1.123,0,0,1,.892.52.923.923,0,0,1-.018.9,2.2,2.2,0,0,1-.543.6c-.188.126-.354.126-.458.022a.968.968,0,0,0-.708-.354c-.25,0-.581.21-1.062.874a14.139,14.139,0,0,0-1.474,2.58c-.332,1.394-.585,2.7-.834,4.077a7.743,7.743,0,0,0-1.477.376l-.164-.167c.538-2.227,1.121-4.786,1.516-7.012.125-.685.125-.9-.041-.9a4.118,4.118,0,0,0-1.474,1Z" transform="translate(86.284 80.525)" fill="#1a1311"/>
      <path id="パス_29041" data-name="パス 29041" d="M242.971,221.557c-.978,1.541-1.852,1.9-2.289,1.9s-.852-.251-1.372-1.375a41.575,41.575,0,0,1-1.582-3.87,9.072,9.072,0,0,0-1.164,1.332c-.23,1.124-.479,2.331-.708,3.517a9.046,9.046,0,0,0-1.5.4l-.146-.126c1-4.245,1.935-8.427,2.829-12.755.167-.83.063-.914-.749-.936l-.645-.019.106-.5a20.077,20.077,0,0,0,3.058-.727c.207,0,.186.188.1.6-.708,3.1-1.372,6.16-2.08,9.261h.021a22.226,22.226,0,0,1,1.79-1.874c1.163-1.186,2.683-2.517,3.64-2.517.561,0,.874.334.874.644a1.452,1.452,0,0,1-.416.833c-.126.1-.25.145-.332.1a1.88,1.88,0,0,0-.792-.166c-.956,0-2.121,1.081-2.7,1.727a24.484,24.484,0,0,0,1.706,4.1c.375.771.582,1,.811,1,.21,0,.666-.354,1.186-.957Z" transform="translate(88.814 79.022)" fill="#1a1311"/>
      <path id="パス_29042" data-name="パス 29042" d="M17.119,174.685c-.745-2.612-1.947-5.555-5.474-5.555a4.292,4.292,0,0,0-4.52,4.478c0,2.9,1.909,4.311,5.267,6.011,3.441,1.743,7.173,3.734,7.173,8.295,0,4.437-3.732,7.961-9.372,7.961a13.263,13.263,0,0,1-4.063-.622,14.638,14.638,0,0,1-2.156-.87,51,51,0,0,1-1.12-6.551L4.14,187.5c.663,2.572,2.612,6.842,6.842,6.842a4.508,4.508,0,0,0,4.851-4.851c0-2.946-2.2-4.438-5.307-6.1-2.945-1.535-6.925-3.649-6.925-8.21,0-4.063,3.276-7.506,8.708-7.506a17.063,17.063,0,0,1,5.307,1c.166,1.492.415,3.151.746,5.764Z" transform="translate(1.083 63.584)" fill="#1a1311"/>
      <path id="パス_29043" data-name="パス 29043" d="M21.959,186.881a2.448,2.448,0,1,1,2.447,2.528,2.386,2.386,0,0,1-2.447-2.528" transform="translate(8.327 69.923)" fill="#1a1311"/>
      <path id="パス_29044" data-name="パス 29044" d="M32.583,195.08v-1.2c3.317-.248,3.691-.5,3.691-4.023V173.4c0-3.527-.374-3.775-3.691-4.064v-1.2H43.819v1.2c-3.316.29-3.689.538-3.689,4.064v16.459c0,3.527.374,3.775,3.689,4.023v1.2Z" transform="translate(12.356 63.755)" fill="#1a1311"/>
      <path id="パス_29045" data-name="パス 29045" d="M47.777,186.881a2.448,2.448,0,1,1,2.447,2.528,2.386,2.386,0,0,1-2.447-2.528" transform="translate(18.117 69.923)" fill="#1a1311"/>
      <path id="パス_29046" data-name="パス 29046" d="M86.9,169.331c-2.321.123-3.276.663-3.482,2.488-.124,1.284-.248,3.15-.248,6.965v16.67H81.754L64.173,173.933h-.083v10.2a69.409,69.409,0,0,0,.248,6.966c.208,2.032,1.12,2.612,3.98,2.779v1.2H58.451v-1.2c2.363-.167,3.4-.7,3.608-2.695a68.32,68.32,0,0,0,.29-7.05v-9.038c0-2.943-.083-3.236-.87-4.23-.829-1.037-1.7-1.368-3.649-1.534v-1.2h6.427L81.3,188.446h.123v-9.663a62.564,62.564,0,0,0-.29-6.884c-.207-1.822-1.161-2.4-4.1-2.569v-1.2H86.9Z" transform="translate(21.929 63.755)" fill="#1a1311"/>
      <path id="パス_29047" data-name="パス 29047" d="M122.892,169.331c-3.36.29-3.691.5-3.691,3.98V189.9c0,3.484.331,3.691,3.691,3.98v1.2h-11.4v-1.2c3.482-.29,3.815-.5,3.815-3.98V181.73H101.7V189.9c0,3.484.332,3.691,3.649,3.98v1.2H94.2v-1.2c3.276-.29,3.608-.5,3.608-3.98V173.311c0-3.484-.332-3.691-3.732-3.98v-1.2h11.071v1.2c-3.109.29-3.441.5-3.441,3.98V179.9h13.6v-6.594c0-3.442-.332-3.691-3.525-3.98v-1.2h11.114Z" transform="translate(35.673 63.755)" fill="#1a1311"/>
      <path id="パス_29048" data-name="パス 29048" d="M150.785,181.443c0,8.957-6.3,14.431-13.934,14.431a13.46,13.46,0,0,1-13.6-13.85c0-7.38,5.223-14.346,14.057-14.346a13.36,13.36,0,0,1,13.476,13.766m-22.891-.5c0,7.628,4.063,13.393,9.828,13.393,4.478,0,8.417-3.856,8.417-11.776,0-8.667-4.311-13.353-9.661-13.353-4.521,0-8.584,4.065-8.584,11.736" transform="translate(46.738 63.584)" fill="#1a1311"/>
      <path id="パス_29049" data-name="パス 29049" d="M171.961,188.488c-.248,1.367-1.119,5.349-1.492,6.593H151.437v-1.2c3.482-.248,3.855-.539,3.855-4.064V173.354c0-3.527-.291-3.734-3.648-4.023v-1.2H162.8v1.2c-3.234.248-3.648.455-3.648,4.023V189.69c0,2.2.205,2.985,1,3.4a8.631,8.631,0,0,0,3.813.5c2.2,0,3.608-.207,4.562-1.287a11.871,11.871,0,0,0,2.153-4.1Z" transform="translate(57.426 63.755)" fill="#1a1311"/>
      <path id="パス_29050" data-name="パス 29050" d="M186.023,168.129c5.267,0,9.165,1.077,11.777,3.565a12.069,12.069,0,0,1,3.524,8.874c0,4.975-1.947,8.666-5.1,11.071-3.109,2.364-7.3,3.442-12.4,3.442h-9.951v-1.2c3.524-.25,3.856-.5,3.856-4.023v-16.5c0-3.525-.332-3.732-3.483-3.98v-1.244Zm-4.394,21.437c0,3.11,1.244,3.939,4.229,3.939,7.381,0,11.029-5.515,11.029-12.315,0-4.23-1.534-7.837-4.6-9.744a11.886,11.886,0,0,0-6.965-1.866,6.208,6.208,0,0,0-3.153.539c-.374.29-.538.788-.538,2.363Z" transform="translate(65.934 63.755)" fill="#1a1311"/>
      <path id="パス_29051" data-name="パス 29051" d="M202.149,195.08v-1.2c3.317-.248,3.691-.5,3.691-4.023V173.4c0-3.527-.374-3.775-3.691-4.064v-1.2h11.236v1.2c-3.316.29-3.689.538-3.689,4.064v16.459c0,3.527.374,3.775,3.689,4.023v1.2Z" transform="translate(76.656 63.755)" fill="#1a1311"/>
      <path id="パス_29052" data-name="パス 29052" d="M247.279,169.331c-2.321.123-3.276.663-3.481,2.488a69.429,69.429,0,0,0-.25,6.965v16.67h-1.41l-17.582-21.521h-.083v10.2a69.247,69.247,0,0,0,.25,6.966c.208,2.032,1.119,2.612,3.98,2.779v1.2h-9.87v-1.2c2.364-.167,3.4-.7,3.609-2.695a68.894,68.894,0,0,0,.288-7.05v-9.038c0-2.943-.083-3.236-.87-4.23-.829-1.037-1.7-1.368-3.648-1.534v-1.2h6.427l17.041,20.318h.124v-9.663a62.059,62.059,0,0,0-.291-6.884c-.205-1.822-1.16-2.4-4.1-2.569v-1.2h9.868Z" transform="translate(82.748 63.755)" fill="#1a1311"/>
      <path id="パス_29053" data-name="パス 29053" d="M274.222,183.89c-2.405.374-2.612.581-2.612,3.069v3.483a18.606,18.606,0,0,0,.291,3.9,40.233,40.233,0,0,1-9.289,1.534c-9.246,0-15.342-5.64-15.342-13.891,0-9.579,7.713-14.305,15.923-14.305a35.072,35.072,0,0,1,8,1.2c.126,1.411.332,3.691.663,6.551l-1.244.248c-1-4.975-4.1-6.468-8.085-6.468-6.055,0-10.657,4.645-10.657,12.232,0,6.055,3.441,12.938,11.238,12.938a7.3,7.3,0,0,0,3.358-.706c.788-.414,1.244-.994,1.244-2.612v-3.607c0-2.986-.248-3.234-4.354-3.567v-1.2h10.864Z" transform="translate(93.766 63.584)" fill="#1a1311"/>
      <path id="パス_29054" data-name="パス 29054" d="M289.207,174.685c-.745-2.612-1.946-5.555-5.474-5.555a4.293,4.293,0,0,0-4.52,4.478c0,2.9,1.909,4.311,5.267,6.011,3.441,1.743,7.173,3.734,7.173,8.295,0,4.437-3.732,7.961-9.372,7.961a13.271,13.271,0,0,1-4.063-.622,14.637,14.637,0,0,1-2.156-.87,51,51,0,0,1-1.12-6.551l1.285-.332c.665,2.572,2.614,6.842,6.842,6.842a4.508,4.508,0,0,0,4.851-4.851c0-2.946-2.2-4.438-5.307-6.1-2.945-1.535-6.925-3.649-6.925-8.21,0-4.063,3.276-7.506,8.708-7.506a17.063,17.063,0,0,1,5.307,1c.166,1.492.415,3.151.748,5.764Z" transform="translate(104.259 63.584)" fill="#1a1311"/>
    </g>
  </g>
  <path id="パス_29055" data-name="パス 29055" d="M372.612,25.308A85.958,85.958,0,0,0,312.11,0h-.38c-.268,0-.528.009-.8.009C273.546.259,252.45,14.977,233.64,32.26c-3.536,3.249-20.883,19.05-41.35,37.666C178.748,45.182,145.868,0,86.541,0A87.035,87.035,0,0,0,0,86H0v.028H0v.019a87.041,87.041,0,0,0,86.171,85.967c.074,0,4.027-.056,4.193-.065,33.648-1.046,56.013-15.3,74.276-32.084,3.545-3.258,20.9-19.069,41.387-37.693,13.58,24.753,46.441,69.851,105.712,69.851a87.051,87.051,0,0,0,86.541-86v-.037h0v-.019A85.9,85.9,0,0,0,372.612,25.308ZM86.541,1.416a104.861,104.861,0,0,1,49.968,12.358A123.45,123.45,0,0,1,170.75,41.405,162.6,162.6,0,0,1,191.226,70.9c-27.863,25.326-61.113,55.5-73.239,66.325C105.1,148.728,89.392,156.069,65.4,156.069c-22.133,0-36-7.776-47.7-21.892A85.265,85.265,0,0,1,2.49,86.014C2.786,39.36,40.489,1.416,86.541,1.416Zm309.24,84.958c-.491,46.478-38.119,84.218-84.051,84.218a104.852,104.852,0,0,1-49.959-12.358,123.078,123.078,0,0,1-34.231-27.622,162.7,162.7,0,0,1-20.448-29.427c27.854-25.326,61.085-55.466,73.2-66.288C293.18,23.392,308.889,15.94,332.882,15.94c22.133,0,36.009,7.776,47.709,21.892a85.294,85.294,0,0,1,15.2,47.793v.741Z" transform="translate(0.017)" fill="url(#linear-gradient)"/>
</svg>
