<svg xmlns="http://www.w3.org/2000/svg" xmlns:xlink="http://www.w3.org/1999/xlink" width="436.055" height="412.984" viewBox="0 0 436.055 412.984">
  <defs>
    <clipPath id="clip-path">
      <path id="パス_29070" data-name="パス 29070" d="M441.127,344.021a66.843,66.843,0,0,1-18.554-14.967,87.976,87.976,0,0,1-11.08-15.949c15.1-13.722,33.1-30.06,39.67-35.924,6.983-6.235,15.5-10.274,28.5-10.274,12,0,19.514,4.213,25.855,11.866a46.233,46.233,0,0,1,8.236,25.9v.4c-.264,25.185-20.656,45.643-45.55,45.643a56.823,56.823,0,0,1-27.074-6.7M308.854,330.98a46.237,46.237,0,0,1-8.241-26.1c.159-25.28,20.592-45.844,45.551-45.844a56.826,56.826,0,0,1,27.078,6.7A66.843,66.843,0,0,1,391.8,280.7a88.042,88.042,0,0,1,11.095,15.981c-15.1,13.728-33.122,30.078-39.69,35.945-6.983,6.233-15.5,10.213-28.5,10.213-11.995,0-19.511-4.213-25.851-11.864m159.391-72.715H468.2c-.145,0-.289.005-.434.007-20.258.135-31.695,8.112-41.887,17.477-1.918,1.763-11.316,10.325-22.408,20.41-7.344-13.407-25.161-37.894-57.31-37.894a47.164,47.164,0,0,0-46.9,46.6v.023a47.174,47.174,0,0,0,46.7,46.592c.038,0,2.184-.033,2.273-.036,18.236-.568,30.357-8.293,40.251-17.386,1.919-1.765,11.329-10.337,22.43-20.431,7.358,13.413,25.17,37.853,57.288,37.853a47.171,47.171,0,0,0,46.9-46.606v-.029a47.167,47.167,0,0,0-46.7-46.581l-.115,0h-.045" transform="translate(-299.263 -258.265)" fill="#fff"/>
    </clipPath>
  </defs>
  <g id="グループ_12712" data-name="グループ 12712" transform="translate(-836.214 -5787.535)">
    <path id="パス_38594" data-name="パス 38594" d="M-42.39-7.41c.285-.36.765-.9,1.02-1.26A4.284,4.284,0,0,1-40.35-9.9a.378.378,0,0,0,.135-.3c0-.57-1.515-1.2-1.74-1.2a.148.148,0,0,0-.15.12,1.667,1.667,0,0,0,.1.24.848.848,0,0,1,.12.42c0,.42-1.17,2.97-4.71,6-.24.21-.66.555-1.05.9a.136.136,0,0,0-.045.105c0,.06.03.09.075.09A16.475,16.475,0,0,0-43.35-6.39c.12-.12.18-.18.255-.18.39,0,.39,1.575.39,2.115,0,.795-.06,1.95-.15,2.76-.015.15-.165.81-.165.96,0,.4.51,1.05.93,1.05.36,0,.36-.51.36-.66,0-.195-.09-1.065-.1-1.245-.03-.585-.045-1.4-.045-1.8a14.483,14.483,0,0,1,.09-2.655c.015-.09.18-.51.18-.6,0-.135-.06-.2-.645-.555A.242.242,0,0,1-42.39-7.41Zm16.065-.99c0-.885-1.26-1.74-2.865-1.74-.21,0-.33.075-.33.135s.075.1.135.135A3.379,3.379,0,0,1-28.02-8.64c.495.75.645.99,1.05.99A.663.663,0,0,0-26.325-8.4Zm6.24-.135a.1.1,0,0,0-.075-.075c-.03,0-.45.42-.69.66-2.49,2.46-6.465,5.115-7.2,5.115a2.483,2.483,0,0,1-1.02-.345,3.734,3.734,0,0,0-.45-.285c-.135,0-.15.69-.15.8,0,.6,1.11,1.56,1.92,1.56.225,0,.255-.03.54-.375a10.475,10.475,0,0,1,1.47-1.23A20.41,20.41,0,0,0-20.085-8.535Zm12.5,2.1a.182.182,0,0,1,.1-.225A12.909,12.909,0,0,1-5.97-6.7c.33,0,.75.045,1.065.075.15.015.885.135,1.05.135.195,0,.435-.09.435-.36,0-.615-1.71-.945-1.89-.945s-.945.24-1.125.27c-1.05.15-4.935.57-5.895.57a4.673,4.673,0,0,1-.945-.1A1.32,1.32,0,0,0-13.5-7.14c-.075,0-.105.06-.105.15A1.313,1.313,0,0,0-12.42-5.85a9.47,9.47,0,0,0,1.08-.27,18.49,18.49,0,0,1,2.385-.45c.33,0,.36.27.36.45a10.116,10.116,0,0,1-2.94,5.655,10.216,10.216,0,0,0-.795.75c0,.045.03.075.09.075A7.434,7.434,0,0,0-8.265-3.495c.135-.255.7-1.635.75-1.695.045-.075.405-.36.405-.465A4.661,4.661,0,0,0-7.59-6.435Zm-3.63-3.75c-.075.03.39,1.08,1.125,1.08.045,0,.63-.12.7-.135.225-.045,1.23-.24,2-.33.885-.09,1.14-.12,1.14-.555s-.54-.495-.855-.495a6.13,6.13,0,0,0-1.2.18,9.256,9.256,0,0,1-2.13.375C-10.53-10.065-11.13-10.17-11.22-10.185Zm16.275-.24c0,.12.075.21.2.345.465.54.54.885.54,2.565,0,.27,0,.855-.03,1.53,0,.12-.075.63-.075.75,0,.39.345,1.185.675,1.185.225,0,.57-.375.57-.765,0-.15-.075-.9-.09-1.08-.015-.36-.045-1.71-.045-3.45,0-.075.03-.42.03-.495,0-.255-.825-.78-1.185-.78S5.055-10.53,5.055-10.425Zm5.3,1.4c0,3-.105,5.61-3,8.7C7.17-.135,6.195.825,6.195.885s.03.075.09.075A5.981,5.981,0,0,0,7.635.075a9.489,9.489,0,0,0,3.75-6.96c.045-.525.06-2.775.12-3.18a5.834,5.834,0,0,0,.15-.6c0-.39-.75-.765-1.65-.765-.435,0-.435.045-.435.09,0,.03.015.06.195.3A2.868,2.868,0,0,1,10.35-9.03Zm10.14-.36c-.075,0-.1.03-.1.06,0,.525,1.17,1.485,1.53,1.485a11.435,11.435,0,0,0,1.26-.435,26.26,26.26,0,0,1,5.355-.93c.2,0,.285.12.285.225a4.071,4.071,0,0,1-1.86,1.83,4.458,4.458,0,0,1-.585-.2,2.262,2.262,0,0,0-.81-.135c-.09,0-.315.015-.315.135,0,.06.015.09.135.33a1.917,1.917,0,0,1,.195.885A6.846,6.846,0,0,1,24.45-2.85,10.217,10.217,0,0,1,21.765-.06c-.27.21-.3.24-.3.285s.03.075.09.075A3.905,3.905,0,0,0,22.59-.135,8.19,8.19,0,0,0,26.37-4.77a8.359,8.359,0,0,1,.765-1.92A10.526,10.526,0,0,1,30.27-8.055c.525-.12.525-.285.525-.39a3.97,3.97,0,0,0-1.77-1.95,5.194,5.194,0,0,0-.615.345,44.693,44.693,0,0,1-6.21.87,6.525,6.525,0,0,1-.945-.06C21.135-9.255,20.535-9.39,20.49-9.39Zm22.59-.81a3.863,3.863,0,0,1,4.155,4.155c0,3.735-3.255,5.025-4.815,5.64-.375.15-.4.165-.4.21,0,.09.09.105.15.105a9.219,9.219,0,0,0,2.49-.555,5.594,5.594,0,0,0,3.78-5.28,4.7,4.7,0,0,0-2.61-4.365,4.886,4.886,0,0,0-2.415-.48,6.206,6.206,0,0,0-4.785,1.95A5.284,5.284,0,0,0,36.96-4.995c0,1.83.885,3.375,1.875,3.375.6,0,1.365-.36,2.565-2.19A7.694,7.694,0,0,0,42.945-8.2a11.5,11.5,0,0,0-.15-1.62c0-.06-.03-.12-.03-.165C42.765-10.08,42.78-10.2,43.08-10.2Zm-.84.045c.2,0,.255.075.255.975a8.58,8.58,0,0,1-1.47,4.365c-1.035,1.56-1.4,1.74-1.83,1.74-.915,0-1.305-1.335-1.305-2.31A5.18,5.18,0,0,1,42.24-10.155ZM-84.99,15.39a2.261,2.261,0,0,1-.69-.075,7.057,7.057,0,0,0-.855-.375c-.045,0-.045.06-.045.105,0,.165.06.825.06.96.06,1,.06,2.175.06,4.02,0,1.365-.015,1.665-.045,2.145,0,.045-.045.63-.045.66,0,.39.18.465.375.465a.637.637,0,0,0,.615-.42c.075-.24.09-.345.315-.345H-83.4c.15,0,.36,0,.4.33.045.27.045,2.1.045,2.52,0,.24-.03,1.305,0,1.515.09.765.81.9,2.2.9,1.2,0,1.545-.165,1.785-.375a.879.879,0,0,0,.345-.51c0-.135-.435-.66-.48-.8a4.7,4.7,0,0,1-.18-1.05c-.015-.18-.03-.24-.09-.24-.09,0-.105.075-.18.48-.24,1.365-.27,1.56-1.215,1.56-.345,0-.975-.03-1.14-.315a7.236,7.236,0,0,1-.1-1.6c0-.36,0-1.98.045-2.175.045-.21.27-.24.42-.24.3,0,.525,0,.585.255.045.195.075.36.36.36.705,0,.705-.6.705-.825,0-.8-.09-4.365-.09-5.085,0-.15.015-.915.045-1.005s.45-.39.45-.48c0-.21-1.02-.9-1.125-.9s-.375.345-.45.39a.883.883,0,0,1-.57.15Zm3.57,2.625c.48,0,.48.18.48.75,0,.9,0,1.02-.48,1.02h-3.63c-.465,0-.465-.165-.465-.795,0-.84,0-.975.465-.975Zm-3.63-.4c-.465,0-.465-.135-.465-.84,0-.87,0-.975.465-.975h3.63c.465,0,.465.135.465.825,0,.885,0,.99-.465.99Zm.03,4.53c-.48,0-.48-.03-.48-1.44,0-.285,0-.51.465-.51h3.615c.465,0,.465.21.465.57,0,1.32-.03,1.38-.495,1.38Zm-6.75-1.9c.06.06.075.09.12.09s.24-.03.3-.03c.315-.03.945-.03,1-.03.39,0,.39.315.39.5,0,.285,0,2.9-.045,3-.105.225-1.545.3-1.815.3-.06,0-.315-.03-.375-.03-.09,0-.12.06-.12.135,0,.165.57,1.365.765,1.365.1,0,.21-.09.33-.225.21-.27.3-.3,1.14-.63,2.625-1,3.195-1.23,3.195-1.365,0-.06-.06-.06-.105-.06-.15,0-1.5.36-1.785.36a.147.147,0,0,1-.165-.12c-.03-.12-.03-2.34-.03-2.61,0-.405,0-.63.48-.63h.765c.285,0,.705,0,.705-.135a2.571,2.571,0,0,0-.93-.99c-.105,0-.18.09-.465.48-.15.225-.255.225-.33.225-.225,0-.225-.075-.225-.81,0-.51,0-2.205.045-2.31.075-.195.3-.195.435-.195h.975c.45,0,.72,0,.72-.21,0-.18-1.17-.99-1.26-.99-.135,0-.255.15-.375.315-.3.4-.345.45-.465.465a7.015,7.015,0,0,1-1.17.03c-.24,0-1.4-.045-1.59-.06-.075,0-.42-.045-.495-.045-.03,0-.045.015-.045.03,0,.03.015.06.06.1l.255.345c.045.06.075.09.12.09a.878.878,0,0,0,.195-.03c.255-.015.885-.045,1.155-.045.21,0,.42.045.435.39.015.3.015,2.025.015,2.445,0,.225,0,.5-.45.5-.225,0-1.38-.09-1.635-.09-.03,0-.045.015-.045.03,0,.03,0,.03.06.1Zm6.855,2.43c-.075-.03-.225-.045-.225.09,0,.045.06.285.06.345a5.065,5.065,0,0,1-.825,2.34,7.033,7.033,0,0,1-3.645,2.37c-.195.045-.33.06-.33.135s.075.12.195.12a7.937,7.937,0,0,0,2.73-.8A4.836,4.836,0,0,0-84.3,24.345c.3-.885.315-.9.5-.96.105-.03.195-.06.195-.165C-83.61,23.04-84.72,22.71-84.915,22.665Zm22.17-4.65c.51,0,.81,0,.81-.225,0-.18-1.32-.99-1.41-.99-.135,0-.18.06-.6.555-.225.255-.285.255-.96.255h-3.66c-.075,0-.33,0-.33-.21a8.585,8.585,0,0,1,.8-1.71c.06-.06.42-.285.42-.375,0-.225-1.455-.75-1.62-.75-.06,0-.135.015-.135.1,0,.03.06.15.06.18a15.225,15.225,0,0,1-.705,2.31c-.21.45-.42.45-.87.45h-1.11c-.705,0-1.335-.015-2.07-.045-.09-.015-.555-.06-.66-.06a.04.04,0,0,0-.045.045.228.228,0,0,0,.06.09l.285.345c.045.06.09.1.135.1a2.276,2.276,0,0,0,.315-.045c.15-.015.585-.03,1.9-.03h1.08c.27,0,.45.03.45.285a12.978,12.978,0,0,1-1.35,2.7c-.06.09-.09.09-.255.09-.12,0-.12.045-.12.345,0,.405-1.485,2.085-2.04,2.7-.21.225-.51.57-.645.7,0,.03.015.045.06.045A11.182,11.182,0,0,0-72.57,22.98a.248.248,0,0,1,.195-.12c.18,0,.21.075.21,1.665,0,.585,0,1.965-.03,2.475,0,.15-.045.645-.045.735a.32.32,0,0,0,.36.345.681.681,0,0,0,.765-.645,3.237,3.237,0,0,0-.03-.42c-.045-.585-.075-1.5-.075-2.22,0-.39,0-2.49.075-2.685.03-.06.285-.27.285-.345,0-.1-.075-.135-.27-.255a.131.131,0,0,1-.09-.135.2.2,0,0,1,.045-.1,16.216,16.216,0,0,0,1.365-2.265c.48-.9.54-.99,1.11-.99Zm-.495,4.335c.51,0,.81,0,.81-.21,0-.18-1.305-.99-1.41-.99-.135,0-.18.06-.6.555-.21.255-.285.255-.96.255h-.27c-.15,0-.435,0-.465-.33V19.92c0-.375.03-.63.255-.78.18-.1.21-.12.21-.18,0-.1-.105-.15-.21-.18a10.265,10.265,0,0,0-1.26-.27c-.09,0-.105.06-.105.15,0,.045.105,2.31.105,2.745,0,.525-.18.555-.525.555-.285,0-1.44-.045-1.635-.045-.09-.015-.57-.06-.675-.06-.03,0-.06.015-.06.03s.045.06.075.1l.285.345c.045.06.075.09.135.09.03,0,.39-.03.45-.03.51-.03,1.035-.045,1.56-.045a.378.378,0,0,1,.36.18,20.811,20.811,0,0,1,.075,2.25,11.2,11.2,0,0,1-.105,2.055c-.075.135-.195.15-.4.15-.66,0-1.1,0-2.295-.045-.09,0-.555-.06-.66-.06-.03,0-.06.015-.06.045s.045.06.075.09l.285.345c.045.06.075.1.135.1a2.65,2.65,0,0,0,.315-.045c.15,0,.585-.03,1.89-.03h5.22c.51,0,.81,0,.81-.21s-1.305-.99-1.41-.99c-.135,0-.18.045-.6.555-.21.24-.285.24-.96.24h-.795c-.435,0-.45-.09-.45-.615s-.045-3.03-.045-3.6c0-.42.285-.42.48-.42Zm12.27-5.55a3.863,3.863,0,0,1,4.155,4.155c0,3.735-3.255,5.025-4.815,5.64-.375.15-.4.165-.4.21,0,.09.09.1.15.1a9.219,9.219,0,0,0,2.49-.555,5.594,5.594,0,0,0,3.78-5.28,4.7,4.7,0,0,0-2.61-4.365,4.887,4.887,0,0,0-2.415-.48,6.206,6.206,0,0,0-4.785,1.95,5.284,5.284,0,0,0-1.665,3.825c0,1.83.885,3.375,1.875,3.375.6,0,1.365-.36,2.565-2.19A7.694,7.694,0,0,0-51.1,18.8a11.5,11.5,0,0,0-.15-1.62c0-.06-.03-.12-.03-.165C-51.285,16.92-51.27,16.8-50.97,16.8Zm-.84.045c.195,0,.255.075.255.975a8.58,8.58,0,0,1-1.47,4.365c-1.035,1.56-1.395,1.74-1.83,1.74-.915,0-1.305-1.335-1.305-2.31A5.18,5.18,0,0,1-51.81,16.845Zm16.86,2.415a.83.83,0,0,1-.495-.15c-.135-.06-.87-.45-.915-.45s-.045.015-.045.165c0,.825.06,4.455.06,5.19,0,.1-.015.9-.045,1.815-.015.225-.075,1.29-.075,1.44,0,.18,0,.45.435.45.63,0,.69-.435.735-.78.045-.39.255-.39.405-.39h5.1c.135,0,.33,0,.39.33.09.585.12.75.45.75.255,0,.735-.24.735-.96,0-.15-.045-.78-.045-.915-.03-1-.06-3.33-.06-3.555a14.791,14.791,0,0,1,.1-2.22c.045-.1.375-.48.375-.585,0-.285-.99-.72-1.065-.72-.165,0-.21.09-.42.42-.075.135-.195.165-.42.165h-.66c-.27,0-.45-.045-.45-.45V16.44c0-.435.3-.45.525-.45h2.085c.5,0,.81,0,.81-.195a3.325,3.325,0,0,0-1.2-1.035c-.135,0-.18.06-.585.585-.195.255-.27.255-.96.255h-3.885c-.84,0-1.62-.03-2.055-.06-.1,0-.57-.045-.66-.045a.04.04,0,0,0-.045.045c0,.015,0,.015.06.09l.285.345c.06.06.09.105.135.105s.27-.045.315-.045c.39-.03,1.455-.045,1.485-.045.615,0,.615.165.615.69v2.295c-.03.225-.21.285-.45.285Zm2.4,6.885c-.225,0-.375-.06-.42-.285-.015-.12-.015-3.645-.015-4.035,0-.255,0-1.86.045-1.98.075-.2.3-.2.39-.2h.315c.285,0,.435.1.435.405v2.43c0,.465,0,3.345-.045,3.465-.075.195-.3.195-.39.195Zm.33-10.155c.4,0,.4.27.4.5v2.16c0,.36,0,.615-.4.615h-.33a.376.376,0,0,1-.375-.18c-.045-.105-.045-1.47-.045-1.74,0-1.245,0-1.35.42-1.35Zm-2.67,10.155a.361.361,0,0,1-.39-.195c-.045-.12-.045-2.175-.045-2.46,0-.465,0-3.525.045-3.645.075-.2.3-.2.39-.2h.525c.09,0,.315,0,.39.2.045.12.045,2.4.045,2.865,0,.345,0,3.03-.015,3.165-.045.27-.3.27-.42.27Zm4.455,0c-.09,0-.33,0-.4-.195-.045-.12-.045-3.54-.045-3.93,0-.45,0-2.055.045-2.175.075-.2.3-.2.4-.2h.72c.435,0,.435.12.435,1.245,0,1.26-.03,3.66-.045,4.83,0,.3-.12.42-.435.42Zm-8.04-7.485a.541.541,0,0,1,.045-.315c0-.015.525-1.215.63-1.455.435-1.05.495-1.17.585-1.245.21-.165.24-.195.24-.33,0-.3-1.275-.81-1.32-.81-.15,0-.165.135-.195.48-.1,1.515-1.875,6.015-2.46,7.23a4.283,4.283,0,0,0-.18.4c0,.045.03.12.09.12a14.132,14.132,0,0,0,1.425-2.13c.135-.27.225-.435.3-.435.105,0,.105.3.105.345,0,.675-.075,5.085-.12,5.67-.045.525-.1,1.35-.1,1.59,0,.09,0,.33.33.33.435,0,.84-.18.84-.63,0-.27-.03-1.56-.03-1.86,0-.8.06-4.71.06-5.6a.987.987,0,0,1,.06-.42c.195-.255.21-.27.21-.345,0-.12-.075-.21-.24-.33A.879.879,0,0,1-38.475,18.66Zm24.585,6.78c.165,0,.435,0,.465.36s.045.465.4.465c.69,0,.69-.51.69-.765,0-.525-.075-3.045-.09-3.615-.015-.63-.03-1.425-.03-2.04,0-.315.015-.435.18-.57.225-.165.27-.18.27-.3,0-.255-1.02-.735-1.2-.735-.15,0-.15.015-.3.285a.483.483,0,0,1-.45.18c-.72,0-.72-.1-.72-1.11,0-.63,0-.8.465-.8h2.61c.51,0,.81,0,.81-.21A3.409,3.409,0,0,0-12,15.6c-.135,0-.18.06-.54.555-.2.255-.27.255-.96.255h-.7c-.42,0-.45-.165-.45-.63,0-.435,0-.54.2-.675s.225-.15.225-.255c0-.36-1.1-.375-1.44-.375-.165,0-.225.03-.225.135s.135.66.15.78c.015.18.045.525.045.645,0,.36-.24.375-.435.375h-.63c-.81,0-1.65-.045-2.01-.06-.09,0-.555-.045-.66-.045-.03,0-.06.015-.06.03,0,.03.015.03.075.105l.285.345c.045.06.075.09.135.09s.255-.03.315-.03c.09,0,.525-.045,1.845-.045h.69c.42,0,.48.06.48.915,0,.78,0,.99-.495.99H-16.6a1.9,1.9,0,0,1-.63-.075,4.94,4.94,0,0,0-.66-.24c-.075,0-.165.015-.165.12,0,.075.1.45.12.54a8.319,8.319,0,0,1,.1,1.935c0,.7-.045,4.11-.045,4.875,0,.39.06.48.375.48a.585.585,0,0,0,.63-.42c.075-.375.09-.48.48-.48Zm-2.535-2.55c-.465,0-.465-.12-.465-1.215,0-.315,0-.57.45-.57h2.58a.414.414,0,0,1,.42.21,6.4,6.4,0,0,1,.03,1.215c0,.36-.33.36-.45.36Zm-.015-2.175c-.465,0-.465-.165-.465-.84,0-.6,0-.765.465-.765h2.58c.45,0,.45.1.45.99,0,.405,0,.615-.45.615Zm.03,4.32c-.48,0-.48-.15-.48-1,0-.54,0-.75.48-.75h2.535c.465,0,.465.165.465.945,0,.66,0,.81-.465.81Zm-7.71-4.515a4.33,4.33,0,0,0,.855-.66,7.307,7.307,0,0,1,.8-.765c.06,0,.1.06.12.12.03.195.03,1.65.03,1.95,0,3.285.015,3.645-.045,4.935-.015.4-.075,1.05-.075,1.455,0,.315.015.57.39.57a.824.824,0,0,0,.84-.8c0-.285-.09-1.725-.09-2.055-.03-1.23-.03-2.61-.03-2.85,0-.495,0-2.73.09-3.045a2.238,2.238,0,0,0,.21-.36c0-.24-.36-.315-.465-.33-.315-.06-.435-.09-.435-.225a.514.514,0,0,1,.135-.27c.225-.3,1.215-1.86,1.455-2.2.06-.09.51-.495.51-.63,0-.255-1.125-.855-1.245-.855-.15,0-.15.105-.15.39a14.13,14.13,0,0,1-1.845,4c-.165.255-1.1,1.56-1.1,1.575A.04.04,0,0,0-24.12,20.52Zm13.155,6.78c.72,0,.81-.015.81-.21A2.521,2.521,0,0,0-11.295,26c-.165,0-.21.06-.585.645-.15.255-.3.255-.96.255h-5.7c-.18,0-.435,0-.465-.405-.045-.75-.1-5.175-.1-5.43a6.272,6.272,0,0,1,.03-.765c0-.06.18-.3.18-.345,0-.285-1.02-.525-1.2-.525-.09,0-.15.015-.15.12a3.69,3.69,0,0,0,.1.435,11.638,11.638,0,0,1,.135,2.055c0,.87-.09,4.725-.09,5.52,0,.45.21.57.375.57.435,0,.615-.36.765-.645.075-.165.195-.18.42-.18ZM0,22.29a.989.989,0,0,0,.99-.99A.989.989,0,0,0,0,20.31a.989.989,0,0,0-.99.99A.989.989,0,0,0,0,22.29Zm14.58-.45c-.21,0-.285-.1-.285-.255,0-.06.015-.465.015-.525.015-.075.27-.42.27-.51,0-.3-1.035-.4-1.14-.4-.045,0-.165.015-.165.1,0,.06.06.375.075.45,0,.255.015.555.015.81,0,.195-.03.345-.345.345-.45,0-1.23-.045-1.92-.075-.075,0-.435-.03-.45-.03s-.06,0-.06.03c0,.015,0,.03.045.075l.345.39a.134.134,0,0,0,.12.075c.045,0,.24-.03.285-.03.33-.03.66-.045,1.08-.045.33,0,.39.06.39.24a8.881,8.881,0,0,1-1.41,2.925c-.135.195-.825,1.14-.825,1.185a.071.071,0,0,0,.075.075,6,6,0,0,0,.8-.63,12.068,12.068,0,0,0,1.575-1.905c.06-.1.135-.21.18-.21.12,0,.12.09.12.96,0,.39-.09,2.325-.09,2.76,0,.12,0,.33.345.33a.814.814,0,0,0,.63-.33,3.023,3.023,0,0,0,.045-.8c0-.21-.03-1.275-.03-1.53,0-.285.015-1.68.015-1.86.015-.165.015-.4.18-.4.24,0,.75.885.93,1.23.315.615.345.69.615.69.285,0,.465-.315.465-.645,0-.66-.51-.945-1.62-1.5-.495-.255-.54-.27-.54-.42,0-.165.225-.165.27-.165h1.8c.81,0,.885,0,.885-.225,0-.195-.825-.915-.945-.915-.075,0-.2.15-.345.33a.777.777,0,0,1-.69.405Zm-.12-5.01c.4,0,.45.15.45.42a4.517,4.517,0,0,1-.39,1.44,6.866,6.866,0,0,0-.27.66c0,.03.015.09.06.09a1.4,1.4,0,0,0,.36-.21c.165-.165.84-1.02,1.005-1.2.06-.075.48-.39.48-.495,0-.135-.7-.465-.7-.615,0-.075.075-.09.12-.09h.645c.5,0,.8,0,.8-.21a2.044,2.044,0,0,0-1.14-.915c-.105,0-.15.045-.51.45a.648.648,0,0,1-.51.27H14.5c-.315,0-.33-.15-.33-.495a1.409,1.409,0,0,1,.135-.69c.03-.06.195-.405.195-.435,0-.165-1.125-.39-1.17-.39-.15,0-.18.09-.18.135,0,.03.06.225.06.255a1.994,1.994,0,0,1,.06.615c0,.975,0,1-.465,1-.255,0-1.545-.1-1.83-.1-.03,0-.06.015-.06.045a.493.493,0,0,0,.045.09l.33.375a.2.2,0,0,0,.135.075c.09,0,.51-.045.6-.06.18,0,.6-.015,1.59-.015ZM12,17.19c-.03.015,0,.09,0,.12a4.939,4.939,0,0,1,.225.9c.15.96.165,1.05.525,1.05s.525-.39.525-.675a1.625,1.625,0,0,0-1.2-1.425A.1.1,0,0,0,12,17.19Zm8.475,2.82c.345,0,.39.3.39,1.125,0,.78,0,3.33-.015,3.885-.045,1.245-.09,2.46-.09,2.61,0,.225.03.345.39.345a.675.675,0,0,0,.75-.765c0-.3-.03-1.785-.03-2.13,0-.315.015-4.545.03-4.65.03-.345.24-.42.345-.42h.945c.6,0,.885,0,.885-.21,0-.09-.015-.1-.255-.345-.6-.6-.66-.675-.81-.675s-.18.06-.555.555a.622.622,0,0,1-.63.285H19.59c-.525,0-.525-.12-.525-1.245,0-1.785.03-1.845.225-1.935.18-.075,3.27-.42,3.615-.45.78-.045.84-.06.84-.195a4.508,4.508,0,0,0-1.455-.975,3.061,3.061,0,0,0-.435.285,10.7,10.7,0,0,1-2.865,1.02,1.745,1.745,0,0,1-.435-.075,4.267,4.267,0,0,0-.57-.195c-.075,0-.075.075-.075.135s.075.84.09,1c.06.915.09,1.335.09,3.105,0,3.585-.135,4.935-1.785,7.08-.06.06-.375.33-.375.42,0,.045.06.045.1.045a4.548,4.548,0,0,0,1.83-1.635A9.022,9.022,0,0,0,19.05,21.1c.03-.855.03-1.095.525-1.095Zm-7.71-.525c-.525,0-1.41-.045-1.995-.075-.06,0-.36-.03-.4-.03-.015,0-.06.015-.06.03,0,.03.015.03.06.09l.33.39a.185.185,0,0,0,.12.06c.09,0,.525-.045.615-.045.54-.015.72-.03,1.425-.03H16.71c.8,0,.885,0,.885-.225,0-.18-.825-.9-.945-.9-.075,0-.195.135-.345.33a.807.807,0,0,1-.69.405Zm18.795-4.1c-.09,0-.21.045-.21.15,0,.015.15.36.165.4a1.889,1.889,0,0,1,.135.735c0,.42-.135,1.65-.195,2.145A34.206,34.206,0,0,0,31.11,23c0,3.015.93,4.14,2.88,4.14a7.015,7.015,0,0,0,5.04-2.58.07.07,0,0,0-.075-.075c-.06,0-1.2.63-1.425.735a7.388,7.388,0,0,1-3.15.78c-2.01,0-2.3-1.35-2.3-2.865a36.053,36.053,0,0,1,.63-5.34A6.9,6.9,0,0,0,33,16.95C33,16.6,32.34,15.39,31.56,15.39Zm15.045,1.755c-.03,0-.09.015-.09.06a2.026,2.026,0,0,0,.12.51,4.167,4.167,0,0,1,.1.87c0,.39-.21,2.235-.21,2.655,0,2.865,1.89,4.44,2.85,4.44.255,0,.57-.165.57-.465a3.762,3.762,0,0,0-.12-.5,2.025,2.025,0,0,1-.09-.6,4.209,4.209,0,0,1,.2-1.14,1.8,1.8,0,0,0,.045-.3c0-.06-.03-.12-.075-.12-.12,0-.375.36-.465.51-.45.75-.51.825-.765.825-.465,0-1.245-1.1-1.245-2.61a5.3,5.3,0,0,1,.36-1.935,2.055,2.055,0,0,0,.18-.6C47.97,18.345,47.3,17.145,46.605,17.145Zm7.155,1.38c-.075,0-.135.03-.135.075,0,.09.6.555.72.675.8.8.8,1.425.8,2.67,0,.195,0,1.005.735,1.005.72,0,.75-.705.75-.99a3.733,3.733,0,0,0-1.335-2.865A2.919,2.919,0,0,0,53.76,18.525Zm13.89.735a.83.83,0,0,1-.5-.15c-.135-.06-.87-.45-.915-.45s-.045.015-.045.165c0,.825.06,4.455.06,5.19,0,.1-.015.9-.045,1.815-.015.225-.075,1.29-.075,1.44,0,.18,0,.45.435.45.63,0,.69-.435.735-.78.045-.39.255-.39.4-.39h5.1c.135,0,.33,0,.39.33.09.585.12.75.45.75.255,0,.735-.24.735-.96,0-.15-.045-.78-.045-.915-.03-1-.06-3.33-.06-3.555a14.79,14.79,0,0,1,.105-2.22c.045-.1.375-.48.375-.585,0-.285-.99-.72-1.065-.72-.165,0-.21.09-.42.42-.075.135-.195.165-.42.165h-.66c-.27,0-.45-.045-.45-.45V16.44c0-.435.3-.45.525-.45h2.085c.495,0,.81,0,.81-.195a3.325,3.325,0,0,0-1.2-1.035c-.135,0-.18.06-.585.585-.195.255-.27.255-.96.255H68.535c-.84,0-1.62-.03-2.055-.06-.105,0-.57-.045-.66-.045a.04.04,0,0,0-.045.045c0,.015,0,.015.06.09l.285.345c.06.06.09.105.135.105s.27-.045.315-.045c.39-.03,1.455-.045,1.485-.045.615,0,.615.165.615.69v2.295c-.03.225-.21.285-.45.285Zm2.4,6.885c-.225,0-.375-.06-.42-.285-.015-.12-.015-3.645-.015-4.035,0-.255,0-1.86.045-1.98.075-.2.3-.2.39-.2h.315c.285,0,.435.1.435.405v2.43c0,.465,0,3.345-.045,3.465-.075.195-.3.195-.39.195Zm.33-10.155c.4,0,.4.27.4.5v2.16c0,.36,0,.615-.4.615h-.33a.376.376,0,0,1-.375-.18c-.045-.105-.045-1.47-.045-1.74,0-1.245,0-1.35.42-1.35ZM67.71,26.145a.361.361,0,0,1-.39-.195c-.045-.12-.045-2.175-.045-2.46,0-.465,0-3.525.045-3.645.075-.2.3-.2.39-.2h.525c.09,0,.315,0,.39.2.045.12.045,2.4.045,2.865,0,.345,0,3.03-.015,3.165-.045.27-.3.27-.42.27Zm4.455,0c-.09,0-.33,0-.4-.195-.045-.12-.045-3.54-.045-3.93,0-.45,0-2.055.045-2.175.075-.2.3-.2.4-.2h.72c.435,0,.435.12.435,1.245,0,1.26-.03,3.66-.045,4.83,0,.3-.12.42-.435.42Zm-8.04-7.485a.541.541,0,0,1,.045-.315c0-.015.525-1.215.63-1.455.435-1.05.495-1.17.585-1.245.21-.165.24-.195.24-.33,0-.3-1.275-.81-1.32-.81-.15,0-.165.135-.195.48C64,16.5,62.235,21,61.65,22.215a4.283,4.283,0,0,0-.18.4c0,.045.03.12.09.12a14.132,14.132,0,0,0,1.425-2.13c.135-.27.225-.435.3-.435.105,0,.105.3.105.345,0,.675-.075,5.085-.12,5.67-.045.525-.1,1.35-.1,1.59,0,.09,0,.33.33.33.435,0,.84-.18.84-.63,0-.27-.03-1.56-.03-1.86,0-.8.06-4.71.06-5.6a.987.987,0,0,1,.06-.42c.195-.255.21-.27.21-.345,0-.12-.075-.21-.24-.33A.879.879,0,0,1,64.125,18.66ZM88.71,25.44c.165,0,.435,0,.465.36s.045.465.4.465c.69,0,.69-.51.69-.765,0-.525-.075-3.045-.09-3.615-.015-.63-.03-1.425-.03-2.04,0-.315.015-.435.18-.57.225-.165.27-.18.27-.3,0-.255-1.02-.735-1.2-.735-.15,0-.15.015-.3.285a.483.483,0,0,1-.45.18c-.72,0-.72-.1-.72-1.11,0-.63,0-.8.465-.8H91c.51,0,.81,0,.81-.21A3.409,3.409,0,0,0,90.6,15.6c-.135,0-.18.06-.54.555-.195.255-.27.255-.96.255h-.7c-.42,0-.45-.165-.45-.63,0-.435,0-.54.195-.675s.225-.15.225-.255c0-.36-1.1-.375-1.44-.375-.165,0-.225.03-.225.135s.135.66.15.78c.015.18.045.525.045.645,0,.36-.24.375-.435.375h-.63c-.81,0-1.65-.045-2.01-.06-.09,0-.555-.045-.66-.045-.03,0-.06.015-.06.03,0,.03.015.03.075.105l.285.345c.045.06.075.09.135.09s.255-.03.315-.03c.09,0,.525-.045,1.845-.045h.69c.42,0,.48.06.48.915,0,.78,0,.99-.5.99H86a1.9,1.9,0,0,1-.63-.075,4.94,4.94,0,0,0-.66-.24c-.075,0-.165.015-.165.12,0,.075.1.45.12.54a8.319,8.319,0,0,1,.1,1.935c0,.7-.045,4.11-.045,4.875,0,.39.06.48.375.48a.585.585,0,0,0,.63-.42c.075-.375.09-.48.48-.48Zm-2.535-2.55c-.465,0-.465-.12-.465-1.215,0-.315,0-.57.45-.57h2.58a.414.414,0,0,1,.42.21,6.405,6.405,0,0,1,.03,1.215c0,.36-.33.36-.45.36Zm-.015-2.175c-.465,0-.465-.165-.465-.84,0-.6,0-.765.465-.765h2.58c.45,0,.45.1.45.99,0,.405,0,.615-.45.615Zm.03,4.32c-.48,0-.48-.15-.48-1,0-.54,0-.75.48-.75h2.535c.465,0,.465.165.465.945,0,.66,0,.81-.465.81ZM78.48,20.52a4.33,4.33,0,0,0,.855-.66,7.307,7.307,0,0,1,.795-.765c.06,0,.105.06.12.12.03.195.03,1.65.03,1.95,0,3.285.015,3.645-.045,4.935-.015.4-.075,1.05-.075,1.455,0,.315.015.57.39.57a.824.824,0,0,0,.84-.8c0-.285-.09-1.725-.09-2.055-.03-1.23-.03-2.61-.03-2.85,0-.495,0-2.73.09-3.045a2.238,2.238,0,0,0,.21-.36c0-.24-.36-.315-.465-.33-.315-.06-.435-.09-.435-.225a.514.514,0,0,1,.135-.27c.225-.3,1.215-1.86,1.455-2.2.06-.09.51-.495.51-.63,0-.255-1.125-.855-1.245-.855-.15,0-.15.105-.15.39a14.13,14.13,0,0,1-1.845,4c-.165.255-1.1,1.56-1.1,1.575A.04.04,0,0,0,78.48,20.52ZM91.635,27.3c.72,0,.81-.015.81-.21A2.521,2.521,0,0,0,91.305,26c-.165,0-.21.06-.585.645-.15.255-.3.255-.96.255h-5.7c-.18,0-.435,0-.465-.405-.045-.75-.105-5.175-.105-5.43a6.273,6.273,0,0,1,.03-.765c0-.06.18-.3.18-.345,0-.285-1.02-.525-1.2-.525-.09,0-.15.015-.15.12a3.69,3.69,0,0,0,.105.435,11.638,11.638,0,0,1,.135,2.055c0,.87-.09,4.725-.09,5.52,0,.45.21.57.375.57.435,0,.615-.36.765-.645.075-.165.195-.18.42-.18Z" transform="translate(929.714 5923.379)" fill="#fff"/>
    <path id="パス_29064" data-name="パス 29064" d="M9.136-6.45H6.112v.4c1.079.12,1.146.24.879,1.039C6.578-3.706,5.659-1.308,4.966.411H4.94c-.813-2.1-1.8-4.7-2.158-5.676-.2-.573-.173-.679.786-.786v-.4H.17v.4c.8.08,1.013.2,1.412,1.2C2.3-3.026,3.434-.1,4.327,2.343H4.78C5.792-.4,7.164-3.719,7.537-4.612c.506-1.212.693-1.346,1.6-1.439Zm9.339,8.66V1.823C17.609,1.73,17.423,1.6,17.01.451c-.853-2.3-1.745-4.81-2.571-7.1l-.466.133L11.228.438C10.762,1.61,10.588,1.7,9.722,1.823V2.21H12.64V1.823c-1-.107-1.092-.24-.826-1.052.173-.546.36-1.092.56-1.665h2.8c.28.773.533,1.452.693,1.958.173.533.067.653-.759.759V2.21Zm-3.5-3.69H12.587c.4-1.079.8-2.2,1.212-3.3h.04ZM28.867,0a3.822,3.822,0,0,1-.693,1.319c-.306.346-.759.413-1.465.413a2.773,2.773,0,0,1-1.226-.16c-.253-.133-.32-.386-.32-1.092V-4.771c0-1.146.133-1.212,1.172-1.292V-6.45H22.752v.386c1.079.093,1.172.16,1.172,1.292V.518c0,1.132-.12,1.226-1.239,1.306V2.21H28.8c.12-.4.4-1.679.48-2.118ZM41.444-6.45h-3.2v.386c.933.067,1.212.253,1.292.759a16.335,16.335,0,0,1,.093,2.132v1.079c0,2.212-.613,3.744-2.465,3.744-1.612,0-2.438-1.212-2.438-3.344v-3c0-1.212.107-1.292,1.132-1.372V-6.45H32.318v.386c1.039.107,1.159.16,1.159,1.372V-1.4a3.668,3.668,0,0,0,1.159,3.157,3.494,3.494,0,0,0,2.172.653,3.3,3.3,0,0,0,2.4-.933A4.81,4.81,0,0,0,40.2-2V-3.173a19.368,19.368,0,0,1,.08-2.1c.067-.533.373-.719,1.159-.786ZM52.075.025A4.419,4.419,0,0,1,51.4,1.29c-.293.333-.679.44-1.639.44A2.979,2.979,0,0,1,48.4,1.57c-.24-.16-.32-.466-.32-1.092V-1.987h1.2c1.159,0,1.266.08,1.439,1.026h.4V-3.532h-.4c-.16.893-.253,1-1.439,1h-1.2v-3c0-.4.04-.44.466-.44h.946c.919,0,1.279.093,1.479.386a3.216,3.216,0,0,1,.44,1.132l.413-.067c-.053-.706-.12-1.612-.12-1.932h-6v.386c1.013.093,1.132.147,1.132,1.332V.531c0,1.092-.12,1.2-1.319,1.292V2.21h6.5c.107-.413.386-1.652.453-2.118Z" transform="translate(857.7 5839.661)" fill="#fff"/>
    <path id="パス_29063" data-name="パス 29063" d="M9.529-6.5H6.358v.386c.946.053,1.252.24,1.319.826a20.169,20.169,0,0,1,.093,2.212v3.1h-.04L2.255-6.5H.19v.386a1.41,1.41,0,0,1,1.172.493c.253.32.28.413.28,1.359v2.9A21.9,21.9,0,0,1,1.549.907c-.067.639-.4.813-1.159.866V2.16H3.561V1.773c-.919-.053-1.212-.24-1.279-.893A22.265,22.265,0,0,1,2.2-1.357V-4.635h.027L7.877,2.28H8.33V-3.076c0-1.226.04-1.825.08-2.238.067-.586.373-.759,1.119-.8Zm11.2,6.475a4.419,4.419,0,0,1-.679,1.266c-.293.333-.679.44-1.639.44a2.979,2.979,0,0,1-1.359-.16c-.24-.16-.32-.466-.32-1.092V-2.037h1.2c1.159,0,1.266.08,1.439,1.026h.4V-3.582h-.4c-.16.893-.253,1-1.439,1h-1.2v-3c0-.4.04-.44.466-.44h.946c.919,0,1.279.093,1.479.386a3.216,3.216,0,0,1,.44,1.132l.413-.067c-.053-.706-.12-1.612-.12-1.932h-6v.386c1.013.093,1.132.147,1.132,1.332V.481c0,1.092-.12,1.2-1.319,1.292V2.16h6.5c.107-.413.386-1.652.453-2.118ZM37.813-6.5H34.842v.386c1.052.12,1.106.28.919,1.079-.2.919-.906,3.424-1.465,5.183H34.27c-.786-2.238-1.559-4.37-2.3-6.528h-.44c-.666,2.145-1.412,4.317-2.1,6.515h-.027c-.56-1.825-1.066-3.571-1.585-5.316-.187-.679-.173-.813.813-.933V-6.5H25.263v.386c.8.107,1,.24,1.332,1.319.733,2.371,1.479,4.69,2.172,7.088h.48c.666-2.1,1.4-4.21,2.132-6.5h.027c.693,1.958,1.572,4.4,2.3,6.5h.466c1.106-3.717,1.892-6.2,2.2-7.061.386-1.092.533-1.212,1.439-1.346Z" transform="translate(962.903 5830.852)" fill="#fff"/>
    <path id="パス_29062" data-name="パス 29062" d="M9.136-6.45H6.112v.4c1.079.12,1.146.24.879,1.039C6.578-3.706,5.659-1.308,4.966.411H4.94c-.813-2.1-1.8-4.7-2.158-5.676-.2-.573-.173-.679.786-.786v-.4H.17v.4c.8.08,1.013.2,1.412,1.2C2.3-3.026,3.434-.1,4.327,2.343H4.78C5.792-.4,7.164-3.719,7.537-4.612c.506-1.212.693-1.346,1.6-1.439Zm9.872,8.66V1.823C18.142,1.73,17.956,1.6,17.543.451c-.853-2.3-1.745-4.81-2.571-7.1l-.466.133L11.761.438c-.466,1.172-.639,1.266-1.505,1.386V2.21h2.918V1.823c-1-.107-1.092-.24-.826-1.052.173-.546.36-1.092.56-1.665h2.8c.28.773.533,1.452.693,1.958.173.533.067.653-.759.759V2.21Zm-3.5-3.69H13.12c.4-1.079.8-2.2,1.212-3.3h.04ZM29.933,0a3.822,3.822,0,0,1-.693,1.319c-.306.346-.759.413-1.466.413a2.773,2.773,0,0,1-1.226-.16c-.253-.133-.32-.386-.32-1.092V-4.771c0-1.146.133-1.212,1.172-1.292V-6.45H23.818v.386c1.079.093,1.172.16,1.172,1.292V.518c0,1.132-.12,1.226-1.239,1.306V2.21h6.115c.12-.4.4-1.679.48-2.118ZM43.043-6.45h-3.2v.386c.933.067,1.212.253,1.292.759a16.335,16.335,0,0,1,.093,2.132v1.079c0,2.212-.613,3.744-2.465,3.744-1.612,0-2.438-1.212-2.438-3.344v-3c0-1.212.107-1.292,1.132-1.372V-6.45H33.917v.386c1.039.107,1.159.16,1.159,1.372V-1.4a3.668,3.668,0,0,0,1.159,3.157,3.494,3.494,0,0,0,2.172.653,3.3,3.3,0,0,0,2.4-.933A4.81,4.81,0,0,0,41.8-2V-3.173a19.368,19.368,0,0,1,.08-2.1c.067-.533.373-.719,1.159-.786ZM54.207.025a4.419,4.419,0,0,1-.679,1.266c-.293.333-.679.44-1.639.44a2.979,2.979,0,0,1-1.359-.16c-.24-.16-.32-.466-.32-1.092V-1.987h1.2c1.159,0,1.266.08,1.439,1.026h.4V-3.532h-.4c-.16.893-.253,1-1.439,1h-1.2v-3c0-.4.04-.44.466-.44h.946c.919,0,1.279.093,1.479.386a3.216,3.216,0,0,1,.44,1.132l.413-.067c-.053-.706-.12-1.612-.12-1.932h-6v.386c1.013.093,1.132.147,1.132,1.332V.531c0,1.092-.12,1.2-1.319,1.292V2.21h6.5c.107-.413.386-1.652.453-2.118Z" transform="translate(953.45 5849.467)" fill="#fff"/>
    <path id="パス_29057" data-name="パス 29057" d="M97.4,300.558a48.406,48.406,0,1,0-48.407,48.407A48.407,48.407,0,0,0,97.4,300.558Z" transform="translate(836.126 5535.884)" fill="none" stroke="#fff" stroke-miterlimit="10" stroke-width="1"/>
    <path id="パス_29058" data-name="パス 29058" d="M165,300.558a48.406,48.406,0,1,0-48.407,48.407A48.407,48.407,0,0,0,165,300.558Z" transform="translate(865.342 5535.884)" fill="none" stroke="#fff" stroke-miterlimit="10" stroke-width="1"/>
    <path id="パス_38595" data-name="パス 38595" d="M-79.47-5.16c-.21,0-.285-.105-.285-.255,0-.06.015-.465.015-.525s.27-.42.27-.51c0-.3-1.035-.4-1.14-.4-.045,0-.165.015-.165.105,0,.06.06.375.075.45,0,.255.015.555.015.81,0,.2-.03.345-.345.345-.45,0-1.23-.045-1.92-.075-.075,0-.435-.03-.45-.03-.03,0-.06,0-.06.03,0,.015,0,.03.045.075l.345.39a.134.134,0,0,0,.12.075c.045,0,.24-.03.285-.03.33-.03.66-.045,1.08-.045.33,0,.39.06.39.24A8.881,8.881,0,0,1-82.6-1.59c-.135.2-.825,1.14-.825,1.185a.071.071,0,0,0,.075.075,6,6,0,0,0,.795-.63,12.068,12.068,0,0,0,1.575-1.9c.06-.105.135-.21.18-.21.12,0,.12.09.12.96,0,.39-.09,2.325-.09,2.76,0,.12,0,.33.345.33a.814.814,0,0,0,.63-.33,3.024,3.024,0,0,0,.045-.8c0-.21-.03-1.275-.03-1.53,0-.285.015-1.68.015-1.86s.015-.405.18-.405c.24,0,.75.885.93,1.23.315.615.345.69.615.69.285,0,.465-.315.465-.645,0-.66-.51-.945-1.62-1.5-.5-.255-.54-.27-.54-.42s.225-.165.27-.165h1.8c.81,0,.885,0,.885-.225,0-.2-.825-.915-.945-.915-.075,0-.195.15-.345.33a.777.777,0,0,1-.69.4Zm-.12-5.01c.4,0,.45.15.45.42a4.517,4.517,0,0,1-.39,1.44,6.866,6.866,0,0,0-.27.66c0,.03.015.09.06.09a1.4,1.4,0,0,0,.36-.21c.165-.165.84-1.02,1-1.2.06-.075.48-.39.48-.495,0-.135-.705-.465-.705-.615,0-.075.075-.09.12-.09h.645c.5,0,.8,0,.8-.21a2.044,2.044,0,0,0-1.14-.915c-.1,0-.15.045-.51.45a.648.648,0,0,1-.51.27h-.345c-.315,0-.33-.15-.33-.495a1.409,1.409,0,0,1,.135-.69c.03-.06.195-.405.195-.435,0-.165-1.125-.39-1.17-.39-.15,0-.18.09-.18.135,0,.03.06.225.06.255a1.993,1.993,0,0,1,.06.615c0,.975,0,1.005-.465,1.005-.255,0-1.545-.105-1.83-.105-.03,0-.06.015-.06.045a.493.493,0,0,0,.045.09l.33.375a.2.2,0,0,0,.135.075c.09,0,.51-.045.6-.06.18,0,.6-.015,1.59-.015Zm-2.46.36c-.03.015,0,.09,0,.12a4.938,4.938,0,0,1,.225.9c.15.96.165,1.05.525,1.05s.525-.39.525-.675a1.625,1.625,0,0,0-1.2-1.425A.1.1,0,0,0-82.05-9.81Zm8.475,2.82c.345,0,.39.3.39,1.125,0,.78,0,3.33-.015,3.885-.045,1.245-.09,2.46-.09,2.61,0,.225.03.345.39.345A.675.675,0,0,0-72.15.21c0-.3-.03-1.785-.03-2.13,0-.315.015-4.545.03-4.65.03-.345.24-.42.345-.42h.945c.6,0,.885,0,.885-.21,0-.09-.015-.105-.255-.345-.6-.6-.66-.675-.81-.675s-.18.06-.555.555a.622.622,0,0,1-.63.285H-74.46c-.525,0-.525-.12-.525-1.245,0-1.785.03-1.845.225-1.935s3.27-.42,3.615-.45c.78-.045.84-.06.84-.195a4.508,4.508,0,0,0-1.455-.975,3.061,3.061,0,0,0-.435.285,10.7,10.7,0,0,1-2.865,1.02,1.745,1.745,0,0,1-.435-.075,4.267,4.267,0,0,0-.57-.195c-.075,0-.075.075-.075.135s.075.84.09,1.005c.06.915.09,1.335.09,3.105,0,3.585-.135,4.935-1.785,7.08-.06.06-.375.33-.375.42,0,.045.06.045.1.045A4.548,4.548,0,0,0-76.185-.99,9.022,9.022,0,0,0-75-5.895c.03-.855.03-1.095.525-1.095Zm-7.71-.525c-.525,0-1.41-.045-2-.075-.06,0-.36-.03-.4-.03-.015,0-.06.015-.06.03s.015.03.06.09l.33.39a.185.185,0,0,0,.12.06c.09,0,.525-.045.615-.045.54-.015.72-.03,1.425-.03h3.855c.795,0,.885,0,.885-.225,0-.18-.825-.9-.945-.9-.075,0-.195.135-.345.33a.807.807,0,0,1-.69.405ZM-62.49-11.61c-.09,0-.21.045-.21.15,0,.015.15.36.165.4a1.889,1.889,0,0,1,.135.735c0,.42-.135,1.65-.195,2.145A34.206,34.206,0,0,0-62.94-4c0,3.015.93,4.14,2.88,4.14a7.015,7.015,0,0,0,5.04-2.58A.07.07,0,0,0-55.1-2.52c-.06,0-1.2.63-1.425.735A7.388,7.388,0,0,1-59.67-1c-2.01,0-2.3-1.35-2.3-2.865a36.054,36.054,0,0,1,.63-5.34,6.9,6.9,0,0,0,.285-.84C-61.05-10.4-61.71-11.61-62.49-11.61Zm15.045,1.755c-.03,0-.09.015-.09.06a2.026,2.026,0,0,0,.12.51,4.167,4.167,0,0,1,.1.87c0,.39-.21,2.235-.21,2.655,0,2.865,1.89,4.44,2.85,4.44.255,0,.57-.165.57-.465a3.762,3.762,0,0,0-.12-.495,2.025,2.025,0,0,1-.09-.6,4.209,4.209,0,0,1,.195-1.14,1.8,1.8,0,0,0,.045-.3c0-.06-.03-.12-.075-.12-.12,0-.375.36-.465.51-.45.75-.51.825-.765.825-.465,0-1.245-1.095-1.245-2.61a5.3,5.3,0,0,1,.36-1.935,2.055,2.055,0,0,0,.18-.6C-46.08-8.655-46.755-9.855-47.445-9.855Zm7.155,1.38c-.075,0-.135.03-.135.075,0,.09.6.555.72.675.795.795.795,1.425.795,2.67,0,.2,0,1.005.735,1.005s.75-.7.75-.99A3.733,3.733,0,0,0-38.76-7.905,2.919,2.919,0,0,0-40.29-8.475Zm13.89.735a.83.83,0,0,1-.495-.15c-.135-.06-.87-.45-.915-.45s-.045.015-.045.165c0,.825.06,4.455.06,5.19,0,.105-.015.9-.045,1.815-.015.225-.075,1.29-.075,1.44,0,.18,0,.45.435.45.63,0,.69-.435.735-.78.045-.39.255-.39.405-.39h5.1c.135,0,.33,0,.39.33.09.585.12.75.45.75.255,0,.735-.24.735-.96,0-.15-.045-.78-.045-.915-.03-1-.06-3.33-.06-3.555a14.791,14.791,0,0,1,.1-2.22c.045-.105.375-.48.375-.585,0-.285-.99-.72-1.065-.72-.165,0-.21.09-.42.42-.075.135-.195.165-.42.165h-.66c-.27,0-.45-.045-.45-.45v-2.37c0-.435.3-.45.525-.45h2.085c.5,0,.81,0,.81-.195a3.325,3.325,0,0,0-1.2-1.035c-.135,0-.18.06-.585.585-.195.255-.27.255-.96.255h-3.885c-.84,0-1.62-.03-2.055-.06-.1,0-.57-.045-.66-.045a.04.04,0,0,0-.045.045c0,.015,0,.015.06.09l.285.345c.06.06.09.105.135.105s.27-.045.315-.045c.39-.03,1.455-.045,1.485-.045.615,0,.615.165.615.69v2.3c-.03.225-.21.285-.45.285ZM-24-.855c-.225,0-.375-.06-.42-.285-.015-.12-.015-3.645-.015-4.035,0-.255,0-1.86.045-1.98.075-.2.3-.2.39-.2h.315c.285,0,.435.105.435.405v2.43c0,.465,0,3.345-.045,3.465-.075.195-.3.195-.39.195Zm.33-10.155c.4,0,.4.27.4.5v2.16c0,.36,0,.615-.4.615H-24a.376.376,0,0,1-.375-.18c-.045-.105-.045-1.47-.045-1.74,0-1.245,0-1.35.42-1.35ZM-26.34-.855a.361.361,0,0,1-.39-.195c-.045-.12-.045-2.175-.045-2.46,0-.465,0-3.525.045-3.645.075-.2.3-.2.39-.2h.525c.09,0,.315,0,.39.2.045.12.045,2.4.045,2.865,0,.345,0,3.03-.015,3.165-.045.27-.3.27-.42.27Zm4.455,0c-.09,0-.33,0-.4-.195-.045-.12-.045-3.54-.045-3.93,0-.45,0-2.055.045-2.175.075-.2.3-.2.4-.2h.72c.435,0,.435.12.435,1.245,0,1.26-.03,3.66-.045,4.83,0,.3-.12.42-.435.42Zm-8.04-7.485a.541.541,0,0,1,.045-.315c0-.015.525-1.215.63-1.455.435-1.05.5-1.17.585-1.245.21-.165.24-.195.24-.33,0-.3-1.275-.81-1.32-.81-.15,0-.165.135-.2.48-.1,1.515-1.875,6.015-2.46,7.23a4.283,4.283,0,0,0-.18.4c0,.045.03.12.09.12a14.132,14.132,0,0,0,1.425-2.13c.135-.27.225-.435.3-.435.1,0,.1.3.1.345,0,.675-.075,5.085-.12,5.67-.045.525-.105,1.35-.105,1.59,0,.09,0,.33.33.33.435,0,.84-.18.84-.63,0-.27-.03-1.56-.03-1.86,0-.795.06-4.71.06-5.595a.987.987,0,0,1,.06-.42c.195-.255.21-.27.21-.345,0-.12-.075-.21-.24-.33A.879.879,0,0,1-29.925-8.34ZM-5.34-1.56c.165,0,.435,0,.465.36.03.345.045.465.4.465.69,0,.69-.51.69-.765,0-.525-.075-3.045-.09-3.615-.015-.63-.03-1.425-.03-2.04,0-.315.015-.435.18-.57.225-.165.27-.18.27-.3,0-.255-1.02-.735-1.2-.735-.15,0-.15.015-.3.285a.483.483,0,0,1-.45.18c-.72,0-.72-.1-.72-1.11,0-.63,0-.8.465-.8h2.61c.51,0,.81,0,.81-.21A3.409,3.409,0,0,0-3.45-11.4c-.135,0-.18.06-.54.555-.2.255-.27.255-.96.255h-.7c-.42,0-.45-.165-.45-.63,0-.435,0-.54.2-.675s.225-.15.225-.255c0-.36-1.1-.375-1.44-.375-.165,0-.225.03-.225.135s.135.66.15.78c.015.18.045.525.045.645,0,.36-.24.375-.435.375h-.63c-.81,0-1.65-.045-2.01-.06-.09,0-.555-.045-.66-.045-.03,0-.06.015-.06.03s.015.03.075.105l.285.345c.045.06.075.09.135.09s.255-.03.315-.03c.09,0,.525-.045,1.845-.045h.69c.42,0,.48.06.48.915,0,.78,0,.99-.5.99h-.435a1.9,1.9,0,0,1-.63-.075,4.94,4.94,0,0,0-.66-.24c-.075,0-.165.015-.165.12,0,.075.105.45.12.54a8.319,8.319,0,0,1,.1,1.935c0,.7-.045,4.11-.045,4.875,0,.39.06.48.375.48a.585.585,0,0,0,.63-.42c.075-.375.09-.48.48-.48ZM-7.875-4.11c-.465,0-.465-.12-.465-1.215,0-.315,0-.57.45-.57h2.58a.414.414,0,0,1,.42.21A6.4,6.4,0,0,1-4.86-4.47c0,.36-.33.36-.45.36ZM-7.89-6.285c-.465,0-.465-.165-.465-.84,0-.6,0-.765.465-.765h2.58c.45,0,.45.105.45.99,0,.405,0,.615-.45.615Zm.03,4.32c-.48,0-.48-.15-.48-1.005,0-.54,0-.75.48-.75h2.535c.465,0,.465.165.465.945,0,.66,0,.81-.465.81ZM-15.57-6.48a4.33,4.33,0,0,0,.855-.66,7.307,7.307,0,0,1,.8-.765c.06,0,.105.06.12.12.03.2.03,1.65.03,1.95,0,3.285.015,3.645-.045,4.935C-13.83-.5-13.89.15-13.89.555c0,.315.015.57.39.57a.824.824,0,0,0,.84-.8c0-.285-.09-1.725-.09-2.055-.03-1.23-.03-2.61-.03-2.85,0-.495,0-2.73.09-3.045a2.238,2.238,0,0,0,.21-.36c0-.24-.36-.315-.465-.33-.315-.06-.435-.09-.435-.225a.514.514,0,0,1,.135-.27c.225-.3,1.215-1.86,1.455-2.2.06-.09.51-.495.51-.63,0-.255-1.125-.855-1.245-.855-.15,0-.15.105-.15.39a14.13,14.13,0,0,1-1.845,4c-.165.255-1.095,1.56-1.095,1.575A.04.04,0,0,0-15.57-6.48ZM-2.415.3c.72,0,.81-.015.81-.21A2.521,2.521,0,0,0-2.745-1c-.165,0-.21.06-.585.645-.15.255-.3.255-.96.255h-5.7c-.18,0-.435,0-.465-.405-.045-.75-.1-5.175-.1-5.43a6.272,6.272,0,0,1,.03-.765c0-.06.18-.3.18-.345,0-.285-1.02-.525-1.2-.525-.09,0-.15.015-.15.12a3.69,3.69,0,0,0,.1.435,11.638,11.638,0,0,1,.135,2.055c0,.87-.09,4.725-.09,5.52,0,.45.21.57.375.57.435,0,.615-.36.765-.645.075-.165.2-.18.42-.18ZM4.56-4.32A11.7,11.7,0,0,1,5.715-8.19C6-8.7,6-8.715,6-8.88c0-.54-.63-1.9-1.32-1.9-.06,0-.12.03-.12.075a1.9,1.9,0,0,0,.09.27A3.674,3.674,0,0,1,4.8-9.375a5.093,5.093,0,0,1-.255,1.56,10.782,10.782,0,0,0-.63,3.27c0,1.44.69,3.99,1.62,3.99a.5.5,0,0,0,.495-.51,1.617,1.617,0,0,0-.18-.66,2.675,2.675,0,0,1-.24-.78c0-.36.345-2.115.345-2.28,0-.03,0-.18-.075-.18s-.12.12-.21.375c-.33.93-.465,1.17-.72,1.17C4.71-3.42,4.56-3.87,4.56-4.32Zm7.77-5.55c-.15-.015-.195,0-.645.165a6.059,6.059,0,0,1-1.65.225,5.125,5.125,0,0,1-1.02-.09c-.195-.045-.375-.1-.42-.1-.09,0-.1.045-.1.075a2.942,2.942,0,0,0,2.625,1.11c.18,0,1.845,0,1.845-.735A.748.748,0,0,0,12.33-9.87Zm.645,7.44c-.06,0-1.11.105-1.32.12a12.5,12.5,0,0,1-1.305.045A3.692,3.692,0,0,1,8.745-2.52a2.238,2.238,0,0,0-.36-.21c-.075,0-.075.12-.075.15,0,.285.39.675.465.75a3.063,3.063,0,0,0,2.34.675c2.1,0,2.55-.18,2.55-.765C13.665-2.1,13.545-2.43,12.975-2.43ZM21.33-9.48a2.028,2.028,0,0,1-.825-.135,2.983,2.983,0,0,0-.84-.285.069.069,0,0,0-.075.06c0,.105.1.63.12.735.075.795.075,1.71.075,2.19,0,.105-.045,4.965-.075,5.475-.045.6-.135,1.545-.135,2.145,0,.255.09.345.42.345.885,0,.885-.495.885-.915,0-.975-.06-5.31-.06-6.2a27.551,27.551,0,0,1,.09-2.85c.09-.18.3-.18.48-.18h8.64c.465,0,.465.18.465.69,0,.57.015,3.48.015,4.05,0,.45-.03,2.445-.03,2.865,0,1.14,0,1.29-.78,1.29-.15,0-.78-.06-.915-.06-.03,0-.165,0-.165.075,0,.12.93.465,1.08.57.12.09.135.15.21.465.03.12.18.165.3.165a1.87,1.87,0,0,0,.735-.27A1.167,1.167,0,0,0,31.56-.39c0-.645-.045-3.465-.045-4.035,0-2.775,0-3.075.015-3.51.015-.48.1-.555.48-.855.03-.03.12-.1.12-.18,0-.21-1.065-1.035-1.23-1.035-.075,0-.135.06-.315.3a.54.54,0,0,1-.495.225H24c-.15,0-.24,0-.24-.12a11.868,11.868,0,0,1,2.01-1.725c.375-.045.42-.06.42-.18,0-.15-.33-.375-.405-.435-.06-.045-1.05-.66-1.11-.66-.1,0-.12.135-.18.42a11.136,11.136,0,0,1-1.11,2.265.773.773,0,0,1-.84.435Zm5.55,7.305c.135,0,.3,0,.3.255,0,.66,0,.735.345.735.765,0,.765-.54.765-.84,0-.36-.03-2.01-.03-2.34,0-.21,0-1.425.03-1.53a6.946,6.946,0,0,0,.36-.645c0-.255-.7-.72-.9-.72-.1,0-.195.09-.42.3-.09.09-.24.09-.42.09H24.5a1.538,1.538,0,0,1-.42-.045c-.165-.03-.84-.375-.99-.375s-.18.105-.18.24.09.675.09.8c.045.78.03,1.32.03,1.485,0,.51-.1,3.15-.1,3.225,0,.315.1.42.4.42.405,0,.75-.21.75-.63,0-.375,0-.42.375-.42ZM24.5-2.565c-.135,0-.345,0-.42-.18S24-5.625,24-5.835c0-.405,0-.645.45-.645h2.355c.45,0,.45.12.45,1.08,0,.27,0,2.475-.06,2.655s-.3.18-.42.18Zm14.07-3.7c.3,0,1.695-.6,2.025-.6.09,0,.1.075.1.12a4.033,4.033,0,0,1-.21.7,8.788,8.788,0,0,1-1.845,3.39c-.9.99-1.005,1.11-1.005,1.425a.441.441,0,0,0,.48.48c1.215,0,2.67-3.69,3.27-5.73.15-.51.165-.57.225-.645a3.261,3.261,0,0,1,1.44-.36c.435,0,1.035.075,1.035,1.125a11.926,11.926,0,0,1-.465,2.61c-.435,1.62-.99,1.83-1.425,1.83a4.754,4.754,0,0,1-.765-.105,2.736,2.736,0,0,0-.375-.105.071.071,0,0,0-.075.075c0,.03.165.42.195.495.165.48.315,1.035.885,1.035a2.326,2.326,0,0,0,1.53-.915c.87-1.05,1.29-3.63,1.29-4.815a1.771,1.771,0,0,0-1.995-1.92c-.12,0-.81.075-.885.075-.1,0-.165-.045-.165-.135,0-.285.57-2.19.57-2.22,0-.39-.585-.96-1.59-.96-.06,0-.24.015-.24.12,0,.045.03.075.255.345a1.9,1.9,0,0,1,.375,1.275c0,.075-.015,1.59-.27,1.77a25.085,25.085,0,0,1-2.52.45c-.165,0-.945-.21-.99-.21a.132.132,0,0,0-.135.12C37.29-7.215,37.98-6.27,38.565-6.27Zm10.05.615A2.751,2.751,0,0,0,45.99-8.31c-.045,0-.1,0-.1.09,0,.06.24.165.36.225A1.929,1.929,0,0,1,47.46-6.27c0,.4-.06.45-.615.87-.09.075-.585.33-.585.42,0,.045.4.075.48.105.18.045.87.45,1.02.45C48.39-4.425,48.615-5.475,48.615-5.655Zm8,1.545c.33,0,.435-.06,1.3-.645a7.622,7.622,0,0,1,3.66-1.575A1.947,1.947,0,0,1,63.45-4.29c0,1.26-.87,3.165-3.615,3.54-.465.06-.525.075-.525.21,0,.18.225.18.375.18C62-.36,64.44-1.53,64.44-3.84a3,3,0,0,0-3.06-2.97,10.413,10.413,0,0,0-3.33.885c-1.455.6-1.62.675-1.905.675-.1,0-.615-.15-.735-.15s-.21.06-.21.24A1.54,1.54,0,0,0,56.61-4.11Zm15-4.77c-.18.21.525,1.215,1.275,1.215a1.085,1.085,0,0,0,.525-.2,19.65,19.65,0,0,1,4.455-1.605c.03,0,.09,0,.09.03a2.688,2.688,0,0,1-.36.315C75.42-7.185,75.4-4,75.4-3.345A2.825,2.825,0,0,0,78.48-.135c.09,0,1.74,0,1.74-.8,0-.36-.285-.555-.75-.555-.12,0-1.2.09-1.425.09-.885,0-1.83-.165-1.83-2.685,0-3.87,2.13-5.625,4.035-5.625.18,0,1.035.165,1.23.165a.6.6,0,0,0,.6-.555c0-.51-.675-.72-1.2-.72a40.2,40.2,0,0,0-5.76,1.35,9.658,9.658,0,0,1-2.925.645C72.12-8.82,71.67-8.955,71.61-8.88ZM-84.99,15.39a2.261,2.261,0,0,1-.69-.075,7.057,7.057,0,0,0-.855-.375c-.045,0-.045.06-.045.105,0,.165.06.825.06.96.06,1,.06,2.175.06,4.02,0,1.365-.015,1.665-.045,2.145,0,.045-.045.63-.045.66,0,.39.18.465.375.465a.637.637,0,0,0,.615-.42c.075-.24.09-.345.315-.345H-83.4c.15,0,.36,0,.4.33.045.27.045,2.1.045,2.52,0,.24-.03,1.305,0,1.515.09.765.81.9,2.2.9,1.2,0,1.545-.165,1.785-.375a.879.879,0,0,0,.345-.51c0-.135-.435-.66-.48-.8a4.7,4.7,0,0,1-.18-1.05c-.015-.18-.03-.24-.09-.24-.09,0-.105.075-.18.48-.24,1.365-.27,1.56-1.215,1.56-.345,0-.975-.03-1.14-.315a7.236,7.236,0,0,1-.1-1.6c0-.36,0-1.98.045-2.175.045-.21.27-.24.42-.24.3,0,.525,0,.585.255.045.195.075.36.36.36.705,0,.705-.6.705-.825,0-.8-.09-4.365-.09-5.085,0-.15.015-.915.045-1.005s.45-.39.45-.48c0-.21-1.02-.9-1.125-.9s-.375.345-.45.39a.883.883,0,0,1-.57.15Zm3.57,2.625c.48,0,.48.18.48.75,0,.9,0,1.02-.48,1.02h-3.63c-.465,0-.465-.165-.465-.795,0-.84,0-.975.465-.975Zm-3.63-.4c-.465,0-.465-.135-.465-.84,0-.87,0-.975.465-.975h3.63c.465,0,.465.135.465.825,0,.885,0,.99-.465.99Zm.03,4.53c-.48,0-.48-.03-.48-1.44,0-.285,0-.51.465-.51h3.615c.465,0,.465.21.465.57,0,1.32-.03,1.38-.495,1.38Zm-6.75-1.9c.06.06.075.09.12.09s.24-.03.3-.03c.315-.03.945-.03,1-.03.39,0,.39.315.39.5,0,.285,0,2.9-.045,3-.105.225-1.545.3-1.815.3-.06,0-.315-.03-.375-.03-.09,0-.12.06-.12.135,0,.165.57,1.365.765,1.365.1,0,.21-.09.33-.225.21-.27.3-.3,1.14-.63,2.625-1,3.195-1.23,3.195-1.365,0-.06-.06-.06-.105-.06-.15,0-1.5.36-1.785.36a.147.147,0,0,1-.165-.12c-.03-.12-.03-2.34-.03-2.61,0-.405,0-.63.48-.63h.765c.285,0,.705,0,.705-.135a2.571,2.571,0,0,0-.93-.99c-.105,0-.18.09-.465.48-.15.225-.255.225-.33.225-.225,0-.225-.075-.225-.81,0-.51,0-2.205.045-2.31.075-.195.3-.195.435-.195h.975c.45,0,.72,0,.72-.21,0-.18-1.17-.99-1.26-.99-.135,0-.255.15-.375.315-.3.4-.345.45-.465.465a7.015,7.015,0,0,1-1.17.03c-.24,0-1.4-.045-1.59-.06-.075,0-.42-.045-.495-.045-.03,0-.045.015-.045.03,0,.03.015.06.06.1l.255.345c.045.06.075.09.12.09a.878.878,0,0,0,.195-.03c.255-.015.885-.045,1.155-.045.21,0,.42.045.435.39.015.3.015,2.025.015,2.445,0,.225,0,.5-.45.5-.225,0-1.38-.09-1.635-.09-.03,0-.045.015-.045.03,0,.03,0,.03.06.1Zm6.855,2.43c-.075-.03-.225-.045-.225.09,0,.045.06.285.06.345a5.065,5.065,0,0,1-.825,2.34,7.033,7.033,0,0,1-3.645,2.37c-.195.045-.33.06-.33.135s.075.12.195.12a7.937,7.937,0,0,0,2.73-.8A4.836,4.836,0,0,0-84.3,24.345c.3-.885.315-.9.5-.96.105-.03.195-.06.195-.165C-83.61,23.04-84.72,22.71-84.915,22.665Zm22.17-4.65c.51,0,.81,0,.81-.225,0-.18-1.32-.99-1.41-.99-.135,0-.18.06-.6.555-.225.255-.285.255-.96.255h-3.66c-.075,0-.33,0-.33-.21a8.585,8.585,0,0,1,.8-1.71c.06-.06.42-.285.42-.375,0-.225-1.455-.75-1.62-.75-.06,0-.135.015-.135.1,0,.03.06.15.06.18a15.225,15.225,0,0,1-.705,2.31c-.21.45-.42.45-.87.45h-1.11c-.705,0-1.335-.015-2.07-.045-.09-.015-.555-.06-.66-.06a.04.04,0,0,0-.045.045.228.228,0,0,0,.06.09l.285.345c.045.06.09.1.135.1a2.276,2.276,0,0,0,.315-.045c.15-.015.585-.03,1.9-.03h1.08c.27,0,.45.03.45.285a12.978,12.978,0,0,1-1.35,2.7c-.06.09-.09.09-.255.09-.12,0-.12.045-.12.345,0,.405-1.485,2.085-2.04,2.7-.21.225-.51.57-.645.7,0,.03.015.045.06.045A11.182,11.182,0,0,0-72.57,22.98a.248.248,0,0,1,.195-.12c.18,0,.21.075.21,1.665,0,.585,0,1.965-.03,2.475,0,.15-.045.645-.045.735a.32.32,0,0,0,.36.345.681.681,0,0,0,.765-.645,3.237,3.237,0,0,0-.03-.42c-.045-.585-.075-1.5-.075-2.22,0-.39,0-2.49.075-2.685.03-.06.285-.27.285-.345,0-.1-.075-.135-.27-.255a.131.131,0,0,1-.09-.135.2.2,0,0,1,.045-.1,16.216,16.216,0,0,0,1.365-2.265c.48-.9.54-.99,1.11-.99Zm-.495,4.335c.51,0,.81,0,.81-.21,0-.18-1.305-.99-1.41-.99-.135,0-.18.06-.6.555-.21.255-.285.255-.96.255h-.27c-.15,0-.435,0-.465-.33V19.92c0-.375.03-.63.255-.78.18-.1.21-.12.21-.18,0-.1-.105-.15-.21-.18a10.265,10.265,0,0,0-1.26-.27c-.09,0-.105.06-.105.15,0,.045.105,2.31.105,2.745,0,.525-.18.555-.525.555-.285,0-1.44-.045-1.635-.045-.09-.015-.57-.06-.675-.06-.03,0-.06.015-.06.03s.045.06.075.1l.285.345c.045.06.075.09.135.09.03,0,.39-.03.45-.03.51-.03,1.035-.045,1.56-.045a.378.378,0,0,1,.36.18,20.811,20.811,0,0,1,.075,2.25,11.2,11.2,0,0,1-.105,2.055c-.075.135-.195.15-.4.15-.66,0-1.1,0-2.295-.045-.09,0-.555-.06-.66-.06-.03,0-.06.015-.06.045s.045.06.075.09l.285.345c.045.06.075.1.135.1a2.65,2.65,0,0,0,.315-.045c.15,0,.585-.03,1.89-.03h5.22c.51,0,.81,0,.81-.21s-1.305-.99-1.41-.99c-.135,0-.18.045-.6.555-.21.24-.285.24-.96.24h-.795c-.435,0-.45-.09-.45-.615s-.045-3.03-.045-3.6c0-.42.285-.42.48-.42Zm12.27-5.55a3.863,3.863,0,0,1,4.155,4.155c0,3.735-3.255,5.025-4.815,5.64-.375.15-.4.165-.4.21,0,.09.09.1.15.1a9.219,9.219,0,0,0,2.49-.555,5.594,5.594,0,0,0,3.78-5.28,4.7,4.7,0,0,0-2.61-4.365,4.887,4.887,0,0,0-2.415-.48,6.206,6.206,0,0,0-4.785,1.95,5.284,5.284,0,0,0-1.665,3.825c0,1.83.885,3.375,1.875,3.375.6,0,1.365-.36,2.565-2.19A7.694,7.694,0,0,0-51.1,18.8a11.5,11.5,0,0,0-.15-1.62c0-.06-.03-.12-.03-.165C-51.285,16.92-51.27,16.8-50.97,16.8Zm-.84.045c.195,0,.255.075.255.975a8.58,8.58,0,0,1-1.47,4.365c-1.035,1.56-1.395,1.74-1.83,1.74-.915,0-1.305-1.335-1.305-2.31A5.18,5.18,0,0,1-51.81,16.845Zm16.86,2.415a.83.83,0,0,1-.495-.15c-.135-.06-.87-.45-.915-.45s-.045.015-.045.165c0,.825.06,4.455.06,5.19,0,.1-.015.9-.045,1.815-.015.225-.075,1.29-.075,1.44,0,.18,0,.45.435.45.63,0,.69-.435.735-.78.045-.39.255-.39.405-.39h5.1c.135,0,.33,0,.39.33.09.585.12.75.45.75.255,0,.735-.24.735-.96,0-.15-.045-.78-.045-.915-.03-1-.06-3.33-.06-3.555a14.791,14.791,0,0,1,.1-2.22c.045-.1.375-.48.375-.585,0-.285-.99-.72-1.065-.72-.165,0-.21.09-.42.42-.075.135-.195.165-.42.165h-.66c-.27,0-.45-.045-.45-.45V16.44c0-.435.3-.45.525-.45h2.085c.5,0,.81,0,.81-.195a3.325,3.325,0,0,0-1.2-1.035c-.135,0-.18.06-.585.585-.195.255-.27.255-.96.255h-3.885c-.84,0-1.62-.03-2.055-.06-.1,0-.57-.045-.66-.045a.04.04,0,0,0-.045.045c0,.015,0,.015.06.09l.285.345c.06.06.09.105.135.105s.27-.045.315-.045c.39-.03,1.455-.045,1.485-.045.615,0,.615.165.615.69v2.295c-.03.225-.21.285-.45.285Zm2.4,6.885c-.225,0-.375-.06-.42-.285-.015-.12-.015-3.645-.015-4.035,0-.255,0-1.86.045-1.98.075-.2.3-.2.39-.2h.315c.285,0,.435.1.435.405v2.43c0,.465,0,3.345-.045,3.465-.075.195-.3.195-.39.195Zm.33-10.155c.4,0,.4.27.4.5v2.16c0,.36,0,.615-.4.615h-.33a.376.376,0,0,1-.375-.18c-.045-.105-.045-1.47-.045-1.74,0-1.245,0-1.35.42-1.35Zm-2.67,10.155a.361.361,0,0,1-.39-.195c-.045-.12-.045-2.175-.045-2.46,0-.465,0-3.525.045-3.645.075-.2.3-.2.39-.2h.525c.09,0,.315,0,.39.2.045.12.045,2.4.045,2.865,0,.345,0,3.03-.015,3.165-.045.27-.3.27-.42.27Zm4.455,0c-.09,0-.33,0-.4-.195-.045-.12-.045-3.54-.045-3.93,0-.45,0-2.055.045-2.175.075-.2.3-.2.4-.2h.72c.435,0,.435.12.435,1.245,0,1.26-.03,3.66-.045,4.83,0,.3-.12.42-.435.42Zm-8.04-7.485a.541.541,0,0,1,.045-.315c0-.015.525-1.215.63-1.455.435-1.05.495-1.17.585-1.245.21-.165.24-.195.24-.33,0-.3-1.275-.81-1.32-.81-.15,0-.165.135-.195.48-.1,1.515-1.875,6.015-2.46,7.23a4.283,4.283,0,0,0-.18.4c0,.045.03.12.09.12a14.132,14.132,0,0,0,1.425-2.13c.135-.27.225-.435.3-.435.105,0,.105.3.105.345,0,.675-.075,5.085-.12,5.67-.045.525-.1,1.35-.1,1.59,0,.09,0,.33.33.33.435,0,.84-.18.84-.63,0-.27-.03-1.56-.03-1.86,0-.8.06-4.71.06-5.6a.987.987,0,0,1,.06-.42c.195-.255.21-.27.21-.345,0-.12-.075-.21-.24-.33A.879.879,0,0,1-38.475,18.66Zm24.585,6.78c.165,0,.435,0,.465.36s.045.465.4.465c.69,0,.69-.51.69-.765,0-.525-.075-3.045-.09-3.615-.015-.63-.03-1.425-.03-2.04,0-.315.015-.435.18-.57.225-.165.27-.18.27-.3,0-.255-1.02-.735-1.2-.735-.15,0-.15.015-.3.285a.483.483,0,0,1-.45.18c-.72,0-.72-.1-.72-1.11,0-.63,0-.8.465-.8h2.61c.51,0,.81,0,.81-.21A3.409,3.409,0,0,0-12,15.6c-.135,0-.18.06-.54.555-.2.255-.27.255-.96.255h-.7c-.42,0-.45-.165-.45-.63,0-.435,0-.54.2-.675s.225-.15.225-.255c0-.36-1.1-.375-1.44-.375-.165,0-.225.03-.225.135s.135.66.15.78c.015.18.045.525.045.645,0,.36-.24.375-.435.375h-.63c-.81,0-1.65-.045-2.01-.06-.09,0-.555-.045-.66-.045-.03,0-.06.015-.06.03,0,.03.015.03.075.105l.285.345c.045.06.075.09.135.09s.255-.03.315-.03c.09,0,.525-.045,1.845-.045h.69c.42,0,.48.06.48.915,0,.78,0,.99-.495.99H-16.6a1.9,1.9,0,0,1-.63-.075,4.94,4.94,0,0,0-.66-.24c-.075,0-.165.015-.165.12,0,.075.1.45.12.54a8.319,8.319,0,0,1,.1,1.935c0,.7-.045,4.11-.045,4.875,0,.39.06.48.375.48a.585.585,0,0,0,.63-.42c.075-.375.09-.48.48-.48Zm-2.535-2.55c-.465,0-.465-.12-.465-1.215,0-.315,0-.57.45-.57h2.58a.414.414,0,0,1,.42.21,6.4,6.4,0,0,1,.03,1.215c0,.36-.33.36-.45.36Zm-.015-2.175c-.465,0-.465-.165-.465-.84,0-.6,0-.765.465-.765h2.58c.45,0,.45.1.45.99,0,.405,0,.615-.45.615Zm.03,4.32c-.48,0-.48-.15-.48-1,0-.54,0-.75.48-.75h2.535c.465,0,.465.165.465.945,0,.66,0,.81-.465.81Zm-7.71-4.515a4.33,4.33,0,0,0,.855-.66,7.307,7.307,0,0,1,.8-.765c.06,0,.1.06.12.12.03.195.03,1.65.03,1.95,0,3.285.015,3.645-.045,4.935-.015.4-.075,1.05-.075,1.455,0,.315.015.57.39.57a.824.824,0,0,0,.84-.8c0-.285-.09-1.725-.09-2.055-.03-1.23-.03-2.61-.03-2.85,0-.495,0-2.73.09-3.045a2.238,2.238,0,0,0,.21-.36c0-.24-.36-.315-.465-.33-.315-.06-.435-.09-.435-.225a.514.514,0,0,1,.135-.27c.225-.3,1.215-1.86,1.455-2.2.06-.09.51-.495.51-.63,0-.255-1.125-.855-1.245-.855-.15,0-.15.105-.15.39a14.13,14.13,0,0,1-1.845,4c-.165.255-1.1,1.56-1.1,1.575A.04.04,0,0,0-24.12,20.52Zm13.155,6.78c.72,0,.81-.015.81-.21A2.521,2.521,0,0,0-11.295,26c-.165,0-.21.06-.585.645-.15.255-.3.255-.96.255h-5.7c-.18,0-.435,0-.465-.405-.045-.75-.1-5.175-.1-5.43a6.272,6.272,0,0,1,.03-.765c0-.06.18-.3.18-.345,0-.285-1.02-.525-1.2-.525-.09,0-.15.015-.15.12a3.69,3.69,0,0,0,.1.435,11.638,11.638,0,0,1,.135,2.055c0,.87-.09,4.725-.09,5.52,0,.45.21.57.375.57.435,0,.615-.36.765-.645.075-.165.195-.18.42-.18Zm6.93-4.365c.48,0,.645-.36.81-.735A2.582,2.582,0,0,1-1.38,20.61c.6,0,.72.84.72,1.515a.639.639,0,0,1-.225.525c-1.41,1.14-1.98,1.62-1.98,2.58,0,1.185,1.005,1.965,2.91,1.965.36,0,2.685-.06,2.685-.99,0-.36-.42-.51-.735-.51-.195,0-1.155.24-1.365.27a4.643,4.643,0,0,1-.96.09c-.435,0-1.935,0-1.935-1.035,0-.855,1.335-1.785,1.455-1.785.105,0,.105.12.105.18,0,.015-.045.735-.045.885,0,.27.06.765.465.765.555,0,.555-.855.555-1.1,0-.135-.03-.765-.03-.9,0-.315.015-.48.255-.63.27-.165,1.965-.84,2.34-1.005.93-.405,2.115-.9,2.115-1.6A1.415,1.415,0,0,0,3.54,18.5C2.235,18.5,1.26,19.86.765,20.55a7.043,7.043,0,0,1-.615.81c-.03,0-.045-.03-.15-.285a1.353,1.353,0,0,0-1.275-.915,1.4,1.4,0,0,0-.585.12,3,3,0,0,1-.465.165.055.055,0,0,1-.06-.06c0-.06.03-.105.105-.24a11.632,11.632,0,0,0,.81-1.62c.33-.765.345-.8.57-.885.69-.27,1.785-.69,1.785-1.185,0-.315-.57-.39-.675-.39-.6-.045-.66-.075-.675-.27-.03-.33-.405-.465-.765-.465-.27,0-.66.12-.66.24,0,.09.315.36.36.435a1.2,1.2,0,0,1,.12.525c0,.3,0,.705-1.23.705a2.384,2.384,0,0,1-.99-.27,3.369,3.369,0,0,0-.57-.285c-.09,0-.09.06-.09.1A1.592,1.592,0,0,0-2.955,18.1c.135,0,.75-.12.9-.12.06,0,.165.015.165.1a6.9,6.9,0,0,1-1.275,2.235c-1.02,1.185-1.44,1.665-1.44,2.115C-4.605,22.845-4.32,22.935-4.035,22.935Zm3.225-6.27c0-.06.06-.48.27-.48.135,0,.51.03.51.225,0,.165-.72.36-.75.36S-.81,16.725-.81,16.665Zm3.93,2.4a.462.462,0,0,1,.525.45c0,.99-2.955,2.19-3,2.19s-.06-.045-.06-.075C.585,21.39,1.875,19.065,3.12,19.065Zm18.525,2.82c.1,0,.33,0,.42.18.045.1.045,1.56.045,1.725,0,.84,0,.99-.465.99h-2.82a.421.421,0,0,1-.42-.2c-.045-.1-.045-1.53-.045-1.695,0-.87,0-1,.465-1Zm-.1,3.285c.24,0,.42.015.465.36.03.15.06.4.45.4.66,0,.66-.465.66-.8,0-.075-.03-1.815-.03-2.16,0-.675,0-.75.195-.87s.27-.195.27-.315c0-.315-.93-.825-1.035-.825-.075,0-.33.33-.39.39a.869.869,0,0,1-.525.12H18.945a1.374,1.374,0,0,1-.69-.135,5.081,5.081,0,0,0-.78-.435.159.159,0,0,0-.15.18c0,.075.06.4.06.48.045.555.045,1.38.045,1.95a14.193,14.193,0,0,1-.045,1.5c-.015.1-.06.525-.06.615,0,.225.09.36.33.36a.672.672,0,0,0,.69-.5c.045-.255.15-.33.465-.33Zm.12-9.285c.345,0,.465.075.465.57a9.046,9.046,0,0,1-.465,2.79c-.225.45-.51.465-1.545.465-.1,0-.15.06-.15.105,0,.09.03.09.315.12a.863.863,0,0,1,.78.465c.09.24.135.33.33.33,1.56,0,1.68-3.435,1.68-4.32,0-.135,0-.255.09-.33.255-.21.33-.285.33-.4,0-.285-1.08-.675-1.155-.675-.09,0-.1.03-.27.27a.491.491,0,0,1-.5.225h-1.9c-.7,0-1.32-.03-2.055-.06-.1,0-.555-.045-.66-.045-.03,0-.06,0-.06.03s.015.03.06.105l.3.345c.045.06.075.09.135.09s.255-.03.315-.03c.315-.03.72-.045,1.02-.045.27,0,.375.1.375.36a5.289,5.289,0,0,1-1.545,3.5c-.1.105-.675.645-.675.675a.069.069,0,0,0,.075.06,3,3,0,0,0,.615-.315,4.8,4.8,0,0,0,2.475-3.6c.09-.57.12-.675.51-.675Zm-11.25,4.08c.045.06.075.09.135.09.03,0,.18-.015.21-.015.495-.03,1.275-.06,2.01-.06.285,0,.45.075.48.435.03.555.03,1.515.03,4.53,0,.135,0,.42-.2.42a2.733,2.733,0,0,1-1.26-1.59,5.926,5.926,0,0,1,.48-1.38c.03-.075.39-.315.39-.39,0-.27-1.23-.54-1.26-.54a.178.178,0,0,0-.195.18c0,.06.03.33.03.39a35.063,35.063,0,0,1-1.14,4.95,1.726,1.726,0,0,0-.09.255c0,.03.03.045.06.045a10.411,10.411,0,0,0,1.335-2.61c.015-.045.09-.255.195-.255s.18.135.27.27a5.183,5.183,0,0,0,3.045,2.535,46.938,46.938,0,0,0,8.025.555c.15,0,.285-.015.36-.2a2.221,2.221,0,0,1,.375-.66,5.955,5.955,0,0,0,.69-.63.069.069,0,0,0-.075-.06c-.06,0-.465.15-.555.15a13.675,13.675,0,0,1-3.645.3c-2.91,0-5.31-.255-5.73-.63-.225-.195-.225-.27-.225-2.145,0-.51.045-.615.57-.615h1.11c.525,0,.81,0,.81-.225a1.727,1.727,0,0,0-.885-.87c-.12,0-.48.495-.57.585s-.18.1-.6.1c-.435,0-.435-.195-.435-.99,0-.285,0-.93.27-1.05.285-.135.33-.15.33-.24,0-.165-.045-.18-.42-.3-.135-.045-.315-.12-.315-.225,0-.09.09-.1.15-.1h1.92c.51,0,.8,0,.8-.21a1.77,1.77,0,0,0-.855-.8c-.1,0-.465.435-.555.51-.135.1-.195.1-.795.1-.51,0-.51-.12-.51-1.665,0-.45,0-.645.525-.645h1.05c.525,0,.81,0,.81-.21s-.69-.825-.915-.825c-.1,0-.135.045-.42.405a.562.562,0,0,1-.54.225c-.51,0-.51-.27-.51-.81,0-.39,0-.51.15-.66.21-.18.285-.255.285-.345,0-.12-.135-.225-.225-.27a6.932,6.932,0,0,0-1.11-.33c-.075,0-.225.015-.225.195,0,.06.09.36.105.435a6.594,6.594,0,0,1,.09,1.29c0,.27,0,.495-.435.495-.255,0-1.575-.1-1.86-.1-.03,0-.06.015-.06.045s.015.03.06.09l.3.345c.045.06.075.1.135.1.18,0,1.125-.075,1.335-.075.15,0,.465,0,.525.24.015.09.015,1.245.015,1.47,0,.435-.075.6-.45.6-.57,0-1.605-.03-2.16-.06-.075,0-.45-.045-.54-.045-.03,0-.06.015-.06.03,0,.03.015.03.075.1ZM32.475,15.18a.069.069,0,0,0-.06.075c0,.075.045.255.51.57.315.225.555.375.555.465,0,.18-.675.855-.675.96a.069.069,0,0,0,.06.075c.09,0,.51-.24.615-.27.36-.135.39-.135,1.44-.135a.42.42,0,0,0,.42-.42c0-.4-.45-.75-.945-.885-.195-.045-1.245-.24-1.47-.3C32.85,15.3,32.52,15.18,32.475,15.18Zm0,4.2a2.421,2.421,0,0,1-.735-.12c-.03,0-.375-.105-.42-.105a.106.106,0,0,0-.1.12c0,.15.42,1.23,1.29,1.23a2.1,2.1,0,0,0,1.215-.585,2.063,2.063,0,0,1,.84-.5.23.23,0,0,1,.255.255c0,.435-1.17,1.71-2.46,3.135-2.46,2.685-2.46,2.85-2.46,3.255a.552.552,0,0,0,.54.54c.51,0,.75-.45,1.17-1.215.825-1.53,1.815-1.8,2.115-1.8.45,0,.45.135.48,1.35.015,1.035.27,1.98,2.055,1.98,1.62,0,2.865-.135,2.865-.945,0-.345-.39-.57-.795-.57-.375,0-2.22.405-2.64.405a.79.79,0,0,1-.87-.84c0-.15.09-.825.09-.975a1.132,1.132,0,0,0-1.1-1.1c-.045,0-.3.03-.33.03-.075,0-.15-.03-.15-.09a9.715,9.715,0,0,1,1.11-1.155c1.17-1.08,1.74-1.605,1.74-2.145a.965.965,0,0,0-1.065-.825,1.913,1.913,0,0,0-.63.1A4.845,4.845,0,0,1,32.475,19.38ZM45.96,18.12c-.18.21.525,1.215,1.275,1.215a1.085,1.085,0,0,0,.525-.2,19.65,19.65,0,0,1,4.455-1.6c.03,0,.09,0,.09.03a2.688,2.688,0,0,1-.36.315c-2.175,1.935-2.19,5.115-2.19,5.775a2.825,2.825,0,0,0,3.075,3.21c.09,0,1.74,0,1.74-.8,0-.36-.285-.555-.75-.555-.12,0-1.2.09-1.425.09-.885,0-1.83-.165-1.83-2.685,0-3.87,2.13-5.625,4.035-5.625.18,0,1.035.165,1.23.165a.6.6,0,0,0,.6-.555c0-.51-.675-.72-1.2-.72a40.2,40.2,0,0,0-5.76,1.35,9.658,9.658,0,0,1-2.925.645C46.47,18.18,46.02,18.045,45.96,18.12ZM63.7,17.145c-.03,0-.09.015-.09.06a2.026,2.026,0,0,0,.12.51,4.167,4.167,0,0,1,.1.87c0,.39-.21,2.235-.21,2.655,0,2.865,1.89,4.44,2.85,4.44.255,0,.57-.165.57-.465a3.763,3.763,0,0,0-.12-.5,2.025,2.025,0,0,1-.09-.6,4.208,4.208,0,0,1,.195-1.14,1.8,1.8,0,0,0,.045-.3c0-.06-.03-.12-.075-.12-.12,0-.375.36-.465.51-.45.75-.51.825-.765.825-.465,0-1.245-1.1-1.245-2.61a5.3,5.3,0,0,1,.36-1.935,2.055,2.055,0,0,0,.18-.6C65.07,18.345,64.395,17.145,63.7,17.145Zm7.155,1.38c-.075,0-.135.03-.135.075,0,.09.6.555.72.675.795.8.795,1.425.795,2.67,0,.195,0,1.005.735,1.005s.75-.705.75-.99a3.733,3.733,0,0,0-1.335-2.865A2.919,2.919,0,0,0,70.86,18.525ZM85.605,15.06c-.03.045,0,.105.045.18a1.425,1.425,0,0,1,.375.87c0,.555-.555,1.335-2.04,3.195-1.02,1.275-1.215,1.725-1.215,2.13,0,.315.12.54.585,1.11a17.067,17.067,0,0,1,2.49,3.8c.315.885.4,1.17.87,1.17a.638.638,0,0,0,.645-.7c0-1.035-2.04-3.24-3.375-4.695a1.2,1.2,0,0,1-.45-.825c0-.645,4.02-4.53,4.02-4.935,0-.555-1.485-1.32-1.845-1.32C85.665,15.03,85.62,15.03,85.605,15.06Z" transform="translate(1184.714 5923.379)" fill="#fff"/>
    <path id="パス_38596" data-name="パス 38596" d="M-102.24-7.41c.285-.36.765-.9,1.02-1.26A4.284,4.284,0,0,1-100.2-9.9a.378.378,0,0,0,.135-.3c0-.57-1.515-1.2-1.74-1.2a.148.148,0,0,0-.15.12,1.667,1.667,0,0,0,.105.24.849.849,0,0,1,.12.42c0,.42-1.17,2.97-4.71,6-.24.21-.66.555-1.05.9a.136.136,0,0,0-.045.105c0,.06.03.09.075.09A16.475,16.475,0,0,0-103.2-6.39c.12-.12.18-.18.255-.18.39,0,.39,1.575.39,2.115,0,.795-.06,1.95-.15,2.76-.015.15-.165.81-.165.96,0,.4.51,1.05.93,1.05.36,0,.36-.51.36-.66,0-.195-.09-1.065-.1-1.245-.03-.585-.045-1.4-.045-1.8a14.483,14.483,0,0,1,.09-2.655c.015-.09.18-.51.18-.6,0-.135-.06-.2-.645-.555A.242.242,0,0,1-102.24-7.41Zm16.065-.99c0-.885-1.26-1.74-2.865-1.74-.21,0-.33.075-.33.135s.075.1.135.135A3.379,3.379,0,0,1-87.87-8.64c.5.75.645.99,1.05.99A.663.663,0,0,0-86.175-8.4Zm6.24-.135a.1.1,0,0,0-.075-.075c-.03,0-.45.42-.69.66-2.49,2.46-6.465,5.115-7.2,5.115a2.483,2.483,0,0,1-1.02-.345,3.734,3.734,0,0,0-.45-.285c-.135,0-.15.69-.15.8,0,.6,1.11,1.56,1.92,1.56.225,0,.255-.03.54-.375a10.474,10.474,0,0,1,1.47-1.23A20.41,20.41,0,0,0-79.935-8.535Zm12.5,2.1a.182.182,0,0,1,.105-.225A12.909,12.909,0,0,1-65.82-6.7c.33,0,.75.045,1.065.075.15.015.885.135,1.05.135.195,0,.435-.09.435-.36,0-.615-1.71-.945-1.89-.945s-.945.24-1.125.27c-1.05.15-4.935.57-5.895.57a4.673,4.673,0,0,1-.945-.1,1.32,1.32,0,0,0-.225-.075c-.075,0-.105.06-.105.15A1.313,1.313,0,0,0-72.27-5.85a9.47,9.47,0,0,0,1.08-.27A18.49,18.49,0,0,1-68.8-6.57c.33,0,.36.27.36.45a10.116,10.116,0,0,1-2.94,5.655,10.215,10.215,0,0,0-.795.75c0,.045.03.075.09.075a7.434,7.434,0,0,0,3.975-3.855c.135-.255.7-1.635.75-1.695.045-.075.4-.36.4-.465A4.661,4.661,0,0,0-67.44-6.435Zm-3.63-3.75c-.075.03.39,1.08,1.125,1.08.045,0,.63-.12.705-.135.225-.045,1.23-.24,1.995-.33.885-.09,1.14-.12,1.14-.555s-.54-.495-.855-.495a6.13,6.13,0,0,0-1.2.18,9.256,9.256,0,0,1-2.13.375C-70.38-10.065-70.98-10.17-71.07-10.185Zm16.275-.24c0,.12.075.21.195.345.465.54.54.885.54,2.565,0,.27,0,.855-.03,1.53,0,.12-.075.63-.075.75,0,.39.345,1.185.675,1.185.225,0,.57-.375.57-.765,0-.15-.075-.9-.09-1.08-.015-.36-.045-1.71-.045-3.45,0-.075.03-.42.03-.495,0-.255-.825-.78-1.185-.78S-54.795-10.53-54.795-10.425Zm5.295,1.4c0,3-.1,5.61-3,8.7-.18.195-1.155,1.155-1.155,1.215s.03.075.09.075a5.981,5.981,0,0,0,1.35-.885,9.489,9.489,0,0,0,3.75-6.96c.045-.525.06-2.775.12-3.18a5.833,5.833,0,0,0,.15-.6c0-.39-.75-.765-1.65-.765-.435,0-.435.045-.435.09,0,.03.015.06.195.3A2.868,2.868,0,0,1-49.5-9.03Zm10.14-.36c-.075,0-.1.03-.1.06,0,.525,1.17,1.485,1.53,1.485a11.435,11.435,0,0,0,1.26-.435,26.26,26.26,0,0,1,5.355-.93c.2,0,.285.12.285.225a4.071,4.071,0,0,1-1.86,1.83,4.458,4.458,0,0,1-.585-.2,2.262,2.262,0,0,0-.81-.135c-.09,0-.315.015-.315.135,0,.06.015.09.135.33a1.917,1.917,0,0,1,.195.885A6.846,6.846,0,0,1-35.4-2.85,10.217,10.217,0,0,1-38.085-.06c-.27.21-.3.24-.3.285s.03.075.09.075A3.905,3.905,0,0,0-37.26-.135,8.19,8.19,0,0,0-33.48-4.77a8.359,8.359,0,0,1,.765-1.92A10.526,10.526,0,0,1-29.58-8.055c.525-.12.525-.285.525-.39a3.97,3.97,0,0,0-1.77-1.95,5.194,5.194,0,0,0-.615.345,44.693,44.693,0,0,1-6.21.87,6.525,6.525,0,0,1-.945-.06C-38.715-9.255-39.315-9.39-39.36-9.39Zm22.59-.81a3.863,3.863,0,0,1,4.155,4.155c0,3.735-3.255,5.025-4.815,5.64-.375.15-.405.165-.405.21,0,.09.09.105.15.105a9.219,9.219,0,0,0,2.49-.555,5.594,5.594,0,0,0,3.78-5.28,4.7,4.7,0,0,0-2.61-4.365,4.886,4.886,0,0,0-2.415-.48,6.206,6.206,0,0,0-4.785,1.95A5.284,5.284,0,0,0-22.89-4.995c0,1.83.885,3.375,1.875,3.375.6,0,1.365-.36,2.565-2.19A7.694,7.694,0,0,0-16.9-8.2a11.5,11.5,0,0,0-.15-1.62c0-.06-.03-.12-.03-.165C-17.085-10.08-17.07-10.2-16.77-10.2Zm-.84.045c.195,0,.255.075.255.975a8.58,8.58,0,0,1-1.47,4.365c-1.035,1.56-1.395,1.74-1.83,1.74-.915,0-1.305-1.335-1.305-2.31A5.18,5.18,0,0,1-17.61-10.155Zm11.22,3.87c.06.06.09.09.135.09s.27-.03.315-.03c.465-.045,1.215-.045,1.71-.045.42,0,.42.15.42,1.545,0,1.44-.03,1.455-.12,1.545-.12.105-.24.105-.45.105-.285,0-.495,0-1.3-.06C-5.76-3.15-6.12-3.18-6.2-3.18c-.015,0-.045,0-.045.03s0,.03.06.105l.27.345c.045.06.075.09.12.09s.255-.03.3-.03c.345-.03.8-.045,1.14-.045H5.775c.315,0,.66,0,.66-.15A3.152,3.152,0,0,0,5.28-3.885c-.12,0-.165.06-.57.585-.165.225-.24.225-.51.225-.36,0-.36-.12-.36-1.335,0-.2,0-1.56.015-1.62.045-.24.24-.24.45-.24h1.77c.51,0,.81,0,.81-.21,0-.18-1.17-.96-1.305-.96-.21,0-.36.225-.435.36-.21.375-.3.42-.555.42-.525,0-.585,0-.675-.105A5.614,5.614,0,0,1,3.84-7.95,13.97,13.97,0,0,1,3.9-9.6c.09-.2.315-.2.435-.2H5.3c.36,0,.7,0,.7-.195a3.453,3.453,0,0,0-1.275-.96c-.165,0-.285.18-.495.51-.15.24-.225.24-.9.24H-3.045c-.255,0-.42,0-.42-.18a2.565,2.565,0,0,1,.405-.735c.09-.09.54-.405.54-.51,0-.27-1.3-.72-1.455-.72-.105,0-.105.06-.135.54A12.809,12.809,0,0,1-5.64-8.28c-.105.18-.75,1.095-.75,1.125a.063.063,0,0,0,.06.06A9.271,9.271,0,0,0-4.335-9.15c.3-.4.33-.45.405-.45.06,0,.105,0,.105.36.015.6.015,1.59.015,2.175a.362.362,0,0,1-.405.4c-.645,0-1.29-.015-1.935-.06-.075,0-.465-.045-.54-.045-.015,0-.045,0-.045.03s0,.03.06.105ZM-.21-6.66c-.45,0-.45-.105-.45-.84,0-.315,0-1.965.045-2.115.06-.18.255-.18.42-.18h.36c.2,0,.39,0,.435.255.015.1.045,1.56.045,1.77,0,.99,0,1.11-.45,1.11Zm-1.815.39c.375,0,.435.09.435.555,0,.33,0,2.355-.06,2.49-.075.15-.225.15-.39.15h-.4c-.2,0-.375,0-.42-.24-.045-.18-.03-1.695-.03-1.95,0-.9,0-1,.435-1ZM-.2-3.075c-.18,0-.36,0-.42-.165s-.06-1.92-.06-2.265c0-.69,0-.765.465-.765H.18c.18,0,.36,0,.42.165A8.681,8.681,0,0,1,.645-4.98c0,.3,0,1.44-.045,1.665-.045.24-.225.24-.435.24ZM2.46-6.27c.165,0,.36,0,.42.18a13.7,13.7,0,0,1,.045,1.425,13.547,13.547,0,0,1-.045,1.41c-.06.18-.255.18-.42.18H2.025c-.24,0-.465,0-.465-.375V-5.835c0-.375.105-.435.45-.435ZM-2.085-9.8c.21,0,.375,0,.45.18.045.135.045,1.38.045,1.62A9.167,9.167,0,0,1-1.635-6.84c-.075.18-.225.18-.435.18H-2.4c-.495,0-.495-.135-.495-1.29,0-.285,0-1.41.045-1.605.06-.24.225-.24.465-.24Zm4.53,0c.135,0,.345,0,.405.135s.075,2.28.075,2.49c0,.375-.03.51-.465.51H2.01c-.465,0-.465-.135-.465-.54,0-.315,0-2.2.045-2.385.045-.21.27-.21.435-.21ZM-4.56-1.155c0-.165-.015-1-.225-1-.09,0-.105.045-.225.495a1.97,1.97,0,0,1-.75,1.05c-.585.48-.69.69-.69.975a.538.538,0,0,0,.51.57C-5.475.93-4.56.315-4.56-1.155Zm2.745-.51c-.165-.2-.51-.585-.69-.585-.06,0-.06.045-.06.075,0,.075.135.465.15.555A7.208,7.208,0,0,1-2.28.2c0,.435.09.7.45.7.345,0,.645-.3.645-.915A2.833,2.833,0,0,0-1.815-1.665Zm3.42,0C1.41-1.83,1.05-2.13.84-2.13a.065.065,0,0,0-.06.06,4.077,4.077,0,0,0,.165.375A6.9,6.9,0,0,1,1.425.24c.09.585.285.645.465.645.255,0,.6-.18.6-.795A2.646,2.646,0,0,0,1.6-1.665ZM4.95-1.74a2.336,2.336,0,0,0-.75-.42.048.048,0,0,0-.045.045,1.7,1.7,0,0,0,.2.435,12.927,12.927,0,0,1,.7,1.815c.195.705.24.855.6.855.555,0,.6-.645.6-.855C6.255-.39,5.94-1,4.95-1.74Zm13-9.735a1.23,1.23,0,0,1-.6-.2A4.18,4.18,0,0,0,16.62-12a.142.142,0,0,0-.15.15c0,.09.075.57.075.675.06,1.635.06,5.01.06,7.335,0,.45,0,2.445-.06,2.655-.1.33-1.575.405-1.665.405s-.54-.045-.6-.045-.15.015-.15.135c0,.045.585,1.635.84,1.635.12,0,.51-.525.63-.6C15.66.3,19.98-1.44,20.265-1.44c.165,0,.21.045.54.525A5.73,5.73,0,0,0,22.455.9c.06,0,.09-.03.315-.24a2.3,2.3,0,0,1,.84-.39c.09-.03.645-.06.645-.18,0-.06-.96-.48-1.14-.585a5.467,5.467,0,0,1-2.28-2.115c0-.12.045-.15.3-.27.315-.15,1.83-.96,2.025-1.05.345-.06.45-.075.45-.285,0-.3-1.11-.885-1.185-.885s-.09.03-.21.33a6.356,6.356,0,0,1-1.545,1.8c-.285,0-1.275-2.34-1.275-2.9,0-.285.135-.315.345-.315h1.455c.12,0,.36,0,.375.21.03.315.045.495.3.495a.741.741,0,0,0,.765-.87c0-.585-.015-3.465-.015-4.125,0-.15.015-.255.135-.33.24-.15.36-.225.36-.315,0-.015-.015-.045-.015-.06a5.108,5.108,0,0,0-1.14-.795c-.135,0-.18.045-.36.3a.417.417,0,0,1-.39.2Zm-.015,4.9a.389.389,0,0,1-.39-.2c-.06-.105-.06-.24-.06-1.41,0-.375.18-.465.465-.465H21.18c.45,0,.45.1.45,1.065,0,.825,0,1.005-.435,1.005Zm3.3-4.515c.405,0,.405.165.405,1.455,0,.4-.075.585-.465.585H17.94a.372.372,0,0,1-.435-.33v-1.23c0-.165,0-.48.375-.48ZM18.69-6.18c.39,0,.39.075.45.735a10.091,10.091,0,0,0,.735,2.865c.03.06.27.63.27.675,0,.21-.06.21-.63.33-.225.045-1.65.315-1.74.315-.195,0-.225-.105-.225-.27,0-.675-.045-3.615-.045-4.215,0-.15,0-.435.435-.435Zm-5.1-5.22c.3,0,.36.18.36.27,0,.36-1.035,2.94-1.035,3.2,0,.2.1.3.42.585A4.273,4.273,0,0,1,14.49-4.08c0,1.125-.51,1.125-1.065,1.125-.06,0-.36-.03-.435-.03-.06,0-.135.015-.135.075,0,.03.15.165.165.18a2.092,2.092,0,0,1,.57.8c.105.285.18.39.45.39s1.485-.465,1.485-2.61a3.228,3.228,0,0,0-.27-1.53,4.267,4.267,0,0,0-1.665-1.92c-.12-.075-.345-.225-.345-.33a2.621,2.621,0,0,1,.255-.42c.21-.315.285-.435.63-1.035.93-1.59.96-1.665,1.155-1.8.225-.18.27-.225.27-.345,0-.225-1.095-.735-1.14-.735-.075,0-.12.045-.24.24a.453.453,0,0,1-.465.225H12.585a1.363,1.363,0,0,1-.45-.06,6.577,6.577,0,0,0-.945-.39.179.179,0,0,0-.195.21c0,.1.1,1.095.1,1.26v8.22c0,.045-.045,1.35-.06,1.635-.015.21-.12,1.23-.12,1.47,0,.135.075.5.39.5A1.025,1.025,0,0,0,11.85.8,1.287,1.287,0,0,0,12.1-.2c0-.12-.045-.72-.045-.855-.045-1.29-.09-4.755-.09-4.92,0-.39.105-4.92.105-5.025,0-.135.015-.4.435-.4Zm20.94,1.2a3.863,3.863,0,0,1,4.155,4.155c0,3.735-3.255,5.025-4.815,5.64-.375.15-.4.165-.4.21,0,.09.09.105.15.105a9.219,9.219,0,0,0,2.49-.555,5.594,5.594,0,0,0,3.78-5.28,4.7,4.7,0,0,0-2.61-4.365,4.886,4.886,0,0,0-2.415-.48,6.206,6.206,0,0,0-4.785,1.95A5.284,5.284,0,0,0,28.41-4.995c0,1.83.885,3.375,1.875,3.375.6,0,1.365-.36,2.565-2.19A7.694,7.694,0,0,0,34.4-8.2a11.5,11.5,0,0,0-.15-1.62c0-.06-.03-.12-.03-.165C34.215-10.08,34.23-10.2,34.53-10.2Zm-.84.045c.2,0,.255.075.255.975a8.58,8.58,0,0,1-1.47,4.365c-1.035,1.56-1.4,1.74-1.83,1.74-.915,0-1.305-1.335-1.305-2.31A5.18,5.18,0,0,1,33.69-10.155Zm20.19-.8c.315,0,.465.045.48.435.045,1.17.045,8.07.045,9.495,0,.435,0,.72-.66.72-.195,0-1.125-.045-1.335-.045-.045,0-.135,0-.135.075,0,.135.24.18.3.18a1.684,1.684,0,0,1,1.11.84c.12.3.12.33.465.33.09,0,1.38,0,1.38-1.65,0-.525-.075-3.075-.075-3.66,0-.735,0-6.345.03-6.465.045-.255.285-.255.405-.255h1.26c.48,0,.945,0,.945-.24a4.832,4.832,0,0,0-1.365-1.08c-.15,0-.42.345-.54.525-.225.33-.315.39-1.08.39H47.265c-.705,0-1.32,0-2.055-.045-.1,0-.555-.06-.66-.06-.03,0-.06.015-.06.045a.228.228,0,0,0,.06.09l.3.345c.015.03.075.1.135.1.045,0,.255-.045.315-.045.33-.045.84-.03,1.89-.03ZM48.375-8.16a1.038,1.038,0,0,1-.585-.15,2.386,2.386,0,0,0-.855-.345c-.165,0-.18.12-.18.225,0,.27.1,1.41.12,1.65.015.33.015.6.015,1.02,0,.48-.06,2.6-.06,3.06,0,.21.03.54.465.54.585,0,.615-.615.645-1.005a.4.4,0,0,1,.435-.375h1.74c.3,0,.48.06.48.465,0,.375,0,.6.345.6.48,0,.72-.4.72-.885,0-.525-.09-2.82-.09-3.285a.99.99,0,0,1,.18-.735,1.809,1.809,0,0,0,.24-.375c0-.225-1.035-.9-1.125-.9s-.33.315-.39.375a.589.589,0,0,1-.435.12Zm0,4.23c-.09,0-.33,0-.42-.2-.06-.18-.06-2.655-.06-3.12,0-.24,0-.525.435-.525h1.8a.38.38,0,0,1,.42.27c.03.165.045,2.49.045,2.805,0,.555,0,.765-.435.765ZM64.05-5.07c-.48,0-.48-.2-.48-.69,0-.615,0-.8.45-.8h2.04c.42,0,.42.24.42.6,0,.855-.03.885-.48.885ZM66-2.805c.465,0,.465.135.465.975,0,1.605,0,1.7-.48,1.7-.12,0-.69-.06-.81-.06a.1.1,0,0,0-.105.09c0,.105.48.3.54.36a1.16,1.16,0,0,1,.435.6c.045.135.075.21.18.21A1.289,1.289,0,0,0,67.47-.375c0-.465-.06-2.55-.06-2.985,0-.36.03-2.25.03-2.265a1.646,1.646,0,0,1,.045-.525c.03-.075.3-.39.3-.465,0-.255-.8-.795-.87-.795s-.285.24-.39.33a.538.538,0,0,1-.42.12h-2.13a1.189,1.189,0,0,1-.585-.135c-.6-.315-.66-.345-.81-.345-.045,0-.1.015-.1.09,0,.18.09.96.09,1.155.015.24.03.96.03,2.19,0,1.3-.015,2.64-.075,3.69,0,.15-.045.81-.045.945,0,.15.015.375.36.375.765,0,.765-.72.765-1.02v-2.4c0-.39.285-.39.435-.39Zm-1.95-.4c-.465,0-.465-.18-.465-.765,0-.465,0-.69.465-.69H66c.465,0,.465.12.465.99,0,.45-.225.465-.465.465Zm2.955-6.21c0,.12-.06.12-.555.165-.585.045-1.575.06-2.175.06-.105,0-.27,0-.27-.135a16.335,16.335,0,0,1,1.08-1.89c.06-.09.54-.39.54-.51,0-.18-.21-.255-.525-.375-.135-.045-.84-.36-.915-.36s-.075.03-.075.285a8.788,8.788,0,0,1-.63,2.46c-.15.39-.21.525-.51.525-.135,0-.78-.105-.93-.105s-.225.06-.225.225c0,.225.165,1.11.435,1.11a2.008,2.008,0,0,0,.345-.2c.015,0,.825-.165.9-.18.555-.12,3.375-.735,3.48-.735.18,0,.195.09.255.24.18.51.285.8.54.8s.45-.3.45-.645c0-1.08-1.68-2.115-1.89-2.115a.065.065,0,0,0-.06.06A13.009,13.009,0,0,1,67.005-9.42Zm3.3.57c.03-.015.48-.18.555-.21a27.908,27.908,0,0,1,3.015-1.17c.315-.045.42-.105.42-.21a3.719,3.719,0,0,0-1.065-.87c-.105,0-.48.435-.57.525a9.325,9.325,0,0,1-2.34,1.56c-.135,0-.135-.06-.135-.6A11.38,11.38,0,0,1,70.23-11.1c.03-.09.375-.39.375-.495,0-.3-1.305-.495-1.35-.495s-.12,0-.12.06.045.42.045.495c.015.345,0,2.055,0,2.43,0,2.49.15,2.925,2.58,2.925.945,0,3.105,0,3.105-.99,0-.09-.09-.2-.2-.33a1.288,1.288,0,0,1-.255-.585c-.03-.09-.03-.675-.135-.675-.06,0-.135.135-.165.21a4.888,4.888,0,0,1-.315.735c-.18.36-.33.69-2,.69-1.62,0-1.62-.42-1.62-1.335A.51.51,0,0,1,70.305-8.85Zm3.96,5.175a3.472,3.472,0,0,0-1.1-.87c-.135,0-.555.51-.66.585a9.954,9.954,0,0,1-2.205,1.47c-.12,0-.12-.135-.12-.18a13.61,13.61,0,0,1,.09-1.935,4.384,4.384,0,0,0,.255-.4c0-.315-1.245-.465-1.275-.465-.06,0-.18,0-.18.075s.045.42.045.48c0,.585-.015,3.18-.015,3.705.03,1.635.555,1.98,2.76,1.98C73.68.765,74.25.7,74.7.39a.978.978,0,0,0,.51-.705,6.185,6.185,0,0,0-.36-.78,3.851,3.851,0,0,1-.21-.96c-.015-.075-.045-.18-.1-.18-.075,0-.09.06-.195.42-.5,1.6-.66,1.6-2.4,1.6-1.62,0-1.77-.18-1.77-1.365,0-.48.075-.51.675-.705.48-.15,2.955-1.185,3-1.185C74.145-3.51,74.265-3.555,74.265-3.675Zm9.15-4.245a1.683,1.683,0,0,0-1.11-1.44.048.048,0,0,0-.045.045c0,.06.1.36.12.435a9.808,9.808,0,0,1,.12,1.44c0,.15,0,.45.255.45C82.95-6.99,83.415-7.185,83.415-7.92Zm-1.65-3.225a.525.525,0,0,1,.225-.51c.15-.135.255-.21.255-.345a.193.193,0,0,0-.105-.165,9.392,9.392,0,0,0-1.44-.33c-.1,0-.15.045-.15.12,0,.09.1.525.12.615.06.795.06,5.775.06,6.975,0,1.545,0,3.12-.09,4.395,0,.06-.045.735-.045.81,0,.615.27.69.48.69.345,0,.675-.27.675-.885,0-.15-.045-.885-.045-1.065V-5.535C81.705-6.48,81.78-10.38,81.765-11.145ZM80.025-7.68c0-.63-.165-1.77-.36-1.77-.03,0-.03.015-.045.09a5.7,5.7,0,0,1-.585,1.875c-.45.81-.54.96-.54,1.245a.637.637,0,0,0,.555.675C79.62-5.565,80.025-6.645,80.025-7.68ZM85.68-8.82c-.09,0-.27,0-.27-.21,0-.045.27-1.08.57-1.26.315-.21.36-.24.36-.345,0-.36-1.44-.72-1.485-.72-.06,0-.18.015-.18.135,0,.06.06.42.06.5a13.388,13.388,0,0,1-.93,3.66c-.12.33-.855,2.04-.855,2.07A.048.048,0,0,0,83-4.95c.045,0,.09-.045.15-.12A8.872,8.872,0,0,0,84.8-7.605c.33-.735.375-.825.75-.825h.975c.465,0,.465.21.48.525.015.405.015.63.015,2.715,0,.24,0,.54-.435.54-.465,0-.96,0-2.16-.045-.1,0-.57-.045-.675-.045-.03,0-.045,0-.045.03s0,.03.06.09l.285.345c.06.075.09.105.135.105s.27-.03.315-.03c.24-.03.855-.045,1.665-.045.57,0,.645,0,.735.105C87-4.02,87-3.765,87-1.56c0,1.38,0,1.485-.48,1.485H85.245c-.705,0-1.32-.015-2.055-.045-.09,0-.555-.06-.66-.06a.04.04,0,0,0-.045.045c0,.015.03.045.06.09L82.83.3c.06.06.075.105.135.105A2.276,2.276,0,0,0,83.28.36c.15,0,.585-.03,1.89-.03h6.48c.495,0,.825,0,.825-.225,0-.255-1.11-1.23-1.305-1.23-.165,0-.585.78-.72.915-.165.135-.3.135-.78.135H88.485c-.48,0-.48-.06-.48-1.17,0-.255,0-2.625.045-2.76a.4.4,0,0,1,.435-.24H91.17c.5,0,.81,0,.81-.2,0-.255-1.185-1.065-1.29-1.065-.12,0-.45.555-.54.66-.195.2-.39.2-.93.2h-.735c-.48,0-.48-.165-.48-1.02,0-.21,0-2.4.06-2.535A.447.447,0,0,1,88.5-8.43h2.655c.48,0,.81,0,.81-.18a3.861,3.861,0,0,0-1.29-1.05c-.12,0-.315.27-.405.42-.255.42-.33.42-.975.42H88.5c-.21,0-.4-.03-.45-.285V-10.47c0-.84.03-.975.255-1.17.165-.135.24-.21.24-.345a.265.265,0,0,0-.195-.255,11.076,11.076,0,0,0-1.32-.3c-.1,0-.27.03-.27.18a4.217,4.217,0,0,0,.15.465,2.358,2.358,0,0,1,.045.72c0,.255.03,1.53.03,1.83s0,.525-.465.525ZM98.565-4.065c.48,0,.645-.36.81-.735a2.582,2.582,0,0,1,1.845-1.59c.6,0,.72.84.72,1.515a.639.639,0,0,1-.225.525c-1.41,1.14-1.98,1.62-1.98,2.58,0,1.185,1,1.965,2.91,1.965.36,0,2.685-.06,2.685-.99,0-.36-.42-.51-.735-.51-.195,0-1.155.24-1.365.27a4.643,4.643,0,0,1-.96.09c-.435,0-1.935,0-1.935-1.035,0-.855,1.335-1.785,1.455-1.785.1,0,.1.12.1.18,0,.015-.045.735-.045.885,0,.27.06.765.465.765.555,0,.555-.855.555-1.1,0-.135-.03-.765-.03-.9,0-.315.015-.48.255-.63.27-.165,1.965-.84,2.34-1.005.93-.405,2.115-.9,2.115-1.6A1.415,1.415,0,0,0,106.14-8.5c-1.305,0-2.28,1.365-2.775,2.055a7.043,7.043,0,0,1-.615.81c-.03,0-.045-.03-.15-.285a1.353,1.353,0,0,0-1.275-.915,1.4,1.4,0,0,0-.585.12,3,3,0,0,1-.465.165.055.055,0,0,1-.06-.06c0-.06.03-.105.105-.24a11.632,11.632,0,0,0,.81-1.62c.33-.765.345-.795.57-.885.69-.27,1.785-.69,1.785-1.185,0-.315-.57-.39-.675-.39-.6-.045-.66-.075-.675-.27-.03-.33-.405-.465-.765-.465-.27,0-.66.12-.66.24,0,.09.315.36.36.435a1.2,1.2,0,0,1,.12.525c0,.3,0,.7-1.23.7a2.384,2.384,0,0,1-.99-.27,3.369,3.369,0,0,0-.57-.285c-.09,0-.09.06-.09.105a1.592,1.592,0,0,0,1.335,1.32c.135,0,.75-.12.9-.12.06,0,.165.015.165.105a6.9,6.9,0,0,1-1.275,2.235c-1.02,1.185-1.44,1.665-1.44,2.115C97.995-4.155,98.28-4.065,98.565-4.065Zm3.225-6.27c0-.06.06-.48.27-.48.135,0,.51.03.51.225,0,.165-.72.36-.75.36S101.79-10.275,101.79-10.335Zm3.93,2.4a.462.462,0,0,1,.525.45c0,.99-2.955,2.19-3,2.19s-.06-.045-.06-.075C103.185-5.61,104.475-7.935,105.72-7.935ZM-82.455,20.46c.135,0,.42,0,.465.285.045.21.06.405.36.405a.8.8,0,0,0,.84-.9c0-.225-.075-1.38-.075-1.425,0-.36.075-.525.285-.645.15-.09.21-.165.21-.24,0-.285-.96-.8-1.11-.8-.105,0-.165.045-.345.285a.635.635,0,0,1-.585.27h-2.52c-.09,0-.165,0-.165-.06,0-.045.915-.48,1.08-.585s.915-.57,1-.6a.462.462,0,0,1,.15-.015c.27,0,.375,0,.375-.165,0-.18-.645-.96-.84-.96a5.456,5.456,0,0,0-.585.3.849.849,0,0,1-.495.105h-1.95c-.15,0-.21,0-.21-.06s.075-.15.195-.21c.09-.03.18-.075.18-.165a4.129,4.129,0,0,0-1.35-.915c-.09,0-.075.03-.1.255-.045.495-1.41,1.845-3.72,3.045-.27.135-.3.15-.3.18,0,.045.06.045.09.045a5.817,5.817,0,0,0,1.215-.255c.15-.045.465-.15.69-.24.1,0,.12.075.12.4,0,.435-.06,2.385-.06,2.79,0,.36,0,.66.375.66.45,0,.585-.345.675-.585.075-.21.285-.21.45-.21h1.335c.105,0,.225,0,.225.12a10.508,10.508,0,0,1-3.33,2.085c-.33.165-2.145.885-2.145.945,0,.045.045.075.12.075a17.782,17.782,0,0,0,3.51-1.035c.345-.135,2.025-.975,2.085-.975a.232.232,0,0,1,.21.24c0,.33-2.04,1.95-5.1,3.24-.345.15-.93.39-.93.4,0,.045.075.075.12.075a14.664,14.664,0,0,0,4.8-1.77c.225-.135,1.215-.81,1.425-.945a.438.438,0,0,1,.21-.075c.195,0,.345.375.345.6,0,.345-.93,1.005-1.5,1.4a20.46,20.46,0,0,1-4.71,2.37c-.165.06-.18.06-.18.105a.083.083,0,0,0,.09.075,17.235,17.235,0,0,0,5.43-1.92,4.246,4.246,0,0,1,.885-.54c.06,0,.195.075.195.4,0,1.335-.48,1.515-1.185,1.515a2.6,2.6,0,0,1-.72-.075.482.482,0,0,0-.12-.015c-.015,0-.03,0-.03.03,0,.015.42.39.495.48a1.485,1.485,0,0,1,.42.69c.045.15.075.18.3.18.315,0,1.89-.15,1.89-2.475a5.334,5.334,0,0,0-1.425-3.66c-.075-.075-.45-.405-.45-.48,0-.165.9-.72.945-.72.06,0,.075.045.09.1a12.57,12.57,0,0,0,2.52,4.8,6.459,6.459,0,0,0,2.19,1.725c.1,0,.36-.4.42-.465a3.51,3.51,0,0,1,1.305-.7c.045,0,.12,0,.12-.06s-.06-.06-.195-.075c-2-.15-4.1-1.845-4.1-2.19,0-.15.12-.24,1.89-.93a1.777,1.777,0,0,1,.45-.12.193.193,0,0,0,.18-.18c0-.285-1.065-1.11-1.245-1.11-.09,0-.105.045-.18.315a3.489,3.489,0,0,1-1.47,1.515c-.345,0-1.59-2.235-1.59-2.7,0-.15.075-.27.225-.27Zm-3.885-2.37c.48,0,.48.12.48,1.08,0,.78,0,.9-.48.9h-1.77a.483.483,0,0,1-.375-.1c-.1-.09-.1-.195-.1-1.155,0-.57,0-.72.48-.72Zm1.68-1.965c.105,0,.3,0,.3.135,0,.225-.585.765-1.2,1.17a1.34,1.34,0,0,1-.93.27h-1.545a1.044,1.044,0,0,1-.99-.57.128.128,0,0,1,.045-.075,6.291,6.291,0,0,1,.63-.36c.87-.525.96-.57,1.425-.57Zm.315,3.945c-.495,0-.495-.1-.495-1.11,0-.66,0-.87.495-.87h1.965c.45,0,.495.18.495.675,0,1.305-.135,1.305-.525,1.305ZM-64.2,18.81c.18,0,.345.06.345.465a8.464,8.464,0,0,1-1,3.96c-.285,0-1.155-3.36-1.155-4.1,0-.33.195-.33.39-.33Zm-7.38,4.8c.03.075.06.09.09.09s.165-.03.2-.03a9.2,9.2,0,0,1,1.02-.045c.345,0,.48.06.48.555a6.19,6.19,0,0,1-.105,1.44,4,4,0,0,1-1.59.315,2.659,2.659,0,0,1-.36-.015c-.045,0-.255-.075-.3-.075-.135,0-.165.09-.165.135,0,.1.6,1.305.915,1.305.09,0,.375-.36.45-.42.285-.195,4.275-1.545,4.275-1.695,0-.03-.03-.03-.06-.03-.165,0-1.77.33-1.89.33-.3,0-.3-.135-.3-1.38,0-.435.27-.465.555-.465h1.2c.375,0,.525,0,.525-.15a2.4,2.4,0,0,0-.915-.9c-.165,0-.225.15-.33.4-.09.225-.18.255-.525.255-.15,0-.5,0-.5-.39a12.8,12.8,0,0,1,.045-1.35c.075-.18.3-.195.465-.195h1.215c.33,0,.54,0,.54-.165,0-.12-.57-.87-.84-.87-.135,0-.18.1-.3.39-.1.255-.165.255-.6.255h-2c-.345,0-1.035-.03-1.395-.06-.045,0-.33-.045-.345-.045s-.03.015-.03.03c0,.03,0,.045.045.1l.18.345c.045.075.06.1.09.1s.225-.045.27-.045c.39-.03.87-.045,1.14-.045.39.015.525.015.6.255.03.1.03,1.125.03,1.23,0,.42-.255.45-.465.45-.3,0-1.08-.06-1.17-.06a2.716,2.716,0,0,0-.345-.045c-.03,0-.03.015-.03.03,0,.03,0,.03.045.1Zm6.18-5.19c-.06,0-.21,0-.21-.135A20.189,20.189,0,0,1-64.275,15.6c.06-.045.375-.225.375-.3,0-.225-1.425-.75-1.545-.75-.075,0-.135.03-.135.1,0,.045.06.3.06.345a15.714,15.714,0,0,1-.885,3.72c-.06.195-.555,1.47-.555,1.5s.015.045.03.045c.135,0,.66-.81.7-.81.06,0,.06.075.06.18a19.645,19.645,0,0,0,.435,3.09,13.866,13.866,0,0,1,.375,1.41c0,.495-1.065,1.89-2.2,2.85-.135.1-1.26.915-1.26.945s.06.03.075.03a.42.42,0,0,0,.165-.03,7.041,7.041,0,0,0,3.27-2.355c.09-.105.24-.285.345-.285.075,0,.15.075.315.375.015.045,1.08,2.07,1.575,2.07.075,0,.135-.045.3-.165.255-.195.36-.21,1.08-.285a1.194,1.194,0,0,0,.39-.075c0-.075-.375-.195-.45-.24a6.134,6.134,0,0,1-2.565-2.715c0-.12.03-.165.24-.585a10.8,10.8,0,0,0,.765-2.145,9.287,9.287,0,0,1,.4-1.6c.06-.075.465-.36.465-.465,0-.075-.075-.18-.285-.285-.375-.2-.4-.21-.4-.3,0-.06.045-.06.12-.06h.81c.12,0,.33,0,.33-.15a2.178,2.178,0,0,0-.93-.945c-.12,0-.15.045-.375.45-.15.255-.33.255-.96.255Zm-7.53-3.945c-.09.015-.12.21-.135.285a12.374,12.374,0,0,1-1.11,2.355c-.09.165-.765,1.125-.81,1.26l.03.03a9.932,9.932,0,0,0,2.1-1.98c.465-.6.51-.66.675-.72.24-.1.315-.12.315-.255C-71.865,15.24-72.855,14.46-72.93,14.475Zm4.785,4.35c.105,0,.33,0,.33.255.015.15.015.555.345.555a.7.7,0,0,0,.6-.7c0-.06-.03-.39-.03-.465a13.345,13.345,0,0,1-.015-1.38,3.534,3.534,0,0,1,.075-.9c.03-.06.285-.285.285-.345,0-.24-1.035-.465-1.08-.465-.09,0-.1.12-.1.18,0,.1.045.615.045.735,0,.435-.06,1.86-.06,1.95-.045.18-.24.2-.33.2h-.33c-.225,0-.285-.105-.3-.135-.03-.1-.03-1.35-.03-1.6,0-.195,0-1.29.03-1.38.015-.06.21-.285.21-.36,0-.18-.87-.375-.9-.375-.12,0-.135.09-.135.195s.045.96.045,1.14V18.15c0,.27-.18.285-.4.285h-.36c-.345,0-.345-.2-.345-.435s.06-1.86.075-1.98c.015-.03.135-.18.135-.225,0-.21-.96-.465-.99-.465-.09,0-.135.06-.135.15a.816.816,0,0,0,.06.255,1.672,1.672,0,0,1,.06.525c0,.435-.045,2.535-.045,3.015,0,.15.03.555.33.555.315,0,.525-.36.555-.735.03-.255.165-.27.315-.27Zm-5.19,1.845a6.278,6.278,0,0,1,1.17-1.785c.075-.06.54-.27.54-.375,0-.225-1.05-.885-1.1-.885-.09,0-.105.015-.195.36a19.52,19.52,0,0,1-2.28,4.455c0,.015-.03.045-.03.075a.032.032,0,0,0,.03.03c.21,0,1.26-1.2,1.305-1.2s.075.075.075.15c0,1.47,0,2.805-.03,4.275,0,.315-.09,1.665-.09,1.935,0,.135,0,.42.375.42a.67.67,0,0,0,.675-.78c0-.495-.03-2.73-.03-3.18,0-.315,0-2.535.075-2.655.03-.06.255-.255.255-.315,0-.15-.36-.3-.435-.33C-73.1,20.85-73.305,20.775-73.335,20.67Zm16.11-2.19c-.045.015-.075.09-.075.15,0,.615,1.245,1.245,1.575,1.245a13.942,13.942,0,0,0,1.6-.6,18.579,18.579,0,0,1,2.655-.6c.3,0,.3.09.3.9,0,.765,0,.855-.42.915-1.455.225-1.455,1.875-1.455,2.07,0,1.2.72,1.965,1.53,1.965.045,0,.27-.03.315-.03.15,0,.15.165.15.21a4.879,4.879,0,0,1-.84,2.2c-.1.15-.72.87-.72.9,0,.045.045.06.075.06.465,0,2.73-1.86,2.73-4.77a4.755,4.755,0,0,0-.435-2.025,1.959,1.959,0,0,1-.195-.975c0-1.32.03-1.53.24-1.62a7,7,0,0,1,1.62-.15c.285,0,1.68.135,2,.135.525,0,.81-.135.81-.525,0-.525-.66-.585-.855-.585-.12,0-.75.075-.9.075a3.3,3.3,0,0,1-1.32-.3c-.885-.375-1.32-.6-1.32-.945,0-.075.06-.39.06-.465,0-.48-.585-.75-1.245-.75-.09,0-.315,0-.315.1,0,.075.24.345.255.42a8.959,8.959,0,0,1,.21,2.04c0,.39-.09.405-.87.54a30.318,30.318,0,0,1-4.08.51C-56.355,18.585-57.075,18.5-57.225,18.48Zm7.08-1.755a3.252,3.252,0,0,1,1.14.8c0,.225-.975.255-1.035.255-.21,0-.27-.045-.27-.285C-50.31,17.1-50.25,16.755-50.145,16.725Zm-1.02,4.74a2.916,2.916,0,0,1,.2,1.05c0,.24-.015,1.14-.6,1.14a1.087,1.087,0,0,1-.975-1.2c0-.765.48-1.38.855-1.38A.634.634,0,0,1-51.165,21.465Zm18.48,4.23c-.21,0-.3-.135-.51-.4a2.215,2.215,0,0,0-1.71-.96,1.444,1.444,0,0,0-1.485,1.215c0,.75,1.065,1.545,2.55,1.545,1.9,0,3.75-1.335,3.75-3.24a3.238,3.238,0,0,0-3.375-3.12,3.629,3.629,0,0,0-1.32.24c-.09.03-.285.105-.375.135-.045,0-.09-.06-.09-.1a9.147,9.147,0,0,1,2.4-3.075c.72-.495,1.065-.735,1.065-1.17,0-.66-.975-1.035-1.575-1.035-.33,0-.435.045-1.365.45a7.273,7.273,0,0,1-2.325.54c-.315,0-.36,0-.36.045,0,.075.465,1.035,1.17,1.035.255,0,.465-.045,1.065-.54.255-.21,1.14-.96,1.695-.96.18,0,.285.1.285.21,0,.165-.21.48-.705,1.185A49.406,49.406,0,0,1-37.29,22.2c-1.065,1.245-1.185,1.575-1.185,1.95a.413.413,0,0,0,.435.42c.4,0,.555-.285.855-.8.27-.465,1.545-2.52,3.525-2.52a2.374,2.374,0,0,1,2.535,2.28A2.219,2.219,0,0,1-32.685,25.695Zm-1.38.15a.248.248,0,0,1-.255.27c-.645,0-1.29-.315-1.29-.7a.613.613,0,0,1,.63-.525A1.02,1.02,0,0,1-34.065,25.845ZM-16.74,19.59c.285-.36.765-.9,1.02-1.26A4.284,4.284,0,0,1-14.7,17.1a.378.378,0,0,0,.135-.3c0-.57-1.515-1.2-1.74-1.2a.148.148,0,0,0-.15.12,1.667,1.667,0,0,0,.1.24.848.848,0,0,1,.12.42c0,.42-1.17,2.97-4.71,6-.24.21-.66.555-1.05.9a.136.136,0,0,0-.045.1c0,.06.03.09.075.09A16.475,16.475,0,0,0-17.7,20.61c.12-.12.18-.18.255-.18.39,0,.39,1.575.39,2.115,0,.8-.06,1.95-.15,2.76-.015.15-.165.81-.165.96,0,.405.51,1.05.93,1.05.36,0,.36-.51.36-.66,0-.2-.09-1.065-.1-1.245-.03-.585-.045-1.4-.045-1.8a14.482,14.482,0,0,1,.09-2.655c.015-.09.18-.51.18-.6,0-.135-.06-.195-.645-.555A.242.242,0,0,1-16.74,19.59ZM-.675,18.6c0-.885-1.26-1.74-2.865-1.74-.21,0-.33.075-.33.135s.075.1.135.135A3.379,3.379,0,0,1-2.37,18.36c.495.75.645.99,1.05.99A.663.663,0,0,0-.675,18.6Zm6.24-.135a.1.1,0,0,0-.075-.075c-.03,0-.45.42-.69.66-2.49,2.46-6.465,5.115-7.2,5.115a2.483,2.483,0,0,1-1.02-.345,3.735,3.735,0,0,0-.45-.285c-.135,0-.15.69-.15.8,0,.6,1.11,1.56,1.92,1.56.225,0,.255-.03.54-.375a10.475,10.475,0,0,1,1.47-1.23A20.41,20.41,0,0,0,5.565,18.465Zm6.81-1.005a1.557,1.557,0,0,0-.045.345.951.951,0,0,0,.435.84c.78.72.885.72,1.08.72a4.336,4.336,0,0,0,.78-.33,50.032,50.032,0,0,1,5.4-1.08c.075,0,.33.015.33.27a8.475,8.475,0,0,1-1.02,2.535A19.523,19.523,0,0,1,13.41,26.7c-.15.1-.2.135-.2.195a.1.1,0,0,0,.105.09,15.264,15.264,0,0,0,7.74-6.99,2.483,2.483,0,0,1,.585-.945c.27-.27.345-.345.345-.54,0-.21-.09-.375-.765-.975-.465-.4-.7-.615-1.035-.615-.1,0-.165.03-.63.24a38.885,38.885,0,0,1-5.655.72,3.665,3.665,0,0,1-1.245-.33A1,1,0,0,0,12.375,17.46ZM34.65,21.165c.75-.96.84-1.065,1.17-1.56a1.714,1.714,0,0,1,.465-.48.353.353,0,0,0,.12-.27c0-.51-1.275-1.035-1.44-1.035a.164.164,0,0,0-.165.15,1.791,1.791,0,0,0,.12.24.788.788,0,0,1,.1.36c0,.375-1.155,2.685-4.14,5.145-.15.12-.6.495-.6.57a.085.085,0,0,0,.09.09,10.769,10.769,0,0,0,3.36-2.25c.24-.21.27-.24.315-.24.3,0,.3,1.275.3,1.65a18.807,18.807,0,0,1-.165,2.58,3.168,3.168,0,0,0-.075.54c0,.3.39.885.75.885.33,0,.33-.45.33-.57,0-.165-.09-.93-.09-1.08-.03-.57-.03-1.05-.03-1.44a15.456,15.456,0,0,1,.06-2.16c.015-.09.15-.435.15-.51,0-.2-.315-.345-.57-.51A.152.152,0,0,1,34.65,21.165Zm11.265,1.95a.638.638,0,0,0-.165-.03.119.119,0,0,0-.135.135,2.49,2.49,0,0,0,.45.99,2.655,2.655,0,0,0,1.05.555c.015,0,1.11-.255,1.32-.285.825-.135,3.99-.48,5.25-.48a11.24,11.24,0,0,1,1.7.12c.36.06.7.12.825.12.255,0,.84-.09.84-.435,0-.72-1.83-1.02-2.265-1.02-.36,0-2.07.315-2.475.375a29.657,29.657,0,0,1-4.245.33A5.069,5.069,0,0,1,45.915,23.115Zm2.1-4.485c-.09,0-.21.03-.21.075s.36.48.4.54a1.116,1.116,0,0,0,.81.465c.12,0,3.015-.39,3.6-.42,1.635-.075,2.19-.105,2.19-.48,0-.405-.645-.75-1.335-.75-.18,0-1.095.18-1.3.21-.6.1-2.745.4-3.225.4C48.8,18.675,48.105,18.63,48.015,18.63ZM69.36,20.565a.182.182,0,0,1,.105-.225A12.909,12.909,0,0,1,70.98,20.3c.33,0,.75.045,1.065.075.15.015.885.135,1.05.135.195,0,.435-.09.435-.36,0-.615-1.71-.945-1.89-.945s-.945.24-1.125.27c-1.05.15-4.935.57-5.895.57a4.673,4.673,0,0,1-.945-.1,1.32,1.32,0,0,0-.225-.075c-.075,0-.1.06-.1.15a1.313,1.313,0,0,0,1.185,1.14,9.471,9.471,0,0,0,1.08-.27,18.49,18.49,0,0,1,2.385-.45c.33,0,.36.27.36.45a10.116,10.116,0,0,1-2.94,5.655,10.215,10.215,0,0,0-.795.75c0,.045.03.075.09.075a7.434,7.434,0,0,0,3.975-3.855c.135-.255.7-1.635.75-1.695.045-.075.4-.36.4-.465A4.661,4.661,0,0,0,69.36,20.565Zm-3.63-3.75c-.075.03.39,1.08,1.125,1.08.045,0,.63-.12.705-.135.225-.045,1.23-.24,1.995-.33.885-.09,1.14-.12,1.14-.555s-.54-.495-.855-.495a6.13,6.13,0,0,0-1.2.18,9.256,9.256,0,0,1-2.13.375C66.42,16.935,65.82,16.83,65.73,16.815Zm20.22,4.35c.75-.96.84-1.065,1.17-1.56a1.713,1.713,0,0,1,.465-.48.353.353,0,0,0,.12-.27c0-.51-1.275-1.035-1.44-1.035a.164.164,0,0,0-.165.15,1.791,1.791,0,0,0,.12.24.788.788,0,0,1,.1.36c0,.375-1.155,2.685-4.14,5.145-.15.12-.6.495-.6.57a.085.085,0,0,0,.09.09,10.769,10.769,0,0,0,3.36-2.25c.24-.21.27-.24.315-.24.3,0,.3,1.275.3,1.65a18.808,18.808,0,0,1-.165,2.58,3.169,3.169,0,0,0-.075.54c0,.3.39.885.75.885.33,0,.33-.45.33-.57,0-.165-.09-.93-.09-1.08-.03-.57-.03-1.05-.03-1.44a15.456,15.456,0,0,1,.06-2.16c.015-.09.15-.435.15-.51,0-.2-.315-.345-.57-.51A.152.152,0,0,1,85.95,21.165Z" transform="translate(1063.62 6172.379)" fill="#fff"/>
    <path id="パス_29060" data-name="パス 29060" d="M277.692,264.582c-17.954,0-33.623,7.71-41.959,19.156,0,0-21.984,29.077-28.328,37.826-4.519,6.231-10.907,11.844-20.444,13.659-10.566,2.012-21.179-.687-28.28-6.382,8.81,7.32,21.272,11.885,35.088,11.885,17.955,0,33.623-7.71,41.959-19.155,0,0,21.984-29.077,28.33-37.826,4.519-6.23,10.906-11.844,20.442-13.658,10.568-2.012,21.181.687,28.28,6.383-8.809-7.321-21.271-11.887-35.088-11.887" transform="translate(952.408 5535.63)" fill="#fff"/>
    <g id="グループ_12618" data-name="グループ 12618" transform="translate(1060.837 5838.368)">
      <line id="線_108" data-name="線 108" x2="14.48" transform="translate(0 7.24)" fill="none" stroke="#fff" stroke-miterlimit="10" stroke-width="1"/>
      <line id="線_109" data-name="線 109" y2="14.481" transform="translate(7.241 0)" fill="none" stroke="#fff" stroke-miterlimit="10" stroke-width="1"/>
    </g>
    <g id="グループ_12628" data-name="グループ 12628" transform="translate(7189.929 5091.068) rotate(90)">
      <line id="線_110" data-name="線 110" x2="34.573" transform="translate(878.173 6127.449)" fill="none" stroke="#fff" stroke-miterlimit="10" stroke-width="1"/>
      <path id="パス_29069" data-name="パス 29069" d="M278.265,297.295l3.732-3.67-3.732-3.793" transform="translate(631.077 5833.885)" fill="none" stroke="#fff" stroke-miterlimit="10" stroke-width="1"/>
    </g>
    <g id="グループ_12627" data-name="グループ 12627" transform="translate(955.7 6038.78)" clip-path="url(#clip-path)">
      <rect id="長方形_8677" data-name="長方形 8677" width="230.468" height="199.655" transform="matrix(0.821, -0.57, 0.57, 0.821, -43.666, 30.31)" fill="#fff"/>
    </g>
  </g>
</svg>
