<svg xmlns="http://www.w3.org/2000/svg" width="191.288" height="186.627" viewBox="0 0 191.288 186.627">
  <g id="グループ_26303" data-name="グループ 26303" transform="translate(-91.664 -3218.083)">
    <g id="グループ_26149" data-name="グループ 26149" transform="translate(-6117.352 -894.084)">
      <path id="パス_29061" data-name="パス 29061" d="M34.015,26.5h0Z" transform="translate(6209.015 4158.851)" fill="#dfe6ea"/>
      <path id="パス_38611" data-name="パス 38611" d="M3.636,0V-.336C2.652-.408,2.556-.468,2.556-1.5V-6.3c0-1.02.1-1.092,1.08-1.164V-7.8H.456v.336c.984.072,1.08.144,1.08,1.164v4.8c0,1.02-.1,1.092-1.08,1.164V0ZM12.96-7.8H10.128v.336c.828.048,1.116.2,1.176.744a17.8,17.8,0,0,1,.084,1.992v2.952h-.036l-5-6.024H4.572v.336A1.3,1.3,0,0,1,5.64-7.02c.216.288.24.336.24,1.212v2.64c0,1.1-.036,1.68-.072,2.052-.06.588-.36.744-1.056.78V0H7.6V-.336C6.78-.384,6.5-.528,6.444-1.14a20.173,20.173,0,0,1-.072-2.028V-6.18H6.4L11.508.108h.372V-4.728a16.693,16.693,0,0,1,.072-2.016c.048-.528.336-.684,1.008-.72Zm9.156,0H19.284v.336c.828.048,1.116.2,1.176.744a17.8,17.8,0,0,1,.084,1.992v2.952h-.036L15.5-7.8H13.728v.336A1.3,1.3,0,0,1,14.8-7.02c.216.288.24.336.24,1.212v2.64c0,1.1-.036,1.68-.072,2.052-.06.588-.36.744-1.056.78V0h2.844V-.336c-.816-.048-1.092-.192-1.152-.8a20.172,20.172,0,0,1-.072-2.028V-6.18h.024L20.664.108h.372V-4.728a16.693,16.693,0,0,1,.072-2.016c.048-.528.336-.684,1.008-.72Zm5-.18a4,4,0,0,0-4.032,4.164,3.878,3.878,0,0,0,3.9,4A3.934,3.934,0,0,0,31-4,3.868,3.868,0,0,0,27.12-7.98Zm-.24.432c1.572,0,2.892,1.344,2.892,3.876,0,2.3-1.2,3.42-2.532,3.42-1.692,0-2.928-1.644-2.928-3.9S25.536-7.548,26.88-7.548ZM39.8-7.8H37.1v.336c.972.12,1.044.216.816.9-.384,1.2-1.3,3.54-1.9,5.04H36c-.8-2.064-1.68-4.38-1.992-5.232-.192-.528-.144-.612.708-.708V-7.8h-2.94v.348c.708.06.9.156,1.248,1.056.7,1.74,1.68,4.32,2.484,6.516h.372c.9-2.472,2.172-5.52,2.5-6.3.456-1.08.612-1.188,1.428-1.284ZM46.836,0V-.336c-.78-.072-.936-.18-1.32-1.212C44.748-3.636,43.944-5.916,43.2-7.98l-.372.108-2.484,6.3C39.924-.516,39.756-.444,39-.336V0h2.6V-.336c-.9-.084-1.008-.2-.744-.96.156-.5.336-1.008.528-1.548h2.556c.264.732.5,1.38.66,1.848s.048.564-.708.66V0Zm-3.06-3.36H41.568c.36-.984.744-2.028,1.128-3.06h.024ZM53.6-5.976c-.06-.7-.12-1.572-.12-2.124h-.252a.638.638,0,0,1-.612.3H47.88c-.336,0-.492-.024-.66-.3h-.24c-.024.66-.084,1.44-.144,2.16h.348a3.78,3.78,0,0,1,.384-1.068c.156-.276.4-.372,1.392-.372H49.7v5.9c0,.948-.1,1.068-1.188,1.14V0H51.96V-.336c-1.14-.072-1.236-.192-1.236-1.14v-5.9h.852c.9,0,1.1.084,1.3.372a2.9,2.9,0,0,1,.384,1.068ZM57.78,0V-.336C56.8-.408,56.7-.468,56.7-1.5V-6.3c0-1.02.1-1.092,1.08-1.164V-7.8H54.6v.336c.984.072,1.08.144,1.08,1.164v4.8c0,1.02-.1,1.092-1.08,1.164V0Zm5.112-7.98A4,4,0,0,0,58.86-3.816a3.878,3.878,0,0,0,3.9,4A3.934,3.934,0,0,0,66.768-4,3.868,3.868,0,0,0,62.892-7.98Zm-.24.432c1.572,0,2.892,1.344,2.892,3.876,0,2.3-1.2,3.42-2.532,3.42-1.692,0-2.928-1.644-2.928-3.9S61.308-7.548,62.652-7.548Zm13.4-.252H73.224v.336c.828.048,1.116.2,1.176.744a17.8,17.8,0,0,1,.084,1.992v2.952h-.036l-5-6.024H67.668v.336a1.3,1.3,0,0,1,1.068.444c.216.288.24.336.24,1.212v2.64c0,1.1-.036,1.68-.072,2.052-.06.588-.36.744-1.056.78V0h2.844V-.336c-.816-.048-1.092-.192-1.152-.8a20.172,20.172,0,0,1-.072-2.028V-6.18h.024L74.6.108h.372V-4.728a16.691,16.691,0,0,1,.072-2.016c.048-.528.336-.684,1.008-.72Zm8.4,1.752c-.1-.756-.156-1.224-.2-1.656A4.98,4.98,0,0,0,82.74-7.98a2.23,2.23,0,0,0-2.472,2.136c0,1.356,1.212,1.956,1.98,2.364.9.48,1.56.9,1.56,1.788a1.336,1.336,0,0,1-1.44,1.44c-1.236,0-1.776-1.212-1.968-1.944l-.348.084a14.774,14.774,0,0,0,.324,1.86A4.108,4.108,0,0,0,80.964,0,4.178,4.178,0,0,0,82.14.18,2.41,2.41,0,0,0,84.8-2.088c0-1.344-1.14-1.908-2.076-2.388S81.2-5.376,81.2-6.252a1.259,1.259,0,0,1,1.332-1.32c1.044,0,1.356.828,1.572,1.6ZM88.968,0V-.336c-.984-.072-1.08-.132-1.08-1.164V-6.3c0-1.02.1-1.092,1.08-1.164V-7.8h-3.18v.336c.984.072,1.08.144,1.08,1.164v4.8c0,1.02-.1,1.092-1.08,1.164V0ZM95.6-1.956A3.5,3.5,0,0,1,94.992-.78c-.276.312-.684.372-1.344.372A2.676,2.676,0,0,1,92.5-.564c-.216-.12-.276-.36-.276-1.008v-4.74c0-1.02.108-1.08,1.056-1.152V-7.8H90.144v.336c.972.072,1.056.132,1.056,1.152v4.8c0,1.02-.1,1.1-1.1,1.176V0h5.436c.108-.372.36-1.512.432-1.884ZM103.656-7.8h-2.7v.336c.972.12,1.044.216.816.9-.384,1.2-1.3,3.54-1.9,5.04h-.024c-.8-2.064-1.68-4.38-1.992-5.232-.192-.528-.144-.612.708-.708V-7.8h-2.94v.348c.708.06.9.156,1.248,1.056.7,1.74,1.68,4.32,2.484,6.516h.372c.9-2.472,2.172-5.52,2.5-6.3.456-1.08.612-1.188,1.428-1.284Zm6.624,5.856a3.5,3.5,0,0,1-.588,1.128c-.264.312-.6.408-1.512.408a2.706,2.706,0,0,1-1.248-.156c-.216-.156-.288-.408-.288-.972V-3.8h1.14c1.044,0,1.128.072,1.284.936h.348v-2.3h-.348c-.156.8-.216.9-1.3.9h-1.128V-7c0-.36.024-.384.4-.384h.912c.864,0,1.188.084,1.356.336a3.1,3.1,0,0,1,.384,1.032l.348-.06c-.036-.612-.1-1.428-.1-1.728h-5.352v.336c.936.084,1.032.12,1.032,1.2v4.776c0,.972-.1,1.068-1.188,1.152V0h5.784c.108-.372.348-1.5.42-1.9Zm8.436,1.728a1.705,1.705,0,0,1-.864-.564,10.425,10.425,0,0,1-.972-1.248c-.36-.54-.864-1.344-1.068-1.74a2.187,2.187,0,0,0,1.524-2.052,1.8,1.8,0,0,0-.792-1.572,3.387,3.387,0,0,0-1.92-.408h-2.976v.336c.936.084,1.032.12,1.032,1.14V-1.5c0,1.02-.108,1.092-1.092,1.164V0h3.156V-.336c-.96-.072-1.068-.144-1.068-1.164V-3.408h.384c.624,0,.828.144,1.032.48.36.588.792,1.332,1.212,1.92A2.187,2.187,0,0,0,118.248.084c.144.012.276.012.42.012ZM113.676-3.8V-6.756c0-.324.048-.468.132-.528a1.177,1.177,0,0,1,.648-.12,1.625,1.625,0,0,1,1.764,1.776,1.722,1.722,0,0,1-.66,1.488,1.985,1.985,0,0,1-1.308.336ZM126.408,0V-.324c-1.092-.084-1.164-.18-1.164-1.044V-7.62A10.539,10.539,0,0,1,123.108-7v.276l.576.024c.528.024.576.084.576.708v4.62c0,.864-.06.96-1.152,1.044V0Z" transform="translate(6259.687 4161.238)" fill="#fff"/>
      <path id="パス_38612" data-name="パス 38612" d="M.552-7.8v.336c.888.06.984.108.984,1.164v4.8c0,1-.1,1.092-1.056,1.164V0H3.732V-.336C2.652-.408,2.544-.468,2.544-1.488V-3.372l.888.228a4.037,4.037,0,0,0,.54,0A2.466,2.466,0,0,0,6.312-5.6,2,2,0,0,0,5.532-7.3a3.327,3.327,0,0,0-2.016-.5ZM2.544-6.708c0-.336.036-.48.132-.564a1.123,1.123,0,0,1,.672-.144A1.685,1.685,0,0,1,5.16-5.568,1.691,1.691,0,0,1,3.42-3.624a2.6,2.6,0,0,1-.876-.144ZM14.508-.216a1.705,1.705,0,0,1-.864-.564,10.426,10.426,0,0,1-.972-1.248c-.36-.54-.864-1.344-1.068-1.74A2.187,2.187,0,0,0,13.128-5.82a1.8,1.8,0,0,0-.792-1.572,3.387,3.387,0,0,0-1.92-.408H7.44v.336c.936.084,1.032.12,1.032,1.14V-1.5c0,1.02-.108,1.092-1.092,1.164V0h3.156V-.336C9.576-.408,9.468-.48,9.468-1.5V-3.408h.384c.624,0,.828.144,1.032.48.36.588.792,1.332,1.212,1.92A2.187,2.187,0,0,0,14.04.084c.144.012.276.012.42.012ZM9.468-3.8V-6.756c0-.324.048-.468.132-.528a1.177,1.177,0,0,1,.648-.12,1.625,1.625,0,0,1,1.764,1.776,1.722,1.722,0,0,1-.66,1.488,1.985,1.985,0,0,1-1.308.336ZM19.092-7.98A4,4,0,0,0,15.06-3.816a3.878,3.878,0,0,0,3.9,4A3.934,3.934,0,0,0,22.968-4,3.868,3.868,0,0,0,19.092-7.98Zm-.24.432c1.572,0,2.892,1.344,2.892,3.876,0,2.3-1.2,3.42-2.532,3.42-1.692,0-2.928-1.644-2.928-3.9S17.508-7.548,18.852-7.548ZM31.32-2.112c-.6,1.2-1.248,1.86-2.472,1.86-1.824,0-3.144-1.536-3.144-3.78,0-1.824,1.068-3.516,3.072-3.516A2.088,2.088,0,0,1,31.1-5.76l.36-.084c-.072-.648-.144-1.128-.24-1.812A9.482,9.482,0,0,0,29.1-7.98c-2.676,0-4.62,1.668-4.62,4.188A3.941,3.941,0,0,0,28.776.18a10.117,10.117,0,0,0,2.208-.324,12.855,12.855,0,0,0,.684-1.836Zm7.044.168a3.5,3.5,0,0,1-.588,1.128c-.264.312-.6.408-1.512.408a2.706,2.706,0,0,1-1.248-.156c-.216-.156-.288-.408-.288-.972V-3.8h1.14c1.044,0,1.128.072,1.284.936H37.5v-2.3h-.348c-.156.8-.216.9-1.3.9H34.728V-7c0-.36.024-.384.4-.384h.912c.864,0,1.188.084,1.356.336a3.1,3.1,0,0,1,.384,1.032l.348-.06c-.036-.612-.1-1.428-.1-1.728H32.676v.336c.936.084,1.032.12,1.032,1.2v4.776c0,.972-.1,1.068-1.188,1.152V0H38.3c.108-.372.348-1.5.42-1.9Zm5.772-4.1c-.1-.756-.156-1.224-.2-1.656A4.98,4.98,0,0,0,42.42-7.98a2.23,2.23,0,0,0-2.472,2.136c0,1.356,1.212,1.956,1.98,2.364.9.48,1.56.9,1.56,1.788a1.336,1.336,0,0,1-1.44,1.44c-1.236,0-1.776-1.212-1.968-1.944l-.348.084a14.774,14.774,0,0,0,.324,1.86A4.108,4.108,0,0,0,40.644,0,4.178,4.178,0,0,0,41.82.18a2.41,2.41,0,0,0,2.664-2.268c0-1.344-1.14-1.908-2.076-2.388s-1.524-.9-1.524-1.776a1.259,1.259,0,0,1,1.332-1.32c1.044,0,1.356.828,1.572,1.6Zm5.928,0c-.1-.756-.156-1.224-.2-1.656a4.98,4.98,0,0,0-1.512-.276,2.23,2.23,0,0,0-2.472,2.136c0,1.356,1.212,1.956,1.98,2.364.9.48,1.56.9,1.56,1.788a1.336,1.336,0,0,1-1.44,1.44C46.74-.252,46.2-1.464,46.008-2.2l-.348.084a14.774,14.774,0,0,0,.324,1.86A4.108,4.108,0,0,0,46.572,0a4.178,4.178,0,0,0,1.176.18,2.41,2.41,0,0,0,2.664-2.268c0-1.344-1.14-1.908-2.076-2.388s-1.524-.9-1.524-1.776a1.259,1.259,0,0,1,1.332-1.32c1.044,0,1.356.828,1.572,1.6ZM61.416-2.112c-.6,1.2-1.248,1.86-2.472,1.86-1.824,0-3.144-1.536-3.144-3.78,0-1.824,1.068-3.516,3.072-3.516A2.088,2.088,0,0,1,61.2-5.76l.36-.084c-.072-.648-.144-1.128-.24-1.812A9.482,9.482,0,0,0,59.2-7.98c-2.676,0-4.62,1.668-4.62,4.188A3.941,3.941,0,0,0,58.872.18,10.117,10.117,0,0,0,61.08-.144a12.855,12.855,0,0,0,.684-1.836Zm5.5-5.868A4,4,0,0,0,62.88-3.816a3.878,3.878,0,0,0,3.9,4A3.934,3.934,0,0,0,70.788-4,3.868,3.868,0,0,0,66.912-7.98Zm-.24.432c1.572,0,2.892,1.344,2.892,3.876,0,2.3-1.2,3.42-2.532,3.42C65.34-.252,64.1-1.9,64.1-4.152S65.328-7.548,66.672-7.548ZM77.388-1.956A3.5,3.5,0,0,1,76.776-.78c-.276.312-.684.372-1.344.372A2.676,2.676,0,0,1,74.28-.564C74.064-.684,74-.924,74-1.572v-4.74c0-1.02.108-1.08,1.056-1.152V-7.8H71.928v.336c.972.072,1.056.132,1.056,1.152v4.8c0,1.02-.1,1.1-1.1,1.176V0h5.436c.108-.372.36-1.512.432-1.884Zm5.22-6.024a4,4,0,0,0-4.032,4.164,3.878,3.878,0,0,0,3.9,4A3.934,3.934,0,0,0,86.484-4,3.868,3.868,0,0,0,82.608-7.98Zm-.24.432c1.572,0,2.892,1.344,2.892,3.876,0,2.3-1.2,3.42-2.532,3.42-1.692,0-2.928-1.644-2.928-3.9S81.024-7.548,82.368-7.548ZM94.716-.216a1.705,1.705,0,0,1-.864-.564,10.425,10.425,0,0,1-.972-1.248c-.36-.54-.864-1.344-1.068-1.74A2.187,2.187,0,0,0,93.336-5.82a1.8,1.8,0,0,0-.792-1.572,3.387,3.387,0,0,0-1.92-.408H87.648v.336c.936.084,1.032.12,1.032,1.14V-1.5c0,1.02-.108,1.092-1.092,1.164V0h3.156V-.336c-.96-.072-1.068-.144-1.068-1.164V-3.408h.384c.624,0,.828.144,1.032.48.36.588.792,1.332,1.212,1.92A2.187,2.187,0,0,0,94.248.084c.144.012.276.012.42.012ZM89.676-3.8V-6.756c0-.324.048-.468.132-.528a1.177,1.177,0,0,1,.648-.12A1.625,1.625,0,0,1,92.22-5.628a1.722,1.722,0,0,1-.66,1.488,1.985,1.985,0,0,1-1.308.336Zm15.492,1.692c-.6,1.2-1.248,1.86-2.472,1.86-1.824,0-3.144-1.536-3.144-3.78,0-1.824,1.068-3.516,3.072-3.516a2.088,2.088,0,0,1,2.328,1.788l.36-.084c-.072-.648-.144-1.128-.24-1.812a9.482,9.482,0,0,0-2.124-.324c-2.676,0-4.62,1.668-4.62,4.188a3.941,3.941,0,0,0,4.3,3.972,10.117,10.117,0,0,0,2.208-.324,12.854,12.854,0,0,0,.684-1.836ZM107.844-6.6h2.8l.312-.78-.072-.1h-3.42l-.468,3.66a3.512,3.512,0,0,1,1.236-.24,1.732,1.732,0,0,1,1.956,1.812A1.6,1.6,0,0,1,108.66-.468a2.175,2.175,0,0,1-1.476-.612.228.228,0,0,0-.324,0,.737.737,0,0,0-.252.4c-.024.144.036.24.192.408a2.033,2.033,0,0,0,1.236.42,3.655,3.655,0,0,0,2.088-.852,2.565,2.565,0,0,0,1.068-2,2.112,2.112,0,0,0-2.316-2.028,5.018,5.018,0,0,0-1.344.36ZM122.988,0V-.336c-.588-.072-.828-.18-1.464-.864-.6-.648-1.908-2.136-2.82-3.264.816-.828,1.668-1.68,2.124-2.1a2.619,2.619,0,0,1,1.956-.9V-7.8H119.9v.336l.264.036c.552.06.552.18.2.612a27.616,27.616,0,0,1-2.016,2.124,2.08,2.08,0,0,1-.84.552v-2.1c0-1.068.12-1.152,1.044-1.224V-7.8h-3.1v.336c.948.072,1.056.132,1.056,1.224v4.692c0,1.056-.108,1.14-1.02,1.212V0h3.12V-.336c-.984-.072-1.1-.156-1.1-1.212v-2.28c.2-.036.372.012.648.336,1.08,1.272,2.052,2.448,2.976,3.492Zm4.92,0V-.324c-1.092-.084-1.164-.18-1.164-1.044V-7.62A10.539,10.539,0,0,1,124.608-7v.276l.576.024c.528.024.576.084.576.708v4.62c0,.864-.06.96-1.152,1.044V0Zm4.272-7.62c-1.8,0-2.46,2.136-2.46,3.888,0,1.9.648,3.876,2.46,3.876s2.436-2.136,2.436-3.888C134.616-5.592,133.98-7.62,132.18-7.62Zm-.012.4c1.08,0,1.38,1.776,1.38,3.48,0,1.68-.288,3.48-1.368,3.48-1.044,0-1.392-1.812-1.392-3.492S131.076-7.224,132.168-7.224Z" transform="translate(6259.687 4181.544)" fill="#fff"/>
      <rect id="長方形_8659" data-name="長方形 8659" width="34.015" height="34.015" transform="translate(6209.015 4208.058)" fill="#96a7b1"/>
      <path id="パス_38613" data-name="パス 38613" d="M3.636,0V-.336C2.652-.408,2.556-.468,2.556-1.5V-6.3c0-1.02.1-1.092,1.08-1.164V-7.8H.456v.336c.984.072,1.08.144,1.08,1.164v4.8c0,1.02-.1,1.092-1.08,1.164V0ZM12.96-7.8H10.128v.336c.828.048,1.116.2,1.176.744a17.8,17.8,0,0,1,.084,1.992v2.952h-.036l-5-6.024H4.572v.336A1.3,1.3,0,0,1,5.64-7.02c.216.288.24.336.24,1.212v2.64c0,1.1-.036,1.68-.072,2.052-.06.588-.36.744-1.056.78V0H7.6V-.336C6.78-.384,6.5-.528,6.444-1.14a20.173,20.173,0,0,1-.072-2.028V-6.18H6.4L11.508.108h.372V-4.728a16.693,16.693,0,0,1,.072-2.016c.048-.528.336-.684,1.008-.72Zm9.156,0H19.284v.336c.828.048,1.116.2,1.176.744a17.8,17.8,0,0,1,.084,1.992v2.952h-.036L15.5-7.8H13.728v.336A1.3,1.3,0,0,1,14.8-7.02c.216.288.24.336.24,1.212v2.64c0,1.1-.036,1.68-.072,2.052-.06.588-.36.744-1.056.78V0h2.844V-.336c-.816-.048-1.092-.192-1.152-.8a20.172,20.172,0,0,1-.072-2.028V-6.18h.024L20.664.108h.372V-4.728a16.693,16.693,0,0,1,.072-2.016c.048-.528.336-.684,1.008-.72Zm5-.18a4,4,0,0,0-4.032,4.164,3.878,3.878,0,0,0,3.9,4A3.934,3.934,0,0,0,31-4,3.868,3.868,0,0,0,27.12-7.98Zm-.24.432c1.572,0,2.892,1.344,2.892,3.876,0,2.3-1.2,3.42-2.532,3.42-1.692,0-2.928-1.644-2.928-3.9S25.536-7.548,26.88-7.548ZM39.8-7.8H37.1v.336c.972.12,1.044.216.816.9-.384,1.2-1.3,3.54-1.9,5.04H36c-.8-2.064-1.68-4.38-1.992-5.232-.192-.528-.144-.612.708-.708V-7.8h-2.94v.348c.708.06.9.156,1.248,1.056.7,1.74,1.68,4.32,2.484,6.516h.372c.9-2.472,2.172-5.52,2.5-6.3.456-1.08.612-1.188,1.428-1.284ZM46.836,0V-.336c-.78-.072-.936-.18-1.32-1.212C44.748-3.636,43.944-5.916,43.2-7.98l-.372.108-2.484,6.3C39.924-.516,39.756-.444,39-.336V0h2.6V-.336c-.9-.084-1.008-.2-.744-.96.156-.5.336-1.008.528-1.548h2.556c.264.732.5,1.38.66,1.848s.048.564-.708.66V0Zm-3.06-3.36H41.568c.36-.984.744-2.028,1.128-3.06h.024ZM53.6-5.976c-.06-.7-.12-1.572-.12-2.124h-.252a.638.638,0,0,1-.612.3H47.88c-.336,0-.492-.024-.66-.3h-.24c-.024.66-.084,1.44-.144,2.16h.348a3.78,3.78,0,0,1,.384-1.068c.156-.276.4-.372,1.392-.372H49.7v5.9c0,.948-.1,1.068-1.188,1.14V0H51.96V-.336c-1.14-.072-1.236-.192-1.236-1.14v-5.9h.852c.9,0,1.1.084,1.3.372a2.9,2.9,0,0,1,.384,1.068ZM57.78,0V-.336C56.8-.408,56.7-.468,56.7-1.5V-6.3c0-1.02.1-1.092,1.08-1.164V-7.8H54.6v.336c.984.072,1.08.144,1.08,1.164v4.8c0,1.02-.1,1.092-1.08,1.164V0Zm5.112-7.98A4,4,0,0,0,58.86-3.816a3.878,3.878,0,0,0,3.9,4A3.934,3.934,0,0,0,66.768-4,3.868,3.868,0,0,0,62.892-7.98Zm-.24.432c1.572,0,2.892,1.344,2.892,3.876,0,2.3-1.2,3.42-2.532,3.42-1.692,0-2.928-1.644-2.928-3.9S61.308-7.548,62.652-7.548Zm13.4-.252H73.224v.336c.828.048,1.116.2,1.176.744a17.8,17.8,0,0,1,.084,1.992v2.952h-.036l-5-6.024H67.668v.336a1.3,1.3,0,0,1,1.068.444c.216.288.24.336.24,1.212v2.64c0,1.1-.036,1.68-.072,2.052-.06.588-.36.744-1.056.78V0h2.844V-.336c-.816-.048-1.092-.192-1.152-.8a20.172,20.172,0,0,1-.072-2.028V-6.18h.024L74.6.108h.372V-4.728a16.691,16.691,0,0,1,.072-2.016c.048-.528.336-.684,1.008-.72Zm8.4,1.752c-.1-.756-.156-1.224-.2-1.656A4.98,4.98,0,0,0,82.74-7.98a2.23,2.23,0,0,0-2.472,2.136c0,1.356,1.212,1.956,1.98,2.364.9.48,1.56.9,1.56,1.788a1.336,1.336,0,0,1-1.44,1.44c-1.236,0-1.776-1.212-1.968-1.944l-.348.084a14.774,14.774,0,0,0,.324,1.86A4.108,4.108,0,0,0,80.964,0,4.178,4.178,0,0,0,82.14.18,2.41,2.41,0,0,0,84.8-2.088c0-1.344-1.14-1.908-2.076-2.388S81.2-5.376,81.2-6.252a1.259,1.259,0,0,1,1.332-1.32c1.044,0,1.356.828,1.572,1.6ZM88.968,0V-.336c-.984-.072-1.08-.132-1.08-1.164V-6.3c0-1.02.1-1.092,1.08-1.164V-7.8h-3.18v.336c.984.072,1.08.144,1.08,1.164v4.8c0,1.02-.1,1.092-1.08,1.164V0ZM95.6-1.956A3.5,3.5,0,0,1,94.992-.78c-.276.312-.684.372-1.344.372A2.676,2.676,0,0,1,92.5-.564c-.216-.12-.276-.36-.276-1.008v-4.74c0-1.02.108-1.08,1.056-1.152V-7.8H90.144v.336c.972.072,1.056.132,1.056,1.152v4.8c0,1.02-.1,1.1-1.1,1.176V0h5.436c.108-.372.36-1.512.432-1.884ZM103.656-7.8h-2.7v.336c.972.12,1.044.216.816.9-.384,1.2-1.3,3.54-1.9,5.04h-.024c-.8-2.064-1.68-4.38-1.992-5.232-.192-.528-.144-.612.708-.708V-7.8h-2.94v.348c.708.06.9.156,1.248,1.056.7,1.74,1.68,4.32,2.484,6.516h.372c.9-2.472,2.172-5.52,2.5-6.3.456-1.08.612-1.188,1.428-1.284Zm6.624,5.856a3.5,3.5,0,0,1-.588,1.128c-.264.312-.6.408-1.512.408a2.706,2.706,0,0,1-1.248-.156c-.216-.156-.288-.408-.288-.972V-3.8h1.14c1.044,0,1.128.072,1.284.936h.348v-2.3h-.348c-.156.8-.216.9-1.3.9h-1.128V-7c0-.36.024-.384.4-.384h.912c.864,0,1.188.084,1.356.336a3.1,3.1,0,0,1,.384,1.032l.348-.06c-.036-.612-.1-1.428-.1-1.728h-5.352v.336c.936.084,1.032.12,1.032,1.2v4.776c0,.972-.1,1.068-1.188,1.152V0h5.784c.108-.372.348-1.5.42-1.9Zm8.436,1.728a1.705,1.705,0,0,1-.864-.564,10.425,10.425,0,0,1-.972-1.248c-.36-.54-.864-1.344-1.068-1.74a2.187,2.187,0,0,0,1.524-2.052,1.8,1.8,0,0,0-.792-1.572,3.387,3.387,0,0,0-1.92-.408h-2.976v.336c.936.084,1.032.12,1.032,1.14V-1.5c0,1.02-.108,1.092-1.092,1.164V0h3.156V-.336c-.96-.072-1.068-.144-1.068-1.164V-3.408h.384c.624,0,.828.144,1.032.48.36.588.792,1.332,1.212,1.92A2.187,2.187,0,0,0,118.248.084c.144.012.276.012.42.012ZM113.676-3.8V-6.756c0-.324.048-.468.132-.528a1.177,1.177,0,0,1,.648-.12,1.625,1.625,0,0,1,1.764,1.776,1.722,1.722,0,0,1-.66,1.488,1.985,1.985,0,0,1-1.308.336ZM126.744-1.68c-.36.756-.516.8-1.164.8h-2.244l1.7-1.788c1.1-1.176,1.584-1.884,1.584-2.928a1.97,1.97,0,0,0-2.016-2.028,2.18,2.18,0,0,0-1.62.708l-.684.972.264.24A2.063,2.063,0,0,1,124.2-6.816c.888,0,1.416.588,1.416,1.6a5.023,5.023,0,0,1-1.5,2.9c-.6.7-1.272,1.38-1.944,2.04V0h4.488c.144-.54.264-1.068.42-1.572Z" transform="translate(6259.687 4217.958)" fill="#fff"/>
      <path id="パス_38614" data-name="パス 38614" d="M.552-7.8v.336c.888.06.984.108.984,1.164v4.8c0,1-.1,1.092-1.056,1.164V0H3.732V-.336C2.652-.408,2.544-.468,2.544-1.488V-3.372l.888.228a4.037,4.037,0,0,0,.54,0A2.466,2.466,0,0,0,6.312-5.6,2,2,0,0,0,5.532-7.3a3.327,3.327,0,0,0-2.016-.5ZM2.544-6.708c0-.336.036-.48.132-.564a1.123,1.123,0,0,1,.672-.144A1.685,1.685,0,0,1,5.16-5.568,1.691,1.691,0,0,1,3.42-3.624a2.6,2.6,0,0,1-.876-.144ZM14.508-.216a1.705,1.705,0,0,1-.864-.564,10.426,10.426,0,0,1-.972-1.248c-.36-.54-.864-1.344-1.068-1.74A2.187,2.187,0,0,0,13.128-5.82a1.8,1.8,0,0,0-.792-1.572,3.387,3.387,0,0,0-1.92-.408H7.44v.336c.936.084,1.032.12,1.032,1.14V-1.5c0,1.02-.108,1.092-1.092,1.164V0h3.156V-.336C9.576-.408,9.468-.48,9.468-1.5V-3.408h.384c.624,0,.828.144,1.032.48.36.588.792,1.332,1.212,1.92A2.187,2.187,0,0,0,14.04.084c.144.012.276.012.42.012ZM9.468-3.8V-6.756c0-.324.048-.468.132-.528a1.177,1.177,0,0,1,.648-.12,1.625,1.625,0,0,1,1.764,1.776,1.722,1.722,0,0,1-.66,1.488,1.985,1.985,0,0,1-1.308.336ZM19.092-7.98A4,4,0,0,0,15.06-3.816a3.878,3.878,0,0,0,3.9,4A3.934,3.934,0,0,0,22.968-4,3.868,3.868,0,0,0,19.092-7.98Zm-.24.432c1.572,0,2.892,1.344,2.892,3.876,0,2.3-1.2,3.42-2.532,3.42-1.692,0-2.928-1.644-2.928-3.9S17.508-7.548,18.852-7.548ZM31.32-2.112c-.6,1.2-1.248,1.86-2.472,1.86-1.824,0-3.144-1.536-3.144-3.78,0-1.824,1.068-3.516,3.072-3.516A2.088,2.088,0,0,1,31.1-5.76l.36-.084c-.072-.648-.144-1.128-.24-1.812A9.482,9.482,0,0,0,29.1-7.98c-2.676,0-4.62,1.668-4.62,4.188A3.941,3.941,0,0,0,28.776.18a10.117,10.117,0,0,0,2.208-.324,12.855,12.855,0,0,0,.684-1.836Zm7.044.168a3.5,3.5,0,0,1-.588,1.128c-.264.312-.6.408-1.512.408a2.706,2.706,0,0,1-1.248-.156c-.216-.156-.288-.408-.288-.972V-3.8h1.14c1.044,0,1.128.072,1.284.936H37.5v-2.3h-.348c-.156.8-.216.9-1.3.9H34.728V-7c0-.36.024-.384.4-.384h.912c.864,0,1.188.084,1.356.336a3.1,3.1,0,0,1,.384,1.032l.348-.06c-.036-.612-.1-1.428-.1-1.728H32.676v.336c.936.084,1.032.12,1.032,1.2v4.776c0,.972-.1,1.068-1.188,1.152V0H38.3c.108-.372.348-1.5.42-1.9Zm5.772-4.1c-.1-.756-.156-1.224-.2-1.656A4.98,4.98,0,0,0,42.42-7.98a2.23,2.23,0,0,0-2.472,2.136c0,1.356,1.212,1.956,1.98,2.364.9.48,1.56.9,1.56,1.788a1.336,1.336,0,0,1-1.44,1.44c-1.236,0-1.776-1.212-1.968-1.944l-.348.084a14.774,14.774,0,0,0,.324,1.86A4.108,4.108,0,0,0,40.644,0,4.178,4.178,0,0,0,41.82.18a2.41,2.41,0,0,0,2.664-2.268c0-1.344-1.14-1.908-2.076-2.388s-1.524-.9-1.524-1.776a1.259,1.259,0,0,1,1.332-1.32c1.044,0,1.356.828,1.572,1.6Zm5.928,0c-.1-.756-.156-1.224-.2-1.656a4.98,4.98,0,0,0-1.512-.276,2.23,2.23,0,0,0-2.472,2.136c0,1.356,1.212,1.956,1.98,2.364.9.48,1.56.9,1.56,1.788a1.336,1.336,0,0,1-1.44,1.44C46.74-.252,46.2-1.464,46.008-2.2l-.348.084a14.774,14.774,0,0,0,.324,1.86A4.108,4.108,0,0,0,46.572,0a4.178,4.178,0,0,0,1.176.18,2.41,2.41,0,0,0,2.664-2.268c0-1.344-1.14-1.908-2.076-2.388s-1.524-.9-1.524-1.776a1.259,1.259,0,0,1,1.332-1.32c1.044,0,1.356.828,1.572,1.6ZM61.416-2.112c-.6,1.2-1.248,1.86-2.472,1.86-1.824,0-3.144-1.536-3.144-3.78,0-1.824,1.068-3.516,3.072-3.516A2.088,2.088,0,0,1,61.2-5.76l.36-.084c-.072-.648-.144-1.128-.24-1.812A9.482,9.482,0,0,0,59.2-7.98c-2.676,0-4.62,1.668-4.62,4.188A3.941,3.941,0,0,0,58.872.18,10.117,10.117,0,0,0,61.08-.144a12.855,12.855,0,0,0,.684-1.836Zm5.5-5.868A4,4,0,0,0,62.88-3.816a3.878,3.878,0,0,0,3.9,4A3.934,3.934,0,0,0,70.788-4,3.868,3.868,0,0,0,66.912-7.98Zm-.24.432c1.572,0,2.892,1.344,2.892,3.876,0,2.3-1.2,3.42-2.532,3.42C65.34-.252,64.1-1.9,64.1-4.152S65.328-7.548,66.672-7.548ZM77.388-1.956A3.5,3.5,0,0,1,76.776-.78c-.276.312-.684.372-1.344.372A2.676,2.676,0,0,1,74.28-.564C74.064-.684,74-.924,74-1.572v-4.74c0-1.02.108-1.08,1.056-1.152V-7.8H71.928v.336c.972.072,1.056.132,1.056,1.152v4.8c0,1.02-.1,1.1-1.1,1.176V0h5.436c.108-.372.36-1.512.432-1.884Zm5.22-6.024a4,4,0,0,0-4.032,4.164,3.878,3.878,0,0,0,3.9,4A3.934,3.934,0,0,0,86.484-4,3.868,3.868,0,0,0,82.608-7.98Zm-.24.432c1.572,0,2.892,1.344,2.892,3.876,0,2.3-1.2,3.42-2.532,3.42-1.692,0-2.928-1.644-2.928-3.9S81.024-7.548,82.368-7.548ZM94.716-.216a1.705,1.705,0,0,1-.864-.564,10.425,10.425,0,0,1-.972-1.248c-.36-.54-.864-1.344-1.068-1.74A2.187,2.187,0,0,0,93.336-5.82a1.8,1.8,0,0,0-.792-1.572,3.387,3.387,0,0,0-1.92-.408H87.648v.336c.936.084,1.032.12,1.032,1.14V-1.5c0,1.02-.108,1.092-1.092,1.164V0h3.156V-.336c-.96-.072-1.068-.144-1.068-1.164V-3.408h.384c.624,0,.828.144,1.032.48.36.588.792,1.332,1.212,1.92A2.187,2.187,0,0,0,94.248.084c.144.012.276.012.42.012ZM89.676-3.8V-6.756c0-.324.048-.468.132-.528a1.177,1.177,0,0,1,.648-.12A1.625,1.625,0,0,1,92.22-5.628a1.722,1.722,0,0,1-.66,1.488,1.985,1.985,0,0,1-1.308.336Zm15.492,1.692c-.6,1.2-1.248,1.86-2.472,1.86-1.824,0-3.144-1.536-3.144-3.78,0-1.824,1.068-3.516,3.072-3.516a2.088,2.088,0,0,1,2.328,1.788l.36-.084c-.072-.648-.144-1.128-.24-1.812a9.482,9.482,0,0,0-2.124-.324c-2.676,0-4.62,1.668-4.62,4.188a3.941,3.941,0,0,0,4.3,3.972,10.117,10.117,0,0,0,2.208-.324,12.854,12.854,0,0,0,.684-1.836ZM110.628,0V-.324c-1.092-.084-1.164-.18-1.164-1.044V-7.62A10.539,10.539,0,0,1,107.328-7v.276l.576.024c.528.024.576.084.576.708v4.62c0,.864-.06.96-1.152,1.044V0Zm3.216-6.6h2.8l.312-.78-.072-.1h-3.42l-.468,3.66a3.512,3.512,0,0,1,1.236-.24,1.732,1.732,0,0,1,1.956,1.812A1.6,1.6,0,0,1,114.66-.468a2.175,2.175,0,0,1-1.476-.612.228.228,0,0,0-.324,0,.737.737,0,0,0-.252.4c-.024.144.036.24.192.408a2.033,2.033,0,0,0,1.236.42,3.655,3.655,0,0,0,2.088-.852,2.565,2.565,0,0,0,1.068-2,2.112,2.112,0,0,0-2.316-2.028,5.018,5.018,0,0,0-1.344.36ZM128.988,0V-.336c-.588-.072-.828-.18-1.464-.864-.6-.648-1.908-2.136-2.82-3.264.816-.828,1.668-1.68,2.124-2.1a2.619,2.619,0,0,1,1.956-.9V-7.8H125.9v.336l.264.036c.552.06.552.18.2.612a27.616,27.616,0,0,1-2.016,2.124,2.08,2.08,0,0,1-.84.552v-2.1c0-1.068.12-1.152,1.044-1.224V-7.8h-3.1v.336c.948.072,1.056.132,1.056,1.224v4.692c0,1.056-.108,1.14-1.02,1.212V0h3.12V-.336c-.984-.072-1.1-.156-1.1-1.212v-2.28c.2-.036.372.012.648.336,1.08,1.272,2.052,2.448,2.976,3.492Zm1.332-5.952a1.848,1.848,0,0,1,1.44-.948,1.061,1.061,0,0,1,1.14,1.128c0,.888-.816,1.356-1.92,1.7l.084.348a2.681,2.681,0,0,1,.768-.132A1.474,1.474,0,0,1,133.356-2.3c0,1.188-.6,1.824-1.452,1.824a2.224,2.224,0,0,1-1.488-.612.206.206,0,0,0-.288,0,.67.67,0,0,0-.276.4.461.461,0,0,0,.192.432,2.006,2.006,0,0,0,1.2.408c.864,0,3.144-.888,3.144-2.832a1.878,1.878,0,0,0-1.668-1.824v-.024a5.351,5.351,0,0,0,.816-.648,1.169,1.169,0,0,0,.372-.852A1.618,1.618,0,0,0,132.12-7.62a2.085,2.085,0,0,0-1.524.672l-.528.756Zm6.8-.648h2.8l.312-.78-.072-.1h-3.42l-.468,3.66a3.512,3.512,0,0,1,1.236-.24,1.732,1.732,0,0,1,1.956,1.812A1.6,1.6,0,0,1,137.94-.468a2.175,2.175,0,0,1-1.476-.612.228.228,0,0,0-.324,0,.737.737,0,0,0-.252.4c-.024.144.036.24.192.408a2.033,2.033,0,0,0,1.236.42A3.655,3.655,0,0,0,139.4-.708a2.565,2.565,0,0,0,1.068-2,2.112,2.112,0,0,0-2.316-2.028,5.018,5.018,0,0,0-1.344.36Z" transform="translate(6259.687 4238.263)" fill="#fff"/>
      <rect id="長方形_8661" data-name="長方形 8661" width="34.015" height="34.015" transform="translate(6209.015 4264.778)" fill="#50585d"/>
      <path id="パス_38615" data-name="パス 38615" d="M3.636,0V-.336C2.652-.408,2.556-.468,2.556-1.5V-6.3c0-1.02.1-1.092,1.08-1.164V-7.8H.456v.336c.984.072,1.08.144,1.08,1.164v4.8c0,1.02-.1,1.092-1.08,1.164V0ZM12.96-7.8H10.128v.336c.828.048,1.116.2,1.176.744a17.8,17.8,0,0,1,.084,1.992v2.952h-.036l-5-6.024H4.572v.336A1.3,1.3,0,0,1,5.64-7.02c.216.288.24.336.24,1.212v2.64c0,1.1-.036,1.68-.072,2.052-.06.588-.36.744-1.056.78V0H7.6V-.336C6.78-.384,6.5-.528,6.444-1.14a20.173,20.173,0,0,1-.072-2.028V-6.18H6.4L11.508.108h.372V-4.728a16.693,16.693,0,0,1,.072-2.016c.048-.528.336-.684,1.008-.72Zm9.156,0H19.284v.336c.828.048,1.116.2,1.176.744a17.8,17.8,0,0,1,.084,1.992v2.952h-.036L15.5-7.8H13.728v.336A1.3,1.3,0,0,1,14.8-7.02c.216.288.24.336.24,1.212v2.64c0,1.1-.036,1.68-.072,2.052-.06.588-.36.744-1.056.78V0h2.844V-.336c-.816-.048-1.092-.192-1.152-.8a20.172,20.172,0,0,1-.072-2.028V-6.18h.024L20.664.108h.372V-4.728a16.693,16.693,0,0,1,.072-2.016c.048-.528.336-.684,1.008-.72Zm5-.18a4,4,0,0,0-4.032,4.164,3.878,3.878,0,0,0,3.9,4A3.934,3.934,0,0,0,31-4,3.868,3.868,0,0,0,27.12-7.98Zm-.24.432c1.572,0,2.892,1.344,2.892,3.876,0,2.3-1.2,3.42-2.532,3.42-1.692,0-2.928-1.644-2.928-3.9S25.536-7.548,26.88-7.548ZM39.8-7.8H37.1v.336c.972.12,1.044.216.816.9-.384,1.2-1.3,3.54-1.9,5.04H36c-.8-2.064-1.68-4.38-1.992-5.232-.192-.528-.144-.612.708-.708V-7.8h-2.94v.348c.708.06.9.156,1.248,1.056.7,1.74,1.68,4.32,2.484,6.516h.372c.9-2.472,2.172-5.52,2.5-6.3.456-1.08.612-1.188,1.428-1.284ZM46.836,0V-.336c-.78-.072-.936-.18-1.32-1.212C44.748-3.636,43.944-5.916,43.2-7.98l-.372.108-2.484,6.3C39.924-.516,39.756-.444,39-.336V0h2.6V-.336c-.9-.084-1.008-.2-.744-.96.156-.5.336-1.008.528-1.548h2.556c.264.732.5,1.38.66,1.848s.048.564-.708.66V0Zm-3.06-3.36H41.568c.36-.984.744-2.028,1.128-3.06h.024ZM53.6-5.976c-.06-.7-.12-1.572-.12-2.124h-.252a.638.638,0,0,1-.612.3H47.88c-.336,0-.492-.024-.66-.3h-.24c-.024.66-.084,1.44-.144,2.16h.348a3.78,3.78,0,0,1,.384-1.068c.156-.276.4-.372,1.392-.372H49.7v5.9c0,.948-.1,1.068-1.188,1.14V0H51.96V-.336c-1.14-.072-1.236-.192-1.236-1.14v-5.9h.852c.9,0,1.1.084,1.3.372a2.9,2.9,0,0,1,.384,1.068ZM57.78,0V-.336C56.8-.408,56.7-.468,56.7-1.5V-6.3c0-1.02.1-1.092,1.08-1.164V-7.8H54.6v.336c.984.072,1.08.144,1.08,1.164v4.8c0,1.02-.1,1.092-1.08,1.164V0Zm5.112-7.98A4,4,0,0,0,58.86-3.816a3.878,3.878,0,0,0,3.9,4A3.934,3.934,0,0,0,66.768-4,3.868,3.868,0,0,0,62.892-7.98Zm-.24.432c1.572,0,2.892,1.344,2.892,3.876,0,2.3-1.2,3.42-2.532,3.42-1.692,0-2.928-1.644-2.928-3.9S61.308-7.548,62.652-7.548Zm13.4-.252H73.224v.336c.828.048,1.116.2,1.176.744a17.8,17.8,0,0,1,.084,1.992v2.952h-.036l-5-6.024H67.668v.336a1.3,1.3,0,0,1,1.068.444c.216.288.24.336.24,1.212v2.64c0,1.1-.036,1.68-.072,2.052-.06.588-.36.744-1.056.78V0h2.844V-.336c-.816-.048-1.092-.192-1.152-.8a20.172,20.172,0,0,1-.072-2.028V-6.18h.024L74.6.108h.372V-4.728a16.691,16.691,0,0,1,.072-2.016c.048-.528.336-.684,1.008-.72Zm8.4,1.752c-.1-.756-.156-1.224-.2-1.656A4.98,4.98,0,0,0,82.74-7.98a2.23,2.23,0,0,0-2.472,2.136c0,1.356,1.212,1.956,1.98,2.364.9.48,1.56.9,1.56,1.788a1.336,1.336,0,0,1-1.44,1.44c-1.236,0-1.776-1.212-1.968-1.944l-.348.084a14.774,14.774,0,0,0,.324,1.86A4.108,4.108,0,0,0,80.964,0,4.178,4.178,0,0,0,82.14.18,2.41,2.41,0,0,0,84.8-2.088c0-1.344-1.14-1.908-2.076-2.388S81.2-5.376,81.2-6.252a1.259,1.259,0,0,1,1.332-1.32c1.044,0,1.356.828,1.572,1.6ZM88.968,0V-.336c-.984-.072-1.08-.132-1.08-1.164V-6.3c0-1.02.1-1.092,1.08-1.164V-7.8h-3.18v.336c.984.072,1.08.144,1.08,1.164v4.8c0,1.02-.1,1.092-1.08,1.164V0ZM95.6-1.956A3.5,3.5,0,0,1,94.992-.78c-.276.312-.684.372-1.344.372A2.676,2.676,0,0,1,92.5-.564c-.216-.12-.276-.36-.276-1.008v-4.74c0-1.02.108-1.08,1.056-1.152V-7.8H90.144v.336c.972.072,1.056.132,1.056,1.152v4.8c0,1.02-.1,1.1-1.1,1.176V0h5.436c.108-.372.36-1.512.432-1.884ZM103.656-7.8h-2.7v.336c.972.12,1.044.216.816.9-.384,1.2-1.3,3.54-1.9,5.04h-.024c-.8-2.064-1.68-4.38-1.992-5.232-.192-.528-.144-.612.708-.708V-7.8h-2.94v.348c.708.06.9.156,1.248,1.056.7,1.74,1.68,4.32,2.484,6.516h.372c.9-2.472,2.172-5.52,2.5-6.3.456-1.08.612-1.188,1.428-1.284Zm6.624,5.856a3.5,3.5,0,0,1-.588,1.128c-.264.312-.6.408-1.512.408a2.706,2.706,0,0,1-1.248-.156c-.216-.156-.288-.408-.288-.972V-3.8h1.14c1.044,0,1.128.072,1.284.936h.348v-2.3h-.348c-.156.8-.216.9-1.3.9h-1.128V-7c0-.36.024-.384.4-.384h.912c.864,0,1.188.084,1.356.336a3.1,3.1,0,0,1,.384,1.032l.348-.06c-.036-.612-.1-1.428-.1-1.728h-5.352v.336c.936.084,1.032.12,1.032,1.2v4.776c0,.972-.1,1.068-1.188,1.152V0h5.784c.108-.372.348-1.5.42-1.9Zm8.436,1.728a1.705,1.705,0,0,1-.864-.564,10.425,10.425,0,0,1-.972-1.248c-.36-.54-.864-1.344-1.068-1.74a2.187,2.187,0,0,0,1.524-2.052,1.8,1.8,0,0,0-.792-1.572,3.387,3.387,0,0,0-1.92-.408h-2.976v.336c.936.084,1.032.12,1.032,1.14V-1.5c0,1.02-.108,1.092-1.092,1.164V0h3.156V-.336c-.96-.072-1.068-.144-1.068-1.164V-3.408h.384c.624,0,.828.144,1.032.48.36.588.792,1.332,1.212,1.92A2.187,2.187,0,0,0,118.248.084c.144.012.276.012.42.012ZM113.676-3.8V-6.756c0-.324.048-.468.132-.528a1.177,1.177,0,0,1,.648-.12,1.625,1.625,0,0,1,1.764,1.776,1.722,1.722,0,0,1-.66,1.488,1.985,1.985,0,0,1-1.308.336Zm9.144-2.148a1.848,1.848,0,0,1,1.44-.948,1.061,1.061,0,0,1,1.14,1.128c0,.888-.816,1.356-1.92,1.7l.084.348a2.681,2.681,0,0,1,.768-.132A1.474,1.474,0,0,1,125.856-2.3c0,1.188-.6,1.824-1.452,1.824a2.224,2.224,0,0,1-1.488-.612.206.206,0,0,0-.288,0,.67.67,0,0,0-.276.4.461.461,0,0,0,.192.432,2.006,2.006,0,0,0,1.2.408c.864,0,3.144-.888,3.144-2.832a1.878,1.878,0,0,0-1.668-1.824v-.024a5.351,5.351,0,0,0,.816-.648,1.169,1.169,0,0,0,.372-.852A1.618,1.618,0,0,0,124.62-7.62a2.085,2.085,0,0,0-1.524.672l-.528.756Z" transform="translate(6259.687 4274.677)" fill="#fff"/>
      <path id="パス_38616" data-name="パス 38616" d="M.552-7.8v.336c.888.06.984.108.984,1.164v4.8c0,1-.1,1.092-1.056,1.164V0H3.732V-.336C2.652-.408,2.544-.468,2.544-1.488V-3.372l.888.228a4.037,4.037,0,0,0,.54,0A2.466,2.466,0,0,0,6.312-5.6,2,2,0,0,0,5.532-7.3a3.327,3.327,0,0,0-2.016-.5ZM2.544-6.708c0-.336.036-.48.132-.564a1.123,1.123,0,0,1,.672-.144A1.685,1.685,0,0,1,5.16-5.568,1.691,1.691,0,0,1,3.42-3.624a2.6,2.6,0,0,1-.876-.144ZM14.508-.216a1.705,1.705,0,0,1-.864-.564,10.426,10.426,0,0,1-.972-1.248c-.36-.54-.864-1.344-1.068-1.74A2.187,2.187,0,0,0,13.128-5.82a1.8,1.8,0,0,0-.792-1.572,3.387,3.387,0,0,0-1.92-.408H7.44v.336c.936.084,1.032.12,1.032,1.14V-1.5c0,1.02-.108,1.092-1.092,1.164V0h3.156V-.336C9.576-.408,9.468-.48,9.468-1.5V-3.408h.384c.624,0,.828.144,1.032.48.36.588.792,1.332,1.212,1.92A2.187,2.187,0,0,0,14.04.084c.144.012.276.012.42.012ZM9.468-3.8V-6.756c0-.324.048-.468.132-.528a1.177,1.177,0,0,1,.648-.12,1.625,1.625,0,0,1,1.764,1.776,1.722,1.722,0,0,1-.66,1.488,1.985,1.985,0,0,1-1.308.336ZM19.092-7.98A4,4,0,0,0,15.06-3.816a3.878,3.878,0,0,0,3.9,4A3.934,3.934,0,0,0,22.968-4,3.868,3.868,0,0,0,19.092-7.98Zm-.24.432c1.572,0,2.892,1.344,2.892,3.876,0,2.3-1.2,3.42-2.532,3.42-1.692,0-2.928-1.644-2.928-3.9S17.508-7.548,18.852-7.548ZM31.32-2.112c-.6,1.2-1.248,1.86-2.472,1.86-1.824,0-3.144-1.536-3.144-3.78,0-1.824,1.068-3.516,3.072-3.516A2.088,2.088,0,0,1,31.1-5.76l.36-.084c-.072-.648-.144-1.128-.24-1.812A9.482,9.482,0,0,0,29.1-7.98c-2.676,0-4.62,1.668-4.62,4.188A3.941,3.941,0,0,0,28.776.18a10.117,10.117,0,0,0,2.208-.324,12.855,12.855,0,0,0,.684-1.836Zm7.044.168a3.5,3.5,0,0,1-.588,1.128c-.264.312-.6.408-1.512.408a2.706,2.706,0,0,1-1.248-.156c-.216-.156-.288-.408-.288-.972V-3.8h1.14c1.044,0,1.128.072,1.284.936H37.5v-2.3h-.348c-.156.8-.216.9-1.3.9H34.728V-7c0-.36.024-.384.4-.384h.912c.864,0,1.188.084,1.356.336a3.1,3.1,0,0,1,.384,1.032l.348-.06c-.036-.612-.1-1.428-.1-1.728H32.676v.336c.936.084,1.032.12,1.032,1.2v4.776c0,.972-.1,1.068-1.188,1.152V0H38.3c.108-.372.348-1.5.42-1.9Zm5.772-4.1c-.1-.756-.156-1.224-.2-1.656A4.98,4.98,0,0,0,42.42-7.98a2.23,2.23,0,0,0-2.472,2.136c0,1.356,1.212,1.956,1.98,2.364.9.48,1.56.9,1.56,1.788a1.336,1.336,0,0,1-1.44,1.44c-1.236,0-1.776-1.212-1.968-1.944l-.348.084a14.774,14.774,0,0,0,.324,1.86A4.108,4.108,0,0,0,40.644,0,4.178,4.178,0,0,0,41.82.18a2.41,2.41,0,0,0,2.664-2.268c0-1.344-1.14-1.908-2.076-2.388s-1.524-.9-1.524-1.776a1.259,1.259,0,0,1,1.332-1.32c1.044,0,1.356.828,1.572,1.6Zm5.928,0c-.1-.756-.156-1.224-.2-1.656a4.98,4.98,0,0,0-1.512-.276,2.23,2.23,0,0,0-2.472,2.136c0,1.356,1.212,1.956,1.98,2.364.9.48,1.56.9,1.56,1.788a1.336,1.336,0,0,1-1.44,1.44C46.74-.252,46.2-1.464,46.008-2.2l-.348.084a14.774,14.774,0,0,0,.324,1.86A4.108,4.108,0,0,0,46.572,0a4.178,4.178,0,0,0,1.176.18,2.41,2.41,0,0,0,2.664-2.268c0-1.344-1.14-1.908-2.076-2.388s-1.524-.9-1.524-1.776a1.259,1.259,0,0,1,1.332-1.32c1.044,0,1.356.828,1.572,1.6ZM61.416-2.112c-.6,1.2-1.248,1.86-2.472,1.86-1.824,0-3.144-1.536-3.144-3.78,0-1.824,1.068-3.516,3.072-3.516A2.088,2.088,0,0,1,61.2-5.76l.36-.084c-.072-.648-.144-1.128-.24-1.812A9.482,9.482,0,0,0,59.2-7.98c-2.676,0-4.62,1.668-4.62,4.188A3.941,3.941,0,0,0,58.872.18,10.117,10.117,0,0,0,61.08-.144a12.855,12.855,0,0,0,.684-1.836Zm5.5-5.868A4,4,0,0,0,62.88-3.816a3.878,3.878,0,0,0,3.9,4A3.934,3.934,0,0,0,70.788-4,3.868,3.868,0,0,0,66.912-7.98Zm-.24.432c1.572,0,2.892,1.344,2.892,3.876,0,2.3-1.2,3.42-2.532,3.42C65.34-.252,64.1-1.9,64.1-4.152S65.328-7.548,66.672-7.548ZM77.388-1.956A3.5,3.5,0,0,1,76.776-.78c-.276.312-.684.372-1.344.372A2.676,2.676,0,0,1,74.28-.564C74.064-.684,74-.924,74-1.572v-4.74c0-1.02.108-1.08,1.056-1.152V-7.8H71.928v.336c.972.072,1.056.132,1.056,1.152v4.8c0,1.02-.1,1.1-1.1,1.176V0h5.436c.108-.372.36-1.512.432-1.884Zm5.22-6.024a4,4,0,0,0-4.032,4.164,3.878,3.878,0,0,0,3.9,4A3.934,3.934,0,0,0,86.484-4,3.868,3.868,0,0,0,82.608-7.98Zm-.24.432c1.572,0,2.892,1.344,2.892,3.876,0,2.3-1.2,3.42-2.532,3.42-1.692,0-2.928-1.644-2.928-3.9S81.024-7.548,82.368-7.548ZM94.716-.216a1.705,1.705,0,0,1-.864-.564,10.425,10.425,0,0,1-.972-1.248c-.36-.54-.864-1.344-1.068-1.74A2.187,2.187,0,0,0,93.336-5.82a1.8,1.8,0,0,0-.792-1.572,3.387,3.387,0,0,0-1.92-.408H87.648v.336c.936.084,1.032.12,1.032,1.14V-1.5c0,1.02-.108,1.092-1.092,1.164V0h3.156V-.336c-.96-.072-1.068-.144-1.068-1.164V-3.408h.384c.624,0,.828.144,1.032.48.36.588.792,1.332,1.212,1.92A2.187,2.187,0,0,0,94.248.084c.144.012.276.012.42.012ZM89.676-3.8V-6.756c0-.324.048-.468.132-.528a1.177,1.177,0,0,1,.648-.12A1.625,1.625,0,0,1,92.22-5.628a1.722,1.722,0,0,1-.66,1.488,1.985,1.985,0,0,1-1.308.336Zm15.492,1.692c-.6,1.2-1.248,1.86-2.472,1.86-1.824,0-3.144-1.536-3.144-3.78,0-1.824,1.068-3.516,3.072-3.516a2.088,2.088,0,0,1,2.328,1.788l.36-.084c-.072-.648-.144-1.128-.24-1.812a9.482,9.482,0,0,0-2.124-.324c-2.676,0-4.62,1.668-4.62,4.188a3.941,3.941,0,0,0,4.3,3.972,10.117,10.117,0,0,0,2.208-.324,12.854,12.854,0,0,0,.684-1.836ZM110.628,0V-.324c-1.092-.084-1.164-.18-1.164-1.044V-7.62A10.539,10.539,0,0,1,107.328-7v.276l.576.024c.528.024.576.084.576.708v4.62c0,.864-.06.96-1.152,1.044V0Zm3.216-6.6h2.8l.312-.78-.072-.1h-3.42l-.468,3.66a3.512,3.512,0,0,1,1.236-.24,1.732,1.732,0,0,1,1.956,1.812A1.6,1.6,0,0,1,114.66-.468a2.175,2.175,0,0,1-1.476-.612.228.228,0,0,0-.324,0,.737.737,0,0,0-.252.4c-.024.144.036.24.192.408a2.033,2.033,0,0,0,1.236.42,3.655,3.655,0,0,0,2.088-.852,2.565,2.565,0,0,0,1.068-2,2.112,2.112,0,0,0-2.316-2.028,5.018,5.018,0,0,0-1.344.36ZM128.988,0V-.336c-.588-.072-.828-.18-1.464-.864-.6-.648-1.908-2.136-2.82-3.264.816-.828,1.668-1.68,2.124-2.1a2.619,2.619,0,0,1,1.956-.9V-7.8H125.9v.336l.264.036c.552.06.552.18.2.612a27.616,27.616,0,0,1-2.016,2.124,2.08,2.08,0,0,1-.84.552v-2.1c0-1.068.12-1.152,1.044-1.224V-7.8h-3.1v.336c.948.072,1.056.132,1.056,1.224v4.692c0,1.056-.108,1.14-1.02,1.212V0h3.12V-.336c-.984-.072-1.1-.156-1.1-1.212v-2.28c.2-.036.372.012.648.336,1.08,1.272,2.052,2.448,2.976,3.492Zm5.676-7.476H130.08c-.048.516-.108,1.116-.216,1.776h.348c.288-.792.36-.9,1.152-.9h2.592A63.283,63.283,0,0,1,130.392.012l.084.132.888-.12c1.152-2.472,2.268-4.92,3.4-7.356Zm3.516-.144c-1.8,0-2.46,2.136-2.46,3.888,0,1.9.648,3.876,2.46,3.876s2.436-2.136,2.436-3.888C140.616-5.592,139.98-7.62,138.18-7.62Zm-.012.4c1.08,0,1.38,1.776,1.38,3.48,0,1.68-.288,3.48-1.368,3.48-1.044,0-1.392-1.812-1.392-3.492S137.076-7.224,138.168-7.224Z" transform="translate(6259.687 4294.978)" fill="#fff"/>
      <rect id="長方形_8664" data-name="長方形 8664" width="34.015" height="34.015" transform="translate(6209.015 4208.058)" fill="#96a7b1"/>
      <rect id="長方形_8665" data-name="長方形 8665" width="34.015" height="34.015" transform="translate(6209.015 4264.778)" fill="#50585d"/>
      <rect id="長方形_8669" data-name="長方形 8669" width="34.015" height="34.015" transform="translate(6209.015 4151.338)" fill="#dfe6ea"/>
    </g>
    <path id="パス_38610" data-name="パス 38610" d="M-20.062-2.436c-.77,1.218-1.6,2.17-3,2.17-1.876,0-2.87-1.6-2.87-3.6,0-2.59,1.666-4.956,4.13-4.956,1.386,0,2.114.49,2.184,2.156l.42-.042c.056-.672.07-1.428.112-2.142a6.607,6.607,0,0,0-2.394-.462c-3.234,0-5.81,2.17-5.81,5.488A3.78,3.78,0,0,0-23.212.21,10.879,10.879,0,0,0-20.8-.126,14.368,14.368,0,0,0-19.7-2.24Zm9.94-6.874a5.355,5.355,0,0,0-5.1,5.544A3.673,3.673,0,0,0-11.494.21a5.255,5.255,0,0,0,5.1-5.5A3.7,3.7,0,0,0-10.122-9.31Zm-.112.49c1.82,0,2.506,1.526,2.506,3.388,0,2.3-1.316,5.152-3.654,5.152-1.708,0-2.492-1.484-2.492-3.36C-13.874-6.09-12.432-8.82-10.234-8.82ZM3.458-2.338A5.593,5.593,0,0,1,2.478-.91,2.2,2.2,0,0,1,.84-.49,2.307,2.307,0,0,1-.42-.672C-.644-.84-.672-1.162-.574-1.68l1.106-5.8C.728-8.54.784-8.624,1.9-8.722l.084-.364h-3.5l-.084.364c1.134.112,1.2.168.994,1.246L-1.75-1.624C-1.96-.56-2.058-.462-3.136-.378L-3.22,0H2.954c.21-.434.728-1.722.9-2.184ZM13.02-9.31a5.355,5.355,0,0,0-5.1,5.544A3.673,3.673,0,0,0,11.648.21a5.255,5.255,0,0,0,5.1-5.5A3.7,3.7,0,0,0,13.02-9.31Zm-.112.49c1.82,0,2.506,1.526,2.506,3.388,0,2.3-1.316,5.152-3.654,5.152-1.708,0-2.492-1.484-2.492-3.36C9.268-6.09,10.71-8.82,12.908-8.82ZM28.014-.238a1.7,1.7,0,0,1-.952-.672,9.95,9.95,0,0,1-.868-1.47c-.322-.63-.686-1.484-.84-1.876a2.908,2.908,0,0,0,2.17-2.674A1.967,1.967,0,0,0,26.7-8.652a3.64,3.64,0,0,0-1.988-.434H21.672l-.1.364c1.12.112,1.176.154.952,1.316L21.448-1.778c-.238,1.232-.322,1.288-1.4,1.4L19.964,0h3.514l.084-.378c-1.134-.1-1.218-.168-.98-1.4l.406-2.212h.588c.5,0,.686.112.91.658.294.714.588,1.386.952,2.072A2.277,2.277,0,0,0,27.762.112h.14ZM23.072-4.424,23.73-7.9c.07-.364.14-.532.266-.616a1.077,1.077,0,0,1,.63-.14c1.022,0,1.652.616,1.652,1.834a2.46,2.46,0,0,1-1.05,2.044,2.645,2.645,0,0,1-1.5.35Z" transform="translate(187.5 3227.393)" fill="#fff"/>
  </g>
</svg>
