<svg xmlns="http://www.w3.org/2000/svg" width="250.269" height="219.903" viewBox="0 0 250.269 219.903">
  <g id="グループ_12620" data-name="グループ 12620" transform="translate(-6194.906 -4121.501)">
    <path id="パス_29061" data-name="パス 29061" d="M42.144,26.5h0Z" transform="translate(6194.906 4174.354)" fill="#dfe6ea"/>
    <path id="パス_38598" data-name="パス 38598" d="M4.848,0V-.448C3.536-.544,3.408-.624,3.408-2V-8.4c0-1.36.128-1.456,1.44-1.552V-10.4H.608v.448c1.312.1,1.44.192,1.44,1.552V-2C2.048-.64,1.92-.544.608-.448V0ZM17.28-10.4H13.5v.448c1.1.064,1.488.272,1.568.992A23.732,23.732,0,0,1,15.184-6.3v3.936h-.048L8.464-10.4H6.1v.448A1.729,1.729,0,0,1,7.52-9.36c.288.384.32.448.32,1.616v3.52c0,1.472-.048,2.24-.1,2.736-.08.784-.48.992-1.408,1.04V0h3.792V-.448C9.04-.512,8.672-.7,8.592-1.52a26.9,26.9,0,0,1-.1-2.7V-8.24h.032L15.344.144h.5V-6.3a22.257,22.257,0,0,1,.1-2.688c.064-.7.448-.912,1.344-.96Zm12.208,0H25.712v.448c1.1.064,1.488.272,1.568.992A23.732,23.732,0,0,1,27.392-6.3v3.936h-.048L20.672-10.4H18.3v.448a1.729,1.729,0,0,1,1.424.592c.288.384.32.448.32,1.616v3.52c0,1.472-.048,2.24-.1,2.736-.08.784-.48.992-1.408,1.04V0h3.792V-.448C21.248-.512,20.88-.7,20.8-1.52a26.9,26.9,0,0,1-.1-2.7V-8.24h.032L27.552.144h.5V-6.3a22.257,22.257,0,0,1,.1-2.688c.064-.7.448-.912,1.344-.96Zm6.672-.24a5.333,5.333,0,0,0-5.376,5.552A5.17,5.17,0,0,0,35.984.24a5.245,5.245,0,0,0,5.344-5.568A5.158,5.158,0,0,0,36.16-10.64Zm-.32.576c2.1,0,3.856,1.792,3.856,5.168,0,3.072-1.6,4.56-3.376,4.56-2.256,0-3.9-2.192-3.9-5.2C32.416-8.528,34.048-10.064,35.84-10.064ZM53.072-10.4h-3.6v.448c1.3.16,1.392.288,1.088,1.2-.512,1.6-1.728,4.72-2.528,6.72H48c-1.072-2.752-2.24-5.84-2.656-6.976-.256-.7-.192-.816.944-.944V-10.4h-3.92v.464c.944.08,1.2.208,1.664,1.408.928,2.32,2.24,5.76,3.312,8.688h.5c1.2-3.3,2.9-7.36,3.328-8.4.608-1.44.816-1.584,1.9-1.712ZM62.448,0V-.448c-1.04-.1-1.248-.24-1.76-1.616-1.024-2.784-2.1-5.824-3.088-8.576l-.5.144L53.792-2.1C53.232-.688,53.008-.592,52-.448V0h3.472V-.448c-1.2-.112-1.344-.272-.992-1.28.208-.672.448-1.344.7-2.064h3.408c.352.976.672,1.84.88,2.464s.064.752-.944.88V0Zm-4.08-4.48H55.424c.48-1.312.992-2.7,1.5-4.08h.032Zm13.1-3.488c-.08-.928-.16-2.1-.16-2.832h-.336a.851.851,0,0,1-.816.4H63.84c-.448,0-.656-.032-.88-.4h-.32c-.032.88-.112,1.92-.192,2.88h.464a5.04,5.04,0,0,1,.512-1.424c.208-.368.528-.5,1.856-.5h.992v7.872c0,1.264-.128,1.424-1.584,1.52V0H69.28V-.448c-1.52-.1-1.648-.256-1.648-1.52V-9.84h1.136c1.2,0,1.472.112,1.728.5a3.867,3.867,0,0,1,.512,1.424ZM77.04,0V-.448C75.728-.544,75.6-.624,75.6-2V-8.4c0-1.36.128-1.456,1.44-1.552V-10.4H72.8v.448c1.312.1,1.44.192,1.44,1.552V-2c0,1.36-.128,1.456-1.44,1.552V0Zm6.816-10.64A5.333,5.333,0,0,0,78.48-5.088,5.17,5.17,0,0,0,83.68.24a5.245,5.245,0,0,0,5.344-5.568A5.158,5.158,0,0,0,83.856-10.64Zm-.32.576c2.1,0,3.856,1.792,3.856,5.168,0,3.072-1.6,4.56-3.376,4.56-2.256,0-3.9-2.192-3.9-5.2C80.112-8.528,81.744-10.064,83.536-10.064Zm17.872-.336H97.632v.448c1.1.064,1.488.272,1.568.992A23.731,23.731,0,0,1,99.312-6.3v3.936h-.048L92.592-10.4H90.224v.448a1.729,1.729,0,0,1,1.424.592c.288.384.32.448.32,1.616v3.52c0,1.472-.048,2.24-.1,2.736-.08.784-.48.992-1.408,1.04V0h3.792V-.448C93.168-.512,92.8-.7,92.72-1.52a26.9,26.9,0,0,1-.1-2.7V-8.24h.032L99.472.144h.5V-6.3a22.259,22.259,0,0,1,.1-2.688c.064-.7.448-.912,1.344-.96Zm11.2,2.336c-.128-1.008-.208-1.632-.272-2.208a6.64,6.64,0,0,0-2.016-.368c-2.064,0-3.3,1.312-3.3,2.848,0,1.808,1.616,2.608,2.64,3.152,1.2.64,2.08,1.2,2.08,2.384a1.782,1.782,0,0,1-1.92,1.92c-1.648,0-2.368-1.616-2.624-2.592l-.464.112a19.7,19.7,0,0,0,.432,2.48,5.478,5.478,0,0,0,.784.336,5.571,5.571,0,0,0,1.568.24c2.128,0,3.552-1.344,3.552-3.024,0-1.792-1.52-2.544-2.768-3.184-1.264-.656-2.032-1.2-2.032-2.368a1.679,1.679,0,0,1,1.776-1.76c1.392,0,1.808,1.1,2.1,2.128ZM118.624,0V-.448c-1.312-.1-1.44-.176-1.44-1.552V-8.4c0-1.36.128-1.456,1.44-1.552V-10.4h-4.24v.448c1.312.1,1.44.192,1.44,1.552V-2c0,1.36-.128,1.456-1.44,1.552V0Zm8.848-2.608a4.661,4.661,0,0,1-.816,1.568c-.368.416-.912.5-1.792.5a3.567,3.567,0,0,1-1.536-.208c-.288-.16-.368-.48-.368-1.344v-6.32c0-1.36.144-1.44,1.408-1.536V-10.4h-4.176v.448c1.3.1,1.408.176,1.408,1.536v6.4c0,1.36-.128,1.472-1.472,1.568V0h7.248c.144-.5.48-2.016.576-2.512ZM138.208-10.4h-3.6v.448c1.3.16,1.392.288,1.088,1.2-.512,1.6-1.728,4.72-2.528,6.72h-.032c-1.072-2.752-2.24-5.84-2.656-6.976-.256-.7-.192-.816.944-.944V-10.4H127.5v.464c.944.08,1.2.208,1.664,1.408.928,2.32,2.24,5.76,3.312,8.688h.5c1.2-3.3,2.9-7.36,3.328-8.4.608-1.44.816-1.584,1.9-1.712Zm8.832,7.808a4.665,4.665,0,0,1-.784,1.5c-.352.416-.8.544-2.016.544a3.607,3.607,0,0,1-1.664-.208c-.288-.208-.384-.544-.384-1.3V-5.072h1.52c1.392,0,1.5.1,1.712,1.248h.464V-6.9h-.464c-.208,1.072-.288,1.2-1.728,1.2h-1.5V-9.328c0-.48.032-.512.528-.512h1.216c1.152,0,1.584.112,1.808.448a4.137,4.137,0,0,1,.512,1.376l.464-.08c-.048-.816-.128-1.9-.128-2.3h-7.136v.448c1.248.112,1.376.16,1.376,1.6v6.368c0,1.3-.128,1.424-1.584,1.536V0h7.712c.144-.5.464-2,.56-2.528Zm11.248,2.3a2.274,2.274,0,0,1-1.152-.752,13.9,13.9,0,0,1-1.3-1.664c-.48-.72-1.152-1.792-1.424-2.32a2.916,2.916,0,0,0,2.032-2.736,2.394,2.394,0,0,0-1.056-2.1,4.516,4.516,0,0,0-2.56-.544h-3.968v.448c1.248.112,1.376.16,1.376,1.52V-2c0,1.36-.144,1.456-1.456,1.552V0h4.208V-.448c-1.28-.1-1.424-.192-1.424-1.552V-4.544h.512c.832,0,1.1.192,1.376.64.48.784,1.056,1.776,1.616,2.56A2.916,2.916,0,0,0,157.664.112c.192.016.368.016.56.016Zm-6.72-4.784V-9.008c0-.432.064-.624.176-.7a1.57,1.57,0,0,1,.864-.16A2.167,2.167,0,0,1,154.96-7.5a2.3,2.3,0,0,1-.88,1.984,2.647,2.647,0,0,1-1.744.448ZM168.544,0V-.432c-1.456-.112-1.552-.24-1.552-1.392V-10.16a14.051,14.051,0,0,1-2.848.832v.368l.768.032c.7.032.768.112.768.944v6.16c0,1.152-.08,1.28-1.536,1.392V0Z" transform="translate(6257.687 4171.828)" fill="#fff"/>
    <path id="パス_38599" data-name="パス 38599" d="M.736-10.4v.448c1.184.08,1.312.144,1.312,1.552V-2C2.048-.672,1.92-.544.64-.448V0H4.976V-.448c-1.44-.1-1.584-.176-1.584-1.536V-4.5l1.184.3a5.382,5.382,0,0,0,.72,0,3.288,3.288,0,0,0,3.12-3.28,2.663,2.663,0,0,0-1.04-2.256A4.437,4.437,0,0,0,4.688-10.4ZM3.392-8.944c0-.448.048-.64.176-.752a1.5,1.5,0,0,1,.9-.192A2.246,2.246,0,0,1,6.88-7.424c0,2.032-1.28,2.592-2.32,2.592a3.464,3.464,0,0,1-1.168-.192ZM19.344-.288a2.273,2.273,0,0,1-1.152-.752A13.9,13.9,0,0,1,16.9-2.7c-.48-.72-1.152-1.792-1.424-2.32A2.916,2.916,0,0,0,17.5-7.76a2.394,2.394,0,0,0-1.056-2.1,4.516,4.516,0,0,0-2.56-.544H9.92v.448c1.248.112,1.376.16,1.376,1.52V-2c0,1.36-.144,1.456-1.456,1.552V0h4.208V-.448C12.768-.544,12.624-.64,12.624-2V-4.544h.512c.832,0,1.1.192,1.376.64.48.784,1.056,1.776,1.616,2.56A2.916,2.916,0,0,0,18.72.112c.192.016.368.016.56.016Zm-6.72-4.784V-9.008c0-.432.064-.624.176-.7a1.57,1.57,0,0,1,.864-.16A2.167,2.167,0,0,1,16.016-7.5a2.3,2.3,0,0,1-.88,1.984,2.647,2.647,0,0,1-1.744.448ZM25.456-10.64A5.333,5.333,0,0,0,20.08-5.088,5.17,5.17,0,0,0,25.28.24a5.245,5.245,0,0,0,5.344-5.568A5.158,5.158,0,0,0,25.456-10.64Zm-.32.576c2.1,0,3.856,1.792,3.856,5.168,0,3.072-1.6,4.56-3.376,4.56-2.256,0-3.9-2.192-3.9-5.2C21.712-8.528,23.344-10.064,25.136-10.064ZM41.76-2.816c-.8,1.6-1.664,2.48-3.3,2.48-2.432,0-4.192-2.048-4.192-5.04,0-2.432,1.424-4.688,4.1-4.688a2.783,2.783,0,0,1,3.1,2.384l.48-.112c-.1-.864-.192-1.5-.32-2.416A12.642,12.642,0,0,0,38.8-10.64c-3.568,0-6.16,2.224-6.16,5.584,0,2.544,1.744,5.3,5.728,5.3a13.489,13.489,0,0,0,2.944-.432,17.14,17.14,0,0,0,.912-2.448Zm9.392.224a4.665,4.665,0,0,1-.784,1.5c-.352.416-.8.544-2.016.544a3.608,3.608,0,0,1-1.664-.208C46.4-.96,46.3-1.3,46.3-2.048V-5.072h1.52c1.392,0,1.5.1,1.712,1.248H50V-6.9h-.464c-.208,1.072-.288,1.2-1.728,1.2H46.3V-9.328c0-.48.032-.512.528-.512h1.216c1.152,0,1.584.112,1.808.448a4.137,4.137,0,0,1,.512,1.376l.464-.08c-.048-.816-.128-1.9-.128-2.3H43.568v.448c1.248.112,1.376.16,1.376,1.6v6.368c0,1.3-.128,1.424-1.584,1.536V0h7.712c.144-.5.464-2,.56-2.528Zm7.7-5.472c-.128-1.008-.208-1.632-.272-2.208a6.64,6.64,0,0,0-2.016-.368c-2.064,0-3.3,1.312-3.3,2.848,0,1.808,1.616,2.608,2.64,3.152,1.2.64,2.08,1.2,2.08,2.384a1.782,1.782,0,0,1-1.92,1.92c-1.648,0-2.368-1.616-2.624-2.592l-.464.112a19.7,19.7,0,0,0,.432,2.48A5.478,5.478,0,0,0,54.192,0,5.571,5.571,0,0,0,55.76.24c2.128,0,3.552-1.344,3.552-3.024,0-1.792-1.52-2.544-2.768-3.184-1.264-.656-2.032-1.2-2.032-2.368a1.679,1.679,0,0,1,1.776-1.76c1.392,0,1.808,1.1,2.1,2.128Zm7.9,0c-.128-1.008-.208-1.632-.272-2.208a6.64,6.64,0,0,0-2.016-.368c-2.064,0-3.3,1.312-3.3,2.848,0,1.808,1.616,2.608,2.64,3.152,1.2.64,2.08,1.2,2.08,2.384a1.782,1.782,0,0,1-1.92,1.92c-1.648,0-2.368-1.616-2.624-2.592l-.464.112a19.7,19.7,0,0,0,.432,2.48A5.478,5.478,0,0,0,62.1,0a5.571,5.571,0,0,0,1.568.24c2.128,0,3.552-1.344,3.552-3.024,0-1.792-1.52-2.544-2.768-3.184-1.264-.656-2.032-1.2-2.032-2.368a1.679,1.679,0,0,1,1.776-1.76c1.392,0,1.808,1.1,2.1,2.128ZM81.888-2.816c-.8,1.6-1.664,2.48-3.3,2.48-2.432,0-4.192-2.048-4.192-5.04,0-2.432,1.424-4.688,4.1-4.688A2.783,2.783,0,0,1,81.6-7.68l.48-.112c-.1-.864-.192-1.5-.32-2.416a12.642,12.642,0,0,0-2.832-.432c-3.568,0-6.16,2.224-6.16,5.584,0,2.544,1.744,5.3,5.728,5.3A13.489,13.489,0,0,0,81.44-.192a17.14,17.14,0,0,0,.912-2.448Zm7.328-7.824A5.333,5.333,0,0,0,83.84-5.088,5.17,5.17,0,0,0,89.04.24a5.245,5.245,0,0,0,5.344-5.568A5.158,5.158,0,0,0,89.216-10.64Zm-.32.576c2.1,0,3.856,1.792,3.856,5.168,0,3.072-1.6,4.56-3.376,4.56-2.256,0-3.9-2.192-3.9-5.2C85.472-8.528,87.1-10.064,88.9-10.064Zm14.288,7.456a4.661,4.661,0,0,1-.816,1.568c-.368.416-.912.5-1.792.5A3.567,3.567,0,0,1,99.04-.752c-.288-.16-.368-.48-.368-1.344v-6.32c0-1.36.144-1.44,1.408-1.536V-10.4H95.9v.448c1.3.1,1.408.176,1.408,1.536v6.4c0,1.36-.128,1.472-1.472,1.568V0h7.248c.144-.5.48-2.016.576-2.512Zm6.96-8.032a5.333,5.333,0,0,0-5.376,5.552,5.17,5.17,0,0,0,5.2,5.328,5.245,5.245,0,0,0,5.344-5.568A5.158,5.158,0,0,0,110.144-10.64Zm-.32.576c2.1,0,3.856,1.792,3.856,5.168,0,3.072-1.6,4.56-3.376,4.56-2.256,0-3.9-2.192-3.9-5.2C106.4-8.528,108.032-10.064,109.824-10.064ZM126.288-.288a2.273,2.273,0,0,1-1.152-.752,13.9,13.9,0,0,1-1.3-1.664c-.48-.72-1.152-1.792-1.424-2.32a2.916,2.916,0,0,0,2.032-2.736,2.394,2.394,0,0,0-1.056-2.1,4.516,4.516,0,0,0-2.56-.544h-3.968v.448c1.248.112,1.376.16,1.376,1.52V-2c0,1.36-.144,1.456-1.456,1.552V0h4.208V-.448c-1.28-.1-1.424-.192-1.424-1.552V-4.544h.512c.832,0,1.1.192,1.376.64.48.784,1.056,1.776,1.616,2.56A2.916,2.916,0,0,0,125.664.112c.192.016.368.016.56.016Zm-6.72-4.784V-9.008c0-.432.064-.624.176-.7a1.57,1.57,0,0,1,.864-.16A2.167,2.167,0,0,1,122.96-7.5a2.3,2.3,0,0,1-.88,1.984,2.647,2.647,0,0,1-1.744.448Zm20.656,2.256c-.8,1.6-1.664,2.48-3.3,2.48-2.432,0-4.192-2.048-4.192-5.04,0-2.432,1.424-4.688,4.1-4.688a2.783,2.783,0,0,1,3.1,2.384l.48-.112c-.1-.864-.192-1.5-.32-2.416a12.642,12.642,0,0,0-2.832-.432c-3.568,0-6.16,2.224-6.16,5.584,0,2.544,1.744,5.3,5.728,5.3a13.489,13.489,0,0,0,2.944-.432,17.141,17.141,0,0,0,.912-2.448ZM143.792-8.8h3.728l.416-1.04-.1-.128h-4.56l-.624,4.88a4.683,4.683,0,0,1,1.648-.32,2.31,2.31,0,0,1,2.608,2.416A2.13,2.13,0,0,1,144.88-.624a2.9,2.9,0,0,1-1.968-.816.3.3,0,0,0-.432,0,.983.983,0,0,0-.336.528c-.032.192.048.32.256.544a2.711,2.711,0,0,0,1.648.56,4.873,4.873,0,0,0,2.784-1.136,3.42,3.42,0,0,0,1.424-2.672,2.817,2.817,0,0,0-3.088-2.7,6.691,6.691,0,0,0-1.792.48ZM163.984,0V-.448c-.784-.1-1.1-.24-1.952-1.152-.8-.864-2.544-2.848-3.76-4.352,1.088-1.1,2.224-2.24,2.832-2.8a3.492,3.492,0,0,1,2.608-1.2V-10.4h-3.84v.448l.352.048c.736.08.736.24.272.816a36.819,36.819,0,0,1-2.688,2.832,2.773,2.773,0,0,1-1.12.736v-2.8c0-1.424.16-1.536,1.392-1.632V-10.4h-4.128v.448c1.264.1,1.408.176,1.408,1.632v6.256c0,1.408-.144,1.52-1.36,1.616V0h4.16V-.448c-1.312-.1-1.472-.208-1.472-1.616V-5.1c.272-.048.5.016.864.448,1.44,1.7,2.736,3.264,3.968,4.656Zm6.56,0V-.432c-1.456-.112-1.552-.24-1.552-1.392V-10.16a14.051,14.051,0,0,1-2.848.832v.368l.768.032c.7.032.768.112.768.944v6.16c0,1.152-.08,1.28-1.536,1.392V0Zm5.7-10.16c-2.4,0-3.28,2.848-3.28,5.184,0,2.528.864,5.168,3.28,5.168,2.4,0,3.248-2.848,3.248-5.184C179.488-7.456,178.64-10.16,176.24-10.16Zm-.016.528c1.44,0,1.84,2.368,1.84,4.64,0,2.24-.384,4.64-1.824,4.64-1.392,0-1.856-2.416-1.856-4.656C174.384-7.232,174.768-9.632,176.224-9.632Z" transform="translate(6257.687 4196.986)" fill="#fff"/>
    <rect id="長方形_8659" data-name="長方形 8659" width="42.144" height="42.144" transform="translate(6194.906 4228.987)" fill="#96a7b1"/>
    <path id="パス_38600" data-name="パス 38600" d="M4.848,0V-.448C3.536-.544,3.408-.624,3.408-2V-8.4c0-1.36.128-1.456,1.44-1.552V-10.4H.608v.448c1.312.1,1.44.192,1.44,1.552V-2C2.048-.64,1.92-.544.608-.448V0ZM17.28-10.4H13.5v.448c1.1.064,1.488.272,1.568.992A23.732,23.732,0,0,1,15.184-6.3v3.936h-.048L8.464-10.4H6.1v.448A1.729,1.729,0,0,1,7.52-9.36c.288.384.32.448.32,1.616v3.52c0,1.472-.048,2.24-.1,2.736-.08.784-.48.992-1.408,1.04V0h3.792V-.448C9.04-.512,8.672-.7,8.592-1.52a26.9,26.9,0,0,1-.1-2.7V-8.24h.032L15.344.144h.5V-6.3a22.257,22.257,0,0,1,.1-2.688c.064-.7.448-.912,1.344-.96Zm12.208,0H25.712v.448c1.1.064,1.488.272,1.568.992A23.732,23.732,0,0,1,27.392-6.3v3.936h-.048L20.672-10.4H18.3v.448a1.729,1.729,0,0,1,1.424.592c.288.384.32.448.32,1.616v3.52c0,1.472-.048,2.24-.1,2.736-.08.784-.48.992-1.408,1.04V0h3.792V-.448C21.248-.512,20.88-.7,20.8-1.52a26.9,26.9,0,0,1-.1-2.7V-8.24h.032L27.552.144h.5V-6.3a22.257,22.257,0,0,1,.1-2.688c.064-.7.448-.912,1.344-.96Zm6.672-.24a5.333,5.333,0,0,0-5.376,5.552A5.17,5.17,0,0,0,35.984.24a5.245,5.245,0,0,0,5.344-5.568A5.158,5.158,0,0,0,36.16-10.64Zm-.32.576c2.1,0,3.856,1.792,3.856,5.168,0,3.072-1.6,4.56-3.376,4.56-2.256,0-3.9-2.192-3.9-5.2C32.416-8.528,34.048-10.064,35.84-10.064ZM53.072-10.4h-3.6v.448c1.3.16,1.392.288,1.088,1.2-.512,1.6-1.728,4.72-2.528,6.72H48c-1.072-2.752-2.24-5.84-2.656-6.976-.256-.7-.192-.816.944-.944V-10.4h-3.92v.464c.944.08,1.2.208,1.664,1.408.928,2.32,2.24,5.76,3.312,8.688h.5c1.2-3.3,2.9-7.36,3.328-8.4.608-1.44.816-1.584,1.9-1.712ZM62.448,0V-.448c-1.04-.1-1.248-.24-1.76-1.616-1.024-2.784-2.1-5.824-3.088-8.576l-.5.144L53.792-2.1C53.232-.688,53.008-.592,52-.448V0h3.472V-.448c-1.2-.112-1.344-.272-.992-1.28.208-.672.448-1.344.7-2.064h3.408c.352.976.672,1.84.88,2.464s.064.752-.944.88V0Zm-4.08-4.48H55.424c.48-1.312.992-2.7,1.5-4.08h.032Zm13.1-3.488c-.08-.928-.16-2.1-.16-2.832h-.336a.851.851,0,0,1-.816.4H63.84c-.448,0-.656-.032-.88-.4h-.32c-.032.88-.112,1.92-.192,2.88h.464a5.04,5.04,0,0,1,.512-1.424c.208-.368.528-.5,1.856-.5h.992v7.872c0,1.264-.128,1.424-1.584,1.52V0H69.28V-.448c-1.52-.1-1.648-.256-1.648-1.52V-9.84h1.136c1.2,0,1.472.112,1.728.5a3.867,3.867,0,0,1,.512,1.424ZM77.04,0V-.448C75.728-.544,75.6-.624,75.6-2V-8.4c0-1.36.128-1.456,1.44-1.552V-10.4H72.8v.448c1.312.1,1.44.192,1.44,1.552V-2c0,1.36-.128,1.456-1.44,1.552V0Zm6.816-10.64A5.333,5.333,0,0,0,78.48-5.088,5.17,5.17,0,0,0,83.68.24a5.245,5.245,0,0,0,5.344-5.568A5.158,5.158,0,0,0,83.856-10.64Zm-.32.576c2.1,0,3.856,1.792,3.856,5.168,0,3.072-1.6,4.56-3.376,4.56-2.256,0-3.9-2.192-3.9-5.2C80.112-8.528,81.744-10.064,83.536-10.064Zm17.872-.336H97.632v.448c1.1.064,1.488.272,1.568.992A23.731,23.731,0,0,1,99.312-6.3v3.936h-.048L92.592-10.4H90.224v.448a1.729,1.729,0,0,1,1.424.592c.288.384.32.448.32,1.616v3.52c0,1.472-.048,2.24-.1,2.736-.08.784-.48.992-1.408,1.04V0h3.792V-.448C93.168-.512,92.8-.7,92.72-1.52a26.9,26.9,0,0,1-.1-2.7V-8.24h.032L99.472.144h.5V-6.3a22.259,22.259,0,0,1,.1-2.688c.064-.7.448-.912,1.344-.96Zm11.2,2.336c-.128-1.008-.208-1.632-.272-2.208a6.64,6.64,0,0,0-2.016-.368c-2.064,0-3.3,1.312-3.3,2.848,0,1.808,1.616,2.608,2.64,3.152,1.2.64,2.08,1.2,2.08,2.384a1.782,1.782,0,0,1-1.92,1.92c-1.648,0-2.368-1.616-2.624-2.592l-.464.112a19.7,19.7,0,0,0,.432,2.48,5.478,5.478,0,0,0,.784.336,5.571,5.571,0,0,0,1.568.24c2.128,0,3.552-1.344,3.552-3.024,0-1.792-1.52-2.544-2.768-3.184-1.264-.656-2.032-1.2-2.032-2.368a1.679,1.679,0,0,1,1.776-1.76c1.392,0,1.808,1.1,2.1,2.128ZM118.624,0V-.448c-1.312-.1-1.44-.176-1.44-1.552V-8.4c0-1.36.128-1.456,1.44-1.552V-10.4h-4.24v.448c1.312.1,1.44.192,1.44,1.552V-2c0,1.36-.128,1.456-1.44,1.552V0Zm8.848-2.608a4.661,4.661,0,0,1-.816,1.568c-.368.416-.912.5-1.792.5a3.567,3.567,0,0,1-1.536-.208c-.288-.16-.368-.48-.368-1.344v-6.32c0-1.36.144-1.44,1.408-1.536V-10.4h-4.176v.448c1.3.1,1.408.176,1.408,1.536v6.4c0,1.36-.128,1.472-1.472,1.568V0h7.248c.144-.5.48-2.016.576-2.512ZM138.208-10.4h-3.6v.448c1.3.16,1.392.288,1.088,1.2-.512,1.6-1.728,4.72-2.528,6.72h-.032c-1.072-2.752-2.24-5.84-2.656-6.976-.256-.7-.192-.816.944-.944V-10.4H127.5v.464c.944.08,1.2.208,1.664,1.408.928,2.32,2.24,5.76,3.312,8.688h.5c1.2-3.3,2.9-7.36,3.328-8.4.608-1.44.816-1.584,1.9-1.712Zm8.832,7.808a4.665,4.665,0,0,1-.784,1.5c-.352.416-.8.544-2.016.544a3.607,3.607,0,0,1-1.664-.208c-.288-.208-.384-.544-.384-1.3V-5.072h1.52c1.392,0,1.5.1,1.712,1.248h.464V-6.9h-.464c-.208,1.072-.288,1.2-1.728,1.2h-1.5V-9.328c0-.48.032-.512.528-.512h1.216c1.152,0,1.584.112,1.808.448a4.137,4.137,0,0,1,.512,1.376l.464-.08c-.048-.816-.128-1.9-.128-2.3h-7.136v.448c1.248.112,1.376.16,1.376,1.6v6.368c0,1.3-.128,1.424-1.584,1.536V0h7.712c.144-.5.464-2,.56-2.528Zm11.248,2.3a2.274,2.274,0,0,1-1.152-.752,13.9,13.9,0,0,1-1.3-1.664c-.48-.72-1.152-1.792-1.424-2.32a2.916,2.916,0,0,0,2.032-2.736,2.394,2.394,0,0,0-1.056-2.1,4.516,4.516,0,0,0-2.56-.544h-3.968v.448c1.248.112,1.376.16,1.376,1.52V-2c0,1.36-.144,1.456-1.456,1.552V0h4.208V-.448c-1.28-.1-1.424-.192-1.424-1.552V-4.544h.512c.832,0,1.1.192,1.376.64.48.784,1.056,1.776,1.616,2.56A2.916,2.916,0,0,0,157.664.112c.192.016.368.016.56.016Zm-6.72-4.784V-9.008c0-.432.064-.624.176-.7a1.57,1.57,0,0,1,.864-.16A2.167,2.167,0,0,1,154.96-7.5a2.3,2.3,0,0,1-.88,1.984,2.647,2.647,0,0,1-1.744.448ZM168.992-2.24c-.48,1.008-.688,1.072-1.552,1.072h-2.992l2.272-2.384c1.472-1.568,2.112-2.512,2.112-3.9a2.627,2.627,0,0,0-2.688-2.7,2.907,2.907,0,0,0-2.16.944l-.912,1.3.352.32A2.75,2.75,0,0,1,165.6-9.088c1.184,0,1.888.784,1.888,2.128,0,1.376-1.008,2.688-2,3.872-.8.928-1.7,1.84-2.592,2.72V0h5.984c.192-.72.352-1.424.56-2.1Z" transform="translate(6257.687 4242.102)" fill="#fff"/>
    <path id="パス_38601" data-name="パス 38601" d="M.736-10.4v.448c1.184.08,1.312.144,1.312,1.552V-2C2.048-.672,1.92-.544.64-.448V0H4.976V-.448c-1.44-.1-1.584-.176-1.584-1.536V-4.5l1.184.3a5.382,5.382,0,0,0,.72,0,3.288,3.288,0,0,0,3.12-3.28,2.663,2.663,0,0,0-1.04-2.256A4.437,4.437,0,0,0,4.688-10.4ZM3.392-8.944c0-.448.048-.64.176-.752a1.5,1.5,0,0,1,.9-.192A2.246,2.246,0,0,1,6.88-7.424c0,2.032-1.28,2.592-2.32,2.592a3.464,3.464,0,0,1-1.168-.192ZM19.344-.288a2.273,2.273,0,0,1-1.152-.752A13.9,13.9,0,0,1,16.9-2.7c-.48-.72-1.152-1.792-1.424-2.32A2.916,2.916,0,0,0,17.5-7.76a2.394,2.394,0,0,0-1.056-2.1,4.516,4.516,0,0,0-2.56-.544H9.92v.448c1.248.112,1.376.16,1.376,1.52V-2c0,1.36-.144,1.456-1.456,1.552V0h4.208V-.448C12.768-.544,12.624-.64,12.624-2V-4.544h.512c.832,0,1.1.192,1.376.64.48.784,1.056,1.776,1.616,2.56A2.916,2.916,0,0,0,18.72.112c.192.016.368.016.56.016Zm-6.72-4.784V-9.008c0-.432.064-.624.176-.7a1.57,1.57,0,0,1,.864-.16A2.167,2.167,0,0,1,16.016-7.5a2.3,2.3,0,0,1-.88,1.984,2.647,2.647,0,0,1-1.744.448ZM25.456-10.64A5.333,5.333,0,0,0,20.08-5.088,5.17,5.17,0,0,0,25.28.24a5.245,5.245,0,0,0,5.344-5.568A5.158,5.158,0,0,0,25.456-10.64Zm-.32.576c2.1,0,3.856,1.792,3.856,5.168,0,3.072-1.6,4.56-3.376,4.56-2.256,0-3.9-2.192-3.9-5.2C21.712-8.528,23.344-10.064,25.136-10.064ZM41.76-2.816c-.8,1.6-1.664,2.48-3.3,2.48-2.432,0-4.192-2.048-4.192-5.04,0-2.432,1.424-4.688,4.1-4.688a2.783,2.783,0,0,1,3.1,2.384l.48-.112c-.1-.864-.192-1.5-.32-2.416A12.642,12.642,0,0,0,38.8-10.64c-3.568,0-6.16,2.224-6.16,5.584,0,2.544,1.744,5.3,5.728,5.3a13.489,13.489,0,0,0,2.944-.432,17.14,17.14,0,0,0,.912-2.448Zm9.392.224a4.665,4.665,0,0,1-.784,1.5c-.352.416-.8.544-2.016.544a3.608,3.608,0,0,1-1.664-.208C46.4-.96,46.3-1.3,46.3-2.048V-5.072h1.52c1.392,0,1.5.1,1.712,1.248H50V-6.9h-.464c-.208,1.072-.288,1.2-1.728,1.2H46.3V-9.328c0-.48.032-.512.528-.512h1.216c1.152,0,1.584.112,1.808.448a4.137,4.137,0,0,1,.512,1.376l.464-.08c-.048-.816-.128-1.9-.128-2.3H43.568v.448c1.248.112,1.376.16,1.376,1.6v6.368c0,1.3-.128,1.424-1.584,1.536V0h7.712c.144-.5.464-2,.56-2.528Zm7.7-5.472c-.128-1.008-.208-1.632-.272-2.208a6.64,6.64,0,0,0-2.016-.368c-2.064,0-3.3,1.312-3.3,2.848,0,1.808,1.616,2.608,2.64,3.152,1.2.64,2.08,1.2,2.08,2.384a1.782,1.782,0,0,1-1.92,1.92c-1.648,0-2.368-1.616-2.624-2.592l-.464.112a19.7,19.7,0,0,0,.432,2.48A5.478,5.478,0,0,0,54.192,0,5.571,5.571,0,0,0,55.76.24c2.128,0,3.552-1.344,3.552-3.024,0-1.792-1.52-2.544-2.768-3.184-1.264-.656-2.032-1.2-2.032-2.368a1.679,1.679,0,0,1,1.776-1.76c1.392,0,1.808,1.1,2.1,2.128Zm7.9,0c-.128-1.008-.208-1.632-.272-2.208a6.64,6.64,0,0,0-2.016-.368c-2.064,0-3.3,1.312-3.3,2.848,0,1.808,1.616,2.608,2.64,3.152,1.2.64,2.08,1.2,2.08,2.384a1.782,1.782,0,0,1-1.92,1.92c-1.648,0-2.368-1.616-2.624-2.592l-.464.112a19.7,19.7,0,0,0,.432,2.48A5.478,5.478,0,0,0,62.1,0a5.571,5.571,0,0,0,1.568.24c2.128,0,3.552-1.344,3.552-3.024,0-1.792-1.52-2.544-2.768-3.184-1.264-.656-2.032-1.2-2.032-2.368a1.679,1.679,0,0,1,1.776-1.76c1.392,0,1.808,1.1,2.1,2.128ZM81.888-2.816c-.8,1.6-1.664,2.48-3.3,2.48-2.432,0-4.192-2.048-4.192-5.04,0-2.432,1.424-4.688,4.1-4.688A2.783,2.783,0,0,1,81.6-7.68l.48-.112c-.1-.864-.192-1.5-.32-2.416a12.642,12.642,0,0,0-2.832-.432c-3.568,0-6.16,2.224-6.16,5.584,0,2.544,1.744,5.3,5.728,5.3A13.489,13.489,0,0,0,81.44-.192a17.14,17.14,0,0,0,.912-2.448Zm7.328-7.824A5.333,5.333,0,0,0,83.84-5.088,5.17,5.17,0,0,0,89.04.24a5.245,5.245,0,0,0,5.344-5.568A5.158,5.158,0,0,0,89.216-10.64Zm-.32.576c2.1,0,3.856,1.792,3.856,5.168,0,3.072-1.6,4.56-3.376,4.56-2.256,0-3.9-2.192-3.9-5.2C85.472-8.528,87.1-10.064,88.9-10.064Zm14.288,7.456a4.661,4.661,0,0,1-.816,1.568c-.368.416-.912.5-1.792.5A3.567,3.567,0,0,1,99.04-.752c-.288-.16-.368-.48-.368-1.344v-6.32c0-1.36.144-1.44,1.408-1.536V-10.4H95.9v.448c1.3.1,1.408.176,1.408,1.536v6.4c0,1.36-.128,1.472-1.472,1.568V0h7.248c.144-.5.48-2.016.576-2.512Zm6.96-8.032a5.333,5.333,0,0,0-5.376,5.552,5.17,5.17,0,0,0,5.2,5.328,5.245,5.245,0,0,0,5.344-5.568A5.158,5.158,0,0,0,110.144-10.64Zm-.32.576c2.1,0,3.856,1.792,3.856,5.168,0,3.072-1.6,4.56-3.376,4.56-2.256,0-3.9-2.192-3.9-5.2C106.4-8.528,108.032-10.064,109.824-10.064ZM126.288-.288a2.273,2.273,0,0,1-1.152-.752,13.9,13.9,0,0,1-1.3-1.664c-.48-.72-1.152-1.792-1.424-2.32a2.916,2.916,0,0,0,2.032-2.736,2.394,2.394,0,0,0-1.056-2.1,4.516,4.516,0,0,0-2.56-.544h-3.968v.448c1.248.112,1.376.16,1.376,1.52V-2c0,1.36-.144,1.456-1.456,1.552V0h4.208V-.448c-1.28-.1-1.424-.192-1.424-1.552V-4.544h.512c.832,0,1.1.192,1.376.64.48.784,1.056,1.776,1.616,2.56A2.916,2.916,0,0,0,125.664.112c.192.016.368.016.56.016Zm-6.72-4.784V-9.008c0-.432.064-.624.176-.7a1.57,1.57,0,0,1,.864-.16A2.167,2.167,0,0,1,122.96-7.5a2.3,2.3,0,0,1-.88,1.984,2.647,2.647,0,0,1-1.744.448Zm20.656,2.256c-.8,1.6-1.664,2.48-3.3,2.48-2.432,0-4.192-2.048-4.192-5.04,0-2.432,1.424-4.688,4.1-4.688a2.783,2.783,0,0,1,3.1,2.384l.48-.112c-.1-.864-.192-1.5-.32-2.416a12.642,12.642,0,0,0-2.832-.432c-3.568,0-6.16,2.224-6.16,5.584,0,2.544,1.744,5.3,5.728,5.3a13.489,13.489,0,0,0,2.944-.432,17.141,17.141,0,0,0,.912-2.448ZM147.5,0V-.432c-1.456-.112-1.552-.24-1.552-1.392V-10.16a14.051,14.051,0,0,1-2.848.832v.368l.768.032c.7.032.768.112.768.944v6.16c0,1.152-.08,1.28-1.536,1.392V0Zm4.288-8.8h3.728l.416-1.04-.1-.128h-4.56l-.624,4.88a4.683,4.683,0,0,1,1.648-.32,2.31,2.31,0,0,1,2.608,2.416A2.13,2.13,0,0,1,152.88-.624a2.9,2.9,0,0,1-1.968-.816.3.3,0,0,0-.432,0,.983.983,0,0,0-.336.528c-.032.192.048.32.256.544a2.711,2.711,0,0,0,1.648.56,4.873,4.873,0,0,0,2.784-1.136,3.42,3.42,0,0,0,1.424-2.672,2.817,2.817,0,0,0-3.088-2.7,6.691,6.691,0,0,0-1.792.48ZM171.984,0V-.448c-.784-.1-1.1-.24-1.952-1.152-.8-.864-2.544-2.848-3.76-4.352,1.088-1.1,2.224-2.24,2.832-2.8a3.492,3.492,0,0,1,2.608-1.2V-10.4h-3.84v.448l.352.048c.736.08.736.24.272.816a36.819,36.819,0,0,1-2.688,2.832,2.773,2.773,0,0,1-1.12.736v-2.8c0-1.424.16-1.536,1.392-1.632V-10.4h-4.128v.448c1.264.1,1.408.176,1.408,1.632v6.256c0,1.408-.144,1.52-1.36,1.616V0h4.16V-.448c-1.312-.1-1.472-.208-1.472-1.616V-5.1c.272-.048.5.016.864.448,1.44,1.7,2.736,3.264,3.968,4.656Zm1.776-7.936A2.463,2.463,0,0,1,175.68-9.2a1.414,1.414,0,0,1,1.52,1.5c0,1.184-1.088,1.808-2.56,2.272l.112.464a3.575,3.575,0,0,1,1.024-.176,1.965,1.965,0,0,1,2.032,2.064c0,1.584-.8,2.432-1.936,2.432a2.965,2.965,0,0,1-1.984-.816.275.275,0,0,0-.384,0,.893.893,0,0,0-.368.528.615.615,0,0,0,.256.576,2.675,2.675,0,0,0,1.6.544c1.152,0,4.192-1.184,4.192-3.776a2.5,2.5,0,0,0-2.224-2.432v-.032a7.134,7.134,0,0,0,1.088-.864,1.559,1.559,0,0,0,.5-1.136,2.158,2.158,0,0,0-2.384-2.112,2.78,2.78,0,0,0-2.032.9l-.7,1.008Zm9.072-.864h3.728l.416-1.04-.1-.128h-4.56l-.624,4.88a4.683,4.683,0,0,1,1.648-.32,2.31,2.31,0,0,1,2.608,2.416A2.13,2.13,0,0,1,183.92-.624a2.9,2.9,0,0,1-1.968-.816.3.3,0,0,0-.432,0,.983.983,0,0,0-.336.528c-.032.192.048.32.256.544a2.711,2.711,0,0,0,1.648.56,4.873,4.873,0,0,0,2.784-1.136A3.42,3.42,0,0,0,187.3-3.616a2.817,2.817,0,0,0-3.088-2.7,6.691,6.691,0,0,0-1.792.48Z" transform="translate(6257.687 4267.259)" fill="#fff"/>
    <rect id="長方形_8661" data-name="長方形 8661" width="42.144" height="42.144" transform="translate(6194.906 4299.261)" fill="#50585d"/>
    <path id="パス_38602" data-name="パス 38602" d="M4.848,0V-.448C3.536-.544,3.408-.624,3.408-2V-8.4c0-1.36.128-1.456,1.44-1.552V-10.4H.608v.448c1.312.1,1.44.192,1.44,1.552V-2C2.048-.64,1.92-.544.608-.448V0ZM17.28-10.4H13.5v.448c1.1.064,1.488.272,1.568.992A23.732,23.732,0,0,1,15.184-6.3v3.936h-.048L8.464-10.4H6.1v.448A1.729,1.729,0,0,1,7.52-9.36c.288.384.32.448.32,1.616v3.52c0,1.472-.048,2.24-.1,2.736-.08.784-.48.992-1.408,1.04V0h3.792V-.448C9.04-.512,8.672-.7,8.592-1.52a26.9,26.9,0,0,1-.1-2.7V-8.24h.032L15.344.144h.5V-6.3a22.257,22.257,0,0,1,.1-2.688c.064-.7.448-.912,1.344-.96Zm12.208,0H25.712v.448c1.1.064,1.488.272,1.568.992A23.732,23.732,0,0,1,27.392-6.3v3.936h-.048L20.672-10.4H18.3v.448a1.729,1.729,0,0,1,1.424.592c.288.384.32.448.32,1.616v3.52c0,1.472-.048,2.24-.1,2.736-.08.784-.48.992-1.408,1.04V0h3.792V-.448C21.248-.512,20.88-.7,20.8-1.52a26.9,26.9,0,0,1-.1-2.7V-8.24h.032L27.552.144h.5V-6.3a22.257,22.257,0,0,1,.1-2.688c.064-.7.448-.912,1.344-.96Zm6.672-.24a5.333,5.333,0,0,0-5.376,5.552A5.17,5.17,0,0,0,35.984.24a5.245,5.245,0,0,0,5.344-5.568A5.158,5.158,0,0,0,36.16-10.64Zm-.32.576c2.1,0,3.856,1.792,3.856,5.168,0,3.072-1.6,4.56-3.376,4.56-2.256,0-3.9-2.192-3.9-5.2C32.416-8.528,34.048-10.064,35.84-10.064ZM53.072-10.4h-3.6v.448c1.3.16,1.392.288,1.088,1.2-.512,1.6-1.728,4.72-2.528,6.72H48c-1.072-2.752-2.24-5.84-2.656-6.976-.256-.7-.192-.816.944-.944V-10.4h-3.92v.464c.944.08,1.2.208,1.664,1.408.928,2.32,2.24,5.76,3.312,8.688h.5c1.2-3.3,2.9-7.36,3.328-8.4.608-1.44.816-1.584,1.9-1.712ZM62.448,0V-.448c-1.04-.1-1.248-.24-1.76-1.616-1.024-2.784-2.1-5.824-3.088-8.576l-.5.144L53.792-2.1C53.232-.688,53.008-.592,52-.448V0h3.472V-.448c-1.2-.112-1.344-.272-.992-1.28.208-.672.448-1.344.7-2.064h3.408c.352.976.672,1.84.88,2.464s.064.752-.944.88V0Zm-4.08-4.48H55.424c.48-1.312.992-2.7,1.5-4.08h.032Zm13.1-3.488c-.08-.928-.16-2.1-.16-2.832h-.336a.851.851,0,0,1-.816.4H63.84c-.448,0-.656-.032-.88-.4h-.32c-.032.88-.112,1.92-.192,2.88h.464a5.04,5.04,0,0,1,.512-1.424c.208-.368.528-.5,1.856-.5h.992v7.872c0,1.264-.128,1.424-1.584,1.52V0H69.28V-.448c-1.52-.1-1.648-.256-1.648-1.52V-9.84h1.136c1.2,0,1.472.112,1.728.5a3.867,3.867,0,0,1,.512,1.424ZM77.04,0V-.448C75.728-.544,75.6-.624,75.6-2V-8.4c0-1.36.128-1.456,1.44-1.552V-10.4H72.8v.448c1.312.1,1.44.192,1.44,1.552V-2c0,1.36-.128,1.456-1.44,1.552V0Zm6.816-10.64A5.333,5.333,0,0,0,78.48-5.088,5.17,5.17,0,0,0,83.68.24a5.245,5.245,0,0,0,5.344-5.568A5.158,5.158,0,0,0,83.856-10.64Zm-.32.576c2.1,0,3.856,1.792,3.856,5.168,0,3.072-1.6,4.56-3.376,4.56-2.256,0-3.9-2.192-3.9-5.2C80.112-8.528,81.744-10.064,83.536-10.064Zm17.872-.336H97.632v.448c1.1.064,1.488.272,1.568.992A23.731,23.731,0,0,1,99.312-6.3v3.936h-.048L92.592-10.4H90.224v.448a1.729,1.729,0,0,1,1.424.592c.288.384.32.448.32,1.616v3.52c0,1.472-.048,2.24-.1,2.736-.08.784-.48.992-1.408,1.04V0h3.792V-.448C93.168-.512,92.8-.7,92.72-1.52a26.9,26.9,0,0,1-.1-2.7V-8.24h.032L99.472.144h.5V-6.3a22.259,22.259,0,0,1,.1-2.688c.064-.7.448-.912,1.344-.96Zm11.2,2.336c-.128-1.008-.208-1.632-.272-2.208a6.64,6.64,0,0,0-2.016-.368c-2.064,0-3.3,1.312-3.3,2.848,0,1.808,1.616,2.608,2.64,3.152,1.2.64,2.08,1.2,2.08,2.384a1.782,1.782,0,0,1-1.92,1.92c-1.648,0-2.368-1.616-2.624-2.592l-.464.112a19.7,19.7,0,0,0,.432,2.48,5.478,5.478,0,0,0,.784.336,5.571,5.571,0,0,0,1.568.24c2.128,0,3.552-1.344,3.552-3.024,0-1.792-1.52-2.544-2.768-3.184-1.264-.656-2.032-1.2-2.032-2.368a1.679,1.679,0,0,1,1.776-1.76c1.392,0,1.808,1.1,2.1,2.128ZM118.624,0V-.448c-1.312-.1-1.44-.176-1.44-1.552V-8.4c0-1.36.128-1.456,1.44-1.552V-10.4h-4.24v.448c1.312.1,1.44.192,1.44,1.552V-2c0,1.36-.128,1.456-1.44,1.552V0Zm8.848-2.608a4.661,4.661,0,0,1-.816,1.568c-.368.416-.912.5-1.792.5a3.567,3.567,0,0,1-1.536-.208c-.288-.16-.368-.48-.368-1.344v-6.32c0-1.36.144-1.44,1.408-1.536V-10.4h-4.176v.448c1.3.1,1.408.176,1.408,1.536v6.4c0,1.36-.128,1.472-1.472,1.568V0h7.248c.144-.5.48-2.016.576-2.512ZM138.208-10.4h-3.6v.448c1.3.16,1.392.288,1.088,1.2-.512,1.6-1.728,4.72-2.528,6.72h-.032c-1.072-2.752-2.24-5.84-2.656-6.976-.256-.7-.192-.816.944-.944V-10.4H127.5v.464c.944.08,1.2.208,1.664,1.408.928,2.32,2.24,5.76,3.312,8.688h.5c1.2-3.3,2.9-7.36,3.328-8.4.608-1.44.816-1.584,1.9-1.712Zm8.832,7.808a4.665,4.665,0,0,1-.784,1.5c-.352.416-.8.544-2.016.544a3.607,3.607,0,0,1-1.664-.208c-.288-.208-.384-.544-.384-1.3V-5.072h1.52c1.392,0,1.5.1,1.712,1.248h.464V-6.9h-.464c-.208,1.072-.288,1.2-1.728,1.2h-1.5V-9.328c0-.48.032-.512.528-.512h1.216c1.152,0,1.584.112,1.808.448a4.137,4.137,0,0,1,.512,1.376l.464-.08c-.048-.816-.128-1.9-.128-2.3h-7.136v.448c1.248.112,1.376.16,1.376,1.6v6.368c0,1.3-.128,1.424-1.584,1.536V0h7.712c.144-.5.464-2,.56-2.528Zm11.248,2.3a2.274,2.274,0,0,1-1.152-.752,13.9,13.9,0,0,1-1.3-1.664c-.48-.72-1.152-1.792-1.424-2.32a2.916,2.916,0,0,0,2.032-2.736,2.394,2.394,0,0,0-1.056-2.1,4.516,4.516,0,0,0-2.56-.544h-3.968v.448c1.248.112,1.376.16,1.376,1.52V-2c0,1.36-.144,1.456-1.456,1.552V0h4.208V-.448c-1.28-.1-1.424-.192-1.424-1.552V-4.544h.512c.832,0,1.1.192,1.376.64.48.784,1.056,1.776,1.616,2.56A2.916,2.916,0,0,0,157.664.112c.192.016.368.016.56.016Zm-6.72-4.784V-9.008c0-.432.064-.624.176-.7a1.57,1.57,0,0,1,.864-.16A2.167,2.167,0,0,1,154.96-7.5a2.3,2.3,0,0,1-.88,1.984,2.647,2.647,0,0,1-1.744.448ZM163.76-7.936A2.463,2.463,0,0,1,165.68-9.2a1.414,1.414,0,0,1,1.52,1.5c0,1.184-1.088,1.808-2.56,2.272l.112.464a3.575,3.575,0,0,1,1.024-.176,1.965,1.965,0,0,1,2.032,2.064c0,1.584-.8,2.432-1.936,2.432a2.965,2.965,0,0,1-1.984-.816.275.275,0,0,0-.384,0,.893.893,0,0,0-.368.528.615.615,0,0,0,.256.576,2.675,2.675,0,0,0,1.6.544c1.152,0,4.192-1.184,4.192-3.776a2.5,2.5,0,0,0-2.224-2.432v-.032a7.134,7.134,0,0,0,1.088-.864,1.559,1.559,0,0,0,.5-1.136,2.158,2.158,0,0,0-2.384-2.112,2.78,2.78,0,0,0-2.032.9l-.7,1.008Z" transform="translate(6257.687 4312.375)" fill="#fff"/>
    <path id="パス_38603" data-name="パス 38603" d="M.736-10.4v.448c1.184.08,1.312.144,1.312,1.552V-2C2.048-.672,1.92-.544.64-.448V0H4.976V-.448c-1.44-.1-1.584-.176-1.584-1.536V-4.5l1.184.3a5.382,5.382,0,0,0,.72,0,3.288,3.288,0,0,0,3.12-3.28,2.663,2.663,0,0,0-1.04-2.256A4.437,4.437,0,0,0,4.688-10.4ZM3.392-8.944c0-.448.048-.64.176-.752a1.5,1.5,0,0,1,.9-.192A2.246,2.246,0,0,1,6.88-7.424c0,2.032-1.28,2.592-2.32,2.592a3.464,3.464,0,0,1-1.168-.192ZM19.344-.288a2.273,2.273,0,0,1-1.152-.752A13.9,13.9,0,0,1,16.9-2.7c-.48-.72-1.152-1.792-1.424-2.32A2.916,2.916,0,0,0,17.5-7.76a2.394,2.394,0,0,0-1.056-2.1,4.516,4.516,0,0,0-2.56-.544H9.92v.448c1.248.112,1.376.16,1.376,1.52V-2c0,1.36-.144,1.456-1.456,1.552V0h4.208V-.448C12.768-.544,12.624-.64,12.624-2V-4.544h.512c.832,0,1.1.192,1.376.64.48.784,1.056,1.776,1.616,2.56A2.916,2.916,0,0,0,18.72.112c.192.016.368.016.56.016Zm-6.72-4.784V-9.008c0-.432.064-.624.176-.7a1.57,1.57,0,0,1,.864-.16A2.167,2.167,0,0,1,16.016-7.5a2.3,2.3,0,0,1-.88,1.984,2.647,2.647,0,0,1-1.744.448ZM25.456-10.64A5.333,5.333,0,0,0,20.08-5.088,5.17,5.17,0,0,0,25.28.24a5.245,5.245,0,0,0,5.344-5.568A5.158,5.158,0,0,0,25.456-10.64Zm-.32.576c2.1,0,3.856,1.792,3.856,5.168,0,3.072-1.6,4.56-3.376,4.56-2.256,0-3.9-2.192-3.9-5.2C21.712-8.528,23.344-10.064,25.136-10.064ZM41.76-2.816c-.8,1.6-1.664,2.48-3.3,2.48-2.432,0-4.192-2.048-4.192-5.04,0-2.432,1.424-4.688,4.1-4.688a2.783,2.783,0,0,1,3.1,2.384l.48-.112c-.1-.864-.192-1.5-.32-2.416A12.642,12.642,0,0,0,38.8-10.64c-3.568,0-6.16,2.224-6.16,5.584,0,2.544,1.744,5.3,5.728,5.3a13.489,13.489,0,0,0,2.944-.432,17.14,17.14,0,0,0,.912-2.448Zm9.392.224a4.665,4.665,0,0,1-.784,1.5c-.352.416-.8.544-2.016.544a3.608,3.608,0,0,1-1.664-.208C46.4-.96,46.3-1.3,46.3-2.048V-5.072h1.52c1.392,0,1.5.1,1.712,1.248H50V-6.9h-.464c-.208,1.072-.288,1.2-1.728,1.2H46.3V-9.328c0-.48.032-.512.528-.512h1.216c1.152,0,1.584.112,1.808.448a4.137,4.137,0,0,1,.512,1.376l.464-.08c-.048-.816-.128-1.9-.128-2.3H43.568v.448c1.248.112,1.376.16,1.376,1.6v6.368c0,1.3-.128,1.424-1.584,1.536V0h7.712c.144-.5.464-2,.56-2.528Zm7.7-5.472c-.128-1.008-.208-1.632-.272-2.208a6.64,6.64,0,0,0-2.016-.368c-2.064,0-3.3,1.312-3.3,2.848,0,1.808,1.616,2.608,2.64,3.152,1.2.64,2.08,1.2,2.08,2.384a1.782,1.782,0,0,1-1.92,1.92c-1.648,0-2.368-1.616-2.624-2.592l-.464.112a19.7,19.7,0,0,0,.432,2.48A5.478,5.478,0,0,0,54.192,0,5.571,5.571,0,0,0,55.76.24c2.128,0,3.552-1.344,3.552-3.024,0-1.792-1.52-2.544-2.768-3.184-1.264-.656-2.032-1.2-2.032-2.368a1.679,1.679,0,0,1,1.776-1.76c1.392,0,1.808,1.1,2.1,2.128Zm7.9,0c-.128-1.008-.208-1.632-.272-2.208a6.64,6.64,0,0,0-2.016-.368c-2.064,0-3.3,1.312-3.3,2.848,0,1.808,1.616,2.608,2.64,3.152,1.2.64,2.08,1.2,2.08,2.384a1.782,1.782,0,0,1-1.92,1.92c-1.648,0-2.368-1.616-2.624-2.592l-.464.112a19.7,19.7,0,0,0,.432,2.48A5.478,5.478,0,0,0,62.1,0a5.571,5.571,0,0,0,1.568.24c2.128,0,3.552-1.344,3.552-3.024,0-1.792-1.52-2.544-2.768-3.184-1.264-.656-2.032-1.2-2.032-2.368a1.679,1.679,0,0,1,1.776-1.76c1.392,0,1.808,1.1,2.1,2.128ZM81.888-2.816c-.8,1.6-1.664,2.48-3.3,2.48-2.432,0-4.192-2.048-4.192-5.04,0-2.432,1.424-4.688,4.1-4.688A2.783,2.783,0,0,1,81.6-7.68l.48-.112c-.1-.864-.192-1.5-.32-2.416a12.642,12.642,0,0,0-2.832-.432c-3.568,0-6.16,2.224-6.16,5.584,0,2.544,1.744,5.3,5.728,5.3A13.489,13.489,0,0,0,81.44-.192a17.14,17.14,0,0,0,.912-2.448Zm7.328-7.824A5.333,5.333,0,0,0,83.84-5.088,5.17,5.17,0,0,0,89.04.24a5.245,5.245,0,0,0,5.344-5.568A5.158,5.158,0,0,0,89.216-10.64Zm-.32.576c2.1,0,3.856,1.792,3.856,5.168,0,3.072-1.6,4.56-3.376,4.56-2.256,0-3.9-2.192-3.9-5.2C85.472-8.528,87.1-10.064,88.9-10.064Zm14.288,7.456a4.661,4.661,0,0,1-.816,1.568c-.368.416-.912.5-1.792.5A3.567,3.567,0,0,1,99.04-.752c-.288-.16-.368-.48-.368-1.344v-6.32c0-1.36.144-1.44,1.408-1.536V-10.4H95.9v.448c1.3.1,1.408.176,1.408,1.536v6.4c0,1.36-.128,1.472-1.472,1.568V0h7.248c.144-.5.48-2.016.576-2.512Zm6.96-8.032a5.333,5.333,0,0,0-5.376,5.552,5.17,5.17,0,0,0,5.2,5.328,5.245,5.245,0,0,0,5.344-5.568A5.158,5.158,0,0,0,110.144-10.64Zm-.32.576c2.1,0,3.856,1.792,3.856,5.168,0,3.072-1.6,4.56-3.376,4.56-2.256,0-3.9-2.192-3.9-5.2C106.4-8.528,108.032-10.064,109.824-10.064ZM126.288-.288a2.273,2.273,0,0,1-1.152-.752,13.9,13.9,0,0,1-1.3-1.664c-.48-.72-1.152-1.792-1.424-2.32a2.916,2.916,0,0,0,2.032-2.736,2.394,2.394,0,0,0-1.056-2.1,4.516,4.516,0,0,0-2.56-.544h-3.968v.448c1.248.112,1.376.16,1.376,1.52V-2c0,1.36-.144,1.456-1.456,1.552V0h4.208V-.448c-1.28-.1-1.424-.192-1.424-1.552V-4.544h.512c.832,0,1.1.192,1.376.64.48.784,1.056,1.776,1.616,2.56A2.916,2.916,0,0,0,125.664.112c.192.016.368.016.56.016Zm-6.72-4.784V-9.008c0-.432.064-.624.176-.7a1.57,1.57,0,0,1,.864-.16A2.167,2.167,0,0,1,122.96-7.5a2.3,2.3,0,0,1-.88,1.984,2.647,2.647,0,0,1-1.744.448Zm20.656,2.256c-.8,1.6-1.664,2.48-3.3,2.48-2.432,0-4.192-2.048-4.192-5.04,0-2.432,1.424-4.688,4.1-4.688a2.783,2.783,0,0,1,3.1,2.384l.48-.112c-.1-.864-.192-1.5-.32-2.416a12.642,12.642,0,0,0-2.832-.432c-3.568,0-6.16,2.224-6.16,5.584,0,2.544,1.744,5.3,5.728,5.3a13.489,13.489,0,0,0,2.944-.432,17.141,17.141,0,0,0,.912-2.448ZM147.5,0V-.432c-1.456-.112-1.552-.24-1.552-1.392V-10.16a14.051,14.051,0,0,1-2.848.832v.368l.768.032c.7.032.768.112.768.944v6.16c0,1.152-.08,1.28-1.536,1.392V0Zm4.288-8.8h3.728l.416-1.04-.1-.128h-4.56l-.624,4.88a4.683,4.683,0,0,1,1.648-.32,2.31,2.31,0,0,1,2.608,2.416A2.13,2.13,0,0,1,152.88-.624a2.9,2.9,0,0,1-1.968-.816.3.3,0,0,0-.432,0,.983.983,0,0,0-.336.528c-.032.192.048.32.256.544a2.711,2.711,0,0,0,1.648.56,4.873,4.873,0,0,0,2.784-1.136,3.42,3.42,0,0,0,1.424-2.672,2.817,2.817,0,0,0-3.088-2.7,6.691,6.691,0,0,0-1.792.48ZM171.984,0V-.448c-.784-.1-1.1-.24-1.952-1.152-.8-.864-2.544-2.848-3.76-4.352,1.088-1.1,2.224-2.24,2.832-2.8a3.492,3.492,0,0,1,2.608-1.2V-10.4h-3.84v.448l.352.048c.736.08.736.24.272.816a36.819,36.819,0,0,1-2.688,2.832,2.773,2.773,0,0,1-1.12.736v-2.8c0-1.424.16-1.536,1.392-1.632V-10.4h-4.128v.448c1.264.1,1.408.176,1.408,1.632v6.256c0,1.408-.144,1.52-1.36,1.616V0h4.16V-.448c-1.312-.1-1.472-.208-1.472-1.616V-5.1c.272-.048.5.016.864.448,1.44,1.7,2.736,3.264,3.968,4.656Zm7.568-9.968H173.44c-.064.688-.144,1.488-.288,2.368h.464c.384-1.056.48-1.2,1.536-1.2h3.456A84.377,84.377,0,0,1,173.856.016l.112.176,1.184-.16c1.536-3.3,3.024-6.56,4.528-9.808Zm4.688-.192c-2.4,0-3.28,2.848-3.28,5.184,0,2.528.864,5.168,3.28,5.168,2.4,0,3.248-2.848,3.248-5.184C187.488-7.456,186.64-10.16,184.24-10.16Zm-.016.528c1.44,0,1.84,2.368,1.84,4.64,0,2.24-.384,4.64-1.824,4.64-1.392,0-1.856-2.416-1.856-4.656C182.384-7.232,182.768-9.632,184.224-9.632Z" transform="translate(6257.687 4337.527)" fill="#fff"/>
    <rect id="長方形_8664" data-name="長方形 8664" width="42.144" height="42.144" transform="translate(6194.906 4228.987)" fill="#96a7b1"/>
    <rect id="長方形_8665" data-name="長方形 8665" width="42.144" height="42.144" transform="translate(6194.906 4299.261)" fill="#50585d"/>
    <path id="パス_38597" data-name="パス 38597" d="M8.73-2.61C7.905-1.3,7.02-.285,5.52-.285,3.51-.285,2.445-2,2.445-4.14c0-2.775,1.785-5.31,4.425-5.31,1.485,0,2.265.525,2.34,2.31l.45-.045c.06-.72.075-1.53.12-2.3a7.079,7.079,0,0,0-2.565-.495C3.75-9.975.99-7.65.99-4.1A4.05,4.05,0,0,0,5.355.225a11.656,11.656,0,0,0,2.58-.36A15.394,15.394,0,0,0,9.12-2.4ZM19.38-9.975a5.738,5.738,0,0,0-5.46,5.94A3.935,3.935,0,0,0,17.91.225a5.631,5.631,0,0,0,5.46-5.9C23.37-8.19,21.765-9.975,19.38-9.975Zm-.12.525c1.95,0,2.685,1.635,2.685,3.63,0,2.46-1.41,5.52-3.915,5.52-1.83,0-2.67-1.59-2.67-3.6C15.36-6.525,16.905-9.45,19.26-9.45ZM33.93-2.5a5.992,5.992,0,0,1-1.05,1.53,2.352,2.352,0,0,1-1.755.45,2.472,2.472,0,0,1-1.35-.2c-.24-.18-.27-.525-.165-1.08L30.8-8.01c.21-1.14.27-1.23,1.47-1.335l.09-.39H28.6l-.09.39c1.215.12,1.29.18,1.065,1.335L28.35-1.74C28.125-.6,28.02-.5,26.865-.405L26.775,0H33.39c.225-.465.78-1.845.96-2.34Zm10.245-7.47a5.738,5.738,0,0,0-5.46,5.94A3.935,3.935,0,0,0,42.7.225a5.631,5.631,0,0,0,5.46-5.9C48.165-8.19,46.56-9.975,44.175-9.975Zm-.12.525c1.95,0,2.685,1.635,2.685,3.63,0,2.46-1.41,5.52-3.915,5.52-1.83,0-2.67-1.59-2.67-3.6C40.155-6.525,41.7-9.45,44.055-9.45ZM60.24-.255a1.822,1.822,0,0,1-1.02-.72,10.661,10.661,0,0,1-.93-1.575c-.345-.675-.735-1.59-.9-2.01a3.116,3.116,0,0,0,2.325-2.865A2.107,2.107,0,0,0,58.83-9.27a3.9,3.9,0,0,0-2.13-.465H53.445l-.1.39c1.2.12,1.26.165,1.02,1.41l-1.155,6.03c-.255,1.32-.345,1.38-1.5,1.5L51.615,0H55.38l.09-.405c-1.215-.105-1.305-.18-1.05-1.5l.435-2.37h.63c.54,0,.735.12.975.7.315.765.63,1.485,1.02,2.22A2.44,2.44,0,0,0,59.97.12h.15ZM54.945-4.74l.705-3.72c.075-.39.15-.57.285-.66a1.154,1.154,0,0,1,.675-.15c1.1,0,1.77.66,1.77,1.965a2.636,2.636,0,0,1-1.125,2.19,2.834,2.834,0,0,1-1.6.375Z" transform="translate(6194.905 4131.477)" fill="#fff"/>
    <rect id="長方形_8669" data-name="長方形 8669" width="42.144" height="42.144" transform="translate(6194.906 4158.713)" fill="#dfe6ea"/>
  </g>
</svg>
