<svg id="グループ_25916" data-name="グループ 25916" xmlns="http://www.w3.org/2000/svg" width="349.503" height="183.382" viewBox="0 0 349.503 183.382">
  <path id="パス_33739" data-name="パス 33739" d="M415.779,194.6c-1.2,0-1.2.238-1.2,2.19,0,.684.238.855,1.641,1.369.86.341,2.774,1.061,2.774,2.876,0,.137-.034,1.4-.89,1.4-.581,0-.752-.378-1.472-1.781-.343-.649-1.232-2.257-1.71-2.257-.138,0-.343.137-.343.786,0,1.129.034,6.126.034,7.154-.034,1.2.1,6.468.1,7.529a1.508,1.508,0,0,1-1.576,1.608.66.66,0,0,1-.752-.718c0-.308.066-2.739.1-3.114.034-.823.138-8.625.138-9.652,0-.069,0-.444-.1-.444s-3.626,7.015-4.653,7.015a.073.073,0,0,1-.069-.068c0-.068,1.063-2.36,1.267-2.806a51.94,51.94,0,0,0,3.217-10.268c0-.82-.755-.82-1.059-.82s-1.715.032-2.362.068a3.939,3.939,0,0,1-.617.1c-.1,0-.172-.1-.238-.238l-.551-.789c-.1-.137-.135-.169-.135-.2a.09.09,0,0,1,.1-.1c.547,0,3.7.238,4.413.238.924,0,.924,0,.924-5.645,0-.515-.24-2.911-.24-3.082,0-.069.035-.137.1-.137a20.768,20.768,0,0,1,2.188.65c.686.171.924.274.924.617,0,.238-.1.308-.443.581s-.412.444-.412,1.061c0,.581-.238,4.893-.238,5.3,0,.206.034.65.716.65a1.012,1.012,0,0,0,.89-.581c.343-.65.446-.855.72-.855a8.383,8.383,0,0,1,2.566,1.95c0,.412-.716.412-1.507.412ZM430.87,200c-.374,0-.855,0-.855.478,0,.617,2.257,6.059,8.078,9.514.514.308,1.3.754,1.3.924s-.238.172-.343.172a4.47,4.47,0,0,0-1.745.375,7.937,7.937,0,0,1-1.538.924c-.308,0-3.525-3.8-5.374-8.659-.1-.238-.478-1.4-.581-1.642,0-.035-.069-.137-.138-.137-.135,0-.135.206-.135.377,0,1.848.069,10.028.069,11.7,0,.549-.069.857-.343,1.061a2.549,2.549,0,0,1-1.4.444c-.515,0-.72-.238-.72-.718,0-1.2.238-3.148.274-4.346.034-1.678.137-7.084.137-7.152,0-.515-.034-.652-.206-.652-.135,0-.2.069-.478.515-1.95,3.148-4.107,6.466-8.11,8.931a5.717,5.717,0,0,1-1.233.583c-.069,0-.2-.035-.2-.137a7.332,7.332,0,0,1,1.164-1.233,28.566,28.566,0,0,0,7.323-10.609c0-.718-.546-.718-1.3-.718-.821,0-2.636.034-3.421.1-.1,0-.617.068-.72.068-.135,0-.2-.068-.309-.2l-.647-.789c-.138-.171-.174-.171-.174-.238s.069-.069.138-.069c.24,0,1.3.1,1.507.1.274,0,2.736.137,4.346.137h1.06c.96,0,1.2-.206,1.2-1.13,0-.821,0-4.209-.1-4.756-.069-.48-.238-.718-.99-.718h-3.082c-.718,0-.787.068-1.233.855-.99,1.71-2.7,3.661-3.009,3.661-.035,0-.1,0-.1-.1,0-.069.958-2.225,1.129-2.636a29.879,29.879,0,0,0,1.953-6.948c.066-.72.1-.787.34-.787.1,0,3.286.924,3.286,1.4,0,.238-.24.308-.857.514-.343.1-.377.238-.855,1.333-.2.514-.617,1.472-.617,1.507,0,.274.274.308.448.308h2.634c.306,0,.992,0,.992-.924,0-.411-.035-2.463-.069-2.737-.035-.514-.34-2.909-.34-3.217a.146.146,0,0,1,.135-.137c.1,0,3.182.683,3.182,1.061,0,.171-.547.718-.581.855a37.428,37.428,0,0,0-.2,4.038c0,.89.343,1.061,1.129,1.061h.821c.786,0,1.027-.034,1.267-.238.274-.242,1.333-1.608,1.676-1.608a9.856,9.856,0,0,1,2.84,2.257c0,.48-.683.48-1.811.48h-4.827c-.478,0-.787.068-.992.444a44.227,44.227,0,0,0-.138,4.482c0,1.266,0,1.678,1.13,1.678h1.505c1.4,0,1.576,0,1.815-.24.274-.24,1.233-1.539,1.538-1.539.243,0,3.012,1.745,3.012,2.19,0,.48-.716.48-1.815.48Z" transform="translate(-307.24 -184.023)" fill="#fff"/>
  <path id="パス_33740" data-name="パス 33740" d="M447.585,192.043c.581,0,.717-.1.717-.409,0-.274-.547-3.9-.647-4.45-.069-.377-.481-2.122-.481-2.5,0-.1.138-.1.238-.1a14.836,14.836,0,0,1,2.4.377c.889.169,1.336.308,1.336.752,0,.206-.035.24-.343.583-.378.375-.378.547-.378,2.12.035,3.628.309,3.628,1.164,3.628h3.972c1.571,0,1.745,0,2.188-.581,1.059-1.436,1.164-1.573,1.507-1.573.512,0,3.286,1.984,3.286,2.565,0,.515-.617.515-1.814.515h-9.07c-.581,0-.786.068-.786.546a45.368,45.368,0,0,0,1.367,6.059c2.124,6.6,5.853,10.916,6.878,10.916.481,0,1.063-.992,1.505-1.815.174-.308.821-1.811.995-1.811.1,0,.1.169.1.238,0,.1-.443,3.8-.443,4.518a2.547,2.547,0,0,0,.377,1.4,1.867,1.867,0,0,1,.34.958.777.777,0,0,1-.887.857c-3.012,0-10.166-7.29-12.356-20.4-.2-1.267-.274-1.472-1.129-1.472h-9.242c-.786,0-3.114,0-4.312.068a5.733,5.733,0,0,1-.752.1c-.1,0-.172-.1-.274-.24l-.684-.787c-.138-.137-.138-.171-.138-.206,0-.068.034-.1.138-.1.238,0,1.3.1,1.505.137,1.573.068,3.078.1,4.689.1Zm-4.619,9c-.243,0-.824.034-.96.583-.069.34-.2,3.935-.2,6.022s0,2.431.581,2.431c.514,0,8.245-1.745,8.314-1.745.035,0,.174,0,.174.1,0,.343-4.9,2.362-9.174,3.729-5,1.576-5.851,1.85-6.263,2.124-.2.1-.921.958-1.129.958-.375,0-1.335-3.594-1.335-3.7,0-.138.1-.172,1.164-.275a43.112,43.112,0,0,0,4.724-.684.691.691,0,0,0,.307-.48c.035-.274.066-4.482.066-4.893,0-.274-.031-3.183-.031-3.32-.035-.821-.652-.821-1-.821a26.543,26.543,0,0,0-3.112.1c-.069,0-.412.068-.481.068-.135,0-.2-.1-.307-.238l-.649-.789c-.139-.135-.172-.171-.172-.238,0-.034.069-.069.138-.069.238,0,1.3.1,1.5.137,1.576.069,3.117.1,4.689.1h2.7a5.452,5.452,0,0,0,1.646-.1c.374-.171,1.4-1.813,1.745-1.813a5.959,5.959,0,0,1,2.5,2.362c0,.444-.684.444-1.848.444ZM453.2,184.96c.478,0,5.2,1.164,5.2,3.148a1.264,1.264,0,0,1-1.4,1.4c-.377,0-.446-.1-1.162-1.129a17.1,17.1,0,0,0-2.636-3.046c-.1-.068-.241-.206-.208-.274,0-.068.138-.1.208-.1" transform="translate(-292.054 -184.035)" fill="#fff"/>
  <path id="パス_33741" data-name="パス 33741" d="M456.194,199.78c0-.137.1-.206.514-.48.238-.171,3.046-2.156,5.27-4.038,5.853-5,8.01-9.068,8.179-9.822.274-1.061.274-1.2.686-1.2.035,0,3.217,1.505,3.217,2.087,0,.172-.069.2-.412.446-.2.1-.238.2-.238.341,0,1.061,6.055,8.659,14.17,10.952.955.272.955.272.955.444,0,.206-.1.24-.955.514a4.012,4.012,0,0,0-2.193,1.4c-.135.24-.238.343-.443.343-.755,0-8.044-5.032-11.913-12.08-.374-.72-.443-.821-.581-.821s-.683.683-.956,1.026c-6.059,7.6-13.758,10.747-14.99,10.986-.1.035-.309.068-.309-.1m9.413,4.687c-2.534,0-3.389.035-4.312.1-.1,0-.615.068-.72.068-.138,0-.169-.068-.308-.2l-.652-.789a1.947,1.947,0,0,1-.169-.238c0-.069.069-.069.135-.069.241,0,1.3.1,1.505.1,1.679.069,3.491.138,4.69.138h11.295c1.438,0,1.811,0,2.636-1.13.512-.718.647-.923.956-.923.274,0,.377.068,1.163.718,1.745,1.438,1.745,1.472,1.745,1.781,0,.443-.169.443-1.779.443H471.321c-.343,0-.478,0-.478.1,0,0,1.607,1.367,1.607,1.745,0,.307,0,.307-1.026.581-.274.1-.343.2-1.2,1.335-.72.958-2.122,2.636-2.327,2.84-.138.171-.478.514-.478.821s.478.341.613.341c.446,0,3.663-.2,7.463-.581,2.462-.238,2.739-.274,2.739-.617,0-.512-2.022-2.257-2.022-2.668,0-.171.138-.206.242-.206a31.946,31.946,0,0,1,4.347,2.122c.924.547,3.043,1.779,3.043,3.937,0,1.093-.683,1.847-1.333,1.847-.993,0-1.71-1.266-2.327-2.4-.652-1.164-.96-1.266-1.438-1.266a149.362,149.362,0,0,0-15.88,3.149,7.312,7.312,0,0,1-.99.547.389.389,0,0,1-.343-.241,26.769,26.769,0,0,1-1.884-3.628c0-.238.172-.238.274-.238.238,0,1.3.2,1.505.238a17.944,17.944,0,0,0,2.019.137c1.919,0,2.158,0,3.56-2.8a23.938,23.938,0,0,0,1.781-4.519c0-.581-.448-.581-1.029-.581Zm7.116-6.365c1.679,0,1.745-.068,2.431-.89.547-.649.958-1.162,1.129-1.162a9.28,9.28,0,0,1,2.6,2.566c0,.377-.169.377-1.811.377H469.2c-2.085,0-3.08,0-4.347.1-.1,0-.615.069-.717.069s-.172-.069-.307-.206l-.652-.786c-.135-.137-.135-.171-.135-.24,0-.035.032-.068.1-.068.238,0,1.3.1,1.505.1,1.676.1,3.322.137,4.688.137Z" transform="translate(-277.427 -184.243)" fill="#fff"/>
  <path id="パス_33742" data-name="パス 33742" d="M481.073,192.6c-.138-.169-.174-.2-.174-.238,0-.068.1-.068.138-.068.652,0,3.8.2,4.52.2.956,0,.956-.24.956-2.534,0-.512-.035-2.531-.135-3.83,0-.172-.174-.96-.174-1.164,0-.069.1-.069.138-.069a26.3,26.3,0,0,1,3.078.924c.174.1.378.24.378.48,0,.137-.617.649-.686.786-.171.309-.171.48-.171,1.918v2.874c0,.48.2.549.547.549a1.214,1.214,0,0,0,.821-.242c.24-.137,1.233-1.162,1.541-1.162a.641.641,0,0,1,.478.24c.412.411,1.129,1.266,1.233,1.333.753.718.819.787.819.993a.516.516,0,0,1-.374.446c-.1.032-.581.137-.686.169a39.409,39.409,0,0,0-3.182,3.423c-1,1.027-1.095,1.129-1.095,1.745,0,.718.3.787,1.129.958,1.164.275,4.381,1.2,4.381,3.8,0,1.061-.583,1.576-1.2,1.576-.821,0-1.2-.686-2.088-2.5-.2-.377-1.333-2.122-1.985-2.122-.308,0-.308.48-.308.889,0,1.3.034,7.633.034,9.036,0,.444.171,2.566.171,3.045a1.634,1.634,0,0,1-1.815,1.576c-.821,0-1.026-.343-1.026-.823,0-.341.135-1.916.135-2.293.069-2.533.208-6.091.208-10.131,0-.375,0-.956-.343-.956s-4.792,3.866-5.682,3.866c-.069,0-.169,0-.169-.1a34.6,34.6,0,0,1,2.977-3.045c1.369-1.4,6.192-7.392,6.192-8.385,0-.308-.24-.341-.548-.341h-2.393c-1.336,0-2.774.034-3.972.1-.1,0-.617.069-.717.069-.138,0-.208-.069-.309-.206Zm11.192,20.946c-.138-.171-.138-.171-.138-.206a.11.11,0,0,1,.1-.1c.2,0,1.264.137,1.5.137.993.034,2.774.1,4.689.1h1.336c.309,0,.926,0,.992-.752.068-.617.137-13.792.137-15.573,0-.341,0-1.061-.82-1.061-.857,0-2.84,0-4.038.1-.1,0-.581.068-.72.068-.1,0-.171-.068-.309-.2l-.65-.789c-.135-.171-.135-.171-.135-.238s.069-.069.1-.069,1.266.1,1.438.1c.34,0,3.114.137,4.276.137.821,0,.89-.444.89-1.4,0-3.148-.069-4.689-.238-7.255,0-.272-.208-1.472-.208-1.744,0-.172.069-.242.274-.242.1,0,2.225.65,2.465.72.307.1,1.027.274,1.027.857,0,.171-.684.752-.754.923-.2.48-.309,6.16-.309,7.084,0,.411,0,1.061.821,1.061,1.61,0,1.781,0,2.5-.958.99-1.335,1.093-1.472,1.4-1.472.478,0,2.874,2.224,2.874,2.876,0,.443-.716.443-1.815.443h-4.755c-.924,0-.993.515-.993,1.13,0,2.054.1,12.08.1,14.373,0,1.267,0,1.882.89,1.882h1.264a2.124,2.124,0,0,0,2.019-1.027c.924-1.2,1.029-1.333,1.438-1.333.308,0,3.32,2.224,3.32,2.8,0,.48-.717.48-1.849.48H498.253c-.821,0-3.114-.034-4.312.069-.1,0-.617.1-.72.1s-.171-.069-.309-.24Z" transform="translate(-262.603 -184.049)" fill="#fff"/>
  <path id="パス_33743" data-name="パス 33743" d="M412.668,233.905c-2.055,4.449-5.645,6.5-6.331,6.5a.158.158,0,0,1-.169-.172,9.645,9.645,0,0,1,1.367-1.813c3.764-5.168,4.141-8.9,4.141-10.028a7.5,7.5,0,0,0-.581-2.943,2.519,2.519,0,0,1-.138-.615c0-.1.035-.172.174-.172.238,0,3.864,1.164,3.864,2.909,0,.1-1.745,5.031-2.327,6.331m5.544,3.183c0-.171.172-1.061.208-1.233.1-.649.135-3.354.135-4.209a21.021,21.021,0,0,0-.65-6.434,9.216,9.216,0,0,1-.444-1.232c0-.137.135-.171.2-.171.174,0,3.764.617,3.764,2.394,0,.412-.478,2.191-.547,2.568-.135.923-.274,5.064-.274,6.194,0,.444.035,1.13.652,1.13,1.024,0,4.175-2.261,7.458-5.579.583-.581,3.491-3.661,3.629-3.661a.144.144,0,0,1,.135.135c0,.274-1.984,4.518-7.971,9.789a19.131,19.131,0,0,0-2.362,2.19c-.581.649-.889.89-1.129.924-.993.171-2.808-1.848-2.808-2.806" transform="translate(-307.947 -160.104)" fill="#fff"/>
  <path id="パス_33744" data-name="パス 33744" d="M451.255,228.031c.2,0,.581-.034.752-.034,2.088,0,2.4,1.267,2.4,1.505,0,.96-1.4,1.061-2.84,1.061-.786,0-4.21-.068-4.893-.068-4.722,0-12.559.444-13.383.615-.409.069-2.259.617-2.666.617-1.472,0-3.048-2.12-3.048-3.285,0-.206.1-.412.274-.412s.993.377,1.164.412a18.806,18.806,0,0,0,4.175.306c1.13,0,13.072-.444,18.07-.718" transform="translate(-294.888 -157.55)" fill="#fff"/>
  <path id="パス_33745" data-name="パス 33745" d="M455.861,238.322a53.675,53.675,0,0,0,7.872-.993c5.031-.855,5.031-1.027,5.031-1.438a4.288,4.288,0,0,0-.995-2.019,13.246,13.246,0,0,1-.786-1.3.228.228,0,0,1,.24-.206c.99,0,6.16,4.209,6.16,7.564,0,2.293-1.646,2.394-1.884,2.394-1.164,0-1.3-.855-1.745-3.114-.307-1.642-.443-1.95-.96-1.95-.169,0-7.9,2.362-9.374,2.771-.924.24-5.408,1.267-5.717,1.4-.238.1-1.06,1.095-1.3,1.095-.309,0-.309-.034-1.815-1.505a7.512,7.512,0,0,1-.89-2.737c0-.1,0-.242.135-.242a8.522,8.522,0,0,1,.993.309,5.99,5.99,0,0,0,1.233.171c1.436,0,2.119-.444,3.967-3.8,1.507-2.773,4.586-9,4.586-11.6,0-.171-.066-.993-.066-1.13,0-.169.035-.375.24-.375.238,0,3.386,2.293,3.386,3.491,0,.581-.374.924-1.059,1.573-.547.515-4.484,6.675-5.341,7.907-.377.514-2.327,3.045-2.36,3.182-.035.343.138.549.446.549" transform="translate(-281.388 -161.44)" fill="#fff"/>
  <path id="パス_33746" data-name="パス 33746" d="M486.052,225.684c-.478,0-9.169,1.061-11.4,1.4-1.438.2-1.438.375-1.438,2.463,0,.821.378,4.518.378,5.271,0,.444,0,2.531-.89,2.531-.786,0-1.95-1.882-1.95-3.114a6.977,6.977,0,0,1,.238-1.541,9.157,9.157,0,0,0,.1-1.539A12.142,12.142,0,0,0,470,225.718a5.816,5.816,0,0,1-.617-.992c0-.238.686-.514,1.233-.514.512,0,.752.138,1.781.754.238.171.512.343,1.813.343,1.026,0,11.019-1.267,11.91-1.644.2-.068.924-.684,1.095-.684.446,0,3.355,2.259,3.355,2.979,0,.306-.89,1.369-1.029,1.641-.377.823-1.914,4.655-2.257,5.442-1.164,2.6-3.834,8.078-9,11.362a7.352,7.352,0,0,1-1.541.787.2.2,0,0,1-.2-.206,6.153,6.153,0,0,1,1.026-1.162,31.775,31.775,0,0,0,7.392-11.261,33.278,33.278,0,0,0,1.712-6.192c0-.378,0-.686-.617-.686" transform="translate(-269.379 -160.61)" fill="#fff"/>
  <path id="パス_33747" data-name="パス 33747" d="M497.162,239.6a23.784,23.784,0,0,0-3.352,2.806c-.651.789-.72.857-1.232.857-1.85,0-4.381-2.191-4.381-3.558,0-.242.034-1.815.343-1.815a8.4,8.4,0,0,1,1.024.65,5.689,5.689,0,0,0,2.328.786c1.679,0,10.749-6.056,16.428-11.67.547-.547,1.505-1.5,1.575-1.5a.217.217,0,0,1,.171.169c0,.309-4,6.708-12.9,13.278m-2.8-11.258c-.924,0-1.267-.549-2.4-2.259a7.689,7.689,0,0,0-3.114-2.806c-.138-.068-.307-.172-.307-.309s.274-.308.752-.308c3.663,0,6.537,1.951,6.537,3.97a1.512,1.512,0,0,1-1.472,1.712" transform="translate(-257.902 -160.804)" fill="#fff"/>
  <path id="パス_33748" data-name="パス 33748" d="M345.953,275.036a9.165,9.165,0,0,0,1.468.106c.968,0,3.618-.251,3.885-.3s.394-.161.394-.43c0-2.309-.483-2.884-.7-3.116-.072-.072-.395-.377-.395-.465,0-.163.842-.163,1-.163a1.473,1.473,0,0,1,1.415.734,4.089,4.089,0,0,1-.233.663c-.035.214-.053,1.2-.053,1.468,0,.861.018,1.058.375,1.058s1.468-.2,1.9-.269c.126-.018.7-.2.807-.2.161,0,1.109.232,1.109.768,0,.485-.877.485-1.109.485s-1.236-.072-1.451-.072c-1.576,0-1.576.269-1.576.646,0,.267.2,4.441.233,4.835.035.324.214,1.665.214,1.934,0,.95-.591,1.668-1.076,1.668-.411,0-.5-.306-.662-.9a3.7,3.7,0,0,0-1.039-1.468,4.143,4.143,0,0,1-.394-.412c0-.035.055-.053.072-.053.035,0,1.4.518,1.594.518.232,0,.232-.287.232-.43,0-1.969-.089-4.226-.126-4.315a.156.156,0,0,0-.159-.109c-.09,0-.127.037-.431.412-2.579,3.19-5.426,4.872-5.8,4.872-.055,0-.108-.035-.108-.071a11.412,11.412,0,0,1,1.146-1.074c2.525-2.365,4.352-4.874,4.352-5.41a.188.188,0,0,0-.2-.2c-.322,0-2.436.269-2.758.341a9.271,9.271,0,0,1-1.076.34c-.536,0-1.647-1.217-1.647-1.486,0-.072.089-.089.108-.089.108,0,.591.159.681.179" transform="translate(-345.164 -131.518)" fill="#fff"/>
  <path id="パス_33749" data-name="パス 33749" d="M366.59,274.377c.092,0,.258-.018.335-.018.929,0,1.066.662,1.066.789,0,.5-.625.554-1.264.554-.351,0-1.874-.035-2.178-.035-2.1,0-5.59.234-5.956.324-.182.034-1.006.322-1.188.322-.654,0-1.356-1.111-1.356-1.72,0-.108.045-.216.121-.216s.443.2.52.216a7.135,7.135,0,0,0,1.858.161c.5,0,5.817-.232,8.042-.377" transform="translate(-338.523 -129.265)" fill="#fff"/>
  <path id="パス_33750" data-name="パス 33750" d="M367.065,284.469c3.671-2.077,6.123-5,6.123-5.552S371.058,277,370.61,277c-.412,0-2.579,2.346-3.17,2.346a.084.084,0,0,1-.09-.09,5.923,5.923,0,0,1,.646-.77c2.132-2.31,3.6-4.835,3.6-5.857,0-.143-.288-.715-.288-.84,0-.108.233-.108.341-.108a1.6,1.6,0,0,1,1.612,1.058c0,.106-.2.591-.2.7,0,.269.377.3.609.3a7.02,7.02,0,0,0,2.542-.483c.306-.251.378-.269.5-.269.341,0,.644.341.807.518.715.771.787.86.787,1.022,0,.287-.143.359-.448.5-.287.126-.34.214-.915,1.129a22.166,22.166,0,0,0-1.665,2.56c0,.163.018.2.34.609a2.5,2.5,0,0,1,.754,1.578.771.771,0,0,1-.771.86c-.375,0-.448-.126-1.129-1.272-.034-.073-.232-.412-.412-.412-.159,0-.267.126-.625.5a15.479,15.479,0,0,1-6.609,4.315c-.035,0-.2,0-.161-.161.018-.071.053-.071.395-.269m9.116-9.921c0-.2-.18-.251-.306-.251-.269,0-1.844.233-2.166.233a1.944,1.944,0,0,1-.538-.072,1.036,1.036,0,0,0-.43-.071.284.284,0,0,0-.216.071A15.912,15.912,0,0,0,371,276.464c0,.25.161.306.609.483a20.905,20.905,0,0,1,1.971.913.985.985,0,0,0,.411.126,9,9,0,0,0,2.186-3.438m3.921-1.2c0,.232-.232.662-.554.662-.287,0-.465-.2-.9-.877a4.886,4.886,0,0,0-1.127-1.217c-.072-.055-.233-.216-.233-.288,0-.089.214-.124.322-.124,1,0,2.489.877,2.489,1.845m1.433-1.774c0,.179-.124.52-.446.52-.378,0-.592-.251-.932-.663a4.379,4.379,0,0,0-1.559-1.021c-.18-.072-.233-.143-.233-.179,0-.126.341-.233.663-.233,1.539,0,2.507.824,2.507,1.576" transform="translate(-332.047 -131.926)" fill="#fff"/>
  <path id="パス_33751" data-name="パス 33751" d="M389.674,274.377c.092,0,.258-.018.335-.018.929,0,1.066.662,1.066.789,0,.5-.625.554-1.264.554-.351,0-1.874-.035-2.178-.035-2.1,0-5.59.234-5.956.324-.182.034-1.006.322-1.188.322-.654,0-1.356-1.111-1.356-1.72,0-.108.045-.216.121-.216s.443.2.52.216a7.134,7.134,0,0,0,1.858.161c.5,0,5.817-.232,8.042-.377" transform="translate(-324.44 -129.265)" fill="#fff"/>
  <path id="パス_33752" data-name="パス 33752" d="M399.636,274.005c.394-.341.448-.375.573-.375.359,0,1.451.787,1.451,1.253a4.861,4.861,0,0,1-.448.787c-.035.09-.5,2.043-.591,2.418a12.924,12.924,0,0,1-1.863,4.674c-.2.251-.77.985-1.272.985-.34,0-.644-.18-.644-.43a1.636,1.636,0,0,0-.5-1.488c-.446-.481-.5-.536-.5-.644,0-.071.053-.071.087-.071a8.948,8.948,0,0,1,.969.34,2.469,2.469,0,0,0,.662.126c.628,0,.913-.518,1.29-1.451a30.814,30.814,0,0,0,1.2-4.729c0-.375-.2-.375-.357-.375a13.567,13.567,0,0,0-2.992.538,3.242,3.242,0,0,0-.448.984,14.373,14.373,0,0,1-3.995,6.2,6.878,6.878,0,0,1-2.525,1.433.118.118,0,0,1-.126-.108c0-.071.035-.09.357-.34a14.64,14.64,0,0,0,5.23-7.754c0-.163-.087-.233-.25-.233-.518,0-3.062.752-3.19.752-.338,0-1.539-.716-1.539-1.468,0-.072,0-.143.108-.143a2.633,2.633,0,0,1,.43.09,4.867,4.867,0,0,0,1.021.089,18.139,18.139,0,0,0,3.565-.375c.483-.216.536-1.935.536-2.455a6.134,6.134,0,0,0-.106-1.145,3.53,3.53,0,0,1-.143-.394c0-.126.2-.126.269-.126.555,0,2.024.609,2.024,1.146,0,.143-.072.3-.306.681a4.177,4.177,0,0,0-.644,1.826c0,.269.126.269.448.269a5.943,5.943,0,0,0,2.22-.483" transform="translate(-318.05 -131.579)" fill="#fff"/>
  <path id="パス_33753" data-name="パス 33753" d="M411.4,274.377c.092,0,.258-.018.335-.018.929,0,1.066.662,1.066.789,0,.5-.625.554-1.264.554-.351,0-1.874-.035-2.178-.035-2.1,0-5.59.234-5.956.324-.182.034-1.006.322-1.188.322-.654,0-1.356-1.111-1.356-1.72,0-.108.045-.216.121-.216s.443.2.52.216a7.135,7.135,0,0,0,1.858.161c.5,0,5.817-.232,8.042-.377" transform="translate(-311.185 -129.265)" fill="#fff"/>
  <path id="パス_33754" data-name="パス 33754" d="M419.346,277.14c0,.124-.431.465-.485.554-.053.071-.734,1.719-.9,2.024a8.869,8.869,0,0,1-4.746,4.6c-.071,0-.106-.034-.106-.089a12.341,12.341,0,0,1,.948-.9,12.085,12.085,0,0,0,3.51-6.751c0-.216-.035-.538-.428-.538a21.848,21.848,0,0,0-2.848.538,11.52,11.52,0,0,1-1.29.322,1.568,1.568,0,0,1-1.415-1.362c0-.106.035-.179.124-.179a1.558,1.558,0,0,1,.269.09,5.54,5.54,0,0,0,1.13.126c1.146,0,5.783-.5,7.038-.681.216-.037,1.146-.322,1.344-.322.214,0,2.256.393,2.256,1.127,0,.324-.287.43-.518.43-.2,0-1.076-.142-1.256-.161-.375-.035-.876-.09-1.27-.09a15.172,15.172,0,0,0-1.81.055.218.218,0,0,0-.126.267,5.551,5.551,0,0,1,.575.934m-3.977-5.267a11.019,11.019,0,0,0,2.544-.448,7.285,7.285,0,0,1,1.433-.216c.375,0,1.021.073,1.021.591s-.306.556-1.362.663c-.914.108-2.114.34-2.383.393-.089.019-.787.163-.84.163-.878,0-1.433-1.253-1.343-1.29.106.018.824.143.931.143" transform="translate(-304.639 -131.186)" fill="#fff"/>
  <path id="パス_33755" data-name="パス 33755" d="M427.564,280.431a12.742,12.742,0,0,0-1.753,1.468c-.343.412-.377.449-.644.449-.968,0-2.294-1.146-2.294-1.864,0-.124.019-.947.18-.947a4.333,4.333,0,0,1,.535.338,2.985,2.985,0,0,0,1.221.412c.876,0,5.622-3.169,8.6-6.107.288-.285.789-.787.823-.787a.113.113,0,0,1,.09.09c0,.159-2.093,3.508-6.753,6.947M426.1,274.54c-.485,0-.663-.287-1.254-1.182a4.014,4.014,0,0,0-1.629-1.468c-.072-.037-.161-.09-.161-.163s.143-.161.394-.161c1.916,0,3.421,1.021,3.421,2.077a.793.793,0,0,1-.771.9" transform="translate(-297.756 -130.969)" fill="#fff"/>
  <path id="パス_33756" data-name="パス 33756" d="M433.476,278.922c0-.536.5-1.111,1.721-2.526a8.256,8.256,0,0,0,1.522-2.668c0-.106-.126-.126-.2-.126-.179,0-.913.143-1.076.143a1.9,1.9,0,0,1-1.592-1.576c0-.053,0-.126.106-.126a4.085,4.085,0,0,1,.681.341,2.862,2.862,0,0,0,1.182.322c1.47,0,1.47-.485,1.47-.842a1.438,1.438,0,0,0-.145-.626c-.055-.09-.43-.412-.43-.52,0-.143.465-.287.787-.287.432,0,.878.163.915.555.018.232.089.269.807.322.126,0,.805.09.805.465,0,.591-1.307,1.093-2.132,1.415-.269.108-.285.143-.68,1.056a13.764,13.764,0,0,1-.968,1.934c-.09.163-.126.216-.126.288a.066.066,0,0,0,.073.071,3.545,3.545,0,0,0,.555-.2,1.656,1.656,0,0,1,.7-.143,1.615,1.615,0,0,1,1.521,1.093c.127.3.143.34.18.34a8.549,8.549,0,0,0,.734-.968c.591-.823,1.757-2.452,3.312-2.452a1.688,1.688,0,0,1,1.684,1.592c0,.842-1.415,1.435-2.525,1.916-.448.2-2.471,1-2.793,1.2-.287.179-.3.375-.3.752,0,.161.035.914.035,1.074,0,.287,0,1.309-.663,1.309-.483,0-.554-.591-.554-.915,0-.179.053-1.039.053-1.056,0-.072,0-.216-.126-.216-.143,0-1.737,1.111-1.737,2.132,0,1.235,1.79,1.235,2.31,1.235a5.49,5.49,0,0,0,1.146-.106c.25-.037,1.4-.322,1.629-.322.375,0,.877.179.877.609,0,1.111-2.776,1.182-3.206,1.182-2.273,0-3.475-.931-3.475-2.346,0-1.146.681-1.72,2.364-3.08a.762.762,0,0,0,.269-.628c0-.807-.143-1.808-.86-1.808a3.085,3.085,0,0,0-2.2,1.9c-.2.448-.393.877-.968.877-.34,0-.681-.108-.681-.591m4.568-6.77c.037,0,.9-.232.9-.43,0-.233-.448-.269-.61-.269-.25,0-.322.5-.322.573s0,.126.035.126m1.631,5.8c0,.035.018.09.071.09s3.582-1.433,3.582-2.615a.551.551,0,0,0-.626-.538c-1.488,0-3.027,2.776-3.027,3.062" transform="translate(-291.287 -131.661)" fill="#fff"/>
  <path id="パス_33757" data-name="パス 33757" d="M446.988,279.582c-.448,0-.483.232-.518.625a1.181,1.181,0,0,1-1.058,1c-.448,0-.465-.232-.465-.465,0-.126.053-.734.071-.876.037-.681.037-2.365.037-2.848,0-1.129-.037-2.293-.108-3.243,0-.089-.053-.591-.053-.626,0-.055,0-.126.053-.126.161,0,.287.071,1.361.646a1.8,1.8,0,0,0,.969.25h2.971c.538,0,.538-.322.538-.662,0-.538-.018-2.169-.053-2.669-.018-.108-.106-.555-.106-.662s.106-.108.177-.108c.126,0,1.757.267,1.757.609,0,.108-.377.465-.395.555a11.482,11.482,0,0,0-.071,2.346c0,.269,0,.591.5.591h3.331a.563.563,0,0,0,.554-.25c.341-.467.377-.52.538-.52.251,0,1.523.913,1.523,1.146,0,.108-.394.448-.449.538-.143.25-.143.465-.143,2.256,0,.359.056,2.149.056,2.562,0,.375.016.591-.18.823a1.217,1.217,0,0,1-.879.467c-.5,0-.5-.43-.5-.877,0-.161,0-.483-.52-.483H452.7c-.324,0-.575.034-.575.589,0,.628.037,3.726.037,4.425,0,.375,0,1.415-.95,1.415-.589,0-.589-.538-.589-.716,0-.2.071-1.111.071-1.327.018-.625.053-3.153.053-3.761,0-.428-.053-.625-.536-.625Zm3.243-.485c.142,0,.375,0,.465-.216a24.735,24.735,0,0,0,.106-2.918c0-1.435,0-1.578-.555-1.578h-3.33c-.52,0-.52.2-.52.844,0,.446.035,2.668.035,3.186,0,.5.09.681.555.681Zm5.8,0c.161,0,.412,0,.465-.269.035-.126.09-3.51.09-3.851,0-.428-.163-.591-.522-.591h-3.455c-.518,0-.518.359-.518.61,0,.465,0,3.563.053,3.779.053.269.249.322.483.322Z" transform="translate(-284.321 -132.034)" fill="#fff"/>
  <path id="パス_33758" data-name="パス 33758" d="M460.394,277.779c0,2.006-.929,3.367-2.022,3.367a.628.628,0,0,1-.716-.644c0-.2.035-.377.609-.913a7,7,0,0,0,1.649-3.26c.016-.233.089-.357.142-.357.161,0,.34,1.146.34,1.808m4.014-4.729c0,.143-.465.555-.485.663-.124.448-.18,7.646-.18,8.364,0,1.612.056,2.042,1.792,2.042,2.76,0,3.116-.412,3.816-2.418a4.032,4.032,0,0,1,.288-.7,3.752,3.752,0,0,1,.087.768,3.2,3.2,0,0,0,.34,1.435,3.1,3.1,0,0,1,.412.625c0,.771-1.433,1.559-4.5,1.559-3.475,0-3.475-1-3.475-2.7,0-.607.072-3.33.09-3.887,0-.481.018-2.6.018-3.9,0-.448-.018-1.4-.053-1.827,0-.071-.035-.267-.035-.446,0-.055,0-.216.035-.253.071-.053,1.845.394,1.845.681m-.287-3.152c1.4,0,4.19,1.737,4.19,2.956a.889.889,0,0,1-.626.948c-.2,0-.377-.143-.77-.77a14.2,14.2,0,0,0-2.776-2.919c-.127-.072-.163-.161-.143-.179.016-.037.106-.037.126-.037m9.115,9.87c0,.824-.5,1.522-1.037,1.522-.592,0-.592-.483-.592-.734a6.528,6.528,0,0,0-.393-3.027,12.138,12.138,0,0,0-.86-1.916c-.09-.143-.09-.251-.072-.269.179-.161,2.955,2.167,2.955,4.425" transform="translate(-276.535 -131.986)" fill="#fff"/>
  <path id="パス_33759" data-name="パス 33759" d="M472.9,278.892c.538-.5.771-.736.771-.969a4.907,4.907,0,0,0-.161-.554,5.74,5.74,0,0,1-.306-2.095c0-.412.09-2.491.09-2.956a1.668,1.668,0,0,0-.538-1.449c-.375-.4-.428-.449-.428-.5,0-.072.428-.09.481-.09,1.022,0,1.935.824,1.935,1.343,0,.161-.214.968-.251,1.146a17.078,17.078,0,0,0-.159,2.364c0,.681,0,2.132.465,2.132.25,0,.357-.072,1.325-.681a5.524,5.524,0,0,1,1.843-.84.689.689,0,0,1,.681.662c0,.538-.734.824-1.378,1.076-4.264,1.718-4.874,3.027-4.874,4.191,0,1.217,1.04,1.665,2.491,1.665a8.083,8.083,0,0,0,2.149-.322,4.893,4.893,0,0,1,1.343-.269c.609,0,1.183.411,1.183.86,0,.913-3.655,1-4.6,1-.823,0-3.42,0-3.42-2.811a4.06,4.06,0,0,1,1.36-2.9" transform="translate(-268.064 -131.756)" fill="#fff"/>
  <path id="パス_33760" data-name="パス 33760" d="M483.233,272.338a8.336,8.336,0,0,1-.34,1,42.946,42.946,0,0,0-.754,6.376c0,1.81.341,3.421,2.74,3.421a8.824,8.824,0,0,0,3.761-.931c.269-.126,1.631-.879,1.7-.879a.084.084,0,0,1,.09.09,8.375,8.375,0,0,1-6.018,3.082c-2.328,0-3.438-1.344-3.438-4.945a40.882,40.882,0,0,1,.411-4.978c.071-.592.233-2.061.233-2.562a2.221,2.221,0,0,0-.163-.878c-.016-.053-.2-.465-.2-.483,0-.126.143-.179.253-.179.931,0,1.718,1.449,1.718,1.861" transform="translate(-262.307 -131.633)" fill="#fff"/>
  <path id="パス_33761" data-name="パス 33761" d="M491.31,281.82a24.132,24.132,0,0,0,2.362-6.59c0-.18-.071-.18-.644-.18a3.444,3.444,0,0,1-1.594-.322,1.718,1.718,0,0,1-.931-.968.075.075,0,0,1,.072-.071,4.077,4.077,0,0,1,.411.161,6.557,6.557,0,0,0,1.594.2,3.962,3.962,0,0,0,1.272-.159,5.2,5.2,0,0,0,.2-1.47,2.485,2.485,0,0,0-.214-1.111c-.072-.089-.5-.536-.5-.662,0-.179.34-.412.805-.412a1.617,1.617,0,0,1,1.435.95c0,.09-.2.448-.2.536,0,.341,1.435.646,1.613.646.071,0,.465-.035.555-.035a.512.512,0,0,1,.591.555c0,1-1.523,1.521-2.7,1.843-.61.163-.681.179-.754.5a48.315,48.315,0,0,1-1.306,5.086c-1.236,3.724-1.881,3.724-2.222,3.724-.43,0-.483-.591-.483-.787,0-.216.09-.394.646-1.433m3.777-8.186c.09,0,1.452-.483,1.452-.715,0-.179-.968-.573-1.166-.573-.106,0-.161.035-.2.214-.071.359-.071.412-.161.842-.018.126-.035.232.071.232m1.362,7.595c.375,1.559,2.31,1.9,3.671,1.9.306,0,1.665-.124,1.951-.124.61,0,1.435.3,1.435.894,0,.52-.663.609-2.186.609-2.9,0-5.318-.734-5.318-2.99,0-.412.106-.787.251-.787.071,0,.177.448.2.5M500.407,275c1.7,0,2.99.5,2.99,1.29,0,.428-.375.428-.518.428-.159,0-.86-.053-1-.053a2.993,2.993,0,0,0-1.325.288,3.173,3.173,0,0,1-.752.232c-.035,0-.09,0-.09-.055,0-.124.932-.805.932-1,0-.269-1.274-.288-1.541-.288a10.655,10.655,0,0,0-1.288.072c-.109.018-.522.071-.591.071-.019,0-.145,0-.163-.034-.126-.234,1.433-.95,3.349-.95" transform="translate(-256.496 -131.783)" fill="#fff"/>
  <path id="パス_33762" data-name="パス 33762" d="M508.806,272.367c-.108,0-.232,0-.232.089,0,.071.053.09.536.324.161.089.288.213.288.285,0,.108-.5.4-.592.465a9.828,9.828,0,0,1-1.81,1.452,12.8,12.8,0,0,1-4.387,1.7c-.018,0-.089,0-.089-.035,0-.072.375-.269.5-.34,1.29-.681,1.969-1.038,2.579-1.435,1.881-1.253,2.095-2.166,2.095-2.291,0-.214-.161-.214-.3-.214h-2.185c-.287,0-.412.034-.465.428-.072.538-.216,1.684-1.309,1.684a.607.607,0,0,1-.678-.573,1.125,1.125,0,0,1,.356-.734,3.3,3.3,0,0,0,.824-1.361,5.456,5.456,0,0,1,.3-.985c.127,0,.233.375.377.752.108.3.269.3.52.3h4.441c.145,0,.5,0,.5-.412,0-.179-.053-.591-.089-.913a5.853,5.853,0,0,1-.108-.591c0-.143.09-.18.253-.18.142,0,.876.145,1.074.18.3.055.448.089.448.269,0,.072-.269.357-.306.411a1.388,1.388,0,0,0-.126.7c0,.377.055.538.538.538h4.083a.779.779,0,0,0,.5-.126c.073-.053.359-.465.448-.465.18,0,1.737,1.146,1.737,1.433,0,.357-.448.411-.554.411-.163,0-.877-.124-1.058-.124a1.739,1.739,0,0,0-1.146.377c-.3.2-.377.25-.377.179a5.37,5.37,0,0,0,.591-1.04c0-.159-.2-.159-.34-.159h-2.723c-.322,0-.483.089-.518.34-.018.072-.018,1.021-.018,1.182,0,.771.071,1.056,1.629,1.056.377,0,1.415,0,1.737-.053a.949.949,0,0,0,.787-.43c.108-.143.573-1.129.573-1.129.018,0,.037.055.037.071.018.09.09.555.124.663a5.641,5.641,0,0,1,.412.878c0,1.093-2.615,1.093-3.259,1.093-3.135,0-3.135-.61-3.135-1.344,0-.25.037-1.486.037-1.755s0-.572-.522-.572Zm-3.726,10.226c0,.915-.43,2.417-1.414,2.417A.586.586,0,0,1,503,284.4c0-.285.053-.34.591-.86a5.78,5.78,0,0,0,1.164-1.934c.018-.053.072-.161.108-.161.124,0,.214.842.214,1.146m8.614-4.191c.646-.053.718-.071.718-.179,0-.233-1.219-1.237-1.219-1.29,0-.035.055-.035.072-.035.035,0,3.565,1.038,3.565,2.811,0,.324-.2.7-.522.7-.232,0-.232-.018-.75-.787-.306-.465-.628-.95-.95-.95-.018,0-9.187,1.343-9.384,1.415a3.689,3.689,0,0,1-.61.251c-.34,0-.717-1.613-.717-1.7,0-.071.071-.071.126-.071.089,0,.5.071.61.09a9.178,9.178,0,0,0,1.216.053c.665,0,.877,0,1.111-.232a13.37,13.37,0,0,0,1.737-2.723,5.568,5.568,0,0,1,.448-1.092c.053,0,1.486.894,1.486,1.146,0,.106-.106.179-.159.213-.073.056-.467.2-.555.253-.108.071-2.526,2.149-2.526,2.273,0,.108.161.108.377.108,1.163,0,4.764-.143,5.927-.251m-6.392,2.275c.143,0,1.468.572,1.468.787,0,.09-.322.412-.359.485a1.3,1.3,0,0,0-.089.681c0,1.771,0,1.861,2.185,1.861,2.525,0,2.668-.232,2.955-.734.108-.2.485-1.306.555-1.306.053,0,.073.2.089.3.11.95.2,1.056.412,1.29.216.251.306.341.306.5,0,.932-2.868,1-3.745,1-2.774,0-3.133-.214-3.4-.448-.428-.357-.428-.5-.428-1.934,0-.071.016-1.4-.037-1.79-.019-.09-.072-.43-.072-.5,0-.035,0-.126.037-.161a.153.153,0,0,1,.126-.035m5,1.325a.77.77,0,0,1-.644.824c-.431,0-.555-.432-.663-.787a5.282,5.282,0,0,0-.968-1.737c-.053-.055-.089-.109-.053-.143.09-.126,2.328.572,2.328,1.844m3.977-.322c1.665,1.146,1.718,1.773,1.718,2.31,0,.734-.465,1.164-.86,1.164s-.428-.145-.752-1.559a5.942,5.942,0,0,0-1.038-2.31c-.053-.09-.09-.161-.071-.179.071-.071.9.5,1,.573" transform="translate(-249.164 -132.055)" fill="#fff"/>
  <path id="パス_33763" data-name="パス 33763" d="M520.268,275.6c.143,0,.356,0,.446-.109.234-.25.288-.322.448-.322.18,0,1.04.628,1.04.878,0,.126-.053.179-.251.375a.6.6,0,0,0-.2.378,21.632,21.632,0,0,1-.968,3.492c-.09.216-.591,1.253-.591,1.343,0,.126.072.2.716.77a6.961,6.961,0,0,0,4.8,1.541,22.73,22.73,0,0,0,5.659-.394c.2-.053,1.058-.322,1.2-.322a.04.04,0,0,1,.037.035c-.053.071-.5.646-.538.681a13.316,13.316,0,0,0-.556,1.235,11.645,11.645,0,0,1-3.1.251c-4.961,0-6.123-.485-8.363-2.6-.106-.108-.322-.3-.394-.3a.389.389,0,0,0-.25.143c-.055.053-.324.393-.377.465a6.9,6.9,0,0,1-2.937,2.187c0-.09,1.539-1.666,1.808-2.006a5.2,5.2,0,0,0,1.056-1.684c0-.143-.035-.2-.269-.609a8.242,8.242,0,0,1-.877-2.831c0-.09.055-.179.108-.179.108,0,.324.807.377.966.161.395.752,1.684,1.056,1.684.161,0,.359-.626.5-1.056a19.917,19.917,0,0,0,.768-3.206c0-.34-.213-.34-.481-.34h-.734c-.324,0-.465.071-.555.393-.163.663-.306.985-1.021.985-.163,0-.485-.035-.485-.3a13.464,13.464,0,0,1,.412-1.362,34.808,34.808,0,0,0,1.253-4.244c0-.161-.124-.251-.322-.251-.322,0-1.27.055-1.575.072-.037,0-.216.018-.251.018a.2.2,0,0,1-.161-.108l-.341-.412c-.053-.071-.089-.089-.089-.126s.035-.035.071-.035c.322,0,1.863.108,2.222.108a.559.559,0,0,0,.519-.232c.377-.465.412-.522.573-.522.108,0,1.056.628,1.056.934,0,.124-.018.159-.322.357a.6.6,0,0,0-.25.3c-.072.232-1.021,3.565-1.021,3.724,0,.2.2.235.34.235Zm4.117,6.376a.463.463,0,0,0-.481.25c-.143.395-.287.752-.861.752-.448,0-.448-.267-.448-.412,0-.089.037-.555.037-.662.053-1.237.071-2.22.071-4.5,0-.987,0-5.23-.035-6.054,0-.106-.106-.877-.106-.913,0-.055,0-.161.106-.161a8.549,8.549,0,0,1,.878.34,1.815,1.815,0,0,0,.787.179h5.41a.8.8,0,0,0,.538-.143c.053-.035.338-.357.428-.357.126,0,1.254.752,1.254,1.127a.253.253,0,0,1-.142.216,3,3,0,0,0-.412.341c-.073.143-.073,2.6-.073,2.955,0,2.275,0,2.866.106,5.481,0,.214.072,1.235.072,1.468a.8.8,0,0,1-.807.878c-.412,0-.465-.179-.556-.465-.106-.322-.3-.322-.554-.322Zm.037-10.712c-.519,0-.626.126-.626.7v6.466c0,.913,0,2.633.018,2.74.073.3.25.34.609.34H529.6c.465,0,.626-.09.626-.626.018-1.272,0-7.542,0-8.957,0-.572-.143-.662-.626-.662Zm2.83,1.845c.269,0,.322-.018.465-.214.089-.145.269-.395.447-.395.216,0,1.021.717,1.021.984,0,.126-.037.145-.377.341-.2.108-.2.5-.2.662,0,.771.108,4.55.108,4.927a.709.709,0,0,1-.662.805c-.485,0-.485-.446-.485-.591,0-.412-.143-.412-.485-.412h-.5c-.325,0-.341.2-.359.485a.716.716,0,0,1-.754.662c-.322,0-.375-.2-.375-.357,0-.072.053-.5.053-.591.019-.288.019-.663.019-.9,0-3.6,0-3.689-.037-4.476,0-.179-.106-.932-.106-1.093,0-.089,0-.287.214-.287.126,0,.161.018.554.233a1.37,1.37,0,0,0,.791.214Zm-.09,5.624c.2,0,.412,0,.485-.269.018-.035.034-4.03.034-4.352,0-.538-.25-.538-.518-.538h-.518c-.233,0-.431.055-.5.3-.019.09-.019,2.383-.019,2.687a16.984,16.984,0,0,0,.072,1.988.5.5,0,0,0,.449.179Z" transform="translate(-240.882 -131.899)" fill="#fff"/>
  <path id="パス_33764" data-name="パス 33764" d="M534.594,273.23c-1.523,0-2.956,2.507-2.956,4.405a3.667,3.667,0,0,0,.235,1.327,1.765,1.765,0,0,1,.159.678.6.6,0,0,1-.642.646c-.826,0-1.22-1.486-1.22-2.9a16.027,16.027,0,0,1,.324-2.847,12.167,12.167,0,0,0,.267-2.293,1.991,1.991,0,0,0-.23-1.111c-.037-.072-.306-.428-.306-.465a.724.724,0,0,1,.483-.126,1.383,1.383,0,0,1,1.378,1.2,11.518,11.518,0,0,1-.374,1.325,18.781,18.781,0,0,0-.394,2.222c0,.053,0,.251.143.251.089,0,.2-.216.322-.449.195-.393,1.414-2.65,3.3-2.65,1.108,0,2.307.591,2.307,4.352,0,2.525-.5,5.392-3.9,7.414a4.644,4.644,0,0,1-1.288.593c-.037,0-.071-.018-.071-.055,0-.053.034-.089.444-.395,2.938-2.22,3.476-4.3,3.476-7.951,0-1.971-.357-3.17-1.451-3.17" transform="translate(-232.296 -131.593)" fill="#fff"/>
  <path id="パス_33765" data-name="パス 33765" d="M547.367,275.537a.967.967,0,0,0,.985-.538c1.039-1.4,1.164-1.971,1.164-2.1,0-.25-.179-.25-.357-.25H542c-.412,0-1.649,0-2.277.053-.053,0-.322.035-.375.035s-.09-.035-.161-.106l-.34-.412c-.072-.09-.072-.09-.072-.126s.018-.037.053-.037c.126,0,.681.055.807.055.807.035,1.612.072,2.436.072h3.278c.5,0,.5-.324.5-.844a7.172,7.172,0,0,0-.072-1.037,2.327,2.327,0,0,1-.073-.324.2.2,0,0,1,.233-.2c.09,0,1.757.253,1.757.592,0,.126-.359.52-.394.609a.915.915,0,0,0-.071.465c0,.394,0,.736.536.736H551.2c.861,0,.987,0,1.344-.5.108-.143.393-.518.626-.518.375,0,1.435,1.074,1.435,1.233,0,.253-.306.253-.807.253h-2.992c-.2,0-.232,0-.232.072,0,.053.034.069.356.25.216.106.4.216.4.375,0,.2-.2.251-.4.306-.3.089-.322.106-1.7,1.325-.412.359-.465.393-.465.446,0,.109.072.109.285.109h2.7c.394,0,.467-.037.61-.216.3-.393.34-.43.43-.43.142,0,1.468.86,1.468,1.164,0,.09-.018.2-.306.375-.356.233-.428.431-.428,1.344,0,.626.089,3.384.089,3.941,0,2.631-.053,3.312-.357,3.724a1.623,1.623,0,0,1-1.217.538c-.251,0-.251-.035-.288-.431-.034-.465-.322-.554-1.109-.823-.34-.108-.377-.126-.377-.214s.09-.126.216-.126.662.053.77.053c.52,0,.807,0,.948-.375a42.58,42.58,0,0,0,.143-4.442c0-.628-.016-3.135-.071-3.3-.073-.306-.285-.322-.52-.322h-2.811c-.538,0-.538.214-.538.877,0,1.182,0,1.272.968,1.272.752,0,1.182,0,1.4-.789.106-.43.126-.483.216-.483.071,0,.2.126.25.538a1.086,1.086,0,0,0,.251.626c.2.179.214.214.214.287a1,1,0,0,1-.644.752,3.3,3.3,0,0,1-1.47.179c-1.916,0-2.346-.09-2.346-1.863,0-1.253,0-1.4-.573-1.4h-1.092c-.019,0-.072.016-.072.053a5.091,5.091,0,0,1,.609.966c0,.109-.018.127-.5.233-.233.055-.842.985-.985,1.146a5.642,5.642,0,0,1-2.525,1.684c-.09,0-.163-.053-.163-.108s.7-.626.824-.752a5.451,5.451,0,0,0,1.469-2.811c0-.4-.285-.412-.483-.412h-2.291c-.522,0-.522.3-.522.626,0,.071-.016,5.426-.016,6.447,0,.322.072,1.721.072,2.006,0,.306,0,.931-.915.931-.5,0-.5-.3-.5-.481,0-.126.071-1.183.071-1.415.071-3.009.071-4.03.071-4.729,0-.644,0-2.132-.089-3.547,0-.124-.108-.679-.108-.805,0-.09.108-.09.126-.09a4.972,4.972,0,0,1,.878.412,1.635,1.635,0,0,0,.842.18H543.3c.126,0,.251,0,.251-.216a5.238,5.238,0,0,0-.52-1.4,6.73,6.73,0,0,1-.681-1.13c0-.053.072-.053.09-.053.322,0,2.222.877,2.222,1.7a1.579,1.579,0,0,1-.2.734c-.108.179-.124.2-.124.25,0,.109.106.109.232.109Zm-2.095,8.149c-.377,0-.43.108-.465.34-.037.322-.09.787-.807.787-.322,0-.43-.106-.43-.428,0-.359.037-2.114.037-2.508,0-.269-.073-1.594-.073-1.647,0-.09,0-.126.126-.126.179,0,.232.035.77.233a2.054,2.054,0,0,0,.77.124h2.562a.812.812,0,0,0,.61-.159c.069-.055.375-.359.465-.359.035,0,1.216.43,1.216.824,0,.126-.034.159-.375.448-.106.071-.161.179-.161.572,0,.019.035,1.881.035,2.24,0,.518-.662.555-.787.555-.5,0-.5-.2-.52-.609,0-.287-.285-.287-.465-.287Zm-.018-2.74c-.52,0-.52.269-.52.805,0,1.307,0,1.451.52,1.451h2.56c.52,0,.538-.214.538-1.253,0-.754,0-1-.518-1Z" transform="translate(-227.048 -132.055)" fill="#fff"/>
  <path id="パス_33766" data-name="パス 33766" d="M554.849,284.217c-.2,0-.5,0-.536.34s-.09.966-.932.966c-.393,0-.518-.25-.518-.644,0-.538.106-3.152.106-3.743,0-.214,0-1.327-.053-1.9-.018-.143-.09-.824-.09-.877,0-.126.019-.163.126-.163a4.1,4.1,0,0,1,1.127.412,1.462,1.462,0,0,0,.734.143h2.312c.824,0,.931.019,1.074-.214.234-.357.251-.394.394-.394s1.38.628,1.38,1c0,.143-.18.269-.4.449-.25.212-.25.572-.25,1.074,0,.465.053,2.776.053,3.294,0,.412,0,1.093-.77,1.093-.465,0-.5-.322-.536-.591-.037-.25-.269-.25-.5-.25Zm2.794-.467a.448.448,0,0,0,.485-.5v-3.473c0-.538-.3-.538-.628-.538h-2.794c-.448,0-.538.2-.538.591,0,.483.108,2.668.108,3.117,0,.518,0,.805.52.805Zm4.532-12.948c.823,0,.913,0,1.056-.216.269-.412.3-.465.465-.465.179,0,1.219.716,1.219,1.038,0,.18-.053.214-.359.393-.2.127-.2.324-.2.522,0,.518.108,2.9.108,3.24,0,.359,0,.969-.807.969-.161,0-.448-.037-.483-.288-.037-.393-.053-.465-.485-.465h-5.283c-.269,0-.359.019-.43.287-.108.359-.179.644-.787.644-.575,0-.591-.267-.591-.518,0-.359.089-2.1.089-2.489a20.508,20.508,0,0,0-.108-2.65,4.185,4.185,0,0,1-.179-.5c0-.09.089-.106.143-.106a5.235,5.235,0,0,1,1.4.5,1.43,1.43,0,0,0,.626.108Zm.518,4.262c.485,0,.52-.287.52-.573,0-.179-.018-2.686-.035-2.811-.037-.394-.377-.394-.538-.394h-5.157c-.538,0-.556.287-.556.679,0,.879,0,2.169.034,2.652.019.448.359.448.556.448Zm.035,9.153a.41.41,0,0,0-.481.412c-.019.393-.056.894-.879.894-.377,0-.52-.25-.52-.644,0-.538.127-3.17.127-3.779,0-.145,0-1.4-.055-1.953-.018-.126-.108-.77-.108-.913,0-.126.035-.143.143-.143a2.676,2.676,0,0,1,1.022.359,1.691,1.691,0,0,0,.823.179h2.149c.842,0,.931,0,1.074-.233.216-.341.251-.377.359-.377.071,0,1.486.644,1.486,1.093,0,.161-.037.2-.43.5-.216.18-.216.538-.216.878,0,.5.072,2.937.072,3.475,0,.43,0,1.146-.932,1.146-.428,0-.428-.232-.446-.538,0-.034-.019-.356-.431-.356Zm-.035-5.123c-.536,0-.536.269-.536.734,0,.448.053,2.4.053,2.811,0,.968,0,1.111.518,1.111h2.742c.448,0,.518-.2.518-.646,0-.518-.053-2.811-.053-3.277s0-.734-.52-.734Z" transform="translate(-218.474 -131.851)" fill="#fff"/>
  <path id="パス_33767" data-name="パス 33767" d="M351.979,293.832c.7.431.771.5.771.663,0,.108-.2.609-.216.717a17.364,17.364,0,0,0-.108,3.17c0,.483.018,1.451.055,2.149.018.214.126,1.253.126,1.486,0,.179,0,.787-.431.787-.5,0-1.109-.77-1.109-1.253,0-.179.179-.968.2-1.146.106-.968.177-2.346.177-3.3,0-.644,0-2.525-.465-2.525-.09,0-.161.071-.3.216a19.731,19.731,0,0,1-5.086,3.42c-.053,0-.089-.037-.089-.108a.161.161,0,0,1,.053-.126c.465-.412.966-.824,1.253-1.074,4.228-3.618,5.624-6.664,5.624-7.165a1.019,1.019,0,0,0-.143-.5,1.93,1.93,0,0,1-.126-.285.179.179,0,0,1,.18-.143c.269,0,2.077.754,2.077,1.431a.453.453,0,0,1-.161.359,5.13,5.13,0,0,0-1.219,1.468c-.3.431-.877,1.076-1.217,1.505a.29.29,0,0,0,.161.25" transform="translate(-344.961 -120.444)" fill="#fff"/>
  <path id="パス_33768" data-name="パス 33768" d="M360.447,298.617a12.75,12.75,0,0,0-1.755,1.468c-.341.412-.377.449-.644.449-.968,0-2.293-1.146-2.293-1.864,0-.124.018-.947.179-.947a4.469,4.469,0,0,1,.536.338,2.969,2.969,0,0,0,1.219.412c.878,0,5.622-3.169,8.6-6.107.288-.285.789-.787.824-.787a.114.114,0,0,1,.089.09c0,.159-2.093,3.508-6.751,6.948m-1.468-5.891c-.485,0-.663-.287-1.253-1.182a4.017,4.017,0,0,0-1.631-1.468c-.072-.037-.161-.09-.161-.163s.143-.161.395-.161c1.916,0,3.421,1.021,3.421,2.077a.793.793,0,0,1-.771.9" transform="translate(-338.703 -119.874)" fill="#fff"/>
  <path id="パス_33769" data-name="パス 33769" d="M374.283,295.326c0,.124-.432.465-.485.554-.055.071-.734,1.72-.9,2.024a8.869,8.869,0,0,1-4.746,4.6c-.071,0-.106-.034-.106-.089a12.567,12.567,0,0,1,.947-.9,12.082,12.082,0,0,0,3.512-6.751c0-.216-.035-.538-.43-.538a21.873,21.873,0,0,0-2.847.538,11.691,11.691,0,0,1-1.29.322,1.568,1.568,0,0,1-1.415-1.362c0-.106.034-.179.124-.179a1.6,1.6,0,0,1,.269.09,5.533,5.533,0,0,0,1.13.126c1.146,0,5.783-.5,7.038-.681.216-.037,1.146-.322,1.343-.322.214,0,2.256.393,2.256,1.127,0,.324-.287.43-.517.43-.2,0-1.076-.142-1.256-.161-.375-.035-.876-.09-1.272-.09a15.142,15.142,0,0,0-1.808.055.217.217,0,0,0-.126.267,5.553,5.553,0,0,1,.575.934m-3.977-5.267a11.009,11.009,0,0,0,2.542-.448,7.3,7.3,0,0,1,1.435-.216c.375,0,1.021.072,1.021.591s-.306.555-1.362.663c-.915.108-2.114.34-2.383.393-.09.019-.787.163-.84.163-.878,0-1.433-1.253-1.343-1.29.106.018.823.143.931.143" transform="translate(-332.131 -120.091)" fill="#fff"/>
  <path id="パス_33770" data-name="パス 33770" d="M378.808,289.763c.43,0,1.414.626,1.414.932,0,.089-.034.5-.034.591,0,2.077.034,3.689.053,4.117.018.216.106,1.113.106,1.291,0,.465-.411.915-.679.915-.394,0-.805-.95-.805-1.415,0-.143.089-.754.089-.9.035-.805.035-1.505.035-1.827,0-2-.09-2.417-.646-3.061-.143-.163-.232-.269-.232-.412,0-.126.288-.233.7-.233m4.925-.5c-.216-.287-.233-.322-.233-.357,0-.053,0-.108.52-.108,1.076,0,1.969.448,1.969.913a6.954,6.954,0,0,1-.179.718c-.071.481-.09,3.169-.143,3.8a11.326,11.326,0,0,1-4.478,8.31,7.079,7.079,0,0,1-1.612,1.056c-.071,0-.106-.035-.106-.089,0-.072,1.162-1.219,1.378-1.452,3.455-3.689,3.582-6.8,3.582-10.387a3.431,3.431,0,0,0-.7-2.4" transform="translate(-325.065 -120.458)" fill="#fff"/>
  <path id="パス_33771" data-name="パス 33771" d="M388.418,290.941a7.648,7.648,0,0,0,1.127.072,53.222,53.222,0,0,0,7.416-1.04,6.25,6.25,0,0,1,.734-.411,4.739,4.739,0,0,1,2.112,2.328c0,.126,0,.322-.625.465-.628.126-3.368,1.129-3.745,1.631a10.034,10.034,0,0,0-.913,2.291,9.773,9.773,0,0,1-4.513,5.534,4.644,4.644,0,0,1-1.235.52c-.072,0-.109-.035-.109-.089s.037-.09.359-.341a12.192,12.192,0,0,0,3.206-3.331,8.172,8.172,0,0,0,1.343-3.922,2.3,2.3,0,0,0-.232-1.058c-.143-.285-.161-.322-.161-.393,0-.145.269-.161.375-.161a2.66,2.66,0,0,1,.968.161,5.321,5.321,0,0,0,.7.233,4.86,4.86,0,0,0,2.22-2.186c0-.126-.108-.269-.34-.269a31.47,31.47,0,0,0-6.394,1.111,13.493,13.493,0,0,1-1.505.52c-.428,0-1.827-1.146-1.827-1.773,0-.037.037-.072.127-.072.053,0,.77.161.913.179" transform="translate(-319.411 -119.989)" fill="#fff"/>
  <path id="パス_33772" data-name="パス 33772" d="M407.958,293.723a.967.967,0,0,0,.985-.538c1.039-1.4,1.164-1.971,1.164-2.1,0-.25-.179-.25-.357-.25h-7.163c-.412,0-1.649,0-2.277.053-.053,0-.322.035-.375.035s-.09-.035-.161-.106l-.34-.412c-.072-.09-.072-.09-.072-.126s.018-.037.053-.037c.126,0,.681.055.807.055.807.035,1.612.072,2.436.072h3.278c.5,0,.5-.324.5-.844a7.162,7.162,0,0,0-.072-1.037,2.335,2.335,0,0,1-.072-.324.2.2,0,0,1,.233-.2c.09,0,1.757.253,1.757.593,0,.126-.359.52-.394.609a.913.913,0,0,0-.071.465c0,.395,0,.736.536.736h3.438c.861,0,.987,0,1.344-.5.108-.143.393-.518.626-.518.375,0,1.435,1.074,1.435,1.233,0,.253-.306.253-.807.253H411.4c-.2,0-.232,0-.232.072,0,.053.034.069.356.25.216.106.4.216.4.375,0,.2-.2.251-.4.306-.3.089-.322.106-1.7,1.325-.412.359-.465.393-.465.446,0,.109.072.109.285.109h2.7c.395,0,.467-.037.61-.216.3-.393.34-.43.43-.43.142,0,1.468.86,1.468,1.164,0,.09-.018.2-.306.375-.356.233-.428.432-.428,1.344,0,.626.089,3.384.089,3.941,0,2.631-.053,3.312-.357,3.724a1.623,1.623,0,0,1-1.217.538c-.251,0-.251-.035-.288-.431-.034-.465-.322-.554-1.109-.823-.34-.108-.377-.126-.377-.214s.09-.126.216-.126.662.053.77.053c.52,0,.807,0,.948-.375a42.6,42.6,0,0,0,.143-4.442c0-.628-.016-3.135-.071-3.3-.072-.306-.287-.322-.52-.322h-2.811c-.538,0-.538.214-.538.878,0,1.182,0,1.272.968,1.272.752,0,1.182,0,1.4-.789.106-.43.126-.483.216-.483.071,0,.2.126.25.538a1.085,1.085,0,0,0,.251.626c.2.179.214.214.214.287a1,1,0,0,1-.644.752,3.3,3.3,0,0,1-1.47.179c-1.916,0-2.346-.09-2.346-1.863,0-1.253,0-1.4-.573-1.4h-1.092c-.019,0-.072.016-.072.053a5.092,5.092,0,0,1,.609.966c0,.109-.018.127-.5.233-.233.055-.842.985-.985,1.146a5.641,5.641,0,0,1-2.525,1.684c-.09,0-.163-.053-.163-.108s.7-.626.824-.752a5.452,5.452,0,0,0,1.468-2.811c0-.4-.285-.412-.483-.412h-2.291c-.522,0-.522.3-.522.626,0,.071-.016,5.426-.016,6.447,0,.322.073,1.721.073,2.006,0,.306,0,.931-.915.931-.5,0-.5-.3-.5-.481,0-.126.071-1.183.071-1.415.071-3.009.071-4.03.071-4.729,0-.644,0-2.132-.089-3.547,0-.124-.108-.679-.108-.805,0-.09.108-.09.126-.09a4.905,4.905,0,0,1,.876.412,1.645,1.645,0,0,0,.844.18h1.934c.126,0,.251,0,.251-.216a5.236,5.236,0,0,0-.52-1.4,6.734,6.734,0,0,1-.681-1.13c0-.053.073-.053.09-.053.322,0,2.222.877,2.222,1.7a1.578,1.578,0,0,1-.2.734c-.108.179-.124.2-.124.25,0,.109.106.109.232.109Zm-2.095,8.149c-.377,0-.43.108-.465.34-.037.322-.09.787-.807.787-.322,0-.43-.106-.43-.428,0-.359.037-2.114.037-2.509,0-.269-.072-1.594-.072-1.647,0-.09,0-.126.126-.126.179,0,.232.035.77.233a2.055,2.055,0,0,0,.77.124h2.562a.811.811,0,0,0,.61-.159c.069-.055.375-.359.465-.359.035,0,1.216.43,1.216.824,0,.126-.034.159-.375.448-.106.071-.161.179-.161.572,0,.019.035,1.881.035,2.24,0,.518-.662.555-.787.555-.5,0-.5-.2-.52-.609,0-.287-.285-.287-.465-.287Zm-.018-2.74c-.52,0-.52.269-.52.805,0,1.307,0,1.451.52,1.451h2.56c.52,0,.538-.214.538-1.253,0-.753,0-1-.518-1Z" transform="translate(-312.099 -120.96)" fill="#fff"/>
  <path id="パス_33773" data-name="パス 33773" d="M415.885,302.4c-.2,0-.5,0-.536.34s-.09.966-.932.966c-.393,0-.518-.25-.518-.644,0-.538.106-3.152.106-3.743,0-.214,0-1.327-.053-1.9-.018-.143-.09-.824-.09-.877,0-.126.018-.163.126-.163a4.1,4.1,0,0,1,1.127.412,1.462,1.462,0,0,0,.734.143h2.312c.824,0,.931.019,1.074-.214.233-.357.251-.394.395-.394s1.38.628,1.38,1c0,.143-.18.269-.4.449-.25.213-.25.572-.25,1.074,0,.465.053,2.776.053,3.294,0,.412,0,1.093-.77,1.093-.465,0-.5-.322-.536-.591-.037-.25-.269-.25-.5-.25Zm2.793-.467a.448.448,0,0,0,.485-.5V297.96c0-.538-.3-.538-.628-.538h-2.794c-.448,0-.538.2-.538.591,0,.483.108,2.668.108,3.117,0,.518,0,.805.52.805Zm4.532-12.948c.823,0,.913,0,1.056-.216.269-.412.3-.465.465-.465.179,0,1.219.716,1.219,1.039,0,.18-.053.214-.359.393-.2.127-.2.324-.2.522,0,.518.108,2.9.108,3.239,0,.359,0,.969-.807.969-.161,0-.448-.037-.483-.288-.037-.393-.053-.465-.485-.465h-5.283c-.269,0-.359.019-.43.287-.108.359-.179.644-.787.644-.575,0-.591-.267-.591-.518,0-.359.089-2.1.089-2.489a20.491,20.491,0,0,0-.108-2.65,4.192,4.192,0,0,1-.179-.5c0-.09.089-.106.143-.106a5.233,5.233,0,0,1,1.4.5,1.43,1.43,0,0,0,.626.108Zm.518,4.262c.485,0,.52-.287.52-.573,0-.179-.018-2.686-.035-2.811-.037-.394-.377-.394-.538-.394h-5.157c-.538,0-.556.287-.556.679,0,.879,0,2.169.034,2.652.019.448.359.448.555.448Zm.035,9.153a.41.41,0,0,0-.481.412c-.019.393-.056.894-.879.894-.377,0-.52-.25-.52-.644,0-.538.127-3.17.127-3.779,0-.145,0-1.4-.055-1.953-.018-.126-.108-.77-.108-.913,0-.126.035-.143.143-.143a2.676,2.676,0,0,1,1.022.359,1.691,1.691,0,0,0,.823.179h2.149c.842,0,.931,0,1.074-.233.216-.341.251-.377.359-.377.071,0,1.486.644,1.486,1.093,0,.161-.037.2-.43.5-.216.18-.216.538-.216.878,0,.5.072,2.937.072,3.475,0,.43,0,1.146-.932,1.146-.428,0-.428-.232-.446-.538,0-.034-.019-.356-.431-.356Zm-.035-5.123c-.536,0-.536.269-.536.734,0,.448.053,2.4.053,2.811,0,.968,0,1.111.518,1.111h2.742c.448,0,.518-.2.518-.646,0-.518-.053-2.811-.053-3.277s0-.734-.52-.734Z" transform="translate(-303.253 -120.756)" fill="#fff"/>
  <path id="パス_33774" data-name="パス 33774" d="M434.466,290.217c0,.053.035.125.035.2a13.623,13.623,0,0,1,.179,1.934,9.187,9.187,0,0,1-1.844,5.249c-1.433,2.183-2.346,2.615-3.064,2.615-1.18,0-2.236-1.845-2.236-4.03a6.31,6.31,0,0,1,1.987-4.568,7.412,7.412,0,0,1,5.714-2.327,5.856,5.856,0,0,1,2.882.572,5.615,5.615,0,0,1,3.116,5.214,6.68,6.68,0,0,1-4.511,6.3,11.01,11.01,0,0,1-2.974.663c-.071,0-.179-.019-.179-.126,0-.055.035-.072.483-.253,1.863-.734,5.75-2.273,5.75-6.732a4.612,4.612,0,0,0-4.961-4.962c-.359,0-.377.145-.377.251m-5.82,5.5c0,1.164.465,2.758,1.559,2.758.518,0,.948-.216,2.183-2.077a10.246,10.246,0,0,0,1.757-5.212c0-1.074-.073-1.164-.3-1.164-1.7,0-5.194,2.309-5.194,5.695" transform="translate(-294.911 -120.158)" fill="#fff"/>
  <path id="パス_33775" data-name="パス 33775" d="M443.118,299.7c-.089,0-.538.019-.538.324,0,.126,1.166.716,1.166.948,0,.09-.09.143-.145.161a1.429,1.429,0,0,0-.483.324c-1.72,1.845-3.009,2.328-3.009,2.257,0-.055.771-1.058.9-1.219a6.7,6.7,0,0,0,1.217-2.185c0-.018,0-.072-.053-.072-.018,0-.324.072-.377.072-.375,0-.428-.377-.428-.681,0-.214.106-1.737.106-2.059.09-2.937.09-3.8.09-4.837,0-1.718-.055-2.362-.072-2.793-.018-.161-.161-.968-.161-1.146,0-.053,0-.214.143-.214.269,0,.412.071,1,.393a1.444,1.444,0,0,0,.771.163h.913a.7.7,0,0,0,.609-.269c.232-.251.287-.306.428-.306.216,0,1.433.718,1.433,1.058a.319.319,0,0,1-.161.232,3.993,3.993,0,0,0-.395.306c-.089.161-.124,2.919-.124,3.312,0,.2.053,5.41.053,5.732,0,.3,0,1.076-.948,1.076-.233,0-.287-.143-.34-.306-.09-.232-.253-.269-.5-.269Zm.108-3.24c-.555,0-.555.143-.555,1.826,0,.679,0,.948.538.948h1.04c.554,0,.554-.106.554-2.04,0-.412,0-.734-.538-.734Zm.019-3.458c-.555,0-.555.126-.555,1.934,0,.791,0,1.058.536,1.058H444.3c.536,0,.536-.233.536-1.111,0-.2,0-1.5-.035-1.628a.5.5,0,0,0-.5-.253Zm.016-3.4c-.554,0-.554.106-.554,1.881,0,.787,0,1.039.554,1.039h1.04c.536,0,.536-.214.536-1.074,0-1.739,0-1.845-.536-1.845Zm1.631,10.961c.644.483,1.27.966,1.27,1.863a.716.716,0,0,1-.681.768c-.34,0-.393-.124-.7-1.27a6.614,6.614,0,0,0-.7-1.594c-.072-.126-.106-.216-.072-.251.09-.108.789.412.879.485m7.593-11.23c.823,0,.86,0,1.182-.5.161-.232.538-.7.717-.7.126,0,.412.269,1.164.84.485.377.538.432.538.575,0,.25-.09.25-.95.25h-5.318c-.43,0-.555.179-.555.555,0,.232,0,2.275.018,2.381.053.253.214.359.573.359h2.884a.789.789,0,0,0,.7-.25c.214-.341.269-.449.448-.449a5.133,5.133,0,0,1,1.773,1.111c0,.2-.842.681-.932.84-.016.055-1.092,3.262-1.343,3.871a9.554,9.554,0,0,0-.61,1.4c0,.5,1.6,1.828,2.76,2.454.377.2,1.038.43,1.451.609.035.018.179.09.179.143,0,.09-.375.126-.628.143a2.37,2.37,0,0,0-1.484.591c-.143.108-.2.143-.251.143a8.961,8.961,0,0,1-2.471-2.507c-.108-.161-.216-.322-.394-.322a.481.481,0,0,0-.359.233,8.676,8.676,0,0,1-3.618,2.56,6.335,6.335,0,0,1-.931.3.065.065,0,0,1-.073-.053c0-.055.019-.072.216-.2,2.813-1.881,3.959-3.69,3.959-4.085a15.913,15.913,0,0,0-.573-1.683,16.121,16.121,0,0,1-.718-4.014c-.016-.106-.053-.375-.3-.375-.269,0-.288.322-.288.538-.034,1.665-.106,6.358-2.327,8.741a4.405,4.405,0,0,1-1.362,1.019c-.072,0-.053-.035.216-.375,1.486-1.881,2.328-4.049,2.328-9.725,0-.485,0-2.919-.126-3.977-.019-.161-.163-.842-.163-.985,0-.106.109-.106.163-.106a2.46,2.46,0,0,1,1.109.465,1.3,1.3,0,0,0,.7.179Zm-1.827,4.226c-.25,0-.412.053-.412.322,0,1.219,1.29,4.711,1.72,4.711.467,0,1.433-4.405,1.433-4.639,0-.395-.322-.395-.448-.395Z" transform="translate(-287.24 -120.865)" fill="#fff"/>
  <path id="パス_33776" data-name="パス 33776" d="M457.351,295.742c-.357,0-.357.072-.412.628-.089.84-.77,2.15-1.682,2.15a.673.673,0,0,1-.716-.681c0-.322.09-.43.752-1.38a2.711,2.711,0,0,0,.5-1.522c0-.072-.089-.43-.089-.5a.2.2,0,0,1,.2-.2c.2,0,.715.77.858.9a.793.793,0,0,0,.555.143h9.617c.575,0,.7,0,.9-.126.106-.071.573-.465.7-.465.2,0,1.863,1,1.863,1.325,0,.341-.52.394-.717.412a4.434,4.434,0,0,0-1.523.395,5.394,5.394,0,0,1-.842.43c-.053,0-.143-.018-.143-.108a13.492,13.492,0,0,0,.7-1.272s0-.126-.267-.126Zm3.708,1.182c.2.072.375.143.375.286,0,.109-.357.449-.375.538-.09.251-.2,1.452-.233,1.684a6.022,6.022,0,0,1-5.838,4.817c-.143,0-.251-.053-.251-.161,0-.09.108-.108.287-.161a6.459,6.459,0,0,0,2.2-1.056,5.614,5.614,0,0,0,2.328-5.141,4.377,4.377,0,0,0-.053-.807,2.731,2.731,0,0,1-.106-.411c0-.108.106-.127.159-.127a.535.535,0,0,1,.233.056c.251.089,1.056.412,1.272.482m3.671-3.724c.789,0,.86-.018,1.164-.448.163-.251.43-.573.646-.573a5.365,5.365,0,0,1,1.736,1.29c0,.214-.356.214-.931.214h-7.9c-1.559,0-2.077.035-2.256.035a2.572,2.572,0,0,1-.378.053c-.071,0-.106-.053-.159-.124l-.341-.412c-.071-.071-.089-.089-.089-.108s.035-.053.071-.053c.126,0,.681.053.787.073.878.035,1.612.053,2.455.053h1.539c.448,0,.538-.179.538-1.219,0-.483,0-.768-.52-.768h-2.884c-1.162,0-1.81.016-2.275.053-.053,0-.322.034-.375.034s-.09-.034-.161-.124l-.341-.394c-.071-.09-.071-.106-.071-.126,0-.035.018-.035.055-.035.126,0,.681.055.787.055.877.035,1.631.071,2.472.071h2.776c.555,0,.555-.143.555-1.27,0-.216-.089-1.113-.089-1.29,0-.126,0-.18.143-.18a9.356,9.356,0,0,1,1.288.324c.43.106.609.285.609.411,0,.108-.357.448-.395.536a1.231,1.231,0,0,0-.143.628c0,.575,0,.842.5.842h2.544c.805,0,.9,0,1.182-.448.161-.232.448-.644.679-.644a6.537,6.537,0,0,1,1.9,1.306c0,.253-.359.253-.968.253h-5.355c-.538,0-.538.087-.538,1.431,0,.2,0,.555.465.555Zm.287,3.42c.126.035.341.108.341.269,0,.108-.359.467-.412.556a5.965,5.965,0,0,0-.143,1.684,8.9,8.9,0,0,0,.161,2.793c.161.375.717.519,2.132.519,1.9,0,1.951-.412,2.22-2.542a3.086,3.086,0,0,1,.179-.878c.09,0,.108.233.306,2.185a1.176,1.176,0,0,0,.232.626,2.169,2.169,0,0,1,.483.789c0,.52-.824.842-.931.876a7.135,7.135,0,0,1-2.293.253c-3.834,0-3.834-.5-3.834-2.9,0-.538-.034-2.921-.034-3.4,0-.124-.019-.646-.019-.752,0-.306.108-.306.322-.269.216.053,1.111.143,1.29.2" transform="translate(-278.436 -120.939)" fill="#fff"/>
  <path id="パス_33777" data-name="パス 33777" d="M480.513,293.833a.663.663,0,0,0,.573-.233c.179-.179.3-.3.43-.3a3.7,3.7,0,0,1,1.4,1.219c0,.143-.287.34-.412.428a1.294,1.294,0,0,0-.485.592,15.667,15.667,0,0,1-2.183,3.85c-.432.538-.485.591-.485.716,0,.395,1.612,1.683,3.94,2.633.2.072,1.29.359,1.29.485,0,.143-.43.161-.573.161a1.6,1.6,0,0,0-1.109.573c-.037.071-.216.267-.288.267a10.874,10.874,0,0,1-3.6-2.525c-.555-.555-.628-.609-.734-.609-.126,0-.18.035-.7.412a14.719,14.719,0,0,1-3.421,1.863,19.715,19.715,0,0,1-3.206.84c-.09,0-.161-.016-.161-.089s.055-.09.108-.108a14.571,14.571,0,0,0,2.328-.932c2.633-1.233,4.262-2.668,4.262-3.061a7.429,7.429,0,0,0-.626-1.166,18.412,18.412,0,0,1-1.9-5.911c-.019-.2-.09-.768-.179-.768-.072,0-.163.536-.2.7-1.056,6.376-5.463,10.137-5.838,10.137-.072,0-.108-.035-.108-.089a3.347,3.347,0,0,1,.412-.555,22.036,22.036,0,0,0,4.709-12.591c0-.449-.287-.449-.483-.449-.663,0-1.272,0-1.969.019-.09.018-.7.071-.754.071-.071,0-.108-.053-.161-.124l-.357-.412c-.055-.072-.071-.09-.071-.109s.034-.053.071-.053c.106,0,.644.072.77.072.518.018,1.451.053,2.471.053h5.141a.416.416,0,0,0,.448-.251c.071-.106.287-.412.465-.412.143,0,1.449.647,1.449.987,0,.142-.053.179-.34.285-.285.126-.322.253-.626,1.505-.214.86-.646,2.508-.646,2.562,0,.322.216.322.467.322Zm-1.182.465c-.322,0-.359.106-.448.43-.055.214-.143.538-.931.538-.2,0-.5,0-.5-.359,0-.071.359-1.2.375-1.27a29.67,29.67,0,0,0,.987-3.977c0-.341-.216-.341-.432-.341H475.8c-.5,0-.555.145-.555.557a13.631,13.631,0,0,0,1.182,6.07c.734,1.7,1.683,3.1,1.988,3.1.554,0,2.346-3.959,2.346-4.513,0-.233-.216-.233-.393-.233Z" transform="translate(-269.835 -120.838)" fill="#fff"/>
  <path id="パス_33778" data-name="パス 33778" d="M486.569,290.848c1.022-.375,1.13-.411,1.344-.411a.558.558,0,0,1,.573.5c0,.412-.322.518-1,.754-1.217.393-3.4,4.908-3.4,7.11a2.781,2.781,0,0,0,2.793,2.917,4.338,4.338,0,0,0,3.565-1.934c1.235-2.059,1.235-5.891,1.235-6.464a6.787,6.787,0,0,0-.232-1.953,3.761,3.761,0,0,1-.251-1.092.591.591,0,0,1,.591-.644c.573,0,.626.322.985,2.093a5.855,5.855,0,0,0,2.256,3.673c.95.663,1.111.86,1.111,1.2a.76.76,0,0,1-.646.752c-.787,0-1.61-1.415-2.077-2.24-.179-.306-1.076-2.024-1.145-2.024s-.072.179-.072.216a23.567,23.567,0,0,1-.483,5.856,5.086,5.086,0,0,1-4.943,3.959,3.7,3.7,0,0,1-3.8-3.78,11.1,11.1,0,0,1,1.7-5.247c.072-.143.985-1.773.985-1.79,0-.053-.072-.09-.126-.09-.179,0-.9.377-1.056.377-.681,0-1-1.2-1-1.219,0-.089.035-.161.106-.161.053,0,.7.09.824.09a8.635,8.635,0,0,0,2.166-.449m9.3.253c0,.232-.233.68-.555.68-.287,0-.428-.179-.894-.878a5.687,5.687,0,0,0-1.166-1.182c-.071-.055-.233-.2-.233-.269,0-.089.163-.143.324-.143,1.182,0,2.525.932,2.525,1.792m1.468-1.631a.5.5,0,0,1-.465.518c-.375,0-.609-.25-.931-.662a4.137,4.137,0,0,0-1.559-1.021c-.179-.072-.216-.161-.216-.2,0-.124.341-.214.663-.214,1.414,0,2.507.752,2.507,1.576" transform="translate(-261.091 -121.008)" fill="#fff"/>
  <path id="パス_33779" data-name="パス 33779" d="M495.344,289.133c-.035-.053-.071-.09-.071-.126,0-.018.035-.037.071-.037.126,0,.663.053.789.053.878.056,1.612.072,2.452.072h4.138c.269,0,.322,0,.61-.375.285-.412.322-.448.481-.448a3.31,3.31,0,0,1,1.343,1.056c0,.232-.375.232-.948.232H503.3c-.485,0-.538.253-.538.592,0,1.019-.053,5.534-.053,6.447,0,3.51,0,3.887.018,4.586,0,.233.055,1.29.055,1.5,0,.234,0,1.325-.915,1.325-.483,0-.483-.34-.483-.556,0-.143.053-.77.053-.894.035-.646.072-1.309.072-2.169,0-1.307,0-1.449-.412-1.449a24.578,24.578,0,0,0-4.065,1.575c-.161.108-.771.734-.932.734-.214,0-.932-1.522-.932-1.808,0-.143.073-.143.718-.163,1.343-.016,1.522-.375,1.594-.679.071-.357.089-5.981.089-6.663,0-.412-.018-1.684-.018-1.808-.018-.179,0-.557-.483-.557-.163,0-1.076.072-1.2.072-.072,0-.109-.035-.163-.106Zm3.869,6.8c-.5,0-.5.287-.5.932,0,1.666,0,1.935.592,1.935a7.071,7.071,0,0,0,1.808-.378c.341-.159.43-.34.43-1.771,0-.432-.019-.718-.538-.718Zm.053-6.376c-.538,0-.538.09-.538,1.721,0,.752,0,.984.5.984h1.863c.483,0,.483-.071.483-1.665,0-.824-.055-1.04-.555-1.04ZM501,295.472c.573,0,.573-.089.573-1.647,0-.842,0-1.074-.483-1.074h-1.845c-.52,0-.52.034-.52,2.077,0,.555.2.644.485.644Zm2.848-5.408c-.072-.09-.09-.09-.09-.126s.037-.035.072-.035c.124,0,.679.055.787.055,1.468.069,1.951.069,2.454.069h1.488a1.04,1.04,0,0,0,.931-.465c.126-.142.179-.179.285-.179.2,0,1.505.681,1.505,1,0,.126-.035.143-.25.306a3.207,3.207,0,0,0-.628,1.4,23.159,23.159,0,0,1-1.79,5.033,1.974,1.974,0,0,0-.269.787c0,.538,1.253,2.275,2.83,3.439.16.126,1.056.7,1.056.753,0,.106-.932.177-1.111.25a2.034,2.034,0,0,0-.61.412c-.069.072-.142.143-.213.143-.412,0-1.881-2.364-2.33-3.117-.2-.3-.322-.518-.465-.518-.126,0-.161.053-.573.572-2.186,2.777-3.655,3.333-3.708,3.333a.15.15,0,0,1-.159-.163c0-.071,1.019-1.038,1.216-1.235.216-.251,2.436-2.866,2.436-3.85,0-.306-.911-2.777-1.021-3.315-.179-.877-.34-2.293-.5-3.17-.124-.77-.287-.86-.556-.86-.035,0-.249.037-.287.037-.072,0-.106-.055-.161-.126Zm3.206.465c-1.343,0-1.505,0-1.505.591,0,1.183,1.415,5.373,1.9,5.373.412,0,1.684-4.3,1.684-5.426,0-.538-.518-.538-.84-.538Z" transform="translate(-253.652 -120.776)" fill="#fff"/>
  <path id="パス_33780" data-name="パス 33780" d="M515.31,289.586l-.377.251a11.379,11.379,0,0,0-1.628,2.4c0,.214.179.3.428.411.394.143.518.216.518.412,0,.143-.071.2-.232.324a.435.435,0,0,0-.2.428c0,3.153.035,5.176.126,8.6,0,.126.018.7.018.84a.961.961,0,0,1-.216.734,1.815,1.815,0,0,1-.915.341c-.446,0-.465-.377-.465-.554s.09-.969.109-1.146c.053-.646.124-2.2.124-2.921,0-.84-.053-4.943-.053-5.874,0-.09,0-.306-.09-.306-.035,0-1.127,1.559-1.306,1.792a15.524,15.524,0,0,1-1.81,1.969.064.064,0,0,1-.071-.071c0-.018.179-.287.2-.341.072-.089,1.431-2.4,2.077-3.689,1.684-3.367,1.881-4.191,1.881-5.069,0-.106.055-.161.143-.161a.277.277,0,0,1,.161.055c.126.071.752.428.9.5.768.43.858.483.858.771a.338.338,0,0,1-.179.3m7.736,4.3c-.232,0-.572.018-.572.591,0,.609.053,3.333.053,3.869.018.591.071,3.188.071,3.706,0,.789,0,1.327-.715,1.827a2.3,2.3,0,0,1-1.058.395c-.161,0-.2-.055-.483-.43a3.437,3.437,0,0,0-1.486-1.093c-.037-.018-.412-.108-.412-.143,0-.053.053-.053.071-.053.179,0,.932.018,1.093.018,1.288,0,1.431,0,1.541-.357.089-.288.089-3.69.089-4.568,0-.9,0-2.346-.035-3.188-.019-.52-.306-.573-.575-.573H518.3c-.412,0-1.631.018-2.257.053-.071,0-.324.037-.393.037s-.09-.037-.143-.108l-.359-.412c-.072-.071-.072-.089-.072-.126,0-.018.019-.035.072-.035.126,0,.681.053.787.072.824.034,1.612.053,2.455.053h2.236c.575,0,.575-.2.575-1.166,0-3.365,0-3.616-.269-4.028a.341.341,0,0,1-.072-.161c0-.126.108-.126.145-.126.143,0,1.449.375,1.683.43.179.053.341.124.341.3,0,.232-.233.375-.377.465-.126.073-.179.126-.179.538,0,.5-.037,2.723-.019,3.17,0,.43.019.554.341.554s.393-.089.931-.858c.359-.538.394-.591.518-.591s1.828,1.361,1.828,1.665c0,.269-.322.269-.966.269Zm-6.286,1.881a.084.084,0,0,1,.09-.09,9.216,9.216,0,0,1,1.074.628,2.822,2.822,0,0,1,1.486,2.327c0,.824-.465,1.113-.9,1.113-.5,0-.573-.359-.646-.9a9.025,9.025,0,0,0-.662-2.2c-.073-.143-.448-.86-.448-.878" transform="translate(-245.043 -120.98)" fill="#fff"/>
  <path id="パス_33781" data-name="パス 33781" d="M527.793,289.91c-1.362,0-1.971.018-2.149.034-.053,0-.412.055-.465.055-.073,0-.126-.055-.179-.124l-.341-.4c-.036-.053-.09-.106-.09-.126s.037-.053.072-.053c.126,0,.681.072.787.072.877.053,1.612.053,2.455.053h7.379c.75,0,.84,0,.984-.126.163-.143.754-1.037.968-1.037.179,0,.68.518.931.768.448.467.5.52.5.628,0,.251-.089.251-.787.251h-5.033c-.518,0-.518.267-.518.679v10.675c0,.77,0,.95.518.95h3.3c.644,0,.717,0,.932-.216.161-.161.752-1.021.948-1.021.251,0,1.558,1.129,1.558,1.415s-.357.287-.86.287H526.951c-1.058,0-1.845.016-2.257.053-.071,0-.3.035-.357.035a.223.223,0,0,1-.18-.106l-.356-.412c-.037-.053-.072-.09-.072-.126s.016-.037.072-.037c.124,0,.662.055.787.055.877.035,1.808.072,2.452.072h3.386c.518,0,.538-.233.538-.7V290.609c0-.575-.108-.7-.538-.7Z" transform="translate(-236.225 -120.782)" fill="#fff"/>
  <path id="パス_33782" data-name="パス 33782" d="M541.37,290.82c-1.359,0-1.916.035-2.256.053-.072,0-.322.037-.377.037-.071,0-.108-.037-.161-.108l-.357-.412c-.055-.09-.073-.09-.073-.126s.018-.035.073-.035c.124,0,.662.053.787.053.878.037,1.612.071,2.454.071h3.492c.377,0,.377-.322.377-.518,0-.269-.161-1.415-.161-1.629,0-.2.089-.233.161-.233.179,0,1.682.412,1.682.789,0,.124-.375.572-.412.679a2.4,2.4,0,0,0-.053.5.357.357,0,0,0,.394.412h3.17c.805,0,.877,0,1.146-.3.5-.591.556-.663.717-.663.108,0,1.683.948,1.683,1.182,0,.251-.359.251-.966.251h-5.75c-.43,0-.43.108-.448,1.092,0,.179.018.448.394.448h2.238a.576.576,0,0,0,.555-.25c.287-.3.393-.432.556-.432.124,0,1.127.665,1.127.9,0,.126-.089.2-.322.412a.353.353,0,0,0-.161.34v1.7a.724.724,0,0,1-.77.644c-.465,0-.5-.143-.609-.518a.319.319,0,0,0-.341-.233h-2.293c-.393,0-.393.269-.393.752,0,.448,0,.7.393.7h2.652a.882.882,0,0,0,.752-.253c.214-.216.34-.34.538-.34.161,0,1.145.662,1.145.9,0,.09-.016.126-.338.485-.109.106-.109.179-.109.805,0,.108,0,.269.2.269A.64.64,0,0,0,552.1,298c.377-.5.412-.571.555-.571.179,0,1.378.768,1.378,1.109,0,.216-.322.216-.787.216h-1.359c-.378,0-.378.3-.378.536,0,.288.055,1.576.055,1.774a.859.859,0,0,1-.932.913c-.428,0-.448-.2-.518-.771-.037-.34-.179-.411-.395-.411h-2.776c-.43,0-.43.251-.43.591,0,.2.036,1.074.036,1.253a1.277,1.277,0,0,1-.841,1.415,4.243,4.243,0,0,1-.9.216c-.124,0-.143-.053-.233-.251-.126-.287-.393-.7-1.485-1.058-.2-.053-.575-.179-.575-.34,0-.089.2-.089.233-.089.232,0,1.288.143,1.5.143.987,0,.987-.055.987-1.452a.368.368,0,0,0-.412-.428h-1.918c-1.272,0-2.095.035-2.256.053-.073,0-.341.035-.394.035s-.09-.035-.143-.106l-.359-.412c-.071-.09-.071-.09-.071-.126,0-.018.018-.037.055-.037.124,0,.679.055.805.055.876.035,1.61.072,2.454.072h1.827c.428,0,.428-.2.428-1.021,0-.269,0-.555-.375-.555H540.9c-1.558,0-2.077.018-2.256.034-.053,0-.306.056-.359.056-.071,0-.126-.056-.179-.126l-.34-.412c-.072-.072-.09-.09-.09-.109s.037-.053.071-.053c.126,0,.681.072.789.072.878.035,1.612.053,2.454.053h3.887c.393,0,.393-.232.393-.734,0-.394,0-.681-.375-.681h-2.473c-1.575,0-2.093.019-2.256.037-.071,0-.322.053-.375.053-.073,0-.108-.035-.163-.106l-.357-.432c-.055-.071-.071-.09-.071-.106,0-.037.016-.055.071-.055.126,0,.663.071.789.071.878.056,1.612.056,2.452.056H544.9c.394,0,.394-.2.394-.968,0-.2,0-.485-.377-.485h-2.364c-.34,0-.359.072-.43.34a.8.8,0,0,1-.824.557c-.412,0-.465-.235-.465-.467,0-.251.053-1.38.053-1.612,0-.053,0-1.217-.035-1.576a4.36,4.36,0,0,1-.09-.465c0-.089.018-.161.126-.161a7.883,7.883,0,0,1,1.4.717,1.831,1.831,0,0,0,.716.106h1.934c.395,0,.395-.089.395-1.039,0-.2,0-.5-.358-.5Zm3.529,3.636c.394,0,.394-.269.394-.824,0-.518,0-.787-.394-.787h-2.364c-.432,0-.432.179-.432.805s0,.807.449.807Zm1.988-1.612c-.412,0-.412.3-.412.644,0,.752,0,.968.412.968h2.293c.428,0,.428-.216.428-.95,0-.375,0-.662-.395-.662Zm2.937,5.426c.357,0,.43-.216.43-.84,0-.269,0-.575-.394-.575h-2.991c-.393,0-.393.306-.393.575,0,.625,0,.84.393.84Zm-2.937.485c-.394,0-.394.287-.394.5,0,.966,0,1.074.428,1.074h2.815c.41,0,.481-.143.481-.987,0-.3,0-.589-.393-.589Z" transform="translate(-227.713 -120.96)" fill="#fff"/>
  <path id="パス_33783" data-name="パス 33783" d="M561.871,299.383c-.253,0-.449,0-.449.18,0,.159.071.2.646.625a12.924,12.924,0,0,0,6.07,2.365c.432.053.485.053.485.163s-.09.124-.375.2a1.714,1.714,0,0,0-.968.894c-.055.126-.179.341-.234.341a5.056,5.056,0,0,1-.878-.3,11.6,11.6,0,0,1-4.925-3.582c-.412-.5-.431-.538-.518-.538-.145,0-.163.163-.163.216,0,.073.018.609.018.717,0,.34.019,1.988.019,2.364,0,.644,0,.787-.18.985a1.12,1.12,0,0,1-.807.357c-.212,0-.393-.053-.393-.446,0-.037.09-1.38.108-1.649.016-.465.016-1.038.016-1.5,0-.072,0-.233-.142-.233a1.943,1.943,0,0,0-.43.269,17.843,17.843,0,0,1-6.878,3.3c-.035,0-.126-.019-.126-.09,0-.055.359-.214.377-.232,3.082-1.362,5.911-3.851,5.911-4.209,0-.18-.18-.18-.3-.18h-2.365c-.591,0-1.7,0-2.166.037-.055,0-.412.053-.485.053-.053,0-.09-.037-.161-.126l-.341-.412c-.071-.09-.071-.09-.071-.106a.058.058,0,0,1,.055-.055c.126,0,.662.071.787.071.52.019,1.72.053,2.471.053h3.512c.375,0,.375-.159.375-1,0-.2-.019-.411-.448-.411h-1.29c-.662,0-1.755,0-2.15.035-.053,0-.43.053-.483.053-.073,0-.089-.034-.161-.106l-.359-.43c-.071-.089-.071-.089-.071-.108,0-.035.035-.053.071-.053.108,0,.663.072.787.072.5.016,1.649.053,2.455.053h1.129c.518,0,.518-.216.518-.878,0-.377,0-.754-.465-.754h-2.169c-.428,0-1.646,0-2.273.055-.053,0-.322.035-.375.035s-.09-.035-.163-.124l-.34-.412c-.073-.09-.073-.09-.073-.11a.058.058,0,0,1,.055-.053c.108,0,.663.072.787.072.52.018,1.451.053,2.454.053h.662c.09,0,.2,0,.2-.143a7.563,7.563,0,0,0-.734-1.826c-.357-.593-.591-.628-.932-.628h-.446c-.716,0-1.916.019-2.257.053-.071,0-.324.037-.394.037-.053,0-.089-.037-.142-.108l-.359-.412c-.073-.089-.073-.089-.073-.126s.036-.035.055-.035c.124,0,.662.053.787.053.52.019,1.451.072,2.473.072.267,0,.375,0,.375-.216a4.7,4.7,0,0,0-.716-1.449c-.108-.126-.734-.734-.734-.734,0-.053.073-.126.179-.126.448,0,2.381.518,2.381,1.682a.913.913,0,0,1-.126.448c-.089.145-.089.179-.089.251,0,.143.143.143.2.143h.536c.394,0,.394-.322.394-.485,0-.322-.018-1.592-.037-2.077-.016-.159-.126-.913-.126-1.093,0-.213.073-.213.18-.213.036,0,1.486.106,1.486.5a.649.649,0,0,1-.179.287c-.126.143-.161.287-.161.681,0,2.4.035,2.4.536,2.4h.646c.518,0,.518-.143.518-1.541,0-.483-.034-1.38-.053-1.7a2.96,2.96,0,0,1-.053-.393c0-.143.053-.251.179-.251a7.391,7.391,0,0,1,1.237.322c.106.037.285.163.285.322,0,.072-.035.11-.2.322a.748.748,0,0,0-.2.628c0,1.021.018,1.111.035,2.024,0,.126.018.269.179.269.322,0,1.612-1.863,1.9-2.525.2-.465.214-.5.3-.5.037,0,1.362.716,1.362,1.056,0,.126-.037.126-.412.269a20.473,20.473,0,0,0-2.275,1.6c0,.089.145.106.216.106h.878c.681,0,.86-.018,1.039-.161.126-.089.646-.77.807-.77a4.734,4.734,0,0,1,1.539,1.146c0,.25-.357.25-.966.25h-4.1c-.073,0-.2,0-.2.09,0,.072.035.089.395.3.591.34.662.377.662.555,0,.126-.071.179-.322.3-.412.233-1.2.948-1.2,1.182,0,.161.214.161.341.161H563.9c.734,0,.823,0,.966-.126.126-.106.626-.805.805-.805.072,0,1.362.9,1.362,1.182,0,.232-.09.232-.914.232h-5c-.538,0-.538.216-.538.913,0,.467,0,.718.5.718h1.488c.789,0,.878,0,1.129-.287.52-.61.573-.681.77-.681.3,0,1.378.877,1.378,1.164s-.322.287-.894.287h-3.924c-.448,0-.448.143-.448.968,0,.214,0,.446.432.446h3.634a3.462,3.462,0,0,0,.877-.053c.163-.071.771-.894.987-.894.179,0,1.539.878,1.539,1.18,0,.251-.359.251-.948.251Zm-4.515-7.092c-.035,0-.143,0-.143.09,0,.053.306.269.377.3.86.626,1.092,1.111,1.092,1.505a1.07,1.07,0,0,1-.125.465.335.335,0,0,0-.036.143c0,.089.126.089.2.089h1.987c.519,0,.628-.143.824-.734a6.1,6.1,0,0,0,.341-1.629c0-.18-.072-.233-.378-.233Z" transform="translate(-219.119 -120.98)" fill="#fff"/>
</svg>
