<svg xmlns="http://www.w3.org/2000/svg" width="151.77" height="180.287" viewBox="0 0 151.77 180.287">
  <g id="グループ_26290" data-name="グループ 26290" transform="translate(-2991.828 -7000.021)">
    <path id="パス_38605" data-name="パス 38605" d="M54.9,198.111c0,.694-.52,1.737-1.354,1.737-.52,0-.694-.209-1.214-1.077a8.411,8.411,0,0,0-3.161-2.882c-.1-.07-.312-.209-.312-.348,0-.487,1.98-.52,2.431-.52,1.493,0,3.611,1.387,3.611,3.09m-4.271,10.765c-.1-.173-.729-.9-.833-1.077a1.466,1.466,0,0,1-.209-.658c0-.139.1-.245.314-.245.312,0,1.632.453,1.91.453,1.493,0,10.834-5.21,19.135-14.619a16.374,16.374,0,0,1,1.493-1.564.127.127,0,0,1,.139.139c0,.382-3.057,7.815-17.433,17.886-.418.278-2.085,1.84-2.536,1.84-.765,0-1.113-.555-1.98-2.153M59.07,191.2c0,.8-.556,1.564-1.111,1.564-.382,0-.557-.139-1.805-1.632a6.048,6.048,0,0,0-2.987-1.841c-.139-.034-.521-.139-.521-.242a4.123,4.123,0,0,1,2.673-.662c3.751,0,3.751,2.711,3.751,2.813" transform="translate(2944.654 6811.635)" fill="#fff"/>
    <path id="パス_38606" data-name="パス 38606" d="M77.536,205.745a24.244,24.244,0,0,0-3.4,2.848c-.658.8-.729.869-1.248.869-1.877,0-4.446-2.224-4.446-3.611,0-.245.033-1.841.346-1.841a8.54,8.54,0,0,1,1.041.66,5.756,5.756,0,0,0,2.363.8c1.7,0,10.906-6.145,16.67-11.842.556-.555,1.528-1.526,1.6-1.526a.222.222,0,0,1,.175.172c0,.314-4.063,6.807-13.093,13.474m-2.848-11.424c-.936,0-1.284-.557-2.429-2.292a7.806,7.806,0,0,0-3.161-2.848c-.139-.069-.312-.175-.312-.314s.278-.312.763-.312c3.717,0,6.633,1.98,6.633,4.029a1.534,1.534,0,0,1-1.493,1.737" transform="translate(2957.064 6811.742)" fill="#fff"/>
    <path id="パス_38607" data-name="パス 38607" d="M91.174,191.973c3.126,0,10.522-.624,11.286-1.111,1.25-.832,1.389-.9,1.7-.9.7,0,4.029,2.222,4.029,3.125,0,.312-.1.417-1.181,1.216-.624.451-.763.972-1.944,5.8-.069.31-.555,1.84-.555,2.049,0,.451.314.484.833.59.868.139,2.153.59,2.153,1.457,0,.939-1.6.939-1.876.939-.868,0-4.723-.245-5.521-.245-2.153,0-8.752.73-9.306.868-.209.036-1.078.418-1.252.418-.626,0-2.675-1.564-2.675-2.779,0-.139.139-.242.314-.242a9.4,9.4,0,0,1,1.041.173,12.246,12.246,0,0,0,1.771.1c2.4,0,11.494-.626,12.017-.9.417-.208.556-.626.8-2.361.418-3.057.729-6.078.729-6.772,0-.59-.139-.729-.52-.729-1.077,0-9.69,1.387-11.043,1.7-.312.07-1.528.555-1.805.555-.765,0-3.23-2.117-3.23-2.813,0-.278.243-.346.417-.346.207,0,3.23.207,3.82.207" transform="translate(2968.744 6812.632)" fill="#fff"/>
    <path id="パス_38608" data-name="パス 38608" d="M125.937,193.926c.175,0,.5-.034.642-.034,1.779,0,2.042,1.286,2.042,1.528,0,.974-1.2,1.077-2.421,1.077-.671,0-3.588-.069-4.171-.069-4.024,0-10.7.451-11.4.624-.351.07-1.926.626-2.276.626-1.253,0-2.6-2.152-2.6-3.333,0-.209.088-.418.234-.418s.846.382.992.418a13.55,13.55,0,0,0,3.558.31c.962,0,11.143-.451,15.4-.729" transform="translate(2980.714 6815.125)" fill="#fff"/>
    <path id="パス_38609" data-name="パス 38609" d="M130.9,199.949c-2.085,4.514-5.73,6.6-6.426,6.6a.161.161,0,0,1-.172-.175,9.787,9.787,0,0,1,1.387-1.84c3.82-5.245,4.2-9.029,4.2-10.175a7.611,7.611,0,0,0-.59-2.987,2.541,2.541,0,0,1-.139-.624c0-.106.034-.175.175-.175.242,0,3.923,1.181,3.923,2.952,0,.1-1.771,5.106-2.361,6.424m5.625,3.23c0-.173.173-1.077.209-1.251.1-.658.139-3.4.139-4.271a21.272,21.272,0,0,0-.66-6.529,9.144,9.144,0,0,1-.453-1.25c0-.139.139-.173.209-.173.175,0,3.82.626,3.82,2.429,0,.418-.487,2.224-.555,2.606-.139.936-.278,5.138-.278,6.285,0,.451.034,1.147.66,1.147,1.041,0,4.237-2.294,7.569-5.661.591-.59,3.542-3.715,3.681-3.715a.148.148,0,0,1,.139.137c0,.278-2.013,4.585-8.091,9.934a19.409,19.409,0,0,0-2.4,2.222c-.59.658-.9.9-1.145.938-1.006.173-2.848-1.876-2.848-2.848" transform="translate(2992.469 6812.47)" fill="#fff"/>
    <path id="パス_38610" data-name="パス 38610" d="M56.406,230.124c-1.214,0-1.214.242-1.214,2.222,0,.694.242.868,1.665,1.389.871.346,2.813,1.077,2.813,2.918,0,.139-.033,1.423-.9,1.423-.591,0-.765-.384-1.493-1.807-.348-.658-1.25-2.291-1.737-2.291-.139,0-.346.139-.346.8,0,1.145.033,6.217.033,7.259-.033,1.216.106,6.563.106,7.64a1.53,1.53,0,0,1-1.6,1.632.669.669,0,0,1-.763-.729c0-.312.069-2.779.1-3.16.034-.835.139-8.752.139-9.795,0-.07,0-.451-.1-.451s-3.681,7.119-4.722,7.119a.074.074,0,0,1-.07-.069c0-.069,1.077-2.4,1.284-2.848a52.708,52.708,0,0,0,3.264-10.419c0-.832-.765-.832-1.075-.832s-1.738.033-2.4.069a3.965,3.965,0,0,1-.626.1c-.1,0-.173-.1-.242-.242l-.557-.8c-.1-.139-.139-.172-.139-.207a.091.091,0,0,1,.1-.1c.556,0,3.75.242,4.48.242.938,0,.938,0,.938-5.728,0-.523-.243-2.954-.243-3.127,0-.07.034-.139.1-.139a21.225,21.225,0,0,1,2.222.66c.694.173.938.278.938.626,0,.242-.1.312-.451.59s-.417.451-.417,1.077c0,.59-.243,4.965-.243,5.382,0,.209.034.66.729.66a1.029,1.029,0,0,0,.9-.59c.348-.66.451-.868.729-.868.245,0,2.606,1.632,2.606,1.979,0,.418-.729.418-1.529.418Zm15.315,5.486c-.381,0-.868,0-.868.485,0,.626,2.291,6.148,8.2,9.654.521.312,1.32.765,1.32.938s-.243.175-.348.175a4.535,4.535,0,0,0-1.771.381,8.067,8.067,0,0,1-1.562.938c-.312,0-3.576-3.854-5.454-8.787-.1-.242-.485-1.423-.59-1.667,0-.036-.069-.139-.139-.139-.139,0-.139.209-.139.382,0,1.876.07,10.175.07,11.876,0,.557-.07.869-.348,1.077a2.583,2.583,0,0,1-1.423.451c-.521,0-.729-.242-.729-.729,0-1.216.242-3.194.278-4.41.034-1.7.137-7.189.137-7.257,0-.523-.034-.662-.207-.662-.139,0-.207.07-.485.523-1.98,3.194-4.168,6.561-8.231,9.063a5.767,5.767,0,0,1-1.252.591c-.069,0-.207-.036-.207-.139A7.442,7.442,0,0,1,59.15,247.1a28.964,28.964,0,0,0,7.431-10.765c0-.729-.554-.729-1.318-.729-.835,0-2.675.034-3.474.1-.1,0-.626.069-.729.069-.139,0-.209-.069-.314-.206l-.658-.8c-.139-.173-.175-.173-.175-.242s.069-.07.139-.07c.243,0,1.32.1,1.529.1.278,0,2.778.139,4.41.139h1.075c.974,0,1.217-.209,1.217-1.147,0-.833,0-4.271-.1-4.826-.07-.487-.242-.729-1.006-.729H64.047c-.73,0-.8.069-1.252.868-1.006,1.735-2.743,3.715-3.055,3.715-.034,0-.1,0-.1-.1,0-.07.97-2.258,1.145-2.675a30.278,30.278,0,0,0,1.98-7.05c.069-.73.1-.8.346-.8.1,0,3.335.938,3.335,1.425,0,.242-.245.312-.869.521-.348.1-.382.242-.869,1.353-.207.521-.624,1.493-.624,1.529,0,.278.278.312.453.312h2.673c.312,0,1.008,0,1.008-.938,0-.417-.036-2.5-.07-2.778-.036-.521-.346-2.952-.346-3.264a.149.149,0,0,1,.139-.139c.1,0,3.228.693,3.228,1.077,0,.173-.555.729-.59.868a37.548,37.548,0,0,0-.209,4.1c0,.9.348,1.077,1.145,1.077h.835c.8,0,1.042-.034,1.284-.242.278-.245,1.354-1.632,1.7-1.632a10.024,10.024,0,0,1,2.882,2.291c0,.487-.694.487-1.84.487h-4.9c-.487,0-.8.069-1.008.451A44.865,44.865,0,0,0,70.331,233c0,1.284,0,1.7,1.149,1.7h1.526c1.425,0,1.6,0,1.841-.243.278-.243,1.252-1.562,1.562-1.562.245,0,3.057,1.771,3.057,2.222,0,.487-.729.487-1.841.487Z" transform="translate(2944 6831.662)" fill="#fff"/>
    <path id="パス_38611" data-name="パス 38611" d="M88.313,227.532c.59,0,.729-.1.729-.415,0-.278-.555-3.959-.658-4.516-.07-.382-.487-2.153-.487-2.534,0-.1.139-.1.242-.1a15.078,15.078,0,0,1,2.433.382c.9.172,1.354.312,1.354.763,0,.209-.036.243-.348.591-.382.381-.382.556-.382,2.152.034,3.681.314,3.681,1.181,3.681h4.029c1.6,0,1.771,0,2.222-.59,1.075-1.457,1.181-1.6,1.528-1.6.521,0,3.335,2.013,3.335,2.6,0,.523-.626.523-1.841.523h-9.2c-.59,0-.8.069-.8.554a46.042,46.042,0,0,0,1.387,6.148c2.155,6.7,5.939,11.077,6.981,11.077.487,0,1.077-1.006,1.528-1.841.175-.312.833-1.838,1.008-1.838.1,0,.1.172.1.242,0,.1-.451,3.854-.451,4.585a2.584,2.584,0,0,0,.382,1.423,1.9,1.9,0,0,1,.346.972.788.788,0,0,1-.9.869c-3.057,0-10.314-7.4-12.538-20.7-.208-1.286-.278-1.493-1.145-1.493H78.971c-.8,0-3.16,0-4.375.069a5.85,5.85,0,0,1-.765.1c-.1,0-.173-.1-.278-.243l-.694-.8c-.139-.139-.139-.173-.139-.209,0-.069.034-.1.139-.1.243,0,1.32.1,1.528.139,1.6.069,3.126.1,4.758.1Zm-4.687,9.135c-.245,0-.835.034-.974.591-.069.345-.208,3.993-.208,6.111s0,2.467.59,2.467c.521,0,8.368-1.771,8.439-1.771.036,0,.175,0,.175.1,0,.348-4.967,2.4-9.31,3.784-5.068,1.6-5.936,1.877-6.354,2.155-.208.1-.936.972-1.145.972-.382,0-1.356-3.647-1.356-3.75,0-.141.106-.175,1.181-.279a43.749,43.749,0,0,0,4.794-.694.7.7,0,0,0,.312-.487c.036-.278.069-4.549.069-4.965,0-.278-.033-3.23-.033-3.369-.036-.833-.662-.833-1.01-.833a26.969,26.969,0,0,0-3.158.1c-.07,0-.417.069-.487.069-.139,0-.209-.1-.312-.242l-.66-.8c-.139-.137-.173-.173-.173-.242,0-.034.069-.07.139-.07.242,0,1.318.106,1.526.139,1.6.07,3.161.106,4.758.106h2.745a5.518,5.518,0,0,0,1.668-.106c.381-.173,1.423-1.84,1.771-1.84a6.051,6.051,0,0,1,2.534,2.4c0,.451-.694.451-1.876.451Zm10.383-16.322c.485,0,5.277,1.181,5.277,3.194a1.282,1.282,0,0,1-1.423,1.423c-.382,0-.451-.1-1.18-1.145a17.35,17.35,0,0,0-2.675-3.091c-.1-.069-.243-.209-.209-.278,0-.069.139-.1.209-.1" transform="translate(2959.777 6831.648)" fill="#fff"/>
    <path id="パス_38612" data-name="パス 38612" d="M96.7,235.388c0-.139.1-.209.521-.487.242-.173,3.09-2.188,5.348-4.1,5.939-5.07,8.127-9.2,8.3-9.966.278-1.077.278-1.216.694-1.216.036,0,3.264,1.528,3.264,2.117,0,.175-.069.208-.417.453-.209.1-.242.208-.242.346,0,1.077,6.145,8.787,14.378,11.113.971.276.971.276.971.451,0,.209-.1.243-.971.521a4.073,4.073,0,0,0-2.224,1.423c-.139.243-.243.348-.451.348-.765,0-8.161-5.106-12.087-12.259-.381-.73-.451-.833-.59-.833s-.694.693-.972,1.041c-6.146,7.71-13.961,10.906-15.211,11.148-.1.036-.312.069-.312-.1m9.55,4.756c-2.57,0-3.438.036-4.375.106-.1,0-.624.069-.729.069-.141,0-.173-.069-.312-.208l-.662-.8a1.866,1.866,0,0,1-.173-.242c0-.07.07-.07.139-.07.243,0,1.32.1,1.528.1,1.7.07,3.542.141,4.759.141h11.46c1.459,0,1.84,0,2.675-1.147.52-.729.658-.936.972-.936.278,0,.381.069,1.18.729,1.771,1.459,1.771,1.493,1.771,1.807,0,.449-.173.449-1.805.449H112.048c-.348,0-.487,0-.487.106,0,0,1.632,1.387,1.632,1.771,0,.312,0,.312-1.042.59-.278.1-.346.208-1.216,1.354-.729.972-2.152,2.675-2.361,2.882-.139.173-.485.521-.485.833s.485.346.624.346c.451,0,3.715-.207,7.571-.59,2.5-.242,2.779-.278,2.779-.626,0-.52-2.05-2.291-2.05-2.707,0-.173.141-.209.243-.209a32.317,32.317,0,0,1,4.411,2.153c.938.555,3.09,1.805,3.09,3.995,0,1.109-.694,1.874-1.354,1.874-1.006,0-1.735-1.284-2.361-2.431-.66-1.181-.972-1.284-1.459-1.284a151.616,151.616,0,0,0-16.113,3.2,7.537,7.537,0,0,1-1.006.555.4.4,0,0,1-.348-.245,27.293,27.293,0,0,1-1.91-3.681c0-.242.173-.242.278-.242.242,0,1.318.208,1.528.242a18.207,18.207,0,0,0,2.049.139c1.946,0,2.188,0,3.612-2.846a24.252,24.252,0,0,0,1.805-4.586c0-.59-.453-.59-1.042-.59Zm7.223-6.459c1.7,0,1.771-.069,2.467-.9.555-.658.97-1.18,1.145-1.18a9.417,9.417,0,0,1,2.639,2.6c0,.382-.173.382-1.84.382h-7.988c-2.117,0-3.126,0-4.411.1-.1,0-.624.07-.729.07s-.173-.07-.312-.209l-.66-.8c-.139-.139-.139-.173-.139-.243,0-.036.034-.069.1-.069.242,0,1.318.1,1.528.1,1.7.1,3.369.139,4.758.139Z" transform="translate(2974.975 6831.433)" fill="#fff"/>
    <path id="パス_38613" data-name="パス 38613" d="M121.585,228.1c-.139-.172-.175-.207-.175-.242,0-.069.106-.069.139-.069.662,0,3.856.208,4.586.208.972,0,.972-.243.972-2.572,0-.52-.036-2.568-.139-3.887,0-.175-.175-.974-.175-1.181,0-.07.1-.07.139-.07a26.71,26.71,0,0,1,3.125.938c.175.1.382.243.382.487,0,.139-.624.658-.694.8-.175.314-.175.487-.175,1.946v2.916c0,.487.209.557.557.557a1.234,1.234,0,0,0,.833-.245c.243-.139,1.251-1.18,1.562-1.18a.654.654,0,0,1,.487.243c.417.417,1.145,1.284,1.252,1.353.763.729.832.8.832,1.008a.525.525,0,0,1-.381.453c-.1.033-.59.139-.7.172a40.243,40.243,0,0,0-3.228,3.474c-1.008,1.042-1.111,1.145-1.111,1.771,0,.729.31.8,1.145.972,1.181.279,4.446,1.216,4.446,3.854,0,1.077-.591,1.6-1.216,1.6-.833,0-1.216-.7-2.119-2.536-.208-.382-1.353-2.153-2.014-2.153-.312,0-.312.487-.312.9,0,1.32.034,7.746.034,9.169,0,.451.175,2.6.175,3.09a1.658,1.658,0,0,1-1.841,1.6c-.833,0-1.042-.348-1.042-.835,0-.346.139-1.944.139-2.327.07-2.57.209-6.181.209-10.28,0-.381,0-.971-.348-.971s-4.861,3.923-5.764,3.923c-.07,0-.173,0-.173-.1a35.35,35.35,0,0,1,3.021-3.09c1.389-1.423,6.285-7.5,6.285-8.509,0-.312-.243-.346-.555-.346h-2.429c-1.354,0-2.813.034-4.029.1-.106,0-.626.07-.729.07-.139,0-.209-.07-.314-.209Zm11.357,21.254c-.139-.173-.139-.173-.139-.209a.11.11,0,0,1,.1-.1c.206,0,1.284.139,1.526.139,1.008.034,2.815.1,4.758.1h1.354c.314,0,.939,0,1.008-.763.069-.626.139-14,.139-15.8,0-.346,0-1.077-.833-1.077-.869,0-2.882,0-4.1.106-.1,0-.59.069-.729.069-.106,0-.175-.069-.314-.208l-.66-.8c-.139-.173-.139-.173-.139-.242s.07-.07.1-.07,1.286.1,1.459.1c.346,0,3.16.139,4.339.139.835,0,.9-.451.9-1.425,0-3.194-.069-4.758-.242-7.362,0-.276-.209-1.493-.209-1.769,0-.175.07-.245.278-.245.1,0,2.256.66,2.5.73.31.1,1.041.278,1.041.869,0,.173-.694.763-.763.936-.209.487-.314,6.251-.314,7.189,0,.417,0,1.077.833,1.077,1.632,0,1.807,0,2.536-.972,1.006-1.354,1.111-1.493,1.423-1.493.487,0,2.918,2.256,2.918,2.918,0,.449-.729.449-1.841.449h-4.826c-.938,0-1.006.523-1.006,1.147,0,2.085.1,12.259.1,14.585,0,1.286,0,1.91.9,1.91h1.284a2.155,2.155,0,0,0,2.049-1.042c.938-1.214,1.042-1.353,1.459-1.353.312,0,3.369,2.256,3.369,2.846,0,.487-.729.487-1.876.487H139.019c-.835,0-3.161-.034-4.377.07-.1,0-.626.1-.729.1s-.175-.07-.314-.243Z" transform="translate(2990.375 6831.634)" fill="#fff"/>
    <path id="パス_38614" data-name="パス 38614" d="M55.445,276.357c.709.438.783.51.783.673,0,.109-.2.618-.219.727a17.627,17.627,0,0,0-.109,3.217c0,.49.018,1.472.056,2.181.018.217.127,1.271.127,1.508,0,.181,0,.8-.438.8-.506,0-1.126-.781-1.126-1.271,0-.181.181-.982.2-1.163.108-.982.18-2.381.18-3.344,0-.654,0-2.562-.472-2.562-.091,0-.163.072-.309.219a20.025,20.025,0,0,1-5.161,3.47c-.054,0-.09-.038-.09-.109a.163.163,0,0,1,.054-.127c.472-.418.98-.836,1.271-1.09,4.29-3.671,5.707-6.762,5.707-7.271a1.035,1.035,0,0,0-.145-.51,1.947,1.947,0,0,1-.127-.289c0-.072.091-.145.183-.145.273,0,2.108.765,2.108,1.452a.46.46,0,0,1-.163.364,5.2,5.2,0,0,0-1.237,1.49c-.307.438-.89,1.091-1.235,1.528a.294.294,0,0,0,.163.253" transform="translate(2944.658 6864.168)" fill="#fff"/>
    <path id="パス_38615" data-name="パス 38615" d="M63.886,281.2a12.936,12.936,0,0,0-1.781,1.49c-.346.418-.382.456-.654.456-.982,0-2.327-1.163-2.327-1.892,0-.126.018-.961.181-.961a4.544,4.544,0,0,1,.544.343,3.014,3.014,0,0,0,1.237.418c.89,0,5.705-3.215,8.723-6.2.292-.289.8-.8.837-.8a.115.115,0,0,1,.09.091c0,.162-2.124,3.56-6.851,7.05m-1.49-5.978c-.492,0-.673-.291-1.271-1.2a4.076,4.076,0,0,0-1.655-1.49c-.074-.038-.163-.091-.163-.165s.145-.163.4-.163c1.944,0,3.472,1.036,3.472,2.108a.8.8,0,0,1-.783.91" transform="translate(2951.16 6864.76)" fill="#fff"/>
    <path id="パス_38616" data-name="パス 38616" d="M77.766,277.864c0,.126-.438.472-.492.562-.054.072-.745,1.745-.908,2.054a9,9,0,0,1-4.817,4.669c-.072,0-.108-.034-.108-.09a12.509,12.509,0,0,1,.962-.908,12.264,12.264,0,0,0,3.562-6.851c0-.219-.036-.546-.435-.546a22.159,22.159,0,0,0-2.89.546,11.7,11.7,0,0,1-1.309.327,1.592,1.592,0,0,1-1.436-1.382c0-.108.036-.181.126-.181a1.572,1.572,0,0,1,.273.091,5.63,5.63,0,0,0,1.147.127c1.163,0,5.869-.51,7.141-.691.219-.038,1.163-.327,1.364-.327.217,0,2.289.4,2.289,1.144,0,.328-.291.436-.526.436-.2,0-1.091-.144-1.274-.163-.381-.036-.889-.091-1.291-.091a15.375,15.375,0,0,0-1.835.056.221.221,0,0,0-.127.271,5.631,5.631,0,0,1,.583.948m-4.036-5.344a11.188,11.188,0,0,0,2.581-.454,7.4,7.4,0,0,1,1.454-.219c.381,0,1.036.074,1.036.6s-.31.564-1.382.673c-.928.109-2.145.345-2.418.4-.09.02-.8.165-.853.165-.89,0-1.454-1.271-1.363-1.309.108.018.837.145.944.145" transform="translate(2957.987 6864.534)" fill="#fff"/>
    <path id="パス_38617" data-name="パス 38617" d="M82.188,272.229c.436,0,1.434.636,1.434.946,0,.09-.034.508-.034.6,0,2.108.034,3.743.054,4.178.018.219.108,1.129.108,1.31,0,.472-.417.928-.689.928-.4,0-.817-.964-.817-1.436,0-.145.09-.765.09-.91.036-.817.036-1.528.036-1.854,0-2.034-.091-2.452-.655-3.106-.145-.165-.235-.273-.235-.418,0-.127.292-.237.709-.237m5-.51c-.219-.291-.237-.327-.237-.363,0-.054,0-.109.528-.109,1.091,0,2,.454,2,.926a7.062,7.062,0,0,1-.181.729c-.072.489-.092,3.215-.145,3.853a11.492,11.492,0,0,1-4.544,8.432,7.185,7.185,0,0,1-1.635,1.072c-.072,0-.108-.036-.108-.09,0-.074,1.18-1.237,1.4-1.474,3.506-3.743,3.635-6.9,3.635-10.54a3.482,3.482,0,0,0-.709-2.436" transform="translate(2965.329 6864.154)" fill="#fff"/>
    <path id="パス_38618" data-name="パス 38618" d="M91.8,273.414a7.762,7.762,0,0,0,1.144.074,54,54,0,0,0,7.525-1.055,6.342,6.342,0,0,1,.745-.417,4.809,4.809,0,0,1,2.144,2.362c0,.127,0,.327-.634.472-.637.127-3.418,1.145-3.8,1.655A10.18,10.18,0,0,0,98,278.83a9.917,9.917,0,0,1-4.58,5.615,4.713,4.713,0,0,1-1.253.528c-.074,0-.111-.036-.111-.09s.038-.091.364-.346a12.373,12.373,0,0,0,3.253-3.38,8.293,8.293,0,0,0,1.363-3.98A2.336,2.336,0,0,0,96.8,276.1c-.145-.289-.163-.327-.163-.4,0-.147.273-.163.381-.163A2.7,2.7,0,0,1,98,275.7a5.384,5.384,0,0,0,.709.237,4.932,4.932,0,0,0,2.253-2.219c0-.127-.109-.273-.345-.273a31.933,31.933,0,0,0-6.488,1.127,13.7,13.7,0,0,1-1.528.528c-.435,0-1.854-1.163-1.854-1.8,0-.038.038-.073.129-.073.054,0,.781.163.926.181" transform="translate(2971.204 6864.641)" fill="#fff"/>
    <path id="パス_38619" data-name="パス 38619" d="M111.455,276.259a.981.981,0,0,0,1-.546c1.054-1.418,1.181-2,1.181-2.127,0-.253-.181-.253-.363-.253H106c-.418,0-1.673,0-2.31.054-.054,0-.327.036-.381.036s-.092-.036-.163-.108l-.345-.418c-.074-.092-.074-.092-.074-.127s.018-.038.054-.038c.127,0,.691.056.819.056.819.036,1.635.074,2.472.074H109.4c.508,0,.508-.328.508-.856a7.271,7.271,0,0,0-.074-1.052,2.37,2.37,0,0,1-.074-.328.2.2,0,0,1,.237-.2c.091,0,1.782.256,1.782.6,0,.127-.364.528-.4.618a.928.928,0,0,0-.072.472c0,.4,0,.747.544.747h3.488c.874,0,1,0,1.364-.51.109-.145.4-.526.636-.526.381,0,1.456,1.09,1.456,1.251,0,.257-.31.257-.819.257h-3.036c-.2,0-.235,0-.235.073,0,.054.034.07.361.253.219.108.4.219.4.381,0,.2-.2.255-.4.31-.307.09-.327.108-1.725,1.345-.418.364-.472.4-.472.453,0,.111.074.111.289.111h2.745c.4,0,.474-.038.619-.219.307-.4.345-.436.436-.436.144,0,1.49.872,1.49,1.181,0,.091-.018.2-.31.381-.361.237-.435.438-.435,1.364,0,.635.09,3.434.09,4,0,2.67-.054,3.361-.363,3.779a1.647,1.647,0,0,1-1.235.546c-.255,0-.255-.036-.292-.438-.034-.472-.327-.562-1.126-.835-.345-.109-.382-.127-.382-.217s.091-.127.219-.127.671.054.781.054c.528,0,.819,0,.962-.381a43.228,43.228,0,0,0,.145-4.508c0-.637-.016-3.181-.072-3.344-.074-.31-.291-.327-.528-.327h-2.853c-.546,0-.546.217-.546.89,0,1.2,0,1.291.982,1.291.763,0,1.2,0,1.418-.8.108-.436.127-.49.219-.49.072,0,.2.127.253.546a1.1,1.1,0,0,0,.255.636c.2.181.217.217.217.291a1.01,1.01,0,0,1-.654.763,3.347,3.347,0,0,1-1.492.181c-1.944,0-2.38-.092-2.38-1.89,0-1.271,0-1.417-.582-1.417h-1.108c-.02,0-.074.016-.074.054a5.166,5.166,0,0,1,.618.98c0,.111-.018.129-.508.237-.237.056-.854,1-1,1.163a5.725,5.725,0,0,1-2.562,1.709c-.092,0-.165-.054-.165-.109s.711-.636.837-.763a5.532,5.532,0,0,0,1.49-2.853c0-.4-.289-.418-.49-.418h-2.325c-.529,0-.529.309-.529.636,0,.072-.016,5.506-.016,6.542,0,.327.074,1.747.074,2.036,0,.31,0,.944-.928.944-.508,0-.508-.307-.508-.489,0-.127.072-1.2.072-1.436.072-3.054.072-4.089.072-4.8,0-.654,0-2.163-.09-3.6,0-.126-.109-.69-.109-.817,0-.092.109-.092.127-.092a4.98,4.98,0,0,1,.889.418,1.669,1.669,0,0,0,.856.183h1.962c.127,0,.255,0,.255-.219a5.313,5.313,0,0,0-.528-1.417,6.833,6.833,0,0,1-.691-1.147c0-.054.074-.054.091-.054.327,0,2.255.89,2.255,1.727a1.6,1.6,0,0,1-.2.745c-.109.181-.126.2-.126.253,0,.111.108.111.235.111Zm-2.126,8.269c-.382,0-.436.109-.472.345-.038.327-.092.8-.819.8-.327,0-.436-.108-.436-.435,0-.364.038-2.145.038-2.545,0-.273-.074-1.618-.074-1.671,0-.091,0-.127.127-.127.181,0,.235.036.781.237a2.085,2.085,0,0,0,.781.126h2.6a.824.824,0,0,0,.619-.162c.07-.056.381-.364.472-.364.036,0,1.234.436,1.234.837,0,.127-.034.162-.381.454-.108.072-.163.181-.163.58,0,.02.036,1.908.036,2.273,0,.526-.672.564-.8.564-.51,0-.51-.2-.528-.618,0-.291-.289-.291-.472-.291Zm-.018-2.781c-.528,0-.528.273-.528.817,0,1.327,0,1.472.528,1.472h2.6c.528,0,.546-.217.546-1.271,0-.765,0-1.018-.526-1.018Z" transform="translate(2978.8 6863.632)" fill="#fff"/>
    <path id="パス_38620" data-name="パス 38620" d="M119.284,285.062c-.2,0-.51,0-.544.345s-.091.98-.946.98c-.4,0-.526-.253-.526-.654,0-.546.108-3.2.108-3.8,0-.217,0-1.346-.054-1.926-.018-.145-.091-.837-.091-.89,0-.127.018-.165.127-.165a4.162,4.162,0,0,1,1.144.418,1.483,1.483,0,0,0,.745.145h2.346c.837,0,.944.02,1.09-.217.237-.363.255-.4.4-.4s1.4.637,1.4,1.018c0,.145-.183.273-.4.456-.253.216-.253.58-.253,1.09,0,.472.054,2.817.054,3.343,0,.418,0,1.109-.781,1.109-.472,0-.51-.327-.544-.6-.038-.253-.273-.253-.51-.253Zm2.835-.474a.455.455,0,0,0,.492-.51v-3.524c0-.546-.309-.546-.637-.546h-2.835c-.454,0-.546.2-.546.6,0,.49.109,2.707.109,3.163,0,.526,0,.817.528.817Zm4.6-13.139c.835,0,.926,0,1.072-.219.273-.418.309-.472.472-.472.181,0,1.237.727,1.237,1.054,0,.183-.054.217-.364.4-.2.129-.2.328-.2.529,0,.526.109,2.943.109,3.287,0,.364,0,.984-.819.984-.163,0-.454-.038-.49-.292-.038-.4-.054-.472-.492-.472h-5.361c-.273,0-.364.02-.436.291-.109.364-.181.654-.8.654-.583,0-.6-.271-.6-.526,0-.364.09-2.127.09-2.526a20.794,20.794,0,0,0-.109-2.689,4.254,4.254,0,0,1-.181-.51c0-.092.09-.108.145-.108a5.31,5.31,0,0,1,1.418.508,1.453,1.453,0,0,0,.636.109Zm.526,4.325c.492,0,.528-.291.528-.582,0-.181-.018-2.725-.036-2.853-.038-.4-.382-.4-.546-.4h-5.233c-.546,0-.564.291-.564.69,0,.892,0,2.2.034,2.691.02.454.364.454.564.454Zm.036,9.288a.416.416,0,0,0-.489.418c-.02.4-.057.907-.892.907-.382,0-.528-.253-.528-.654,0-.546.129-3.217.129-3.835,0-.147,0-1.418-.056-1.982-.018-.127-.109-.781-.109-.926,0-.127.036-.145.145-.145a2.716,2.716,0,0,1,1.037.364,1.717,1.717,0,0,0,.835.181h2.181c.854,0,.944,0,1.09-.237.219-.346.255-.382.364-.382.072,0,1.508.654,1.508,1.109,0,.163-.038.2-.436.508-.219.183-.219.546-.219.89,0,.51.074,2.98.074,3.526,0,.436,0,1.163-.946,1.163-.435,0-.435-.235-.453-.546,0-.034-.02-.361-.438-.361Zm-.036-5.2c-.544,0-.544.273-.544.745,0,.454.054,2.434.054,2.853,0,.982,0,1.127.526,1.127h2.782c.454,0,.526-.2.526-.655,0-.526-.054-2.853-.054-3.325s0-.745-.528-.745Z" transform="translate(2987.989 6863.844)" fill="#fff"/>
    <path id="パス_38621" data-name="パス 38621" d="M137.938,272.681c0,.054.036.127.036.2a13.813,13.813,0,0,1,.181,1.962,9.323,9.323,0,0,1-1.871,5.326c-1.454,2.215-2.38,2.653-3.109,2.653-1.2,0-2.269-1.872-2.269-4.09a6.4,6.4,0,0,1,2.016-4.635,7.521,7.521,0,0,1,5.8-2.361,5.942,5.942,0,0,1,2.925.58,5.7,5.7,0,0,1,3.161,5.29,6.779,6.779,0,0,1-4.578,6.4,11.17,11.17,0,0,1-3.018.673c-.072,0-.181-.02-.181-.127,0-.056.036-.074.49-.257,1.89-.745,5.834-2.307,5.834-6.831a4.68,4.68,0,0,0-5.034-5.035c-.364,0-.382.147-.382.255m-5.906,5.58c0,1.181.472,2.8,1.582,2.8.526,0,.962-.219,2.215-2.108a10.4,10.4,0,0,0,1.782-5.289c0-1.09-.074-1.181-.309-1.181-1.727,0-5.271,2.343-5.271,5.779" transform="translate(2996.657 6864.464)" fill="#fff"/>
    <path id="パス_38622" data-name="パス 38622" d="M63.942,300.5c-.09,0-.546.02-.546.328,0,.127,1.183.727,1.183.962,0,.092-.091.145-.147.163a1.448,1.448,0,0,0-.49.328c-1.745,1.872-3.054,2.362-3.054,2.291,0-.056.783-1.073.91-1.237a6.8,6.8,0,0,0,1.235-2.217c0-.018,0-.074-.054-.074-.018,0-.328.074-.382.074-.381,0-.435-.382-.435-.691,0-.217.108-1.763.108-2.09.091-2.98.091-3.853.091-4.908,0-1.743-.056-2.4-.074-2.835-.018-.163-.163-.982-.163-1.163,0-.054,0-.217.145-.217.273,0,.418.072,1.018.4a1.465,1.465,0,0,0,.783.165H65a.71.71,0,0,0,.618-.273c.235-.255.291-.31.435-.31.219,0,1.454.729,1.454,1.073a.324.324,0,0,1-.163.235,4.066,4.066,0,0,0-.4.31c-.09.163-.126,2.962-.126,3.361,0,.2.054,5.49.054,5.816,0,.309,0,1.091-.962,1.091-.237,0-.291-.145-.345-.31-.091-.235-.257-.273-.51-.273Zm.109-3.287c-.564,0-.564.145-.564,1.853,0,.689,0,.962.546.962h1.055c.562,0,.562-.108.562-2.07,0-.418,0-.745-.546-.745Zm.02-3.509c-.564,0-.564.127-.564,1.962,0,.8,0,1.073.544,1.073h1.091c.544,0,.544-.237.544-1.127,0-.2,0-1.526-.036-1.652a.507.507,0,0,0-.508-.257Zm.016-3.452c-.562,0-.562.108-.562,1.908,0,.8,0,1.054.562,1.054h1.055c.544,0,.544-.217.544-1.09,0-1.764,0-1.872-.544-1.872Zm1.655,11.123c.654.49,1.289.98,1.289,1.89a.727.727,0,0,1-.691.779c-.345,0-.4-.126-.707-1.289a6.713,6.713,0,0,0-.709-1.617c-.074-.127-.108-.219-.074-.255.091-.109.8.418.892.492m7.705-11.4c.835,0,.872,0,1.2-.51.163-.235.546-.707.727-.707.127,0,.418.273,1.181.853.492.382.546.438.546.583,0,.253-.091.253-.964.253h-5.4c-.436,0-.564.181-.564.564,0,.235,0,2.309.018,2.416.054.257.217.364.582.364H73.7a.8.8,0,0,0,.709-.253c.217-.346.273-.456.454-.456a5.209,5.209,0,0,1,1.8,1.127c0,.2-.854.691-.946.853-.016.056-1.108,3.31-1.363,3.928a9.688,9.688,0,0,0-.619,1.417c0,.508,1.619,1.854,2.8,2.49.382.2,1.054.436,1.472.618.036.018.181.092.181.145,0,.092-.381.127-.637.145a2.4,2.4,0,0,0-1.506.6c-.145.109-.2.145-.255.145a9.092,9.092,0,0,1-2.508-2.544c-.109-.163-.219-.327-.4-.327a.488.488,0,0,0-.364.237,8.8,8.8,0,0,1-3.671,2.6,6.417,6.417,0,0,1-.944.309.066.066,0,0,1-.074-.054c0-.056.02-.074.219-.2,2.854-1.908,4.018-3.745,4.018-4.145a16.149,16.149,0,0,0-.582-1.707,16.359,16.359,0,0,1-.729-4.073c-.016-.108-.054-.381-.307-.381-.273,0-.292.327-.292.546-.034,1.689-.108,6.452-2.361,8.87a4.47,4.47,0,0,1-1.382,1.034c-.074,0-.054-.036.219-.381,1.508-1.908,2.363-4.109,2.363-9.868,0-.492,0-2.962-.127-4.036-.02-.163-.165-.854-.165-1,0-.108.111-.108.165-.108a2.5,2.5,0,0,1,1.126.472,1.32,1.32,0,0,0,.709.181Zm-1.854,4.289c-.253,0-.418.054-.418.327,0,1.237,1.309,4.781,1.745,4.781.474,0,1.454-4.47,1.454-4.707,0-.4-.327-.4-.454-.4Z" transform="translate(2952.278 6875.257)" fill="#fff"/>
    <path id="パス_38623" data-name="パス 38623" d="M78.173,296.494c-.363,0-.363.074-.418.637-.09.853-.781,2.181-1.707,2.181a.683.683,0,0,1-.727-.691c0-.327.091-.436.763-1.4a2.751,2.751,0,0,0,.508-1.544c0-.073-.09-.436-.09-.508a.2.2,0,0,1,.2-.2c.2,0,.725.781.871.908a.8.8,0,0,0,.564.145H87.9c.583,0,.709,0,.91-.127.108-.072.582-.472.709-.472.2,0,1.89,1.018,1.89,1.345,0,.346-.528.4-.727.418a4.5,4.5,0,0,0-1.546.4,5.476,5.476,0,0,1-.854.436c-.054,0-.145-.018-.145-.109a13.693,13.693,0,0,0,.709-1.291s0-.127-.271-.127Zm3.763,1.2c.2.073.381.145.381.291,0,.111-.363.456-.381.546-.091.255-.2,1.474-.237,1.709a6.111,6.111,0,0,1-5.924,4.888c-.145,0-.255-.054-.255-.163,0-.092.109-.109.291-.163a6.555,6.555,0,0,0,2.235-1.072,5.7,5.7,0,0,0,2.363-5.217,4.439,4.439,0,0,0-.054-.819,2.772,2.772,0,0,1-.108-.417c0-.109.108-.129.162-.129a.543.543,0,0,1,.237.057c.255.09,1.072.418,1.291.489m3.725-3.779c.8,0,.872-.018,1.181-.454.165-.255.436-.582.655-.582a5.443,5.443,0,0,1,1.761,1.309c0,.217-.361.217-.944.217H80.3c-1.582,0-2.108.036-2.289.036a2.617,2.617,0,0,1-.384.054c-.072,0-.108-.054-.162-.126l-.346-.418c-.072-.072-.09-.09-.09-.109s.036-.054.072-.054c.127,0,.691.054.8.074.89.036,1.635.054,2.492.054h1.562c.454,0,.546-.181.546-1.237,0-.49,0-.779-.528-.779H79.045c-1.18,0-1.836.016-2.309.054-.054,0-.327.034-.381.034s-.092-.034-.163-.126l-.346-.4c-.072-.091-.072-.108-.072-.127,0-.036.018-.036.056-.036.127,0,.691.056.8.056.89.036,1.655.072,2.508.072h2.817c.564,0,.564-.145.564-1.289,0-.219-.09-1.129-.09-1.309,0-.127,0-.183.145-.183a9.492,9.492,0,0,1,1.307.328c.436.108.618.289.618.417,0,.109-.363.454-.4.544a1.249,1.249,0,0,0-.145.637c0,.583,0,.855.51.855h2.581c.817,0,.908,0,1.2-.454.163-.235.454-.654.689-.654a6.634,6.634,0,0,1,1.928,1.325c0,.257-.364.257-.982.257H84.443c-.546,0-.546.088-.546,1.452,0,.2,0,.564.472.564Zm.291,3.47c.127.036.346.109.346.273,0,.109-.364.474-.418.564a6.052,6.052,0,0,0-.145,1.709,9.024,9.024,0,0,0,.163,2.835c.163.381.727.526,2.163.526,1.926,0,1.98-.418,2.253-2.58a3.131,3.131,0,0,1,.181-.89c.092,0,.109.237.31,2.217a1.193,1.193,0,0,0,.235.636,2.2,2.2,0,0,1,.49.8c0,.528-.836.855-.944.889a7.239,7.239,0,0,1-2.327.257c-3.89,0-3.89-.51-3.89-2.944,0-.546-.034-2.964-.034-3.454,0-.126-.02-.655-.02-.763,0-.31.109-.31.327-.273.219.054,1.127.145,1.309.2" transform="translate(2961.425 6875.18)" fill="#fff"/>
    <path id="パス_38624" data-name="パス 38624" d="M89.545,298c-.108,0-.126-.09-.126-.145,0-.074.018-.108.217-.436a37.644,37.644,0,0,0,3.853-8.287c.038-.363.074-.544.219-.544.092,0,1.727.8,1.727,1.072,0,.108-.091.162-.255.253a1.146,1.146,0,0,0-.508.583c-.474.907-.964,1.8-1.49,2.688a4.635,4.635,0,0,0-.438.8c0,.091.109.163.165.2.253.145.291.163.291.255s-.2.454-.219.546a7.411,7.411,0,0,0-.072,1.418c0,1.126.091,6.705.091,7.96,0,.671-.711.8-.856.8-.58,0-.58-.582-.58-.944,0-.273.108-1.691.108-2,.074-2.163.091-4.143.091-6.307,0-.072-.018-.291-.109-.309-.163-.036-1.707,2.4-2.109,2.4m12.541-4.217c.837-.072.928-.072,1.145-.361.49-.619.544-.691.727-.691.108,0,1.725.907,1.725,1.144,0,.219-.09.235-.962.292l-5,.307c-.31.02-.472.038-.472.418a19.292,19.292,0,0,0,.672,3.434c.984,3.328,2.416,4.434,3.072,4.745a1.471,1.471,0,0,0,.474.163c.381,0,.817-.763,1.144-1.381.054-.092.219-.418.291-.418.056,0,.091.054.091.127,0,.054-.255,1.49-.255,1.761a1.622,1.622,0,0,0,.255.856,1.119,1.119,0,0,1,.181.508c0,.381-.472.472-.745.472-2.307,0-5.47-2.962-6.325-9.888-.036-.361-.091-.672-.564-.618l-.654.073c-.273.036-1.508.126-1.765.163-.144.02-.817.127-.907.127-.074,0-.092-.036-.165-.108l-.363-.418c-.072-.074-.09-.091-.09-.111,0-.036.034-.054.072-.054.054,0,.654.038.781.038.382,0,2.219-.109,2.327-.109h.181l.544-.074c.4-.054.456-.054.456-.327,0-.018-.327-3.89-.418-4.434-.018-.109-.2-.619-.2-.727,0-.074.091-.074.145-.074.036,0,1.908.219,1.908.673a2.559,2.559,0,0,1-.382.6.651.651,0,0,0-.074.382,31.55,31.55,0,0,0,.256,3.6c.09.145.327.127.454.127Zm.219-3.524a1.6,1.6,0,0,1,.944,1.289.692.692,0,0,1-.637.727c-.435,0-.6-.289-1.052-1.034a3.1,3.1,0,0,0-.727-.89c-.091-.074-.219-.165-.219-.239,0-.126.163-.145.528-.145a3.377,3.377,0,0,1,1.163.292" transform="translate(2970.362 6875.146)" fill="#fff"/>
    <path id="パス_38625" data-name="パス 38625" d="M107.724,295.707c-.546,0-.565.018-.565,2.018,0,.109.02,1.836.02,2.126.018.092.038.183.163.183.327,0,2.327-.854,2.544-.854.038,0,.056.018.056.036,0,.474-5.071,2.689-5.379,2.926-.074.074-.346.418-.418.418-.219,0-.729-1.4-.729-1.635,0-.163.074-.163.837-.217,1.727-.111,1.727-.31,1.727-.91v-3.452c0-.418-.038-.637-.564-.637a8.018,8.018,0,0,0-.91.038c-.072,0-.4.054-.453.054-.074,0-.092-.038-.145-.127l-.309-.418c-.056-.072-.056-.091-.056-.126s.018-.038.056-.038c.09,0,1.526.127,1.817.127.58,0,.58-.237.58-1.219,0-.472,0-2.926-.054-3.2s-.289-.309-.544-.309c-.219,0-1.436.091-1.436.091-.074,0-.109-.018-.163-.109l-.309-.418c-.036-.073-.074-.09-.074-.127s.018-.036.056-.036c.127,0,.636.054.745.054.763.036,1.49.074,2.235.074h.346c.689,0,.761,0,.907-.127.127-.145.637-.854.819-.854.109,0,1.528.982,1.528,1.2,0,.255-.327.255-.872.255H107.7a.439.439,0,0,0-.472.253c-.054.165-.054,1.854-.054,2.2v1.943c0,.091,0,.328.253.328a.6.6,0,0,0,.418-.2c.111-.108.564-.781.711-.781.108,0,1.435.982,1.435,1.2,0,.273-.309.273-.817.273Zm9.159-6.143a1.047,1.047,0,0,0,.8-.253,2.024,2.024,0,0,1,.526-.4c.127,0,1.4.546,1.4.926,0,.145-.09.2-.381.382a.611.611,0,0,0-.309.564c-.018.217-.056,1.89-.056,2.727,0,.508.056,2.761.056,3.215a.774.774,0,0,1-.854.872c-.309,0-.327-.054-.564-.582-.109-.253-.327-.253-.546-.253h-1.18c-.546,0-.546.145-.546,1.379a14.153,14.153,0,0,0,.054,1.565c.074.163.219.163.637.163.526,0,.634-.036.725-.127.127-.127.654-.854.819-.854.108,0,1.544.982,1.544,1.2,0,.255-.327.255-.89.255h-2.343c-.546,0-.546.237-.546,1.2,0,1.235,0,1.381.018,1.492.054.271.309.327.528.327h1.217c.817,0,.853,0,1.2-.51.382-.582.436-.654.582-.654.289,0,1.436,1.217,1.436,1.435,0,.2-.091.2-.837.2h-8.56c-.456,0-1.291,0-1.946.034a4.662,4.662,0,0,1-.49.057c-.056,0-.09-.038-.145-.111l-.309-.418a.226.226,0,0,1-.074-.126c0-.02.02-.036.054-.036.111,0,.637.054.729.054,1.217.074,1.781.074,2.255.074H113.5c.564,0,.564-.273.564-1.291,0-1.617,0-1.727-.583-1.727h-.435c-.819,0-1.635.018-2.073.054-.054,0-.289.038-.345.038s-.09-.038-.145-.111l-.327-.417c-.054-.091-.074-.091-.074-.127,0-.018.038-.036.074-.036.109,0,.618.054.729.054,1.09.054,1.67.074,2.253.074h.343c.564,0,.564-.147.564-1.49a5.2,5.2,0,0,0-.054-1.418c-.108-.2-.381-.2-.544-.2h-1.183c-.418,0-.546,0-.618.381-.09.6-.181,1.109-1,1.109-.253,0-.345-.111-.345-.492,0-.181.074-.982.074-1.144.018-.51.092-3.817.092-4.036,0-1.49-.092-2.49-.127-2.853-.02-.109-.091-.582-.091-.673,0-.054,0-.108.072-.108.091,0,.872.4,1.037.454a2.711,2.711,0,0,0,1.108.162Zm-3.38,6.726c.564,0,.564-.183.564-1.836,0-.964,0-1.181-.564-1.181h-1.309c-.562,0-.562.072-.562,1.8,0,1,0,1.219.562,1.219Zm0-3.49c.544,0,.544-.165.544-1.581,0-.982,0-1.163-.544-1.163h-1.309c-.546,0-.546.181-.546,1.181,0,1.49,0,1.564.546,1.564Zm2.327-2.745c-.6,0-.6.036-.6,1.562,0,1.018,0,1.183.6,1.183h1.255c.6,0,.6-.147.6-1.382s0-1.363-.6-1.363Zm0,3.217c-.6,0-.6.2-.6,1.289,0,1.637,0,1.729.6,1.729h1.163c.58,0,.636-.092.636-1.854,0-.946,0-1.163-.6-1.163Z" transform="translate(2979.233 6875.35)" fill="#fff"/>
    <path id="パス_38626" data-name="パス 38626" d="M124.795,291.211c.2,0,.564,0,.564-.474,0-.072-.056-.654-.109-1.126-.018-.127-.2-.673-.2-.781s.109-.165.217-.165c.235,0,1.763.091,1.763.454,0,.074-.253.346-.291.418-.09.127-.09.327-.09.727,0,.727,0,.946.546.946h3.161c.854,0,.944,0,1.163-.31.436-.6.49-.671.654-.671a4.117,4.117,0,0,1,1.6,1.217c0,.255-.092.255-.964.255H121.032c-.564,0-.564.291-.564,1.016,0,.529.056,2.836.056,3.31a12.444,12.444,0,0,1-1.835,7.014c-.183.273-.854,1.291-1.055,1.291-.054,0-.054-.072-.054-.109s.765-1.944.872-2.235a18.825,18.825,0,0,0,.8-6.378,34.33,34.33,0,0,0-.253-4.2c-.02-.109-.165-.582-.165-.673a.148.148,0,0,1,.145-.163c.111,0,1.145.418,1.364.492a2.447,2.447,0,0,0,.926.145Zm0,7.851c.546,0,.546-.309.546-.855,0-.382.036-2.09.036-2.434a21.4,21.4,0,0,0-.145-2.763,4.717,4.717,0,0,1-.09-.492.188.188,0,0,1,.2-.2c.054,0,1.725.273,1.725.582,0,.09-.309.418-.343.49a4.637,4.637,0,0,0-.129,1.363c0,.237,0,.583.528.583H129.3c.781,0,.853,0,1.108-.346.472-.691.51-.745.709-.745.327,0,1.6.946,1.6,1.237,0,.327-.382.327-.962.327H127.14a.451.451,0,0,0-.49.273,10.661,10.661,0,0,0-.056,2.327c0,.363.018.654.546.654h2.418a.913.913,0,0,0,.544-.127c.092-.072.492-.472.6-.472.237,0,1.4.691,1.4.944,0,.127-.436.472-.51.546-.108.109-.108.163-.108.564,0,.526.127,3.2.127,3.361,0,.346,0,1-.928,1-.472,0-.472-.183-.508-.618-.02-.364-.273-.438-.51-.438h-6.307c-.237,0-.436.054-.51.346a.986.986,0,0,1-1.016.89c-.474,0-.508-.255-.508-.508,0-.546.09-2.964.09-3.472,0-.837-.036-1.454-.056-1.835-.016-.129-.108-.765-.108-.89,0-.057.074-.091.145-.091.2,0,.363.072,1.327.58a1.64,1.64,0,0,0,.837.219Zm-1.508.49c-.273,0-.472.073-.528.346-.018.091-.018,2.343-.018,2.6,0,.58.036.853.582.853h6.343c.237,0,.472-.09.51-.363v-2.635c0-.528,0-.8-.526-.8Z" transform="translate(2988.211 6875.194)" fill="#fff"/>
  </g>
</svg>
