<svg id="グループ_12741" data-name="グループ 12741" xmlns="http://www.w3.org/2000/svg" width="215.057" height="22.437" viewBox="0 0 215.057 22.437">
  <path id="パス_29512" data-name="パス 29512" d="M6.024,41.738c-.845,0-.845.165-.845,1.543,0,.477.17.6,1.157.96.606.243,1.956.748,1.956,2.025,0,.1-.028.992-.629.992-.409,0-.528-.275-1.038-1.258-.239-.455-.868-1.593-1.2-1.593-.1,0-.243.1-.243.56,0,.794.028,4.311.028,5.036-.028.836.069,4.554.069,5.3a1.058,1.058,0,0,1-1.106,1.129c-.312,0-.533-.142-.533-.5,0-.22.051-1.933.073-2.2.028-.578.1-6.069.1-6.79,0-.055,0-.317-.069-.317S1.18,51.568.46,51.568a.059.059,0,0,1-.051-.046c0-.05.748-1.671.891-1.983a36.561,36.561,0,0,0,2.263-7.222c0-.578-.528-.578-.744-.578s-1.2.018-1.662.046a2.394,2.394,0,0,1-.436.069c-.069,0-.119-.069-.17-.165l-.386-.556C.1,41.04.074,41.013.074,40.985a.061.061,0,0,1,.069-.069c.386,0,2.608.165,3.108.165.657,0,.657,0,.657-3.976,0-.358-.17-2.048-.17-2.172,0-.041.018-.1.069-.1a13.865,13.865,0,0,1,1.543.468c.487.11.652.193.652.422,0,.174-.073.22-.317.413s-.285.317-.285.748c0,.413-.17,3.448-.17,3.737,0,.142.023.455.505.455a.709.709,0,0,0,.629-.413c.243-.45.312-.6.505-.6A6.04,6.04,0,0,1,8.678,41.44c0,.3-.51.3-1.065.3Zm10.628,3.806c-.266,0-.606,0-.606.335a12.746,12.746,0,0,0,5.688,6.7c.367.22.918.528.918.652s-.165.119-.239.119a3.21,3.21,0,0,0-1.235.266,5.871,5.871,0,0,1-1.079.652,17.011,17.011,0,0,1-3.783-6.1c-.073-.165-.34-.992-.413-1.152a.117.117,0,0,0-.1-.1c-.1,0-.1.147-.1.257,0,1.308.051,7.07.051,8.25,0,.386-.051.6-.243.739a1.748,1.748,0,0,1-.987.317c-.363,0-.505-.161-.505-.51,0-.836.17-2.208.193-3.058.023-1.18.1-4.981.1-5.036,0-.354-.028-.455-.147-.455-.1,0-.142.046-.335.358a17.437,17.437,0,0,1-5.711,6.294,4.033,4.033,0,0,1-.868.4c-.051,0-.147-.018-.147-.087a4.777,4.777,0,0,1,.822-.872,20.14,20.14,0,0,0,5.156-7.47c0-.505-.386-.505-.918-.505-.578,0-1.855.023-2.406.069-.073,0-.436.051-.505.051-.1,0-.152-.051-.22-.147l-.459-.551c-.092-.119-.119-.119-.119-.17s.051-.046.1-.046c.165,0,.918.069,1.061.069.193,0,1.928.092,3.062.092h.748c.67,0,.84-.138.84-.794,0-.578,0-2.961-.069-3.347-.051-.335-.17-.5-.7-.5H11.327c-.51,0-.556.046-.868.592a8.635,8.635,0,0,1-2.126,2.58.06.06,0,0,1-.069-.069c0-.051.675-1.561.8-1.855a21.088,21.088,0,0,0,1.373-4.894c.046-.51.069-.551.239-.551.073,0,2.314.647,2.314.987,0,.165-.17.216-.6.358-.239.078-.266.174-.606.946-.142.358-.432,1.028-.432,1.061,0,.193.193.216.312.216h1.855c.216,0,.7,0,.7-.657,0-.289-.023-1.731-.051-1.924-.023-.367-.239-2.048-.239-2.263a.1.1,0,0,1,.1-.1c.069,0,2.24.482,2.24.744,0,.124-.386.505-.409.6a26.1,26.1,0,0,0-.147,2.842c0,.634.243.753.8.753h.578c.551,0,.721-.023.886-.17.2-.17.941-1.129,1.185-1.129a6.909,6.909,0,0,1,2,1.589c0,.34-.482.34-1.276.34h-3.4c-.335,0-.551.046-.7.308a31.471,31.471,0,0,0-.1,3.154c0,.9,0,1.18.794,1.18h1.061c.987,0,1.111,0,1.281-.161.193-.17.863-1.084,1.079-1.084.17,0,2.126,1.226,2.126,1.538,0,.34-.505.34-1.276.34Z" transform="translate(-0.074 -34.287)" fill="#fff"/>
  <path id="パス_29513" data-name="パス 29513" d="M16.931,39.951c.413,0,.505-.078.505-.294,0-.193-.386-2.746-.459-3.131-.046-.266-.335-1.492-.335-1.758,0-.073.1-.073.165-.073a10.375,10.375,0,0,1,1.69.266c.624.119.941.216.941.528,0,.142-.023.17-.243.413-.266.266-.266.386-.266,1.492.028,2.557.22,2.557.822,2.557h2.791c1.116,0,1.235,0,1.543-.413.748-1.015.822-1.106,1.065-1.106.363,0,2.314,1.4,2.314,1.8,0,.367-.436.367-1.281.367H19.8c-.413,0-.556.041-.556.381a31.987,31.987,0,0,0,.964,4.265c1.492,4.651,4.118,7.69,4.844,7.69.335,0,.744-.7,1.061-1.276a6.681,6.681,0,0,1,.7-1.281c.073,0,.073.124.073.17,0,.073-.317,2.677-.317,3.182a1.785,1.785,0,0,0,.266.987,1.335,1.335,0,0,1,.243.675c0,.51-.34.6-.629.6-2.121,0-7.158-5.133-8.7-14.361-.142-.891-.193-1.033-.79-1.033h-6.51c-.556,0-2.195,0-3.039.041a3.407,3.407,0,0,1-.528.078c-.069,0-.119-.078-.193-.17L6.206,40c-.1-.1-.1-.124-.1-.147,0-.046.023-.069.1-.069.17,0,.914.069,1.061.092,1.106.051,2.167.078,3.3.078Zm-3.255,6.336A.635.635,0,0,0,13,46.7c-.051.234-.142,2.768-.142,4.238s0,1.712.409,1.712c.363,0,5.8-1.23,5.854-1.23.028,0,.124,0,.124.073,0,.239-3.443,1.662-6.46,2.626a30.477,30.477,0,0,0-4.412,1.492c-.142.073-.647.679-.79.679-.266,0-.946-2.534-.946-2.608,0-.092.073-.119.822-.193a30.826,30.826,0,0,0,3.329-.477.522.522,0,0,0,.216-.34c.023-.193.046-3.159.046-3.448,0-.193-.023-2.24-.023-2.332-.023-.578-.459-.578-.7-.578a19.7,19.7,0,0,0-2.19.069c-.046,0-.289.046-.34.046-.092,0-.142-.073-.211-.165l-.464-.556c-.1-.1-.115-.124-.115-.165s.041-.05.092-.05c.17,0,.914.073,1.065.092,1.106.05,2.19.073,3.3.073h1.905a3.834,3.834,0,0,0,1.157-.073c.266-.119.987-1.276,1.23-1.276A4.215,4.215,0,0,1,17.51,45.97c0,.317-.482.317-1.3.317ZM20.884,34.96c.335,0,3.664.822,3.664,2.213a.894.894,0,0,1-.992.992c-.266,0-.312-.069-.817-.8a12.07,12.07,0,0,0-1.855-2.139c-.073-.051-.17-.147-.147-.193,0-.051.1-.073.147-.073" transform="translate(21.602 -34.309)" fill="#fff"/>
  <path id="パス_29514" data-name="パス 29514" d="M11.922,45.551c0-.1.069-.142.358-.335.17-.124,2.144-1.52,3.714-2.846,4.118-3.517,5.638-6.386,5.753-6.914.2-.748.2-.845.487-.845.023,0,2.263,1.056,2.263,1.469,0,.124-.051.147-.285.317-.152.069-.174.142-.174.234,0,.753,4.265,6.1,9.977,7.713.679.193.679.193.679.312,0,.147-.073.174-.679.367a2.842,2.842,0,0,0-1.543.983c-.092.174-.165.243-.312.243-.528,0-5.661-3.54-8.383-8.5-.266-.51-.312-.578-.409-.578s-.482.477-.675.721a23.874,23.874,0,0,1-10.555,7.731c-.073.028-.216.051-.216-.069m6.625,3.3c-1.781,0-2.383.023-3.039.073-.073,0-.432.046-.5.046-.1,0-.124-.046-.22-.142l-.459-.556c-.046-.073-.119-.147-.119-.17,0-.046.051-.046.1-.046.17,0,.918.069,1.061.069,1.185.05,2.456.1,3.3.1h7.952c1.015,0,1.276,0,1.855-.8.363-.505.459-.652.679-.652.193,0,.262.051.817.51,1.23,1.01,1.23,1.033,1.23,1.253,0,.312-.119.312-1.253.312H22.569c-.239,0-.335,0-.335.073,0,0,1.134.964,1.134,1.23,0,.216,0,.216-.725.409-.193.069-.239.142-.845.941-.505.67-1.492,1.855-1.634,2-.1.124-.34.358-.34.578s.34.243.432.243c.317,0,2.58-.147,5.257-.413,1.735-.165,1.928-.193,1.928-.436,0-.358-1.423-1.584-1.423-1.878,0-.119.1-.142.17-.142a22.907,22.907,0,0,1,3.058,1.492c.652.386,2.144,1.258,2.144,2.773,0,.771-.477,1.3-.937,1.3-.7,0-1.207-.891-1.639-1.69-.459-.817-.675-.9-1.01-.9a104.993,104.993,0,0,0-11.184,2.222,4.8,4.8,0,0,1-.7.386.282.282,0,0,1-.243-.17,19.241,19.241,0,0,1-1.327-2.553c0-.17.124-.17.193-.17.17,0,.918.142,1.065.17a13.313,13.313,0,0,0,1.419.092c1.35,0,1.52,0,2.507-1.974a16.863,16.863,0,0,0,1.253-3.182c0-.409-.312-.409-.725-.409Zm5.013-4.481c1.18,0,1.23-.051,1.708-.629.386-.455.679-.817.8-.817a6.57,6.57,0,0,1,1.827,1.8c0,.266-.119.266-1.276.266H21.077c-1.469,0-2.172,0-3.062.073-.073,0-.432.046-.505.046s-.119-.046-.216-.142l-.459-.556c-.1-.1-.1-.119-.1-.165,0-.028.028-.05.073-.05.165,0,.914.073,1.061.073,1.18.069,2.337.1,3.3.1Z" transform="translate(42.474 -34.61)" fill="#fff"/>
  <path id="パス_29515" data-name="パス 29515" d="M18.221,40.354c-.092-.119-.119-.147-.119-.17,0-.051.069-.051.1-.051.459,0,2.672.142,3.182.142.675,0,.675-.165.675-1.777,0-.363-.028-1.786-.1-2.7,0-.119-.119-.679-.119-.822,0-.05.073-.05.1-.05a19.426,19.426,0,0,1,2.167.652c.124.073.266.17.266.34,0,.1-.436.459-.482.551-.119.22-.119.34-.119,1.35v2.029c0,.335.142.386.386.386a.854.854,0,0,0,.574-.17c.17-.1.872-.822,1.088-.822a.458.458,0,0,1,.34.17c.285.289.794.891.863.941.528.5.578.551.578.693a.356.356,0,0,1-.262.317c-.073.028-.409.1-.482.119a25.912,25.912,0,0,0-2.24,2.415c-.7.721-.771.79-.771,1.226,0,.505.216.551.794.675.817.193,3.085.84,3.085,2.677,0,.748-.409,1.106-.845,1.106-.578,0-.845-.482-1.469-1.758-.147-.266-.941-1.492-1.4-1.492-.216,0-.216.335-.216.624,0,.918.023,5.372.023,6.359,0,.317.119,1.809.119,2.149a1.149,1.149,0,0,1-1.276,1.106c-.578,0-.721-.239-.721-.579,0-.239.092-1.35.092-1.611.051-1.786.152-4.293.152-7.135,0-.266,0-.675-.243-.675s-3.379,2.723-4,2.723c-.051,0-.124,0-.124-.069a24.127,24.127,0,0,1,2.1-2.149c.96-.987,4.362-5.206,4.362-5.9,0-.216-.17-.239-.386-.239H22.2c-.941,0-1.947.023-2.791.073-.078,0-.436.041-.505.041-.1,0-.147-.041-.22-.142ZM26.1,55.1c-.1-.119-.1-.119-.1-.142a.075.075,0,0,1,.073-.073c.142,0,.886.1,1.061.1.7.023,1.947.069,3.3.069h.941c.216,0,.652,0,.7-.528.046-.436.092-9.71.092-10.968,0-.234,0-.744-.578-.744-.6,0-2,0-2.842.073-.069,0-.409.051-.505.051-.073,0-.124-.051-.216-.152l-.459-.551c-.1-.119-.1-.119-.1-.17s.05-.05.069-.05.9.078,1.015.078c.243,0,2.195.1,3.012.1.578,0,.629-.317.629-.987,0-2.222-.051-3.306-.17-5.115,0-.193-.142-1.033-.142-1.226,0-.124.051-.17.193-.17.069,0,1.566.459,1.735.505.216.073.721.193.721.606,0,.119-.482.528-.528.652-.147.335-.216,4.334-.216,4.981,0,.294,0,.753.574.753,1.134,0,1.253,0,1.763-.675.7-.941.771-1.042.983-1.042.34,0,2.029,1.57,2.029,2.029,0,.312-.51.312-1.276.312H34.514c-.652,0-.7.358-.7.794,0,1.451.069,8.512.069,10.123,0,.9,0,1.322.629,1.322h.891a1.5,1.5,0,0,0,1.423-.721c.652-.845.721-.941,1.01-.941.22,0,2.337,1.57,2.337,1.979,0,.335-.505.335-1.3.335H30.323c-.583,0-2.2-.023-3.039.051-.073,0-.432.069-.51.069s-.119-.046-.211-.165Z" transform="translate(63.625 -34.327)" fill="#fff"/>
  <path id="パス_29516" data-name="パス 29516" d="M28.316,42.914c-1.442,3.127-3.976,4.577-4.453,4.577a.114.114,0,0,1-.124-.124,6.9,6.9,0,0,1,.964-1.276c2.649-3.641,2.915-6.262,2.915-7.061a5.26,5.26,0,0,0-.409-2.071,1.721,1.721,0,0,1-.1-.436c0-.073.028-.119.119-.119.17,0,2.727.817,2.727,2.048,0,.073-1.235,3.544-1.644,4.463m3.907,2.236c0-.115.119-.744.142-.863.073-.459.1-2.364.1-2.966A14.725,14.725,0,0,0,32,36.789a6.567,6.567,0,0,1-.312-.868c0-.1.1-.119.147-.119.119,0,2.649.436,2.649,1.685,0,.294-.335,1.543-.386,1.809-.1.647-.193,3.567-.193,4.362,0,.312.023.8.459.8.721,0,2.938-1.593,5.252-3.935.409-.409,2.456-2.576,2.557-2.576a.1.1,0,0,1,.092.1c0,.193-1.4,3.182-5.61,6.891A12.616,12.616,0,0,0,35,46.476c-.409.459-.629.629-.794.652-.7.119-1.979-1.3-1.979-1.979" transform="translate(84.91 -30.329)" fill="#fff"/>
  <path id="パス_29517" data-name="パス 29517" d="M45.591,36.859c.147,0,.413-.023.533-.023,1.474,0,1.685.891,1.685,1.061,0,.675-.982.748-2,.748-.556,0-2.966-.05-3.448-.05-3.329,0-8.847.312-9.421.436-.289.046-1.593.432-1.882.432-1.038,0-2.144-1.5-2.144-2.314,0-.147.073-.289.193-.289s.7.266.822.289a12.9,12.9,0,0,0,2.938.216c.794,0,9.205-.312,12.722-.505" transform="translate(103.501 -26.616)" fill="#fff"/>
  <path id="パス_29518" data-name="パス 29518" d="M38.606,47.022a37.481,37.481,0,0,0,5.546-.7c3.54-.6,3.54-.725,3.54-1.01a3,3,0,0,0-.7-1.423,8.861,8.861,0,0,1-.556-.918.163.163,0,0,1,.17-.142c.7,0,4.339,2.961,4.339,5.326,0,1.616-1.157,1.685-1.327,1.685-.817,0-.914-.6-1.226-2.19-.22-1.157-.317-1.373-.679-1.373-.119,0-5.564,1.662-6.6,1.951-.652.17-3.806.891-4.022.987-.17.073-.748.771-.918.771-.216,0-.216-.023-1.276-1.061A5.283,5.283,0,0,1,34.272,47c0-.073,0-.17.092-.17a5.236,5.236,0,0,1,.7.22,4.3,4.3,0,0,0,.868.119c1.01,0,1.492-.312,2.791-2.677,1.065-1.951,3.228-6.34,3.228-8.168,0-.119-.041-.7-.041-.8s.023-.266.165-.266c.17,0,2.387,1.616,2.387,2.465,0,.4-.266.647-.748,1.106-.386.358-3.154,4.7-3.76,5.564-.266.363-1.634,2.149-1.657,2.24-.028.243.092.386.308.386" transform="translate(122.735 -32.276)" fill="#fff"/>
  <path id="パス_29519" data-name="パス 29519" d="M50.763,37.5c-.335,0-6.455.748-8.025.987-1.015.147-1.015.262-1.015,1.735,0,.578.271,3.182.271,3.71,0,.317,0,1.786-.629,1.786-.556,0-1.377-1.327-1.377-2.195a5.174,5.174,0,0,1,.17-1.084,6.282,6.282,0,0,0,.073-1.084,8.606,8.606,0,0,0-.771-3.834,4.115,4.115,0,0,1-.436-.7c0-.17.487-.363.872-.363.358,0,.528.1,1.249.533.17.119.363.239,1.281.239.725,0,7.759-.891,8.388-1.157.142-.046.647-.482.771-.482.312,0,2.36,1.593,2.36,2.1,0,.216-.624.964-.725,1.157-.262.578-1.35,3.278-1.589,3.834-.817,1.827-2.695,5.684-6.336,8a5.251,5.251,0,0,1-1.088.556.136.136,0,0,1-.142-.147,4.534,4.534,0,0,1,.721-.817,22.315,22.315,0,0,0,5.206-7.929A23.433,23.433,0,0,0,51.2,37.98c0-.262,0-.477-.436-.477" transform="translate(139.797 -31.066)" fill="#fff"/>
  <path id="パス_29520" data-name="パス 29520" d="M49.875,47.447a16.744,16.744,0,0,0-2.364,1.974c-.459.556-.5.6-.863.6-1.3,0-3.085-1.543-3.085-2.507,0-.165.023-1.272.239-1.272a6.7,6.7,0,0,1,.725.455,3.972,3.972,0,0,0,1.639.556c1.18,0,7.566-4.265,11.57-8.218.386-.386,1.056-1.061,1.106-1.061a.152.152,0,0,1,.119.119c0,.216-2.819,4.724-9.086,9.352M47.9,39.518c-.652,0-.886-.386-1.685-1.593a5.4,5.4,0,0,0-2.195-1.974c-.092-.046-.216-.119-.216-.216s.193-.216.533-.216c2.576,0,4.6,1.373,4.6,2.791A1.068,1.068,0,0,1,47.9,39.518" transform="translate(156.096 -31.346)" fill="#fff"/>
</svg>
