<svg id="グループ_12738" data-name="グループ 12738" xmlns="http://www.w3.org/2000/svg" width="400.841" height="22.437" viewBox="0 0 400.841 22.437">
  <path id="パス_29473" data-name="パス 29473" d="M3.654,2.474a9.5,9.5,0,0,0,2.02.243A28.042,28.042,0,0,0,11.7,1.754c.216-.051,1.134-.51,1.35-.51.744,0,2.364.51,2.364,1.23,0,.459-.679.482-1.258.505-.551.028-3.012.363-3.521.413-.092,0-.358.046-.358.266a.583.583,0,0,0,.216.358c.578.606.652.675.652.868a8.807,8.807,0,0,1-.193.9c-.1.964-.266,2.213-.409,3.319,0,.124-.023.22-.023.271,0,.358.165.459.721.459.482,0,3.521-.22,4.173-.243.285-.023,1.515-.17,1.777-.17.657,0,2.387,1.084,2.387,1.781,0,.436-.817.51-.891.51-.193,0-1.226-.294-1.52-.363a9.707,9.707,0,0,0-2.911-.317A42.8,42.8,0,0,0,3.82,12.263c-.216.046-1.106.409-1.3.409-.1,0-2.456-1.038-2.456-2.222a.152.152,0,0,1,.165-.165c.119,0,.606.124.7.142a11.1,11.1,0,0,0,2.1.216,52.589,52.589,0,0,0,5.757-.67c.487-.216.487-1.566.487-2.773,0-2.842-.193-3.471-.872-3.471-.5,0-3.007.725-3.108.725A4.146,4.146,0,0,1,3.728,3.365c-.243-.335-.51-.863-.413-.964a.906.906,0,0,1,.34.073" transform="translate(-0.064 4.467)" fill="#fff"/>
  <path id="パス_29474" data-name="パス 29474" d="M15.165,2.989c-.17,0-5.234,1.18-5.349,1.23a11.351,11.351,0,0,1-1.084.455,5.058,5.058,0,0,1-1.644-.863,5.033,5.033,0,0,1-.578-1.4c0-.119.028-.193.147-.193.023,0,.556.142.624.17a4.309,4.309,0,0,0,1.281.239,33.433,33.433,0,0,0,6.6-.891A9.181,9.181,0,0,1,16.487.987c.583,0,2.048,1.23,2.048,1.832,0,.22-.891.868-1.033,1.033-.482.578-2.387,3.4-2.773,3.958a.8.8,0,0,0-.193.477c0,.22.051.271,1.065.822,1.083.629,5.4,3.062,5.4,5.257a1.038,1.038,0,0,1-.992,1.056c-.551,0-.652-.165-1.5-1.657-1.662-2.92-3.783-4.752-4.311-4.752-.243,0-.312.073-.845.675a24.169,24.169,0,0,1-6.432,5.156,6.01,6.01,0,0,1-1.5.556c-.046,0-.165,0-.165-.142a6.973,6.973,0,0,1,1.106-.891c6.29-4.559,9.159-10.8,9.081-11.184a.261.261,0,0,0-.285-.193" transform="translate(18.603 3.545)" fill="#fff"/>
  <path id="パス_29475" data-name="パス 29475" d="M11.109,2.675a10.248,10.248,0,0,0,1.515.1,71.665,71.665,0,0,0,9.981-1.4A8.042,8.042,0,0,1,23.593.82c.556,0,2.842,2.314,2.842,3.131,0,.165,0,.432-.845.624-.84.17-4.527,1.52-5.032,2.195a13.271,13.271,0,0,0-1.235,3.081A13.125,13.125,0,0,1,13.253,17.3a6.249,6.249,0,0,1-1.667.7c-.092,0-.142-.051-.142-.119s.05-.124.482-.459a16.275,16.275,0,0,0,4.311-4.486,10.993,10.993,0,0,0,1.813-5.275,3.115,3.115,0,0,0-.317-1.423c-.193-.386-.216-.432-.216-.528,0-.193.363-.216.505-.216a3.6,3.6,0,0,1,1.3.216,7.057,7.057,0,0,0,.941.312c.679,0,2.993-2.309,2.993-2.938,0-.17-.152-.363-.464-.363a42.244,42.244,0,0,0-8.6,1.5,19.349,19.349,0,0,1-2.029.7c-.578,0-2.456-1.543-2.456-2.387,0-.046.051-.1.17-.1.073,0,1.038.216,1.23.243" transform="translate(34.572 2.945)" fill="#fff"/>
  <path id="パス_29476" data-name="パス 29476" d="M23.053,7.221c.941.574,1.038.67,1.038.891,0,.142-.266.817-.294.96a24.085,24.085,0,0,0-.142,4.27c0,.647.028,1.951.069,2.888.028.289.174,1.69.174,2,0,.239,0,1.061-.578,1.061-.679,0-1.5-1.042-1.5-1.685,0-.243.243-1.3.271-1.543.138-1.3.239-3.163.239-4.44,0-.863,0-3.393-.629-3.393-.119,0-.22.092-.409.285a26.408,26.408,0,0,1-6.845,4.609c-.073,0-.119-.051-.119-.152a.2.2,0,0,1,.069-.161c.629-.556,1.3-1.116,1.685-1.451C21.777,6.5,23.655,2.4,23.655,1.725a1.4,1.4,0,0,0-.193-.679A2.379,2.379,0,0,1,23.3.66a.235.235,0,0,1,.234-.193c.367,0,2.8,1.015,2.8,1.928a.626.626,0,0,1-.22.487,6.767,6.767,0,0,0-1.634,1.974c-.409.578-1.18,1.446-1.639,2.025a.4.4,0,0,0,.216.34" transform="translate(51.167 1.677)" fill="#fff"/>
  <path id="パス_29477" data-name="パス 29477" d="M21.749,2.474a9.5,9.5,0,0,0,2.02.243A28.042,28.042,0,0,0,29.8,1.754c.216-.051,1.134-.51,1.35-.51.744,0,2.364.51,2.364,1.23,0,.459-.679.482-1.258.505-.551.028-3.012.363-3.521.413-.092,0-.358.046-.358.266a.583.583,0,0,0,.216.358c.578.606.652.675.652.868a8.806,8.806,0,0,1-.193.9c-.1.964-.266,2.213-.409,3.319,0,.124-.023.22-.023.271,0,.358.165.459.721.459.482,0,3.521-.22,4.173-.243.285-.023,1.515-.17,1.777-.17.657,0,2.387,1.084,2.387,1.781,0,.436-.817.51-.891.51-.193,0-1.226-.294-1.52-.363a9.707,9.707,0,0,0-2.911-.317,42.8,42.8,0,0,0-10.44,1.235c-.216.046-1.106.409-1.3.409-.1,0-2.456-1.038-2.456-2.222a.152.152,0,0,1,.165-.165c.119,0,.606.124.7.142a11.1,11.1,0,0,0,2.1.216,52.589,52.589,0,0,0,5.757-.67c.487-.216.487-1.566.487-2.773,0-2.842-.193-3.471-.872-3.471-.5,0-3.007.725-3.108.725a4.146,4.146,0,0,1-1.561-1.088c-.243-.335-.51-.863-.413-.964a.906.906,0,0,1,.34.073" transform="translate(64.917 4.467)" fill="#fff"/>
  <path id="パス_29478" data-name="パス 29478" d="M28.28,7.264c0-.051,0-.193.34-.193a9.951,9.951,0,0,1,2.144.386,13.085,13.085,0,0,0,1.492.459c.556,0,1.185-1.015,1.763-1.951a9.092,9.092,0,0,0,1.157-2.626A.3.3,0,0,0,34.864,3c-.152,0-4.219.964-5.137,1.3a9.67,9.67,0,0,1-1.226.51,2.513,2.513,0,0,1-1.735-1.23,4.7,4.7,0,0,1-.578-1.253c0-.073.046-.17.119-.17.046,0,.675.266.744.289a3.16,3.16,0,0,0,1.23.317c.34,0,6.6-.918,7.112-1.331.578-.455.629-.505.84-.505A6.028,6.028,0,0,1,38.16,2.081a.815.815,0,0,1,.294.629c0,.386-.073.436-.771.868-.487.312-.629.533-1.882,2.507a21.1,21.1,0,0,0-1.5,2.36c0,.22.124.262,1.207.822,1.35.675,3.664,2.19,3.664,3.489a.66.66,0,0,1-.652.748c-.771,0-1.01-.216-3.108-2.24-.432-.409-1.616-1.4-2.094-1.4a1.216,1.216,0,0,0-.822.487A22.174,22.174,0,0,1,23.413,16.2a.128.128,0,0,1-.119-.119,9.389,9.389,0,0,1,1.4-1.061A41.176,41.176,0,0,0,31.223,9.7c.17-.193.4-.432.363-.7-.1-.528-3.306-1.4-3.306-1.735" transform="translate(83.358 3.318)" fill="#fff"/>
  <path id="パス_29479" data-name="パス 29479" d="M27.858,13.593c0-.455.216-.7.914-1.134A20.524,20.524,0,0,0,31.136,10.6c.119-.124.386-.358.477-.358s.119.216.119.285c0,1.134-1.129,4.049-2.718,4.049a1.327,1.327,0,0,1-.459-.092.98.98,0,0,1-.7-.9M37.3,15.181c0,.363,0,1.956-1.276,1.956-.528,0-.578-.147-1.084-1.543a6.737,6.737,0,0,0-.9-1.712c-.092-.165-.142-.216-.142-.289a.092.092,0,0,1,.1-.1c.165,0,.964.312,1.129.312.312,0,.432-.266.482-.647.124-1.139.124-3.544.124-4.844,0-1.157-.051-1.593-.7-1.593-.142,0-3.039.409-4.458.771a6.859,6.859,0,0,1-.964.266c-.533,0-1.735-1.644-1.735-2.121,0-.124.023-.216.17-.216a1.349,1.349,0,0,1,.455.142,7.083,7.083,0,0,0,2.149.243c.551,0,3.159-.147,3.88-.17.914-.051,1.157-.216,1.157-1.015a8.708,8.708,0,0,0-.51-3.085c-.046-.119-.455-.505-.455-.624,0-.073.262-.239.822-.239,1.662,0,2.263,1.056,2.263,1.249a5,5,0,0,1-.436.8,6.03,6.03,0,0,0-.216,1.85c0,.748.312.872.937.872A20.924,20.924,0,0,0,40.438,5.2c.312-.051,1.589-.358,1.855-.358a5.048,5.048,0,0,1,2.337.817c.266.17.6.363.6.771,0,.455-.528.482-.624.482-.363,0-1.928-.262-2.268-.312-.914-.1-2.672-.124-2.865-.124-2.075,0-2.291,0-2.291,1.373,0,1.157.119,6.29.119,7.327m5.808-1.735a8.643,8.643,0,0,0-1.951-2.966,5.654,5.654,0,0,1-.964-1.005c0-.124.124-.124.17-.124,1.276,0,5.156,2.337,5.156,4.366,0,.551-.289,1.35-1.084,1.322-.67,0-.891-.551-1.327-1.593" transform="translate(99.747 2.435)" fill="#fff"/>
  <path id="パス_29480" data-name="パス 29480" d="M49.583,2.253c.147,0,.413-.028.533-.028,1.474,0,1.685.891,1.685,1.065,0,.67-.983.744-2,.744-.556,0-2.966-.046-3.448-.046-3.329,0-8.847.312-9.421.432-.289.046-1.593.432-1.882.432-1.038,0-2.144-1.492-2.144-2.314,0-.142.073-.285.193-.285s.7.266.822.285a12.8,12.8,0,0,0,2.938.22c.794,0,9.205-.312,12.722-.505" transform="translate(117.883 7.991)" fill="#fff"/>
  <path id="パス_29481" data-name="パス 29481" d="M42.694,8.307c-1.446,3.131-3.976,4.577-4.453,4.577a.116.116,0,0,1-.124-.124,6.732,6.732,0,0,1,.964-1.272C41.73,7.848,42,5.217,42,4.428a5.3,5.3,0,0,0-.409-2.08,1.585,1.585,0,0,1-.1-.427c0-.073.028-.119.119-.119.17,0,2.723.817,2.723,2.048,0,.069-1.23,3.544-1.639,4.458m3.907,2.24c0-.124.119-.753.142-.872.073-.459.1-2.36.1-2.961a14.578,14.578,0,0,0-.464-4.527,6.654,6.654,0,0,1-.308-.877c0-.087.092-.119.142-.119.119,0,2.649.436,2.649,1.694,0,.285-.335,1.543-.386,1.8-.092.647-.193,3.563-.193,4.366,0,.308.023.79.459.79.721,0,2.938-1.593,5.252-3.93.409-.4,2.456-2.571,2.557-2.571a.1.1,0,0,1,.092.087c0,.193-1.4,3.186-5.61,6.9a11.908,11.908,0,0,0-1.662,1.543c-.413.459-.629.624-.8.652-.7.119-1.974-1.308-1.974-1.979" transform="translate(136.589 4.277)" fill="#fff"/>
  <path id="パス_29482" data-name="パス 29482" d="M53.487,9.621c0,.17-.583.629-.657.748-.073.092-.987,2.314-1.2,2.723-2.314,4.651-6.074,6.193-6.386,6.193-.1,0-.147-.046-.147-.119a16.513,16.513,0,0,1,1.281-1.207A16.234,16.234,0,0,0,51.1,8.877c0-.294-.046-.725-.578-.725a29.364,29.364,0,0,0-3.829.725,15.676,15.676,0,0,1-1.735.427,2.111,2.111,0,0,1-1.905-1.827c0-.142.05-.243.17-.243a2.068,2.068,0,0,1,.358.124,7.216,7.216,0,0,0,1.52.17c1.543,0,7.787-.679,9.471-.918.289-.046,1.543-.432,1.809-.432.289,0,3.039.528,3.039,1.515,0,.436-.386.578-.7.578-.262,0-1.446-.193-1.685-.216-.505-.051-1.184-.119-1.712-.119A21.741,21.741,0,0,0,52.881,8a.294.294,0,0,0-.165.363,7.663,7.663,0,0,1,.771,1.253M48.134,2.537a15.019,15.019,0,0,0,3.425-.6,9.536,9.536,0,0,1,1.928-.289c.5,0,1.368.1,1.368.794s-.409.744-1.832.891c-1.23.147-2.842.459-3.2.533-.119.023-1.061.216-1.129.216-1.184,0-1.928-1.685-1.809-1.735,0,0,1.061.193,1.253.193m12.915,2.53c0,.363-.285.918-.721.918-.335,0-.556-.193-1.23-1.111a7.051,7.051,0,0,0-1.639-1.5c-.1-.069-.335-.285-.335-.386s.216-.188.4-.188c2.172,0,3.521,1.419,3.521,2.263m2.121-2.36a.687.687,0,0,1-.629.721c-.5,0-.813-.409-1.226-.964A5.761,5.761,0,0,0,59.29.994C59.052.9,59,.8,59,.728c0-.239.725-.239.891-.239,1.3,0,3.278.817,3.278,2.218" transform="translate(154.293 1.756)" fill="#fff"/>
  <path id="パス_29483" data-name="パス 29483" d="M55.232,6.785c.413.271.918.505.918.822,0,.119-.22.675-.243.817a25.431,25.431,0,0,0-.1,3.471c0,.629,0,1.4.051,2.314,0,.243.142,1.469.142,1.735,0,.193,0,.914-.528.914-.579,0-1.207-.937-1.207-1.419a5.123,5.123,0,0,1,.119-.868,29.3,29.3,0,0,0,.266-4.146c0-.6,0-2.649-.477-2.649-.073,0-.124.051-.51.386a17.329,17.329,0,0,1-5.4,3.613.135.135,0,0,1-.142-.142c0-.124.721-.725.964-.918,4.793-3.953,6.648-7.663,6.648-8.264a1.217,1.217,0,0,0-.17-.578,3.3,3.3,0,0,1-.188-.386.262.262,0,0,1,.266-.243c.262,0,2.314.845,2.314,1.662a.591.591,0,0,1-.193.436,2.7,2.7,0,0,0-.748.771c-.533.794-.679.964-1.882,2.507a.223.223,0,0,0,.1.165" transform="translate(172.529 4.467)" fill="#fff"/>
  <path id="パス_29484" data-name="パス 29484" d="M57.868,12.84a15.918,15.918,0,0,0-2.36,1.974c-.464.551-.505.6-.868.6-1.3,0-3.085-1.543-3.085-2.507,0-.17.023-1.276.239-1.276a6.284,6.284,0,0,1,.725.455,3.975,3.975,0,0,0,1.634.56c1.185,0,7.571-4.27,11.57-8.218.386-.386,1.061-1.065,1.111-1.065a.166.166,0,0,1,.119.119c0,.22-2.819,4.729-9.086,9.357M55.894,4.907c-.657,0-.891-.386-1.69-1.589A5.433,5.433,0,0,0,52.01,1.344c-.092-.051-.216-.124-.216-.216s.193-.22.533-.22c2.576,0,4.6,1.377,4.6,2.8a1.063,1.063,0,0,1-1.038,1.2" transform="translate(184.846 3.26)" fill="#fff"/>
  <path id="パス_29485" data-name="パス 29485" d="M61.89,3.409c0-.234.34-.234.533-.234a2.252,2.252,0,0,1,2.24,1.345c0,.289-.243.6-.725,1.2a.732.732,0,0,0-.188.386c0,.193.285.193.386.193a13.548,13.548,0,0,0,3.659-.964,4.735,4.735,0,0,1,1.134-.386c.216,0,.335.078,1.327.657.142.069.771.409.891.477a.873.873,0,0,1,.459.6c0,.34-.174.436-.964.918-.266.165-.363.317-1.207,1.616a29.567,29.567,0,0,1-8.627,9.063,16.6,16.6,0,0,1-4.8,2.309.216.216,0,0,1-.216-.216c0-.1.073-.147.817-.556C63.965,15.778,68.543,7.56,68.543,6.811a.263.263,0,0,0-.266-.266c-.05,0-3.37.748-3.953.748-.147,0-.794-.073-.937-.073-.459,0-.51.046-1.524,1.2a18.019,18.019,0,0,1-3.273,3.136,7.392,7.392,0,0,1-2.314,1.276c-.124,0-.165-.073-.165-.142a20.2,20.2,0,0,1,1.9-1.809c1.951-1.956,4.238-5.275,4.045-6.726-.018-.119-.165-.647-.165-.748m11.349.822c0,.413-.285.941-.7.941-.34,0-.533-.142-1.281-1.038a7.326,7.326,0,0,0-1.708-1.419c-.119-.078-.363-.243-.363-.34s.193-.216.413-.216c3.085,0,3.636,1.781,3.636,2.071M73.818.6c.992.578.992,1.129.992,1.373a.652.652,0,0,1-.606.7c-.505,0-.744-.243-1.276-.8A5.574,5.574,0,0,0,70.71.691C70.471.618,70.4.5,70.4.425c0-.193.629-.335.863-.335A4.457,4.457,0,0,1,73.818.6" transform="translate(200.065 0.323)" fill="#fff"/>
  <path id="パス_29486" data-name="パス 29486" d="M70.563,2.989c-.17,0-5.234,1.18-5.349,1.23a11.352,11.352,0,0,1-1.084.455,5.058,5.058,0,0,1-1.644-.863,5.033,5.033,0,0,1-.578-1.4c0-.119.028-.193.147-.193.023,0,.555.142.624.17a4.309,4.309,0,0,0,1.281.239,33.433,33.433,0,0,0,6.6-.891A9.18,9.18,0,0,1,71.885.987c.583,0,2.048,1.23,2.048,1.832,0,.22-.891.868-1.033,1.033-.482.578-2.387,3.4-2.773,3.958a.8.8,0,0,0-.193.477c0,.22.051.271,1.065.822,1.084.629,5.4,3.062,5.4,5.257a1.038,1.038,0,0,1-.992,1.056c-.551,0-.652-.165-1.5-1.657-1.662-2.92-3.783-4.752-4.311-4.752-.243,0-.312.073-.845.675a24.169,24.169,0,0,1-6.432,5.156,6.01,6.01,0,0,1-1.5.556c-.046,0-.165,0-.165-.142a6.973,6.973,0,0,1,1.106-.891c6.29-4.559,9.159-10.8,9.081-11.184a.261.261,0,0,0-.285-.193" transform="translate(217.544 3.545)" fill="#fff"/>
  <path id="パス_29487" data-name="パス 29487" d="M71.031,7.124c-.849,0-.849.17-.849,1.543,0,.482.174.606,1.157.964.611.243,1.96.748,1.96,2.025,0,.1-.032.987-.634.987-.4,0-.523-.266-1.033-1.249-.243-.464-.872-1.593-1.2-1.593-.1,0-.248.092-.248.551,0,.8.032,4.316.032,5.041-.032.84.069,4.554.069,5.3a1.063,1.063,0,0,1-1.111,1.134.462.462,0,0,1-.528-.505c0-.216.051-1.928.073-2.195.023-.578.1-6.074.1-6.795,0-.051,0-.317-.073-.317s-2.557,4.94-3.278,4.94a.05.05,0,0,1-.051-.046c0-.046.753-1.662.891-1.974A36.288,36.288,0,0,0,68.57,7.7c0-.578-.533-.578-.748-.578s-1.2.028-1.657.051a2.929,2.929,0,0,1-.441.069c-.069,0-.119-.069-.17-.17l-.386-.551c-.069-.1-.092-.119-.092-.142,0-.051.023-.078.069-.078.386,0,2.608.17,3.113.17.647,0,.647,0,.647-3.976,0-.358-.165-2.048-.165-2.172,0-.041.023-.092.073-.092a15.376,15.376,0,0,1,1.543.459c.477.119.652.193.652.432,0,.165-.073.216-.317.409s-.285.312-.285.748c0,.409-.17,3.443-.17,3.737,0,.142.023.455.505.455a.72.72,0,0,0,.629-.409c.234-.455.312-.6.505-.6a6.036,6.036,0,0,1,1.809,1.373c0,.289-.51.289-1.07.289ZM81.659,10.93c-.266,0-.6,0-.6.34a12.7,12.7,0,0,0,5.684,6.7c.363.216.914.528.914.652s-.161.119-.243.119a3.1,3.1,0,0,0-1.226.266,5.633,5.633,0,0,1-1.084.647,16.99,16.99,0,0,1-3.779-6.1c-.078-.165-.344-.987-.418-1.157,0-.023-.05-.092-.092-.092-.1,0-.1.142-.1.262,0,1.3.051,7.066.051,8.241,0,.386-.051.606-.243.748a1.782,1.782,0,0,1-.982.317c-.367,0-.505-.17-.505-.51,0-.84.165-2.218.193-3.062.018-1.175.087-4.981.087-5.032,0-.363-.018-.459-.142-.459-.092,0-.138.046-.331.358a17.483,17.483,0,0,1-5.716,6.29,3.954,3.954,0,0,1-.863.413c-.051,0-.152-.028-.152-.1a5.089,5.089,0,0,1,.822-.868,20.035,20.035,0,0,0,5.156-7.474c0-.505-.386-.505-.914-.505-.578,0-1.855.028-2.406.078-.078,0-.441.041-.51.041-.1,0-.142-.041-.216-.142l-.464-.556c-.087-.115-.119-.115-.119-.165s.051-.051.1-.051c.17,0,.914.073,1.061.073.193,0,1.928.1,3.062.1h.744c.675,0,.845-.147.845-.8,0-.578,0-2.961-.073-3.347-.046-.335-.165-.505-.693-.505H76.329c-.51,0-.551.046-.868.6a8.791,8.791,0,0,1-2.117,2.58c-.028,0-.078,0-.078-.073,0-.046.675-1.566.8-1.855a21.4,21.4,0,0,0,1.373-4.89c.041-.51.069-.56.234-.56.073,0,2.319.652,2.319.987,0,.17-.17.22-.611.363-.234.073-.257.174-.6.946-.147.358-.432,1.033-.432,1.056,0,.193.193.22.312.22h1.855c.216,0,.7,0,.7-.657,0-.285-.028-1.735-.055-1.928C79.152,2.087,78.927.4,78.927.182A.1.1,0,0,1,79.033.09c.069,0,2.24.477,2.24.744,0,.119-.386.505-.418.606a27.223,27.223,0,0,0-.142,2.842c0,.624.243.748.8.748H82.1c.546,0,.716-.028.891-.17.188-.17.932-1.134,1.175-1.134a6.931,6.931,0,0,1,2,1.589c0,.34-.482.34-1.276.34h-3.4c-.335,0-.546.046-.7.312-.092.22-.092,2.649-.092,3.154,0,.9,0,1.185.79,1.185H82.55c.982,0,1.106,0,1.276-.17.193-.17.868-1.084,1.084-1.084.17,0,2.116,1.226,2.116,1.543,0,.335-.5.335-1.272.335Z" transform="translate(233.402 0.323)" fill="#fff"/>
  <path id="パス_29488" data-name="パス 29488" d="M81.83,5.341c.413,0,.505-.073.505-.289,0-.193-.386-2.745-.459-3.131-.046-.266-.335-1.492-.335-1.763,0-.073.1-.073.165-.073A10.93,10.93,0,0,1,83.4.35c.624.119.941.22.941.533,0,.142-.023.165-.243.409-.266.266-.266.386-.266,1.492.028,2.557.22,2.557.822,2.557h2.791c1.116,0,1.235,0,1.543-.409.748-1.015.822-1.111,1.065-1.111.363,0,2.314,1.4,2.314,1.809,0,.363-.436.363-1.281.363H84.7c-.413,0-.556.046-.556.381a32,32,0,0,0,.964,4.27c1.492,4.651,4.118,7.686,4.844,7.686.335,0,.744-.7,1.061-1.276a6.825,6.825,0,0,1,.7-1.281c.073,0,.073.124.073.17,0,.073-.317,2.677-.317,3.186a1.8,1.8,0,0,0,.266.987,1.323,1.323,0,0,1,.243.67.55.55,0,0,1-.629.606c-2.121,0-7.158-5.133-8.7-14.366-.142-.891-.193-1.033-.79-1.033h-6.51c-.556,0-2.195,0-3.039.046a4.057,4.057,0,0,1-.528.073c-.069,0-.119-.073-.193-.17l-.482-.551c-.1-.1-.1-.124-.1-.147,0-.046.023-.073.1-.073.17,0,.914.073,1.061.1,1.106.051,2.167.073,3.3.073Zm-3.255,6.34c-.165,0-.574.023-.675.409-.051.239-.142,2.768-.142,4.238s0,1.717.409,1.717c.363,0,5.8-1.23,5.854-1.23.028,0,.124,0,.124.073,0,.234-3.443,1.662-6.46,2.626a30.479,30.479,0,0,0-4.412,1.492c-.142.073-.647.675-.79.675-.266,0-.946-2.53-.946-2.6,0-.1.073-.119.822-.193a30.783,30.783,0,0,0,3.329-.482.5.5,0,0,0,.216-.34c.023-.193.046-3.154.046-3.448,0-.193-.023-2.236-.023-2.332-.023-.578-.459-.578-.7-.578a19.7,19.7,0,0,0-2.19.069c-.046,0-.289.051-.34.051-.092,0-.142-.073-.211-.17l-.464-.551c-.1-.1-.115-.124-.115-.17,0-.023.041-.051.092-.051.17,0,.914.073,1.065.1,1.106.051,2.19.073,3.3.073h1.905a3.834,3.834,0,0,0,1.157-.073c.266-.119.987-1.276,1.23-1.276a4.215,4.215,0,0,1,1.758,1.662c0,.317-.482.317-1.3.317ZM85.783.35c.335,0,3.664.822,3.664,2.218a.892.892,0,0,1-.992.987c-.266,0-.312-.069-.817-.794A12.069,12.069,0,0,0,85.783.621c-.073-.051-.17-.152-.147-.193,0-.051.1-.078.147-.078" transform="translate(254.708 0.302)" fill="#fff"/>
  <path id="パス_29489" data-name="パス 29489" d="M76.715,10.945c0-.1.073-.147.363-.34.17-.124,2.149-1.515,3.714-2.846C84.91,4.242,86.43,1.377,86.549.845,86.737.1,86.737,0,87.031,0c.023,0,2.263,1.061,2.263,1.469,0,.124-.046.147-.285.317-.147.069-.174.142-.174.239,0,.748,4.27,6.1,9.977,7.713.679.193.679.193.679.312,0,.147-.073.17-.679.363a2.87,2.87,0,0,0-1.543.987c-.092.17-.165.239-.308.239-.533,0-5.665-3.54-8.388-8.5-.266-.51-.312-.578-.409-.578s-.482.482-.675.721a23.9,23.9,0,0,1-10.555,7.736c-.073.023-.22.046-.22-.069m6.63,3.3c-1.781,0-2.387.018-3.039.069-.073,0-.432.051-.5.051-.1,0-.119-.051-.216-.142l-.459-.556c-.046-.073-.119-.147-.119-.174s.051-.041.1-.041c.17,0,.918.069,1.061.069,1.18.046,2.456.1,3.306.1h7.947c1.015,0,1.276,0,1.855-.794.363-.505.459-.652.68-.652.193,0,.262.046.817.51,1.226,1.005,1.226,1.033,1.226,1.249,0,.317-.115.317-1.249.317H87.366c-.243,0-.335,0-.335.069,0,0,1.134.964,1.134,1.23,0,.22,0,.22-.725.413-.193.069-.239.142-.845.937-.5.675-1.492,1.855-1.634,2-.1.124-.335.363-.335.578s.335.243.427.243c.317,0,2.58-.142,5.257-.409,1.735-.17,1.928-.193,1.928-.436,0-.363-1.423-1.589-1.423-1.878a.145.145,0,0,1,.165-.147,22.186,22.186,0,0,1,3.062,1.5c.652.386,2.149,1.253,2.149,2.773,0,.771-.482,1.3-.941,1.3-.7,0-1.207-.891-1.639-1.685-.459-.822-.675-.9-1.01-.9a106.154,106.154,0,0,0-11.184,2.218,4.8,4.8,0,0,1-.7.386.276.276,0,0,1-.243-.165,19.806,19.806,0,0,1-1.327-2.557c0-.17.124-.17.193-.17.17,0,.918.147,1.065.17a12.168,12.168,0,0,0,1.419.1c1.35,0,1.52,0,2.507-1.974a16.752,16.752,0,0,0,1.253-3.186c0-.4-.312-.4-.725-.4Zm5.014-4.486c1.18,0,1.23-.051,1.708-.629.386-.455.679-.813.8-.813a6.507,6.507,0,0,1,1.827,1.8c0,.266-.119.266-1.276.266H85.874c-1.469,0-2.172,0-3.062.069-.073,0-.432.051-.5.051s-.124-.051-.22-.142l-.459-.556c-.092-.1-.092-.124-.092-.17,0-.023.023-.046.069-.046.165,0,.914.069,1.061.069,1.184.073,2.341.1,3.3.1Z" transform="translate(275.199 0)" fill="#fff"/>
  <path id="パス_29490" data-name="パス 29490" d="M82.91,5.74c-.092-.119-.119-.142-.119-.17,0-.046.073-.046.1-.046.459,0,2.677.142,3.182.142.675,0,.675-.17.675-1.781,0-.358-.023-1.786-.1-2.7,0-.119-.124-.675-.124-.822,0-.046.078-.046.1-.046A18.505,18.505,0,0,1,88.791.97c.124.073.266.165.266.335,0,.1-.436.459-.482.556-.124.216-.124.34-.124,1.35V5.235c0,.335.147.386.386.386a.882.882,0,0,0,.583-.165c.165-.1.868-.822,1.084-.822a.455.455,0,0,1,.34.165c.285.294.794.891.863.941.528.505.579.556.579.7a.361.361,0,0,1-.262.317c-.073.023-.409.092-.487.119A27.064,27.064,0,0,0,89.3,9.284c-.7.721-.771.794-.771,1.226,0,.51.216.556.794.679.817.193,3.085.84,3.085,2.672,0,.748-.409,1.111-.845,1.111-.578,0-.845-.487-1.469-1.763-.147-.266-.941-1.492-1.4-1.492-.216,0-.216.335-.216.629,0,.914.023,5.372.023,6.359,0,.317.119,1.809.119,2.144a1.149,1.149,0,0,1-1.276,1.106c-.578,0-.721-.234-.721-.578,0-.234.1-1.35.1-1.611.046-1.781.147-4.288.147-7.135,0-.266,0-.67-.243-.67s-3.374,2.718-4,2.718c-.05,0-.124,0-.124-.069a24.679,24.679,0,0,1,2.094-2.144c.969-.992,4.366-5.206,4.366-5.9,0-.22-.17-.243-.386-.243h-1.69c-.937,0-1.947.023-2.791.073-.073,0-.436.046-.505.046-.1,0-.152-.046-.22-.142Zm7.883,14.751c-.1-.119-.1-.119-.1-.147a.078.078,0,0,1,.069-.073c.147,0,.891.1,1.065.1.7.023,1.947.069,3.3.069h.941c.216,0,.652,0,.7-.528.046-.436.092-9.715.092-10.968,0-.239,0-.748-.578-.748-.6,0-2,0-2.842.073-.069,0-.409.051-.505.051-.073,0-.124-.051-.216-.147l-.459-.556c-.1-.119-.1-.119-.1-.165s.05-.051.069-.051.9.073,1.015.073c.243,0,2.195.1,3.012.1.578,0,.629-.317.629-.992,0-2.218-.051-3.3-.17-5.11,0-.193-.142-1.033-.142-1.226,0-.124.05-.17.193-.17.069,0,1.566.455,1.735.505.216.073.721.193.721.6,0,.119-.482.528-.528.652-.147.34-.22,4.339-.22,4.986,0,.289,0,.753.583.753,1.129,0,1.249,0,1.758-.679.7-.941.771-1.038.983-1.038.344,0,2.029,1.566,2.029,2.025,0,.312-.51.312-1.276.312H99.2c-.652,0-.7.363-.7.8,0,1.446.069,8.507.069,10.119,0,.9,0,1.327.629,1.327h.891a1.5,1.5,0,0,0,1.423-.721c.652-.849.721-.941,1.015-.941.216,0,2.332,1.566,2.332,1.979,0,.335-.505.335-1.3.335H95.007c-.574,0-2.195-.023-3.035.051-.073,0-.436.069-.51.069s-.115-.051-.211-.17Z" transform="translate(295.977 0.283)" fill="#fff"/>
</svg>
