<svg xmlns="http://www.w3.org/2000/svg" width="318.27" height="22.437" viewBox="0 0 318.27 22.437">
  <g id="グループ_26328" data-name="グループ 26328" transform="translate(-286.665 -5580.43)">
    <path id="パス_29521" data-name="パス 29521" d="M11.859,47.74a9.453,9.453,0,0,1,.937-.413,3.3,3.3,0,0,1,2.24,1.543c0,.193-.647.872-.721,1.015a22.756,22.756,0,0,0-1.033,5.762c0,.386.193.477.528.477.528,0,2.892-.556,3.374-.556,1.106,0,3.007.872,3.007,1.956,0,.216-.018.647-.574.647-.073,0-1.5-.312-1.589-.335a12.457,12.457,0,0,0-3.113-.34A57.77,57.77,0,0,0,3.691,58.75a8.492,8.492,0,0,1-1.281.386C2.149,59.135,0,58.1,0,56.56c0-.1.028-.142.142-.142a7.259,7.259,0,0,1,.941.308,7.116,7.116,0,0,0,1.905.294c.482,0,7.327-.533,7.594-.578.721-.1.771-.487.891-1.3.1-.771.721-5.252.721-5.353,0-.528-.335-.528-.482-.528-.358,0-4.339,1.038-4.986,1.276a6.2,6.2,0,0,1-.964.386,2.62,2.62,0,0,1-1.685-1.905c0-.115.142-.142.216-.142.239,0,1.3.1,1.52.1a36.539,36.539,0,0,0,6.047-1.23" transform="translate(286.665 5538.526)" fill="#fff"/>
    <path id="パス_29522" data-name="パス 29522" d="M9.353,56.2a47.172,47.172,0,0,0,6.822-.533c.647-.092,3.393-.6,3.976-.6.693,0,3.636.482,3.636,1.639,0,.556-.937.7-1.35.7a12.994,12.994,0,0,1-1.327-.193,18.174,18.174,0,0,0-2.723-.193c-2.02,0-7.107.556-8.434.771-.335.05-2.1.459-2.121.459a4.218,4.218,0,0,1-1.685-.891,3.983,3.983,0,0,1-.725-1.589.194.194,0,0,1,.22-.22,1.054,1.054,0,0,1,.262.051,8.161,8.161,0,0,0,3.448.6m1.423-7.736c.771,0,4.215-.477,5.179-.652.34-.046,1.8-.335,2.1-.335,1.106,0,2.144.551,2.144,1.2,0,.606-.9.652-3.517.771-.941.051-5.6.675-5.785.675a1.8,1.8,0,0,1-1.3-.748c-.069-.092-.647-.817-.647-.863,0-.073.193-.124.335-.124s1.253.073,1.5.073" transform="translate(306.139 5539.053)" fill="#fff"/>
    <path id="パス_29523" data-name="パス 29523" d="M21.334,51.24a38.789,38.789,0,0,0,6.46,6.046c.409.266,2.213,1.35,2.53,1.616a1.189,1.189,0,0,1,.528.891c0,.551-.574.725-1.01.725-.7,0-2.53,0-8.507-7.236-.289-.335-1.469-1.827-1.735-2.121a1.167,1.167,0,0,0-.721-.358c-.409,0-.436,0-3.834,3.159a5.147,5.147,0,0,0-1.084,1.226,1.537,1.537,0,0,1-1.2.748c-.51,0-.918-.262-2.029-1.4a1.073,1.073,0,0,1-.285-.748c0-.124.023-.289.17-.289.115,0,.624.1.744.1,1.106,0,2.341-.459,5.349-2.892,1.134-.914,1.52-1.23,2.19-1.23.969,0,1.786.941,2.438,1.763m7.158-.028c0,.335-.289.941-.725.941-.335,0-.551-.193-1.226-1.106a6.864,6.864,0,0,0-1.639-1.52c-.119-.1-.363-.266-.363-.363s.243-.193.436-.193c2.24,0,3.517,1.446,3.517,2.24m2.172-1.878a.709.709,0,0,1-.629.771c-.528,0-.84-.487-1.2-1.038A5.585,5.585,0,0,0,26.9,47.48c-.243-.124-.294-.243-.294-.289,0-.22.487-.193.941-.193.629.023,3.113.7,3.113,2.337" transform="translate(324.17 5537.339)" fill="#fff"/>
    <path id="パス_29524" data-name="パス 29524" d="M32.777,48.395c.147,0,.413-.023.533-.023,1.469,0,1.685.891,1.685,1.061,0,.675-.987.748-2,.748-.556,0-2.966-.05-3.448-.05-3.329,0-8.843.312-9.426.436-.285.046-1.589.432-1.878.432-1.038,0-2.144-1.5-2.144-2.314,0-.147.073-.289.193-.289s.7.266.822.289a12.9,12.9,0,0,0,2.938.216c.794,0,9.205-.312,12.722-.505" transform="translate(344.489 5542.278)" fill="#fff"/>
    <path id="パス_29525" data-name="パス 29525" d="M25.993,54.45c-1.446,3.127-3.976,4.577-4.453,4.577a.114.114,0,0,1-.124-.124,6.9,6.9,0,0,1,.964-1.276c2.649-3.641,2.915-6.262,2.915-7.061a5.26,5.26,0,0,0-.409-2.071,1.721,1.721,0,0,1-.1-.436c0-.073.028-.119.119-.119.17,0,2.723.817,2.723,2.048,0,.073-1.23,3.544-1.639,4.463M29.9,56.686c0-.115.119-.744.142-.863.073-.459.1-2.364.1-2.966a14.646,14.646,0,0,0-.464-4.531,6.536,6.536,0,0,1-.308-.868.127.127,0,0,1,.142-.119c.119,0,2.649.436,2.649,1.685,0,.294-.335,1.543-.386,1.809-.092.647-.193,3.567-.193,4.362,0,.312.023.8.459.8.721,0,2.938-1.593,5.252-3.935.409-.409,2.456-2.576,2.557-2.576a.1.1,0,0,1,.092.1c0,.193-1.4,3.182-5.61,6.891a13.009,13.009,0,0,0-1.662,1.543c-.413.459-.629.629-.8.652-.7.119-1.974-1.3-1.974-1.979" transform="translate(363.572 5538.565)" fill="#fff"/>
    <path id="パス_29526" data-name="パス 29526" d="M27.295,53c.363.05,1.758.216,2.071.216.487,0,2.585-.142,3.012-.142.459-.023.73-.1.73-.675a6.247,6.247,0,0,0-.537-2.677c-.069-.092-.455-.505-.455-.6,0-.17.721-.239.84-.239.556,0,2.172,1.134,2.172,1.611,0,.17-.409.872-.436,1.015a2.188,2.188,0,0,0-.092.863c0,.363.239.51.578.51.629,0,2.144-.1,2.741-.147.537-.046.537-.455.537-.7a28.663,28.663,0,0,0-.17-3.925c-.073-.216-.753-1.18-.753-1.23,0-.1.271-.243.56-.243a5.549,5.549,0,0,1,1.924.721c.243.124.6.294.6.578a4.487,4.487,0,0,1-.409.872,9.965,9.965,0,0,0-.239,2.7c0,.771,0,1.015.578,1.015a7.615,7.615,0,0,0,1.639-.271,2.825,2.825,0,0,1,1.207-.308c1.2,0,3.319.4,3.319,1.584a.709.709,0,0,1-.771.7c-.285,0-1.584-.289-1.855-.34-.817-.119-3.228-.17-3.273-.17-.725,0-.725.17-.8,1.57a12.13,12.13,0,0,1-2.553,7.754,7.709,7.709,0,0,1-2.507,2.172.137.137,0,0,1-.142-.142c0-.023,1.2-1.566,1.4-1.878a14.275,14.275,0,0,0,2.337-8.631c0-.771-.386-.771-.721-.771a15.123,15.123,0,0,0-2.869.243c-.308.17-.308.262-.308,1.3,0,.533.142,2.869.142,3.324,0,1.157-.124,1.593-.459,1.593-.578,0-1.276-1.52-1.276-1.928,0-.243.216-2.553.216-2.8,0-1.157-.142-1.3-.551-1.3a19.356,19.356,0,0,0-3.085.578,6.009,6.009,0,0,1-.849.262c-.285,0-2.383-1.056-2.383-2a.193.193,0,0,1,.17-.216,6.674,6.674,0,0,1,.721.142" transform="translate(381.484 5536.055)" fill="#fff"/>
    <path id="パス_29527" data-name="パス 29527" d="M48.754,48.395c.147,0,.413-.023.533-.023,1.469,0,1.685.891,1.685,1.061,0,.675-.987.748-2,.748-.556,0-2.966-.05-3.448-.05-3.329,0-8.842.312-9.426.436-.285.046-1.589.432-1.878.432-1.038,0-2.144-1.5-2.144-2.314,0-.147.073-.289.193-.289s.7.266.822.289a12.9,12.9,0,0,0,2.938.216c.794,0,9.205-.312,12.722-.505" transform="translate(401.864 5542.278)" fill="#fff"/>
    <path id="パス_29528" data-name="パス 29528" d="M40.333,49.472a1,1,0,0,1,.413.624c0,.216-.386,1.157-.413,1.373-.092.845-.142,2.989-.142,4a.406.406,0,0,0,.459.436c.482,0,5.739-2.557,5.739-3.857,0-.142-.174-.817-.174-.891,0-.1.174-.1.34-.1a2.484,2.484,0,0,1,2.484,2.025c0,.556-.363.629-1.065.771-.551.119-2.723,1.2-3.177,1.4-.679.289-4.242,1.566-4.362,1.639-.294.193-.294.312-.294,1.226,0,3.163.464,3.815,3.618,3.815a15.5,15.5,0,0,0,3.517-.436,14.069,14.069,0,0,1,1.662-.294.931.931,0,0,1,.964.849c0,1.8-4.628,1.8-6.12,1.8-4.991,0-5.105-2.144-5.105-5.564,0-.868.069-4.651.069-5.45a6.88,6.88,0,0,0-.624-3.37,5.163,5.163,0,0,1-.413-.8c0-.142.34-.216.556-.216.7,0,1.038.17,2.071,1.015m12.176,1.419c0,.289-.266.914-.725.914-.363,0-.583-.211-1.23-1.129a6.938,6.938,0,0,0-1.589-1.566c-.1-.073-.34-.266-.34-.363,0-.119.22-.193.436-.193,1.855,0,3.448,1.327,3.448,2.337m2.02-2.433a.668.668,0,0,1-.6.721c-.505,0-.8-.312-1.276-.863a6.078,6.078,0,0,0-2.144-1.281c-.243-.069-.312-.193-.312-.262,0-.193.6-.317.891-.317,2.966,0,3.443,1.566,3.443,2" transform="translate(422.075 5535.397)" fill="#fff"/>
    <path id="パス_29529" data-name="パス 29529" d="M52.1,49.134c-.17,0-5.229,1.184-5.349,1.235-.17.041-.918.455-1.084.455a5.112,5.112,0,0,1-1.644-.868,4.977,4.977,0,0,1-.578-1.4c0-.115.028-.193.142-.193.028,0,.56.147.629.17a4.381,4.381,0,0,0,1.281.243,33.434,33.434,0,0,0,6.6-.891,8.621,8.621,0,0,1,1.327-.753c.574,0,2.043,1.23,2.043,1.836,0,.216-.886.863-1.033,1.033-.482.578-2.387,3.4-2.773,3.953a.818.818,0,0,0-.193.482c0,.216.05.266,1.065.822,1.079.624,5.4,3.058,5.4,5.252a1.042,1.042,0,0,1-.992,1.061c-.551,0-.652-.17-1.5-1.662-1.662-2.915-3.783-4.752-4.311-4.752-.243,0-.312.073-.845.679a24.168,24.168,0,0,1-6.432,5.156,6.009,6.009,0,0,1-1.5.556c-.046,0-.165,0-.165-.147a7.526,7.526,0,0,1,1.106-.891c6.29-4.554,9.155-10.8,9.081-11.184a.261.261,0,0,0-.285-.193" transform="translate(438.185 5537.825)" fill="#fff"/>
    <path id="パス_29530" data-name="パス 29530" d="M52.668,53.274c-.849,0-.849.165-.849,1.543,0,.477.17.6,1.157.964.606.239,1.956.744,1.956,2.02,0,.1-.028.992-.629.992-.409,0-.528-.271-1.038-1.253-.239-.459-.868-1.593-1.2-1.593-.1,0-.243.1-.243.556,0,.794.028,4.311.028,5.036-.028.84.069,4.554.069,5.3a1.058,1.058,0,0,1-1.106,1.129c-.312,0-.533-.142-.533-.5,0-.22.051-1.928.078-2.2.023-.578.092-6.069.092-6.79,0-.051,0-.317-.069-.317S47.819,63.1,47.1,63.1a.05.05,0,0,1-.051-.046c0-.05.748-1.667.891-1.979A36.186,36.186,0,0,0,50.2,53.853c0-.578-.528-.578-.744-.578s-1.2.023-1.662.046a2.4,2.4,0,0,1-.436.073c-.069,0-.119-.073-.17-.17l-.386-.556c-.069-.092-.092-.119-.092-.142,0-.05.023-.073.069-.073.386,0,2.6.17,3.108.17.652,0,.652,0,.652-3.976,0-.363-.165-2.048-.165-2.172,0-.046.018-.1.069-.1a13.908,13.908,0,0,1,1.543.464c.482.115.652.193.652.427,0,.17-.073.22-.317.413s-.285.312-.285.744c0,.413-.17,3.448-.17,3.737,0,.147.028.459.505.459A.716.716,0,0,0,53,52.209c.239-.455.312-.6.505-.6a5.964,5.964,0,0,1,1.809,1.368c0,.294-.51.294-1.065.294ZM63.292,57.08c-.266,0-.6,0-.6.335a12.694,12.694,0,0,0,5.684,6.7c.367.22.918.533.918.657s-.165.115-.243.115a3.129,3.129,0,0,0-1.23.271,5.589,5.589,0,0,1-1.083.647,17.111,17.111,0,0,1-3.778-6.1c-.078-.17-.34-.992-.413-1.157,0-.028-.05-.1-.1-.1-.1,0-.1.147-.1.262,0,1.308.051,7.066.051,8.246,0,.386-.051.6-.243.744a1.785,1.785,0,0,1-.987.317c-.363,0-.505-.165-.505-.51,0-.84.17-2.213.193-3.058.023-1.18.092-4.986.092-5.036,0-.358-.023-.459-.142-.459-.1,0-.142.051-.335.363a17.463,17.463,0,0,1-5.711,6.29,4.065,4.065,0,0,1-.868.409c-.051,0-.147-.023-.147-.092a5.092,5.092,0,0,1,.822-.872,20.1,20.1,0,0,0,5.156-7.47c0-.505-.386-.505-.918-.505-.578,0-1.855.023-2.406.073-.078,0-.436.046-.505.046-.1,0-.147-.046-.22-.142l-.459-.556c-.092-.119-.119-.119-.119-.17s.05-.046.1-.046c.17,0,.918.073,1.061.073.193,0,1.928.092,3.062.092h.748c.67,0,.84-.142.84-.794,0-.578,0-2.961-.069-3.347-.051-.34-.17-.505-.7-.505H57.966c-.51,0-.556.046-.872.6a8.724,8.724,0,0,1-2.117,2.58c-.023,0-.073,0-.073-.073,0-.046.675-1.561.8-1.855a21.077,21.077,0,0,0,1.373-4.89c.046-.51.069-.556.239-.556.073,0,2.314.652,2.314.987,0,.17-.17.216-.606.363-.234.073-.262.17-.6.941-.142.363-.432,1.033-.432,1.061,0,.193.193.216.312.216h1.855c.22,0,.7,0,.7-.652,0-.289-.023-1.735-.05-1.928-.023-.363-.243-2.048-.243-2.263a.1.1,0,0,1,.1-.1c.069,0,2.24.482,2.24.748,0,.119-.386.505-.413.6a27.228,27.228,0,0,0-.142,2.842c0,.629.243.748.8.748h.578c.551,0,.721-.023.891-.17.188-.165.937-1.129,1.18-1.129a6.909,6.909,0,0,1,2,1.589c0,.34-.477.34-1.276.34h-3.4c-.335,0-.551.046-.7.312a31.43,31.43,0,0,0-.1,3.154c0,.9,0,1.18.794,1.18h1.061c.987,0,1.111,0,1.281-.165.193-.17.863-1.084,1.083-1.084.165,0,2.117,1.226,2.117,1.543,0,.335-.5.335-1.272.335Z" transform="translate(454.417 5534.608)" fill="#fff"/>
    <path id="パス_29531" data-name="パス 29531" d="M63.571,51.487c.409,0,.505-.078.505-.294,0-.193-.386-2.745-.459-3.131-.046-.266-.335-1.492-.335-1.758,0-.073.1-.073.165-.073a10.269,10.269,0,0,1,1.685.266c.629.119.946.216.946.528,0,.142-.023.17-.243.413-.266.266-.266.386-.266,1.492.028,2.557.22,2.557.822,2.557h2.8c1.111,0,1.23,0,1.543-.413.744-1.015.817-1.106,1.061-1.106.363,0,2.314,1.4,2.314,1.8,0,.367-.436.367-1.281.367H66.441c-.413,0-.556.041-.556.381a31.984,31.984,0,0,0,.964,4.265c1.492,4.651,4.118,7.69,4.839,7.69.34,0,.748-.7,1.065-1.276a6.682,6.682,0,0,1,.7-1.281c.073,0,.073.124.073.17,0,.073-.317,2.677-.317,3.182a1.785,1.785,0,0,0,.266.987,1.335,1.335,0,0,1,.243.675c0,.51-.34.6-.629.6-2.121,0-7.158-5.133-8.7-14.361-.142-.891-.193-1.033-.794-1.033H57.089c-.556,0-2.195,0-3.039.041a3.489,3.489,0,0,1-.528.078c-.069,0-.119-.078-.193-.17l-.482-.556c-.1-.1-.1-.124-.1-.147,0-.046.023-.069.1-.069.17,0,.918.069,1.061.092,1.106.05,2.172.078,3.3.078Zm-3.251,6.336c-.17,0-.583.028-.679.413-.05.234-.142,2.768-.142,4.238s0,1.712.409,1.712c.363,0,5.808-1.23,5.854-1.23.028,0,.124,0,.124.073,0,.239-3.448,1.662-6.46,2.626a30.778,30.778,0,0,0-4.412,1.492c-.142.073-.647.679-.79.679-.271,0-.946-2.534-.946-2.608,0-.092.073-.119.822-.193a30.578,30.578,0,0,0,3.324-.477.5.5,0,0,0,.22-.34c.023-.193.046-3.159.046-3.448,0-.193-.023-2.24-.023-2.332-.023-.578-.459-.578-.7-.578a19.7,19.7,0,0,0-2.19.069c-.051,0-.289.046-.34.046-.1,0-.142-.073-.211-.165l-.459-.556c-.1-.1-.119-.124-.119-.165s.041-.05.092-.05c.17,0,.914.073,1.065.092,1.106.05,2.19.073,3.3.073H60a3.835,3.835,0,0,0,1.157-.073c.266-.119.987-1.276,1.23-1.276a4.214,4.214,0,0,1,1.758,1.662c0,.317-.482.317-1.3.317Zm7.2-11.326c.335,0,3.664.822,3.664,2.213a.894.894,0,0,1-.992.992c-.266,0-.312-.069-.822-.8a11.875,11.875,0,0,0-1.85-2.139c-.078-.051-.17-.147-.147-.193,0-.051.1-.073.147-.073" transform="translate(476.096 5534.586)" fill="#fff"/>
    <path id="パス_29532" data-name="パス 29532" d="M58.563,57.087c0-.1.069-.142.358-.335.17-.124,2.144-1.52,3.714-2.847,4.118-3.517,5.638-6.386,5.753-6.914.2-.748.2-.845.487-.845.023,0,2.263,1.056,2.263,1.469,0,.124-.05.147-.285.317-.152.069-.174.142-.174.234,0,.753,4.265,6.1,9.977,7.713.679.193.679.193.679.312,0,.147-.073.174-.679.367a2.842,2.842,0,0,0-1.543.982c-.092.174-.165.243-.312.243-.528,0-5.661-3.54-8.383-8.5-.266-.51-.312-.578-.409-.578s-.482.477-.675.721a23.874,23.874,0,0,1-10.555,7.731c-.073.028-.216.051-.216-.069m6.625,3.3c-1.781,0-2.383.023-3.039.073-.073,0-.432.046-.5.046-.1,0-.124-.046-.22-.142l-.459-.556c-.046-.073-.119-.147-.119-.17,0-.046.05-.046.1-.046.17,0,.918.069,1.061.069,1.184.051,2.456.1,3.3.1h7.952c1.015,0,1.276,0,1.855-.8.363-.505.459-.652.679-.652.193,0,.262.05.817.51,1.23,1.01,1.23,1.033,1.23,1.253,0,.312-.119.312-1.253.312H69.21c-.239,0-.335,0-.335.073,0,0,1.134.964,1.134,1.23,0,.216,0,.216-.725.409-.193.069-.239.142-.845.941-.505.67-1.492,1.855-1.634,2-.1.124-.34.358-.34.578s.34.243.432.243c.317,0,2.58-.147,5.257-.413,1.735-.165,1.928-.193,1.928-.436,0-.358-1.423-1.584-1.423-1.878,0-.119.1-.142.17-.142a22.909,22.909,0,0,1,3.058,1.492c.652.386,2.144,1.258,2.144,2.773,0,.771-.477,1.3-.937,1.3-.7,0-1.207-.891-1.639-1.69-.459-.817-.675-.9-1.01-.9A105,105,0,0,0,63.26,68.2a4.8,4.8,0,0,1-.7.386.282.282,0,0,1-.243-.17,19.241,19.241,0,0,1-1.327-2.553c0-.17.124-.17.193-.17.17,0,.918.142,1.065.17a13.312,13.312,0,0,0,1.419.092c1.35,0,1.52,0,2.507-1.974A16.864,16.864,0,0,0,67.428,60.8c0-.409-.312-.409-.725-.409ZM70.2,55.907c1.18,0,1.23-.05,1.708-.629.386-.455.679-.817.8-.817a6.57,6.57,0,0,1,1.827,1.8c0,.266-.119.266-1.276.266H67.718c-1.469,0-2.172,0-3.062.073-.073,0-.432.046-.505.046s-.119-.046-.216-.142l-.459-.556c-.1-.1-.1-.119-.1-.165,0-.028.028-.05.073-.05.165,0,.914.073,1.061.073,1.18.069,2.337.1,3.3.1Z" transform="translate(496.971 5534.284)" fill="#fff"/>
    <path id="パス_29533" data-name="パス 29533" d="M64.861,51.89c-.092-.119-.119-.147-.119-.17,0-.051.073-.051.1-.051.459,0,2.677.142,3.182.142.675,0,.675-.165.675-1.777,0-.363-.023-1.786-.1-2.7,0-.119-.124-.679-.124-.822,0-.05.078-.05.1-.05a19.427,19.427,0,0,1,2.167.652c.124.073.266.17.266.34,0,.1-.436.459-.482.551-.124.22-.124.34-.124,1.35v2.029c0,.335.147.386.386.386a.886.886,0,0,0,.583-.17c.165-.1.868-.822,1.084-.822a.458.458,0,0,1,.34.17c.285.289.794.891.863.941.528.5.578.551.578.693a.356.356,0,0,1-.262.317c-.073.028-.409.1-.487.119a26.53,26.53,0,0,0-2.236,2.415c-.7.721-.771.79-.771,1.226,0,.505.216.551.794.675.817.193,3.085.84,3.085,2.677,0,.748-.409,1.106-.845,1.106-.578,0-.845-.482-1.469-1.758-.147-.266-.941-1.492-1.4-1.492-.216,0-.216.335-.216.624,0,.918.023,5.372.023,6.359,0,.317.119,1.809.119,2.149A1.149,1.149,0,0,1,69.3,68.106c-.579,0-.721-.239-.721-.578,0-.239.1-1.35.1-1.611.046-1.786.147-4.293.147-7.135,0-.266,0-.675-.243-.675s-3.374,2.723-4,2.723c-.05,0-.124,0-.124-.069a24.663,24.663,0,0,1,2.094-2.149c.969-.987,4.366-5.206,4.366-5.9,0-.216-.17-.239-.386-.239h-1.69c-.937,0-1.947.023-2.791.073-.073,0-.436.041-.505.041-.1,0-.152-.041-.22-.142Zm7.883,14.747c-.1-.119-.1-.119-.1-.142a.074.074,0,0,1,.069-.073c.147,0,.891.1,1.065.1.7.023,1.947.069,3.3.069h.941c.216,0,.652,0,.7-.528.046-.436.092-9.71.092-10.968,0-.234,0-.744-.578-.744-.6,0-2,0-2.842.073-.069,0-.409.051-.505.051-.073,0-.124-.051-.216-.152l-.459-.551c-.1-.119-.1-.119-.1-.17s.05-.051.069-.051.9.078,1.015.078c.243,0,2.195.1,3.012.1.578,0,.629-.317.629-.987,0-2.222-.051-3.306-.17-5.114,0-.193-.142-1.033-.142-1.226,0-.124.05-.17.193-.17.069,0,1.566.459,1.735.505.216.073.721.193.721.606,0,.119-.482.528-.528.652-.147.335-.22,4.334-.22,4.981,0,.294,0,.753.583.753,1.129,0,1.249,0,1.758-.675.7-.941.771-1.042.982-1.042.344,0,2.029,1.57,2.029,2.029,0,.312-.51.312-1.276.312H81.154c-.652,0-.7.358-.7.794,0,1.451.069,8.512.069,10.123,0,.9,0,1.322.629,1.322h.891a1.5,1.5,0,0,0,1.423-.721c.652-.845.721-.941,1.015-.941.216,0,2.332,1.57,2.332,1.979,0,.335-.505.335-1.3.335H76.958c-.574,0-2.195-.023-3.035.051-.073,0-.436.069-.51.069s-.115-.046-.211-.165Z" transform="translate(518.119 5534.568)" fill="#fff"/>
  </g>
</svg>
