<svg xmlns="http://www.w3.org/2000/svg" width="362.308" height="183.382" viewBox="0 0 362.308 183.382">
  <g id="グループ_25914" data-name="グループ 25914" transform="translate(-9684.027 -5598.184)">
    <path id="パス_33666" data-name="パス 33666" d="M418.844,3.49c.249-.07,1.167-.6,1.377-.6,1.163,0,3.281,1.693,3.281,2.257,0,.282-.954,1.271-1.06,1.482-.846,1.764-1.513,7.231-1.513,8.431,0,.564.282.705.775.705.773,0,4.232-.812,4.939-.812,1.621,0,4.408,1.271,4.408,2.858,0,.317-.035.953-.845.953-.108,0-2.189-.458-2.332-.495a18.267,18.267,0,0,0-4.547-.495,84.7,84.7,0,0,0-16.44,1.835,12.728,12.728,0,0,1-1.87.564c-.385,0-3.527-1.517-3.527-3.776,0-.141.035-.211.211-.211a10.234,10.234,0,0,1,1.377.46,10.492,10.492,0,0,0,2.788.423c.7,0,10.722-.777,11.111-.846,1.057-.141,1.129-.707,1.3-1.907.143-1.127,1.06-7.689,1.06-7.83,0-.777-.5-.777-.707-.777-.528,0-6.35,1.517-7.3,1.87a9.219,9.219,0,0,1-1.411.564c-.6,0-2.469-1.552-2.469-2.786,0-.176.214-.212.317-.212.353,0,1.907.141,2.224.141a52.906,52.906,0,0,0,8.852-1.8" transform="translate(9377.175 5597.516)" fill="#fff"/>
    <path id="パス_33667" data-name="パス 33667" d="M429.644,16.256a69.6,69.6,0,0,0,9.984-.777c.953-.139,4.972-.881,5.818-.881,1.024,0,5.329.705,5.329,2.4,0,.812-1.379,1.022-1.978,1.022-.282,0-1.092-.141-1.938-.282a26.273,26.273,0,0,0-3.986-.282c-2.962,0-10.405.81-12.347,1.129-.493.071-3.069.67-3.1.67a6.252,6.252,0,0,1-2.466-1.3,5.866,5.866,0,0,1-1.06-2.33.281.281,0,0,1,.319-.317,1.522,1.522,0,0,1,.388.071,11.923,11.923,0,0,0,5.043.881m2.081-11.323c1.129,0,6.175-.705,7.584-.953.493-.07,2.645-.493,3.07-.493,1.62,0,3.138.81,3.138,1.762,0,.883-1.3.954-5.151,1.129-1.374.071-8.182.989-8.467.989A2.619,2.619,0,0,1,430,6.273c-.106-.141-.953-1.2-.953-1.27,0-.106.282-.176.493-.176s1.834.1,2.187.1" transform="translate(9391.952 5597.909)" fill="#fff"/>
    <path id="パス_33668" data-name="パス 33668" d="M460.607,7.763c.211.282,5.326,6.172,9.453,8.854.6.387,3.248,1.975,3.7,2.362a1.743,1.743,0,0,1,.775,1.308c0,.81-.846,1.057-1.482,1.057-1.021,0-3.7,0-12.45-10.583-.423-.495-2.151-2.68-2.541-3.105a1.68,1.68,0,0,0-1.057-.528c-.6,0-.634,0-5.609,4.62a7.41,7.41,0,0,0-1.587,1.8,2.256,2.256,0,0,1-1.766,1.094c-.739,0-1.339-.387-2.962-2.045a1.528,1.528,0,0,1-.422-1.094c0-.178.035-.423.246-.423.176,0,.918.141,1.094.141,1.623,0,3.422-.672,7.83-4.234,1.66-1.341,2.224-1.8,3.213-1.8,1.411,0,2.609,1.376,3.561,2.576m10.477-.037c0,.495-.425,1.376-1.06,1.376-.493,0-.81-.282-1.8-1.621a10.034,10.034,0,0,0-2.4-2.224c-.176-.141-.528-.387-.528-.528s.352-.282.634-.282c3.281,0,5.151,2.116,5.151,3.279m3.173-2.752a1.034,1.034,0,0,1-.918,1.13c-.775,0-1.231-.707-1.762-1.517a8.143,8.143,0,0,0-2.82-2.33c-.353-.176-.425-.352-.425-.423,0-.317.705-.282,1.378-.282.914.037,4.547,1.024,4.547,3.422" transform="translate(9405.651 5596.632)" fill="#fff"/>
    <path id="パス_33669" data-name="パス 33669" d="M492.434,7.156c.214,0,.6-.035.778-.035,2.152,0,2.469,1.306,2.469,1.552,0,.989-1.449,1.094-2.931,1.094-.81,0-4.336-.07-5.043-.07-4.868,0-12.945.458-13.791.634-.425.071-2.328.636-2.752.636-1.517,0-3.141-2.186-3.141-3.386,0-.212.106-.425.285-.425s1.021.388,1.2.425a19.367,19.367,0,0,0,4.3.315c1.165,0,13.474-.458,18.625-.74" transform="translate(9421.059 5600.306)" fill="#fff"/>
    <path id="パス_33670" data-name="パス 33670" d="M496.685,13.339c-2.118,4.585-5.822,6.7-6.529,6.7a.164.164,0,0,1-.174-.178A9.941,9.941,0,0,1,491.391,18c3.88-5.327,4.268-9.171,4.268-10.336a7.732,7.732,0,0,0-.6-3.034,2.566,2.566,0,0,1-.139-.634c0-.108.033-.178.176-.178.246,0,3.986,1.2,3.986,3,0,.1-1.8,5.186-2.4,6.525M502.4,16.62c0-.176.174-1.094.211-1.271.106-.669.143-3.457.143-4.338a21.669,21.669,0,0,0-.67-6.632,9.081,9.081,0,0,1-.461-1.27c0-.141.143-.176.214-.176.176,0,3.88.636,3.88,2.468,0,.425-.5,2.259-.564,2.647-.143.951-.282,5.219-.282,6.384,0,.458.033,1.165.669,1.165,1.059,0,4.3-2.33,7.69-5.75.6-.6,3.6-3.774,3.737-3.774a.152.152,0,0,1,.143.139c0,.282-2.045,4.657-8.22,10.09a19.726,19.726,0,0,0-2.435,2.257c-.6.669-.916.918-1.163.953-1.021.176-2.891-1.905-2.891-2.893" transform="translate(9435.542 5597.544)" fill="#fff"/>
    <path id="パス_33671" data-name="パス 33671" d="M416.039,43.514c-1.235,0-1.235.246-1.235,2.257,0,.705.246.881,1.691,1.411.886.352,2.859,1.094,2.859,2.964,0,.141-.035,1.445-.918,1.445-.6,0-.775-.39-1.517-1.835-.353-.669-1.27-2.327-1.762-2.327-.143,0-.354.141-.354.81,0,1.163.035,6.315.035,7.373-.035,1.235.108,6.666.108,7.76a1.554,1.554,0,0,1-1.625,1.658.68.68,0,0,1-.775-.74c0-.317.068-2.823.1-3.21.035-.848.143-8.89.143-9.949,0-.071,0-.458-.108-.458s-3.737,7.231-4.8,7.231a.075.075,0,0,1-.071-.07c0-.07,1.1-2.433,1.306-2.893a53.537,53.537,0,0,0,3.316-10.583c0-.845-.778-.845-1.092-.845s-1.767.033-2.435.07a4.06,4.06,0,0,1-.636.1c-.106,0-.178-.1-.246-.246l-.568-.813c-.1-.141-.139-.174-.139-.211a.092.092,0,0,1,.106-.1c.564,0,3.809.246,4.549.246.953,0,.953,0,.953-5.818,0-.531-.247-3-.247-3.176,0-.071.037-.141.108-.141a21.4,21.4,0,0,1,2.255.67c.707.176.953.282.953.636,0,.246-.106.317-.456.6s-.425.458-.425,1.094c0,.6-.246,5.043-.246,5.467,0,.212.035.67.738.67a1.043,1.043,0,0,0,.918-.6c.353-.67.46-.881.742-.881.247,0,2.645,1.658,2.645,2.01,0,.425-.738.425-1.553.425Zm15.555,5.573c-.385,0-.881,0-.881.493,0,.636,2.327,6.245,8.326,9.806.529.317,1.339.777,1.339.953s-.246.178-.354.178a4.607,4.607,0,0,0-1.8.387,8.182,8.182,0,0,1-1.585.953c-.317,0-3.633-3.915-5.54-8.925-.106-.246-.493-1.445-.6-1.693,0-.037-.071-.141-.143-.141-.139,0-.139.212-.139.388,0,1.905.071,10.336.071,12.063,0,.566-.071.883-.354,1.094a2.627,2.627,0,0,1-1.445.458c-.531,0-.742-.246-.742-.74,0-1.235.246-3.244.282-4.479.035-1.729.141-7.3.141-7.372,0-.531-.035-.672-.212-.672-.139,0-.211.071-.493.531-2.01,3.244-4.234,6.665-8.359,9.206a5.892,5.892,0,0,1-1.271.6c-.071,0-.211-.037-.211-.141a7.557,7.557,0,0,1,1.2-1.271,29.445,29.445,0,0,0,7.548-10.935c0-.74-.563-.74-1.341-.74-.846,0-2.717.035-3.527.1-.108,0-.636.07-.742.07-.139,0-.211-.07-.319-.209l-.667-.813c-.143-.176-.179-.176-.179-.246s.071-.071.143-.071c.247,0,1.339.106,1.553.106.282,0,2.82.141,4.479.141h1.092c.989,0,1.235-.212,1.235-1.165,0-.846,0-4.338-.106-4.9-.071-.495-.246-.74-1.021-.74H423.8c-.74,0-.812.07-1.271.881-1.021,1.762-2.785,3.774-3.1,3.774-.036,0-.106,0-.106-.1,0-.071.987-2.294,1.163-2.717a30.8,30.8,0,0,0,2.013-7.161c.068-.742.1-.812.35-.812.106,0,3.387.953,3.387,1.447,0,.246-.247.317-.883.529-.354.1-.388.246-.881,1.374-.211.529-.636,1.517-.636,1.553,0,.282.282.317.461.317h2.715c.315,0,1.022,0,1.022-.953,0-.423-.036-2.539-.071-2.821-.036-.529-.35-3-.35-3.316a.15.15,0,0,1,.139-.141c.106,0,3.279.7,3.279,1.094,0,.176-.564.74-.6.881a38.58,38.58,0,0,0-.211,4.162c0,.918.353,1.094,1.163,1.094h.846c.81,0,1.059-.035,1.306-.246.282-.249,1.374-1.658,1.728-1.658a10.159,10.159,0,0,1,2.927,2.327c0,.495-.7.495-1.867.495h-4.975c-.493,0-.811.07-1.022.458a45.58,45.58,0,0,0-.143,4.62c0,1.3,0,1.729,1.165,1.729H432.9c1.445,0,1.625,0,1.87-.247.282-.247,1.271-1.587,1.585-1.587.251,0,3.105,1.8,3.105,2.257,0,.495-.739.495-1.87.495Z" transform="translate(9381.024 5617.516)" fill="#fff"/>
    <path id="パス_33672" data-name="パス 33672" d="M448.058,40.88c.6,0,.739-.1.739-.422,0-.282-.564-4.021-.667-4.587-.071-.388-.5-2.187-.5-2.574,0-.106.143-.106.246-.106a15.291,15.291,0,0,1,2.471.388c.916.174,1.377.317,1.377.775,0,.212-.037.247-.353.6-.39.387-.39.564-.39,2.186.037,3.739.319,3.739,1.2,3.739h4.094c1.62,0,1.8,0,2.255-.6,1.092-1.48,1.2-1.621,1.553-1.621.528,0,3.387,2.045,3.387,2.644,0,.531-.636.531-1.87.531h-9.348c-.6,0-.81.07-.81.563a46.764,46.764,0,0,0,1.409,6.245c2.189,6.808,6.032,11.252,7.09,11.252.5,0,1.1-1.022,1.552-1.87.179-.317.846-1.867,1.026-1.867.1,0,.1.174.1.246,0,.1-.456,3.915-.456,4.657a2.625,2.625,0,0,0,.388,1.445,1.925,1.925,0,0,1,.35.987.8.8,0,0,1-.914.883c-3.105,0-10.478-7.515-12.735-21.023-.211-1.306-.282-1.517-1.163-1.517h-9.526c-.81,0-3.21,0-4.444.07a5.913,5.913,0,0,1-.775.106c-.106,0-.178-.106-.282-.247l-.705-.812c-.143-.141-.143-.176-.143-.212,0-.07.035-.1.143-.1.246,0,1.341.1,1.552.141,1.621.07,3.173.1,4.833.1ZM443.3,50.158c-.251,0-.85.035-.989.6-.071.35-.211,4.056-.211,6.207s0,2.506.6,2.506c.529,0,8.5-1.8,8.57-1.8.037,0,.179,0,.179.1,0,.353-5.047,2.435-9.456,3.844-5.15,1.625-6.031,1.907-6.456,2.189-.211.1-.949.987-1.163.987-.387,0-1.376-3.7-1.376-3.809,0-.143.108-.178,1.2-.284A44.435,44.435,0,0,0,439.063,60a.712.712,0,0,0,.317-.495c.037-.282.068-4.62.068-5.043,0-.282-.032-3.281-.032-3.422-.037-.846-.672-.846-1.026-.846a27.359,27.359,0,0,0-3.208.106c-.071,0-.425.07-.5.07-.139,0-.211-.1-.317-.246l-.669-.813c-.143-.139-.178-.176-.178-.246,0-.035.071-.071.143-.071.246,0,1.338.108,1.548.141,1.625.071,3.213.108,4.833.108h2.788a5.619,5.619,0,0,0,1.7-.108c.385-.176,1.445-1.869,1.8-1.869A6.142,6.142,0,0,1,448.9,49.7c0,.458-.705.458-1.905.458Zm10.547-16.579c.493,0,5.36,1.2,5.36,3.244a1.3,1.3,0,0,1-1.445,1.445c-.388,0-.46-.1-1.2-1.163a17.626,17.626,0,0,0-2.717-3.14c-.106-.07-.249-.212-.214-.282,0-.07.143-.1.214-.1" transform="translate(9397.442 5617.501)" fill="#fff"/>
    <path id="パス_33673" data-name="パス 33673" d="M456.194,48.866c0-.141.108-.212.529-.495.246-.176,3.14-2.222,5.432-4.162,6.033-5.15,8.256-9.347,8.431-10.123.282-1.094.282-1.235.707-1.235.037,0,3.316,1.552,3.316,2.151,0,.178-.071.211-.425.46-.211.1-.246.211-.246.352,0,1.094,6.242,8.925,14.606,11.288.984.28.984.28.984.458,0,.212-.1.247-.984.529a4.135,4.135,0,0,0-2.26,1.445c-.139.247-.246.353-.456.353-.778,0-8.291-5.186-12.279-12.452-.385-.742-.456-.846-.6-.846s-.7.7-.986,1.057c-6.245,7.831-14.181,11.078-15.451,11.323-.108.037-.319.07-.319-.1m9.7,4.831c-2.612,0-3.493.037-4.444.108-.106,0-.634.07-.742.07-.143,0-.174-.07-.317-.211l-.672-.813a2.006,2.006,0,0,1-.174-.246c0-.071.071-.071.139-.071.249,0,1.341.1,1.552.1,1.731.071,3.6.143,4.834.143h11.642c1.482,0,1.867,0,2.717-1.165.528-.74.667-.951.986-.951.282,0,.388.07,1.2.74,1.8,1.482,1.8,1.517,1.8,1.835,0,.456-.174.456-1.834.456H471.786c-.353,0-.493,0-.493.108,0,0,1.656,1.409,1.656,1.8,0,.317,0,.317-1.057.6-.282.1-.353.211-1.235,1.376-.742.987-2.187,2.717-2.4,2.927-.143.176-.493.529-.493.846s.493.352.632.352c.46,0,3.776-.211,7.692-.6,2.537-.246,2.823-.282,2.823-.636,0-.528-2.084-2.327-2.084-2.75,0-.176.143-.212.249-.212a32.925,32.925,0,0,1,4.481,2.187c.953.564,3.137,1.834,3.137,4.058,0,1.127-.7,1.9-1.374,1.9-1.024,0-1.762-1.3-2.4-2.469-.672-1.2-.989-1.3-1.482-1.3a153.955,153.955,0,0,0-16.368,3.246,7.532,7.532,0,0,1-1.021.564.4.4,0,0,1-.354-.249,27.591,27.591,0,0,1-1.942-3.739c0-.246.178-.246.282-.246.246,0,1.341.211,1.552.246a18.494,18.494,0,0,0,2.081.141c1.978,0,2.224,0,3.669-2.891a24.676,24.676,0,0,0,1.835-4.658c0-.6-.461-.6-1.06-.6Zm7.335-6.56c1.731,0,1.8-.07,2.506-.918.564-.669.987-1.2,1.163-1.2a9.565,9.565,0,0,1,2.68,2.645c0,.388-.174.388-1.867.388H469.6c-2.149,0-3.175,0-4.481.1-.1,0-.634.071-.739.071s-.177-.071-.317-.212l-.672-.81c-.139-.141-.139-.176-.139-.247,0-.037.033-.07.1-.07.246,0,1.341.1,1.552.1,1.728.106,3.424.141,4.833.141Z" transform="translate(9413.256 5617.277)" fill="#fff"/>
    <path id="パス_33674" data-name="パス 33674" d="M481.091,41.459c-.143-.174-.179-.211-.179-.246,0-.07.108-.07.143-.07.672,0,3.917.211,4.658.211.986,0,.986-.247.986-2.612,0-.528-.036-2.609-.139-3.948,0-.178-.179-.989-.179-1.2,0-.071.108-.071.143-.071a27.1,27.1,0,0,1,3.173.953c.179.106.39.247.39.495,0,.141-.636.669-.707.81-.176.319-.176.495-.176,1.977v2.962c0,.495.211.566.564.566a1.251,1.251,0,0,0,.846-.249c.247-.141,1.271-1.2,1.588-1.2a.661.661,0,0,1,.493.247c.425.423,1.163,1.3,1.271,1.374.777.74.845.812.845,1.024a.532.532,0,0,1-.385.46c-.106.033-.6.141-.707.174a40.616,40.616,0,0,0-3.279,3.528c-1.026,1.059-1.129,1.163-1.129,1.8,0,.74.314.812,1.163.987,1.2.284,4.516,1.235,4.516,3.915,0,1.094-.6,1.625-1.235,1.625-.846,0-1.235-.707-2.152-2.576-.211-.388-1.374-2.187-2.046-2.187-.317,0-.317.495-.317.916,0,1.341.035,7.868.035,9.313,0,.458.176,2.645.176,3.138a1.684,1.684,0,0,1-1.87,1.625c-.846,0-1.057-.353-1.057-.848,0-.352.139-1.975.139-2.363.071-2.611.214-6.278.214-10.442,0-.387,0-.986-.353-.986s-4.939,3.985-5.857,3.985c-.071,0-.174,0-.174-.106a35.668,35.668,0,0,1,3.069-3.138c1.411-1.445,6.383-7.619,6.383-8.643,0-.317-.247-.352-.564-.352h-2.466c-1.377,0-2.859.035-4.094.1-.108,0-.636.071-.739.071-.143,0-.214-.071-.319-.212Zm11.536,21.589c-.143-.176-.143-.176-.143-.212a.113.113,0,0,1,.108-.1c.209,0,1.3.141,1.548.141,1.024.035,2.859.1,4.833.1h1.378c.319,0,.954,0,1.022-.775.07-.636.141-14.216.141-16.051,0-.352,0-1.094-.845-1.094-.883,0-2.928,0-4.162.108-.108,0-.6.07-.742.07-.108,0-.176-.07-.319-.211l-.67-.813c-.139-.176-.139-.176-.139-.246s.071-.071.106-.071,1.3.106,1.482.106c.35,0,3.21.141,4.408.141.846,0,.918-.458.918-1.447,0-3.244-.071-4.833-.246-7.478,0-.28-.214-1.517-.214-1.8,0-.178.071-.249.282-.249.106,0,2.294.67,2.541.742.317.106,1.059.282,1.059.883,0,.176-.705.775-.777.951-.211.495-.319,6.35-.319,7.3,0,.423,0,1.094.846,1.094,1.66,0,1.836,0,2.577-.987,1.021-1.376,1.127-1.517,1.446-1.517.493,0,2.962,2.292,2.962,2.964,0,.456-.738.456-1.87.456h-4.9c-.953,0-1.024.531-1.024,1.165,0,2.118.106,12.452.106,14.815,0,1.306,0,1.94.918,1.94h1.3a2.189,2.189,0,0,0,2.081-1.059c.953-1.233,1.06-1.374,1.482-1.374.317,0,3.422,2.292,3.422,2.891,0,.495-.739.495-1.905.495H498.8c-.846,0-3.21-.035-4.444.071-.106,0-.636.106-.742.106s-.176-.071-.319-.247Z" transform="translate(9429.282 5617.486)" fill="#fff"/>
    <path id="パス_33675" data-name="パス 33675" d="M354.8,87.978c.407-.352.461-.387.591-.387.37,0,1.5.812,1.5,1.291a5.01,5.01,0,0,1-.461.812c-.036.093-.516,2.106-.609,2.493A13.321,13.321,0,0,1,353.9,97c-.2.259-.793,1.016-1.311,1.016-.35,0-.664-.186-.664-.443a1.686,1.686,0,0,0-.518-1.533c-.46-.5-.514-.553-.514-.664,0-.073.055-.073.09-.073a9.234,9.234,0,0,1,1,.35,2.543,2.543,0,0,0,.682.129c.647,0,.941-.534,1.329-1.5a31.768,31.768,0,0,0,1.236-4.874c0-.387-.2-.387-.368-.387a13.985,13.985,0,0,0-3.083.554,3.34,3.34,0,0,0-.461,1.014,14.813,14.813,0,0,1-4.117,6.388,7.088,7.088,0,0,1-2.6,1.477.121.121,0,0,1-.129-.111c0-.073.036-.093.368-.35a15.089,15.089,0,0,0,5.39-7.992c0-.168-.09-.241-.257-.241-.534,0-3.156.775-3.288.775-.348,0-1.587-.739-1.587-1.514,0-.075,0-.148.111-.148a2.713,2.713,0,0,1,.443.093,5.015,5.015,0,0,0,1.052.091,18.7,18.7,0,0,0,3.674-.387c.5-.222.553-1.995.553-2.531a6.319,6.319,0,0,0-.109-1.18,3.645,3.645,0,0,1-.148-.407c0-.129.2-.129.277-.129.573,0,2.086.627,2.086,1.182,0,.148-.075.314-.315.7a4.305,4.305,0,0,0-.664,1.882c0,.277.129.277.461.277a6.127,6.127,0,0,0,2.289-.5" transform="translate(9339.563 5651.298)" fill="#fff"/>
    <path id="パス_33676" data-name="パス 33676" d="M366.358,88.244c.1,0,.267-.018.347-.018.958,0,1.1.682,1.1.813,0,.516-.644.571-1.3.571-.36,0-1.932-.037-2.245-.037-2.166,0-5.76.241-6.139.334-.188.035-1.037.332-1.223.332-.674,0-1.4-1.145-1.4-1.772,0-.111.046-.222.124-.222s.458.2.538.222a7.326,7.326,0,0,0,1.915.166c.516,0,6-.239,8.288-.388" transform="translate(9346.837 5653.8)" fill="#fff"/>
    <path id="パス_33677" data-name="パス 33677" d="M374.028,91.19c0,.128-.445.48-.5.571-.055.073-.757,1.772-.923,2.086a9.141,9.141,0,0,1-4.892,4.743c-.073,0-.109-.035-.109-.091a12.7,12.7,0,0,1,.977-.923,12.458,12.458,0,0,0,3.618-6.959c0-.222-.037-.554-.441-.554a22.513,22.513,0,0,0-2.936.554,11.875,11.875,0,0,1-1.329.332,1.617,1.617,0,0,1-1.459-1.4c0-.11.037-.184.128-.184a1.6,1.6,0,0,1,.277.093,5.714,5.714,0,0,0,1.165.129c1.182,0,5.961-.518,7.254-.7.222-.038,1.182-.332,1.386-.332.221,0,2.325.4,2.325,1.162,0,.334-.3.443-.534.443-.2,0-1.109-.146-1.295-.166-.387-.037-.9-.093-1.311-.093a15.62,15.62,0,0,0-1.864.056.224.224,0,0,0-.129.275,5.722,5.722,0,0,1,.592.963m-4.1-5.428a11.367,11.367,0,0,0,2.622-.461,7.508,7.508,0,0,1,1.477-.222c.387,0,1.052.075,1.052.609s-.315.573-1.4.684c-.943.111-2.179.35-2.456.4-.091.02-.812.168-.866.168-.9,0-1.477-1.291-1.384-1.329.109.018.85.148.959.148" transform="translate(9353.79 5651.724)" fill="#fff"/>
    <path id="パス_33678" data-name="パス 33678" d="M381.931,94.572a13.157,13.157,0,0,0-1.809,1.514c-.352.425-.388.463-.664.463-1,0-2.363-1.182-2.363-1.922,0-.128.018-.976.184-.976a4.611,4.611,0,0,1,.553.349,3.062,3.062,0,0,0,1.256.425c.9,0,5.8-3.266,8.861-6.295.3-.294.813-.812.85-.812a.117.117,0,0,1,.091.093c0,.164-2.157,3.616-6.959,7.161M380.417,88.5c-.5,0-.684-.3-1.291-1.218a4.14,4.14,0,0,0-1.681-1.514c-.075-.038-.166-.093-.166-.168s.148-.166.407-.166c1.975,0,3.527,1.052,3.527,2.141a.817.817,0,0,1-.795.924" transform="translate(9361.085 5651.958)" fill="#fff"/>
    <path id="パス_33679" data-name="パス 33679" d="M387.476,93.05c0-.553.518-1.145,1.774-2.6a8.51,8.51,0,0,0,1.568-2.75c0-.11-.129-.129-.2-.129-.184,0-.941.148-1.109.148a1.958,1.958,0,0,1-1.641-1.625c0-.055,0-.129.11-.129a4.209,4.209,0,0,1,.7.352,2.951,2.951,0,0,0,1.218.332c1.515,0,1.515-.5,1.515-.868a1.482,1.482,0,0,0-.149-.646c-.056-.093-.443-.425-.443-.536,0-.148.48-.3.812-.3.445,0,.9.168.943.573.018.239.091.277.831.332.129,0,.83.093.83.48,0,.609-1.348,1.127-2.2,1.459-.277.111-.294.148-.7,1.089a14.188,14.188,0,0,1-1,1.993c-.093.168-.129.222-.129.3a.068.068,0,0,0,.075.073,3.663,3.663,0,0,0,.573-.2,1.706,1.706,0,0,1,.719-.148,1.665,1.665,0,0,1,1.568,1.127c.131.312.148.35.186.35a8.813,8.813,0,0,0,.757-1c.609-.848,1.811-2.528,3.414-2.528a1.739,1.739,0,0,1,1.736,1.641c0,.868-1.459,1.479-2.6,1.975-.461.2-2.547,1.036-2.879,1.238-.3.184-.314.387-.314.775,0,.166.036.943.036,1.107,0,.3,0,1.349-.684,1.349-.5,0-.571-.609-.571-.943,0-.184.055-1.07.055-1.089,0-.075,0-.222-.129-.222-.148,0-1.791,1.145-1.791,2.2,0,1.273,1.845,1.273,2.381,1.273a5.658,5.658,0,0,0,1.182-.11c.257-.038,1.439-.332,1.679-.332.387,0,.9.184.9.627,0,1.145-2.861,1.218-3.3,1.218-2.343,0-3.581-.959-3.581-2.418,0-1.182.7-1.772,2.436-3.175a.785.785,0,0,0,.277-.647c0-.831-.148-1.864-.886-1.864a3.18,3.18,0,0,0-2.27,1.957c-.2.461-.4.9-1,.9-.35,0-.7-.111-.7-.609m4.708-6.978c.038,0,.924-.239.924-.443,0-.241-.461-.277-.629-.277-.257,0-.332.516-.332.591s0,.129.037.129m1.681,5.981c0,.036.018.093.073.093s3.693-1.477,3.693-2.7a.568.568,0,0,0-.646-.554c-1.533,0-3.12,2.861-3.12,3.157" transform="translate(9367.933 5651.21)" fill="#fff"/>
    <path id="パス_33680" data-name="パス 33680" d="M400.829,93.75c-.461,0-.5.239-.534.644a1.217,1.217,0,0,1-1.09,1.034c-.461,0-.48-.239-.48-.48,0-.129.055-.757.073-.9.038-.7.038-2.438.038-2.936,0-1.163-.038-2.363-.111-3.342,0-.091-.055-.609-.055-.646,0-.056,0-.129.055-.129.166,0,.3.073,1.4.665a1.855,1.855,0,0,0,1,.257h3.062c.554,0,.554-.332.554-.682,0-.554-.018-2.235-.055-2.752-.018-.111-.11-.573-.11-.682s.11-.111.182-.111c.129,0,1.811.275,1.811.627,0,.111-.388.48-.407.573a11.827,11.827,0,0,0-.073,2.418c0,.277,0,.609.516.609h3.434a.58.58,0,0,0,.571-.257c.352-.481.388-.536.554-.536.259,0,1.57.941,1.57,1.182,0,.111-.407.461-.463.554-.148.257-.148.48-.148,2.325,0,.37.058,2.216.058,2.64,0,.387.017.609-.186.848a1.254,1.254,0,0,1-.906.481c-.514,0-.514-.443-.514-.9,0-.166,0-.5-.536-.5h-3.323c-.334,0-.592.035-.592.607,0,.647.038,3.84.038,4.561,0,.387,0,1.459-.979,1.459-.607,0-.607-.554-.607-.739,0-.2.073-1.145.073-1.367.018-.644.055-3.249.055-3.877,0-.441-.055-.644-.553-.644Zm3.342-.5c.146,0,.387,0,.48-.222a25.487,25.487,0,0,0,.109-3.007c0-1.479,0-1.626-.573-1.626h-3.432c-.536,0-.536.2-.536.87,0,.46.036,2.75.036,3.284,0,.518.093.7.573.7Zm5.981,0c.166,0,.425,0,.48-.277.037-.129.093-3.618.093-3.97,0-.441-.168-.609-.538-.609h-3.561c-.534,0-.534.37-.534.629,0,.48,0,3.673.055,3.9.055.277.257.332.5.332Z" transform="translate(9375.314 5650.807)" fill="#fff"/>
    <path id="パス_33681" data-name="パス 33681" d="M414.033,91.889c0,2.068-.959,3.47-2.084,3.47a.646.646,0,0,1-.738-.664c0-.2.036-.388.627-.941a7.212,7.212,0,0,0,1.7-3.361c.017-.241.091-.368.146-.368.166,0,.35,1.182.35,1.864m4.137-4.874c0,.148-.48.573-.5.684-.128.461-.186,7.881-.186,8.621,0,1.661.058,2.1,1.847,2.1,2.844,0,3.211-.425,3.933-2.493a4.284,4.284,0,0,1,.3-.719,3.758,3.758,0,0,1,.091.792,3.3,3.3,0,0,0,.35,1.479,3.186,3.186,0,0,1,.425.644c0,.795-1.477,1.606-4.634,1.606-3.581,0-3.581-1.034-3.581-2.788,0-.626.075-3.432.093-4.006,0-.5.018-2.675.018-4.023,0-.461-.018-1.441-.055-1.884,0-.073-.037-.275-.037-.46,0-.056,0-.222.037-.261.073-.055,1.9.407,1.9.7m-.3-3.249c1.439,0,4.318,1.791,4.318,3.047a.916.916,0,0,1-.646.977c-.2,0-.388-.148-.793-.793a14.639,14.639,0,0,0-2.861-3.009c-.131-.075-.168-.166-.148-.184.017-.038.109-.038.129-.038m9.395,10.173c0,.85-.518,1.568-1.07,1.568-.609,0-.609-.5-.609-.757a6.7,6.7,0,0,0-.407-3.12,12.364,12.364,0,0,0-.885-1.975c-.093-.148-.093-.259-.075-.277.184-.166,3.045,2.234,3.045,4.56" transform="translate(9383.586 5650.858)" fill="#fff"/>
    <path id="パス_33682" data-name="パス 33682" d="M426.275,93.024c.554-.518.795-.758.795-1a5.031,5.031,0,0,0-.166-.571,5.919,5.919,0,0,1-.315-2.159c0-.425.093-2.567.093-3.049a1.716,1.716,0,0,0-.554-1.492c-.387-.408-.441-.463-.441-.518,0-.075.441-.093.5-.093,1.054,0,1.995.85,1.995,1.384,0,.166-.221,1-.259,1.182a17.589,17.589,0,0,0-.164,2.436c0,.7,0,2.2.48,2.2.257,0,.368-.075,1.366-.7a5.661,5.661,0,0,1,1.9-.866.71.71,0,0,1,.7.682c0,.554-.757.85-1.421,1.109-4.395,1.771-5.024,3.12-5.024,4.32,0,1.255,1.072,1.716,2.567,1.716a8.334,8.334,0,0,0,2.216-.332,5.043,5.043,0,0,1,1.384-.277c.627,0,1.22.423,1.22.886,0,.941-3.767,1.034-4.746,1.034-.848,0-3.525,0-3.525-2.9a4.185,4.185,0,0,1,1.4-2.991" transform="translate(9392.598 5651.108)" fill="#fff"/>
    <path id="パス_33683" data-name="パス 33683" d="M436.412,86.262a8.588,8.588,0,0,1-.35,1.034,44.265,44.265,0,0,0-.777,6.572c0,1.865.352,3.527,2.825,3.527a9.1,9.1,0,0,0,3.877-.959c.277-.129,1.681-.906,1.754-.906a.087.087,0,0,1,.093.093,8.632,8.632,0,0,1-6.2,3.176c-2.4,0-3.543-1.386-3.543-5.1a42.15,42.15,0,0,1,.423-5.131c.073-.611.241-2.124.241-2.64a2.29,2.29,0,0,0-.168-.9c-.017-.055-.2-.48-.2-.5,0-.129.148-.184.26-.184.959,0,1.771,1.494,1.771,1.918" transform="translate(9398.675 5651.24)" fill="#fff"/>
    <path id="パス_33684" data-name="パス 33684" d="M444.222,96.043a24.9,24.9,0,0,0,2.433-6.793c0-.186-.071-.186-.664-.186a3.554,3.554,0,0,1-1.643-.332,1.778,1.778,0,0,1-.959-1,.077.077,0,0,1,.076-.073,4.181,4.181,0,0,1,.422.166,6.787,6.787,0,0,0,1.645.2,4.079,4.079,0,0,0,1.309-.164,5.3,5.3,0,0,0,.2-1.515,2.562,2.562,0,0,0-.221-1.145c-.075-.091-.518-.553-.518-.682,0-.184.35-.425.83-.425a1.67,1.67,0,0,1,1.48.979c0,.093-.206.461-.206.553,0,.352,1.48.665,1.665.665.073,0,.48-.037.573-.037a.529.529,0,0,1,.609.573c0,1.034-1.572,1.568-2.79,1.9-.629.168-.7.184-.777.518a49.836,49.836,0,0,1-1.346,5.243c-1.275,3.839-1.938,3.839-2.29,3.839-.443,0-.5-.609-.5-.812,0-.222.093-.407.665-1.477m3.893-8.437c.093,0,1.5-.5,1.5-.737,0-.184-1-.591-1.2-.591-.108,0-.166.036-.2.221-.073.37-.073.425-.166.868-.02.129-.036.239.073.239m1.4,7.828c.387,1.606,2.382,1.957,3.784,1.957.315,0,1.716-.128,2.011-.128.629,0,1.479.312,1.479.921,0,.536-.684.627-2.254.627-2.989,0-5.48-.757-5.48-3.082,0-.425.108-.812.259-.812.071,0,.181.461.2.516M453.6,89.01c1.756,0,3.082.518,3.082,1.329,0,.441-.387.441-.533.441-.164,0-.886-.055-1.036-.055a3.093,3.093,0,0,0-1.366.3,3.246,3.246,0,0,1-.773.239c-.037,0-.093,0-.093-.056,0-.128.959-.83.959-1.032,0-.277-1.311-.3-1.588-.3a10.993,10.993,0,0,0-1.328.075c-.111.018-.538.073-.609.073-.02,0-.149,0-.166-.035-.129-.241,1.475-.979,3.45-.979" transform="translate(9404.811 5651.078)" fill="#fff"/>
    <path id="パス_33685" data-name="パス 33685" d="M461.6,89.668c.72.445.795.518.795.684,0,.111-.2.627-.222.739a17.9,17.9,0,0,0-.111,3.268c0,.5.018,1.5.056,2.216.018.221.129,1.291.129,1.532,0,.184,0,.812-.445.812-.515,0-1.143-.793-1.143-1.291,0-.184.184-1,.2-1.182.109-1,.183-2.418.183-3.4,0-.664,0-2.6-.48-2.6-.093,0-.166.073-.314.222a20.341,20.341,0,0,1-5.243,3.525c-.055,0-.091-.038-.091-.111a.166.166,0,0,1,.055-.129c.48-.425,1-.85,1.291-1.107,4.358-3.729,5.8-6.869,5.8-7.385a1.05,1.05,0,0,0-.148-.518,1.987,1.987,0,0,1-.129-.294.184.184,0,0,1,.186-.148c.277,0,2.141.777,2.141,1.475a.467.467,0,0,1-.166.37,5.286,5.286,0,0,0-1.256,1.514c-.312.445-.9,1.109-1.255,1.552a.3.3,0,0,0,.166.257" transform="translate(9412.414 5651.343)" fill="#fff"/>
    <path id="パス_33686" data-name="パス 33686" d="M469.344,94.572a13.152,13.152,0,0,0-1.809,1.514c-.352.425-.388.463-.664.463-1,0-2.363-1.182-2.363-1.922,0-.128.018-.976.184-.976a4.609,4.609,0,0,1,.553.349,3.061,3.061,0,0,0,1.256.425c.9,0,5.8-3.266,8.86-6.295.3-.294.812-.812.85-.812a.117.117,0,0,1,.091.093c0,.164-2.157,3.616-6.959,7.161M467.83,88.5c-.5,0-.684-.3-1.291-1.218a4.14,4.14,0,0,0-1.681-1.514c-.075-.038-.166-.093-.166-.168s.148-.166.407-.166c1.975,0,3.527,1.052,3.527,2.141a.817.817,0,0,1-.795.924" transform="translate(9418.74 5651.958)" fill="#fff"/>
    <path id="パス_33687" data-name="パス 33687" d="M482.6,91.19c0,.128-.445.48-.5.571-.056.073-.757,1.772-.923,2.086a9.147,9.147,0,0,1-4.892,4.743c-.075,0-.111-.035-.111-.091a12.7,12.7,0,0,1,.977-.923,12.453,12.453,0,0,0,3.62-6.959c0-.222-.037-.554-.443-.554a22.5,22.5,0,0,0-2.934.554,12.058,12.058,0,0,1-1.329.332,1.617,1.617,0,0,1-1.459-1.4c0-.11.035-.184.128-.184a1.634,1.634,0,0,1,.276.093,5.713,5.713,0,0,0,1.165.129c1.183,0,5.963-.518,7.254-.7.224-.038,1.183-.332,1.386-.332.221,0,2.325.4,2.325,1.162,0,.334-.294.443-.534.443-.2,0-1.109-.146-1.293-.166-.388-.037-.9-.093-1.311-.093a15.6,15.6,0,0,0-1.864.056.224.224,0,0,0-.129.275,5.831,5.831,0,0,1,.591.963m-4.1-5.428a11.353,11.353,0,0,0,2.622-.461,7.526,7.526,0,0,1,1.477-.222c.387,0,1.054.075,1.054.609s-.317.573-1.406.684c-.943.111-2.177.35-2.455.4-.093.02-.813.168-.866.168-.906,0-1.479-1.291-1.386-1.329.111.018.85.148.959.148" transform="translate(9425.403 5651.724)" fill="#fff"/>
    <path id="パス_33688" data-name="パス 33688" d="M486.246,85.474c.443,0,1.457.646,1.457.961,0,.091-.035.516-.035.609,0,2.141.035,3.8.055,4.244.018.222.11,1.147.11,1.331,0,.48-.423.943-.7.943-.407,0-.83-.979-.83-1.459,0-.148.091-.777.091-.924.036-.83.036-1.552.036-1.884,0-2.066-.093-2.491-.665-3.155-.148-.168-.239-.277-.239-.425,0-.129.3-.241.72-.241m5.077-.518c-.222-.3-.241-.332-.241-.368,0-.055,0-.111.536-.111,1.109,0,2.03.461,2.03.941a7.16,7.16,0,0,1-.184.74c-.073.5-.093,3.266-.148,3.913a11.674,11.674,0,0,1-4.615,8.565,7.3,7.3,0,0,1-1.661,1.089c-.073,0-.109-.037-.109-.091,0-.075,1.2-1.256,1.421-1.5,3.561-3.8,3.693-7.013,3.693-10.706a3.537,3.537,0,0,0-.72-2.474" transform="translate(9432.603 5651.327)" fill="#fff"/>
    <path id="パス_33689" data-name="パス 33689" d="M495.2,86.666a7.883,7.883,0,0,0,1.162.075,54.858,54.858,0,0,0,7.644-1.072,6.442,6.442,0,0,1,.757-.423,4.885,4.885,0,0,1,2.177,2.4c0,.129,0,.332-.644.48-.647.129-3.472,1.163-3.86,1.681a10.345,10.345,0,0,0-.941,2.362,10.073,10.073,0,0,1-4.652,5.7,4.789,4.789,0,0,1-1.273.536c-.075,0-.113-.036-.113-.091s.038-.093.37-.352a12.569,12.569,0,0,0,3.3-3.434,8.424,8.424,0,0,0,1.384-4.043,2.373,2.373,0,0,0-.239-1.09c-.148-.294-.166-.332-.166-.4,0-.149.277-.166.387-.166a2.743,2.743,0,0,1,1,.166,5.473,5.473,0,0,0,.72.241,5.009,5.009,0,0,0,2.289-2.254c0-.129-.111-.277-.35-.277a32.437,32.437,0,0,0-6.59,1.145,13.92,13.92,0,0,1-1.552.536c-.441,0-1.884-1.182-1.884-1.827,0-.038.038-.075.131-.075.055,0,.793.166.941.184" transform="translate(9438.275 5651.834)" fill="#fff"/>
    <path id="パス_33690" data-name="パス 33690" d="M505.7,86.254a4.516,4.516,0,0,0,1.532.4,47.884,47.884,0,0,0,6.959-.885c.572-.259.647-.3.777-.3.4,0,.7.257,1.275.757.83.738.941.941.941,1.2,0,.239-.093.332-.425.664a3.03,3.03,0,0,0-.72,1.163,18.79,18.79,0,0,1-9.526,8.6.124.124,0,0,1-.129-.111c0-.073.055-.111.241-.241a24.028,24.028,0,0,0,7.292-7.309,10.435,10.435,0,0,0,1.255-3.122c0-.312-.314-.332-.407-.332a61.665,61.665,0,0,0-6.645,1.331,5.383,5.383,0,0,1-.959.4c-.242,0-.37,0-1.331-.886a1.17,1.17,0,0,1-.534-1.034,1.91,1.91,0,0,1,.055-.423,1.24,1.24,0,0,1,.352.11" transform="translate(9445.638 5651.988)" fill="#fff"/>
    <path id="パス_33691" data-name="パス 33691" d="M516.6,88.014a4.895,4.895,0,0,0,.9.073,43.258,43.258,0,0,0,6.165-.868,3.679,3.679,0,0,1,.646-.35,3.976,3.976,0,0,1,1.792,1.995c0,.239-.075.257-.87.5-.46.146-2.547.848-2.843,1.366-.222.387-.866,2.252-1.034,2.62a7.727,7.727,0,0,1-4.559,4.245c-.075,0-.093-.037-.093-.071,0-.093.018-.113.334-.352,3.561-2.713,3.784-5.39,3.784-6.074a1.631,1.631,0,0,0-.168-.757c-.148-.277-.164-.314-.164-.387,0-.168.277-.184.368-.184a2.689,2.689,0,0,1,.868.148,4.462,4.462,0,0,0,.627.257c.352,0,1.679-1.514,1.679-1.847,0-.129-.129-.184-.239-.184a25.149,25.149,0,0,0-5.3.924,11.981,11.981,0,0,1-1.275.441c-.37,0-1.568-.977-1.568-1.53,0-.056.055-.113.146-.113.057,0,.684.129.795.149" transform="translate(9452.477 5652.905)" fill="#fff"/>
    <path id="パス_33692" data-name="パス 33692" d="M525.746,87.357a4.385,4.385,0,0,0,1.533.387,47.826,47.826,0,0,0,6.959-.868c.574-.259.647-.3.777-.3.407,0,.7.259,1.275.757.831.739.939.941.939,1.2,0,.239-.091.332-.425.664a3.076,3.076,0,0,0-.72,1.162,18.781,18.781,0,0,1-9.526,8.6.12.12,0,0,1-.126-.111c0-.075.053-.11.239-.239a24,24,0,0,0,7.29-7.31,10.433,10.433,0,0,0,1.255-3.12c0-.314-.312-.334-.4-.334a60.955,60.955,0,0,0-6.647,1.329,6.694,6.694,0,0,1-.924.407c-.425,0-1.9-.923-1.9-1.938,0-.352.056-.407.168-.407.038,0,.2.113.239.113m13.53-.075c0,.257-.237.7-.571.7-.294,0-.441-.186-.941-.888a5.532,5.532,0,0,0-1.2-1.2c-.076-.055-.259-.222-.259-.3s.164-.128.332-.128c1.311,0,2.637.959,2.637,1.809m1.4-1.4c0,.2-.146.554-.48.554-.407,0-.626-.332-.941-.757a4.61,4.61,0,0,0-1.53-1.127c-.186-.091-.242-.164-.242-.221,0-.184.553-.184.7-.184.777,0,2.493.553,2.493,1.734" transform="translate(9458.861 5651.108)" fill="#fff"/>
    <path id="パス_33693" data-name="パス 33693" d="M538.221,85.474c.443,0,1.457.646,1.457.961,0,.091-.035.516-.035.609,0,2.141.035,3.8.055,4.244.018.222.109,1.147.109,1.331,0,.48-.423.943-.7.943-.407,0-.83-.979-.83-1.459,0-.148.091-.777.091-.924.037-.83.037-1.552.037-1.884,0-2.066-.093-2.491-.665-3.155-.148-.168-.239-.277-.239-.425,0-.129.3-.241.72-.241m5.077-.518c-.222-.3-.241-.332-.241-.368,0-.055,0-.111.536-.111,1.109,0,2.03.461,2.03.941a7.174,7.174,0,0,1-.184.74c-.073.5-.093,3.266-.148,3.913a11.675,11.675,0,0,1-4.615,8.565,7.3,7.3,0,0,1-1.661,1.089c-.073,0-.11-.037-.11-.091,0-.075,1.2-1.256,1.421-1.5,3.561-3.8,3.692-7.013,3.692-10.706a3.537,3.537,0,0,0-.72-2.474" transform="translate(9466.884 5651.327)" fill="#fff"/>
    <path id="パス_33694" data-name="パス 33694" d="M548.594,91.337a.673.673,0,0,1-.627.7c-.407,0-.534-.425-.664-.831a6.6,6.6,0,0,0-1.072-1.864c-.093-.129-.128-.186-.128-.241,0-.111.109-.166.239-.166.443,0,2.252.923,2.252,2.4m5.7-3.8a1.2,1.2,0,0,1-.037-.166.127.127,0,0,1,.129-.129,4.16,4.16,0,0,1,.832.461c.3.148,1.032.591,1.032,1.127,0,.148-.073.166-.387.35a15.23,15.23,0,0,0-.943,1.588,16.165,16.165,0,0,1-7.513,6.517.118.118,0,0,1-.11-.111,7.759,7.759,0,0,1,1.034-.775c3.932-3.01,6.091-6.481,6.091-8.069a1.864,1.864,0,0,0-.129-.793m-2.879,1.791c0,.536-.3.941-.627.941-.407,0-.5-.46-.554-.773a5.8,5.8,0,0,0-.682-1.754,2.026,2.026,0,0,1-.2-.407c0-.055.093-.111.184-.093a2.338,2.338,0,0,1,1.884,2.086" transform="translate(9472.558 5653.146)" fill="#fff"/>
    <path id="パス_33695" data-name="パス 33695" d="M560.153,85.173c0-.184.257-.184.405-.184a1.726,1.726,0,0,1,1.718,1.034c0,.222-.184.461-.554.923-.091.129-.148.2-.148.3,0,.148.222.148.3.148a10.4,10.4,0,0,0,2.806-.739,3.49,3.49,0,0,1,.868-.3c.166,0,.257.055,1.014.5.113.055.592.312.684.368a.662.662,0,0,1,.35.461c0,.259-.129.332-.737.7-.2.129-.277.239-.924,1.236a22.532,22.532,0,0,1-6.608,6.94,12.641,12.641,0,0,1-3.674,1.774.165.165,0,0,1-.164-.168c0-.073.055-.11.626-.425,5.631-3.1,9.139-9.4,9.139-9.969a.2.2,0,0,0-.2-.2c-.035,0-2.582.573-3.027.573-.11,0-.609-.055-.72-.055-.349,0-.387.036-1.163.921a13.82,13.82,0,0,1-2.509,2.4,5.646,5.646,0,0,1-1.772.979.114.114,0,0,1-.129-.111,15.638,15.638,0,0,1,1.459-1.386c1.5-1.494,3.249-4.041,3.1-5.15-.02-.093-.129-.5-.129-.573" transform="translate(9478.743 5651.665)" fill="#fff"/>
    <path id="パス_33696" data-name="パス 33696" d="M366.557,112.69c-1.625,0-2.141.036-2.343.055-.056,0-.334.038-.388.038a.224.224,0,0,1-.166-.113l-.35-.425c-.075-.091-.075-.091-.075-.128,0-.018.02-.037.055-.037.129,0,.7.055.813.055.9.055,1.68.075,2.546.075h4.174a.38.38,0,0,0,.4-.445c0-.11.02-.589.02-.7,0-.093,0-.3-.129-.3-.055,0-.093.018-.5.259a1.518,1.518,0,0,1-.682.2c-.2,0-.241-.075-.425-.664a1.427,1.427,0,0,0-.407-.48c-.148-.093-.2-.129-.2-.2s.075-.093.109-.093c.075,0,.407.02.463.02.7,0,.923-.056.923-.757,0-.72,0-.979-.5-.979H369.1c-.4,0-.518.239-.518.554,0,.737,0,1.975-.017,2.2-.018.2-.056.795-.9.795-.35,0-.35-.35-.35-.481,0-.073.109-2.2.109-2.529,0-.48-.294-.534-.516-.534h-.573c-.407,0-.518.166-.518.591,0,.314,0,1.918-.018,2.05-.036.277-.72.534-.868.534-.35,0-.35-.241-.35-.48,0-.315.056-1.716.056-2.011,0-.259-.075-1.386-.075-1.606,0-.093.018-.2.111-.2a7.9,7.9,0,0,1,1.014.461,1.163,1.163,0,0,0,.684.186h.646c.461,0,.461-.111.461-.757,0-.463,0-.627-.423-.627h-.5c-1.07,0-1.789.017-2.066.035a2.638,2.638,0,0,1-.388.056c-.075,0-.111-.056-.166-.129l-.35-.425c-.038-.055-.093-.091-.093-.11,0-.037.036-.056.073-.056.111,0,.573.056.664.056.277.018,1.811.073,2.179.073.739,0,.831,0,.961-.11.148-.131.148-.425.148-.9,0-.518-.259-.554-.573-.554h-.72c-.334,0-.425.055-.646.368-.129.166-.664.813-.924.813-.073,0-.073-.093-.073-.131s.388-1.4.443-1.643a8.743,8.743,0,0,0,.168-1.236c0-.148,0-.3.071-.3.093,0,1.5.573,1.5.888,0,.128-.445.534-.445.644s.113.113.186.113h.443c.37,0,.591-.056.591-.573,0-.184-.038-1.016-.038-1.163,0-.093.093-.111.168-.111.055,0,1.459.3,1.459.627,0,.129-.038.148-.261.388a.608.608,0,0,0-.2.407.374.374,0,0,0,.425.425c.682,0,.886-.02,1.052-.148.111-.093.536-.665.664-.665a3.11,3.11,0,0,1,1.311,1.09c0,.2-.091.2-.941.2h-1.993c-.554,0-.554.277-.554.9,0,.441.036.664.591.664h.443c.777,0,.85,0,1.016-.148.128-.11.573-.812.72-.812.073,0,1.475,1,1.475,1.218,0,.241-.4.241-.978.241h-2.768c-.445,0-.538.055-.538.664,0,.682.075.72.445.72h.664a.658.658,0,0,0,.573-.3c.241-.314.37-.48.534-.48s1,.627,1,1c0,.164-.018.2-.241.607a1.206,1.206,0,0,0-.071.5c0,.241,0,.868-.02,1.127-.018.241.075.277.461.37,1.072.277,1.2.3,1.2.609,0,.093-.038.128-.3.332a.338.338,0,0,0-.11.3c0,.48,0,.554.441.554h3.324c.83,0,.923,0,1.182-.314.518-.611.573-.685.737-.685.131,0,1.736,1,1.736,1.22,0,.259-.368.259-1,.259h-5.853c-.164,0-.387,0-.387.241s.923,1.807,1.329,1.807c.294,0,.941-1.014,1.089-1.253.259-.445.314-.5.443-.5.111,0,1.57.534,1.57.9,0,.259-.315.332-.7.425-.664.166-1.7.757-1.7.959,0,.239,1.678,1.293,4.041,1.754.332.073,1,.184,1.089.2.168.018.39,0,.39.148,0,.186-1.017.388-1.127.463a2.2,2.2,0,0,0-.664.644c-.093.149-.148.222-.261.222a9.321,9.321,0,0,1-3.986-2.345c-.37-.368-.425-.4-.554-.4a11.283,11.283,0,0,0-1.052.425,38.294,38.294,0,0,1-5.113,1.938.776.776,0,0,0-.5.332.342.342,0,0,1-.257.148c-.332,0-1.182-1.165-1.182-1.44,0-.241.111-.259,1-.332a8.178,8.178,0,0,0,1.826-.332c.186-.166.186-.259.186-1.145,0-.7,0-.795-.2-.795-.056,0-.665.315-.74.352a14.35,14.35,0,0,1-4.614,1.606c-.055,0-.222-.018-.222-.093s.056-.091.463-.222c1.993-.664,5.777-3.175,5.777-3.6,0-.11-.11-.11-.332-.11Zm4.615.35c-1.014.757-1.034.777-1.089.941-.038.111-.038,1.2-.038,1.809,0,.407.038.609.277.609a11.629,11.629,0,0,0,2.27-.589c.611-.184.924-.315.924-.5,0-.073-.036-.11-.277-.461a8.087,8.087,0,0,1-.775-1.5c-.221-.591-.241-.664-.554-.664-.259,0-.332.055-.738.35m4.524-9.489c0,.113-.315.425-.352.5a2.038,2.038,0,0,0-.073.793c0,1.515,0,1.679.036,2.825,0,.129.037.775.037.906,0,.664-.813.757-.885.757a.458.458,0,0,1-.518-.5c0-.534.128-2.881.128-3.361,0-.441-.018-2.2-.073-2.564,0-.02-.018-.168.018-.186.037-.055,1.681.4,1.681.83m2.6-1.439c.7.257.775.277.775.48,0,.148-.036.168-.257.332-.093.075-.261.2-.261.943,0,.294.02,1.6.02,1.882,0,.591.055,3.175.055,3.711a1.738,1.738,0,0,1-.534,1.459,2.068,2.068,0,0,1-.813.314c-.184,0-.221-.093-.332-.387-.148-.352-.368-.48-1.329-.9-.128-.056-.166-.075-.166-.149s.111-.073.184-.073a11.8,11.8,0,0,0,1.238-.02c.387-.017.387-.312.387-.959,0-.48.018-2.657.018-3.1s0-2.363-.018-2.752c0-.148-.073-.739-.073-.868a.186.186,0,0,1,.035-.129,2.454,2.454,0,0,1,1.072.222" transform="translate(9351.784 5662.765)" fill="#fff"/>
    <path id="パス_33697" data-name="パス 33697" d="M379.923,116.7c-.2,0-.518,0-.553.35s-.093,1-.961,1c-.4,0-.534-.257-.534-.664,0-.554.11-3.249.11-3.858,0-.221,0-1.367-.055-1.957-.018-.148-.093-.85-.093-.9,0-.129.018-.168.129-.168a4.228,4.228,0,0,1,1.162.425,1.507,1.507,0,0,0,.757.148h2.383c.85,0,.959.02,1.107-.221.241-.368.259-.407.407-.407s1.422.647,1.422,1.034c0,.148-.186.277-.408.463-.257.219-.257.589-.257,1.107,0,.48.055,2.861.055,3.4,0,.425,0,1.127-.793,1.127-.48,0-.518-.332-.553-.609-.038-.257-.277-.257-.518-.257Zm2.879-.481a.462.462,0,0,0,.5-.518v-3.58c0-.554-.314-.554-.647-.554h-2.879c-.461,0-.554.2-.554.609,0,.5.111,2.75.111,3.213,0,.534,0,.83.536.83Zm4.672-13.346c.848,0,.941,0,1.089-.222.277-.425.314-.48.48-.48.184,0,1.256.739,1.256,1.07,0,.186-.055.221-.37.4-.2.131-.2.334-.2.538,0,.534.111,2.989.111,3.339,0,.37,0,1-.831,1-.166,0-.461-.038-.5-.3-.038-.4-.055-.48-.5-.48h-5.445c-.277,0-.37.02-.443.3-.111.37-.184.664-.812.664-.592,0-.609-.275-.609-.534,0-.37.091-2.161.091-2.566a21.113,21.113,0,0,0-.111-2.732,4.327,4.327,0,0,1-.184-.518c0-.093.091-.11.148-.11a5.4,5.4,0,0,1,1.44.516,1.475,1.475,0,0,0,.646.111Zm.534,4.393c.5,0,.536-.3.536-.591,0-.184-.018-2.768-.036-2.9-.038-.407-.388-.407-.554-.407h-5.316c-.554,0-.573.3-.573.7,0,.906,0,2.235.035,2.733.02.461.37.461.573.461Zm.036,9.435a.423.423,0,0,0-.5.425c-.02.4-.058.921-.906.921-.388,0-.536-.257-.536-.664,0-.554.131-3.268.131-3.9,0-.149,0-1.44-.056-2.013-.018-.129-.111-.793-.111-.941,0-.129.036-.148.148-.148a2.759,2.759,0,0,1,1.054.37,1.743,1.743,0,0,0,.848.184h2.216c.868,0,.959,0,1.107-.241.222-.352.259-.388.37-.388.073,0,1.532.664,1.532,1.127,0,.166-.038.2-.443.516-.222.186-.222.554-.222.9,0,.518.075,3.027.075,3.581,0,.443,0,1.182-.961,1.182-.441,0-.441-.239-.46-.554,0-.035-.02-.367-.445-.367Zm-.036-5.281c-.553,0-.553.277-.553.757,0,.461.055,2.473.055,2.9,0,1,0,1.145.534,1.145h2.826c.461,0,.534-.2.534-.665,0-.534-.055-2.9-.055-3.377s0-.757-.536-.757Z" transform="translate(9361.574 5662.999)" fill="#fff"/>
    <path id="パス_33698" data-name="パス 33698" d="M398.657,104.112c0,.055.036.129.036.2a14.021,14.021,0,0,1,.184,1.993,9.469,9.469,0,0,1-1.9,5.41c-1.477,2.25-2.418,2.7-3.158,2.7-1.216,0-2.305-1.9-2.305-4.154a6.5,6.5,0,0,1,2.048-4.708,7.641,7.641,0,0,1,5.888-2.4,6.038,6.038,0,0,1,2.972.589,5.787,5.787,0,0,1,3.211,5.374,6.886,6.886,0,0,1-4.65,6.5,11.346,11.346,0,0,1-3.065.684c-.073,0-.184-.02-.184-.129,0-.056.037-.075.5-.261,1.92-.757,5.926-2.343,5.926-6.939a4.754,4.754,0,0,0-5.113-5.115c-.37,0-.388.149-.388.259m-6,5.667c0,1.2.48,2.843,1.606,2.843.534,0,.978-.222,2.25-2.141a10.561,10.561,0,0,0,1.811-5.372c0-1.107-.075-1.2-.314-1.2-1.754,0-5.354,2.38-5.354,5.87" transform="translate(9370.596 5663.646)" fill="#fff"/>
    <path id="パス_33699" data-name="パス 33699" d="M412.217,104.109c-2.7,3.915-7.514,6.647-8.069,6.647a.08.08,0,0,1-.073-.073c0-.018.684-.536.74-.573,3.912-2.916,6.589-7.125,6.681-7.881.055-.352.11-.39.241-.39a6.942,6.942,0,0,1,1.4.518c.35.149.518.277.518.461,0,.075-.168.387-.168.461a12.3,12.3,0,0,0,2.863,3.083,13.032,13.032,0,0,0,4.911,2.363c.091.018.4.091.4.129a6.023,6.023,0,0,1-.682.332,2.632,2.632,0,0,0-1.016.886.315.315,0,0,1-.241.128c-.37,0-3.986-1.938-6.517-6.4-.055-.111-.2-.332-.368-.332-.184,0-.241.073-.627.644m3.157,8.051c.757,0,.9,0,1.143-.387.352-.611.408-.685.573-.685a3.65,3.65,0,0,1,1.479,1.313c0,.239-.113.239-.979.239h-3.322c-.5,0-.591.2-.591.627,0,.3.036,1.568.036,1.829,0,.554,0,1.55.037,1.643.111.221.368.221.536.221H417.2c.757,0,.848,0,1-.129.166-.146.795-.961,1-.961A4.94,4.94,0,0,1,420.8,117.2c0,.242-.388.242-1,.242H407.935c-.425,0-1.681,0-2.328.055-.073,0-.332.035-.4.035-.055,0-.093-.035-.148-.11l-.368-.425a.229.229,0,0,1-.075-.129c0-.018.018-.037.075-.037.129,0,.719.056.83.073.423.02,1.772.056,1.957.056.553,0,.553-.2.553-2.05,0-.48-.017-2.473-.035-2.879-.02-.129-.2-.739-.2-.868a.191.191,0,0,1,.222-.2c.036,0,1.937.3,1.937.722,0,.184-.11.257-.348.443a.523.523,0,0,0-.241.349c-.056.261-.056,2.235-.056,2.66a14.1,14.1,0,0,0,.056,1.606c.109.221.4.221.553.221h1.845a.453.453,0,0,0,.5-.35c.038-.129.093-4.449.093-4.967a10.332,10.332,0,0,0-.186-3.027,4.843,4.843,0,0,1-.294-.627c0-.111.148-.129.239-.129a11.129,11.129,0,0,1,1.977.425c.239.073.312.166.312.314,0,.239-.2.388-.368.5-.334.2-.334.35-.334,1.679a4.809,4.809,0,0,0,.038,1.163c.091.222.407.222.536.222Z" transform="translate(9378.88 5662.779)" fill="#fff"/>
    <path id="パス_33700" data-name="パス 33700" d="M420.835,116.742c-.407,0-.516.111-.516.461-.02.534-.038,1.143-.924,1.143-.534,0-.534-.441-.534-.609,0-.073.037-.46.037-.534.037-.979.037-2.918.037-7.7,0-.554,0-1.218-.037-2.086-.018-.184-.111-1.034-.111-1.218,0-.166.02-.257.129-.257.055,0,1.7.277,1.7.7,0,.11-.02.128-.3.4-.093.091-.093.368-.093.516,0,.407-.055,2.363-.055,2.806,0,.516.018,5.279.073,5.556.055.315.3.332.554.332h11.408a.432.432,0,0,0,.48-.294c.056-.129.056-6.333.056-6.647,0-.277-.037-2.123-.056-2.27,0-.148-.148-.83-.148-.979a.217.217,0,0,1,.2-.241c.091,0,1.55.518,1.625.554a.286.286,0,0,1,.129.222c0,.093-.352.388-.388.5-.111.516-.111,3.175-.111,8.382,0,.239.075,1.514.075,1.791a.983.983,0,0,1-.941,1.107c-.463,0-.463-.425-.463-.831,0-.534-.055-.812-.5-.812Zm4.449-10.1c.534,0,.553-.277.553-.831a15.818,15.818,0,0,0-.073-1.922.462.462,0,0,0-.443-.184H423.18c-1.313,0-1.92-.018-2.327.037-.075,0-.332.056-.387.056a.254.254,0,0,1-.168-.111l-.368-.441c-.036-.056-.073-.093-.073-.113s.017-.055.073-.055c.129,0,.684.075.813.075.9.055,1.661.055,2.528.055h6.535c.7,0,.941,0,1.293-.591.128-.241.332-.534.534-.534a4.928,4.928,0,0,1,1.809,1.366c0,.257-.368.257-.977.257h-4.892c-.534,0-.534.241-.534,1.034,0,1.884,0,1.9.589,1.9h1.479a.812.812,0,0,0,.534-.149c.073-.036.4-.332.48-.332a2.4,2.4,0,0,1,1.107.848,1.855,1.855,0,0,1-.332.463.918.918,0,0,0-.093.5v2.456c0,.534.075,2.823.075,3.284a.783.783,0,0,1-.831.868c-.423,0-.423-.221-.441-.388-.018-.146-.038-.368-.554-.368h-5.022c-.5,0-.571.075-.682.407a.945.945,0,0,1-.924.609c-.164,0-.4,0-.4-.591,0-.314.018-.627.073-1.5.038-.684.055-1.5.055-2.825,0-.941-.017-2.325-.071-3.082-.02-.093-.056-.538-.056-.627,0-.056,0-.168.111-.168.129,0,.222.038,1.014.388a2.349,2.349,0,0,0,.886.2Zm.036,3.155c.536,0,.536-.241.536-1.182,0-1.329,0-1.494-.536-1.494h-1.384c-.518,0-.518.239-.518.959,0,1.679,0,1.716.518,1.716Zm-.036,3.545c.573,0,.573-.128.573-1.772,0-1.034,0-1.293-.573-1.293h-1.293c-.573,0-.573.036-.573,1.829,0,1,0,1.236.573,1.236Zm2.289-6.22c-.534,0-.534.2-.534,1.216,0,1.311,0,1.459.534,1.459h1.514c.536,0,.536-.2.536-1.216,0-1.311,0-1.459-.536-1.459Zm0,3.155a.493.493,0,0,0-.387.129c-.148.148-.148.259-.148,1.2,0,1.641,0,1.734.534,1.734h1.477c.536,0,.536-.2.536-1.884,0-.923,0-1.182-.518-1.182Z" transform="translate(9388.582 5662.941)" fill="#fff"/>
    <path id="パス_33701" data-name="パス 33701" d="M437.649,102.842a.542.542,0,0,0,.516-.2c.111-.129.334-.443.536-.443a2.078,2.078,0,0,1,1.107,1.163c0,.11-.018.148-.332.461-.184.184-.184.627-.184.9,0,.388.055,2.308.055,2.75,0,.9-.682.923-.813.923-.387,0-.441-.257-.534-.775-.055-.294-.314-.294-.591-.294h-2.381c-.627,0-.627.146-.627.719,0,2.511.018,6.535.018,9.045,0,.352,0,1.24-.811,1.24-.534,0-.534-.463-.534-.647,0-.055.035-.5.035-.72.168-4.708.168-5.022.168-9.323,0-2.214-.038-2.934-.056-3.377-.018-.2-.111-1.7-.111-1.754,0-.075,0-.184.075-.184a2.173,2.173,0,0,1,.9.332,1.081,1.081,0,0,0,.7.186Zm-2.77,2.473c-.48,0-.48.091-.48.719,0,.74,0,.815.48.815h2.752c.48,0,.48-.113.48-.685,0-.773,0-.848-.48-.848Zm2.733-.48c.516,0,.516-.038.516-.85,0-.573,0-.647-.516-.647h-2.677c-.518,0-.518.038-.518.85,0,.554,0,.647.518.647Zm5.335,4.984c-.481,0-.684,0-.684.5v1.515c0,.2.018.423.294.423h.647a.567.567,0,0,0,.554-.294c.425-.573.461-.627.647-.627a2.577,2.577,0,0,1,1.216,1.162c0,.239-.387.239-.978.239h-1.791c-.425,0-.591.056-.591.518v3.4a.9.9,0,0,1-.868.923c-.387,0-.387-.221-.387-.609,0-.536.148-3.138.148-3.729,0-.48-.241-.5-.592-.5h-.646c-.443,0-.591.02-.627.445a5.628,5.628,0,0,1-1.4,3.322,4.014,4.014,0,0,1-1.533,1.236c-.055,0-.129-.055-.129-.11,0-.038.036-.075.277-.334a7.23,7.23,0,0,0,1.736-4.209c0-.259-.129-.352-.37-.352-.257,0-1.089,0-1.643.056-.055,0-.332.037-.388.037-.071,0-.11-.037-.164-.11l-.37-.425c-.075-.093-.075-.093-.075-.129s.038-.038.075-.038c.37,0,2.2.129,2.6.129.294,0,.407-.11.407-.407v-1.532c0-.239-.038-.48-.481-.48-.166,0-1.052.073-1.182.073-.055,0-.091-.035-.166-.11l-.35-.425c-.075-.093-.075-.093-.075-.129s.038-.037.055-.037c.131,0,.685.056.813.056.536.017,1.5.073,2.547.073H441.8c.795,0,.961-.018,1.182-.3.37-.5.425-.554.592-.554.239,0,1.163.793,1.163,1.089,0,.241-.39.241-.979.241Zm-2.383,2.436c.37,0,.554,0,.592-.257v-1.643c0-.518-.056-.536-.592-.536h-.609c-.46,0-.591,0-.591.443v1.552c0,.441.148.441.591.441Zm5.41-9.413a.642.642,0,0,0,.627-.3c.222-.259.332-.407.441-.407.277,0,1.24.664,1.24,1.182a.251.251,0,0,1-.093.2c-.315.239-.37.3-.425.443-.056.186-.075,1.882-.075,2.64-.018,1.309.018,7.753.018,9.211,0,1.273-.148,1.884-.7,2.2a2.771,2.771,0,0,1-.979.332c-.148,0-.184-.037-.443-.5a9.425,9.425,0,0,0-.941-.885c0-.056.111-.056.148-.056.2.02.534.02.737.02.795,0,.9-.111.9-1.311,0-1.089.038-6.481.038-7.7,0-.48-.2-.5-.609-.5h-2.6c-.553,0-.573.111-.609.48-.055.5-.72.591-.83.591-.222,0-.461-.073-.461-.591v-3.3c0-.3-.093-1.643-.093-1.957,0-.073.036-.3.2-.3.2,0,.352.075.961.368a.975.975,0,0,0,.573.131Zm-2.863.5c-.534,0-.534.038-.534.757,0,.665,0,.7.534.7h2.843c.277,0,.536,0,.536-.332a6.525,6.525,0,0,0-.036-.959c-.055-.168-.222-.168-.5-.168Zm.02,1.958c-.37,0-.5,0-.536.241-.018.071-.018.886-.018,1,0,.407.148.407.554.407h2.8c.536,0,.536-.018.536-.7,0-.848,0-.941-.536-.941Z" transform="translate(9398.006 5662.978)" fill="#fff"/>
    <path id="パス_33702" data-name="パス 33702" d="M450.3,109.173a.2.2,0,0,0-.186-.093,13.8,13.8,0,0,0-1.309.886,6.793,6.793,0,0,1-2.123,1.07c-.075,0-.113-.018-.113-.073,0-.038.943-.7,1.109-.85.813-.647,2.677-2.27,2.677-2.806a11.8,11.8,0,0,0-1.422-2.141c-.128-.166-.4-.5-.516-.647,0-.073.056-.073.111-.073a3.22,3.22,0,0,1,2.343,1.236c.038.093.149.647.26.647a8.517,8.517,0,0,0,1.382-2.843c0-.277-.257-.277-.461-.277h-.792c-.538,0-1.442,0-2.179.037-.056,0-.5.056-.536.056-.073,0-.111-.038-.166-.131l-.352-.423c-.073-.075-.091-.093-.091-.111,0-.037.036-.037.075-.037.109,0,.682.055.811.055.534.018,1.477.018,2.529.055l.682.02a.829.829,0,0,0,.868-.37c.332-.461.352-.5.5-.5.164,0,1.384.777,1.384,1.09,0,.184-.128.3-.314.387a1.214,1.214,0,0,0-.629.609,17.623,17.623,0,0,1-2.436,3.767c-.166.166-1,1.034-1,1.089,0,.11.184.11.425.129.737.038,1.973.073,2.675.073h2.879a.794.794,0,0,0,.813-.443c.3-.461.332-.516.481-.516a2.589,2.589,0,0,1,1.273,1.143c0,.3-.334.3-.738.3-.739,0-.831,0-.886.166-.038.091-.038,1.55-.038,1.772,0,.793,0,1,.538,1h1c.812,0,.9,0,1.089-.148.131-.113.665-.886.868-.886a3.565,3.565,0,0,1,1.421,1.291c0,.222-.091.222-.9.222h-3.452c-.589,0-.589.184-.589,1.236a7.242,7.242,0,0,0,.2,2.38c.277.538,1.607.538,2.234.538,1.791,0,1.9-.315,2.2-1.459.164-.684.184-.757.257-.757.093,0,.093.073.129.35a2.434,2.434,0,0,0,.259.961c.423.441.536.534.536.792a1.3,1.3,0,0,1-.87,1,10.619,10.619,0,0,1-3.045.277c-2.252,0-3.157-.277-3.157-2.547,0-.35.055-2.011.055-2.141,0-.315-.037-.627-.516-.627h-1.754c-.35,0-.534.017-.609.4a5.636,5.636,0,0,1-2.529,4.154,10.072,10.072,0,0,1-2.9,1.145c-.073,0-.148-.037-.148-.091s.038-.075.352-.222a10.545,10.545,0,0,0,2.1-1.422,6.02,6.02,0,0,0,1.92-3.6c0-.368-.277-.368-.461-.368h-.591c-.516,0-1.44,0-2.179.037-.055,0-.5.055-.534.055-.073,0-.111-.037-.166-.111l-.352-.425c-.073-.093-.093-.11-.093-.128,0-.037.038-.037.075-.037.111,0,.684.055.813.055.534.017,1.475.075,2.529.075h.607c.538,0,.609-.02.609-2.106,0-.589,0-.812-.367-.812-.168,0-1.034.075-1.163.075-.075,0-.111-.038-.168-.113Zm5.261,3.249c.518,0,.518-.2.518-1.147,0-.221,0-1.364-.02-1.475-.073-.259-.257-.314-.534-.314h-1.552c-.48,0-.534.257-.534.534,0,.315-.075,1.679-.075,1.957,0,.241.055.445.518.445Zm6.461-6.665c-.518,0-2.936,1.014-2.936,1.348,0,.368,3.047,1.957,4.431,2.307.241.055.315.075.315.129,0,.111-.148.111-.2.111a4.743,4.743,0,0,0-1.348.516,3.345,3.345,0,0,1-.609.37,11.268,11.268,0,0,1-4.431-3.674,12.754,12.754,0,0,1-2.03-4.524c0-.035,0-.091.055-.091a11.222,11.222,0,0,1,.629,1.182c.184.332.664,1.218.921,1.218.277,0,1.311-1.329,1.754-2.27.239-.5.239-.518.407-.518.277,0,1.606.924,1.606,1.236,0,.131-.2.186-.573.3-.332.093-2.934,1.366-2.934,1.734,0,.129,1.143,1.643,1.53,1.643a8,8,0,0,0,2.382-2.418c.111-.2.184-.35.334-.35.221,0,1.641,1.218,1.477,1.57-.093.184-.186.184-.777.184" transform="translate(9406.906 5662.793)" fill="#fff"/>
    <path id="パス_33703" data-name="パス 33703" d="M468.921,103.113a.614.614,0,0,1-.093.259c-2.141,3.711-5.593,9.617-7.754,13.33-.091.164-.184.275-.332.275a.285.285,0,0,1-.277-.275.564.564,0,0,1,.093-.261c2.141-3.729,5.594-9.635,7.753-13.328.091-.166.184-.3.332-.3a.3.3,0,0,1,.277.3" transform="translate(9416.074 5663.424)" fill="#fff"/>
    <path id="パス_33704" data-name="パス 33704" d="M472.708,112.69c-1.625,0-2.141.036-2.343.055-.056,0-.334.038-.388.038a.224.224,0,0,1-.166-.113l-.35-.425c-.075-.091-.075-.091-.075-.128,0-.018.02-.037.055-.037.129,0,.7.055.813.055.9.055,1.68.075,2.546.075h4.174a.38.38,0,0,0,.4-.445c0-.11.02-.589.02-.7,0-.093,0-.3-.129-.3-.055,0-.093.018-.5.259a1.518,1.518,0,0,1-.682.2c-.2,0-.241-.075-.425-.664a1.429,1.429,0,0,0-.407-.48c-.148-.093-.2-.129-.2-.2s.075-.093.11-.093c.075,0,.407.02.463.02.7,0,.923-.056.923-.757,0-.72,0-.979-.5-.979h-.793c-.4,0-.518.239-.518.554,0,.737,0,1.975-.017,2.2-.018.2-.056.795-.9.795-.35,0-.35-.35-.35-.481,0-.073.11-2.2.11-2.529,0-.48-.294-.534-.516-.534h-.573c-.407,0-.518.166-.518.591,0,.314,0,1.918-.018,2.05-.037.277-.72.534-.868.534-.35,0-.35-.241-.35-.48,0-.315.056-1.716.056-2.011,0-.259-.075-1.386-.075-1.606,0-.093.018-.2.111-.2a7.9,7.9,0,0,1,1.014.461,1.163,1.163,0,0,0,.684.186h.646c.461,0,.461-.111.461-.757,0-.463,0-.627-.423-.627h-.5c-1.07,0-1.789.017-2.066.035a2.64,2.64,0,0,1-.388.056c-.075,0-.111-.056-.166-.129l-.35-.425c-.038-.055-.093-.091-.093-.11,0-.037.036-.056.073-.056.111,0,.573.056.664.056.277.018,1.811.073,2.179.073.738,0,.831,0,.961-.11.148-.131.148-.425.148-.9,0-.518-.259-.554-.572-.554h-.72c-.334,0-.425.055-.646.368-.129.166-.664.813-.924.813-.073,0-.073-.093-.073-.131s.388-1.4.443-1.643a8.738,8.738,0,0,0,.168-1.236c0-.148,0-.3.071-.3.093,0,1.5.573,1.5.888,0,.128-.445.534-.445.644s.113.113.186.113h.443c.37,0,.591-.056.591-.573,0-.184-.038-1.016-.038-1.163,0-.093.093-.111.168-.111.055,0,1.459.3,1.459.627,0,.129-.038.148-.26.388a.608.608,0,0,0-.2.407.374.374,0,0,0,.425.425c.682,0,.886-.02,1.052-.148.111-.093.536-.665.664-.665a3.11,3.11,0,0,1,1.311,1.09c0,.2-.091.2-.941.2H475.33c-.554,0-.554.277-.554.9,0,.441.036.664.591.664h.443c.777,0,.85,0,1.016-.148.128-.11.573-.812.72-.812.073,0,1.475,1,1.475,1.218,0,.241-.4.241-.978.241h-2.768c-.445,0-.538.055-.538.664,0,.682.075.72.445.72h.664a.658.658,0,0,0,.573-.3c.241-.314.37-.48.534-.48s1,.627,1,1c0,.164-.018.2-.241.607a1.207,1.207,0,0,0-.071.5c0,.241,0,.868-.02,1.127-.018.241.075.277.461.37,1.072.277,1.2.3,1.2.609,0,.093-.038.128-.3.332a.338.338,0,0,0-.11.3c0,.48,0,.554.441.554h3.324c.83,0,.923,0,1.182-.314.518-.611.573-.685.737-.685.131,0,1.736,1,1.736,1.22,0,.259-.368.259-1,.259h-5.853c-.164,0-.387,0-.387.241s.923,1.807,1.329,1.807c.294,0,.941-1.014,1.089-1.253.259-.445.314-.5.443-.5.111,0,1.57.534,1.57.9,0,.259-.315.332-.7.425-.664.166-1.7.757-1.7.959,0,.239,1.678,1.293,4.041,1.754.332.073,1,.184,1.089.2.168.018.39,0,.39.148,0,.186-1.017.388-1.127.463a2.2,2.2,0,0,0-.664.644c-.093.149-.148.222-.261.222a9.321,9.321,0,0,1-3.986-2.345c-.37-.368-.425-.4-.554-.4a11.276,11.276,0,0,0-1.052.425,38.29,38.29,0,0,1-5.113,1.938.776.776,0,0,0-.5.332.342.342,0,0,1-.257.148c-.332,0-1.182-1.165-1.182-1.44,0-.241.111-.259,1-.332a8.177,8.177,0,0,0,1.826-.332c.186-.166.186-.259.186-1.145,0-.7,0-.795-.2-.795-.056,0-.665.315-.74.352a14.349,14.349,0,0,1-4.614,1.606c-.055,0-.222-.018-.222-.093s.056-.091.463-.222c1.993-.664,5.777-3.175,5.777-3.6,0-.11-.11-.11-.332-.11Zm4.615.35c-1.014.757-1.034.777-1.089.941-.038.111-.038,1.2-.038,1.809,0,.407.038.609.277.609a11.63,11.63,0,0,0,2.27-.589c.611-.184.924-.315.924-.5,0-.073-.036-.11-.277-.461a8.083,8.083,0,0,1-.775-1.5c-.221-.591-.241-.664-.554-.664-.259,0-.332.055-.738.35m4.524-9.489c0,.113-.315.425-.352.5a2.037,2.037,0,0,0-.073.793c0,1.515,0,1.679.036,2.825,0,.129.037.775.037.906,0,.664-.813.757-.885.757a.458.458,0,0,1-.518-.5c0-.534.128-2.881.128-3.361,0-.441-.018-2.2-.073-2.564,0-.02-.018-.168.018-.186.037-.055,1.681.4,1.681.83m2.6-1.439c.7.257.775.277.775.48,0,.148-.037.168-.257.332-.093.075-.261.2-.261.943,0,.294.02,1.6.02,1.882,0,.591.055,3.175.055,3.711a1.738,1.738,0,0,1-.534,1.459,2.067,2.067,0,0,1-.813.314c-.184,0-.221-.093-.332-.387-.148-.352-.368-.48-1.329-.9-.128-.056-.166-.075-.166-.149s.111-.073.184-.073a11.8,11.8,0,0,0,1.238-.02c.387-.017.387-.312.387-.959,0-.48.018-2.657.018-3.1s0-2.363-.018-2.752c0-.148-.073-.739-.073-.868a.186.186,0,0,1,.035-.129,2.454,2.454,0,0,1,1.072.222" transform="translate(9421.798 5662.765)" fill="#fff"/>
    <path id="パス_33705" data-name="パス 33705" d="M483.474,109.678c-.075-.093-.075-.093-.075-.129s.038-.038.056-.038c.332,0,1.993.113,2.363.113a.85.85,0,0,0,.627-.222,6.285,6.285,0,0,1,.775-.573c.148,0,.923.72.923.979a.158.158,0,0,1-.073.128c-.056.056-.37.222-.407.3a11.438,11.438,0,0,0-.075,1.661c0,2.657.186,2.952.685,3.545,1.032,1.218,3.155,1.328,4.575,1.328a35.55,35.55,0,0,0,6.721-.48,6.073,6.073,0,0,1,.83-.166c.038,0,.113,0,.113.075,0,.11-.186.184-.261.219a2.025,2.025,0,0,0-.682.777c-.277.665-.314.739-.536.795a41.327,41.327,0,0,1-4.411.148c-2.956,0-5.151,0-6.535-2.216-.516-.813-.571-.888-.7-.888-.111,0-.221.113-.277.168-.129.148-.941,1.291-1.4,1.938-.111.166-.37,1.216-.591,1.216-.332,0-1.348-1.291-1.348-1.568,0-.093.055-.148.184-.184.075-.018.48-.093.554-.128,1.975-.979,1.975-1.147,1.975-2.9a19.3,19.3,0,0,0-.111-3.248.482.482,0,0,0-.46-.2c-.407,0-.979.02-1.386.038-.055,0-.5.055-.534.055-.075,0-.093-.037-.168-.11Zm3.654-3.065c-.257,0-.312-.11-.9-1.089a10.86,10.86,0,0,0-1.845-2.031,4.458,4.458,0,0,1-.443-.407c0-.055.111-.055.128-.055.131,0,3.62.629,3.62,2.806,0,.443-.277.775-.554.775m3.767-1.291c-.48,0-.554.073-.959.644-.2.3-.9,1.24-1.127,1.24-.055,0-.055-.058-.055-.075a.35.35,0,0,1,.073-.186,12.915,12.915,0,0,0,1.089-3.434c.075-.775.091-.866.3-.866.055,0,1.455.441,1.455.773,0,.093-.367.39-.423.463a2.825,2.825,0,0,0-.425.793c0,.168.129.168.3.168h1.44c.534,0,.534-.37.534-.574,0-.275-.018-1.182-.037-1.421-.018-.111-.166-.739-.166-.868a.209.209,0,0,1,.222-.239c.073,0,1.753.314,1.753.646,0,.111-.441.48-.461.607a5.688,5.688,0,0,0-.109,1.22c0,.352,0,.629.571.629.979,0,1.09,0,1.349-.332.441-.574.5-.647.682-.647.222,0,1.273.941,1.273,1.2s-.407.259-.959.259h-2.382c-.48,0-.554.164-.554,1.052,0,1.864.036,1.864.574,1.864h1.514c.848,0,.941,0,1.2-.4.277-.445.48-.72.682-.72.222,0,1.515,1.069,1.515,1.384,0,.239-.388.239-.978.239h-7.441c-.441,0-1.7,0-2.325.038a2.714,2.714,0,0,1-.4.055c-.056,0-.093-.037-.149-.129l-.368-.425c-.075-.093-.075-.093-.075-.11,0-.038.038-.055.075-.055.111,0,.665.071.793.071.536.02,1.5.056,2.547.056h1.145c.536,0,.536-.148.536-1.734,0-1-.038-1.182-.592-1.182Zm4.061,5.593c.831,0,.923,0,1.182-.315a.649.649,0,0,1,.461-.312c.241,0,1.309.664,1.309,1.014,0,.113-.091.222-.332.388-.275.2-.275.277-.275.961,0,.3.091,1.809.091,2.159,0,.961-.757.961-.848.961-.445,0-.461-.241-.481-.5-.018-.184-.093-.35-.48-.35h-3.729c-.166,0-.3,0-.368.222a.838.838,0,0,1-.813.737.594.594,0,0,1-.627-.682c0-.388.055-2.327.055-2.77,0-.257,0-1.014-.037-1.532,0-.056-.037-.332-.037-.407,0-.129.055-.2.166-.2a2.928,2.928,0,0,1,.719.241,2.157,2.157,0,0,0,1.2.387Zm-3.047.48c-.148,0-.4,0-.5.222a10,10,0,0,0-.055,1.459c0,1.218,0,1.366.5,1.366h3.729c.516,0,.554-.075.554-1.772,0-1.145,0-1.275-.592-1.275Z" transform="translate(9431.199 5662.714)" fill="#fff"/>
    <path id="パス_33706" data-name="パス 33706" d="M505.752,103.113a.614.614,0,0,1-.093.259c-2.141,3.711-5.593,9.617-7.754,13.33-.091.164-.184.275-.332.275a.285.285,0,0,1-.277-.275.565.565,0,0,1,.093-.261c2.141-3.729,5.594-9.635,7.754-13.328.091-.166.184-.3.332-.3a.3.3,0,0,1,.277.3" transform="translate(9440.366 5663.424)" fill="#fff"/>
    <path id="パス_33707" data-name="パス 33707" d="M509.752,104.918c-.368,0-.441.093-.626.37a11.156,11.156,0,0,1-2.254,2.6c-.055,0-.055-.037-.055-.055a1.156,1.156,0,0,1,.166-.35c.093-.166.591-1.125,1.107-2.216,1-2.124,1.017-2.509,1.017-3.12,0-.129,0-.332.221-.332.055,0,.72.3.848.35.831.352.924.388.924.609s-.129.3-.445.443a2.131,2.131,0,0,0-.83,1.034c0,.168.148.168.277.168h2.141c.757,0,.85,0,1.107-.388.113-.184.481-.72.647-.72.148,0,1.5,1,1.5,1.366,0,.239-.091.239-.977.239h-2.031c-.184,0-.48,0-.534.388-.02.02-.02,2.272-.02,2.474,0,.461.036.7.481.7.775,0,.85-.038.959-.148.148-.129.7-.979.9-.979a7.248,7.248,0,0,1,1.607,1.348c0,.259-.37.259-.979.259h-2.381c-.609,0-.609.148-.609,1.439,0,1.606,0,1.7.609,1.7.83,0,.923,0,1.165-.463.073-.148.276-.553.515-.553.168,0,1.349.923,1.349,1.236,0,.259-.35.259-1,.259h-2.031c-.277,0-.516.037-.571.368-.02.075-.02,1.588-.02,1.791,0,.111,0,.37.277.37.222,0,2.806-.518,3.157-.518.111,0,.186.038.186.093a30.656,30.656,0,0,1-6.076,1.938c-.257.075-1.421.332-1.587.388-.129.037-.627.48-.775.48-.275,0-.9-1.864-.9-1.884,0-.148.091-.148.148-.148a4.674,4.674,0,0,1,.481.111,2.007,2.007,0,0,0,.553.073c.388,0,.571,0,.629-.277.017-.164.017-2.547.017-2.952a6.122,6.122,0,0,0-.075-1.329,5.638,5.638,0,0,1-.183-.573c0-.146.073-.2.241-.2.184,0,1.586.352,1.586.665a.357.357,0,0,1-.056.148c-.036.056-.294.3-.332.368s-.036,3.14-.036,3.638c0,.2.018.35.332.35.738,0,1.218-.166,1.256-.332,0-.037.018-5.095.018-5.575,0-.443-.111-.609-.518-.609h-.518c-1.089,0-1.716.018-2.25.055-.056,0-.332.038-.388.038s-.093-.038-.166-.113l-.35-.425c-.056-.055-.075-.093-.075-.128s.038-.037.055-.037c.129,0,.7.055.831.055.221.017,1.827.075,2.436.075h.352c.257,0,.48-.075.553-.277.056-.148.056-1.643.056-1.938,0-1.218,0-1.349-.536-1.349Zm10.266-1.494a.647.647,0,0,0,.646-.314c.148-.222.184-.241.277-.241.2,0,1.384.72,1.384.941,0,.093-.186.259-.334.388-.219.2-.239.2-.239,1.55,0,1.145.075,6.774.075,8.049,0,1.975-1.568,1.975-1.588,1.975-.257,0-.3-.075-.627-.7a1.458,1.458,0,0,0-.738-.665c-.073-.037-.518-.129-.518-.222,0-.035,1.109-.035,1.145-.035.591,0,.793,0,.923-.241a15.921,15.921,0,0,0,.111-2.4c0-1-.073-5.87-.073-6.96,0-.275,0-.646-.592-.646h-1.826c-.315,0-.518.038-.593.35-.018.111-.018,1.829-.018,2.143,0,1.625.056,9.672.056,11.5,0,.848-.961.848-.979.848-.259,0-.388-.073-.388-.443V117.03c0-.149.093-8.178.093-8.585,0-2.159-.055-3.932-.093-4.486,0-.166-.109-.959-.109-1.143,0-.055,0-.148.166-.148a6,6,0,0,1,.868.46,1.783,1.783,0,0,0,1.052.3Z" transform="translate(9446.244 5662.765)" fill="#fff"/>
    <path id="パス_33708" data-name="パス 33708" d="M523.339,109.847c-.368,0-.368.075-.425.647-.091.866-.793,2.216-1.734,2.216a.693.693,0,0,1-.738-.7c0-.332.093-.443.775-1.422a2.794,2.794,0,0,0,.516-1.568c0-.075-.091-.443-.091-.516a.2.2,0,0,1,.2-.2c.2,0,.737.793.885.923a.817.817,0,0,0,.573.148h9.913c.593,0,.72,0,.924-.129.109-.073.591-.48.72-.48.2,0,1.92,1.034,1.92,1.366,0,.352-.536.407-.739.425a4.57,4.57,0,0,0-1.57.407,5.561,5.561,0,0,1-.868.443c-.055,0-.148-.018-.148-.111a13.913,13.913,0,0,0,.72-1.311s0-.129-.275-.129Zm3.822,1.218c.2.075.387.148.387.3,0,.113-.369.463-.387.554-.093.259-.2,1.5-.241,1.736a6.207,6.207,0,0,1-6.018,4.965c-.148,0-.259-.055-.259-.166,0-.093.111-.111.3-.166a6.658,6.658,0,0,0,2.27-1.089,5.786,5.786,0,0,0,2.4-5.3,4.508,4.508,0,0,0-.055-.831,2.806,2.806,0,0,1-.11-.423c0-.111.11-.131.164-.131a.552.552,0,0,1,.241.058c.259.091,1.089.425,1.311.5m3.784-3.839c.813,0,.886-.018,1.2-.461.168-.259.443-.591.665-.591A5.53,5.53,0,0,1,534.6,107.5c0,.221-.367.221-.959.221H525.5c-1.607,0-2.141.036-2.325.036a2.659,2.659,0,0,1-.39.055c-.073,0-.11-.055-.164-.128l-.352-.425c-.073-.073-.091-.091-.091-.111s.036-.055.073-.055c.13,0,.7.055.812.075.9.036,1.661.055,2.531.055h1.586c.461,0,.554-.184.554-1.256,0-.5,0-.792-.536-.792h-2.972c-1.2,0-1.865.017-2.345.055-.055,0-.332.035-.387.035s-.093-.035-.166-.128l-.352-.407c-.073-.093-.073-.11-.073-.129,0-.037.018-.037.056-.037.129,0,.7.056.812.056.9.036,1.681.073,2.547.073h2.861c.573,0,.573-.148.573-1.309,0-.222-.091-1.147-.091-1.329,0-.129,0-.186.148-.186a9.653,9.653,0,0,1,1.328.334c.443.11.627.294.627.423,0,.111-.368.461-.407.553a1.27,1.27,0,0,0-.148.647c0,.592,0,.868.518.868h2.622c.83,0,.923,0,1.218-.461.166-.239.461-.664.7-.664a6.738,6.738,0,0,1,1.958,1.346c0,.261-.37.261-1,.261h-5.52c-.554,0-.554.09-.554,1.475,0,.2,0,.573.48.573Zm.3,3.525c.129.037.352.111.352.277,0,.111-.37.481-.425.573a6.149,6.149,0,0,0-.148,1.736,9.167,9.167,0,0,0,.166,2.879c.166.387.739.534,2.2.534,1.957,0,2.011-.425,2.289-2.62a3.182,3.182,0,0,1,.184-.9c.093,0,.111.241.315,2.252a1.212,1.212,0,0,0,.239.646,2.234,2.234,0,0,1,.5.813c0,.536-.85.868-.959.9a7.352,7.352,0,0,1-2.363.261c-3.951,0-3.951-.518-3.951-2.991,0-.554-.035-3.01-.035-3.508,0-.128-.02-.665-.02-.775,0-.315.111-.315.332-.277.222.055,1.145.148,1.329.2" transform="translate(9455.632 5662.801)" fill="#fff"/>
    <path id="パス_33709" data-name="パス 33709" d="M544.74,113.6c-.26,0-.463,0-.463.186,0,.164.073.2.665.644a13.322,13.322,0,0,0,6.257,2.438c.445.055.5.055.5.168s-.093.128-.387.2a1.767,1.767,0,0,0-1,.921c-.056.129-.184.352-.241.352a5.213,5.213,0,0,1-.9-.314,11.951,11.951,0,0,1-5.077-3.693c-.425-.516-.445-.554-.534-.554-.149,0-.167.168-.167.222,0,.075.018.627.018.739,0,.35.02,2.05.02,2.436,0,.664,0,.812-.186,1.016a1.155,1.155,0,0,1-.831.368c-.219,0-.4-.055-.4-.46,0-.038.093-1.422.111-1.7.017-.48.017-1.07.017-1.55,0-.075,0-.241-.146-.241a2,2,0,0,0-.443.277,18.392,18.392,0,0,1-7.09,3.4c-.036,0-.129-.02-.129-.093,0-.056.37-.221.388-.239,3.176-1.4,6.092-3.97,6.092-4.338,0-.186-.186-.186-.314-.186h-2.438c-.609,0-1.752,0-2.232.038-.056,0-.425.055-.5.055-.055,0-.093-.038-.166-.129l-.352-.425c-.073-.093-.073-.093-.073-.11a.06.06,0,0,1,.056-.056c.13,0,.682.073.812.073.536.02,1.772.055,2.548.055h3.619c.387,0,.387-.164.387-1.034,0-.2-.02-.423-.461-.423h-1.329c-.682,0-1.809,0-2.215.037-.055,0-.443.055-.5.055-.075,0-.091-.035-.166-.11l-.37-.443c-.073-.091-.073-.091-.073-.111,0-.036.037-.055.073-.055.111,0,.684.075.812.075.518.017,1.7.055,2.531.055h1.163c.534,0,.534-.222.534-.9,0-.388,0-.777-.48-.777h-2.235c-.441,0-1.7,0-2.343.056-.055,0-.332.036-.387.036s-.093-.036-.168-.128l-.35-.425c-.075-.093-.075-.093-.075-.113a.06.06,0,0,1,.057-.055c.111,0,.684.075.811.075.536.018,1.5.055,2.529.055h.682c.093,0,.2,0,.2-.148a7.8,7.8,0,0,0-.757-1.882c-.369-.611-.609-.647-.961-.647h-.46c-.739,0-1.975.02-2.327.055-.073,0-.334.038-.407.038-.055,0-.091-.038-.146-.111l-.37-.425c-.075-.091-.075-.091-.075-.129s.036-.037.056-.037c.128,0,.682.055.811.055.536.02,1.5.075,2.549.075.276,0,.387,0,.387-.222a4.846,4.846,0,0,0-.738-1.494c-.111-.129-.757-.757-.757-.757a.172.172,0,0,1,.184-.129c.461,0,2.455.534,2.455,1.734a.94.94,0,0,1-.129.461c-.091.149-.091.184-.091.259,0,.148.148.148.2.148h.553c.407,0,.407-.332.407-.5,0-.332-.018-1.641-.038-2.141-.017-.164-.13-.941-.13-1.127,0-.219.075-.219.186-.219.036,0,1.532.11,1.532.516a.668.668,0,0,1-.184.3c-.129.148-.166.3-.166.7,0,2.473.037,2.473.553,2.473h.665c.534,0,.534-.148.534-1.588,0-.5-.035-1.422-.055-1.754a3.071,3.071,0,0,1-.055-.4c0-.148.055-.259.184-.259a7.62,7.62,0,0,1,1.275.332c.109.038.294.168.294.332,0,.075-.037.113-.2.332a.771.771,0,0,0-.2.647c0,1.052.018,1.145.037,2.086,0,.129.018.277.184.277.332,0,1.661-1.92,1.958-2.6.2-.48.221-.518.312-.518.038,0,1.4.739,1.4,1.089,0,.129-.038.129-.425.277A21.07,21.07,0,0,0,546.1,105.7c0,.091.149.11.222.11h.9c.7,0,.886-.018,1.07-.166.129-.091.665-.793.831-.793a4.88,4.88,0,0,1,1.587,1.182c0,.257-.368.257-1,.257H545.5c-.075,0-.2,0-.2.093,0,.075.036.091.407.314.609.35.682.388.682.573,0,.129-.073.184-.332.314-.425.241-1.236.977-1.236,1.218,0,.166.221.166.352.166h1.661c.757,0,.848,0,1-.129.129-.11.646-.83.83-.83.075,0,1.4.923,1.4,1.218,0,.239-.093.239-.943.239h-5.15c-.554,0-.554.222-.554.941,0,.481,0,.74.516.74h1.533c.813,0,.9,0,1.163-.3.536-.629.591-.7.793-.7.314,0,1.421.9,1.421,1.2s-.332.3-.921.3H543.87c-.461,0-.461.148-.461,1,0,.221,0,.46.445.46H547.6a3.57,3.57,0,0,0,.9-.055c.168-.073.795-.921,1.017-.921.184,0,1.587.9,1.587,1.216,0,.259-.37.259-.978.259Zm-4.653-7.31c-.036,0-.148,0-.148.093,0,.055.315.277.388.314.886.646,1.125,1.145,1.125,1.552a1.1,1.1,0,0,1-.129.48.347.347,0,0,0-.036.148c0,.091.129.091.2.091h2.048c.534,0,.647-.148.85-.757a6.292,6.292,0,0,0,.352-1.679c0-.186-.075-.241-.39-.241Z" transform="translate(9464.789 5662.757)" fill="#fff"/>
  </g>
</svg>
