<svg xmlns="http://www.w3.org/2000/svg" width="301.327" height="180.286" viewBox="0 0 301.327 180.286">
  <g id="グループ_26289" data-name="グループ 26289" transform="translate(-2944 -6811.634)">
    <path id="パス_38585" data-name="パス 38585" d="M16.736,4.106c.238-.067,1.124-.578,1.327-.578,1.124,0,3.164,1.633,3.164,2.177,0,.272-.919,1.226-1.02,1.429-.818,1.7-1.463,6.973-1.463,8.131,0,.544.272.68.747.68.747,0,4.081-.783,4.763-.783,1.565,0,4.251,1.226,4.251,2.756,0,.306-.032.919-.815.919-.1,0-2.111-.442-2.247-.477a17.632,17.632,0,0,0-4.387-.477A81.688,81.688,0,0,0,5.2,19.653a12.273,12.273,0,0,1-1.8.544c-.373,0-3.4-1.463-3.4-3.641,0-.136.032-.2.2-.2A9.928,9.928,0,0,1,1.53,16.8a10.118,10.118,0,0,0,2.689.408c.68,0,10.341-.749,10.715-.816,1.021-.136,1.088-.682,1.258-1.839.136-1.087,1.021-7.415,1.021-7.551,0-.749-.477-.749-.68-.749-.511,0-6.123,1.463-7.042,1.8a8.889,8.889,0,0,1-1.36.544c-.578,0-2.382-1.5-2.382-2.687,0-.17.2-.2.306-.2.341,0,1.837.136,2.143.136a51.045,51.045,0,0,0,8.539-1.735" transform="translate(2944 6813.754)" fill="#fff"/>
    <path id="パス_38586" data-name="パス 38586" d="M27.948,16.438a67.084,67.084,0,0,0,9.629-.749c.919-.134,4.8-.85,5.613-.85.988,0,5.138.68,5.138,2.314,0,.783-1.328.986-1.906.986-.272,0-1.055-.136-1.871-.272a25.331,25.331,0,0,0-3.843-.272c-2.858,0-10.037.781-11.908,1.088-.477.069-2.959.647-2.995.647a6.023,6.023,0,0,1-2.38-1.258A5.647,5.647,0,0,1,22.4,15.825a.27.27,0,0,1,.307-.306,1.456,1.456,0,0,1,.373.069,11.5,11.5,0,0,0,4.864.85m2.009-10.92c1.088,0,5.954-.68,7.313-.919.477-.067,2.553-.475,2.961-.475,1.564,0,3.028.781,3.028,1.7,0,.851-1.26.92-4.968,1.088-1.327.069-7.892.954-8.166.954a2.53,2.53,0,0,1-1.836-1.055c-.1-.136-.919-1.157-.919-1.224,0-.1.274-.17.477-.17s1.769.1,2.109.1" transform="translate(2957.453 6814.112)" fill="#fff"/>
    <path id="パス_38587" data-name="パス 38587" d="M58.549,8.178c.2.272,5.138,5.952,9.118,8.539.578.373,3.131,1.9,3.572,2.278a1.681,1.681,0,0,1,.747,1.261c0,.781-.816,1.02-1.429,1.02-.986,0-3.571,0-12.009-10.206-.407-.477-2.074-2.585-2.449-2.995a1.625,1.625,0,0,0-1.021-.509c-.578,0-.611,0-5.408,4.456a7.112,7.112,0,0,0-1.53,1.735,2.181,2.181,0,0,1-1.7,1.055c-.714,0-1.293-.373-2.857-1.972a1.466,1.466,0,0,1-.408-1.055c0-.171.034-.408.237-.408.171,0,.885.136,1.056.136,1.564,0,3.3-.648,7.551-4.083,1.6-1.293,2.143-1.735,3.1-1.735,1.36,0,2.516,1.327,3.435,2.484m10.1-.035c0,.477-.408,1.327-1.021,1.327-.475,0-.781-.272-1.735-1.564a9.678,9.678,0,0,0-2.313-2.145c-.171-.136-.509-.373-.509-.509s.338-.272.611-.272c3.164,0,4.966,2.041,4.966,3.163M71.715,5.49a1,1,0,0,1-.885,1.09c-.747,0-1.189-.682-1.7-1.463A7.858,7.858,0,0,0,66.409,2.87C66.068,2.7,66,2.53,66,2.461c0-.306.679-.272,1.327-.272.883.035,4.387.988,4.387,3.3" transform="translate(2969.925 6812.949)" fill="#fff"/>
    <path id="パス_38588" data-name="パス 38588" d="M90.075,7.792c.2,0,.578-.034.749-.034,2.076,0,2.382,1.26,2.382,1.5,0,.954-1.4,1.055-2.825,1.055-.781,0-4.184-.067-4.864-.067-4.694,0-12.484.442-13.3.611-.408.069-2.245.613-2.652.613-1.463,0-3.03-2.108-3.03-3.265,0-.2.1-.41.274-.41s.986.375,1.157.41a18.685,18.685,0,0,0,4.148.3c1.124,0,12.994-.442,17.962-.714" transform="translate(2983.953 6816.294)" fill="#fff"/>
    <path id="パス_38589" data-name="パス 38589" d="M94.956,13.606c-2.042,4.422-5.613,6.464-6.295,6.464a.158.158,0,0,1-.168-.171,9.589,9.589,0,0,1,1.359-1.8c3.742-5.138,4.116-8.844,4.116-9.968A7.456,7.456,0,0,0,93.391,5.2a2.49,2.49,0,0,1-.136-.611c0-.1.034-.171.171-.171.237,0,3.843,1.157,3.843,2.892,0,.1-1.735,5-2.313,6.293m5.511,3.164c0-.17.17-1.055.2-1.226.1-.645.136-3.334.136-4.184a20.9,20.9,0,0,0-.647-6.4,8.953,8.953,0,0,1-.443-1.224c0-.136.136-.17.2-.17.171,0,3.742.613,3.742,2.38,0,.41-.477,2.178-.544,2.553-.136.917-.272,5.034-.272,6.157,0,.442.034,1.124.647,1.124,1.02,0,4.15-2.247,7.415-5.546.579-.578,3.47-3.64,3.606-3.64a.145.145,0,0,1,.136.134c0,.272-1.972,4.491-7.926,9.731a19.014,19.014,0,0,0-2.348,2.177c-.578.645-.883.885-1.122.919-.986.17-2.79-1.837-2.79-2.79" transform="translate(2997.139 6813.78)" fill="#fff"/>
    <path id="パス_38590" data-name="パス 38590" d="M110.391,9.724c.511.069,2.484.306,2.926.306.68,0,3.641-.2,4.253-.2.647-.032,1.021-.134,1.021-.951a8.826,8.826,0,0,0-.749-3.777c-.1-.136-.647-.714-.647-.85,0-.238,1.021-.341,1.191-.341.783,0,3.062,1.6,3.062,2.279,0,.238-.578,1.226-.613,1.431a3.088,3.088,0,0,0-.136,1.223c0,.512.341.715.816.715.885,0,3.03-.136,3.88-.2.749-.069.749-.648.749-.989a40.521,40.521,0,0,0-.24-5.543c-.1-.307-1.055-1.668-1.055-1.735,0-.136.376-.341.783-.341a7.8,7.8,0,0,1,2.722,1.02c.341.171.85.408.85.816a6.7,6.7,0,0,1-.578,1.226,13.987,13.987,0,0,0-.339,3.811c0,1.087,0,1.428.815,1.428a10.577,10.577,0,0,0,2.314-.375,4.062,4.062,0,0,1,1.7-.443c1.7,0,4.7.579,4.7,2.247a1,1,0,0,1-1.088.986c-.41,0-2.245-.408-2.62-.477-1.156-.168-4.558-.237-4.625-.237-1.021,0-1.021.237-1.124,2.212-.136,3.231-.511,7.143-3.606,10.952a10.978,10.978,0,0,1-3.537,3.062.2.2,0,0,1-.2-.2c0-.034,1.7-2.21,1.972-2.654,2.689-3.98,3.3-7.79,3.3-12.178,0-1.09-.546-1.09-1.021-1.09a21.759,21.759,0,0,0-4.048.341c-.443.237-.443.373-.443,1.837,0,.747.2,4.048.2,4.694,0,1.634-.17,2.245-.645,2.245-.818,0-1.8-2.143-1.8-2.722,0-.339.306-3.606.306-3.947,0-1.631-.2-1.836-.783-1.836a27.616,27.616,0,0,0-4.353.816,7.924,7.924,0,0,1-1.191.375c-.41,0-3.367-1.5-3.367-2.825a.277.277,0,0,1,.237-.306,9.069,9.069,0,0,1,1.021.2" transform="translate(3009.534 6812.082)" fill="#fff"/>
    <path id="パス_38591" data-name="パス 38591" d="M156.1,7.792c.2,0,.578-.034.749-.034,2.076,0,2.382,1.26,2.382,1.5,0,.954-1.4,1.055-2.825,1.055-.781,0-4.184-.067-4.864-.067-4.694,0-12.484.442-13.3.611-.408.069-2.246.613-2.652.613-1.463,0-3.03-2.108-3.03-3.265,0-.2.1-.41.274-.41s.986.375,1.157.41a18.686,18.686,0,0,0,4.148.3c1.124,0,12.994-.442,17.962-.714" transform="translate(3023.6 6816.294)" fill="#fff"/>
    <path id="パス_38592" data-name="パス 38592" d="M159.5,4.253a1.4,1.4,0,0,1,.579.883c0,.307-.544,1.634-.579,1.938-.134,1.191-.2,4.219-.2,5.648a.568.568,0,0,0,.645.611c.682,0,8.1-3.606,8.1-5.442,0-.2-.237-1.157-.237-1.26,0-.136.237-.136.477-.136a3.5,3.5,0,0,1,3.5,2.858c0,.781-.511.885-1.5,1.088-.784.17-3.846,1.7-4.491,1.973-.954.408-5.987,2.21-6.159,2.313-.407.272-.407.443-.407,1.735,0,4.457.647,5.376,5.1,5.376a21.643,21.643,0,0,0,4.968-.613,20.157,20.157,0,0,1,2.346-.408A1.315,1.315,0,0,1,173,22.011c0,2.551-6.532,2.551-8.639,2.551-7.044,0-7.213-3.028-7.213-7.858,0-1.224.1-6.567.1-7.689a9.65,9.65,0,0,0-.885-4.761,6.942,6.942,0,0,1-.578-1.124c0-.2.477-.306.781-.306.989,0,1.463.237,2.926,1.429m17.181,2.005c0,.408-.376,1.293-1.021,1.293-.511,0-.816-.306-1.735-1.6a9.827,9.827,0,0,0-2.245-2.212c-.136-.1-.475-.373-.475-.509,0-.171.306-.272.611-.272,2.62,0,4.865,1.871,4.865,3.3m2.857-3.435a.946.946,0,0,1-.85,1.021c-.715,0-1.122-.443-1.8-1.226a8.672,8.672,0,0,0-3.03-1.8c-.339-.1-.442-.274-.442-.375,0-.272.851-.443,1.26-.443,4.184,0,4.864,2.212,4.864,2.825" transform="translate(3037.552 6811.635)" fill="#fff"/>
    <path id="パス_38593" data-name="パス 38593" d="M188.373,5.564c-.238,0-7.381,1.668-7.553,1.737a14.723,14.723,0,0,1-1.532.645,7.1,7.1,0,0,1-2.313-1.224,6.933,6.933,0,0,1-.816-1.973c0-.17.035-.272.2-.272.035,0,.783.2.885.238a6.089,6.089,0,0,0,1.8.341c1.156,0,7.553-.544,9.321-1.258a13,13,0,0,1,1.871-1.056c.816,0,2.892,1.735,2.892,2.586,0,.306-1.26,1.224-1.463,1.463-.68.815-3.369,4.8-3.913,5.579a1.113,1.113,0,0,0-.272.68c0,.306.067.373,1.5,1.156,1.532.885,7.622,4.321,7.622,7.417a1.472,1.472,0,0,1-1.4,1.5c-.783,0-.919-.24-2.109-2.348-2.348-4.116-5.341-6.7-6.09-6.7-.339,0-.442.1-1.191.952a34.176,34.176,0,0,1-9.083,7.281,8.363,8.363,0,0,1-2.109.783c-.067,0-.237,0-.237-.2a10.525,10.525,0,0,1,1.564-1.258c8.88-6.429,12.927-15.24,12.826-15.784a.383.383,0,0,0-.408-.274" transform="translate(3048.721 6813.281)" fill="#fff"/>
    <path id="パス_38594" data-name="パス 38594" d="M56.231,43.784c-1.189,0-1.189.237-1.189,2.177,0,.68.237.85,1.631,1.36.853.339,2.756,1.055,2.756,2.858,0,.136-.032,1.394-.883,1.394-.579,0-.749-.376-1.463-1.77-.341-.645-1.224-2.244-1.7-2.244-.136,0-.339.136-.339.781,0,1.122.032,6.09.032,7.111-.032,1.191.1,6.429.1,7.484a1.5,1.5,0,0,1-1.567,1.6.656.656,0,0,1-.747-.714c0-.306.067-2.722.1-3.1.034-.818.136-8.574.136-9.595,0-.069,0-.442-.1-.442s-3.606,6.973-4.625,6.973a.073.073,0,0,1-.069-.067c0-.067,1.055-2.346,1.258-2.79a51.632,51.632,0,0,0,3.2-10.206c0-.815-.749-.815-1.053-.815s-1.7.032-2.348.067a3.885,3.885,0,0,1-.613.1c-.1,0-.17-.1-.237-.237l-.546-.784c-.1-.136-.136-.168-.136-.2a.089.089,0,0,1,.1-.1c.544,0,3.673.237,4.389.237.919,0,.919,0,.919-5.611,0-.512-.238-2.894-.238-3.063,0-.069.034-.136.1-.136a20.791,20.791,0,0,1,2.177.647c.68.17.919.272.919.613,0,.237-.1.306-.442.578s-.408.442-.408,1.055c0,.578-.238,4.864-.238,5.272,0,.2.034.647.714.647a1.008,1.008,0,0,0,.885-.578c.341-.647.442-.85.714-.85a8.321,8.321,0,0,1,2.553,1.938c0,.41-.714.41-1.5.41Zm15,5.374c-.373,0-.85,0-.85.475,0,.613,2.244,6.023,8.028,9.457.511.306,1.293.749,1.293.919s-.238.171-.341.171a4.443,4.443,0,0,0-1.735.373,7.9,7.9,0,0,1-1.53.919c-.306,0-3.5-3.776-5.342-8.607-.1-.237-.475-1.394-.578-1.632,0-.035-.067-.136-.136-.136-.136,0-.136.2-.136.375,0,1.837.069,9.968.069,11.634,0,.546-.069.851-.341,1.055a2.53,2.53,0,0,1-1.394.442c-.511,0-.714-.237-.714-.714,0-1.191.237-3.129.272-4.32.034-1.668.134-7.042.134-7.109,0-.512-.034-.648-.2-.648-.136,0-.2.069-.475.512-1.94,3.129-4.083,6.428-8.063,8.878a5.649,5.649,0,0,1-1.226.579c-.067,0-.2-.035-.2-.136a7.29,7.29,0,0,1,1.157-1.226A28.373,28.373,0,0,0,66.2,49.873c0-.714-.543-.714-1.292-.714-.818,0-2.62.034-3.4.1-.1,0-.613.067-.714.067-.136,0-.2-.067-.307-.2l-.645-.784c-.136-.17-.171-.17-.171-.237s.067-.069.136-.069c.238,0,1.293.1,1.5.1.272,0,2.721.136,4.32.136h1.053c.954,0,1.192-.2,1.192-1.124,0-.816,0-4.184-.1-4.728-.069-.477-.237-.714-.986-.714H63.716c-.715,0-.784.067-1.226.85C61.5,44.258,59.8,46.2,59.5,46.2c-.034,0-.1,0-.1-.1,0-.069.951-2.212,1.122-2.62a29.66,29.66,0,0,0,1.94-6.906c.067-.715.1-.783.339-.783.1,0,3.267.919,3.267,1.4,0,.237-.24.306-.851.511-.341.1-.375.237-.851,1.325-.2.511-.611,1.463-.611,1.5,0,.272.272.306.443.306h2.618c.306,0,.988,0,.988-.919,0-.408-.035-2.449-.069-2.721-.035-.511-.339-2.892-.339-3.2a.146.146,0,0,1,.136-.136c.1,0,3.163.679,3.163,1.055,0,.17-.544.714-.578.85a36.785,36.785,0,0,0-.2,4.014c0,.885.341,1.055,1.122,1.055h.818c.781,0,1.021-.034,1.258-.237.272-.24,1.327-1.6,1.668-1.6A9.819,9.819,0,0,1,77.6,41.231c0,.477-.68.477-1.8.477H71c-.477,0-.784.067-.988.442a43.951,43.951,0,0,0-.138,4.456c0,1.258,0,1.668,1.125,1.668h1.495c1.4,0,1.567,0,1.8-.238.272-.238,1.226-1.53,1.53-1.53.24,0,2.995,1.735,2.995,2.177,0,.477-.714.477-1.8.477Z" transform="translate(2972.72 6831.962)" fill="#fff"/>
    <path id="パス_38595" data-name="パス 38595" d="M88,41.243c.578,0,.714-.1.714-.407,0-.272-.544-3.878-.645-4.424-.069-.375-.477-2.109-.477-2.482,0-.1.136-.1.237-.1a14.772,14.772,0,0,1,2.383.375c.883.168,1.327.306,1.327.747,0,.2-.035.238-.341.579-.375.373-.375.544-.375,2.108.034,3.606.307,3.606,1.157,3.606h3.947c1.564,0,1.735,0,2.177-.578,1.053-1.428,1.157-1.564,1.5-1.564.511,0,3.267,1.972,3.267,2.55,0,.512-.613.512-1.8.512H92.043c-.578,0-.781.067-.781.543a45.1,45.1,0,0,0,1.359,6.023c2.111,6.565,5.818,10.851,6.839,10.851.477,0,1.055-.986,1.5-1.8.171-.306.816-1.8.987-1.8.1,0,.1.168.1.237,0,.1-.442,3.776-.442,4.491a2.531,2.531,0,0,0,.375,1.394,1.863,1.863,0,0,1,.339.952.772.772,0,0,1-.883.851c-2.995,0-10.1-7.247-12.282-20.275-.2-1.26-.272-1.463-1.122-1.463H78.843c-.781,0-3.1,0-4.286.067a5.728,5.728,0,0,1-.749.1c-.1,0-.17-.1-.272-.238l-.68-.783c-.136-.136-.136-.17-.136-.2,0-.067.034-.1.136-.1.238,0,1.293.1,1.5.136,1.565.067,3.062.1,4.661.1ZM83.4,50.191c-.24,0-.818.034-.954.579-.067.338-.2,3.912-.2,5.986s0,2.417.578,2.417c.511,0,8.2-1.735,8.267-1.735.035,0,.171,0,.171.1,0,.341-4.865,2.348-9.12,3.707-4.965,1.567-5.815,1.839-6.224,2.111-.2.1-.917.952-1.122.952-.375,0-1.328-3.572-1.328-3.673,0-.138.1-.171,1.157-.274a42.85,42.85,0,0,0,4.7-.68.682.682,0,0,0,.306-.477c.035-.272.067-4.456.067-4.864,0-.272-.032-3.164-.032-3.3-.035-.816-.648-.816-.989-.816a26.413,26.413,0,0,0-3.094.1c-.069,0-.408.067-.477.067-.136,0-.2-.1-.306-.237l-.647-.784c-.136-.134-.17-.17-.17-.237,0-.034.067-.069.136-.069.237,0,1.292.1,1.495.136,1.567.069,3.1.1,4.661.1H82.96a5.406,5.406,0,0,0,1.634-.1c.373-.17,1.394-1.8,1.735-1.8a5.927,5.927,0,0,1,2.482,2.348c0,.442-.68.442-1.837.442ZM93.574,34.2c.475,0,5.17,1.157,5.17,3.129a1.256,1.256,0,0,1-1.394,1.394c-.375,0-.442-.1-1.156-1.122a17,17,0,0,0-2.62-3.028c-.1-.067-.238-.2-.2-.272,0-.067.136-.1.2-.1" transform="translate(2987.668 6831.949)" fill="#fff"/>
    <path id="パス_38596" data-name="パス 38596" d="M96.7,48.933c0-.136.1-.2.511-.477.237-.17,3.027-2.143,5.238-4.014,5.818-4.966,7.961-9.014,8.131-9.763.272-1.055.272-1.191.68-1.191.035,0,3.2,1.5,3.2,2.074,0,.171-.067.2-.408.443-.2.1-.237.2-.237.339,0,1.055,6.019,8.607,14.084,10.887.951.27.951.27.951.442,0,.2-.1.238-.951.511a3.991,3.991,0,0,0-2.178,1.394c-.136.238-.238.341-.442.341-.749,0-7.994-5-11.84-12.009-.373-.715-.442-.816-.578-.816s-.68.679-.952,1.02C105.883,45.666,98.228,48.8,97,49.034c-.1.035-.306.067-.306-.1m9.355,4.659c-2.518,0-3.367.035-4.286.1-.1,0-.611.067-.714.067-.138,0-.17-.067-.306-.2l-.648-.784a1.826,1.826,0,0,1-.17-.237c0-.069.069-.069.136-.069.238,0,1.293.1,1.5.1,1.668.069,3.47.138,4.662.138H117.45c1.429,0,1.8,0,2.62-1.124.509-.714.645-.917.952-.917.272,0,.373.067,1.156.714,1.735,1.429,1.735,1.463,1.735,1.77,0,.44-.17.44-1.769.44h-10.41c-.341,0-.477,0-.477.1,0,0,1.6,1.359,1.6,1.735,0,.306,0,.306-1.021.578-.272.1-.339.2-1.191,1.327-.714.952-2.108,2.62-2.313,2.823-.136.17-.475.511-.475.816s.475.339.611.339c.442,0,3.64-.2,7.417-.578,2.449-.237,2.722-.272,2.722-.613,0-.509-2.009-2.244-2.009-2.652,0-.17.138-.2.238-.2a31.663,31.663,0,0,1,4.321,2.109c.919.544,3.027,1.769,3.027,3.913,0,1.087-.68,1.836-1.327,1.836-.986,0-1.7-1.258-2.313-2.382-.647-1.157-.952-1.258-1.429-1.258a148.52,148.52,0,0,0-15.784,3.131,7.383,7.383,0,0,1-.986.544.387.387,0,0,1-.341-.24,26.737,26.737,0,0,1-1.871-3.606c0-.237.17-.237.272-.237.237,0,1.292.2,1.5.237a17.836,17.836,0,0,0,2.007.136c1.906,0,2.143,0,3.539-2.788a23.758,23.758,0,0,0,1.769-4.493c0-.578-.443-.578-1.021-.578Zm7.076-6.327c1.668,0,1.735-.067,2.417-.885.544-.645.951-1.156,1.122-1.156a9.225,9.225,0,0,1,2.585,2.551c0,.375-.17.375-1.8.375h-7.825c-2.074,0-3.062,0-4.321.1-.1,0-.611.069-.714.069s-.17-.069-.306-.2l-.647-.781c-.136-.136-.136-.17-.136-.238,0-.035.034-.067.1-.067.237,0,1.292.1,1.5.1,1.666.1,3.3.136,4.661.136Z" transform="translate(3002.067 6831.745)" fill="#fff"/>
    <path id="パス_38597" data-name="パス 38597" d="M121.573,41.8c-.136-.168-.171-.2-.171-.237,0-.067.1-.067.136-.067.648,0,3.777.2,4.493.2.952,0,.952-.238.952-2.519,0-.509-.035-2.516-.136-3.808,0-.171-.171-.954-.171-1.157,0-.069.1-.069.136-.069a26.16,26.16,0,0,1,3.062.919c.171.1.375.238.375.477,0,.136-.611.645-.68.781-.171.307-.171.477-.171,1.906v2.857c0,.477.2.546.546.546a1.209,1.209,0,0,0,.816-.24c.238-.136,1.226-1.156,1.53-1.156a.641.641,0,0,1,.477.238c.408.408,1.122,1.258,1.226,1.325.747.714.815.783.815.988a.515.515,0,0,1-.373.443c-.1.032-.578.136-.682.168a39.423,39.423,0,0,0-3.163,3.4c-.988,1.021-1.088,1.122-1.088,1.735,0,.714.3.783,1.122.952,1.157.274,4.355,1.191,4.355,3.776,0,1.055-.579,1.567-1.191,1.567-.816,0-1.191-.682-2.076-2.484-.2-.375-1.325-2.109-1.973-2.109-.306,0-.306.477-.306.883,0,1.293.034,7.588.034,8.982,0,.442.171,2.551.171,3.027a1.624,1.624,0,0,1-1.8,1.567c-.816,0-1.021-.341-1.021-.818,0-.339.136-1.9.136-2.279.069-2.518.2-6.055.2-10.07,0-.373,0-.951-.341-.951s-4.761,3.843-5.647,3.843c-.069,0-.17,0-.17-.1a34.629,34.629,0,0,1,2.959-3.027c1.36-1.394,6.157-7.348,6.157-8.335,0-.306-.238-.339-.544-.339h-2.38c-1.327,0-2.756.034-3.947.1-.1,0-.613.069-.714.069-.136,0-.2-.069-.307-.2ZM132.7,62.621c-.136-.17-.136-.17-.136-.2a.108.108,0,0,1,.1-.1c.2,0,1.258.136,1.495.136.988.034,2.758.1,4.661.1h1.327c.307,0,.92,0,.988-.747.067-.613.136-13.71.136-15.48,0-.339,0-1.055-.816-1.055-.851,0-2.823,0-4.014.1-.1,0-.578.067-.714.067-.1,0-.171-.067-.307-.2l-.647-.784c-.136-.17-.136-.17-.136-.237s.069-.069.1-.069,1.26.1,1.429.1c.339,0,3.1.136,4.251.136.818,0,.885-.442.885-1.4,0-3.129-.067-4.661-.237-7.212,0-.27-.2-1.463-.2-1.733,0-.171.069-.24.272-.24.1,0,2.21.647,2.45.715.3.1,1.02.272,1.02.851,0,.17-.68.747-.747.917-.2.477-.307,6.123-.307,7.042,0,.408,0,1.055.816,1.055,1.6,0,1.77,0,2.484-.952.986-1.327,1.088-1.463,1.394-1.463.477,0,2.858,2.21,2.858,2.858,0,.44-.714.44-1.8.44H144.57c-.919,0-.986.512-.986,1.124,0,2.042.1,12.009.1,14.288,0,1.26,0,1.871.885,1.871h1.258a2.111,2.111,0,0,0,2.007-1.021c.919-1.189,1.021-1.325,1.429-1.325.306,0,3.3,2.21,3.3,2.788,0,.477-.714.477-1.837.477H138.652c-.818,0-3.1-.034-4.288.069-.1,0-.613.1-.714.1s-.171-.069-.307-.238Z" transform="translate(3016.657 6831.936)" fill="#fff"/>
    <path id="パス_38598" data-name="パス 38598" d="M76.667,88.377c-.232,0-.373,0-.463.267-.019.088-.232,1.173-.232,1.282a.407.407,0,0,0,.179.354c.07.056.783.482.943.589,2.529,1.657,3.259,3.649,3.259,4.344,0,.355-.142.909-.677.909-.6,0-.872-.642-1.015-1a19.772,19.772,0,0,0-1.194-2.566c-.176-.3-1.335-1.815-1.62-1.815a.316.316,0,0,0-.267.2c-.053.088-.248.6-.3.712-1.317,2.83-3.916,4.806-4.611,4.806-.035,0-.142,0-.142-.09s.125-.178.427-.426A11.826,11.826,0,0,0,74.8,88.768c0-.391-.25-.391-.445-.391H70.7c-.515,0-.515.32-.515.533V94.7c0,.677.07,4.059.07,4.808a.648.648,0,0,1-.23.587,2.393,2.393,0,0,1-.89.338c-.357,0-.357-.535-.357-.64,0-.142.037-.819.037-.978.07-1.693.07-2.866.07-4.773,0-5.234,0-5.251-.07-6.391,0-.072-.072-.429-.072-.517s.035-.142.106-.142a8.1,8.1,0,0,1,1.016.535c.568.338.623.373,1,.373h3.561c.5,0,.568,0,.568-1.727,0-.533,0-.943-.018-1.175,0-.088-.072-.517-.072-.623,0-.035.072-.035.162-.035.2,0,1.834.213,1.834.551,0,.125-.394.552-.41.677-.037.427-.179,1.639-.179,1.977,0,.32.267.355.41.355H80.6c.429,0,.552-.158.6-.23.339-.463.482-.677.642-.677.25,0,1.442,1,1.442,1.407,0,.125-.037.16-.338.551-.25.322-.286.909-.286,2.209,0,.979.162,5.715.162,6.8a2.8,2.8,0,0,1-.3,1.586,3,3,0,0,1-1.8.888c-.106,0-.142-.125-.178-.283a1.787,1.787,0,0,0-1.335-1.335c-.7-.267-.767-.286-.767-.394a.146.146,0,0,1,.16-.125c.054,0,.765.125.907.142.232.037,1.159.109,1.264.109.285,0,.571-.054.624-.41.018-.054.018-2.708.018-3.081,0-2.652-.018-2.956-.09-5.679-.018-.874-.018-1-.515-1Z" transform="translate(2985.281 6862.279)" fill="#fff"/>
    <path id="パス_38599" data-name="パス 38599" d="M91.346,93.6c-.16,0-.322,0-.322.2a5.141,5.141,0,0,0,2,2.494c.32,0,1.122-1.264,1.228-1.745.018-.072.037-.178.107-.178a11.079,11.079,0,0,1,1.032.587c.41.232.658.373.658.515,0,.16-.07.179-.693.3-.107.034-1.781.586-1.781.906,0,.2.339.376.6.535a9.256,9.256,0,0,0,3.651,1.176c.3.053.375.053.375.16,0,.088-.125.123-.267.176a1.256,1.256,0,0,0-.445.251c-.2.142-1,.944-1.21.944a13.081,13.081,0,0,1-3.206-2.031.337.337,0,0,0-.267-.142.629.629,0,0,0-.232.053A33.265,33.265,0,0,1,89.3,98.854c-2.722.783-3.63,1.05-3.862,1.3s-.267.285-.392.285c-.158,0-.267-.107-.623-.819a5.3,5.3,0,0,1-.445-.907c0-.053.035-.125.16-.125.072,0,.285.035.392.053.142.019.515.019.568.019a4.165,4.165,0,0,0,1.514-.2,4.779,4.779,0,0,0,.107-1.317c0-.375,0-.517-.23-.517a31.181,31.181,0,0,1-3.633,1.426c-.018,0-.125,0-.125-.056,0-.034.072-.106.25-.2s1.5-.925,2.242-1.388c.464-.286,2.956-2.137,2.956-2.6,0-.214-.16-.214-.3-.214H85.418c-.427,0-1.62,0-2.244.054-.053,0-.32.035-.373.035s-.09-.035-.162-.106l-.338-.41c-.072-.09-.072-.09-.072-.125s.037-.037.056-.037c.106,0,.658.053.783.053.515.037,1.44.072,2.438.072h3.526c.48,0,.5-.267.5-.517a4.532,4.532,0,0,0-.054-.675c-.018-.088-.123-.5-.123-.587,0-.107.088-.125.158-.125.125,0,1.711.23,1.711.482,0,.07-.322.283-.376.338-.07.07-.07.106-.07.426,0,.375,0,.659.552.659h3.4c.533,0,.819,0,1.173-.48.464-.623.5-.659.659-.659.2,0,.285.07,1.229.819.463.375.515.41.515.533,0,.25-.355.25-.96.25Zm-8.207-3.684c.57,0,1.1-.25,2.457-1.319.053-.035.339-.3.357-.3.035,0,.07.054.07.09a9.853,9.853,0,0,1-.837,1.477,12.02,12.02,0,0,0-.8,1.335c-.144.375-.162.41-.286.41-.3,0-1.173-1.44-1.173-1.565s.123-.125.213-.125M84.9,88.1c-.445,0-.57-.338-.979-1.317a5.047,5.047,0,0,0-.552-.909,2.336,2.336,0,0,1-.283-.354c0-.072.106-.072.125-.072.6,0,2.314.925,2.314,2.01a.61.61,0,0,1-.624.642m2.511,3.081c0,.6,0,1.3-.819,1.3-.48,0-.535-.41-.535-.621,0-.179.107-1,.125-1.159.053-.677.072-2.831.072-3.614,0-.41,0-1.941-.054-2.172-.018-.07-.178-.357-.178-.41,0-.09.09-.107.142-.107.123,0,1.6.375,1.6.642,0,.072-.283.355-.32.426a26.465,26.465,0,0,0-.09,2.761c0,.392.054,2.494.054,2.956m5.074,6.373c.072-.019.141-.035.141-.107,0-.037-.034-.09-.106-.16a10.839,10.839,0,0,1-1.764-3.044c-.2-.587-.211-.642-.354-.642a.854.854,0,0,0-.429.232A15.983,15.983,0,0,1,88.552,95.1c-.677.515-.747.568-.747.907,0,2.225,0,2.3.48,2.3.5,0,3.526-.642,4.2-.747m2.172-10.4c.835,0,.944,0,1.157-.339.375-.6.375-.624.535-.624a4.809,4.809,0,0,1,1.584,1.2c0,.248-.357.248-.962.248H93.68c-.554,0-.554.267-.554.712,0,.232,0,1.549.035,1.639.054.2.232.266.463.266H94.3c.839,0,.927,0,1.14-.338.285-.427.357-.552.517-.552.232,0,1.175,1.015,1.175,1.157,0,.213-.09.213-.943.213H91.934c-1.567,0-2.082.037-2.26.037a2.726,2.726,0,0,1-.376.053c-.053,0-.088-.053-.158-.125l-.339-.41c-.07-.07-.07-.09-.07-.106,0-.037.018-.054.053-.054.107,0,.552.054.659.054.5.035,1.514.07,2.012.07.2,0,.443-.035.5-.338.034-.179.034-1.549.034-1.817,0-.463-.106-.463-1.085-.463-.784,0-1.585.018-1.924.035a2.716,2.716,0,0,1-.373.053c-.053,0-.09-.053-.16-.125l-.339-.41c-.035-.053-.07-.088-.07-.106,0-.053.035-.053.054-.053.106,0,.551.053.64.053.106,0,1.584.072,2.242.072.819,0,1.015,0,1.015-.517a5.183,5.183,0,0,0-.07-1.388c-.019-.109-.25-.624-.25-.73a.176.176,0,0,1,.178-.142c.072,0,.5.088,1.159.248.248.053.48.106.48.3a4.018,4.018,0,0,1-.3.445.581.581,0,0,0-.072.375c0,1.3,0,1.407.571,1.407Z" transform="translate(2993.378 6862.306)" fill="#fff"/>
    <path id="パス_38600" data-name="パス 38600" d="M99.963,88.19c-.069,0-.125,0-.125.054,0,.035.179.141.286.2.125.072.285.16.285.267,0,.088-.285.355-.3.427-.035.2-.125,1.46-.125,1.567,0,.2.054.463.5.463h.623a.589.589,0,0,0,.571-.25c.123-.142.338-.408.408-.408.126,0,1.213.818,1.213,1.05,0,.106-.253.338-.394.443-.107.09-.142.2-.16.659a19.617,19.617,0,0,1-.909,5.893,3.478,3.478,0,0,1-1.085,1.6,1.828,1.828,0,0,1-.839.357c-.088,0-.088-.07-.122-.285a2.148,2.148,0,0,0-.907-1.372c-.021-.018-.179-.125-.179-.16a.078.078,0,0,1,.069-.053c.021,0,.891.213,1.052.213.535,0,.907-.018,1.319-1.957a35.85,35.85,0,0,0,.517-4.789c0-.232-.072-.463-.517-.463h-.749c-.5,0-.514.2-.587.711-.712,5.538-3.06,7.46-3.366,7.46a.055.055,0,0,1-.051-.053c0-.019.781-1.3.89-1.514,1.514-3.2,1.583-7.78,1.583-8.51,0-1.442,0-1.549-.5-1.549-.211,0-1.3.09-1.476.09-.072,0-.107-.053-.16-.125l-.338-.41c-.074-.072-.09-.09-.09-.106,0-.037.035-.054.07-.054.338,0,1.869.107,2.173.107.355,0,.551-.053.551-.482a13.666,13.666,0,0,0-.123-2.1c-.019-.107-.232-.623-.232-.659,0-.072.054-.072.088-.072.018,0,2.012.41,2.012.695,0,.107-.392.464-.445.554a4.259,4.259,0,0,0-.141,1.405c0,.355,0,.677.479.677.463,0,.517,0,.624-.09.142-.123.535-1,.712-1,.214,0,1.372.944,1.372,1.264,0,.3-.214.3-.41.3Zm5.182-.107c-.515,0-.589.09-1.247.963-.178.248-.818,1.084-.962,1.084-.018,0-.053,0-.053-.034,0-.054.338-.659.392-.784a16.9,16.9,0,0,0,1.458-4.558c0-.07-.035-.355-.035-.41a.126.126,0,0,1,.125-.142,12.321,12.321,0,0,1,1.512.784c.125.054.232.107.232.25,0,.106-.035.125-.322.338a7.509,7.509,0,0,0-1.172,1.869c0,.16.194.16.338.16h3.864c.675,0,.711-.035.8-.125.123-.16.568-.944.747-.944.106,0,1.637,1.106,1.637,1.354,0,.2-.515.2-1.175.2Zm1.583,4.4a.578.578,0,0,0,.5-.427c.035-.142.035-1.762.035-2.066a2.711,2.711,0,0,0-.09-.872c-.018-.069-.229-.336-.229-.408,0-.054.051-.107.158-.107s1.512.213,1.512.48c0,.072-.248.286-.267.357a12.764,12.764,0,0,0-.069,1.674c0,.373,0,.8.389.8a.627.627,0,0,0,.25-.054l.463-.142a.985.985,0,0,0,.73-.533c.306-.48.322-.535.463-.535.162,0,1.14.517,1.14.767a1.735,1.735,0,0,1-.338.586c-.106.162-.051,2.566-.088,3.046-.179,2.029-1.372,2.137-1.405,2.137-.054,0-.07-.037-.179-.285a2.091,2.091,0,0,0-.677-.819c-.054-.053-.461-.2-.461-.267s.034-.072.6-.072c.962,0,.962-.3.962-2.012,0-1.46,0-1.583-.392-1.583a.55.55,0,0,0-.267.053l-.642.179c-.264.07-.533.141-.533.711s.088,3.364.088,3.632a.9.9,0,0,1-.853.927.267.267,0,0,1-.248-.142c-.019-.053-.019-.73-.019-1.12s0-2.993-.035-3.171c-.018-.106-.106-.285-.283-.285a.577.577,0,0,0-.234.054l-.607.178c-.463.142-.463.373-.479.944,0,.551.016,3.2.016,3.809,0,1.175.411,1.175,2.1,1.175a12.952,12.952,0,0,0,2.866-.232c.371-.088.445-.2.712-.693.16-.286.765-1.906.819-1.906.07,0,.07.142.07.179,0,.088-.038.533-.038.64a2.085,2.085,0,0,0,.235,1.1,3.7,3.7,0,0,1,.248.515,1.768,1.768,0,0,1-.659.927c-.642.443-1.655.533-4.344.533-1.869,0-2.866-.106-2.991-1.477-.019-.16-.034-3.009-.034-4.344,0-.445,0-.64-.253-.64a8.416,8.416,0,0,0-.8.285c-.034,0-.051,0-.141-.072l-.445-.3c-.107-.054-.107-.072-.107-.088,0-.037,1.1-.267,1.316-.339.431-.142.431-.285.431-1.549a4.865,4.865,0,0,0-.2-1.567,4.384,4.384,0,0,1-.144-.463.141.141,0,0,1,.144-.125c.016,0,1.62.463,1.62.658,0,.09-.358.429-.394.517s-.034,1.1-.034,1.282c0,.463.034.767.322.767a.844.844,0,0,0,.229-.054Z" transform="translate(3001.825 6862.198)" fill="#fff"/>
    <path id="パス_38601" data-name="パス 38601" d="M114.668,86.218c-1.354,0-1.959.018-2.137.034-.053,0-.41.054-.463.054-.072,0-.125-.054-.178-.123l-.339-.394c-.035-.053-.09-.106-.09-.125s.037-.053.072-.053c.125,0,.677.072.783.072.872.053,1.6.053,2.441.053h7.335c.746,0,.835,0,.978-.125.162-.142.749-1.031.962-1.031.178,0,.675.515.925.763.445.464.5.517.5.624,0,.25-.088.25-.783.25h-5c-.515,0-.515.266-.515.675V97.5c0,.765,0,.944.515.944h3.276c.64,0,.712,0,.927-.214.16-.16.747-1.015.943-1.015.25,0,1.549,1.122,1.549,1.407s-.355.285-.855.285H113.831c-1.052,0-1.834.016-2.244.053-.07,0-.3.035-.355.035a.222.222,0,0,1-.179-.106l-.354-.41c-.037-.053-.072-.09-.072-.125s.016-.037.072-.037c.123,0,.658.054.783.054.872.035,1.8.072,2.438.072h3.366c.515,0,.535-.232.535-.695V86.913c0-.571-.107-.695-.535-.695Z" transform="translate(3010.431 6862.426)" fill="#fff"/>
    <path id="パス_38602" data-name="パス 38602" d="M79.34,104.4c-1.354,0-1.959.018-2.137.034-.053,0-.41.054-.463.054-.072,0-.125-.054-.178-.123l-.339-.394c-.035-.053-.09-.106-.09-.125s.037-.053.072-.053c.125,0,.677.072.783.072.872.053,1.6.053,2.441.053h7.335c.746,0,.835,0,.978-.125.162-.142.749-1.031.962-1.031.178,0,.675.515.925.763.445.464.5.517.5.624,0,.25-.088.25-.783.25h-5c-.515,0-.515.266-.515.675v10.611c0,.765,0,.944.515.944h3.276c.64,0,.712,0,.927-.214.16-.16.747-1.015.943-1.015.25,0,1.549,1.122,1.549,1.407s-.355.285-.855.285H78.5c-1.052,0-1.834.016-2.244.053-.07,0-.3.035-.355.035a.221.221,0,0,1-.179-.106l-.354-.41c-.037-.053-.072-.09-.072-.125s.016-.037.072-.037c.123,0,.658.054.783.054.872.035,1.8.072,2.438.072h3.366c.515,0,.535-.232.535-.695V105.1c0-.571-.107-.695-.535-.695Z" transform="translate(2989.217 6873.346)" fill="#fff"/>
    <path id="パス_38603" data-name="パス 38603" d="M92.919,105.307c-1.351,0-1.9.035-2.242.053-.072,0-.32.037-.375.037-.07,0-.107-.037-.16-.107l-.355-.41c-.054-.09-.072-.09-.072-.125s.018-.035.072-.035c.123,0,.658.053.783.053.872.037,1.6.07,2.439.07H96.48c.375,0,.375-.32.375-.515,0-.267-.16-1.407-.16-1.62,0-.2.088-.232.16-.232.178,0,1.673.41,1.673.784,0,.123-.373.568-.41.675a2.383,2.383,0,0,0-.053.5.355.355,0,0,0,.392.41h3.151c.8,0,.872,0,1.14-.3.5-.587.552-.659.712-.659.107,0,1.673.943,1.673,1.175,0,.25-.357.25-.96.25H98.456c-.427,0-.427.107-.445,1.085,0,.178.018.445.392.445h2.225a.572.572,0,0,0,.552-.248c.285-.3.391-.429.552-.429.123,0,1.12.661,1.12.891,0,.125-.088.2-.32.41a.351.351,0,0,0-.16.338v1.692a.72.72,0,0,1-.765.64c-.463,0-.5-.142-.6-.515a.317.317,0,0,0-.339-.232H98.384c-.391,0-.391.267-.391.747,0,.445,0,.7.391.7h2.636a.877.877,0,0,0,.747-.251c.213-.214.338-.338.535-.338.16,0,1.138.658,1.138.89,0,.09-.016.125-.336.482-.109.106-.109.178-.109.8,0,.107,0,.267.2.267a.637.637,0,0,0,.391-.232c.375-.5.41-.568.552-.568.178,0,1.37.763,1.37,1.1,0,.214-.32.214-.783.214h-1.351c-.376,0-.376.3-.376.533,0,.286.054,1.567.054,1.764a.854.854,0,0,1-.927.907c-.426,0-.445-.2-.515-.767-.037-.338-.178-.408-.392-.408H98.456c-.427,0-.427.25-.427.587,0,.2.035,1.068.035,1.245a1.269,1.269,0,0,1-.835,1.407,4.213,4.213,0,0,1-.891.214c-.123,0-.142-.053-.232-.25-.125-.285-.391-.695-1.476-1.052-.2-.053-.571-.178-.571-.338,0-.088.2-.088.232-.088.23,0,1.28.142,1.495.142.981,0,.981-.054.981-1.444a.366.366,0,0,0-.41-.426H94.45c-1.264,0-2.082.035-2.242.053-.072,0-.339.035-.392.035s-.09-.035-.142-.106l-.357-.41c-.07-.09-.07-.09-.07-.125,0-.018.018-.037.054-.037.123,0,.675.054.8.054.871.035,1.6.072,2.439.072h1.817c.426,0,.426-.2.426-1.015,0-.267,0-.552-.373-.552H92.456c-1.549,0-2.065.018-2.242.034-.053,0-.3.056-.357.056-.07,0-.125-.056-.178-.125l-.338-.41c-.072-.072-.09-.09-.09-.109s.037-.053.07-.053c.125,0,.677.072.784.072.872.035,1.6.053,2.439.053h3.864c.391,0,.391-.23.391-.73,0-.392,0-.677-.373-.677H93.969c-1.565,0-2.081.019-2.242.037-.07,0-.32.053-.373.053-.072,0-.107-.035-.162-.106l-.355-.429c-.054-.07-.07-.09-.07-.106,0-.037.016-.054.07-.054.125,0,.659.07.784.07.872.056,1.6.056,2.438.056h2.369c.392,0,.392-.2.392-.962,0-.2,0-.482-.375-.482H94.1c-.338,0-.357.072-.427.338a.8.8,0,0,1-.819.554c-.41,0-.463-.234-.463-.464,0-.25.053-1.372.053-1.6,0-.053,0-1.21-.035-1.567a4.364,4.364,0,0,1-.09-.463c0-.088.018-.16.125-.16a7.842,7.842,0,0,1,1.389.712,1.819,1.819,0,0,0,.712.106h1.922c.392,0,.392-.088.392-1.032,0-.2,0-.5-.355-.5Zm3.508,3.614c.392,0,.392-.267.392-.819,0-.515,0-.783-.392-.783h-2.35c-.429,0-.429.178-.429.8s0,.8.447.8Zm1.977-1.6c-.41,0-.41.3-.41.64,0,.747,0,.962.41.962h2.279c.426,0,.426-.214.426-.944,0-.373,0-.658-.392-.658Zm2.919,5.394c.355,0,.427-.214.427-.835,0-.267,0-.571-.392-.571H98.384c-.391,0-.391.3-.391.571,0,.621,0,.835.391.835Zm-2.919.482c-.392,0-.392.285-.392.5,0,.96,0,1.068.426,1.068h2.8c.408,0,.479-.142.479-.981,0-.3,0-.586-.391-.586Z" transform="translate(2997.595 6873.171)" fill="#fff"/>
    <path id="パス_38604" data-name="パス 38604" d="M113.382,113.819c-.251,0-.447,0-.447.179,0,.158.07.2.642.621a12.847,12.847,0,0,0,6.034,2.351c.429.053.482.053.482.162s-.09.123-.373.2a1.7,1.7,0,0,0-.962.888c-.054.125-.178.339-.232.339a5.029,5.029,0,0,1-.872-.3,11.526,11.526,0,0,1-4.9-3.561c-.41-.5-.429-.535-.515-.535-.144,0-.162.162-.162.214,0,.072.018.6.018.712,0,.338.019,1.977.019,2.35,0,.64,0,.783-.179.979a1.114,1.114,0,0,1-.8.355c-.211,0-.391-.053-.391-.443,0-.037.09-1.372.107-1.639.016-.463.016-1.032.016-1.495,0-.072,0-.232-.141-.232a1.933,1.933,0,0,0-.427.267,17.737,17.737,0,0,1-6.837,3.276c-.035,0-.125-.019-.125-.09,0-.054.357-.213.375-.23,3.063-1.354,5.875-3.828,5.875-4.184,0-.179-.179-.179-.3-.179h-2.351c-.587,0-1.69,0-2.153.037-.054,0-.41.053-.482.053-.053,0-.09-.037-.16-.125l-.339-.41c-.07-.09-.07-.09-.07-.106a.058.058,0,0,1,.054-.054c.125,0,.658.07.783.07.517.019,1.709.053,2.457.053h3.491c.373,0,.373-.158.373-1,0-.2-.019-.408-.445-.408h-1.282c-.658,0-1.745,0-2.137.035-.053,0-.427.053-.48.053-.072,0-.088-.034-.16-.106l-.357-.427c-.07-.088-.07-.088-.07-.107,0-.035.035-.053.07-.053.107,0,.659.072.783.072.5.016,1.639.053,2.441.053h1.122c.515,0,.515-.214.515-.872,0-.375,0-.749-.463-.749H108.27c-.426,0-1.636,0-2.26.054-.053,0-.32.035-.373.035s-.09-.035-.162-.123l-.338-.41c-.072-.09-.072-.09-.072-.109a.058.058,0,0,1,.054-.053c.107,0,.659.072.783.072.517.018,1.442.053,2.439.053H109c.09,0,.2,0,.2-.142a7.52,7.52,0,0,0-.73-1.815c-.355-.589-.587-.624-.927-.624H107.1c-.712,0-1.9.019-2.244.053-.07,0-.322.037-.392.037-.053,0-.088-.037-.141-.107l-.357-.41c-.072-.088-.072-.088-.072-.125s.035-.035.054-.035c.123,0,.658.053.783.053.517.019,1.442.072,2.458.072.266,0,.373,0,.373-.214a4.673,4.673,0,0,0-.712-1.44c-.107-.125-.73-.73-.73-.73,0-.053.072-.125.178-.125.445,0,2.367.515,2.367,1.673a.907.907,0,0,1-.125.445c-.088.144-.088.178-.088.25,0,.142.142.142.2.142h.533c.392,0,.392-.32.392-.482,0-.32-.018-1.583-.037-2.065-.016-.158-.125-.907-.125-1.087,0-.211.072-.211.179-.211.035,0,1.477.106,1.477.5a.644.644,0,0,1-.178.285c-.125.142-.16.285-.16.677,0,2.385.035,2.385.533,2.385h.642c.515,0,.515-.142.515-1.532,0-.48-.034-1.372-.053-1.692a2.971,2.971,0,0,1-.053-.391c0-.142.053-.25.178-.25a7.347,7.347,0,0,1,1.229.32c.106.037.283.162.283.32,0,.072-.035.109-.2.32a.743.743,0,0,0-.2.624c0,1.015.018,1.1.035,2.012,0,.125.018.267.178.267.32,0,1.6-1.852,1.889-2.51.2-.463.213-.5.3-.5.037,0,1.354.712,1.354,1.05,0,.125-.037.125-.41.267A20.319,20.319,0,0,0,114.7,106.2c0,.088.144.106.214.106h.872c.677,0,.855-.018,1.032-.16.125-.088.642-.765.8-.765a4.706,4.706,0,0,1,1.53,1.14c0,.248-.355.248-.96.248h-4.076c-.072,0-.2,0-.2.09,0,.072.035.088.392.3.587.338.658.375.658.552,0,.125-.07.178-.32.3-.41.232-1.192.943-1.192,1.175,0,.16.213.16.339.16h1.6c.73,0,.818,0,.96-.125.125-.106.623-.8.8-.8.072,0,1.354.89,1.354,1.175,0,.23-.09.23-.909.23h-4.966c-.535,0-.535.214-.535.907,0,.464,0,.714.5.714h1.479c.784,0,.872,0,1.122-.285.517-.607.57-.677.765-.677.3,0,1.37.872,1.37,1.157s-.32.285-.888.285h-3.9c-.445,0-.445.142-.445.962,0,.213,0,.443.429.443h3.612a3.443,3.443,0,0,0,.872-.053c.162-.07.767-.888.981-.888.178,0,1.53.872,1.53,1.173,0,.25-.357.25-.943.25Zm-4.488-7.05c-.035,0-.142,0-.142.09,0,.053.3.267.375.3.855.623,1.085,1.1,1.085,1.5a1.062,1.062,0,0,1-.125.463.333.333,0,0,0-.035.142c0,.088.125.088.2.088h1.975c.515,0,.624-.142.819-.73a6.068,6.068,0,0,0,.339-1.62c0-.179-.072-.232-.376-.232Z" transform="translate(3006.054 6873.152)" fill="#fff"/>
  </g>
</svg>
