<svg id="グループ_25892" data-name="グループ 25892" xmlns="http://www.w3.org/2000/svg" width="225.052" height="22.437" viewBox="0 0 225.052 22.437">
  <path id="パス_29491" data-name="パス 29491" d="M11.859,13.131a9.454,9.454,0,0,1,.937-.413,3.3,3.3,0,0,1,2.24,1.543c0,.193-.647.872-.721,1.015a22.756,22.756,0,0,0-1.033,5.762c0,.386.193.477.528.477.528,0,2.892-.556,3.374-.556,1.106,0,3.007.872,3.007,1.956,0,.216-.018.647-.574.647-.073,0-1.5-.312-1.589-.335a12.458,12.458,0,0,0-3.113-.34A57.77,57.77,0,0,0,3.691,24.141a8.493,8.493,0,0,1-1.281.386c-.262,0-2.41-1.033-2.41-2.576,0-.1.028-.142.142-.142a7.259,7.259,0,0,1,.941.308,7.116,7.116,0,0,0,1.905.294c.482,0,7.327-.533,7.594-.578.721-.1.771-.487.891-1.3.1-.771.721-5.252.721-5.353,0-.528-.335-.528-.482-.528-.358,0-4.339,1.038-4.986,1.276a6.2,6.2,0,0,1-.964.386A2.62,2.62,0,0,1,4.077,14.4c0-.115.142-.142.216-.142.239,0,1.3.1,1.52.1a36.539,36.539,0,0,0,6.047-1.23" transform="translate(0 -7.296)" fill="#fff"/>
  <path id="パス_29492" data-name="パス 29492" d="M9.353,21.588a47.17,47.17,0,0,0,6.822-.533c.647-.092,3.393-.6,3.976-.6.693,0,3.636.482,3.636,1.639,0,.556-.937.7-1.35.7a12.993,12.993,0,0,1-1.327-.193,18.173,18.173,0,0,0-2.723-.193c-2.02,0-7.107.556-8.434.771-.335.051-2.1.459-2.121.459a4.218,4.218,0,0,1-1.685-.891,3.983,3.983,0,0,1-.725-1.589.194.194,0,0,1,.22-.22,1.055,1.055,0,0,1,.262.05,8.161,8.161,0,0,0,3.448.6m1.423-7.736c.771,0,4.215-.477,5.179-.652.34-.046,1.8-.335,2.1-.335,1.106,0,2.144.551,2.144,1.2,0,.606-.9.652-3.517.771-.941.05-5.6.675-5.785.675a1.8,1.8,0,0,1-1.3-.748c-.069-.092-.647-.817-.647-.863,0-.073.193-.124.335-.124s1.253.073,1.5.073" transform="translate(19.475 -6.768)" fill="#fff"/>
  <path id="パス_29493" data-name="パス 29493" d="M21.334,16.63a38.789,38.789,0,0,0,6.46,6.047c.409.266,2.213,1.35,2.53,1.616a1.189,1.189,0,0,1,.528.891c0,.551-.574.725-1.01.725-.7,0-2.53,0-8.507-7.236-.289-.335-1.469-1.827-1.735-2.121a1.167,1.167,0,0,0-.721-.358c-.409,0-.436,0-3.834,3.159a5.147,5.147,0,0,0-1.084,1.226,1.537,1.537,0,0,1-1.2.748c-.51,0-.918-.262-2.029-1.4a1.073,1.073,0,0,1-.285-.748c0-.124.023-.289.17-.289.115,0,.624.1.744.1,1.106,0,2.341-.459,5.349-2.892,1.134-.914,1.52-1.23,2.19-1.23.969,0,1.786.941,2.438,1.763m7.158-.028c0,.335-.289.941-.725.941-.335,0-.551-.193-1.226-1.106a6.864,6.864,0,0,0-1.639-1.52c-.119-.1-.363-.266-.363-.363s.243-.193.436-.193c2.24,0,3.517,1.446,3.517,2.24m2.172-1.878a.709.709,0,0,1-.629.771c-.528,0-.84-.487-1.2-1.038A5.585,5.585,0,0,0,26.9,12.87c-.243-.124-.294-.243-.294-.289,0-.22.487-.193.941-.193.629.023,3.113.7,3.113,2.337" transform="translate(37.505 -8.485)" fill="#fff"/>
  <path id="パス_29494" data-name="パス 29494" d="M32.777,13.785c.147,0,.413-.023.533-.023,1.469,0,1.685.891,1.685,1.061,0,.675-.987.748-2,.748-.556,0-2.966-.05-3.448-.05-3.329,0-8.843.312-9.426.436-.285.046-1.589.432-1.878.432-1.038,0-2.144-1.5-2.144-2.314,0-.147.073-.289.193-.289s.7.266.822.289a12.9,12.9,0,0,0,2.938.216c.794,0,9.205-.312,12.722-.505" transform="translate(57.824 -3.546)" fill="#fff"/>
  <path id="パス_29495" data-name="パス 29495" d="M25.993,19.841c-1.446,3.127-3.976,4.577-4.453,4.577a.114.114,0,0,1-.124-.124,6.9,6.9,0,0,1,.964-1.276c2.649-3.641,2.915-6.262,2.915-7.061a5.26,5.26,0,0,0-.409-2.071,1.721,1.721,0,0,1-.1-.436c0-.073.028-.119.119-.119.17,0,2.723.817,2.723,2.048,0,.073-1.23,3.544-1.639,4.463M29.9,22.077c0-.115.119-.744.142-.863.073-.459.1-2.364.1-2.966a14.647,14.647,0,0,0-.464-4.531,6.536,6.536,0,0,1-.308-.868.127.127,0,0,1,.142-.119c.119,0,2.649.436,2.649,1.685,0,.294-.335,1.543-.386,1.809-.092.647-.193,3.567-.193,4.362,0,.312.023.8.459.8.721,0,2.938-1.593,5.252-3.935.409-.409,2.456-2.576,2.557-2.576a.1.1,0,0,1,.092.1c0,.193-1.4,3.182-5.61,6.891A13.009,13.009,0,0,0,32.673,23.4c-.413.459-.629.629-.8.652-.7.119-1.974-1.3-1.974-1.979" transform="translate(76.907 -7.256)" fill="#fff"/>
  <path id="パス_29496" data-name="パス 29496" d="M32.356,18.664c-.845,0-.845.165-.845,1.543,0,.477.174.6,1.162.964.606.239,1.956.744,1.956,2.02,0,.1-.028.992-.629.992-.413,0-.528-.271-1.038-1.253-.239-.459-.868-1.593-1.2-1.593-.1,0-.248.1-.248.556,0,.794.032,4.311.032,5.036-.032.84.064,4.554.064,5.3a1.055,1.055,0,0,1-1.1,1.129c-.317,0-.533-.142-.533-.5,0-.22.05-1.928.069-2.2.032-.578.1-6.069.1-6.79,0-.051,0-.317-.064-.317s-2.557,4.94-3.283,4.94a.054.054,0,0,1-.046-.046c0-.051.748-1.667.891-1.979A36.55,36.55,0,0,0,29.9,19.243c0-.578-.528-.578-.748-.578s-1.2.023-1.657.046a2.547,2.547,0,0,1-.436.073c-.073,0-.124-.073-.17-.17l-.386-.556c-.069-.092-.092-.119-.092-.142,0-.051.023-.073.064-.073.386,0,2.612.17,3.108.17.657,0,.657,0,.657-3.976,0-.363-.165-2.048-.165-2.172,0-.046.018-.1.064-.1a13.712,13.712,0,0,1,1.547.464c.487.115.652.193.652.427,0,.17-.078.22-.317.413s-.289.312-.289.744c0,.413-.165,3.448-.165,3.737,0,.147.023.459.5.459A.725.725,0,0,0,32.7,17.6c.243-.455.308-.6.5-.6a5.928,5.928,0,0,1,1.813,1.368c0,.294-.51.294-1.065.294ZM42.989,22.47c-.271,0-.606,0-.606.335a12.713,12.713,0,0,0,5.688,6.7c.367.22.914.533.914.657s-.161.115-.239.115a3.111,3.111,0,0,0-1.23.271,5.729,5.729,0,0,1-1.083.647,16.972,16.972,0,0,1-3.778-6.1c-.078-.17-.34-.992-.413-1.157,0-.028-.051-.1-.1-.1-.1,0-.1.147-.1.262,0,1.308.046,7.066.046,8.246,0,.386-.046.6-.239.744a1.806,1.806,0,0,1-.987.317c-.367,0-.51-.165-.51-.51,0-.84.174-2.213.193-3.058.028-1.18.1-4.986.1-5.036,0-.358-.023-.459-.147-.459-.1,0-.142.05-.335.363A17.406,17.406,0,0,1,34.458,31a3.993,3.993,0,0,1-.872.409c-.05,0-.147-.023-.147-.092a5.147,5.147,0,0,1,.826-.872,20.124,20.124,0,0,0,5.151-7.47c0-.505-.381-.505-.914-.505-.583,0-1.859.023-2.406.073-.078,0-.441.046-.505.046-.1,0-.156-.046-.225-.142l-.459-.556c-.087-.119-.115-.119-.115-.17s.05-.046.1-.046c.161,0,.918.073,1.056.073.2,0,1.928.092,3.067.092h.748c.67,0,.836-.142.836-.794,0-.578,0-2.961-.064-3.347-.051-.34-.174-.505-.7-.505H37.663c-.51,0-.556.046-.868.6a8.619,8.619,0,0,1-2.13,2.58c-.014,0-.064,0-.064-.073,0-.046.67-1.561.8-1.855a21.078,21.078,0,0,0,1.373-4.89c.046-.51.064-.556.239-.556.073,0,2.309.652,2.309.987,0,.17-.165.216-.6.363-.239.073-.262.17-.606.941-.138.363-.432,1.033-.432,1.061,0,.193.193.216.317.216h1.85c.22,0,.7,0,.7-.652,0-.289-.018-1.735-.051-1.928-.018-.363-.239-2.048-.239-2.263a.1.1,0,0,1,.1-.1c.073,0,2.245.482,2.245.748,0,.119-.386.505-.413.6a26.023,26.023,0,0,0-.142,2.842c0,.629.239.748.8.748h.574c.556,0,.725-.023.891-.17.193-.165.941-1.129,1.18-1.129a6.87,6.87,0,0,1,2,1.589c0,.34-.487.34-1.281.34h-3.4c-.335,0-.546.046-.693.312a31.423,31.423,0,0,0-.1,3.154c0,.9,0,1.18.79,1.18h1.065c.987,0,1.111,0,1.276-.165.193-.17.863-1.083,1.083-1.083.17,0,2.121,1.226,2.121,1.543,0,.335-.5.335-1.276.335Z" transform="translate(94.841 -11.217)" fill="#fff"/>
  <path id="パス_29497" data-name="パス 29497" d="M43.267,16.878c.413,0,.505-.078.505-.294,0-.193-.386-2.745-.459-3.131-.046-.266-.335-1.492-.335-1.758,0-.073.1-.073.165-.073a10.374,10.374,0,0,1,1.69.266c.624.119.941.216.941.528,0,.142-.023.17-.243.413-.266.266-.266.386-.266,1.492.028,2.557.22,2.557.822,2.557h2.791c1.116,0,1.235,0,1.543-.413.748-1.015.822-1.106,1.065-1.106.363,0,2.314,1.4,2.314,1.8,0,.367-.436.367-1.281.367H46.137c-.413,0-.556.041-.556.381a31.987,31.987,0,0,0,.964,4.265c1.492,4.651,4.118,7.69,4.844,7.69.335,0,.744-.7,1.061-1.276a6.68,6.68,0,0,1,.7-1.281c.073,0,.073.124.073.17,0,.073-.317,2.677-.317,3.182a1.785,1.785,0,0,0,.266.987,1.335,1.335,0,0,1,.243.675c0,.51-.34.6-.629.6-2.121,0-7.158-5.133-8.7-14.361-.142-.891-.193-1.033-.79-1.033h-6.51c-.556,0-2.195,0-3.039.041a3.406,3.406,0,0,1-.528.078c-.069,0-.119-.078-.193-.17l-.482-.556c-.1-.1-.1-.124-.1-.147,0-.046.023-.069.1-.069.17,0,.914.069,1.061.092,1.106.051,2.167.078,3.3.078Zm-3.255,6.336a.635.635,0,0,0-.675.413c-.05.234-.142,2.768-.142,4.238s0,1.712.409,1.712c.363,0,5.8-1.23,5.854-1.23.028,0,.124,0,.124.073,0,.239-3.443,1.662-6.46,2.626a30.478,30.478,0,0,0-4.412,1.492c-.142.073-.647.679-.79.679-.266,0-.946-2.534-.946-2.608,0-.092.073-.119.822-.193a30.83,30.83,0,0,0,3.329-.477.523.523,0,0,0,.216-.34c.023-.193.046-3.159.046-3.448,0-.193-.023-2.24-.023-2.332-.023-.578-.459-.578-.7-.578a19.7,19.7,0,0,0-2.19.069c-.046,0-.289.046-.34.046-.092,0-.142-.073-.211-.165l-.464-.556c-.1-.1-.115-.124-.115-.165s.041-.051.092-.051c.17,0,.914.073,1.065.092,1.106.05,2.19.073,3.3.073H39.7a3.834,3.834,0,0,0,1.157-.073c.266-.119.987-1.276,1.23-1.276A4.215,4.215,0,0,1,43.846,22.9c0,.317-.482.317-1.3.317ZM47.22,11.887c.335,0,3.664.822,3.664,2.213a.894.894,0,0,1-.992.992c-.266,0-.312-.069-.817-.8a12.07,12.07,0,0,0-1.855-2.139c-.073-.051-.17-.147-.147-.193,0-.05.1-.073.147-.073" transform="translate(116.518 -11.235)" fill="#fff"/>
  <path id="パス_29498" data-name="パス 29498" d="M38.258,22.478c0-.1.069-.142.358-.335.17-.124,2.144-1.52,3.714-2.846,4.118-3.517,5.638-6.386,5.753-6.914.2-.748.2-.845.487-.845.023,0,2.263,1.056,2.263,1.469,0,.124-.051.147-.285.317-.152.069-.174.142-.174.234,0,.753,4.265,6.1,9.977,7.713.679.193.679.193.679.312,0,.147-.073.174-.679.367a2.842,2.842,0,0,0-1.543.982c-.092.174-.165.243-.312.243-.528,0-5.661-3.54-8.383-8.5-.266-.51-.312-.578-.409-.578s-.482.477-.675.721a23.875,23.875,0,0,1-10.555,7.731c-.073.028-.216.051-.216-.069m6.625,3.3c-1.781,0-2.383.023-3.039.073-.073,0-.432.046-.5.046-.1,0-.124-.046-.22-.142l-.459-.556c-.046-.073-.119-.147-.119-.17,0-.046.05-.046.1-.046.17,0,.918.069,1.061.069,1.184.051,2.456.1,3.3.1h7.952c1.015,0,1.276,0,1.855-.8.363-.505.459-.652.68-.652.193,0,.262.051.817.51,1.23,1.01,1.23,1.033,1.23,1.253,0,.312-.119.312-1.253.312H48.9c-.239,0-.335,0-.335.073,0,0,1.134.964,1.134,1.23,0,.216,0,.216-.725.409-.193.069-.239.142-.845.941-.505.67-1.492,1.855-1.634,2-.1.124-.34.358-.34.578s.34.243.432.243c.317,0,2.58-.147,5.257-.413,1.735-.165,1.928-.193,1.928-.436,0-.358-1.423-1.584-1.423-1.878,0-.119.1-.142.17-.142a22.906,22.906,0,0,1,3.058,1.492c.652.386,2.144,1.258,2.144,2.773,0,.771-.477,1.3-.937,1.3-.7,0-1.207-.891-1.639-1.69-.459-.817-.675-.9-1.01-.9a104.994,104.994,0,0,0-11.184,2.222,4.8,4.8,0,0,1-.7.386.282.282,0,0,1-.243-.17,19.242,19.242,0,0,1-1.327-2.553c0-.17.124-.17.193-.17.17,0,.918.142,1.065.17a13.315,13.315,0,0,0,1.419.092c1.35,0,1.52,0,2.507-1.974a16.864,16.864,0,0,0,1.253-3.182c0-.409-.312-.409-.725-.409ZM49.9,21.3c1.18,0,1.23-.051,1.708-.629.386-.455.679-.817.8-.817a6.569,6.569,0,0,1,1.827,1.8c0,.266-.119.266-1.276.266H47.413c-1.469,0-2.172,0-3.062.073-.073,0-.432.046-.505.046S43.726,22,43.63,21.9l-.459-.556c-.1-.1-.1-.119-.1-.165,0-.028.028-.05.073-.05.165,0,.914.073,1.061.073,1.18.069,2.337.1,3.3.1Z" transform="translate(137.389 -11.537)" fill="#fff"/>
  <path id="パス_29499" data-name="パス 29499" d="M44.557,17.281c-.092-.119-.119-.147-.119-.17,0-.051.069-.051.1-.051.459,0,2.672.142,3.182.142.675,0,.675-.165.675-1.781,0-.358-.028-1.786-.1-2.695,0-.119-.119-.684-.119-.822,0-.055.073-.055.1-.055a19.462,19.462,0,0,1,2.167.657c.124.073.266.17.266.335,0,.1-.436.464-.482.556-.119.216-.119.335-.119,1.35v2.029c0,.335.142.386.386.386a.835.835,0,0,0,.574-.174c.17-.1.872-.817,1.088-.817a.458.458,0,0,1,.34.17c.285.289.794.891.863.941.528.5.578.551.578.689a.346.346,0,0,1-.262.317c-.073.032-.409.1-.482.124a25.339,25.339,0,0,0-2.24,2.415c-.7.716-.771.785-.771,1.226,0,.505.216.546.794.67.817.193,3.085.845,3.085,2.677,0,.753-.409,1.111-.845,1.111-.578,0-.845-.482-1.469-1.758-.147-.271-.941-1.492-1.4-1.492-.216,0-.216.331-.216.624,0,.914.023,5.372.023,6.359,0,.317.119,1.809.119,2.144A1.149,1.149,0,0,1,48.992,33.5c-.578,0-.721-.239-.721-.578,0-.243.092-1.35.092-1.616.05-1.786.151-4.288.151-7.13,0-.271,0-.679-.243-.679s-3.379,2.727-4,2.727c-.05,0-.124,0-.124-.069A24.747,24.747,0,0,1,46.246,24c.96-.987,4.362-5.2,4.362-5.9,0-.22-.17-.239-.386-.239h-1.69c-.941,0-1.947.018-2.791.073-.078,0-.436.037-.505.037-.1,0-.147-.037-.22-.138ZM52.44,32.028c-.1-.124-.1-.124-.1-.142a.079.079,0,0,1,.073-.078c.142,0,.886.1,1.061.1.7.028,1.947.069,3.3.069h.941c.216,0,.652,0,.7-.523.046-.441.092-9.715.092-10.968,0-.239,0-.748-.578-.748-.6,0-2,0-2.842.078-.069,0-.409.046-.505.046-.073,0-.124-.046-.216-.147l-.459-.556c-.1-.115-.1-.115-.1-.165s.051-.055.069-.055.9.083,1.015.083c.243,0,2.195.1,3.012.1.578,0,.629-.317.629-.987,0-2.227-.051-3.31-.17-5.115,0-.193-.142-1.038-.142-1.226,0-.129.05-.17.193-.17.069,0,1.566.455,1.735.505.216.073.721.193.721.606,0,.115-.482.523-.528.652-.147.335-.216,4.334-.216,4.977,0,.294,0,.758.574.758,1.134,0,1.253,0,1.763-.675.7-.946.771-1.042.982-1.042.34,0,2.029,1.566,2.029,2.029,0,.308-.51.308-1.276.308H60.85c-.652,0-.7.363-.7.794,0,1.455.069,8.512.069,10.128,0,.9,0,1.318.629,1.318h.891a1.507,1.507,0,0,0,1.423-.716c.652-.849.721-.946,1.01-.946.22,0,2.337,1.575,2.337,1.979,0,.34-.505.34-1.3.34H56.659c-.583,0-2.2-.023-3.039.046-.073,0-.432.073-.51.073s-.119-.05-.211-.17Z" transform="translate(158.541 -11.254)" fill="#fff"/>
</svg>
