<svg xmlns="http://www.w3.org/2000/svg" width="313.283" height="36.04" viewBox="0 0 313.283 36.04">
  <g id="グループ_12721" data-name="グループ 12721" transform="translate(-43.961 -9.215)">
    <g id="グループ_12666" data-name="グループ 12666">
      <path id="パス_38604" data-name="パス 38604" d="M1.961-10.441c.106,3.816.106,6.731.159,7.95C3.339-1.113,7.049.795,11.342.795,17.6.795,23.108-3.18,23.108-9.434c0-4.293-2.6-7.1-6.254-9.805L15.264-20.4c-2.756-2.067-4.77-3.975-4.77-7a5.777,5.777,0,0,1,5.777-6.042c4.558,0,5.936,3.816,6.36,7.685l1.59-.159c.053-2.544,0-5.353.159-7.526-.424-.159-1.272-.53-2.279-.9a17.024,17.024,0,0,0-5.247-.9c-6.36,0-10.865,3.975-10.865,9.593,0,4.4,3.392,7.367,5.989,9.381L13.515-15.1c3.021,2.385,4.77,4.452,4.77,7.367,0,4.028-2.438,6.678-6.254,6.678-5.777,0-8-5.618-8.533-9.54ZM32.277.636A3.233,3.233,0,0,0,35.51-2.809a2.751,2.751,0,0,0-2.7-2.968,3.29,3.29,0,0,0-3.286,3.5A2.746,2.746,0,0,0,32.277.636ZM63.07-34.4H49.237l-.371,1.484c4.346.371,4.717.689,3.975,4.611L48.548-6.307c-.8,4.081-1.113,4.505-5.194,4.823L42.983,0H56.922l.318-1.484c-4.293-.318-4.664-.689-3.869-4.823L57.611-28.3c.795-3.922,1.06-4.24,5.141-4.611ZM67.946.636a3.233,3.233,0,0,0,3.233-3.445,2.751,2.751,0,0,0-2.7-2.968,3.29,3.29,0,0,0-3.286,3.5A2.746,2.746,0,0,0,67.946.636ZM118.932-34.4H106.9l-.424,1.484c3.869.212,4.823.795,4.611,3.286a81.982,81.982,0,0,1-1.378,9.063L107.325-7.9h-.159L91.849-34.4h-8l-.371,1.484c2.809.159,3.816.477,4.452,1.59.636,1.166.848,2.014.265,4.929L85.542-13.78c-1.06,4.929-1.643,7.314-2.226,9.116-.689,2.332-1.908,3.021-4.664,3.18L78.281,0h12.3l.318-1.484c-3.71-.265-4.664-.848-4.5-3.286a68.3,68.3,0,0,1,1.325-8.9l2.7-13.78h.159L106.159.424h1.8l3.975-20.988A89.982,89.982,0,0,1,114-29.574c.689-2.332,1.378-3.18,4.611-3.339Zm48.442,9.169c.212-3.657.477-6.731.636-8.374a29.625,29.625,0,0,0-9.434-1.643c-13.2,0-22.525,8.692-22.525,20.882,0,9.7,6.572,15.158,15.9,15.158,4.187,0,7.95-1.219,11.236-2.014a12.962,12.962,0,0,1,.265-4.134L164.3-9.7c.742-3.975,1.007-4.187,3.922-4.611l.371-1.431H155.131l-.371,1.431c5.247.53,5.512.689,4.77,4.611l-1.007,4.876c-.583,2.862-2.65,3.71-5.671,3.71-7.155,0-11.13-5.671-11.13-13.568,0-9.964,6.2-18.656,15.582-18.656,5.247,0,8.321,2.173,8.427,8.268ZM202.566-.954a6.381,6.381,0,0,1-3.5-2.491,39.6,39.6,0,0,1-3.286-5.618c-1.219-2.438-2.6-5.724-3.127-7.1,4.293-1.484,8.268-4.717,8.268-10.07a7.3,7.3,0,0,0-3.286-6.519c-1.855-1.272-4.717-1.643-7.632-1.643H178.133l-.318,1.484c4.187.371,4.4.583,3.6,4.876L177.285-6.731c-.9,4.558-1.219,4.823-5.247,5.247L171.667,0h13.727l.318-1.484c-4.187-.371-4.558-.689-3.657-5.3l1.484-8.268h2.067c1.855,0,2.544.477,3.339,2.438,1.113,2.7,2.226,5.353,3.551,7.844,1.855,3.5,3.6,4.982,9.01,5.194h.636ZM183.91-16.8,186.4-29.786c.265-1.378.53-2.014.954-2.332a3.889,3.889,0,0,1,2.332-.53c3.657,0,5.989,2.279,5.989,6.837a9.172,9.172,0,0,1-3.922,7.685,9.759,9.759,0,0,1-5.565,1.325Zm44.2-18.444c-11.13,0-19.345,9.911-19.345,20.988,0,9.01,5.777,15.052,14.151,15.052,11.342,0,19.4-9.54,19.4-20.829C242.316-28.938,236.645-35.245,228.112-35.245Zm-.371,1.908c6.572,0,9.01,5.618,9.01,12.614,0,8.8-4.929,19.61-13.409,19.61-6.254,0-9.063-5.459-9.063-12.508C214.279-23.055,219.738-33.337,227.741-33.337Zm58.141-1.06h-12.4l-.371,1.484c3.816.212,4.823.742,4.717,2.915a81.1,81.1,0,0,1-1.378,9.381l-.8,3.869C273.692-6.731,270.141-2.12,263.887-2.12c-5.194,0-8.957-3.6-7.155-13.038L259.17-28.09c.8-4.24,1.166-4.452,5.088-4.823l.318-1.484H251.061l-.371,1.484c4.187.371,4.452.689,3.657,4.823l-2.491,13.2c-1.219,6.572-.053,10.547,2.385,12.826A11.943,11.943,0,0,0,262.509.795a13.628,13.628,0,0,0,9.169-3.5c3.5-3.286,5.088-8.109,6.148-13.621l.848-4.293c.954-4.823,1.59-7.526,2.12-9.328.636-2.014,1.272-2.809,4.717-2.968Zm5.724,0-.371,1.484c4.187.424,4.452.742,3.657,4.929l-4.24,21.359c-.9,4.452-1.272,4.717-5.3,5.141L284.981,0H299.45l.318-1.484c-4.823-.424-5.194-.742-4.346-5.141l1.59-8.321,3.6,1.113c.583,0,1.272,0,1.961-.053,5.989-.424,12.667-4.081,12.667-11.554,0-6.042-4.081-8.957-11.395-8.957Zm8.215,4.717c.318-1.7.689-2.279,1.272-2.544a5.031,5.031,0,0,1,2.226-.424c4.346,0,6.731,2.544,6.731,6.943,0,6.784-4.982,9.7-8.9,9.7a10.227,10.227,0,0,1-3.763-.689Z" transform="translate(42 44.461)" fill="#fff"/>
    </g>
  </g>
</svg>
