<svg xmlns="http://www.w3.org/2000/svg" width="49.95" height="26.233" viewBox="0 0 49.95 26.233">
  <path id="パス_38723" data-name="パス 38723" d="M-21.164-18.537l.777.777c1.11-1.406,2.775-3.367,5.106-3.367,2.812,0,3.922,1.776,3.922,3.959,0,3.219-2.775,6.327-6.4,9.842-2.479,2.368-5.032,4.551-7.4,6.549L-25.2,0h13.69c.666-1.517,1.3-3,2.072-4.551L-10.323-5C-11.8-2.886-12.432-2.664-14.5-2.664H-21.09l5.883-5.143c4.144-3.552,6.993-6.142,6.993-9.916a5.363,5.363,0,0,0-5.772-5.772,7.067,7.067,0,0,0-4.81,2ZM7.252-24.568H5.291L-6.623,1.665h1.961ZM11.8-18.537l.777.777c1.11-1.406,2.775-3.367,5.106-3.367,2.812,0,3.922,1.776,3.922,3.959,0,3.219-2.775,6.327-6.4,9.842-2.479,2.368-5.032,4.551-7.4,6.549L7.77,0H21.46c.666-1.517,1.3-3,2.072-4.551L22.644-5c-1.48,2.109-2.109,2.331-4.181,2.331H11.877L17.76-7.807c4.144-3.552,6.993-6.142,6.993-9.916a5.363,5.363,0,0,0-5.772-5.772,7.067,7.067,0,0,0-4.81,2Z" transform="translate(25.197 24.568)" fill="#80868b"/>
</svg>
