<svg xmlns="http://www.w3.org/2000/svg" xmlns:xlink="http://www.w3.org/1999/xlink" width="185.948" height="27.446" viewBox="0 0 185.948 27.446">
  <defs>
    <clipPath id="clip-path">
      <rect id="長方形_9308" data-name="長方形 9308" width="185.948" height="27.446" fill="none"/>
    </clipPath>
  </defs>
  <g id="グループ_26292" data-name="グループ 26292" transform="translate(0 0)">
    <g id="グループ_26291" data-name="グループ 26291" transform="translate(0 0)" clip-path="url(#clip-path)">
      <path id="パス_38627" data-name="パス 38627" d="M11.712,20.479a3.088,3.088,0,0,1-1.78-.721,3.937,3.937,0,0,1-.913-1.7C7.5,19.077,5.686,20.479,4.547,20.479A4.573,4.573,0,0,1,0,15.852C0,14,.986,12.819,3.066,12.1A27.133,27.133,0,0,0,8.945,9.637V8.953c0-2.727-1.289-4.281-3.185-4.281a2.146,2.146,0,0,0-1.707.757,5.456,5.456,0,0,0-1.133,2.5,1.059,1.059,0,0,1-1.1.87A1.846,1.846,0,0,1,.153,7.173c0-.568.488-.986,1.212-1.518A17.008,17.008,0,0,1,7.052,3a4.935,4.935,0,0,1,3.106,1.026c1.329,1.1,1.707,2.654,1.707,4.624V15.7c0,1.707.681,2.275,1.325,2.275a2.9,2.9,0,0,0,1.365-.419l.382.986ZM8.945,10.926c-.794.419-2.614,1.212-3.411,1.591-1.481.684-2.315,1.4-2.315,2.767A2.776,2.776,0,0,0,5.912,18.2a5.4,5.4,0,0,0,3.033-1.365Z" transform="translate(0 6.968)" fill="#fff"/>
      <path id="パス_38628" data-name="パス 38628" d="M16.209,20.1v-.986c2.235-.226,2.5-.528,2.5-3.145V9.64c0-2.617-.91-4.321-3.451-4.321a6.786,6.786,0,0,0-4.132,1.933V16.16c0,2.577.229,2.73,2.465,2.956V20.1H5.364v-.986c2.581-.266,2.767-.455,2.767-2.956V8.311c0-2.425-.226-2.538-2.272-2.92v-.87a22.861,22.861,0,0,0,5.268-1.554V6c.757-.568,1.591-1.136,2.538-1.78A5.857,5.857,0,0,1,16.817,3.08c2.993,0,4.886,2.126,4.886,5.763V16.16c0,2.577.193,2.73,2.391,2.956V20.1Z" transform="translate(12.453 6.889)" fill="#fff"/>
      <path id="パス_38629" data-name="パス 38629" d="M30.395,26a39.718,39.718,0,0,0-5.876,1.442V24.984l-2.312,1.362a6.683,6.683,0,0,1-2.959,1.1c-3.033,0-7.012-2.767-7.012-8.075a9.7,9.7,0,0,1,9.779-9.4,8.7,8.7,0,0,1,2.5.419V5.042c0-2.5-.193-2.614-2.92-2.807V1.329A35.672,35.672,0,0,0,27.512,0V22.633c0,1.97.266,2.159,1.667,2.312l1.216.113Zm-5.876-12.7a4.713,4.713,0,0,0-3.906-1.933c-1.744,0-4.926,1.478-4.926,6.975,0,4.511,2.767,6.709,5.192,6.709a6.4,6.4,0,0,0,3.64-1.289Z" transform="translate(28.406 0.001)" fill="#fff"/>
      <path id="パス_38630" data-name="パス 38630" d="M42.947,20.1v-.986c2.235-.226,2.654-.379,2.654-3.072V9.716c0-2.694-.947-4.4-3.338-4.4a6.978,6.978,0,0,0-4.245,1.973,8.714,8.714,0,0,1,.116,1.591v7.394c0,2.385.339,2.614,2.425,2.84V20.1H32.445v-.986c2.352-.226,2.69-.415,2.69-2.92V9.676c0-2.8-.983-4.358-3.3-4.358A7.029,7.029,0,0,0,27.7,7.292v8.9c0,2.465.306,2.694,2.162,2.92V20.1h-8v-.986c2.5-.226,2.843-.455,2.843-2.92V8.351c0-2.428-.113-2.617-2.315-2.959v-.87a23.141,23.141,0,0,0,5.271-1.554V6.039c.8-.535,1.631-1.216,2.767-1.933A5.635,5.635,0,0,1,33.544,3.08a4.533,4.533,0,0,1,4.212,3.112A35.129,35.129,0,0,1,40.9,4.066a5.249,5.249,0,0,1,2.84-.986c2.959,0,4.816,2.086,4.816,5.8V16.2c0,2.541.3,2.694,2.465,2.92V20.1Z" transform="translate(50.769 6.889)" fill="#fff"/>
      <path id="パス_38631" data-name="パス 38631" d="M48.385,11.458c0,6.1-4.474,9.021-8.227,9.021a8.213,8.213,0,0,1-8.3-8.38c0-6.254,4.853-9.1,8.3-9.1a8.224,8.224,0,0,1,8.227,8.457m-13-.571c0,4.776,2.086,8.344,5.195,8.344,2.348,0,4.285-1.747,4.285-6.939,0-4.438-1.784-8.038-5.082-8.038-2.348,0-4.4,2.352-4.4,6.633" transform="translate(73.949 6.968)" fill="#fff"/>
      <path id="パス_38632" data-name="パス 38632" d="M43.75,7.1c1.136-1.893,2.767-4.019,4.587-4.019a2.11,2.11,0,0,1,2.2,1.9,2.129,2.129,0,0,1-1.212,1.857A.875.875,0,0,1,48.3,6.757a2.044,2.044,0,0,0-1.591-.794c-.983,0-2.2,1.136-3.033,3.262v6.939c0,2.5.189,2.727,3.109,2.953V20.1H38.064v-.986c2.348-.226,2.614-.455,2.614-2.953V8.311c0-2.5-.186-2.654-2.348-2.953V4.521a21.359,21.359,0,0,0,5.344-1.554V7.1Z" transform="translate(88.366 6.889)" fill="#fff"/>
      <path id="パス_38633" data-name="パス 38633" d="M56.342,16.8c-2.391,2.993-5.006,3.677-6.181,3.677-4.663,0-7.394-3.793-7.394-8.075a9.769,9.769,0,0,1,2.5-6.636A7.7,7.7,0,0,1,50.845,3a5.872,5.872,0,0,1,5.686,5.763c0,.761-.189,1.063-.874,1.212-.644.116-5.381.495-9.895.644.037,5.158,3,7.277,5.65,7.277A6.174,6.174,0,0,0,55.734,16ZM45.952,9.066c2.126,0,4.208-.037,6.407-.113.684,0,.91-.229.91-.761a3.477,3.477,0,0,0-3.338-3.787c-1.74,0-3.411,1.591-3.979,4.66" transform="translate(99.284 6.968)" fill="#fff"/>
      <path id="パス_38634" data-name="パス 38634" d="M48.359,9.11a2.123,2.123,0,1,1,4.245,0,2.124,2.124,0,1,1-4.245,0" transform="translate(112.266 16.138)" fill="#fff"/>
      <path id="パス_38635" data-name="パス 38635" d="M51.532,9.11a2.123,2.123,0,1,1,4.245,0,2.124,2.124,0,1,1-4.245,0" transform="translate(119.632 16.138)" fill="#fff"/>
      <path id="パス_38636" data-name="パス 38636" d="M54.705,9.11a2.123,2.123,0,1,1,4.245,0,2.124,2.124,0,1,1-4.245,0" transform="translate(126.998 16.138)" fill="#fff"/>
    </g>
  </g>
</svg>
