<svg xmlns="http://www.w3.org/2000/svg" width="215.507" height="22.437" viewBox="0 0 215.507 22.437">
  <g id="グループ_26329" data-name="グループ 26329" transform="translate(-287.436 -5661.641)">
    <path id="パス_29500" data-name="パス 29500" d="M4.364,30.688c0,.482-.363,1.207-.941,1.207-.358,0-.477-.147-.845-.748a5.857,5.857,0,0,0-2.19-2C.315,29.095.168,29,.168,28.9c0-.335,1.377-.358,1.69-.358,1.038,0,2.507.964,2.507,2.144M1.4,38.158c-.078-.115-.51-.624-.578-.744a1.046,1.046,0,0,1-.152-.459c0-.1.078-.17.22-.17.216,0,1.129.312,1.322.312,1.038,0,7.52-3.613,13.282-10.146a11.452,11.452,0,0,1,1.038-1.084.092.092,0,0,1,.1.1c0,.262-2.121,5.418-12.1,12.41-.285.193-1.442,1.276-1.758,1.276-.528,0-.771-.386-1.368-1.5M7.257,25.895c0,.551-.386,1.079-.771,1.079-.266,0-.386-.092-1.253-1.129a4.211,4.211,0,0,0-2.075-1.276c-.092-.023-.363-.1-.363-.17a2.877,2.877,0,0,1,1.859-.459c2.6,0,2.6,1.878,2.6,1.956" transform="translate(287.268 5641.677)" fill="#fff"/>
    <path id="パス_29501" data-name="パス 29501" d="M11.208,35.914a15.919,15.919,0,0,0-2.36,1.974c-.464.551-.505.6-.868.6-1.3,0-3.085-1.543-3.085-2.507,0-.17.023-1.276.239-1.276a6.283,6.283,0,0,1,.725.455,4.043,4.043,0,0,0,1.634.56c1.185,0,7.571-4.27,11.57-8.218.386-.386,1.061-1.065,1.111-1.065a.168.168,0,0,1,.119.115c0,.22-2.819,4.733-9.086,9.361M9.234,27.981c-.657,0-.891-.386-1.69-1.589A5.452,5.452,0,0,0,5.35,24.414c-.092-.046-.216-.124-.216-.216s.193-.216.533-.216c2.576,0,4.6,1.377,4.6,2.791a1.065,1.065,0,0,1-1.038,1.207" transform="translate(304.243 5641.832)" fill="#fff"/>
    <path id="パス_29502" data-name="パス 29502" d="M12.326,25.728c2.167,0,7.3-.436,7.828-.771.872-.578.964-.629,1.185-.629.477,0,2.791,1.543,2.791,2.172,0,.216-.069.285-.817.845-.432.312-.533.67-1.345,4.022-.051.216-.386,1.276-.386,1.423,0,.308.216.335.574.409.6.092,1.5.409,1.5,1.015,0,.647-1.111.647-1.3.647-.606,0-3.283-.17-3.834-.17-1.5,0-6.079.51-6.464.606-.142.023-.744.285-.863.285-.436,0-1.855-1.083-1.855-1.924a.2.2,0,0,1,.216-.174,7.021,7.021,0,0,1,.725.124,8.887,8.887,0,0,0,1.226.069,79.512,79.512,0,0,0,8.337-.62c.289-.152.386-.436.556-1.644.289-2.121.505-4.215.505-4.7,0-.409-.092-.51-.363-.51-.744,0-6.721.964-7.663,1.185-.216.046-1.056.386-1.249.386-.537,0-2.245-1.469-2.245-1.951,0-.193.17-.243.289-.243.142,0,2.24.147,2.654.147" transform="translate(320.195 5643.074)" fill="#fff"/>
    <path id="パス_29503" data-name="パス 29503" d="M30.627,25.327c.147,0,.413-.028.533-.028,1.469,0,1.685.891,1.685,1.065,0,.67-.987.744-2,.744-.556,0-2.966-.046-3.448-.046-3.329,0-8.843.312-9.426.432-.285.046-1.589.432-1.878.432-1.038,0-2.144-1.492-2.144-2.314,0-.142.073-.285.193-.285s.7.266.822.285a12.8,12.8,0,0,0,2.938.22c.794,0,9.205-.312,12.722-.505" transform="translate(336.768 5646.562)" fill="#fff"/>
    <path id="パス_29504" data-name="パス 29504" d="M23.842,31.377c-1.446,3.131-3.976,4.577-4.453,4.577a.114.114,0,0,1-.124-.124,6.731,6.731,0,0,1,.964-1.272c2.649-3.641,2.915-6.267,2.915-7.061a5.291,5.291,0,0,0-.409-2.075,1.652,1.652,0,0,1-.1-.432c0-.073.028-.119.119-.119.17,0,2.723.817,2.723,2.048,0,.073-1.23,3.544-1.639,4.458m3.907,2.24c0-.119.119-.748.142-.868.073-.459.1-2.36.1-2.966a14.6,14.6,0,0,0-.464-4.527,6.594,6.594,0,0,1-.308-.872c0-.092.092-.119.142-.119.119,0,2.649.436,2.649,1.69,0,.289-.335,1.543-.386,1.809-.092.647-.193,3.563-.193,4.362,0,.312.023.794.459.794.721,0,2.938-1.593,5.252-3.93.409-.409,2.456-2.576,2.557-2.576a.1.1,0,0,1,.092.092c0,.193-1.4,3.186-5.61,6.9a12.251,12.251,0,0,0-1.662,1.543c-.413.459-.629.624-.8.652-.7.119-1.974-1.308-1.974-1.979" transform="translate(355.848 5642.848)" fill="#fff"/>
    <path id="パス_29508" data-name="パス 29508" d="M43.867,30.2c-.849,0-.849.17-.849,1.543,0,.482.17.606,1.157.964.606.243,1.956.748,1.956,2.025,0,.1-.028.987-.629.987-.409,0-.528-.266-1.038-1.249-.239-.464-.868-1.593-1.2-1.593-.1,0-.243.092-.243.551,0,.8.028,4.316.028,5.041-.028.84.069,4.554.069,5.3A1.06,1.06,0,0,1,42.007,44.9a.465.465,0,0,1-.533-.505c0-.216.051-1.928.078-2.195.023-.578.092-6.074.092-6.795,0-.051,0-.317-.069-.317s-2.557,4.94-3.278,4.94a.047.047,0,0,1-.05-.046c0-.046.748-1.662.891-1.974A36.082,36.082,0,0,0,41.4,30.775c0-.578-.528-.578-.744-.578s-1.2.028-1.662.051a2.87,2.87,0,0,1-.436.069c-.069,0-.119-.069-.17-.17L38,29.6c-.069-.1-.092-.119-.092-.142,0-.051.023-.078.069-.078.386,0,2.6.17,3.108.17.652,0,.652,0,.652-3.976,0-.358-.165-2.048-.165-2.172,0-.041.018-.092.069-.092a15.023,15.023,0,0,1,1.543.459c.482.119.652.193.652.432,0,.165-.073.216-.317.409s-.285.312-.285.748c0,.409-.17,3.443-.17,3.737,0,.142.028.455.505.455a.714.714,0,0,0,.629-.409c.239-.455.312-.6.505-.6a5.979,5.979,0,0,1,1.809,1.373c0,.289-.51.289-1.065.289ZM54.491,34c-.266,0-.6,0-.6.34a12.727,12.727,0,0,0,5.684,6.7c.367.216.918.528.918.652s-.165.119-.243.119a3.123,3.123,0,0,0-1.23.266,5.368,5.368,0,0,1-1.084.647,17.06,17.06,0,0,1-3.778-6.1c-.078-.165-.34-.987-.413-1.157,0-.023-.051-.092-.1-.092-.1,0-.1.142-.1.262,0,1.3.05,7.066.05,8.241,0,.386-.05.606-.243.748a1.785,1.785,0,0,1-.987.317c-.363,0-.505-.17-.505-.51,0-.84.17-2.218.193-3.062.023-1.175.092-4.981.092-5.032,0-.363-.023-.459-.142-.459-.1,0-.142.046-.335.358a17.426,17.426,0,0,1-5.711,6.29,3.884,3.884,0,0,1-.868.413c-.051,0-.147-.028-.147-.1a5.09,5.09,0,0,1,.822-.868,20.1,20.1,0,0,0,5.156-7.474c0-.505-.386-.505-.918-.505-.578,0-1.855.028-2.406.078-.078,0-.436.041-.505.041-.1,0-.147-.041-.22-.142l-.459-.556c-.092-.115-.119-.115-.119-.165s.051-.05.1-.05c.17,0,.918.073,1.061.073.193,0,1.928.1,3.062.1h.748c.67,0,.84-.147.84-.8,0-.578,0-2.961-.069-3.347-.05-.335-.17-.505-.7-.505H49.165c-.51,0-.556.046-.872.6a8.792,8.792,0,0,1-2.116,2.58c-.023,0-.073,0-.073-.073,0-.046.675-1.566.8-1.855a21.138,21.138,0,0,0,1.373-4.89c.046-.51.069-.56.239-.56.073,0,2.314.652,2.314.987,0,.17-.17.22-.606.363-.234.073-.262.174-.6.946-.142.358-.432,1.033-.432,1.056,0,.193.193.22.312.22h1.855c.22,0,.7,0,.7-.657,0-.285-.023-1.735-.051-1.928-.023-.358-.243-2.043-.243-2.263a.1.1,0,0,1,.1-.092c.069,0,2.24.477,2.24.744,0,.119-.386.505-.413.606a27.225,27.225,0,0,0-.142,2.842c0,.624.243.748.8.748h.578c.551,0,.721-.028.891-.17.188-.17.937-1.134,1.18-1.134a6.91,6.91,0,0,1,2,1.589c0,.34-.477.34-1.276.34h-3.4c-.335,0-.551.046-.7.312a31.468,31.468,0,0,0-.1,3.154c0,.9,0,1.185.794,1.185h1.061c.987,0,1.111,0,1.281-.17.193-.17.863-1.084,1.084-1.084.165,0,2.117,1.226,2.117,1.543,0,.335-.5.335-1.272.335Z" transform="translate(361.231 5638.891)" fill="#fff"/>
    <path id="パス_29509" data-name="パス 29509" d="M54.77,28.414c.409,0,.505-.073.505-.289,0-.193-.386-2.745-.459-3.131-.046-.266-.335-1.492-.335-1.763,0-.073.1-.073.165-.073a10.815,10.815,0,0,1,1.685.266c.629.119.946.22.946.533,0,.142-.023.165-.243.409-.266.266-.266.386-.266,1.492.028,2.557.22,2.557.822,2.557h2.8c1.111,0,1.23,0,1.543-.409.744-1.015.817-1.111,1.061-1.111.363,0,2.314,1.4,2.314,1.809,0,.363-.436.363-1.281.363H57.64c-.413,0-.556.046-.556.381a32,32,0,0,0,.964,4.27c1.492,4.651,4.118,7.686,4.839,7.686.34,0,.748-.7,1.065-1.276a6.825,6.825,0,0,1,.7-1.281c.073,0,.073.124.073.17,0,.073-.317,2.677-.317,3.186a1.8,1.8,0,0,0,.266.987,1.323,1.323,0,0,1,.243.67.55.55,0,0,1-.629.606c-2.121,0-7.158-5.133-8.7-14.366-.142-.891-.193-1.033-.794-1.033H48.288c-.556,0-2.195,0-3.039.046a4.171,4.171,0,0,1-.528.073c-.069,0-.119-.073-.193-.17l-.482-.551c-.1-.1-.1-.124-.1-.147,0-.046.023-.073.1-.073.17,0,.918.073,1.061.1,1.106.051,2.172.073,3.3.073Zm-3.251,6.34c-.17,0-.583.023-.679.409-.051.239-.142,2.768-.142,4.238s0,1.717.409,1.717c.363,0,5.808-1.23,5.854-1.23.028,0,.124,0,.124.073,0,.234-3.448,1.662-6.46,2.626a30.777,30.777,0,0,0-4.412,1.492c-.142.073-.647.675-.79.675-.271,0-.946-2.53-.946-2.6,0-.1.073-.119.822-.193a30.527,30.527,0,0,0,3.324-.482.479.479,0,0,0,.22-.34c.023-.193.046-3.154.046-3.448,0-.193-.023-2.236-.023-2.332-.023-.578-.459-.578-.7-.578a19.7,19.7,0,0,0-2.19.069c-.05,0-.289.051-.34.051-.1,0-.142-.073-.211-.17l-.459-.551c-.1-.1-.119-.124-.119-.17,0-.023.041-.051.092-.051.17,0,.914.073,1.065.1,1.106.051,2.19.073,3.3.073H51.2a3.834,3.834,0,0,0,1.157-.073c.266-.119.987-1.276,1.23-1.276a4.215,4.215,0,0,1,1.758,1.662c0,.317-.482.317-1.3.317Zm7.2-11.331c.335,0,3.664.822,3.664,2.218a.892.892,0,0,1-.992.987c-.266,0-.312-.069-.822-.794a11.874,11.874,0,0,0-1.85-2.139c-.078-.051-.17-.152-.147-.193,0-.05.1-.078.147-.078" transform="translate(382.91 5638.869)" fill="#fff"/>
    <path id="パス_29510" data-name="パス 29510" d="M49.76,34.018c0-.1.073-.147.363-.34.17-.124,2.149-1.515,3.714-2.846,4.118-3.517,5.638-6.382,5.757-6.914.188-.744.188-.845.482-.845.023,0,2.263,1.061,2.263,1.469,0,.124-.046.147-.285.317-.147.069-.174.142-.174.239,0,.748,4.27,6.1,9.976,7.713.679.193.679.193.679.312,0,.147-.073.17-.679.363a2.87,2.87,0,0,0-1.543.987c-.092.17-.165.239-.308.239-.533,0-5.665-3.54-8.388-8.5-.266-.51-.312-.578-.409-.578s-.482.482-.675.721A23.9,23.9,0,0,1,49.98,34.087c-.073.023-.22.046-.22-.069m6.63,3.3c-1.781,0-2.387.018-3.039.069-.073,0-.432.051-.505.051-.1,0-.119-.051-.216-.142l-.459-.556c-.046-.073-.119-.147-.119-.174s.051-.041.1-.041c.17,0,.918.069,1.061.069,1.18.046,2.456.1,3.306.1h7.947c1.015,0,1.276,0,1.855-.794.363-.505.459-.652.679-.652.193,0,.262.046.817.51,1.226,1.005,1.226,1.033,1.226,1.249,0,.317-.115.317-1.249.317H60.411c-.243,0-.335,0-.335.069,0,0,1.134.964,1.134,1.23,0,.22,0,.22-.725.413-.193.069-.239.142-.845.937-.505.675-1.492,1.855-1.634,2-.1.124-.335.363-.335.578s.335.243.427.243c.317,0,2.58-.142,5.257-.409,1.735-.17,1.928-.193,1.928-.436,0-.363-1.423-1.589-1.423-1.878a.145.145,0,0,1,.165-.147,22.187,22.187,0,0,1,3.062,1.5c.652.386,2.149,1.253,2.149,2.773,0,.771-.482,1.3-.941,1.3-.7,0-1.207-.891-1.639-1.685-.459-.822-.675-.9-1.01-.9a106.154,106.154,0,0,0-11.184,2.218,4.8,4.8,0,0,1-.7.386.276.276,0,0,1-.243-.165,19.805,19.805,0,0,1-1.327-2.557c0-.17.124-.17.193-.17.17,0,.918.147,1.065.17a12.166,12.166,0,0,0,1.419.1c1.35,0,1.52,0,2.507-1.974a16.751,16.751,0,0,0,1.253-3.186c0-.4-.312-.4-.725-.4ZM61.4,32.834c1.18,0,1.23-.05,1.708-.629.386-.455.679-.813.8-.813a6.507,6.507,0,0,1,1.827,1.8c0,.266-.119.266-1.276.266H58.919c-1.469,0-2.172,0-3.062.069-.073,0-.432.05-.5.05s-.124-.05-.22-.142l-.459-.556c-.092-.1-.092-.124-.092-.17,0-.023.023-.046.069-.046.165,0,.914.069,1.061.069,1.185.073,2.341.1,3.3.1Z" transform="translate(403.778 5638.568)" fill="#fff"/>
    <path id="パス_29511" data-name="パス 29511" d="M56.059,28.814c-.092-.119-.119-.142-.119-.17,0-.046.069-.046.1-.046.459,0,2.672.142,3.182.142.675,0,.675-.17.675-1.781,0-.358-.028-1.786-.1-2.7,0-.119-.119-.675-.119-.822,0-.046.073-.046.1-.046a18.5,18.5,0,0,1,2.167.652c.124.073.266.165.266.335,0,.1-.436.459-.482.556-.119.216-.119.34-.119,1.35v2.025c0,.335.142.386.386.386a.85.85,0,0,0,.574-.165c.17-.1.872-.822,1.088-.822a.455.455,0,0,1,.34.165c.285.294.794.891.863.941.528.505.578.556.578.7a.361.361,0,0,1-.262.317c-.073.023-.409.092-.482.119a26.411,26.411,0,0,0-2.24,2.41c-.7.721-.771.794-.771,1.226,0,.51.216.556.794.679.817.193,3.085.84,3.085,2.672,0,.748-.409,1.111-.845,1.111-.578,0-.845-.487-1.469-1.763-.147-.266-.941-1.492-1.4-1.492-.216,0-.216.335-.216.629,0,.914.023,5.372.023,6.359,0,.317.119,1.809.119,2.144a1.149,1.149,0,0,1-1.276,1.106c-.578,0-.721-.234-.721-.578,0-.234.092-1.35.092-1.611.05-1.781.152-4.288.152-7.135,0-.266,0-.67-.243-.67s-3.379,2.718-4,2.718c-.05,0-.124,0-.124-.069a24.14,24.14,0,0,1,2.1-2.144c.96-.992,4.362-5.206,4.362-5.9,0-.22-.17-.243-.386-.243h-1.69c-.941,0-1.947.023-2.791.073-.078,0-.436.046-.505.046-.1,0-.147-.046-.22-.142Zm7.883,14.751c-.1-.119-.1-.119-.1-.147a.079.079,0,0,1,.073-.073c.142,0,.886.1,1.061.1.7.023,1.947.069,3.3.069h.941c.216,0,.652,0,.7-.528.046-.436.092-9.715.092-10.968,0-.239,0-.748-.578-.748-.6,0-2,0-2.842.073-.069,0-.409.051-.505.051-.073,0-.124-.051-.216-.147l-.459-.556c-.1-.119-.1-.119-.1-.165s.05-.051.069-.051.9.073,1.015.073c.243,0,2.195.1,3.012.1.578,0,.629-.317.629-.992,0-2.218-.05-3.3-.17-5.11,0-.193-.142-1.033-.142-1.226,0-.124.051-.17.193-.17.069,0,1.566.455,1.735.505.216.073.721.193.721.6,0,.119-.482.528-.528.652-.147.34-.216,4.339-.216,4.986,0,.289,0,.753.574.753,1.134,0,1.253,0,1.763-.679.7-.941.771-1.038.983-1.038.34,0,2.029,1.566,2.029,2.025,0,.312-.51.312-1.276.312H72.352c-.652,0-.7.363-.7.8,0,1.446.069,8.507.069,10.119,0,.9,0,1.327.629,1.327h.891a1.5,1.5,0,0,0,1.423-.721c.652-.849.721-.941,1.01-.941.22,0,2.337,1.566,2.337,1.979,0,.335-.505.335-1.3.335H68.161c-.583,0-2.2-.023-3.039.051-.073,0-.432.069-.51.069s-.119-.051-.211-.17Z" transform="translate(424.93 5638.854)" fill="#fff"/>
  </g>
</svg>
