<svg xmlns="http://www.w3.org/2000/svg" width="48.042" height="26.233" viewBox="0 0 48.042 26.233">
  <path id="パス_38724" data-name="パス 38724" d="M-20.5-19.314l.7.777c1.073-1.3,2.442-2.849,4.44-2.849a2.87,2.87,0,0,1,3.145,3.108c0,2.849-2.775,4.588-7.067,5.772l.222,1a9.407,9.407,0,0,1,2.22-.333,4.047,4.047,0,0,1,4.218,4.4c0,4.144-2.442,6.031-5.4,6.031A6,6,0,0,1-22.5-3.589a.5.5,0,0,0-.74-.037,2.09,2.09,0,0,0-1,1.258,1.7,1.7,0,0,0,.7,1.517A5.5,5.5,0,0,0-19.98.444,12.374,12.374,0,0,0-13.431-1.85c2.7-1.887,4.07-4.107,4.07-6.475a5.341,5.341,0,0,0-4.329-5.291v-.074a26.833,26.833,0,0,0,2.775-1.924,4.29,4.29,0,0,0,1.739-3.4c0-2.331-1.665-4.477-4.847-4.477a6.615,6.615,0,0,0-4.736,1.961Zm27.75-5.254H5.291L-6.623,1.665h1.961Zm5.217,5.254.7.777c1.073-1.3,2.442-2.849,4.44-2.849a2.87,2.87,0,0,1,3.145,3.108c0,2.849-2.775,4.588-7.067,5.772l.222,1a9.408,9.408,0,0,1,2.22-.333,4.047,4.047,0,0,1,4.218,4.4c0,4.144-2.442,6.031-5.4,6.031a6,6,0,0,1-4.477-2.183.5.5,0,0,0-.74-.037,2.09,2.09,0,0,0-1,1.258,1.7,1.7,0,0,0,.7,1.517,5.5,5.5,0,0,0,3.552,1.3A12.374,12.374,0,0,0,19.536-1.85c2.7-1.887,4.07-4.107,4.07-6.475a5.341,5.341,0,0,0-4.329-5.291v-.074a26.833,26.833,0,0,0,2.775-1.924,4.29,4.29,0,0,0,1.739-3.4c0-2.331-1.665-4.477-4.847-4.477a6.615,6.615,0,0,0-4.736,1.961Z" transform="translate(24.25 24.568)" fill="#80868b"/>
</svg>
