<svg xmlns="http://www.w3.org/2000/svg" width="390.641" height="180.388" viewBox="0 0 390.641 180.388">
  <g id="グループ_25911" data-name="グループ 25911" transform="translate(-9012.108 -5595.101)">
    <path id="パス_33624" data-name="パス 33624" d="M73.921,4.892a13.518,13.518,0,0,0,2.875.343,39.883,39.883,0,0,0,8.56-1.369c.308-.069,1.609-.72,1.917-.72,1.06,0,3.355.72,3.355,1.746,0,.651-.96.686-1.78.72-.789.034-4.281.514-5,.583-.137,0-.512.068-.512.375a.831.831,0,0,0,.306.512c.823.858.924.96.924,1.234,0,.206-.238,1.1-.274,1.266-.137,1.371-.375,3.15-.581,4.725,0,.171-.034.308-.034.375,0,.514.24.651,1.026.651.684,0,5-.308,5.924-.341.411-.034,2.156-.24,2.532-.24.926,0,3.39,1.54,3.39,2.533,0,.615-1.164.72-1.266.72-.274,0-1.746-.411-2.156-.515a14.086,14.086,0,0,0-4.142-.445,61.294,61.294,0,0,0-14.825,1.746c-.308.069-1.573.581-1.847.581-.137,0-3.492-1.472-3.492-3.149a.215.215,0,0,1,.238-.238,8.2,8.2,0,0,1,.994.2,16.275,16.275,0,0,0,2.978.308,73.25,73.25,0,0,0,8.182-.958c.684-.308.684-2.226.684-3.936,0-4.041-.274-4.931-1.232-4.931-.718,0-4.279,1.028-4.416,1.028a5.934,5.934,0,0,1-2.226-1.54c-.34-.48-.718-1.234-.581-1.369a1.19,1.19,0,0,1,.48.1" transform="translate(9043.51 5597.02)" fill="#fff"/>
    <path id="パス_33625" data-name="パス 33625" d="M104.806,4.945c-.24,0-7.428,1.678-7.6,1.747a14.491,14.491,0,0,1-1.541.651,7.119,7.119,0,0,1-2.327-1.234,6.939,6.939,0,0,1-.821-1.986c0-.169.035-.272.2-.272.035,0,.788.2.891.238a6.1,6.1,0,0,0,1.815.345c1.163,0,7.6-.548,9.38-1.267A13.242,13.242,0,0,1,106.688,2.1c.821,0,2.91,1.747,2.91,2.6,0,.308-1.267,1.234-1.472,1.472-.684.82-3.39,4.828-3.938,5.616a1.112,1.112,0,0,0-.274.684c0,.308.068.375,1.506,1.161,1.541.891,7.669,4.348,7.669,7.463a1.481,1.481,0,0,1-1.4,1.507c-.788,0-.924-.24-2.123-2.361-2.363-4.144-5.374-6.747-6.128-6.747-.341,0-.445.1-1.2.958A34.388,34.388,0,0,1,93.1,21.79a8.39,8.39,0,0,1-2.123.786c-.068,0-.238,0-.238-.2A10.7,10.7,0,0,1,92.309,21.1c8.935-6.47,13.008-15.336,12.907-15.883a.385.385,0,0,0-.411-.275" transform="translate(9056.89 5596.383)" fill="#fff"/>
    <path id="パス_33626" data-name="パス 33626" d="M111.6,4.06a14.877,14.877,0,0,0,2.158.137,102.287,102.287,0,0,0,14.173-1.984,11.661,11.661,0,0,1,1.4-.789c.788,0,4.039,3.287,4.039,4.452,0,.238,0,.617-1.2.891-1.2.238-6.436,2.157-7.154,3.115-.412.583-.549.992-1.746,4.382a18.706,18.706,0,0,1-8.626,10.576,8.958,8.958,0,0,1-2.363.994c-.137,0-.206-.068-.206-.172s.069-.169.686-.649a23.357,23.357,0,0,0,6.126-6.366,15.63,15.63,0,0,0,2.567-7.5,4.381,4.381,0,0,0-.445-2.02c-.274-.548-.309-.615-.309-.752,0-.274.515-.309.72-.309a5.175,5.175,0,0,1,1.849.309,10.274,10.274,0,0,0,1.334.445c.96,0,4.245-3.287,4.245-4.178,0-.238-.2-.512-.649-.512a60.051,60.051,0,0,0-12.222,2.121,26.091,26.091,0,0,1-2.875,1c-.821,0-3.492-2.192-3.492-3.39,0-.069.069-.137.238-.137.1,0,1.472.308,1.746.341" transform="translate(9068.414 5595.968)" fill="#fff"/>
    <path id="パス_33627" data-name="パス 33627" d="M141.58,9.587c1.335.821,1.472.958,1.472,1.266,0,.2-.375,1.164-.411,1.369-.137.617-.206,1.335-.206,6.059,0,.926.035,2.773.1,4.108.032.411.238,2.4.238,2.841,0,.343,0,1.506-.823,1.506-.957,0-2.121-1.472-2.121-2.4,0-.341.343-1.847.375-2.19.206-1.849.343-4.484.343-6.3,0-1.234,0-4.827-.889-4.827-.172,0-.309.137-.583.409-3.355,3.219-9.1,6.539-9.721,6.539-.1,0-.171-.068-.171-.206a.313.313,0,0,1,.1-.238c.891-.788,1.851-1.575,2.4-2.055,8.08-6.914,10.749-12.734,10.749-13.694a1.908,1.908,0,0,0-.274-.955,3.855,3.855,0,0,1-.238-.549A.337.337,0,0,1,142.265,0c.514,0,3.972,1.437,3.972,2.738a.87.87,0,0,1-.309.686,9.843,9.843,0,0,0-2.327,2.8c-.581.825-1.677,2.055-2.327,2.878a.555.555,0,0,0,.308.48" transform="translate(9080.367 5595.1)" fill="#fff"/>
    <path id="パス_33628" data-name="パス 33628" d="M150.658,4.892a13.517,13.517,0,0,0,2.875.343,39.869,39.869,0,0,0,8.56-1.369c.308-.069,1.609-.72,1.917-.72,1.06,0,3.355.72,3.355,1.746,0,.651-.96.686-1.78.72-.789.034-4.281.514-5,.583-.137,0-.512.068-.512.375a.831.831,0,0,0,.306.512c.823.858.924.96.924,1.234,0,.206-.238,1.1-.274,1.266-.137,1.371-.375,3.15-.581,4.725,0,.171-.034.308-.034.375,0,.514.24.651,1.026.651.684,0,5-.308,5.924-.341.411-.034,2.156-.24,2.532-.24.926,0,3.39,1.54,3.39,2.533,0,.615-1.164.72-1.266.72-.274,0-1.746-.411-2.158-.515a14.063,14.063,0,0,0-4.141-.445A61.294,61.294,0,0,0,150.9,18.791c-.308.069-1.573.581-1.847.581-.137,0-3.492-1.472-3.492-3.149a.215.215,0,0,1,.238-.238,8.2,8.2,0,0,1,.994.2,16.274,16.274,0,0,0,2.978.308,73.25,73.25,0,0,0,8.182-.958c.684-.308.684-2.226.684-3.936,0-4.041-.274-4.931-1.232-4.931-.718,0-4.279,1.028-4.416,1.028a5.934,5.934,0,0,1-2.226-1.54c-.34-.48-.718-1.234-.581-1.369a1.19,1.19,0,0,1,.48.1" transform="translate(9090.36 5597.02)" fill="#fff"/>
    <path id="パス_33629" data-name="パス 33629" d="M174.3,10.853c0-.068,0-.274.48-.274a14.1,14.1,0,0,1,3.046.548,18.545,18.545,0,0,0,2.123.651c.788,0,1.678-1.437,2.5-2.772.341-.583,1.643-2.843,1.643-3.733a.423.423,0,0,0-.445-.478c-.206,0-5.991,1.369-7.293,1.849a14.676,14.676,0,0,1-1.746.718,3.559,3.559,0,0,1-2.464-1.746,6.688,6.688,0,0,1-.823-1.78c0-.1.069-.24.172-.24.069,0,.96.377,1.061.411a4.418,4.418,0,0,0,1.746.445c.48,0,9.38-1.3,10.1-1.883.82-.651.889-.718,1.2-.718.614,0,2.224,1.232,2.738,1.643a1.157,1.157,0,0,1,.411.889c0,.549-.1.617-1.1,1.234-.686.445-.891.754-2.67,3.561a29.035,29.035,0,0,0-2.124,3.355c0,.308.172.375,1.714,1.164,1.917.957,5.2,3.113,5.2,4.964a.934.934,0,0,1-.924,1.06c-1.094,0-1.437-.309-4.414-3.184-.617-.581-2.3-1.984-2.979-1.984a1.708,1.708,0,0,0-1.163.684c-5.753,5.922-12.29,8.318-12.907,8.318a.182.182,0,0,1-.169-.172,12.954,12.954,0,0,1,1.984-1.5,58.686,58.686,0,0,0,9.277-7.568c.24-.272.581-.614.514-.992-.137-.754-4.69-1.984-4.69-2.464" transform="translate(9103.586 5596.229)" fill="#fff"/>
    <path id="パス_33630" data-name="パス 33630" d="M0,53.942c0-.649.308-.992,1.3-1.609A29.056,29.056,0,0,0,4.656,49.7c.171-.171.548-.512.684-.512s.172.308.172.411c0,1.609-1.609,5.751-3.87,5.751a1.669,1.669,0,0,1-.651-.139A1.377,1.377,0,0,1,0,53.942M13.419,56.2c0,.514,0,2.773-1.813,2.773-.754,0-.823-.206-1.541-2.19A9.708,9.708,0,0,0,8.8,54.353c-.137-.24-.206-.309-.206-.411a.126.126,0,0,1,.137-.137c.24,0,1.369.445,1.609.445.445,0,.617-.375.686-.924.171-1.609.171-5.031.171-6.88,0-1.643-.069-2.26-.994-2.26-.2,0-4.313.583-6.333,1.1a10.077,10.077,0,0,1-1.369.377c-.754,0-2.466-2.327-2.466-3.013,0-.169.035-.306.24-.306a1.858,1.858,0,0,1,.651.2,10.1,10.1,0,0,0,3.047.343c.788,0,4.484-.206,5.511-.242,1.3-.068,1.643-.306,1.643-1.437a12.564,12.564,0,0,0-.718-4.382c-.069-.171-.651-.718-.651-.891,0-.1.377-.341,1.163-.341,2.363,0,3.218,1.506,3.218,1.781a7.305,7.305,0,0,1-.615,1.129,8.564,8.564,0,0,0-.308,2.636c0,1.061.445,1.23,1.335,1.23a30.672,30.672,0,0,0,3.321-.341c.445-.068,2.258-.514,2.635-.514a7.191,7.191,0,0,1,3.321,1.164c.377.24.855.514.855,1.1,0,.651-.754.684-.891.684-.512,0-2.738-.375-3.218-.445-1.3-.137-3.8-.172-4.073-.172-2.944,0-3.252,0-3.252,1.952,0,1.644.171,8.935.171,10.407m8.251-2.464A12.193,12.193,0,0,0,18.9,49.526a7.8,7.8,0,0,1-1.369-1.438c0-.171.171-.171.24-.171,1.813,0,7.325,3.321,7.325,6.2,0,.789-.411,1.918-1.54,1.883-.958,0-1.266-.788-1.883-2.258" transform="translate(9012.108 5616.83)" fill="#fff"/>
    <path id="パス_33631" data-name="パス 33631" d="M40.79,41.9c.169,0,.478-.034.619-.034,1.717,0,1.97,1.268,1.97,1.506,0,.96-1.154,1.061-2.336,1.061-.646,0-3.46-.068-4.022-.068-3.882,0-10.324.445-11,.615-.338.069-1.857.617-2.193.617-1.21,0-2.506-2.121-2.506-3.285,0-.206.085-.412.226-.412s.815.377.957.412a12.783,12.783,0,0,0,3.431.306c.929,0,10.746-.445,14.855-.718" transform="translate(9024.408 5620.658)" fill="#fff"/>
    <path id="パス_33632" data-name="パス 33632" d="M49.784,47.774c-2.055,4.45-5.648,6.5-6.334,6.5a.159.159,0,0,1-.169-.172,9.649,9.649,0,0,1,1.367-1.813c3.765-5.17,4.142-8.9,4.142-10.03a7.5,7.5,0,0,0-.581-2.944,2.505,2.505,0,0,1-.137-.615c0-.1.034-.172.172-.172.238,0,3.867,1.164,3.867,2.91,0,.1-1.746,5.033-2.327,6.333m5.545,3.184c0-.171.171-1.061.206-1.234.1-.649.137-3.355.137-4.21a21.029,21.029,0,0,0-.651-6.436,9.009,9.009,0,0,1-.446-1.232c0-.137.137-.171.206-.171.172,0,3.765.617,3.765,2.395,0,.412-.48,2.192-.548,2.569-.137.923-.274,5.065-.274,6.2,0,.445.034,1.131.651,1.131,1.026,0,4.176-2.261,7.462-5.581.583-.581,3.492-3.662,3.629-3.662a.146.146,0,0,1,.137.135c0,.274-1.984,4.519-7.975,9.792a19.134,19.134,0,0,0-2.363,2.19c-.581.649-.889.891-1.129.924-.992.171-2.807-1.849-2.807-2.807" transform="translate(9030.429 5618.102)" fill="#fff"/>
    <path id="パス_33633" data-name="パス 33633" d="M78.934,47.8c0,.24-.821.889-.923,1.061-.1.137-1.4,3.287-1.714,3.869-3.285,6.606-8.626,8.8-9.071,8.8-.137,0-.2-.068-.2-.169a23.27,23.27,0,0,1,1.813-1.714,23.088,23.088,0,0,0,6.709-12.905c0-.411-.068-1.028-.821-1.028a42.379,42.379,0,0,0-5.444,1.028,21.434,21.434,0,0,1-2.464.615,3,3,0,0,1-2.7-2.6c0-.2.068-.341.24-.341a3.192,3.192,0,0,1,.514.169,10,10,0,0,0,2.157.242c2.19,0,11.056-.96,13.453-1.3.411-.069,2.19-.615,2.567-.615.411,0,4.315.752,4.315,2.153,0,.618-.549.823-1,.823-.375,0-2.053-.274-2.395-.306-.718-.069-1.678-.172-2.432-.172a29.328,29.328,0,0,0-3.456.1.414.414,0,0,0-.24.514,10.563,10.563,0,0,1,1.1,1.78m-7.6-10.064c1.063,0,1.438-.1,4.862-.857a13.925,13.925,0,0,1,2.738-.411c.718,0,1.952.135,1.952,1.129s-.581,1.061-2.6,1.269c-1.746.2-4.041.649-4.553.751-.172.034-1.507.309-1.609.309-1.678,0-2.74-2.395-2.569-2.464,0,0,1.506.274,1.78.274m18.35,3.595c0,.512-.412,1.3-1.028,1.3-.48,0-.788-.272-1.746-1.573a9.829,9.829,0,0,0-2.327-2.123c-.138-.1-.48-.411-.48-.548s.308-.275.581-.275c3.081,0,5,2.02,5,3.219M92.7,37.978a.975.975,0,0,1-.891,1.028c-.718,0-1.163-.583-1.746-1.372a8.159,8.159,0,0,0-2.875-2.089c-.343-.135-.411-.272-.411-.375,0-.341,1.026-.341,1.266-.341,1.849,0,4.656,1.164,4.656,3.15" transform="translate(9043.146 5616.363)" fill="#fff"/>
    <path id="パス_33634" data-name="パス 33634" d="M95.637,45.764c.581.375,1.3.718,1.3,1.164,0,.169-.309.957-.343,1.163a35.482,35.482,0,0,0-.137,4.93c0,.891,0,1.984.069,3.285,0,.343.2,2.089.2,2.464,0,.275,0,1.3-.752,1.3-.823,0-1.714-1.335-1.714-2.021a7.175,7.175,0,0,1,.172-1.232,43.154,43.154,0,0,0,.375-5.888c0-.855,0-3.765-.684-3.765-.1,0-.171.068-.718.548a24.568,24.568,0,0,1-7.668,5.134.2.2,0,0,1-.206-.206c0-.169,1.028-1.026,1.371-1.3C93.72,45.73,96.355,40.457,96.355,39.6a1.82,1.82,0,0,0-.238-.823,3.873,3.873,0,0,1-.275-.548.375.375,0,0,1,.377-.343c.377,0,3.285,1.2,3.285,2.363a.809.809,0,0,1-.274.617,3.917,3.917,0,0,0-1.061,1.1c-.752,1.129-.957,1.367-2.669,3.559a.342.342,0,0,0,.137.24" transform="translate(9051.481 5618.231)" fill="#fff"/>
    <path id="パス_33635" data-name="パス 33635" d="M109.258,53.472A23.9,23.9,0,0,0,105.9,56.28c-.649.789-.718.857-1.23.857-1.851,0-4.382-2.192-4.382-3.559,0-.242.032-1.815.341-1.815a8.42,8.42,0,0,1,1.026.651,5.674,5.674,0,0,0,2.329.786c1.678,0,10.75-6.057,16.432-11.673.548-.548,1.506-1.5,1.573-1.5a.219.219,0,0,1,.172.169c0,.309-4.005,6.709-12.907,13.282m-2.807-11.261c-.923,0-1.266-.549-2.395-2.26a7.694,7.694,0,0,0-3.116-2.807c-.137-.068-.308-.172-.308-.309s.274-.308.752-.308c3.664,0,6.539,1.952,6.539,3.972a1.513,1.513,0,0,1-1.472,1.712" transform="translate(9060.489 5617.4)" fill="#fff"/>
    <path id="パス_33636" data-name="パス 33636" d="M126.976,37.937c0-.345.478-.345.752-.345a3.2,3.2,0,0,1,3.184,1.92c0,.411-.341.855-1.028,1.71-.169.242-.274.378-.274.548,0,.275.412.275.549.275a19.444,19.444,0,0,0,5.2-1.371,6.357,6.357,0,0,1,1.609-.546c.308,0,.478.1,1.881.921.206.1,1.1.583,1.268.688a1.238,1.238,0,0,1,.651.854c0,.478-.24.617-1.371,1.3-.375.238-.512.445-1.71,2.292a41.857,41.857,0,0,1-12.256,12.873,23.443,23.443,0,0,1-6.811,3.287.308.308,0,0,1-.308-.309c0-.137.1-.206,1.163-.788,10.441-5.751,16.946-17.424,16.946-18.486a.371.371,0,0,0-.378-.377c-.068,0-4.791,1.061-5.613,1.061-.206,0-1.131-.1-1.335-.1-.651,0-.718.068-2.157,1.709a25.6,25.6,0,0,1-4.658,4.452A10.449,10.449,0,0,1,119,51.322c-.171,0-.238-.1-.238-.206a28.982,28.982,0,0,1,2.7-2.567c2.772-2.773,6.025-7.5,5.751-9.55-.035-.171-.24-.926-.24-1.061M143.1,39.1c0,.583-.411,1.337-.992,1.337-.48,0-.754-.206-1.815-1.472a10.8,10.8,0,0,0-2.43-2.021c-.171-.1-.514-.343-.514-.478s.274-.309.581-.309c4.382,0,5.17,2.533,5.17,2.944m.821-5.168c1.4.821,1.4,1.609,1.4,1.952a.927.927,0,0,1-.855.992c-.718,0-1.061-.345-1.815-1.129a8.033,8.033,0,0,0-3.149-1.68c-.343-.1-.446-.272-.446-.375,0-.272.891-.48,1.232-.48a6.308,6.308,0,0,1,3.629.72" transform="translate(9071.494 5615.376)" fill="#fff"/>
    <path id="パス_33637" data-name="パス 33637" d="M152.962,39.688c-.24,0-7.428,1.678-7.6,1.747a14.818,14.818,0,0,1-1.541.649,7.147,7.147,0,0,1-2.327-1.232,6.976,6.976,0,0,1-.821-1.986c0-.171.035-.274.2-.274.035,0,.788.206.891.24a6.127,6.127,0,0,0,1.815.343c1.163,0,7.6-.548,9.38-1.266a13.085,13.085,0,0,1,1.883-1.063c.821,0,2.91,1.746,2.91,2.6,0,.308-1.268,1.232-1.472,1.472-.685.82-3.39,4.827-3.938,5.614a1.12,1.12,0,0,0-.274.684c0,.308.068.375,1.506,1.163,1.541.891,7.669,4.348,7.669,7.463a1.481,1.481,0,0,1-1.4,1.507c-.788,0-.924-.242-2.123-2.363-2.363-4.142-5.374-6.745-6.128-6.745-.341,0-.444.1-1.2.958a34.391,34.391,0,0,1-9.14,7.326,8.416,8.416,0,0,1-2.123.788c-.068,0-.238,0-.238-.206a10.591,10.591,0,0,1,1.573-1.266c8.935-6.47,13.008-15.336,12.907-15.883a.385.385,0,0,0-.411-.275" transform="translate(9084.057 5617.595)" fill="#fff"/>
    <path id="パス_33638" data-name="パス 33638" d="M166.1,43.21c-1.2,0-1.2.238-1.2,2.19,0,.684.238.855,1.641,1.369.858.341,2.773,1.061,2.773,2.876,0,.137-.032,1.4-.889,1.4-.583,0-.754-.378-1.472-1.781-.343-.649-1.232-2.258-1.712-2.258-.137,0-.341.137-.341.786,0,1.129.032,6.128.032,7.156-.032,1.2.1,6.47.1,7.531a1.508,1.508,0,0,1-1.577,1.609.66.66,0,0,1-.752-.718c0-.308.068-2.74.1-3.115.034-.823.137-8.628.137-9.655,0-.069,0-.444-.1-.444s-3.629,7.017-4.654,7.017a.073.073,0,0,1-.069-.068c0-.068,1.061-2.361,1.266-2.807a51.955,51.955,0,0,0,3.218-10.27c0-.82-.754-.82-1.06-.82s-1.714.032-2.363.068a3.91,3.91,0,0,1-.617.1c-.1,0-.171-.1-.238-.238l-.549-.789c-.1-.137-.137-.169-.137-.2a.09.09,0,0,1,.1-.1c.548,0,3.7.238,4.416.238.924,0,.924,0,.924-5.647,0-.515-.24-2.912-.24-3.083,0-.069.034-.137.1-.137a20.921,20.921,0,0,1,2.19.651c.684.171.924.274.924.617,0,.238-.1.308-.445.581s-.411.445-.411,1.061c0,.581-.24,4.894-.24,5.305,0,.206.034.651.718.651a1.014,1.014,0,0,0,.891-.581c.343-.651.445-.855.718-.855a8.373,8.373,0,0,1,2.569,1.95c0,.412-.718.412-1.507.412Zm15.1,5.408c-.375,0-.855,0-.855.478,0,.617,2.258,6.06,8.078,9.517.514.308,1.3.754,1.3.924s-.24.172-.343.172a4.471,4.471,0,0,0-1.746.375,7.951,7.951,0,0,1-1.54.924c-.308,0-3.525-3.8-5.376-8.661-.1-.238-.478-1.4-.581-1.643,0-.035-.068-.137-.137-.137-.137,0-.137.206-.137.377,0,1.849.069,10.03.069,11.707,0,.549-.069.857-.343,1.061a2.546,2.546,0,0,1-1.4.444c-.514,0-.718-.238-.718-.718,0-1.2.238-3.149.274-4.347.034-1.678.135-7.086.135-7.154,0-.515-.034-.652-.2-.652-.137,0-.2.069-.478.515-1.952,3.149-4.108,6.468-8.114,8.934a5.684,5.684,0,0,1-1.234.583c-.068,0-.2-.035-.2-.137a7.334,7.334,0,0,1,1.164-1.234,28.551,28.551,0,0,0,7.325-10.612c0-.718-.546-.718-1.3-.718-.823,0-2.636.034-3.424.1-.1,0-.617.068-.718.068-.137,0-.206-.068-.309-.2l-.649-.789c-.137-.171-.172-.171-.172-.238s.068-.069.137-.069c.24,0,1.3.1,1.507.1.274,0,2.738.137,4.347.137h1.06c.96,0,1.2-.206,1.2-1.131,0-.821,0-4.21-.1-4.758-.069-.48-.238-.718-.992-.718h-3.081c-.72,0-.789.068-1.234.855-.992,1.71-2.7,3.662-3.012,3.662-.034,0-.1,0-.1-.1,0-.069.957-2.226,1.129-2.636a29.846,29.846,0,0,0,1.952-6.949c.068-.72.1-.788.341-.788.1,0,3.287.924,3.287,1.4,0,.238-.242.308-.857.514-.343.1-.377.238-.857,1.334-.2.514-.615,1.472-.615,1.507,0,.274.274.308.446.308h2.635c.308,0,.994,0,.994-.924,0-.411-.035-2.464-.069-2.738-.035-.514-.341-2.91-.341-3.218a.147.147,0,0,1,.137-.137c.1,0,3.182.683,3.182,1.061,0,.171-.548.718-.581.855a37.023,37.023,0,0,0-.206,4.039c0,.891.343,1.061,1.129,1.061h.823c.786,0,1.028-.034,1.266-.238.274-.242,1.335-1.609,1.678-1.609a9.88,9.88,0,0,1,2.841,2.258c0,.48-.684.48-1.813.48h-4.827c-.48,0-.789.068-.994.444a44.232,44.232,0,0,0-.138,4.484c0,1.266,0,1.678,1.132,1.678h1.5c1.4,0,1.577,0,1.815-.24.274-.24,1.234-1.54,1.54-1.54.242,0,3.013,1.746,3.013,2.19,0,.48-.718.48-1.815.48Z" transform="translate(9095.504 5615.377)" fill="#fff"/>
    <path id="パス_33639" data-name="パス 33639" d="M197.9,40.653c.581,0,.718-.1.718-.409,0-.274-.548-3.9-.649-4.452-.069-.377-.48-2.123-.48-2.5,0-.1.137-.1.238-.1a14.865,14.865,0,0,1,2.4.377c.889.169,1.335.308,1.335.752,0,.206-.035.24-.343.583-.377.375-.377.548-.377,2.121.034,3.629.309,3.629,1.164,3.629h3.972c1.573,0,1.746,0,2.19-.581,1.06-1.437,1.164-1.573,1.506-1.573.514,0,3.287,1.984,3.287,2.566,0,.515-.617.515-1.815.515h-9.072c-.581,0-.786.068-.786.546a45.388,45.388,0,0,0,1.367,6.06c2.124,6.606,5.854,10.919,6.882,10.919.48,0,1.061-.992,1.506-1.815.172-.308.821-1.812.994-1.812.1,0,.1.169.1.238,0,.1-.444,3.8-.444,4.519a2.547,2.547,0,0,0,.377,1.4,1.882,1.882,0,0,1,.343.958.778.778,0,0,1-.891.857c-3.013,0-10.167-7.293-12.359-20.4-.2-1.267-.274-1.472-1.129-1.472h-9.243c-.786,0-3.115,0-4.313.068a5.763,5.763,0,0,1-.754.1c-.1,0-.171-.1-.274-.24l-.684-.788c-.137-.137-.137-.171-.137-.206,0-.068.034-.1.137-.1.24,0,1.3.1,1.506.137,1.575.068,3.081.1,4.69.1Zm-4.621,9c-.242,0-.823.034-.96.583-.068.34-.2,3.936-.2,6.023s0,2.432.581,2.432c.514,0,8.249-1.746,8.318-1.746.035,0,.172,0,.172.1,0,.343-4.9,2.363-9.177,3.73-5,1.577-5.851,1.851-6.263,2.124-.2.1-.923.958-1.129.958-.377,0-1.337-3.595-1.337-3.7,0-.139.1-.172,1.164-.275a43.12,43.12,0,0,0,4.725-.684.686.686,0,0,0,.308-.48c.035-.274.068-4.484.068-4.894,0-.274-.032-3.184-.032-3.321-.035-.821-.652-.821-1-.821a26.579,26.579,0,0,0-3.113.1c-.069,0-.411.068-.48.068-.137,0-.206-.1-.308-.238l-.651-.789c-.139-.135-.171-.171-.171-.238,0-.034.068-.069.137-.069.238,0,1.3.1,1.5.137,1.577.069,3.116.1,4.69.1h2.706a5.44,5.44,0,0,0,1.644-.1c.375-.171,1.4-1.813,1.746-1.813a5.964,5.964,0,0,1,2.5,2.363c0,.445-.684.445-1.849.445Zm10.235-16.089c.478,0,5.2,1.164,5.2,3.149a1.264,1.264,0,0,1-1.4,1.4c-.377,0-.444-.1-1.163-1.129a17.1,17.1,0,0,0-2.636-3.047c-.1-.068-.24-.206-.206-.274,0-.068.137-.1.206-.1" transform="translate(9110.7 5615.363)" fill="#fff"/>
    <path id="パス_33640" data-name="パス 33640" d="M206.51,48.393c0-.137.1-.206.514-.48.238-.171,3.046-2.157,5.271-4.039,5.854-5,8.011-9.071,8.182-9.824.274-1.061.274-1.2.684-1.2.035,0,3.218,1.506,3.218,2.087,0,.172-.068.2-.411.446-.206.1-.238.2-.238.341,0,1.061,6.057,8.661,14.173,10.955.957.272.957.272.957.445,0,.206-.1.24-.957.514a4.015,4.015,0,0,0-2.192,1.4c-.137.24-.24.343-.445.343-.754,0-8.045-5.033-11.915-12.084-.375-.72-.444-.821-.581-.821s-.684.683-.958,1.026c-6.059,7.6-13.762,10.75-14.994,10.989-.1.035-.308.068-.308-.1m9.414,4.688c-2.533,0-3.389.035-4.313.1-.1,0-.615.068-.718.068-.137,0-.171-.068-.308-.2l-.652-.789a1.838,1.838,0,0,1-.171-.238c0-.069.069-.069.137-.069.24,0,1.3.1,1.506.1,1.678.069,3.492.139,4.691.139h11.3c1.438,0,1.814,0,2.636-1.131.512-.718.649-.923.958-.923.274,0,.375.068,1.163.718,1.746,1.438,1.746,1.472,1.746,1.781,0,.443-.171.443-1.78.443H221.641c-.343,0-.48,0-.48.1,0,0,1.609,1.367,1.609,1.746,0,.308,0,.308-1.028.581-.274.1-.341.2-1.2,1.335-.718.958-2.121,2.636-2.327,2.841-.137.171-.478.514-.478.821s.478.341.615.341c.445,0,3.662-.2,7.463-.581,2.466-.238,2.74-.274,2.74-.617,0-.512-2.021-2.258-2.021-2.669,0-.171.138-.206.24-.206a31.859,31.859,0,0,1,4.348,2.123c.924.548,3.046,1.78,3.046,3.938,0,1.094-.685,1.847-1.335,1.847-.992,0-1.71-1.266-2.327-2.4-.651-1.164-.958-1.266-1.438-1.266a149.455,149.455,0,0,0-15.883,3.15,7.43,7.43,0,0,1-.992.548.389.389,0,0,1-.343-.242,26.906,26.906,0,0,1-1.883-3.629c0-.238.171-.238.274-.238.238,0,1.3.2,1.506.238a17.948,17.948,0,0,0,2.02.137c1.918,0,2.156,0,3.559-2.806a23.831,23.831,0,0,0,1.781-4.521c0-.581-.446-.581-1.027-.581Zm7.12-6.366c1.678,0,1.746-.068,2.432-.891.548-.649.957-1.163,1.129-1.163a9.282,9.282,0,0,1,2.6,2.567c0,.377-.171.377-1.814.377H219.52c-2.089,0-3.083,0-4.35.1-.1,0-.615.069-.718.069s-.171-.069-.308-.206l-.651-.786c-.137-.137-.137-.171-.137-.24,0-.035.034-.068.1-.068.238,0,1.3.1,1.506.1,1.677.1,3.321.137,4.69.137Z" transform="translate(9125.34 5615.156)" fill="#fff"/>
    <path id="パス_33641" data-name="パス 33641" d="M231.388,41.214c-.137-.169-.172-.2-.172-.238,0-.068.1-.068.137-.068.652,0,3.8.2,4.521.2.958,0,.958-.24.958-2.535,0-.512-.035-2.532-.137-3.831,0-.172-.172-.96-.172-1.164,0-.069.1-.069.137-.069a26.328,26.328,0,0,1,3.081.924c.172.1.377.24.377.48,0,.137-.615.649-.684.786-.172.309-.172.48-.172,1.918V40.5c0,.48.206.549.549.549a1.217,1.217,0,0,0,.821-.242c.24-.137,1.232-1.163,1.54-1.163a.645.645,0,0,1,.48.24c.411.411,1.129,1.266,1.234,1.334.752.718.82.788.82.994a.518.518,0,0,1-.375.446c-.1.032-.581.137-.686.169a39.677,39.677,0,0,0-3.182,3.424c-.994,1.028-1.1,1.129-1.1,1.746,0,.718.308.788,1.129.958,1.164.275,4.382,1.2,4.382,3.8,0,1.061-.583,1.577-1.2,1.577-.821,0-1.2-.686-2.089-2.5-.2-.377-1.334-2.123-1.986-2.123-.308,0-.308.48-.308.889,0,1.3.034,7.636.034,9.038,0,.445.172,2.567.172,3.046a1.634,1.634,0,0,1-1.815,1.577c-.821,0-1.028-.343-1.028-.823,0-.341.137-1.917.137-2.293C236.866,58.6,237,55.045,237,51c0-.375,0-.957-.343-.957s-4.791,3.867-5.682,3.867c-.068,0-.171,0-.171-.1a34.851,34.851,0,0,1,2.978-3.046c1.369-1.4,6.2-7.394,6.2-8.388,0-.308-.24-.341-.548-.341h-2.395c-1.335,0-2.773.034-3.972.1-.1,0-.617.069-.718.069-.137,0-.206-.069-.309-.206Zm11.195,20.951c-.137-.171-.137-.171-.137-.206a.108.108,0,0,1,.1-.1c.2,0,1.266.137,1.506.137.992.034,2.773.1,4.688.1h1.335c.309,0,.926,0,.994-.752.068-.617.137-13.8.137-15.577,0-.341,0-1.061-.821-1.061-.857,0-2.841,0-4.039.1-.1,0-.581.068-.718.068-.1,0-.172-.068-.309-.2l-.651-.789c-.137-.171-.137-.171-.137-.238s.069-.069.1-.069,1.268.1,1.438.1c.341,0,3.115.137,4.278.137.823,0,.891-.445.891-1.4,0-3.149-.068-4.69-.238-7.257,0-.272-.206-1.472-.206-1.744,0-.172.069-.242.274-.242.1,0,2.224.651,2.466.72.306.1,1.026.274,1.026.857,0,.171-.684.752-.752.923-.206.48-.309,6.162-.309,7.086,0,.411,0,1.061.821,1.061,1.609,0,1.781,0,2.5-.958.992-1.335,1.1-1.472,1.4-1.472.48,0,2.876,2.224,2.876,2.876,0,.443-.718.443-1.815.443H254.53c-.924,0-.992.515-.992,1.131,0,2.055.1,12.084.1,14.377,0,1.267,0,1.883.891,1.883H255.8a2.125,2.125,0,0,0,2.02-1.028c.924-1.2,1.028-1.334,1.438-1.334.308,0,3.321,2.224,3.321,2.806,0,.48-.718.48-1.849.48H248.574c-.823,0-3.116-.034-4.315.069-.1,0-.617.1-.718.1s-.172-.069-.309-.24Z" transform="translate(9140.175 5615.35)" fill="#fff"/>
    <path id="パス_33642" data-name="パス 33642" d="M57.663,86.171c0-.18.25-.18.393-.18a1.674,1.674,0,0,1,1.667,1c0,.216-.179.449-.538.9-.089.126-.142.2-.142.288,0,.143.213.143.285.143a10.128,10.128,0,0,0,2.723-.718,3.4,3.4,0,0,1,.842-.285c.161,0,.25.053.986.482.108.056.573.306.664.359a.653.653,0,0,1,.34.448c0,.253-.127.324-.717.681-.2.126-.269.234-.9,1.2a21.931,21.931,0,0,1-6.415,6.737,12.182,12.182,0,0,1-3.566,1.718.159.159,0,0,1-.159-.159c0-.072.053-.108.609-.412,5.463-3.01,8.868-9.119,8.868-9.674a.194.194,0,0,0-.2-.2c-.035,0-2.506.556-2.938.556-.106,0-.591-.053-.7-.053-.34,0-.377.034-1.131.894a13.41,13.41,0,0,1-2.435,2.33,5.462,5.462,0,0,1-1.72.949.11.11,0,0,1-.126-.108,15.4,15.4,0,0,1,1.416-1.343c1.451-1.451,3.153-3.925,3.008-5-.016-.089-.124-.483-.124-.554m8.438.609c0,.3-.214.7-.52.7-.25,0-.393-.106-.949-.768a5.655,5.655,0,0,0-1.272-1.058c-.089-.055-.269-.179-.269-.251s.143-.159.306-.159c2.293,0,2.7,1.325,2.7,1.54m.43-2.706c.734.432.734.842.734,1.021a.485.485,0,0,1-.448.52c-.377,0-.556-.179-.949-.591a4.2,4.2,0,0,0-1.649-.878c-.179-.053-.232-.143-.232-.2,0-.143.465-.25.644-.25a3.311,3.311,0,0,1,1.9.375" transform="translate(9033.931 5646.2)" fill="#fff"/>
    <path id="パス_33643" data-name="パス 33643" d="M68.661,91.319a6.236,6.236,0,0,1-3.313,3.4.083.083,0,0,1-.09-.089,5.042,5.042,0,0,1,.715-.949c1.971-2.706,2.169-4.659,2.169-5.25a3.955,3.955,0,0,0-.3-1.54,1.289,1.289,0,0,1-.072-.322c0-.055.018-.09.089-.09.126,0,2.026.609,2.026,1.522,0,.053-.913,2.633-1.219,3.314m2.9,1.667c0-.09.09-.557.108-.644.055-.341.071-1.757.071-2.206a10.977,10.977,0,0,0-.34-3.366,4.712,4.712,0,0,1-.232-.646c0-.072.071-.089.106-.089.09,0,1.971.322,1.971,1.253,0,.216-.25,1.147-.287,1.345-.072.483-.143,2.649-.143,3.242,0,.232.018.591.34.591.538,0,2.187-1.184,3.906-2.92.3-.3,1.828-1.917,1.9-1.917a.078.078,0,0,1,.071.071c0,.143-1.039,2.366-4.174,5.123a10.324,10.324,0,0,0-1.237,1.147c-.3.341-.465.465-.591.485-.519.09-1.469-.966-1.469-1.469" transform="translate(9041.335 5647.626)" fill="#fff"/>
    <path id="パス_33644" data-name="パス 33644" d="M90.2,88.244c.106,0,.3-.018.393-.018,1.094,0,1.255.662,1.255.789,0,.5-.734.554-1.487.554-.412,0-2.2-.035-2.561-.035-2.472,0-6.576.234-7.006.324-.216.034-1.182.322-1.4.322-.77,0-1.593-1.111-1.593-1.72,0-.108.053-.216.143-.216s.519.2.609.216a9.822,9.822,0,0,0,2.186.161c.591,0,6.843-.232,9.459-.377" transform="translate(9048.992 5648.964)" fill="#fff"/>
    <path id="パス_33645" data-name="パス 33645" d="M91.256,87.181a4.229,4.229,0,0,0,1.487.375,46.241,46.241,0,0,0,6.755-.842c.556-.25.626-.287.752-.287.395,0,.681.251,1.237.734.807.718.913.915.913,1.166,0,.232-.09.322-.412.644a2.987,2.987,0,0,0-.7,1.127,18.226,18.226,0,0,1-9.246,8.349.118.118,0,0,1-.124-.106c0-.072.055-.108.234-.234a23.3,23.3,0,0,0,7.075-7.094,10.107,10.107,0,0,0,1.218-3.028c0-.3-.3-.322-.393-.322a59.159,59.159,0,0,0-6.45,1.288,6.458,6.458,0,0,1-.894.4c-.412,0-1.847-.9-1.847-1.881,0-.341.055-.395.163-.395.035,0,.2.108.232.108m14.422-1.2a1.729,1.729,0,1,1-3.458,0,1.7,1.7,0,0,1,1.755-1.7,1.668,1.668,0,0,1,1.7,1.7m-2.867.055a1.139,1.139,0,0,0,2.276-.019,1.2,1.2,0,0,0-1.147-1.127,1.152,1.152,0,0,0-1.129,1.147" transform="translate(9056.967 5646.553)" fill="#fff"/>
    <path id="パス_33646" data-name="パス 33646" d="M103.491,91.644c0-.072.053-.108.269-.251.126-.09,1.594-1.129,2.759-2.115,3.063-2.616,4.191-4.746,4.281-5.141.145-.556.145-.628.359-.628.018,0,1.685.789,1.685,1.094,0,.09-.037.108-.216.232-.108.055-.124.11-.124.18,0,.554,3.17,4.532,7.415,5.732.5.143.5.143.5.234,0,.108-.055.126-.5.269a2.111,2.111,0,0,0-1.147.734c-.071.126-.124.179-.232.179-.393,0-4.212-2.633-6.234-6.325-.2-.375-.234-.428-.3-.428s-.359.358-.5.536a17.767,17.767,0,0,1-7.847,5.751c-.056.018-.163.037-.163-.053m4.927,2.453c-1.325,0-1.773.019-2.258.055-.053,0-.322.035-.375.035-.072,0-.09-.035-.161-.106l-.341-.412c-.035-.053-.089-.108-.089-.126,0-.037.035-.037.072-.037.124,0,.68.055.788.055.878.035,1.828.071,2.453.071h5.912c.754,0,.95,0,1.38-.591.269-.375.34-.483.5-.483.143,0,.2.035.61.377.913.751.913.77.913.931,0,.232-.089.232-.933.232H111.41c-.179,0-.251,0-.251.055,0,0,.842.717.842.913,0,.163,0,.163-.538.3-.143.055-.179.108-.626.7-.377.5-1.111,1.379-1.218,1.488-.072.089-.253.267-.253.428s.253.18.324.18c.232,0,1.917-.108,3.9-.306,1.29-.124,1.435-.143,1.435-.322,0-.269-1.057-1.182-1.057-1.4,0-.09.071-.108.124-.108a16.672,16.672,0,0,1,2.276,1.111c.483.287,1.594.931,1.594,2.06,0,.573-.358.968-.7.968-.52,0-.9-.664-1.218-1.255-.341-.609-.5-.664-.754-.664a78.475,78.475,0,0,0-8.312,1.649,3.877,3.877,0,0,1-.519.287.207.207,0,0,1-.18-.127,14.186,14.186,0,0,1-.984-1.9c0-.126.089-.126.143-.126.124,0,.68.108.788.126a9.575,9.575,0,0,0,1.057.071c1,0,1.129,0,1.865-1.469a12.608,12.608,0,0,0,.931-2.364c0-.306-.234-.306-.538-.306Zm3.727-3.331c.878,0,.913-.035,1.271-.467.288-.34.5-.609.591-.609a4.849,4.849,0,0,1,1.363,1.343c0,.2-.09.2-.95.2H110.3c-1.092,0-1.612,0-2.276.053-.053,0-.322.037-.375.037s-.09-.037-.163-.11l-.34-.412c-.071-.069-.071-.089-.071-.124,0-.018.018-.035.053-.035.126,0,.681.053.789.053.878.053,1.736.072,2.453.072Z" transform="translate(9064.678 5646.084)" fill="#fff"/>
    <path id="パス_33647" data-name="パス 33647" d="M117.849,87.886c-.072-.089-.089-.106-.089-.126,0-.035.053-.035.072-.035.338,0,1.987.108,2.363.108.5,0,.5-.126.5-1.325,0-.269-.018-1.325-.071-2.007,0-.09-.09-.5-.09-.609,0-.037.053-.037.071-.037a13.622,13.622,0,0,1,1.612.485c.09.053.2.124.2.251,0,.071-.322.34-.358.411-.09.163-.09.253-.09,1v1.506c0,.25.106.287.287.287a.632.632,0,0,0,.428-.126c.126-.071.646-.609.807-.609a.334.334,0,0,1,.25.126c.216.214.593.662.647.7.393.377.428.412.428.52a.264.264,0,0,1-.2.232c-.055.019-.3.072-.358.09a20.586,20.586,0,0,0-1.667,1.791c-.52.538-.573.591-.573.915,0,.377.163.411.591.5.609.143,2.293.628,2.293,1.989,0,.556-.3.825-.628.825-.428,0-.625-.359-1.092-1.308-.108-.2-.7-1.111-1.039-1.111-.161,0-.161.25-.161.465,0,.681.018,4,.018,4.73,0,.232.09,1.343.09,1.594a.855.855,0,0,1-.95.825c-.43,0-.538-.18-.538-.43,0-.179.072-1,.072-1.2.035-1.325.108-3.187.108-5.3,0-.2,0-.5-.18-.5s-2.508,2.024-2.973,2.024c-.035,0-.09,0-.09-.053a17.79,17.79,0,0,1,1.559-1.594c.717-.734,3.242-3.869,3.242-4.39,0-.159-.126-.179-.285-.179H120.8c-.7,0-1.449.019-2.078.055-.053,0-.322.035-.375.035-.072,0-.108-.035-.163-.108Zm5.859,10.965c-.072-.09-.072-.09-.072-.106a.058.058,0,0,1,.053-.055c.11,0,.664.071.791.071.519.019,1.449.055,2.453.055h.7c.161,0,.483,0,.52-.395.034-.322.071-7.22.071-8.151,0-.179,0-.556-.43-.556-.448,0-1.488,0-2.113.053-.056,0-.306.037-.378.037-.053,0-.087-.037-.159-.11l-.34-.411c-.072-.089-.072-.089-.072-.126s.035-.035.053-.035.664.053.754.053c.177,0,1.628.072,2.237.072.432,0,.467-.232.467-.734,0-1.648-.035-2.454-.126-3.8,0-.143-.108-.771-.108-.915,0-.089.035-.126.145-.126.053,0,1.163.341,1.29.377.159.055.536.143.536.448,0,.09-.358.395-.395.485-.108.25-.161,3.224-.161,3.707,0,.214,0,.556.43.556.842,0,.932,0,1.308-.5.52-.7.573-.771.734-.771.251,0,1.506,1.164,1.506,1.506,0,.232-.377.232-.95.232h-2.49c-.485,0-.519.269-.519.591,0,1.074.053,6.325.053,7.524,0,.662,0,.986.465.986h.662a1.115,1.115,0,0,0,1.058-.536c.483-.628.536-.7.752-.7.161,0,1.738,1.166,1.738,1.469,0,.251-.375.251-.966.251h-6.362c-.428,0-1.628-.018-2.256.037-.053,0-.322.053-.375.053s-.09-.035-.163-.126Z" transform="translate(9073.258 5646.187)" fill="#fff"/>
    <path id="パス_33648" data-name="パス 33648" d="M138.886,85.9c0,.053.035.126.035.2a13.618,13.618,0,0,1,.179,1.934,9.19,9.19,0,0,1-1.844,5.25c-1.433,2.184-2.347,2.616-3.065,2.616-1.181,0-2.237-1.846-2.237-4.031a6.312,6.312,0,0,1,1.987-4.569,7.414,7.414,0,0,1,5.716-2.327,5.857,5.857,0,0,1,2.883.572,5.616,5.616,0,0,1,3.116,5.215,6.682,6.682,0,0,1-4.513,6.305,11.012,11.012,0,0,1-2.975.664c-.071,0-.179-.019-.179-.126,0-.055.035-.072.483-.253,1.863-.734,5.751-2.274,5.751-6.734a4.613,4.613,0,0,0-4.962-4.964c-.359,0-.377.145-.377.251m-5.822,5.5c0,1.164.465,2.759,1.559,2.759.519,0,.949-.216,2.184-2.078a10.248,10.248,0,0,0,1.757-5.213c0-1.074-.072-1.164-.3-1.164-1.7,0-5.2,2.31-5.2,5.7" transform="translate(9082.056 5646.975)" fill="#fff"/>
    <path id="パス_33649" data-name="パス 33649" d="M156.627,84.649c.485,0,.591,0,.771-.2.358-.322.393-.359.519-.359.216,0,1.219.754,1.219,1.076,0,.126,0,.126-.432.377-.3.161-.375.285-1.09,1.541a10.147,10.147,0,0,1-1.131,1.665.26.26,0,0,0-.072.179,8.3,8.3,0,0,0,3.281,1.862,9.081,9.081,0,0,0,1.019.253c.18.035.359.053.359.2,0,.072-.018.089-.269.143a2.922,2.922,0,0,0-.913.395c-.09.053-.449.412-.538.412a9,9,0,0,1-3.385-2.061,2.012,2.012,0,0,0-.412-.322,3.851,3.851,0,0,0-.467.306,9.409,9.409,0,0,1-3.384,1.611c-.234.071-.253.214-.269.43-.037.375-.253.825-.718.825-.358,0-.412-.287-.5-1-.037-.269-.053-.359-.2-.359a5.612,5.612,0,0,0-.718.163c-.179.072-.2.25-.2.428v4.677c0,.322.072,1.685.072,1.97a.95.95,0,0,1-.842.9c-.359,0-.393-.234-.393-.412,0-.143.034-.788.034-.913.037-.9.037-4.8.037-5.877,0-.216,0-.395-.3-.395a10.373,10.373,0,0,0-1.416.287,7.273,7.273,0,0,1-.95.322c-.269,0-.591-1.469-.591-1.5,0-.055.018-.126.09-.126.161,0,1.182.108,1.379.108.412,0,.556-.018,2.347-2.759.395-.591.95-1.685,1.04-1.863.106-.234.143-.267.2-.267.143,0,1.308.931,1.308,1.2,0,.2-.126.214-.52.285-.106.037-.232.072-.556.449-1.092,1.2-1.826,1.97-2.435,2.578-.234.234-.25.253-.25.324,0,.089.053.089.267.089.18,0,1.4-.018,2.1-.072.234-.016.359-.016.359-.159,0-.055-.179-.842-.179-.9,0-.018.018-.053.089-.053.163,0,.681.485,1.04,1,.232.341.269.375.428.375a9.522,9.522,0,0,0,3.387-2.49c0-.016-.5-.913-.591-1.074a10.554,10.554,0,0,1-.968-2.491.364.364,0,0,0-.412-.285c-.159,0-.931.072-1.056.072-.053,0-.09-.037-.163-.11l-.338-.412c-.072-.089-.072-.089-.072-.124s.018-.035.055-.035c.124,0,.681.053.788.053.878.035,1.63.071,2.472.071ZM147.6,94.469c0,.143-.393.644-.449.751-.124.234-.519,1.29-.625,1.506-.86,1.7-1.453,2.1-1.559,2.1-.053,0-.053-.018-.053-.053,0-.071.34-.805.393-.968a14.4,14.4,0,0,0,.842-4.031c0-.071-.035-.179.018-.179a3.328,3.328,0,0,1,.752.251c.288.126.681.359.681.628m-.18-6.325a.964.964,0,0,1,.359.715c0,.377-.216.771-.572.771-.306,0-.432-.2-1.435-1.738-.09-.143-.591-.842-.591-.878,0-.018,0-.037.019-.037.214,0,1.2.485,1.288.485.324,0,1.237-2.616,1.237-3.369,0-.267,0-.34.09-.34.016,0,1.648.5,1.648.86,0,.126-.448.448-.538.536-.3.324-1.469,1.971-1.7,2.277-.072.106-.214.25-.142.411a3.043,3.043,0,0,1,.338.306m4.265,7.971a.818.818,0,0,1-.7.807c-.285,0-.322-.106-.681-1.147-.089-.25-.591-1.541-.591-1.594s.019-.106.09-.106c.216,0,.754.465.986.662a1.854,1.854,0,0,1,.9,1.379m5.875,2.741c.791,0,.879,0,1.131-.3.5-.575.554-.646.75-.646a3.855,3.855,0,0,1,1.453,1.218c0,.2-.34.2-.931.2h-6.576c-.43,0-1.63,0-2.258.055-.053,0-.322.035-.375.035a.209.209,0,0,1-.163-.106l-.34-.412c-.053-.053-.089-.09-.089-.126s.053-.035.072-.035c.106,0,.662.053.788.053.519.035,1.432.071,2.453.071h.9c.143,0,.5,0,.538-.375,0-.108.053-2.4.053-2.8,0-.536-.375-.536-.538-.536-.9,0-1.665.018-1.987.035a2.547,2.547,0,0,1-.378.053c-.053,0-.087-.034-.159-.124l-.34-.412c-.072-.089-.072-.089-.072-.108a.055.055,0,0,1,.053-.053c.09,0,.556.053.644.053.127.019,1.578.072,2.24.072.251,0,.519-.037.519-.5,0-.143-.034-1.2-.071-1.81-.018-.09-.053-.556-.053-.662,0-.09.018-.143.124-.143s1.559.234,1.559.609c0,.106-.322.465-.358.556a4.908,4.908,0,0,0-.108,1.416c0,.269.053.538.538.538a3.583,3.583,0,0,0,1.253-.126c.126-.108.61-.878.807-.878.216,0,1.559,1.019,1.559,1.272,0,.214-.359.214-.931.214h-2.67c-.322,0-.556.089-.556.5,0,.377.053,2.492.053,2.706,0,.5.359.5.538.5Zm-3.6-13.739c-.126,0-.269.034-.269.2a6.094,6.094,0,0,0,1.828,2.9c.3,0,1.665-2.6,1.665-2.938,0-.161-.053-.161-.483-.161Z" transform="translate(9089.866 5646.233)" fill="#fff"/>
    <path id="パス_33650" data-name="パス 33650" d="M167.71,87.78c.789,0,.915,0,1.7-1.4a12.651,12.651,0,0,0,1.074-2.366c.019-.3.037-.34.126-.34.163,0,1.685,1,1.685,1.29,0,.179-.143.2-.573.285-.3.055-.465.09-1.559,1.2-.234.232-.968.966-.968,1.129,0,.2.163.2.449.2h2.419a2.025,2.025,0,0,0,.77-.053c.09-.037.377-.395.465-.395.2,0,1.7,1.092,1.7,1.648a.409.409,0,0,1-.465.412c-.09,0-.485-.053-.556-.053-.269,0-.573.108-1.166.644-.3.288-.358.341-.465.341s-.089-.09-.089-.126c0-.072.483-1.4.483-1.665s-.108-.269-.664-.269H161.566c-.644,0-.734,0-.825.482-.232,1.219-.77,1.775-1.235,1.775a.657.657,0,0,1-.681-.717c0-.267.072-.358.628-1.29a3.9,3.9,0,0,0,.538-1.649c0-.142.034-.213.087-.213.163,0,.449.768.538.894.126.2.18.234.844.234Zm-3.438,7.328c.393,0,.662,0,.878-.412a4.058,4.058,0,0,0,.322-1.343c0-.322-.143-.322-.591-.322h-1.074c-.377,0-.395.053-.522.393-.124.377-.678.377-.788.377-.269,0-.519-.09-.572-.395-.037-.179,0-1.147,0-1.363,0-.143-.019-1.416-.019-1.9,0-.072-.071-.485-.071-.575,0-.071.035-.2.143-.2a9.234,9.234,0,0,1,1.056.5,1.579,1.579,0,0,0,.646.072h5.571c.752,0,.823,0,.968-.127.106-.089.536-.664.7-.664a2.234,2.234,0,0,1,1.02,1.184c0,.143-.069.2-.3.322-.214.126-.214.216-.214,1.021a8.479,8.479,0,0,1-.089,1.4.924.924,0,0,1-.844.519c-.267,0-.322-.106-.412-.359-.071-.177-.232-.213-.428-.213h-2.007a.826.826,0,0,0-.752.3,6.93,6.93,0,0,0-1.164,1.578c0,.2.234.2.483.2h4.479a3.336,3.336,0,0,0,.858-.055c.109-.053.5-.519.628-.519s1.094.589,1.094.931c0,.161-.037.2-.287.412a.934.934,0,0,0-.108.465c0,.287.072,1.722.072,2.044,0,.483,0,.662-.269.912a1.264,1.264,0,0,1-.825.395c-.359,0-.377-.214-.412-.572-.037-.235-.269-.235-.448-.235h-8.42c-.322,0-.375.126-.448.378a.89.89,0,0,1-.915.625.489.489,0,0,1-.538-.572c0-.126.109-2.329.109-2.778,0-.25-.053-1.5-.053-1.791,0-.09,0-.25.159-.25a5.749,5.749,0,0,1,1.184.448,1.509,1.509,0,0,0,.823.161Zm-3.315-10.874c1.9,0,3.224,1.147,3.224,2.024a.8.8,0,0,1-.77.823c-.412,0-.593-.375-.736-.7a4.147,4.147,0,0,0-1.54-1.738c-.377-.234-.411-.253-.377-.34.019-.056.126-.072.2-.072m1.718,11.357c-.232,0-.375,0-.5.18a17.808,17.808,0,0,0-.071,2.041c0,.306,0,.593.519.593h8.384c.483,0,.536-.234.536-.52,0-.269,0-1.936-.034-2.042-.072-.251-.377-.251-.5-.251Zm1.166-5.176c-.234,0-.573.016-.573.519,0,1.612.035,1.612.538,1.612h5.822c.536,0,.536-.143.536-1.111,0-.86,0-1.019-.573-1.019Zm4.1-4.39c0,.448-.251.734-.609.734-.5,0-.7-.519-.807-.825a5.349,5.349,0,0,0-1.094-1.844,1.621,1.621,0,0,1-.269-.377c0-.071.11-.071.145-.071.589,0,2.633.949,2.633,2.382" transform="translate(9098.461 5646.166)" fill="#fff"/>
    <path id="パス_33651" data-name="パス 33651" d="M177.783,85.937c-.161,0-.269,0-.269.106a3.724,3.724,0,0,0,.465.485c.734.662.807.878.807,1.147a1.033,1.033,0,0,1-.913.931c-.287,0-.306-.143-.43-.9-.269-1.773-.717-1.773-1.235-1.773-.5,0-.556.053-1.058.681-1.72,2.131-2.293,2.347-2.293,2.256.143-.232.593-1.039.77-1.345a13.691,13.691,0,0,0,1.757-3.706c.09-.324.09-.359.159-.359.037,0,1.685.483,1.685.734,0,.071-.395.322-.483.375a1.856,1.856,0,0,0-.52.718c0,.159.163.159.306.159h1.4c.788,0,.878,0,1.11-.412.163-.285.253-.358.378-.358.179,0,1.2.734,1.2,1.023,0,.232-.09.232-.95.232Zm8.563,4.084a.655.655,0,0,0,.52-.143c.072-.089.322-.61.448-.61.037,0,.715.467,1.074.7.644.43.86.572.86.878,0,.5-.538.5-.644.5s-.681-.142-.807-.142c-.234,0-1.308.823-1.487.823-.018,0-.035,0-.035-.035,0-.11.43-1,.43-1.2,0-.306-.232-.306-.412-.306H175.526c-.359,0-.412.161-.465.465-.234,1.38-.987,1.722-1.38,1.722s-.52-.324-.52-.628a1.209,1.209,0,0,1,.3-.717,3.916,3.916,0,0,0,.933-1.72,3.171,3.171,0,0,1,.142-.717c.163,0,.359.556.449.825a.446.446,0,0,0,.5.3h4.371c.575,0,.575-.251.575-1.129,0-.2-.055-1.021-.287-1.021-.09,0-.467.2-.556.2-.019,0-.035,0-.035-.035a7.606,7.606,0,0,1,.554-.589,9.453,9.453,0,0,0,2.15-3.153c.071-.556.071-.61.234-.61.053,0,1.63.395,1.63.77,0,.18-.055.2-.5.449-.2.106-.412.269-.412.428,0,.126.145.126.378.126h2.578c.715,0,.915,0,1.184-.483.285-.5.322-.554.482-.554.126,0,1.453.966,1.453,1.29,0,.232-.09.232-.95.232h-2.669c-.127,0-.377,0-.377.2,0,.108.09.2.377.485.86.841.949,1.11.949,1.361a1.087,1.087,0,0,1-.966.966c-.485,0-.485-.412-.485-.949a3.4,3.4,0,0,0-.465-1.773c-.2-.287-.432-.287-.754-.287h-.823a.964.964,0,0,0-.77.25c-.771.664-1.111.968-1.416,1.184-.2.143-.251.179-.251.269,0,.071.035.089.377.179.968.269,1.074.3,1.074.519,0,.108-.018.126-.25.287-.163.126-.163.2-.163.825,0,.3,0,.573.538.573ZM183.3,95.808a1.23,1.23,0,0,0,.9-.287c.053-.053.338-.412.448-.412.071,0,1.361.771,1.361,1.164,0,.143-.071.2-.358.412a.423.423,0,0,0-.179.395c0,.3.069,1.773.069,2.113a.811.811,0,0,1-.86.736c-.428,0-.482-.234-.519-.485-.071-.359-.3-.393-.538-.393H178.68a.468.468,0,0,0-.5.267,1.063,1.063,0,0,1-1.129.807c-.179,0-.359,0-.359-.593,0-.269.073-1.522.073-1.809.018-.664.053-1.773.053-3.476,0-1.272-.016-1.828-.053-2.293,0-.089-.073-.591-.073-.7,0-.072,0-.143.11-.143a2.572,2.572,0,0,1,.931.3,2.067,2.067,0,0,0,.95.163h4.065a.733.733,0,0,0,.734-.322c.216-.359.234-.395.359-.395.143,0,1.4.878,1.4,1.076,0,.089-.359.375-.412.465a5.647,5.647,0,0,0-.055,1.074c0,.126.019.681.019.823a.668.668,0,0,1-.734.681.6.6,0,0,1-.575-.287c-.124-.214-.25-.232-.483-.232h-4.371c-.536,0-.591.161-.591.609,0,.591.018.734.591.734Zm-4.658-3.744c-.627,0-.627.161-.627.913,0,.86,0,1,.627,1h4.212c.607,0,.607-.159.607-.894,0-.879,0-1.023-.607-1.023Zm.018,4.21c-.556,0-.591.216-.591,1.129,0,.968.035,1.182.591,1.182h4.928c.554,0,.591-.2.591-1.129,0-.966-.019-1.182-.591-1.182Z" transform="translate(9107.027 5646.057)" fill="#fff"/>
    <path id="パス_33652" data-name="パス 33652" d="M191.3,90.654c-.538,0-.557.018-.557,1.989,0,.108.019,1.81.019,2.1.018.09.037.18.161.18.322,0,2.293-.842,2.508-.842.037,0,.055.018.055.035,0,.467-5,2.651-5.3,2.884-.072.072-.341.412-.412.412-.216,0-.718-1.38-.718-1.612,0-.161.072-.161.825-.214,1.7-.11,1.7-.306,1.7-.9v-3.4c0-.412-.037-.628-.556-.628a7.9,7.9,0,0,0-.9.037c-.071,0-.393.053-.446.053-.072,0-.09-.037-.143-.126l-.3-.412c-.055-.071-.055-.09-.055-.124s.018-.037.055-.037c.089,0,1.5.126,1.791.126.572,0,.572-.234.572-1.2,0-.465,0-2.884-.053-3.152s-.285-.3-.536-.3c-.216,0-1.416.09-1.416.09-.072,0-.108-.018-.161-.108l-.3-.412c-.035-.072-.072-.089-.072-.126s.018-.035.055-.035c.126,0,.626.053.734.053.752.035,1.469.072,2.2.072h.341c.68,0,.751,0,.894-.126.126-.143.628-.842.807-.842.108,0,1.506.968,1.506,1.182,0,.251-.322.251-.86.251h-1.453a.432.432,0,0,0-.465.25c-.053.163-.053,1.828-.053,2.169v1.915c0,.09,0,.324.25.324a.589.589,0,0,0,.412-.2c.11-.106.556-.77.7-.77.106,0,1.414.968,1.414,1.182,0,.269-.3.269-.805.269ZM200.33,84.6a1.032,1.032,0,0,0,.789-.25,2,2,0,0,1,.519-.395c.126,0,1.379.538,1.379.913,0,.143-.089.2-.375.377a.6.6,0,0,0-.3.556c-.018.214-.055,1.863-.055,2.688,0,.5.055,2.722.055,3.17a.763.763,0,0,1-.842.86c-.3,0-.322-.053-.556-.573-.108-.25-.322-.25-.538-.25h-1.163c-.538,0-.538.143-.538,1.359a13.957,13.957,0,0,0,.053,1.543c.072.161.216.161.628.161.519,0,.625-.035.715-.126.126-.126.644-.842.807-.842.106,0,1.522.968,1.522,1.182,0,.251-.322.251-.878.251h-2.31c-.538,0-.538.234-.538,1.182,0,1.218,0,1.361.018,1.47.053.267.3.322.52.322h1.2c.805,0,.841,0,1.182-.5.377-.573.43-.644.573-.644.285,0,1.416,1.2,1.416,1.414,0,.2-.09.2-.825.2h-8.438c-.449,0-1.272,0-1.918.034a4.6,4.6,0,0,1-.483.056c-.055,0-.089-.037-.143-.11l-.3-.412a.223.223,0,0,1-.073-.124c0-.019.019-.035.053-.035.11,0,.628.053.718.053,1.2.072,1.755.072,2.223.072H197c.556,0,.556-.269.556-1.272,0-1.594,0-1.7-.575-1.7h-.428c-.807,0-1.612.018-2.044.053-.053,0-.285.037-.34.037s-.089-.037-.143-.11l-.322-.411c-.053-.09-.072-.09-.072-.126,0-.018.037-.035.072-.035.108,0,.609.053.718.053,1.074.053,1.646.072,2.221.072h.338c.556,0,.556-.145.556-1.469a5.122,5.122,0,0,0-.053-1.4c-.106-.2-.375-.2-.536-.2h-1.166c-.412,0-.538,0-.609.375-.089.591-.179,1.094-.986,1.094-.25,0-.34-.11-.34-.485,0-.179.072-.968.072-1.127.018-.5.09-3.762.09-3.978,0-1.469-.09-2.454-.126-2.812-.019-.108-.09-.573-.09-.664,0-.053,0-.106.071-.106.09,0,.86.393,1.023.448a2.672,2.672,0,0,0,1.092.159ZM197,91.229c.556,0,.556-.18.556-1.81,0-.95,0-1.164-.556-1.164h-1.29c-.554,0-.554.071-.554,1.773,0,.986,0,1.2.554,1.2Zm0-3.44c.536,0,.536-.163.536-1.559,0-.968,0-1.147-.536-1.147h-1.29c-.538,0-.538.179-.538,1.164,0,1.469,0,1.541.538,1.541Zm2.293-2.706c-.591,0-.591.035-.591,1.54,0,1,0,1.166.591,1.166h1.237c.591,0,.591-.145.591-1.363s0-1.343-.591-1.343Zm0,3.171c-.591,0-.591.2-.591,1.271,0,1.614,0,1.7.591,1.7h1.147c.572,0,.627-.09.627-1.828,0-.932,0-1.147-.591-1.147Z" transform="translate(9115.695 5646.355)" fill="#fff"/>
    <path id="パス_33653" data-name="パス 33653" d="M49.886,103.939a1.457,1.457,0,0,0-.25-.788,3.567,3.567,0,0,1-.341-.5c0-.214.375-.375.734-.375a1.455,1.455,0,0,1,1.29.788c.09.126.269.2.807.34.34.09,1.021.288,1.021.788,0,.681-1,1-2.454,1.435-.161.053-.179.108-.341.734-.214.9-1.755,6.951-3.4,6.951-.485,0-.556-.324-.556-.5,0-.25.053-.34.591-1.11a16.073,16.073,0,0,0,2.474-5.84c0-.163-.126-.18-.395-.2-2.115-.179-2.115-1.433-2.115-1.451,0-.072.018-.216.126-.216.071,0,.124.019.483.234a2.658,2.658,0,0,0,1.379.375,2.253,2.253,0,0,0,.789-.106.843.843,0,0,0,.161-.556m5.16,11.216a2.344,2.344,0,0,1-2.527,1.952,2.5,2.5,0,0,1-2.706-2.078c0-1.166,1.272-1.775,2.884-1.775.143,0,.807.037.933.037.161,0,.251-.018.251-.2,0-.269-.071-1.469-.071-1.722,0-1.97.106-2.92,1.612-3.778,1.11-.646,1.235-.7,1.235-1.166a1.583,1.583,0,0,0-.5-.913c-.163-.143-.234-.214-.234-.287,0-.053.053-.09.124-.09a5.717,5.717,0,0,1,1.058.306,1.924,1.924,0,0,1,1.308,1.828.852.852,0,0,1-.841.931,1.221,1.221,0,0,1-.412-.072c-.681-.251-.754-.287-.968-.287a2.141,2.141,0,0,0-1.308.538,2.018,2.018,0,0,0-.43,1.487c0,.448.179,3.226.715,3.6.163.126,1,.412,1.166.5.377.2,1.416.77,1.416,1.432,0,.306-.126.628-.485.628-.179,0-.285-.053-.554-.288-.485-.428-1.309-.984-1.559-.878-.072.037-.072.11-.108.288m-2.58-1.023c-.412,0-2.024,0-2.024.95,0,.43.538.968,1.612.968,1.738,0,1.989-1.363,1.881-1.649-.09-.269-1.057-.269-1.469-.269m-.483-10.246c0-.126-.628-.448-.734-.448-.306,0-.432.734-.432.788a.2.2,0,0,0,.037.108c.053.055,1.129-.179,1.129-.448" transform="translate(9029.816 5657.541)" fill="#fff"/>
    <path id="パス_33654" data-name="パス 33654" d="M64.1,104.322a.88.88,0,0,1-.913.86,3.3,3.3,0,0,1-1.058-.3,2.429,2.429,0,0,0-.841-.18,1.194,1.194,0,0,0-1.272,1.184c0,.159.126.931.126,1.092s-.179,1.218-.216,1.47c-.089.662-.232,2.184-.232,2.632,0,.269.018.825.465.825a2.619,2.619,0,0,0,1.039-.43,4.9,4.9,0,0,1,2.922-1.145,3.06,3.06,0,0,1,3.277,2.812c0,2.185-2.849,3.635-5.445,3.635-.234,0-.485,0-.485-.142,0-.09.395-.18.52-.216,2.239-.5,3.923-1.917,3.923-3.6a1.868,1.868,0,0,0-1.989-1.987,2.721,2.721,0,0,0-2.329,1.343c-.823,1.164-1.021,1.469-1.63,1.469-.752,0-1.363-.86-1.363-2.239,0-.752.432-4.049.485-4.712a2.2,2.2,0,0,1,1.63-2.15c1-.412,1.433-.589,1.433-1.111a1.321,1.321,0,0,0-.3-.805c-.037-.072-.09-.179-.037-.232.126-.11,2.293.931,2.293,1.934" transform="translate(9037.269 5657.606)" fill="#fff"/>
    <path id="パス_33655" data-name="パス 33655" d="M72.258,104.717c1.023-.375,1.131-.411,1.345-.411a.558.558,0,0,1,.573.5c0,.412-.322.519-1,.754-1.218.393-3.4,4.909-3.4,7.112a2.782,2.782,0,0,0,2.794,2.918,4.34,4.34,0,0,0,3.566-1.934c1.235-2.06,1.235-5.893,1.235-6.466a6.789,6.789,0,0,0-.232-1.954,3.762,3.762,0,0,1-.251-1.092.591.591,0,0,1,.591-.644c.573,0,.626.322.986,2.094a5.856,5.856,0,0,0,2.256,3.674c.95.664,1.111.86,1.111,1.2a.76.76,0,0,1-.646.752c-.788,0-1.611-1.416-2.078-2.24-.179-.306-1.076-2.024-1.145-2.024s-.072.179-.072.216a23.576,23.576,0,0,1-.483,5.858,5.087,5.087,0,0,1-4.944,3.96,3.7,3.7,0,0,1-3.8-3.782,11.1,11.1,0,0,1,1.7-5.249c.072-.143.986-1.773.986-1.791,0-.053-.072-.09-.126-.09-.179,0-.9.377-1.057.377-.681,0-1-1.2-1-1.219,0-.089.035-.161.106-.161.053,0,.7.09.825.09a8.638,8.638,0,0,0,2.166-.449m9.3.253c0,.232-.234.68-.556.68-.287,0-.428-.179-.894-.878a5.688,5.688,0,0,0-1.166-1.182c-.071-.055-.234-.2-.234-.269,0-.089.163-.143.324-.143,1.182,0,2.525.933,2.525,1.793m1.469-1.631a.5.5,0,0,1-.465.519c-.375,0-.609-.25-.931-.662a4.138,4.138,0,0,0-1.559-1.021c-.179-.072-.216-.161-.216-.2,0-.124.341-.214.664-.214,1.414,0,2.508.752,2.508,1.577" transform="translate(9043.411 5657.228)" fill="#fff"/>
    <path id="パス_33656" data-name="パス 33656" d="M82.725,111.938c.3,0,.465-.287.858-1.4.108-.3.161-.448.251-.448s.09.18.09.214c0,.2-.412,2.293-.412,2.723a3.173,3.173,0,0,0,.287.932,1.923,1.923,0,0,1,.214.788.6.6,0,0,1-.591.61c-1.11,0-1.934-3.047-1.934-4.766a12.9,12.9,0,0,1,.752-3.907,6.078,6.078,0,0,0,.3-1.862,4.407,4.407,0,0,0-.179-1.272,2.121,2.121,0,0,1-.108-.324c0-.053.071-.089.143-.089.825,0,1.577,1.63,1.577,2.276,0,.2,0,.214-.341.825a13.967,13.967,0,0,0-1.379,4.622c0,.536.179,1.074.467,1.074m10.407,1.791c0,.7-.538.913-3.046.913a3.659,3.659,0,0,1-2.8-.807c-.089-.089-.554-.554-.554-.894,0-.037,0-.18.089-.18a2.638,2.638,0,0,1,.43.251,4.409,4.409,0,0,0,1.917.3,15.1,15.1,0,0,0,1.559-.053c.251-.019,1.506-.143,1.578-.143.68,0,.823.393.823.609M92.29,105c0,.878-1.987.878-2.2.878-2.024,0-3.134-1.094-3.134-1.325,0-.037.016-.09.124-.09.055,0,.269.072.5.126a6.091,6.091,0,0,0,1.219.108,7.3,7.3,0,0,0,1.971-.269c.538-.2.591-.214.77-.2a.9.9,0,0,1,.752.771" transform="translate(9051.244 5658.07)" fill="#fff"/>
    <path id="パス_33657" data-name="パス 33657" d="M100.955,104.129c0,.269-.106.465-.681.841a50.036,50.036,0,0,0-4.137,3.583,13.662,13.662,0,0,0-1.665,1.934c0,.072.071.11.159.11a24.019,24.019,0,0,0,3.19-1.076,12.313,12.313,0,0,1,3.619-1.092c.393,0,1.665.232,1.665.878,0,.446-.681.572-.931.572-.11,0-.575-.035-.664-.035-1.433,0-4.856.7-4.856,3.261,0,1.683,1.129,1.952,3.207,2.437.9.214,1.076.752,1.076.913,0,.377-.554.573-1.182.573-.126,0-3.815-.216-3.815-3.244a4.423,4.423,0,0,1,.788-2.49,6.336,6.336,0,0,0,.43-.556.064.064,0,0,0-.071-.053,5.887,5.887,0,0,0-1.343.717c-.97.7-1.219.879-1.775.879-.734,0-.931-.879-.931-1.04,0-.341.161-.5.68-.968.161-.126,3.3-3.833,3.96-4.5.556-.554,1.648-1.683,1.648-2.1a.3.3,0,0,0-.3-.306,2.094,2.094,0,0,0-1.147.646c-.485.5-.681.717-1.343.717-.968,0-1.255-1.522-1.255-1.577a.124.124,0,0,1,.126-.142c.053,0,.754.124.878.124a2.167,2.167,0,0,0,.626-.09,9.9,9.9,0,0,1,2.384-.5,1.623,1.623,0,0,1,1.665,1.577" transform="translate(9058.296 5657.71)" fill="#fff"/>
    <path id="パス_33658" data-name="パス 33658" d="M108.269,103.729c0,.143-.161.931-.179,1.094a12.494,12.494,0,0,0-.09,1.29c0,.375.053.465.377.625.161.09.267.18.267.359a.855.855,0,0,1-.159.465c-.377.52-.432.591-.432.646a.049.049,0,0,0,.055.055c.035,0,.09-.037.448-.378.932-.894,3.1-2.938,4.766-2.938,1.219,0,1.757.86,1.757,2.132a15.824,15.824,0,0,1-.216,2.293,15.4,15.4,0,0,0-.287,2.686c0,.7.106,1.667,1.325,1.667a2.391,2.391,0,0,0,1.881-.9c.124-.143.287-.3.377-.3.071,0,.106.09.106.143A3.361,3.361,0,0,1,115.381,115c-2.115,0-2.115-2.132-2.115-2.617a7.7,7.7,0,0,1,.216-1.683,29.722,29.722,0,0,0,.483-3.744,1.05,1.05,0,0,0-1.11-1.235c-1.272,0-2.8,1.272-3.978,2.382-1.2,1.129-1.38,1.863-1.38,3.672a16.807,16.807,0,0,0,.143,2.313,10.828,10.828,0,0,1,.216,1.665c0,.591-.143,1-.7,1s-.628-.412-.807-1.361a6.856,6.856,0,0,0-.7-1.971c-.071,0-.09.053-.216.485-.159.536-.446,1-.984,1a.657.657,0,0,1-.646-.664,5.56,5.56,0,0,1,.789-2.007,1.682,1.682,0,0,0,.232-.593,9.44,9.44,0,0,0-.412-1.343c-.393-1-.411-1.127-.411-1.432a1.446,1.446,0,0,1,.9-1.4,11.335,11.335,0,0,0,2.131-.736c.11-.069.127-.2.127-.519a6.015,6.015,0,0,0-.467-2.616,7.147,7.147,0,0,1-.538-.894c0-.163.287-.18.412-.18.593,0,1.7.878,1.7,1.2m-1.612,4.121c-.143,0-2.007.375-2.007,1.271a4.114,4.114,0,0,0,.591,1.971c.072,0,.163-.108.2-.18s1-1.968,1.094-2.148a2.429,2.429,0,0,0,.322-.807.191.191,0,0,0-.2-.106m0,4.155c0-.09.035-.591.035-.627,0-.055,0-.161-.089-.161-.18,0-.7,1.182-.7,1.379a2.927,2.927,0,0,0,.627,1.29c.126,0,.126-.124.126-1.881" transform="translate(9064.87 5657.696)" fill="#fff"/>
    <path id="パス_33659" data-name="パス 33659" d="M118.209,111.938c.3,0,.465-.287.858-1.4.108-.3.161-.448.251-.448s.09.18.09.214c0,.2-.412,2.293-.412,2.723a3.174,3.174,0,0,0,.287.932,1.923,1.923,0,0,1,.214.788.6.6,0,0,1-.591.61c-1.11,0-1.934-3.047-1.934-4.766a12.9,12.9,0,0,1,.752-3.907,6.077,6.077,0,0,0,.3-1.862,4.407,4.407,0,0,0-.179-1.272,2.121,2.121,0,0,1-.108-.324c0-.053.071-.089.143-.089.825,0,1.577,1.63,1.577,2.276,0,.2,0,.214-.341.825a13.967,13.967,0,0,0-1.379,4.622c0,.536.179,1.074.467,1.074m10.407,1.791c0,.7-.538.913-3.046.913a3.659,3.659,0,0,1-2.8-.807c-.089-.089-.554-.554-.554-.894,0-.037,0-.18.089-.18a2.638,2.638,0,0,1,.43.251,4.408,4.408,0,0,0,1.917.3,15.1,15.1,0,0,0,1.559-.053c.251-.019,1.506-.143,1.578-.143.68,0,.823.393.823.609M127.774,105c0,.878-1.987.878-2.2.878-2.024,0-3.134-1.094-3.134-1.325,0-.037.016-.09.124-.09.055,0,.269.072.5.126a6.09,6.09,0,0,0,1.219.108,7.3,7.3,0,0,0,1.971-.269c.538-.2.591-.214.77-.2a.9.9,0,0,1,.752.771" transform="translate(9072.908 5658.07)" fill="#fff"/>
    <path id="パス_33660" data-name="パス 33660" d="M134.214,103.454l-.377.251a11.386,11.386,0,0,0-1.628,2.4c0,.214.179.3.428.411.395.143.519.216.519.412,0,.143-.071.2-.232.324a.435.435,0,0,0-.2.428c0,3.153.035,5.178.126,8.6,0,.126.018.7.018.841a.961.961,0,0,1-.216.734,1.815,1.815,0,0,1-.915.341c-.446,0-.465-.377-.465-.554s.09-.97.11-1.147c.053-.646.124-2.2.124-2.922,0-.841-.053-4.944-.053-5.875,0-.09,0-.306-.09-.306-.035,0-1.127,1.559-1.306,1.793a15.525,15.525,0,0,1-1.81,1.97.064.064,0,0,1-.071-.071c0-.018.179-.287.2-.341.072-.089,1.432-2.4,2.078-3.69,1.685-3.368,1.881-4.192,1.881-5.07,0-.106.055-.161.143-.161a.277.277,0,0,1,.161.055c.126.071.752.428.9.5.768.43.858.483.858.771a.338.338,0,0,1-.179.3m7.739,4.3c-.232,0-.572.018-.572.591,0,.609.053,3.334.053,3.87.018.591.071,3.189.071,3.707,0,.789,0,1.327-.715,1.828a2.3,2.3,0,0,1-1.058.395c-.161,0-.2-.055-.483-.43a3.438,3.438,0,0,0-1.487-1.094c-.037-.018-.412-.108-.412-.143,0-.053.053-.053.071-.053.179,0,.932.018,1.094.018,1.288,0,1.432,0,1.541-.358.089-.288.089-3.691.089-4.569,0-.9,0-2.347-.035-3.189-.019-.52-.306-.573-.575-.573h-2.327c-.412,0-1.631.018-2.258.053-.071,0-.324.037-.393.037s-.09-.037-.143-.108l-.359-.412c-.072-.071-.072-.089-.072-.126,0-.018.019-.035.072-.035.126,0,.681.053.788.072.825.034,1.612.053,2.456.053h2.237c.575,0,.575-.2.575-1.166,0-3.366,0-3.617-.269-4.03a.341.341,0,0,1-.072-.161c0-.126.108-.126.145-.126.143,0,1.449.375,1.683.43.179.053.341.124.341.3,0,.232-.234.375-.377.465-.126.072-.179.126-.179.538,0,.5-.037,2.723-.019,3.171,0,.43.019.554.341.554s.393-.089.931-.858c.359-.538.395-.591.519-.591s1.828,1.361,1.828,1.665c0,.269-.322.269-.966.269Zm-6.288,1.881a.084.084,0,0,1,.09-.09,9.219,9.219,0,0,1,1.074.628,2.823,2.823,0,0,1,1.487,2.327c0,.825-.465,1.113-.9,1.113-.5,0-.573-.359-.646-.9a9.025,9.025,0,0,0-.662-2.2c-.072-.143-.448-.86-.448-.878" transform="translate(9079.75 5657.255)" fill="#fff"/>
    <path id="パス_33661" data-name="パス 33661" d="M145.927,103.083c.287,0,.322-.035.646-.358a.5.5,0,0,1,.251-.145c.106,0,1.182.734,1.182.987,0,.035-.126.214-.126.25,0,.072.035.089.234.2a3.86,3.86,0,0,1,1.881,2.938c0,.662-.485.771-.575.771-.322,0-.519-.432-.556-.593a9.544,9.544,0,0,0-1.11-3.046c-.037-.071-.09-.124-.143-.124-.106,0-.179.124-.234.232a16.521,16.521,0,0,1-1.487,2.239c-.234.269-.324.412-.324.538,0,.108.18.287.432.556a4,4,0,0,1,1.325,2.794c0,1.219-.9,2.759-1.81,2.759-.285,0-.3-.053-.428-.626-.108-.5-.341-.681-.628-.681-.161,0-.161.18-.161.251,0,1.272,0,3.385.018,4.819,0,.681,0,1.379-.86,1.379-.375,0-.446-.232-.446-.68,0-.485.071-2.616.071-3.046.016-1.361.142-7.381.142-8.618a17.4,17.4,0,0,0-.142-3.028c-.018-.071-.127-.322-.127-.375a.076.076,0,0,1,.072-.071,10.781,10.781,0,0,1,1.131.465,1.431,1.431,0,0,0,.805.214Zm-1.037.467c-.412,0-.538.2-.538.5-.055,1.559-.055,5.572-.055,7.041,0,.449.143.5.825.5.5,0,1.164,0,1.164-1.325a4.824,4.824,0,0,0-.5-2.2c-.089-.163-.7-.915-.7-1.131,0-.3,1.182-2.578,1.182-3.044,0-.34-.251-.34-.448-.34Zm2.525,5.822c-.055-.072-.072-.072-.072-.09s.018-.035.053-.035c.126,0,1.111.106,1.272.106s.287-.071.465-.3c.2-.25.234-.267.287-.267.126,0,1.023.625,1.023.878a.316.316,0,0,1-.109.232,1.613,1.613,0,0,0-.338.269c-.055.108-.055,2.9-.055,3.886a1.439,1.439,0,0,0,.43,1.237,7.638,7.638,0,0,0,3.978.86,21.745,21.745,0,0,0,3.959-.3c.089-.019.5-.18.591-.18.018,0,.053.018.053.035,0,.035-.018.089-.143.179-.483.306-.556.61-.734,1.29-.053.251-.09.377-1.325.377a20.685,20.685,0,0,1-4.1-.448,4.765,4.765,0,0,1-3.081-1.631c-.2-.232-.306-.358-.395-.358-.216,0-1.147,1.021-1.4,1.308-.09.09-.483.717-.627.717a3.854,3.854,0,0,1-.913-1.469c0-.108.071-.108.179-.108a3.326,3.326,0,0,0,2.419-1.361c.034-.108.034-3.566.034-4.067,0-.163,0-.412-.34-.412-.089,0-.519.071-.627.071-.053,0-.09-.018-.143-.089Zm8.151-5.286c.43,0,.483,0,.573-.037.2-.053.77-.931.86-.931.108,0,1.308.9,1.308,1.184,0,.25-.324.25-.5.25h-3.313c-.43,0-.5.126-.681.52-.071.214-.483,1.182-.483,1.29,0,.216.2.216.287.216h1.826a.711.711,0,0,0,.646-.269c.124-.163.285-.359.375-.359.143,0,1.433.734,1.433.984,0,.11-.126.216-.18.253-.338.2-.338.232-.338.428,0,.681,0,6.019-.055,6.36a1.294,1.294,0,0,1-.5.968,2.624,2.624,0,0,1-1.147.448c-.09,0-.412-.412-.485-.465a6.257,6.257,0,0,0-.9-.717c-.071-.037-.126-.053-.126-.09s.055-.035.071-.035c.09,0,.97.035,1.147.035.789,0,.86-.016.86-1.379,0-.681,0-.86-.572-.86h-1.918c-.448,0-.607.089-.607.573,0,.269.034,1.487.034,1.718,0,.2,0,1.058-.68,1.058-.5,0-.5-.412-.5-.627s.034-1.166.034-1.363c0-.664.055-3.654.055-4.263,0-.037,0-.126-.072-.126-.035,0-1.451,1.917-1.754,1.917-.019,0-.019-.018-.019-.035s.412-.752.485-.9a23.535,23.535,0,0,0,2.023-5.017c0-.269-.25-.269-.483-.269-.43,0-1.235.019-1.63.055a1.238,1.238,0,0,1-.251.034c-.055,0-.089-.034-.161-.106l-.34-.412c-.072-.089-.072-.089-.072-.126s.018-.034.053-.034c.108,0,.556.053.665.053.375.018,1.987.071,2.023.071.287,0,.412-.053.5-.269a5,5,0,0,0,.269-1.469,1.057,1.057,0,0,0-.037-.251.8.8,0,0,1-.089-.179c0-.072.143-.09.159-.09.2,0,1.81.34,1.81.646,0,.143-.035.161-.341.358a2.435,2.435,0,0,0-.5,1.058c0,.2.2.2.288.2Zm.143,4.819c.556,0,.556-.214.556-.9,0-.77,0-.966-.556-.966H153.72c-.572,0-.572.214-.572.858,0,.807,0,1,.572,1Zm-1.989.467c-.572,0-.572.124-.572,1.253,0,.538,0,.771.572.771h1.971c.573,0,.573-.143.573-1.435,0-.356-.035-.589-.573-.589Z" transform="translate(9088.77 5657.269)" fill="#fff"/>
    <path id="パス_33662" data-name="パス 33662" d="M157.986,106.534a36.327,36.327,0,0,0,4.872-.607c.933-.163,1.04-.18,1.04-.646a10.7,10.7,0,0,0-.251-2.437c-.018-.09-.3-.412-.3-.5,0-.124.269-.124.375-.124.789,0,1.488.322,1.488.9,0,.089-.072.465-.072.554,0,.412.52.681,1.577,1.129a3.913,3.913,0,0,0,1.577.359c.18,0,.931-.09,1.074-.09.234,0,1.021.071,1.021.7,0,.465-.34.628-.966.628-.377,0-2.042-.163-2.384-.163a8.447,8.447,0,0,0-1.934.179c-.25.108-.287.359-.287,1.936a2.334,2.334,0,0,0,.234,1.164,5.677,5.677,0,0,1,.519,2.417c0,3.476-2.706,5.7-3.26,5.7-.035,0-.09-.018-.09-.072,0-.035.734-.894.86-1.074a5.834,5.834,0,0,0,1-2.633c0-.055,0-.251-.179-.251-.053,0-.322.037-.377.037-.966,0-1.826-.915-1.826-2.348,0-.234,0-2.2,1.738-2.472.5-.071.5-.179.5-1.092,0-.968,0-1.076-.358-1.076a22.248,22.248,0,0,0-3.171.717,16.553,16.553,0,0,1-1.918.717c-.395,0-1.881-.752-1.881-1.487a.2.2,0,0,1,.09-.18c.179.019,1.04.126,1.29.126m5.321,2.975c-.449,0-1.021.734-1.021,1.649a1.3,1.3,0,0,0,1.163,1.432c.7,0,.718-1.076.718-1.361a3.492,3.492,0,0,0-.234-1.255.756.756,0,0,0-.626-.465m1.648-4.282c0,.288.072.341.322.341.072,0,1.237-.037,1.237-.306a3.9,3.9,0,0,0-1.362-.949c-.124.035-.2.448-.2.913" transform="translate(9097.105 5657.507)" fill="#fff"/>
    <path id="パス_33663" data-name="パス 33663" d="M178.223,112.109a2.835,2.835,0,0,0-3.026-2.723c-2.364,0-3.888,2.454-4.21,3.01-.358.609-.538.95-1.023.95a.5.5,0,0,1-.519-.5c0-.448.143-.842,1.416-2.329a59.177,59.177,0,0,0,4.049-5.394c.591-.841.841-1.218.841-1.414,0-.126-.124-.251-.34-.251-.662,0-1.718.9-2.024,1.147-.717.591-.966.644-1.272.644-.841,0-1.4-1.147-1.4-1.235,0-.053.053-.053.43-.053a8.651,8.651,0,0,0,2.777-.646c1.111-.485,1.237-.538,1.63-.538.717,0,1.881.448,1.881,1.237,0,.52-.412.807-1.272,1.4a10.911,10.911,0,0,0-2.865,3.672c0,.053.053.124.106.124.109-.034.341-.124.449-.159a4.312,4.312,0,0,1,1.575-.287,3.867,3.867,0,0,1,4.031,3.725c0,2.277-2.2,3.87-4.477,3.87-1.775,0-3.047-.949-3.047-1.846a1.727,1.727,0,0,1,1.775-1.451,2.638,2.638,0,0,1,2.041,1.147c.251.322.359.485.61.485a2.65,2.65,0,0,0,1.862-2.58m-4.6,1.612a.731.731,0,0,0-.752.628c0,.465.77.841,1.54.841a.3.3,0,0,0,.306-.322,1.22,1.22,0,0,0-1.094-1.147" transform="translate(9104.945 5657.846)" fill="#fff"/>
    <path id="パス_33664" data-name="パス 33664" d="M189.978,113.254c-.253,0-.449,0-.449.18,0,.159.071.2.646.625a12.927,12.927,0,0,0,6.072,2.366c.432.053.485.053.485.163s-.09.124-.375.2a1.714,1.714,0,0,0-.968.894c-.055.126-.179.341-.234.341a5.061,5.061,0,0,1-.878-.3,11.6,11.6,0,0,1-4.927-3.583c-.412-.5-.43-.538-.519-.538-.145,0-.163.163-.163.216,0,.072.018.609.018.717,0,.34.019,1.989.019,2.364,0,.644,0,.788-.18.986a1.121,1.121,0,0,1-.807.358c-.213,0-.393-.053-.393-.446,0-.037.09-1.38.108-1.649.016-.465.016-1.039.016-1.5,0-.072,0-.234-.142-.234a1.944,1.944,0,0,0-.43.269,17.848,17.848,0,0,1-6.88,3.3c-.035,0-.126-.019-.126-.09,0-.055.359-.214.377-.232,3.083-1.362,5.912-3.852,5.912-4.21,0-.18-.18-.18-.3-.18h-2.366c-.591,0-1.7,0-2.166.037-.055,0-.412.053-.485.053-.053,0-.09-.037-.161-.126l-.341-.412c-.071-.09-.071-.09-.071-.106a.058.058,0,0,1,.055-.055c.126,0,.662.071.788.071.52.019,1.72.053,2.472.053h3.513c.375,0,.375-.159.375-1,0-.2-.019-.411-.448-.411h-1.29c-.662,0-1.755,0-2.15.035-.053,0-.43.053-.483.053-.072,0-.089-.034-.161-.106l-.359-.43c-.071-.089-.071-.089-.071-.108,0-.035.035-.053.071-.053.108,0,.664.072.788.072.5.016,1.649.053,2.456.053h1.129c.519,0,.519-.216.519-.878,0-.377,0-.754-.465-.754h-2.169c-.428,0-1.648,0-2.274.055-.053,0-.322.035-.375.035s-.09-.035-.163-.124l-.34-.412c-.072-.09-.072-.09-.072-.11a.058.058,0,0,1,.055-.053c.108,0,.664.072.788.072.52.018,1.451.053,2.454.053h.662c.09,0,.2,0,.2-.143a7.568,7.568,0,0,0-.734-1.826c-.358-.593-.591-.628-.933-.628h-.446c-.717,0-1.917.019-2.258.053-.071,0-.324.037-.395.037-.053,0-.089-.037-.142-.108l-.359-.412c-.072-.089-.072-.089-.072-.126s.035-.035.055-.035c.124,0,.662.053.788.053.52.019,1.451.072,2.474.072.267,0,.375,0,.375-.216a4.7,4.7,0,0,0-.717-1.449c-.108-.126-.734-.734-.734-.734a.167.167,0,0,1,.179-.126c.448,0,2.382.519,2.382,1.683a.912.912,0,0,1-.126.448c-.089.145-.089.179-.089.251,0,.143.143.143.2.143h.536c.395,0,.395-.322.395-.485,0-.322-.018-1.593-.037-2.078-.016-.159-.126-.913-.126-1.094,0-.213.072-.213.18-.213.035,0,1.487.106,1.487.5a.648.648,0,0,1-.179.287c-.126.143-.161.287-.161.681,0,2.4.035,2.4.536,2.4h.646c.519,0,.519-.143.519-1.541,0-.483-.034-1.38-.053-1.7a2.994,2.994,0,0,1-.053-.393c0-.143.053-.251.179-.251a7.4,7.4,0,0,1,1.237.322c.106.037.285.163.285.322,0,.072-.035.11-.2.322a.748.748,0,0,0-.2.628c0,1.021.018,1.111.035,2.024,0,.126.018.269.179.269.322,0,1.612-1.863,1.9-2.525.2-.465.214-.5.3-.5.037,0,1.362.717,1.362,1.057,0,.126-.037.126-.412.269a20.453,20.453,0,0,0-2.276,1.6c0,.089.145.106.216.106h.878c.681,0,.86-.018,1.039-.161.126-.089.646-.77.807-.77a4.736,4.736,0,0,1,1.54,1.147c0,.25-.358.25-.966.25h-4.1c-.072,0-.2,0-.2.09,0,.072.035.089.395.3.591.34.662.377.662.556,0,.126-.071.179-.322.3-.412.234-1.2.949-1.2,1.182,0,.161.214.161.341.161H192c.734,0,.823,0,.966-.126.126-.106.627-.805.805-.805.072,0,1.363.9,1.363,1.182,0,.232-.09.232-.915.232h-5c-.538,0-.538.216-.538.913,0,.467,0,.718.5.718h1.488c.789,0,.878,0,1.129-.287.52-.61.573-.681.77-.681.3,0,1.379.878,1.379,1.164s-.322.287-.894.287h-3.925c-.448,0-.448.143-.448.968,0,.214,0,.446.432.446h3.635a3.463,3.463,0,0,0,.878-.053c.163-.071.771-.894.987-.894.179,0,1.54.878,1.54,1.181,0,.251-.358.251-.949.251Zm-4.516-7.094c-.035,0-.143,0-.143.09,0,.053.306.269.377.3.86.627,1.092,1.111,1.092,1.506a1.069,1.069,0,0,1-.126.465.336.336,0,0,0-.034.143c0,.089.124.089.2.089h1.987c.519,0,.628-.143.825-.734a6.107,6.107,0,0,0,.341-1.63c0-.18-.072-.234-.378-.234Z" transform="translate(9111.311 5657.255)" fill="#fff"/>
    <path id="パス_33665" data-name="パス 33665" d="M199.648,108.561c-.554,0-.554.071-.554,1.54,0,.9.016,5.572.016,6.019s0,1.954-1.557,1.954c-.161,0-.2-.072-.3-.3-.072-.179-.2-.375-.95-.662-.2-.072-.428-.143-.428-.216,0-.09.159-.09.214-.09.108,0,.68.055.807.055,1.163,0,1.182-.161,1.182-1.237-.019-1.074-.019-2.633-.019-3.727,0-.159,0-.393-.124-.393-.072,0-.163.09-.2.143-.106.143-.556.752-1.218,1.524a10.339,10.339,0,0,1-2.293,2.023c-.053,0-.161-.053-.161-.143,0-.035,1.235-1.575,1.469-1.88a16.677,16.677,0,0,0,2.382-4.355c0-.161-.159-.25-.322-.25-.878,0-1.469,0-2.168.018-.089,0-.717.071-.77.071s-.09-.053-.161-.124l-.341-.412c-.035-.053-.071-.09-.071-.11a.058.058,0,0,1,.055-.053c.124,0,.68.053.805.072.179,0,1.433.053,2.347.053h2.83c.253,0,.269-.035.5-.34.251-.341.269-.377.359-.377a11.9,11.9,0,0,1,1.074.61c.467.3.61.375.61.644,0,.412-.306.43-.791.448-.3.018-.609.055-1.4.913-.053.072-.269.288-.359.288-.069,0-.069-.072-.069-.09,0-.161.465-1.166.465-1.416,0-.2-.109-.2-.538-.2Zm-.25-5.519c.77,0,.842-.035.984-.3.143-.288.2-.412.341-.412s1.524.913,1.524,1.271c0,.179-.072.179-.7.306-.267.053-.287.053-2.38,1.754-.235.18-.359.287-.359.432a.313.313,0,0,0,.071.179,1.411,1.411,0,0,1,.341.949c0,.734-.591.734-.646.734-.411,0-.573-.358-.664-.572a5.508,5.508,0,0,0-1.163-1.757c-.055-.071-.412-.412-.412-.446,0-.072.106-.072.143-.072a19.085,19.085,0,0,1,1.863.7c.2,0,.3-.106.536-.446a11.456,11.456,0,0,0,1.039-1.649c0-.179-.214-.2-.448-.2H197.75c-.5,0-1.4.019-2.115.056-.055,0-.485.053-.52.053-.053,0-.09-.053-.161-.126l-.341-.412a.241.241,0,0,1-.069-.126c0-.037.035-.037.053-.037.106,0,.662.055.788.055.519.035,1.451.071,2.454.071Zm2.042,9.048c-.071-.071-.071-.089-.071-.108a.055.055,0,0,1,.053-.053c.09,0,.556.053.644.053.108.019,1.667.072,2.221.072.377,0,.377-.143.449-.5a7.779,7.779,0,0,0,.106-.9.965.965,0,0,0-.071-.412,2.91,2.91,0,0,1-.143-.43.163.163,0,0,1,.18-.161c.016,0,1.681.377,1.681.664,0,.09-.3.43-.338.519a5.451,5.451,0,0,0-.234.95c0,.216.126.269.412.269h.609c.841,0,.95,0,1.092-.216.216-.322.251-.375.377-.375.143,0,1.147.662,1.147.913,0,.143-.053.2-.25.393-.163.18-.234.288-.288.791a15.209,15.209,0,0,1-.573,3.134,2.125,2.125,0,0,1-1.97,1.469.4.4,0,0,1-.395-.2c-.035-.055-.18-.341-.214-.412-.109-.161-.718-.933-.718-.986,0-.071.072-.071.108-.071a3.126,3.126,0,0,1,.377.124,4.607,4.607,0,0,0,.968.143c.267,0,.715,0,.949-.984a15.094,15.094,0,0,0,.358-2.8c0-.448-.34-.448-.482-.448h-1.237a.555.555,0,0,0-.412.108,13.051,13.051,0,0,0-.9,1.809,6.627,6.627,0,0,1-4.281,3.4c-.053,0-.108,0-.108-.055a.2.2,0,0,1,.108-.142c.287-.216.789-.5,1.074-.718a8.175,8.175,0,0,0,2.759-4.175c0-.213-.159-.232-.322-.232-.536,0-1.11,0-1.648.035-.071,0-.483.055-.52.055-.053,0-.089-.055-.159-.127Zm5.679-7.56c.788,0,.878,0,1.057-.288.359-.591.395-.644.538-.644.269,0,1.416.932,1.416,1.2,0,.214-.232.214-.734.214h-.754c-.25,0-.322,0-.322.126,0,.053.019.071.108.126.126.108.2.18.2.287,0,.161-.143.234-.253.269-.446.179-.536.269-1.235,1.057-.09.09-.519.556-.591.662a.308.308,0,0,0-.108.2c0,.358,2.044,1.308,3.656,1.649.428.089.483.089.483.124a6.344,6.344,0,0,1-.878.485.967.967,0,0,0-.393.556c-.037.069-.072.126-.145.126a14.954,14.954,0,0,1-3.189-2.026.576.576,0,0,0-.375-.214c-.143,0-.2.053-.5.287a9.567,9.567,0,0,1-4.067,1.809c-.037,0-.108-.018-.108-.053,0-.108,1.685-.86,2.008-1.058.519-.3,2.023-1.306,2.023-1.718a3.085,3.085,0,0,0-.448-.734c-.269-.377-.628-1-.9-1.363-.071-.089-.124-.159-.25-.159-.269,0-1.594,1.648-2.024,1.648a.083.083,0,0,1-.072-.09c0-.143.465-.591.538-.7a11,11,0,0,0,1.989-4.012,3.092,3.092,0,0,1-.018-.4c0-.069.071-.089.126-.089a14.615,14.615,0,0,1,1.487.556c.2.089.269.143.269.251,0,.143-.035.159-.375.375a4.521,4.521,0,0,0-1.094,1.363c0,.179.216.179.34.179Zm-2.812.483c-.288,0-.448,0-.448.2,0,.251,1.253,1.9,1.665,1.9a3.343,3.343,0,0,0,1.29-1.81c0-.287-.251-.287-.395-.287Z" transform="translate(9119.973 5657.255)" fill="#fff"/>
  </g>
</svg>
