<svg xmlns="http://www.w3.org/2000/svg" width="191.228" height="74.357" viewBox="0 0 191.228 74.357">
  <g id="グループ_26287" data-name="グループ 26287" transform="translate(-222.366 -347.723)">
    <path id="パス_38462" data-name="パス 38462" d="M2.19,39.117C3.078,45.268,6.4,53.6,15.293,53.6,21.04,53.6,25,49.557,25,43.161c0-4.608-2.828-7.686-7.521-11.406l-2.264-1.777c-3.725-3-9.065-7.444-9.065-14.159,0-8.418,6.715-14.484,16.423-14.484A23.819,23.819,0,0,1,30.264,2.71C31.8,3.274,33.174,3.758,33.821,4c-.319,3.4-.159,7.686-.242,11.329l-2.344.245C30.588,9.508,28.484,4,21.527,4c-5.664,0-9.065,4.531-9.065,9.466,0,4.69,3.315,7.6,7.527,10.842l2.426,1.78C28,30.3,31.8,34.509,31.8,40.9c0,9.466-8.333,15.458-17.639,15.458-6.47,0-12.137-3-13.914-5.018C.168,49.475.168,45.109,0,39.359Z" transform="translate(222.366 346.388)" fill="#80868b"/>
    <path id="パス_38463" data-name="パス 38463" d="M42.7,11.143a30.529,30.529,0,0,0-7.521.971l1.452-6.225-.806-.4a24.686,24.686,0,0,0-5.906,4.69l-.891,3.642a38.907,38.907,0,0,0-7.769,4.047l.57,2.022a38.71,38.71,0,0,1,6.553-2.919c-3,14-6.066,28.156-9.062,42.321-1.133,5.012-2.025,5.659-7.12,6.63l-.325,2.107,18.69-.974.242-2.1-1.939-.159c-3.967-.4-4.454-1.133-3.483-5.741l2.267-11.414a13.19,13.19,0,0,0,4.776.814,31.992,31.992,0,0,0,15.048-9.392c4.608-5.254,6.872-11.406,6.872-16.742,0-7.2-3.315-11.169-11.648-11.169M33.964,44.886a7.26,7.26,0,0,1-5.018-2.751l5.5-26.949a19.485,19.485,0,0,1,4.608-.564c4.693,0,8.5,1.78,8.5,8.982,0,10.355-7.854,21.282-13.6,21.282" transform="translate(244.311 354.054)" fill="#80868b"/>
    <path id="パス_38464" data-name="パス 38464" d="M63.241,34.417c-2.344,2.344-5.177,4.206-5.824,4.206-.487,0-.732-.646-.159-3.483,1.862-10.272,4.286-21.276,5.579-26.294l-.242-.319a16.037,16.037,0,0,1-3.073-.487,26.236,26.236,0,0,0-5.018-.57c-5.095,0-11,2.836-15.048,6.234C33.55,18.64,29.745,27.46,29.745,35.627c0,6.479,2.586,9.147,4.693,9.147,2.181,0,4.858-1.461,7.527-3.642A58.255,58.255,0,0,0,52.4,29.963h.168l-1.62,7.686c-1.131,5.909-.083,7.125,1.452,7.125,2.025,0,7.444-3,11.818-8.418ZM53.7,23.735C50.944,29.317,41.8,39.6,38.644,39.6c-1.133,0-2.184-1.7-2.184-5.345,0-8.008,3.238-17.557,8.737-21.6a10.081,10.081,0,0,1,5.747-1.694,13.462,13.462,0,0,1,5.422,1.133C55.8,14.67,54.587,20.5,53.7,23.735" transform="translate(277.33 357.726)" fill="#80868b"/>
    <path id="パス_38465" data-name="パス 38465" d="M70.132,35.794c-5.018,5.741-11.406,8.979-16.181,8.979-5.177,0-8.66-4.126-8.66-11.893a27.976,27.976,0,0,1,8.333-19.419C56.94,10.551,62.6,7.47,66.572,7.47c3.477,0,6.069,2.025,6.146,4.047a4.462,4.462,0,0,1-2.668,3.725c-.646.4-1.21.242-1.78-.487-1.7-2.349-3.56-3.483-6.069-3.483-2.91,0-5.177,2.435-6.712,5.345a31.774,31.774,0,0,0-3.56,14.646C51.928,37,54.2,40,57.669,40c4.129,0,9.065-3.728,11.246-5.992Z" transform="translate(306.054 357.724)" fill="#80868b"/>
    <path id="パス_38466" data-name="パス 38466" d="M70.1,40c-4.935,0-6.311-4.773-6.311-9.139a14.509,14.509,0,0,1,.165-2.592c7.763-1.939,21.359-6.314,21.359-14.319,0-3.483-2.834-6.479-7.122-6.479C74.8,7.471,70.51,9.333,67.027,12c-6.393,4.858-9.708,13.353-9.708,20.957,0,9.626,5.177,11.816,8.9,11.816,3.879,0,9.945-1.535,17.07-9.147l-1.376-1.857C77.869,37.735,73.5,40,70.1,40M71.886,11.76a6.628,6.628,0,0,1,3.315-.965c2.344,0,4.047,1.612,4.047,4.448,0,3.719-3.4,7.444-14.971,10.514,1.375-9.062,5.419-12.781,7.609-14" transform="translate(328.281 357.726)" fill="#80868b"/>
  </g>
</svg>
