<svg xmlns="http://www.w3.org/2000/svg" width="295.368" height="58.58" viewBox="0 0 295.368 58.58">
  <g id="グループ_26289" data-name="グループ 26289" transform="translate(-848.266 -343.921)">
    <path id="パス_38478" data-name="パス 38478" d="M280.949,3.9c-4.858.319-5.992,1.535-7.04,5.095a134.423,134.423,0,0,0-3.073,13.755l-6.151,32.2h-2.426L238.308,12.07h-.245l-4.2,21.518a110.166,110.166,0,0,0-2.107,13.6c-.159,3.719,1.3,4.534,6.88,4.935l-.484,2.181H219.618l.487-2.181c4.2-.242,6.066-1.216,7.122-4.69a125.021,125.021,0,0,0,3.392-14.082l4.212-19.906c.806-4.121.564-5.254-.484-7.034-.974-1.7-2.349-2.19-6.883-2.509l.487-2.107h11.656l23.862,41.182h.327l3.725-20.225A127.71,127.71,0,0,0,269.7,8.914c.242-3.808-1.048-4.613-7.04-5.018l.57-2.107h18.2Z" transform="translate(628.648 347.227)" fill="#80868b"/>
    <path id="パス_38479" data-name="パス 38479" d="M254.621,40c-4.935,0-6.311-4.773-6.311-9.139a14.51,14.51,0,0,1,.165-2.592c7.763-1.939,21.359-6.314,21.359-14.319,0-3.483-2.836-6.479-7.122-6.479-3.392,0-7.681,1.862-11.164,4.531-6.393,4.858-9.708,13.353-9.708,20.957,0,9.626,5.177,11.816,8.9,11.816,3.879,0,9.945-1.535,17.07-9.147l-1.376-1.857C262.39,37.735,258.018,40,254.621,40m1.786-28.239a6.628,6.628,0,0,1,3.315-.965c2.344,0,4.047,1.612,4.047,4.448,0,3.719-3.4,7.444-14.971,10.514,1.375-9.062,5.419-12.781,7.609-14" transform="translate(669.244 357.726)" fill="#80868b"/>
    <path id="パス_38480" data-name="パス 38480" d="M275.549,18.917l-8.014.41-4.767,22.324c-.814,3.97-.41,4.858.487,4.858,1.367,0,5.337-2.668,7.276-4.69l1.133,1.694c-2.671,3.241-8.737,8.66-13.026,8.66-1.863,0-3.483-2.347-1.7-10.682l4.77-22.165h-5.986l-.242-.729,2.022-2.426h4.853l1.862-7.686,6.151-5.021.729.487-2.836,12.22h9.392Z" transform="translate(694.453 350.323)" fill="#80868b"/>
    <path id="パス_38481" data-name="パス 38481" d="M299.14,36.441c3.315-4.531,11.406-15.7,11.406-20.88a8.463,8.463,0,0,0-.806-3.716,2.208,2.208,0,0,1,0-2.025,3.9,3.9,0,0,1,3.315-2.349c2.022,0,3.483,1.78,3.483,4.616,0,2.751-1.535,5.422-3.315,8.492-2.754,4.448-12.548,17.961-17.078,24.2h-2.267c-.646-8.575-1.452-17.07-2.264-25.243h-.16c-5.18,8.655-11.087,18.121-15.452,25.243h-2.1c-.077-7.846-.487-18.286-.806-26.058-.168-3.879-.487-5.337-1.293-5.337-.572,0-1.788.974-4.776,4.129l-1.376-1.62c3.4-4.531,7.6-8.418,10.355-8.418,1.862,0,2.754,2.435,2.913,8.014.159,6.473.242,13.755.242,19.095h.159c4.858-8.333,10.275-17.155,15.048-25.89h2.025c.889,9.062,1.618,18.445,2.592,27.752Z" transform="translate(713.235 357.724)" fill="#80868b"/>
    <path id="パス_38482" data-name="パス 38482" d="M306.783,7.471a20.536,20.536,0,0,0-8.737,2.594c-6.712,3.557-12.3,11.565-12.3,22.088,0,6.553,3,12.622,10.679,12.622,4.531,0,8.982-2.19,12.462-5.1,5.667-4.693,8.655-12.622,8.655-19.582,0-8.005-4.044-12.622-10.759-12.622m-4.85,33.579a6.678,6.678,0,0,1-2.592.487c-4.289,0-6.8-3.8-6.8-9.788,0-12.462,5.417-19.1,8.572-20.476a7.257,7.257,0,0,1,3.081-.723c3.719,0,6.55,3.158,6.55,9.711,0,10.358-4.451,18.927-8.814,20.789" transform="translate(750.374 357.726)" fill="#80868b"/>
    <path id="パス_38483" data-name="パス 38483" d="M300.535,15.4c4.129-4.608,9.147-7.931,11.329-7.931,2.022,0,2.107,3.725.891,9.392l-.806,4.044h.242c4.121-7.931,8.9-13.436,12.135-13.436A4.373,4.373,0,0,1,327.8,9.493a3.558,3.558,0,0,1-.077,3.483,8.441,8.441,0,0,1-2.107,2.344c-.729.487-1.375.487-1.78.083a3.746,3.746,0,0,0-2.751-1.375c-.974,0-2.267.812-4.129,3.4a55.426,55.426,0,0,0-5.741,10.039c-1.293,5.419-2.264,10.514-3.238,15.854a29.909,29.909,0,0,0-5.741,1.458l-.646-.646c2.1-8.66,4.366-18.613,5.9-27.265.487-2.671.487-3.483-.16-3.483-.729,0-3.315,1.618-5.741,3.884Z" transform="translate(777.701 357.726)" fill="#80868b"/>
    <path id="パス_38484" data-name="パス 38484" d="M345.347,51.212c-3.8,5.992-7.2,7.367-8.9,7.367s-3.318-.974-5.34-5.345a162.434,162.434,0,0,1-6.151-15.048,35.035,35.035,0,0,0-4.525,5.18c-.9,4.371-1.863,9.062-2.751,13.678a35.348,35.348,0,0,0-5.824,1.535l-.572-.487c3.887-16.506,7.53-32.77,11-49.6.647-3.232.242-3.56-2.913-3.642l-2.509-.077.41-1.945C323.82,2.107,328.109,0,329.165,0c.806,0,.723.732.4,2.344-2.754,12.058-5.34,23.95-8.091,36.011h.083a86.108,86.108,0,0,1,6.957-7.285c4.525-4.616,10.434-9.794,14.159-9.794,2.181,0,3.4,1.3,3.4,2.509a5.658,5.658,0,0,1-1.618,3.241c-.487.4-.974.561-1.293.4a7.245,7.245,0,0,0-3.081-.646c-3.716,0-8.25,4.206-10.514,6.715a95.383,95.383,0,0,0,6.63,15.936c1.461,3,2.267,3.887,3.155,3.887.814,0,2.594-1.378,4.616-3.719Z" transform="translate(797.558 343.921)" fill="#80868b"/>
  </g>
</svg>
