<svg xmlns="http://www.w3.org/2000/svg" width="325" height="184" viewBox="0 0 325 184">
  <g id="グループ_26351" data-name="グループ 26351" transform="translate(-8696 -1290)">
    <rect id="長方形_9293" data-name="長方形 9293" width="325" height="184" transform="translate(8696 1290)" fill="#fff" opacity="0.9"/>
    <g id="グループ_26347" data-name="グループ 26347">
      <path id="パス_38214" data-name="パス 38214" d="M113.015,9.484c-.13,0-.143.028-.343.492l-.043.1c-.381.9-1.186,1.3-2.608,1.3h-1.476c-.219,0-.439-.048-.439-.139,0-.2.7-1.5,2.91-3.351,1.3-1.084,2.147-1.9,2.147-3.369a2.766,2.766,0,0,0-2.942-2.77,3.014,3.014,0,0,0-3.157,2.67.949.949,0,0,0,.894,1.051.851.851,0,0,0,.85-.851,1.172,1.172,0,0,0-.295-.7l-.02-.029a.67.67,0,0,1-.129-.386c0-.59.727-1.127,1.527-1.127a1.847,1.847,0,0,1,1.829,1.943c0,1.317-.258,1.655-3.664,5.71a4.285,4.285,0,0,0-1.264,2.3c0,.183.183.291.492.291h4.484a.833.833,0,0,0,.934-.574c.015-.064.048-.2.09-.372.28-1.146.442-1.827.442-1.91,0-.17-.084-.277-.22-.277" transform="translate(8693.214 1329.852)" fill="#80868b"/>
      <path id="パス_38215" data-name="パス 38215" d="M124.478,12.89a2.831,2.831,0,0,0,2.545-1.835,8.81,8.81,0,0,0,.754-3.729c0-2.766-1.02-5.564-3.3-5.578s-3.3,2.8-3.3,5.578,1.02,5.564,3.3,5.564m0-10.516c1.723,0,1.857,3.79,1.857,4.952s-.134,4.938-1.858,4.938h-.008a1.094,1.094,0,0,1-.792-.342c-.954-.946-1.057-3.529-1.057-4.6,0-1.161.133-4.952,1.857-4.952" transform="translate(8689.678 1329.851)" fill="#80868b"/>
      <path id="パス_38216" data-name="パス 38216" d="M135.38,12.326c0,.183.184.292.492.292h4.485a.833.833,0,0,0,.934-.575c.014-.06.044-.183.084-.342.277-1.136.449-1.856.449-1.94,0-.171-.084-.278-.22-.278s-.142.029-.343.492l-.042.1c-.382.9-1.186,1.3-2.609,1.3h-1.476c-.218,0-.439-.048-.439-.138,0-.2.7-1.5,2.91-3.351,1.3-1.084,2.148-1.9,2.148-3.369a2.766,2.766,0,0,0-2.942-2.769,3.014,3.014,0,0,0-3.157,2.67.949.949,0,0,0,.893,1.051.852.852,0,0,0,.851-.851,1.169,1.169,0,0,0-.3-.7l-.02-.029a.674.674,0,0,1-.129-.386c0-.59.729-1.127,1.528-1.127a1.846,1.846,0,0,1,1.829,1.943c0,1.316-.259,1.655-3.664,5.709a4.284,4.284,0,0,0-1.265,2.3" transform="translate(8686.186 1329.851)" fill="#80868b"/>
      <path id="パス_38217" data-name="パス 38217" d="M156.282,9.255h-1.017c-.312,0-.324-.051-.324-1.356,0-.308.011-1.165.023-1.994.011-.793.02-1.566.02-1.831a7.422,7.422,0,0,0-.1-2.15.424.424,0,0,0-.335-.176c-.263,0-.324.1-.718.742l-.051.086c-.059.107-1.71,2.867-2.8,4.693L150,8.9l-.015.023c-.251.406-.283.457-.283.619,0,.334.253.334.421.334h3.223c.3,0,.31.163.31.784,0,.894,0,1.342-.9,1.342-.3,0-.563,0-.563.32,0,.109.054.292.42.292h3.224c.127,0,.463,0,.463-.292,0-.275-.174-.29-.6-.328l-.063-.006c-.689-.052-.689-.456-.689-1.342,0-.647.011-.769.339-.769h.989c.126,0,.421,0,.421-.32,0-.192-.157-.306-.421-.306M153.642,9a.278.278,0,0,1-.3.25H150.81c-.128,0-.21-.026-.213-.051.048-.153,1.351-2.32,2.051-3.483.3-.5.538-.894.619-1.035a2.659,2.659,0,0,1,.325-.457.265.265,0,0,1,.034.117c0,.008,0,.157.005.373.008.568.023,1.6.023,1.748,0,.784,0,2.416-.013,2.538" transform="translate(8682.665 1329.851)" fill="#80868b"/>
      <path id="パス_38218" data-name="パス 38218" d="M177.665,8.759c0-.269-1.387-1.222-1.552-1.222-.186,0-.244.082-.622.621-.221.325-.24.325-.725.325h-2.335c-.368,0-.368-.178-.368-.367,0-.54,0-1.663-.014-2.193,0-.438.077-.453.439-.453H175.1c.619,0,.85,0,.85-.262s-1.309-1.037-1.409-1.037c-.13,0-.319.194-.59.49a2.7,2.7,0,0,1-.242.247,2.813,2.813,0,0,1-.672.038h-.544c-.333,0-.439-.019-.439-.4V2.662c.021-.231.136-.274.353-.274h3.21c.512,0,.85,0,.85-.277S174.953,1,174.938,1c-.124,0-.265.184-.516.572-.048.075-.1.147-.112.166-.075.076-.106.107-.762.107h-4.507a.07.07,0,0,1,0-.023,1.165,1.165,0,0,1,.321-.462,1.362,1.362,0,0,1,.123-.1c.262-.2.372-.294.372-.388,0-.3-1.406-.851-1.466-.874L168.362,0c-.137,0-.232.428-.232.428a11.847,11.847,0,0,1-2.646,4.265c-.481.48-.481.528-.481.569a.12.12,0,0,0,.134.121c.565,0,2.343-1.649,3.053-2.507l.02-.023c.379-.448.394-.465.8-.465h1.476c.34,0,.353,0,.353,2.187,0,.228-.018.368-.367.368h-1.834a1.622,1.622,0,0,1-.648-.111,2.209,2.209,0,0,0-.727-.2c-.134,0-.134.091-.134.334,0,.016.005.187.013.437.02.663.059,1.9.059,2.2,0,.884-.012.884-.325.884-.168,0-.628-.027-1.074-.053-.421-.026-.82-.048-.96-.048-.117,0-.134.066-.134.106,0,.06.018.078.09.149l.27.327a.225.225,0,0,0,.19.117c.023,0,.091-.008.159-.015s.121-.014.149-.014c.5-.044,1.443-.044,1.8-.044h3.1c.205,0,.353,0,.353.354s-.029,1.643-.043,2.059c0,.075-.017.234-.032.419-.031.38-.069.853-.069.99a.556.556,0,0,0,.521.52,1.344,1.344,0,0,0,.806-.36c.161-.124.173-.306.173-.548,0-.149-.023-.551-.045-.94-.02-.357-.041-.727-.041-.85V9.389c0-.287.051-.382.354-.382h4.4c.581,0,.836-.023.836-.248m-7.211-.277h-1.676c-.4,0-.41,0-.41-1.8,0-1.213.036-1.213.382-1.213h1.719c.4,0,.4,0,.4,1.385,0,1.628-.008,1.628-.41,1.628" transform="translate(8678.977 1330.281)" fill="#80868b"/>
      <path id="パス_38219" data-name="パス 38219" d="M188.306,9.881h3.223c.3,0,.311.162.311.784,0,.893,0,1.342-.9,1.342-.3,0-.564,0-.564.32,0,.109.055.292.421.292h3.223c.127,0,.463,0,.463-.292,0-.275-.173-.291-.6-.329l-.063-.006c-.688-.052-.688-.456-.688-1.342,0-.646.011-.768.339-.768h.988c.127,0,.422,0,.422-.32,0-.192-.158-.306-.422-.306h-1.017c-.312,0-.324-.051-.324-1.356,0-.308.011-1.165.023-1.995.01-.793.02-1.566.02-1.831a7.359,7.359,0,0,0-.1-2.149.424.424,0,0,0-.334-.176c-.263,0-.324.1-.719.743l-.051.085c-.06.108-1.711,2.868-2.8,4.694-.493.824-.881,1.473-.977,1.635l-.016.023c-.25.4-.283.456-.283.618,0,.335.253.335.421.335m2.527-4.161c.3-.5.538-.894.619-1.034a2.716,2.716,0,0,1,.324-.458.261.261,0,0,1,.034.118c0,.008,0,.157.006.373.008.568.023,1.6.023,1.747,0,.784,0,2.416-.014,2.538a.278.278,0,0,1-.3.251h-2.535c-.127,0-.21-.026-.212-.052.048-.153,1.351-2.319,2.051-3.483" transform="translate(8673.277 1329.852)" fill="#80868b"/>
      <path id="パス_38220" data-name="パス 38220" d="M203.291,13.252c.149,0,2.337-1.339,2.741-4.81l0-.028c.081-.664.081-.664.394-.664H210.8c.271,0,.382.035.382.382,0,.244,0,.912-.008,1.557,0,.606-.006,1.192-.006,1.394,0,.311-.032.367-.425.367-.1,0-.56-.038-.968-.071-.388-.031-.723-.058-.794-.058-.149,0-.248.066-.248.163,0,.168.166.2.416.261a2.611,2.611,0,0,1,1.671,1.137c.084.156.146.269.382.269a2.259,2.259,0,0,0,1.071-.538,1.229,1.229,0,0,0,.295-.928c0-.334-.051-1.52-.08-2.23-.01-.205-.017-.368-.02-.452-.038-1.516-.057-3.183-.057-5.1a9.536,9.536,0,0,1,.066-2.133c.064-.155.109-.2.384-.391a.273.273,0,0,0,.094-.184c0-.249-1.041-1.008-1.208-1.008-.117,0-.152.045-.44.4l-.065.079c-.125.163-.214.213-.526.213h-4.083a1.316,1.316,0,0,1-.739-.192c-.9-.452-.976-.481-1.066-.481-.035,0-.119.014-.119.149,0,.056.09.524.1.572a30.329,30.329,0,0,1,.186,3.769c0,2.256,0,5.664-1.531,7.889l-.033.04c-.225.275-.3.384-.3.452a.163.163,0,0,0,.163.177m2.87-11.495c0-.268.09-.354.368-.354h4.3c.353,0,.367,0,.367,1.041a11.613,11.613,0,0,1-.036,1.342c-.06.131-.2.142-.331.142h-4.3c-.351,0-.368-.133-.368-.41Zm.014,2.906c.029-.171.187-.195.354-.195h4.3c.367,0,.367,0,.367,1.414,0,1.342,0,1.342-.367,1.342H206.5c-.356,0-.369-.072-.369-.725,0-.672.017-1.735.042-1.836" transform="translate(8669.53 1330.234)" fill="#80868b"/>
      <path id="パス_38221" data-name="パス 38221" d="M228.884,12.341c0-.334-.295-.334-.421-.334-1.044,0-1.2-.17-1.287-.529-.038-.205-.054-5.443-.054-6.3,0-.22.008-.814.014-1.392.007-.549.014-1.084.014-1.272,0-.663,0-.765-.234-.765a1.7,1.7,0,0,0-.495.208,2.286,2.286,0,0,1-.233.112,6.623,6.623,0,0,1-1.6.354c-.439.028-.659.042-.659.306s.212.263.563.263c1.234,0,1.327.013,1.327.6,0,.388.008,1.455.015,2.495.007.989.014,1.955.014,2.29a20.613,20.613,0,0,1-.094,3.236c-.146.341-.44.4-1.248.4-.538,0-.807,0-.807.305,0,.051.02.3.406.3h4.341c.13,0,.435,0,.435-.276" transform="translate(8664.472 1329.852)" fill="#80868b"/>
      <path id="パス_38222" data-name="パス 38222" d="M245.11,12.238c.035.455.3.616.535.616a.8.8,0,0,0,.793-.865c0-.478-.041-2.143-.074-3.479-.019-.756-.035-1.415-.041-1.708,0-.391-.008-.687-.013-.954-.008-.581-.016-1.041-.016-2.1,0-.7.076-.753.232-.873l.039-.035c.227-.2.3-.266.3-.4,0-.29-1.118-.965-1.324-.965-.189,0-.268.11-.478.4-.075.106-.149.111-.453.111h-4.384a1.23,1.23,0,0,1-.682-.192c-.569-.285-.633-.309-.707-.309s-.163.033-.163.192c0,.1.037.434.076.781l.01.084c.115,1.444.115,4.8.115,6.413,0,.41-.05,2.154-.073,2.992-.008.277-.013.461-.013.475,0,.2,0,.606.578.606.7,0,.735-.466.764-.843.015-.158.123-.232.339-.232h4.413c.209,0,.21.024.225.273m-5.035-9.549a.251.251,0,0,1,.254-.151h4.427c.109,0,.229.011.284.128.026.148.069,3.373.069,3.563s0,.382-.339.382h-4.4c-.293,0-.324-.145-.324-.453,0-1.648.008-3.358.027-3.469m.369,8.736c-.3,0-.353-.084-.353-.568,0-.265-.011-1-.023-1.71-.011-.685-.02-1.353-.02-1.584,0-.294.049-.425.339-.425h4.384c.305,0,.339.15.339.468,0,1.6,0,3.492-.014,3.588-.02.214-.172.232-.339.232Z" transform="translate(8660.79 1329.917)" fill="#80868b"/>
      <path id="パス_38223" data-name="パス 38223" d="M257.331,13.806a3.982,3.982,0,0,1,1.477,1.505c.477.867.55,1,.9,1a.757.757,0,0,0,.635-.763c0-1.4-2.523-2.155-3.014-2.155-.154,0-.234.089-.234.177,0,.063.056.119.236.236" transform="translate(8656.263 1326.989)" fill="#80868b"/>
    </g>
    <g id="グループ_26345" data-name="グループ 26345">
      <path id="パス_38244" data-name="パス 38244" d="M10.262,89.188c-.109,0-.464.038-.749.068-.14.014-.26.028-.314.032-.165.006-.589.033-1.038.062-.6.038-1.275.081-1.437.081-.339,0-.354-.063-.354-.2a.265.265,0,0,1,0-.034.855.855,0,0,0,.01-.114l.036-.277c.078-.593.158-1.207.206-1.694L6.655,87a2.909,2.909,0,0,0,.088-.431c0-.144-.052-.2-.393-.553L6.334,86c-.026-.026-.107-.1-.107-.16,0-.075.137-.081.146-.081.112-.011.383-.044.7-.084.529-.067,1.187-.15,1.4-.159.362-.015.812-.033.812-.377,0-.5-1.029-.807-1.481-.807a2.016,2.016,0,0,0-.522.184,2.992,2.992,0,0,1-.3.119,16.433,16.433,0,0,1-3.56.57,5.61,5.61,0,0,1-1.179-.14h0c-.069-.032-.227-.075-.278-.026-.141.141.219.651.238.677a2.483,2.483,0,0,0,.99.672,3.3,3.3,0,0,0,.4-.1,12.168,12.168,0,0,1,1.452-.333c.31,0,.439.276.439,1.986,0,.621,0,1.47-.238,1.576a31.553,31.553,0,0,1-3.4.4A6.8,6.8,0,0,1,.6,89.79,2.268,2.268,0,0,0,.176,89.7.165.165,0,0,0,0,89.881c0,.762,1.474,1.394,1.538,1.394a2.414,2.414,0,0,0,.511-.152c.121-.042.233-.082.283-.094A25.64,25.64,0,0,1,8.514,90.3a5.844,5.844,0,0,1,1.716.184l.175.045a5.611,5.611,0,0,0,.746.171c.006,0,.606-.028.606-.377,0-.48-1.1-1.137-1.495-1.137" transform="translate(8719.469 1309.548)" fill="#80868b"/>
      <path id="パス_38245" data-name="パス 38245" d="M28.653,88.268l-.052-.03c-.591-.324-.591-.34-.591-.42a.407.407,0,0,1,.1-.243c.048-.069.135-.2.245-.358.41-.6,1.174-1.716,1.4-1.985a2.289,2.289,0,0,1,.176-.155c.317-.268.459-.4.459-.511,0-.4-.919-1.166-1.295-1.166a1.732,1.732,0,0,0-.575.3c-.1.068-.2.131-.242.149a19.966,19.966,0,0,1-3.9.524,2.469,2.469,0,0,1-.735-.14s-.36-.1-.4-.1c-.074,0-.162.033-.162.191a2.9,2.9,0,0,0,.367.885,2.969,2.969,0,0,0,1.028.538,1.57,1.57,0,0,0,.446-.176,2.44,2.44,0,0,1,.225-.1c.155-.052,3.031-.713,3.156-.726.072,0,.089.029.094.049a15.58,15.58,0,0,1-5.368,6.572c-.007.005-.693.468-.693.6a.156.156,0,0,0,.177.161,3.517,3.517,0,0,0,.922-.337,14.281,14.281,0,0,0,3.771-3l.078-.083c.32-.363.342-.376.444-.376a6.649,6.649,0,0,1,2.5,2.784c.5.89.58,1.027.955,1.027a.7.7,0,0,0,.664-.707c0-1.316-2.406-2.7-3.2-3.16" transform="translate(8713.977 1309.777)" fill="#80868b"/>
      <path id="パス_38246" data-name="パス 38246" d="M50.735,82.793a1.213,1.213,0,0,0-.417.215c-.082.052-.167.106-.2.119a43.318,43.318,0,0,1-5.9.827,6.126,6.126,0,0,1-.891-.057h0c-.054-.008-.232-.045-.39-.078a3.479,3.479,0,0,0-.351-.067c-.122,0-.176.067-.176.134,0,.534,1.145,1.5,1.538,1.5a3.9,3.9,0,0,0,.85-.279c.165-.064.308-.121.376-.14a24.789,24.789,0,0,1,5.092-.885c.134,0,.2.072.2.139a3.957,3.957,0,0,1-1.7,1.671,3.154,3.154,0,0,1-.417-.14c-.053-.02-.094-.036-.118-.044a2.236,2.236,0,0,0-.8-.132c-.241,0-.378.075-.378.205,0,.076.016.107.137.35a1.75,1.75,0,0,1,.178.811,6.45,6.45,0,0,1-1.063,3.1,9.642,9.642,0,0,1-2.547,2.644c-.262.2-.316.247-.316.333a.147.147,0,0,0,.163.148,3.761,3.761,0,0,0,1.025-.425,7.846,7.846,0,0,0,3.646-4.468l.052-.148a7.179,7.179,0,0,1,.668-1.667,9.985,9.985,0,0,1,2.95-1.274c.517-.119.56-.294.56-.448a3.74,3.74,0,0,0-1.767-1.939" transform="translate(8709.043 1309.927)" fill="#80868b"/>
      <path id="パス_38247" data-name="パス 38247" d="M67.213,81.52a.215.215,0,0,0-.22.191c0,.02,0,.047.11.265a.746.746,0,0,1,.106.365c0,.39-1.118,2.8-4.474,5.673-.094.083-.216.186-.354.3-.2.167-.428.363-.652.56a.2.2,0,0,0-.066.155.147.147,0,0,0,.149.163,15.353,15.353,0,0,0,4.123-2.759c.1-.1.15-.15.189-.15.09,0,.3.189.3,1.943,0,.777-.06,1.882-.143,2.63-.006.054-.034.2-.063.348a4.5,4.5,0,0,0-.1.576c0,.427.517,1.08.965,1.08.191,0,.421-.122.421-.707,0-.143-.048-.632-.079-.956-.011-.109-.018-.2-.023-.237-.029-.58-.042-1.352-.042-1.716a14.269,14.269,0,0,1,.084-2.524c.006-.029.038-.127.068-.212a1.759,1.759,0,0,0,.106-.373c0-.179-.1-.254-.652-.6-.065-.043-.087-.075-.092-.111.1-.124.219-.267.343-.415.226-.271.461-.551.615-.77l.016-.022a3.919,3.919,0,0,1,.941-1.134.439.439,0,0,0,.159-.348c0-.6-1.5-1.222-1.738-1.222" transform="translate(8704.309 1310.24)" fill="#80868b"/>
      <path id="パス_38248" data-name="パス 38248" d="M89.806,89.188c-.109,0-.464.038-.749.068-.14.014-.26.028-.314.032-.165.006-.589.033-1.038.062-.6.038-1.275.081-1.437.081-.339,0-.354-.063-.354-.2a.266.266,0,0,1,0-.034.854.854,0,0,0,.01-.114l.036-.277c.078-.593.158-1.207.206-1.694L86.2,87a2.907,2.907,0,0,0,.088-.431c0-.144-.052-.2-.393-.553L85.878,86c-.026-.026-.107-.1-.107-.16,0-.075.137-.081.146-.081.112-.011.383-.044.7-.084.529-.067,1.187-.15,1.4-.159.362-.015.812-.033.812-.377,0-.5-1.029-.807-1.481-.807a2.016,2.016,0,0,0-.522.184,2.992,2.992,0,0,1-.3.119,16.433,16.433,0,0,1-3.56.57,5.609,5.609,0,0,1-1.179-.14h0c-.069-.032-.227-.075-.278-.026-.141.141.219.651.238.677a2.483,2.483,0,0,0,.99.672,3.3,3.3,0,0,0,.4-.1,12.168,12.168,0,0,1,1.452-.333c.31,0,.439.276.439,1.986,0,.621,0,1.47-.238,1.576a31.553,31.553,0,0,1-3.4.4,6.8,6.8,0,0,1-1.238-.129,2.268,2.268,0,0,0-.424-.085.165.165,0,0,0-.176.176c0,.762,1.474,1.394,1.538,1.394a2.414,2.414,0,0,0,.511-.152c.121-.042.233-.082.283-.094a25.64,25.64,0,0,1,6.183-.727,5.844,5.844,0,0,1,1.716.184l.175.045a5.61,5.61,0,0,0,.746.171c.006,0,.606-.028.606-.377,0-.48-1.1-1.137-1.495-1.137" transform="translate(8699.913 1309.548)" fill="#80868b"/>
      <path id="パス_38249" data-name="パス 38249" d="M108.584,88.137l-.107-.054c-.525-.269-.568-.3-.568-.362a8.5,8.5,0,0,1,.65-1.029c.1-.149.187-.273.227-.336.745-1.176.822-1.29,1.093-1.466.419-.26.495-.307.495-.581a.558.558,0,0,0-.2-.432,3.472,3.472,0,0,0-1.195-.705c-.148,0-.194.036-.492.273l-.057.045a29.874,29.874,0,0,1-4.179.77,1.792,1.792,0,0,1-.706-.182l-.121-.048a1.464,1.464,0,0,0-.347-.127.167.167,0,0,0-.149.176,2.841,2.841,0,0,0,.354.785,1.566,1.566,0,0,0,1.1.768,1.935,1.935,0,0,0,.52-.2c.1-.046.193-.09.238-.106.549-.2,2.9-.757,3.025-.768.047,0,.109.014.109.124A5.315,5.315,0,0,1,107.6,86.2c-.308.5-.692,1.124-.98,1.124a4.861,4.861,0,0,1-.655-.2l-.212-.071a5.878,5.878,0,0,0-1.3-.232c-.241,0-.278.119-.278.191,0,.131.213.228.873.49.4.159,1.067.425,1.091.554.02.107-.081.22-.169.32l-.026.029a24.535,24.535,0,0,1-3.87,3.155c-.864.578-.864.646-.864.695a.151.151,0,0,0,.148.148,13.071,13.071,0,0,0,5.459-3.507.62.62,0,0,1,.43-.261,3.377,3.377,0,0,1,1.193.809c1.243,1.2,1.4,1.354,1.9,1.354a.463.463,0,0,0,.463-.52c0-.818-1.4-1.734-2.219-2.146" transform="translate(8694.587 1309.833)" fill="#80868b"/>
      <path id="パス_38250" data-name="パス 38250" d="M129.581,85.886c.127,0,1.158.014,1.694.071l.237.037c.48.075.963.15,1.121.15.207,0,.449-.1.449-.364a.614.614,0,0,0-.37-.508l-.026-.017a2.991,2.991,0,0,0-1.428-.5,5.681,5.681,0,0,0-.736.137c-.165.035-.311.068-.376.078s-.132.017-.224.029a9.411,9.411,0,0,1-1.158.112c-.361,0-.482-.063-.482-.439A3.065,3.065,0,0,1,128.4,83.6c.008-.02.047-.081.081-.135a.968.968,0,0,0,.183-.367c0-.146-.371-.821-1.423-.821-.321,0-.564.094-.564.219,0,.063.054.132.175.272a1.013,1.013,0,0,1,.106.136,5.191,5.191,0,0,1,.293,1.8c0,.419-.092.5-.613.525-.166.006-.5.021-.859.039-.584.029-1.244.061-1.446.061a3.7,3.7,0,0,1-1.247-.138l-.057-.022a.617.617,0,0,0-.242-.069c-.081,0-.177.035-.177.205,0,.316.732,1.338,1.108,1.338a4.068,4.068,0,0,0,.592-.16c.84-.213,2.53-.455,2.632-.457.288,0,.339.13.339.87,0,.769,0,2.2-.072,2.87-.035.282-.121.321-.21.321a2.245,2.245,0,0,1-.313-.09,1.711,1.711,0,0,0-.36-.1.128.128,0,0,0-.134.134.258.258,0,0,0,.054.14c.011.019.026.041.044.074a4.009,4.009,0,0,1,.529,1.019c.3.824.344.949.711.949.312,0,.836-.16.836-1.236,0-.3-.017-1.163-.034-2.076-.019-.947-.038-1.927-.038-2.28,0-.74.048-.74,1.284-.74" transform="translate(8689.324 1310.053)" fill="#80868b"/>
      <path id="パス_38251" data-name="パス 38251" d="M124.568,90.055l-.033.029a10.769,10.769,0,0,1-1.361,1.066c-.4.25-.581.416-.581.74a.646.646,0,0,0,.464.6.767.767,0,0,0,.3.063c.98,0,1.7-1.743,1.7-2.483,0-.026,0-.249-.148-.249-.086,0-.233.129-.337.234" transform="translate(8689.329 1308.199)" fill="#80868b"/>
      <path id="パス_38252" data-name="パス 38252" d="M132.5,89.119c-.164,0-.177.113-.177.148,0,.082.112.205.566.629l.033.03a5.035,5.035,0,0,1,1.14,1.734l.017.04c.249.6.4.954.841.954h.023a.613.613,0,0,0,.44-.174,1,1,0,0,0,.26-.691c0-1.282-2.356-2.67-3.143-2.67" transform="translate(8686.938 1308.371)" fill="#80868b"/>
      <path id="パス_38253" data-name="パス 38253" d="M154.1,87.883c-.035,0-.091,0-.149.007s-.122.008-.166.008h0c-2.078.114-7.085.3-7.561.3a8,8,0,0,1-1.733-.127c-.023,0-.109-.039-.178-.067a1.226,1.226,0,0,0-.324-.106c-.109,0-.192.106-.192.248,0,.52.682,1.452,1.351,1.452a4.936,4.936,0,0,0,.753-.165c.162-.043.316-.083.38-.094.337-.071,3.648-.257,5.586-.257.139,0,.543.007.962.014.449.008.916.015,1.087.015.612,0,1.265-.04,1.265-.521,0-.183-.2-.707-1.079-.707" transform="translate(8684.117 1308.675)" fill="#80868b"/>
      <path id="パス_38254" data-name="パス 38254" d="M177.765,85.417c-.054,0-.074,0-1.182,1.152-.176.183-.323.336-.391.4a8.629,8.629,0,0,1-3.069,2.313c-.141,0-.2-.112-.2-.4,0-.466.058-2.2.114-2.578.009-.051.036-.161.068-.294a5.58,5.58,0,0,0,.163-.795c0-.846-1.637-1.079-1.653-1.079a.152.152,0,0,0-.162.148,2.09,2.09,0,0,0,.172.5l.022.057a8.81,8.81,0,0,1,.265,2.657c0,.41-.017,1.5-.057,1.747,0,0-.087.442-.087.531a1.675,1.675,0,0,0,.627.982,1.027,1.027,0,0,0,.572.274.345.345,0,0,0,.063-.005c.127-.017.268-.128.523-.415a8.155,8.155,0,0,1,.979-.907c2.587-2.277,3.364-4.038,3.364-4.155a.138.138,0,0,0-.134-.134" transform="translate(8677.316 1309.595)" fill="#80868b"/>
      <path id="パス_38255" data-name="パス 38255" d="M165.66,90.543c-.321.373-.472.569-.472.669a.143.143,0,0,0,.147.148,5.024,5.024,0,0,0,2.72-2.766h0c.207-.464.98-2.6.98-2.683,0-.78-1.554-1.294-1.7-1.294a.136.136,0,0,0-.148.149.861.861,0,0,0,.047.234l.014.048a3.061,3.061,0,0,1,.241,1.208,7.461,7.461,0,0,1-1.718,4.15c-.025.031-.067.081-.117.139" transform="translate(8678.857 1309.478)" fill="#80868b"/>
      <path id="パス_38256" data-name="パス 38256" d="M200.722,81.6c-.261,0-.607.023-.607.22,0,.141.166.207.218.228a3.33,3.33,0,0,1,1.173.85c.24.324.447.6.793.6a.48.48,0,0,0,.449-.506c0-.865-1.179-1.4-2.025-1.4" transform="translate(8670.271 1310.221)" fill="#80868b"/>
      <path id="パス_38257" data-name="パス 38257" d="M198.954,83.42c-.13,0-.32.068-.32.192s.207.271.23.29a4.015,4.015,0,0,1,.959.873c.394.535.546.69.793.69.309,0,.506-.367.506-.621,0-.567-.864-1.424-2.168-1.424" transform="translate(8670.635 1309.772)" fill="#80868b"/>
      <path id="パス_38258" data-name="パス 38258" d="M195.539,86.079a4.422,4.422,0,0,0-.7.16c-.167.045-.327.089-.388.1-1.011.143-4.713.543-5.621.543a4.457,4.457,0,0,1-.867-.091,1.136,1.136,0,0,0-.25-.081c-.041,0-.176.015-.176.22a1.336,1.336,0,0,0,1.207,1.165,6.1,6.1,0,0,0,.915-.222l.135-.038a17.809,17.809,0,0,1,2.259-.427c.19,0,.268.1.268.352a9.567,9.567,0,0,1-2.783,5.343c-.785.686-.785.744-.785.775a.148.148,0,0,0,.163.148,7.139,7.139,0,0,0,3.864-3.722c.071-.134.262-.578.431-.97.121-.284.259-.606.284-.646a1.487,1.487,0,0,1,.118-.12c.174-.166.28-.274.28-.364a1.852,1.852,0,0,0-.371-.637c-.048-.069-.084-.121-.093-.136-.017-.041.008-.086.059-.115.1-.038,1.023-.038,1.417-.038.271,0,.616.034.893.06l.117.012c.049,0,.169.022.308.042.265.038.594.086.7.086a.437.437,0,0,0,.491-.42c0-.679-1.763-.98-1.882-.98" transform="translate(8673.362 1309.119)" fill="#80868b"/>
      <path id="パス_38259" data-name="パス 38259" d="M193.095,82.749a7.089,7.089,0,0,1-1.715.29c-.079,0-.481-.068-.732-.114l-.022,0-.02.008c-.026.011-.069.042-.051.132.047.244.5,1.048,1.155,1.048.027,0,.132-.018.6-.114l.083-.017c.187-.037,1.156-.227,1.9-.314.842-.086,1.158-.118,1.158-.607,0-.354-.317-.549-.893-.549a6.006,6.006,0,0,0-1.163.173Z" transform="translate(8672.622 1309.997)" fill="#80868b"/>
      <path id="パス_38260" data-name="パス 38260" d="M213.047,86.156a1.351,1.351,0,0,1,.362-.386l.064-.054a.41.41,0,0,0,.146-.32c0-.56-1.3-1.065-1.452-1.065a.231.231,0,0,0-.235.219c0,.032.015.07.1.231l.02.035a.689.689,0,0,1,.09.307c0,.286-1.023,2.462-3.925,4.854-.4.318-.6.522-.6.6a.157.157,0,0,0,.163.163,9.978,9.978,0,0,0,3.259-2.168l.058-.051a1.651,1.651,0,0,1,.192-.16c.021,0,.21.041.21,1.5a17.9,17.9,0,0,1-.156,2.451,3.014,3.014,0,0,0-.073.529c0,.33.4.922.793.922.179,0,.391-.108.391-.621,0-.085-.022-.308-.045-.544-.02-.207-.041-.422-.041-.492-.029-.542-.029-1-.029-1.371a14.388,14.388,0,0,1,.057-2.051c.005-.032.035-.12.061-.2a1.321,1.321,0,0,0,.083-.3c0-.2-.216-.328-.446-.468l-.133-.082,0,0a.063.063,0,0,1-.013-.018l.207-.264c.506-.647.612-.781.891-1.2" transform="translate(8668.426 1309.548)" fill="#80868b"/>
      <path id="パス_38261" data-name="パス 38261" d="M225.94,83.547a3.1,3.1,0,0,1,1.225,1.119l.028.043c.462.7.618.937,1.038.937a.708.708,0,0,0,.693-.793c0-.925-1.314-1.738-2.813-1.738-.228,0-.392.086-.392.205s.12.172.167.2Z" transform="translate(8663.976 1309.847)" fill="#80868b"/>
      <path id="パス_38262" data-name="パス 38262" d="M234.689,85.053c-.047,0-.06,0-.691.63l-.022.023c-2.393,2.364-6.158,4.863-6.824,4.863a2.31,2.31,0,0,1-.94-.321c-.019-.01-.066-.044-.123-.084-.213-.15-.288-.2-.341-.2-.146,0-.22.281-.22.836,0,.645,1.124,1.566,1.91,1.566.257,0,.305-.059.575-.385a9.132,9.132,0,0,1,1.391-1.162h0c3.691-2.726,5.431-5.434,5.431-5.621a.165.165,0,0,0-.148-.148" transform="translate(8664.022 1309.371)" fill="#80868b"/>
      <path id="パス_38263" data-name="パス 38263" d="M257.391,80.464a2.708,2.708,0,0,0-1.558-.312c-.071,0-.593.058-.593.277,0,.078.063.178.244.232a3.3,3.3,0,0,1,1.282.681c.306.32.474.5.814.5a.463.463,0,0,0,.435-.492c0-.155,0-.517-.624-.882" transform="translate(8656.719 1310.576)" fill="#80868b"/>
      <path id="パス_38264" data-name="パス 38264" d="M251.978,86.3c.5-.772.551-.846.692-.937l.028-.017c.459-.278.581-.352.581-.593a.584.584,0,0,0-.309-.423c-.075-.045-.452-.248-.546-.3-.587-.344-.663-.388-.811-.388a2.076,2.076,0,0,0-.622.2l-.082.035a8,8,0,0,1-2.148.567c-.148,0-.152-.035-.152-.038,0-.042.028-.084.1-.181.3-.377.447-.567.447-.765a1.392,1.392,0,0,0-1.41-.879c-.117,0-.391,0-.391.22a2.137,2.137,0,0,0,.069.326c.015.059.028.109.031.129.109.8-1.17,2.718-2.385,3.932-.051.051-.18.165-.33.3-.716.631-.824.75-.824.831a.163.163,0,0,0,.177.163,4.3,4.3,0,0,0,1.419-.775,10.819,10.819,0,0,0,1.962-1.873c.6-.691.612-.691.845-.691.042,0,.157.011.272.021s.24.021.287.021c.275,0,1.5-.262,2.094-.388l.257-.055a.077.077,0,0,1,.08.081,17.909,17.909,0,0,1-7.052,7.67c-.467.256-.526.289-.526.4a.2.2,0,0,0,.2.206,9.683,9.683,0,0,0,2.894-1.388,17.486,17.486,0,0,0,5.151-5.409" transform="translate(8659.548 1309.978)" fill="#80868b"/>
      <path id="パス_38265" data-name="パス 38265" d="M254.611,81.786c-.151,0-.32.087-.32.205,0,.1.137.2.247.263l.018.013a4.4,4.4,0,0,1,.984.82c.453.541.584.643.818.643.3,0,.492-.37.492-.636s-.4-1.308-2.24-1.308" transform="translate(8656.951 1310.174)" fill="#80868b"/>
      <path id="パス_38266" data-name="パス 38266" d="M271.488,88.268l-.052-.03c-.591-.324-.591-.34-.591-.42a.407.407,0,0,1,.1-.243c.048-.069.135-.2.245-.358.41-.6,1.174-1.716,1.4-1.985a2.289,2.289,0,0,1,.176-.155c.317-.268.459-.4.459-.511,0-.4-.919-1.166-1.295-1.166a1.733,1.733,0,0,0-.575.3c-.1.068-.2.131-.242.149a19.966,19.966,0,0,1-3.9.524,2.469,2.469,0,0,1-.735-.14s-.36-.1-.4-.1c-.074,0-.162.033-.162.191a2.9,2.9,0,0,0,.367.885,2.969,2.969,0,0,0,1.028.538,1.57,1.57,0,0,0,.446-.176,2.436,2.436,0,0,1,.225-.1c.155-.052,3.031-.713,3.156-.726.072,0,.089.029.094.049a15.58,15.58,0,0,1-5.368,6.572c-.007.005-.693.468-.693.6a.156.156,0,0,0,.177.161,3.517,3.517,0,0,0,.922-.337,14.281,14.281,0,0,0,3.771-3l.078-.083c.32-.363.342-.376.444-.376a6.649,6.649,0,0,1,2.5,2.784c.5.89.58,1.027.955,1.027a.7.7,0,0,0,.664-.707c0-1.316-2.406-2.7-3.2-3.16" transform="translate(8654.275 1309.777)" fill="#80868b"/>
      <path id="パス_38267" data-name="パス 38267" d="M299.5,90.84l-.078-.047a7.538,7.538,0,0,1-3.344-3.917c0-.1.061-.124.282-.124h2.435c.486,0,.836,0,.836-.277,0-.259-1.243-.993-1.338-.993s-.24.137-.521.468a2.582,2.582,0,0,1-.177.2c-.075.076-.131.078-.705.078h-.63c-.4,0-.4-.1-.4-.625a13.649,13.649,0,0,1,.048-1.84c.061-.112.143-.146.348-.146h2.02c.5,0,.836,0,.836-.278a3.564,3.564,0,0,0-1.265-1.023c-.116,0-.274.158-.584.511-.071.08-.138.155-.167.182-.08.068-.161.082-.48.082h-.344c-.3,0-.4-.051-.4-.368a15.831,15.831,0,0,1,.082-1.667,1.114,1.114,0,0,1,.087-.115c.109-.134.161-.2.161-.265,0-.26-1.4-.521-1.41-.521a.137.137,0,0,0-.133.134c0,.069.029.333.075.728.03.259.062.528.068.628s.029.949.029,1.137c0,.285-.167.31-.339.31h-1.1c-.107,0-.109-.034-.112-.034.007-.021.063-.155.112-.275s.1-.251.142-.344l.043-.1c.161-.37.173-.39.269-.419l.038-.013c.248-.083.373-.124.373-.275,0-.29-1.437-.664-1.452-.664-.182,0-.194.124-.22.4a12.326,12.326,0,0,1-.811,2.887c-.025.06-.089.206-.162.374a4.869,4.869,0,0,0-.316.759.112.112,0,0,0,.119.119c.2,0,.959-.936,1.327-1.572.177-.313.185-.319.449-.319h1.289c.292,0,.318.084.34.238a19.6,19.6,0,0,1,.042,1.977c0,.341-.06.4-.425.4H294c-.475,0-1.125-.029-1.513-.046-.161-.007-.274-.011-.307-.011s-.162-.011-.288-.02c-.148-.011-.287-.023-.342-.023-.117,0-.134.066-.134.106a.137.137,0,0,0,.045.1c.011.011.024.026.044.051l.269.327a.227.227,0,0,0,.191.117c.023,0,.091-.008.159-.015s.121-.014.149-.014c.339-.029,1.109-.043,1.425-.043.354,0,.468.018.468.22a12.165,12.165,0,0,1-3.04,4.388c-.005,0-.514.452-.514.573a.149.149,0,0,0,.163.134,1.264,1.264,0,0,0,.437-.191c.044-.025.084-.048.118-.064a10.369,10.369,0,0,0,3.421-3.764.931.931,0,0,1,.128-.186.64.64,0,0,1,.017.2c0,.037-.043,2.268-.057,2.992-.006.222-.029.5-.054.8-.029.363-.06.741-.06,1.021a.334.334,0,0,0,.377.378,1.156,1.156,0,0,0,.633-.2c.146-.109.174-.268.174-.505,0-.344-.007-1.335-.014-2.35-.008-1.049-.015-2.124-.015-2.533.024.069.057.164.088.256.051.149.1.292.121.341a9.6,9.6,0,0,0,2.321,3.674c.091,0,.246-.1.54-.3.063-.044.115-.081.135-.092a1.8,1.8,0,0,1,.7-.152c.183,0,.22-.081.22-.149,0-.092-.12-.178-.5-.406" transform="translate(8648.022 1310.576)" fill="#80868b"/>
      <path id="パス_38268" data-name="パス 38268" d="M285.264,90.256a.107.107,0,0,0,.106.106c.31,0,.907-.976,1.772-2.551l.143-.259c0,.456-.043,3.669-.057,4.017-.015.165-.043,1.2-.043,1.311a.35.35,0,0,0,.391.378.708.708,0,0,0,.736-.751c0-.166-.008-.579-.017-1.057-.015-.793-.035-1.779-.026-2.094,0-.21,0-.816-.007-1.437,0-.649-.008-1.315-.008-1.557,0-.207.054-.253.066-.253.06,0,.272.189.649.9l.031.06c.285.558.371.725.653.725.354,0,.449-.417.449-.664,0-.791-.8-1.11-1.181-1.262l-.03-.013c-.591-.215-.637-.273-.637-.5,0-.833,0-.84.425-.84h.946c.364,0,.707,0,.707-.248,0-.209-1.023-.894-1.151-.894-.159,0-.218.112-.368.4a.347.347,0,0,1-.305.205c-.2,0-.225-.094-.225-.2,0-.076.022-.5.045-.948.028-.56.057-1.138.057-1.272,0-.246.025-.29.143-.385l.02-.017c.134-.106.194-.155.194-.287,0-.21-.168-.263-.448-.333-.019,0-.115-.036-.208-.068a3.97,3.97,0,0,0-.724-.205.124.124,0,0,0-.119.134c0,.028.01.148.03.376.029.329.07.781.07.913,0,2.287,0,2.287-.311,2.287-.158,0-.619-.029-1.026-.055-.366-.023-.712-.045-.821-.045a.113.113,0,0,0-.12.119.159.159,0,0,0,.048.1l.247.349c.023.046.071.143.169.143a1.664,1.664,0,0,0,.271-.044c.276-.014.846-.028.975-.028.221,0,.368.045.368.263a21.9,21.9,0,0,1-1.345,4.282,9.834,9.834,0,0,0-.532,1.195" transform="translate(8649.387 1310.548)" fill="#80868b"/>
      <path id="パス_38269" data-name="パス 38269" d="M320.636,80.642a7.173,7.173,0,0,1,1.09,1.267c.3.426.344.492.54.492a.6.6,0,0,0,.664-.664c0-.9-2.041-1.394-2.254-1.394-.058,0-.149.028-.161.1-.027.094.1.185.121.2" transform="translate(8640.672 1310.529)" fill="#80868b"/>
      <path id="パス_38270" data-name="パス 38270" d="M316.9,91.939c-.015,0-.016,0-.611.131-.883.195-2.722.6-2.87.6s-.167-.062-.167-.94c0-.9.058-2.374.084-2.5s.141-.186.327-.186h1.5c.53,0,.851,0,.851-.262a2.365,2.365,0,0,0-1.123-1.066c-.1,0-.219.13-.458.429a1.926,1.926,0,0,1-.3.336,2.368,2.368,0,0,1-.658.038h-1.131c-.649,0-1.29-.014-1.95-.043-.091-.014-.54-.057-.643-.057-.066,0-.134.039-.134.1s.031.092.089.149l.278.336a.227.227,0,0,0,.182.121,1.084,1.084,0,0,0,.113-.016c.037-.006.074-.013.1-.014a11.335,11.335,0,0,1,1.292-.041c.18,0,.328.02.339.267,0,.024,0,.247.005.508,0,.369.009.814.009.882,0,.2-.015,1.934-.026,2.033a.213.213,0,0,1-.1.152,11.993,11.993,0,0,1-1.809.259l-.134.015c-.438.042-.556.054-.556.192,0,.016.378,1.624.635,1.624.075,0,.161-.078.34-.256a1.332,1.332,0,0,1,.176-.158,18.56,18.56,0,0,1,2.6-.879c1.072-.343,3.892-1.365,3.892-1.635,0-.055-.038-.119-.148-.119" transform="translate(8643.402 1308.717)" fill="#80868b"/>
      <path id="パス_38271" data-name="パス 38271" d="M320.378,82.354c-.182,0-.231.066-.692.689-.163.213-.2.213-.856.213h-1.662c-.3,0-.4,0-.41-1.442,0-.672.005-.7.143-.842s.158-.175.158-.289c0-.271-.3-.329-.618-.39a6.209,6.209,0,0,0-1.02-.159c-.118,0-.177.039-.177.119a6.946,6.946,0,0,0,.15.815c.024.109.044.2.051.244.044.233.271,1.742.271,1.848,0,.063,0,.1-.225.1H311.71c-.669,0-1.292-.014-1.95-.041-.091-.015-.541-.059-.643-.059a.118.118,0,0,0-.133.121c0,.045.018.078.075.135l.294.341c.043.057.087.116.165.116a2.088,2.088,0,0,0,.319-.044c.5-.028,1.48-.028,1.8-.028h3.868c.293,0,.311.026.4.552.93,5.566,3.955,8.6,5.247,8.6a.4.4,0,0,0,.449-.434.849.849,0,0,0-.152-.437.992.992,0,0,1-.149-.551c0-.214.1-1.094.152-1.566.029-.254.035-.31.035-.325,0-.154-.075-.176-.119-.176-.081,0-.135.072-.391.609-.04.084-.073.155-.093.189-.1.179-.39.72-.563.72-.391,0-1.934-1.8-2.806-4.517a19.014,19.014,0,0,1-.57-2.513c0-.126.008-.152.253-.152h3.8c.522,0,.836,0,.836-.292s-1.217-1.151-1.452-1.151" transform="translate(8643.506 1310.58)" fill="#80868b"/>
      <path id="パス_38272" data-name="パス 38272" d="M335.315,87.84c.023,0,.091-.008.159-.015s.121-.014.148-.014c.526-.043.93-.043,1.814-.043h3.295c.725,0,.836,0,.836-.234a3.5,3.5,0,0,0-1.165-1.152c-.1,0-.207.127-.468.438l-.064.076c-.277.332-.287.345-.959.345h-1.418c-.464,0-1.18-.011-1.963-.057-.041,0-.162-.011-.288-.02-.148-.011-.287-.023-.342-.023a.11.11,0,0,0-.119.106.184.184,0,0,0,.075.149l.277.334c.063.063.108.109.183.109" transform="translate(8637.163 1309.044)" fill="#80868b"/>
      <path id="パス_38273" data-name="パス 38273" d="M344.215,85.619a10.759,10.759,0,0,1-5.876-4.511c0-.03,0-.046.068-.081l.028-.019c.125-.087.177-.123.177-.23,0-.325-1.409-.951-1.423-.951-.218,0-.244.1-.336.462l-.026.1a11.934,11.934,0,0,1-3.4,4.07c-.762.645-1.689,1.322-2.174,1.668l-.025.017c-.186.124-.249.166-.249.265a.124.124,0,0,0,.051.1.19.19,0,0,0,.169.013,14.327,14.327,0,0,0,6.321-4.626,3.183,3.183,0,0,1,.346-.4,2.275,2.275,0,0,1,.171.3,13.478,13.478,0,0,0,5.053,5.1.283.283,0,0,0,.253-.18,1.449,1.449,0,0,1,.874-.554c.376-.121.454-.146.454-.288s-.026-.137-.456-.26" transform="translate(8638.098 1310.656)" fill="#80868b"/>
      <path id="パス_38274" data-name="パス 38274" d="M341.838,93.1l-.1-.052a8.232,8.232,0,0,0-1.761-.845.159.159,0,0,0-.176.162c0,.1.118.24.406.556a2.3,2.3,0,0,1,.438.562c0,.073-.223.1-1.077.181-1.612.159-2.946.243-3.115.243-.063,0-.182-.02-.182-.067,0-.079.094-.189.15-.253l.029-.035c.1-.1.688-.808.981-1.2l.044-.058c.311-.411.336-.443.415-.474.441-.117.487-.129.487-.317,0-.15-.358-.49-.593-.7h4.428c.7,0,.821,0,.821-.263,0-.172-.028-.2-.759-.8-.324-.269-.39-.319-.535-.319-.164,0-.235.1-.442.388l-.021.03c-.321.441-.446.441-1.041.441h-4.728c-.5,0-1.241-.028-1.963-.058-.04,0-.161-.01-.287-.02-.148-.011-.287-.022-.343-.022-.116,0-.133.066-.133.1a.159.159,0,0,0,.05.1.547.547,0,0,1,.039.051l.278.336.026.027a.2.2,0,0,0,.157.08c.022,0,.09-.007.158-.015s.122-.013.148-.013c.4-.029.768-.044,1.8-.044h.9c.281,0,.353.017.353.167a10.323,10.323,0,0,1-.737,1.857c-.566,1.131-.63,1.131-1.422,1.131a7.508,7.508,0,0,1-.833-.057c-.02,0-.057-.008-.106-.017a5.025,5.025,0,0,0-.538-.083c-.158,0-.191.1-.191.177a6.708,6.708,0,0,0,.793,1.547.239.239,0,0,0,.214.149.79.79,0,0,0,.312-.155,1.428,1.428,0,0,1,.134-.081,63.769,63.769,0,0,1,6.617-1.311c.151,0,.26,0,.535.491.24.44.568,1.042,1.041,1.042a.773.773,0,0,0,.635-.851c0-.936-.912-1.475-1.315-1.714" transform="translate(8637.654 1308.297)" fill="#80868b"/>
      <path id="パス_38275" data-name="パス 38275" d="M367.1,91.232c-.208,0-.267.077-.662.588a.813.813,0,0,1-.784.4h-.531c-.284,0-.3-.148-.3-.712,0-.493-.011-1.845-.022-3.152-.011-1.24-.021-2.447-.021-2.864,0-.27.034-.4.339-.4h1.992c.5,0,.836,0,.836-.262,0-.307-1.038-1.281-1.28-1.281-.167,0-.213.061-.649.647-.278.37-.318.37-.984.37-.248,0-.268-.152-.268-.367,0-.513.049-2.762.123-2.937a1.27,1.27,0,0,1,.123-.137c.141-.148.2-.214.2-.279,0-.279-.3-.373-.446-.419l-.039-.013-.2-.06a8.526,8.526,0,0,0-.851-.244c-.158,0-.191.1-.191.176,0,.063.02.215.043.377.02.142.042.3.042.359.071,1.055.1,1.709.1,3.032,0,.434-.044.511-.3.511-.314,0-.9-.023-1.333-.041-.23-.009-.408-.016-.459-.016s-.32-.021-.466-.033l-.136-.01a.105.105,0,0,0-.119.106c0,.056.013.072.075.149l.277.334c.063.063.109.109.183.109.032,0,.108-.008.178-.016.054-.006.1-.013.13-.013.5-.043,1.329-.043,1.684-.043.247,0,.267.182.267.368,0,.808-.029,6.259-.057,6.511-.021.226-.173.246-.339.246H362.7c-.722,0-1.387-.023-1.827-.038l-.136,0c-.048,0-.2-.017-.327-.03s-.257-.027-.3-.027a.121.121,0,0,0-.119.119c0,.042.01.054.074.134l.272.329c.053.066.1.129.189.129a1.439,1.439,0,0,0,.164-.022c.059-.01.117-.02.144-.021.415-.035,1.145-.032,1.581-.029h5.3c.512,0,.85,0,.85-.277,0-.293-1.3-1.251-1.466-1.251" transform="translate(8630.966 1310.585)" fill="#80868b"/>
      <path id="パス_38276" data-name="パス 38276" d="M358.994,89.168c.278,0,.578-.231.578-.736,0-1.06-1.186-1.5-1.9-1.665-.353-.073-.412-.092-.412-.326s.024-.25.436-.676c.072-.072.217-.24.385-.434a8.481,8.481,0,0,1,.919-.98c.021-.007.083-.022.143-.036s.121-.028.146-.036a.286.286,0,0,0,.206-.258c0-.12-.041-.161-.376-.478-.02-.015-.109-.115-.188-.2-.107-.121-.228-.257-.308-.336a.347.347,0,0,0-.265-.134c-.106,0-.268.137-.5.346a1.99,1.99,0,0,1-.187.156.431.431,0,0,1-.3.085c-.116,0-.153-.008-.153-.152V82.1c0-.6,0-.656.063-.767a1.43,1.43,0,0,1,.106-.112c.137-.136.189-.194.189-.253a.33.33,0,0,0-.2-.268,10.239,10.239,0,0,0-1.324-.4c-.127,0-.133.087-.133.106a2.267,2.267,0,0,0,.039.275c.014.081.032.184.032.217.044.55.057,1.406.057,1.6,0,.983-.012.983-.325.983-.152,0-.574-.023-.982-.045s-.774-.041-.909-.041-.134.087-.134.1c0,.039.019.062.059.112l.3.364a.226.226,0,0,0,.191.117c.023,0,.091-.007.159-.014s.121-.014.146-.014c.48-.027,1.084-.043,1.657-.043h1c.152,0,.152.025.152.067a18.142,18.142,0,0,1-2.573,3.458c-.056.06-.2.195-.361.351-.775.74-.906.892-.906.976,0,.036.014.12.149.12a5.872,5.872,0,0,0,1.685-1.1c.3-.232.64-.5.693-.514.067,0,.067.244.067.325,0,1.357-.037,2.581-.066,3.564-.008.241-.014.465-.02.676,0,.078-.015.289-.029.494s-.028.393-.028.466c0,.283.166.421.506.421a.757.757,0,0,0,.836-.736c0-.1-.019-.388-.037-.664-.017-.257-.035-.523-.035-.612,0-.3,0-1.134-.008-1.953,0-.788-.007-1.562-.007-1.829,0-.1,0-.3.052-.3.2,0,.625.6.762.845.379.774.55,1.088.943,1.088" transform="translate(8632.554 1310.538)" fill="#80868b"/>
    </g>
    <g id="グループ_26344" data-name="グループ 26344">
      <path id="パス_38277" data-name="パス 38277" d="M67.852,130.882a3.822,3.822,0,0,0-1.056.207l-.038.011a6.294,6.294,0,0,1-1.7.256c-1.27,0-1.915-.423-1.915-1.256,0-.9.467-1.916,3.848-3.281.54-.21,1.152-.447,1.152-.931a.631.631,0,0,0-.621-.607,4.228,4.228,0,0,0-1.517.686L65.95,126c-.723.456-.795.5-.963.5-.2,0-.3-.548-.3-1.629a13.621,13.621,0,0,1,.127-1.876c.009-.044.031-.134.057-.242a5.075,5.075,0,0,0,.145-.69c0-.444-.743-1.152-1.624-1.152-.308,0-.463.051-.463.149,0,.072.024.1.326.413l.04.042a1.265,1.265,0,0,1,.407,1.106c0,.191-.019.725-.037,1.241-.018.5-.035.962-.035,1.124a4.708,4.708,0,0,0,.249,1.7,4.24,4.24,0,0,1,.124.416c0,.149-.171.325-.591.717h0A3.322,3.322,0,0,0,62.3,130.2c0,1.544.946,2.327,2.813,2.327.882,0,3.758-.063,3.758-.879,0-.4-.487-.765-1.022-.765" transform="translate(8704.151 1300.555)" fill="#80868b"/>
      <path id="パス_38278" data-name="パス 38278" d="M88.778,129.936a4.46,4.46,0,0,0-.826.413c-.247.132-.481.256-.568.3a7.014,7.014,0,0,1-2.976.738c-1.756,0-2.115-1.063-2.115-2.66a34.4,34.4,0,0,1,.6-5.082c.009-.035.047-.131.087-.233a2.456,2.456,0,0,0,.188-.588c0-.373-.67-1.566-1.452-1.566-.134,0-.278.078-.278.22,0,.022,0,.024.094.245.032.076.062.149.07.172a1.734,1.734,0,0,1,.123.672c0,.385-.125,1.541-.186,2.041a32.763,32.763,0,0,0-.33,3.991c0,2.825.845,4.03,2.827,4.03a6.267,6.267,0,0,0,3.461-1.186,4.6,4.6,0,0,0,1.43-1.354.144.144,0,0,0-.149-.148" transform="translate(8699.504 1300.471)" fill="#80868b"/>
      <path id="パス_38279" data-name="パス 38279" d="M106.255,122.26a35.711,35.711,0,0,0-5.336,1.241l-.187.052a9.149,9.149,0,0,1-2.772.613c-.016,0-.077-.014-.126-.024-.3-.066-.434-.08-.492-.007s-.06.206.017.372a1.606,1.606,0,0,0,1.26.915,1.116,1.116,0,0,0,.538-.195,20.1,20.1,0,0,1,4.145-1.521c-.078.069-.186.155-.236.192a7.493,7.493,0,0,0-2.118,5.574c0,2.084,1.014,3.142,3.014,3.142.29,0,1.739-.04,1.739-.836,0-.38-.3-.607-.793-.607-.049,0-.225.013-.51.033-.325.024-.73.054-.851.054-.665,0-1.671,0-1.671-2.488,0-3.639,1.959-5.3,3.778-5.3.078,0,.321.038.555.076a6.168,6.168,0,0,0,.62.081.646.646,0,0,0,.649-.606c0-.5-.615-.765-1.222-.765" transform="translate(8695.549 1300.224)" fill="#80868b"/>
      <path id="パス_38280" data-name="パス 38280" d="M128.442,131.1c-.159,0-.207.066-.584.581l-.079.108c-.163.213-.2.213-.856.213H124.3c-.256,0-.346-.043-.383-.178-.013-.118-.028-3.093-.028-3.57,0-.312.018-.411.382-.411h3.467c.494,0,.851,0,.851-.263a4.187,4.187,0,0,0-1.381-1.165c-.167,0-.214.063-.679.677-.145.205-.169.211-.854.211h-1.418c-.364,0-.4-.088-.4-.539,0-2.424.02-2.716.025-2.744.052-.175.175-.189.357-.189h3.925c.467,0,.836,0,.836-.262a4.181,4.181,0,0,0-1.381-1.166c-.169,0-.216.064-.662.675-.164.213-.2.213-.857.213h-1.848c-.382,0-.382-.108-.382-.468a8.837,8.837,0,0,1,.118-1.608,1.345,1.345,0,0,1,.108-.121c.173-.185.246-.274.246-.348,0-.462-1.607-.578-1.624-.578-.211,0-.234.124-.234.177a1.864,1.864,0,0,0,.078.336c.017.061.032.114.036.131l.007.055a12.877,12.877,0,0,1,.078,1.612c0,.744-.01.811-.367.811H120.2c-.235,0-.282-.018-.282-.109a5.885,5.885,0,0,1,.446-1.046,1.657,1.657,0,0,1,.168-.15c.224-.186.36-.307.36-.408,0-.329-1.466-.879-1.48-.879-.106,0-.135.109-.163.37a15.957,15.957,0,0,1-1.882,5.013,6.735,6.735,0,0,0-.367.725.146.146,0,0,0,.148.162c.307,0,1.358-1.36,2.057-2.53.355-.6.362-.608.765-.608h2.364c.227,0,.316.08.339.3v2.808c0,.229,0,.367-.353.367h-1.59c-.643,0-1.229-.013-1.952-.042-.1-.015-.537-.058-.641-.058a.117.117,0,0,0-.133.119.155.155,0,0,0,.047.1l.319.372a.228.228,0,0,0,.183.122,2.48,2.48,0,0,0,.31-.043l.146,0c.226-.008.7-.024,1.651-.024h1.676c.3,0,.339.152.339.267v3.452c0,.44-.14.44-.4.44h-2.736c-.584,0-1.1-.021-1.693-.046l-.27-.011c-.049,0-.2-.012-.33-.022s-.259-.021-.3-.021-.133,0-.133.1c0,.055.013.072.075.151l.284.325a.221.221,0,0,0,.176.117c.03,0,.1-.008.166-.014s.122-.014.158-.015c.111-.012.508-.041,1.8-.041h9.513c.467,0,.836,0,.836-.263a4.19,4.19,0,0,0-1.381-1.166" transform="translate(8690.749 1300.737)" fill="#80868b"/>
      <path id="パス_38281" data-name="パス 38281" d="M146.614,126.962c.023-.008,2.3-.771,2.3-1.449,0-.388-.433-.42-1.037-.464-.028,0-.127-.019-.207-.034a1.666,1.666,0,0,0-.238-.037c-.133,0-.148.083-.148.119a.742.742,0,0,0,.031.149c.01.038.025.094.026.109,0,.375-.94.668-1.112.668-.1,0-.11,0-.11-.339,0-.581.056-1.307.068-1.364l0-.02c.011-.167.013-.167.1-.191l.055-.017c.446-.143,1.373-.437,1.373-1,0-.257-.254-.348-.492-.348a1.711,1.711,0,0,0-.513.109l-.029.01c-.236.086-.317.115-.356.123v-.008a3.278,3.278,0,0,1,.209-.9c.011-.027.044-.085.084-.159a2.057,2.057,0,0,0,.28-.63c0-.38-.851-.735-1.237-.735-.141,0-.435,0-.435.176a.4.4,0,0,0,.065.158c.017.033.034.065.039.08l0,.008a2.714,2.714,0,0,1,.251.857,9.686,9.686,0,0,1-.084,1.245c-.008.042-.031.153-.4.153a2.468,2.468,0,0,1-1.347-.373,3.214,3.214,0,0,0-.444-.242c-.1,0-.134.109-.134.176,0,.584.919,1.363,1.992,1.438l.037,0a1.425,1.425,0,0,1,.191.017c-.01.189-.112,1.826-.123,1.9-.031.082-.244.222-1.333.222a5.416,5.416,0,0,1-1.705-.253l-.06-.026a2.178,2.178,0,0,0-.512-.18c-.036,0-.12.014-.12.134a1.617,1.617,0,0,0,.44.715,2.914,2.914,0,0,0,1.977.608h.052c.094,0,.344-.017.609-.035s.538-.037.638-.037c.063,0,.066,0,.066.142.014.375.029,1.33.029,1.63a1.565,1.565,0,0,1-.026.447s-.011.006-.055.006-.186-.009-.333-.019c-.175-.012-.355-.023-.426-.023-1.638,0-2.655.611-2.655,1.6a1.736,1.736,0,0,0,1.91,1.624,2.833,2.833,0,0,0,2.505-1.492l.01-.021c.063-.139.079-.164.107-.164a2.653,2.653,0,0,1,.943.747l.018.021c.514.615.581.694.814.694a.627.627,0,0,0,.564-.678c0-.765-1.046-1.538-2.084-1.963-.251-.1-.253-.112-.305-.549l0-.031c-.017-.176-.172-1.791-.172-2.057,0-.082,0-.087.434-.241m-1.666,4.167a2.293,2.293,0,0,1-1.367.511c-.278,0-1.069-.118-1.069-.64,0-.732,1.4-.74,1.456-.74.472,0,1.228.1,1.291.255a.8.8,0,0,1-.311.614" transform="translate(8684.667 1300.644)" fill="#80868b"/>
      <path id="パス_38282" data-name="パス 38282" d="M171.817,129.249c-.057,0-.15.031-.357.268a1.836,1.836,0,0,1-1.448.692c-.867,0-.983-.635-.983-1.256a12.191,12.191,0,0,1,.229-2.137,12.609,12.609,0,0,0,.173-1.845c0-1.149-.526-1.782-1.48-1.782-1.254,0-2.806,1.354-3.864,2.371-.041.04-.11.106-.173.163l.192-.265.039-.054a.757.757,0,0,0,.143-.418.4.4,0,0,0-.257-.354c-.232-.117-.259-.161-.259-.434a9.8,9.8,0,0,1,.072-1.023c.005-.051.029-.179.055-.324a5.366,5.366,0,0,0,.088-.558c0-.31-.928-1.037-1.437-1.037-.354,0-.406.138-.406.22s.088.219.3.532c.063.094.123.183.14.216a4.8,4.8,0,0,1,.366,2.061c0,.241-.014.317-.069.354a7.664,7.664,0,0,1-1.431.5l-.25.076a1.231,1.231,0,0,0-.771,1.192,2.759,2.759,0,0,0,.333,1.172l.009.026a5.507,5.507,0,0,1,.317,1.023,1.066,1.066,0,0,1-.143.371l-.058.108a4.343,4.343,0,0,0-.615,1.6.6.6,0,0,0,.592.606c.4,0,.691-.288.862-.857.041-.144.079-.271.093-.316a7.945,7.945,0,0,1,.489,1.5l0,.026c.142.749.213,1.125.716,1.125.569,0,.635-.5.635-.879a5.171,5.171,0,0,0-.1-.89l-.071-.456a13.1,13.1,0,0,1-.114-1.836,3.128,3.128,0,0,1,1.079-2.881c.934-.877,2.133-1.885,3.128-1.885.719,0,.811.487.811.912a23.756,23.756,0,0,1-.386,2.98,6.192,6.192,0,0,0-.173,1.36c0,1.4.627,2.169,1.767,2.169a2.747,2.747,0,0,0,2.383-1.94.179.179,0,0,0-.162-.191m-9.256-.685c-.008.131-.019.3-.019.345,0,.833,0,1.25-.023,1.39a2.244,2.244,0,0,1-.426-.917,3.242,3.242,0,0,1,.476-1.014c0,.014,0,.032,0,.04s0,.078-.01.156m-.111-2.282c-.023.045-.114.224-.23.45-.342.668-.627,1.227-.644,1.268a.287.287,0,0,1-.078.1,3.916,3.916,0,0,1-.406-1.493c0-.64,1.432-.939,1.528-.94.071,0,.081.026.084.03a2.914,2.914,0,0,1-.253.589" transform="translate(8680.067 1300.471)" fill="#80868b"/>
      <path id="パス_38283" data-name="パス 38283" d="M181.3,121.947a.192.192,0,0,0,.05.114l.317.371.02.02a.216.216,0,0,0,.164.087c.021,0,.078-.006.14-.013s.131-.016.167-.016c.294-.027.683-.043,1.8-.043h1.476c.244,0,.353.045.353.311a6.876,6.876,0,0,1-.637,2.517,4.955,4.955,0,0,1-2.74,2.2l-.051.026c-.189.094-.284.141-.264.227s.1.074.13.074a5.64,5.64,0,0,0,2.4-.784,5.174,5.174,0,0,0,2.371-3.949l.008-.05c.094-.575.094-.575.432-.575h1.017c.175,0,.356,0,.368.312.014.43.014,1.386.014,1.847,0,.991-.007,1.011-.348,1.069-.092.01-.507.005-.754,0l-.2,0c-.045,0-.177,0-.177.1,0,.062.039.09.3.215l.049.023a1.1,1.1,0,0,1,.54.588l.015.045c.116.349.155.466.43.466a1.433,1.433,0,0,0,.775-.315,1.326,1.326,0,0,0,.533-1.209c0-.235-.016-.888-.031-1.52-.014-.561-.026-1.091-.026-1.259,0-.222.026-.368.382-.368h3.252c.5,0,.836,0,.836-.262,0-.152-1.018-1.152-1.424-1.152-.195,0-.257.1-.609.679-.13.2-.248.209-.852.209h-2.78c-.29,0-.353-.041-.353-.468,0-.194,0-.434.084-.5.186-.143.23-.176.23-.3,0-.2-.225-.244-.324-.262s-.318-.05-.559-.087c-.481-.078-.712-.115-.755-.115-.158,0-.192.073-.192.134a2.006,2.006,0,0,0,.106.315,1.8,1.8,0,0,1,.1.646c0,.6-.054.639-.425.639h-2.636c-.334,0-1.123-.012-1.962-.057-.05,0-.179-.011-.31-.021s-.268-.022-.321-.022c-.106,0-.134.066-.134.106" transform="translate(8674.897 1300.728)" fill="#80868b"/>
      <path id="パス_38284" data-name="パス 38284" d="M183.728,125.783c.028-.033.091-.111.167-.206.156-.194.37-.46.45-.541a1.27,1.27,0,0,1,.152-.108c.229-.151.337-.232.337-.327,0-.136-.057-.171-.761-.59l-.179-.106c-.247-.149-.38-.226-.483-.17-.044.029-.064.092-.156.48-.029.121-.058.247-.073.287a9.17,9.17,0,0,1-1.854,2.776.155.155,0,0,0-.067.149.1.1,0,0,0,.1.074,2.726,2.726,0,0,0,.493-.194,5.882,5.882,0,0,0,1.872-1.523" transform="translate(8674.906 1299.865)" fill="#80868b"/>
      <path id="パス_38285" data-name="パス 38285" d="M193.557,133.307c-.267.017-.52.032-.606.032-2.232,0-3.671-.564-3.719-.74,0-.043.1-.146.236-.277l.084-.083a13.2,13.2,0,0,0,1.413-1.586c.135-.186.146-.188.425-.251l.033-.007c.232-.058.359-.176.359-.333,0-.349-1.13-.98-1.251-.98s-.312.181-.634.536c-.063.069-.123.135-.146.155-.065.055-.115.069-.424.069h-1.934c-.13,0-.152-.012-.152-.038,0-.058.127-.159.253-.222l.023-.016c.123-.081.24-.158.24-.321,0-.106-.091-.256-.761-.541l-.11-.053c-.392-.184-.425-.2-.48-.2-.087,0-.14.092-.333.58-.035.087-.063.161-.08.194a6.435,6.435,0,0,1-3.285,2.971c-.026.012-.084.034-.158.061-.543.205-.562.226-.562.3a.134.134,0,0,0,.149.134,7.31,7.31,0,0,0,3.31-1.218c.048-.032.149-.115.268-.212a6.757,6.757,0,0,1,.562-.433c.038,0,.081.014.133.12a8.169,8.169,0,0,0,1,1.391c.033.033.135.135.135.216-.02.142-.9.954-3.184,1.69a21.821,21.821,0,0,1-2.424.628c-.108.015-.223.084-.223.162,0,.134.187.134.248.134a12.334,12.334,0,0,0,6.045-1.646l.02-.012c.213-.139.293-.19.368-.19s.1.008.4.189a11.354,11.354,0,0,0,4.582,1.459c.218,0,.314-.22.374-.41a2.972,2.972,0,0,1,.643-.891,1.338,1.338,0,0,0,.224-.283l.051-.086-.1-.027a7.278,7.278,0,0,0-1.02.037m-5.42-1.286c-.32,0-1.514-1.271-1.514-1.514,0-.043,0-.124.5-.124h2.135c.131,0,.167.02.167.1a4.546,4.546,0,0,1-1.285,1.543" transform="translate(8674.795 1298.701)" fill="#80868b"/>
      <path id="パス_38286" data-name="パス 38286" d="M193.9,124.217c-.06,0-.155.029-.162.109l-.008.025.014.032a.247.247,0,0,0,.134.106,5.548,5.548,0,0,1,1.643,1.985c.387.846.446.976.744.976.314,0,.649-.364.649-.907,0-1.094-1.966-2.326-3.014-2.326" transform="translate(8671.841 1299.743)" fill="#80868b"/>
      <path id="パス_38287" data-name="パス 38287" d="M212.777,124.34a6.055,6.055,0,0,0-2.922.837,1.261,1.261,0,0,0-.152.083,2.307,2.307,0,0,1-.216.119,1,1,0,0,1,.093-.228,1.647,1.647,0,0,0,.207-.72c0-.111,0-.373-.409-.624-.207-.13-.207-.13-.207-.365,0-.152.043-.6.071-.819.008-.052.029-.162.054-.3a9.682,9.682,0,0,0,.161-1.017c0-.53-1.02-1.137-1.437-1.137-.074,0-.564.048-.564.263,0,.081.027.112.237.358l.055.065a2.66,2.66,0,0,1,.554,1.969,4.84,4.84,0,0,1-.12,1.184,2.691,2.691,0,0,1-.216.2c-.061.053-.116.1-.142.125-.942.873-1.026.887-1.247.926-.581.085-1.04.152-1.04.707,0,.287.059.362.519.937a2.466,2.466,0,0,1,.541,1.054,9.929,9.929,0,0,1-.617,1.194l-.088.158c-.363.611-.44.749-.44,1.014a.427.427,0,0,0,.42.478c.56,0,.87-.6,1.1-1.045a2.373,2.373,0,0,1,.317-.544c.081.018.251.218.36,1.5l.008.094c.058.88.1,1.461.578,1.461a.95.95,0,0,0,.707-.907c0-.1-.071-.677-.072-.679-.058-.771-.072-2.633-.072-2.888,0-.934.078-1.181.253-1.382a5.728,5.728,0,0,1,3.7-1.449,1.985,1.985,0,0,1,2.087,2.144c0,2.036-1.931,3.569-2.762,4.136-.062.045-.26.161-.452.275-.64.377-.64.385-.64.446,0,.039.017.106.134.106.4,0,4.991-1.175,4.991-4.634a3.038,3.038,0,0,0-3.329-3.085m-4.842,4.7a.8.8,0,0,1-.339-.483,2.727,2.727,0,0,1,.434-.869,4.88,4.88,0,0,1-.1,1.351m-.694-1.959-.029.043c-.117.17-.156.224-.187.225a2.7,2.7,0,0,1-.6-1.041c0-.1.039-.122.532-.153a.891.891,0,0,0,.654-.505l.022-.033c.241-.411.461-.471.478-.474a.494.494,0,0,1,.009.133c0,.5,0,.522-.875,1.805" transform="translate(8668.959 1300.737)" fill="#80868b"/>
      <path id="パス_38288" data-name="パス 38288" d="M232.852,122.886c-1.545,0-2.524,1.8-2.7,2.161l-.025.044a1.414,1.414,0,0,1-.166.273c-.035,0-.038-.1-.038-.124a15.3,15.3,0,0,1,.313-1.756c.011-.042.039-.127.073-.232a4.675,4.675,0,0,0,.23-.848,1.19,1.19,0,0,0-1.179-1.036c-.124,0-.464.042-.464.177,0,.036.017.065.149.255.041.059.093.132.1.157a1.5,1.5,0,0,1,.176.849,9.767,9.767,0,0,1-.213,1.82,13.008,13.008,0,0,0-.259,2.292c0,1.155.329,2.4,1.051,2.4a.55.55,0,0,0,.592-.592,1.5,1.5,0,0,0-.133-.569,2.847,2.847,0,0,1-.183-1.036c0-1.474,1.131-3.447,2.287-3.447.75,0,1.084.759,1.084,2.459,0,2.86-.411,4.532-2.748,6.3-.345.256-.389.292-.389.377a.125.125,0,0,0,.134.121,3.625,3.625,0,0,0,1.07-.483,6.317,6.317,0,0,0,3.161-6c0-3.189-1.1-3.558-1.925-3.558" transform="translate(8663.206 1300.443)" fill="#80868b"/>
      <path id="パス_38289" data-name="パス 38289" d="M252.1,126.962c.023-.008,2.3-.771,2.3-1.449,0-.388-.433-.42-1.037-.464-.028,0-.127-.019-.207-.034a1.666,1.666,0,0,0-.238-.037c-.133,0-.148.083-.148.119a.742.742,0,0,0,.031.149c.01.038.025.094.026.109,0,.375-.94.668-1.112.668-.1,0-.11,0-.11-.339,0-.581.056-1.307.068-1.364l0-.02c.011-.167.013-.167.1-.191l.055-.017c.446-.143,1.373-.437,1.373-1,0-.257-.254-.348-.492-.348a1.711,1.711,0,0,0-.513.109l-.029.01c-.236.086-.317.115-.356.123v-.008a3.278,3.278,0,0,1,.209-.9c.011-.027.044-.085.084-.159a2.057,2.057,0,0,0,.28-.63c0-.38-.851-.735-1.237-.735-.141,0-.435,0-.435.176a.4.4,0,0,0,.065.158c.017.033.034.065.039.08l0,.008a2.714,2.714,0,0,1,.251.857,9.689,9.689,0,0,1-.084,1.245c-.008.042-.031.153-.4.153a2.468,2.468,0,0,1-1.347-.373,3.216,3.216,0,0,0-.444-.242c-.1,0-.134.109-.134.176,0,.584.919,1.363,1.992,1.438l.037,0a1.425,1.425,0,0,1,.191.017c-.01.189-.112,1.826-.123,1.9-.031.082-.244.222-1.333.222a5.416,5.416,0,0,1-1.705-.253l-.06-.026a2.178,2.178,0,0,0-.512-.18c-.036,0-.12.014-.12.134a1.617,1.617,0,0,0,.44.715,2.914,2.914,0,0,0,1.977.608h.052c.094,0,.344-.017.609-.035s.538-.037.638-.037c.063,0,.066,0,.066.142.014.375.029,1.33.029,1.63a1.566,1.566,0,0,1-.026.447s-.011.006-.055.006-.186-.009-.333-.019c-.175-.012-.355-.023-.426-.023-1.638,0-2.655.611-2.655,1.6a1.736,1.736,0,0,0,1.91,1.624,2.833,2.833,0,0,0,2.505-1.492l.01-.021c.063-.139.079-.164.107-.164a2.653,2.653,0,0,1,.943.747l.018.021c.514.615.581.694.814.694a.627.627,0,0,0,.564-.678c0-.765-1.046-1.538-2.084-1.963-.251-.1-.253-.112-.305-.549l0-.031c-.017-.176-.172-1.791-.172-2.057,0-.082,0-.087.434-.241m-1.666,4.167a2.293,2.293,0,0,1-1.367.511c-.278,0-1.069-.118-1.069-.64,0-.732,1.4-.74,1.456-.74.472,0,1.228.1,1.291.255a.8.8,0,0,1-.311.614" transform="translate(8658.733 1300.644)" fill="#80868b"/>
      <path id="パス_38290" data-name="パス 38290" d="M274.792,129.936a4.46,4.46,0,0,0-.826.413c-.247.132-.481.256-.568.3a7.014,7.014,0,0,1-2.976.738c-1.756,0-2.115-1.063-2.115-2.66a34.406,34.406,0,0,1,.6-5.082c.009-.035.047-.131.087-.233a2.456,2.456,0,0,0,.188-.588c0-.373-.67-1.566-1.452-1.566-.134,0-.278.078-.278.22,0,.022,0,.024.094.245.032.076.062.149.07.172a1.734,1.734,0,0,1,.123.672c0,.385-.125,1.541-.186,2.041a32.768,32.768,0,0,0-.33,3.991c0,2.825.845,4.03,2.827,4.03a6.267,6.267,0,0,0,3.461-1.186,4.6,4.6,0,0,0,1.43-1.354.144.144,0,0,0-.149-.148" transform="translate(8653.772 1300.471)" fill="#80868b"/>
      <path id="パス_38291" data-name="パス 38291" d="M294.747,127.291c-.267.24-.335.309-.335.38,0,.036.014.119.148.119a1.746,1.746,0,0,0,.5-.143l.133-.049a2.33,2.33,0,0,1,1.032-.224c.055,0,.213.011.376.021s.357.022.427.022c.327,0,.492-.142.492-.421,0-.663-.992-1.107-2.469-1.107a4.416,4.416,0,0,0-2.737.732.136.136,0,0,0-.011.139c.024.048.085.071.2.071.066,0,.4-.045.483-.058a8.479,8.479,0,0,1,1.021-.057,2.587,2.587,0,0,1,1.155.15,2.229,2.229,0,0,1-.41.425" transform="translate(8647.61 1299.331)" fill="#80868b"/>
      <path id="パス_38292" data-name="パス 38292" d="M296.106,133.788c-.116,0-.432.024-.767.049s-.674.052-.795.052c-.754,0-2.544-.143-2.862-1.46l0-.007c0-.006-.006-.022-.012-.042-.089-.327-.133-.411-.218-.411-.219,0-.278.462-.278.707,0,1.615,1.5,2.469,4.332,2.469,1.1,0,1.824-.039,1.824-.563,0-.541-.729-.793-1.222-.793" transform="translate(8647.885 1297.837)" fill="#80868b"/>
      <path id="パス_38293" data-name="パス 38293" d="M291.6,123.033a.479.479,0,0,0-.55-.521c-.038,0-.146.008-.248.016s-.169.013-.2.013c-.216,0-1.212-.271-1.212-.437a1.294,1.294,0,0,1,.072-.185.791.791,0,0,0,.086-.247,1.349,1.349,0,0,0-1.223-.836c-.413,0-.722.214-.722.406,0,.091.119.241.352.5.031.034.054.061.06.066a1.678,1.678,0,0,1,.161.849,4.664,4.664,0,0,1-.132,1.117,3.255,3.255,0,0,1-.967.11,5.164,5.164,0,0,1-1.256-.155.853.853,0,0,1-.111-.047.739.739,0,0,0-.238-.084.136.136,0,0,0-.134.133,1.427,1.427,0,0,0,.787.842,2.843,2.843,0,0,0,1.31.266,1.575,1.575,0,0,1,.434.024.066.066,0,0,1,.005.034,19.469,19.469,0,0,1-1.882,5.244c-.45.843-.525.989-.525,1.183,0,.326.121.707.464.707.315,0,.843,0,1.849-3.033l.029-.092a39.411,39.411,0,0,0,1.018-3.983c.046-.207.057-.214.547-.344,1.034-.282,2.22-.713,2.22-1.55m-2.5.523a.738.738,0,0,1,.01-.091c.04-.193.057-.292.075-.392.014-.078.028-.157.054-.282.022-.11.038-.11.082-.11a2.406,2.406,0,0,1,.855.375,3.37,3.37,0,0,1-1.076.5" transform="translate(8649.318 1300.574)" fill="#80868b"/>
      <path id="パス_38294" data-name="パス 38294" d="M308.228,132.842a1.649,1.649,0,0,0-1.667,1.653,1.667,1.667,0,1,0,1.667-1.653m.014,2.78a1.127,1.127,0,0,1-1.126-1.127,1.088,1.088,0,0,1,1.1-1.1,1.123,1.123,0,0,1,1.141,1.127,1.109,1.109,0,0,1-1.113,1.1" transform="translate(8644.102 1297.622)" fill="#80868b"/>
    </g>
    <g id="グループ_26348" data-name="グループ 26348" transform="translate(3.954 -242.977)">
      <path id="パス_38724" data-name="パス 38724" d="M287.873,11.828a4.068,4.068,0,0,0,.7-.249,26.161,26.161,0,0,1,6.018-.8,5.527,5.527,0,0,1,1.653.214c.008,0,.817.218.871.218.173,0,.38-.086.38-.5,0-.783-1.1-1.333-1.688-1.333a6.691,6.691,0,0,0-.883.173,7.132,7.132,0,0,1-.93.183c-.167,0-.216-.051-.216-.226a17.223,17.223,0,0,1,.55-3.651,2.046,2.046,0,0,1,.119-.179c.192-.274.277-.412.277-.506a1.865,1.865,0,0,0-1.273-1.07.97.97,0,0,0-.334.162,1.925,1.925,0,0,1-.19.1l-.006,0a16.868,16.868,0,0,1-3.225.781c-.055,0-.222-.015-.384-.029-.186-.016-.363-.032-.431-.032a.173.173,0,0,0-.186.175,1.648,1.648,0,0,0,.976,1.3,1.56,1.56,0,0,0,.457-.205c.037-.021.069-.037.085-.045a25.846,25.846,0,0,1,2.655-.813c.08,0,.19,0,.19.253,0,.057-.107.964-.2,1.765-.082.718-.164,1.43-.19,1.671-.062.5-.085.692-.42.746-.106.023-3.784.369-4.067.369a3.189,3.189,0,0,1-1-.181c-.019-.006-.055-.024-.1-.044a1.652,1.652,0,0,0-.427-.161c-.067,0-.147.03-.147.175a2.142,2.142,0,0,0,1.364,1.733" transform="translate(8467.947 1602.129)" fill="#80868b"/>
      <path id="パス_38725" data-name="パス 38725" d="M311.194,12.467a2.234,2.234,0,0,0,.241-.052c.294-.066.785-.177.909-.194.693-.113,3.434-.414,4.521-.414a9.593,9.593,0,0,1,1.452.1l.091.015a6.134,6.134,0,0,0,.632.089c.221,0,.795-.08.795-.445,0-.7-1.667-.949-2.024-.949-.231,0-1.052.14-1.652.242-.218.037-.4.068-.494.082a25.419,25.419,0,0,1-3.655.284,4.22,4.22,0,0,1-1.779-.3l-.05-.016a.6.6,0,0,0-.165-.029.17.17,0,0,0-.185.185,2.173,2.173,0,0,0,.409.9,2.289,2.289,0,0,0,.955.5" transform="translate(8460.521 1600.956)" fill="#80868b"/>
      <path id="パス_38726" data-name="パス 38726" d="M312.966,5.769a1.051,1.051,0,0,0,.755.43c.041,0,.333-.037.889-.106.8-.1,1.907-.241,2.222-.256,1.463-.067,1.956-.089,1.956-.483s-.57-.717-1.221-.717c-.111,0-.5.069-.811.125-.144.027-.267.048-.327.057-.545.1-2.375.35-2.772.35-.071,0-.29-.012-.483-.023-.151-.009-.286-.016-.32-.016-.01,0-.251,0-.251.134,0,.033,0,.044.3.423l.065.085" transform="translate(8459.639 1602.335)" fill="#80868b"/>
      <path id="パス_38727" data-name="パス 38727" d="M343.367,3.3a2.916,2.916,0,0,1,1.011.833c.2.3.382.585.7.585a.447.447,0,0,0,.406-.483c0-.931-1.384-1.312-1.739-1.325h-.069c-.2,0-.387,0-.465.076a.134.134,0,0,0-.04.1c0,.029.014.127.193.217" transform="translate(8451.068 1602.747)" fill="#80868b"/>
      <path id="パス_38728" data-name="パス 38728" d="M331.74,8.472a.915.915,0,0,0,.7-.431,2.626,2.626,0,0,1,.573-.649c1.806-1.678,1.821-1.678,2.011-1.678a.553.553,0,0,1,.337.172c.08.089.329.4.548.668.164.2.317.393.382.469,3.232,3.91,4.244,3.91,4.625,3.91.283,0,.613-.119.613-.457a.711.711,0,0,0-.309-.532c-.123-.1-.643-.425-1.023-.66-.153-.093-.28-.172-.344-.213A20.715,20.715,0,0,1,336.4,5.836v0c-.373-.47-.817-.971-1.362-.971-.386,0-.611.183-1.222.675-1.592,1.288-2.244,1.539-2.831,1.539-.027,0-.117-.014-.19-.025a1.979,1.979,0,0,0-.212-.027c-.038,0-.16.016-.16.224a.61.61,0,0,0,.156.428l.019.022c.6.613.834.772,1.137.772" transform="translate(8453.965 1602.6)" fill="#80868b"/>
      <path id="パス_38729" data-name="パス 38729" d="M341.728,4.86l.034.027a3.638,3.638,0,0,1,.867.8c.356.483.493.624.716.624.284,0,.457-.372.457-.575,0-.507-.782-1.273-1.96-1.273-.1,0-.3.052-.3.172,0,.072.074.135.187.222" transform="translate(8450.424 1602.386)" fill="#80868b"/>
      <path id="パス_38730" data-name="パス 38730" d="M354.411,9.284c.147-.039.286-.074.344-.085.3-.064,3.3-.232,5.048-.232.125,0,.491.006.87.013.406.006.827.013.982.013.553,0,1.144-.035,1.144-.47,0-.166-.179-.639-.975-.639-.032,0-.082,0-.135.006s-.11.007-.15.007h0c-1.878.1-6.4.271-6.834.271a7.185,7.185,0,0,1-1.566-.115,1.65,1.65,0,0,1-.161-.061,1.137,1.137,0,0,0-.292-.1c-.1,0-.173.1-.173.224,0,.47.616,1.313,1.221,1.313a4.49,4.49,0,0,0,.681-.15" transform="translate(8448.342 1601.572)" fill="#80868b"/>
      <path id="パス_38731" data-name="パス 38731" d="M375.848,4.616a.123.123,0,0,0-.134.134.807.807,0,0,0,.044.217l.011.037a2.766,2.766,0,0,1,.217,1.093,6.743,6.743,0,0,1-1.552,3.751c-.023.028-.061.072-.106.125-.29.337-.427.514-.427.6a.129.129,0,0,0,.134.134,4.539,4.539,0,0,0,2.458-2.5h0c.188-.419.887-2.353.887-2.424,0-.7-1.4-1.17-1.533-1.17" transform="translate(8441.928 1602.644)" fill="#80868b"/>
      <path id="パス_38732" data-name="パス 38732" d="M385.872,5.524c-.048,0-.067,0-1.068,1.248-.16.2-.292.364-.354.438-1.277,1.548-2.435,2.507-2.773,2.507-.127,0-.177-.121-.177-.43,0-.506.053-2.389.1-2.8.009-.056.033-.177.063-.323a7.086,7.086,0,0,0,.146-.857c0-.917-1.479-1.17-1.494-1.17a.15.15,0,0,0-.147.16,2.593,2.593,0,0,0,.155.538l.02.061a11.4,11.4,0,0,1,.239,2.88c0,.445-.015,1.621-.051,1.893,0,0-.078.479-.078.576a1.892,1.892,0,0,0,.566,1.064.877.877,0,0,0,.517.3.26.26,0,0,0,.056-.006c.115-.019.242-.139.472-.45a8.159,8.159,0,0,1,.885-.983,12.7,12.7,0,0,0,3.041-4.5.138.138,0,0,0-.121-.146" transform="translate(8440.083 1602.117)" fill="#80868b"/>
      <path id="パス_38733" data-name="パス 38733" d="M489.9,9.439c-.29-.144-.322-.206-.374-.74-.038-.39-.129-2.039-.129-2.353,0-.591,0-.591.438-.8.485-.236,1.388-.676,1.388-1.414,0-.68-.483-.7-1.043-.733h-.024c-.007,0-.681-.011-.681-.388a.61.61,0,0,1,.067-.266c.128-.231.153-.279.153-.405,0-.627-.943-.836-1.2-.836-.287,0-.51.176-.51.326,0,.09.1.206.314.433.048.05.089.091.1.112.23.314.23.694.23,1.613,0,.884,0,.884-.643.884a3.463,3.463,0,0,1-1.419-.283c-.014-.008-.041-.025-.074-.048-.177-.116-.258-.164-.307-.164-.08,0-.134.072-.134.18a1.918,1.918,0,0,0,1.986,1.375,4.8,4.8,0,0,1,.558.019.5.5,0,0,1,.072.285c.013.419.052,1.952.052,2.038,0,.928-.01.928-.256.928-2.526.041-2.723,1.442-2.723,1.871a1.6,1.6,0,0,0,1.688,1.536,2.215,2.215,0,0,0,1.992-1.429v0c.011-.029.029-.092.05-.17a2.1,2.1,0,0,1,.164-.477c.166-.093.781.406,1.2.971l.012.016c.305.431.361.508.547.508.316,0,.536-.348.536-.661,0-.844-1.162-1.5-2.036-1.922m-.5-5.382a.408.408,0,0,1,.076-.287.189.189,0,0,1,.114-.042c.168,0,.54.18.54.374,0,.259-.43.431-.6.431-.053,0-.125,0-.125-.476m-1.662,6.056c.868,0,.941.136.941.286,0,.462-.768,1.117-1.485,1.117-.38,0-.785-.2-.785-.563s.626-.841,1.329-.841" transform="translate(8460.5 1602.958)" fill="#80868b"/>
      <path id="パス_38734" data-name="パス 38734" d="M481.225,6.048a12.586,12.586,0,0,0-.339,2.882c0,2.381.694,3.8,1.365,3.8.307,0,.5-.259.5-.677,0-.107-.043-.388-.089-.687-.044-.279-.093-.6-.093-.7,0-.2.089-.822.174-1.422.093-.652.189-1.328.189-1.574,0-.182-.076-.209-.121-.209-.178,0-.593,1.5-.6,1.515l-.022.077c-.2.676-.217.731-.275.731-.166,0-.241-.489-.241-.944a10.934,10.934,0,0,1,.462-2.913c.034-.118.117-.387.213-.7.321-1.045.464-1.525.464-1.6,0-.272-.652-1.8-1.442-1.8-.1,0-.3.041-.3.195a1.2,1.2,0,0,0,.184.417c.031.056.058.1.07.133a2.173,2.173,0,0,1,.289,1.174,7.847,7.847,0,0,1-.279,1.777Z" transform="translate(8462.048 1602.855)" fill="#80868b"/>
      <path id="パス_38735" data-name="パス 38735" d="M501.962,13.767a3.6,3.6,0,0,1,1.335,1.36c.431.783.5.9.812.9a.684.684,0,0,0,.574-.69c0-1.27-2.281-1.947-2.724-1.947-.139,0-.211.08-.211.16,0,.057.05.108.213.213" transform="translate(8455.404 1600.413)" fill="#80868b"/>
      <g id="グループ_26342" data-name="グループ 26342" transform="translate(8830.478 1603.539)">
        <path id="パス_38331" data-name="パス 38331" d="M130.654,46.1a9.951,9.951,0,0,0,1.014.154.369.369,0,0,0,.406-.373.629.629,0,0,0-.335-.523l-.023-.017a2.494,2.494,0,0,0-1.291-.512,4.732,4.732,0,0,0-.665.141c-.149.037-.281.071-.339.081s-.119.018-.2.031a7.636,7.636,0,0,1-1.046.116c-.327,0-.436-.065-.436-.452a3.563,3.563,0,0,1,.112-1.106c.007-.019.042-.082.073-.139a1.055,1.055,0,0,0,.165-.377,1.224,1.224,0,0,0-1.286-.845c-.29,0-.509.1-.509.226,0,.065.048.136.157.281a1.006,1.006,0,0,1,.1.139,6.017,6.017,0,0,1,.264,1.85c0,.431-.083.512-.554.54-.149.006-.448.022-.776.04-.527.029-1.125.063-1.306.063a2.949,2.949,0,0,1-1.128-.142l-.051-.022a.522.522,0,0,0-.219-.071c-.073,0-.16.036-.16.212,0,.325.663,1.376,1,1.376a3.353,3.353,0,0,0,.535-.164,22.242,22.242,0,0,1,2.378-.469c.26,0,.307.134.307.894,0,.792,0,2.265-.065,2.953-.031.289-.11.33-.19.33a1.959,1.959,0,0,1-.283-.092,1.358,1.358,0,0,0-.326-.1.124.124,0,0,0-.121.137.287.287,0,0,0,.048.144c.011.019.023.043.04.076a4.4,4.4,0,0,1,.478,1.047c.269.847.311.978.642.978.282,0,.756-.165.756-1.272,0-.309-.015-1.2-.031-2.136-.016-.974-.034-1.981-.034-2.344,0-.762.044-.762,1.161-.762.116,0,1.047.015,1.532.073l.213.038" transform="translate(-122.6 -40.83)" fill="#80868b"/>
        <path id="パス_38332" data-name="パス 38332" d="M132.48,49.119c-.149,0-.159.1-.159.134,0,.074.1.191.514.57l.027.025a4.55,4.55,0,0,1,1.03,1.567l.015.036c.225.538.361.862.76.862h.02a.554.554,0,0,0,.4-.157.9.9,0,0,0,.235-.624c0-1.159-2.129-2.413-2.84-2.413" transform="translate(-125.691 -42.08)" fill="#80868b"/>
        <path id="パス_38333" data-name="パス 38333" d="M124.683,49.822c-.078,0-.211.117-.3.211l-.026.022a9.558,9.558,0,0,1-1.234.967c-.363.226-.525.376-.525.668a.586.586,0,0,0,.418.543.707.707,0,0,0,.272.057c.885,0,1.532-1.574,1.532-2.244,0-.083-.028-.224-.134-.224" transform="translate(-122.594 -42.312)" fill="#80868b"/>
        <path id="パス_38334" data-name="パス 38334" d="M153.11,47.884c-.032,0-.082,0-.135.006s-.11.007-.15.007h0c-1.878.1-6.4.271-6.834.271a7.229,7.229,0,0,1-1.566-.115c-.02,0-.1-.035-.161-.061a1.109,1.109,0,0,0-.292-.1c-.1,0-.173.1-.173.224,0,.47.616,1.312,1.221,1.312a4.46,4.46,0,0,0,.681-.149c.147-.039.286-.075.344-.085.3-.064,3.3-.232,5.048-.232.125,0,.491.006.87.012.406.007.827.014.982.014.553,0,1.144-.036,1.144-.471,0-.166-.179-.639-.975-.639" transform="translate(-129.345 -41.948)" fill="#80868b"/>
        <path id="パス_38335" data-name="パス 38335" d="M167.135,44.616a.123.123,0,0,0-.134.134.809.809,0,0,0,.042.212l.012.042a2.767,2.767,0,0,1,.217,1.093,6.743,6.743,0,0,1-1.552,3.751c-.022.028-.061.072-.106.125-.29.337-.427.514-.427.6a.129.129,0,0,0,.134.134,4.54,4.54,0,0,0,2.458-2.5h0c.187-.419.887-2.353.887-2.424,0-.7-1.4-1.17-1.533-1.17" transform="translate(-136.157 -40.858)" fill="#80868b"/>
        <path id="パス_38336" data-name="パス 38336" d="M177.158,45.524c-.048,0-.067,0-1.068,1.248-.16.2-.292.364-.354.438-1.277,1.548-2.435,2.507-2.773,2.507-.127,0-.177-.121-.177-.43,0-.505.052-2.388.1-2.795.008-.056.033-.175.061-.319a7.135,7.135,0,0,0,.147-.862c0-.917-1.479-1.17-1.494-1.17a.15.15,0,0,0-.146.16,2.593,2.593,0,0,0,.155.538l.02.061a11.361,11.361,0,0,1,.239,2.88c0,.445-.015,1.621-.051,1.893,0,0-.078.479-.078.576a1.892,1.892,0,0,0,.566,1.064.877.877,0,0,0,.517.3.262.262,0,0,0,.057-.006c.114-.019.242-.139.472-.45a8.165,8.165,0,0,1,.885-.983,12.7,12.7,0,0,0,3.041-4.5.138.138,0,0,0-.121-.146" transform="translate(-138.153 -41.422)" fill="#80868b"/>
        <path id="パス_38337" data-name="パス 38337" d="M194.769,46.079a4,4,0,0,0-.629.144c-.151.041-.3.08-.351.09-.914.129-4.26.491-5.08.491a3.925,3.925,0,0,1-.784-.082,1.027,1.027,0,0,0-.226-.073c-.037,0-.159.014-.159.2a1.208,1.208,0,0,0,1.091,1.053,5.515,5.515,0,0,0,.827-.2l.122-.035a16.093,16.093,0,0,1,2.042-.386c.172,0,.243.092.243.318a8.647,8.647,0,0,1-2.515,4.829c-.71.62-.71.675-.71.7a.133.133,0,0,0,.147.134,6.452,6.452,0,0,0,3.492-3.364c.064-.121.236-.522.389-.877.11-.257.234-.547.257-.583a1.339,1.339,0,0,1,.107-.108c.157-.15.253-.247.253-.329a1.674,1.674,0,0,0-.335-.576c-.044-.062-.076-.109-.084-.123-.016-.037.007-.078.053-.1.091-.034.924-.034,1.281-.034.245,0,.557.031.807.055l.106.011c.044,0,.153.02.279.038.24.035.536.078.635.078a.4.4,0,0,0,.444-.38c0-.614-1.594-.885-1.7-.885" transform="translate(-143.274 -40.798)" fill="#80868b"/>
        <path id="パス_38338" data-name="パス 38338" d="M200.664,41.6c-.236,0-.549.02-.549.2,0,.127.15.187.2.206a3.009,3.009,0,0,1,1.06.768c.217.292.4.545.716.545a.434.434,0,0,0,.406-.457c0-.782-1.066-1.261-1.83-1.261" transform="translate(-147.278 -40.612)" fill="#80868b"/>
        <path id="パス_38339" data-name="パス 38339" d="M198.923,43.42c-.118,0-.289.061-.289.173s.187.245.208.262a3.629,3.629,0,0,1,.867.789c.356.483.493.624.716.624.279,0,.457-.332.457-.561,0-.513-.781-1.287-1.96-1.287" transform="translate(-146.806 -40.902)" fill="#80868b"/>
        <path id="パス_38340" data-name="パス 38340" d="M192.85,42.725a6.407,6.407,0,0,1-1.55.262c-.072,0-.435-.061-.661-.1l-.02,0-.018.007c-.024.01-.062.038-.046.119.042.22.451.947,1.044.947.025,0,.119-.016.547-.1l.075-.015c.169-.033,1.045-.205,1.716-.284.761-.078,1.046-.107,1.046-.549,0-.32-.286-.5-.807-.5a5.427,5.427,0,0,0-1.051.157Z" transform="translate(-144.233 -40.902)" fill="#80868b"/>
        <path id="パス_38341" data-name="パス 38341" d="M211.729,44.332a.209.209,0,0,0-.212.2c0,.029.014.063.1.209l.017.032a.617.617,0,0,1,.083.277c0,.258-.925,2.225-3.548,4.387-.361.288-.544.472-.544.546a.142.142,0,0,0,.147.147,9.018,9.018,0,0,0,2.946-1.96l.053-.046a1.552,1.552,0,0,1,.173-.144c.02,0,.19.037.19,1.355a16.168,16.168,0,0,1-.142,2.215,2.75,2.75,0,0,0-.065.478c0,.3.361.833.716.833.162,0,.354-.1.354-.562,0-.076-.02-.278-.041-.491-.018-.187-.037-.381-.037-.444-.025-.49-.025-.906-.025-1.239a13.013,13.013,0,0,1,.05-1.853c0-.029.031-.108.055-.179a1.2,1.2,0,0,0,.075-.273c0-.177-.2-.3-.4-.423-.04-.025-.081-.049-.12-.074h0a.075.075,0,0,1-.011-.016l.187-.239c.457-.585.552-.705.8-1.084a1.231,1.231,0,0,1,.327-.349l.058-.048a.37.37,0,0,0,.132-.289c0-.506-1.173-.962-1.312-.962" transform="translate(-149.668 -40.241)" fill="#80868b"/>
        <path id="パス_38342" data-name="パス 38342" d="M233.808,45.054c-.042,0-.054,0-.624.569l-.02.02C231,47.78,227.6,50.038,227,50.038a2.091,2.091,0,0,1-.849-.29c-.016-.009-.059-.04-.11-.076-.194-.136-.262-.178-.309-.178-.132,0-.2.254-.2.755,0,.583,1.016,1.416,1.726,1.416.232,0,.276-.053.519-.348a8.252,8.252,0,0,1,1.257-1.05h0a17.231,17.231,0,0,0,4.909-5.08.149.149,0,0,0-.134-.134" transform="translate(-155.37 -40.471)" fill="#80868b"/>
        <path id="パス_38343" data-name="パス 38343" d="M226.073,43.116c-.205,0-.354.078-.354.185s.108.155.152.177l.048.028a2.792,2.792,0,0,1,1.107,1.012l.025.038c.418.634.559.847.939.847a.639.639,0,0,0,.626-.716c0-.837-1.188-1.571-2.542-1.571" transform="translate(-155.431 -40.82)" fill="#80868b"/>
        <path id="パス_38344" data-name="パス 38344" d="M254.58,41.786c-.136,0-.289.079-.289.185,0,.087.124.179.224.238l.016.012a3.979,3.979,0,0,1,.889.741c.41.489.528.581.74.581.275,0,.444-.335.444-.575s-.36-1.183-2.024-1.183" transform="translate(-164.529 -40.672)" fill="#80868b"/>
        <path id="パス_38345" data-name="パス 38345" d="M252.081,44.367c-.067-.046-.408-.254-.493-.3-.531-.351-.6-.4-.733-.4a1.741,1.741,0,0,0-.562.2l-.074.035a6.555,6.555,0,0,1-1.941.58c-.134,0-.138-.035-.138-.039,0-.042.025-.086.089-.185.273-.385.4-.579.4-.781a1.283,1.283,0,0,0-1.274-.9c-.106,0-.354,0-.354.225a2.4,2.4,0,0,0,.063.332c.014.06.025.113.029.132.1.822-1.058,2.778-2.156,4.018-.046.052-.164.17-.3.3-.647.645-.744.768-.744.849a.156.156,0,0,0,.159.166,3.768,3.768,0,0,0,1.283-.791,10.464,10.464,0,0,0,1.773-1.915c.546-.706.554-.706.764-.706.037,0,.142.012.245.022s.217.022.259.022a18.108,18.108,0,0,0,1.894-.4l.23-.055a.074.074,0,0,1,.073.082A17.85,17.85,0,0,1,244.2,52.71c-.422.262-.476.3-.476.406a.2.2,0,0,0,.185.21,8.306,8.306,0,0,0,2.615-1.419,17.236,17.236,0,0,0,4.655-5.527c.453-.789.5-.865.625-.957l.026-.017c.414-.284.525-.361.525-.606a.6.6,0,0,0-.279-.433" transform="translate(-161.165 -40.926)" fill="#80868b"/>
        <path id="パス_38346" data-name="パス 38346" d="M257.184,40.434a2.447,2.447,0,0,0-1.408-.282c-.064,0-.536.052-.536.25,0,.07.057.161.22.21a2.978,2.978,0,0,1,1.159.615c.277.289.429.448.736.448a.419.419,0,0,0,.393-.444c0-.14,0-.467-.564-.8" transform="translate(-164.831 -40.152)" fill="#80868b"/>
        <path id="パス_38347" data-name="パス 38347" d="M270.882,47.8l-.047-.027c-.534-.292-.534-.307-.534-.38a.368.368,0,0,1,.091-.219c.044-.062.122-.177.222-.324.371-.542,1.061-1.551,1.263-1.794a2.063,2.063,0,0,1,.159-.14c.287-.242.415-.366.415-.461,0-.362-.83-1.054-1.17-1.054a1.566,1.566,0,0,0-.519.273c-.095.061-.184.119-.219.134a18.046,18.046,0,0,1-3.522.474,2.232,2.232,0,0,1-.664-.126s-.325-.093-.359-.093c-.067,0-.147.03-.147.172a2.621,2.621,0,0,0,.331.8,2.683,2.683,0,0,0,.929.486,1.418,1.418,0,0,0,.4-.159,2.2,2.2,0,0,1,.2-.091c.14-.047,2.739-.645,2.852-.656.065,0,.081.026.085.044A14.081,14.081,0,0,1,265.8,50.6c-.006,0-.626.423-.626.538a.141.141,0,0,0,.16.146,3.178,3.178,0,0,0,.834-.3,12.905,12.905,0,0,0,3.408-2.712l.07-.075c.289-.328.309-.339.4-.339a6.008,6.008,0,0,1,2.257,2.516c.454.8.524.928.863.928a.63.63,0,0,0,.6-.639c0-1.189-2.175-2.444-2.889-2.856" transform="translate(-167.995 -39.945)" fill="#80868b"/>
      </g>
    </g>
  </g>
</svg>
