<svg xmlns="http://www.w3.org/2000/svg" width="1006" height="183" viewBox="0 0 1006 183">
  <g id="グループ_26231" data-name="グループ 26231" transform="translate(-180 -1866)">
    <rect id="長方形_9289" data-name="長方形 9289" width="1006" height="183" transform="translate(180 1866)" fill="#fff" opacity="0.9"/>
    <g id="グループ_26350" data-name="グループ 26350" transform="translate(-5988)">
      <g id="グループ_26341" data-name="グループ 26341">
        <path id="パス_38325" data-name="パス 38325" d="M19.4,53.512c-.205,0-.877.071-1.416.128-.265.027-.492.053-.595.061-.312.011-1.113.063-1.963.117-1.129.073-2.409.154-2.716.154-.64,0-.669-.12-.669-.371a.5.5,0,0,1,.009-.064,1.616,1.616,0,0,0,.019-.215l.068-.523c.147-1.121.3-2.281.389-3.2.009-.037.029-.118.053-.218a5.5,5.5,0,0,0,.167-.814c0-.272-.1-.375-.743-1.045l-.03-.033c-.05-.048-.2-.2-.2-.3,0-.143.259-.154.275-.154.211-.021.724-.084,1.317-.16,1-.127,2.244-.284,2.642-.3.684-.029,1.535-.063,1.535-.713,0-.949-1.945-1.525-2.8-1.525a3.81,3.81,0,0,0-.987.348,5.662,5.662,0,0,1-.572.225,31.064,31.064,0,0,1-6.729,1.078,10.6,10.6,0,0,1-2.228-.264v0c-.131-.058-.429-.143-.526-.05-.267.267.415,1.23.451,1.28a4.694,4.694,0,0,0,1.872,1.27,6.234,6.234,0,0,0,.748-.184,23,23,0,0,1,2.746-.629c.586,0,.83.522.83,3.755,0,1.173,0,2.779-.449,2.98a59.648,59.648,0,0,1-6.42.748,12.852,12.852,0,0,1-2.341-.244,4.287,4.287,0,0,0-.8-.161A.311.311,0,0,0,0,54.822c0,1.441,2.786,2.636,2.907,2.636a4.563,4.563,0,0,0,.965-.288c.228-.08.441-.155.535-.178A48.471,48.471,0,0,1,16.1,55.618a11.047,11.047,0,0,1,3.243.348c.073.017.191.05.331.086a10.605,10.605,0,0,0,1.41.324c.011,0,1.146-.053,1.146-.713,0-.907-2.089-2.15-2.826-2.15" transform="translate(6222.477 1935.193)" fill="#80868b"/>
        <path id="パス_38326" data-name="パス 38326" d="M34.274,52.6l-.1-.057c-1.118-.612-1.118-.643-1.118-.794a.77.77,0,0,1,.191-.459c.091-.13.255-.371.463-.677.776-1.133,2.22-3.245,2.642-3.752a4.327,4.327,0,0,1,.332-.294c.6-.506.868-.766.868-.965,0-.757-1.736-2.2-2.448-2.2a3.275,3.275,0,0,0-1.086.57c-.2.128-.385.248-.458.281a37.744,37.744,0,0,1-7.366.991,4.668,4.668,0,0,1-1.389-.264c-.006,0-.68-.2-.751-.2-.14,0-.307.063-.307.361a5.482,5.482,0,0,0,.693,1.674,5.612,5.612,0,0,0,1.943,1.017,2.967,2.967,0,0,0,.844-.332,4.61,4.61,0,0,1,.425-.191c.294-.1,5.73-1.349,5.966-1.373.135,0,.168.054.178.093.01.58-3.2,7.392-10.148,12.425-.011.01-1.31.887-1.31,1.125a.3.3,0,0,0,.335.305,6.649,6.649,0,0,0,1.744-.637,27,27,0,0,0,7.128-5.673l.147-.157c.6-.686.647-.71.84-.71.525,0,2.854,1.989,4.722,5.264.95,1.682,1.1,1.942,1.8,1.942a1.317,1.317,0,0,0,1.256-1.337c0-2.488-4.549-5.112-6.043-5.974" transform="translate(6231.986 1934.797)" fill="#80868b"/>
        <path id="パス_38327" data-name="パス 38327" d="M58.151,42.793a2.293,2.293,0,0,0-.788.406c-.155.1-.316.2-.375.225a81.921,81.921,0,0,1-11.16,1.563,11.581,11.581,0,0,1-1.684-.107h0c-.1-.014-.439-.084-.737-.147a6.576,6.576,0,0,0-.663-.127c-.231,0-.334.127-.334.254,0,1.009,2.164,2.827,2.907,2.827a7.365,7.365,0,0,0,1.607-.528c.312-.121.583-.228.711-.264a46.862,46.862,0,0,1,9.626-1.674c.254,0,.369.137.369.262,0,.649-2.552,3.159-3.213,3.159a5.959,5.959,0,0,1-.788-.264c-.1-.037-.178-.068-.222-.083a4.227,4.227,0,0,0-1.507-.249c-.455,0-.714.141-.714.388,0,.144.03.2.259.662a3.308,3.308,0,0,1,.336,1.533,12.193,12.193,0,0,1-2.009,5.855,18.227,18.227,0,0,1-4.814,5c-.495.386-.6.468-.6.63a.278.278,0,0,0,.308.279,7.111,7.111,0,0,0,1.937-.8,14.832,14.832,0,0,0,6.892-8.447l.1-.279a13.57,13.57,0,0,1,1.263-3.151c.522-.694,4.522-2.2,5.577-2.408.978-.225,1.059-.556,1.059-.847,0-.981-2.616-3.665-3.34-3.665" transform="translate(6240.528 1934.538)" fill="#80868b"/>
        <path id="パス_38328" data-name="パス 38328" d="M72.154,41.521a.406.406,0,0,0-.416.361c0,.037,0,.088.208.5a1.41,1.41,0,0,1,.2.69c0,.737-2.114,5.3-8.457,10.724-.178.157-.409.352-.67.573-.376.317-.81.686-1.232,1.059a.383.383,0,0,0-.124.292.278.278,0,0,0,.281.308c.589,0,5.182-2.712,7.794-5.215.19-.191.284-.284.356-.284.17,0,.56.358.56,3.673,0,1.468-.113,3.558-.269,4.971-.011.1-.064.374-.118.657a8.509,8.509,0,0,0-.18,1.089c0,.807.977,2.042,1.823,2.042.361,0,.8-.231.8-1.336,0-.269-.091-1.195-.15-1.808-.02-.205-.034-.371-.043-.448-.056-1.1-.08-2.556-.08-3.243a26.9,26.9,0,0,1,.16-4.772c.011-.056.073-.24.128-.4a3.325,3.325,0,0,0,.2-.706c0-.339-.188-.48-1.232-1.125-.123-.081-.164-.143-.174-.21.185-.234.415-.506.65-.787.428-.512.871-1.041,1.162-1.453l.03-.04a7.4,7.4,0,0,1,1.779-2.146.831.831,0,0,0,.3-.659c0-1.141-2.843-2.311-3.286-2.311" transform="translate(6248.725 1933.997)" fill="#80868b"/>
        <path id="パス_38329" data-name="パス 38329" d="M98.945,53.512c-.205,0-.877.071-1.416.128-.265.027-.492.053-.594.061-.312.011-1.113.063-1.963.117-1.129.073-2.409.154-2.716.154-.64,0-.669-.12-.669-.371a.5.5,0,0,1,.009-.064,1.618,1.618,0,0,0,.019-.215l.068-.523c.147-1.121.3-2.281.389-3.2.009-.037.029-.118.053-.218a5.5,5.5,0,0,0,.167-.814c0-.272-.1-.375-.743-1.045l-.03-.033c-.05-.048-.2-.2-.2-.3,0-.143.259-.154.275-.154.211-.021.724-.084,1.317-.16,1-.127,2.244-.284,2.642-.3.684-.029,1.535-.063,1.535-.713,0-.949-1.945-1.525-2.8-1.525a3.81,3.81,0,0,0-.987.348,5.662,5.662,0,0,1-.572.225A31.064,31.064,0,0,1,86,45.983a10.6,10.6,0,0,1-2.228-.264v0c-.131-.058-.428-.143-.526-.05-.267.267.415,1.23.451,1.28a4.694,4.694,0,0,0,1.872,1.27,6.233,6.233,0,0,0,.748-.184,23,23,0,0,1,2.746-.629c.586,0,.83.522.83,3.755,0,1.173,0,2.779-.449,2.98a59.648,59.648,0,0,1-6.42.748,12.852,12.852,0,0,1-2.341-.244,4.287,4.287,0,0,0-.8-.161.311.311,0,0,0-.334.334c0,1.441,2.786,2.636,2.907,2.636a4.563,4.563,0,0,0,.965-.288c.228-.08.441-.155.535-.178A48.471,48.471,0,0,1,95.64,55.618a11.047,11.047,0,0,1,3.243.348c.073.017.191.05.331.086a10.6,10.6,0,0,0,1.41.324c.011,0,1.146-.053,1.146-.713,0-.907-2.089-2.15-2.826-2.15" transform="translate(6256.336 1935.193)" fill="#80868b"/>
        <path id="パス_38330" data-name="パス 38330" d="M115.151,52.56l-.2-.1c-1-.51-1.078-.562-1.078-.687a16.066,16.066,0,0,1,1.229-1.946c.194-.282.354-.516.429-.634,1.409-2.224,1.554-2.438,2.066-2.772.793-.492.935-.58.935-1.1a1.056,1.056,0,0,0-.379-.817,6.565,6.565,0,0,0-2.258-1.333c-.281,0-.368.07-.935.52l-.1.081c-.506.409-7.51,1.456-7.9,1.456a3.387,3.387,0,0,1-1.334-.344c-.026-.009-.117-.046-.23-.091a2.768,2.768,0,0,0-.656-.241.316.316,0,0,0-.281.334,5.372,5.372,0,0,0,.67,1.484,2.96,2.96,0,0,0,2.076,1.451,3.66,3.66,0,0,0,.982-.379c.188-.087.365-.171.449-.2,1.038-.382,5.492-1.431,5.718-1.453.088,0,.207.026.207.234a10.047,10.047,0,0,1-1.279,2.877c-.583.947-1.309,2.124-1.853,2.124a9.19,9.19,0,0,1-1.237-.375c-.177-.06-.324-.11-.4-.134a11.114,11.114,0,0,0-2.451-.438c-.456,0-.525.225-.525.361,0,.248.4.431,1.651.927.754.3,2.017.8,2.062,1.048.037.2-.153.416-.319.6l-.048.056a46.383,46.383,0,0,1-7.317,5.965c-1.634,1.092-1.634,1.22-1.634,1.313a.286.286,0,0,0,.279.279c.553,0,5.735-1.909,10.319-6.629a1.171,1.171,0,0,1,.813-.493,6.383,6.383,0,0,1,2.255,1.53c2.3,2.22,2.65,2.561,3.6,2.561a.874.874,0,0,0,.875-.984c0-1.545-2.637-3.278-4.2-4.057" transform="translate(6265.559 1934.7)" fill="#80868b"/>
        <g id="グループ_26338" data-name="グループ 26338">
          <path id="パス_38331" data-name="パス 38331" d="M139.434,49.3c.91.144,1.821.284,2.12.284.392,0,.85-.18.85-.686a1.162,1.162,0,0,0-.7-.961l-.048-.031a5.662,5.662,0,0,0-2.7-.941,11.1,11.1,0,0,0-1.391.259c-.311.068-.587.13-.71.148-.1.011-.249.033-.422.057a18.1,18.1,0,0,1-2.188.212c-.684,0-.912-.12-.912-.83a5.794,5.794,0,0,1,.234-2.032c.014-.036.087-.151.153-.255a1.821,1.821,0,0,0,.345-.693c0-.274-.7-1.553-2.69-1.553-.607,0-1.065.178-1.065.415,0,.12.1.249.329.516a1.859,1.859,0,0,1,.2.255,9.819,9.819,0,0,1,.552,3.4c0,.793-.174.941-1.159.992-.312.011-.937.041-1.624.074-1.1.054-2.352.115-2.732.115a6.961,6.961,0,0,1-2.359-.261l-.107-.041a1.2,1.2,0,0,0-.459-.131c-.153,0-.335.067-.335.389,0,.6,1.386,2.528,2.1,2.528a7.743,7.743,0,0,0,1.119-.3c1.587-.4,4.782-.858,4.974-.863.545,0,.642.247.642,1.642,0,1.456,0,4.163-.135,5.426-.066.532-.23.606-.4.606a4.515,4.515,0,0,1-.592-.17,3.145,3.145,0,0,0-.681-.182.241.241,0,0,0-.252.252.485.485,0,0,0,.1.265c.023.034.048.078.084.14a7.663,7.663,0,0,1,1,1.925c.563,1.557.65,1.8,1.343,1.8.59,0,1.581-.3,1.581-2.338,0-.567-.031-2.2-.066-3.925-.034-1.791-.071-3.641-.071-4.308,0-1.4.091-1.4,2.428-1.4.242,0,2.19.027,3.2.134l.446.07" transform="translate(6274.669 1934.32)" fill="#80868b"/>
          <path id="パス_38332" data-name="パス 38332" d="M132.655,49.119c-.311,0-.334.214-.334.279,0,.154.22.4,1.075,1.193l.057.053a9.518,9.518,0,0,1,2.154,3.278l.031.076c.47,1.125.756,1.8,1.59,1.8h.043a1.158,1.158,0,0,0,.833-.329,1.883,1.883,0,0,0,.492-1.306c0-2.424-4.454-5.047-5.941-5.047" transform="translate(6278.802 1937.231)" fill="#80868b"/>
          <path id="パス_38333" data-name="パス 38333" d="M126.964,49.822c-.163,0-.441.244-.637.442l-.054.047a19.992,19.992,0,0,1-2.58,2.023c-.76.472-1.1.786-1.1,1.4a1.226,1.226,0,0,0,.875,1.136,1.478,1.478,0,0,0,.569.118c1.852,0,3.2-3.293,3.2-4.695,0-.174-.058-.469-.279-.469" transform="translate(6274.662 1937.53)" fill="#80868b"/>
          <path id="パス_38334" data-name="パス 38334" d="M163.278,47.884c-.067,0-.173.006-.282.013s-.231.016-.314.016h-.007c-3.929.215-13.393.567-14.294.567a15.122,15.122,0,0,1-3.276-.241c-.043-.009-.207-.074-.336-.127a2.319,2.319,0,0,0-.612-.2c-.207,0-.362.2-.362.469,0,.984,1.289,2.744,2.555,2.744a9.329,9.329,0,0,0,1.424-.312c.307-.081.6-.157.719-.177.637-.134,6.9-.486,10.56-.486.262,0,1.026.013,1.819.026.85.014,1.731.029,2.054.029,1.158,0,2.392-.076,2.392-.985,0-.346-.375-1.336-2.04-1.336" transform="translate(6283.686 1936.705)" fill="#80868b"/>
          <path id="パス_38335" data-name="パス 38335" d="M169.26,44.616a.257.257,0,0,0-.279.281,1.692,1.692,0,0,0,.088.443l.026.088a5.788,5.788,0,0,1,.455,2.285c0,.794-.235,3.71-3.246,7.845-.047.058-.127.151-.221.261-.606.706-.894,1.075-.894,1.265a.27.27,0,0,0,.279.279c.56,0,3.477-1.621,5.142-5.229h0c.392-.877,1.855-4.921,1.855-5.07,0-1.474-2.937-2.448-3.206-2.448" transform="translate(6292.792 1935.314)" fill="#80868b"/>
          <path id="パス_38336" data-name="パス 38336" d="M183.383,46.551c-.1,0-.14,0-2.234,2.177-.334.346-.61.634-.74.764-2.672,2.7-5.092,4.373-5.8,4.373-.267,0-.371-.211-.371-.75,0-.881.11-4.164.215-4.874.017-.1.068-.305.128-.556a10.55,10.55,0,0,0,.308-1.5c0-1.6-3.094-2.04-3.125-2.04a.288.288,0,0,0-.307.279,3.95,3.95,0,0,0,.325.938l.041.107a16.655,16.655,0,0,1,.5,5.023c0,.776-.031,2.827-.107,3.3,0,.009-.164.835-.164,1a3.166,3.166,0,0,0,1.185,1.856,1.942,1.942,0,0,0,1.082.518.653.653,0,0,0,.118-.01c.239-.033.506-.242.988-.784a15.415,15.415,0,0,1,1.85-1.715c4.891-4.3,6.36-7.634,6.36-7.854a.26.26,0,0,0-.254-.254" transform="translate(6295.461 1935.112)" fill="#80868b"/>
          <path id="パス_38337" data-name="パス 38337" d="M202.661,46.079a8.356,8.356,0,0,0-1.316.3c-.317.086-.617.168-.734.188-1.912.271-8.91,1.026-10.626,1.026a8.21,8.21,0,0,1-1.64-.173,2.148,2.148,0,0,0-.473-.153c-.077,0-.332.029-.332.416a2.526,2.526,0,0,0,2.283,2.2,11.535,11.535,0,0,0,1.729-.419l.255-.073a33.664,33.664,0,0,1,4.271-.807c.359,0,.508.192.508.666a18.086,18.086,0,0,1-5.261,10.1c-1.484,1.3-1.484,1.411-1.484,1.466a.279.279,0,0,0,.308.279c.322,0,4.645-1.688,7.3-7.037.134-.254.495-1.092.814-1.833.23-.537.49-1.145.537-1.22a2.815,2.815,0,0,1,.224-.227c.329-.314.529-.518.529-.689a3.5,3.5,0,0,0-.7-1.2c-.091-.13-.16-.228-.175-.257-.033-.078.016-.163.111-.218.191-.071,1.933-.071,2.679-.071.513,0,1.165.064,1.688.114l.221.023c.093.007.319.041.583.08.5.073,1.122.163,1.327.163a.827.827,0,0,0,.928-.794c0-1.285-3.333-1.852-3.557-1.852" transform="translate(6302.307 1935.937)" fill="#80868b"/>
          <path id="パス_38338" data-name="パス 38338" d="M201.263,41.6c-.493,0-1.148.043-1.148.416,0,.267.314.391.412.431a6.3,6.3,0,0,1,2.217,1.607c.453.612.845,1.141,1.5,1.141a.907.907,0,0,0,.848-.957c0-1.635-2.23-2.637-3.828-2.637" transform="translate(6307.66 1934.029)" fill="#80868b"/>
          <path id="パス_38339" data-name="パス 38339" d="M199.238,43.42c-.247,0-.6.128-.6.362,0,.21.391.513.435.549a7.591,7.591,0,0,1,1.813,1.65c.744,1.011,1.032,1.3,1.5,1.3.585,0,.957-.694.957-1.173,0-1.072-1.634-2.692-4.1-2.692" transform="translate(6307.03 1934.805)" fill="#80868b"/>
          <path id="パス_38340" data-name="パス 38340" d="M195.36,42.963a13.4,13.4,0,0,1-3.242.547c-.15,0-.91-.128-1.383-.215l-.041-.007-.038.014c-.05.021-.13.08-.1.249.088.46.942,1.982,2.183,1.982.051,0,.249-.034,1.143-.215l.157-.031c.354-.07,2.186-.429,3.588-.593,1.592-.163,2.188-.224,2.188-1.148,0-.67-.6-1.038-1.688-1.038a11.353,11.353,0,0,0-2.2.328Z" transform="translate(6303.589 1934.417)" fill="#80868b"/>
          <path id="パス_38341" data-name="パス 38341" d="M216.214,44.332a.437.437,0,0,0-.443.415c0,.06.028.133.2.436l.036.067a1.29,1.29,0,0,1,.173.58c0,.54-1.935,4.653-7.421,9.177-.756.6-1.138.987-1.138,1.142a.3.3,0,0,0,.307.308,18.862,18.862,0,0,0,6.162-4.1l.111-.1a3.247,3.247,0,0,1,.362-.3c.041,0,.4.078.4,2.834a33.818,33.818,0,0,1-.3,4.633,5.755,5.755,0,0,0-.137,1c0,.624.756,1.742,1.5,1.742.338,0,.741-.2.741-1.175,0-.16-.041-.582-.086-1.028-.038-.392-.078-.8-.078-.93-.053-1.025-.053-1.895-.053-2.592a27.232,27.232,0,0,1,.106-3.876c.01-.06.066-.227.115-.374a2.5,2.5,0,0,0,.157-.572c0-.371-.409-.62-.843-.885-.084-.051-.17-.1-.251-.155l-.006,0a.156.156,0,0,1-.023-.034l.391-.5c.957-1.223,1.155-1.476,1.682-2.268a2.574,2.574,0,0,1,.684-.73l.121-.1a.774.774,0,0,0,.275-.6c0-1.059-2.454-2.013-2.744-2.013" transform="translate(6310.855 1935.193)" fill="#80868b"/>
          <path id="パス_38342" data-name="パス 38342" d="M242.845,45.054c-.088,0-.113,0-1.306,1.19l-.041.043c-4.524,4.468-11.642,9.193-12.9,9.193a4.374,4.374,0,0,1-1.776-.606c-.034-.019-.124-.083-.23-.158-.4-.284-.547-.372-.647-.372-.277,0-.416.532-.416,1.58,0,1.219,2.126,2.961,3.611,2.961.486,0,.577-.111,1.086-.729a17.265,17.265,0,0,1,2.629-2.2h0c6.977-5.152,10.268-10.273,10.268-10.626a.311.311,0,0,0-.279-.279" transform="translate(6318.478 1935.501)" fill="#80868b"/>
          <path id="パス_38343" data-name="パス 38343" d="M226.46,43.116c-.429,0-.741.163-.741.388s.227.325.318.369l.1.058a5.84,5.84,0,0,1,2.315,2.117l.053.08c.874,1.326,1.169,1.772,1.965,1.772a1.337,1.337,0,0,0,1.309-1.5c0-1.751-2.485-3.286-5.318-3.286" transform="translate(6318.559 1934.676)" fill="#80868b"/>
          <path id="パス_38344" data-name="パス 38344" d="M254.9,41.786c-.285,0-.6.165-.6.388,0,.181.259.374.468.5l.034.024a8.321,8.321,0,0,1,1.861,1.55c.857,1.022,1.1,1.216,1.547,1.216.576,0,.93-.7.93-1.2s-.753-2.474-4.234-2.474" transform="translate(6330.721 1934.109)" fill="#80868b"/>
          <path id="パス_38345" data-name="パス 38345" d="M261.2,45.882c-.141-.086-.854-.469-1.032-.56-1.111-.65-1.255-.733-1.534-.733a3.963,3.963,0,0,0-1.175.378l-.155.066a15.116,15.116,0,0,1-4.06,1.072c-.279,0-.288-.066-.288-.073,0-.078.053-.158.185-.342.57-.711.844-1.071.844-1.444a2.629,2.629,0,0,0-2.665-1.661c-.221,0-.74,0-.74.416a3.977,3.977,0,0,0,.131.614c.029.111.053.208.06.244.2,1.52-2.214,5.14-4.509,7.433-.1.1-.342.314-.624.563-1.353,1.193-1.557,1.42-1.557,1.571a.307.307,0,0,0,.334.308,8.155,8.155,0,0,0,2.685-1.463,20.558,20.558,0,0,0,3.708-3.543c1.142-1.306,1.159-1.306,1.6-1.306.078,0,.3.021.513.04.234.021.453.041.542.041.522,0,2.844-.5,3.962-.737l.48-.1a.148.148,0,0,1,.153.153c0,.652-4.931,9.871-13.331,14.5-.882.485-1,.546-1,.751a.388.388,0,0,0,.388.388,18.3,18.3,0,0,0,5.47-2.625,33.055,33.055,0,0,0,9.737-10.225c.947-1.46,1.041-1.6,1.307-1.771l.054-.031c.867-.526,1.1-.667,1.1-1.121a1.1,1.1,0,0,0-.585-.8" transform="translate(6326.225 1934.449)" fill="#80868b"/>
          <path id="パス_38346" data-name="パス 38346" d="M259.306,40.742a5.119,5.119,0,0,0-2.945-.59c-.134,0-1.121.11-1.121.523,0,.147.12.336.46.439a6.229,6.229,0,0,1,2.424,1.287c.579.6.9.937,1.54.937a.876.876,0,0,0,.823-.93c0-.292,0-.977-1.18-1.667" transform="translate(6331.125 1933.414)" fill="#80868b"/>
          <path id="パス_38347" data-name="パス 38347" d="M277.11,52.6l-.1-.057c-1.118-.612-1.118-.643-1.118-.794a.77.77,0,0,1,.191-.459c.091-.13.255-.371.463-.677.776-1.133,2.22-3.245,2.642-3.752a4.324,4.324,0,0,1,.332-.294c.6-.506.868-.766.868-.965,0-.757-1.736-2.2-2.448-2.2a3.276,3.276,0,0,0-1.086.57c-.2.128-.385.248-.458.281a37.744,37.744,0,0,1-7.366.991,4.668,4.668,0,0,1-1.389-.264c-.006,0-.68-.2-.751-.2-.14,0-.307.063-.307.361a5.482,5.482,0,0,0,.693,1.674,5.612,5.612,0,0,0,1.943,1.017,2.967,2.967,0,0,0,.844-.332,4.611,4.611,0,0,1,.425-.191c.294-.1,5.73-1.349,5.966-1.373.135,0,.168.054.178.093.01.58-3.2,7.392-10.148,12.425-.013.01-1.31.885-1.31,1.125a.3.3,0,0,0,.335.305,6.649,6.649,0,0,0,1.744-.637,27,27,0,0,0,7.128-5.673l.147-.157c.6-.686.647-.71.84-.71.525,0,2.854,1.989,4.722,5.264.949,1.682,1.1,1.942,1.8,1.942a1.317,1.317,0,0,0,1.256-1.337c0-2.488-4.549-5.112-6.043-5.974" transform="translate(6335.355 1934.797)" fill="#80868b"/>
        </g>
        <path id="パス_38348" data-name="パス 38348" d="M307.416,60.357l-.148-.088a14.25,14.25,0,0,1-6.321-7.4c0-.184.116-.234.533-.234h4.6c.918,0,1.581,0,1.581-.523,0-.49-2.35-1.878-2.529-1.878-.2,0-.453.259-.985.885a4.878,4.878,0,0,1-.335.374c-.143.144-.248.148-1.333.148H301.29c-.749,0-.749-.181-.749-1.182a25.815,25.815,0,0,1,.09-3.479c.115-.211.269-.277.659-.277h3.818c.952,0,1.581,0,1.581-.525a6.737,6.737,0,0,0-2.392-1.933c-.22,0-.518.3-1.1.965-.134.151-.261.294-.316.344-.151.128-.3.155-.908.155h-.65c-.57,0-.748-.1-.748-.7a30,30,0,0,1,.155-3.152,2.114,2.114,0,0,1,.164-.218c.207-.254.3-.385.3-.5,0-.492-2.638-.985-2.665-.985a.259.259,0,0,0-.252.254c0,.131.056.629.143,1.376.057.489.117,1,.128,1.188s.053,1.794.053,2.15c0,.539-.317.586-.64.586h-2.086c-.2,0-.207-.064-.211-.064.013-.04.118-.294.212-.519s.2-.475.268-.65l.081-.185c.3-.7.328-.737.509-.791l.071-.024c.469-.157.7-.235.7-.52,0-.547-2.717-1.255-2.744-1.255-.344,0-.366.235-.416.753a23.3,23.3,0,0,1-1.533,5.457c-.047.113-.168.389-.307.707a9.207,9.207,0,0,0-.6,1.434.211.211,0,0,0,.225.225c.372,0,1.813-1.769,2.509-2.971.335-.592.351-.6.85-.6h2.436c.552,0,.6.16.643.449a37.04,37.04,0,0,1,.08,3.738c0,.644-.114.75-.8.75h-.841c-.9,0-2.126-.054-2.858-.087-.3-.013-.518-.021-.58-.021s-.307-.02-.545-.038c-.279-.021-.543-.043-.647-.043-.221,0-.254.125-.254.2a.259.259,0,0,0,.086.185c.02.02.046.05.084.1l.509.617a.428.428,0,0,0,.361.221c.043,0,.173-.014.3-.029s.229-.026.281-.026c.642-.056,2.1-.081,2.695-.081.669,0,.885.034.885.416a23,23,0,0,1-5.747,8.295c-.01.009-.971.855-.971,1.084a.282.282,0,0,0,.308.254,2.389,2.389,0,0,0,.827-.361c.084-.047.16-.09.224-.121,3.075-1.892,4.747-4.343,6.467-7.116a1.757,1.757,0,0,1,.242-.352,1.212,1.212,0,0,1,.031.384c0,.067-.083,4.314-.11,5.657-.011.421-.056.954-.1,1.518-.057.686-.114,1.4-.114,1.925a.632.632,0,0,0,.713.714,2.186,2.186,0,0,0,1.2-.381c.275-.207.328-.506.328-.955,0-.65-.011-2.523-.026-4.442-.013-1.983-.027-4.016-.027-4.789.046.13.107.309.167.485.1.282.19.552.229.644,1.393,3.663,3.985,6.946,4.388,6.946.171,0,.465-.184,1.021-.569.12-.083.218-.153.255-.174a3.4,3.4,0,0,1,1.323-.287c.345,0,.416-.153.416-.281,0-.174-.227-.336-.952-.767" transform="translate(6346.181 1933.414)" fill="#80868b"/>
        <path id="パス_38349" data-name="パス 38349" d="M293.738,54.5c.67,0,.85-.79.85-1.256,0-1.5-1.507-2.1-2.233-2.388l-.057-.023c-1.115-.406-1.2-.518-1.2-.947,0-1.574.007-1.59.8-1.59h1.788c.687,0,1.336,0,1.336-.469,0-.393-1.933-1.688-2.176-1.688-.3,0-.412.211-.7.75a.652.652,0,0,1-.577.388c-.372,0-.423-.178-.423-.371,0-.145.04-.944.083-1.792.053-1.058.107-2.151.107-2.407,0-.465.048-.546.271-.726l.039-.031c.252-.2.368-.292.368-.543,0-.395-.319-.5-.848-.629-.036-.007-.218-.068-.394-.128a7.472,7.472,0,0,0-1.369-.388.235.235,0,0,0-.225.252c0,.054.019.281.057.71.056.623.133,1.477.133,1.726,0,4.325,0,4.325-.587,4.325-.3,0-1.17-.056-1.939-.106-.693-.043-1.347-.084-1.554-.084a.213.213,0,0,0-.225.225.3.3,0,0,0,.09.19l.466.66c.043.087.134.271.319.271a3.142,3.142,0,0,0,.512-.083c.522-.026,1.6-.054,1.845-.054.416,0,.694.087.694.5a41.4,41.4,0,0,1-2.543,8.095,18.588,18.588,0,0,0-1.005,2.258.2.2,0,0,0,.2.2c.586,0,1.715-1.845,3.349-4.822.1-.178.194-.352.271-.49,0,.86-.081,6.936-.108,7.593-.029.312-.081,2.265-.081,2.476a.663.663,0,0,0,.741.714A1.336,1.336,0,0,0,291.2,63.4c0-.315-.016-1.095-.033-2-.029-1.5-.066-3.365-.048-3.959,0-.4-.006-1.543-.013-2.716-.007-1.228-.014-2.486-.014-2.944,0-.393.1-.478.125-.478.114,0,.515.358,1.226,1.709l.058.114c.539,1.054.7,1.371,1.235,1.371" transform="translate(6343.82 1933.463)" fill="#80868b"/>
        <path id="パス_38350" data-name="パス 38350" d="M323.576,55.7c-.028,0-.03,0-1.155.248-1.669.368-5.145,1.133-5.426,1.133s-.316-.117-.316-1.778c0-1.692.11-4.488.158-4.733s.267-.351.619-.351H320.3c1,0,1.608,0,1.608-.495a4.47,4.47,0,0,0-2.123-2.014c-.2,0-.415.247-.865.811a3.64,3.64,0,0,1-.573.634,4.482,4.482,0,0,1-1.243.071h-2.139c-1.226,0-2.438-.027-3.687-.081-.173-.027-1.021-.108-1.215-.108-.125,0-.254.074-.254.2s.058.174.168.282l.525.636a.429.429,0,0,0,.345.23,2.053,2.053,0,0,0,.214-.03c.07-.011.14-.024.188-.027a21.429,21.429,0,0,1,2.442-.078c.339,0,.62.038.64.5,0,.046,0,.466.01.961.007.7.017,1.54.017,1.667,0,.372-.028,3.657-.05,3.844a.4.4,0,0,1-.181.287,22.674,22.674,0,0,1-3.42.49l-.254.029c-.828.08-1.051.1-1.051.362,0,.03.714,3.069,1.2,3.069.141,0,.3-.147.643-.483a2.52,2.52,0,0,1,.332-.3c.307-.2.971-.418,4.92-1.662,2.027-.649,7.358-2.58,7.358-3.091,0-.1-.073-.225-.279-.225" transform="translate(6354.181 1936.632)" fill="#80868b"/>
        <path id="パス_38351" data-name="パス 38351" d="M320.823,40.343c-.111,0-.28.053-.3.194-.053.178.2.349.228.372a13.613,13.613,0,0,1,2.063,2.4c.565.807.649.93,1.021.93a1.131,1.131,0,0,0,1.255-1.255c0-1.7-3.859-2.636-4.263-2.636" transform="translate(6358.91 1933.495)" fill="#80868b"/>
        <path id="パス_38352" data-name="パス 38352" d="M330.524,44.331c-.345,0-.436.124-1.306,1.3-.309.4-.384.4-1.618.4h-3.142c-.576,0-.75,0-.776-2.726,0-1.27.01-1.33.271-1.592.241-.268.3-.331.3-.546,0-.513-.57-.622-1.17-.737a11.716,11.716,0,0,0-1.928-.3c-.222,0-.334.074-.334.225A12.831,12.831,0,0,0,321.1,41.9c.044.207.081.378.1.462.083.441.512,3.292.512,3.494,0,.12,0,.18-.423.18h-7.15c-1.265,0-2.442-.026-3.687-.078-.174-.029-1.024-.111-1.216-.111a.223.223,0,0,0-.252.228c0,.086.036.147.144.255l.555.644c.081.108.167.22.314.22a4,4,0,0,0,.6-.083c.944-.053,2.8-.053,3.4-.053h7.312c.555,0,.59.048.751,1.044,1.758,10.521,7.475,16.263,9.92,16.263a.754.754,0,0,0,.85-.821,1.618,1.618,0,0,0-.288-.827,1.865,1.865,0,0,1-.281-1.042c0-.4.187-2.067.287-2.961.054-.48.066-.586.066-.614,0-.291-.141-.334-.227-.334-.153,0-.255.135-.738,1.152-.076.161-.138.294-.174.358-.182.338-.739,1.362-1.065,1.362-.739,0-3.655-3.4-5.3-8.54a35.945,35.945,0,0,1-1.078-4.75c0-.238.016-.288.479-.288h7.177c.985,0,1.581,0,1.581-.552,0-.57-2.3-2.176-2.746-2.176" transform="translate(6354.002 1933.406)" fill="#80868b"/>
        <path id="パス_38353" data-name="パス 38353" d="M335.791,49.137c.043,0,.172-.014.3-.029s.229-.026.279-.026c1-.081,1.758-.081,3.429-.081h6.229c1.37,0,1.58,0,1.58-.442a6.622,6.622,0,0,0-2.2-2.177c-.182,0-.391.24-.884.828l-.121.144c-.523.627-.543.653-1.812.653h-2.68c-.877,0-2.231-.02-3.711-.108-.077,0-.307-.02-.545-.038-.279-.021-.543-.043-.647-.043a.208.208,0,0,0-.225.2.348.348,0,0,0,.141.281l.523.632c.118.12.2.207.346.207" transform="translate(6364.983 1936.066)" fill="#80868b"/>
        <path id="パス_38354" data-name="パス 38354" d="M356,50.777c-6.463-1.826-11.109-7.88-11.109-8.527,0-.057,0-.087.128-.153l.053-.036c.237-.165.335-.232.335-.435,0-.614-2.665-1.8-2.692-1.8-.411,0-.459.184-.634.873l-.048.188c-.16.7-2.05,3.961-6.425,7.694-1.44,1.219-3.194,2.5-4.11,3.154l-.047.033c-.352.234-.47.314-.47.5a.235.235,0,0,0,.1.2.365.365,0,0,0,.319.024c1.3-.252,7.339-2.964,11.949-8.745A6.018,6.018,0,0,1,344,43a4.472,4.472,0,0,1,.324.565c3.031,5.524,8.866,9.636,9.552,9.636a.536.536,0,0,0,.478-.341A2.74,2.74,0,0,1,356,51.813c.711-.23.858-.277.858-.545,0-.245-.048-.259-.863-.492" transform="translate(6363.366 1933.276)" fill="#80868b"/>
        <path id="パス_38355" data-name="パス 38355" d="M349.9,56.373l-.18-.1a15.613,15.613,0,0,0-3.329-1.6.3.3,0,0,0-.334.307c0,.191.222.453.768,1.051a4.337,4.337,0,0,1,.828,1.062c0,.138-.422.187-2.036.342-3.047.3-5.57.46-5.889.46-.12,0-.344-.037-.344-.127,0-.151.178-.358.284-.48l.054-.064c.18-.181,1.3-1.527,1.855-2.264l.083-.11c.587-.776.636-.837.786-.894.834-.222.921-.245.921-.6,0-.282-.677-.927-1.122-1.319h8.37c1.317,0,1.554,0,1.554-.5,0-.325-.053-.382-1.434-1.518-.612-.509-.737-.6-1.012-.6-.311,0-.443.185-.835.736l-.04.056c-.607.834-.843.834-1.969.834H337.94c-.939,0-2.345-.053-3.711-.108-.076,0-.305-.019-.543-.038-.279-.023-.543-.043-.649-.043-.22,0-.252.125-.252.2a.3.3,0,0,0,.094.185c.021.027.046.056.074.1l.525.634.05.051a.373.373,0,0,0,.3.153c.041,0,.17-.014.3-.029s.231-.026.279-.026c.753-.056,1.453-.081,3.4-.081h1.707c.532,0,.667.03.667.316a19.552,19.552,0,0,1-1.393,3.51c-1.071,2.14-1.192,2.14-2.687,2.14a14.2,14.2,0,0,1-1.574-.107c-.037-.006-.108-.017-.2-.034a9.5,9.5,0,0,0-1.017-.157c-.3,0-.361.181-.361.335s.183.62,1.5,2.925a.452.452,0,0,0,.4.279,1.493,1.493,0,0,0,.59-.294c.1-.063.211-.134.254-.153a120.554,120.554,0,0,1,12.509-2.479c.285,0,.492,0,1.011.928.453.833,1.074,1.97,1.969,1.97a1.461,1.461,0,0,0,1.2-1.608c0-1.771-1.724-2.79-2.486-3.242" transform="translate(6364.134 1937.36)" fill="#80868b"/>
        <path id="パス_38356" data-name="パス 38356" d="M363.86,57.061c.526,0,1.093-.436,1.093-1.391,0-2-2.243-2.831-3.583-3.148-.667-.138-.778-.174-.778-.616,0-.425.046-.472.824-1.279.135-.135.411-.453.727-.821a16.036,16.036,0,0,1,1.736-1.852c.04-.013.157-.041.271-.068s.228-.053.277-.068a.541.541,0,0,0,.389-.488c0-.227-.078-.3-.71-.9-.038-.029-.207-.218-.355-.385-.2-.23-.431-.486-.583-.634a.656.656,0,0,0-.5-.254c-.2,0-.506.259-.952.654a3.763,3.763,0,0,1-.354.3.815.815,0,0,1-.562.161c-.22,0-.289-.014-.289-.288V43.7c0-1.131,0-1.24.12-1.45a2.71,2.71,0,0,1,.2-.211c.259-.258.358-.366.358-.479a.624.624,0,0,0-.378-.508,19.353,19.353,0,0,0-2.5-.747c-.24,0-.252.165-.252.2a4.281,4.281,0,0,0,.074.52c.027.154.061.348.061.411.083,1.039.108,2.657.108,3.022,0,1.859-.023,1.859-.614,1.859-.287,0-1.085-.043-1.856-.086-.753-.04-1.463-.077-1.718-.077s-.254.165-.254.2c0,.074.036.117.111.211l.567.689a.427.427,0,0,0,.361.221c.043,0,.172-.013.3-.027s.23-.027.277-.027c.908-.051,2.05-.081,3.132-.081h1.9c.288,0,.288.047.288.127,0,.707-3.71,5.352-4.864,6.537-.105.114-.372.368-.681.663-1.466,1.4-1.714,1.687-1.714,1.845,0,.068.027.227.281.227.449,0,1.655-.9,3.185-2.089.567-.439,1.21-.937,1.31-.972.127,0,.127.462.127.614,0,2.565-.07,4.879-.126,6.738-.014.455-.027.88-.037,1.279,0,.147-.029.546-.056.934s-.053.743-.053.881c0,.535.314.8.957.8a1.431,1.431,0,0,0,1.581-1.391c0-.2-.036-.734-.07-1.255-.033-.486-.066-.988-.066-1.156,0-.566-.007-2.144-.014-3.692-.006-1.49-.013-2.953-.013-3.457,0-.181,0-.559.1-.559.375,0,1.182,1.125,1.441,1.6.717,1.463,1.039,2.057,1.782,2.057" transform="translate(6372.965 1933.479)" fill="#80868b"/>
        <path id="パス_38357" data-name="パス 38357" d="M373.433,61.131c-.393,0-.5.145-1.252,1.112A1.538,1.538,0,0,1,370.7,63h-1c-.536,0-.559-.279-.559-1.346,0-.932-.021-3.487-.041-5.959-.02-2.344-.04-4.626-.04-5.415,0-.51.064-.75.64-.75h3.765c.952,0,1.58,0,1.58-.5,0-.58-1.962-2.421-2.419-2.421-.316,0-.4.115-1.226,1.223-.525.7-.6.7-1.861.7-.469,0-.506-.288-.506-.694,0-.969.093-5.222.232-5.552a2.4,2.4,0,0,1,.232-.259c.267-.279.375-.4.375-.527,0-.528-.569-.706-.844-.791l-.074-.024-.379-.114a16.108,16.108,0,0,0-1.61-.46c-.3,0-.361.181-.361.334,0,.118.038.406.081.713.038.268.08.572.08.679.134,1.995.19,3.231.19,5.731,0,.821-.083.967-.559.967-.593,0-1.707-.044-2.519-.078-.435-.017-.771-.03-.867-.03s-.6-.04-.881-.063c-.144-.011-.247-.019-.257-.019a.2.2,0,0,0-.225.2c0,.105.024.135.141.281l.523.632c.12.12.205.207.346.207.061,0,.2-.016.336-.03.1-.011.2-.024.245-.024.941-.081,2.512-.081,3.184-.081.466,0,.5.344.5.7,0,1.527-.054,11.832-.107,12.309-.04.428-.326.465-.642.465h-1.056c-1.364,0-2.622-.044-3.454-.073l-.257-.009c-.09,0-.371-.031-.619-.057s-.486-.051-.573-.051a.228.228,0,0,0-.225.225c0,.08.019.1.14.254l.515.622c.1.125.194.244.356.244a2.724,2.724,0,0,0,.309-.041c.111-.019.221-.038.272-.04.784-.067,2.164-.061,2.99-.056H374.6c.968,0,1.607,0,1.607-.523,0-.553-2.462-2.365-2.771-2.365" transform="translate(6375.714 1933.398)" fill="#80868b"/>
        <path id="パス_38358" data-name="パス 38358" d="M389.618,59.762a7.227,7.227,0,0,0-2,.391l-.073.02a11.9,11.9,0,0,1-3.214.483c-2.4,0-3.62-.8-3.62-2.374,0-1.7.882-3.623,7.275-6.2,1.021-.4,2.177-.845,2.177-1.759A1.191,1.191,0,0,0,389,49.172a7.993,7.993,0,0,0-2.867,1.3l-.105.067c-1.367.861-1.5.941-1.821.941-.372,0-.56-1.036-.56-3.079a25.75,25.75,0,0,1,.241-3.546c.017-.083.058-.254.108-.458a9.588,9.588,0,0,0,.274-1.3c0-.84-1.4-2.177-3.069-2.177-.582,0-.875.1-.875.281,0,.135.046.184.616.781l.076.08a2.391,2.391,0,0,1,.77,2.091c0,.361-.036,1.37-.07,2.345-.034.937-.066,1.819-.066,2.124a8.9,8.9,0,0,0,.47,3.222,8.036,8.036,0,0,1,.234.786c0,.282-.324.614-1.118,1.356h0a6.28,6.28,0,0,0-2.1,4.492c0,2.918,1.788,4.4,5.318,4.4,1.667,0,7.1-.12,7.1-1.662,0-.757-.921-1.446-1.932-1.446" transform="translate(6383.861 1933.737)" fill="#80868b"/>
        <path id="パス_38359" data-name="パス 38359" d="M412.344,57.668a8.43,8.43,0,0,0-1.561.78c-.468.249-.91.485-1.074.56a13.259,13.259,0,0,1-5.626,1.4c-3.319,0-4-2.01-4-5.028a65.037,65.037,0,0,1,1.133-9.608c.017-.067.088-.248.164-.441a4.641,4.641,0,0,0,.355-1.112c0-.7-1.266-2.961-2.744-2.961-.254,0-.525.147-.525.416,0,.041,0,.046.177.463.06.144.117.281.133.325a3.278,3.278,0,0,1,.232,1.27c0,.729-.237,2.913-.352,3.858a61.943,61.943,0,0,0-.623,7.545c0,5.341,1.6,7.619,5.345,7.619a11.848,11.848,0,0,0,6.542-2.243,8.7,8.7,0,0,0,2.7-2.561.272.272,0,0,0-.281-.279" transform="translate(6391.909 1933.883)" fill="#80868b"/>
        <path id="パス_38360" data-name="パス 38360" d="M431.056,42.261c-1.752,0-7.381,1.582-10.087,2.345l-.354.1c-3.728,1.061-4.1,1.159-5.241,1.159-.03,0-.145-.026-.238-.046-.566-.125-.818-.151-.928-.013-.125.145-.114.389.03.7a3.033,3.033,0,0,0,2.382,1.729,2.109,2.109,0,0,0,1.018-.368c.887-.5,6.185-2.746,7.835-2.876-.148.13-.352.292-.446.364-3.483,3.1-4,7.931-4,10.537,0,3.941,1.918,5.939,5.7,5.939.549,0,3.288-.076,3.288-1.58,0-.719-.56-1.148-1.5-1.148-.093,0-.426.024-.964.063-.615.046-1.38.1-1.61.1-1.257,0-3.159,0-3.159-4.7,0-6.879,3.7-10.013,7.141-10.013.148,0,.606.073,1.049.144a11.609,11.609,0,0,0,1.172.154,1.221,1.221,0,0,0,1.227-1.146c0-.949-1.162-1.446-2.311-1.446" transform="translate(6398.757 1934.312)" fill="#80868b"/>
        <path id="パス_38361" data-name="パス 38361" d="M455.617,60.836c-.3,0-.392.125-1.1,1.1l-.15.2c-.308.4-.382.4-1.618.4H447.79c-.485,0-.654-.081-.724-.336-.024-.222-.053-5.847-.053-6.749,0-.59.034-.777.723-.777h6.554c.934,0,1.608,0,1.608-.5,0-.4-2.311-2.2-2.61-2.2-.315,0-.4.12-1.283,1.28-.274.388-.319.4-1.615.4h-2.68c-.689,0-.749-.167-.749-1.019,0-4.582.039-5.135.047-5.188.1-.331.331-.356.674-.356H455.1c.883,0,1.581,0,1.581-.495,0-.4-2.311-2.2-2.61-2.2-.319,0-.408.121-1.252,1.276-.309.4-.382.4-1.62.4h-3.493c-.721,0-.721-.2-.721-.884a16.711,16.711,0,0,1,.224-3.04,2.557,2.557,0,0,1,.2-.23c.328-.349.465-.518.465-.659,0-.874-3.038-1.092-3.069-1.092-.4,0-.442.234-.442.335a3.534,3.534,0,0,0,.148.634c.033.115.061.215.068.248l.013.1a24.358,24.358,0,0,1,.148,3.048c0,1.406-.018,1.534-.694,1.534h-4.008c-.443,0-.533-.034-.533-.207a11.133,11.133,0,0,1,.843-1.977,3.141,3.141,0,0,1,.318-.284c.423-.352.681-.58.681-.771,0-.622-2.771-1.662-2.8-1.662-.2,0-.255.207-.308.7a30.167,30.167,0,0,1-3.557,9.476A12.734,12.734,0,0,0,434,52.721a.276.276,0,0,0,.279.307c.58,0,2.568-2.57,3.889-4.783.671-1.126.684-1.149,1.447-1.149h4.468c.429,0,.6.151.64.56v5.309c0,.432,0,.694-.667.694h-3.005c-1.216,0-2.324-.024-3.691-.08-.194-.029-1.015-.11-1.212-.11a.222.222,0,0,0-.252.225.294.294,0,0,0,.089.187l.6.7a.43.43,0,0,0,.346.231,4.69,4.69,0,0,0,.586-.081c.06,0,.148,0,.275-.009.428-.014,1.316-.046,3.121-.046h3.168c.575,0,.64.288.64.5v6.527c0,.831-.265.831-.747.831H438.8c-1.1,0-2.076-.04-3.2-.087l-.51-.021c-.093,0-.375-.023-.623-.041s-.489-.04-.569-.04-.252,0-.252.2c0,.1.024.135.143.285l.535.614a.424.424,0,0,0,.334.221c.057,0,.185-.014.314-.027s.231-.027.3-.029c.21-.023.961-.078,3.4-.078h17.983c.883,0,1.581,0,1.581-.5,0-.4-2.311-2.2-2.61-2.2" transform="translate(6407.066 1933.422)" fill="#80868b"/>
        <path id="パス_38362" data-name="パス 38362" d="M467.943,52.67c.044-.014,4.353-1.457,4.353-2.739,0-.734-.818-.794-1.96-.875-.054,0-.241-.037-.391-.066a3.418,3.418,0,0,0-.449-.07c-.252,0-.279.157-.279.225a1.431,1.431,0,0,0,.058.282c.018.07.047.178.05.205,0,.709-1.778,1.265-2.1,1.265-.2,0-.207,0-.207-.642,0-1.1.106-2.472.128-2.58l.007-.036c.021-.316.024-.316.2-.361l.1-.034c.843-.268,2.6-.827,2.6-1.892,0-.486-.48-.659-.931-.659a3.2,3.2,0,0,0-.971.207l-.053.017c-.446.164-.6.218-.673.234v-.014a6.239,6.239,0,0,1,.393-1.705c.023-.051.084-.161.161-.3a3.918,3.918,0,0,0,.529-1.192c0-.719-1.608-1.39-2.338-1.39-.267,0-.823,0-.823.334a.751.751,0,0,0,.123.3c.031.063.064.123.074.153l.006.014a5.16,5.16,0,0,1,.475,1.62,18.359,18.359,0,0,1-.16,2.355c-.016.078-.058.289-.751.289a4.671,4.671,0,0,1-2.548-.706,5.974,5.974,0,0,0-.838-.459c-.184,0-.254.205-.254.335,0,1.1,1.738,2.575,3.765,2.717l.071,0a3.3,3.3,0,0,1,.361.033c-.018.358-.212,3.452-.232,3.587-.058.155-.463.419-2.519.419a10.193,10.193,0,0,1-3.223-.478l-.114-.047a4.06,4.06,0,0,0-.97-.342c-.067,0-.225.026-.225.254a3.058,3.058,0,0,0,.831,1.352,5.5,5.5,0,0,0,3.738,1.149h.1c.177,0,.65-.031,1.151-.066s1.018-.07,1.206-.07c.118,0,.125,0,.125.268.026.709.054,2.515.054,3.081a2.974,2.974,0,0,1-.048.847s-.021.011-.1.011-.352-.019-.63-.037c-.331-.021-.672-.044-.806-.044-3.1,0-5.02,1.155-5.02,3.015a3.282,3.282,0,0,0,3.611,3.069,5.36,5.36,0,0,0,4.736-2.82l.018-.038c.118-.264.148-.309.2-.309a5,5,0,0,1,1.785,1.41l.033.04c.974,1.163,1.1,1.312,1.541,1.312a1.186,1.186,0,0,0,1.066-1.282c0-1.447-1.977-2.906-3.941-3.711-.473-.18-.478-.212-.576-1.038l-.007-.058c-.033-.332-.325-3.385-.325-3.888,0-.155,0-.165.821-.456m-5,6.236c.892,0,2.32.191,2.441.482a1.512,1.512,0,0,1-.589,1.16,4.334,4.334,0,0,1-2.583.965c-.525,0-2.022-.222-2.022-1.209,0-1.381,2.64-1.4,2.753-1.4" transform="translate(6417.597 1933.584)" fill="#80868b"/>
        <path id="パス_38363" data-name="パス 38363" d="M498.928,56.368c-.108,0-.282.058-.674.506a3.475,3.475,0,0,1-2.737,1.307c-1.638,0-1.859-1.2-1.859-2.374a23.123,23.123,0,0,1,.431-4.04,23.815,23.815,0,0,0,.326-3.489c0-2.171-.994-3.367-2.8-3.367-2.371,0-5.3,2.559-7.3,4.481-.078.076-.21.2-.326.308.087-.123.207-.288.361-.5l.076-.1a1.445,1.445,0,0,0,.271-.788.751.751,0,0,0-.488-.671c-.438-.22-.487-.3-.487-.818a19.051,19.051,0,0,1,.134-1.935c.011-.1.056-.339.106-.613a10.575,10.575,0,0,0,.167-1.055c0-.586-1.755-1.96-2.719-1.96-.667,0-.767.261-.767.416s.165.415.562,1.005c.12.178.232.346.262.408a9.057,9.057,0,0,1,.693,3.9c0,.456-.027.6-.133.67a14.642,14.642,0,0,1-2.7.942l-.475.143a2.33,2.33,0,0,0-1.457,2.253,5.23,5.23,0,0,0,.632,2.215l.017.048a10.409,10.409,0,0,1,.6,1.935,1.981,1.981,0,0,1-.271.7l-.108.205a8.166,8.166,0,0,0-1.165,3.022,1.136,1.136,0,0,0,1.121,1.145c.757,0,1.306-.545,1.628-1.62.08-.274.15-.515.175-.6a14.8,14.8,0,0,1,.924,2.831l.01.048c.267,1.416.4,2.127,1.352,2.127,1.076,0,1.2-.948,1.2-1.661a9.645,9.645,0,0,0-.194-1.681l-.134-.863a24.994,24.994,0,0,1-.214-3.469c0-2.733.268-3.781,2.04-5.447s4.032-3.563,5.912-3.563c1.36,0,1.535.922,1.535,1.724a45.2,45.2,0,0,1-.73,5.634,11.707,11.707,0,0,0-.326,2.572c0,2.645,1.186,4.1,3.34,4.1,3,0,4.505-3.258,4.505-3.665a.34.34,0,0,0-.308-.362M481.447,54.7a.539.539,0,0,1,0,.077c0,.023-.009.145-.019.3-.016.247-.036.569-.036.653,0,1.573,0,2.361-.044,2.626a4.235,4.235,0,0,1-.8-1.732,6.148,6.148,0,0,1,.9-1.919m.254-5.057a5.649,5.649,0,0,1-.478,1.113c-.043.086-.217.423-.435.851-.647,1.265-1.186,2.32-1.217,2.4a.575.575,0,0,1-.148.181,7.407,7.407,0,0,1-.77-2.824c0-1.21,2.707-1.775,2.888-1.778.135,0,.155.05.16.057" transform="translate(6425.561 1933.883)" fill="#80868b"/>
        <path id="パス_38364" data-name="パス 38364" d="M498.814,44.412l.036.037a.414.414,0,0,0,.311.167c.04,0,.148-.011.265-.026s.248-.03.316-.03c.557-.051,1.292-.08,3.4-.08h2.79c.462,0,.667.084.667.586a12.972,12.972,0,0,1-1.2,4.759c-1.028,2.163-2.86,3.048-5.18,4.167l-.1.048c-.356.177-.536.264-.5.429.031.138.192.138.245.138a10.66,10.66,0,0,0,4.544-1.483c2.508-1.538,3.889-3.841,4.482-7.466l.016-.093c.175-1.086.175-1.086.815-1.086h1.923c.331,0,.673,0,.7.59.027.811.027,2.62.027,3.49,0,1.875-.013,1.912-.657,2.022-.174.02-.958.009-1.426,0l-.372,0c-.083,0-.335,0-.335.2,0,.117.074.171.573.4l.094.044a2.094,2.094,0,0,1,1.019,1.112l.029.086c.22.66.292.881.813.881a2.693,2.693,0,0,0,1.466-.6,2.505,2.505,0,0,0,1.009-2.284c0-.445-.03-1.679-.058-2.874-.026-1.061-.051-2.062-.051-2.381,0-.419.051-.694.723-.694h6.148c.952,0,1.581,0,1.581-.5,0-.287-1.925-2.176-2.692-2.176-.366,0-.486.2-1.151,1.283-.247.384-.469.4-1.611.4h-5.255c-.549,0-.667-.077-.667-.885,0-.365,0-.821.16-.941.354-.269.436-.335.436-.575,0-.379-.426-.46-.613-.5-.17-.021-.6-.093-1.056-.165-.908-.147-1.346-.215-1.427-.215-.3,0-.362.137-.362.252a3.83,3.83,0,0,0,.2.6,3.422,3.422,0,0,1,.18,1.22c0,1.133-.1,1.209-.8,1.209h-4.983c-.632,0-2.123-.024-3.71-.11-.094,0-.339-.02-.586-.04s-.506-.04-.606-.04c-.2,0-.254.125-.254.2a.36.36,0,0,0,.1.217Z" transform="translate(6434.513 1933.438)" fill="#80868b"/>
        <path id="パス_38365" data-name="パス 38365" d="M520.929,57.63c-.506.031-.984.061-1.146.061-4.22,0-6.94-1.066-7.033-1.4,0-.081.2-.277.446-.523l.158-.157a24.872,24.872,0,0,0,2.672-3c.255-.349.277-.354.8-.473l.064-.013c.436-.111.677-.334.677-.629,0-.66-2.136-1.852-2.365-1.852s-.589.342-1.2,1.014c-.118.131-.231.255-.275.292-.123.1-.217.13-.8.13h-3.657c-.245,0-.289-.023-.289-.073,0-.108.24-.3.478-.419l.044-.03c.234-.153.453-.3.453-.606,0-.2-.171-.483-1.437-1.025l-.2-.091c-.754-.354-.815-.384-.922-.384-.164,0-.264.174-.63,1.1-.065.165-.12.3-.15.366a12.168,12.168,0,0,1-6.212,5.616c-.048.023-.16.064-.3.115-1.028.388-1.064.428-1.064.56a.253.253,0,0,0,.281.254,13.815,13.815,0,0,0,6.257-2.3c.09-.063.282-.218.508-.4a12.772,12.772,0,0,1,1.062-.818c.073,0,.154.026.254.227a15.444,15.444,0,0,0,1.892,2.63c.063.063.255.255.255.408-.037.267-1.705,1.8-6.018,3.195a41.755,41.755,0,0,1-4.582,1.188c-.2.029-.423.158-.423.307,0,.254.354.254.47.254,1.922,0,7.72-.56,11.427-3.112l.039-.023c.4-.262.553-.359.7-.359.121,0,.183.014.763.356a21.475,21.475,0,0,0,8.662,2.757c.411,0,.593-.416.706-.776a5.629,5.629,0,0,1,1.215-1.685,2.494,2.494,0,0,0,.425-.535l.1-.163-.181-.051a14.023,14.023,0,0,0-1.926.07m-7.818-5.348c-.031.4-2,2.917-2.429,2.917-.6,0-2.86-2.4-2.86-2.861,0-.083,0-.235.938-.235h4.035c.248,0,.317.038.317.18" transform="translate(6434.691 1936.948)" fill="#80868b"/>
        <path id="パス_38366" data-name="パス 38366" d="M510.876,44.218c-.114,0-.292.056-.306.207l-.016.047.026.061a.466.466,0,0,0,.254.2,10.487,10.487,0,0,1,3.106,3.752c.731,1.6.844,1.845,1.406,1.845.593,0,1.228-.689,1.228-1.715,0-2.067-3.717-4.4-5.7-4.4" transform="translate(6439.806 1935.145)" fill="#80868b"/>
        <path id="パス_38367" data-name="パス 38367" d="M502.752,47.622c.053-.063.173-.21.316-.389.3-.366.7-.87.851-1.022a2.4,2.4,0,0,1,.288-.2c.433-.285.637-.439.637-.617,0-.258-.108-.324-1.439-1.116l-.338-.2c-.466-.282-.72-.428-.914-.322-.084.056-.121.174-.3.907-.054.23-.11.466-.138.542a17.337,17.337,0,0,1-3.506,5.248.292.292,0,0,0-.127.281.186.186,0,0,0,.192.14,5.155,5.155,0,0,0,.932-.366,11.12,11.12,0,0,0,3.539-2.88" transform="translate(6434.497 1934.931)" fill="#80868b"/>
        <path id="パス_38368" data-name="パス 38368" d="M536.125,48.053a11.437,11.437,0,0,0-5.524,1.581,2.727,2.727,0,0,0-.287.158c-.115.067-.314.185-.408.225a1.829,1.829,0,0,1,.175-.431,3.112,3.112,0,0,0,.392-1.362c0-.211,0-.7-.773-1.179-.392-.245-.392-.245-.392-.691,0-.288.081-1.125.134-1.548.016-.1.054-.305.1-.562a18.362,18.362,0,0,0,.305-1.925c0-1-1.929-2.15-2.717-2.15-.141,0-1.066.093-1.066.5,0,.154.051.214.446.679l.106.123c.518.579,1.046,1.474,1.046,3.722a9.145,9.145,0,0,1-.227,2.237c-.037.051-.269.252-.408.372-.115.1-.221.19-.267.237-1.784,1.648-1.942,1.677-2.361,1.751-1.1.161-1.965.288-1.965,1.334,0,.545.111.686.981,1.771a4.659,4.659,0,0,1,1.022,1.993,18.892,18.892,0,0,1-1.166,2.257l-.167.3c-.687,1.153-.833,1.416-.833,1.915a.806.806,0,0,0,.794.9c1.058,0,1.644-1.132,2.08-1.975a4.491,4.491,0,0,1,.6-1.029c.152.033.473.412.682,2.826l.016.178c.11,1.664.182,2.763,1.094,2.763a1.8,1.8,0,0,0,1.336-1.715c0-.2-.135-1.282-.135-1.286-.11-1.457-.135-4.978-.135-5.459,0-1.764.148-2.231.479-2.613a10.835,10.835,0,0,1,6.987-2.74,3.753,3.753,0,0,1,3.945,4.053c0,3.849-3.65,6.748-5.222,7.818-.117.086-.495.307-.858.522-1.206.711-1.206.726-1.206.843,0,.073.033.2.254.2.764,0,9.435-2.22,9.435-8.758,0-2.9-1.946-5.832-6.293-5.832m-8.975,6.329a9.213,9.213,0,0,1-.18,2.555,1.5,1.5,0,0,1-.64-.911,5.161,5.161,0,0,1,.82-1.644m.163-4.559c0,.948,0,.985-1.654,3.413l-.056.08c-.221.324-.3.425-.354.426a5.115,5.115,0,0,1-1.142-1.969c0-.191.076-.23,1.007-.288a1.686,1.686,0,0,0,1.236-.957l.041-.063c.455-.777.871-.89.9-.9a.955.955,0,0,1,.017.252" transform="translate(6444.795 1933.422)" fill="#80868b"/>
        <path id="パス_38369" data-name="パス 38369" d="M553.241,44.239c-2.92,0-4.772,3.406-5.11,4.085l-.047.084a2.671,2.671,0,0,1-.314.516c-.067,0-.073-.18-.073-.234a28.939,28.939,0,0,1,.592-3.32c.021-.08.074-.241.138-.439a8.838,8.838,0,0,0,.435-1.6,2.249,2.249,0,0,0-2.23-1.959c-.234,0-.877.08-.877.335,0,.068.031.123.282.482.078.111.175.249.2.3a2.831,2.831,0,0,1,.332,1.605,18.462,18.462,0,0,1-.4,3.44,24.6,24.6,0,0,0-.49,4.333c0,2.183.622,4.531,1.987,4.531a1.04,1.04,0,0,0,1.119-1.119,2.827,2.827,0,0,0-.251-1.075,5.383,5.383,0,0,1-.345-1.959c0-2.786,2.138-6.517,4.324-6.517,1.417,0,2.049,1.434,2.049,4.649,0,5.408-.777,8.568-5.2,11.907-.653.483-.736.552-.736.713a.236.236,0,0,0,.254.228A6.853,6.853,0,0,0,550.9,62.3c5.3-3.149,5.975-7.714,5.975-11.338,0-6.029-2.076-6.726-3.638-6.726" transform="translate(6454.755 1933.932)" fill="#80868b"/>
        <path id="パス_38370" data-name="パス 38370" d="M573.428,52.67c.044-.014,4.351-1.457,4.351-2.739,0-.734-.817-.794-1.96-.875-.053,0-.24-.037-.389-.066a3.427,3.427,0,0,0-.45-.07c-.252,0-.278.157-.278.225a1.431,1.431,0,0,0,.058.282c.019.07.046.178.05.205,0,.709-1.779,1.265-2.106,1.265-.194,0-.205,0-.205-.642,0-1.1.105-2.472.127-2.58l.008-.036c.021-.316.024-.316.2-.361l.1-.034c.842-.268,2.6-.827,2.6-1.892,0-.486-.482-.659-.931-.659a3.19,3.19,0,0,0-.971.207l-.054.017c-.445.164-.6.218-.672.234v-.014a6.244,6.244,0,0,1,.394-1.705c.021-.051.084-.161.161-.3a3.955,3.955,0,0,0,.529-1.192c0-.719-1.608-1.39-2.338-1.39-.268,0-.823,0-.823.334a.75.75,0,0,0,.122.3c.031.063.064.123.074.153l.006.014a5.2,5.2,0,0,1,.475,1.62,18.634,18.634,0,0,1-.16,2.355c-.016.078-.06.289-.751.289a4.678,4.678,0,0,1-2.549-.706,5.868,5.868,0,0,0-.837-.459c-.184,0-.255.205-.255.335,0,1.1,1.738,2.575,3.765,2.717l.073,0a3.3,3.3,0,0,1,.361.033c-.018.358-.212,3.452-.232,3.587-.06.155-.465.419-2.519.419a10.2,10.2,0,0,1-3.225-.478l-.113-.047a4.062,4.062,0,0,0-.969-.342c-.067,0-.225.026-.225.254a3.057,3.057,0,0,0,.831,1.352,5.5,5.5,0,0,0,3.738,1.149h.1c.177,0,.649-.031,1.151-.066s1.016-.07,1.206-.07c.118,0,.125,0,.125.268.026.709.053,2.515.053,3.081a2.974,2.974,0,0,1-.048.847s-.02.011-.1.011-.354-.019-.63-.037c-.332-.021-.671-.044-.805-.044-3.1,0-5.021,1.155-5.021,3.015a3.282,3.282,0,0,0,3.613,3.069,5.36,5.36,0,0,0,4.736-2.82l.018-.038c.118-.264.148-.309.2-.309a5,5,0,0,1,1.785,1.41l.033.04c.974,1.163,1.1,1.312,1.541,1.312a1.187,1.187,0,0,0,1.066-1.282c0-1.447-1.979-2.906-3.942-3.711-.472-.18-.476-.212-.576-1.038l-.007-.058c-.031-.332-.324-3.385-.324-3.888,0-.155,0-.165.821-.456m-5,6.236c.891,0,2.32.191,2.439.482a1.509,1.509,0,0,1-.587,1.16,4.338,4.338,0,0,1-2.583.965c-.525,0-2.023-.222-2.023-1.209,0-1.381,2.642-1.4,2.754-1.4" transform="translate(6462.5 1933.584)" fill="#80868b"/>
        <path id="パス_38371" data-name="パス 38371" d="M598.358,57.668a8.428,8.428,0,0,0-1.561.78c-.468.249-.91.485-1.073.56a13.259,13.259,0,0,1-5.626,1.4c-3.319,0-4-2.01-4-5.028a65.042,65.042,0,0,1,1.133-9.608c.017-.067.088-.248.164-.441a4.65,4.65,0,0,0,.355-1.112c0-.7-1.266-2.961-2.745-2.961-.254,0-.525.147-.525.416,0,.041,0,.046.177.463.06.144.117.281.133.325a3.279,3.279,0,0,1,.232,1.27c0,.729-.237,2.913-.352,3.858a61.957,61.957,0,0,0-.623,7.545c0,5.341,1.6,7.619,5.345,7.619a11.847,11.847,0,0,0,6.542-2.243,8.7,8.7,0,0,0,2.7-2.561.272.272,0,0,0-.281-.279" transform="translate(6471.09 1933.883)" fill="#80868b"/>
        <path id="パス_38372" data-name="パス 38372" d="M609.156,47.273a.261.261,0,0,0-.02.262c.047.091.163.133.374.133.124,0,.766-.084.912-.11a16.31,16.31,0,0,1,1.932-.107,4.9,4.9,0,0,1,2.184.282,4.233,4.233,0,0,1-.776.806c-.5.453-.633.585-.633.719,0,.067.027.225.281.225a3.257,3.257,0,0,0,.937-.271l.254-.091a4.4,4.4,0,0,1,1.95-.423c.1,0,.4.02.711.038.332.021.676.043.805.043.617,0,.931-.268.931-.8,0-1.253-1.876-2.094-4.669-2.094-2.653,0-4.889.91-5.174,1.384" transform="translate(6481.758 1935.856)" fill="#80868b"/>
        <path id="パス_38373" data-name="パス 38373" d="M617.324,55.408c-.22,0-.817.046-1.45.093s-1.275.1-1.5.1c-1.426,0-4.81-.269-5.41-2.76l0-.013c0-.011-.011-.041-.023-.08-.168-.617-.252-.777-.412-.777-.415,0-.525.874-.525,1.336,0,3.054,2.831,4.668,8.189,4.668,2.084,0,3.449-.074,3.449-1.065,0-1.024-1.379-1.5-2.311-1.5" transform="translate(6481.284 1938.444)" fill="#80868b"/>
        <path id="パス_38374" data-name="パス 38374" d="M613.992,44.989A.9.9,0,0,0,612.953,44c-.073,0-.277.016-.471.03-.164.013-.319.024-.369.024-.409,0-2.293-.512-2.293-.827a2.511,2.511,0,0,1,.137-.349,1.521,1.521,0,0,0,.161-.466,2.548,2.548,0,0,0-2.311-1.58c-.781,0-1.364.4-1.364.768,0,.173.224.455.666.949.057.064.1.115.114.127a3.169,3.169,0,0,1,.3,1.605,8.823,8.823,0,0,1-.248,2.11,6.154,6.154,0,0,1-1.828.208,9.763,9.763,0,0,1-2.374-.294,1.535,1.535,0,0,1-.209-.088,1.413,1.413,0,0,0-.451-.158.256.256,0,0,0-.252.252,2.7,2.7,0,0,0,1.487,1.592,5.388,5.388,0,0,0,2.476.5,2.985,2.985,0,0,1,.821.046.15.15,0,0,1,.01.064,36.76,36.76,0,0,1-3.56,9.914c-.85,1.6-.991,1.869-.991,2.237,0,.616.228,1.336.875,1.336.6,0,1.594,0,3.5-5.734l.057-.174a74.509,74.509,0,0,0,1.925-7.53c.087-.392.107-.4,1.034-.65,1.955-.533,4.2-1.347,4.2-2.93m-2.7.041a6.37,6.37,0,0,1-2.034.947,1.712,1.712,0,0,1,.017-.173c.077-.365.11-.552.144-.741.027-.147.053-.3.1-.533.043-.208.074-.208.157-.208a4.548,4.548,0,0,1,1.617.709" transform="translate(6478.802 1933.705)" fill="#80868b"/>
        <path id="パス_38375" data-name="パス 38375" d="M626.538,52.842a3.118,3.118,0,0,0-3.151,3.125,3.151,3.151,0,1,0,3.151-3.125m.027,5.255a2.132,2.132,0,0,1-2.13-2.13,2.057,2.057,0,0,1,2.076-2.077,2.123,2.123,0,0,1,2.157,2.13,2.1,2.1,0,0,1-2.1,2.077" transform="translate(6487.835 1938.816)" fill="#80868b"/>
      </g>
      <g id="グループ_26340" data-name="グループ 26340" transform="translate(-55.489)">
        <path id="パス_38295" data-name="パス 38295" d="M131.651,21.21c.027-.114.084-.346.157-.646.525-2.147.85-3.509.85-3.667,0-.324-.16-.525-.416-.525s-.269.054-.649.931l-.081.187c-.72,1.7-2.241,2.458-4.93,2.458h-2.79c-.412,0-.83-.09-.83-.261,0-.385,1.317-2.844,5.5-6.336,2.452-2.049,4.06-3.6,4.06-6.368a5.229,5.229,0,0,0-5.563-5.235c-3.516,0-5.968,2.659-5.968,5.047a1.794,1.794,0,0,0,1.689,1.986,1.609,1.609,0,0,0,1.607-1.608,2.208,2.208,0,0,0-.557-1.327l-.037-.054a1.275,1.275,0,0,1-.244-.73c0-1.115,1.376-2.13,2.887-2.13a3.491,3.491,0,0,1,3.459,3.674c0,2.488-.489,3.128-6.927,10.792-1.585,1.862-2.389,3.325-2.389,4.347,0,.345.346.552.93.552h8.477a1.575,1.575,0,0,0,1.766-1.086" transform="translate(6273.761 1917.066)" fill="#80868b"/>
        <path id="パス_38296" data-name="パス 38296" d="M141.1,1.748c-4.31,0-6.239,5.3-6.239,10.544s1.929,10.519,6.239,10.519c2.034,0,3.7-1.2,4.812-3.469a16.655,16.655,0,0,0,1.426-7.05c0-5.229-1.927-10.519-6.237-10.544m0,1.183c3.258,0,3.511,7.165,3.511,9.361s-.254,9.335-3.513,9.335h-.016a2.068,2.068,0,0,1-1.5-.647c-1.8-1.789-2-6.672-2-8.688,0-2.2.252-9.361,3.511-9.361" transform="translate(6279.885 1917.066)" fill="#80868b"/>
        <path id="パス_38297" data-name="パス 38297" d="M149.067,21.744c0,.345.348.552.93.552h8.478a1.576,1.576,0,0,0,1.766-1.086c.029-.121.09-.375.171-.7.528-2.168.834-3.454.834-3.611,0-.324-.16-.525-.416-.525s-.268.054-.649.931l-.08.187c-.721,1.7-2.243,2.458-4.931,2.458h-2.79c-.412,0-.83-.09-.83-.261,0-.385,1.317-2.844,5.5-6.336,2.452-2.047,4.06-3.6,4.06-6.368a5.229,5.229,0,0,0-5.562-5.235c-3.517,0-5.968,2.659-5.968,5.047a1.794,1.794,0,0,0,1.688,1.986,1.61,1.61,0,0,0,1.608-1.608,2.21,2.21,0,0,0-.559-1.327l-.037-.054a1.275,1.275,0,0,1-.244-.73c0-1.115,1.377-2.13,2.888-2.13a3.49,3.49,0,0,1,3.457,3.674c0,2.488-.489,3.128-6.926,10.792-1.587,1.862-2.391,3.325-2.391,4.347" transform="translate(6285.93 1917.066)" fill="#80868b"/>
        <path id="パス_38298" data-name="パス 38298" d="M170.863,18.6c0,1.689,0,2.538-1.7,2.538-.573,0-1.066,0-1.066.6,0,.205.1.55.8.55h6.093c.24,0,.875,0,.875-.55,0-.522-.328-.55-1.125-.622l-.118-.011c-1.3-.1-1.3-.861-1.3-2.536,0-1.222.02-1.454.64-1.454h1.869c.238,0,.794,0,.794-.6,0-.364-.3-.58-.794-.58h-1.923c-.59,0-.613-.1-.613-2.562,0-.583.021-2.2.043-3.771.02-1.5.038-2.96.038-3.462,0-3.72-.135-3.968-.19-4.063a.8.8,0,0,0-.633-.334c-.5,0-.61.187-1.356,1.4l-.1.161c-.111.2-3.232,5.422-5.3,8.873-.932,1.557-1.667,2.784-1.848,3.091l-.029.044c-.475.766-.535.863-.535,1.169,0,.632.478.632.794.632h6.095c.562,0,.586.308.586,1.481m-5.781-2.762c.09-.289,2.553-4.384,3.878-6.584.569-.947,1.017-1.691,1.171-1.955a5.156,5.156,0,0,1,.613-.865.5.5,0,0,1,.066.222c0,.014,0,.3.01.7.016,1.074.044,3.03.044,3.3,0,1.483,0,4.568-.024,4.8a.526.526,0,0,1-.562.473h-4.795c-.241,0-.4-.048-.4-.1" transform="translate(6292.026 1917.066)" fill="#80868b"/>
        <path id="パス_38299" data-name="パス 38299" d="M192.493,23.518c0-.282-.043-1.042-.084-1.778-.039-.676-.078-1.374-.078-1.607V17.75c0-.542.1-.723.667-.723h8.315c1.1,0,1.581-.044,1.581-.469,0-.509-2.623-2.311-2.935-2.311-.351,0-.461.157-1.176,1.175-.416.613-.453.613-1.369.613H193c-.694,0-.694-.336-.694-.694,0-1.021,0-3.144-.027-4.144,0-.828.145-.858.83-.858h4.929c1.17,0,1.608,0,1.608-.5s-2.475-1.96-2.663-1.96c-.248,0-.6.366-1.119.928a4.708,4.708,0,0,1-.456.465,5.3,5.3,0,0,1-1.269.071h-1.029c-.63,0-.83-.036-.83-.75V5.033c.041-.436.257-.518.669-.518h6.066c.969,0,1.608,0,1.608-.523s-2.853-2.1-2.881-2.1c-.232,0-.5.348-.974,1.082-.093.144-.18.278-.211.315-.143.143-.2.2-1.441.2h-7.935c-.311,0-.555,0-.585,0,0,0,0-.011,0-.043a2.21,2.21,0,0,1,.606-.873,2.65,2.65,0,0,1,.234-.182c.5-.372.7-.556.7-.733,0-.562-2.746-1.641-2.773-1.652L185.306,0c-.258,0-.438.808-.438.808-1.243,4.271-4.963,8.025-5,8.064-.91.908-.91,1-.91,1.078a.225.225,0,0,0,.254.227c1.066,0,4.428-3.117,5.771-4.738l.036-.044c.719-.845.747-.88,1.505-.88h2.79c.642,0,.667,0,.667,4.134,0,.431-.034.7-.694.7h-3.467a3.066,3.066,0,0,1-1.225-.21,4.188,4.188,0,0,0-1.376-.386c-.252,0-.252.173-.252.632,0,.03.009.354.024.825.038,1.253.111,3.588.111,4.157,0,1.671-.023,1.671-.614,1.671-.318,0-1.188-.051-2.03-.1-.8-.047-1.55-.091-1.815-.091-.221,0-.254.125-.254.2,0,.114.033.148.168.282l.51.617a.428.428,0,0,0,.361.221c.043,0,.171-.014.3-.027.114-.013.23-.027.279-.027.942-.083,2.727-.083,3.4-.083h5.851c.388,0,.667,0,.667.669,0,.687-.056,3.105-.081,3.892-.01.143-.033.442-.061.791-.057.719-.128,1.612-.128,1.872a1.051,1.051,0,0,0,.984.984,2.541,2.541,0,0,0,1.525-.68c.3-.235.326-.579.326-1.036m-2.456-10.561c0,3.078-.014,3.078-.776,3.078h-3.169c-.747,0-.777,0-.777-3.4,0-2.292.068-2.292.723-2.292h3.251c.748,0,.748,0,.748,2.619" transform="translate(6298.412 1916.322)" fill="#80868b"/>
        <path id="パス_38300" data-name="パス 38300" d="M214.049,21.746c0-.522-.329-.55-1.125-.622l-.12-.011c-1.3-.1-1.3-.861-1.3-2.536,0-1.223.02-1.454.64-1.454h1.869c.238,0,.8,0,.8-.6,0-.364-.3-.58-.8-.58h-1.923c-.59,0-.613-.1-.613-2.563,0-.582.021-2.2.043-3.769.02-1.5.038-2.96.038-3.462,0-3.72-.135-3.968-.19-4.063a.8.8,0,0,0-.632-.334c-.5,0-.612.187-1.357,1.4l-.1.161c-.113.2-3.233,5.422-5.3,8.872-.932,1.558-1.665,2.786-1.848,3.091l-.029.046c-.475.766-.535.863-.535,1.169,0,.632.478.632.794.632h6.095c.562,0,.586.308.586,1.481,0,1.689,0,2.538-1.7,2.538-.572,0-1.065,0-1.065.6,0,.205.1.55.794.55h6.095c.24,0,.875,0,.875-.55m-5-11.077c0,1.483,0,4.568-.024,4.8a.526.526,0,0,1-.562.473h-4.793c-.242,0-.4-.048-.4-.1.091-.289,2.553-4.384,3.878-6.584.569-.947,1.016-1.691,1.17-1.955a5.058,5.058,0,0,1,.614-.865.506.506,0,0,1,.064.221c0,.016,0,.3.01.706.016,1.074.044,3.03.044,3.3" transform="translate(6308.28 1917.066)" fill="#80868b"/>
        <path id="パス_38301" data-name="パス 38301" d="M231.35,24.184c.161.3.277.509.723.509a4.277,4.277,0,0,0,2.024-1.017,2.324,2.324,0,0,0,.557-1.755c0-.632-.1-2.874-.153-4.216-.017-.388-.03-.7-.037-.854-.073-2.866-.108-6.018-.108-9.638,0-3.29,0-3.634.125-4.033.121-.294.208-.382.724-.738a.518.518,0,0,0,.18-.348c0-.47-1.969-1.9-2.284-1.9-.221,0-.289.086-.833.747l-.123.15c-.237.308-.4.4-1,.4h-7.719a2.487,2.487,0,0,1-1.4-.364c-1.709-.854-1.845-.91-2.016-.91-.067,0-.225.027-.225.281,0,.105.168.991.191,1.081a57.34,57.34,0,0,1,.351,7.126c0,4.264,0,10.708-2.894,14.914l-.063.076c-.428.519-.565.726-.565.854a.309.309,0,0,0,.308.335c.282,0,4.418-2.532,5.181-9.093l.006-.053c.151-1.255.151-1.255.744-1.255h8.26c.513,0,.721.066.721.723,0,.46-.007,1.724-.014,2.944-.006,1.145-.011,2.254-.011,2.635,0,.589-.06.694-.8.694-.181,0-1.059-.071-1.832-.134-.734-.058-1.367-.11-1.5-.11-.281,0-.469.124-.469.308,0,.318.314.388.787.493a4.929,4.929,0,0,1,3.158,2.148M232,6.99c-.114.248-.372.268-.627.268h-8.125c-.666,0-.7-.251-.7-.776V3.153c0-.506.17-.669.7-.669h8.125c.669,0,.694,0,.694,1.969A22.672,22.672,0,0,1,232,6.99m-9.422,1.657c.054-.324.354-.368.67-.368h8.125c.694,0,.694,0,.694,2.673,0,2.536,0,2.536-.694,2.536h-8.179c-.671,0-.694-.137-.694-1.371,0-1.256.03-3.276.078-3.47" transform="translate(6314.769 1916.403)" fill="#80868b"/>
        <path id="パス_38302" data-name="パス 38302" d="M247.185,21.773c0-.632-.557-.632-.8-.632-1.973,0-2.267-.321-2.431-1-.074-.389-.1-10.291-.1-11.91,0-.416.014-1.538.027-2.632.013-1.036.026-2.049.026-2.405,0-1.253,0-1.446-.442-1.446a3.2,3.2,0,0,0-.935.392,4.322,4.322,0,0,1-.44.212,12.452,12.452,0,0,1-3.021.669c-.83.054-1.246.08-1.246.579s.4.5,1.065.5c2.332,0,2.509.026,2.509,1.128,0,.734.014,2.75.029,4.716.013,1.87.027,3.7.027,4.328,0,5.276-.137,6.018-.178,6.118-.277.644-.831.754-2.359.754-1.017,0-1.525,0-1.525.577,0,.1.037.577.767.577h8.206c.247,0,.823,0,.823-.523" transform="translate(6323.526 1917.066)" fill="#80868b"/>
        <path id="パス_38303" data-name="パス 38303" d="M265.348,1.483c-.358,0-.506.207-.905.764-.141.2-.281.21-.855.21H255.3a2.314,2.314,0,0,1-1.29-.364c-1.074-.537-1.195-.585-1.337-.585s-.308.063-.308.362c0,.19.07.821.145,1.477l.017.16c.217,2.73.217,9.073.217,12.122,0,.774-.093,4.07-.138,5.656-.014.525-.024.873-.024.9,0,.372,0,1.146,1.094,1.146,1.322,0,1.39-.88,1.444-1.592.028-.3.232-.439.64-.439H264.1c.393,0,.4.046.423.518.068.858.567,1.163,1.011,1.163a1.5,1.5,0,0,0,1.5-1.635c0-.9-.078-4.049-.141-6.577-.034-1.43-.066-2.675-.076-3.229-.009-.74-.017-1.3-.024-1.8-.017-1.1-.03-1.969-.03-3.965,0-1.314.144-1.424.439-1.652l.074-.066c.426-.375.57-.5.57-.747,0-.549-2.111-1.823-2.5-1.823m-9.75,10.69h8.287c.576,0,.64.282.64.884,0,3.017-.007,6.6-.027,6.785-.038.4-.325.436-.64.436H255.7c-.567,0-.667-.16-.667-1.074,0-.5-.021-1.89-.041-3.233-.02-1.293-.04-2.558-.04-3,0-.555.093-.8.642-.8m-.642-1.852c0-3.115.016-6.347.053-6.558a.472.472,0,0,1,.48-.285h8.369c.2,0,.431.021.536.242.05.279.131,6.377.131,6.736s0,.723-.64.723H255.57c-.555,0-.614-.275-.614-.858" transform="translate(6329.901 1916.954)" fill="#80868b"/>
        <path id="パス_38304" data-name="パス 38304" d="M271.227,14.174a7.528,7.528,0,0,1,2.793,2.846c.9,1.638,1.039,1.889,1.7,1.889a1.432,1.432,0,0,0,1.2-1.443c0-2.656-4.77-4.073-5.7-4.073-.291,0-.442.168-.442.335,0,.118.105.225.446.446" transform="translate(6337.741 1922.023)" fill="#80868b"/>
        <path id="パス_38305" data-name="パス 38305" d="M289.362,17.664a9.625,9.625,0,0,0,1.47-.438,64.639,64.639,0,0,1,12.587-1.4,13.632,13.632,0,0,1,3.459.376c.016,0,1.708.382,1.822.382.362,0,.8-.151.8-.875,0-1.374-2.291-2.34-3.53-2.34a16.417,16.417,0,0,0-1.846.3,17.49,17.49,0,0,1-1.946.321c-.349,0-.452-.09-.452-.4a25.75,25.75,0,0,1,1.151-6.41,3.589,3.589,0,0,1,.248-.314c.4-.48.579-.723.579-.888,0-.546-1.746-1.879-2.663-1.879a2.228,2.228,0,0,0-.7.284,4.293,4.293,0,0,1-.4.182l-.011,0a40.96,40.96,0,0,1-6.746,1.371c-.114,0-.465-.026-.8-.051-.389-.029-.758-.057-.9-.057-.23,0-.389.127-.389.308a3.04,3.04,0,0,0,2.042,2.284,3.617,3.617,0,0,0,.957-.361c.078-.037.144-.066.178-.08.788-.294,5.2-1.427,5.554-1.427.167,0,.4,0,.4.443-.006.1-.224,1.692-.418,3.1-.172,1.26-.344,2.511-.4,2.933-.13.884-.178,1.215-.878,1.309-.221.04-7.915.647-8.507.647a7.826,7.826,0,0,1-2.094-.318c-.04-.011-.116-.041-.21-.077a3.9,3.9,0,0,0-.892-.282.275.275,0,0,0-.307.308c0,1.811,2.5,3.042,2.853,3.042" transform="translate(6344.436 1918.069)" fill="#80868b"/>
        <path id="パス_38306" data-name="パス 38306" d="M312.683,14.484a4.686,4.686,0,0,0,.5-.108c.614-.138,1.642-.369,1.9-.406,1.45-.237,7.184-.867,9.456-.867a20.064,20.064,0,0,1,3.037.217l.191.031a12.83,12.83,0,0,0,1.322.187c.462,0,1.662-.167,1.662-.931,0-1.47-3.487-1.986-4.234-1.986-.483,0-2.2.292-3.456.506-.456.077-.834.143-1.034.173a53.171,53.171,0,0,1-7.644.595,8.827,8.827,0,0,1-3.721-.636l-.105-.034a1.247,1.247,0,0,0-.345-.061.356.356,0,0,0-.388.388,4.547,4.547,0,0,0,.855,1.892,4.788,4.788,0,0,0,2,1.042" transform="translate(6354.363 1920.843)" fill="#80868b"/>
        <path id="パス_38307" data-name="パス 38307" d="M313.362,7.005a2.2,2.2,0,0,0,1.58.9c.086,0,.7-.077,1.86-.222,1.682-.212,3.989-.5,4.648-.536,3.061-.141,4.092-.187,4.092-1.011,0-.8-1.193-1.5-2.555-1.5-.232,0-1.044.144-1.7.261-.3.056-.559.1-.684.118-1.139.2-4.967.731-5.8.731-.148,0-.607-.026-1.011-.048-.317-.019-.6-.033-.669-.033-.021,0-.525,0-.525.279,0,.07,0,.091.622.884l.137.177" transform="translate(6355.543 1918.296)" fill="#80868b"/>
        <path id="パス_38308" data-name="パス 38308" d="M343.577,3.723a6.1,6.1,0,0,1,2.114,1.742c.412.63.8,1.225,1.474,1.225a.935.935,0,0,0,.848-1.011c0-1.947-2.894-2.744-3.638-2.772h-.145c-.425,0-.808,0-.972.16a.281.281,0,0,0-.084.2c0,.06.03.267.4.455" transform="translate(6368.556 1917.559)" fill="#80868b"/>
        <path id="パス_38309" data-name="パス 38309" d="M333.172,12.412a1.914,1.914,0,0,0,1.474-.9,5.493,5.493,0,0,1,1.2-1.357c3.777-3.51,3.809-3.51,4.207-3.51a1.158,1.158,0,0,1,.706.359c.168.185.687.828,1.146,1.4.344.426.663.823.8.981,6.761,8.178,8.876,8.178,9.673,8.178.592,0,1.282-.249,1.282-.957a1.487,1.487,0,0,0-.646-1.112c-.258-.218-1.346-.89-2.14-1.38-.319-.2-.586-.361-.72-.446A43.33,43.33,0,0,1,342.93,6.9l0,0c-.78-.984-1.708-2.032-2.849-2.032-.807,0-1.279.382-2.556,1.413C334.192,8.969,332.829,9.5,331.6,9.5c-.057,0-.245-.029-.4-.053a4.146,4.146,0,0,0-.443-.056c-.078,0-.334.033-.334.469a1.275,1.275,0,0,0,.327.9l.04.047c1.255,1.283,1.744,1.614,2.378,1.614" transform="translate(6363.131 1918.392)" fill="#80868b"/>
        <path id="パス_38310" data-name="パス 38310" d="M341.932,5.29l.071.056a7.609,7.609,0,0,1,1.813,1.679c.746,1.011,1.032,1.3,1.5,1.3.595,0,.957-.778.957-1.2,0-1.061-1.635-2.663-4.1-2.663-.214,0-.632.108-.632.361,0,.151.154.282.391.465" transform="translate(6367.861 1918.223)" fill="#80868b"/>
        <path id="パス_38311" data-name="パス 38311" d="M356.488,10.813c.307-.081.6-.155.719-.177.637-.134,6.9-.486,10.56-.486.262,0,1.026.013,1.819.027.85.013,1.731.027,2.054.027,1.158,0,2.392-.074,2.392-.984,0-.346-.375-1.337-2.04-1.337-.067,0-.172.006-.282.013s-.231.016-.314.016h-.007c-3.929.215-13.393.567-14.294.567a15.028,15.028,0,0,1-3.276-.241,3.453,3.453,0,0,1-.336-.127,2.379,2.379,0,0,0-.612-.2c-.207,0-.362.2-.362.469,0,.984,1.289,2.746,2.555,2.746a9.4,9.4,0,0,0,1.424-.314" transform="translate(6372.53 1919.678)" fill="#80868b"/>
        <path id="パス_38312" data-name="パス 38312" d="M377.973,4.616a.257.257,0,0,0-.279.281,1.688,1.688,0,0,0,.091.455l.023.077a5.787,5.787,0,0,1,.455,2.285c0,.794-.235,3.71-3.246,7.845-.047.058-.127.151-.221.261-.606.706-.894,1.075-.894,1.265a.27.27,0,0,0,.279.279c.56,0,3.477-1.621,5.142-5.229h0c.392-.877,1.855-4.921,1.855-5.07,0-1.474-2.937-2.448-3.206-2.448" transform="translate(6381.636 1918.287)" fill="#80868b"/>
        <path id="パス_38313" data-name="パス 38313" d="M392.1,6.551c-.1,0-.14,0-2.234,2.177-.334.346-.61.634-.74.764-2.672,2.7-5.093,4.373-5.8,4.373-.267,0-.371-.211-.371-.75,0-.882.111-4.166.215-4.876.019-.1.07-.309.131-.563a10.5,10.5,0,0,0,.305-1.494c0-1.6-3.094-2.04-3.125-2.04a.288.288,0,0,0-.307.279,3.953,3.953,0,0,0,.325.938l.041.107a16.708,16.708,0,0,1,.5,5.023c0,.776-.031,2.827-.107,3.3,0,.009-.164.835-.164,1a3.166,3.166,0,0,0,1.185,1.856,1.942,1.942,0,0,0,1.082.518.653.653,0,0,0,.118-.01c.24-.033.506-.242.988-.784a15.428,15.428,0,0,1,1.851-1.715c4.891-4.3,6.36-7.634,6.36-7.854a.26.26,0,0,0-.254-.254" transform="translate(6384.305 1918.085)" fill="#80868b"/>
        <path id="パス_38322" data-name="パス 38322" d="M494.43,16.248c-.607-.267-.673-.382-.781-1.374-.08-.724-.269-3.788-.269-4.371,0-1.1,0-1.1.915-1.491,1.015-.439,2.9-1.256,2.9-2.626,0-1.263-1.011-1.307-2.181-1.362h-.05c-.014,0-1.426-.02-1.426-.721a1.035,1.035,0,0,1,.141-.493c.268-.429.319-.519.319-.753C494,1.89,492.03,1.5,491.5,1.5c-.6,0-1.066.326-1.066.606,0,.167.2.384.656.8.1.093.185.17.217.208.482.583.482,1.29.482,3,0,1.642,0,1.642-1.344,1.642a8.034,8.034,0,0,1-2.968-.526c-.029-.014-.086-.047-.155-.09a1.864,1.864,0,0,0-.641-.305c-.167,0-.281.134-.281.335,0,.259.9,2.555,4.154,2.555a11.291,11.291,0,0,1,1.168.036.85.85,0,0,1,.15.529c.027.778.108,3.627.108,3.787,0,1.724-.02,1.724-.535,1.724-5.284.077-5.7,2.679-5.7,3.476,0,1.6,1.551,2.853,3.531,2.853a4.637,4.637,0,0,0,4.166-2.655l0-.006c.023-.054.06-.171.1-.315a3.617,3.617,0,0,1,.342-.885c.346-.173,1.634.754,2.5,1.8l.024.03c.639.8.754.944,1.145.944a1.213,1.213,0,0,0,1.121-1.228c0-1.568-2.431-2.79-4.258-3.571m-1.051-10a.7.7,0,0,1,.158-.533.427.427,0,0,1,.238-.078c.352,0,1.129.335,1.129.694,0,.482-.9.8-1.263.8-.111,0-.262,0-.262-.884M489.9,17.5c1.816,0,1.967.252,1.967.532,0,.858-1.607,2.076-3.105,2.076-.8,0-1.642-.366-1.642-1.045s1.309-1.563,2.78-1.563" transform="translate(6542.041 1916.961)" fill="#80868b"/>
        <path id="パス_38323" data-name="パス 38323" d="M481.595,9.654A20.8,20.8,0,0,0,480.886,15c0,4.414,1.451,7.05,2.854,7.05.642,0,1.038-.48,1.038-1.255a12.136,12.136,0,0,0-.185-1.273,13.069,13.069,0,0,1-.194-1.3c0-.372.185-1.524.365-2.636.194-1.209.395-2.461.395-2.917,0-.338-.16-.388-.254-.388-.372,0-1.24,2.781-1.249,2.809l-.046.143c-.411,1.253-.453,1.354-.575,1.354-.346,0-.5-.907-.5-1.751a18.17,18.17,0,0,1,.967-5.4c.071-.22.244-.717.445-1.3.672-1.937.971-2.827.971-2.973,0-.5-1.363-3.34-3.015-3.34-.218,0-.632.076-.632.361a2.088,2.088,0,0,0,.385.773c.064.1.121.192.147.247a3.668,3.668,0,0,1,.6,2.177,13.006,13.006,0,0,1-.585,3.293Z" transform="translate(6539.971 1917.099)" fill="#80868b"/>
        <path id="パス_38324" data-name="パス 38324" d="M502.2,14.174a7.528,7.528,0,0,1,2.793,2.846c.9,1.638,1.039,1.889,1.7,1.889a1.432,1.432,0,0,0,1.2-1.443c0-2.656-4.77-4.073-5.7-4.073-.291,0-.442.168-.442.335,0,.118.105.225.446.446" transform="translate(6548.852 1922.023)" fill="#80868b"/>
        <g id="グループ_26339" data-name="グループ 26339" transform="translate(388.375 -57.027)">
          <path id="パス_38331-2" data-name="パス 38331" d="M139.434,49.3c.91.144,1.821.284,2.12.284.392,0,.85-.18.85-.686a1.162,1.162,0,0,0-.7-.961l-.048-.031a5.662,5.662,0,0,0-2.7-.941,11.1,11.1,0,0,0-1.391.259c-.311.068-.587.13-.71.148-.1.011-.249.033-.422.057a18.1,18.1,0,0,1-2.188.212c-.684,0-.912-.12-.912-.83a5.794,5.794,0,0,1,.234-2.032c.014-.036.087-.151.153-.255a1.821,1.821,0,0,0,.345-.693c0-.274-.7-1.553-2.69-1.553-.607,0-1.065.178-1.065.415,0,.12.1.249.329.516a1.859,1.859,0,0,1,.2.255,9.819,9.819,0,0,1,.552,3.4c0,.793-.174.941-1.159.992-.312.011-.937.041-1.624.074-1.1.054-2.352.115-2.732.115a6.961,6.961,0,0,1-2.359-.261l-.107-.041a1.2,1.2,0,0,0-.459-.131c-.153,0-.335.067-.335.389,0,.6,1.386,2.528,2.1,2.528a7.743,7.743,0,0,0,1.119-.3c1.587-.4,4.782-.858,4.974-.863.545,0,.642.247.642,1.642,0,1.456,0,4.163-.135,5.426-.066.532-.23.606-.4.606a4.515,4.515,0,0,1-.592-.17,3.145,3.145,0,0,0-.681-.182.241.241,0,0,0-.252.252.485.485,0,0,0,.1.265c.023.034.048.078.084.14a7.663,7.663,0,0,1,1,1.925c.563,1.557.65,1.8,1.343,1.8.59,0,1.581-.3,1.581-2.338,0-.567-.031-2.2-.066-3.925-.034-1.791-.071-3.641-.071-4.308,0-1.4.091-1.4,2.428-1.4.242,0,2.19.027,3.2.134l.446.07" transform="translate(6274.669 1934.32)" fill="#80868b"/>
          <path id="パス_38332-2" data-name="パス 38332" d="M132.655,49.119c-.311,0-.334.214-.334.279,0,.154.22.4,1.075,1.193l.057.053a9.518,9.518,0,0,1,2.154,3.278l.031.076c.47,1.125.756,1.8,1.59,1.8h.043a1.158,1.158,0,0,0,.833-.329,1.883,1.883,0,0,0,.492-1.306c0-2.424-4.454-5.047-5.941-5.047" transform="translate(6278.802 1937.231)" fill="#80868b"/>
          <path id="パス_38333-2" data-name="パス 38333" d="M126.964,49.822c-.163,0-.441.244-.637.442l-.054.047a19.992,19.992,0,0,1-2.58,2.023c-.76.472-1.1.786-1.1,1.4a1.226,1.226,0,0,0,.875,1.136,1.478,1.478,0,0,0,.569.118c1.852,0,3.2-3.293,3.2-4.695,0-.174-.058-.469-.279-.469" transform="translate(6274.662 1937.53)" fill="#80868b"/>
          <path id="パス_38334-2" data-name="パス 38334" d="M163.278,47.884c-.067,0-.173.006-.282.013s-.231.016-.314.016h-.007c-3.929.215-13.393.567-14.294.567a15.122,15.122,0,0,1-3.276-.241c-.043-.009-.207-.074-.336-.127a2.319,2.319,0,0,0-.612-.2c-.207,0-.362.2-.362.469,0,.984,1.289,2.744,2.555,2.744a9.329,9.329,0,0,0,1.424-.312c.307-.081.6-.157.719-.177.637-.134,6.9-.486,10.56-.486.262,0,1.026.013,1.819.026.85.014,1.731.029,2.054.029,1.158,0,2.392-.076,2.392-.985,0-.346-.375-1.336-2.04-1.336" transform="translate(6283.686 1936.705)" fill="#80868b"/>
          <path id="パス_38335-2" data-name="パス 38335" d="M169.26,44.616a.257.257,0,0,0-.279.281,1.692,1.692,0,0,0,.088.443l.026.088a5.788,5.788,0,0,1,.455,2.285c0,.794-.235,3.71-3.246,7.845-.047.058-.127.151-.221.261-.606.706-.894,1.075-.894,1.265a.27.27,0,0,0,.279.279c.56,0,3.477-1.621,5.142-5.229h0c.392-.877,1.855-4.921,1.855-5.07,0-1.474-2.937-2.448-3.206-2.448" transform="translate(6292.792 1935.314)" fill="#80868b"/>
          <path id="パス_38336-2" data-name="パス 38336" d="M183.383,46.551c-.1,0-.14,0-2.234,2.177-.334.346-.61.634-.74.764-2.672,2.7-5.092,4.373-5.8,4.373-.267,0-.371-.211-.371-.75,0-.881.11-4.164.215-4.874.017-.1.068-.305.128-.556a10.55,10.55,0,0,0,.308-1.5c0-1.6-3.094-2.04-3.125-2.04a.288.288,0,0,0-.307.279,3.95,3.95,0,0,0,.325.938l.041.107a16.655,16.655,0,0,1,.5,5.023c0,.776-.031,2.827-.107,3.3,0,.009-.164.835-.164,1a3.166,3.166,0,0,0,1.185,1.856,1.942,1.942,0,0,0,1.082.518.653.653,0,0,0,.118-.01c.239-.033.506-.242.988-.784a15.415,15.415,0,0,1,1.85-1.715c4.891-4.3,6.36-7.634,6.36-7.854a.26.26,0,0,0-.254-.254" transform="translate(6295.461 1935.112)" fill="#80868b"/>
          <path id="パス_38337-2" data-name="パス 38337" d="M202.661,46.079a8.356,8.356,0,0,0-1.316.3c-.317.086-.617.168-.734.188-1.912.271-8.91,1.026-10.626,1.026a8.21,8.21,0,0,1-1.64-.173,2.148,2.148,0,0,0-.473-.153c-.077,0-.332.029-.332.416a2.526,2.526,0,0,0,2.283,2.2,11.535,11.535,0,0,0,1.729-.419l.255-.073a33.664,33.664,0,0,1,4.271-.807c.359,0,.508.192.508.666a18.086,18.086,0,0,1-5.261,10.1c-1.484,1.3-1.484,1.411-1.484,1.466a.279.279,0,0,0,.308.279c.322,0,4.645-1.688,7.3-7.037.134-.254.495-1.092.814-1.833.23-.537.49-1.145.537-1.22a2.815,2.815,0,0,1,.224-.227c.329-.314.529-.518.529-.689a3.5,3.5,0,0,0-.7-1.2c-.091-.13-.16-.228-.175-.257-.033-.078.016-.163.111-.218.191-.071,1.933-.071,2.679-.071.513,0,1.165.064,1.688.114l.221.023c.093.007.319.041.583.08.5.073,1.122.163,1.327.163a.827.827,0,0,0,.928-.794c0-1.285-3.333-1.852-3.557-1.852" transform="translate(6302.307 1935.937)" fill="#80868b"/>
          <path id="パス_38338-2" data-name="パス 38338" d="M201.263,41.6c-.493,0-1.148.043-1.148.416,0,.267.314.391.412.431a6.3,6.3,0,0,1,2.217,1.607c.453.612.845,1.141,1.5,1.141a.907.907,0,0,0,.848-.957c0-1.635-2.23-2.637-3.828-2.637" transform="translate(6307.66 1934.029)" fill="#80868b"/>
          <path id="パス_38339-2" data-name="パス 38339" d="M199.238,43.42c-.247,0-.6.128-.6.362,0,.21.391.513.435.549a7.591,7.591,0,0,1,1.813,1.65c.744,1.011,1.032,1.3,1.5,1.3.585,0,.957-.694.957-1.173,0-1.072-1.634-2.692-4.1-2.692" transform="translate(6307.03 1934.805)" fill="#80868b"/>
          <path id="パス_38340-2" data-name="パス 38340" d="M195.36,42.963a13.4,13.4,0,0,1-3.242.547c-.15,0-.91-.128-1.383-.215l-.041-.007-.038.014c-.05.021-.13.08-.1.249.088.46.942,1.982,2.183,1.982.051,0,.249-.034,1.143-.215l.157-.031c.354-.07,2.186-.429,3.588-.593,1.592-.163,2.188-.224,2.188-1.148,0-.67-.6-1.038-1.688-1.038a11.353,11.353,0,0,0-2.2.328Z" transform="translate(6303.589 1934.417)" fill="#80868b"/>
          <path id="パス_38341-2" data-name="パス 38341" d="M216.214,44.332a.437.437,0,0,0-.443.415c0,.06.028.133.2.436l.036.067a1.29,1.29,0,0,1,.173.58c0,.54-1.935,4.653-7.421,9.177-.756.6-1.138.987-1.138,1.142a.3.3,0,0,0,.307.308,18.862,18.862,0,0,0,6.162-4.1l.111-.1a3.247,3.247,0,0,1,.362-.3c.041,0,.4.078.4,2.834a33.818,33.818,0,0,1-.3,4.633,5.755,5.755,0,0,0-.137,1c0,.624.756,1.742,1.5,1.742.338,0,.741-.2.741-1.175,0-.16-.041-.582-.086-1.028-.038-.392-.078-.8-.078-.93-.053-1.025-.053-1.895-.053-2.592a27.232,27.232,0,0,1,.106-3.876c.01-.06.066-.227.115-.374a2.5,2.5,0,0,0,.157-.572c0-.371-.409-.62-.843-.885-.084-.051-.17-.1-.251-.155l-.006,0a.156.156,0,0,1-.023-.034l.391-.5c.957-1.223,1.155-1.476,1.682-2.268a2.574,2.574,0,0,1,.684-.73l.121-.1a.774.774,0,0,0,.275-.6c0-1.059-2.454-2.013-2.744-2.013" transform="translate(6310.855 1935.193)" fill="#80868b"/>
          <path id="パス_38342-2" data-name="パス 38342" d="M242.845,45.054c-.088,0-.113,0-1.306,1.19l-.041.043c-4.524,4.468-11.642,9.193-12.9,9.193a4.374,4.374,0,0,1-1.776-.606c-.034-.019-.124-.083-.23-.158-.4-.284-.547-.372-.647-.372-.277,0-.416.532-.416,1.58,0,1.219,2.126,2.961,3.611,2.961.486,0,.577-.111,1.086-.729a17.265,17.265,0,0,1,2.629-2.2h0c6.977-5.152,10.268-10.273,10.268-10.626a.311.311,0,0,0-.279-.279" transform="translate(6318.478 1935.501)" fill="#80868b"/>
          <path id="パス_38343-2" data-name="パス 38343" d="M226.46,43.116c-.429,0-.741.163-.741.388s.227.325.318.369l.1.058a5.84,5.84,0,0,1,2.315,2.117l.053.08c.874,1.326,1.169,1.772,1.965,1.772a1.337,1.337,0,0,0,1.309-1.5c0-1.751-2.485-3.286-5.318-3.286" transform="translate(6318.559 1934.676)" fill="#80868b"/>
          <path id="パス_38344-2" data-name="パス 38344" d="M254.9,41.786c-.285,0-.6.165-.6.388,0,.181.259.374.468.5l.034.024a8.321,8.321,0,0,1,1.861,1.55c.857,1.022,1.1,1.216,1.547,1.216.576,0,.93-.7.93-1.2s-.753-2.474-4.234-2.474" transform="translate(6330.721 1934.109)" fill="#80868b"/>
          <path id="パス_38345-2" data-name="パス 38345" d="M261.2,45.882c-.141-.086-.854-.469-1.032-.56-1.111-.65-1.255-.733-1.534-.733a3.963,3.963,0,0,0-1.175.378l-.155.066a15.116,15.116,0,0,1-4.06,1.072c-.279,0-.288-.066-.288-.073,0-.078.053-.158.185-.342.57-.711.844-1.071.844-1.444a2.629,2.629,0,0,0-2.665-1.661c-.221,0-.74,0-.74.416a3.977,3.977,0,0,0,.131.614c.029.111.053.208.06.244.2,1.52-2.214,5.14-4.509,7.433-.1.1-.342.314-.624.563-1.353,1.193-1.557,1.42-1.557,1.571a.307.307,0,0,0,.334.308,8.155,8.155,0,0,0,2.685-1.463,20.558,20.558,0,0,0,3.708-3.543c1.142-1.306,1.159-1.306,1.6-1.306.078,0,.3.021.513.04.234.021.453.041.542.041.522,0,2.844-.5,3.962-.737l.48-.1a.148.148,0,0,1,.153.153c0,.652-4.931,9.871-13.331,14.5-.882.485-1,.546-1,.751a.388.388,0,0,0,.388.388,18.3,18.3,0,0,0,5.47-2.625,33.055,33.055,0,0,0,9.737-10.225c.947-1.46,1.041-1.6,1.307-1.771l.054-.031c.867-.526,1.1-.667,1.1-1.121a1.1,1.1,0,0,0-.585-.8" transform="translate(6326.225 1934.449)" fill="#80868b"/>
          <path id="パス_38346-2" data-name="パス 38346" d="M259.306,40.742a5.119,5.119,0,0,0-2.945-.59c-.134,0-1.121.11-1.121.523,0,.147.12.336.46.439a6.229,6.229,0,0,1,2.424,1.287c.579.6.9.937,1.54.937a.876.876,0,0,0,.823-.93c0-.292,0-.977-1.18-1.667" transform="translate(6331.125 1933.414)" fill="#80868b"/>
          <path id="パス_38347-2" data-name="パス 38347" d="M277.11,52.6l-.1-.057c-1.118-.612-1.118-.643-1.118-.794a.77.77,0,0,1,.191-.459c.091-.13.255-.371.463-.677.776-1.133,2.22-3.245,2.642-3.752a4.324,4.324,0,0,1,.332-.294c.6-.506.868-.766.868-.965,0-.757-1.736-2.2-2.448-2.2a3.276,3.276,0,0,0-1.086.57c-.2.128-.385.248-.458.281a37.744,37.744,0,0,1-7.366.991,4.668,4.668,0,0,1-1.389-.264c-.006,0-.68-.2-.751-.2-.14,0-.307.063-.307.361a5.482,5.482,0,0,0,.693,1.674,5.612,5.612,0,0,0,1.943,1.017,2.967,2.967,0,0,0,.844-.332,4.611,4.611,0,0,1,.425-.191c.294-.1,5.73-1.349,5.966-1.373.135,0,.168.054.178.093.01.58-3.2,7.392-10.148,12.425-.013.01-1.31.885-1.31,1.125a.3.3,0,0,0,.335.305,6.649,6.649,0,0,0,1.744-.637,27,27,0,0,0,7.128-5.673l.147-.157c.6-.686.647-.71.84-.71.525,0,2.854,1.989,4.722,5.264.949,1.682,1.1,1.942,1.8,1.942a1.317,1.317,0,0,0,1.256-1.337c0-2.488-4.549-5.112-6.043-5.974" transform="translate(6335.355 1934.797)" fill="#80868b"/>
        </g>
      </g>
    </g>
  </g>
</svg>
