<svg xmlns="http://www.w3.org/2000/svg" width="213.696" height="131.71" viewBox="0 0 213.696 131.71">
  <g id="グループ_26124" data-name="グループ 26124" transform="translate(-12635.677 -1095.606)">
    <path id="パス_29594" data-name="パス 29594" d="M1.232,25.33C1.733,28.8,3.6,33.5,8.618,33.5c3.241,0,5.473-2.282,5.473-5.887,0-2.6-1.593-4.332-4.239-6.43l-1.276-1c-2.1-1.687-5.11-4.195-5.11-7.981,0-4.743,3.784-8.163,9.257-8.163a13.475,13.475,0,0,1,4.335.774c.865.317,1.64.593,2.006.73-.182,1.915-.091,4.332-.138,6.386l-1.32.138c-.367-3.42-1.552-6.523-5.473-6.523a5.092,5.092,0,0,0-5.11,5.336c0,2.646,1.869,4.285,4.241,6.113l1.37,1c3.145,2.37,5.289,4.743,5.289,8.345,0,5.336-4.7,8.714-9.943,8.714-3.649,0-6.843-1.689-7.846-2.83C.094,31.167.094,28.706,0,25.468ZM32.2,14.43a17.247,17.247,0,0,1,4.241-.548c4.7,0,6.565,2.238,6.565,6.295a14.713,14.713,0,0,1-3.875,9.439,18.014,18.014,0,0,1-8.483,5.294,7.437,7.437,0,0,1-2.69-.457L26.68,40.885c-.548,2.6-.273,3.009,1.965,3.235l1.091.091L29.6,45.4l-10.533.548.182-1.188c2.872-.548,3.373-.912,4.013-3.737,1.689-7.987,3.42-15.968,5.11-23.858a21.994,21.994,0,0,0-3.7,1.645l-.32-1.138a21.933,21.933,0,0,1,4.379-2.282l.5-2.053a13.822,13.822,0,0,1,3.332-2.643l.455.226ZM28.687,31.352a4.1,4.1,0,0,0,2.83,1.552c3.235,0,7.662-6.16,7.662-12,0-4.06-2.147-5.063-4.79-5.063a11,11,0,0,0-2.6.317Zm38.5-1.188c-2.467,3.056-5.52,4.746-6.661,4.746-.865,0-1.458-.686-.819-4.015l.912-4.335h-.094a32.829,32.829,0,0,1-5.881,6.3A7.577,7.577,0,0,1,50.4,34.91c-1.188,0-2.643-1.5-2.643-5.156A16.8,16.8,0,0,1,53.226,17.4c2.279-1.915,5.611-3.514,8.483-3.514a15.018,15.018,0,0,1,2.828.32,8.929,8.929,0,0,0,1.731.276l.138.179c-.728,2.83-2.095,9.031-3.145,14.824-.322,1.6-.185,1.962.088,1.962a9.909,9.909,0,0,0,3.285-2.37Zm-5.928-7.113c.5-1.824,1.182-5.11,1.5-6.567a7.6,7.6,0,0,0-3.056-.639,5.669,5.669,0,0,0-3.241.956c-3.1,2.279-4.925,7.664-4.925,12.179,0,2.053.593,3.012,1.229,3.012,1.78,0,6.937-5.8,8.488-8.94m25.457,6.8c-2.83,3.235-6.43,5.063-9.122,5.063-2.919,0-4.884-2.326-4.884-6.705a15.776,15.776,0,0,1,4.7-10.947c1.869-1.64,5.063-3.376,7.3-3.376,1.957,0,3.42,1.141,3.461,2.279a2.515,2.515,0,0,1-1.5,2.1c-.364.229-.681.138-1-.273a4.016,4.016,0,0,0-3.423-1.965c-1.64,0-2.919,1.372-3.784,3.015a17.907,17.907,0,0,0-2.006,8.254c0,3.238,1.279,4.925,3.235,4.925,2.329,0,5.11-2.1,6.341-3.376Zm19.948-.094c-4.015,4.291-7.436,5.156-9.624,5.156-2.1,0-5.019-1.235-5.019-6.661,0-4.285,1.869-9.073,5.473-11.812a11.392,11.392,0,0,1,6.292-2.555,3.759,3.759,0,0,1,4.018,3.652c0,4.514-7.664,6.978-12.041,8.069a8.171,8.171,0,0,0-.094,1.463c0,2.461.774,5.151,3.558,5.151,1.915,0,4.379-1.276,6.658-3.511ZM100.228,16.3c-1.235.686-3.514,2.781-4.291,7.89,6.523-1.731,8.441-3.831,8.441-5.928a2.247,2.247,0,0,0-2.282-2.508,3.747,3.747,0,0,0-1.869.546" transform="translate(12688.625 1091.574)" fill="#fff"/>
    <path id="パス_37885" data-name="パス 37885" d="M247.717,6.588c-3.558.364-3.787.593-4.426,3.922l-3.69,19.2c-.686,3.511-.413,3.784,3.326,4.06L242.652,35H230.975l.322-1.229c3.558-.276,3.875-.6,4.561-4.06l3.7-19.2c.637-3.329.317-3.558-3.47-3.922l.322-1.188h11.581Zm23.588,24.539c-2.693,2.919-5.247,4.423-6.43,4.423-1.141,0-1.552-1.235-.73-4.746.868-3.42,1.643-6.749,2.461-10.123.639-2.6.364-3.285-.364-3.285-2.006,0-7.3,5.655-9.58,9.533-.546,2.235-1.229,4.969-1.778,7.708a21.843,21.843,0,0,0-3.285.912l-.27-.364c1.232-4.93,2.6-10.4,3.69-15.466.369-1.455.231-1.822-.041-1.822a8.425,8.425,0,0,0-2.968,2.053l-.59-1.1c2.461-2.69,5.151-4.332,6.43-4.332,1.05,0,1.229,1.552.364,5.063l-.956,3.969h.091a30.773,30.773,0,0,1,8.392-8.028,6.154,6.154,0,0,1,3.056-1c1.094,0,2.37.686,1,6.523-.73,3.1-1.461,6.292-2.232,9.486-.276,1.235-.232,1.64.088,1.64a7.93,7.93,0,0,0,3.01-2.141Zm26.57,0c-2.693,2.919-5.247,4.423-6.43,4.423-1.141,0-1.552-1.235-.728-4.746.865-3.42,1.64-6.749,2.458-10.123.639-2.6.367-3.285-.364-3.285-2.006,0-7.3,5.655-9.58,9.533-.543,2.235-1.229,4.969-1.778,7.708a21.843,21.843,0,0,0-3.285.912l-.27-.364c1.232-4.93,2.6-10.4,3.693-15.466.367-1.455.229-1.822-.044-1.822a8.423,8.423,0,0,0-2.965,2.053l-.592-1.1c2.461-2.69,5.154-4.332,6.43-4.332,1.05,0,1.229,1.552.364,5.063l-.956,3.969h.091a30.773,30.773,0,0,1,8.392-8.028,6.155,6.155,0,0,1,3.056-1c1.094,0,2.37.686,1,6.523-.728,3.1-1.461,6.292-2.232,9.486-.276,1.235-.232,1.64.088,1.64a7.93,7.93,0,0,0,3.009-2.141Zm5.586-2.693A13.882,13.882,0,0,1,310.4,15.983a11.6,11.6,0,0,1,4.925-1.461c3.787,0,6.066,2.6,6.066,7.116a14.755,14.755,0,0,1-4.878,11.035,11.337,11.337,0,0,1-7.025,2.877c-4.332,0-6.022-3.42-6.022-7.116m9.125,5.016c2.461-1.05,4.969-5.881,4.969-11.718,0-3.7-1.6-5.473-3.693-5.473a4.079,4.079,0,0,0-1.734.405c-1.78.777-4.837,4.52-4.837,11.545,0,3.373,1.417,5.515,3.834,5.515a3.748,3.748,0,0,0,1.461-.273m21.155-2.417c1.869-2.323,7.069-8.984,7.069-12.041a3.861,3.861,0,0,0-.5-2.006,1.625,1.625,0,0,1,0-1.141,2.214,2.214,0,0,1,1.957-1.323c1.1,0,1.918,1.05,1.965,2.6,0,1.414-.73,3.191-2.83,6.113-2.643,3.693-6.7,8.935-9.439,12.314h-1.232c-.138-4.244-.639-11.4-.868-14.188-.226-2.734-.5-3.511-.819-3.511-.411,0-1.235.73-2.69,2.417l-.73-1c1.643-2.37,3.966-4.743,5.426-4.743,1.182,0,1.78,1.736,2.006,5.063.185,4.015.455,7.711.592,11.448Zm32.415-.229c-2.464,3.056-5.52,4.746-6.661,4.746-.865,0-1.458-.686-.818-4.015l.912-4.335H359.5a32.743,32.743,0,0,1-5.881,6.3,7.577,7.577,0,0,1-4.244,2.053c-1.185,0-2.643-1.5-2.643-5.156A16.8,16.8,0,0,1,352.2,18.036c2.279-1.915,5.611-3.514,8.483-3.514a14.993,14.993,0,0,1,2.828.32,8.953,8.953,0,0,0,1.733.276l.135.179c-.728,2.83-2.095,9.031-3.145,14.824-.322,1.6-.185,1.962.088,1.962a9.909,9.909,0,0,0,3.285-2.37Zm-5.928-7.113c.5-1.824,1.182-5.11,1.5-6.567a7.6,7.6,0,0,0-3.056-.639,5.676,5.676,0,0,0-3.241.956c-3.1,2.279-4.925,7.664-4.925,12.179,0,2.053.592,3.012,1.229,3.012,1.78,0,6.937-5.8,8.488-8.94m23.42-6.89-4.517.232-2.69,12.586c-.458,2.235-.232,2.737.27,2.737.777,0,3.015-1.5,4.106-2.643l.639.956c-1.5,1.824-4.925,4.881-7.342,4.881-1.05,0-1.962-1.326-.956-6.022l2.687-12.5h-3.373l-.138-.411,1.141-1.367h2.734l1.05-4.335,3.47-2.828.411.273-1.6,6.89h5.294Zm12.382,14.188c-1.5,1.869-5.06,4.561-6.656,4.561-.912,0-1.5-.733-.6-4.47L391.608,19.4c.276-1,.276-1.461-.047-1.461a8.827,8.827,0,0,0-3.1,1.962l-.548-1.05c2.508-2.461,5.7-4.332,6.934-4.332,1,0,.956,1.461.455,3.6l-3.147,12.589c-.273,1.091-.182,1.455.091,1.455.549,0,2.144-1.182,3.194-2.141Zm1.188-23.172a2.546,2.546,0,0,1-2.417,2.646,1.92,1.92,0,0,1-1.915-2.006,2.68,2.68,0,0,1,2.508-2.693,1.891,1.891,0,0,1,1.824,2.053m4.806,20.617a13.879,13.879,0,0,1,6.937-12.451,11.585,11.585,0,0,1,4.925-1.461c3.784,0,6.066,2.6,6.066,7.116a14.765,14.765,0,0,1-4.878,11.035,11.351,11.351,0,0,1-7.028,2.877c-4.332,0-6.022-3.42-6.022-7.116m9.125,5.016c2.461-1.05,4.969-5.881,4.969-11.718,0-3.7-1.593-5.473-3.69-5.473a4.081,4.081,0,0,0-1.736.405c-1.778.777-4.834,4.52-4.834,11.545,0,3.373,1.414,5.515,3.831,5.515a3.747,3.747,0,0,0,1.461-.273m33.521-2.323c-2.693,2.919-5.247,4.423-6.43,4.423-1.141,0-1.552-1.235-.73-4.746.865-3.42,1.643-6.749,2.461-10.123.639-2.6.364-3.285-.364-3.285-2.006,0-7.3,5.655-9.58,9.533-.546,2.235-1.232,4.969-1.78,7.708a21.893,21.893,0,0,0-3.282.912l-.27-.364c1.229-4.93,2.6-10.4,3.69-15.466.369-1.455.232-1.822-.044-1.822a8.447,8.447,0,0,0-2.965,2.053l-.59-1.1c2.458-2.69,5.151-4.332,6.43-4.332,1.05,0,1.229,1.552.364,5.063l-.956,3.969h.091a30.774,30.774,0,0,1,8.392-8.028,6.155,6.155,0,0,1,3.056-1c1.091,0,2.37.686,1,6.523-.73,3.1-1.463,6.292-2.235,9.486-.273,1.235-.231,1.64.091,1.64a7.951,7.951,0,0,0,3.01-2.141Z" transform="translate(12404.702 1141.35)" fill="#fff"/>
    <path id="パス_37884" data-name="パス 37884" d="M697.564,4.06c-2.739.179-3.376.865-3.969,2.872a75.966,75.966,0,0,0-1.731,7.755l-3.47,18.151h-1.367l-13.5-24.17h-.138L671.019,20.8a62.974,62.974,0,0,0-1.188,7.664c-.088,2.1.733,2.555,3.88,2.784l-.276,1.229H662.991l.275-1.229c2.37-.138,3.42-.686,4.016-2.646a70.5,70.5,0,0,0,1.913-7.937l2.373-11.222c.455-2.323.317-2.963-.273-3.966-.548-.959-1.326-1.235-3.88-1.414l.276-1.188h6.57l13.452,23.216h.182l2.1-11.4a71.856,71.856,0,0,0,1.232-7.8c.138-2.147-.593-2.6-3.969-2.828l.32-1.188h10.263Zm15.742,23.806c-4.016,4.291-7.436,5.156-9.624,5.156-2.1,0-5.019-1.235-5.019-6.661,0-4.285,1.868-9.073,5.473-11.812a11.4,11.4,0,0,1,6.295-2.555,3.758,3.758,0,0,1,4.015,3.652c0,4.514-7.664,6.978-12.041,8.069a8.166,8.166,0,0,0-.094,1.463c0,2.461.774,5.151,3.558,5.151,1.915,0,4.379-1.276,6.661-3.511Zm-6.43-13.455c-1.235.686-3.514,2.781-4.291,7.89,6.523-1.731,8.441-3.831,8.441-5.928a2.247,2.247,0,0,0-2.282-2.508,3.747,3.747,0,0,0-1.868.546m25-.138-4.517.231-2.687,12.586c-.46,2.235-.232,2.737.273,2.737.772,0,3.01-1.5,4.1-2.643l.637.956c-1.5,1.824-4.925,4.881-7.342,4.881-1.05,0-1.962-1.326-.956-6.022l2.687-12.5H720.7l-.135-.411,1.138-1.367h2.737l1.05-4.335,3.467-2.828.411.273-1.6,6.89h5.294Zm23.886,14.05c1.868-2.555,6.429-8.849,6.429-11.768a4.809,4.809,0,0,0-.455-2.1,1.243,1.243,0,0,1,0-1.141,2.2,2.2,0,0,1,1.868-1.323c1.141,0,1.962,1,1.962,2.6,0,1.552-.865,3.056-1.869,4.787-1.551,2.508-7.072,10.125-9.626,13.639H752.8c-.367-4.834-.821-9.624-1.279-14.232h-.091c-2.918,4.878-6.248,10.216-8.709,14.232h-1.188c-.041-4.423-.273-10.307-.455-14.689-.094-2.185-.273-3.009-.728-3.009-.322,0-1.006.548-2.693,2.329l-.774-.915c1.916-2.552,4.286-4.743,5.837-4.743,1.05,0,1.551,1.37,1.642,4.517.088,3.649.138,7.755.138,10.762h.088c2.739-4.7,5.79-9.668,8.483-14.593h1.141c.5,5.107.912,10.4,1.461,15.643Zm13.386-2.417a13.882,13.882,0,0,1,6.934-12.451,11.6,11.6,0,0,1,4.925-1.461c3.784,0,6.066,2.6,6.066,7.116A14.765,14.765,0,0,1,782.2,30.145a11.344,11.344,0,0,1-7.025,2.877c-4.335,0-6.022-3.42-6.022-7.116m9.125,5.016c2.458-1.05,4.966-5.881,4.966-11.718,0-3.7-1.593-5.473-3.69-5.473a4.082,4.082,0,0,0-1.736.405c-1.778.777-4.834,4.52-4.834,11.545,0,3.373,1.414,5.515,3.831,5.515a3.771,3.771,0,0,0,1.463-.273m14.617-14.458c2.326-2.6,5.156-4.47,6.386-4.47,1.141,0,1.188,2.1.5,5.294l-.455,2.279h.138c2.323-4.47,5.016-7.573,6.84-7.573a2.459,2.459,0,0,1,1.959,1.141,2,2,0,0,1-.044,1.962,4.75,4.75,0,0,1-1.185,1.32c-.413.273-.777.273-1,.047a2.118,2.118,0,0,0-1.552-.777c-.548,0-1.279.46-2.329,1.918a31.174,31.174,0,0,0-3.235,5.658c-.728,3.054-1.276,5.928-1.827,8.935a17.058,17.058,0,0,0-3.235.824l-.364-.364c1.182-4.884,2.461-10.492,3.327-15.37.273-1.5.273-1.965-.091-1.965a9.079,9.079,0,0,0-3.236,2.191Zm36.453,12.4c-2.144,3.376-4.059,4.153-5.019,4.153s-1.869-.548-3.009-3.012a90.973,90.973,0,0,1-3.467-8.483,19.687,19.687,0,0,0-2.552,2.919c-.5,2.464-1.05,5.11-1.552,7.711a20.055,20.055,0,0,0-3.282.865l-.322-.276c2.191-9.3,4.244-18.473,6.2-27.959.364-1.822.138-2.006-1.643-2.053l-1.414-.041.231-1.1c3.69-.408,6.107-1.6,6.7-1.6.455,0,.408.411.229,1.32-1.552,6.8-3.009,13.5-4.561,20.3h.047a48.393,48.393,0,0,1,3.922-4.106c2.552-2.6,5.881-5.52,7.981-5.52,1.229,0,1.915.733,1.915,1.414a3.194,3.194,0,0,1-.912,1.827c-.273.226-.549.317-.728.226a4.093,4.093,0,0,0-1.736-.364c-2.1,0-4.652,2.37-5.928,3.784a53.744,53.744,0,0,0,3.737,8.984c.824,1.689,1.279,2.191,1.78,2.191.457,0,1.461-.777,2.6-2.1Z" transform="translate(11996.151 1194.295)" fill="#fff"/>
  </g>
</svg>
