<svg xmlns="http://www.w3.org/2000/svg" xmlns:xlink="http://www.w3.org/1999/xlink" width="1245.115" height="586.258" viewBox="0 0 1245.115 586.258">
  <defs>
    <filter id="パス_38568" x="0" y="0" width="1245.115" height="586.258" filterUnits="userSpaceOnUse">
      <feOffset input="SourceAlpha"/>
      <feGaussianBlur stdDeviation="14.23" result="blur"/>
      <feFlood flood-color="#fff" flood-opacity="0.749"/>
      <feComposite operator="in" in2="blur"/>
      <feComposite in="SourceGraphic"/>
    </filter>
  </defs>
  <g id="レイヤー_1" data-name="レイヤー 1" transform="translate(-0.04 -0.03)">
    <g transform="matrix(1, 0, 0, 1, 0.04, 0.03)" filter="url(#パス_38568)">
      <path id="パス_38568-2" data-name="パス 38568" d="M1127.711,116.4C1080.165,69.135,1017.638,43,951.545,42.72H950.45c-.774,0-1.547.038-2.321.038-108.847.736-170.3,43.584-225.053,93.9-10.3,9.472-60.81,55.471-120.413,109.658-39.452-72.036-135.186-203.6-307.938-203.6-66.508,0-129.469,26.169-177.261,73.7-47.773,47.49-74.319,110.243-74.735,176.7v.132c.415,66.357,26.962,129.13,74.753,176.638,47.546,47.263,110.055,73.414,176.167,73.7.208,0,11.736-.17,12.207-.189,97.979-3.038,163.11-44.565,216.279-93.413,10.321-9.472,60.867-55.546,120.526-109.772C682.191,412.28,777.906,543.6,950.469,543.6c66.508,0,129.469-26.169,177.261-73.716,47.773-47.509,74.32-110.262,74.735-176.7v-.132c-.415-66.338-26.962-129.111-74.735-176.6ZM294.726,46.814c51.848,0,100.81,12.113,145.507,36,36.15,19.32,69.7,46.4,99.7,80.451a473.646,473.646,0,0,1,59.622,85.866C518.42,322.885,421.591,410.751,386.29,442.26c-37.528,33.509-83.263,54.867-153.129,54.867-64.452,0-104.847-22.641-138.9-63.754A248.52,248.52,0,0,1,49.975,293.112c.849-135.828,110.64-246.335,244.751-246.335Zm900.456,247.392c-1.415,135.318-110.979,245.241-244.751,245.241-51.829,0-100.772-12.113-145.469-35.98-36.15-19.3-69.7-46.377-99.7-80.433a472.946,472.946,0,0,1-59.527-85.7C726.85,263.6,823.6,175.812,858.886,144.3,896.413,110.794,942.148,89.1,1012.015,89.1c64.452,0,104.847,22.641,138.922,63.754a248.236,248.236,0,0,1,44.245,139.167v2.151Z" transform="translate(-0.04 -0.03)" fill="#fff"/>
    </g>
  </g>
</svg>
