<svg xmlns="http://www.w3.org/2000/svg" xmlns:xlink="http://www.w3.org/1999/xlink" width="260.212" height="15" viewBox="0 0 260.212 15">
  <defs>
    <clipPath id="clip-path">
      <rect id="長方形_9509" data-name="長方形 9509" width="260.212" height="15" fill="none"/>
    </clipPath>
  </defs>
  <g id="グループ_26705" data-name="グループ 26705" transform="translate(0 0)">
    <g id="マスクグループ_26556" data-name="マスクグループ 26556" transform="translate(0 0)" clip-path="url(#clip-path)">
      <path id="パス_39080" data-name="パス 39080" d="M.893,10.921c.218,1.642,1,3.552,3.321,3.552A2.286,2.286,0,0,0,6.668,12c0-1.2-.64-2.027-1.852-2.911l-.723-.54c-1.192-.887-2.5-2.014-2.5-3.872C1.591,2.3,3.414.513,6.362.513a11.848,11.848,0,0,1,3.534.6,28.75,28.75,0,0,0-.45,3.3l-.755.058c-.049-1.506-.46-3.129-2.562-3.129A2.2,2.2,0,0,0,3.842,3.743c0,1.119.573,1.783,1.739,2.622l.759.547c1.522,1.1,2.739,2.237,2.739,4.053,0,2.58-2.217,4.387-5.1,4.387A8.372,8.372,0,0,1,0,14.332C.05,13.8.109,12.539.16,11Z" transform="translate(0 -0.352)" fill="#fff"/>
      <path id="パス_39081" data-name="パス 39081" d="M37.583,40.544a1.381,1.381,0,0,1-1.392-1.486,1.674,1.674,0,0,1,1.66-1.755,1.4,1.4,0,0,1,1.407,1.522,1.649,1.649,0,0,1-1.675,1.719" transform="translate(-24.846 -25.609)" fill="#fff"/>
      <path id="パス_39082" data-name="パス 39082" d="M61.37,2.215c-1.793.139-1.926.3-2.246,1.979l-1.691,8.774c-.328,1.689-.159,1.871,1.691,2l-.166.725H52.525l.145-.725c1.7-.139,1.91-.32,2.238-2l1.713-8.774c.334-1.688.188-1.84-1.619-1.979l.174-.726h6.353Z" transform="translate(-36.06 -1.022)" fill="#fff"/>
      <path id="パス_39083" data-name="パス 39083" d="M82.824,40.544a1.381,1.381,0,0,1-1.392-1.486,1.674,1.674,0,0,1,1.66-1.755A1.4,1.4,0,0,1,84.5,38.825a1.649,1.649,0,0,1-1.675,1.719" transform="translate(-55.905 -25.609)" fill="#fff"/>
      <path id="パス_39084" data-name="パス 39084" d="M114.449,2.215c-1.456.095-1.807.459-2.055,1.363-.189.7-.423,1.626-.808,3.7l-1.661,8.635h-1.063l-6.416-11.3-1.05,5.479c-.364,1.836-.51,2.829-.576,3.522-.08,1.02.365,1.251,2,1.368l-.16.712H97.241l.145-.712c1.316-.116,1.841-.378,2.147-1.347a35.009,35.009,0,0,0,.838-3.643L101.509,4.4a1.624,1.624,0,0,0-.3-1.615,2.514,2.514,0,0,0-1.723-.57l.182-.726h3.759l6.181,10.5.908-4.716c.414-2.131.532-3.059.59-3.67.1-1.04-.39-1.31-1.958-1.383l.167-.726h5.305Z" transform="translate(-66.759 -1.022)" fill="#fff"/>
      <path id="パス_39085" data-name="パス 39085" d="M174.292,1.489c2.812,0,4.438,1.123,4.438,3.052,0,2.056-1.778,3.159-3.692,3.532,1.76.379,3.373,1.458,3.373,3.323,0,2.759-2.642,4.3-6.2,4.3h-6.239l.145-.712c1.7-.139,1.924-.347,2.26-2.039l1.713-8.716c.327-1.716.123-1.875-1.641-2.014l.174-.726Zm-3.449,11.367c-.32,1.66.389,1.988,1.644,1.988a3.312,3.312,0,0,0,3.212-3.556c0-2.023-1.4-2.715-3.235-2.715h-.8Zm1.862-5.169c2.456,0,3.477-1.4,3.477-3.111a2.013,2.013,0,0,0-2.2-2.225c-.888,0-1.11.065-1.321,1.215l-.8,4.121Z" transform="translate(-113.944 -1.022)" fill="#fff"/>
      <path id="パス_39086" data-name="パス 39086" d="M222.848,15.861h-.318c-2.652-.045-3.285-.72-4.015-2.113-.483-.951-.955-2.177-1.365-3.184-.315-.76-.549-1.034-1.25-1.034h-.734l-.62,3.352c-.321,1.767-.111,1.911,1.64,2.1l-.16.711h-6.345l.145-.711c1.613-.153,1.938-.319,2.26-2.078l1.669-8.715c.35-1.749.109-1.844-1.6-1.976l.174-.726h5.645c2.937,0,4.592,1.246,4.592,3.474,0,2.166-1.646,3.486-3.439,4.046.392,1.03.828,2.033,1.215,2.864,1.275,2.652,1.784,3.049,2.707,3.335Zm-6.758-7.18c2.369,0,3.8-1.262,3.8-3.616,0-1.474-.76-2.721-2.3-2.721-.717,0-1.051.072-1.255,1.152l-.992,5.185Z" transform="translate(-143.952 -1.022)" fill="#fff"/>
      <path id="パス_39087" data-name="パス 39087" d="M267.116,15.2h-5.958l.166-.711c1.545-.16,1.635-.414,1.511-1.411-.109-.8-.255-1.7-.409-2.717h-4.291c-.4.742-1,1.739-1.418,2.6-.535,1.076-.392,1.343,1.4,1.532l-.16.711h-5.246l.181-.711c1.555-.2,1.8-.349,2.981-2.354L262.36.9l.934-.138c.9,5.758,1.485,8.97,1.936,11.657.269,1.658.415,1.882,2.082,2.064Zm-5.609-11h-.044c-.944,1.762-1.959,3.552-2.812,5.142h3.63Z" transform="translate(-173.496 -0.524)" fill="#fff"/>
      <path id="パス_39088" data-name="パス 39088" d="M317.452,2.215c-1.456.095-1.807.459-2.055,1.363-.189.7-.423,1.626-.808,3.7l-1.661,8.635h-1.063l-6.415-11.3-1.05,5.479c-.364,1.836-.51,2.829-.576,3.522-.08,1.02.365,1.251,2,1.368l-.16.712h-5.422l.145-.712c1.316-.116,1.841-.378,2.147-1.347a35.014,35.014,0,0,0,.838-3.643L304.512,4.4a1.624,1.624,0,0,0-.3-1.615,2.514,2.514,0,0,0-1.723-.57l.182-.726h3.759l6.181,10.5.908-4.716c.414-2.131.532-3.059.59-3.67.1-1.04-.39-1.31-1.958-1.383l.167-.726h5.305Z" transform="translate(-206.126 -1.022)" fill="#fff"/>
      <path id="パス_39089" data-name="パス 39089" d="M361.1,1.488c4.665,0,7.2,2.34,7.182,6.067a7.53,7.53,0,0,1-3.554,6.608,11.119,11.119,0,0,1-6.381,1.531h-5.577l.167-.711c1.685-.139,1.938-.406,2.23-2l1.7-8.71c.328-1.7.248-1.915-1.612-2.054l.167-.726Zm-3.379,11.18c-.364,1.935.758,2.089,1.927,2.089,3.727,0,5.834-3.4,5.834-7.383,0-2.99-1.287-4.993-4.244-4.993-1.261,0-1.549.194-1.767,1.346Z" transform="translate(-242.188 -1.021)" fill="#fff"/>
      <path id="パス_39090" data-name="パス 39090" d="M425.578,10.921c.219,1.642,1,3.552,3.321,3.552A2.286,2.286,0,0,0,431.353,12c0-1.2-.64-2.027-1.852-2.911l-.723-.54c-1.192-.887-2.5-2.014-2.5-3.872,0-2.381,1.823-4.167,4.771-4.167a11.848,11.848,0,0,1,3.534.6,28.745,28.745,0,0,0-.451,3.3l-.755.058c-.049-1.506-.46-3.129-2.562-3.129a2.2,2.2,0,0,0-2.286,2.409c0,1.119.573,1.783,1.739,2.622l.759.547c1.522,1.1,2.739,2.237,2.739,4.053,0,2.58-2.217,4.387-5.1,4.387a8.372,8.372,0,0,1-3.98-1.021c.05-.532.109-1.792.16-3.331Z" transform="translate(-291.558 -0.352)" fill="#fff"/>
      <path id="パス_39091" data-name="パス 39091" d="M475.2,0c-.255.934-.517,2.658-.713,3.923l-.792.044a6.938,6.938,0,0,0-.13-1.429c-.137-.834-.471-1.155-2.076-1.155H470.2l-2.012,10.56c-.313,1.656-.181,1.879,1.836,2.018l-.159.712h-6.692l.167-.712c1.858-.139,2.025-.4,2.339-2.018l2.04-10.56h-1.055c-1.663,0-2.049.256-2.485.852a8.462,8.462,0,0,0-1,1.711l-.8-.037A37.363,37.363,0,0,0,463.336,0h.56c.233.474.445.466,1.034.466h8.577A1.22,1.22,0,0,0,474.6,0Z" transform="translate(-317.438 0)" fill="#fff"/>
      <path id="パス_39092" data-name="パス 39092" d="M507.346,15.2h-5.958l.166-.711c1.545-.16,1.635-.414,1.511-1.411-.109-.8-.255-1.7-.409-2.717h-4.291c-.4.742-1,1.739-1.418,2.6-.535,1.076-.392,1.343,1.4,1.532l-.16.711h-5.246l.182-.711c1.555-.2,1.8-.349,2.981-2.354L502.59.9l.934-.138c.9,5.758,1.485,8.97,1.936,11.657.269,1.658.415,1.882,2.082,2.064Zm-5.609-11h-.044c-.944,1.762-1.959,3.552-2.812,5.142h3.63Z" transform="translate(-338.42 -0.524)" fill="#fff"/>
      <path id="パス_39093" data-name="パス 39093" d="M554.607,0c-.255.934-.517,2.658-.713,3.923l-.792.044a6.938,6.938,0,0,0-.13-1.429c-.137-.834-.471-1.155-2.076-1.155h-1.29l-2.012,10.56c-.313,1.656-.181,1.879,1.836,2.018l-.159.712h-6.692l.167-.712c1.858-.139,2.025-.4,2.339-2.018l2.04-10.56h-1.055c-1.663,0-2.049.256-2.485.852a8.462,8.462,0,0,0-1,1.711l-.8-.037A37.361,37.361,0,0,0,542.74,0h.56c.233.474.445.466,1.034.466h8.577A1.22,1.22,0,0,0,554,0Z" transform="translate(-371.951 0)" fill="#fff"/>
      <path id="パス_39094" data-name="パス 39094" d="M590.372,1.441c1.106,0,2.146,0,2.969-.022-.146.695-.386,2.387-.568,3.436L592,4.9c-.088-2.074-.388-2.548-1.837-2.548h-1.738c-.792,0-1.074.1-1.241.931L586.319,7.8h1.9c1.821,0,1.894-.262,2.52-1.778h.769l-.9,4.58h-.769c.029-1.683.037-1.873-1.792-1.873h-1.938l-.75,3.961c-.314,1.552-.185,2.038,1.225,2.038h1.362a2.959,2.959,0,0,0,2.342-.671,7.9,7.9,0,0,0,1.584-2.11l.733.275c-.247.74-.976,2.687-1.3,3.421H580.275l.167-.711c1.81-.154,2.041-.291,2.369-2.01l1.712-8.74c.328-1.711.176-1.865-1.626-2.018l.188-.726Z" transform="translate(-398.375 -0.974)" fill="#fff"/>
      <path id="パス_39095" data-name="パス 39095" d="M643.444,2.215c-1.638.175-1.875.255-2.117,1.87-.459,3.21-.737,5.718-1.08,8.581-.242,2.02-.087,2.165,1.649,2.317l-.167.712h-6.18l.182-.712c1.578-.16,1.737-.3,2.051-2.3.459-3.127.831-5.848,1.269-8.767h-.066c-2.262,3.893-4.96,8.584-6.706,11.782h-.616c-.506-3.117-1.528-7.616-2.309-11.691h-.072l-1.371,5.562c-.524,2.151-.779,3.312-.86,3.913-.182,1.118.151,1.366,1.763,1.5l-.167.712h-5.377l.181-.712c1.486-.109,1.829-.415,2.206-1.418.308-.824.7-2.034,1.272-4.208l1.248-4.707c.532-2,.51-2.229-1.524-2.434l.232-.726h4.169c.678,3.124,1.737,7.118,2.383,10.178l6.008-10.178h4.21Z" transform="translate(-427.891 -1.022)" fill="#fff"/>
      <path id="パス_39096" data-name="パス 39096" d="M697.1,1.441c1.106,0,2.146,0,2.969-.022-.145.695-.386,2.387-.568,3.436l-.777.05c-.088-2.074-.388-2.548-1.837-2.548h-1.738c-.792,0-1.074.1-1.241.931L693.05,7.8h1.9c1.821,0,1.894-.262,2.52-1.778h.769l-.9,4.58h-.769c.029-1.683.037-1.873-1.792-1.873H692.84l-.75,3.961c-.314,1.552-.185,2.038,1.225,2.038h1.362a2.958,2.958,0,0,0,2.342-.671,7.9,7.9,0,0,0,1.584-2.11l.733.275c-.247.74-.975,2.687-1.3,3.421H687.006l.167-.711c1.81-.154,2.041-.291,2.369-2.01l1.712-8.74c.328-1.711.176-1.865-1.626-2.018l.188-.726Z" transform="translate(-471.648 -0.974)" fill="#fff"/>
      <path id="パス_39097" data-name="パス 39097" d="M746.885,2.215c-1.456.095-1.807.459-2.055,1.363-.189.7-.423,1.626-.808,3.7l-1.661,8.635H741.3l-6.416-11.3-1.05,5.479c-.364,1.836-.51,2.829-.576,3.522-.08,1.02.365,1.251,2,1.368l-.16.712h-5.422l.145-.712c1.316-.116,1.841-.378,2.147-1.347a35,35,0,0,0,.838-3.643L733.945,4.4a1.624,1.624,0,0,0-.3-1.615,2.514,2.514,0,0,0-1.722-.57l.182-.726h3.759l6.181,10.5.908-4.716c.414-2.131.532-3.059.59-3.67.1-1.04-.39-1.31-1.958-1.383l.167-.726h5.305Z" transform="translate(-500.943 -1.022)" fill="#fff"/>
      <path id="パス_39098" data-name="パス 39098" d="M802.019,0c-.255.934-.517,2.658-.713,3.923l-.792.044a6.938,6.938,0,0,0-.13-1.429c-.137-.834-.471-1.155-2.076-1.155h-1.29l-2.012,10.56c-.313,1.656-.181,1.879,1.836,2.018l-.159.712H789.99l.167-.712c1.858-.139,2.025-.4,2.339-2.018l2.04-10.56H793.48c-1.663,0-2.049.256-2.485.852a8.459,8.459,0,0,0-1,1.711l-.8-.037A37.347,37.347,0,0,0,790.152,0h.56c.233.474.445.466,1.034.466h8.577A1.221,1.221,0,0,0,801.417,0Z" transform="translate(-541.806 0)" fill="#fff"/>
    </g>
  </g>
</svg>
