<svg xmlns="http://www.w3.org/2000/svg" width="28.291" height="9.451" viewBox="0 0 28.291 9.451">
  <path id="パス_38591" data-name="パス 38591" d="M-13.845-2.535c.026.923.026,1.625.039,1.924A3.347,3.347,0,0,0-11.57.195,2.621,2.621,0,0,0-8.736-2.288a2.968,2.968,0,0,0-1.508-2.379l-.39-.286c-.676-.52-1.209-.988-1.209-1.742a1.451,1.451,0,0,1,1.456-1.521c1.118,0,1.456.884,1.56,1.859L-8.45-6.4c.013-.585-.013-1.274.039-1.82-.1-.039-.325-.117-.572-.208a3.851,3.851,0,0,0-1.235-.221,2.4,2.4,0,0,0-2.639,2.327A3.092,3.092,0,0,0-11.4-4.043l.364.286c.754.6,1.209,1.092,1.209,1.833a1.528,1.528,0,0,1-1.56,1.677c-1.43,0-1.963-1.339-2.106-2.327Zm10.166.962a3.069,3.069,0,0,1-1.807.962c-.559,0-.923-.481-.923-1.4a5.109,5.109,0,0,1,.572-2.353,1.347,1.347,0,0,1,1.079-.858,1.146,1.146,0,0,1,.975.559c.091.117.182.143.286.078a.717.717,0,0,0,.429-.6c-.013-.325-.429-.65-.988-.65a3.821,3.821,0,0,0-2.08.962,4.5,4.5,0,0,0-1.339,3.12c0,1.248.559,1.911,1.391,1.911a3.837,3.837,0,0,0,2.6-1.443Zm1.534-2.691a2.583,2.583,0,0,1,.923-.624c.1,0,.1.13.026.559-.247,1.391-.611,2.99-.949,4.381l.1.1a4.808,4.808,0,0,1,.923-.234c.156-.858.312-1.677.52-2.548A8.912,8.912,0,0,1,.325-4.238c.3-.416.507-.546.663-.546a.6.6,0,0,1,.442.221c.065.065.169.065.286-.013a1.371,1.371,0,0,0,.338-.377.572.572,0,0,0,.013-.559.7.7,0,0,0-.559-.325c-.52,0-1.287.884-1.95,2.158H-.481l.13-.65c.195-.91.182-1.508-.143-1.508a3.729,3.729,0,0,0-1.82,1.274ZM4,.156a3.23,3.23,0,0,0,2-.819A4.21,4.21,0,0,0,7.4-3.809c0-1.287-.65-2.028-1.729-2.028a3.3,3.3,0,0,0-1.4.416A3.956,3.956,0,0,0,2.288-1.872C2.288-.819,2.769.156,4,.156Zm.468-.52c-.689,0-1.092-.611-1.092-1.573,0-2,.871-3.068,1.378-3.289a1.153,1.153,0,0,1,.494-.117c.6,0,1.053.507,1.053,1.56C6.3-2.119,5.59-.741,4.888-.442A1.078,1.078,0,0,1,4.472-.364ZM10.6-1.521a2.743,2.743,0,0,1-1.04.715c-.078,0-.13-.078-.052-.455.546-2.574,1.079-5.1,1.612-7.605.052-.273.039-.39-.078-.39A14.5,14.5,0,0,1,9.113-8.8l-.052.312.351.013c.6,0,.676.091.546.65-.442,2.145-.9,4.277-1.352,6.409C8.333-.143,8.541.156,8.788.156a3.844,3.844,0,0,0,2-1.391Zm3.3,0a2.743,2.743,0,0,1-1.04.715c-.078,0-.13-.078-.052-.455.546-2.574,1.079-5.1,1.612-7.605.052-.273.039-.39-.078-.39a14.5,14.5,0,0,1-1.924.455l-.052.312.351.013c.6,0,.676.091.546.65-.442,2.145-.9,4.277-1.352,6.409C11.635-.143,11.843.156,12.09.156a3.844,3.844,0,0,0,2-1.391Z" transform="translate(13.845 9.256)" fill="#fff"/>
</svg>
