<svg xmlns="http://www.w3.org/2000/svg" width="203.775" height="20.425" viewBox="0 0 203.775 20.425">
  <path id="パス_130480" data-name="パス 130480" d="M17.006-5.5a3.811,3.811,0,0,1,1.155.242,4.777,4.777,0,0,1,1.254.627,1.044,1.044,0,0,1,.539.8.829.829,0,0,1-.132.451.458.458,0,0,1-.418.209,2.167,2.167,0,0,1-.605-.121q-.385-.121-.473-.143l-1.43-.4a12.461,12.461,0,0,0-2.31-.132q-2.4,0-5.027.264a16.255,16.255,0,0,0-3.949.77,3.8,3.8,0,0,1-1.32.308,2.257,2.257,0,0,1-1.023-.308,3.842,3.842,0,0,1-1-.748,1.226,1.226,0,0,1-.418-.77q0-.154.132-.154a1.172,1.172,0,0,1,.385.1q.253.1.319.121a3.47,3.47,0,0,0,1.166.22,4.123,4.123,0,0,0,.484-.022q2.684-.308,7.744-.682a35.437,35.437,0,0,0,.616-4.994q0-1.276-.418-1.276a17.976,17.976,0,0,0-2.035.374,26.045,26.045,0,0,0-2.849.748,1.2,1.2,0,0,1-.264.044,1.994,1.994,0,0,1-.968-.319,4.279,4.279,0,0,1-.88-.649q-.308-.308-.308-.462,0-.132.176-.132a1.506,1.506,0,0,1,.286.044q.2.044.33.066a9.056,9.056,0,0,0,1.122.066q.506,0,.99-.044.946-.11,2.5-.352a8.385,8.385,0,0,0,1.881-.418l.418-.22a1.933,1.933,0,0,1,.286-.154.938.938,0,0,1,.33-.044,2.089,2.089,0,0,1,.8.242A4.2,4.2,0,0,1,15-11.77q.4.33.4.594a.409.409,0,0,1-.088.264,2.571,2.571,0,0,1-.286.286l-.22.22a.936.936,0,0,0-.242.4q-.22.836-.649,2.53t-.6,2.53l1.342-.088a5.432,5.432,0,0,0,1.694-.33q.088-.022.286-.077A1.4,1.4,0,0,1,17.006-5.5Zm14.168-4.752a2.094,2.094,0,0,0-.484.154q-.088.022-.3.088a1.286,1.286,0,0,1-.385.066q-.616,0-1.1-.858a2.254,2.254,0,0,1-.33-.924q0-.132.11-.132a.506.506,0,0,1,.264.154,1.509,1.509,0,0,0,.946.4q.528-.022,1.749-.121t2.3-.231q1.43-.176,1.694-.242a1.642,1.642,0,0,0,.726-.374,1.288,1.288,0,0,1,.33-.22,1.156,1.156,0,0,1,.44-.066,2.548,2.548,0,0,1,.77.165,3.156,3.156,0,0,1,.858.44.779.779,0,0,1,.374.627.538.538,0,0,1-.132.4.764.764,0,0,1-.528.132q-.308,0-.836-.044-.44-.044-.55-.044a29.486,29.486,0,0,0-3.069.242Q31.944-10.406,31.174-10.252ZM28.666-3.938a3.128,3.128,0,0,1-.99.22,1.764,1.764,0,0,1-1.43-.836,2.334,2.334,0,0,1-.363-.638,1.7,1.7,0,0,1-.121-.572q0-.22.154-.22a.511.511,0,0,1,.22.1q.154.1.308.187a8.256,8.256,0,0,0,.858.341,3.3,3.3,0,0,0,.99.121q.638,0,3.74-.275t5.1-.5a4.947,4.947,0,0,0,1.078-.187,4.279,4.279,0,0,0,.638-.275,1.289,1.289,0,0,1,.572-.154A4.405,4.405,0,0,1,40.6-6.38a5.94,5.94,0,0,1,1.4.627q.616.385.616.8,0,.528-.792.528a7.529,7.529,0,0,1-1.672-.286,9.36,9.36,0,0,0-2-.154q-1.056,0-3.828.154l-1.034.066q-1.386.088-2.717.3A12.347,12.347,0,0,0,28.666-3.938Zm36.872-7.018a.888.888,0,0,1-.792-.462,4.27,4.27,0,0,0-.682-.88,3.84,3.84,0,0,0-.9-.594,2.271,2.271,0,0,0-.33-.154,1.17,1.17,0,0,1-.253-.121.168.168,0,0,1-.077-.143q0-.154.418-.154a5.885,5.885,0,0,1,1.177.176,4.535,4.535,0,0,1,1.441.594,1.275,1.275,0,0,1,.66,1.122.532.532,0,0,1-.209.473A.783.783,0,0,1,65.538-10.956ZM63.47-8.734a1,1,0,0,1-.5-.143.806.806,0,0,1-.363-.451,3.962,3.962,0,0,0-.594-1.078,3.147,3.147,0,0,0-.946-.77,1.958,1.958,0,0,0-.231-.121.862.862,0,0,1-.242-.154.215.215,0,0,1-.077-.143q0-.176.308-.176a5.367,5.367,0,0,1,1.133.22,4.781,4.781,0,0,1,1.54.726,1.549,1.549,0,0,1,.715,1.32.73.73,0,0,1-.22.572A.762.762,0,0,1,63.47-8.734Zm2.486,6.028a8.071,8.071,0,0,1-2.805-1.243q-2.145-1.243-4.532-2.9a37.7,37.7,0,0,1-3.531-2.695,1.076,1.076,0,0,0-.22-.165.488.488,0,0,0-.242-.077.712.712,0,0,0-.418.2,21.71,21.71,0,0,0-3.63,3.872q-.088.132-.253.407a1.313,1.313,0,0,1-.242.33.353.353,0,0,1-.209.055,1.733,1.733,0,0,1-.715-.253,3.325,3.325,0,0,1-.891-.715,2.135,2.135,0,0,1-.528-1.078l-.022-.2a1.059,1.059,0,0,1,.077-.407q.077-.187.165-.187.066,0,.209.154a1.243,1.243,0,0,0,.253.22.938.938,0,0,0,.528.132A2.079,2.079,0,0,0,50.2-7.678Q50.82-8.118,52-9.042t1.727-1.43a1.182,1.182,0,0,1,.792-.33,1.707,1.707,0,0,1,1.012.4,43.4,43.4,0,0,0,4.653,3.08,52.028,52.028,0,0,0,5.687,2.838q.946.44.946,1.056a.64.64,0,0,1-.242.539A.978.978,0,0,1,65.956-2.706Zm7.458-4.048a1.609,1.609,0,0,1-.9-.22,2.6,2.6,0,0,1-.715-.594,1.229,1.229,0,0,1-.319-.814,1.27,1.27,0,0,1,.1-.484q.1-.242.209-.242a.541.541,0,0,1,.2.11,1.631,1.631,0,0,0,.462.264,6.39,6.39,0,0,0,1.98.286q.946-.022,2.882-.077t3.3-.1q2.926-.11,4.862-.22,1.122-.066,1.76-.066a4.609,4.609,0,0,1,1.342.154.648.648,0,0,1,.484.682q0,.528-.9.616-.44.044-1.21.044l-6.38.154q-1.694.044-3.685.154a20.593,20.593,0,0,0-2.585.242A4.732,4.732,0,0,1,73.414-6.754Zm30.668,3.476a.985.985,0,0,1-.66-.352,1.377,1.377,0,0,1-.572-.968.616.616,0,0,1,.088-.308,2.842,2.842,0,0,0,.154-1.188l-.022-1.65q0-.616.022-.946l.066-1.408q.066-.77.066-1.3a1.7,1.7,0,0,0-.22-1.056,1.823,1.823,0,0,0-.4-.341,4.686,4.686,0,0,0-.429-.231q-.231-.11-.231-.2,0-.154.22-.242a1.714,1.714,0,0,1,.616-.088,2.568,2.568,0,0,1,1.034.231,2.7,2.7,0,0,1,.869.583,1.027,1.027,0,0,1,.341.7.7.7,0,0,1-.154.374,1.17,1.17,0,0,0-.2.44q-.11.638-.231,2.64T104.3-5.742q0,.308.286.308a4.966,4.966,0,0,0,1.848-.737,32.245,32.245,0,0,0,3.1-1.991q1.76-1.254,3.432-2.706.308-.286.44-.286a.1.1,0,0,1,.11.11.926.926,0,0,1-.308.506,28.147,28.147,0,0,1-2.453,2.464q-1.595,1.452-3.322,2.761a19.984,19.984,0,0,1-3,1.947A.781.781,0,0,1,104.082-3.278ZM93.258-.594q-.11,0-.11-.088,0-.11.242-.352A18.826,18.826,0,0,0,96.9-5.489a18.082,18.082,0,0,0,2.035-4.873,2.61,2.61,0,0,0,.11-.682,1.108,1.108,0,0,0-.616-.968q-.418-.264-.418-.44t.352-.176a2.935,2.935,0,0,1,1.408.4,2.845,2.845,0,0,1,.8.66,1.263,1.263,0,0,1,.385.77,1.611,1.611,0,0,1-.242.616,3.679,3.679,0,0,0-.374.836,13.4,13.4,0,0,1-1.6,3.091,25.327,25.327,0,0,1-2.574,3.278A13.27,13.27,0,0,1,93.544-.7.589.589,0,0,1,93.258-.594Zm29-13.376a3.079,3.079,0,0,0,.2-.286,2.145,2.145,0,0,1,.187-.264.22.22,0,0,1,.165-.088q.176,0,.781.572a3.836,3.836,0,0,1,.759.88.556.556,0,0,1,0,.22.5.5,0,0,1-.484.242H121.4v2.244a6.6,6.6,0,0,1,2,1.595,2.552,2.552,0,0,1,.638,1.507.934.934,0,0,1-.176.583.553.553,0,0,1-.462.231.8.8,0,0,1-.462-.176.283.283,0,0,1-.132-.176,7.371,7.371,0,0,0-.55-1.485,14.874,14.874,0,0,0-.858-1.551V-4.07q.044,2.728.176,5.06a.322.322,0,0,1-.066.2,1.757,1.757,0,0,1-.528.385,1.464,1.464,0,0,1-.66.165.555.555,0,0,1-.374-.132.4.4,0,0,1-.154-.308q.088-1.3.154-2.519t.088-3.2V-8.866a17.622,17.622,0,0,1-3.146,5.39.116.116,0,0,1-.121.055.207.207,0,0,1-.121-.055L116.6-3.52a.173.173,0,0,1-.022-.242,25.58,25.58,0,0,0,3.168-8.932h-.88a4.719,4.719,0,0,0-1.386.264h-.066a.186.186,0,0,1-.154-.11l-.4-.748-.022-.088q0-.154.176-.11.99.11,1.98.132h1.034v-.682a34.1,34.1,0,0,0-.242-4.29v-.044q0-.176.2-.11a11.047,11.047,0,0,1,1.518.517q.44.209.44.363,0,.11-.176.22l-.374.242v3.784h.484Zm11.7,4.026q.088-.11.209-.3a1.742,1.742,0,0,1,.209-.275.254.254,0,0,1,.176-.088q.176,0,.858.583a3.618,3.618,0,0,1,.836.891.556.556,0,0,1,0,.22.523.523,0,0,1-.506.242h-5.126a13.432,13.432,0,0,0,2.409,3.883A12.2,12.2,0,0,0,136.4-2.024q.154.066.11.176a.271.271,0,0,1-.132.2,1.914,1.914,0,0,0-.88,1.232q-.022.11-.077.132t-.143-.044A12.944,12.944,0,0,1,132.264-3.8,20.331,20.331,0,0,1,130.152-8.4V-4.18q.044,2.728.176,5.06a.322.322,0,0,1-.066.2,1.439,1.439,0,0,1-.517.418,1.456,1.456,0,0,1-.671.176.486.486,0,0,1-.341-.132.407.407,0,0,1-.143-.308q.088-1.21.143-2.376t.077-2.97v-2.9a18.645,18.645,0,0,1-6.2,6.644q-.132.11-.242-.044l-.044-.066q-.11-.154.022-.242a18.593,18.593,0,0,0,3.289-3.586A20.616,20.616,0,0,0,128-8.668h-1.408a13.932,13.932,0,0,0-2.4.286h-.066a.186.186,0,0,1-.154-.11l-.4-.77a.127.127,0,0,1-.022-.088q0-.11.154-.11,1.21.11,2.684.154h2.42v-4.048h-2.816a11.907,11.907,0,0,1-2,2.794.2.2,0,0,1-.242.022l-.022-.022q-.154-.11-.066-.242a12.007,12.007,0,0,0,.968-2.024,13.49,13.49,0,0,0,.638-2.233,14.75,14.75,0,0,0,.308-2.233q0-.2.2-.154,1.98.528,1.98.792,0,.11-.176.176l-.352.176a18.958,18.958,0,0,1-.924,2.31h2.508a33.567,33.567,0,0,0-.242-4.268V-18.3q0-.176.2-.11a10.421,10.421,0,0,1,1.507.517q.429.209.429.363,0,.11-.176.22l-.374.264v3.058h2.464l.44-.638q.066-.088.2-.275a2.252,2.252,0,0,1,.231-.286.278.278,0,0,1,.187-.1q.176,0,.836.583a3.7,3.7,0,0,1,.814.891.556.556,0,0,1,0,.22.546.546,0,0,1-.528.242h-4.642v4.048h3.366ZM156.772-14.3q.088-.11.231-.3a2.922,2.922,0,0,1,.231-.275.254.254,0,0,1,.176-.088,2.645,2.645,0,0,1,.9.594,3.6,3.6,0,0,1,.88.9.556.556,0,0,1,0,.22.523.523,0,0,1-.506.242h-6.38a27.174,27.174,0,0,0,1.43,7.194,10.128,10.128,0,0,0,3.278,4.752.766.766,0,0,1,.154.154.5.5,0,0,0,.286.154q.154,0,.308-.308a21.8,21.8,0,0,0,.9-2.354q.044-.132.132-.132.2,0,.154.2L158.6-.176A2.685,2.685,0,0,1,159.192.99a.5.5,0,0,1-.11.286.735.735,0,0,1-.638.308,2.19,2.19,0,0,1-1-.3,6.366,6.366,0,0,1-1.111-.759,12.692,12.692,0,0,1-3.751-5.434,29.864,29.864,0,0,1-1.705-8.1H143.77a23.586,23.586,0,0,0-3.146.286h-.066a.186.186,0,0,1-.154-.11l-.4-.77a.127.127,0,0,1-.022-.088q0-.11.154-.11,1.21.11,2.684.154h7.986q-.176-2.332-.176-4.554,0-.2.2-.154a13.347,13.347,0,0,1,1.463.176q.407.088.407.22,0,.11-.176.22l-.374.264q-.022,1.782.11,3.828h4.048Zm-3.058-3.212a.132.132,0,0,1-.088-.088.1.1,0,0,1,.022-.11.244.244,0,0,1,.242-.088,6.853,6.853,0,0,1,1.936.506,2.979,2.979,0,0,1,1.111.781,1.345,1.345,0,0,1,.341.825.707.707,0,0,1-.187.506.623.623,0,0,1-.473.2.9.9,0,0,1-.308-.066.262.262,0,0,1-.176-.132,7.208,7.208,0,0,0-1.067-1.232A10.139,10.139,0,0,0,153.714-17.512ZM148.28-9.724a3.166,3.166,0,0,0,.187-.264,1.579,1.579,0,0,1,.209-.264.3.3,0,0,1,.2-.11,2.406,2.406,0,0,1,.858.572,3.5,3.5,0,0,1,.836.88l.022.088q0,.374-.528.374h-3.806v6.512l3.41-.924,1.21-.33h.066a.141.141,0,0,1,.154.132v.11a.186.186,0,0,1-.11.154q-5.17,2.068-9.2,3.52a.745.745,0,0,1-.286.44.127.127,0,0,1-.088.022q-.132,0-.154-.088L140.47-.308a.178.178,0,0,1-.022-.143.145.145,0,0,1,.11-.077q1.122-.2,4.334-1.056V-8.448h-1.254a10.487,10.487,0,0,0-2.134.264q-.176.044-.22-.088l-.4-.792a.127.127,0,0,1-.022-.088q0-.11.154-.11,1.21.11,2.684.154h4.136Zm24.86-7.458a19.549,19.549,0,0,1-4.18,4.455A24.9,24.9,0,0,1,163.24-9.2a.09.09,0,0,1-.066.022.156.156,0,0,1-.154-.11v-.022a.157.157,0,0,1,.066-.242A21.288,21.288,0,0,0,166.573-12a25.079,25.079,0,0,0,3.113-3.135,8.576,8.576,0,0,0,1.826-3.41.16.16,0,0,1,.22-.132l2.486.748q.2.088.11.242a1.559,1.559,0,0,1-.792.264,15.456,15.456,0,0,0,3.751,3.52,23.543,23.543,0,0,0,5.071,2.684q.176.066.132.22v.022a.351.351,0,0,1-.154.2,1.784,1.784,0,0,0-.7.44,1.86,1.86,0,0,0-.44.66q-.066.176-.264.088a19.011,19.011,0,0,1-4.62-3.322A14.913,14.913,0,0,1,173.14-17.182ZM170.852-10.3a19.538,19.538,0,0,0-2.838.286h-.066a.186.186,0,0,1-.154-.11l-.4-.792a.127.127,0,0,1-.022-.088q0-.11.154-.11,1.21.11,2.684.154h4.708l.462-.66a3.457,3.457,0,0,1,.209-.3q.143-.187.231-.286a.244.244,0,0,1,.176-.1,2.562,2.562,0,0,1,.935.605,3.9,3.9,0,0,1,.913.935.45.45,0,0,1,0,.2.554.554,0,0,1-.55.264ZM168.74-.7q2.31-.154,4.664-.33l4.2-.286a25.176,25.176,0,0,0-2.64-3.058.137.137,0,0,1,0-.22.2.2,0,0,1,.242-.022,13.867,13.867,0,0,1,3.014,1.87A7.6,7.6,0,0,1,179.9-.869a3.26,3.26,0,0,1,.517,1.6,1.145,1.145,0,0,1-.2.7.607.607,0,0,1-.506.264,1.114,1.114,0,0,1-.528-.176.671.671,0,0,1-.154-.176,8.221,8.221,0,0,0-1.122-2.2q-4.708.814-11.99,1.826a.747.747,0,0,1-.4.4.09.09,0,0,1-.066.022.156.156,0,0,1-.154-.11l-.7-1.584L164.582-.4q0-.11.154-.11,1.562-.044,3.19-.154.572-1.232,1.188-2.827t.99-2.871h-2.4a23.587,23.587,0,0,0-3.146.286h-.066a.186.186,0,0,1-.154-.11l-.4-.748a.127.127,0,0,1-.022-.088q0-.11.176-.11,1.188.11,2.662.154H178.4l.484-.682.22-.3a2.847,2.847,0,0,1,.253-.308.278.278,0,0,1,.187-.1,2.678,2.678,0,0,1,.957.616,3.951,3.951,0,0,1,.935.946.245.245,0,0,1,.022.11q0,.33-.572.33H172q-.682,1.408-1.562,2.959A31.426,31.426,0,0,1,168.74-.7Zm20.922-7.414a19.48,19.48,0,0,1-3.542,2.9.173.173,0,0,1-.242-.022.168.168,0,0,1-.077-.121.153.153,0,0,1,.077-.143,22.7,22.7,0,0,0,3.5-3.773,19.637,19.637,0,0,0,2.508-4.279h-1.958a23.587,23.587,0,0,0-3.146.286h-.066a.186.186,0,0,1-.154-.11l-.4-.748-.022-.088q0-.132.176-.088,1.056.11,2.156.132h1.144a30.841,30.841,0,0,0-.242-4.07q0-.22.22-.154a14.89,14.89,0,0,1,1.5.517q.418.187.418.341,0,.11-.2.22l-.374.242v2.9h.99l.418-.462.275-.275a.511.511,0,0,1,.319-.187q.176,0,.693.539a3.68,3.68,0,0,1,.671.869.13.13,0,0,1-.066.2,1.433,1.433,0,0,1-.341.11,3.882,3.882,0,0,1-.495.066,18.6,18.6,0,0,1-2.31,3.608,5.63,5.63,0,0,1,2.277,1.21,2.022,2.022,0,0,1,.737,1.364.808.808,0,0,1-.165.517.544.544,0,0,1-.451.209.825.825,0,0,1-.374-.088.372.372,0,0,1-.154-.176,5.417,5.417,0,0,0-.792-1.287A9.963,9.963,0,0,0,191-9.2V-4.07q.044,2.75.176,5.038a.3.3,0,0,1-.088.22,1.4,1.4,0,0,1-.5.374,1.676,1.676,0,0,1-.737.154.421.421,0,0,1-.3-.143.421.421,0,0,1-.143-.3q.088-1.3.154-2.519t.088-3.2Zm13-3.322q.088-.11.209-.3a1.742,1.742,0,0,1,.209-.275.254.254,0,0,1,.176-.088,2.518,2.518,0,0,1,.88.594,3.662,3.662,0,0,1,.858.9.38.38,0,0,1-.022.22.523.523,0,0,1-.506.242H199.65V.022h3.19l.44-.66a3.464,3.464,0,0,1,.209-.3q.143-.187.231-.286a.244.244,0,0,1,.176-.1q.176,0,.869.6a3.821,3.821,0,0,1,.847.913.556.556,0,0,1,0,.22.523.523,0,0,1-.506.242h-8.822a23.587,23.587,0,0,0-3.146.286h-.066a.186.186,0,0,1-.154-.11l-.4-.77a.127.127,0,0,1-.022-.088q0-.11.154-.11,1.21.11,2.684.154h2.86V-10.142h-1.43a13.933,13.933,0,0,0-2.4.286H194.3a.186.186,0,0,1-.154-.11l-.374-.77a.127.127,0,0,1-.022-.088q0-.11.154-.11,1.21.11,2.684.154H198.2V-13.9a34.1,34.1,0,0,0-.242-4.29v-.044q0-.176.2-.11a11.933,11.933,0,0,1,1.584.539q.44.209.44.363,0,.11-.176.22l-.352.242v6.2h2.574Z" transform="translate(-1.848 18.687)" fill="#4a4a4a"/>
</svg>
