<svg xmlns="http://www.w3.org/2000/svg" width="294.069" height="34.78" viewBox="0 0 294.069 34.78">
  <path id="パス_130479" data-name="パス 130479" d="M21.165-25.6c-.408-3.213-.714-5.253-.918-7.089a20.956,20.956,0,0,0-6.528-1.224c-6.681,0-10.71,4.233-10.71,9.231,0,5.61,4.9,8.211,8.517,10.1,3.825,2.04,6.528,3.876,6.528,7.5S15.81-1.122,12.087-1.122c-5.2,0-7.6-5.253-8.415-8.415l-1.581.408A62.66,62.66,0,0,0,3.468-1.071,18.125,18.125,0,0,0,6.12,0a16.343,16.343,0,0,0,5,.765c6.936,0,11.526-4.335,11.526-9.792,0-5.61-4.59-8.058-8.823-10.2-4.131-2.091-6.477-3.825-6.477-7.4A5.278,5.278,0,0,1,12.9-32.13c4.335,0,5.814,3.621,6.732,6.834ZM31.416.612A2.919,2.919,0,0,0,34.425-2.5a2.934,2.934,0,0,0-3.009-3.06A2.934,2.934,0,0,0,28.407-2.5,2.919,2.919,0,0,0,31.416.612ZM54.162,0V-1.479c-4.08-.306-4.539-.612-4.539-4.947V-26.673c0-4.335.459-4.641,4.539-5V-33.15H40.341v1.479c4.08.357,4.539.663,4.539,5V-6.426c0,4.335-.459,4.641-4.539,4.947V0Zm8.874.612A2.919,2.919,0,0,0,66.045-2.5a2.934,2.934,0,0,0-3.009-3.06A2.934,2.934,0,0,0,60.027-2.5,2.919,2.919,0,0,0,63.036.612ZM106.743-33.15H94.605v1.479c3.621.2,4.794.918,5.049,3.162a77.205,77.205,0,0,1,.357,8.466V-8.16h-.153L78.9-33.15h-7.9v1.479c2.4.2,3.468.612,4.488,1.887.969,1.224,1.071,1.581,1.071,5.2v11.118a83.834,83.834,0,0,1-.357,8.67c-.255,2.448-1.53,3.111-4.437,3.315V0H83.9V-1.479C80.376-1.683,79.254-2.4,79-4.9a85.231,85.231,0,0,1-.306-8.568V-26.01h.1L100.419.459h1.734v-20.5c0-4.692.153-6.987.306-8.568.255-2.244,1.428-2.907,4.284-3.06Zm50.082,17.7H143.463v1.479c5.049.408,5.355.714,5.355,4.386v4.437c0,1.989-.561,2.7-1.53,3.213a9.013,9.013,0,0,1-4.131.867c-9.588,0-13.821-8.466-13.821-15.912,0-9.333,5.661-15.045,13.107-15.045,4.9,0,8.721,1.836,9.945,7.956l1.53-.306c-.408-3.519-.663-6.324-.816-8.058a43.2,43.2,0,0,0-9.843-1.479c-10.1,0-19.584,5.814-19.584,17.6,0,10.149,7.5,17.085,18.87,17.085,4.029,0,8.313-1.122,11.424-1.887a22.945,22.945,0,0,1-.357-4.794V-10.2c0-3.06.255-3.315,3.213-3.774ZM191.454-.969a7.388,7.388,0,0,1-3.57-2.346A43.446,43.446,0,0,1,183.8-8.67c-1.53-2.3-3.621-5.712-4.488-7.344,3.723-1.632,6.477-4.284,6.477-8.67a7.5,7.5,0,0,0-3.417-6.681c-1.938-1.326-4.437-1.785-8.313-1.785H161.109v1.479c3.927.357,4.386.612,4.386,4.9V-6.426c0,4.284-.459,4.641-4.59,4.947V0h13.77V-1.479c-4.029-.306-4.488-.663-4.488-4.947v-8.007h1.479c2.448,0,3.315.612,4.233,2.091,1.479,2.5,3.264,5.61,4.947,8.007,2.295,3.315,4.335,4.488,8.67,4.692.612.051,1.173.051,1.734.051Zm-21.267-15.2V-28.713c0-1.326.153-1.887.51-2.193a4.788,4.788,0,0,1,2.7-.51c3.672,0,7.191,2.04,7.191,7.548a7.482,7.482,0,0,1-2.7,6.273c-1.275,1.02-2.958,1.428-5.457,1.428Zm40.9-17.748c-10.863,0-17.289,8.568-17.289,17.646,0,9.792,7.344,17.034,16.728,17.034s17.136-6.732,17.136-17.748A16.432,16.432,0,0,0,211.089-33.915Zm-1.02,1.887c6.579,0,11.883,5.763,11.883,16.422,0,9.741-4.845,14.484-10.353,14.484-7.089,0-12.087-7.089-12.087-16.473C199.512-27.03,204.51-32.028,210.069-32.028Zm56.865-1.122h-12.24v1.479c3.57.255,4.641.969,4.947,2.907A62.528,62.528,0,0,1,260-20.6v4.131c0,8.466-2.346,14.331-9.435,14.331-6.171,0-9.333-4.641-9.333-12.8V-26.418c0-4.641.408-4.947,4.335-5.253V-33.15H232v1.479c3.978.408,4.437.612,4.437,5.253v12.6c0,5.967,1.428,9.792,4.437,12.087a13.374,13.374,0,0,0,8.313,2.5,12.613,12.613,0,0,0,9.18-3.57c2.907-3.06,3.825-7.446,3.825-13.311V-20.6a74.136,74.136,0,0,1,.306-8.058c.255-2.04,1.428-2.754,4.437-3.009Zm4.233,0v1.479c3.723.306,4.182.51,4.182,5V-6.426c0,4.233-.459,4.641-4.488,4.947V0h14.178V-1.479c-4.539-.306-4.947-.612-4.947-4.9v-7.854l3.723.969a11.3,11.3,0,0,0,2.244-.051c5.049-.663,10-3.825,10-10.506a8.489,8.489,0,0,0-3.366-7.242c-2.04-1.479-4.947-2.091-8.619-2.091Zm8.925,4.539c0-1.326.153-1.938.51-2.244a4.236,4.236,0,0,1,2.652-.612c4.029,0,7.446,2.295,7.446,7.854,0,6.528-4.029,8.211-7.089,8.211a10.4,10.4,0,0,1-3.519-.561Z" transform="translate(-2.036 33.965)" fill="#4a4a4a" stroke="#fff" stroke-width="0.1"/>
</svg>
