<svg xmlns="http://www.w3.org/2000/svg" width="121.38" height="18.62" viewBox="0 0 121.38 18.62">
  <path id="パス_130478" data-name="パス 130478" d="M7.96-13.26c.16,1.2-1.74,3.96-3.36,5.58a16.962,16.962,0,0,0-1.58,1.5c0,.06.04.12.14.12A6.112,6.112,0,0,0,5.08-7.12,15.035,15.035,0,0,0,7.8-9.72c.84-.96.88-1,1.26-1,.12,0,.66.06.78.06.48,0,3.24-.62,3.28-.62a.216.216,0,0,1,.22.22c0,.62-3.8,7.44-9.9,10.8-.62.34-.68.38-.68.46a.179.179,0,0,0,.18.18A13.681,13.681,0,0,0,6.92-1.54a24.456,24.456,0,0,0,7.16-7.52c.7-1.08.78-1.2,1-1.34.66-.4.8-.48.8-.76a.725.725,0,0,0-.38-.5c-.1-.06-.62-.34-.74-.4-.82-.48-.92-.54-1.1-.54a3.737,3.737,0,0,0-.94.32,11.32,11.32,0,0,1-3.04.8c-.08,0-.32,0-.32-.16,0-.1.06-.18.16-.32.4-.5.6-.76.6-1a1.869,1.869,0,0,0-1.86-1.12c-.16,0-.44,0-.44.2C7.82-13.8,7.94-13.36,7.96-13.26Zm7.64-3.38c-.2,0-.72.12-.72.28,0,.06.06.16.26.22a4.69,4.69,0,0,1,1.84.98c.44.46.64.66,1.06.66a.541.541,0,0,0,.5-.58c0-.2,0-.66-.82-1.14A3.69,3.69,0,0,0,15.6-16.64Zm-1.38,1.72c-.18,0-.34.1-.34.18s.2.22.3.28a6.316,6.316,0,0,1,1.42,1.18c.62.74.78.86,1.06.86.34,0,.58-.44.58-.78C17.24-13.44,16.78-14.92,14.22-14.92Zm14.54,4.68c0-1.02-2.12-1.7-2.26-1.7-.08,0-.1.04-.1.1a1.484,1.484,0,0,0,.08.36,4.386,4.386,0,0,1,.34,1.72c0,.66-.22,2.84-2.42,5.86a5.663,5.663,0,0,0-.8,1.06.093.093,0,0,0,.1.1,6.964,6.964,0,0,0,3.7-3.8C27.74-7.3,28.76-10.18,28.76-10.24Zm3.52,7.2c.14-.02.32-.16.66-.54a11.113,11.113,0,0,1,1.38-1.28c3.5-3.08,4.66-5.56,4.66-5.72a.086.086,0,0,0-.08-.08c-.08,0-1.78,1.8-2.12,2.14-1.92,1.94-3.76,3.26-4.36,3.26-.36,0-.38-.4-.38-.66,0-.66.08-3.08.16-3.62.04-.22.32-1.26.32-1.5,0-1.04-2.1-1.4-2.2-1.4-.04,0-.12.02-.12.1a5.2,5.2,0,0,0,.26.72,12.263,12.263,0,0,1,.38,3.76c0,.5-.02,2.08-.08,2.46-.02.1-.12.62-.12.72C30.64-4.12,31.7-2.94,32.28-3.04ZM47.46-8.06a10.892,10.892,0,0,1-2.44-.18c-.1-.02-.58-.24-.68-.24s-.16.12-.16.24c0,.68.92,1.92,1.78,1.92.24,0,1.32-.32,1.56-.36.48-.1,5.06-.36,7.82-.36.4,0,2.4.04,2.86.04.84,0,1.66-.06,1.66-.62,0-.14-.18-.88-1.4-.88-.1,0-.32.02-.44.02C55.1-8.32,48.12-8.06,47.46-8.06ZM80.48-15.6a1.9,1.9,0,0,0-1.96,1.9,1.965,1.965,0,0,0,1.94,1.94,1.951,1.951,0,0,0,1.92-1.94A1.861,1.861,0,0,0,80.48-15.6Zm-.04.68a1.338,1.338,0,0,1,1.28,1.26,1.233,1.233,0,0,1-1.24,1.22,1.241,1.241,0,0,1-1.3-1.2A1.287,1.287,0,0,1,80.44-14.92ZM66.02-12.48c-.12,0-.18.06-.18.44,0,1.1,1.6,2.1,2.06,2.1a7.253,7.253,0,0,0,1-.44,65.625,65.625,0,0,1,7.2-1.44c.1,0,.44.02.44.36a11.3,11.3,0,0,1-1.36,3.38c-1.6,2.84-4.42,5.48-7.9,7.92-.2.14-.26.18-.26.26a.133.133,0,0,0,.14.12c.2,0,7.18-2.8,10.32-9.32a3.31,3.31,0,0,1,.78-1.26c.36-.36.46-.46.46-.72,0-.28-.12-.5-1.02-1.3-.62-.54-.94-.82-1.38-.82-.14,0-.22.04-.84.32a51.782,51.782,0,0,1-7.54.94,4.712,4.712,0,0,1-1.66-.42C66.24-12.36,66.06-12.48,66.02-12.48ZM84.9-7.84a19.833,19.833,0,0,0,8.76-6.42c.16-.2.48-.6.56-.6s.12.06.34.48c2.26,4.12,6.52,7.06,6.96,7.06.12,0,.18-.06.26-.2a2.346,2.346,0,0,1,1.28-.82c.5-.16.56-.18.56-.3,0-.1,0-.1-.56-.26-4.74-1.34-8.28-5.78-8.28-6.4,0-.08.02-.14.14-.2.2-.14.24-.16.24-.26,0-.34-1.86-1.22-1.88-1.22-.24,0-.24.08-.4.7-.1.44-1.36,2.82-4.78,5.74-1.3,1.1-2.94,2.26-3.08,2.36-.24.16-.3.2-.3.28C84.72-7.8,84.84-7.82,84.9-7.84Zm6.58,2.68c.34,0,.6,0,.6.34a13.993,13.993,0,0,1-1.04,2.64c-.82,1.64-.96,1.64-2.08,1.64a10.6,10.6,0,0,1-1.18-.08c-.12-.02-.74-.14-.88-.14-.06,0-.16,0-.16.14a15.8,15.8,0,0,0,1.1,2.12.227.227,0,0,0,.2.14,4.181,4.181,0,0,0,.58-.32A87.551,87.551,0,0,1,97.9-.52c.28,0,.46.06.84.74.36.66.78,1.4,1.36,1.4.38,0,.78-.44.78-1.08,0-1.26-1.24-1.98-1.78-2.3A18.6,18.6,0,0,0,96.56-3c-.06,0-.14.02-.14.12,0,.24,1.18,1.26,1.18,1.56,0,.2-.16.22-1.6.36-2.22.22-4.1.34-4.36.34-.08,0-.36-.02-.36-.2s.2-.38.28-.48c.12-.12.94-1.1,1.36-1.66.5-.66.54-.72.7-.78.6-.16.6-.16.6-.34,0-.22-.94-1.02-.94-1.02,0-.06.08-.06.28-.06h6.12c.94,0,1.04,0,1.04-.26,0-.18,0-.2-1.02-1.04-.46-.38-.52-.42-.68-.42-.18,0-.26.12-.56.54-.48.66-.7.66-1.54.66h-6.6c-.7,0-1.76-.04-2.74-.08-.12,0-.74-.06-.88-.06-.04,0-.08,0-.08.04,0,.02.06.08.1.14l.38.46c.08.08.1.12.18.12.06,0,.36-.04.42-.04.54-.04,1.04-.06,2.52-.06Zm.92-3.72c-.8,0-1.76-.02-2.74-.08-.12,0-.74-.06-.88-.06-.04,0-.06.02-.06.04,0,.04,0,.06.08.14l.38.46c.08.08.12.12.18.12s.36-.04.42-.04c.74-.06,1.32-.06,2.54-.06h4.6c.96,0,1.06,0,1.06-.22a5.424,5.424,0,0,0-1.52-1.5c-.1,0-.34.3-.66.68-.4.48-.44.52-1.42.52ZM112.84.72c.08.1.12.14.18.14s.36-.06.42-.06c.7-.06,2.04-.04,2.52-.04h7.1c.66,0,1.08,0,1.08-.28,0-.34-1.76-1.64-1.94-1.64-.24,0-.3.08-.84.78a1.243,1.243,0,0,1-1.18.6h-.74c-.52,0-.52-.36-.52-1.1,0-1.34-.06-7.2-.06-8.4,0-.36.04-.66.58-.66h2.78c.64,0,1.06,0,1.06-.26,0-.38-1.4-1.68-1.68-1.68-.18,0-.24.08-.82.86-.42.56-.52.56-1.46.56-.48,0-.48-.38-.48-.62,0-.54.06-3.86.18-4.14.04-.1.44-.44.44-.54,0-.34-.42-.44-.6-.5-.14-.04-1.38-.42-1.44-.42-.12,0-.16.04-.16.14,0,.16.12.86.12,1.02.1,1.5.14,2.4.14,4.24,0,.56-.04.82-.52.82-.68,0-2.3-.08-2.5-.08-.1,0-.82-.06-.84-.06s-.06,0-.06.04,0,.04.08.14l.38.46c.08.08.12.12.18.12.08,0,.36-.04.42-.04.7-.06,1.86-.06,2.36-.06.48,0,.48.42.48.62,0,1.04-.04,8.74-.08,9.1-.04.44-.4.44-.58.44h-.78c-1.12,0-2.16-.04-2.74-.06-.14,0-.76-.08-.88-.08a.064.064,0,0,0-.06.06c0,.02,0,.02.08.12ZM106.3-11.52c.06.08.1.12.18.12.06,0,.36-.04.42-.04.7-.04,1.54-.06,2.32-.06h1.4c.18,0,.32.02.32.2,0,.58-2.82,4.08-3.62,4.9a20.128,20.128,0,0,0-1.74,1.78c0,.06.06.06.1.06.52,0,3.12-2.26,3.32-2.26s.2.34.2.56c0,2.36-.08,4.44-.12,5.92C109.08-.12,109,.8,109,1c0,.28.12.48.6.48a.954.954,0,0,0,1.06-.92c0-.28-.1-1.52-.1-1.78,0-.82-.02-4.52-.02-5.28,0-.24,0-.52.18-.52.38,0,1.04,1.02,1.16,1.24.52,1.06.74,1.46,1.22,1.46.36,0,.7-.3.7-.92,0-1.52-1.88-2.06-2.56-2.22-.48-.1-.66-.14-.66-.56,0-.36.06-.42.64-1.02a23.02,23.02,0,0,1,1.86-2c.06-.02.34-.08.4-.1a.3.3,0,0,0,.22-.26c0-.12-.04-.16-.48-.58-.06-.04-.48-.54-.72-.78a.378.378,0,0,0-.28-.14c-.18,0-.76.6-.9.68a.712.712,0,0,1-.48.14c-.2,0-.32-.04-.32-.32v-1.68c0-.84,0-.94.1-1.12.04-.08.4-.38.4-.46,0-.14-.12-.22-.22-.28a15.376,15.376,0,0,0-1.8-.54c-.02,0-.08,0-.08.04,0,.12.1.58.1.68.06.76.08,1.94.08,2.24,0,1.34,0,1.48-.56,1.48-.42,0-2.26-.12-2.64-.12-.02,0-.08,0-.08.04,0,.02.02.04.1.14Z" transform="translate(-2.76 16.98)" fill="#4a4a4a"/>
</svg>
