<svg xmlns="http://www.w3.org/2000/svg" width="215.677" height="35.29" viewBox="0 0 215.677 35.29">
  <path id="パス_130468" data-name="パス 130468" d="M37.332-33.15H23.664v1.479c3.927.357,4.335.663,4.335,4.9v8.109H11.271v-8.109c0-4.284.408-4.539,4.233-4.9V-33.15H1.887v1.479c4.182.357,4.59.612,4.59,4.9v20.4c0,4.284-.408,4.539-4.437,4.9V0H15.759V-1.479c-4.08-.357-4.488-.612-4.488-4.9V-16.422H28V-6.375c0,4.284-.408,4.539-4.692,4.9V0H37.332V-1.479c-4.131-.357-4.539-.612-4.539-4.9v-20.4c0-4.284.408-4.539,4.539-4.9ZM56,0V-1.479c-4.08-.306-4.539-.612-4.539-4.947V-26.673c0-4.335.459-4.641,4.539-5V-33.15H42.177v1.479c4.08.357,4.539.663,4.539,5V-6.426c0,4.335-.459,4.641-4.539,4.947V0ZM80.121-25.6c-.408-3.213-.714-5.253-.918-7.089a20.956,20.956,0,0,0-6.528-1.224c-6.681,0-10.71,4.233-10.71,9.231,0,5.61,4.9,8.211,8.517,10.1,3.825,2.04,6.528,3.876,6.528,7.5s-2.244,5.967-5.967,5.967c-5.2,0-7.6-5.253-8.415-8.415l-1.581.408a62.66,62.66,0,0,0,1.377,8.058A18.125,18.125,0,0,0,65.076,0a16.343,16.343,0,0,0,5,.765C77.01.765,81.6-3.57,81.6-9.027c0-5.61-4.59-8.058-8.823-10.2-4.131-2.091-6.477-3.825-6.477-7.4a5.278,5.278,0,0,1,5.559-5.508c4.335,0,5.814,3.621,6.732,6.834Zm34.221.357c-.255-3.009-.51-6.885-.51-9.18H112.71a2.666,2.666,0,0,1-2.6,1.275H89.862c-1.428,0-2.091-.1-2.805-1.275H85.986c-.1,2.754-.408,6.171-.612,9.333h1.581a14.684,14.684,0,0,1,1.683-4.641c.663-1.122,1.683-1.581,5.916-1.581h2.907V-6.375c0,4.08-.408,4.59-5,4.9V0h14.994V-1.479c-4.794-.306-5.2-.816-5.2-4.9V-31.314h3.366c3.723,0,4.59.408,5.457,1.53a12.113,12.113,0,0,1,1.734,4.692Zm21.267-8.67c-10.863,0-17.289,8.568-17.289,17.646,0,9.792,7.344,17.034,16.728,17.034s17.136-6.732,17.136-17.748A16.432,16.432,0,0,0,135.609-33.915Zm-1.02,1.887c6.579,0,11.883,5.763,11.883,16.422,0,9.741-4.845,14.484-10.353,14.484-7.089,0-12.087-7.089-12.087-16.473C124.032-27.03,129.03-32.028,134.589-32.028ZM187.323-.969a7.388,7.388,0,0,1-3.57-2.346,43.446,43.446,0,0,1-4.08-5.355c-1.53-2.3-3.621-5.712-4.488-7.344,3.723-1.632,6.477-4.284,6.477-8.67a7.5,7.5,0,0,0-3.417-6.681c-1.938-1.326-4.437-1.785-8.313-1.785H156.978v1.479c3.927.357,4.386.612,4.386,4.9V-6.426c0,4.284-.459,4.641-4.59,4.947V0h13.77V-1.479c-4.029-.306-4.488-.663-4.488-4.947v-8.007h1.479c2.448,0,3.315.612,4.233,2.091,1.479,2.5,3.264,5.61,4.947,8.007C179.01-1.02,181.05.153,185.385.357c.612.051,1.173.051,1.734.051Zm-21.267-15.2V-28.713c0-1.326.153-1.887.51-2.193a4.788,4.788,0,0,1,2.7-.51c3.672,0,7.191,2.04,7.191,7.548a7.482,7.482,0,0,1-2.7,6.273c-1.275,1.02-2.958,1.428-5.457,1.428ZM217.464-33.15H206.091v1.479c3.927.459,4.08.918,2.958,3.366-1.377,3.111-4.131,8.058-5.916,11.373-2.193-3.825-4.59-7.956-6.681-11.934-.918-1.734-1.071-2.3,2.55-2.805V-33.15H186.354v1.479c3.009.306,3.621.867,5.661,4.335,2.805,4.845,4.692,8.211,6.375,11.271a5.138,5.138,0,0,1,1.02,3.009v6.579c0,4.335-.459,4.692-4.947,5V0h14.79V-1.479c-4.641-.306-5.049-.663-5.049-5v-6.885a5.98,5.98,0,0,1,.816-3.264c2.448-4.539,4.131-7.344,6.375-10.965,1.938-3.06,2.6-3.672,6.069-4.08Z" transform="translate(-1.837 34.475)" fill="#4a4a4a" stroke="#fff" stroke-width="0.1"/>
</svg>
