<svg xmlns="http://www.w3.org/2000/svg" width="39.701" height="18.36" viewBox="0 0 39.701 18.36">
  <path id="パス_130467" data-name="パス 130467" d="M9.8-6.24c-.34,0-.4-.04-1.02-.42a2.138,2.138,0,0,0-.88-.36c-.04,0-.18,0-.18.1,0,.06.1.42.12.5a9.816,9.816,0,0,1,.08,1.58c0,.98-.08,3.66-.12,4.66,0,.12-.08.98-.08,1.06,0,.18,0,.56.48.56A1.125,1.125,0,0,0,9.36.56c.08-.42.1-.5.56-.5h5.36c.1,0,.58,0,.58.46,0,.42.02.86.6.86.18,0,1.16-.14,1.16-1.08,0-.06-.02-.22-.04-.42-.08-.82-.08-2.26-.08-3.24,0-1.68.02-1.74.24-1.88.28-.18.42-.3.42-.4,0-.16-.08-.24-.86-.82-.64-.48-.7-.52-.84-.52s-.16.04-.46.44a.647.647,0,0,1-.66.3Zm5.6.54c.22,0,.58,0,.58.62V-1.1c0,.54-.24.62-.58.62H9.94c-.22,0-.58,0-.58-.62V-5.08c0-.54.26-.62.58-.62ZM2.22-16.52c-.06.08.04.2.12.3a7.2,7.2,0,0,1,.9,1.24c.64,1.1.76,1.28,1.22,1.28a.78.78,0,0,0,.76-.84C5.22-16.14,2.24-16.54,2.22-16.52Zm10.9.58c-.22,0-1.42-.14-1.46-.14-.02,0-.08,0-.08.04s0,.04.08.14l.4.46c.06.08.1.12.18.12a1.4,1.4,0,0,0,.28-.06c.24-.02.42-.04.64-.04h.92c.46,0,.48.08.6.94.56,4.18,2.52,6.9,2.98,6.9.12,0,.46-.46.56-.52a4.9,4.9,0,0,1,1.2-.66c.08-.04.12-.06.12-.1,0-.02-.8-.4-.96-.5a7.375,7.375,0,0,1-3.24-5.44c0-.4.08-.4.66-.44s.76-.1.76-.34c0-.32-1.3-1.3-1.46-1.3-.12,0-.2.06-.66.68a.6.6,0,0,1-.6.26ZM.36-12.28c-.02.08.18.2.22.24A7.384,7.384,0,0,1,2-10.44c.7,1.02.78,1.14,1.14,1.14.14,0,.64-.06.64-.9a1.741,1.741,0,0,0-1.22-1.64,7.479,7.479,0,0,0-2.08-.5C.42-12.34.36-12.32.36-12.28Zm9.02-3.68a3.416,3.416,0,0,1,.12.92,14.222,14.222,0,0,1-2.48,6.9c-.14.22-.96,1.32-.96,1.34,0,.04.06.08.12.08A3.489,3.489,0,0,0,7.4-7.58a15.142,15.142,0,0,0,3.66-6.76c.02-.08.04-.18.12-.22.56-.26.62-.3.62-.44,0-.22-.08-.24-.84-.52-.08-.02-1.5-.48-1.54-.48S9.38-15.98,9.38-15.96ZM.62-4.18c1.84.68,2.14,2.1,2.18,3.6.04,1.22.06,2.04.94,2.04A1.12,1.12,0,0,0,4.76.22,6.01,6.01,0,0,0,4.4-1.46a5.831,5.831,0,0,1-.58-2.02,3.419,3.419,0,0,1,.22-1.08c.32-.98,2.24-7,2.24-7.4,0-.02-.02-.1-.06-.1-.08,0-.14.12-.26.38A50.1,50.1,0,0,1,2.68-5.16c-.46.74-.54.88-1.94.88C.56-4.28.58-4.2.62-4.18ZM35.04-5.6c.46,0,.74,0,.82.4.06.38.1.6.58.6a.94.94,0,0,0,1.04-.88c0-.32-.06-1.9-.06-2.26,0-.24.02-.32.28-.46.18-.08.44-.22.44-.44s-.14-.3-.56-.58c-.92-.58-1.02-.64-1.14-.64-.1,0-.44.38-.54.44a1.165,1.165,0,0,1-.8.16H32.5c-.84,0-.84-.12-.84-1.3,0-.58.14-.58.6-.58h.42c.4,0,.48.02.54.36a.39.39,0,0,0,.42.38c1.08,0,1.08-.78,1.08-1.02,0-.2-.08-1.22-.08-1.46,0-.8.06-.9.82-.9H38.6c.66,0,1.06,0,1.06-.28a3.375,3.375,0,0,0-1.58-1.32c-.2,0-.24.06-.68.74-.22.34-.42.34-1.28.34h-.7c-.4,0-.76,0-.76-.54,0-.58,0-.64.1-.78.06-.06.36-.3.36-.38,0-.28-1.42-.54-1.78-.54-.08,0-.26,0-.26.12,0,.04.12.42.14.5a2.075,2.075,0,0,1,.1.92c0,.68-.24.7-.78.7h-3.1c-.44,0-.78,0-.78-.56a1.174,1.174,0,0,1,.1-.5c.04-.08.46-.44.46-.56,0-.44-1.66-.7-1.86-.7-.18,0-.22.02-.22.18,0,.12.16,1.4.16,1.62,0,.52-.38.52-.82.52h-.82c-.62,0-1.38-.02-2.42-.08-.1,0-.6-.06-.72-.06-.04,0-.08,0-.08.04s.02.08.08.14l.4.46c.06.08.1.12.18.12.06,0,.34-.04.42-.04.02,0,.7-.06,2.04-.06h.9c.46,0,.82,0,.82.52,0,.3-.04,1.8-.04,2.14,0,.66.24.66.4.66.08,0,.76,0,1-.42.14-.24.16-.26.52-.26h.54c.56,0,.56.12.56,1.22,0,.62-.22.66-.74.66h-2.7a1.435,1.435,0,0,1-.9-.18c-1.12-.7-1.16-.72-1.32-.72a.168.168,0,0,0-.18.18,4.422,4.422,0,0,0,.1.5,11.529,11.529,0,0,1,.1,1.52c0,.4-.1,2.4-.1,2.86,0,.28.04.66.46.66.88,0,.98-.44,1.08-.84.08-.32.28-.32.82-.32h2.58c.44,0,.76,0,.76.46v1.12c0,.78-.18.78-.92.78H25.56c-.94,0-1.76,0-2.74-.06-.14,0-.76-.08-.9-.08a.053.053,0,0,0-.06.06c0,.02,0,.04.08.12l.4.46c.06.08.1.14.16.14a3.838,3.838,0,0,0,.44-.06c.18,0,.76-.04,2.52-.04H29.3c.62,0,.9,0,.9.6,0,.36-.06,2.14-.06,2.56,0,.28,0,1.02.74,1.02a.927.927,0,0,0,.9-1c0-.16-.1-2.2-.1-2.62,0-.56.28-.56.9-.56H39c.66,0,1.06,0,1.06-.28a3.021,3.021,0,0,0-1.44-1.28c-.22,0-.26.06-.68.68-.24.34-.42.34-1.28.34H32.58c-.66,0-.82,0-.9-.32a12.4,12.4,0,0,1-.04-1.48c0-.56.36-.56.88-.56ZM26.8-6.14c-.52,0-.76,0-.76-.7V-8.02c0-.7.24-.7.76-.7h2.68c.34,0,.66,0,.74.34.04.14.04,1.34.04,1.58,0,.66-.3.66-.78.66Zm8.36-2.58c.82,0,.82.06.82,1.16,0,1.16-.02,1.16-.16,1.3-.14.12-.24.12-.66.12H32.5c-.88,0-.88-.02-.88-1.22,0-.98,0-1.1.14-1.24.14-.12.28-.12.74-.12Zm-2.62-5.06c.74,0,.74.14.74,1.04,0,.96,0,1.08-.74,1.08H29.46c-.8,0-.8-.12-.8-1.06,0-.96,0-1.06.8-1.06Z" transform="translate(-0.359 16.88)" fill="#4a4a4a"/>
</svg>
