<svg xmlns="http://www.w3.org/2000/svg" width="81.76" height="18.62" viewBox="0 0 81.76 18.62">
  <path id="パス_130465" data-name="パス 130465" d="M.9-7.84a19.833,19.833,0,0,0,8.76-6.42c.16-.2.48-.6.56-.6s.12.06.34.48c2.26,4.12,6.52,7.06,6.96,7.06.12,0,.18-.06.26-.2a2.346,2.346,0,0,1,1.28-.82c.5-.16.56-.18.56-.3,0-.1,0-.1-.56-.26-4.74-1.34-8.28-5.78-8.28-6.4,0-.08.02-.14.14-.2.2-.14.24-.16.24-.26,0-.34-1.86-1.22-1.88-1.22-.24,0-.24.08-.4.7-.1.44-1.36,2.82-4.78,5.74C2.8-9.44,1.16-8.28,1.02-8.18c-.24.16-.3.2-.3.28C.72-7.8.84-7.82.9-7.84ZM7.48-5.16c.34,0,.6,0,.6.34A13.993,13.993,0,0,1,7.04-2.18C6.22-.54,6.08-.54,4.96-.54A10.6,10.6,0,0,1,3.78-.62c-.12-.02-.74-.14-.88-.14-.06,0-.16,0-.16.14A15.8,15.8,0,0,0,3.84,1.5a.227.227,0,0,0,.2.14,4.181,4.181,0,0,0,.58-.32A87.552,87.552,0,0,1,13.9-.52c.28,0,.46.06.84.74.36.66.78,1.4,1.36,1.4.38,0,.78-.44.78-1.08,0-1.26-1.24-1.98-1.78-2.3A18.6,18.6,0,0,0,12.56-3c-.06,0-.14.02-.14.12,0,.24,1.18,1.26,1.18,1.56,0,.2-.16.22-1.6.36-2.22.22-4.1.34-4.36.34-.08,0-.36-.02-.36-.2s.2-.38.28-.48c.12-.12.94-1.1,1.36-1.66.5-.66.54-.72.7-.78.6-.16.6-.16.6-.34,0-.22-.94-1.02-.94-1.02,0-.06.08-.06.28-.06h6.12c.94,0,1.04,0,1.04-.26,0-.18,0-.2-1.02-1.04-.46-.38-.52-.42-.68-.42-.18,0-.26.12-.56.54-.48.66-.7.66-1.54.66H6.32c-.7,0-1.76-.04-2.74-.08-.12,0-.74-.06-.88-.06-.04,0-.08,0-.08.04,0,.02.06.08.1.14l.38.46c.08.08.1.12.18.12.06,0,.36-.04.42-.04.54-.04,1.04-.06,2.52-.06ZM8.4-8.88c-.8,0-1.76-.02-2.74-.08-.12,0-.74-.06-.88-.06-.04,0-.06.02-.06.04,0,.04,0,.06.08.14l.38.46c.08.08.12.12.18.12s.36-.04.42-.04c.74-.06,1.32-.06,2.54-.06h4.6c.96,0,1.06,0,1.06-.22a5.424,5.424,0,0,0-1.52-1.5c-.1,0-.34.3-.66.68-.4.48-.44.52-1.42.52ZM28.84.72c.08.1.12.14.18.14s.36-.06.42-.06c.7-.06,2.04-.04,2.52-.04h7.1c.66,0,1.08,0,1.08-.28,0-.34-1.76-1.64-1.94-1.64-.24,0-.3.08-.84.78a1.243,1.243,0,0,1-1.18.6h-.74c-.52,0-.52-.36-.52-1.1,0-1.34-.06-7.2-.06-8.4,0-.36.04-.66.58-.66h2.78c.64,0,1.06,0,1.06-.26,0-.38-1.4-1.68-1.68-1.68-.18,0-.24.08-.82.86-.42.56-.52.56-1.46.56-.48,0-.48-.38-.48-.62,0-.54.06-3.86.18-4.14.04-.1.44-.44.44-.54,0-.34-.42-.44-.6-.5-.14-.04-1.38-.42-1.44-.42-.12,0-.16.04-.16.14,0,.16.12.86.12,1.02.1,1.5.14,2.4.14,4.24,0,.56-.04.82-.52.82-.68,0-2.3-.08-2.5-.08-.1,0-.82-.06-.84-.06s-.06,0-.06.04,0,.04.08.14l.38.46c.08.08.12.12.18.12.08,0,.36-.04.42-.04.7-.06,1.86-.06,2.36-.06.48,0,.48.42.48.62,0,1.04-.04,8.74-.08,9.1-.04.44-.4.44-.58.44h-.78C30.94.22,29.9.18,29.32.16c-.14,0-.76-.08-.88-.08a.064.064,0,0,0-.06.06c0,.02,0,.02.08.12ZM22.3-11.52c.06.08.1.12.18.12.06,0,.36-.04.42-.04.7-.04,1.54-.06,2.32-.06h1.4c.18,0,.32.02.32.2,0,.58-2.82,4.08-3.62,4.9a20.128,20.128,0,0,0-1.74,1.78c0,.06.06.06.1.06.52,0,3.12-2.26,3.32-2.26s.2.34.2.56c0,2.36-.08,4.44-.12,5.92C25.08-.12,25,.8,25,1c0,.28.12.48.6.48A.954.954,0,0,0,26.66.56c0-.28-.1-1.52-.1-1.78,0-.82-.02-4.52-.02-5.28,0-.24,0-.52.18-.52.38,0,1.04,1.02,1.16,1.24.52,1.06.74,1.46,1.22,1.46.36,0,.7-.3.7-.92,0-1.52-1.88-2.06-2.56-2.22-.48-.1-.66-.14-.66-.56,0-.36.06-.42.64-1.02a23.021,23.021,0,0,1,1.86-2c.06-.02.34-.08.4-.1a.3.3,0,0,0,.22-.26c0-.12-.04-.16-.48-.58-.06-.04-.48-.54-.72-.78a.378.378,0,0,0-.28-.14c-.18,0-.76.6-.9.68a.712.712,0,0,1-.48.14c-.2,0-.32-.04-.32-.32v-1.68c0-.84,0-.94.1-1.12.04-.08.4-.38.4-.46,0-.14-.12-.22-.22-.28a15.376,15.376,0,0,0-1.8-.54c-.02,0-.08,0-.08.04,0,.12.1.58.1.68.06.76.08,1.94.08,2.24,0,1.34,0,1.48-.56,1.48-.42,0-2.26-.12-2.64-.12-.02,0-.08,0-.08.04,0,.02.02.04.1.14ZM57.12-2.26c.18,0,.58,0,.58.48,0,1.58-.02,1.58-.24,1.7a3.917,3.917,0,0,1-1.2.3c-.1,0-.24.04-.24.12s.46.24.54.28a2.23,2.23,0,0,1,.7.64c.06.1.12.18.22.18.3,0,1.6-.58,1.6-1.68,0-.66-.12-3.56-.12-4.14a17.762,17.762,0,0,1,.08-2.16c.02-.02.2-.22.32-.34a.425.425,0,0,0,.14-.3c0-.2-.08-.26-.42-.46-.7-.38-.78-.42-.92-.42-.16,0-.22.04-.48.34a.736.736,0,0,1-.6.22H52.66a2.077,2.077,0,0,1-.68-.1c-.18-.02-.98-.36-1.16-.36-.14,0-.16.06-.16.22,0,.32.06,1.7.06,2,0,1.68-.02,3.54-.1,5.22,0,.22-.1,1.2-.1,1.4,0,.46.08.54.42.54a.936.936,0,0,0,1-1.04c0-.28,0-2.2.02-2.28.08-.32.32-.36.58-.36Zm0-4.7c.56,0,.56.26.56,1.28,0,.48-.42.48-.56.48h-4.6C52-5.2,52-5.56,52-6.04c0-.58,0-.92.56-.92Zm.02,2.28c.56,0,.56.22.56,1.2,0,.38,0,.68-.58.68H52.54c-.58,0-.58-.3-.58-.64,0-.88,0-1.24.52-1.24Zm-12.6-7.36c-.06,0-.12.1-.14.3a4.2,4.2,0,0,1-.82,2.28c-.58.68-.68.78-.68,1.12a.67.67,0,0,0,.68.66c.84,0,1.32-1.22,1.32-2.58C44.9-10.76,44.78-12.04,44.54-12.04Zm3.16-4c-.02-.14-.12-.24-.44-.3-.2-.04-1.4-.26-1.48-.26s-.08.08-.08.18c0,.02.02.4.04.6.1,1.62.12,1.9.12,3.22,0,2.5-.14,7.9-.22,10.8,0,.4-.12,2.34-.12,2.8,0,.34.14.5.36.5S46.94,1.28,47,.76v-7.6c0-.98.14-7.18.16-8.04a.874.874,0,0,1,.28-.7A.585.585,0,0,0,47.7-16.04Zm4.88,6.4c-1.14,0-2.18-.04-2.76-.08-.14,0-.74-.06-.88-.06-.02,0-.06,0-.06.04s0,.04.08.14l.38.46c.08.08.12.12.18.12.08,0,.36-.04.42-.04.7-.06,2.06-.06,2.54-.06h7.58c.68,0,1.08,0,1.08-.26a3.447,3.447,0,0,0-1.44-1.2c-.2,0-.24.06-.64.6-.24.34-.34.34-1.28.34H55.92c-.58,0-.58-.3-.58-.88,0-.76,0-1.06.58-1.06h3.16c.66,0,1.08,0,1.08-.26,0-.36-1.4-1.16-1.6-1.16-.16,0-.6.64-.72.74-.16.16-.26.16-1.1.16h-.82c-.58,0-.58-.36-.58-.8,0-.92,0-1.18.6-1.18h3.3c.66,0,1.06,0,1.06-.26,0-.28-1.16-1.14-1.32-1.14s-.56.64-.66.72c-.18.16-.28.16-1.12.16H55.96c-.18,0-.6,0-.6-.5a1.248,1.248,0,0,1,.16-.56,2.6,2.6,0,0,0,.36-.5c0-.22-.22-.28-.34-.3a7.358,7.358,0,0,0-1.46-.24c-.08,0-.08.04-.08.1,0,.1.1.6.1.7,0,1.12,0,1.3-.58,1.3h-.68c-1.14,0-2.18-.04-2.76-.08-.14,0-.74-.06-.88-.06-.02,0-.06,0-.06.04s0,.04.08.14l.38.46c.08.08.12.12.18.12.08,0,.36-.04.42-.04.7-.06,2.06-.06,2.54-.06h.76c.2,0,.62,0,.62.5,0,1.18,0,1.48-.5,1.48-.38,0-2.46-.06-2.6-.08-.12,0-.62-.06-.72-.06-.02,0-.08,0-.08.04s.02.06.1.14l.38.46c.06.08.1.12.18.12.06,0,.36-.04.42-.04.52-.04,1.9-.06,2.04-.06.52,0,.72.08.72.56,0,1.24,0,1.38-.6,1.38Zm-4.84-3.24c-.14-.04-.22.02-.22.12a.671.671,0,0,0,.08.28,3.782,3.782,0,0,1,.38,1.1c.2,1.3.22,1.44.7,1.44.44,0,.8-.4.8-1.04C49.48-11.98,48.04-12.82,47.74-12.88ZM75.92-8.32c-.34,0-.7,0-.7-.58,0-.22.02-4.94.04-5.32.02-.54.32-.56.74-.56h2.9c.74,0,.78.1.78,1.02,0,.88,0,1.72-.04,2.06-.06.58-.2.58-1.48.58-.08,0-.28,0-.28.06,0,.08.66.62.9.88a6.913,6.913,0,0,0,.44.62.4.4,0,0,0,.26.12,2.356,2.356,0,0,0,1.16-.82c.32-.46.32-.9.32-2.64,0-.74,0-1.24.22-1.4.36-.26.4-.3.4-.46a2.294,2.294,0,0,0-1.4-1.42c-.14,0-.2.06-.7.64-.18.2-.22.22-.46.22H75.8a1.345,1.345,0,0,1-.8-.2,3.727,3.727,0,0,0-1.1-.38c-.06,0-.06.08-.06.14,0,.16.06.92.08,1.08.04,1.32.04,6.14.04,7.8,0,1.84-.08,5.26-.16,6.9-.02.22-.02.62-.02.76,0,.46.1.76.48.76a.963.963,0,0,0,.98-.92c.02-.86.1-.9.78-1.34a19.212,19.212,0,0,0,1.56-1.16c.08-.06.2-.18.3-.18.12,0,.2.1.38.32A9.891,9.891,0,0,0,80.28.24,4.034,4.034,0,0,0,81-.12a3.073,3.073,0,0,1,1.32-.3c.04,0,.16-.02.16-.12,0-.06-.06-.1-.64-.36a6.787,6.787,0,0,1-2.96-2.28c0-.12.66-1.24.78-1.48a20.806,20.806,0,0,1,1.12-2.22c.08-.06.5-.28.58-.32a.368.368,0,0,0,.16-.28c0-.38-1.2-1.08-1.3-1.08a3.263,3.263,0,0,0-.38.18.934.934,0,0,1-.34.06Zm2.8.52c.42,0,.68,0,.68.36,0,.56-.96,3.38-1.32,3.38-.38,0-1.74-2.48-1.74-3.52,0-.14.08-.22.28-.22ZM75.16-4.62c0-.84,0-1.68.02-2.52,0-.42.1-.66.64-.66.1,0,.18.06.2.22a8.263,8.263,0,0,0,.38,2.3c.12.38.98,2.24.98,2.38A5.988,5.988,0,0,1,75.42-.86a.2.2,0,0,1-.22-.2V-2.12C75.2-2.48,75.16-4.22,75.16-4.62Zm-2.6-6.18c.68,0,1.08,0,1.08-.28s-1.38-1.28-1.6-1.28c-.2,0-.84.88-1.04.96-.12.06-.26.08-1.14.08-.42,0-.56-.08-.56-.52v-1.14c0-.52.24-.52.68-.52h1.64c.66,0,1.06,0,1.06-.28a2.88,2.88,0,0,0-1.4-1.2c-.2,0-.24.06-.68.62a.783.783,0,0,1-.78.32c-.36,0-.52-.12-.52-.5a2.367,2.367,0,0,1,.1-.86,3.114,3.114,0,0,0,.32-.56c0-.38-1.68-.72-1.78-.72-.06,0-.06.02-.06.08,0,.22.16,1.72.16,2.02,0,.34-.08.54-.5.54-.26,0-1.72-.08-1.88-.08-.1,0-.62-.04-.72-.04-.06,0-.08,0-.08.04,0,.02.02.04.08.12l.4.46c.06.1.1.14.18.14.04,0,.24-.04.28-.04.44-.06,1.4-.06,1.76-.06.42,0,.5.2.5.56v1.08c0,.54-.12.54-1.06.54-.38,0-1.92-.06-2.22-.08-.14,0-.78-.06-.92-.06-.04,0-.06,0-.06.04s0,.04.08.14l.38.46c.08.08.12.12.18.12s.36-.04.42-.04c.7-.06,2.08-.06,2.54-.06ZM67.72-7.96a1.983,1.983,0,0,0-.92-1.8,3.317,3.317,0,0,0-.84-.52c-.06,0-.1.02-.1.06a1.938,1.938,0,0,0,.06.22,6.263,6.263,0,0,1,.44,1.7c.1.9.12,1.18.6,1.18S67.72-7.68,67.72-7.96ZM64.56-6.28c.06.1.1.14.18.14.06,0,.36-.04.42-.04.36-.04,1.32-.06,1.7-.06.9,0,1.1,0,1.1.52,0,1.84,0,1.92-.52,1.92-.4,0-2.3-.14-2.74-.14-.04,0-.06,0-.06.04s.04.08.08.14l.38.46c.08.08.12.12.18.12s.34-.04.4-.04c.46-.04,1.14-.06,1.6-.06.34,0,.64.08.64.6,0,.44-.12,3.2-.12,3.62,0,.26.04.54.42.54A1.117,1.117,0,0,0,69.32.26c0-.4-.06-2.48-.06-2.94,0-.6.38-.6.74-.6h2.12c.64,0,1.08,0,1.08-.26,0-.18-1.04-1.34-1.42-1.34-.16,0-.22.06-.66.74-.22.34-.4.34-1.12.34-.48,0-.68,0-.74-.34V-5.68c0-.5.18-.56.6-.56h2.46c.96,0,1.06,0,1.06-.26,0-.3-1.1-1.24-1.4-1.24-.16,0-.2.06-.62.64-.24.34-.34.34-1.32.34a.188.188,0,0,1-.2-.2,5.722,5.722,0,0,1,1.52-2.2c.3-.24.36-.28.36-.42,0-.52-1.44-1.02-1.5-1.02-.08,0-.12.02-.14.14-.04.24-.12,1.4-.16,1.66-.32,2.04-.48,2.04-1.06,2.04H67.32c-.54,0-1.68-.06-2.26-.08-.12,0-.76-.06-.9-.06-.04,0-.08,0-.08.04,0,.02.02.04.1.14Z" transform="translate(-0.72 16.98)" fill="#4a4a4a"/>
</svg>
