<svg xmlns="http://www.w3.org/2000/svg" width="386.986" height="34.791" viewBox="0 0 386.986 34.791">
  <path id="パス_130445" data-name="パス 130445" d="M31.416-9.027c-2.6,5.049-5.355,7.854-10.4,7.854-7.65,0-13.107-6.477-13.107-15.963,0-7.7,4.437-14.841,12.75-14.841,5.253,0,8.466,2.091,9.843,7.6l1.581-.357c-.306-2.805-.663-4.947-1.071-7.8a39.761,39.761,0,0,0-9.027-1.377c-11.577,0-19.788,7.089-19.788,17.8C2.193-8.058,7.8.765,20.655.765A43.528,43.528,0,0,0,30.039-.612a55.416,55.416,0,0,0,2.907-7.854ZM54.927-33.915c-10.863,0-17.289,8.568-17.289,17.646C37.638-6.477,44.982.765,54.366.765S71.5-5.967,71.5-16.983A16.432,16.432,0,0,0,54.927-33.915Zm-1.02,1.887c6.579,0,11.883,5.763,11.883,16.422,0,9.741-4.845,14.484-10.353,14.484-7.089,0-12.087-7.089-12.087-16.473C43.35-27.03,48.348-32.028,53.907-32.028ZM117.861,0V-1.479c-4.335-.408-4.539-.714-4.641-6.018l-.51-18.513c-.153-5.049.153-5.2,4.59-5.661V-33.15h-8.976L96.849-8.211,85.578-33.15H76.806v1.479c4.59.459,4.9.765,4.437,7.242l-.765,10.506c-.357,5.355-.714,7.65-.969,9.384-.357,2.091-1.377,2.7-4.284,3.009V0H87.159V-1.53c-3.417-.306-4.59-.714-4.692-3.111-.051-1.938-.051-4.233.153-8.415l.714-14.28h.153L94.707-.357h1.071l12.24-27.693h.2l.153,20.6c.051,5.253-.153,5.559-4.233,5.967V0Zm4.794-33.15v1.479c3.723.306,4.182.51,4.182,5V-6.426c0,4.233-.459,4.641-4.488,4.947V0h14.178V-1.479c-4.539-.306-4.947-.612-4.947-4.9v-7.854l3.723.969a11.3,11.3,0,0,0,2.244-.051c5.049-.663,10-3.825,10-10.506a8.489,8.489,0,0,0-3.366-7.242c-2.04-1.479-4.947-2.091-8.619-2.091Zm8.925,4.539c0-1.326.153-1.938.51-2.244a4.236,4.236,0,0,1,2.652-.612c4.029,0,7.446,2.295,7.446,7.854,0,6.528-4.029,8.211-7.089,8.211a10.4,10.4,0,0,1-3.519-.561ZM180.285,0V-1.479c-3.315-.357-4.029-.867-5.61-5.253-3.264-8.823-6.681-18.411-9.843-27.183l-1.785.51L152.541-6.783c-1.785,4.488-2.448,4.845-5.763,5.3V0h11.169V-1.479c-3.825-.408-4.182-.918-3.162-4.029.663-2.091,1.377-4.182,2.142-6.375h10.71c1.071,2.958,2.04,5.559,2.652,7.5.663,2.04.255,2.5-2.907,2.907V0ZM166.872-14.127h-9.129c1.53-4.131,3.06-8.415,4.641-12.648h.153ZM218.943-33.15H206.805v1.479c3.621.2,4.794.918,5.049,3.162a77.207,77.207,0,0,1,.357,8.466V-8.16h-.153L191.1-33.15h-7.9v1.479c2.4.2,3.468.612,4.488,1.887.969,1.224,1.071,1.581,1.071,5.2v11.118a83.835,83.835,0,0,1-.357,8.67c-.255,2.448-1.53,3.111-4.437,3.315V0H196.1V-1.479c-3.519-.2-4.641-.918-4.9-3.417a85.231,85.231,0,0,1-.306-8.568V-26.01h.1L212.619.459h1.734v-20.5c0-4.692.153-6.987.306-8.568.255-2.244,1.428-2.907,4.284-3.06Zm34.068,0H241.638v1.479c3.927.459,4.08.918,2.958,3.366-1.377,3.111-4.131,8.058-5.916,11.373-2.193-3.825-4.59-7.956-6.681-11.934-.918-1.734-1.071-2.3,2.55-2.805V-33.15H221.9v1.479c3.009.306,3.621.867,5.661,4.335,2.805,4.845,4.692,8.211,6.375,11.271a5.138,5.138,0,0,1,1.02,3.009v6.579c0,4.335-.459,4.692-4.947,5V0H244.8V-1.479c-4.641-.306-5.049-.663-5.049-5v-6.885a5.98,5.98,0,0,1,.816-3.264c2.448-4.539,4.131-7.344,6.375-10.965,1.938-3.06,2.6-3.672,6.069-4.08ZM282.948,0V-1.479c-4.08-.306-4.539-.612-4.539-4.947V-26.673c0-4.335.459-4.641,4.539-5V-33.15H269.127v1.479c4.08.357,4.539.663,4.539,5V-6.426c0,4.335-.459,4.641-4.539,4.947V0Zm39.678-33.15H310.488v1.479c3.621.2,4.794.918,5.049,3.162a77.212,77.212,0,0,1,.357,8.466V-8.16h-.153L294.78-33.15h-7.9v1.479c2.4.2,3.468.612,4.488,1.887.969,1.224,1.071,1.581,1.071,5.2v11.118a83.827,83.827,0,0,1-.357,8.67c-.255,2.448-1.53,3.111-4.437,3.315V0h12.138V-1.479c-3.519-.2-4.641-.918-4.9-3.417a85.227,85.227,0,0,1-.306-8.568V-26.01h.1L316.3.459h1.734v-20.5c0-4.692.153-6.987.306-8.568.255-2.244,1.428-2.907,4.284-3.06ZM350.217-25.6c-.2-2.5-.459-5.865-.51-7.548H326.961v1.53c3.927.306,4.335.561,4.335,5V-6.579c0,4.488-.459,4.794-4.437,5.1V0h14.229V-1.479c-4.59-.357-5.049-.612-5.049-5.1v-9.027h5.1c4.59,0,4.9.561,5.508,4.029h1.53V-21.42h-1.53c-.612,3.264-.918,3.723-5.508,3.723h-5.1V-29.631c0-1.53.2-1.683,1.734-1.683h3.672c3.672,0,4.845.408,5.712,1.785a11.5,11.5,0,0,1,1.53,4.131ZM372.5-33.915c-10.863,0-17.289,8.568-17.289,17.646,0,9.792,7.344,17.034,16.728,17.034s17.136-6.732,17.136-17.748A16.432,16.432,0,0,0,372.5-33.915Zm-1.02,1.887c6.579,0,11.883,5.763,11.883,16.422,0,9.741-4.845,14.484-10.353,14.484-7.089,0-12.087-7.089-12.087-16.473C360.927-27.03,365.925-32.028,371.484-32.028Z" transform="translate(-2.143 33.976)" fill="#4a4a4a" stroke="#fff" stroke-width="0.1"/>
</svg>
