<svg xmlns="http://www.w3.org/2000/svg" width="73.729" height="15.827" viewBox="0 0 73.729 15.827">
  <path id="パス_130464" data-name="パス 130464" d="M.765-6.664a16.858,16.858,0,0,0,7.446-5.457c.136-.17.408-.51.476-.51s.1.051.289.408c1.921,3.5,5.542,6,5.916,6,.1,0,.153-.051.221-.17a1.994,1.994,0,0,1,1.088-.7c.425-.136.476-.153.476-.255,0-.085,0-.085-.476-.221-4.029-1.139-7.038-4.913-7.038-5.44,0-.068.017-.119.119-.17.17-.119.2-.136.2-.221,0-.289-1.581-1.037-1.6-1.037-.2,0-.2.068-.34.595-.085.374-1.156,2.4-4.063,4.879C2.38-8.024.986-7.038.867-6.953c-.2.136-.255.17-.255.238C.612-6.63.714-6.647.765-6.664ZM6.358-4.386c.289,0,.51,0,.51.289a11.894,11.894,0,0,1-.884,2.244C5.287-.459,5.168-.459,4.216-.459a9.009,9.009,0,0,1-1-.068c-.1-.017-.629-.119-.748-.119-.051,0-.136,0-.136.119a13.431,13.431,0,0,0,.935,1.8.193.193,0,0,0,.17.119,3.554,3.554,0,0,0,.493-.272A74.419,74.419,0,0,1,11.815-.442c.238,0,.391.051.714.629.306.561.663,1.19,1.156,1.19.323,0,.663-.374.663-.918,0-1.071-1.054-1.683-1.513-1.955A15.812,15.812,0,0,0,10.676-2.55c-.051,0-.119.017-.119.1,0,.2,1,1.071,1,1.326,0,.17-.136.187-1.36.306-1.887.187-3.485.289-3.706.289-.068,0-.306-.017-.306-.17s.17-.323.238-.408c.1-.1.8-.935,1.156-1.411.425-.561.459-.612.595-.663.51-.136.51-.136.51-.289,0-.187-.8-.867-.8-.867,0-.051.068-.051.238-.051h5.2c.8,0,.884,0,.884-.221,0-.153,0-.17-.867-.884-.391-.323-.442-.357-.578-.357-.153,0-.221.1-.476.459-.408.561-.595.561-1.309.561H5.372c-.6,0-1.5-.034-2.329-.068-.1,0-.629-.051-.748-.051-.034,0-.068,0-.068.034,0,.017.051.068.085.119l.323.391c.068.068.085.1.153.1.051,0,.306-.034.357-.034.459-.034.884-.051,2.142-.051ZM7.14-7.548c-.68,0-1.5-.017-2.329-.068-.1,0-.629-.051-.748-.051-.034,0-.051.017-.051.034,0,.034,0,.051.068.119l.323.391c.068.068.1.1.153.1s.306-.034.357-.034c.629-.051,1.122-.051,2.159-.051h3.91c.816,0,.9,0,.9-.187a4.61,4.61,0,0,0-1.292-1.275c-.085,0-.289.255-.561.578-.34.408-.374.442-1.207.442Zm18.9,8.16c.068.085.1.119.153.119S26.5.68,26.554.68C27.149.629,28.288.646,28.7.646h6.035c.561,0,.918,0,.918-.238,0-.289-1.5-1.394-1.649-1.394-.2,0-.255.068-.714.663a1.056,1.056,0,0,1-1,.51h-.629c-.442,0-.442-.306-.442-.935,0-1.139-.051-6.12-.051-7.14,0-.306.034-.561.493-.561h2.363c.544,0,.9,0,.9-.221,0-.323-1.19-1.428-1.428-1.428-.153,0-.2.068-.7.731-.357.476-.442.476-1.241.476-.408,0-.408-.323-.408-.527,0-.459.051-3.281.153-3.519.034-.085.374-.374.374-.459,0-.289-.357-.374-.51-.425-.119-.034-1.173-.357-1.224-.357-.1,0-.136.034-.136.119,0,.136.1.731.1.867.085,1.275.119,2.04.119,3.6,0,.476-.034.7-.442.7-.578,0-1.955-.068-2.125-.068-.085,0-.7-.051-.714-.051s-.051,0-.051.034,0,.034.068.119l.323.391c.068.068.1.1.153.1.068,0,.306-.034.357-.034.595-.051,1.581-.051,2.006-.051.408,0,.408.357.408.527,0,.884-.034,7.429-.068,7.735-.034.374-.34.374-.493.374h-.663c-.952,0-1.836-.034-2.329-.051-.119,0-.646-.068-.748-.068a.054.054,0,0,0-.051.051c0,.017,0,.017.068.1Zm-5.559-10.4c.051.068.085.1.153.1.051,0,.306-.034.357-.034.595-.034,1.309-.051,1.972-.051h1.19c.153,0,.272.017.272.17,0,.493-2.4,3.468-3.077,4.165a17.109,17.109,0,0,0-1.479,1.513c0,.051.051.051.085.051C20.4-3.876,22.61-5.8,22.78-5.8s.17.289.17.476c0,2.006-.068,3.774-.1,5.032,0,.187-.068.969-.068,1.139,0,.238.1.408.51.408a.811.811,0,0,0,.9-.782c0-.238-.085-1.292-.085-1.513,0-.7-.017-3.842-.017-4.488,0-.2,0-.442.153-.442.323,0,.884.867.986,1.054.442.9.629,1.241,1.037,1.241.306,0,.595-.255.595-.782,0-1.292-1.6-1.751-2.176-1.887-.408-.085-.561-.119-.561-.476,0-.306.051-.357.544-.867a19.567,19.567,0,0,1,1.581-1.7c.051-.017.289-.068.34-.085a.256.256,0,0,0,.187-.221c0-.1-.034-.136-.408-.493-.051-.034-.408-.459-.612-.663a.321.321,0,0,0-.238-.119c-.153,0-.646.51-.765.578a.605.605,0,0,1-.408.119c-.17,0-.272-.034-.272-.272v-1.428c0-.714,0-.8.085-.952.034-.068.34-.323.34-.391,0-.119-.1-.187-.187-.238a13.07,13.07,0,0,0-1.53-.459c-.017,0-.068,0-.068.034,0,.1.085.493.085.578.051.646.068,1.649.068,1.9,0,1.139,0,1.258-.476,1.258-.357,0-1.921-.1-2.244-.1-.017,0-.068,0-.068.034,0,.017.017.034.085.119ZM46.648-6.647c.153,0,.442,0,.493.34.068.34.085.425.306.425a.664.664,0,0,0,.714-.663c0-.7-.136-3.791-.136-4.437,0-.153.017-1.139.051-1.207.034-.085.306-.323.306-.391a2.8,2.8,0,0,0-.867-1.105c-.119,0-.425.493-.51.578a.735.735,0,0,1-.527.17h-.34a1.444,1.444,0,0,1-.68-.136c-.2-.085-1.037-.629-1.139-.629-.034,0-.034.034-.034.068,0,.1.051.578.051.68.068,1.377.085,2.924.085,4.318,0,.7-.017,6.749-.085,6.97a.835.835,0,0,1-.646.578c-.476.153-.527.17-.527.272,0,.187.714,1.088.935,1.088.136,0,.153-.051.323-.408A11.3,11.3,0,0,1,46-1.547c.187-.153.935-.935,1.19-1.207a.2.2,0,0,1,.153-.085c.119,0,.153.1.17.17.034.119.17.6.442.6.289,0,.561-.425.561-.833,0-1.139-1.989-2.669-2.38-2.669-.017,0-.051,0-.051.034,0,.17,1.1,1.819,1.1,2.142,0,.255-.1.323-.612.68a4.6,4.6,0,0,1-.952.578c-.255,0-.255-.2-.255-.289,0-.578-.017-3.2-.017-3.723,0-.357.17-.493.527-.493Zm-.1-5.831c.544,0,.544.153.544,1.547,0,.663,0,.9-.544.9H45.9c-.544,0-.544-.119-.544-1.241,0-1,0-1.207.544-1.207ZM46.6-9.571a.437.437,0,0,1,.476.272c.017.068.017,1.632.017,1.836,0,.085,0,.374-.493.374h-.714c-.527,0-.527-.051-.527-1.785,0-.408,0-.7.51-.7Zm7.667,2.55c.51,0,.9,0,.9-.221a4.166,4.166,0,0,0-1.241-1.19c-.153,0-.187.068-.578.663-.187.289-.408.289-.748.289a.4.4,0,0,1-.442-.391c0-.085.34-1.751.374-2.023.051-.357.272-2.108.306-2.346a.454.454,0,0,1,.476-.306h.544c.561,0,.918,0,.918-.221s-1.156-1.173-1.326-1.173-.595.714-.714.816c-.136.136-.221.136-.952.136H51.34c-.7,0-1.462-.034-2.159-.051-.119-.017-.646-.068-.765-.068-.017,0-.051,0-.051.034a.216.216,0,0,0,.068.119l.323.391c.068.068.1.1.153.1.034,0,.187-.017.221-.017a.193.193,0,0,1,.187.2c0,.68-.051,3.672-.051,4.284,0,.255-.1.459-.357.459-.1,0-.612-.068-.663-.068-.034,0-.068.017-.068.051,0,.017.051.051.085.1l.323.391c.051.085.085.119.153.119.034,0,.2-.034.238-.034.255-.017.748-.051,1.343-.051.272,0,.493.017.493.306a13.208,13.208,0,0,1-3.57,6.562,6.349,6.349,0,0,0-.833.731c0,.051.068.085.1.085.391,0,3.6-1.581,4.913-5.9.068-.2.068-.238.136-.238.1,0,.1.119.1.187,0,.221-.085,3.944-.085,4.522,0,1.071.119,1.53,1.479,1.53,1.122,0,1.377-.136,1.649-.357a1.315,1.315,0,0,0,.561-.935c0-.2-.034-.255-.289-.629a4.9,4.9,0,0,1-.391-2.023c0-.136-.051-.2-.085-.2A6.686,6.686,0,0,0,54.2-2.057c-.306,1.8-.408,1.8-.9,1.8-.561,0-.612,0-.612-2.958,0-.306,0-2.38.034-2.516.068-.153.119-.2.391-.442a.244.244,0,0,0,.085-.187c0-.187-.34-.34-.561-.425-.17-.068-.272-.119-.272-.17,0-.068.136-.068.187-.068Zm-3.043-5.525a.373.373,0,0,1,.425.374A34.331,34.331,0,0,1,51.1-7.888c-.034.221-.068.408-.357.408-.238,0-.51-.034-.51-.374,0-.612.051-3.6.051-4.267,0-.255.119-.425.459-.425ZM39.814-10.115c.051.068.085.1.153.1.085,0,.7-.068.833-.068.391,0,.391.306.391.34,0,.425-.765,3.655-.952,4.352-.085.323-.833,2.788-.833,2.839,0,.017,0,.051.034.051a18.518,18.518,0,0,0,1.751-3.2c.068-.136.1-.2.153-.2.153,0,.153.1.153.408,0,.85-.17,5.015-.17,5.95,0,.595.034.748.442.748.8,0,.8-.748.8-1.02,0-.85-.1-5.032-.1-5.984,0-.272.017-1.649.017-1.955,0-.034,0-.255.119-.255.255,0,.629.782.663.884.153.425.221.646.527.646.17,0,.425-.187.425-.595,0-.816-.884-1.173-1.326-1.36-.391-.153-.391-.476-.391-1.19,0-.323.119-.476.544-.476h.6c.272,0,.646,0,.646-.272,0-.2-.68-.935-.952-.935-.1,0-.17.085-.323.289-.068.119-.272.408-.374.408-.068,0-.136-.1-.136-.17s.068-2.006.085-2.057a.511.511,0,0,1,.17-.357c.238-.17.255-.187.255-.289,0-.391-1.428-.629-1.5-.629-.136,0-.17.068-.17.17,0,.119.085.7.1.833,0,.34.017,1.819.017,2.091a.4.4,0,0,1-.442.442c-.221,0-1.309-.085-1.547-.085-.034,0-.068,0-.068.034s.017.034.085.119Zm22.9-1.071a1.822,1.822,0,0,1-.612-.119c-.17-.051-.918-.425-1.037-.425-.068,0-.068.119-.068.17a2.15,2.15,0,0,0,.017.272c.051.476.085,1.309.085,2.091,0,.272-.034,1.6-.034,1.9,0,.289,0,.595.527.595s.629-.408.731-.833c.051-.187.289-.187.442-.187h2.822c.153,0,.306,0,.306.17A7.9,7.9,0,0,1,64.464-5.1a.793.793,0,0,1-.731.323h-1.7c-.8,0-1.513-.017-2.346-.051-.1,0-.629-.068-.748-.068a.045.045,0,0,0-.051.051c0,.017,0,.034.068.1l.323.391c.068.068.1.119.153.119a2.579,2.579,0,0,0,.357-.051c.17,0,.663-.034,2.159-.034h1.479c.357,0,.391,0,.391.085A20.2,20.2,0,0,1,62.577-2.5c-.714.782-.748.816-.748,1.054,0,.289.374.425.612.425.391,0,.6-.17,1.1-.85.272-.357.306-.408.51-.408a8.744,8.744,0,0,1,2.278.748,12.818,12.818,0,0,1-5.423,2.652c-.085.017-.2.051-.2.119s.119.1.238.1A13.571,13.571,0,0,0,67.4-.884a.386.386,0,0,1,.272-.1c.442,0,1.479.7,3.434,2.057a.887.887,0,0,0,.408.119.624.624,0,0,0,.612-.612c0-.833-1.768-1.632-3.145-2.074-.476-.153-.527-.17-.527-.221,0-.068.1-.17.136-.2.187-.187,1.02-1.122,1.224-1.326.085-.068.6-.408.6-.544,0-.119-.051-.136-.476-.357-.153-.085-.17-.085-.17-.136,0-.034.017-.034.153-.034H73.44c.561,0,.9,0,.9-.238,0-.272-1.649-1.309-1.717-1.309-.187,0-.731.833-.9.969-.1.085-.136.119-.85.119H66.13c-.238,0-.374,0-.374-.136A8.17,8.17,0,0,1,67.1-6.664c.442-.238.493-.289.493-.408,0-.153-.782-.544-.782-.6s.017-.051.187-.051h3.621c.17,0,.357,0,.408.289.051.357.051.391.357.391A.786.786,0,0,0,72.2-7.6c.017-.017.017-1.224.017-1.326a8.671,8.671,0,0,1,.068-1.36c.034-.085.34-.408.34-.493,0-.306-1.088-.986-1.19-.986s-.408.408-.493.476a.636.636,0,0,1-.408.1H69.241c-.425,0-.425-.323-.425-.527,0-.782,0-1.088.442-1.088H72.9c.561,0,.9,0,.9-.238a4.807,4.807,0,0,0-1.683-1.207c-.153,0-.2.068-.714.714-.221.289-.306.289-1.071.289H62.594c-.8,0-1.5-.034-2.329-.068-.119,0-.629-.051-.748-.051-.051,0-.068,0-.068.034s.017.034.068.119l.34.391c.051.068.085.1.153.1.051,0,.289-.034.357-.034.153-.017.646-.051,2.142-.051H64c.493,0,.493.17.493,1.054,0,.272,0,.561-.493.561Zm4.743.442a.394.394,0,0,1,.425.442c0,.255.017,1.8-.034,1.9a.445.445,0,0,1-.459.221H65.96c-.493,0-.51-.119-.51-1.275s.017-1.292.527-1.292ZM67.439-12.8c.442,0,.442.255.442,1.071,0,.153,0,.544-.442.544H65.994c-.51,0-.51-.289-.51-.6,0-.8,0-1.02.493-1.02Zm3.179,2.057c.442,0,.442.255.442,1.173,0,1.19,0,1.394-.442,1.394H69.241c-.442,0-.442-.255-.442-1.173,0-1.19,0-1.394.442-1.394Zm-6.63,0c.51,0,.51.017.51,1.632,0,.68,0,.935-.51.935H62.73c-.493,0-.493-.051-.493-1.768,0-.442,0-.8.459-.8Zm4.5,6.426c.085,0,.187,0,.187.136s-1.343,2.091-1.836,2.091c-.034,0-1.989-.374-2.312-.425-.34-.051-.374-.051-.374-.153,0-.085.816-1.224.9-1.343a.753.753,0,0,1,.731-.306Z" transform="translate(-0.612 14.433)" fill="#fff"/>
</svg>
