<svg xmlns="http://www.w3.org/2000/svg" width="183.618" height="25.94" viewBox="0 0 183.618 25.94">
  <path id="パス_130463" data-name="パス 130463" d="M22.192-6.726C19.95-3.268,17.67-.8,14.022-.8,9.2-.8,6.536-4.978,6.536-10.45c0-7.106,4.522-13.414,10.982-13.414,3.61,0,5.586,1.292,5.89,5.852l1.178-.114c.152-1.9.228-3.99.3-5.928a18.67,18.67,0,0,0-6.536-1.216C9.576-25.27,2.47-19.418,2.47-10.336,2.47-3.268,7.258.57,13.642.57a27.382,27.382,0,0,0,6.574-.95,46.329,46.329,0,0,0,3-5.814ZM41.61-25.27c-7.98,0-13.87,7.106-13.87,15.048C27.74-3.762,31.882.57,37.886.57c8.132,0,13.908-6.84,13.908-14.934C51.794-20.748,47.728-25.27,41.61-25.27ZM41.344-23.9c4.712,0,6.46,4.028,6.46,9.044C47.8-8.55,44.27-.8,38.19-.8c-4.484,0-6.5-3.914-6.5-8.968C31.692-16.53,35.606-23.9,41.344-23.9Zm45.752-.76H80.712L69.2-6.118c-1.482-6.612-2.736-12.464-3.99-18.544H58.634l-.3,1.064c3.534.3,3.762.646,2.66,4.332l-2.2,7.562c-1.368,4.6-2.052,6.764-2.66,8.284-.646,1.634-1.406,2.166-3.534,2.356L52.326,0h8.588l.228-1.064c-2.736-.266-3.116-.722-2.85-2.394a70.324,70.324,0,0,1,1.748-7.258l2.736-9.88h.114c1.368,7.258,2.584,13.68,3.762,20.444h.912l12.35-20.786h.114c-.8,5.244-1.634,10.184-2.47,15.77-.57,3.61-.76,3.8-3.61,4.1L73.682,0h9.842l.228-1.064c-3-.3-3.23-.418-2.774-4.1.646-4.978,1.216-9.424,2.052-14.934.456-3.078.57-3.23,3.8-3.5Zm4.522,0L91.352-23.6c3,.3,3.192.532,2.622,3.534L90.934-4.75c-.646,3.192-.912,3.382-3.8,3.686L86.868,0H97.242l.228-1.064c-3.458-.3-3.724-.532-3.116-3.686l1.14-5.966,2.584.8c.418,0,.912,0,1.406-.038,4.294-.3,9.082-2.926,9.082-8.284,0-4.332-2.926-6.422-8.17-6.422Zm5.89,3.382c.228-1.216.494-1.634.912-1.824a3.607,3.607,0,0,1,1.6-.3c3.116,0,4.826,1.824,4.826,4.978,0,4.864-3.572,6.954-6.384,6.954a7.333,7.333,0,0,1-2.7-.494Zm32.3,20.216c-2.66-.3-2.888-.608-3.382-3.458-.836-4.636-1.672-9.462-2.47-14.4l-.988-6.308-1.33.342L110.314-4.864c-1.824,3.268-2.242,3.458-4.56,3.8L105.45,0H113.7l.266-1.064c-2.926-.266-3.154-.57-2.09-2.736.8-1.71,1.862-3.762,2.546-5.016h7.828c.342,2.09.646,3.838.874,5.4.228,1.672.076,2.09-2.508,2.356L120.308,0h9.234Zm-7.828-9.424h-6.726c1.634-3.154,3.382-6.232,5.168-9.576h.076Zm39.368-14.174h-8.626l-.3,1.064c2.774.152,3.458.57,3.306,2.356a58.78,58.78,0,0,1-.988,6.5l-1.71,9.082h-.114l-10.982-19h-5.738l-.266,1.064c2.014.114,2.736.342,3.192,1.14.456.836.608,1.444.19,3.534l-1.9,9.044c-.76,3.534-1.178,5.244-1.6,6.536-.494,1.672-1.368,2.166-3.344,2.28L132.2,0h8.816l.228-1.064c-2.66-.19-3.344-.608-3.23-2.356a48.972,48.972,0,0,1,.95-6.384l1.938-9.88h.114L152.19.3h1.292l2.85-15.048a64.513,64.513,0,0,1,1.482-6.46c.494-1.672.988-2.28,3.306-2.394Zm24.624,0h-8.246l-.3,1.064,1.1.152c1.444.228,1.672.532.874,1.862-1.482,2.508-4.142,6.308-5.928,8.816-1.064-2.66-2.584-6.878-3.344-9.006-.342-1.14-.266-1.444.988-1.634l1.292-.19.266-1.064h-9.006l-.3,1.064c2.394.266,2.66.456,3.534,2.774,1.482,3.914,2.394,6.422,3.23,8.74a3.44,3.44,0,0,1,.19,2.28l-.988,5.016c-.646,3.268-.912,3.5-4.028,3.724L165.034,0h10.488l.266-1.064c-3.382-.3-3.686-.494-3.04-3.724l1.064-5.244a5.641,5.641,0,0,1,.95-2.2c2.47-3.534,4.446-6.346,6.118-8.436,1.938-2.432,2.394-2.66,4.788-2.926Z" transform="translate(-2.42 25.32)" fill="#fff" stroke="#fff" stroke-width="0.1"/>
</svg>
