<svg xmlns="http://www.w3.org/2000/svg" xmlns:xlink="http://www.w3.org/1999/xlink" width="72" height="22" viewBox="0 0 72 22">
  <defs>
    <clipPath id="clip-path">
      <rect id="長方形_38822" data-name="長方形 38822" width="72" height="22" transform="translate(363 2986)" fill="#fff"/>
    </clipPath>
  </defs>
  <g id="マスクグループ_26612" data-name="マスクグループ 26612" transform="translate(-363 -2986)" clip-path="url(#clip-path)">
    <path id="パス_130475" data-name="パス 130475" d="M3.63-16.434l.726.693c.99-1.287,2.475-2.937,4.521-2.937,2.442,0,3.432,1.518,3.432,3.5,0,2.871-2.541,5.709-5.643,8.712C4.488-4.389,2.211-2.442.165-.726L.1,0H12.507c.594-1.419,1.155-2.805,1.848-4.257l-.858-.4C12.21-2.772,11.682-2.574,9.834-2.574H4.059L8.778-6.7c3.894-3.3,6.6-5.61,6.6-9.042a4.869,4.869,0,0,0-5.214-5.214A6.442,6.442,0,0,0,5.742-19.14Zm23.5-4.521c-5.907,0-8.844,8.184-8.976,13.332C17.985-3.465,19.305.4,23.331.4c5.973,0,8.712-8.283,8.877-13.563C32.373-17.028,31.152-20.955,27.126-20.955Zm-.2,1.122c2.046,0,2.376,2.97,2.244,5.643C29.007-9.966,27.258-.726,23.529-.726c-2.046,0-2.475-2.97-2.343-6.006C21.318-11.385,23.133-19.833,26.928-19.833Zm18.579-1.122a26.155,26.155,0,0,1-6.435,1.716l-.2.858L40-18.348c1.914,0,2.145.231,1.716,2.211L39.336-4.059c-.528,2.739-.693,2.871-3.63,3.168l-.2.891h9.273l.231-.891c-3.168-.264-3.3-.462-2.772-3.168Zm8.184,3.828.693.726c.957-1.188,2.178-2.541,3.96-2.541A2.516,2.516,0,0,1,61.083-16.2c0,2.574-2.706,4.059-6.2,5.049l.2.924a7.977,7.977,0,0,1,1.881-.264,3.637,3.637,0,0,1,3.762,3.96c0,3.564-2.013,5.247-4.521,5.247a5.592,5.592,0,0,1-4.125-2.046.454.454,0,0,0-.693-.033,2.17,2.17,0,0,0-.957,1.221,1.54,1.54,0,0,0,.693,1.386A5.1,5.1,0,0,0,54.351.4,11.334,11.334,0,0,0,60.225-1.65c2.409-1.65,3.663-3.63,3.663-5.808a4.831,4.831,0,0,0-3.894-4.719v-.066a21.172,21.172,0,0,0,2.541-1.683,3.76,3.76,0,0,0,1.551-3c0-2.211-1.683-4.026-4.455-4.026a6.09,6.09,0,0,0-4.323,1.782Z" transform="translate(363 3007)" fill="#8e8e8e" stroke="#fff" stroke-width="0.1"/>
  </g>
</svg>
