<?xml version="1.0" encoding="UTF-8"?>
<svg xmlns="http://www.w3.org/2000/svg" version="1.1" viewBox="0 0 72 22">
  <defs>
    <style>
      .cls-1 {
        fill: #8e8e8e;
        stroke: #fff;
        stroke-width: .1px;
      }
    </style>
  </defs>
  <!-- Generator: Adobe Illustrator 28.7.1, SVG Export Plug-In . SVG Version: 1.2.0 Build 142)  -->
  <g>
    <g id="_レイヤー_1" data-name="レイヤー_1">
      <path id="_パス_130966" data-name="パス_130966" class="cls-1" d="M6.5,4.9l.7.7c1-1.3,2.5-2.9,4.5-2.9s3.4,1.5,3.4,3.5c0,2.9-2.5,5.7-5.6,8.7-2.2,2.1-4.5,4-6.5,5.7v.7c0,0,12.3,0,12.3,0,.6-1.4,1.2-2.8,1.8-4.3l-.9-.4c-1.3,1.9-1.8,2.1-3.7,2.1h-5.8l4.7-4.1c3.9-3.3,6.6-5.6,6.6-9,.2-2.7-1.8-5-4.5-5.2-.2,0-.5,0-.7,0-1.7,0-3.2.7-4.4,1.8l-2.1,2.7ZM30,.3c-5.9,0-8.8,8.2-9,13.3-.2,4.2,1.2,8,5.2,8,6,0,8.7-8.3,8.9-13.6.2-3.9-1.1-7.8-5.1-7.8h0ZM29.8,1.5c2,0,2.4,3,2.2,5.6-.2,4.2-1.9,13.5-5.6,13.5s-2.5-3-2.3-6c.1-4.7,1.9-13.1,5.7-13.1h0ZM48.4.3c-2.1.8-4.2,1.4-6.4,1.7l-.2.9h1.1c1.9,0,2.1.3,1.7,2.2l-2.4,12.1c-.5,2.7-.7,2.9-3.6,3.2l-.2.9h9.3l.2-.9c-3.2-.3-3.3-.5-2.8-3.2L48.4.3ZM56,4.9l.7.7c1-1.3,2.5-2.9,4.5-2.9s3.4,1.5,3.4,3.5c0,2.9-2.5,5.7-5.6,8.7-2.2,2.1-4.5,4-6.5,5.7v.7c0,0,12.3,0,12.3,0,.6-1.4,1.2-2.8,1.8-4.3l-.9-.4c-1.3,1.9-1.8,2.1-3.7,2.1h-5.8l4.7-4.1c3.9-3.3,6.6-5.6,6.6-9,.2-2.7-1.8-5-4.5-5.2-.2,0-.5,0-.7,0-1.7,0-3.2.7-4.4,1.8l-2.1,2.7Z"/>
    </g>
  </g>
</svg>