<?xml version="1.0" encoding="UTF-8"?>
<svg xmlns="http://www.w3.org/2000/svg" version="1.1" viewBox="0 0 72 22">
  <defs>
    <style>
      .cls-1 {
        fill: #8e8e8e;
        stroke: #fff;
        stroke-width: .1px;
      }
    </style>
  </defs>
  <!-- Generator: Adobe Illustrator 28.7.1, SVG Export Plug-In . SVG Version: 1.2.0 Build 142)  -->
  <g>
    <g id="_レイヤー_1" data-name="レイヤー_1">
      <path id="_パス_130963" data-name="パス_130963" class="cls-1" d="M13.1.4c-2.1.8-4.2,1.4-6.4,1.7l-.2.9h1.1c1.9,0,2.1.3,1.7,2.2l-2.4,12.1c-.5,2.7-.7,2.9-3.6,3.2l-.2.9h9.3l.2-.9c-3.2-.3-3.3-.5-2.8-3.2L13.1.4ZM27.2.4c-4.1.2-7.3,3.5-7.3,7.5,0,3.3,2.3,5.5,5,5.5.6,0,1.3-.2,1.8-.5l2.3-1.1c-1.8,4.6-5.8,8-10.7,9v1c1.7-.1,3.2-.4,4.7-1,5.4-2,9.9-7,9.9-13.6S31.3.4,27.2.4ZM26.9,1.5c2.8,0,3.1,3.6,3.1,5.1,0,1.4-.2,2.7-.6,4-.8.5-1.7.8-2.7.9-2.4,0-3.7-1.8-3.7-4.4,0-2.9,1.6-5.6,3.9-5.6ZM50.1.2c-1.5.2-2.9.6-4.3,1-6.4,2-10.7,7.2-10.7,13.7s2.3,6.9,6,6.9c4.2-.1,7.6-3.6,7.5-7.9,0-3.4-2.1-5.7-5.2-5.7-.7,0-1.4.2-2,.6l-2,1h0c1.4-3.4,4.1-6.1,7.5-7.4,1.2-.5,2.4-.9,3.7-1.1l-.2-1.1ZM41.7,10c2.9,0,3.7,2.3,3.7,4.5,0,3.3-1.5,6.2-3.9,6.2s-3.4-2.8-3.4-5.6c0-1.4.2-2.7.7-4,.9-.6,1.9-.9,3-1h0ZM53.7,4.9l.7.7c1-1.3,2.5-2.9,4.5-2.9s3.4,1.5,3.4,3.5c0,2.9-2.5,5.7-5.6,8.7-2.2,2.1-4.5,4-6.5,5.7v.7c0,0,12.3,0,12.3,0,.6-1.4,1.2-2.8,1.8-4.3l-.9-.4c-1.3,1.9-1.8,2.1-3.7,2.1h-5.8l4.7-4.1c3.9-3.3,6.6-5.6,6.6-9,.2-2.7-1.8-5-4.5-5.2-.2,0-.5,0-.7,0-1.7,0-3.2.7-4.4,1.8l-2.1,2.7Z"/>
    </g>
  </g>
</svg>