<svg xmlns="http://www.w3.org/2000/svg" xmlns:xlink="http://www.w3.org/1999/xlink" width="72" height="22" viewBox="0 0 72 22">
  <defs>
    <clipPath id="clip-path">
      <rect id="長方形_38819" data-name="長方形 38819" width="72" height="22" transform="translate(363 2663)" fill="#fff"/>
    </clipPath>
  </defs>
  <g id="マスクグループ_26609" data-name="マスクグループ 26609" transform="translate(-363 -2663)" clip-path="url(#clip-path)">
    <path id="パス_130472" data-name="パス 130472" d="M3.63-16.434l.726.693c.99-1.287,2.475-2.937,4.521-2.937,2.442,0,3.432,1.518,3.432,3.5,0,2.871-2.541,5.709-5.643,8.712C4.488-4.389,2.211-2.442.165-.726L.1,0H12.507c.594-1.419,1.155-2.805,1.848-4.257l-.858-.4C12.21-2.772,11.682-2.574,9.834-2.574H4.059L8.778-6.7c3.894-3.3,6.6-5.61,6.6-9.042a4.869,4.869,0,0,0-5.214-5.214A6.442,6.442,0,0,0,5.742-19.14Zm23.5-4.521c-5.907,0-8.844,8.184-8.976,13.332C17.985-3.465,19.305.4,23.331.4c5.973,0,8.712-8.283,8.877-13.563C32.373-17.028,31.152-20.955,27.126-20.955Zm-.2,1.122c2.046,0,2.376,2.97,2.244,5.643C29.007-9.966,27.258-.726,23.529-.726c-2.046,0-2.475-2.97-2.343-6.006C21.318-11.385,23.133-19.833,26.928-19.833Zm16.7-1.122c-5.907,0-8.844,8.184-8.976,13.332C34.485-3.465,35.805.4,39.831.4c5.973,0,8.712-8.283,8.877-13.563C48.873-17.028,47.652-20.955,43.626-20.955Zm-.2,1.122c2.046,0,2.376,2.97,2.244,5.643C45.507-9.966,43.758-.726,40.029-.726c-2.046,0-2.475-2.97-2.343-6.006C37.818-11.385,39.633-19.833,43.428-19.833Zm21.681-.726H55.6l-2.706,9.7.231.3a9.523,9.523,0,0,1,2.937-.528c3.168,0,4.62,1.881,4.62,4.62,0,3.333-1.782,5.181-4.422,5.181a5.863,5.863,0,0,1-4.257-2.046.529.529,0,0,0-.726-.1,2.072,2.072,0,0,0-.957,1.254,1.485,1.485,0,0,0,.561,1.287A5.507,5.507,0,0,0,54.516.4,10.345,10.345,0,0,0,59.6-1.221c2.64-1.617,4.191-3.927,4.191-6.435,0-2.805-2.112-5.247-5.742-5.247a13.631,13.631,0,0,0-3.465.792L56.4-17.985h7.689Z" transform="translate(363 2684)" fill="#8e8e8e" stroke="#fff" stroke-width="0.1"/>
  </g>
</svg>
