<svg xmlns="http://www.w3.org/2000/svg" xmlns:xlink="http://www.w3.org/1999/xlink" width="72" height="22" viewBox="0 0 72 22">
  <defs>
    <clipPath id="clip-path">
      <rect id="長方形_38824" data-name="長方形 38824" width="72" height="22" transform="translate(363 3153)" fill="#fff"/>
    </clipPath>
  </defs>
  <g id="マスクグループ_26614" data-name="マスクグループ 26614" transform="translate(-363 -3153)" clip-path="url(#clip-path)">
    <path id="パス_130477" data-name="パス 130477" d="M3.63-16.434l.726.693c.99-1.287,2.475-2.937,4.521-2.937,2.442,0,3.432,1.518,3.432,3.5,0,2.871-2.541,5.709-5.643,8.712C4.488-4.389,2.211-2.442.165-.726L.1,0H12.507c.594-1.419,1.155-2.805,1.848-4.257l-.858-.4C12.21-2.772,11.682-2.574,9.834-2.574H4.059L8.778-6.7c3.894-3.3,6.6-5.61,6.6-9.042a4.869,4.869,0,0,0-5.214-5.214A6.442,6.442,0,0,0,5.742-19.14Zm23.5-4.521c-5.907,0-8.844,8.184-8.976,13.332C17.985-3.465,19.305.4,23.331.4c5.973,0,8.712-8.283,8.877-13.563C32.373-17.028,31.152-20.955,27.126-20.955Zm-.2,1.122c2.046,0,2.376,2.97,2.244,5.643C29.007-9.966,27.258-.726,23.529-.726c-2.046,0-2.475-2.97-2.343-6.006C21.318-11.385,23.133-19.833,26.928-19.833Zm9.7,3.4.726.693c.99-1.287,2.475-2.937,4.521-2.937,2.442,0,3.432,1.518,3.432,3.5,0,2.871-2.541,5.709-5.643,8.712-2.178,2.079-4.455,4.026-6.5,5.742L33.1,0H45.507c.594-1.419,1.155-2.805,1.848-4.257l-.858-.4c-1.287,1.881-1.815,2.079-3.663,2.079H37.059L41.778-6.7c3.894-3.3,6.6-5.61,6.6-9.042a4.869,4.869,0,0,0-5.214-5.214,6.442,6.442,0,0,0-4.422,1.815Zm23.5-4.521c-5.907,0-8.844,8.184-8.976,13.332C50.985-3.465,52.305.4,56.331.4c5.973,0,8.712-8.283,8.877-13.563C65.373-17.028,64.152-20.955,60.126-20.955Zm-.2,1.122c2.046,0,2.376,2.97,2.244,5.643C62.007-9.966,60.258-.726,56.529-.726c-2.046,0-2.475-2.97-2.343-6.006C54.318-11.385,56.133-19.833,59.928-19.833Z" transform="translate(363.5 3174)" fill="#8e8e8e" stroke="#fff" stroke-width="0.1"/>
  </g>
</svg>
