<?xml version="1.0" encoding="UTF-8"?>
<svg id="_レイヤー_1" data-name="レイヤー 1" xmlns="http://www.w3.org/2000/svg" version="1.1" viewBox="0 0 72 21.5">
  <defs>
    <style>
      .cls-1 {
        fill: #8e8e8e;
        stroke: #fff;
        stroke-width: .1px;
      }
    </style>
  </defs>
  <path id="_パス_130801" data-name="パス 130801" class="cls-1" d="M3.6,4.6l.7.7c1-1.3,2.5-2.9,4.5-2.9s3.4,1.5,3.4,3.5c0,2.9-2.5,5.7-5.6,8.7-2.2,2.1-4.5,4-6.5,5.7v.7c0,0,12.3,0,12.3,0,.6-1.4,1.2-2.8,1.8-4.3l-.9-.4c-1.3,1.9-1.8,2.1-3.7,2.1h-5.8l4.7-4.1c3.9-3.3,6.6-5.6,6.6-9C15.5,2.6,13.5.2,10.8,0c-.2,0-.5,0-.7,0-1.7,0-3.2.7-4.4,1.8l-2.1,2.7ZM27.1,0c-5.9,0-8.8,8.2-9,13.3-.2,4.2,1.2,8,5.2,8,6,0,8.7-8.3,8.9-13.6.2-3.9-1.1-7.8-5.1-7.8h0ZM26.9,1.2c2,0,2.4,3,2.2,5.6-.2,4.2-1.9,13.5-5.6,13.5s-2.5-3-2.3-6c.1-4.7,1.9-13.1,5.7-13.1h0ZM36.6,4.6l.7.7c1-1.3,2.5-2.9,4.5-2.9s3.4,1.5,3.4,3.5c0,2.9-2.5,5.7-5.6,8.7-2.2,2.1-4.5,4-6.5,5.7v.7c0,0,12.3,0,12.3,0,.6-1.4,1.2-2.8,1.8-4.3l-.9-.4c-1.3,1.9-1.8,2.1-3.7,2.1h-5.8l4.7-4.1c3.9-3.3,6.6-5.6,6.6-9,.2-2.7-1.8-5-4.5-5.2-.2,0-.5,0-.7,0-1.7,0-3.2.7-4.4,1.8l-2.1,2.7ZM64.8,13.6h-3.1L64.3.2h-1.6c-4.1,4.1-8.5,9.2-12.3,13.9l-.2,1h8.5l-.4,2.1c-.5,2.4-.6,2.6-3.5,2.9l-.2.9h8.6l.2-.9c-2.5-.3-2.7-.5-2.2-2.9l.4-2.1h3.1l.3-1.5ZM61,3.6l-2.1,10h-6.3c2.7-3.5,5.4-6.8,8.4-10h.1Z"/>
</svg>