<svg xmlns="http://www.w3.org/2000/svg" xmlns:xlink="http://www.w3.org/1999/xlink" width="72" height="22" viewBox="0 0 72 22">
  <defs>
    <clipPath id="clip-path">
      <rect id="長方形_38816" data-name="長方形 38816" width="72" height="22" transform="translate(363 2385)" fill="#fff"/>
    </clipPath>
  </defs>
  <g id="マスクグループ_26606" data-name="マスクグループ 26606" transform="translate(-363 -2385)" clip-path="url(#clip-path)">
    <path id="パス_130469" data-name="パス 130469" d="M12.507-20.955a26.155,26.155,0,0,1-6.435,1.716l-.2.858L7-18.348c1.914,0,2.145.231,1.716,2.211L6.336-4.059C5.808-1.32,5.643-1.188,2.706-.891L2.508,0h9.273l.231-.891c-3.168-.264-3.3-.462-2.772-3.168Zm14.157,0a7.587,7.587,0,0,0-7.293,7.524c0,3.333,2.277,5.511,5.016,5.511a4.69,4.69,0,0,0,1.848-.462l2.31-1.089A14.35,14.35,0,0,1,17.886-.495l.132.99a16.542,16.542,0,0,0,4.521-.957c5.445-2.013,9.9-7,9.9-13.563C32.439-17.49,30.723-20.955,26.664-20.955ZM26.3-19.833c2.838,0,3.135,3.564,3.135,5.148a12,12,0,0,1-.627,3.993,5.257,5.257,0,0,1-2.706.858c-2.442,0-3.663-1.815-3.663-4.389C22.44-17.16,24.024-19.833,26.3-19.833Zm23.991-.726H37.752A40.838,40.838,0,0,1,36.3-15.807l.924.3c1.155-2.178,1.551-2.475,3.564-2.475h6.963A167.678,167.678,0,0,1,34.914,0l.2.4L37.95.033c4.158-6.765,8.547-13.563,12.573-20.2ZM66-21.153a28.961,28.961,0,0,0-4.29.99C55.308-18.15,50.985-12.969,50.985-6.5c0,3.993,2.277,6.9,5.973,6.9a7.74,7.74,0,0,0,7.491-7.854c0-3.4-2.079-5.709-5.247-5.709a5.46,5.46,0,0,0-2.013.561l-2.046.99-.033-.066a13.229,13.229,0,0,1,7.458-7.326A17.238,17.238,0,0,1,66.231-20.1Zm-8.316,9.8c2.871,0,3.7,2.31,3.7,4.455,0,3.3-1.518,6.171-3.927,6.171-2.376,0-3.4-2.772-3.4-5.61a10.9,10.9,0,0,1,.66-4.026A6.1,6.1,0,0,1,57.684-11.352Z" transform="translate(363 2406.5)" fill="#8e8e8e" stroke="#fff" stroke-width="0.1"/>
  </g>
</svg>
