<svg xmlns="http://www.w3.org/2000/svg" xmlns:xlink="http://www.w3.org/1999/xlink" width="72" height="22" viewBox="0 0 72 22">
  <defs>
    <clipPath id="clip-path">
      <rect id="長方形_38817" data-name="長方形 38817" width="72" height="22" transform="translate(363 2471)" fill="#fff"/>
    </clipPath>
  </defs>
  <g id="マスクグループ_26607" data-name="マスクグループ 26607" transform="translate(-363 -2471)" clip-path="url(#clip-path)">
    <path id="パス_130470" data-name="パス 130470" d="M12.507-20.955a26.155,26.155,0,0,1-6.435,1.716l-.2.858L7-18.348c1.914,0,2.145.231,1.716,2.211L6.336-4.059C5.808-1.32,5.643-1.188,2.706-.891L2.508,0h9.273l.231-.891c-3.168-.264-3.3-.462-2.772-3.168Zm14.157,0a7.587,7.587,0,0,0-7.293,7.524c0,3.333,2.277,5.511,5.016,5.511a4.69,4.69,0,0,0,1.848-.462l2.31-1.089A14.35,14.35,0,0,1,17.886-.495l.132.99a16.542,16.542,0,0,0,4.521-.957c5.445-2.013,9.9-7,9.9-13.563C32.439-17.49,30.723-20.955,26.664-20.955ZM26.3-19.833c2.838,0,3.135,3.564,3.135,5.148a12,12,0,0,1-.627,3.993,5.257,5.257,0,0,1-2.706.858c-2.442,0-3.663-1.815-3.663-4.389C22.44-17.16,24.024-19.833,26.3-19.833Zm17.061-1.122c-3.465,0-6.369,2.541-6.369,5.676a5.761,5.761,0,0,0,2.706,4.62,40.384,40.384,0,0,0-3.63,2.442,4.306,4.306,0,0,0-1.815,3.465C34.254-1.419,37.092.4,40.227.4c3.96,0,7.326-2.772,7.326-6.2,0-2.409-1.584-3.828-3.663-5.379,1.815-1.155,2.508-1.716,3-2.079a4.228,4.228,0,0,0,1.485-3.1C48.378-19.272,45.936-20.955,43.362-20.955ZM42.9-19.833c1.683,0,2.805,1.386,2.805,3.4a5.506,5.506,0,0,1-2.739,4.62c-1.419-.99-3.267-2.112-3.267-4.521A3.3,3.3,0,0,1,42.9-19.833ZM40.689-.726c-2.211,0-3.5-1.782-3.5-4.026,0-2.277,1.419-3.993,3.432-5.247C42.9-8.415,44.55-7.161,44.55-4.95,44.55-2.409,42.9-.726,40.689-.726ZM59.664-20.955a7.587,7.587,0,0,0-7.293,7.524c0,3.333,2.277,5.511,5.016,5.511a4.69,4.69,0,0,0,1.848-.462l2.31-1.089A14.35,14.35,0,0,1,50.886-.495l.132.99a16.542,16.542,0,0,0,4.521-.957c5.445-2.013,9.9-7,9.9-13.563C65.439-17.49,63.723-20.955,59.664-20.955ZM59.3-19.833c2.838,0,3.135,3.564,3.135,5.148a12,12,0,0,1-.627,3.993,5.257,5.257,0,0,1-2.706.858c-2.442,0-3.663-1.815-3.663-4.389C55.44-17.16,57.024-19.833,59.3-19.833Z" transform="translate(363 2492)" fill="#8e8e8e" stroke="#fff" stroke-width="0.1"/>
  </g>
</svg>
