<?xml version="1.0" encoding="UTF-8"?>
<svg xmlns="http://www.w3.org/2000/svg" version="1.1" viewBox="0 0 72.5 21.8">
  <defs>
    <style>
      .cls-1 {
        fill: #8e8e8e;
        stroke: #fff;
        stroke-width: .1px;
      }
    </style>
  </defs>
  <!-- Generator: Adobe Illustrator 28.7.1, SVG Export Plug-In . SVG Version: 1.2.0 Build 142)  -->
  <g>
    <g id="_レイヤー_1" data-name="レイヤー_1">
      <path id="_パス_130987" data-name="パス_130987" class="cls-1" d="M13.1.3c-2.1.8-4.2,1.4-6.4,1.7l-.2.9h1.1c1.9,0,2.1.3,1.7,2.2l-2.4,12.1c-.5,2.7-.7,2.9-3.6,3.2l-.2.9h9.3l.2-.9c-3.2-.3-3.3-.5-2.8-3.2L13.1.3ZM27.2.3c-4.1.2-7.3,3.5-7.3,7.5,0,3.3,2.3,5.5,5,5.5.6,0,1.3-.2,1.8-.5l2.3-1.1c-1.8,4.6-5.8,8-10.7,9v1c1.7-.1,3.2-.4,4.7-1,5.4-2,9.9-7,9.9-13.6S31.3.3,27.2.3ZM26.9,1.4c2.8,0,3.1,3.6,3.1,5.1,0,1.4-.2,2.7-.6,4-.8.5-1.7.8-2.7.9-2.4,0-3.7-1.8-3.7-4.4,0-2.9,1.6-5.6,3.9-5.6ZM50.1,0c-1.5.2-2.9.6-4.3,1-6.4,2-10.7,7.2-10.7,13.7s2.3,6.9,6,6.9c4.2-.1,7.6-3.6,7.5-7.9,0-3.4-2.1-5.7-5.2-5.7-.7,0-1.4.2-2,.6l-2,1h0c1.4-3.4,4.1-6.1,7.5-7.4,1.2-.5,2.4-.9,3.7-1.1l-.2-1.1ZM41.7,9.9c2.9,0,3.7,2.3,3.7,4.5,0,3.3-1.5,6.2-3.9,6.2s-3.4-2.8-3.4-5.6c0-1.4.2-2.7.7-4,.9-.6,1.9-.9,3-1h0ZM60.4.3c-3.5,0-6.4,2.5-6.4,5.7,0,1.9,1.1,3.6,2.7,4.6-1.3.7-2.5,1.6-3.6,2.4-1.1.8-1.8,2.1-1.8,3.5,0,3.3,2.8,5.1,6,5.1s7.3-2.8,7.3-6.2-1.6-3.8-3.7-5.4c1.8-1.2,2.5-1.7,3-2.1.9-.8,1.5-1.9,1.5-3.1,0-2.9-2.4-4.6-5-4.6h0ZM60,1.4c1.7,0,2.8,1.4,2.8,3.4,0,1.9-1.1,3.7-2.7,4.6-1.4-1-3.3-2.1-3.3-4.5-.1-1.8,1.3-3.4,3.1-3.5,0,0,0,0,.1,0ZM57.7,20.5c-2.2,0-3.5-1.8-3.5-4s1.4-4,3.4-5.2c2.3,1.6,3.9,2.8,3.9,5s-1.6,4.2-3.9,4.2Z"/>
    </g>
  </g>
</svg>