<svg xmlns="http://www.w3.org/2000/svg" xmlns:xlink="http://www.w3.org/1999/xlink" width="72" height="22" viewBox="0 0 72 22">
  <defs>
    <clipPath id="clip-path">
      <rect id="長方形_38820" data-name="長方形 38820" width="72" height="22" transform="translate(363 2818)" fill="#fff"/>
    </clipPath>
  </defs>
  <g id="マスクグループ_26610" data-name="マスクグループ 26610" transform="translate(-363 -2818)" clip-path="url(#clip-path)">
    <path id="パス_130473" data-name="パス 130473" d="M3.63-16.434l.726.693c.99-1.287,2.475-2.937,4.521-2.937,2.442,0,3.432,1.518,3.432,3.5,0,2.871-2.541,5.709-5.643,8.712C4.488-4.389,2.211-2.442.165-.726L.1,0H12.507c.594-1.419,1.155-2.805,1.848-4.257l-.858-.4C12.21-2.772,11.682-2.574,9.834-2.574H4.059L8.778-6.7c3.894-3.3,6.6-5.61,6.6-9.042a4.869,4.869,0,0,0-5.214-5.214A6.442,6.442,0,0,0,5.742-19.14Zm23.5-4.521c-5.907,0-8.844,8.184-8.976,13.332C17.985-3.465,19.305.4,23.331.4c5.973,0,8.712-8.283,8.877-13.563C32.373-17.028,31.152-20.955,27.126-20.955Zm-.2,1.122c2.046,0,2.376,2.97,2.244,5.643C29.007-9.966,27.258-.726,23.529-.726c-2.046,0-2.475-2.97-2.343-6.006C21.318-11.385,23.133-19.833,26.928-19.833Zm16.7-1.122c-5.907,0-8.844,8.184-8.976,13.332C34.485-3.465,35.805.4,39.831.4c5.973,0,8.712-8.283,8.877-13.563C48.873-17.028,47.652-20.955,43.626-20.955Zm-.2,1.122c2.046,0,2.376,2.97,2.244,5.643C45.507-9.966,43.758-.726,40.029-.726c-2.046,0-2.475-2.97-2.343-6.006C37.818-11.385,39.633-19.833,43.428-19.833Zm23.364-.726H54.252A40.838,40.838,0,0,1,52.8-15.807l.924.3c1.155-2.178,1.551-2.475,3.564-2.475h6.963A167.678,167.678,0,0,1,51.414,0l.2.4L54.45.033C58.608-6.732,63-13.53,67.023-20.163Z" transform="translate(363 2839)" fill="#8e8e8e" stroke="#fff" stroke-width="0.1"/>
  </g>
</svg>
