<svg xmlns="http://www.w3.org/2000/svg" xmlns:xlink="http://www.w3.org/1999/xlink" width="72" height="22" viewBox="0 0 72 22">
  <defs>
    <clipPath id="clip-path">
      <rect id="長方形_38821" data-name="長方形 38821" width="72" height="22" transform="translate(363 2902)" fill="#fff"/>
    </clipPath>
  </defs>
  <g id="マスクグループ_26611" data-name="マスクグループ 26611" transform="translate(-363 -2902)" clip-path="url(#clip-path)">
    <path id="パス_130474" data-name="パス 130474" d="M3.63-16.434l.726.693c.99-1.287,2.475-2.937,4.521-2.937,2.442,0,3.432,1.518,3.432,3.5,0,2.871-2.541,5.709-5.643,8.712C4.488-4.389,2.211-2.442.165-.726L.1,0H12.507c.594-1.419,1.155-2.805,1.848-4.257l-.858-.4C12.21-2.772,11.682-2.574,9.834-2.574H4.059L8.778-6.7c3.894-3.3,6.6-5.61,6.6-9.042a4.869,4.869,0,0,0-5.214-5.214A6.442,6.442,0,0,0,5.742-19.14Zm23.5-4.521c-5.907,0-8.844,8.184-8.976,13.332C17.985-3.465,19.305.4,23.331.4c5.973,0,8.712-8.283,8.877-13.563C32.373-17.028,31.152-20.955,27.126-20.955Zm-.2,1.122c2.046,0,2.376,2.97,2.244,5.643C29.007-9.966,27.258-.726,23.529-.726c-2.046,0-2.475-2.97-2.343-6.006C21.318-11.385,23.133-19.833,26.928-19.833Zm16.7-1.122c-5.907,0-8.844,8.184-8.976,13.332C34.485-3.465,35.805.4,39.831.4c5.973,0,8.712-8.283,8.877-13.563C48.873-17.028,47.652-20.955,43.626-20.955Zm-.2,1.122c2.046,0,2.376,2.97,2.244,5.643C45.507-9.966,43.758-.726,40.029-.726c-2.046,0-2.475-2.97-2.343-6.006C37.818-11.385,39.633-19.833,43.428-19.833Zm16.434-1.122c-3.465,0-6.369,2.541-6.369,5.676a5.761,5.761,0,0,0,2.706,4.62,40.384,40.384,0,0,0-3.63,2.442,4.306,4.306,0,0,0-1.815,3.465C50.754-1.419,53.592.4,56.727.4c3.96,0,7.326-2.772,7.326-6.2,0-2.409-1.584-3.828-3.663-5.379,1.815-1.155,2.508-1.716,3-2.079a4.228,4.228,0,0,0,1.485-3.1C64.878-19.272,62.436-20.955,59.862-20.955ZM59.4-19.833c1.683,0,2.805,1.386,2.805,3.4a5.506,5.506,0,0,1-2.739,4.62c-1.419-.99-3.267-2.112-3.267-4.521A3.3,3.3,0,0,1,59.4-19.833ZM57.189-.726c-2.211,0-3.5-1.782-3.5-4.026,0-2.277,1.419-3.993,3.432-5.247C59.4-8.415,61.05-7.161,61.05-4.95,61.05-2.409,59.4-.726,57.189-.726Z" transform="translate(363 2923)" fill="#8e8e8e" stroke="#fff" stroke-width="0.1"/>
  </g>
</svg>
