<svg xmlns="http://www.w3.org/2000/svg" xmlns:xlink="http://www.w3.org/1999/xlink" width="72" height="22" viewBox="0 0 72 22">
  <defs>
    <clipPath id="clip-path">
      <rect id="長方形_38823" data-name="長方形 38823" width="72" height="22" transform="translate(363 3071)" fill="#fff"/>
    </clipPath>
  </defs>
  <g id="マスクグループ_26613" data-name="マスクグループ 26613" transform="translate(-363 -3071)" clip-path="url(#clip-path)">
    <path id="パス_130476" data-name="パス 130476" d="M3.63-16.434l.726.693c.99-1.287,2.475-2.937,4.521-2.937,2.442,0,3.432,1.518,3.432,3.5,0,2.871-2.541,5.709-5.643,8.712C4.488-4.389,2.211-2.442.165-.726L.1,0H12.507c.594-1.419,1.155-2.805,1.848-4.257l-.858-.4C12.21-2.772,11.682-2.574,9.834-2.574H4.059L8.778-6.7c3.894-3.3,6.6-5.61,6.6-9.042a4.869,4.869,0,0,0-5.214-5.214A6.442,6.442,0,0,0,5.742-19.14Zm23.5-4.521c-5.907,0-8.844,8.184-8.976,13.332C17.985-3.465,19.305.4,23.331.4c5.973,0,8.712-8.283,8.877-13.563C32.373-17.028,31.152-20.955,27.126-20.955Zm-.2,1.122c2.046,0,2.376,2.97,2.244,5.643C29.007-9.966,27.258-.726,23.529-.726c-2.046,0-2.475-2.97-2.343-6.006C21.318-11.385,23.133-19.833,26.928-19.833Zm18.579-1.122a26.155,26.155,0,0,1-6.435,1.716l-.2.858L40-18.348c1.914,0,2.145.231,1.716,2.211L39.336-4.059c-.528,2.739-.693,2.871-3.63,3.168l-.2.891h9.273l.231-.891c-3.168-.264-3.3-.462-2.772-3.168Zm14.157,0a7.587,7.587,0,0,0-7.293,7.524c0,3.333,2.277,5.511,5.016,5.511a4.69,4.69,0,0,0,1.848-.462l2.31-1.089A14.35,14.35,0,0,1,50.886-.495l.132.99a16.542,16.542,0,0,0,4.521-.957c5.445-2.013,9.9-7,9.9-13.563C65.439-17.49,63.723-20.955,59.664-20.955ZM59.3-19.833c2.838,0,3.135,3.564,3.135,5.148a12,12,0,0,1-.627,3.993,5.257,5.257,0,0,1-2.706.858c-2.442,0-3.663-1.815-3.663-4.389C55.44-17.16,57.024-19.833,59.3-19.833Z" transform="translate(363 3092)" fill="#8e8e8e" stroke="#fff" stroke-width="0.1"/>
  </g>
</svg>
