<?xml version="1.0" encoding="UTF-8"?>
<svg xmlns="http://www.w3.org/2000/svg" version="1.1" viewBox="0 0 72 22">
  <defs>
    <style>
      .cls-1 {
        fill: #8e8e8e;
        stroke: #fff;
        stroke-width: .1px;
      }
    </style>
  </defs>
  <!-- Generator: Adobe Illustrator 28.7.1, SVG Export Plug-In . SVG Version: 1.2.0 Build 142)  -->
  <g>
    <g id="_レイヤー_1" data-name="レイヤー_1">
      <path id="_パス_130964" data-name="パス_130964" class="cls-1" d="M13.1.3c-2.1.8-4.2,1.4-6.4,1.7l-.2.9h1.1c1.9,0,2.1.3,1.7,2.2l-2.4,12.1c-.5,2.7-.7,2.9-3.6,3.2l-.2.9h9.3l.2-.9c-3.2-.3-3.3-.5-2.8-3.2L13.1.3ZM27.2.3c-4.1.2-7.3,3.5-7.3,7.5,0,3.3,2.3,5.5,5,5.5.6,0,1.3-.2,1.8-.5l2.3-1.1c-1.8,4.6-5.8,8-10.7,9v1c1.7-.1,3.2-.4,4.7-1,5.4-2,9.9-7,9.9-13.6S31.3.3,27.2.3ZM26.9,1.4c2.8,0,3.1,3.6,3.1,5.1,0,1.4-.2,2.7-.6,4-.8.5-1.7.8-2.7.9-2.4,0-3.7-1.8-3.7-4.4,0-2.9,1.6-5.6,3.9-5.6ZM43.7.3c-4.1.2-7.3,3.5-7.3,7.5,0,3.3,2.3,5.5,5,5.5.6,0,1.3-.2,1.8-.5l2.3-1.1c-1.8,4.6-5.8,8-10.7,9v1c1.7-.1,3.2-.4,4.7-1,5.4-2,9.9-7,9.9-13.6,0-3.5-1.7-6.9-5.8-6.9h0ZM43.4,1.4c2.8,0,3.1,3.6,3.1,5.1,0,1.4-.2,2.7-.6,4-.8.5-1.7.8-2.7.9-2.4,0-3.7-1.8-3.7-4.4,0-2.9,1.6-5.6,3.9-5.6ZM54.2,4.1l.7.7c1-1.2,2.2-2.5,4-2.5,1.4-.1,2.6.9,2.7,2.3,0,.2,0,.3,0,.5,0,2.6-2.7,4.1-6.2,5l.2.9c.6-.2,1.2-.3,1.9-.3,2,0,3.7,1.5,3.8,3.5,0,.2,0,.3,0,.5,0,3.6-2,5.2-4.5,5.2-1.6,0-3.1-.8-4.1-2-.2-.2-.4-.2-.6,0,0,0,0,0,0,0-.5.3-.8.7-1,1.2,0,.6.2,1.1.7,1.4.9.7,2.1,1.2,3.2,1.2,2.1-.1,4.1-.8,5.9-2,2.4-1.6,3.7-3.6,3.7-5.8,0-2.3-1.6-4.3-3.9-4.7h0c.9-.6,1.7-1.1,2.5-1.7,1-.7,1.5-1.8,1.6-3,0-2.2-1.7-4-4.5-4-1.6,0-3.2.6-4.3,1.8l-1.6,2Z"/>
    </g>
  </g>
</svg>