<svg xmlns="http://www.w3.org/2000/svg" width="278.302" height="137.682" viewBox="0 0 278.302 137.682">
  <g id="グループ_31275" data-name="グループ 31275" transform="translate(-457.784 -7767.916)">
    <g id="グループ_31269" data-name="グループ 31269" transform="translate(456 7765.87)">
      <path id="パス_130482" data-name="パス 130482" d="M-14.742-23.076a38.616,38.616,0,0,0-4.572,1.044c-6.732,2.16-11.628,7.7-11.628,14.976,0,4.356,2.412,7.488,6.408,7.488,4.176,0,7.992-3.708,7.992-8.6,0-3.6-2.2-6.156-5.688-6.192a6.487,6.487,0,0,0-2.2.648l-2.34,1.116-.036-.072a14.337,14.337,0,0,1,8.28-8.1,17.956,17.956,0,0,1,4-1.188Zm-8.964,10.62c3.312,0,4.1,2.664,4.1,4.86,0,3.852-1.8,6.84-4.428,6.84-2.736,0-3.852-3.024-3.852-6.264a11.87,11.87,0,0,1,.648-4.212A7.11,7.11,0,0,1-23.706-12.456ZM-1.89-23.9H-3.8L-15.39,1.62h1.908ZM1.6-18.036l.756.756c1.08-1.368,2.7-3.276,4.968-3.276,2.736,0,3.816,1.728,3.816,3.852,0,3.132-2.7,6.156-6.228,9.576C2.5-4.824.018-2.7-2.286-.756L-2.322,0H11c.648-1.476,1.26-2.916,2.016-4.428L12.15-4.86C10.71-2.808,10.1-2.592,8.082-2.592H1.674L7.4-7.6c4.032-3.456,6.8-5.976,6.8-9.648A5.218,5.218,0,0,0,8.586-22.86a6.876,6.876,0,0,0-4.68,1.944ZM26.514-22.86A8.2,8.2,0,0,0,18.7-14.652c0,3.564,2.412,6.012,5.328,6.012a4.87,4.87,0,0,0,2.052-.5l2.664-1.26A15.743,15.743,0,0,1,16.938-.5L17.118.54A18.569,18.569,0,0,0,21.834-.5c5.8-2.124,10.836-7.524,10.836-14.9C32.67-18.972,30.906-22.86,26.514-22.86Zm-.432,1.188c3.312,0,3.564,4.1,3.564,5.724a12.961,12.961,0,0,1-.612,4.248,6.165,6.165,0,0,1-3.2,1.044c-2.736,0-4.1-2.016-4.1-4.824C21.726-18.828,23.562-21.672,26.082-21.672Z" transform="translate(33 26)" fill="#fff" stroke="#fff" stroke-width="0.1"/>
      <path id="パス_130483" data-name="パス 130483" d="M-2.142-11.682H-5.994l-.108.468.468.072c.9.126,1.008.27.648,1.17C-5.67-8.154-7.218-4.86-8.334-2.412H-8.37l-1.494-9.054h-.522L-14.652-2.43h-.036l-.774-7.524c-.108-.99,0-1.08.72-1.188l.45-.072.126-.468h-4.068l-.108.468c1.224.144,1.3.2,1.458,1.728L-15.8.18h.558l4.3-8.928h.054L-9.432.18h.558c2.322-5.022,3.906-8.424,4.59-9.72.738-1.44.846-1.494,2.034-1.674Zm1.584,0-.108.468C.81-11.07.9-10.98.612-9.54L-.81-2.16C-1.1-.7-1.242-.612-2.7-.486L-2.808,0H5.616c.252-.558.918-2.286,1.116-2.772l-.5-.18A7.685,7.685,0,0,1,5.022-1.224C4.536-.756,4-.612,2.664-.612,1.656-.612,1.116-.648.846-.864S.558-1.548.756-2.592l.594-3.15H3.078c1.548,0,1.566.126,1.53,1.386h.5l.684-3.4H5.274c-.432,1.17-.54,1.314-2.052,1.314H1.494l.738-3.906c.144-.666.18-.738.792-.738h1.4c1.314,0,1.548.2,1.746.612a4.077,4.077,0,0,1,.234,1.584l.522-.036c.126-1.062.288-2.43.342-2.754Zm10.458,0-.108.468c1.44.2,1.512.288,1.242,1.71L9.63-2.16c-.27,1.4-.4,1.53-1.782,1.674L7.722,0h3.906a9.641,9.641,0,0,0,5.508-1.35A6.315,6.315,0,0,0,20.106-6.8c0-3.438-2.25-4.878-5.724-4.878Zm2.7,1.674c.108-.594.216-.792.4-.9a2.769,2.769,0,0,1,1.188-.18c2.61,0,4.212,1.44,4.212,4.194,0,3.366-2.088,6.246-5.742,6.246A2.712,2.712,0,0,1,11.34-.9c-.324-.18-.36-.522-.2-1.422Z" transform="translate(95.458 26.555)" fill="#fff" stroke="#fff" stroke-width="0.1"/>
    </g>
    <g id="グループ_31270" data-name="グループ 31270" transform="translate(604.205 7765.87)">
      <path id="パス_130484" data-name="パス 130484" d="M-14.022-22.428H-27.486a43.279,43.279,0,0,1-1.548,5.076l.972.288c1.3-2.448,1.728-2.772,3.924-2.772h7.56A185.279,185.279,0,0,1-30.618,0l.252.432,2.844-.36C-22.95-7.272-18.162-14.688-13.734-22ZM-1.89-23.9H-3.8L-15.39,1.62h1.908ZM11.034-22.86A28.258,28.258,0,0,1,4.3-20.988l-.216.9H5.31c2.124,0,2.376.252,1.944,2.376L4.626-4.356C4.014-1.332,3.834-1.224.594-.936L.378,0h9.9l.252-.936c-3.492-.288-3.672-.432-3.1-3.42Zm9.108,4.068.684.756c1.044-1.26,2.376-2.772,4.32-2.772a2.792,2.792,0,0,1,3.06,3.024c0,2.772-2.7,4.464-6.876,5.616l.216.972a9.153,9.153,0,0,1,2.16-.324,3.938,3.938,0,0,1,4.1,4.284c0,4.032-2.376,5.868-5.256,5.868A5.834,5.834,0,0,1,18.2-3.492a.482.482,0,0,0-.72-.036A2.034,2.034,0,0,0,16.506-2.3,1.653,1.653,0,0,0,17.19-.828,5.351,5.351,0,0,0,20.646.432,12.04,12.04,0,0,0,27.018-1.8c2.628-1.836,3.96-4,3.96-6.3a5.2,5.2,0,0,0-4.212-5.148v-.072a26.108,26.108,0,0,0,2.7-1.872A4.174,4.174,0,0,0,31.158-18.5c0-2.268-1.62-4.356-4.716-4.356a6.437,6.437,0,0,0-4.608,1.908Z" transform="translate(39 26)" fill="#fff" stroke="#fff" stroke-width="0.1"/>
      <path id="パス_130485" data-name="パス 130485" d="M-2.142-11.682H-5.994l-.108.468.468.072c.9.126,1.008.27.648,1.17C-5.67-8.154-7.218-4.86-8.334-2.412H-8.37l-1.494-9.054h-.522L-14.652-2.43h-.036l-.774-7.524c-.108-.99,0-1.08.72-1.188l.45-.072.126-.468h-4.068l-.108.468c1.224.144,1.3.2,1.458,1.728L-15.8.18h.558l4.3-8.928h.054L-9.432.18h.558c2.322-5.022,3.906-8.424,4.59-9.72.738-1.44.846-1.494,2.034-1.674Zm1.584,0-.108.468C.81-11.07.9-10.98.612-9.54L-.81-2.16C-1.1-.7-1.242-.612-2.7-.486L-2.808,0H5.616c.252-.558.918-2.286,1.116-2.772l-.5-.18A7.685,7.685,0,0,1,5.022-1.224C4.536-.756,4-.612,2.664-.612,1.656-.612,1.116-.648.846-.864S.558-1.548.756-2.592l.594-3.15H3.078c1.548,0,1.566.126,1.53,1.386h.5l.684-3.4H5.274c-.432,1.17-.54,1.314-2.052,1.314H1.494l.738-3.906c.144-.666.18-.738.792-.738h1.4c1.314,0,1.548.2,1.746.612a4.077,4.077,0,0,1,.234,1.584l.522-.036c.126-1.062.288-2.43.342-2.754Zm10.458,0-.108.468c1.44.2,1.512.288,1.242,1.71L9.63-2.16c-.27,1.4-.4,1.53-1.782,1.674L7.722,0h3.906a9.641,9.641,0,0,0,5.508-1.35A6.315,6.315,0,0,0,20.106-6.8c0-3.438-2.25-4.878-5.724-4.878Zm2.7,1.674c.108-.594.216-.792.4-.9a2.769,2.769,0,0,1,1.188-.18c2.61,0,4.212,1.44,4.212,4.194,0,3.366-2.088,6.246-5.742,6.246A2.712,2.712,0,0,1,11.34-.9c-.324-.18-.36-.522-.2-1.422Z" transform="translate(101.458 26.555)" fill="#fff" stroke="#fff" stroke-width="0.1"/>
    </g>
    <g id="グループ_31271" data-name="グループ 31271" transform="translate(456 7821.899)">
      <path id="パス_130486" data-name="パス 130486" d="M-21.582-22.86a8.2,8.2,0,0,0-7.812,8.208c0,3.564,2.412,6.012,5.328,6.012a4.87,4.87,0,0,0,2.052-.5l2.664-1.26A15.743,15.743,0,0,1-31.158-.5l.18,1.044A18.569,18.569,0,0,0-26.262-.5c5.8-2.124,10.836-7.524,10.836-14.9C-15.426-18.972-17.19-22.86-21.582-22.86Zm-.432,1.188c3.312,0,3.564,4.1,3.564,5.724a12.961,12.961,0,0,1-.612,4.248,6.165,6.165,0,0,1-3.2,1.044c-2.736,0-4.1-2.016-4.1-4.824C-26.37-18.828-24.534-21.672-22.014-21.672ZM-1.89-23.9H-3.8L-15.39,1.62h1.908ZM11.034-22.86A28.258,28.258,0,0,1,4.3-20.988l-.216.9H5.31c2.124,0,2.376.252,1.944,2.376L4.626-4.356C4.014-1.332,3.834-1.224.594-.936L.378,0h9.9l.252-.936c-3.492-.288-3.672-.432-3.1-3.42ZM32.058-7.992H28.6l2.844-14.652H29.9C25.434-18.18,20.61-12.492,16.47-7.416l-.216.972h9.288l-.468,2.376c-.54,2.7-.684,2.88-3.816,3.132L21.042,0H30.15l.216-.936c-2.808-.252-2.952-.468-2.484-3.132l.432-2.376h3.42Zm-3.888-11.2-2.34,11.2H18.738c2.952-3.816,6.048-7.56,9.36-11.2Z" transform="translate(33 26)" fill="#fff" stroke="#fff" stroke-width="0.1"/>
      <path id="パス_130487" data-name="パス 130487" d="M-2.142-11.682H-5.994l-.108.468.468.072c.9.126,1.008.27.648,1.17C-5.67-8.154-7.218-4.86-8.334-2.412H-8.37l-1.494-9.054h-.522L-14.652-2.43h-.036l-.774-7.524c-.108-.99,0-1.08.72-1.188l.45-.072.126-.468h-4.068l-.108.468c1.224.144,1.3.2,1.458,1.728L-15.8.18h.558l4.3-8.928h.054L-9.432.18h.558c2.322-5.022,3.906-8.424,4.59-9.72.738-1.44.846-1.494,2.034-1.674Zm1.584,0-.108.468C.81-11.07.9-10.98.612-9.54L-.81-2.16C-1.1-.7-1.242-.612-2.7-.486L-2.808,0H5.616c.252-.558.918-2.286,1.116-2.772l-.5-.18A7.685,7.685,0,0,1,5.022-1.224C4.536-.756,4-.612,2.664-.612,1.656-.612,1.116-.648.846-.864S.558-1.548.756-2.592l.594-3.15H3.078c1.548,0,1.566.126,1.53,1.386h.5l.684-3.4H5.274c-.432,1.17-.54,1.314-2.052,1.314H1.494l.738-3.906c.144-.666.18-.738.792-.738h1.4c1.314,0,1.548.2,1.746.612a4.077,4.077,0,0,1,.234,1.584l.522-.036c.126-1.062.288-2.43.342-2.754Zm10.458,0-.108.468c1.44.2,1.512.288,1.242,1.71L9.63-2.16c-.27,1.4-.4,1.53-1.782,1.674L7.722,0h3.906a9.641,9.641,0,0,0,5.508-1.35A6.315,6.315,0,0,0,20.106-6.8c0-3.438-2.25-4.878-5.724-4.878Zm2.7,1.674c.108-.594.216-.792.4-.9a2.769,2.769,0,0,1,1.188-.18c2.61,0,4.212,1.44,4.212,4.194,0,3.366-2.088,6.246-5.742,6.246A2.712,2.712,0,0,1,11.34-.9c-.324-.18-.36-.522-.2-1.422Z" transform="translate(95.458 26.555)" fill="#fff" stroke="#fff" stroke-width="0.1"/>
    </g>
    <g id="グループ_31272" data-name="グループ 31272" transform="translate(604.205 7821.899)">
      <path id="パス_130488" data-name="パス 130488" d="M-28.9-23.495a29.043,29.043,0,0,1-6.919,1.924l-.222.925h1.258c2.183,0,2.442.259,2,2.442l-2.7,13.727c-.629,3.108-.814,3.219-4.144,3.515L-39.849,0h10.175l.259-.962c-3.589-.3-3.774-.444-3.182-3.515Zm16.354,0c-6.586,0-9.879,9.509-9.953,15.318C-22.607-3.7-21.127.444-16.8.444c6.734,0,9.768-9.657,9.879-15.577C-6.808-19.277-8.177-23.495-12.543-23.495Zm-.185,1.221c2.368,0,2.849,3.182,2.738,6.031-.111,4.7-2.072,15.466-6.586,15.466-2.368,0-2.923-3.182-2.849-6.438C-19.351-12.506-17.279-22.274-12.728-22.274Zm19.98-2.294H5.291L-6.623,1.665h1.961Zm13.283,1.073a29.043,29.043,0,0,1-6.919,1.924l-.222.925h1.258c2.183,0,2.442.259,2,2.442l-2.7,13.727C13.32-1.369,13.135-1.258,9.8-.962L9.583,0H19.758l.259-.962c-3.589-.3-3.774-.444-3.182-3.515Zm8.695,4.958.777.777c1.11-1.406,2.775-3.367,5.106-3.367,2.812,0,3.922,1.776,3.922,3.959,0,3.219-2.775,6.327-6.4,9.842-2.479,2.368-5.032,4.551-7.4,6.549L25.2,0h13.69c.666-1.517,1.3-3,2.072-4.551L40.071-5c-1.48,2.109-2.109,2.331-4.181,2.331H29.3l5.883-5.143c4.144-3.552,6.993-6.142,6.993-9.916a5.363,5.363,0,0,0-5.772-5.772,7.067,7.067,0,0,0-4.81,2Z" transform="translate(43 27)" fill="#fff" stroke="#fff" stroke-width="0.1"/>
      <path id="パス_130489" data-name="パス 130489" d="M-2.142-11.682H-5.994l-.108.468.468.072c.9.126,1.008.27.648,1.17C-5.67-8.154-7.218-4.86-8.334-2.412H-8.37l-1.494-9.054h-.522L-14.652-2.43h-.036l-.774-7.524c-.108-.99,0-1.08.72-1.188l.45-.072.126-.468h-4.068l-.108.468c1.224.144,1.3.2,1.458,1.728L-15.8.18h.558l4.3-8.928h.054L-9.432.18h.558c2.322-5.022,3.906-8.424,4.59-9.72.738-1.44.846-1.494,2.034-1.674Zm1.584,0-.108.468C.81-11.07.9-10.98.612-9.54L-.81-2.16C-1.1-.7-1.242-.612-2.7-.486L-2.808,0H5.616c.252-.558.918-2.286,1.116-2.772l-.5-.18A7.685,7.685,0,0,1,5.022-1.224C4.536-.756,4-.612,2.664-.612,1.656-.612,1.116-.648.846-.864S.558-1.548.756-2.592l.594-3.15H3.078c1.548,0,1.566.126,1.53,1.386h.5l.684-3.4H5.274c-.432,1.17-.54,1.314-2.052,1.314H1.494l.738-3.906c.144-.666.18-.738.792-.738h1.4c1.314,0,1.548.2,1.746.612a4.077,4.077,0,0,1,.234,1.584l.522-.036c.126-1.062.288-2.43.342-2.754Zm10.458,0-.108.468c1.44.2,1.512.288,1.242,1.71L9.63-2.16c-.27,1.4-.4,1.53-1.782,1.674L7.722,0h3.906a9.641,9.641,0,0,0,5.508-1.35A6.315,6.315,0,0,0,20.106-6.8c0-3.438-2.25-4.878-5.724-4.878Zm2.7,1.674c.108-.594.216-.792.4-.9a2.769,2.769,0,0,1,1.188-.18c2.61,0,4.212,1.44,4.212,4.194,0,3.366-2.088,6.246-5.742,6.246A2.712,2.712,0,0,1,11.34-.9c-.324-.18-.36-.522-.2-1.422Z" transform="translate(111.725 26.555)" fill="#fff" stroke="#fff" stroke-width="0.1"/>
    </g>
    <g id="グループ_31273" data-name="グループ 31273" transform="translate(456 7877.928)">
      <path id="パス_130490" data-name="パス 130490" d="M-19.17-22.86A28.258,28.258,0,0,1-25.9-20.988l-.216.9h1.224c2.124,0,2.376.252,1.944,2.376L-25.578-4.356c-.612,3.024-.792,3.132-4.032,3.42L-29.826,0h9.9l.252-.936c-3.492-.288-3.672-.432-3.1-3.42Zm17.892,0A28.258,28.258,0,0,1-8.01-20.988l-.216.9H-7c2.124,0,2.376.252,1.944,2.376L-7.686-4.356c-.612,3.024-.792,3.132-4.032,3.42L-11.934,0h9.9l.252-.936c-3.492-.288-3.672-.432-3.1-3.42ZM16-23.9H14.094L2.5,1.62H4.41ZM26.514-22.86A8.2,8.2,0,0,0,18.7-14.652c0,3.564,2.412,6.012,5.328,6.012a4.87,4.87,0,0,0,2.052-.5l2.664-1.26A15.743,15.743,0,0,1,16.938-.5L17.118.54A18.569,18.569,0,0,0,21.834-.5c5.8-2.124,10.836-7.524,10.836-14.9C32.67-18.972,30.906-22.86,26.514-22.86Zm-.432,1.188c3.312,0,3.564,4.1,3.564,5.724a12.961,12.961,0,0,1-.612,4.248,6.165,6.165,0,0,1-3.2,1.044c-2.736,0-4.1-2.016-4.1-4.824C21.726-18.828,23.562-21.672,26.082-21.672Z" transform="translate(33 26)" fill="#fff" stroke="#fff" stroke-width="0.1"/>
      <path id="パス_130491" data-name="パス 130491" d="M-2.142-11.682H-5.994l-.108.468.468.072c.9.126,1.008.27.648,1.17C-5.67-8.154-7.218-4.86-8.334-2.412H-8.37l-1.494-9.054h-.522L-14.652-2.43h-.036l-.774-7.524c-.108-.99,0-1.08.72-1.188l.45-.072.126-.468h-4.068l-.108.468c1.224.144,1.3.2,1.458,1.728L-15.8.18h.558l4.3-8.928h.054L-9.432.18h.558c2.322-5.022,3.906-8.424,4.59-9.72.738-1.44.846-1.494,2.034-1.674Zm1.584,0-.108.468C.81-11.07.9-10.98.612-9.54L-.81-2.16C-1.1-.7-1.242-.612-2.7-.486L-2.808,0H5.616c.252-.558.918-2.286,1.116-2.772l-.5-.18A7.685,7.685,0,0,1,5.022-1.224C4.536-.756,4-.612,2.664-.612,1.656-.612,1.116-.648.846-.864S.558-1.548.756-2.592l.594-3.15H3.078c1.548,0,1.566.126,1.53,1.386h.5l.684-3.4H5.274c-.432,1.17-.54,1.314-2.052,1.314H1.494l.738-3.906c.144-.666.18-.738.792-.738h1.4c1.314,0,1.548.2,1.746.612a4.077,4.077,0,0,1,.234,1.584l.522-.036c.126-1.062.288-2.43.342-2.754Zm10.458,0-.108.468c1.44.2,1.512.288,1.242,1.71L9.63-2.16c-.27,1.4-.4,1.53-1.782,1.674L7.722,0h3.906a9.641,9.641,0,0,0,5.508-1.35A6.315,6.315,0,0,0,20.106-6.8c0-3.438-2.25-4.878-5.724-4.878Zm2.7,1.674c.108-.594.216-.792.4-.9a2.769,2.769,0,0,1,1.188-.18c2.61,0,4.212,1.44,4.212,4.194,0,3.366-2.088,6.246-5.742,6.246A2.712,2.712,0,0,1,11.34-.9c-.324-.18-.36-.522-.2-1.422Z" transform="translate(95.458 26.555)" fill="#fff" stroke="#fff" stroke-width="0.1"/>
    </g>
    <g id="グループ_31274" data-name="グループ 31274" transform="translate(604.205 7877.928)">
      <path id="パス_130492" data-name="パス 130492" d="M-19.17-22.86A28.258,28.258,0,0,1-25.9-20.988l-.216.9h1.224c2.124,0,2.376.252,1.944,2.376L-25.578-4.356c-.612,3.024-.792,3.132-4.032,3.42L-29.826,0h9.9l.252-.936c-3.492-.288-3.672-.432-3.1-3.42Zm8.46,4.824.756.756c1.08-1.368,2.7-3.276,4.968-3.276,2.736,0,3.816,1.728,3.816,3.852,0,3.132-2.7,6.156-6.228,9.576-2.412,2.3-4.9,4.428-7.2,6.372L-14.634,0h13.32C-.666-1.476-.054-2.916.7-4.428L-.162-4.86C-1.6-2.808-2.214-2.592-4.23-2.592h-6.408l5.724-5c4.032-3.456,6.8-5.976,6.8-9.648A5.218,5.218,0,0,0-3.726-22.86a6.876,6.876,0,0,0-4.68,1.944ZM16-23.9H14.094L2.5,1.62H4.41Zm18.072,1.476H20.61a43.279,43.279,0,0,1-1.548,5.076l.972.288c1.3-2.448,1.728-2.772,3.924-2.772h7.56A185.279,185.279,0,0,1,17.478,0l.252.432,2.844-.36C25.146-7.272,29.934-14.688,34.362-22Z" transform="translate(33 26)" fill="#fff" stroke="#fff" stroke-width="0.1"/>
      <path id="パス_130493" data-name="パス 130493" d="M-2.142-11.682H-5.994l-.108.468.468.072c.9.126,1.008.27.648,1.17C-5.67-8.154-7.218-4.86-8.334-2.412H-8.37l-1.494-9.054h-.522L-14.652-2.43h-.036l-.774-7.524c-.108-.99,0-1.08.72-1.188l.45-.072.126-.468h-4.068l-.108.468c1.224.144,1.3.2,1.458,1.728L-15.8.18h.558l4.3-8.928h.054L-9.432.18h.558c2.322-5.022,3.906-8.424,4.59-9.72.738-1.44.846-1.494,2.034-1.674Zm1.584,0-.108.468C.81-11.07.9-10.98.612-9.54L-.81-2.16C-1.1-.7-1.242-.612-2.7-.486L-2.808,0H5.616c.252-.558.918-2.286,1.116-2.772l-.5-.18A7.685,7.685,0,0,1,5.022-1.224C4.536-.756,4-.612,2.664-.612,1.656-.612,1.116-.648.846-.864S.558-1.548.756-2.592l.594-3.15H3.078c1.548,0,1.566.126,1.53,1.386h.5l.684-3.4H5.274c-.432,1.17-.54,1.314-2.052,1.314H1.494l.738-3.906c.144-.666.18-.738.792-.738h1.4c1.314,0,1.548.2,1.746.612a4.077,4.077,0,0,1,.234,1.584l.522-.036c.126-1.062.288-2.43.342-2.754Zm10.458,0-.108.468c1.44.2,1.512.288,1.242,1.71L9.63-2.16c-.27,1.4-.4,1.53-1.782,1.674L7.722,0h3.906a9.641,9.641,0,0,0,5.508-1.35A6.315,6.315,0,0,0,20.106-6.8c0-3.438-2.25-4.878-5.724-4.878Zm2.7,1.674c.108-.594.216-.792.4-.9a2.769,2.769,0,0,1,1.188-.18c2.61,0,4.212,1.44,4.212,4.194,0,3.366-2.088,6.246-5.742,6.246A2.712,2.712,0,0,1,11.34-.9c-.324-.18-.36-.522-.2-1.422Z" transform="translate(95.458 26.555)" fill="#fff" stroke="#fff" stroke-width="0.1"/>
    </g>
  </g>
</svg>
