<svg xmlns="http://www.w3.org/2000/svg" width="174.752" height="35.239" viewBox="0 0 174.752 35.239">
  <path id="パス_130480" data-name="パス 130480" d="M-53.7-1.428c-3.57-.408-3.876-.816-4.539-4.641-1.122-6.222-2.244-12.7-3.315-19.329l-1.326-8.466-1.785.459-15.2,26.877c-2.448,4.386-3.009,4.641-6.12,5.1L-86.394,0h11.067l.357-1.428C-78.9-1.785-79.2-2.193-77.775-5.1c1.071-2.3,2.5-5.049,3.417-6.732h10.506c.459,2.8.867,5.151,1.173,7.242.306,2.244.1,2.805-3.366,3.162L-66.453,0H-54.06ZM-64.209-14.076h-9.027c2.193-4.233,4.539-8.364,6.936-12.852h.1Zm20.3-19.023-.306,1.428c4.029.357,4.335.663,3.57,4.437l-4.08,21.063c-.816,4.08-1.224,4.386-5.1,4.743L-50.184,0h11.118c4.029,0,7.65-.408,10.506-1.785,3.417-1.632,5.814-4.488,5.814-8.262,0-4.692-3.519-7.14-7.5-7.956v-.1c4.539-.918,8.364-3.315,8.364-7.956,0-5.151-3.876-7.038-9.843-7.038Zm6.12,14.382,1.836-9.894c.255-1.377.561-1.989.969-2.3a3.922,3.922,0,0,1,2.295-.51c2.856,0,5.814,1.275,5.814,5.406,0,4.386-2.958,7.293-8.568,7.293Zm-.357,1.734h2.3c4.182,0,7.8,1.632,7.8,6.681,0,5.2-3.621,8.517-8.313,8.517-3.111,0-4.539-.714-3.825-4.539Zm40.9-16.932c-10.71,0-18.615,9.537-18.615,20.2C-15.861-5.049-10.3.765-2.244.765c10.914,0,18.666-9.18,18.666-20.043C16.422-27.846,10.965-33.915,2.754-33.915ZM2.4-32.079c6.324,0,8.67,5.406,8.67,12.138,0,8.466-4.743,18.87-12.9,18.87-6.018,0-8.721-5.253-8.721-12.036C-10.557-22.185-5.3-32.079,2.4-32.079ZM57.018-33.1H45.084l-.357,1.428c3.672.2,4.641.714,4.539,2.805a78.049,78.049,0,0,1-1.326,9.027l-.765,3.723C45.288-6.477,41.871-2.04,35.853-2.04c-5,0-8.619-3.468-6.885-12.546L31.314-27.03c.765-4.08,1.122-4.284,4.9-4.641l.306-1.428H23.511l-.357,1.428c4.029.357,4.284.663,3.519,4.641l-2.4,12.7c-1.173,6.324-.051,10.149,2.3,12.342A11.493,11.493,0,0,0,34.527.765,13.113,13.113,0,0,0,43.35-2.6c3.366-3.162,4.9-7.8,5.916-13.107l.816-4.131c.918-4.641,1.53-7.242,2.04-8.976.612-1.938,1.224-2.7,4.539-2.856Zm30.039-1.275C86.088-33.4,85.731-33.1,84.4-33.1H65.025c-1.326,0-1.887-.1-2.4-1.275H61.455c-.561,2.754-1.479,6.12-2.4,9.18h1.581a19.818,19.818,0,0,1,2.55-4.59c.969-1.122,1.887-1.53,6.12-1.53h2.55L67.065-6.171c-.765,3.978-1.122,4.437-5.406,4.743L61.3,0H75.633l.306-1.428c-4.59-.306-4.947-.714-4.233-4.743l4.743-25.143h3.009c3.672,0,4.794.306,5.3,1.479a11.439,11.439,0,0,1,.612,4.641l1.632-.1c.306-2.856.765-6.834,1.224-9.078Z" transform="translate(86.46 34.424)" fill="#fff" stroke="#fff" stroke-width="0.1"/>
</svg>
