<svg xmlns="http://www.w3.org/2000/svg" width="121.31" height="15.013" viewBox="0 0 121.31 15.013">
  <path id="パス_130481" data-name="パス 130481" d="M-52.8-14.6a18.229,18.229,0,0,1-4.485,1.2l-.138.6.782.023c1.334,0,1.495.161,1.2,1.541L-57.1-2.829c-.368,1.909-.483,2-2.53,2.208L-59.765,0H-53.3l.161-.621c-2.208-.184-2.3-.322-1.932-2.208Zm5.7,2.668.483.506a3.747,3.747,0,0,1,2.76-1.771,1.754,1.754,0,0,1,1.909,1.909c0,1.794-1.886,2.829-4.324,3.519l.138.644a5.56,5.56,0,0,1,1.311-.184,2.535,2.535,0,0,1,2.622,2.76c0,2.484-1.4,3.657-3.151,3.657A3.9,3.9,0,0,1-48.22-2.323a.316.316,0,0,0-.483-.023,1.513,1.513,0,0,0-.667.851,1.073,1.073,0,0,0,.483.966,3.551,3.551,0,0,0,2.254.8A7.9,7.9,0,0,0-42.539-1.15,4.991,4.991,0,0,0-39.986-5.2,3.367,3.367,0,0,0-42.7-8.487v-.046a14.756,14.756,0,0,0,1.771-1.173A2.621,2.621,0,0,0-39.847-11.8a2.843,2.843,0,0,0-3.1-2.806,4.245,4.245,0,0,0-3.013,1.242Zm11.707,5.2a1.413,1.413,0,0,0,1.38-1.495,1.194,1.194,0,0,0-1.173-1.288A1.4,1.4,0,0,0-36.582-8,1.191,1.191,0,0,0-35.385-6.739ZM-36.421.276a1.4,1.4,0,0,0,1.4-1.472,1.218,1.218,0,0,0-1.2-1.311,1.41,1.41,0,0,0-1.4,1.518A1.166,1.166,0,0,0-36.421.276ZM-25.128-14.6c-4.117,0-6.164,5.7-6.256,9.292-.115,2.9.805,5.589,3.611,5.589,4.163,0,6.072-5.773,6.187-9.453C-21.471-11.868-22.322-14.6-25.128-14.6Zm-.138.782c1.426,0,1.656,2.07,1.564,3.933-.115,2.944-1.334,9.384-3.933,9.384-1.426,0-1.725-2.07-1.633-4.186C-29.176-7.935-27.91-13.823-25.266-13.823Zm11.638-.782c-4.117,0-6.164,5.7-6.256,9.292C-20-2.415-19.079.276-16.273.276c4.163,0,6.072-5.773,6.187-9.453C-9.971-11.868-10.822-14.6-13.628-14.6Zm-.138.782c1.426,0,1.656,2.07,1.564,3.933-.115,2.944-1.334,9.384-3.933,9.384-1.426,0-1.725-2.07-1.633-4.186C-17.676-7.935-16.41-13.823-13.766-13.823ZM3.047-5.865H-2.335l-.414,1.334H2.633ZM18.711-14.6a18.229,18.229,0,0,1-4.485,1.2l-.138.6.782.023c1.334,0,1.5.161,1.2,1.541L14.41-2.829c-.368,1.909-.483,2-2.53,2.208L11.742,0H18.2l.161-.621c-2.208-.184-2.3-.322-1.932-2.208Zm13.5,9.476H30.05l1.794-9.338h-1.1c-2.875,2.852-5.934,6.44-8.6,9.706l-.161.667h5.911l-.3,1.472c-.322,1.7-.437,1.84-2.415,2L25.036,0h5.98l.138-.621c-1.771-.184-1.886-.322-1.564-2l.253-1.472H32Zm-2.645-6.992-1.5,6.992H23.656c1.863-2.415,3.772-4.738,5.842-6.992Zm6.555,5.382A1.413,1.413,0,0,0,37.5-8.234a1.194,1.194,0,0,0-1.173-1.288A1.4,1.4,0,0,0,34.926-8,1.191,1.191,0,0,0,36.122-6.739ZM35.087.276A1.4,1.4,0,0,0,36.49-1.2a1.218,1.218,0,0,0-1.2-1.311,1.41,1.41,0,0,0-1.4,1.518A1.166,1.166,0,0,0,35.087.276ZM46.38-14.6c-4.117,0-6.164,5.7-6.256,9.292-.115,2.9.805,5.589,3.611,5.589,4.163,0,6.072-5.773,6.187-9.453C50.036-11.868,49.186-14.6,46.38-14.6Zm-.138.782c1.426,0,1.656,2.07,1.564,3.933C47.69-6.946,46.472-.506,43.872-.506c-1.426,0-1.725-2.07-1.633-4.186C42.332-7.935,43.6-13.823,46.242-13.823ZM57.88-14.6c-4.117,0-6.164,5.7-6.256,9.292-.115,2.9.805,5.589,3.611,5.589,4.163,0,6.072-5.773,6.187-9.453C61.536-11.868,60.686-14.6,57.88-14.6Zm-.138.782c1.426,0,1.656,2.07,1.564,3.933C59.19-6.946,57.972-.506,55.372-.506c-1.426,0-1.725-2.07-1.633-4.186C53.832-7.935,55.1-13.823,57.742-13.823Z" transform="translate(59.828 14.687)" fill="#fff" stroke="#fff" stroke-width="0.1"/>
</svg>
