<svg xmlns="http://www.w3.org/2000/svg" width="79.55" height="17.05" viewBox="0 0 79.55 17.05">
  <path id="パス_130495" data-name="パス 130495" d="M-35.687-16.225l-.175.7c2.05.175,2.175.325,1.775,2.325l-1.95,10.175c-.4,2-.6,2.15-2.6,2.325l-.175.7h11.8c.35-.8,1.275-3.15,1.55-3.875l-.725-.25a10.19,10.19,0,0,1-1.7,2.375c-.675.65-1.425.85-3.225.85-1.35,0-2.075-.05-2.45-.375-.325-.3-.35-.95-.1-2.325l.825-4.375h2.275c2.15,0,2.15.175,2.1,1.975h.75l.95-4.8h-.75c-.6,1.65-.75,1.825-2.85,1.825h-2.275l1.025-5.35c.175-.925.25-1.025,1.125-1.025h1.8c1.775,0,2.125.225,2.4.8a5.153,5.153,0,0,1,.35,2.225l.75-.05c.175-1.45.4-3.35.475-3.85Zm30.525,0h-5.675l-.2.7c1.825.1,2.275.375,2.175,1.55A38.671,38.671,0,0,1-9.512-9.7l-1.125,5.975h-.075l-7.225-12.5h-3.775l-.175.7c1.325.075,1.8.225,2.1.75.3.55.4.95.125,2.325l-1.25,5.95c-.5,2.325-.775,3.45-1.05,4.3-.325,1.1-.9,1.425-2.2,1.5l-.175.7h5.8l.15-.7c-1.75-.125-2.2-.4-2.125-1.55a32.219,32.219,0,0,1,.625-4.2l1.275-6.5h.075L-11.187.2h.85l1.875-9.9a42.444,42.444,0,0,1,.975-4.25c.325-1.1.65-1.5,2.175-1.575Zm14.9-.625a1.47,1.47,0,0,1-1.3.625h-9.5c-.65,0-.925-.05-1.175-.625h-.575c-.275,1.35-.725,3-1.175,4.5h.775a9.715,9.715,0,0,1,1.25-2.25c.475-.55.925-.75,3-.75h1.25L-.062-3.025C-.437-1.075-.612-.85-2.712-.7l-.175.7H4.138l.15-.7c-2.25-.15-2.425-.35-2.075-2.325L4.538-15.35H6.013c1.8,0,2.35.15,2.6.725a5.607,5.607,0,0,1,.3,2.275l.8-.05c.15-1.4.375-3.35.6-4.45ZM24.213-.45a3.01,3.01,0,0,1-1.65-1.175,18.681,18.681,0,0,1-1.55-2.65c-.575-1.15-1.225-2.7-1.475-3.35,2.025-.7,3.9-2.225,3.9-4.75a3.445,3.445,0,0,0-1.55-3.075,6.63,6.63,0,0,0-3.6-.775h-5.6l-.15.7c1.975.175,2.075.275,1.7,2.3l-1.95,10.05C11.863-1.025,11.712-.9,9.813-.7L9.637,0h6.475l.15-.7c-1.975-.175-2.15-.325-1.725-2.5l.7-3.9h.975c.875,0,1.2.225,1.575,1.15.525,1.275,1.05,2.525,1.675,3.7C20.337-.6,21.163.1,23.712.2h.3Zm-8.8-7.475,1.175-6.125c.125-.65.25-.95.45-1.1a1.834,1.834,0,0,1,1.1-.25c1.725,0,2.825,1.075,2.825,3.225a4.327,4.327,0,0,1-1.85,3.625,4.6,4.6,0,0,1-2.625.625Zm25.325-8.3H35.313l-.2.7.725.1c.95.15,1.1.35.575,1.225-.975,1.65-2.725,4.15-3.9,5.8-.7-1.75-1.7-4.525-2.2-5.925-.225-.75-.175-.95.65-1.075l.85-.125.175-.7H26.063l-.2.7c1.575.175,1.75.3,2.325,1.825.975,2.575,1.575,4.225,2.125,5.75a2.263,2.263,0,0,1,.125,1.5l-.65,3.3c-.425,2.15-.6,2.3-2.65,2.45l-.175.7h6.9l.175-.7c-2.225-.2-2.425-.325-2-2.45l.7-3.45a3.711,3.711,0,0,1,.625-1.45c1.625-2.325,2.925-4.175,4.025-5.55,1.275-1.6,1.575-1.75,3.15-1.925Z" transform="translate(38.813 16.85)" fill="#8e8e8e"/>
</svg>
