<svg xmlns="http://www.w3.org/2000/svg" xmlns:xlink="http://www.w3.org/1999/xlink" width="207.614" height="31.777" viewBox="0 0 207.614 31.777">
  <defs>
    <clipPath id="clip-path">
      <rect id="長方形_8646" data-name="長方形 8646" width="207.614" height="31.777" fill="none"/>
    </clipPath>
  </defs>
  <g id="グループ_31362" data-name="グループ 31362" transform="translate(0 -0.001)">
    <g id="グループ_12589" data-name="グループ 12589" transform="translate(0 0.001)" clip-path="url(#clip-path)">
      <path id="パス_28988" data-name="パス 28988" d="M57,4.961c-.228-.8-.6-1.7-1.677-1.7a1.315,1.315,0,0,0-1.384,1.373c0,.888.586,1.319,1.614,1.84,1.053.534,2.2,1.145,2.2,2.54a2.587,2.587,0,0,1-2.87,2.439,4.023,4.023,0,0,1-1.244-.191,4.59,4.59,0,0,1-.66-.266,15.7,15.7,0,0,1-.343-2.006l.394-.1c.2.787.8,2.1,2.095,2.1a1.381,1.381,0,0,0,1.486-1.487c0-.9-.672-1.358-1.625-1.867-.9-.469-2.121-1.118-2.121-2.514a2.4,2.4,0,0,1,2.668-2.3,5.227,5.227,0,0,1,1.625.3c.05.458.126.965.228,1.765Z" transform="translate(34.928 1.867)" fill="#fff"/>
      <path id="パス_28989" data-name="パス 28989" d="M57.482,7.821a.75.75,0,1,1,1.5,0,.75.75,0,1,1-1.5,0" transform="translate(38.147 4.684)" fill="#fff"/>
      <path id="パス_28990" data-name="パス 28990" d="M60.18,11.184v-.368c1.016-.077,1.13-.153,1.13-1.233V4.543c0-1.08-.113-1.156-1.13-1.246V2.929h3.442V3.3c-1.016.09-1.131.166-1.131,1.246V9.584c0,1.08.115,1.156,1.131,1.233v.368Z" transform="translate(39.938 1.943)" fill="#fff"/>
      <path id="パス_28991" data-name="パス 28991" d="M64.037,7.821a.75.75,0,1,1,1.5,0,.75.75,0,1,1-1.5,0" transform="translate(42.498 4.684)" fill="#fff"/>
      <path id="パス_28992" data-name="パス 28992" d="M75.492,3.3c-.71.038-1,.2-1.066.762a21.328,21.328,0,0,0-.077,2.133V11.3h-.433L68.533,4.706h-.025V7.83c0,1.156.037,1.765.075,2.134.065.622.343.8,1.219.85v.369H66.78v-.369c.724-.05,1.041-.216,1.106-.825a21.431,21.431,0,0,0,.088-2.159V5.062c0-.9-.025-.99-.266-1.3A1.349,1.349,0,0,0,66.59,3.3V2.929h1.968l5.221,6.222h.037V6.191a19.279,19.279,0,0,0-.088-2.108c-.063-.557-.356-.735-1.258-.787V2.929h3.023Z" transform="translate(44.192 1.943)" fill="#fff"/>
      <path id="パス_28993" data-name="パス 28993" d="M84.62,3.3c-1.028.088-1.13.151-1.13,1.219V9.6c0,1.068.1,1.131,1.13,1.219v.369H81.128v-.369c1.066-.088,1.168-.151,1.168-1.219v-2.5H78.13V9.6c0,1.068.1,1.131,1.118,1.219v.369H75.831v-.369c1-.088,1.106-.151,1.106-1.219V4.516c0-1.068-.1-1.131-1.143-1.219V2.929h3.391V3.3c-.953.088-1.055.151-1.055,1.219v2.02H82.3V4.516c0-1.055-.1-1.131-1.08-1.219V2.929h3.4Z" transform="translate(50.3 1.943)" fill="#fff"/>
      <path id="パス_28994" data-name="パス 28994" d="M91.636,7.03a4.176,4.176,0,0,1-4.267,4.42A4.124,4.124,0,0,1,83.2,7.208a4.248,4.248,0,0,1,4.307-4.394A4.092,4.092,0,0,1,91.636,7.03m-7.011-.151c0,2.337,1.244,4.1,3.01,4.1,1.373,0,2.579-1.181,2.579-3.607,0-2.655-1.321-4.091-2.96-4.091-1.384,0-2.629,1.246-2.629,3.6" transform="translate(55.216 1.867)" fill="#fff"/>
      <path id="パス_28995" data-name="パス 28995" d="M96.645,9.164c-.077.419-.343,1.639-.458,2.02H90.358v-.369c1.068-.075,1.181-.165,1.181-1.244V4.529c0-1.08-.088-1.145-1.116-1.233V2.929h3.415V3.3c-.99.077-1.118.14-1.118,1.233v5c0,.674.065.915.306,1.041a2.631,2.631,0,0,0,1.168.153c.672,0,1.1-.063,1.4-.394a3.657,3.657,0,0,0,.659-1.258Z" transform="translate(59.965 1.943)" fill="#fff"/>
      <path id="パス_28996" data-name="パス 28996" d="M99.777,2.929a5.031,5.031,0,0,1,3.607,1.093,3.7,3.7,0,0,1,1.08,2.717,4.069,4.069,0,0,1-1.562,3.392,6.15,6.15,0,0,1-3.8,1.053H96.055v-.368c1.08-.077,1.181-.153,1.181-1.233V4.529c0-1.08-.1-1.143-1.066-1.219V2.929ZM98.431,9.5c0,.952.381,1.206,1.294,1.206,2.263,0,3.379-1.689,3.379-3.771a3.355,3.355,0,0,0-1.409-2.985,3.637,3.637,0,0,0-2.134-.572,1.888,1.888,0,0,0-.965.166c-.115.088-.165.241-.165.724Z" transform="translate(63.746 1.943)" fill="#fff"/>
      <path id="パス_28997" data-name="パス 28997" d="M103.235,11.184v-.368c1.016-.077,1.13-.153,1.13-1.233V4.543c0-1.08-.113-1.156-1.13-1.246V2.929h3.442V3.3c-1.016.09-1.131.166-1.131,1.246V9.584c0,1.08.115,1.156,1.131,1.233v.368Z" transform="translate(68.511 1.943)" fill="#fff"/>
      <path id="パス_28998" data-name="パス 28998" d="M116.216,3.3c-.71.038-1,.2-1.066.762a21.338,21.338,0,0,0-.077,2.133V11.3h-.433l-5.384-6.591h-.025V7.83a21.357,21.357,0,0,0,.075,2.134c.065.622.343.8,1.219.85v.369H107.5v-.369c.724-.05,1.041-.216,1.106-.825A21.429,21.429,0,0,0,108.7,7.83V5.062c0-.9-.025-.99-.266-1.3a1.349,1.349,0,0,0-1.118-.469V2.929h1.968L114.5,9.151h.037V6.191a19.278,19.278,0,0,0-.088-2.108c-.063-.557-.356-.735-1.258-.787V2.929h3.023Z" transform="translate(71.218 1.943)" fill="#fff"/>
      <path id="パス_28999" data-name="パス 28999" d="M122.947,7.78c-.737.115-.8.178-.8.94V9.786a5.685,5.685,0,0,0,.09,1.194,12.37,12.37,0,0,1-2.846.469c-2.832,0-4.7-1.727-4.7-4.254,0-2.933,2.362-4.382,4.876-4.382a10.691,10.691,0,0,1,2.452.369c.038.431.1,1.13.2,2.006l-.381.077a2.23,2.23,0,0,0-2.477-1.981c-1.853,0-3.264,1.422-3.264,3.747,0,1.853,1.055,3.963,3.442,3.963a2.236,2.236,0,0,0,1.028-.216c.243-.128.381-.306.381-.8v-1.1c0-.915-.075-.992-1.333-1.093V7.412h3.327Z" transform="translate(76.114 1.867)" fill="#fff"/>
      <path id="パス_29000" data-name="パス 29000" d="M126.087,4.961c-.228-.8-.6-1.7-1.677-1.7a1.314,1.314,0,0,0-1.382,1.373c0,.888.584,1.319,1.612,1.84,1.053.534,2.2,1.145,2.2,2.54a2.587,2.587,0,0,1-2.87,2.439,4.023,4.023,0,0,1-1.244-.191,4.59,4.59,0,0,1-.66-.266,15.7,15.7,0,0,1-.343-2.006l.394-.1c.2.787.8,2.1,2.1,2.1a1.38,1.38,0,0,0,1.484-1.487c0-.9-.672-1.358-1.624-1.867-.9-.469-2.123-1.118-2.123-2.514a2.406,2.406,0,0,1,2.668-2.3,5.248,5.248,0,0,1,1.627.3c.048.458.125.965.226,1.765Z" transform="translate(80.777 1.867)" fill="#fff"/>
      <path id="パス_29001" data-name="パス 29001" d="M53.613,14.158a2.576,2.576,0,0,0,.554.067,7.667,7.667,0,0,0,1.647-.265c.06-.013.309-.138.368-.138.2,0,.647.138.647.336,0,.125-.185.131-.343.138s-.824.1-.962.111c-.027,0-.1.015-.1.073a.155.155,0,0,0,.06.1c.158.166.178.185.178.238s-.047.211-.053.243c-.027.265-.073.607-.111.91,0,.033-.007.06-.007.073,0,.1.045.125.2.125.133,0,.963-.06,1.141-.067.078-.007.414-.047.487-.047.178,0,.652.3.652.487,0,.12-.225.14-.245.14-.053,0-.336-.08-.414-.1a2.7,2.7,0,0,0-.8-.085,11.741,11.741,0,0,0-2.851.336c-.06.013-.3.111-.356.111-.027,0-.672-.283-.672-.606a.042.042,0,0,1,.047-.047,1.618,1.618,0,0,1,.191.04,3.116,3.116,0,0,0,.572.058,14.582,14.582,0,0,0,1.575-.183c.131-.06.131-.429.131-.759,0-.777-.053-.948-.238-.948-.138,0-.824.2-.848.2a1.138,1.138,0,0,1-.429-.3c-.065-.093-.138-.238-.111-.265a.227.227,0,0,1,.092.02" transform="translate(34.928 9.172)" fill="#fff"/>
      <path id="パス_29002" data-name="パス 29002" d="M59.936,14.174c-.047,0-1.429.323-1.462.336a2.964,2.964,0,0,1-.3.125,1.4,1.4,0,0,1-.449-.236,1.383,1.383,0,0,1-.158-.383c0-.033.007-.053.04-.053.007,0,.151.04.171.047a1.163,1.163,0,0,0,.349.067,9.137,9.137,0,0,0,1.805-.245,2.5,2.5,0,0,1,.363-.2c.158,0,.559.336.559.5,0,.058-.243.236-.283.283-.131.158-.652.928-.757,1.08a.218.218,0,0,0-.053.131c0,.06.013.073.289.225.3.171,1.476.837,1.476,1.436a.285.285,0,0,1-.27.291c-.151,0-.178-.047-.409-.456a3.023,3.023,0,0,0-1.178-1.3c-.067,0-.087.02-.231.185a6.625,6.625,0,0,1-1.758,1.409,1.578,1.578,0,0,1-.409.151c-.013,0-.047,0-.047-.038a2.031,2.031,0,0,1,.3-.245,7.179,7.179,0,0,0,2.482-3.056.072.072,0,0,0-.078-.053" transform="translate(37.979 9.043)" fill="#fff"/>
      <path id="パス_29003" data-name="パス 29003" d="M61.642,14.008a2.834,2.834,0,0,0,.416.027,19.517,19.517,0,0,0,2.727-.383,2.25,2.25,0,0,1,.27-.151,1.745,1.745,0,0,1,.779.857c0,.047,0,.118-.231.171a4.641,4.641,0,0,0-1.378.6,3.8,3.8,0,0,0-.336.843,3.6,3.6,0,0,1-1.659,2.036,1.739,1.739,0,0,1-.456.191c-.027,0-.038-.013-.038-.033s.012-.033.131-.125a4.543,4.543,0,0,0,1.18-1.226,3.012,3.012,0,0,0,.492-1.442.857.857,0,0,0-.085-.389c-.053-.1-.06-.118-.06-.145,0-.053.1-.06.138-.06a.982.982,0,0,1,.356.06,1.946,1.946,0,0,0,.258.085,1.786,1.786,0,0,0,.817-.8c0-.045-.04-.1-.125-.1a11.623,11.623,0,0,0-2.352.408,4.983,4.983,0,0,1-.554.191c-.158,0-.672-.421-.672-.652,0-.013.013-.025.047-.025s.283.058.336.065" transform="translate(40.654 8.959)" fill="#fff"/>
      <path id="パス_29004" data-name="パス 29004" d="M67.807,15.08c.256.158.283.185.283.243,0,.04-.072.225-.078.265a6.288,6.288,0,0,0-.04,1.166c0,.178.007.532.02.79.007.078.047.461.047.547,0,.065,0,.289-.158.289-.185,0-.409-.284-.409-.461,0-.067.067-.356.072-.423.04-.356.067-.863.067-1.211,0-.238,0-.93-.171-.93-.033,0-.06.027-.111.08a7.216,7.216,0,0,1-1.872,1.258c-.02,0-.033-.013-.033-.04a.057.057,0,0,1,.02-.045c.171-.153.356-.3.461-.4a6.137,6.137,0,0,0,2.07-2.635.37.37,0,0,0-.053-.185.724.724,0,0,1-.047-.1.066.066,0,0,1,.067-.053c.1,0,.765.276.765.527a.167.167,0,0,1-.06.131,1.888,1.888,0,0,0-.449.541c-.111.158-.323.394-.448.552a.107.107,0,0,0,.06.093" transform="translate(43.416 8.782)" fill="#fff"/>
      <path id="パス_29005" data-name="パス 29005" d="M69.967,14.158a2.576,2.576,0,0,0,.554.067,7.682,7.682,0,0,0,1.647-.265c.06-.013.309-.138.368-.138.2,0,.647.138.647.336,0,.125-.185.131-.343.138s-.824.1-.962.111c-.027,0-.1.015-.1.073a.155.155,0,0,0,.06.1c.158.166.178.185.178.238s-.047.211-.053.243c-.027.265-.073.607-.111.91,0,.033-.007.06-.007.073,0,.1.045.125.2.125.133,0,.963-.06,1.141-.067.078-.007.414-.047.487-.047.178,0,.652.3.652.487,0,.12-.225.14-.245.14-.053,0-.336-.08-.414-.1a2.7,2.7,0,0,0-.8-.085,11.742,11.742,0,0,0-2.851.336c-.06.013-.3.111-.356.111-.027,0-.672-.283-.672-.606a.042.042,0,0,1,.047-.047,1.618,1.618,0,0,1,.191.04,3.116,3.116,0,0,0,.572.058,14.582,14.582,0,0,0,1.575-.183c.131-.06.131-.429.131-.759,0-.777-.053-.948-.238-.948-.138,0-.823.2-.848.2a1.138,1.138,0,0,1-.429-.3c-.065-.093-.138-.238-.111-.265a.227.227,0,0,1,.092.02" transform="translate(45.781 9.172)" fill="#fff"/>
      <path id="パス_29006" data-name="パス 29006" d="M74.9,15.313c0-.013,0-.053.092-.053a2.7,2.7,0,0,1,.587.106,3.537,3.537,0,0,0,.408.125c.151,0,.323-.276.481-.534a2.421,2.421,0,0,0,.316-.717c0-.06-.032-.093-.085-.093s-1.153.265-1.4.356a2.743,2.743,0,0,1-.334.138.685.685,0,0,1-.476-.336,1.3,1.3,0,0,1-.158-.343c0-.02.013-.045.033-.045s.185.072.2.078a.827.827,0,0,0,.336.085,12.893,12.893,0,0,0,1.943-.361c.158-.125.171-.14.231-.14a1.612,1.612,0,0,1,.526.318.219.219,0,0,1,.08.171c0,.1-.02.118-.211.236-.131.087-.171.145-.514.685a5.624,5.624,0,0,0-.408.645c0,.06.033.073.329.225.369.185,1,.6,1,.955a.181.181,0,0,1-.178.2c-.211,0-.278-.06-.85-.614-.118-.111-.441-.381-.574-.381a.328.328,0,0,0-.223.131,6.069,6.069,0,0,1-2.484,1.6.036.036,0,0,1-.033-.033,2.588,2.588,0,0,1,.383-.289A11.185,11.185,0,0,0,75.7,15.978c.047-.053.111-.118.1-.191-.025-.145-.9-.381-.9-.474" transform="translate(48.801 9.011)" fill="#fff"/>
      <path id="パス_29007" data-name="パス 29007" d="M77.653,16.926c0-.126.06-.191.251-.309a6.109,6.109,0,0,0,.645-.507c.033-.033.1-.1.131-.1s.033.06.033.08c0,.309-.309,1.106-.744,1.106a.325.325,0,0,1-.126-.027.266.266,0,0,1-.191-.243m2.584.434c0,.1,0,.534-.349.534-.145,0-.158-.04-.3-.423A1.94,1.94,0,0,0,79.347,17c-.027-.047-.04-.058-.04-.078a.024.024,0,0,1,.027-.027c.047,0,.265.085.309.085.087,0,.12-.072.133-.178.032-.309.032-.968.032-1.324,0-.316-.012-.434-.191-.434-.038,0-.828.111-1.218.211a2,2,0,0,1-.263.072c-.146,0-.474-.448-.474-.579,0-.033.005-.06.045-.06s.04.007.125.04a1.984,1.984,0,0,0,.587.065c.151,0,.863-.038,1.06-.045.251-.013.318-.06.318-.278a2.38,2.38,0,0,0-.14-.842c-.013-.033-.125-.138-.125-.171s.073-.067.225-.067c.454,0,.619.289.619.343a1.382,1.382,0,0,1-.118.218,1.626,1.626,0,0,0-.06.507c0,.2.085.236.256.236a6.355,6.355,0,0,0,.641-.065c.085-.013.434-.1.506-.1a1.4,1.4,0,0,1,.641.225c.072.047.165.1.165.21s-.146.133-.171.133c-.1,0-.527-.073-.621-.087-.25-.027-.73-.033-.784-.033-.567,0-.626,0-.626.376,0,.316.033,1.72.033,2m1.587-.474a2.324,2.324,0,0,0-.534-.81,1.614,1.614,0,0,1-.263-.276c0-.033.033-.033.047-.033.348,0,1.409.639,1.409,1.191,0,.153-.078.369-.3.363-.185,0-.245-.151-.363-.434" transform="translate(51.534 8.888)" fill="#fff"/>
      <path id="パス_29008" data-name="パス 29008" d="M85.389,14.569c.04,0,.111-.007.145-.007.4,0,.461.245.461.289,0,.185-.27.2-.546.2-.153,0-.812-.013-.943-.013a10.651,10.651,0,0,0-1.717.118c-.078.013-.434.12-.512.12-.284,0-.587-.409-.587-.632,0-.04.02-.08.053-.08s.191.073.223.08a3.719,3.719,0,0,0,.805.058c.216,0,1.657-.085,2.619-.138" transform="translate(54.212 9.663)" fill="#fff"/>
      <path id="パス_29009" data-name="パス 29009" d="M86.349,15.725a2.288,2.288,0,0,1-1.218,1.251.031.031,0,0,1-.033-.033,1.974,1.974,0,0,1,.263-.349,3.489,3.489,0,0,0,.8-1.93,1.428,1.428,0,0,0-.113-.566.482.482,0,0,1-.025-.12c0-.02.005-.033.032-.033.047,0,.745.225.745.561,0,.02-.336.968-.449,1.219m1.068.612c0-.033.033-.2.04-.238.02-.125.027-.645.027-.81a4,4,0,0,0-.126-1.238,1.7,1.7,0,0,1-.085-.238c0-.027.027-.032.04-.032.032,0,.724.118.724.461,0,.078-.091.421-.1.494-.027.176-.053.975-.053,1.191,0,.087.007.218.126.218a3.927,3.927,0,0,0,1.436-1.073c.111-.113.672-.705.7-.705a.028.028,0,0,1,.025.027,5.5,5.5,0,0,1-1.534,1.883,3.4,3.4,0,0,0-.454.423c-.113.125-.171.171-.218.178-.191.032-.541-.356-.541-.541" transform="translate(56.475 9.145)" fill="#fff"/>
      <path id="パス_29010" data-name="パス 29010" d="M92.116,15.747c0,.047-.158.171-.178.2s-.27.632-.329.745a3.264,3.264,0,0,1-1.745,1.692c-.027,0-.04-.013-.04-.032a4.157,4.157,0,0,1,.349-.329,4.451,4.451,0,0,0,1.291-2.484c0-.08-.013-.2-.158-.2a8.053,8.053,0,0,0-1.048.2,4.385,4.385,0,0,1-.474.118.577.577,0,0,1-.521-.5c0-.04.013-.067.047-.067a.637.637,0,0,1,.1.033,1.92,1.92,0,0,0,.414.047c.423,0,2.128-.185,2.589-.25.08-.015.423-.12.494-.12s.83.145.83.416c0,.118-.1.158-.191.158s-.394-.053-.461-.06c-.138-.013-.323-.033-.467-.033a5.613,5.613,0,0,0-.665.02.079.079,0,0,0-.047.1,2.1,2.1,0,0,1,.211.343m-1.462-1.936a4.072,4.072,0,0,0,.935-.165,2.792,2.792,0,0,1,.527-.078c.138,0,.376.027.376.216s-.111.2-.5.245c-.336.04-.777.125-.877.145-.033.007-.289.06-.309.06-.323,0-.527-.462-.494-.474,0,0,.289.052.343.052m3.532.692c0,.1-.08.251-.2.251-.093,0-.151-.053-.336-.3a1.908,1.908,0,0,0-.449-.408c-.025-.02-.092-.08-.092-.106s.06-.052.111-.052c.594,0,.963.388.963.619m.579-.645a.189.189,0,0,1-.171.2c-.138,0-.225-.113-.336-.265a1.549,1.549,0,0,0-.554-.4c-.065-.027-.078-.053-.078-.073,0-.065.2-.065.243-.065.356,0,.9.223.9.606" transform="translate(59.239 8.794)" fill="#fff"/>
      <path id="パス_29011" data-name="パス 29011" d="M95.219,15.337c.111.072.25.138.25.225,0,.032-.058.183-.065.223a6.731,6.731,0,0,0-.027.948c0,.171,0,.383.013.632,0,.067.04.4.04.476,0,.052,0,.25-.145.25s-.331-.256-.331-.388a1.381,1.381,0,0,1,.033-.238,8.182,8.182,0,0,0,.073-1.133c0-.165,0-.725-.131-.725-.02,0-.033.013-.138.106a4.76,4.76,0,0,1-1.477.988.037.037,0,0,1-.038-.04c0-.033.2-.2.263-.251a5.392,5.392,0,0,0,1.818-2.259.36.36,0,0,0-.045-.158.623.623,0,0,1-.053-.1.071.071,0,0,1,.072-.067c.073,0,.632.231.632.454a.156.156,0,0,1-.052.12.77.77,0,0,0-.2.21c-.145.218-.185.265-.514.685a.067.067,0,0,0,.027.047" transform="translate(61.902 9.171)" fill="#fff"/>
      <path id="パス_29012" data-name="パス 29012" d="M98.265,16.83a4.447,4.447,0,0,0-.645.541c-.126.151-.138.163-.238.163-.356,0-.843-.421-.843-.684,0-.047.007-.349.067-.349a1.624,1.624,0,0,1,.2.125,1.078,1.078,0,0,0,.448.151,10.961,10.961,0,0,0,3.163-2.246,4,4,0,0,1,.3-.289.041.041,0,0,1,.033.032,8.987,8.987,0,0,1-2.484,2.557m-.541-2.168c-.178,0-.243-.106-.461-.434a1.48,1.48,0,0,0-.6-.541c-.027-.013-.06-.033-.06-.06s.052-.06.145-.06c.705,0,1.258.376,1.258.765a.29.29,0,0,1-.283.329" transform="translate(64.067 9.003)" fill="#fff"/>
      <path id="パス_29013" data-name="パス 29013" d="M101.654,13.859c0-.065.091-.065.145-.065a.617.617,0,0,1,.612.368c0,.08-.065.165-.2.329-.032.047-.052.073-.052.106,0,.053.078.053.1.053a3.726,3.726,0,0,0,1-.265,1.237,1.237,0,0,1,.309-.1c.06,0,.093.018.363.178.04.02.211.111.245.131a.237.237,0,0,1,.125.165c0,.092-.047.118-.264.25-.072.047-.1.087-.329.443a8.069,8.069,0,0,1-2.357,2.477,4.511,4.511,0,0,1-1.311.632.06.06,0,0,1-.06-.06c0-.027.02-.04.225-.151a8.228,8.228,0,0,0,3.261-3.557.072.072,0,0,0-.073-.073c-.013,0-.922.2-1.08.2-.04,0-.218-.02-.258-.02-.125,0-.138.013-.414.329a5.024,5.024,0,0,1-.9.857,2.029,2.029,0,0,1-.632.349.041.041,0,0,1-.047-.04,5.529,5.529,0,0,1,.521-.494c.534-.534,1.16-1.442,1.108-1.838-.007-.033-.047-.178-.047-.2m3.1.225c0,.111-.078.256-.191.256-.092,0-.145-.04-.349-.283a2.094,2.094,0,0,0-.467-.389c-.033-.02-.1-.065-.1-.092s.052-.06.111-.06c.843,0,.995.487.995.567m.158-.995c.27.158.27.309.27.376a.176.176,0,0,1-.163.19c-.14,0-.2-.065-.349-.216a1.526,1.526,0,0,0-.607-.323c-.065-.02-.085-.053-.085-.073,0-.052.171-.091.236-.091a1.218,1.218,0,0,1,.7.138" transform="translate(66.355 8.594)" fill="#fff"/>
      <path id="パス_29014" data-name="パス 29014" d="M106.756,14.174c-.047,0-1.429.323-1.462.336a2.964,2.964,0,0,1-.3.125,1.4,1.4,0,0,1-.449-.236,1.382,1.382,0,0,1-.158-.383c0-.033.007-.053.04-.053.007,0,.151.04.171.047a1.163,1.163,0,0,0,.349.067,9.137,9.137,0,0,0,1.805-.245,2.5,2.5,0,0,1,.363-.2c.158,0,.559.336.559.5,0,.058-.243.236-.283.283-.131.158-.652.928-.757,1.08a.218.218,0,0,0-.053.131c0,.06.013.073.289.225.3.171,1.476.837,1.476,1.436a.285.285,0,0,1-.27.291c-.151,0-.178-.047-.409-.456a3.023,3.023,0,0,0-1.178-1.3c-.067,0-.087.02-.231.185a6.625,6.625,0,0,1-1.758,1.409,1.578,1.578,0,0,1-.409.151c-.013,0-.047,0-.047-.038a2.03,2.03,0,0,1,.3-.245,7.179,7.179,0,0,0,2.482-3.056.072.072,0,0,0-.078-.053" transform="translate(69.051 9.043)" fill="#fff"/>
      <path id="パス_29015" data-name="パス 29015" d="M109.592,14.866c-.218,0-.218.043-.218.4,0,.125.045.156.3.25.156.062.5.193.5.522,0,.025-.007.255-.161.255-.106,0-.136-.068-.268-.323-.063-.118-.225-.411-.311-.411-.025,0-.063.025-.063.143,0,.206.007,1.115.007,1.3-.007.218.018,1.176.018,1.369a.274.274,0,0,1-.286.293.121.121,0,0,1-.136-.131c0-.057.013-.5.018-.566.007-.15.025-1.569.025-1.755,0-.013,0-.082-.018-.082s-.659,1.276-.847,1.276a.014.014,0,0,1-.012-.013c0-.012.193-.429.23-.509a9.4,9.4,0,0,0,.586-1.867c0-.15-.138-.15-.193-.15s-.311.007-.429.012a.654.654,0,0,1-.111.02c-.02,0-.032-.02-.045-.045l-.1-.143c-.02-.025-.025-.03-.025-.037a.016.016,0,0,1,.018-.018c.1,0,.672.043.8.043.168,0,.168,0,.168-1.026,0-.093-.043-.529-.043-.561,0-.012.007-.025.018-.025a3.76,3.76,0,0,1,.4.118c.123.032.168.05.168.111,0,.045-.02.057-.082.106s-.075.082-.075.193-.043.89-.043.965c0,.037.007.118.13.118a.188.188,0,0,0,.163-.106c.062-.118.08-.155.13-.155a1.52,1.52,0,0,1,.467.354c0,.075-.131.075-.274.075Zm2.745.983c-.068,0-.156,0-.156.087a3.285,3.285,0,0,0,1.469,1.73c.093.057.236.136.236.168s-.043.032-.062.032a.814.814,0,0,0-.318.068,1.433,1.433,0,0,1-.279.168,4.374,4.374,0,0,1-.977-1.575c-.02-.043-.088-.255-.106-.3,0-.007-.012-.025-.025-.025s-.025.037-.025.068c0,.336.013,1.823.013,2.128,0,.1-.013.156-.063.193a.453.453,0,0,1-.255.082c-.093,0-.131-.043-.131-.13,0-.22.043-.574.05-.792.007-.3.025-1.288.025-1.3,0-.093-.007-.118-.037-.118s-.038.012-.088.093a4.5,4.5,0,0,1-1.474,1.624,1.046,1.046,0,0,1-.225.106c-.012,0-.037-.007-.037-.025a1.318,1.318,0,0,1,.211-.225,5.188,5.188,0,0,0,1.331-1.93c0-.13-.1-.13-.236-.13s-.479.007-.622.018c-.018,0-.111.013-.13.013s-.038-.013-.057-.038l-.118-.143c-.025-.032-.032-.032-.032-.043s.013-.013.025-.013c.043,0,.236.02.274.02s.5.025.79.025h.193c.173,0,.218-.038.218-.206,0-.15,0-.765-.02-.865s-.043-.13-.18-.13h-.561c-.13,0-.143.012-.223.155a2.273,2.273,0,0,1-.549.665s-.018,0-.018-.018.175-.4.206-.479a5.373,5.373,0,0,0,.354-1.263c.012-.131.018-.143.062-.143.02,0,.6.168.6.255,0,.043-.043.057-.155.093-.063.02-.068.045-.156.243-.037.093-.111.268-.111.274,0,.05.05.055.082.055h.479c.055,0,.18,0,.18-.168,0-.073-.007-.448-.012-.5-.007-.093-.063-.529-.063-.584a.027.027,0,0,1,.025-.025c.018,0,.579.123.579.193,0,.03-.1.13-.1.155a6.7,6.7,0,0,0-.038.734c0,.163.062.193.2.193h.15c.143,0,.186,0,.231-.043s.243-.293.3-.293a1.82,1.82,0,0,1,.516.411c0,.088-.123.088-.329.088h-.877c-.088,0-.143.012-.181.08a8.123,8.123,0,0,0-.025.815c0,.231,0,.306.206.306h.273c.256,0,.286,0,.329-.045s.225-.279.281-.279.547.318.547.4-.131.087-.329.087Z" transform="translate(71.71 8.659)" fill="#fff"/>
      <path id="パス_29016" data-name="パス 29016" d="M115.462,14.4c.1,0,.13-.018.13-.075s-.1-.709-.118-.809c-.012-.068-.087-.386-.087-.454,0-.018.025-.018.043-.018a2.743,2.743,0,0,1,.436.068c.161.032.243.057.243.136,0,.038-.007.043-.063.106s-.068.1-.068.386c.007.659.057.659.211.659h.722c.286,0,.318,0,.4-.1.193-.263.211-.286.273-.286.093,0,.6.359.6.466s-.111.093-.329.093H116.2c-.106,0-.143.013-.143.1a8.147,8.147,0,0,0,.248,1.1,3.5,3.5,0,0,0,1.251,1.985c.088,0,.193-.18.275-.329.03-.057.148-.329.18-.329s.018.03.018.043-.08.69-.08.822a.461.461,0,0,0,.068.255.338.338,0,0,1,.062.175.141.141,0,0,1-.161.155c-.547,0-1.848-1.324-2.246-3.708-.038-.231-.05-.268-.206-.268h-1.68c-.143,0-.566,0-.784.013a1.278,1.278,0,0,1-.136.018c-.018,0-.032-.018-.05-.043l-.125-.143c-.025-.025-.025-.032-.025-.038s.007-.018.025-.018c.043,0,.236.018.275.025.286.012.559.018.852.018Zm-.84,1.637c-.043,0-.15.007-.175.1-.012.063-.037.717-.037,1.1s0,.441.1.441,1.5-.316,1.512-.316.032,0,.032.018a8.115,8.115,0,0,1-1.669.679,7.959,7.959,0,0,0-1.138.384c-.038.02-.168.175-.2.175-.07,0-.245-.654-.245-.672s.02-.03.213-.05a7.94,7.94,0,0,0,.858-.123.124.124,0,0,0,.055-.088c.007-.05.013-.815.013-.89,0-.05-.007-.579-.007-.6-.007-.148-.118-.148-.18-.148a4.973,4.973,0,0,0-.567.018c-.012,0-.073.012-.086.012s-.037-.018-.055-.043l-.12-.143c-.023-.025-.03-.032-.03-.043s.012-.012.025-.012c.043,0,.236.018.273.023.286.013.566.02.852.02h.492a.95.95,0,0,0,.3-.02c.068-.03.255-.329.316-.329a1.08,1.08,0,0,1,.454.429c0,.082-.123.082-.334.082Zm1.86-2.925c.087,0,.947.211.947.572a.23.23,0,0,1-.256.255c-.068,0-.08-.018-.211-.2a3.131,3.131,0,0,0-.479-.554c-.018-.012-.043-.037-.037-.05s.025-.018.037-.018" transform="translate(74.77 8.656)" fill="#fff"/>
      <path id="パス_29017" data-name="パス 29017" d="M116.99,15.81c0-.025.02-.037.095-.087.043-.032.552-.393.957-.734a5.09,5.09,0,0,0,1.487-1.787c.05-.193.05-.218.125-.218.007,0,.586.275.586.379,0,.032-.013.038-.075.082-.038.018-.043.037-.043.062A4.594,4.594,0,0,0,122.7,15.5c.175.05.175.05.175.082s-.018.043-.175.093a.735.735,0,0,0-.4.255c-.025.045-.043.063-.082.063a5.847,5.847,0,0,1-2.164-2.2c-.07-.13-.082-.148-.106-.148s-.125.123-.175.186a6.188,6.188,0,0,1-2.725,2c-.018,0-.057.012-.057-.02m1.712.853c-.461,0-.616.007-.784.018-.02,0-.113.012-.131.012s-.032-.012-.057-.037l-.118-.143-.03-.043c0-.013.012-.013.025-.013.043,0,.236.018.273.018.306.013.635.027.853.027h2.053c.261,0,.329,0,.479-.206.093-.131.118-.168.175-.168s.068.012.211.131c.318.261.318.268.318.323,0,.082-.032.082-.324.082h-1.9c-.063,0-.088,0-.088.018,0,0,.293.25.293.318s0,.055-.186.1c-.05.018-.063.038-.218.243-.131.175-.386.479-.424.517s-.087.093-.087.148.087.063.111.063c.082,0,.667-.038,1.358-.106.448-.043.5-.05.5-.111,0-.093-.366-.411-.366-.486,0-.032.023-.037.043-.037a5.68,5.68,0,0,1,.79.386c.168.1.554.323.554.715,0,.2-.125.336-.243.336-.181,0-.311-.231-.424-.436s-.173-.231-.261-.231a27.255,27.255,0,0,0-2.886.574,1.387,1.387,0,0,1-.181.1.068.068,0,0,1-.062-.043,4.977,4.977,0,0,1-.343-.659c0-.043.032-.043.05-.043.043,0,.236.037.275.043a3.486,3.486,0,0,0,.366.025c.349,0,.393,0,.647-.511a4.362,4.362,0,0,0,.324-.822c0-.1-.082-.1-.186-.1ZM120,15.505c.3,0,.318-.012.443-.161.1-.118.173-.211.2-.211a1.678,1.678,0,0,1,.472.466c0,.068-.032.068-.329.068h-1.431c-.381,0-.561,0-.79.02-.02,0-.113.012-.131.012s-.032-.012-.055-.037l-.12-.143c-.023-.025-.023-.032-.023-.045s0-.012.018-.012c.043,0,.236.018.273.018.3.018.6.025.853.025Z" transform="translate(77.639 8.617)" fill="#fff"/>
      <path id="パス_29018" data-name="パス 29018" d="M121.43,14.5c-.025-.032-.032-.037-.032-.043s.02-.013.025-.013c.118,0,.69.038.822.038.175,0,.175-.043.175-.461,0-.093-.007-.461-.025-.7,0-.032-.032-.175-.032-.211,0-.013.018-.013.025-.013a4.781,4.781,0,0,1,.561.168c.03.02.068.045.068.088,0,.025-.113.118-.125.143-.032.057-.032.087-.032.348v.522c0,.088.038.1.1.1a.217.217,0,0,0,.15-.043c.043-.025.225-.211.279-.211a.124.124,0,0,1,.088.043c.073.075.2.23.223.243.136.13.15.143.15.181a.093.093,0,0,1-.068.08c-.018.007-.106.025-.125.032a7.151,7.151,0,0,0-.579.622c-.18.186-.2.2-.2.316,0,.131.057.145.206.175.211.05.8.218.8.69,0,.195-.106.288-.218.288-.15,0-.218-.125-.381-.456-.037-.068-.241-.384-.359-.384-.057,0-.057.087-.057.161,0,.236.007,1.387.007,1.642,0,.082.03.467.03.554a.3.3,0,0,1-.329.286c-.15,0-.186-.062-.186-.15,0-.062.025-.348.025-.416.012-.461.037-1.108.037-1.842,0-.068,0-.175-.062-.175s-.872.7-1.033.7c-.013,0-.032,0-.032-.018a6.1,6.1,0,0,1,.542-.554,7.713,7.713,0,0,0,1.126-1.526c0-.055-.043-.062-.1-.062h-.436c-.243,0-.5.007-.722.018-.018,0-.111.013-.13.013s-.038-.013-.057-.038Zm2.035,3.808c-.025-.032-.025-.032-.025-.037a.021.021,0,0,1,.018-.02c.038,0,.231.025.274.025.18.007.5.02.852.02h.243c.057,0,.168,0,.181-.138.012-.111.025-2.507.025-2.832,0-.062,0-.191-.15-.191s-.517,0-.735.018c-.018,0-.1.012-.13.012s-.032-.012-.057-.037l-.118-.143c-.025-.032-.025-.032-.025-.043s.013-.013.018-.013.231.018.261.018c.063,0,.567.025.779.025.15,0,.161-.08.161-.255,0-.572-.012-.852-.043-1.319,0-.05-.037-.268-.037-.318,0-.03.012-.043.05-.043.018,0,.4.118.448.131s.186.048.186.155c0,.032-.125.138-.136.168-.037.088-.057,1.12-.057,1.288,0,.075,0,.193.15.193.293,0,.323,0,.454-.173.18-.243.2-.268.255-.268.088,0,.524.4.524.522,0,.082-.131.082-.331.082h-.865c-.166,0-.18.093-.18.2,0,.373.018,2.2.018,2.614,0,.23,0,.343.161.343h.231a.384.384,0,0,0,.366-.188c.168-.216.188-.241.261-.241.057,0,.6.4.6.509,0,.088-.13.088-.336.088h-2.208c-.15,0-.567-.007-.785.012-.018,0-.111.018-.13.018s-.032-.012-.057-.043Z" transform="translate(80.516 8.654)" fill="#fff"/>
      <path id="パス_33881" data-name="パス 33881" d="M68.837,4.675A15.88,15.88,0,0,0,57.66,0h-.07l-.147,0c-6.907.046-10.8,2.765-14.279,5.958-.653.6-3.858,3.519-7.639,6.958C33.022,8.347,26.948,0,15.988,0A16.079,16.079,0,0,0,0,15.887H0v.005H0v0A16.08,16.08,0,0,0,15.919,31.777c.014,0,.744-.01.775-.012a20.234,20.234,0,0,0,13.722-5.927c.655-.6,3.861-3.523,7.646-6.964,2.509,4.573,8.58,12.9,19.529,12.9A16.082,16.082,0,0,0,73.579,15.89v-.007h0v0A15.869,15.869,0,0,0,68.837,4.675ZM15.988.262a19.372,19.372,0,0,1,9.231,2.283,22.806,22.806,0,0,1,6.326,5.1A30.039,30.039,0,0,1,35.327,13.1C30.18,17.777,24.037,23.351,21.8,25.351a13.591,13.591,0,0,1-9.715,3.482A10.445,10.445,0,0,1,3.27,24.788,15.6,15.6,0,0,1,15.988.262Zm57.129,15.7A15.664,15.664,0,0,1,57.59,31.516a19.37,19.37,0,0,1-9.229-2.283,22.737,22.737,0,0,1-6.324-5.1,30.057,30.057,0,0,1-3.778-5.436C43.4,14.014,49.543,8.446,51.782,6.447a13.6,13.6,0,0,1,9.715-3.5,10.448,10.448,0,0,1,8.814,4.044,15.757,15.757,0,0,1,2.808,8.829v.137Z" transform="translate(0 -0.001)" fill="#fff"/>
    </g>
  </g>
</svg>
