<svg xmlns="http://www.w3.org/2000/svg" width="270.425" height="35.239" viewBox="0 0 270.425 35.239">
  <path id="パス_130479" data-name="パス 130479" d="M-127.219-33.1l-.357,1.428c4.029.408,4.284.714,3.519,4.743l-4.08,20.553c-.867,4.284-1.224,4.539-5.1,4.947L-133.594,0h13.923l.306-1.428c-4.641-.408-5-.714-4.182-4.947l1.53-8.007,3.468,1.071c.561,0,1.224,0,1.887-.051,5.763-.408,12.189-3.927,12.189-11.118,0-5.814-3.927-8.619-10.965-8.619Zm7.9,4.539c.306-1.632.663-2.193,1.224-2.448a4.841,4.841,0,0,1,2.142-.408c4.182,0,6.477,2.448,6.477,6.681,0,6.528-4.794,9.333-8.568,9.333a9.841,9.841,0,0,1-3.621-.663ZM-74.791-.918a6.14,6.14,0,0,1-3.366-2.4,38.11,38.11,0,0,1-3.162-5.406c-1.173-2.346-2.5-5.508-3.009-6.834,4.131-1.428,7.956-4.539,7.956-9.69a7.028,7.028,0,0,0-3.162-6.273c-1.785-1.224-4.539-1.581-7.344-1.581H-98.3l-.306,1.428c4.029.357,4.233.561,3.468,4.692l-3.978,20.5c-.867,4.386-1.173,4.641-5.049,5.049L-104.524,0h13.209l.306-1.428c-4.029-.357-4.386-.663-3.519-5.1l1.428-7.956h1.989c1.785,0,2.448.459,3.213,2.346,1.071,2.6,2.142,5.151,3.417,7.548,1.785,3.366,3.468,4.794,8.67,5h.612ZM-92.743-16.167l2.4-12.495c.255-1.326.51-1.938.918-2.244a3.742,3.742,0,0,1,2.244-.51c3.519,0,5.763,2.193,5.763,6.579A8.826,8.826,0,0,1-85.2-17.442a9.391,9.391,0,0,1-5.355,1.275ZM-66.58-33.1l-.357,1.428c4.182.357,4.437.663,3.621,4.743L-67.294-6.171c-.816,4.08-1.224,4.386-5.3,4.743L-72.955,0h24.072c.714-1.632,2.6-6.426,3.162-7.905l-1.479-.51A20.787,20.787,0,0,1-50.668-3.57c-1.377,1.326-2.907,1.734-6.579,1.734-2.754,0-4.233-.1-5-.765-.663-.612-.714-1.938-.2-4.743l1.683-8.925h4.641c4.386,0,4.386.357,4.284,4.029h1.53l1.938-9.792H-49.9c-1.224,3.366-1.53,3.723-5.814,3.723h-4.641l2.091-10.914c.357-1.887.51-2.091,2.295-2.091H-52.3c3.621,0,4.335.459,4.9,1.632.561.969.663,2.55.714,4.539l1.53-.1c.357-2.958.816-6.834.969-7.854Zm25.041,23.052c.1,3.672.1,6.477.153,7.65C-40.213-1.071-36.643.765-32.512.765c6.018,0,11.322-3.825,11.322-9.843,0-4.131-2.5-6.834-6.018-9.435l-1.53-1.122c-2.652-1.989-4.59-3.825-4.59-6.732a5.559,5.559,0,0,1,5.559-5.814c4.386,0,5.712,3.672,6.12,7.4l1.53-.153c.051-2.448,0-5.151.153-7.242-.408-.153-1.224-.51-2.193-.867a16.382,16.382,0,0,0-5.049-.867c-6.12,0-10.455,3.825-10.455,9.231,0,4.233,3.264,7.089,5.763,9.027l1.479,1.122c2.907,2.3,4.59,4.284,4.59,7.089,0,3.876-2.346,6.426-6.018,6.426-5.559,0-7.7-5.406-8.211-9.18ZM.995-33.1H-12.316l-.357,1.428c4.182.357,4.539.663,3.825,4.437L-12.979-6.069c-.765,3.927-1.071,4.335-5,4.641L-18.334,0H-4.921l.306-1.428C-8.746-1.734-9.1-2.091-8.338-6.069l4.08-21.165c.765-3.774,1.02-4.08,4.947-4.437Zm5.3,0-.357,1.428c4.08.459,4.284.765,3.519,4.845L5.482-6.171C4.768-2.3,4.411-1.836.484-1.428L.127,0h11.22C17.773,0,22.72-1.02,27.106-3.774a17.841,17.841,0,0,0,8.415-15.453c0-9.741-6.426-13.872-16.473-13.872Zm8.058,4.845c.306-1.683.561-2.244,1.071-2.55a6.336,6.336,0,0,1,3.213-.561c7.293.051,11.526,4.335,11.526,11.832C30.166-10,24.3-1.938,14.305-1.887A6.877,6.877,0,0,1,10.837-2.6c-.918-.561-1.02-1.53-.561-4.08ZM42.866-33.1l-.357,1.428c4.182.357,4.437.663,3.621,4.743L42.152-6.171c-.816,4.08-1.224,4.386-5.3,4.743L36.491,0H60.563c.714-1.632,2.6-6.426,3.162-7.905l-1.479-.51A20.787,20.787,0,0,1,58.778-3.57C57.4-2.244,55.871-1.836,52.2-1.836c-2.754,0-4.233-.1-5-.765-.663-.612-.714-1.938-.2-4.743l1.683-8.925h4.641c4.386,0,4.386.357,4.284,4.029h1.53l1.938-9.792h-1.53c-1.224,3.366-1.53,3.723-5.814,3.723H49.088l2.091-10.914c.357-1.887.51-2.091,2.295-2.091h3.672c3.621,0,4.335.459,4.9,1.632.561.969.663,2.55.714,4.539l1.53-.1c.357-2.958.816-6.834.969-7.854Zm62.271,0H93.56l-.408,1.428c3.723.2,4.641.765,4.437,3.162a78.89,78.89,0,0,1-1.326,8.721L93.967-7.6h-.153L79.076-33.1h-7.7l-.357,1.428c2.7.153,3.672.459,4.284,1.53.612,1.122.816,1.938.255,4.743L73.007-13.26c-1.02,4.743-1.581,7.038-2.142,8.772-.663,2.244-1.836,2.907-4.488,3.06L66.02,0H77.852l.306-1.428c-3.57-.255-4.488-.816-4.335-3.162A65.725,65.725,0,0,1,75.1-13.158l2.6-13.26h.153L92.846.408h1.734l3.825-20.2a86.589,86.589,0,0,1,1.989-8.67c.663-2.244,1.326-3.06,4.437-3.213Zm30.4-1.275c-.969.969-1.326,1.275-2.652,1.275H113.5c-1.326,0-1.887-.1-2.4-1.275h-1.173c-.561,2.754-1.479,6.12-2.4,9.18h1.581a19.819,19.819,0,0,1,2.55-4.59c.969-1.122,1.887-1.53,6.12-1.53h2.55L115.541-6.171c-.765,3.978-1.122,4.437-5.406,4.743L109.778,0h14.331l.306-1.428c-4.59-.306-4.947-.714-4.233-4.743l4.743-25.143h3.009c3.672,0,4.794.306,5.3,1.479a11.439,11.439,0,0,1,.612,4.641l1.632-.1c.306-2.856.765-6.834,1.224-9.078Z" transform="translate(133.659 34.424)" fill="#fff" stroke="#fff" stroke-width="0.1"/>
</svg>
