<svg xmlns="http://www.w3.org/2000/svg" width="96.267" height="16.195" viewBox="0 0 96.267 16.195">
  <g id="グループ_31522" data-name="グループ 31522" transform="translate(-2.233 -181.806)">
    <path id="パス_130473" data-name="パス 130473" d="M4.41-9.27l-.18-.108a5.749,5.749,0,0,0-1.458,1.1l-.2.81a9.175,9.175,0,0,0-1.728.882L.972-6.1A7.366,7.366,0,0,1,2.43-6.75C1.782-3.69,1.1-.576.432,2.556.2,3.654-.018,3.834-1.116,4.05l-.09.468L3.078,4.3l.072-.486L2.718,3.78c-.882-.09-.99-.252-.792-1.26L2.43.036a2.746,2.746,0,0,0,1.026.18A6.987,6.987,0,0,0,6.822-1.872,5.768,5.768,0,0,0,8.352-5.58c0-1.62-.738-2.52-2.592-2.52a6.783,6.783,0,0,0-1.674.216ZM3.924-7.164A3.8,3.8,0,0,1,4.9-7.29c.99,0,1.8.4,1.8,1.962C6.7-3.024,5-.594,3.78-.594A1.486,1.486,0,0,1,2.7-1.188Zm8.1,7.38A4.535,4.535,0,0,0,14.85-.918a5.793,5.793,0,0,0,1.926-4.356c0-1.782-.882-2.826-2.43-2.826a4.579,4.579,0,0,0-2.034.594,5.484,5.484,0,0,0-2.718,4.9C9.594-1.17,10.242.216,12.024.216Zm.666-.738c-.882,0-1.44-.81-1.44-2.142,0-2.808,1.188-4.284,1.836-4.59a1.553,1.553,0,0,1,.648-.144c.792,0,1.386.684,1.386,2.124.018,2.358-.954,4.266-1.872,4.644A1.4,1.4,0,0,1,12.69-.522Zm8.478-11.052a1.1,1.1,0,0,0-1.044,1.116.791.791,0,0,0,.792.846,1.053,1.053,0,0,0,1.026-1.1A.771.771,0,0,0,21.168-11.574Zm.108,9.558a3.442,3.442,0,0,1-1.242.828c-.108,0-.144-.144-.036-.612L21.2-6.624c.216-.882.2-1.476-.216-1.476a6.123,6.123,0,0,0-2.826,1.746l.216.432a3.78,3.78,0,0,1,1.206-.756c.126,0,.108.18.018.594l-1.1,4.5c-.36,1.494-.09,1.8.306,1.8A5.5,5.5,0,0,0,21.528-1.62Zm9.378,0a2.832,2.832,0,0,1-1.152.828c-.126,0-.162-.162-.036-.648.288-1.224.576-2.448.846-3.654.558-2.322.036-2.61-.45-2.61a2.507,2.507,0,0,0-1.242.432,11.97,11.97,0,0,0-3.186,3.06H25.4l.342-1.44c.342-1.458.252-2.052-.18-2.052a5.028,5.028,0,0,0-2.628,1.728l.234.468a3.171,3.171,0,0,1,1.152-.81c.126,0,.162.144.036.72C23.9-3.978,23.4-1.854,22.9.072l.126.144a7.451,7.451,0,0,1,1.422-.36c.234-1.1.5-2.214.72-3.114.864-1.458,2.862-3.618,3.618-3.618.27,0,.36.252.126,1.26C28.6-4.3,28.3-2.988,27.972-1.674c-.342,1.422-.144,1.89.306,1.89a4.838,4.838,0,0,0,2.646-1.782Zm6.7-5.8H35.28l.63-2.736-.18-.126L34.236-9.5l-.414,1.692h-1.08l-.45.576.054.162H33.66L32.616-2.2c-.4,1.854-.036,2.412.432,2.412.954,0,2.358-1.206,2.97-1.944l-.252-.414a4.062,4.062,0,0,1-1.584,1.026c-.2,0-.288-.2-.108-1.08L35.1-7.074l1.764-.09Z" transform="translate(3.5 193.43)" fill="#1a1a1a" stroke="#fff" stroke-width="0.1"/>
    <line id="線_2254" data-name="線 2254" x2="46" transform="translate(52.5 188.43)" fill="none" stroke="#1a1a1a" stroke-width="0.5"/>
  </g>
</svg>
