<svg xmlns="http://www.w3.org/2000/svg" width="82.587" height="16.12" viewBox="0 0 82.587 16.12">
  <path id="パス_130477" data-name="パス 130477" d="M4.41-9.27l-.18-.108a5.749,5.749,0,0,0-1.458,1.1l-.2.81a9.175,9.175,0,0,0-1.728.882L.972-6.1A7.366,7.366,0,0,1,2.43-6.75C1.782-3.69,1.1-.576.432,2.556.2,3.654-.018,3.834-1.116,4.05l-.09.468L3.078,4.3l.072-.486L2.718,3.78c-.882-.09-.99-.252-.792-1.26L2.43.036a2.746,2.746,0,0,0,1.026.18A6.987,6.987,0,0,0,6.822-1.872,5.768,5.768,0,0,0,8.352-5.58c0-1.62-.738-2.52-2.592-2.52a6.783,6.783,0,0,0-1.674.216ZM3.924-7.164A3.8,3.8,0,0,1,4.9-7.29c.99,0,1.8.4,1.8,1.962C6.7-3.024,5-.594,3.78-.594A1.486,1.486,0,0,1,2.7-1.188Zm5.85,1.278a3.337,3.337,0,0,1,1.242-.828c.144,0,.144.2.036.792C10.71-4,10.224-1.836,9.756.072L9.9.216a9.963,9.963,0,0,1,1.4-.342c.216-1.152.45-2.34.72-3.492a11.1,11.1,0,0,1,1.242-2.2c.4-.558.666-.738.864-.738a.867.867,0,0,1,.63.324c.108.108.252.108.414-.018a1.914,1.914,0,0,0,.5-.558.767.767,0,0,0,.018-.828A.931.931,0,0,0,14.9-8.1c-.72,0-1.764,1.242-2.664,2.97h-.054l.18-.882c.27-1.3.234-2.088-.252-2.088A5.263,5.263,0,0,0,9.522-6.318Zm8.5,6.1A4.535,4.535,0,0,0,21.1-.918a5.793,5.793,0,0,0,1.926-4.356c0-1.782-.882-2.826-2.43-2.826a4.579,4.579,0,0,0-2.034.594,5.484,5.484,0,0,0-2.718,4.9C15.84-1.17,16.488.216,18.27.216Zm.666-.738c-.882,0-1.44-.81-1.44-2.142,0-2.808,1.188-4.284,1.836-4.59A1.553,1.553,0,0,1,19.98-7.4c.792,0,1.386.684,1.386,2.124.018,2.358-.954,4.266-1.872,4.644A1.4,1.4,0,0,1,18.936-.522ZM32.13-8.028a4.2,4.2,0,0,1-2.07.432,2.372,2.372,0,0,0-1.566-.5,4.214,4.214,0,0,0-2.358.9,3.847,3.847,0,0,0-1.53,3.006,1.978,1.978,0,0,0,1.62,2.178c-.864.5-1.152.846-1.152,1.134a1.19,1.19,0,0,0,.666.9c-1.926.972-2.988,1.764-3.006,2.556C22.716,3.69,24.21,4.59,25.992,4.59S30.33,3.474,30.33,1.962c0-.792-.7-1.494-2.466-2.412-.864-.45-1.3-.756-1.3-1.026A.789.789,0,0,1,26.91-2,5.608,5.608,0,0,0,29.3-3.06a3.512,3.512,0,0,0,1.332-2.718,3.124,3.124,0,0,0-.126-.954c.18-.018.306-.036.432-.054a2.778,2.778,0,0,0,1.332-.882Zm-4.914,5.31c-.63,0-1.08-.558-1.08-1.566a4.309,4.309,0,0,1,.63-2.3,1.622,1.622,0,0,1,1.278-.864c.756,0,1.134.7,1.134,1.674C29.178-3.852,28.134-2.718,27.216-2.718Zm-.468,6.534c-1.224,0-2.376-.666-2.376-1.566,0-.666.756-1.368,1.854-1.908.306.144.81.432,1.4.774.81.486,1.26.936,1.26,1.4C28.89,3.2,28.062,3.816,26.748,3.816Zm5.724-9.7a3.337,3.337,0,0,1,1.242-.828c.144,0,.144.2.036.792C33.408-4,32.922-1.836,32.454.072L32.6.216A9.963,9.963,0,0,1,34-.126c.216-1.152.45-2.34.72-3.492a11.1,11.1,0,0,1,1.242-2.2c.4-.558.666-.738.864-.738a.867.867,0,0,1,.63.324c.108.108.252.108.414-.018a1.914,1.914,0,0,0,.5-.558.767.767,0,0,0,.018-.828A.931.931,0,0,0,37.6-8.1c-.72,0-1.764,1.242-2.664,2.97h-.054l.18-.882c.27-1.3.234-2.088-.252-2.088A5.263,5.263,0,0,0,32.22-6.318ZM46.008-2.142a3.839,3.839,0,0,1-1.3.936c-.09,0-.144-.162-.036-.774.414-2.25.936-4.608,1.242-5.814l-.054-.072a3.055,3.055,0,0,1-.756-.108A6.236,6.236,0,0,0,43.992-8.1a5.861,5.861,0,0,0-3.456,1.422,6.687,6.687,0,0,0-2.124,4.842c0,1.422.576,2.052,1.08,2.052A3.116,3.116,0,0,0,41.22-.612a12.532,12.532,0,0,0,2.214-2.394h.036l-.324,1.584c-.27,1.386,0,1.638.36,1.638A5.046,5.046,0,0,0,46.242-1.71ZM40.536-1.026c-.27,0-.468-.36-.468-1.152,0-1.746.7-3.87,1.89-4.77a2.119,2.119,0,0,1,1.206-.342,2.6,2.6,0,0,1,1.152.252c-.108.558-.378,1.89-.594,2.646C43.182-3.258,41.22-1.026,40.536-1.026ZM59.688-2a3.306,3.306,0,0,1-1.188.81c-.108,0-.162-.126-.054-.594l.882-3.69C59.886-7.884,59.292-8.1,58.9-8.1a2.228,2.228,0,0,0-1.116.36A10.432,10.432,0,0,0,54.558-4.7h-.036l.162-.684c.5-2.3.018-2.718-.468-2.718a2.281,2.281,0,0,0-1.152.378,11.2,11.2,0,0,0-3.15,3.06h-.036L50.184-5.9c.36-1.53.306-2.2-.18-2.2a4.994,4.994,0,0,0-2.628,1.764l.216.45a4.009,4.009,0,0,1,1.224-.846c.126,0,.144.126.018.738C48.366-3.96,47.88-1.944,47.34.072l.144.144a8.221,8.221,0,0,1,1.422-.342c.234-1.1.5-2.322.756-3.15.558-1.134,2.664-3.618,3.492-3.618.342,0,.378.432.126,1.62-.378,1.728-.846,3.546-1.3,5.364l.126.126a7.251,7.251,0,0,1,1.458-.342c.2-1.062.468-2.268.7-3.168.63-1.188,2.718-3.6,3.51-3.6.27,0,.36.306.162,1.134L56.97-1.62c-.324,1.332-.144,1.836.324,1.836a5.059,5.059,0,0,0,2.628-1.764ZM70.47-11.43c-3.222,0-4.824,4.464-4.9,7.272C65.484-1.89,66.2.216,68.4.216c3.258,0,4.752-4.518,4.842-7.4C73.332-9.288,72.666-11.43,70.47-11.43Zm-.108.612c1.116,0,1.3,1.62,1.224,3.078C71.5-5.436,70.542-.4,68.508-.4c-1.116,0-1.35-1.62-1.278-3.276C67.3-6.21,68.292-10.818,70.362-10.818ZM75.6-9.342l.378.4a2.932,2.932,0,0,1,2.16-1.386,1.372,1.372,0,0,1,1.494,1.494c0,1.4-1.476,2.214-3.384,2.754l.108.5a4.351,4.351,0,0,1,1.026-.144,1.984,1.984,0,0,1,2.052,2.16c0,1.944-1.1,2.862-2.466,2.862a3.05,3.05,0,0,1-2.25-1.116.247.247,0,0,0-.378-.018,1.184,1.184,0,0,0-.522.666.84.84,0,0,0,.378.756,2.779,2.779,0,0,0,1.764.63A6.182,6.182,0,0,0,79.164-.9a3.906,3.906,0,0,0,2-3.168,2.635,2.635,0,0,0-2.124-2.574v-.036A11.548,11.548,0,0,0,80.424-7.6a2.051,2.051,0,0,0,.846-1.638,2.225,2.225,0,0,0-2.43-2.2,3.322,3.322,0,0,0-2.358.972Z" transform="translate(1.267 11.48)" fill="#1a1a1a" stroke="#fff" stroke-width="0.1"/>
</svg>
