<svg xmlns="http://www.w3.org/2000/svg" width="248.396" height="34.78" viewBox="0 0 248.396 34.78">
  <path id="パス_130471" data-name="パス 130471" d="M-116.79-33.1l-.357,1.428c4.029.408,4.284.714,3.519,4.743l-4.08,20.553c-.867,4.284-1.224,4.539-5.1,4.947L-123.165,0h13.923l.306-1.428c-4.641-.408-5-.714-4.182-4.947l1.53-8.007,3.468,1.071c.561,0,1.224,0,1.887-.051,5.763-.408,12.189-3.927,12.189-11.118,0-5.814-3.927-8.619-10.965-8.619Zm7.9,4.539c.306-1.632.663-2.193,1.224-2.448a4.841,4.841,0,0,1,2.142-.408c4.182,0,6.477,2.448,6.477,6.681,0,6.528-4.794,9.333-8.568,9.333a9.841,9.841,0,0,1-3.621-.663ZM-64.362-.918a6.14,6.14,0,0,1-3.366-2.4A38.11,38.11,0,0,1-70.89-8.721c-1.173-2.346-2.5-5.508-3.009-6.834,4.131-1.428,7.956-4.539,7.956-9.69A7.028,7.028,0,0,0-69.1-31.518c-1.785-1.224-4.539-1.581-7.344-1.581H-87.873l-.306,1.428c4.029.357,4.233.561,3.468,4.692l-3.978,20.5c-.867,4.386-1.173,4.641-5.049,5.049L-94.1,0h13.209l.306-1.428c-4.029-.357-4.386-.663-3.519-5.1l1.428-7.956h1.989c1.785,0,2.448.459,3.213,2.346,1.071,2.6,2.142,5.151,3.417,7.548,1.785,3.366,3.468,4.794,8.67,5h.612ZM-82.314-16.167l2.4-12.495c.255-1.326.51-1.938.918-2.244a3.742,3.742,0,0,1,2.244-.51c3.519,0,5.763,2.193,5.763,6.579a8.826,8.826,0,0,1-3.774,7.395,9.391,9.391,0,0,1-5.355,1.275Zm41.208-17.748c-10.71,0-18.615,9.537-18.615,20.2C-59.721-5.049-54.162.765-46.1.765c10.914,0,18.666-9.18,18.666-20.043C-27.438-27.846-32.9-33.915-41.106-33.915Zm-.357,1.836c6.324,0,8.67,5.406,8.67,12.138,0,8.466-4.743,18.87-12.9,18.87-6.018,0-8.721-5.253-8.721-12.036C-54.417-22.185-49.164-32.079-41.463-32.079Zm50.133,7.8c.2-3.519.459-6.477.612-8.058A28.508,28.508,0,0,0,.2-33.915c-12.7,0-21.675,8.364-21.675,20.094,0,9.333,6.324,14.586,15.3,14.586,4.029,0,7.65-1.173,10.812-1.938A12.473,12.473,0,0,1,4.9-5.151l.816-4.182c.714-3.825.969-4.029,3.774-4.437l.357-1.377H-3.111l-.357,1.377c5.049.51,5.3.663,4.59,4.437L.153-4.641C-.408-1.887-2.4-1.071-5.3-1.071c-6.885,0-10.71-5.457-10.71-13.056,0-9.588,5.967-17.952,14.994-17.952,5.049,0,8.007,2.091,8.109,7.956ZM41.208-.918a6.14,6.14,0,0,1-3.366-2.4A38.11,38.11,0,0,1,34.68-8.721c-1.173-2.346-2.5-5.508-3.009-6.834,4.131-1.428,7.956-4.539,7.956-9.69a7.028,7.028,0,0,0-3.162-6.273C34.68-32.742,31.926-33.1,29.121-33.1H17.7l-.306,1.428c4.029.357,4.233.561,3.468,4.692l-3.978,20.5c-.867,4.386-1.173,4.641-5.049,5.049L11.475,0H24.684l.306-1.428c-4.029-.357-4.386-.663-3.519-5.1L22.9-14.484h1.989c1.785,0,2.448.459,3.213,2.346,1.071,2.6,2.142,5.151,3.417,7.548C33.3-1.224,34.986.2,40.188.408H40.8ZM23.256-16.167l2.4-12.495c.255-1.326.51-1.938.918-2.244a3.742,3.742,0,0,1,2.244-.51c3.519,0,5.763,2.193,5.763,6.579A8.826,8.826,0,0,1,30.8-17.442a9.391,9.391,0,0,1-5.355,1.275ZM75.48-1.428c-3.57-.408-3.876-.816-4.539-4.641-1.122-6.222-2.244-12.7-3.315-19.329L66.3-33.864l-1.785.459L49.317-6.528c-2.448,4.386-3.009,4.641-6.12,5.1L42.789,0H53.856l.357-1.428c-3.927-.357-4.233-.765-2.805-3.672,1.071-2.3,2.5-5.049,3.417-6.732H65.331c.459,2.8.867,5.151,1.173,7.242.306,2.244.1,2.805-3.366,3.162L62.73,0H75.123ZM64.974-14.076H55.947c2.193-4.233,4.539-8.364,6.936-12.852h.1ZM125.1-33.1h-8.568L101.082-8.211C99.093-17.085,97.41-24.939,95.727-33.1H86.9L86.5-31.671c4.743.408,5.049.867,3.57,5.814L87.108-15.708C85.272-9.537,84.354-6.63,83.538-4.59c-.867,2.193-1.887,2.907-4.743,3.162L78.438,0H89.964l.306-1.428C86.6-1.785,86.088-2.4,86.445-4.641a94.383,94.383,0,0,1,2.346-9.741l3.672-13.26h.153C94.452-17.9,96.084-9.282,97.665-.2h1.224l16.575-27.9h.153c-1.071,7.038-2.193,13.668-3.315,21.165-.765,4.845-1.02,5.1-4.845,5.508L107.1,0h13.209l.306-1.428c-4.029-.408-4.335-.561-3.723-5.508.867-6.681,1.632-12.648,2.754-20.043.612-4.131.765-4.335,5.1-4.692Z" transform="translate(123.229 33.965)" fill="#1a1a1a" stroke="#fff" stroke-width="0.1"/>
</svg>
