<svg xmlns="http://www.w3.org/2000/svg" width="263.964" height="20.77" viewBox="0 0 263.964 20.77">
  <path id="パス_130446" data-name="パス 130446" d="M23.01-19.47H16.2l-.24.84c2.19.12,2.73.45,2.61,1.86a46.4,46.4,0,0,1-.78,5.13L16.44-4.47h-.09l-8.67-15H3.15l-.21.84c1.59.09,2.16.27,2.52.9.36.66.48,1.14.15,2.79L4.11-7.8c-.6,2.79-.93,4.14-1.26,5.16C2.46-1.32,1.77-.93.21-.84L0,0H6.96l.18-.84C5.04-.99,4.5-1.32,4.59-2.7a38.662,38.662,0,0,1,.75-5.04l1.53-7.8h.09L15.78.24H16.8l2.25-11.88a50.933,50.933,0,0,1,1.17-5.1c.39-1.32.78-1.8,2.61-1.89Zm2.85,0-.21.84c2.46.21,2.61.39,2.13,2.79L25.44-3.63c-.48,2.4-.72,2.58-3.12,2.79L22.11,0H36.27c.42-.96,1.53-3.78,1.86-4.65l-.87-.3A12.228,12.228,0,0,1,35.22-2.1c-.81.78-1.71,1.02-3.87,1.02-1.62,0-2.49-.06-2.94-.45-.39-.36-.42-1.14-.12-2.79l.99-5.25h2.73c2.58,0,2.58.21,2.52,2.37h.9l1.14-5.76h-.9c-.72,1.98-.9,2.19-3.42,2.19H29.52l1.23-6.42c.21-1.11.3-1.23,1.35-1.23h2.16c2.13,0,2.55.27,2.88.96a6.183,6.183,0,0,1,.42,2.67l.9-.06c.21-1.74.48-4.02.57-4.62Zm34.35,0H53.64l-.18.84.84.12c.96.18,1.14.42.51,1.32-1.23,1.74-2.61,3.51-4.02,5.22-1.05-2.28-1.89-4.02-2.37-5.4-.3-.81-.15-.93.81-1.14l.75-.12.18-.84H43.05l-.21.84c2.01.21,2.28.36,3.15,2.31l2.85,6.57c-2.49,3.15-4.83,5.94-5.82,7.02A4.646,4.646,0,0,1,39.24-.84L39.03,0h6.84l.18-.84-.69-.12c-1.23-.21-1.26-.51-.63-1.47,1.14-1.74,2.67-3.75,4.65-6.24,1.65,3.78,2.28,5.28,2.67,6.27.42,1.02.27,1.26-.84,1.44l-.9.12L50.13,0H57.9l.21-.84c-2.28-.24-2.52-.39-3.54-2.67l-3.3-7.38c2.52-3.06,3.9-4.71,4.86-5.76,1.53-1.65,1.86-1.77,3.87-1.98Zm18.33-.75a1.764,1.764,0,0,1-1.56.75H65.58c-.78,0-1.11-.06-1.41-.75h-.69c-.33,1.62-.87,3.6-1.41,5.4H63a11.658,11.658,0,0,1,1.5-2.7c.57-.66,1.11-.9,3.6-.9h1.5L66.78-3.63c-.45,2.34-.66,2.61-3.18,2.79L63.39,0h8.43L72-.84c-2.7-.18-2.91-.42-2.49-2.79L72.3-18.42h1.77c2.16,0,2.82.18,3.12.87a6.729,6.729,0,0,1,.36,2.73l.96-.06c.18-1.68.45-4.02.72-5.34Zm19.23.75H89.94l-.21.84c2.46.21,2.67.39,2.25,2.61L89.55-3.57c-.45,2.31-.63,2.55-2.94,2.73L86.4,0h7.89l.18-.84c-2.43-.18-2.64-.39-2.19-2.73l2.4-12.45c.45-2.22.6-2.4,2.91-2.61Zm22.56,0h-6.81l-.24.84c2.19.12,2.73.45,2.61,1.86a46.4,46.4,0,0,1-.78,5.13l-1.35,7.17h-.09l-8.67-15h-4.53l-.21.84c1.59.09,2.16.27,2.52.9.36.66.48,1.14.15,2.79l-1.5,7.14c-.6,2.79-.93,4.14-1.26,5.16-.39,1.32-1.08,1.71-2.64,1.8L97.32,0h6.96l.18-.84c-2.1-.15-2.64-.48-2.55-1.86a38.662,38.662,0,0,1,.75-5.04l1.53-7.8h.09L113.1.24h1.02l2.25-11.88a50.936,50.936,0,0,1,1.17-5.1c.39-1.32.78-1.8,2.61-1.89Zm18.18-.75a1.764,1.764,0,0,1-1.56.75h-11.4c-.78,0-1.11-.06-1.41-.75h-.69c-.33,1.62-.87,3.6-1.41,5.4h.93a11.658,11.658,0,0,1,1.5-2.7c.57-.66,1.11-.9,3.6-.9h1.5L126.75-3.63c-.45,2.34-.66,2.61-3.18,2.79l-.21.84h8.43l.18-.84c-2.7-.18-2.91-.42-2.49-2.79l2.79-14.79h1.77c2.16,0,2.82.18,3.12.87a6.729,6.729,0,0,1,.36,2.73l.96-.06c.18-1.68.45-4.02.72-5.34Zm3.75.75-.21.84c2.46.21,2.61.39,2.13,2.79L141.84-3.63c-.48,2.4-.72,2.58-3.12,2.79l-.21.84h14.16c.42-.96,1.53-3.78,1.86-4.65l-.87-.3a12.228,12.228,0,0,1-2.04,2.85c-.81.78-1.71,1.02-3.87,1.02-1.62,0-2.49-.06-2.94-.45-.39-.36-.42-1.14-.12-2.79l.99-5.25h2.73c2.58,0,2.58.21,2.52,2.37h.9l1.14-5.76h-.9c-.72,1.98-.9,2.19-3.42,2.19h-2.73l1.23-6.42c.21-1.11.3-1.23,1.35-1.23h2.16c2.13,0,2.55.27,2.88.96a6.183,6.183,0,0,1,.42,2.67l.9-.06c.21-1.74.48-4.02.57-4.62ZM173.91-.54a3.612,3.612,0,0,1-1.98-1.41,22.417,22.417,0,0,1-1.86-3.18c-.69-1.38-1.47-3.24-1.77-4.02,2.43-.84,4.68-2.67,4.68-5.7a4.134,4.134,0,0,0-1.86-3.69,7.955,7.955,0,0,0-4.32-.93h-6.72l-.18.84c2.37.21,2.49.33,2.04,2.76L159.6-3.81c-.51,2.58-.69,2.73-2.97,2.97l-.21.84h7.77l.18-.84c-2.37-.21-2.58-.39-2.07-3l.84-4.68h1.17c1.05,0,1.44.27,1.89,1.38.63,1.53,1.26,3.03,2.01,4.44,1.05,1.98,2.04,2.82,5.1,2.94h.36ZM163.35-9.51l1.41-7.35c.15-.78.3-1.14.54-1.32a2.2,2.2,0,0,1,1.32-.3c2.07,0,3.39,1.29,3.39,3.87a5.192,5.192,0,0,1-2.22,4.35,5.524,5.524,0,0,1-3.15.75Zm34.89-9.96h-6.81l-.24.84c2.19.12,2.73.45,2.61,1.86a46.4,46.4,0,0,1-.78,5.13l-1.35,7.17h-.09l-8.67-15h-4.53l-.21.84c1.59.09,2.16.27,2.52.9.36.66.48,1.14.15,2.79l-1.5,7.14c-.6,2.79-.93,4.14-1.26,5.16-.39,1.32-1.08,1.71-2.64,1.8l-.21.84h6.96l.18-.84c-2.1-.15-2.64-.48-2.55-1.86a38.663,38.663,0,0,1,.75-5.04l1.53-7.8h.09L191.01.24h1.02l2.25-11.88a50.93,50.93,0,0,1,1.17-5.1c.39-1.32.78-1.8,2.61-1.89Zm.15,13.56c.06,2.16.06,3.81.09,4.5A7.757,7.757,0,0,0,203.7.45c3.54,0,6.66-2.25,6.66-5.79,0-2.43-1.47-4.02-3.54-5.55l-.9-.66c-1.56-1.17-2.7-2.25-2.7-3.96a3.27,3.27,0,0,1,3.27-3.42c2.58,0,3.36,2.16,3.6,4.35l.9-.09c.03-1.44,0-3.03.09-4.26-.24-.09-.72-.3-1.29-.51a9.636,9.636,0,0,0-2.97-.51c-3.6,0-6.15,2.25-6.15,5.43,0,2.49,1.92,4.17,3.39,5.31l.87.66c1.71,1.35,2.7,2.52,2.7,4.17A3.438,3.438,0,0,1,204.09-.6c-3.27,0-4.53-3.18-4.83-5.4Zm37.5-13.56h-7.71l-.18.84c2.34.21,2.49.42,2.01,2.85l-.9,4.83h-9.48l.93-4.83c.45-2.43.69-2.64,2.82-2.85l.21-.84h-7.68l-.21.84c2.46.21,2.64.39,2.16,2.85L215.52-3.69c-.48,2.4-.6,2.64-2.85,2.85l-.21.84h7.71l.21-.84c-2.43-.21-2.61-.39-2.13-2.85l1.11-5.97h9.48L227.7-3.69c-.45,2.4-.63,2.64-3.03,2.85l-.18.84h7.86l.18-.84c-2.4-.21-2.55-.42-2.1-2.85l2.31-12.09c.48-2.43.63-2.64,2.94-2.85Zm11.1,0h-7.83l-.21.84c2.46.21,2.67.39,2.25,2.61L238.77-3.57c-.45,2.31-.63,2.55-2.94,2.73l-.21.84h7.89l.18-.84c-2.43-.18-2.64-.39-2.19-2.73l2.4-12.45c.45-2.22.6-2.4,2.91-2.61Zm3.48,0-.21.84c2.37.24,2.52.42,2.07,2.79l-2.4,12.09c-.51,2.52-.72,2.67-3,2.91l-.21.84h8.19l.18-.84c-2.73-.24-2.94-.42-2.46-2.91l.9-4.71,2.04.63c.33,0,.72,0,1.11-.03,3.39-.24,7.17-2.31,7.17-6.54,0-3.42-2.31-5.07-6.45-5.07Zm4.65,2.67c.18-.96.39-1.29.72-1.44a2.847,2.847,0,0,1,1.26-.24c2.46,0,3.81,1.44,3.81,3.93a5.114,5.114,0,0,1-5.04,5.49,5.789,5.789,0,0,1-2.13-.39Z" transform="translate(0.064 20.27)" fill="#fff" stroke="#fff" stroke-width="0.1"/>
</svg>
