<svg xmlns="http://www.w3.org/2000/svg" width="125.32" height="96.758" viewBox="0 0 125.32 96.758">
  <g id="グループ_31336" data-name="グループ 31336" transform="translate(-0.013)">
    <g id="グループ_12594" data-name="グループ 12594" transform="translate(1.247 72.767)">
      <g id="グループ_12633" data-name="グループ 12633">
        <path id="パス_29020" data-name="パス 29020" d="M52.252,212.153c.072.5.34,1.172,1.06,1.172a.769.769,0,0,0,.785-.845c0-.373-.229-.622-.608-.923l-.183-.144a1.557,1.557,0,0,1-.733-1.146A1.207,1.207,0,0,1,53.9,209.1a1.923,1.923,0,0,1,.622.112l.288.1c-.026.275-.013.622-.02.917l-.189.02c-.053-.491-.223-.936-.786-.936a.731.731,0,0,0-.733.766c0,.38.269.615.609.877l.2.144a1.5,1.5,0,0,1,.759,1.2,1.32,1.32,0,0,1-1.427,1.251,1.686,1.686,0,0,1-1.126-.406c-.006-.151-.006-.5-.02-.969Z" transform="translate(-30.715 -191.121)" fill="#fff"/>
        <path id="パス_29021" data-name="パス 29021" d="M60.735,211.836a2.461,2.461,0,0,1,.609-.079c.674,0,.943.321.943.9a2.115,2.115,0,0,1-.556,1.355,2.589,2.589,0,0,1-1.218.76,1.062,1.062,0,0,1-.386-.066l-.183.924c-.079.373-.039.432.282.464l.157.013-.02.171-1.512.079.026-.17c.412-.079.484-.131.576-.537.243-1.146.491-2.292.733-3.424a3.093,3.093,0,0,0-.53.236l-.046-.164a3.149,3.149,0,0,1,.629-.328l.072-.295a2,2,0,0,1,.478-.379l.065.033Zm-.5,2.429a.588.588,0,0,0,.406.223c.464,0,1.1-.884,1.1-1.722,0-.582-.308-.726-.687-.726a1.58,1.58,0,0,0-.373.046Z" transform="translate(-34.549 -192.369)" fill="#fff"/>
        <path id="パス_29022" data-name="パス 29022" d="M72.021,214.692a1.786,1.786,0,0,1-.956.681c-.125,0-.209-.1-.118-.577l.131-.622h-.013a4.738,4.738,0,0,1-.844.9,1.087,1.087,0,0,1-.609.295c-.171,0-.38-.216-.38-.74a2.411,2.411,0,0,1,.786-1.774,2.071,2.071,0,0,1,1.217-.5,2.128,2.128,0,0,1,.406.046,1.3,1.3,0,0,0,.249.039l.02.026c-.1.406-.3,1.3-.451,2.128-.046.229-.026.282.013.282a1.417,1.417,0,0,0,.471-.34Zm-.851-1.021c.072-.262.17-.733.216-.943a1.1,1.1,0,0,0-.439-.092.814.814,0,0,0-.465.137,2.319,2.319,0,0,0-.707,1.748c0,.295.085.432.177.432.255,0,1-.832,1.218-1.283" transform="translate(-40.426 -192.966)" fill="#fff"/>
        <path id="パス_29023" data-name="パス 29023" d="M80.113,214.646a1.934,1.934,0,0,1-1.309.727c-.419,0-.7-.334-.7-.962a2.265,2.265,0,0,1,.674-1.571,1.925,1.925,0,0,1,1.048-.485c.281,0,.491.164.5.327a.361.361,0,0,1-.216.3c-.052.033-.1.02-.144-.039a.577.577,0,0,0-.491-.282.678.678,0,0,0-.543.433,2.568,2.568,0,0,0-.288,1.185c0,.464.183.707.464.707a1.545,1.545,0,0,0,.91-.485Z" transform="translate(-45.448 -192.965)" fill="#fff"/>
        <path id="パス_29024" data-name="パス 29024" d="M87.374,214.632a1.922,1.922,0,0,1-1.381.74c-.3,0-.72-.178-.72-.956a2.175,2.175,0,0,1,.785-1.7,1.637,1.637,0,0,1,.9-.367.54.54,0,0,1,.577.524c0,.648-1.1,1-1.729,1.159a1.166,1.166,0,0,0-.013.21c0,.353.112.739.511.739a1.523,1.523,0,0,0,.956-.5Zm-.923-1.931a1.472,1.472,0,0,0-.616,1.133c.937-.249,1.211-.55,1.211-.851a.322.322,0,0,0-.327-.36.538.538,0,0,0-.268.078" transform="translate(-49.506 -192.965)" fill="#fff"/>
        <path id="パス_29025" data-name="パス 29025" d="M99.625,209.508c-.511.052-.544.085-.635.563l-.53,2.756c-.1.5-.059.543.477.583l-.039.177H97.222l.046-.177c.511-.039.556-.085.654-.583l.53-2.756c.092-.478.046-.51-.5-.563l.046-.171h1.662Z" transform="translate(-56.27 -191.258)" fill="#fff"/>
        <path id="パス_29026" data-name="パス 29026" d="M106.82,214.737a1.783,1.783,0,0,1-.923.635c-.164,0-.223-.177-.1-.681s.236-.969.353-1.453c.092-.373.053-.471-.052-.471-.288,0-1.047.812-1.375,1.368-.078.321-.177.713-.255,1.106a3.165,3.165,0,0,0-.471.131l-.039-.052c.177-.708.373-1.493.53-2.22.053-.209.033-.262-.006-.262a1.209,1.209,0,0,0-.426.295l-.085-.157a1.772,1.772,0,0,1,.923-.622c.151,0,.177.223.052.726l-.137.57h.013a4.413,4.413,0,0,1,1.2-1.152.883.883,0,0,1,.439-.144c.157,0,.34.1.144.937-.1.445-.21.9-.32,1.361-.039.177-.033.236.013.236a1.143,1.143,0,0,0,.432-.308Z" transform="translate(-60.08 -192.965)" fill="#fff"/>
        <path id="パス_29027" data-name="パス 29027" d="M116.1,214.737a1.783,1.783,0,0,1-.923.635c-.164,0-.223-.177-.1-.681s.236-.969.353-1.453c.092-.373.053-.471-.052-.471-.288,0-1.048.812-1.375,1.368-.078.321-.177.713-.255,1.106a3.164,3.164,0,0,0-.471.131l-.039-.052c.177-.708.373-1.493.53-2.22.053-.209.033-.262-.006-.262a1.209,1.209,0,0,0-.426.295l-.085-.157a1.773,1.773,0,0,1,.923-.622c.151,0,.177.223.052.726l-.137.57h.013a4.414,4.414,0,0,1,1.2-1.152.883.883,0,0,1,.439-.144c.157,0,.34.1.144.937-.1.445-.21.9-.32,1.361-.039.177-.033.236.013.236a1.14,1.14,0,0,0,.432-.308Z" transform="translate(-65.332 -192.965)" fill="#fff"/>
        <path id="パス_29028" data-name="パス 29028" d="M122.5,214.351a1.992,1.992,0,0,1,1-1.787,1.659,1.659,0,0,1,.707-.21c.543,0,.871.374.871,1.022a2.119,2.119,0,0,1-.7,1.584,1.628,1.628,0,0,1-1.008.413c-.622,0-.864-.491-.864-1.022m1.31.72a1.918,1.918,0,0,0,.713-1.682c0-.53-.229-.785-.53-.785a.586.586,0,0,0-.249.058,1.808,1.808,0,0,0-.694,1.657c0,.484.2.792.55.792a.541.541,0,0,0,.21-.039" transform="translate(-70.578 -192.965)" fill="#fff"/>
        <path id="パス_29029" data-name="パス 29029" d="M132.024,214.724A4.758,4.758,0,0,0,133.039,213a.554.554,0,0,0-.072-.288.236.236,0,0,1,0-.164.318.318,0,0,1,.282-.19c.157,0,.275.151.281.374a1.635,1.635,0,0,1-.406.877c-.379.53-.962,1.283-1.354,1.768h-.177c-.02-.609-.092-1.637-.125-2.036s-.072-.5-.118-.5-.177.1-.386.347l-.1-.144c.236-.34.569-.681.779-.681.17,0,.255.249.288.726.026.577.066,1.107.085,1.643Z" transform="translate(-75.309 -192.965)" fill="#fff"/>
        <path id="パス_29030" data-name="パス 29030" d="M141.783,214.692a1.788,1.788,0,0,1-.956.681c-.125,0-.209-.1-.117-.577l.131-.622h-.014a4.721,4.721,0,0,1-.844.9,1.088,1.088,0,0,1-.61.295c-.17,0-.38-.216-.38-.74a2.41,2.41,0,0,1,.786-1.774,2.071,2.071,0,0,1,1.217-.5,2.132,2.132,0,0,1,.407.046,1.3,1.3,0,0,0,.248.039l.02.026c-.1.406-.3,1.3-.451,2.128-.046.229-.026.282.012.282a1.418,1.418,0,0,0,.472-.34Zm-.851-1.021c.072-.262.17-.733.216-.943a1.1,1.1,0,0,0-.439-.092.816.816,0,0,0-.466.137,2.321,2.321,0,0,0-.707,1.748c0,.295.085.432.177.432.256,0,1-.832,1.219-1.283" transform="translate(-79.913 -192.966)" fill="#fff"/>
        <path id="パス_29031" data-name="パス 29031" d="M149.564,211.478l-.648.033-.386,1.807c-.066.321-.033.393.039.393a1.444,1.444,0,0,0,.589-.38l.092.137c-.216.262-.707.7-1.054.7-.151,0-.282-.19-.137-.865l.386-1.794h-.484l-.019-.059.164-.2h.392l.151-.622.5-.406.059.04-.23.989h.76Z" transform="translate(-84.978 -191.762)" fill="#fff"/>
        <path id="パス_29032" data-name="パス 29032" d="M155.02,213.079a1.982,1.982,0,0,1-.955.654c-.131,0-.216-.105-.086-.641l.406-1.676c.04-.144.04-.21-.006-.21a1.261,1.261,0,0,0-.445.282l-.079-.151a2.2,2.2,0,0,1,1-.622c.144,0,.137.21.065.518l-.451,1.807c-.039.157-.027.209.013.209a1.333,1.333,0,0,0,.459-.308Zm.171-3.326a.365.365,0,0,1-.347.38.276.276,0,0,1-.275-.288.385.385,0,0,1,.36-.386.271.271,0,0,1,.262.295" transform="translate(-88.326 -191.326)" fill="#fff"/>
        <path id="パス_29033" data-name="パス 29033" d="M159.244,214.351a1.992,1.992,0,0,1,1-1.787,1.659,1.659,0,0,1,.707-.21c.543,0,.871.374.871,1.022a2.119,2.119,0,0,1-.7,1.584,1.628,1.628,0,0,1-1.008.413c-.622,0-.864-.491-.864-1.022m1.31.72a1.918,1.918,0,0,0,.713-1.682c0-.53-.229-.785-.53-.785a.586.586,0,0,0-.249.058,1.808,1.808,0,0,0-.694,1.657c0,.484.2.792.55.792a.54.54,0,0,0,.21-.039" transform="translate(-91.376 -192.965)" fill="#fff"/>
        <path id="パス_29034" data-name="パス 29034" d="M170.727,214.737a1.783,1.783,0,0,1-.923.635c-.164,0-.223-.177-.1-.681s.236-.969.353-1.453c.092-.373.052-.471-.052-.471-.288,0-1.047.812-1.375,1.368-.078.321-.177.713-.255,1.106a3.165,3.165,0,0,0-.471.131l-.039-.052c.177-.708.373-1.493.53-2.22.053-.209.033-.262-.006-.262a1.209,1.209,0,0,0-.426.295l-.085-.157a1.773,1.773,0,0,1,.923-.622c.151,0,.177.223.052.726l-.137.57h.013a4.413,4.413,0,0,1,1.2-1.152.883.883,0,0,1,.439-.144c.157,0,.34.1.144.937-.1.445-.21.9-.32,1.361-.039.177-.033.236.013.236a1.143,1.143,0,0,0,.432-.308Z" transform="translate(-96.253 -192.965)" fill="#fff"/>
        <path id="パス_29035" data-name="パス 29035" d="M186.493,209.508c-.393.026-.485.124-.57.412a11.06,11.06,0,0,0-.249,1.113l-.5,2.606h-.2l-1.938-3.469h-.02l-.34,1.741a8.933,8.933,0,0,0-.17,1.1c-.013.3.1.367.557.4l-.039.177h-1.5l.04-.177c.34-.02.491-.1.576-.38a10.146,10.146,0,0,0,.274-1.139l.341-1.611c.065-.333.046-.425-.039-.569s-.19-.177-.557-.2l.04-.171h.943l1.931,3.332h.026l.3-1.637a10.367,10.367,0,0,0,.177-1.119c.02-.309-.085-.374-.57-.406l.046-.171h1.473Z" transform="translate(-103.991 -191.258)" fill="#fff"/>
        <path id="パス_29036" data-name="パス 29036" d="M195.976,214.632a1.922,1.922,0,0,1-1.381.74c-.3,0-.72-.178-.72-.956a2.175,2.175,0,0,1,.785-1.7,1.637,1.637,0,0,1,.9-.367.54.54,0,0,1,.577.524c0,.648-1.1,1-1.729,1.159a1.167,1.167,0,0,0-.013.21c0,.353.112.739.511.739a1.524,1.524,0,0,0,.956-.5Zm-.923-1.931a1.472,1.472,0,0,0-.616,1.133c.936-.249,1.211-.55,1.211-.851a.322.322,0,0,0-.327-.36.537.537,0,0,0-.268.078" transform="translate(-110.978 -192.965)" fill="#fff"/>
        <path id="パス_29037" data-name="パス 29037" d="M203.239,211.478l-.648.033-.386,1.807c-.066.321-.033.393.039.393a1.448,1.448,0,0,0,.588-.38l.092.137c-.216.262-.707.7-1.054.7-.151,0-.282-.19-.137-.865l.386-1.794h-.484l-.02-.059.164-.2h.392l.151-.622.5-.406.059.04-.23.989h.76Z" transform="translate(-115.36 -191.762)" fill="#fff"/>
        <path id="パス_29038" data-name="パス 29038" d="M210.181,214.7a4.786,4.786,0,0,0,.923-1.689.687.687,0,0,0-.066-.3.179.179,0,0,1,0-.164.315.315,0,0,1,.268-.19c.164,0,.282.144.282.373a1.474,1.474,0,0,1-.268.687c-.223.36-1.016,1.453-1.382,1.958h-.183c-.053-.694-.118-1.381-.183-2.043h-.013c-.419.7-.9,1.466-1.25,2.043h-.171c-.006-.635-.039-1.48-.065-2.109-.013-.314-.039-.432-.1-.432-.046,0-.144.079-.386.334l-.111-.131c.275-.367.615-.681.838-.681.151,0,.223.2.236.648.013.523.02,1.113.02,1.545h.013c.393-.674.831-1.388,1.218-2.1h.164c.072.733.131,1.493.21,2.246Z" transform="translate(-118.674 -192.966)" fill="#fff"/>
        <path id="パス_29039" data-name="パス 29039" d="M219.046,214.351a1.992,1.992,0,0,1,1-1.787,1.659,1.659,0,0,1,.707-.21c.543,0,.871.374.871,1.022a2.119,2.119,0,0,1-.7,1.584,1.627,1.627,0,0,1-1.008.413c-.622,0-.864-.491-.864-1.022m1.31.72a1.918,1.918,0,0,0,.713-1.682c0-.53-.229-.785-.53-.785a.586.586,0,0,0-.249.058,1.808,1.808,0,0,0-.694,1.657c0,.484.2.792.55.792a.541.541,0,0,0,.21-.039" transform="translate(-125.226 -192.965)" fill="#fff"/>
        <path id="パス_29040" data-name="パス 29040" d="M227.54,213a1.885,1.885,0,0,1,.917-.642c.164,0,.171.3.072.76l-.065.327h.02c.333-.641.72-1.087.982-1.087a.353.353,0,0,1,.281.164.29.29,0,0,1-.006.282.694.694,0,0,1-.171.189c-.059.039-.112.039-.144.007a.3.3,0,0,0-.223-.112c-.079,0-.183.066-.334.275a4.455,4.455,0,0,0-.464.812c-.1.439-.184.851-.263,1.283a2.433,2.433,0,0,0-.465.118l-.052-.053c.169-.7.353-1.506.477-2.206.039-.216.039-.282-.013-.282a1.3,1.3,0,0,0-.464.314Z" transform="translate(-130.034 -192.965)" fill="#fff"/>
        <path id="パス_29041" data-name="パス 29041" d="M236.968,212.532c-.308.485-.583.6-.72.6s-.268-.079-.432-.433a13.078,13.078,0,0,1-.5-1.218,2.858,2.858,0,0,0-.366.419c-.072.354-.151.733-.223,1.107a2.849,2.849,0,0,0-.471.125l-.046-.04c.314-1.336.609-2.652.89-4.013.053-.261.02-.288-.236-.295l-.2-.006.033-.158a6.314,6.314,0,0,0,.962-.229c.065,0,.059.059.033.189-.223.976-.432,1.938-.654,2.914h.007a7,7,0,0,1,.563-.59c.366-.373.844-.792,1.145-.792.177,0,.275.105.275.2a.457.457,0,0,1-.131.262c-.04.033-.079.046-.1.033a.591.591,0,0,0-.249-.052c-.3,0-.667.34-.851.543a7.7,7.7,0,0,0,.537,1.289c.118.243.183.315.255.315s.21-.111.373-.3Z" transform="translate(-133.81 -190.721)" fill="#fff"/>
        <path id="パス_29042" data-name="パス 29042" d="M7.343,169.882c-.234-.822-.613-1.748-1.722-1.748A1.351,1.351,0,0,0,4.2,169.543c0,.913.6,1.357,1.657,1.891,1.083.549,2.257,1.175,2.257,2.61a2.658,2.658,0,0,1-2.949,2.5,4.173,4.173,0,0,1-1.278-.2,4.6,4.6,0,0,1-.678-.274,16.047,16.047,0,0,1-.352-2.061l.4-.1c.209.809.822,2.153,2.153,2.153a1.418,1.418,0,0,0,1.526-1.526c0-.927-.691-1.4-1.67-1.918-.927-.483-2.179-1.148-2.179-2.583a2.47,2.47,0,0,1,2.74-2.362,5.368,5.368,0,0,1,1.67.313c.052.47.131.992.235,1.814Z" transform="translate(-2.855 -167.677)" fill="#fff"/>
        <path id="パス_29043" data-name="パス 29043" d="M21.959,185.176a.77.77,0,1,1,.77.8.751.751,0,0,1-.77-.8" transform="translate(-13.668 -177.139)" fill="#fff"/>
        <path id="パス_29044" data-name="パス 29044" d="M32.583,176.609v-.378c1.044-.078,1.161-.156,1.161-1.266v-5.179c0-1.11-.118-1.188-1.161-1.279v-.378h3.536v.378c-1.043.091-1.161.169-1.161,1.279v5.179c0,1.11.118,1.188,1.161,1.266v.378Z" transform="translate(-19.682 -167.932)" fill="#fff"/>
        <path id="パス_29045" data-name="パス 29045" d="M47.777,185.176a.77.77,0,1,1,.77.8.751.751,0,0,1-.77-.8" transform="translate(-28.282 -177.139)" fill="#fff"/>
        <path id="パス_29046" data-name="パス 29046" d="M66.975,168.506c-.73.039-1.031.209-1.1.783-.039.4-.078.991-.078,2.191v5.245h-.444l-5.532-6.772H59.8v3.209a21.838,21.838,0,0,0,.078,2.192c.066.639.352.822,1.252.874v.378H58.025v-.378c.743-.053,1.07-.222,1.135-.848a21.5,21.5,0,0,0,.091-2.218V170.32c0-.926-.026-1.018-.274-1.331a1.381,1.381,0,0,0-1.148-.483v-.378h2.022l5.363,6.393h.039v-3.04a19.69,19.69,0,0,0-.091-2.166c-.065-.573-.365-.756-1.291-.809v-.378h3.105Z" transform="translate(-33.972 -167.932)" fill="#fff"/>
        <path id="パス_29047" data-name="パス 29047" d="M103.142,168.506c-1.057.091-1.161.156-1.161,1.252v5.219c0,1.1.1,1.161,1.161,1.252v.378H99.554v-.378c1.1-.091,1.2-.156,1.2-1.252v-2.57H96.475v2.57c0,1.1.1,1.161,1.148,1.252v.378h-3.51v-.378c1.031-.091,1.135-.156,1.135-1.252v-5.219c0-1.1-.1-1.161-1.174-1.252v-.378h3.484v.378c-.978.091-1.083.156-1.083,1.252v2.075h4.279v-2.075c0-1.083-.1-1.161-1.109-1.252v-.378h3.5Z" transform="translate(-54.488 -167.932)" fill="#fff"/>
        <path id="パス_29048" data-name="パス 29048" d="M131.915,172.008a4.29,4.29,0,0,1-4.384,4.541,4.235,4.235,0,0,1-4.279-4.358,4.361,4.361,0,0,1,4.423-4.514,4.2,4.2,0,0,1,4.24,4.331m-7.2-.156c0,2.4,1.278,4.214,3.092,4.214,1.409,0,2.649-1.213,2.649-3.705,0-2.727-1.357-4.2-3.04-4.2-1.423,0-2.7,1.279-2.7,3.693" transform="translate(-71.003 -167.677)" fill="#fff"/>
        <path id="パス_29049" data-name="パス 29049" d="M157.895,174.534c-.078.43-.352,1.683-.47,2.074h-5.988v-.378c1.1-.078,1.213-.17,1.213-1.279v-5.179c0-1.11-.092-1.175-1.148-1.266v-.378h3.51v.378c-1.018.078-1.148.143-1.148,1.266v5.14c0,.691.065.939.313,1.07a2.716,2.716,0,0,0,1.2.157c.691,0,1.135-.065,1.436-.4a3.735,3.735,0,0,0,.677-1.291Z" transform="translate(-86.957 -167.932)" fill="#fff"/>
        <path id="パス_29050" data-name="パス 29050" d="M177.7,168.129a5.168,5.168,0,0,1,3.706,1.122,3.8,3.8,0,0,1,1.109,2.792,4.175,4.175,0,0,1-1.6,3.483,6.312,6.312,0,0,1-3.9,1.083h-3.131v-.378c1.109-.079,1.213-.157,1.213-1.266v-5.192c0-1.109-.1-1.174-1.1-1.252v-.391Zm-1.383,6.745c0,.979.391,1.239,1.331,1.239,2.323,0,3.47-1.735,3.47-3.875a3.447,3.447,0,0,0-1.448-3.066,3.74,3.74,0,0,0-2.192-.587,1.953,1.953,0,0,0-.992.17c-.118.091-.169.248-.169.743Z" transform="translate(-99.658 -167.933)" fill="#fff"/>
        <path id="パス_29051" data-name="パス 29051" d="M202.149,176.609v-.378c1.044-.078,1.161-.156,1.161-1.266v-5.179c0-1.11-.118-1.188-1.161-1.279v-.378h3.536v.378c-1.043.091-1.161.169-1.161,1.279v5.179c0,1.11.118,1.188,1.161,1.266v.378Z" transform="translate(-115.661 -167.932)" fill="#fff"/>
        <path id="パス_29052" data-name="パス 29052" d="M227.359,168.506c-.73.039-1.031.209-1.1.783a21.855,21.855,0,0,0-.079,2.191v5.245h-.443l-5.532-6.772h-.026v3.209a21.792,21.792,0,0,0,.079,2.192c.066.639.352.822,1.253.874v.378h-3.106v-.378c.744-.053,1.07-.222,1.136-.848a21.675,21.675,0,0,0,.091-2.218V170.32c0-.926-.026-1.018-.274-1.331a1.38,1.38,0,0,0-1.148-.483v-.378h2.022l5.362,6.393h.039v-3.04a19.546,19.546,0,0,0-.092-2.166c-.065-.573-.365-.756-1.292-.809v-.378h3.105Z" transform="translate(-124.755 -167.932)" fill="#fff"/>
        <path id="パス_29053" data-name="パス 29053" d="M255.751,172.778c-.757.118-.822.183-.822.966v1.1a5.855,5.855,0,0,0,.092,1.227,12.66,12.66,0,0,1-2.923.483c-2.909,0-4.828-1.774-4.828-4.371,0-3.014,2.427-4.5,5.01-4.5a11.036,11.036,0,0,1,2.518.378c.039.444.1,1.161.209,2.061l-.391.078a2.291,2.291,0,0,0-2.544-2.035c-1.905,0-3.353,1.462-3.353,3.849,0,1.905,1.083,4.071,3.536,4.071a2.3,2.3,0,0,0,1.057-.222c.248-.13.391-.313.391-.822V173.9c0-.94-.078-1.018-1.37-1.122V172.4h3.418Z" transform="translate(-141.201 -167.677)" fill="#fff"/>
        <path id="パス_29054" data-name="パス 29054" d="M279.431,169.882c-.234-.822-.612-1.748-1.722-1.748a1.351,1.351,0,0,0-1.422,1.409c0,.913.6,1.357,1.657,1.891,1.083.549,2.257,1.175,2.257,2.61a2.658,2.658,0,0,1-2.949,2.5,4.175,4.175,0,0,1-1.278-.2,4.6,4.6,0,0,1-.678-.274,16.035,16.035,0,0,1-.352-2.061l.4-.1c.209.809.822,2.153,2.153,2.153a1.418,1.418,0,0,0,1.526-1.526c0-.927-.691-1.4-1.67-1.918-.927-.483-2.179-1.148-2.179-2.583a2.47,2.47,0,0,1,2.74-2.362,5.367,5.367,0,0,1,1.67.313c.052.47.131.992.235,1.814Z" transform="translate(-156.865 -167.677)" fill="#fff"/>
      </g>
    </g>
    <path id="パス_29055" data-name="パス 29055" d="M117.243,7.963A27.047,27.047,0,0,0,98.206,0h-.119l-.25,0c-11.764.079-18.4,4.71-24.321,10.148C72.4,11.173,66.945,16.145,60.5,22,56.243,14.217,45.9,0,27.23,0A27.386,27.386,0,0,0,0,27.059H0v.009H0v.006a27.388,27.388,0,0,0,27.114,27.05c.023,0,1.267-.017,1.319-.02,10.588-.329,17.625-4.815,23.371-10.1,1.116-1.025,6.577-6,13.022-11.86C69.1,39.935,79.44,54.126,98.09,54.126a27.391,27.391,0,0,0,27.23-27.062v-.012h0v-.006A27.028,27.028,0,0,0,117.243,7.963ZM27.23.446A32.995,32.995,0,0,1,42.953,4.334a38.844,38.844,0,0,1,10.774,8.694,51.164,51.164,0,0,1,6.443,9.28C51.4,30.277,40.94,39.772,37.125,43.177c-4.054,3.62-9,5.93-16.547,5.93-6.964,0-11.327-2.447-15.009-6.888A26.564,26.564,0,0,1,27.23.446Zm97.3,26.732a26.68,26.68,0,0,1-26.447,26.5,32.992,32.992,0,0,1-15.72-3.888A38.727,38.727,0,0,1,71.6,41.1a51.194,51.194,0,0,1-6.434-9.259C73.926,23.869,84.383,14.386,88.2,10.981c4.054-3.62,9-5.965,16.547-5.965,6.964,0,11.33,2.447,15.012,6.888a26.838,26.838,0,0,1,4.783,15.038v.233Z" transform="translate(0.013)" fill="#fff"/>
  </g>
</svg>
