<svg xmlns="http://www.w3.org/2000/svg" width="270" height="51.297" viewBox="0 0 270 51.297">
  <g id="グループ_31265" data-name="グループ 31265" transform="translate(-875 -592.203)">
    <g id="グループ_30389" data-name="グループ 30389" transform="translate(813 -6840.797)" opacity="0.997">
      <path id="パス_130344" data-name="パス 130344" d="M0,0H270V51.3H0Z" transform="translate(62 7433)" fill="#fff" opacity="0.113"/>
      <g id="グループ_31237" data-name="グループ 31237" transform="translate(-3.201)">
        <g id="グループ_30390" data-name="グループ 30390" transform="translate(290.5 7445.109)">
          <path id="パス_129416" data-name="パス 129416" d="M5.443,0,0,4.5,5.443,8.635" transform="translate(17.46 18.076) rotate(180)" fill="rgba(142,142,142,0)" stroke="#fff" stroke-width="0.75"/>
          <g id="楕円形_58" data-name="楕円形 58" transform="translate(27 27) rotate(180)" fill="rgba(142,142,142,0)" stroke="#fff" stroke-width="0.75">
            <circle cx="13.5" cy="13.5" r="13.5" stroke="none"/>
            <circle cx="13.5" cy="13.5" r="13.125" fill="none"/>
          </g>
        </g>
      </g>
      <path id="パス_130470" data-name="パス 130470" d="M-153.664-6.916c.266-.336.714-.84.952-1.176a4,4,0,0,1,.952-1.148.353.353,0,0,0,.126-.28c0-.532-1.414-1.12-1.624-1.12a.138.138,0,0,0-.14.112,1.556,1.556,0,0,0,.1.224.792.792,0,0,1,.112.392c0,.392-1.092,2.772-4.4,5.6-.224.2-.616.518-.98.84a.127.127,0,0,0-.042.1c0,.056.028.084.07.084a15.377,15.377,0,0,0,3.976-2.674c.112-.112.168-.168.238-.168.364,0,.364,1.47.364,1.974,0,.742-.056,1.82-.14,2.576-.014.14-.154.756-.154.9,0,.378.476.98.868.98.336,0,.336-.476.336-.616,0-.182-.084-.994-.1-1.162-.028-.546-.042-1.3-.042-1.68a13.517,13.517,0,0,1,.084-2.478c.014-.084.168-.476.168-.56,0-.126-.056-.182-.6-.518A.226.226,0,0,1-153.664-6.916Zm13.734-.924c0-.826-1.176-1.624-2.674-1.624-.2,0-.308.07-.308.126s.07.1.126.126a3.153,3.153,0,0,1,1.274,1.148c.462.7.6.924.98.924A.618.618,0,0,0-139.93-7.84Zm5.824-.126a.09.09,0,0,0-.07-.07c-.028,0-.42.392-.644.616-2.324,2.3-6.034,4.774-6.72,4.774a2.317,2.317,0,0,1-.952-.322,3.485,3.485,0,0,0-.42-.266c-.126,0-.14.644-.14.742,0,.56,1.036,1.456,1.792,1.456.21,0,.238-.028.5-.35a9.776,9.776,0,0,1,1.372-1.148A19.049,19.049,0,0,0-134.106-7.966Zm4.746,7.938c-.028.126.1.126.126.126a12.085,12.085,0,0,0,5.166-3.374c.28-.294.364-.392.49-.392s.294.266.322.322c.532.9.588.994.882.994a.6.6,0,0,0,.6-.672,1.954,1.954,0,0,0-.588-1.232c-.252-.322-.266-.35-.266-.476s.028-.154.154-.35c.168-.28,1.12-1.61,1.316-1.918.42-.658.476-.728.686-.826.252-.112.35-.154.35-.364,0-.448-1.008-1.078-1.148-1.078a3.358,3.358,0,0,0-.518.308,8.575,8.575,0,0,1-2.1.336c-.182,0-.476-.028-.476-.238,0-.084.154-.462.154-.546a1.249,1.249,0,0,0-1.26-.826c-.084,0-.266,0-.266.084s.224.546.224.658c0,.8-1.148,2.772-2.814,4.578a4.593,4.593,0,0,0-.5.6.065.065,0,0,0,.07.07c.462,0,2.156-1.834,2.478-1.834.35,0,2.016,1.064,2.016,1.5s-1.918,2.716-4.788,4.34C-129.318-.084-129.346-.084-129.36-.028Zm5.726-5.278a.79.79,0,0,1-.322-.1,15.616,15.616,0,0,0-1.54-.714c-.35-.14-.476-.182-.476-.378a11.454,11.454,0,0,1,1.19-1.568.22.22,0,0,1,.168-.056.941.941,0,0,1,.336.056,1.272,1.272,0,0,0,.42.056c.252,0,1.484-.182,1.694-.182.1,0,.238.042.238.2A7.045,7.045,0,0,1-123.634-5.306Zm10.556-.336a7.624,7.624,0,0,1-1.708-.126c-.07-.014-.406-.168-.476-.168s-.112.084-.112.168c0,.476.644,1.344,1.246,1.344.168,0,.924-.224,1.092-.252.336-.07,3.542-.252,5.474-.252.28,0,1.68.028,2,.028.588,0,1.162-.042,1.162-.434,0-.1-.126-.616-.98-.616-.07,0-.224.014-.308.014C-107.73-5.824-112.616-5.642-113.078-5.642Zm17.248-2.2c0-.826-1.176-1.624-2.674-1.624-.2,0-.308.07-.308.126s.07.1.126.126a3.153,3.153,0,0,1,1.274,1.148c.462.7.6.924.98.924A.618.618,0,0,0-95.83-7.84Zm5.824-.126a.09.09,0,0,0-.07-.07c-.028,0-.42.392-.644.616-2.324,2.3-6.034,4.774-6.72,4.774a2.317,2.317,0,0,1-.952-.322,3.485,3.485,0,0,0-.42-.266c-.126,0-.14.644-.14.742,0,.56,1.036,1.456,1.792,1.456.21,0,.238-.028.5-.35a9.777,9.777,0,0,1,1.372-1.148A19.049,19.049,0,0,0-90.006-7.966Zm6.762,7.518c.182,0,.854-.63,1.022-.742,5.8-4.06,7.028-7.056,7.028-7.21a.051.051,0,0,0-.056-.056,6.673,6.673,0,0,0-.6.63c-3.346,3.794-7.112,5.894-7.714,5.894-.112,0-.644-.182-.77-.182-.084,0-.126.042-.126.1a.594.594,0,0,0,.084.266c.042.07.294.364.336.434C-83.692-.672-83.552-.448-83.244-.448ZM-83.776-6.9c-.182,0-.98.014-.98.21,0,.056.084.112.126.14A3.4,3.4,0,0,1-83.356-5.39c.21.35.28.434.49.434.336,0,.546-.42.546-.7C-82.32-6.342-83.174-6.9-83.776-6.9Zm1.624-2.674a1.667,1.667,0,0,0-1.078.266c0,.042.154.084.21.1a2.437,2.437,0,0,1,1.2.742c.5.6.574.658.728.658.224,0,.448-.308.448-.63C-80.64-8.484-80.64-9.576-82.152-9.576ZM-63.238-6.37c0,1.2-1.638,3.836-4.62,6.118a5.979,5.979,0,0,0-.784.588.09.09,0,0,0,.084.084,12.259,12.259,0,0,0,5.7-4.942,11.414,11.414,0,0,1,.714-1.2c.238-.14.294-.154.294-.266,0-.406-.56-.742-.784-.854a3.115,3.115,0,0,0-.63-.35.1.1,0,0,0-.1.1.892.892,0,0,0,.028.126A1.42,1.42,0,0,1-63.238-6.37Zm-6.132.462c-.1,0-.182.042-.182.126,0,.042.028.084.1.182a5.007,5.007,0,0,1,.812,1.414c.1.308.2.63.5.63a.509.509,0,0,0,.476-.532C-67.662-5.208-69.034-5.908-69.37-5.908ZM-66.948-7.2c-.07-.014-.14.028-.14.07a1.582,1.582,0,0,0,.154.308,4.394,4.394,0,0,1,.518,1.33c.042.238.112.588.42.588.252,0,.476-.308.476-.714A1.774,1.774,0,0,0-66.948-7.2Zm21.084-3.724a1.33,1.33,0,0,0-1.372,1.33,1.376,1.376,0,0,0,1.358,1.358A1.366,1.366,0,0,0-44.534-9.59,1.3,1.3,0,0,0-45.864-10.92Zm-.028.476a.936.936,0,0,1,.9.882.863.863,0,0,1-.868.854.869.869,0,0,1-.91-.84A.9.9,0,0,1-45.892-10.444ZM-55.986-8.736c-.084,0-.126.042-.126.308,0,.77,1.12,1.47,1.442,1.47a5.077,5.077,0,0,0,.7-.308,45.937,45.937,0,0,1,5.04-1.008c.07,0,.308.014.308.252a7.91,7.91,0,0,1-.952,2.366A18.221,18.221,0,0,1-55.1-.112c-.14.1-.182.126-.182.182a.093.093,0,0,0,.1.084A14.246,14.246,0,0,0-47.964-6.37a2.317,2.317,0,0,1,.546-.882c.252-.252.322-.322.322-.5s-.084-.35-.714-.91c-.434-.378-.658-.574-.966-.574-.1,0-.154.028-.588.224a36.247,36.247,0,0,1-5.278.658A3.3,3.3,0,0,1-55.8-8.652C-55.832-8.652-55.958-8.736-55.986-8.736Zm15.862,4.7a10.915,10.915,0,0,1,1.078-3.612c.266-.476.266-.49.266-.644,0-.5-.588-1.778-1.232-1.778-.056,0-.112.028-.112.07a1.773,1.773,0,0,0,.084.252,3.429,3.429,0,0,1,.14.994,4.754,4.754,0,0,1-.238,1.456,10.063,10.063,0,0,0-.588,3.052c0,1.344.644,3.724,1.512,3.724a.469.469,0,0,0,.462-.476,1.51,1.51,0,0,0-.168-.616,2.5,2.5,0,0,1-.224-.728c0-.336.322-1.974.322-2.128,0-.028,0-.168-.07-.168s-.112.112-.2.35c-.308.868-.434,1.092-.672,1.092S-40.124-3.612-40.124-4.032Zm7.252-5.18c-.14-.014-.182,0-.6.154a5.655,5.655,0,0,1-1.54.21,4.784,4.784,0,0,1-.952-.084c-.182-.042-.35-.1-.392-.1-.084,0-.1.042-.1.07a2.746,2.746,0,0,0,2.45,1.036c.168,0,1.722,0,1.722-.686A.7.7,0,0,0-32.872-9.212Zm.6,6.944c-.056,0-1.036.1-1.232.112a11.668,11.668,0,0,1-1.218.042,3.446,3.446,0,0,1-1.5-.238,2.088,2.088,0,0,0-.336-.2c-.07,0-.07.112-.07.14,0,.266.364.63.434.7a2.859,2.859,0,0,0,2.184.63c1.96,0,2.38-.168,2.38-.714C-31.626-1.96-31.738-2.268-32.27-2.268Zm15.736-4.3c.476,0,.756,0,.756-.2a4.14,4.14,0,0,0-1.358-1.064c-.168,0-.336.266-.392.364-.308.532-.462.532-1.022.532h-3.164c-.21,0-.322,0-.322-.14a2.027,2.027,0,0,1,.518-.756c.168-.112.252-.168.252-.28,0-.2-.392-.322-.42-.322-.336-.112-.336-.154-.336-.2,0-.112.112-.126.378-.154,1.876-.238,2.3-.308,2.576-.364.182-.028.336-.056.406-.056.224,0,.252.07.476.574.238.532.434.77.728.77a.679.679,0,0,0,.616-.756c0-1.19-2.506-2.31-2.562-2.31-.028,0-.084,0-.084.07,0,.112.714.91.714,1.12,0,.14-.07.14-.686.2-.882.084-2.562.168-3.43.168-.07,0-.2-.014-.2-.14,0-.21.994-1.008,1.19-1.064.546-.182.616-.2.616-.336,0-.238-1.526-.8-1.568-.8s-.056.028-.182.35a8.158,8.158,0,0,1-.826,1.82c-.154.182-.266.182-.574.182-.476,0-1.358,0-1.862-.056-.14-.014-.532-.056-.658-.056-.07,0-.1,0-.1.056s.434,1.12.476,1.218.07.168.168.168a5.526,5.526,0,0,0,.644-.322c.28-.1,2.744-.28,2.87-.28.168,0,.2.014.2.14a3.445,3.445,0,0,1-.462,1.12c-.238.392-.364.434-.882.434H-25.48c-.8,0-1.526-.042-1.932-.056-.1,0-.518-.042-.616-.042-.014,0-.042,0-.042.028s0,.028.056.1l.266.322c.056.056.084.084.126.084s.252-.028.294-.028c.49-.042,1.442-.042,1.778-.042h1.3c.182,0,.364,0,.364.126S-24.57-5.1-27.846-3c-.252.168-.28.182-.28.238,0,.028,0,.056.07.056a12.314,12.314,0,0,0,4.34-2.492c.308-.28.476-.462,1.078-1.106a.638.638,0,0,1,.63-.266h.84c.42,0,.49.084,1.036.8A12.569,12.569,0,0,0-17.108-2.8c.308.21.35.238.42.238s.322-.308.392-.364A1.94,1.94,0,0,1-15.218-3.3c.168-.028.238-.042.238-.112,0-.042-.126-.07-.238-.1-2.086-.462-4.8-2.492-4.8-2.912,0-.14.084-.14.378-.14Zm-2.044,4.214a2.5,2.5,0,0,0-.378.294A11.209,11.209,0,0,1-26,.6c-.826.042-.91.056-.91.154,0,.182,1.47.21,1.736.21a11.4,11.4,0,0,0,4.76-.938c.42-.182,2.282-1.2,2.52-1.232.574-.056.658-.07.658-.252C-17.234-1.764-18.466-2.352-18.578-2.352ZM-21.812-5.67c-.07,0-.266.308-.308.364a18.91,18.91,0,0,1-3.808,2.758c-.2.112-.224.112-.224.168,0,.084.1.084.14.084A12.806,12.806,0,0,0-22.96-3.528,14.259,14.259,0,0,1-21.1-4.592c.434-.056.5-.07.5-.21C-20.594-4.984-21.686-5.67-21.812-5.67Zm1.316,1.6c-.028,0-.07.042-.35.364-1.428,1.624-4.76,2.856-5.292,3.01-.014,0-.266.07-.266.1s.042.07.14.07a10.746,10.746,0,0,0,4.368-1.3c.518-.252,1.764-.994,2.072-1.176.378-.154.42-.182.42-.294,0-.14-.294-.35-.378-.406S-20.482-4.074-20.5-4.074Zm10.724-4.3c-.434,0-.434-.238-.434-.378a6.672,6.672,0,0,1,.2-1.9c.056-.084.364-.406.364-.5,0-.14-.042-.154-.742-.336a4.957,4.957,0,0,0-.7-.126c-.07,0-.07.084-.07.126,0,.014.042,1.092.042,1.288,0,1.82-.056,1.834-.49,1.834-.294,0-1.61-.1-1.876-.1a.045.045,0,0,0-.042.042c0,.014.028.042.056.084l.28.336c.028.042.07.084.112.084s.252-.042.308-.042c.252-.028.882-.028,1.162-.028.364,0,.364.21.364.5a21.427,21.427,0,0,1-.77,4.984A14.688,14.688,0,0,1-13.16.266a.649.649,0,0,0-.126.252c0,.042.028.084.1.084.224,0,1.96-1.526,2.6-5.474a24.538,24.538,0,0,0,.308-2.7c.014-.266.084-.42.434-.42h.882c.2,0,.434.014.434.392,0,.91-.2,3.6-.308,4.592C-9.142-.28-9.506-.28-9.884-.28a4.25,4.25,0,0,1-.868-.126c-.084-.014-.406-.126-.462-.126s-.1.028-.1.07c0,.07.126.154.35.294.14.1.7.462.7.854,0,.308,0,.336.182.336.84,0,1.638-.574,1.932-2.03A38.735,38.735,0,0,0-7.574-7.1c.014-.378.028-.434.238-.588.14-.1.2-.182.2-.266,0-.28-.952-.826-1.092-.826-.07,0-.1.028-.35.28A.537.537,0,0,1-9-8.372Zm6.79,7.56c.392,0,.434.14.434.406,0,.5,0,.784.35.784.112,0,.742-.168.742-.686,0-1.022-.042-5.516-.042-6.44A6.181,6.181,0,0,1-1.33-8.68c.224-.294.252-.336.252-.448,0-.238-.784-.826-1.008-.826-.112,0-.14.028-.378.266a.581.581,0,0,1-.448.154H-4.648c-.238,0-.322-.028-.868-.266A2.175,2.175,0,0,0-6.1-10c-.07,0-.07.112-.07.154,0,.112.014.182.042.5.042.392.1,3.626.1,4.4,0,.826-.07,4.522-.07,5.278,0,.07,0,.448.378.448A.731.731,0,0,0-5.04,0c0-.7,0-.812.434-.812ZM-4.62-1.176c-.112,0-.35,0-.406-.2-.042-.126-.042-6.426-.042-7.1,0-.532,0-.7.434-.7H-2.94c.112,0,.336,0,.406.2.042.112.042,1.526.042,1.75,0,.35,0,5.684-.056,5.852-.07.2-.294.2-.42.2Z" transform="translate(260 7463.609)" fill="#fff"/>
    </g>
  </g>
</svg>
