<svg id="グループ_31304" data-name="グループ 31304" xmlns="http://www.w3.org/2000/svg" width="93.206" height="28.659" viewBox="0 0 93.206 28.659">
  <g id="長方形_38726" data-name="長方形 38726" transform="translate(0 0)" fill="none" stroke="#fff" stroke-width="0.5">
    <rect width="93.206" height="28.659" stroke="none"/>
    <rect x="0.25" y="0.25" width="92.706" height="28.159" fill="none"/>
  </g>
  <path id="パス_130463" data-name="パス 130463" d="M8.62-13.3c-4.2,0-7.3,3.74-7.3,7.92C1.32-1.98,3.5.3,6.66.3c4.28,0,7.32-3.6,7.32-7.86C13.98-10.92,11.84-13.3,8.62-13.3Zm-.14.72c2.48,0,3.4,2.12,3.4,4.76,0,3.32-1.86,7.4-5.06,7.4C4.46-.42,3.4-2.48,3.4-5.14,3.4-8.7,5.46-12.58,8.48-12.58Zm21.42-.4H25.36l-.16.56c1.46.08,1.82.3,1.74,1.24a30.936,30.936,0,0,1-.52,3.42l-.9,4.78h-.06l-5.78-10H16.66l-.14.56c1.06.06,1.44.18,1.68.6.24.44.32.76.1,1.86l-1,4.76c-.4,1.86-.62,2.76-.84,3.44-.26.88-.72,1.14-1.76,1.2L14.56,0H19.2l.12-.56c-1.4-.1-1.76-.32-1.7-1.24a25.775,25.775,0,0,1,.5-3.36l1.02-5.2h.06L25.08.16h.68l1.5-7.92a33.955,33.955,0,0,1,.78-3.4c.26-.88.52-1.2,1.74-1.26ZM39-3.38a8.343,8.343,0,0,1-1.42,2.04,3.082,3.082,0,0,1-2.3.62A3.09,3.09,0,0,1,33.52-1c-.3-.26-.32-.72-.2-1.44l1.58-8.22c.28-1.5.36-1.62,1.96-1.76l.12-.56H31.8l-.12.56c1.62.14,1.72.24,1.42,1.76l-1.62,8.3c-.3,1.52-.44,1.68-1.98,1.8L29.36,0H38.3c.3-.64,1.02-2.5,1.28-3.16Zm9.28-9.6H43.06l-.14.56c1.64.14,1.78.26,1.5,1.74L42.8-2.38c-.3,1.54-.42,1.7-1.96,1.82L40.7,0h5.26l.12-.56c-1.62-.12-1.76-.26-1.46-1.82l1.6-8.3c.3-1.48.4-1.6,1.94-1.74Zm15.04,0H58.78l-.16.56c1.46.08,1.82.3,1.74,1.24a30.937,30.937,0,0,1-.52,3.42l-.9,4.78h-.06l-5.78-10H50.08l-.14.56c1.06.06,1.44.18,1.68.6.24.44.32.76.1,1.86l-1,4.76c-.4,1.86-.62,2.76-.84,3.44-.26.88-.72,1.14-1.76,1.2L47.98,0h4.64l.12-.56c-1.4-.1-1.76-.32-1.7-1.24a25.774,25.774,0,0,1,.5-3.36l1.02-5.2h.06L58.5.16h.68l1.5-7.92a33.956,33.956,0,0,1,.78-3.4c.26-.88.52-1.2,1.74-1.26Zm1.9,0-.14.56c1.64.14,1.74.26,1.42,1.86L64.94-2.42c-.32,1.6-.48,1.72-2.08,1.86L62.72,0h9.44c.28-.64,1.02-2.52,1.24-3.1l-.58-.2a8.152,8.152,0,0,1-1.36,1.9c-.54.52-1.14.68-2.58.68-1.08,0-1.66-.04-1.96-.3-.26-.24-.28-.76-.08-1.86l.66-3.5h1.82c1.72,0,1.72.14,1.68,1.58h.6l.76-3.84h-.6c-.48,1.32-.6,1.46-2.28,1.46H67.66l.82-4.28c.14-.74.2-.82.9-.82h1.44c1.42,0,1.7.18,1.92.64a4.122,4.122,0,0,1,.28,1.78l.6-.04c.14-1.16.32-2.68.38-3.08Z" transform="translate(8.17 21.129)" fill="#fff"/>
</svg>
