<svg xmlns="http://www.w3.org/2000/svg" width="318.232" height="82.996" viewBox="0 0 318.232 82.996">
  <g id="グループ_31363" data-name="グループ 31363" transform="translate(-0.085)">
    <g id="グループ_31364" data-name="グループ 31364">
      <g id="グループ_31366" data-name="グループ 31366">
        <path id="パス_130399" data-name="パス 130399" d="M.714,8.7C.568,8.511.53,8.474.53,8.437c0-.074.111-.074.147-.074.7,0,4.108.222,4.886.222C6.6,8.585,6.6,8.326,6.6,5.847c0-.555-.036-2.738-.147-4.145,0-.184-.185-1.036-.185-1.257,0-.075.112-.075.148-.075a28.771,28.771,0,0,1,3.331,1c.184.112.4.259.4.519,0,.147-.666.7-.739.85-.185.333-.185.519-.185,2.073V7.919c0,.518.222.592.592.592a1.323,1.323,0,0,0,.889-.259c.257-.148,1.331-1.258,1.665-1.258a.7.7,0,0,1,.517.259c.444.443,1.222,1.369,1.331,1.443.815.777.889.851.889,1.073a.556.556,0,0,1-.407.481c-.111.037-.629.148-.74.185-.518.222-2.886,3.145-3.441,3.7-1.073,1.11-1.184,1.222-1.184,1.888,0,.777.333.85,1.222,1.036,1.257.3,4.736,1.3,4.736,4.107,0,1.147-.63,1.7-1.3,1.7-.889,0-1.3-.74-2.257-2.7-.224-.407-1.444-2.3-2.148-2.3-.333,0-.333.519-.333.963,0,1.405.037,8.251.037,9.769,0,.48.185,2.774.185,3.293a1.765,1.765,0,0,1-1.961,1.7c-.888,0-1.109-.37-1.109-.888,0-.37.148-2.072.148-2.479.073-2.739.221-6.587.221-10.953,0-.408,0-1.037-.369-1.037S1.233,22.424.271,22.424c-.073,0-.186,0-.186-.111,0-.3,2.74-2.776,3.221-3.293C4.785,17.5,10,11.028,10,9.954c0-.333-.257-.37-.591-.37H6.82c-1.442,0-3,.037-4.292.112-.11,0-.665.073-.776.073-.149,0-.222-.073-.334-.222Zm12.1,22.646c-.147-.186-.147-.186-.147-.223a.117.117,0,0,1,.111-.11c.222,0,1.37.147,1.628.147,1.073.038,3,.112,5.07.112h1.442c.334,0,1,0,1.075-.815.073-.666.146-14.912.146-16.836,0-.37,0-1.147-.887-1.147-.926,0-3.071,0-4.367.111-.111,0-.629.074-.777.074-.11,0-.184-.074-.333-.222l-.7-.851c-.149-.184-.149-.184-.149-.259s.074-.074.111-.074,1.369.112,1.555.112c.369,0,3.368.147,4.625.147.889,0,.962-.48.962-1.517,0-3.4-.073-5.069-.259-7.844,0-.3-.223-1.591-.223-1.888,0-.185.075-.259.3-.259.111,0,2.4.7,2.663.778.332.111,1.109.295,1.109.924,0,.186-.739.815-.813,1-.222.519-.333,6.662-.333,7.661,0,.443,0,1.146.888,1.146,1.74,0,1.924,0,2.7-1.036,1.073-1.442,1.184-1.591,1.516-1.591.519,0,3.11,2.405,3.11,3.108,0,.481-.778.481-1.96.481H25.729c-1,0-1.073.556-1.073,1.222,0,2.219.111,13.061.111,15.541,0,1.369,0,2.035.962,2.035H27.1a2.3,2.3,0,0,0,2.184-1.111c1-1.294,1.109-1.443,1.554-1.443.333,0,3.589,2.4,3.589,3.034,0,.519-.777.519-2,.519H19.292c-.889,0-3.368-.037-4.664.074-.111,0-.666.11-.777.11s-.184-.073-.334-.258Z" fill="#fff"/>
        <path id="パス_130400" data-name="パス 130400" d="M66.939,16.318a3.947,3.947,0,0,0,2.627-.517c.3-.223,1.259-1.592,1.593-1.592.368,0,3.107,2.22,3.107,2.627,0,.444-.888.444-2,.444H57.8c-.333,0-.591.148-.591.444,0,.629,3.109,5.514,3.849,5.514.481,0,3.848-3.034,4.365-4.44.26-.629.409-1,.628-1a15.763,15.763,0,0,1,3.516,2.368v.11c0,.37-.148.37-1.444.519-1.034.11-3.735,1.7-5.1,2.552-.963.592-1.074.629-1.074.852,0,.443,4.772,4.847,11.249,5.846.554.074.666.148.666.3s-.259.3-.629.443a13.472,13.472,0,0,0-2.443,1.555c-.111.073-.628.554-.739.554a22.148,22.148,0,0,1-7.437-4.81c-1.148-1.147-1.259-1.295-1.665-1.295-.224,0-2.887.887-4.33,1.406-1.739.592-10.545,3.441-11.1,3.774-.148.111-.7.7-.851.814a.475.475,0,0,1-.223.037c-.407,0-.518-.185-1.407-1.812-.111-.186-.628-1.037-.7-1.222a1.613,1.613,0,0,1-.184-.555c0-.444.554-.444.961-.444a19.437,19.437,0,0,0,4.033-.259c.628-.111.628-.407.628-1.258,0-1.369-.035-7.253-.035-8.473,0-1.332-.222-1.518-1.3-1.518-.851,0-2.85.111-3.588.148-.111,0-.445.038-.519.038-.147,0-.222-.075-.333-.223l-.74-.851c-.149-.148-.149-.185-.149-.258,0-.038.038-.075.149-.075.74,0,4.7.259,5.587.259,1.258,0,1.333-.37,1.333-1.443,0-7.289,0-8.1-.075-9.51-.036-.629-.369-3.811-.369-3.959,0-.111,0-.3.258-.3a17,17,0,0,1,2.443.925,4.235,4.235,0,0,0,2.07.481H62.536c1.629,0,1.814,0,2.369-.629C65.94.666,66.05.518,66.384.518c.222,0,3.442,2,3.442,2.442,0,.555-.74.555-1.96.555H51.991c-1.147,0-1.258.333-1.258,1.369,0,1.628,0,2.036,1.073,2.036h8.548c1.554,0,1.737,0,2.035-.259.258-.223,1.221-1.481,1.517-1.481a8.055,8.055,0,0,1,3.033,2.257c0,.445-.889.445-1.96.445H51.806c-1.073,0-1.073.666-1.073,1.406,0,1.924,0,2.368,1.146,2.368h8.585c1.516,0,1.665,0,2-.3.221-.223,1.221-1.443,1.516-1.443a8.054,8.054,0,0,1,3.035,2.257c0,.444-.889.444-1.924.444H51.879c-1.035,0-1.146.48-1.146,1.369,0,1.814,0,2.331,1.108,2.331Zm-15.5.962c-.37,0-.889,0-1.036.7-.037.186-.037,2.257-.037,2.776,0,1.849,0,4.44.074,6.29,0,.518.035.888.591.888.482,0,5.958-1.3,7.291-1.7,1.554-.444,1.738-.518,1.738-.926,0-.073-.074-.184-.629-1.072a56.9,56.9,0,0,1-2.59-5.255c-.666-1.516-.741-1.7-1.48-1.7Z" fill="#fff"/>
        <path id="パス_130401" data-name="パス 130401" d="M86.334,22.424c.629,0,.962-.591,1.777-2.887.221-.628.333-.925.518-.925s.184.37.184.444c0,.408-.85,4.736-.85,5.625a6.6,6.6,0,0,0,.592,1.924A4.007,4.007,0,0,1,89,28.233a1.239,1.239,0,0,1-1.22,1.259c-2.295,0-4-6.291-4-9.844,0-2.367.294-3.44,1.553-8.065a12.572,12.572,0,0,0,.629-3.85,9.063,9.063,0,0,0-.37-2.627,4.686,4.686,0,0,1-.222-.666c0-.111.148-.184.3-.184,1.7,0,3.256,3.367,3.256,4.7,0,.408,0,.443-.7,1.7-.406.776-2.849,6.216-2.849,9.546,0,1.109.37,2.22.962,2.22m21.5,3.7c0,1.443-1.109,1.885-6.29,1.885-3.626,0-5-.924-5.772-1.664-.186-.185-1.147-1.146-1.147-1.85,0-.074,0-.371.185-.371a5.571,5.571,0,0,1,.888.519,9.09,9.09,0,0,0,3.959.629,30.838,30.838,0,0,0,3.219-.111c.519-.037,3.109-.3,3.257-.3,1.406,0,1.7.813,1.7,1.258M106.094,8.1c0,1.813-4.107,1.813-4.552,1.813-4.18,0-6.475-2.257-6.475-2.739,0-.074.037-.184.259-.184.111,0,.555.148,1.036.259a12.643,12.643,0,0,0,2.516.222,14.978,14.978,0,0,0,4.07-.555c1.111-.408,1.222-.444,1.591-.408A1.849,1.849,0,0,1,106.094,8.1" fill="#fff"/>
        <path id="パス_130402" data-name="パス 130402" d="M124.662,4.81a3.023,3.023,0,0,0-.518-1.628,7.342,7.342,0,0,1-.7-1.036c0-.444.778-.777,1.518-.777A3.008,3.008,0,0,1,127.623,3c.184.26.555.407,1.665.7.7.186,2.108.593,2.108,1.628,0,1.406-2.072,2.072-5.068,2.961-.334.11-.371.222-.7,1.516-.445,1.851-3.627,14.358-7.031,14.358-1,0-1.147-.666-1.147-1.036,0-.519.111-.7,1.221-2.294a33.107,33.107,0,0,0,5.106-12.064c0-.333-.259-.37-.813-.407-4.367-.369-4.367-2.96-4.367-3,0-.147.037-.443.259-.443.149,0,.259.037,1,.48a5.494,5.494,0,0,0,2.85.777,4.637,4.637,0,0,0,1.629-.221,1.761,1.761,0,0,0,.332-1.148m10.657,23.164c-.481,3.219-3.294,4.034-5.218,4.034-3.514,0-5.587-2.443-5.587-4.293,0-2.406,2.627-3.663,5.958-3.663.295,0,1.665.074,1.924.074.332,0,.518-.037.518-.407,0-.555-.149-3.035-.149-3.552,0-4.071.223-6.032,3.331-7.808,2.294-1.332,2.553-1.443,2.553-2.4a3.246,3.246,0,0,0-1.036-1.888c-.333-.3-.48-.443-.48-.592,0-.111.111-.184.258-.184a11.783,11.783,0,0,1,2.183.629,3.968,3.968,0,0,1,2.7,3.774,1.757,1.757,0,0,1-1.738,1.924,2.563,2.563,0,0,1-.852-.148c-1.406-.518-1.554-.592-2-.592a4.429,4.429,0,0,0-2.7,1.11,4.173,4.173,0,0,0-.889,3.071c0,.925.372,6.661,1.481,7.438.334.259,2.072.85,2.4,1.036.778.407,2.923,1.591,2.923,2.96,0,.629-.258,1.3-1,1.3-.371,0-.593-.11-1.147-.592-1-.888-2.7-2.035-3.22-1.813-.148.074-.148.222-.222.592m-5.328-2.109c-.851,0-4.182,0-4.182,1.961,0,.888,1.111,2,3.331,2,3.588,0,4.107-2.813,3.885-3.4-.185-.555-2.183-.555-3.034-.555m-1-21.166c0-.259-1.3-.925-1.518-.925-.628,0-.887,1.518-.887,1.628a.4.4,0,0,0,.073.223c.111.11,2.332-.37,2.332-.926" fill="#fff"/>
        <path id="パス_130403" data-name="パス 130403" d="M163.864,7.993c-3.146,0-6.1,5.18-6.1,9.1a7.535,7.535,0,0,0,.481,2.738,3.694,3.694,0,0,1,.332,1.405,1.237,1.237,0,0,1-1.332,1.332c-1.7,0-2.516-3.07-2.516-5.994a33.336,33.336,0,0,1,.666-5.883,25.293,25.293,0,0,0,.555-4.736,4.114,4.114,0,0,0-.48-2.3c-.075-.148-.629-.888-.629-.962a1.492,1.492,0,0,1,1-.259,2.862,2.862,0,0,1,2.849,2.48,23.178,23.178,0,0,1-.777,2.738,39.5,39.5,0,0,0-.813,4.588c0,.111,0,.517.295.517.186,0,.408-.443.666-.924.408-.814,2.924-5.477,6.809-5.477,2.295,0,4.773,1.222,4.773,8.992,0,5.217-1.036,11.138-8.066,15.32a9.583,9.583,0,0,1-2.664,1.22c-.074,0-.148-.037-.148-.111,0-.11.074-.185.925-.813,6.069-4.589,7.178-8.881,7.178-16.43,0-4.07-.74-6.549-3-6.549" fill="#fff"/>
        <path id="パス_130404" data-name="パス 130404" d="M183.114,25.347A49.808,49.808,0,0,0,188,11.73c0-.37-.149-.37-1.333-.37a7.115,7.115,0,0,1-3.293-.666,3.564,3.564,0,0,1-1.924-2,.156.156,0,0,1,.149-.148,7.985,7.985,0,0,1,.85.333,13.657,13.657,0,0,0,3.294.407,8.1,8.1,0,0,0,2.627-.333c.3-.259.406-2.775.406-3.034a5.116,5.116,0,0,0-.443-2.3c-.149-.185-1.036-1.109-1.036-1.368,0-.37.7-.852,1.665-.852a3.34,3.34,0,0,1,2.96,1.961c0,.186-.407.926-.407,1.111,0,.7,2.961,1.332,3.33,1.332.148,0,.963-.075,1.147-.075a1.06,1.06,0,0,1,1.222,1.148c0,2.072-3.146,3.145-5.588,3.811-1.258.333-1.406.37-1.555,1.036-1.887,8.067-1.924,8.1-2.7,10.508-2.553,7.7-3.885,7.7-4.588,7.7-.888,0-1-1.222-1-1.628,0-.445.185-.815,1.332-2.961m7.808-16.911c.185,0,3-1,3-1.479,0-.37-2-1.185-2.406-1.185-.222,0-.332.075-.407.445-.148.74-.148.85-.334,1.739-.037.259-.073.48.149.48m2.812,15.69c.778,3.219,4.774,3.922,7.586,3.922.629,0,3.441-.259,4.033-.259,1.258,0,2.959.629,2.959,1.851,0,1.072-1.368,1.257-4.513,1.257-5.994,0-10.991-1.517-10.991-6.179,0-.851.223-1.628.519-1.628.147,0,.37.925.407,1.036m8.178-12.877c3.516,0,6.18,1.036,6.18,2.664,0,.888-.778.888-1.075.888-.332,0-1.775-.111-2.072-.111a6.208,6.208,0,0,0-2.737.592,6.511,6.511,0,0,1-1.554.482c-.074,0-.185,0-.185-.112,0-.258,1.923-1.665,1.923-2.072,0-.555-2.626-.592-3.181-.592a21.81,21.81,0,0,0-2.664.148c-.223.037-1.074.148-1.222.148-.037,0-.3,0-.333-.074-.259-.481,2.961-1.961,6.92-1.961" fill="#fff"/>
        <path id="パス_130405" data-name="パス 130405" d="M221.872,10.508a5.034,5.034,0,0,1-.444,1.481,13.065,13.065,0,0,0-.888,4.773c0,3.738,1.925,6.439,3.072,6.439.629,0,.777-.186,1.886-2.035.223-.37.852-1.259,1.148-1.259.11,0,.184.148.184.3a4.536,4.536,0,0,1-.11.739,10.381,10.381,0,0,0-.481,2.813,5,5,0,0,0,.222,1.48,9.208,9.208,0,0,1,.295,1.221c0,.74-.776,1.147-1.4,1.147-2.368,0-7.03-3.886-7.03-10.953,0-1.036.517-5.587.517-6.55a10.268,10.268,0,0,0-.259-2.145,5.021,5.021,0,0,1-.295-1.259c0-.11.148-.148.221-.148,1.7,0,3.367,2.96,3.367,3.959m18.058.852a9.209,9.209,0,0,1,3.293,7.067c0,.7-.074,2.443-1.85,2.443-1.813,0-1.813-2-1.813-2.48,0-3.071,0-4.625-1.962-6.587-.3-.3-1.775-1.442-1.775-1.665,0-.11.148-.184.333-.184a7.194,7.194,0,0,1,3.774,1.406" transform="translate(1)" fill="#fff"/>
        <path id="パス_130406" data-name="パス 130406" d="M264.168,3.737a40.226,40.226,0,0,0,5.365,16.947c.629,1,4.811,7.771,10.508,9.251.111.037.371.111.371.259,0,.185-.111.185-1.295.444a7.357,7.357,0,0,0-2.553,1.11c-.7.518-.814.63-.925.63-.149,0-4.848-2.924-8.438-10.769A39.982,39.982,0,0,1,263.649,7.29c-.037-.407-.037-.445-.184-.445-.223,0-.223.149-.371,1.481-.111,1.183-1.072,9.806-4.737,15.837a20.446,20.446,0,0,1-10.767,8.806c-.11,0-.222-.037-.222-.185,0-.11.185-.259.482-.443a27.454,27.454,0,0,0,8.769-9.51c4.219-8.031,4.219-18.613,4.219-19.02a10.081,10.081,0,0,0-.149-2.257,5.269,5.269,0,0,1-.148-.74.317.317,0,0,1,.3-.3c.221,0,1.812.518,2.145.592,1.777.481,2.517.7,2.517,1.369,0,.407-.3.518-.629.592-.3.037-.481.074-.593.222a.718.718,0,0,0-.11.444" transform="translate(3)" fill="#fff"/>
        <path id="パス_130407" data-name="パス 130407" d="M301.33,6.217c0,.111.075.258.075.407a28.36,28.36,0,0,1,.369,4c0,2.478-.555,5.92-3.811,10.842-2.96,4.513-4.847,5.4-6.327,5.4-2.442,0-4.626-3.811-4.626-8.326A13.041,13.041,0,0,1,291.117,9.1a15.315,15.315,0,0,1,11.8-4.809,12.071,12.071,0,0,1,5.957,1.183,11.6,11.6,0,0,1,6.438,10.768,13.8,13.8,0,0,1-9.325,13.025,22.754,22.754,0,0,1-6.142,1.37c-.147,0-.369-.038-.369-.26,0-.111.074-.148,1-.518,3.849-1.517,11.879-4.7,11.879-13.913,0-1.443-.149-10.25-10.25-10.25-.74,0-.778.3-.778.519M289.3,17.576c0,2.405.962,5.7,3.219,5.7,1.073,0,1.961-.443,4.513-4.292a21.146,21.146,0,0,0,3.627-10.767c0-2.22-.148-2.406-.629-2.406-3.515,0-10.73,4.774-10.73,11.767" transform="translate(3)" fill="#fff"/>
      </g>
      <g id="グループ_31365" data-name="グループ 31365" transform="translate(-2 3)">
        <path id="パス_130408" data-name="パス 130408" d="M13.852,60.453c1.492.919,1.645,1.071,1.645,1.416,0,.231-.421,1.3-.46,1.532-.152.689-.229,1.492-.229,6.773,0,1.033.038,3.1.114,4.593.038.458.269,2.679.269,3.176,0,.382,0,1.684-.919,1.684-1.069,0-2.371-1.646-2.371-2.68,0-.383.383-2.066.421-2.449.23-2.066.384-5.013.384-7.042,0-1.378,0-5.394-.995-5.394-.193,0-.344.152-.652.459C7.308,66.117.88,69.829.19,69.829c-.115,0-.191-.077-.191-.23a.347.347,0,0,1,.115-.268c1-.88,2.066-1.76,2.68-2.3C11.825,59.306,14.808,52.8,14.808,51.728a2.17,2.17,0,0,0-.306-1.071,4.191,4.191,0,0,1-.268-.611.379.379,0,0,1,.383-.306c.574,0,4.44,1.607,4.44,3.061a.962.962,0,0,1-.344.765c-1.034.842-1.187,1.071-2.6,3.138-.651.919-1.875,2.3-2.6,3.214a.617.617,0,0,0,.344.536" transform="translate(5 0.025)" fill="#fff"/>
        <path id="パス_130409" data-name="パス 130409" d="M43.192,71.789a26.729,26.729,0,0,0-3.751,3.138c-.727.88-.8.957-1.378.957-2.066,0-4.9-2.449-4.9-3.981,0-.268.038-2.028.383-2.028A9.608,9.608,0,0,1,34.7,70.6a6.329,6.329,0,0,0,2.6.881c1.875,0,12.016-6.774,18.369-13.049.611-.612,1.684-1.684,1.76-1.684a.245.245,0,0,1,.19.19c0,.344-4.477,7.5-14.426,14.849M40.054,59.2c-1.032,0-1.416-.612-2.679-2.525a8.623,8.623,0,0,0-3.482-3.139c-.153-.077-.344-.19-.344-.344s.306-.344.841-.344c4.1,0,7.311,2.182,7.311,4.439A1.691,1.691,0,0,1,40.054,59.2" transform="translate(6.134 0.132)" fill="#fff"/>
        <path id="パス_130410" data-name="パス 130410" d="M64.928,78.134C72.773,73.7,78.016,67.457,78.016,66.271s-4.554-4.1-5.51-4.1c-.879,0-5.511,5.014-6.774,5.014a.178.178,0,0,1-.19-.191,12.556,12.556,0,0,1,1.378-1.645c4.554-4.937,7.691-10.333,7.691-12.514,0-.306-.612-1.53-.612-1.8,0-.23.5-.23.727-.23,2.029,0,3.445,1.492,3.445,2.259,0,.229-.421,1.262-.421,1.491,0,.575.8.651,1.3.651a23.43,23.43,0,0,0,5.741-.918,9.178,9.178,0,0,1,1.416-.842c.382,0,3.138,1.722,3.138,2.946,0,.574-.267.689-.956.995-.575.268-.727.46-1.876,2.259-.536.841-3.138,4.477-3.6,5.242-.344.536-.422.65-.422.957,0,.344.039.421.728,1.3.918,1.186,1.607,2.028,1.607,3.368a1.647,1.647,0,0,1-1.646,1.836c-.8,0-.956-.268-2.41-2.717-.077-.152-.5-.879-.88-.879-.344,0-.574.267-1.339,1.071a33.043,33.043,0,0,1-14.121,9.222c-.078,0-.422,0-.344-.344.038-.153.114-.153.841-.574m19.479-21.2c0-.42-.383-.536-.65-.536-.575,0-3.941.5-4.63.5a3.445,3.445,0,0,1-1.148-.154,2.576,2.576,0,0,0-.918-.153.6.6,0,0,0-.46.153c-.037,0-3.253,3.828-3.253,4.287,0,.536.345.65,1.3,1.033a42.4,42.4,0,0,1,4.21,1.952,2.137,2.137,0,0,0,.879.267c.843-.152,4.669-6.045,4.669-7.347" transform="translate(7.19 0.062)" fill="#fff"/>
        <path id="パス_130411" data-name="パス 130411" d="M124.285,62.172c.231,0,.651-.038.842-.038,2.335,0,2.679,1.416,2.679,1.685,0,1.071-1.568,1.185-3.175,1.185-.881,0-4.708-.077-5.473-.077-5.281,0-14.044.5-14.963.69-.459.075-2.525.689-2.985.689-1.645,0-3.406-2.373-3.406-3.674,0-.229.115-.459.305-.459s1.111.421,1.3.459a20.773,20.773,0,0,0,4.668.344c1.263,0,14.618-.5,20.2-.8" transform="translate(8.343 0.449)" fill="#fff"/>
        <path id="パス_130412" data-name="パス 130412" d="M147.007,71.789a26.79,26.79,0,0,0-3.751,3.138c-.726.88-.8.957-1.378.957-2.066,0-4.9-2.449-4.9-3.981,0-.268.038-2.028.384-2.028a9.6,9.6,0,0,1,1.147.727,6.339,6.339,0,0,0,2.6.881c1.875,0,12.015-6.774,18.368-13.049.611-.612,1.685-1.684,1.761-1.684a.244.244,0,0,1,.189.19c0,.344-4.476,7.5-14.426,14.849M143.87,59.2c-1.033,0-1.416-.612-2.68-2.525a8.617,8.617,0,0,0-3.482-3.139c-.152-.077-.343-.19-.343-.344s.305-.344.841-.344c4.1,0,7.31,2.182,7.31,4.439A1.69,1.69,0,0,1,143.87,59.2" transform="translate(9.682 0.132)" fill="#fff"/>
        <path id="パス_130413" data-name="パス 130413" d="M178.572,63.265c0,.766-.575,1.914-1.493,1.914-.573,0-.765-.231-1.339-1.187a9.283,9.283,0,0,0-3.482-3.176c-.115-.077-.345-.23-.345-.383,0-.536,2.181-.574,2.68-.574,1.645,0,3.981,1.532,3.981,3.406m-4.708,11.863c-.115-.191-.8-.995-.918-1.186a1.625,1.625,0,0,1-.231-.727c0-.153.116-.267.345-.267.343,0,1.8.5,2.106.5,1.643,0,11.939-5.74,21.084-16.111a18.24,18.24,0,0,1,1.645-1.722.141.141,0,0,1,.154.153c0,.421-3.367,8.611-19.211,19.707-.459.306-2.295,2.029-2.793,2.029-.842,0-1.224-.613-2.181-2.373m9.3-19.478c0,.88-.612,1.722-1.224,1.722-.421,0-.611-.153-1.989-1.8a6.667,6.667,0,0,0-3.292-2.028c-.152-.038-.575-.154-.575-.268a4.56,4.56,0,0,1,2.947-.727c4.133,0,4.133,2.985,4.133,3.1" transform="translate(10.876 0.121)" fill="#fff"/>
        <path id="パス_130414" data-name="パス 130414" d="M213.036,67.337a1.393,1.393,0,0,1-1.3,1.454c-.841,0-1.11-.88-1.378-1.722a13.706,13.706,0,0,0-2.218-3.865c-.192-.268-.269-.383-.269-.5,0-.23.23-.344.5-.344.919,0,4.67,1.913,4.67,4.974m11.824-7.884a2.4,2.4,0,0,1-.077-.344.261.261,0,0,1,.268-.268,8.564,8.564,0,0,1,1.722.957c.612.307,2.143,1.226,2.143,2.335,0,.306-.153.344-.8.727a31.2,31.2,0,0,0-1.951,3.291,33.5,33.5,0,0,1-15.575,13.508.246.246,0,0,1-.23-.23,16.343,16.343,0,0,1,2.143-1.607c8.151-6.237,12.628-13.432,12.628-16.723a3.885,3.885,0,0,0-.268-1.646m-5.97,3.713c0,1.11-.612,1.952-1.3,1.952-.841,0-1.032-.957-1.147-1.607a12.061,12.061,0,0,0-1.416-3.636,4.265,4.265,0,0,1-.422-.841c0-.115.191-.231.384-.192a4.85,4.85,0,0,1,3.9,4.325" transform="translate(12.106 0.336)" fill="#fff"/>
        <path id="パス_130415" data-name="パス 130415" d="M239.946,55.2a9.014,9.014,0,0,0,3.177.8c1.569,0,12.78-1.072,14.426-1.8,1.187-.535,1.339-.612,1.608-.612.841,0,1.454.537,2.64,1.57,1.722,1.531,1.951,1.951,1.951,2.487,0,.5-.19.689-.879,1.378a6.332,6.332,0,0,0-1.492,2.411c-6.009,12.475-19.364,17.833-19.746,17.833a.256.256,0,0,1-.269-.231c0-.153.115-.23.5-.5,6.659-4.668,12.054-9.719,15.117-15.154a21.633,21.633,0,0,0,2.6-6.467c0-.651-.65-.689-.841-.689-.383,0-11.442,1.837-13.777,2.755a13.81,13.81,0,0,1-1.912.842c-.881,0-3.942-1.913-3.942-4.018,0-.727.115-.842.344-.842.078,0,.422.23.5.23m30.805-2.564a3.693,3.693,0,1,1-7.385,0A3.637,3.637,0,0,1,267.116,49a3.562,3.562,0,0,1,3.635,3.636m-6.122.115a2.433,2.433,0,0,0,4.86-.038,2.559,2.559,0,0,0-2.449-2.411,2.462,2.462,0,0,0-2.411,2.449" transform="translate(13.173)" fill="#fff"/>
      </g>
    </g>
  </g>
</svg>
