<svg xmlns="http://www.w3.org/2000/svg" width="91.94" height="16" viewBox="0 0 91.94 16">
  <g id="グループ_31199" data-name="グループ 31199" transform="translate(-878.56 -620.289)">
    <path id="パス_130461" data-name="パス 130461" d="M13.856-5.536c.544,0,.864,0,.864-.224a3.426,3.426,0,0,0-1.136-1.008c-.144,0-.5.592-.592.688-.112.112-.176.112-.848.112H10.8c-.176,0-.512,0-.512-.432,0-.576.08-.672.224-.784.272-.24.3-.272.3-.368,0-.16-.064-.192-.736-.48a2.034,2.034,0,0,0-.72-.176c-.128,0-.16.032-.16.144,0,.1.08.544.08.64.048.416.08.9.08,1.008,0,.448-.3.448-.528.448H8.448c-.9,0-1.728-.032-2.192-.048-.112,0-.592-.064-.7-.064a.051.051,0,0,0-.048.048c0,.016,0,.016.064.1l.3.368c.064.08.1.112.144.112A2.123,2.123,0,0,0,6.352-5.5c.336-.016,1.36-.048,1.728-.048.192,0,.5,0,.5.288A12.9,12.9,0,0,1,6.768-2.576c-.32.4-2.256,2.288-2.256,2.336a.034.034,0,0,0,.032.032A7.143,7.143,0,0,0,7.1-1.952c.7-.672,1.216-1.264,1.808-1.936a.288.288,0,0,1,.24-.144c.112,0,.176.064.176.112,0,.7-.16,3.856-.16,4.5,0,.3.1.624.416.624.768,0,.768-.72.768-.96,0-.608-.08-3.28-.08-3.824,0-.864,0-.912.128-.912.112,0,.128.048.224.3A10.09,10.09,0,0,0,13.632.032c.1,0,.432-.352.5-.4A1.831,1.831,0,0,1,15.184-.64c.08-.016.256-.032.256-.144,0-.064-.128-.128-.352-.256a10.846,10.846,0,0,1-3.84-3.216,5.238,5.238,0,0,1-.672-1.008c0-.176.144-.272.336-.272Zm-4.032-5.9c0-.176.224-.208.432-.24.384-.064,2.72-.432,2.944-.432.3,0,.56-.032.56-.272,0-.192-.24-.3-.4-.4-.1-.048-1.024-.528-1.056-.528a6.108,6.108,0,0,0-.88.5A22.3,22.3,0,0,1,7.056-11.7c-.608.112-.688.128-.688.192,0,.08.064.08.592.08.3,0,1.824-.112,2.176-.112a.4.4,0,0,1,.4.224A4.532,4.532,0,0,1,9.888-9.76c.048.656.08.912.464.912a.727.727,0,0,0,.64-.752c0-.64-.72-1.312-.9-1.488C9.936-11.232,9.824-11.344,9.824-11.44ZM5.376-9.584c.528,0,.848,0,.848-.224,0-.16-.688-.88-.9-.88-.176,0-.208.08-.4.384a.427.427,0,0,1-.432.272c-.352,0-.352-.336-.352-.528a6.626,6.626,0,0,1,.128-1.632c.048-.08.368-.384.368-.48,0-.176-.1-.224-.512-.368-.16-.064-.976-.352-1.056-.352-.112,0-.192.048-.192.128a2.487,2.487,0,0,0,.128.368,20.336,20.336,0,0,1,.1,2.448.4.4,0,0,1-.432.432c-.32,0-1.7-.112-1.968-.112-.032,0-.064.016-.064.048,0,.016,0,.016.064.1l.32.368c.048.064.08.112.144.112.032,0,.192-.032.224-.032.272-.032.928-.048,1.232-.048.384,0,.5.128.5.5,0,2.24,0,2.5-.128,2.7-.128.192-.192.208-.592.352a6.112,6.112,0,0,1-1.5.4c-.128,0-.336,0-.336.1,0,.16.144.4.5,1.024.192.32.224.384.368.384.112,0,.448-.432.544-.5a3.881,3.881,0,0,1,.848-.4c.32,0,.32.16.32,1.424,0,.336,0,2.8-.016,2.912-.032.352-.3.432-.7.432-.112,0-.592-.016-.688-.016s-.3,0-.3.1c0,.112.512.432.576.512.08.1.336.576.416.656a.458.458,0,0,0,.368.192,1.738,1.738,0,0,0,1.1-.608,1.868,1.868,0,0,0,.3-1.232c0-.432-.064-2.384-.064-2.768C4.112-4,4.112-4.576,4.112-5.136c0-.64.128-.72,1.04-1.248,1.168-.688,1.6-.912,1.6-1.072,0-.048-.064-.048-.1-.048-.192,0-2.016.784-2.272.784-.24,0-.256-.176-.256-.384V-9.12c0-.464.256-.464.576-.464ZM14.1-11.3a4.366,4.366,0,0,0-.64-.352c-.016,0-.048.256-.064.288a6.751,6.751,0,0,1-.768,1.728c-.128.24-.944,1.472-.944,1.552,0,.016.016.032.048.032.416,0,2.5-2.24,2.752-2.368.336-.176.368-.192.368-.288C14.848-10.816,14.768-10.864,14.1-11.3ZM8.112-9.2c-.064-.5-.288-.912-1.152-1.648-.336-.288-.384-.288-.464-.288-.016,0-.048,0-.048.048s.016.08.192.48a2.822,2.822,0,0,1,.224,1.136c.048.832.064,1.264.56,1.264A.81.81,0,0,0,8.112-9.2ZM23.728-4.32c.384,0,.5.16.5.512,0,.672-.1,3.616-.1,4.208,0,.208.016.416.336.416a1.205,1.205,0,0,0,.752-.288c.112-.112.16-.224.16-.528,0-1.232,0-2.544-.016-3.7-.016-.464.064-.624.5-.624H29.1c.176,0,.416,0,.48.288.032.128.032,1.248.032,1.456,0,2.032-.016,2.208-.64,2.208-.224,0-1.232-.08-1.44-.08-.08,0-.192.032-.192.1,0,.1.24.144.288.16.144.032,1.12.368,1.344.944.112.32.128.352.272.352,1.488,0,1.488-1.776,1.488-2.48,0-1.36-.1-7.264-.1-8.576,0-1.52.048-1.536.416-1.728.128-.064.256-.16.256-.3,0-.256-1.168-.912-1.3-.912-.112,0-.128.032-.4.32a.637.637,0,0,1-.56.192H21.232a2.234,2.234,0,0,1-1.264-.368,3.155,3.155,0,0,0-.8-.272c-.1,0-.112.032-.112.128,0,.032.112.944.128,1.12.112,1.184.144,3.808.144,5.072,0,3.984-.272,5.392-.928,6.752-.064.128-.448.752-.448.768a.09.09,0,0,0,.1.08,6.24,6.24,0,0,0,2.288-4.512c.064-.576.064-.7.528-.7ZM20.88-8.736c-.48,0-.5,0-.5-1.824,0-1.328,0-1.392.48-1.392h2.912c.48,0,.48.048.48,1.6,0,1.616,0,1.616-.48,1.616Zm-.016,3.984c-.464,0-.464-.3-.464-.56,0-.368,0-2.624.016-2.7.064-.256.272-.288.448-.288h2.912c.48,0,.48.064.48,1.488a17.53,17.53,0,0,1-.064,1.872.41.41,0,0,1-.416.192ZM29.072-8.3c.5,0,.512.032.512,2.384,0,1.056,0,1.168-.48,1.168H25.84c-.112,0-.352,0-.432-.208a16.191,16.191,0,0,1-.064-1.824c0-1.472,0-1.52.5-1.52Zm-.08-3.648c.512,0,.528,0,.528,2.128,0,.912,0,1.088-.5,1.088H25.84c-.5,0-.5-.272-.5-.608,0-.384,0-2.224.016-2.32.064-.256.272-.288.48-.288ZM45.7-1.808c.144,0,.464,0,.464.384,0,1.264-.016,1.264-.192,1.36a3.134,3.134,0,0,1-.96.24c-.08,0-.192.032-.192.1s.368.192.432.224a1.784,1.784,0,0,1,.56.512c.048.08.1.144.176.144.24,0,1.28-.464,1.28-1.344,0-.528-.1-2.848-.1-3.312a14.21,14.21,0,0,1,.064-1.728c.016-.016.16-.176.256-.272a.34.34,0,0,0,.112-.24c0-.16-.064-.208-.336-.368-.56-.3-.624-.336-.736-.336-.128,0-.176.032-.384.272a.589.589,0,0,1-.48.176H42.128a1.662,1.662,0,0,1-.544-.08c-.144-.016-.784-.288-.928-.288-.112,0-.128.048-.128.176,0,.256.048,1.36.048,1.6,0,1.344-.016,2.832-.08,4.176,0,.176-.08.96-.08,1.12,0,.368.064.432.336.432a.749.749,0,0,0,.8-.832c0-.224,0-1.76.016-1.824.064-.256.256-.288.464-.288Zm0-3.76c.448,0,.448.208.448,1.024,0,.384-.336.384-.448.384h-3.68c-.416,0-.416-.288-.416-.672,0-.464,0-.736.448-.736Zm.016,1.824c.448,0,.448.176.448.96,0,.3,0,.544-.464.544H42.032c-.464,0-.464-.24-.464-.512,0-.7,0-.992.416-.992ZM35.632-9.632c-.048,0-.1.08-.112.24a3.359,3.359,0,0,1-.656,1.824c-.464.544-.544.624-.544.9a.536.536,0,0,0,.544.528c.672,0,1.056-.976,1.056-2.064C35.92-8.608,35.824-9.632,35.632-9.632Zm2.528-3.2c-.016-.112-.1-.192-.352-.24-.16-.032-1.12-.208-1.184-.208s-.064.064-.064.144c0,.016.016.32.032.48.08,1.3.1,1.52.1,2.576,0,2-.112,6.32-.176,8.64,0,.32-.1,1.872-.1,2.24,0,.272.112.4.288.4s.848-.176.9-.592v-6.08c0-.784.112-5.744.128-6.432a.7.7,0,0,1,.224-.56A.468.468,0,0,0,38.16-12.832Zm3.9,5.12c-.912,0-1.744-.032-2.208-.064-.112,0-.592-.048-.7-.048-.016,0-.048,0-.048.032s0,.032.064.112l.3.368c.064.064.1.1.144.1.064,0,.288-.032.336-.032C40.512-7.3,41.6-7.3,41.984-7.3h6.064c.544,0,.864,0,.864-.208a2.758,2.758,0,0,0-1.152-.96c-.16,0-.192.048-.512.48-.192.272-.272.272-1.024.272H44.736c-.464,0-.464-.24-.464-.7,0-.608,0-.848.464-.848h2.528c.528,0,.864,0,.864-.208,0-.288-1.12-.928-1.28-.928-.128,0-.48.512-.576.592-.128.128-.208.128-.88.128h-.656c-.464,0-.464-.288-.464-.64,0-.736,0-.944.48-.944h2.64c.528,0,.848,0,.848-.208,0-.224-.928-.912-1.056-.912s-.448.512-.528.576c-.144.128-.224.128-.9.128h-.992c-.144,0-.48,0-.48-.4a1,1,0,0,1,.128-.448,2.083,2.083,0,0,0,.288-.4c0-.176-.176-.224-.272-.24a5.886,5.886,0,0,0-1.168-.192c-.064,0-.064.032-.064.08,0,.08.08.48.08.56,0,.9,0,1.04-.464,1.04h-.544c-.912,0-1.744-.032-2.208-.064-.112,0-.592-.048-.7-.048-.016,0-.048,0-.048.032s0,.032.064.112l.3.368c.064.064.1.1.144.1.064,0,.288-.032.336-.032.56-.048,1.648-.048,2.032-.048H42.8c.16,0,.5,0,.5.4,0,.944,0,1.184-.4,1.184-.3,0-1.968-.048-2.08-.064-.1,0-.5-.048-.576-.048-.016,0-.064,0-.064.032s.016.048.08.112l.3.368c.048.064.08.1.144.1.048,0,.288-.032.336-.032.416-.032,1.52-.048,1.632-.048.416,0,.576.064.576.448,0,.992,0,1.1-.48,1.1ZM38.192-10.3c-.112-.032-.176.016-.176.1a.537.537,0,0,0,.064.224,3.026,3.026,0,0,1,.3.88c.16,1.04.176,1.152.56,1.152.352,0,.64-.32.64-.832C39.584-9.584,38.432-10.256,38.192-10.3ZM60.736-6.656c-.272,0-.56,0-.56-.464,0-.176.016-3.952.032-4.256.016-.432.256-.448.592-.448h2.32c.592,0,.624.08.624.816,0,.7,0,1.376-.032,1.648-.048.464-.16.464-1.184.464-.064,0-.224,0-.224.048,0,.064.528.5.72.7a5.532,5.532,0,0,0,.352.5.317.317,0,0,0,.208.1,1.885,1.885,0,0,0,.928-.656c.256-.368.256-.72.256-2.112,0-.592,0-.992.176-1.12.288-.208.32-.24.32-.368a1.835,1.835,0,0,0-1.12-1.136c-.112,0-.16.048-.56.512-.144.16-.176.176-.368.176H60.64a1.076,1.076,0,0,1-.64-.16,2.981,2.981,0,0,0-.88-.3c-.048,0-.048.064-.048.112,0,.128.048.736.064.864.032,1.056.032,4.912.032,6.24,0,1.472-.064,4.208-.128,5.52-.016.176-.016.5-.016.608,0,.368.08.608.384.608A.77.77,0,0,0,60.192.5c.016-.688.08-.72.624-1.072A15.368,15.368,0,0,0,62.064-1.5c.064-.048.16-.144.24-.144.1,0,.16.08.3.256A7.913,7.913,0,0,0,64.224.192,3.227,3.227,0,0,0,64.8-.1a2.458,2.458,0,0,1,1.056-.24c.032,0,.128-.016.128-.1,0-.048-.048-.08-.512-.288A5.429,5.429,0,0,1,63.1-2.544c0-.1.528-.992.624-1.184a16.646,16.646,0,0,1,.9-1.776c.064-.048.4-.224.464-.256a.294.294,0,0,0,.128-.224c0-.3-.96-.864-1.04-.864a2.611,2.611,0,0,0-.3.144.747.747,0,0,1-.272.048Zm2.24.416c.336,0,.544,0,.544.288,0,.448-.768,2.7-1.056,2.7-.3,0-1.392-1.984-1.392-2.816,0-.112.064-.176.224-.176ZM60.128-3.7c0-.672,0-1.344.016-2.016,0-.336.08-.528.512-.528.08,0,.144.048.16.176a6.611,6.611,0,0,0,.3,1.84c.1.3.784,1.792.784,1.9A4.79,4.79,0,0,1,60.336-.688a.159.159,0,0,1-.176-.16V-1.7C60.16-1.984,60.128-3.376,60.128-3.7ZM58.048-8.64c.544,0,.864,0,.864-.224s-1.1-1.024-1.28-1.024c-.16,0-.672.7-.832.768-.1.048-.208.064-.912.064-.336,0-.448-.064-.448-.416v-.912c0-.416.192-.416.544-.416H57.3c.528,0,.848,0,.848-.224a2.3,2.3,0,0,0-1.12-.96c-.16,0-.192.048-.544.5a.627.627,0,0,1-.624.256c-.288,0-.416-.1-.416-.4a1.894,1.894,0,0,1,.08-.688,2.491,2.491,0,0,0,.256-.448c0-.3-1.344-.576-1.424-.576-.048,0-.048.016-.048.064,0,.176.128,1.376.128,1.616,0,.272-.064.432-.4.432-.208,0-1.376-.064-1.5-.064-.08,0-.5-.032-.576-.032-.048,0-.064,0-.064.032,0,.016.016.032.064.1l.32.368c.048.08.08.112.144.112.032,0,.192-.032.224-.032.352-.048,1.12-.048,1.408-.048.336,0,.4.16.4.448v.864c0,.432-.1.432-.848.432-.3,0-1.536-.048-1.776-.064-.112,0-.624-.048-.736-.048-.032,0-.048,0-.048.032s0,.032.064.112l.3.368c.064.064.1.1.144.1s.288-.032.336-.032c.56-.048,1.664-.048,2.032-.048ZM54.176-6.368a1.586,1.586,0,0,0-.736-1.44,2.653,2.653,0,0,0-.672-.416c-.048,0-.08.016-.08.048A1.55,1.55,0,0,0,52.736-8a5.011,5.011,0,0,1,.352,1.36c.08.72.1.944.48.944S54.176-6.144,54.176-6.368ZM51.648-5.024c.048.08.08.112.144.112.048,0,.288-.032.336-.032.288-.032,1.056-.048,1.36-.048.72,0,.88,0,.88.416,0,1.472,0,1.536-.416,1.536-.32,0-1.84-.112-2.192-.112-.032,0-.048,0-.048.032s.032.064.064.112l.3.368c.064.064.1.1.144.1s.272-.032.32-.032c.368-.032.912-.048,1.28-.048.272,0,.512.064.512.48,0,.352-.1,2.56-.1,2.9,0,.208.032.432.336.432a.893.893,0,0,0,.88-.976c0-.32-.048-1.984-.048-2.352,0-.48.3-.48.592-.48h1.7c.512,0,.864,0,.864-.208,0-.144-.832-1.072-1.136-1.072-.128,0-.176.048-.528.592-.176.272-.32.272-.9.272-.384,0-.544,0-.592-.272V-4.544c0-.4.144-.448.48-.448h1.968c.768,0,.848,0,.848-.208,0-.24-.88-.992-1.12-.992-.128,0-.16.048-.5.512-.192.272-.272.272-1.056.272a.151.151,0,0,1-.16-.16,4.578,4.578,0,0,1,1.216-1.76c.24-.192.288-.224.288-.336,0-.416-1.152-.816-1.2-.816-.064,0-.1.016-.112.112-.032.192-.1,1.12-.128,1.328-.256,1.632-.384,1.632-.848,1.632H53.856c-.432,0-1.344-.048-1.808-.064-.1,0-.608-.048-.72-.048-.032,0-.064,0-.064.032,0,.016.016.032.08.112Z" transform="translate(878 634.289)" fill="#fff"/>
    <g id="グループ_31170" data-name="グループ 31170" transform="translate(-61)">
      <path id="パス_130325" data-name="パス 130325" d="M0,0V16H16V8H14.28v6.281H1.719V1.719H8V0Z" transform="translate(1015.5 620.289)" fill="#fff"/>
      <path id="パス_130326" data-name="パス 130326" d="M59.689,0V2.082h3.085L55.9,8.955l1.472,1.472,6.872-6.873V6.64h2.082V0Z" transform="translate(965.172 620.289)" fill="#fff"/>
    </g>
  </g>
</svg>
