<svg xmlns="http://www.w3.org/2000/svg" width="215.746" height="46.954" viewBox="0 0 215.746 46.954">
  <g id="グループ_31215" data-name="グループ 31215" transform="translate(-0.225 -2.207)">
    <path id="パス_130452" data-name="パス 130452" d="M4.061-20.119l-.217.868c2.449.248,2.6.434,2.139,2.883L3.5-3.875C2.976-1.271,2.759-1.116.4-.868L.186,0H8.649l.186-.868C6.014-1.116,5.8-1.3,6.293-3.875l.93-4.867,2.108.651c.341,0,.744,0,1.147-.031,3.5-.248,7.409-2.387,7.409-6.758,0-3.534-2.387-5.239-6.665-5.239ZM8.866-17.36c.186-.992.4-1.333.744-1.488a2.942,2.942,0,0,1,1.3-.248c2.542,0,3.937,1.488,3.937,4.061A5.285,5.285,0,0,1,9.641-9.362a5.982,5.982,0,0,1-2.2-.4ZM35.929-.558a3.732,3.732,0,0,1-2.046-1.457A23.165,23.165,0,0,1,31.961-5.3c-.713-1.426-1.519-3.348-1.829-4.154,2.511-.868,4.836-2.759,4.836-5.89a4.272,4.272,0,0,0-1.922-3.813,8.221,8.221,0,0,0-4.464-.961H21.638l-.186.868c2.449.217,2.573.341,2.108,2.852L21.142-3.937c-.527,2.666-.713,2.821-3.069,3.069L17.856,0h8.029l.186-.868c-2.449-.217-2.666-.4-2.139-3.1L24.8-8.8h1.209c1.085,0,1.488.279,1.953,1.426.651,1.581,1.3,3.131,2.077,4.588C31.124-.744,32.147.124,35.309.248h.372ZM25.017-9.827l1.457-7.595c.155-.806.31-1.178.558-1.364A2.275,2.275,0,0,1,28.4-19.1c2.139,0,3.5,1.333,3.5,4A5.365,5.365,0,0,1,29.6-10.6a5.708,5.708,0,0,1-3.255.775ZM50.065-20.615c-6.51,0-11.315,5.8-11.315,12.276,0,5.27,3.379,8.8,8.277,8.8,6.634,0,11.346-5.58,11.346-12.183C58.373-16.926,55.056-20.615,50.065-20.615ZM49.848-19.5c3.844,0,5.27,3.286,5.27,7.378,0,5.146-2.883,11.47-7.843,11.47-3.658,0-5.3-3.193-5.3-7.316C41.974-13.485,45.167-19.5,49.848-19.5Zm30.473,4.743c.124-2.139.279-3.937.372-4.9a17.328,17.328,0,0,0-5.518-.961C67.456-20.615,62-15.531,62-8.4,62-2.728,65.844.465,71.3.465A27.023,27.023,0,0,0,77.872-.713a7.581,7.581,0,0,1,.155-2.418l.5-2.542c.434-2.325.589-2.449,2.294-2.7l.217-.837H73.16l-.217.837c3.069.31,3.224.4,2.79,2.7l-.589,2.852c-.341,1.674-1.55,2.17-3.317,2.17-4.185,0-6.51-3.317-6.51-7.936,0-5.828,3.627-10.912,9.114-10.912,3.069,0,4.867,1.271,4.929,4.836ZM100.1-.558a3.732,3.732,0,0,1-2.046-1.457A23.165,23.165,0,0,1,96.131-5.3c-.713-1.426-1.519-3.348-1.829-4.154,2.511-.868,4.836-2.759,4.836-5.89a4.272,4.272,0,0,0-1.922-3.813,8.221,8.221,0,0,0-4.464-.961H85.808l-.186.868c2.449.217,2.573.341,2.108,2.852L85.312-3.937c-.527,2.666-.713,2.821-3.069,3.069L82.026,0h8.029l.186-.868c-2.449-.217-2.666-.4-2.139-3.1L88.97-8.8h1.209c1.085,0,1.488.279,1.953,1.426.651,1.581,1.3,3.131,2.077,4.588C95.294-.744,96.317.124,99.479.248h.372ZM89.187-9.827l1.457-7.595c.155-.806.31-1.178.558-1.364a2.275,2.275,0,0,1,1.364-.31c2.139,0,3.5,1.333,3.5,4A5.365,5.365,0,0,1,93.775-10.6a5.708,5.708,0,0,1-3.255.775ZM120.931-.868c-2.17-.248-2.356-.5-2.759-2.821-.682-3.782-1.364-7.719-2.015-11.749l-.806-5.146-1.085.279L105.028-3.968c-1.488,2.666-1.829,2.821-3.72,3.1L101.06,0h6.727L108-.868c-2.387-.217-2.573-.465-1.705-2.232.651-1.395,1.519-3.069,2.077-4.092h6.386c.279,1.7.527,3.131.713,4.4.186,1.364.062,1.705-2.046,1.922L113.181,0h7.533Zm-6.386-7.688h-5.487c1.333-2.573,2.759-5.084,4.216-7.812h.062Zm36.549-11.563h-5.208L136.493-4.991c-1.209-5.394-2.232-10.168-3.255-15.128h-5.363l-.248.868c2.883.248,3.069.527,2.17,3.534L128-9.548c-1.116,3.751-1.674,5.518-2.17,6.758-.527,1.333-1.147,1.767-2.883,1.922L122.729,0h7.006l.186-.868c-2.232-.217-2.542-.589-2.325-1.953a57.371,57.371,0,0,1,1.426-5.921l2.232-8.06h.093c1.116,5.921,2.108,11.16,3.069,16.678h.744l10.075-16.957h.093c-.651,4.278-1.333,8.308-2.015,12.865-.465,2.945-.62,3.1-2.945,3.348L140.151,0h8.029l.186-.868c-2.449-.248-2.635-.341-2.263-3.348.527-4.061.992-7.688,1.674-12.183.372-2.511.465-2.635,3.1-2.852Z" transform="translate(0.104 22.872)" fill="#fff" stroke="#fff" stroke-width="0.1"/>
    <path id="パス_130458" data-name="パス 130458" d="M8.384-7.9c.3-.384.816-.96,1.088-1.344A4.57,4.57,0,0,1,10.56-10.56a.4.4,0,0,0,.144-.32c0-.608-1.616-1.28-1.856-1.28a.158.158,0,0,0-.16.128,1.778,1.778,0,0,0,.112.256.905.905,0,0,1,.128.448c0,.448-1.248,3.168-5.024,6.4-.256.224-.7.592-1.12.96a.145.145,0,0,0-.048.112c0,.064.032.1.08.1A17.574,17.574,0,0,0,7.36-6.816c.128-.128.192-.192.272-.192.416,0,.416,1.68.416,2.256,0,.848-.064,2.08-.16,2.944-.016.16-.176.864-.176,1.024,0,.432.544,1.12.992,1.12.384,0,.384-.544.384-.7,0-.208-.1-1.136-.112-1.328-.032-.624-.048-1.488-.048-1.92a15.448,15.448,0,0,1,.1-2.832c.016-.1.192-.544.192-.64,0-.144-.064-.208-.688-.592A.258.258,0,0,1,8.384-7.9ZM24.08-8.96c0-.944-1.344-1.856-3.056-1.856-.224,0-.352.08-.352.144s.08.112.144.144a3.6,3.6,0,0,1,1.456,1.312c.528.8.688,1.056,1.12,1.056A.707.707,0,0,0,24.08-8.96ZM30.736-9.1a.1.1,0,0,0-.08-.08c-.032,0-.48.448-.736.7-2.656,2.624-6.9,5.456-7.68,5.456a2.648,2.648,0,0,1-1.088-.368,3.983,3.983,0,0,0-.48-.3c-.144,0-.16.736-.16.848,0,.64,1.184,1.664,2.048,1.664.24,0,.272-.032.576-.4A11.173,11.173,0,0,1,24.7-2.9C28.864-5.968,30.736-8.96,30.736-9.1ZM36.16-.032c-.032.144.112.144.144.144a13.812,13.812,0,0,0,5.9-3.856c.32-.336.416-.448.56-.448.16,0,.336.3.368.368.608,1.024.672,1.136,1.008,1.136a.689.689,0,0,0,.688-.768,2.233,2.233,0,0,0-.672-1.408c-.288-.368-.3-.4-.3-.544,0-.128.032-.176.176-.4.192-.32,1.28-1.84,1.5-2.192.48-.752.544-.832.784-.944.288-.128.4-.176.4-.416,0-.512-1.152-1.232-1.312-1.232a3.838,3.838,0,0,0-.592.352,9.8,9.8,0,0,1-2.4.384c-.208,0-.544-.032-.544-.272,0-.1.176-.528.176-.624a1.428,1.428,0,0,0-1.44-.944c-.1,0-.3,0-.3.1,0,.112.256.624.256.752,0,.912-1.312,3.168-3.216,5.232a5.25,5.25,0,0,0-.576.688.075.075,0,0,0,.08.08c.528,0,2.464-2.1,2.832-2.1.4,0,2.3,1.216,2.3,1.712s-2.192,3.1-5.472,4.96C36.208-.1,36.176-.1,36.16-.032ZM42.7-6.064a.9.9,0,0,1-.368-.112,17.847,17.847,0,0,0-1.76-.816c-.4-.16-.544-.208-.544-.432a13.09,13.09,0,0,1,1.36-1.792.252.252,0,0,1,.192-.064,1.076,1.076,0,0,1,.384.064,1.454,1.454,0,0,0,.48.064c.288,0,1.7-.208,1.936-.208.112,0,.272.048.272.224A8.052,8.052,0,0,1,42.7-6.064Zm12.064-.384a8.713,8.713,0,0,1-1.952-.144c-.08-.016-.464-.192-.544-.192s-.128.1-.128.192c0,.544.736,1.536,1.424,1.536.192,0,1.056-.256,1.248-.288.384-.08,4.048-.288,6.256-.288.32,0,1.92.032,2.288.032.672,0,1.328-.048,1.328-.5,0-.112-.144-.7-1.12-.7-.08,0-.256.016-.352.016C60.88-6.656,55.3-6.448,54.768-6.448ZM74.48-8.96c0-.944-1.344-1.856-3.056-1.856-.224,0-.352.08-.352.144s.08.112.144.144a3.6,3.6,0,0,1,1.456,1.312c.528.8.688,1.056,1.12,1.056A.707.707,0,0,0,74.48-8.96ZM81.136-9.1a.1.1,0,0,0-.08-.08c-.032,0-.48.448-.736.7-2.656,2.624-6.9,5.456-7.68,5.456a2.648,2.648,0,0,1-1.088-.368,3.983,3.983,0,0,0-.48-.3c-.144,0-.16.736-.16.848,0,.64,1.184,1.664,2.048,1.664.24,0,.272-.032.576-.4A11.173,11.173,0,0,1,75.1-2.9C79.264-5.968,81.136-8.96,81.136-9.1ZM88.864-.512c.208,0,.976-.72,1.168-.848C96.656-6,98.064-9.424,98.064-9.6A.059.059,0,0,0,98-9.664a7.626,7.626,0,0,0-.688.72C93.488-4.608,89.184-2.208,88.5-2.208c-.128,0-.736-.208-.88-.208-.1,0-.144.048-.144.112a.679.679,0,0,0,.1.3c.048.08.336.416.384.5C88.352-.768,88.512-.512,88.864-.512Zm-.608-7.376c-.208,0-1.12.016-1.12.24,0,.064.1.128.144.16A3.881,3.881,0,0,1,88.736-6.16c.24.4.32.5.56.5.384,0,.624-.48.624-.8C89.92-7.248,88.944-7.888,88.256-7.888Zm1.856-3.056a1.9,1.9,0,0,0-1.232.3c0,.048.176.1.24.112A2.785,2.785,0,0,1,90.5-9.68c.576.688.656.752.832.752.256,0,.512-.352.512-.72C91.84-9.7,91.84-10.944,90.112-10.944ZM111.728-7.28c0,1.376-1.872,4.384-5.28,6.992a6.833,6.833,0,0,0-.9.672.1.1,0,0,0,.1.1,14.01,14.01,0,0,0,6.512-5.648,13.044,13.044,0,0,1,.816-1.376c.272-.16.336-.176.336-.3,0-.464-.64-.848-.9-.976a3.56,3.56,0,0,0-.72-.4.109.109,0,0,0-.112.112,1.02,1.02,0,0,0,.032.144A1.622,1.622,0,0,1,111.728-7.28Zm-7.008.528c-.112,0-.208.048-.208.144,0,.048.032.1.112.208a5.723,5.723,0,0,1,.928,1.616c.112.352.224.72.576.72a.582.582,0,0,0,.544-.608C106.672-5.952,105.1-6.752,104.72-6.752Zm2.768-1.472c-.08-.016-.16.032-.16.08a1.808,1.808,0,0,0,.176.352,5.022,5.022,0,0,1,.592,1.52c.048.272.128.672.48.672.288,0,.544-.352.544-.816A2.027,2.027,0,0,0,107.488-8.224Zm24.1-4.256a1.52,1.52,0,0,0-1.568,1.52,1.572,1.572,0,0,0,1.552,1.552A1.561,1.561,0,0,0,133.1-10.96,1.489,1.489,0,0,0,131.584-12.48Zm-.032.544a1.07,1.07,0,0,1,1.024,1.008.987.987,0,0,1-.992.976.993.993,0,0,1-1.04-.96A1.029,1.029,0,0,1,131.552-11.936ZM120.016-9.984c-.1,0-.144.048-.144.352,0,.88,1.28,1.68,1.648,1.68a5.8,5.8,0,0,0,.8-.352,52.5,52.5,0,0,1,5.76-1.152c.08,0,.352.016.352.288a9.04,9.04,0,0,1-1.088,2.7,20.824,20.824,0,0,1-6.32,6.336c-.16.112-.208.144-.208.208a.106.106,0,0,0,.112.1,16.282,16.282,0,0,0,8.256-7.456,2.648,2.648,0,0,1,.624-1.008c.288-.288.368-.368.368-.576,0-.224-.1-.4-.816-1.04-.5-.432-.752-.656-1.1-.656-.112,0-.176.032-.672.256a41.425,41.425,0,0,1-6.032.752,3.769,3.769,0,0,1-1.328-.336C120.192-9.888,120.048-9.984,120.016-9.984Zm28.368-2.5a1.52,1.52,0,0,0-1.568,1.52,1.572,1.572,0,0,0,1.552,1.552A1.561,1.561,0,0,0,149.9-10.96,1.489,1.489,0,0,0,148.384-12.48Zm-.032.544a1.07,1.07,0,0,1,1.024,1.008.987.987,0,0,1-.992.976.993.993,0,0,1-1.04-.96A1.029,1.029,0,0,1,148.352-11.936ZM136.816-9.984c-.1,0-.144.048-.144.352,0,.88,1.28,1.68,1.648,1.68a5.8,5.8,0,0,0,.8-.352,52.5,52.5,0,0,1,5.76-1.152c.08,0,.352.016.352.288a9.04,9.04,0,0,1-1.088,2.7,20.824,20.824,0,0,1-6.32,6.336c-.16.112-.208.144-.208.208a.106.106,0,0,0,.112.1,16.281,16.281,0,0,0,8.256-7.456,2.648,2.648,0,0,1,.624-1.008c.288-.288.368-.368.368-.576,0-.224-.1-.4-.816-1.04-.5-.432-.752-.656-1.1-.656-.112,0-.176.032-.672.256a41.425,41.425,0,0,1-6.032.752,3.769,3.769,0,0,1-1.328-.336C136.992-9.888,136.848-9.984,136.816-9.984Zm20.192,1.136c-.384,0-.4-.016-.816-.368a1.6,1.6,0,0,0-1.1-.368c-.224,0-.672.24-.672.4a.116.116,0,0,0,.064.1,1.5,1.5,0,0,1,.64.544c.544.752.576,3.12.576,5.92,0,.192,0,.96.5.96.352,0,.4-.128.7-.8.144-.3,2.96-.448,3.232-.448a15.626,15.626,0,0,1,1.984.144c.144.016.832.208.976.208.1,0,.3-.08.3-.272a.476.476,0,0,0-.192-.336c-.768-.544-.848-.608-.848-.832a14.548,14.548,0,0,1,1.1-3.712c.288-.384.352-.448.352-.64,0-.688-1.328-1.456-1.52-1.456-.128,0-.176.032-.72.3A34.025,34.025,0,0,1,157.008-8.848Zm4.576.24c.432,0,.432.432.432.608,0,.144-.512,3.936-.528,3.984-.08.24-.272.24-2.048.336-.464.032-.96.08-1.184.112-.352.048-.928.144-1.04.144-.16,0-.448,0-.448-.544,0-.56-.128-3.056-.128-3.552,0-.464,0-.5,1.5-.736C158.512-8.32,160.832-8.608,161.584-8.608Zm12.784-2c.128.96-1.392,3.168-2.688,4.464a13.571,13.571,0,0,0-1.264,1.2c0,.048.032.1.112.1a4.889,4.889,0,0,0,1.536-.848,12.028,12.028,0,0,0,2.176-2.08c.672-.768.7-.8,1.008-.8.1,0,.528.048.624.048.384,0,2.592-.5,2.624-.5a.173.173,0,0,1,.176.176c0,.5-3.04,5.952-7.92,8.64-.5.272-.544.3-.544.368a.143.143,0,0,0,.144.144,10.945,10.945,0,0,0,3.184-1.536,19.565,19.565,0,0,0,5.728-6.016c.56-.864.624-.96.8-1.072.528-.32.64-.384.64-.608a.58.58,0,0,0-.3-.4c-.08-.048-.5-.272-.592-.32-.656-.384-.736-.432-.88-.432a2.989,2.989,0,0,0-.752.256,9.056,9.056,0,0,1-2.432.64c-.064,0-.256,0-.256-.128,0-.08.048-.144.128-.256.32-.4.48-.608.48-.8a1.5,1.5,0,0,0-1.488-.9c-.128,0-.352,0-.352.16C174.256-11.04,174.352-10.688,174.368-10.608Zm6.112-2.7c-.16,0-.576.1-.576.224,0,.048.048.128.208.176a3.752,3.752,0,0,1,1.472.784c.352.368.512.528.848.528a.433.433,0,0,0,.4-.464c0-.16,0-.528-.656-.912A2.952,2.952,0,0,0,180.48-13.312Zm-1.1,1.376c-.144,0-.272.08-.272.144s.16.176.24.224a5.052,5.052,0,0,1,1.136.944c.5.592.624.688.848.688.272,0,.464-.352.464-.624C181.792-10.752,181.424-11.936,179.376-11.936Zm10.16.784c-.064,0-.1.032-.1.112,0,.112.48,1.2,1.328,1.2.112,0,3.552-.3,3.808-.336.928-.08,1.488-.128,1.488-.624,0-.464-.7-.608-.976-.608-.224,0-1.328.272-1.568.32a15.3,15.3,0,0,1-2.56.176,3.933,3.933,0,0,1-.848-.064C190.016-10.992,189.632-11.152,189.536-11.152Zm-.4,10.928a.172.172,0,0,0-.032.1.128.128,0,0,0,.144.128,11.309,11.309,0,0,0,2.832-1.04,10.608,10.608,0,0,0,4.512-4.272,4.482,4.482,0,0,1,.864-1.136c.368-.3.432-.368.432-.608,0-.368-1.136-1.312-1.408-1.312a2.749,2.749,0,0,0-.464.176c-.016,0-1.072.1-1.1.1-.592.064-3.776.48-5.088.48a4.491,4.491,0,0,1-1.584-.272,2.267,2.267,0,0,0-.288-.128.09.09,0,0,0-.1.08c0,.448,1.136,1.824,1.824,1.824a6.842,6.842,0,0,0,.736-.272c.7-.208,4.72-.912,5.264-.912.224,0,.336.112.336.3,0,.336-1.312,3.792-6.3,6.48C189.616-.464,189.168-.256,189.136-.224Zm17.648-3.824c.016-.064.928-1.248,1.1-1.488.4-.576,2.24-3.456,2.5-3.7.32-.3.5-.464.5-.736,0-.56-1.472-1.632-1.584-1.632-.1,0-.112.1-.112.176,0,.064.032.448.032.528,0,1.216-1.44,4.128-2.144,5.424C206.208-3.9,205.888-3.7,205.216-3.7a2.775,2.775,0,0,1-.576-.08,3.931,3.931,0,0,0-.464-.144c-.064,0-.064.064-.064.112a3.52,3.52,0,0,0,.416,1.28c.7.688.7.7.848.7.112,0,.5-.464.608-.512.144-.064,2.24-.544,2.672-.656.688-.192,4.3-1.3,4.384-1.3.24,0,.3.144.448.912.208,1.056.272,1.456.816,1.456.112,0,.88-.048.88-1.12,0-1.568-2.416-3.536-2.88-3.536a.107.107,0,0,0-.112.1,6.031,6.031,0,0,0,.368.608,2.006,2.006,0,0,1,.464.944c0,.192,0,.272-2.352.672a25.051,25.051,0,0,1-3.68.464C206.848-3.792,206.768-3.888,206.784-4.048Z" transform="translate(0.737 48.63)" fill="#fff" stroke="#fff" stroke-width="0.1"/>
  </g>
</svg>
