<svg xmlns="http://www.w3.org/2000/svg" width="167.787" height="48.456" viewBox="0 0 167.787 48.456">
  <g id="グループ_31217" data-name="グループ 31217" transform="translate(-0.345 -1.671)">
    <path id="パス_130454" data-name="パス 130454" d="M19.282-.868c-2.17-.248-2.356-.5-2.759-2.821-.682-3.782-1.364-7.719-2.015-11.749L13.7-20.584l-1.085.279L3.379-3.968C1.891-1.3,1.55-1.147-.341-.868L-.589,0H6.138l.217-.868C3.968-1.085,3.782-1.333,4.65-3.1,5.3-4.495,6.169-6.169,6.727-7.192h6.386c.279,1.7.527,3.131.713,4.4.186,1.364.062,1.705-2.046,1.922L11.532,0h7.533ZM12.9-8.556H7.409c1.333-2.573,2.759-5.084,4.216-7.812h.062ZM25.234-20.119l-.186.868c2.449.217,2.635.4,2.17,2.7l-2.48,12.8c-.5,2.48-.744,2.666-3.1,2.883L21.421,0h6.758a14.922,14.922,0,0,0,6.386-1.085A5.593,5.593,0,0,0,38.1-6.107c0-2.852-2.139-4.34-4.557-4.836v-.062c2.759-.558,5.084-2.015,5.084-4.836,0-3.131-2.356-4.278-5.983-4.278Zm3.72,8.742,1.116-6.014c.155-.837.341-1.209.589-1.4a2.384,2.384,0,0,1,1.4-.31c1.736,0,3.534.775,3.534,3.286,0,2.666-1.8,4.433-5.208,4.433Zm-.217,1.054h1.4c2.542,0,4.743.992,4.743,4.061a4.9,4.9,0,0,1-5.053,5.177c-1.891,0-2.759-.434-2.325-2.759ZM53.6-20.615c-6.51,0-11.315,5.8-11.315,12.276,0,5.27,3.379,8.8,8.277,8.8,6.634,0,11.346-5.58,11.346-12.183C61.907-16.926,58.59-20.615,53.6-20.615ZM53.382-19.5c3.844,0,5.27,3.286,5.27,7.378,0,5.146-2.883,11.47-7.843,11.47-3.658,0-5.3-3.193-5.3-7.316C45.508-13.485,48.7-19.5,53.382-19.5Zm33.2-.62H79.329l-.217.868c2.232.124,2.821.434,2.759,1.7a47.442,47.442,0,0,1-.806,5.487L80.6-9.8C79.453-3.937,77.376-1.24,73.718-1.24c-3.038,0-5.239-2.108-4.185-7.626l1.426-7.564c.465-2.48.682-2.6,2.976-2.821l.186-.868h-7.9L66-19.251c2.449.217,2.6.4,2.139,2.821L66.681-8.711c-.713,3.844-.031,6.169,1.4,7.5A6.986,6.986,0,0,0,72.912.465a7.971,7.971,0,0,0,5.363-2.046c2.046-1.922,2.976-4.743,3.6-7.967l.5-2.511c.558-2.821.93-4.4,1.24-5.456.372-1.178.744-1.643,2.759-1.736Zm18.259-.775a1.823,1.823,0,0,1-1.612.775H91.45c-.806,0-1.147-.062-1.457-.775H89.28c-.341,1.674-.9,3.72-1.457,5.58h.961a12.047,12.047,0,0,1,1.55-2.79c.589-.682,1.147-.93,3.72-.93H95.6L92.69-3.751c-.465,2.418-.682,2.7-3.286,2.883L89.187,0H97.9l.186-.868c-2.79-.186-3.007-.434-2.573-2.883l2.883-15.283h1.829c2.232,0,2.914.186,3.224.9a6.953,6.953,0,0,1,.372,2.821l.992-.062c.186-1.736.465-4.154.744-5.518Z" transform="translate(1 22.615)" fill="#fff" stroke="#fff" stroke-width="0.1"/>
    <path id="パス_130460" data-name="パス 130460" d="M8.384-7.9c.3-.384.816-.96,1.088-1.344A4.57,4.57,0,0,1,10.56-10.56a.4.4,0,0,0,.144-.32c0-.608-1.616-1.28-1.856-1.28a.158.158,0,0,0-.16.128,1.778,1.778,0,0,0,.112.256.905.905,0,0,1,.128.448c0,.448-1.248,3.168-5.024,6.4-.256.224-.7.592-1.12.96a.145.145,0,0,0-.048.112c0,.064.032.1.08.1A17.574,17.574,0,0,0,7.36-6.816c.128-.128.192-.192.272-.192.416,0,.416,1.68.416,2.256,0,.848-.064,2.08-.16,2.944-.016.16-.176.864-.176,1.024,0,.432.544,1.12.992,1.12.384,0,.384-.544.384-.7,0-.208-.1-1.136-.112-1.328-.032-.624-.048-1.488-.048-1.92a15.448,15.448,0,0,1,.1-2.832c.016-.1.192-.544.192-.64,0-.144-.064-.208-.688-.592A.258.258,0,0,1,8.384-7.9ZM24.08-8.96c0-.944-1.344-1.856-3.056-1.856-.224,0-.352.08-.352.144s.08.112.144.144a3.6,3.6,0,0,1,1.456,1.312c.528.8.688,1.056,1.12,1.056A.707.707,0,0,0,24.08-8.96ZM30.736-9.1a.1.1,0,0,0-.08-.08c-.032,0-.48.448-.736.7-2.656,2.624-6.9,5.456-7.68,5.456a2.648,2.648,0,0,1-1.088-.368,3.983,3.983,0,0,0-.48-.3c-.144,0-.16.736-.16.848,0,.64,1.184,1.664,2.048,1.664.24,0,.272-.032.576-.4A11.173,11.173,0,0,1,24.7-2.9C28.864-5.968,30.736-8.96,30.736-9.1ZM36.16-.032c-.032.144.112.144.144.144a13.812,13.812,0,0,0,5.9-3.856c.32-.336.416-.448.56-.448.16,0,.336.3.368.368.608,1.024.672,1.136,1.008,1.136a.689.689,0,0,0,.688-.768,2.233,2.233,0,0,0-.672-1.408c-.288-.368-.3-.4-.3-.544,0-.128.032-.176.176-.4.192-.32,1.28-1.84,1.5-2.192.48-.752.544-.832.784-.944.288-.128.4-.176.4-.416,0-.512-1.152-1.232-1.312-1.232a3.838,3.838,0,0,0-.592.352,9.8,9.8,0,0,1-2.4.384c-.208,0-.544-.032-.544-.272,0-.1.176-.528.176-.624a1.428,1.428,0,0,0-1.44-.944c-.1,0-.3,0-.3.1,0,.112.256.624.256.752,0,.912-1.312,3.168-3.216,5.232a5.25,5.25,0,0,0-.576.688.075.075,0,0,0,.08.08c.528,0,2.464-2.1,2.832-2.1.4,0,2.3,1.216,2.3,1.712s-2.192,3.1-5.472,4.96C36.208-.1,36.176-.1,36.16-.032ZM42.7-6.064a.9.9,0,0,1-.368-.112,17.847,17.847,0,0,0-1.76-.816c-.4-.16-.544-.208-.544-.432a13.09,13.09,0,0,1,1.36-1.792.252.252,0,0,1,.192-.064,1.076,1.076,0,0,1,.384.064,1.454,1.454,0,0,0,.48.064c.288,0,1.7-.208,1.936-.208.112,0,.272.048.272.224A8.052,8.052,0,0,1,42.7-6.064Zm12.064-.384a8.713,8.713,0,0,1-1.952-.144c-.08-.016-.464-.192-.544-.192s-.128.1-.128.192c0,.544.736,1.536,1.424,1.536.192,0,1.056-.256,1.248-.288.384-.08,4.048-.288,6.256-.288.32,0,1.92.032,2.288.032.672,0,1.328-.048,1.328-.5,0-.112-.144-.7-1.12-.7-.08,0-.256.016-.352.016C60.88-6.656,55.3-6.448,54.768-6.448ZM74.48-8.96c0-.944-1.344-1.856-3.056-1.856-.224,0-.352.08-.352.144s.08.112.144.144a3.6,3.6,0,0,1,1.456,1.312c.528.8.688,1.056,1.12,1.056A.707.707,0,0,0,74.48-8.96ZM81.136-9.1a.1.1,0,0,0-.08-.08c-.032,0-.48.448-.736.7-2.656,2.624-6.9,5.456-7.68,5.456a2.648,2.648,0,0,1-1.088-.368,3.983,3.983,0,0,0-.48-.3c-.144,0-.16.736-.16.848,0,.64,1.184,1.664,2.048,1.664.24,0,.272-.032.576-.4A11.173,11.173,0,0,1,75.1-2.9C79.264-5.968,81.136-8.96,81.136-9.1ZM88.864-.512c.208,0,.976-.72,1.168-.848C96.656-6,98.064-9.424,98.064-9.6A.059.059,0,0,0,98-9.664a7.626,7.626,0,0,0-.688.72C93.488-4.608,89.184-2.208,88.5-2.208c-.128,0-.736-.208-.88-.208-.1,0-.144.048-.144.112a.679.679,0,0,0,.1.3c.048.08.336.416.384.5C88.352-.768,88.512-.512,88.864-.512Zm-.608-7.376c-.208,0-1.12.016-1.12.24,0,.064.1.128.144.16A3.881,3.881,0,0,1,88.736-6.16c.24.4.32.5.56.5.384,0,.624-.48.624-.8C89.92-7.248,88.944-7.888,88.256-7.888Zm1.856-3.056a1.9,1.9,0,0,0-1.232.3c0,.048.176.1.24.112A2.785,2.785,0,0,1,90.5-9.68c.576.688.656.752.832.752.256,0,.512-.352.512-.72C91.84-9.7,91.84-10.944,90.112-10.944ZM111.728-7.28c0,1.376-1.872,4.384-5.28,6.992a6.833,6.833,0,0,0-.9.672.1.1,0,0,0,.1.1,14.01,14.01,0,0,0,6.512-5.648,13.044,13.044,0,0,1,.816-1.376c.272-.16.336-.176.336-.3,0-.464-.64-.848-.9-.976a3.56,3.56,0,0,0-.72-.4.109.109,0,0,0-.112.112,1.02,1.02,0,0,0,.032.144A1.622,1.622,0,0,1,111.728-7.28Zm-7.008.528c-.112,0-.208.048-.208.144,0,.048.032.1.112.208a5.723,5.723,0,0,1,.928,1.616c.112.352.224.72.576.72a.582.582,0,0,0,.544-.608C106.672-5.952,105.1-6.752,104.72-6.752Zm2.768-1.472c-.08-.016-.16.032-.16.08a1.808,1.808,0,0,0,.176.352,5.022,5.022,0,0,1,.592,1.52c.048.272.128.672.48.672.288,0,.544-.352.544-.816A2.027,2.027,0,0,0,107.488-8.224Zm24.1-4.256a1.52,1.52,0,0,0-1.568,1.52,1.572,1.572,0,0,0,1.552,1.552A1.561,1.561,0,0,0,133.1-10.96,1.489,1.489,0,0,0,131.584-12.48Zm-.032.544a1.07,1.07,0,0,1,1.024,1.008.987.987,0,0,1-.992.976.993.993,0,0,1-1.04-.96A1.029,1.029,0,0,1,131.552-11.936ZM120.016-9.984c-.1,0-.144.048-.144.352,0,.88,1.28,1.68,1.648,1.68a5.8,5.8,0,0,0,.8-.352,52.5,52.5,0,0,1,5.76-1.152c.08,0,.352.016.352.288a9.04,9.04,0,0,1-1.088,2.7,20.824,20.824,0,0,1-6.32,6.336c-.16.112-.208.144-.208.208a.106.106,0,0,0,.112.1,16.282,16.282,0,0,0,8.256-7.456,2.648,2.648,0,0,1,.624-1.008c.288-.288.368-.368.368-.576,0-.224-.1-.4-.816-1.04-.5-.432-.752-.656-1.1-.656-.112,0-.176.032-.672.256a41.425,41.425,0,0,1-6.032.752,3.769,3.769,0,0,1-1.328-.336C120.192-9.888,120.048-9.984,120.016-9.984Zm21.808,3.728c.144,0,.416,0,.464.32.064.32.08.4.288.4a.625.625,0,0,0,.672-.624c0-.656-.128-3.568-.128-4.176,0-.144.016-1.072.048-1.136.032-.08.288-.3.288-.368a2.635,2.635,0,0,0-.816-1.04c-.112,0-.4.464-.48.544a.692.692,0,0,1-.5.16h-.32a1.359,1.359,0,0,1-.64-.128c-.192-.08-.976-.592-1.072-.592-.032,0-.032.032-.032.064,0,.1.048.544.048.64.064,1.3.08,2.752.08,4.064,0,.656-.016,6.352-.08,6.56a.785.785,0,0,1-.608.544c-.448.144-.5.16-.5.256,0,.176.672,1.024.88,1.024.128,0,.144-.048.3-.384a10.64,10.64,0,0,1,1.488-1.328c.176-.144.88-.88,1.12-1.136a.191.191,0,0,1,.144-.08c.112,0,.144.1.16.16.032.112.16.56.416.56.272,0,.528-.4.528-.784,0-1.072-1.872-2.512-2.24-2.512-.016,0-.048,0-.048.032,0,.16,1.04,1.712,1.04,2.016,0,.24-.1.3-.576.64a4.325,4.325,0,0,1-.9.544c-.24,0-.24-.192-.24-.272,0-.544-.016-3.008-.016-3.5,0-.336.16-.464.5-.464Zm-.1-5.488c.512,0,.512.144.512,1.456,0,.624,0,.848-.512.848h-.608c-.512,0-.512-.112-.512-1.168,0-.944,0-1.136.512-1.136Zm.048,2.736a.411.411,0,0,1,.448.256c.016.064.016,1.536.016,1.728,0,.08,0,.352-.464.352H141.1c-.5,0-.5-.048-.5-1.68,0-.384,0-.656.48-.656Zm7.216,2.4c.48,0,.848,0,.848-.208a3.921,3.921,0,0,0-1.168-1.12c-.144,0-.176.064-.544.624-.176.272-.384.272-.7.272a.371.371,0,0,1-.416-.368c0-.08.32-1.648.352-1.9.048-.336.256-1.984.288-2.208a.427.427,0,0,1,.448-.288h.512c.528,0,.864,0,.864-.208s-1.088-1.1-1.248-1.1-.56.672-.672.768c-.128.128-.208.128-.9.128h-.416c-.656,0-1.376-.032-2.032-.048-.112-.016-.608-.064-.72-.064-.016,0-.048,0-.048.032a.2.2,0,0,0,.064.112l.3.368c.064.064.1.1.144.1.032,0,.176-.016.208-.016a.182.182,0,0,1,.176.192c0,.64-.048,3.456-.048,4.032,0,.24-.1.432-.336.432-.1,0-.576-.064-.624-.064-.032,0-.064.016-.064.048,0,.016.048.048.08.1l.3.368c.048.08.08.112.144.112.032,0,.192-.032.224-.032.24-.016.7-.048,1.264-.048.256,0,.464.016.464.288a12.431,12.431,0,0,1-3.36,6.176,5.976,5.976,0,0,0-.784.688c0,.048.064.08.1.08.368,0,3.392-1.488,4.624-5.552.064-.192.064-.224.128-.224.1,0,.1.112.1.176,0,.208-.08,3.712-.08,4.256,0,1.008.112,1.44,1.392,1.44,1.056,0,1.3-.128,1.552-.336a1.238,1.238,0,0,0,.528-.88c0-.192-.032-.24-.272-.592a4.613,4.613,0,0,1-.368-1.9c0-.128-.048-.192-.08-.192a6.293,6.293,0,0,0-.288,1.248c-.288,1.7-.384,1.7-.848,1.7-.528,0-.576,0-.576-2.784,0-.288,0-2.24.032-2.368.064-.144.112-.192.368-.416a.229.229,0,0,0,.08-.176c0-.176-.32-.32-.528-.4-.16-.064-.256-.112-.256-.16,0-.064.128-.064.176-.064Zm-2.864-5.2a.351.351,0,0,1,.4.352,32.313,32.313,0,0,1-.512,4.032c-.032.208-.064.384-.336.384-.224,0-.48-.032-.48-.352,0-.576.048-3.392.048-4.016,0-.24.112-.4.432-.4ZM135.392-9.52c.048.064.08.1.144.1.08,0,.656-.064.784-.064.368,0,.368.288.368.32,0,.4-.72,3.44-.9,4.1-.08.3-.784,2.624-.784,2.672,0,.016,0,.048.032.048a17.429,17.429,0,0,0,1.648-3.008c.064-.128.1-.192.144-.192.144,0,.144.1.144.384,0,.8-.16,4.72-.16,5.6,0,.56.032.7.416.7.752,0,.752-.7.752-.96,0-.8-.1-4.736-.1-5.632,0-.256.016-1.552.016-1.84,0-.032,0-.24.112-.24.24,0,.592.736.624.832.144.4.208.608.5.608.16,0,.4-.176.4-.56,0-.768-.832-1.1-1.248-1.28-.368-.144-.368-.448-.368-1.12,0-.3.112-.448.512-.448h.56c.256,0,.608,0,.608-.256,0-.192-.64-.88-.9-.88-.1,0-.16.08-.3.272-.064.112-.256.384-.352.384-.064,0-.128-.1-.128-.16s.064-1.888.08-1.936a.481.481,0,0,1,.16-.336c.224-.16.24-.176.24-.272,0-.368-1.344-.592-1.408-.592-.128,0-.16.064-.16.16,0,.112.08.656.1.784,0,.32.016,1.712.016,1.968a.371.371,0,0,1-.416.416c-.208,0-1.232-.08-1.456-.08-.032,0-.064,0-.064.032s.016.032.08.112ZM155.5-10.528a1.715,1.715,0,0,1-.576-.112c-.16-.048-.864-.4-.976-.4-.064,0-.064.112-.064.16a2.025,2.025,0,0,0,.016.256c.048.448.08,1.232.08,1.968,0,.256-.032,1.5-.032,1.792,0,.272,0,.56.5.56s.592-.384.688-.784c.048-.176.272-.176.416-.176h2.656c.144,0,.288,0,.288.16a7.438,7.438,0,0,1-1.344,2.3.747.747,0,0,1-.688.3h-1.6c-.752,0-1.424-.016-2.208-.048-.1,0-.592-.064-.7-.064a.042.042,0,0,0-.048.048c0,.016,0,.032.064.1l.3.368c.064.064.1.112.144.112a2.427,2.427,0,0,0,.336-.048c.16,0,.624-.032,2.032-.032h1.392c.336,0,.368,0,.368.08a19.009,19.009,0,0,1-1.168,1.632c-.672.736-.7.768-.7.992,0,.272.352.4.576.4.368,0,.56-.16,1.04-.8.256-.336.288-.384.48-.384a8.23,8.23,0,0,1,2.144.7,12.064,12.064,0,0,1-5.1,2.5c-.08.016-.192.048-.192.112s.112.1.224.1a12.772,12.772,0,0,0,6.08-2.1.363.363,0,0,1,.256-.1c.416,0,1.392.656,3.232,1.936a.834.834,0,0,0,.384.112.587.587,0,0,0,.576-.576c0-.784-1.664-1.536-2.96-1.952-.448-.144-.5-.16-.5-.208,0-.064.1-.16.128-.192.176-.176.96-1.056,1.152-1.248.08-.064.56-.384.56-.512,0-.112-.048-.128-.448-.336-.144-.08-.16-.08-.16-.128,0-.032.016-.032.144-.032H165.6c.528,0,.848,0,.848-.224,0-.256-1.552-1.232-1.616-1.232-.176,0-.688.784-.848.912-.1.08-.128.112-.8.112H158.72c-.224,0-.352,0-.352-.128a7.689,7.689,0,0,1,1.264-1.648c.416-.224.464-.272.464-.384,0-.144-.736-.512-.736-.56s.016-.048.176-.048h3.408c.16,0,.336,0,.384.272.048.336.048.368.336.368a.74.74,0,0,0,.768-.528c.016-.016.016-1.152.016-1.248a8.16,8.16,0,0,1,.064-1.28c.032-.08.32-.384.32-.464,0-.288-1.024-.928-1.12-.928s-.384.384-.464.448a.6.6,0,0,1-.384.1h-1.216c-.4,0-.4-.3-.4-.5,0-.736,0-1.024.416-1.024h3.424c.528,0,.848,0,.848-.224a4.525,4.525,0,0,0-1.584-1.136c-.144,0-.192.064-.672.672-.208.272-.288.272-1.008.272h-7.28c-.752,0-1.408-.032-2.192-.064-.112,0-.592-.048-.7-.048-.048,0-.064,0-.064.032s.016.032.064.112l.32.368c.048.064.08.1.144.1.048,0,.272-.032.336-.032.144-.016.608-.048,2.016-.048h1.408c.464,0,.464.16.464.992,0,.256,0,.528-.464.528Zm4.464.416a.371.371,0,0,1,.4.416c0,.24.016,1.7-.032,1.792a.419.419,0,0,1-.432.208H158.56c-.464,0-.48-.112-.48-1.2s.016-1.216.5-1.216Zm-.016-1.936c.416,0,.416.24.416,1.008,0,.144,0,.512-.416.512h-1.36c-.48,0-.48-.272-.48-.56,0-.752,0-.96.464-.96Zm2.992,1.936c.416,0,.416.24.416,1.1,0,1.12,0,1.312-.416,1.312h-1.3c-.416,0-.416-.24-.416-1.1,0-1.12,0-1.312.416-1.312Zm-6.24,0c.48,0,.48.016.48,1.536,0,.64,0,.88-.48.88H155.52c-.464,0-.464-.048-.464-1.664,0-.416,0-.752.432-.752Zm4.24,6.048c.08,0,.176,0,.176.128s-1.264,1.968-1.728,1.968c-.032,0-1.872-.352-2.176-.4-.32-.048-.352-.048-.352-.144,0-.08.768-1.152.848-1.264a.708.708,0,0,1,.688-.288Z" transform="translate(1.634 48.814)" fill="#fff" stroke="#fff" stroke-width="0.1"/>
  </g>
</svg>
