<svg xmlns="http://www.w3.org/2000/svg" width="164.425" height="47.897" viewBox="0 0 164.425 47.897">
  <g id="グループ_31216" data-name="グループ 31216" transform="translate(-0.225 -1.8)">
    <path id="パス_130453" data-name="パス 130453" d="M4.061-20.119l-.217.868c2.449.248,2.6.434,2.139,2.883L3.5-3.875C2.976-1.271,2.759-1.116.4-.868L.186,0H8.649l.186-.868C6.014-1.116,5.8-1.3,6.293-3.875l.93-4.867,2.108.651c.341,0,.744,0,1.147-.031,3.5-.248,7.409-2.387,7.409-6.758,0-3.534-2.387-5.239-6.665-5.239ZM8.866-17.36c.186-.992.4-1.333.744-1.488a2.942,2.942,0,0,1,1.3-.248c2.542,0,3.937,1.488,3.937,4.061A5.285,5.285,0,0,1,9.641-9.362a5.982,5.982,0,0,1-2.2-.4ZM35.929-.558a3.732,3.732,0,0,1-2.046-1.457A23.165,23.165,0,0,1,31.961-5.3c-.713-1.426-1.519-3.348-1.829-4.154,2.511-.868,4.836-2.759,4.836-5.89a4.272,4.272,0,0,0-1.922-3.813,8.221,8.221,0,0,0-4.464-.961H21.638l-.186.868c2.449.217,2.573.341,2.108,2.852L21.142-3.937c-.527,2.666-.713,2.821-3.069,3.069L17.856,0h8.029l.186-.868c-2.449-.217-2.666-.4-2.139-3.1L24.8-8.8h1.209c1.085,0,1.488.279,1.953,1.426.651,1.581,1.3,3.131,2.077,4.588C31.124-.744,32.147.124,35.309.248h.372ZM25.017-9.827l1.457-7.595c.155-.806.31-1.178.558-1.364A2.275,2.275,0,0,1,28.4-19.1c2.139,0,3.5,1.333,3.5,4A5.365,5.365,0,0,1,29.6-10.6a5.708,5.708,0,0,1-3.255.775Zm15.9-10.292-.217.868c2.542.217,2.7.4,2.2,2.883L40.486-3.751c-.5,2.48-.744,2.666-3.224,2.883L37.045,0H51.677c.434-.992,1.581-3.906,1.922-4.8l-.9-.31A12.635,12.635,0,0,1,50.592-2.17c-.837.806-1.767,1.054-4,1.054-1.674,0-2.573-.062-3.038-.465-.4-.372-.434-1.178-.124-2.883l1.023-5.425h2.821c2.666,0,2.666.217,2.6,2.449h.93l1.178-5.952h-.93c-.744,2.046-.93,2.263-3.534,2.263H44.7l1.271-6.634c.217-1.147.31-1.271,1.4-1.271H49.6c2.2,0,2.635.279,2.976.992a6.39,6.39,0,0,1,.434,2.759l.93-.062c.217-1.8.5-4.154.589-4.774ZM56.141-6.107c.062,2.232.062,3.937.093,4.65A8.015,8.015,0,0,0,61.628.465c3.658,0,6.882-2.325,6.882-5.983,0-2.511-1.519-4.154-3.658-5.735l-.93-.682c-1.612-1.209-2.79-2.325-2.79-4.092a3.379,3.379,0,0,1,3.379-3.534c2.666,0,3.472,2.232,3.72,4.495l.93-.093c.031-1.488,0-3.131.093-4.4-.248-.093-.744-.31-1.333-.527a9.957,9.957,0,0,0-3.069-.527c-3.72,0-6.355,2.325-6.355,5.611,0,2.573,1.984,4.309,3.5,5.487l.9.682c1.767,1.395,2.79,2.6,2.79,4.309,0,2.356-1.426,3.906-3.658,3.906-3.379,0-4.681-3.286-4.991-5.58ZM82-20.119H73.9l-.217.868c2.542.217,2.759.4,2.325,2.7L73.5-3.689C73.036-1.3,72.85-1.054,70.463-.868L70.246,0H78.4l.186-.868c-2.511-.186-2.728-.4-2.263-2.821L78.8-16.554c.465-2.294.62-2.48,3.007-2.7Zm3.224,0L85-19.251c2.48.279,2.6.465,2.139,2.945L84.723-3.751c-.434,2.356-.651,2.635-3.038,2.883L81.468,0h6.82c3.906,0,6.913-.62,9.579-2.294a10.845,10.845,0,0,0,5.115-9.393c0-5.921-3.906-8.432-10.013-8.432Zm4.9,2.945c.186-1.023.341-1.364.651-1.55a3.851,3.851,0,0,1,1.953-.341c4.433.031,7.006,2.635,7.006,7.192,0,5.8-3.565,10.695-9.641,10.726a4.18,4.18,0,0,1-2.108-.434c-.558-.341-.62-.93-.341-2.48Zm17.329-2.945-.217.868c2.542.217,2.7.4,2.2,2.883L107.012-3.751c-.5,2.48-.744,2.666-3.224,2.883L103.571,0H118.2c.434-.992,1.581-3.906,1.922-4.8l-.9-.31a12.635,12.635,0,0,1-2.108,2.945c-.837.806-1.767,1.054-4,1.054-1.674,0-2.573-.062-3.038-.465-.4-.372-.434-1.178-.124-2.883l1.023-5.425H113.8c2.666,0,2.666.217,2.6,2.449h.93l1.178-5.952h-.93c-.744,2.046-.93,2.263-3.534,2.263h-2.821l1.271-6.634c.217-1.147.31-1.271,1.4-1.271h2.232c2.2,0,2.635.279,2.976.992a6.389,6.389,0,0,1,.434,2.759l.93-.062c.217-1.8.5-4.154.589-4.774Zm37.851,0H138.26l-.248.868c2.263.124,2.821.465,2.7,1.922a47.951,47.951,0,0,1-.806,5.3l-1.4,7.409h-.093l-8.959-15.5h-4.681l-.217.868c1.643.093,2.232.279,2.6.93.372.682.5,1.178.155,2.883l-1.55,7.378c-.62,2.883-.961,4.278-1.3,5.332-.4,1.364-1.116,1.767-2.728,1.86L121.52,0h7.192l.186-.868c-2.17-.155-2.728-.5-2.635-1.922A39.95,39.95,0,0,1,127.038-8l1.581-8.06h.093L137.826.248h1.054l2.325-12.276a52.63,52.63,0,0,1,1.209-5.27c.4-1.364.806-1.86,2.7-1.953Zm18.476-.775a1.823,1.823,0,0,1-1.612.775h-11.78c-.806,0-1.147-.062-1.457-.775h-.713c-.341,1.674-.9,3.72-1.457,5.58h.961a12.046,12.046,0,0,1,1.55-2.79c.589-.682,1.147-.93,3.72-.93h1.55L151.621-3.751c-.465,2.418-.682,2.7-3.286,2.883L148.118,0h8.711l.186-.868c-2.79-.186-3.007-.434-2.573-2.883l2.883-15.283h1.829c2.232,0,2.914.186,3.224.9a6.953,6.953,0,0,1,.372,2.821l.992-.062c.186-1.736.465-4.154.744-5.518Z" transform="translate(0.104 22.744)" fill="#fff" stroke="#fff" stroke-width="0.1"/>
    <path id="パス_130459" data-name="パス 130459" d="M10.24-3.568a.417.417,0,0,1-.368-.208,16.845,16.845,0,0,1-.064-2.16c0-.592.016-4.544.016-5.392,0-.336-.048-.624-.384-.624-.208,0-.288.1-.9,1.024C7.328-9.12,5.376-6.224,4.176-4.416A3.749,3.749,0,0,0,3.6-3.344c0,.288.192.288.384.288H8.192c.416,0,.416.3.416.96,0,1.008,0,1.584-1.072,1.584-.272,0-.5,0-.5.272,0,.224.256.24.384.24h3.584c.16,0,.448,0,.448-.224,0-.288-.3-.288-.432-.288-1.216,0-1.216-.464-1.216-1.6,0-.672,0-.944.464-.944h.976c.144,0,.384,0,.384-.256s-.288-.256-.384-.256Zm-5.392,0c-.16,0-.352,0-.352-.208,0-.064.032-.128.3-.528.848-1.3,2.24-3.36,3.088-4.64.192-.288.5-.752.608-.752.08,0,.1.08.1.16,0,.416.032,2.272.032,2.64,0,.384,0,2.752-.032,2.976a.389.389,0,0,1-.416.352ZM23.072.576c.064.08.1.112.144.112S23.5.64,23.552.64c.56-.048,1.632-.032,2.016-.032h5.68c.528,0,.864,0,.864-.224,0-.272-1.408-1.312-1.552-1.312-.192,0-.24.064-.672.624a.994.994,0,0,1-.944.48h-.592c-.416,0-.416-.288-.416-.88,0-1.072-.048-5.76-.048-6.72,0-.288.032-.528.464-.528h2.224c.512,0,.848,0,.848-.208,0-.3-1.12-1.344-1.344-1.344-.144,0-.192.064-.656.688-.336.448-.416.448-1.168.448-.384,0-.384-.3-.384-.5,0-.432.048-3.088.144-3.312.032-.08.352-.352.352-.432,0-.272-.336-.352-.48-.4-.112-.032-1.1-.336-1.152-.336-.1,0-.128.032-.128.112,0,.128.1.688.1.816.08,1.2.112,1.92.112,3.392,0,.448-.032.656-.416.656-.544,0-1.84-.064-2-.064-.08,0-.656-.048-.672-.048s-.048,0-.048.032,0,.032.064.112l.3.368c.064.064.1.1.144.1.064,0,.288-.032.336-.032.56-.048,1.488-.048,1.888-.048.384,0,.384.336.384.5,0,.832-.032,6.992-.064,7.28-.032.352-.32.352-.464.352h-.624c-.9,0-1.728-.032-2.192-.048-.112,0-.608-.064-.7-.064A.051.051,0,0,0,22.7.112c0,.016,0,.016.064.1ZM17.84-9.216c.048.064.08.1.144.1.048,0,.288-.032.336-.032.56-.032,1.232-.048,1.856-.048H21.3c.144,0,.256.016.256.16,0,.464-2.256,3.264-2.9,3.92A16.1,16.1,0,0,0,17.264-3.7c0,.048.048.048.08.048.416,0,2.5-1.808,2.656-1.808s.16.272.16.448c0,1.888-.064,3.552-.1,4.736C20.064-.1,20,.64,20,.8c0,.224.1.384.48.384a.763.763,0,0,0,.848-.736c0-.224-.08-1.216-.08-1.424,0-.656-.016-3.616-.016-4.224,0-.192,0-.416.144-.416.3,0,.832.816.928.992.416.848.592,1.168.976,1.168.288,0,.56-.24.56-.736,0-1.216-1.5-1.648-2.048-1.776-.384-.08-.528-.112-.528-.448,0-.288.048-.336.512-.816a18.416,18.416,0,0,1,1.488-1.6c.048-.016.272-.064.32-.08a.241.241,0,0,0,.176-.208c0-.1-.032-.128-.384-.464-.048-.032-.384-.432-.576-.624a.3.3,0,0,0-.224-.112c-.144,0-.608.48-.72.544a.57.57,0,0,1-.384.112c-.16,0-.256-.032-.256-.256v-1.344c0-.672,0-.752.08-.9.032-.064.32-.3.32-.368,0-.112-.1-.176-.176-.224A12.3,12.3,0,0,0,20-13.184c-.016,0-.064,0-.064.032,0,.1.08.464.08.544.048.608.064,1.552.064,1.792,0,1.072,0,1.184-.448,1.184-.336,0-1.808-.1-2.112-.1-.016,0-.064,0-.064.032,0,.016.016.032.08.112ZM41.952-10.88a4.121,4.121,0,0,1,4.432,4.432c0,3.984-3.472,5.36-5.136,6.016-.4.16-.432.176-.432.224,0,.1.1.112.16.112a9.834,9.834,0,0,0,2.656-.592A5.967,5.967,0,0,0,47.664-6.32a5.015,5.015,0,0,0-2.784-4.656,5.212,5.212,0,0,0-2.576-.512,6.62,6.62,0,0,0-5.1,2.08,5.636,5.636,0,0,0-1.776,4.08c0,1.952.944,3.6,2,3.6.64,0,1.456-.384,2.736-2.336a8.207,8.207,0,0,0,1.648-4.688,12.265,12.265,0,0,0-.16-1.728c0-.064-.032-.128-.032-.176C41.616-10.752,41.632-10.88,41.952-10.88Zm-.9.048c.208,0,.272.08.272,1.04A9.152,9.152,0,0,1,39.76-5.136c-1.1,1.664-1.488,1.856-1.952,1.856-.976,0-1.392-1.424-1.392-2.464A5.525,5.525,0,0,1,41.056-10.832ZM56.672.576c.064.08.1.112.144.112S57.1.64,57.152.64c.56-.048,1.632-.032,2.016-.032h5.68c.528,0,.864,0,.864-.224,0-.272-1.408-1.312-1.552-1.312-.192,0-.24.064-.672.624a.994.994,0,0,1-.944.48h-.592c-.416,0-.416-.288-.416-.88,0-1.072-.048-5.76-.048-6.72,0-.288.032-.528.464-.528h2.224c.512,0,.848,0,.848-.208,0-.3-1.12-1.344-1.344-1.344-.144,0-.192.064-.656.688-.336.448-.416.448-1.168.448-.384,0-.384-.3-.384-.5,0-.432.048-3.088.144-3.312.032-.08.352-.352.352-.432,0-.272-.336-.352-.48-.4-.112-.032-1.1-.336-1.152-.336-.1,0-.128.032-.128.112,0,.128.1.688.1.816.08,1.2.112,1.92.112,3.392,0,.448-.032.656-.416.656-.544,0-1.84-.064-2-.064-.08,0-.656-.048-.672-.048s-.048,0-.048.032,0,.032.064.112l.3.368c.064.064.1.1.144.1.064,0,.288-.032.336-.032.56-.048,1.488-.048,1.888-.048.384,0,.384.336.384.5,0,.832-.032,6.992-.064,7.28-.032.352-.32.352-.464.352h-.624c-.9,0-1.728-.032-2.192-.048-.112,0-.608-.064-.7-.064A.051.051,0,0,0,56.3.112c0,.016,0,.016.064.1ZM51.44-9.216c.048.064.08.1.144.1.048,0,.288-.032.336-.032.56-.032,1.232-.048,1.856-.048H54.9c.144,0,.256.016.256.16,0,.464-2.256,3.264-2.9,3.92A16.1,16.1,0,0,0,50.864-3.7c0,.048.048.048.08.048.416,0,2.5-1.808,2.656-1.808s.16.272.16.448c0,1.888-.064,3.552-.1,4.736C53.664-.1,53.6.64,53.6.8c0,.224.1.384.48.384a.763.763,0,0,0,.848-.736c0-.224-.08-1.216-.08-1.424,0-.656-.016-3.616-.016-4.224,0-.192,0-.416.144-.416.3,0,.832.816.928.992.416.848.592,1.168.976,1.168.288,0,.56-.24.56-.736,0-1.216-1.5-1.648-2.048-1.776-.384-.08-.528-.112-.528-.448,0-.288.048-.336.512-.816a18.416,18.416,0,0,1,1.488-1.6c.048-.016.272-.064.32-.08a.241.241,0,0,0,.176-.208c0-.1-.032-.128-.384-.464-.048-.032-.384-.432-.576-.624a.3.3,0,0,0-.224-.112c-.144,0-.608.48-.72.544a.57.57,0,0,1-.384.112c-.16,0-.256-.032-.256-.256v-1.344c0-.672,0-.752.08-.9.032-.064.32-.3.32-.368,0-.112-.1-.176-.176-.224a12.3,12.3,0,0,0-1.44-.432c-.016,0-.064,0-.064.032,0,.1.08.464.08.544.048.608.064,1.552.064,1.792,0,1.072,0,1.184-.448,1.184-.336,0-1.808-.1-2.112-.1-.016,0-.064,0-.064.032,0,.016.016.032.08.112ZM72.656-6.288c-.48,0-.48-.224-.48-1.008,0-.384.048-.592.5-.592h5.712c.448,0,.832,0,.832-.192A3.485,3.485,0,0,0,77.9-9.056c-.128,0-.56.528-.656.624-.144.128-.208.128-.864.128H72.672c-.5,0-.5-.192-.5-1.024,0-.32,0-.608.464-.608h5.7c.464,0,.848,0,.848-.192a3.485,3.485,0,0,0-1.312-.976c-.128,0-.544.544-.656.64-.128.112-.208.112-.88.112h-3.7c-.464,0-.464-.176-.464-.88,0-.448.048-.592.544-.592h6.864c.528,0,.848,0,.848-.24,0-.192-1.392-1.056-1.488-1.056-.144,0-.192.064-.64.592-.24.272-.32.272-1.024.272H72.944a1.832,1.832,0,0,1-.9-.208,7.346,7.346,0,0,0-1.056-.4c-.112,0-.112.08-.112.128,0,.064.144,1.44.16,1.712.032.608.032.96.032,4.112,0,.464-.032.624-.576.624-.384,0-2.1-.112-2.416-.112-.048,0-.064.016-.064.032,0,.032,0,.048.064.112l.32.368c.048.064.08.1.144.1.032,0,.176-.016.224-.016.32-.016,1.184-.064,1.552-.064.464,0,.56.08.56.656,0,.528.016,3.072.016,3.664,0,.368,0,.5-.272.544A8.408,8.408,0,0,1,68.88-.9c-.176,0-.416,0-.416.192a.708.708,0,0,0,.08.24c.032.08.256.448.3.528.384.7.432.784.608.784a.2.2,0,0,0,.1-.016c.064-.048.3-.3.368-.352.24-.144,4.048-1.376,4.8-1.632.624-.224,1.776-.608,1.872-.608.176,0,.224.064.72.56A9.577,9.577,0,0,0,80.528.88c.048,0,.272-.208.32-.24A5.843,5.843,0,0,1,81.9-.032c.16-.064.272-.128.272-.192s-.048-.1-.288-.128A8.377,8.377,0,0,1,77.024-2.88c0-.1.048-.112.464-.368a9.137,9.137,0,0,1,2.208-1.1c.56-.064.624-.064.624-.224v-.048A6.859,6.859,0,0,0,78.8-5.648c-.1,0-.16.16-.272.432A5.816,5.816,0,0,1,76.64-3.3c-.32,0-1.664-2.112-1.664-2.384,0-.128.112-.192.256-.192h6.256c.48,0,.864,0,.864-.192A4.387,4.387,0,0,0,81.008-7.2c-.144,0-.56.592-.688.688a1.7,1.7,0,0,1-1.136.224Zm1.52.416c.32,0,.352.08.64.736a24.551,24.551,0,0,0,1.12,2.272c.24.384.272.432.272.464,0,.176-.08.208-.752.4-.576.176-2.944.736-3.152.736-.24,0-.256-.16-.256-.384-.032-.8-.032-1.92-.032-2.72,0-.224,0-1.12.016-1.2.064-.3.288-.3.448-.3Zm19.152.9a1.5,1.5,0,0,1-.736-.144,2.53,2.53,0,0,0-.864-.32.147.147,0,0,0-.16.16c0,.112.08.592.08.688.048.72.048,1.232.048,1.872,0,.784,0,1.776-.048,2.56,0,.128-.064.736-.064.864,0,.208.032.464.432.464.752,0,.768-.4.784-.9.016-.384.32-.384.5-.384h3.6c.208,0,.464,0,.5.4.016.384.048.672.432.672A.735.735,0,0,0,98.64.112c0-.3-.08-1.664-.08-1.936,0-.32,0-2.256.048-2.336.016-.016.288-.224.32-.256a.2.2,0,0,0,.1-.16c0-.352-1.168-.88-1.28-.88-.1,0-.4.336-.464.384a.841.841,0,0,1-.5.1ZM93.3-.528c-.112,0-.368,0-.448-.208-.064-.128-.064-2.288-.064-2.464,0-1.216,0-1.344.512-1.344h3.632c.288,0,.384.048.464.192.048.128.048,2.288.048,2.48,0,1.216,0,1.344-.512,1.344Zm-5.824-8.4a1.636,1.636,0,0,0-.64-1.1.425.425,0,0,1-.144-.24c0-.112.048-.176.56-.656a11.953,11.953,0,0,1,1.28-1.264c.16-.1.224-.112.224-.256,0-.272-1.008-.96-1.216-.96-.16,0-.16.064-.16.336,0,.224-.8,2.608-1.12,2.608-.064,0-.96-.32-1.136-.32-.032,0-.1,0-.1.048a1.146,1.146,0,0,0,.176.24,4.717,4.717,0,0,1,1.1,1.52c.288.576.512.688.7.688C87.248-8.288,87.472-8.592,87.472-8.928ZM93.936-12.3c-.912,0-1.728-.032-2.192-.064-.112,0-.608-.048-.7-.048-.016,0-.064,0-.064.032s.016.048.08.112l.3.368c.048.064.08.1.144.1.048,0,.288-.032.336-.032.208-.016,1.008-.032,1.232-.032.288,0,.352.192.352.416a7.513,7.513,0,0,1-1.3,4.336c-.16.208-1.008,1.216-1.008,1.28a.034.034,0,0,0,.032.032,7.4,7.4,0,0,0,2.464-2.208,7.43,7.43,0,0,0,1.056-3.424c.048-.4.192-.448.512-.448H97.1c.224,0,.464.016.464.432a18.159,18.159,0,0,1-.448,3.424c-.224.688-.4.688-.656.688a4.263,4.263,0,0,1-1.024-.208c-.016,0-.272-.08-.272-.08-.016,0-.064.016-.064.048,0,.064.288.32.32.4a2.05,2.05,0,0,1,.336.768c.1.368.192.448.432.448a2.062,2.062,0,0,0,1.728-1.1,10.227,10.227,0,0,0,.656-3.408c.112-1.12.176-1.152.32-1.248.272-.16.3-.176.3-.3,0-.272-.912-.944-1.152-.944-.144,0-.192.08-.384.416a.556.556,0,0,1-.544.256ZM86.288-4.368a5.941,5.941,0,0,0-.656-.192.109.109,0,0,0-.112.112c0,.048.032.3.032.352a17.824,17.824,0,0,1-.336,2.56C85.152-1.28,84.768,0,84.768.1c0,.064,0,.08.08.08a3.392,3.392,0,0,0,.608-.9c.192-.368.992-2.192,1.216-2.592.048-.1.4-.56.4-.608C87.072-4.1,86.528-4.288,86.288-4.368Zm3.552.7a2.177,2.177,0,0,0-.544-.368A.031.031,0,0,0,89.264-4c0,.048,0,.08.112.352a7.912,7.912,0,0,1,.288,1.36c.128.96.16,1.3.656,1.3.3,0,.592-.24.592-.736A2.847,2.847,0,0,0,89.84-3.664Zm-.208-3.024c0,.192,0,.224-1.072.224-.48,0-.992-.016-1.056-.016-.08-.016-.224-.016-.224-.128a.216.216,0,0,1,.08-.16c.448-.5,2.4-3.136,2.7-3.264.448-.208.464-.224.464-.352,0-.448-1.072-.88-1.376-.88-.16,0-.16.064-.16.272A23.888,23.888,0,0,1,86.976-6.8c-.192.3-.272.3-.576.3a6.148,6.148,0,0,1-1.12-.08c-.064,0-.352-.16-.432-.16-.16,0-.208.192-.208.432s.144,1.12.464,1.12a4.47,4.47,0,0,0,.544-.288A11.541,11.541,0,0,1,87.3-5.76c.224,0,.272.112.272.416.016.336,0,1.952,0,2.32,0,.1-.144,2.816-.16,3.088,0,.08-.048.5-.048.576a.487.487,0,0,0,.512.544c.72,0,.72-.752.72-1.12,0-.784-.048-4.592-.048-5.456,0-.4,0-.512.272-.592a5.209,5.209,0,0,1,.848-.144c.128,0,.192.016.256.256.112.464.16.64.48.64.448,0,.48-.592.48-.7,0-.64-.32-.864-.992-1.344a2.027,2.027,0,0,0-.544-.224.059.059,0,0,0-.064.064.8.8,0,0,0,.128.192A1.66,1.66,0,0,1,89.632-6.688Zm11.632.912c.4,0,4.048-1.7,7.1-5.632.448-.576.5-.64.608-.64s.176.08.24.176a18.2,18.2,0,0,0,1.12,1.76,11.269,11.269,0,0,0,4.656,3.76c.08,0,.128-.048.192-.112a2.208,2.208,0,0,1,.9-.72,5.607,5.607,0,0,0,.608-.288c0-.032-.048-.048-.112-.064-.336-.064-1.024-.288-1.408-.416-3.152-1.088-5.712-3.936-5.712-4.3a.139.139,0,0,1,.064-.112c.128-.08.224-.144.224-.288,0-.384-1.68-.88-1.776-.88-.192,0-.192.128-.192.272,0,1.248-3.52,5.28-6.432,7.312-.016.016-.16.1-.16.112C101.184-5.792,101.232-5.776,101.264-5.776Zm9.28-2.336c-.128-.016-.288.016-.288.176,0,.08.128.432.144.512.064.512.064,1.568.064,2.128,0,1.328,0,3.312-.048,4.448,0,.192-.1,1.168-.1,1.376,0,.176,0,.656.512.656a.819.819,0,0,0,.8-.9c0-.192-.048-1.088-.048-1.3-.032-1.328-.032-2.352-.032-2.688a27.05,27.05,0,0,1,.128-3.344c.048-.08.384-.352.384-.448C112.064-7.824,110.848-8.08,110.544-8.112Zm-4.4.064c-.16,0-.192.08-.192.16a2.384,2.384,0,0,0,.064.288,14.193,14.193,0,0,1,.128,1.9c0,2.208-.368,4.656-3.136,6.144A4.132,4.132,0,0,0,102.16.9c0,.064.1.064.112.064a6.735,6.735,0,0,0,2.016-.736c2.848-1.5,2.976-4.064,2.976-6.528,0-.352,0-.672.192-.816.208-.144.224-.176.224-.272a.271.271,0,0,0-.208-.24A11.88,11.88,0,0,0,106.144-8.048Z" transform="translate(0.737 48.462)" fill="#fff" stroke="#fff" stroke-width="0.1"/>
  </g>
</svg>
