<svg xmlns="http://www.w3.org/2000/svg" width="254.998" height="60.629" viewBox="0 0 254.998 60.629">
  <g id="グループ_31201" data-name="グループ 31201" transform="translate(-875 -592.458)">
    <g id="グループ_30389" data-name="グループ 30389" transform="translate(813 -6840.949)" opacity="0.997">
      <rect id="長方形_7926" data-name="長方形 7926" width="254.998" height="60.629" transform="translate(62 7433.406)" opacity="0.893"/>
      <g id="グループ_31237" data-name="グループ 31237" transform="translate(281.22 7450.343)">
        <g id="グループ_30390" data-name="グループ 30390">
          <path id="パス_129416" data-name="パス 129416" d="M5.013,0,0,4.346l5.013,4" transform="translate(16.079 17.466) rotate(180)" fill="rgba(142,142,142,0)" stroke="#fff" stroke-width="0.75"/>
          <g id="楕円形_58" data-name="楕円形 58" transform="translate(24.865 26.089) rotate(180)" fill="rgba(142,142,142,0)" stroke="#fff" stroke-width="0.75">
            <ellipse cx="12.433" cy="13.044" rx="12.433" ry="13.044" stroke="none"/>
            <ellipse cx="12.433" cy="13.044" rx="12.058" ry="12.669" fill="none"/>
          </g>
        </g>
      </g>
    </g>
    <g id="グループ_31299" data-name="グループ 31299" transform="translate(0 -1.603)">
      <path id="パス_130455" data-name="パス 130455" d="M-36.938-14.278h-4.994l-.176.616c1.606.088,2,.33,1.914,1.364a34.03,34.03,0,0,1-.572,3.762l-.99,5.258h-.066l-6.358-11H-51.5l-.154.616c1.166.066,1.584.2,1.848.66.264.484.352.836.11,2.046L-50.8-5.72c-.44,2.046-.682,3.036-.924,3.784-.286.968-.792,1.254-1.936,1.32L-53.812,0h5.1l.132-.616c-1.54-.11-1.936-.352-1.87-1.364a28.352,28.352,0,0,1,.55-3.7l1.122-5.72h.066L-42.24.176h.748l1.65-8.712a37.352,37.352,0,0,1,.858-3.74c.286-.968.572-1.32,1.914-1.386Zm1.87,0-.154.616c1.8.154,1.914.286,1.562,2.046l-1.716,8.954C-35.728-.9-35.9-.77-37.664-.616L-37.818,0h10.384c.308-.7,1.122-2.772,1.364-3.41l-.638-.22a8.967,8.967,0,0,1-1.5,2.09c-.594.572-1.254.748-2.838.748-1.188,0-1.826-.044-2.156-.33-.286-.264-.308-.836-.088-2.046l.726-3.85h2c1.892,0,1.892.154,1.848,1.738h.66l.836-4.224h-.66C-28.4-8.052-28.534-7.9-30.382-7.9h-2l.9-4.708c.154-.814.22-.9.99-.9h1.584c1.562,0,1.87.2,2.112.7a4.534,4.534,0,0,1,.308,1.958l.66-.044c.154-1.276.352-2.948.418-3.388Zm24.97,0h-4.818l-.132.616.616.088c.7.132.836.308.374.968-.9,1.276-1.914,2.574-2.948,3.828-.77-1.672-1.386-2.948-1.738-3.96-.22-.594-.11-.682.594-.836l.55-.088.132-.616h-5.214l-.154.616c1.474.154,1.672.264,2.31,1.694l2.09,4.818C-20.262-4.84-21.978-2.794-22.7-2A3.407,3.407,0,0,1-25.476-.616L-25.63,0h5.016l.132-.616L-20.988-.7c-.9-.154-.924-.374-.462-1.078.836-1.276,1.958-2.75,3.41-4.576,1.21,2.772,1.672,3.872,1.958,4.6.308.748.2.924-.616,1.056l-.66.088L-17.49,0h5.7l.154-.616c-1.672-.176-1.848-.286-2.6-1.958l-2.42-5.412c1.848-2.244,2.86-3.454,3.564-4.224a3.281,3.281,0,0,1,2.838-1.452Zm13.222-.55a1.294,1.294,0,0,1-1.144.55H-6.38c-.572,0-.814-.044-1.034-.55H-7.92c-.242,1.188-.638,2.64-1.034,3.96h.682a8.549,8.549,0,0,1,1.1-1.98c.418-.484.814-.66,2.64-.66h1.1L-5.5-2.662C-5.83-.946-5.984-.748-7.832-.616L-7.986,0H-1.8l.132-.616C-3.652-.748-3.806-.924-3.5-2.662l2.046-10.846h1.3c1.584,0,2.068.132,2.288.638a4.934,4.934,0,0,1,.264,2l.7-.044c.132-1.232.33-2.948.528-3.916Zm16.17.726a19.307,19.307,0,0,0-2.86.66c-4.268,1.342-7.15,4.8-7.15,9.108,0,2.662,1.518,4.6,3.982,4.6A5.16,5.16,0,0,0,18.26-4.972c0-2.266-1.386-3.806-3.5-3.806A3.64,3.64,0,0,0,13.42-8.4l-1.364.66-.022-.044a8.819,8.819,0,0,1,4.972-4.884,11.492,11.492,0,0,1,2.442-.726ZM13.75-7.568c1.914,0,2.464,1.54,2.464,2.97,0,2.2-1.012,4.114-2.618,4.114-1.584,0-2.266-1.848-2.266-3.74a7.27,7.27,0,0,1,.44-2.684A4.065,4.065,0,0,1,13.75-7.568Zm13.486-7.04H26L18.986.99H20.2Zm2,3.652.484.462a4.108,4.108,0,0,1,3.014-1.958,2.094,2.094,0,0,1,2.288,2.332c0,1.914-1.694,3.806-3.762,5.808-1.452,1.386-2.97,2.684-4.334,3.828L26.884,0h8.272c.4-.946.77-1.87,1.232-2.838L35.816-3.1c-.858,1.254-1.21,1.386-2.442,1.386h-3.85l3.146-2.75c2.6-2.2,4.4-3.74,4.4-6.028a3.246,3.246,0,0,0-3.476-3.476,4.3,4.3,0,0,0-2.948,1.21ZM44.594-13.97a5.058,5.058,0,0,0-4.862,5.016A3.416,3.416,0,0,0,43.076-5.28a3.126,3.126,0,0,0,1.232-.308l1.54-.726A9.566,9.566,0,0,1,38.742-.33l.088.66a11.028,11.028,0,0,0,3.014-.638,9.729,9.729,0,0,0,6.6-9.042C48.444-11.66,47.3-13.97,44.594-13.97Zm-.242.748c1.892,0,2.09,2.376,2.09,3.432a8,8,0,0,1-.418,2.662,3.5,3.5,0,0,1-1.8.572c-1.628,0-2.442-1.21-2.442-2.926C41.778-11.44,42.834-13.222,44.352-13.222Z" transform="translate(997.891 623.061)" fill="#fff"/>
      <path id="パス_130462" data-name="パス 130462" d="M9.552-6.7a1.535,1.535,0,0,0-1.3.756c0,.036.012.048.048.048a.268.268,0,0,0,.12-.036,1.042,1.042,0,0,1,.468-.12C9.3-6.048,9.9-5.88,9.9-5.4a.631.631,0,0,1-.048.216.827.827,0,0,0-.036.1.056.056,0,0,0,.06.06c.048,0,.3-.072.36-.084s.336.024.408.024c.252,0,.4-.324.4-.576C11.04-6.216,10.476-6.7,9.552-6.7Zm-4.4-.348C5.124-7.032,5.1-7.008,5.1-7s.06.144.06.168c0,.168-.336.3-.42.3s-.1-.084-.1-.132a6.41,6.41,0,0,1,.12-.78,4.837,4.837,0,0,0,.252-.624A1.2,1.2,0,0,0,3.78-8.88c-.072,0-.264.024-.264.132a1.2,1.2,0,0,0,.168.192,1.178,1.178,0,0,1,.4.96,8.974,8.974,0,0,1-.12,1.308,5.242,5.242,0,0,1-1.524.36,3.486,3.486,0,0,1-.552-.06c-.036,0-.18-.048-.216-.048a.085.085,0,0,0-.1.084c0,.084.456.912.864.912a2.574,2.574,0,0,0,.852-.228,2.807,2.807,0,0,1,.552-.108c.132,0,.168.18.168.264.012.2.024,1.224.024,1.5,0,.336-.072.372-.684.672A2.565,2.565,0,0,1,2.1-2.532c-.072,0-.42-.06-.492-.06-.216,0-.348.252-.348.468,0,.4.612.756.744.756a2.371,2.371,0,0,0,.456-.24,1,1,0,0,1,.3-.072c.156,0,.216,0,.6.744.1.192.228.444.552.444.432,0,.612-.792.612-1.344,0-.12-.036-.66-.036-.792,0-.2.072-.24.744-.6a6.129,6.129,0,0,1,2.484-.9,1.243,1.243,0,0,1,1.152,1.32c0,.96-1.008,1.488-1.8,1.488-.12,0-.78,0-.78-.576A.5.5,0,0,1,6.4-2.22c.024-.036.048-.06.048-.1a.064.064,0,0,0-.06-.06,1.069,1.069,0,0,0-.6.948c0,.624.552.972,1.236.972.984,0,2.652-.72,2.652-2.3A1.837,1.837,0,0,0,7.824-4.572a5.64,5.64,0,0,0-2.04.48c-.192.072-1.176.48-1.212.48-.108,0-.108-.144-.108-.216s0-1.032.024-1.3c.024-.42.036-.468.2-.528.288-.12,1.2-.48,1.2-.876C5.892-6.9,5.316-7.068,5.148-7.044ZM3.96-2.484C4-2.46,4-2.34,4-2.292c0,.588-.168.924-.336.924s-.5-.384-.5-.564S3.924-2.484,3.96-2.484ZM19.4-7.812c-.24,0-.384-.048-.384-.372,0-.8,0-.888.264-1.056.156-.1.24-.156.24-.252,0-.156-.2-.216-.6-.336a4.254,4.254,0,0,0-.864-.2c-.084,0-.12.024-.12.084a3.374,3.374,0,0,0,.12.372,3.222,3.222,0,0,1,.084.684v.828a.3.3,0,0,1-.348.252H15.852A1.123,1.123,0,0,1,15.18-8c-.66-.432-.72-.468-.936-.468-.084,0-.12.036-.12.132,0,.06.12.552.132.66.048.336.048,1.26.048,1.464,0,.876-.048,2.988-.072,3.312-.012.1-.06.6-.06.648a.347.347,0,0,0,.4.372c.66,0,.672-.312.684-.648,0-.312.216-.312.4-.312H17.8c.216,0,.348.084.348.348,0,.48-.048,2.616-.048,3.048,0,.324.144.348.288.348.672,0,.672-.468.672-.876s-.048-2.136-.048-2.5.2-.372.384-.372H21.54a.306.306,0,0,1,.336.348c0,.18,0,.468.384.468.228,0,.672-.216.672-.612,0-.144-.036-.732-.036-.852,0-.516-.036-2.8-.036-3.252a.635.635,0,0,1,.2-.564c.192-.144.216-.156.216-.228,0-.2-.84-.84-.972-.84-.084,0-.324.36-.4.408a.8.8,0,0,1-.516.156ZM19.38-5.64c-.156,0-.384,0-.384-.348,0-1.5.012-1.5.4-1.5h2.232c.108,0,.36,0,.36.312v1.332a.283.283,0,0,1-.312.2ZM17.8-7.488c.36,0,.372.012.372,1.536,0,.084-.024.312-.348.312h-2.3c-.348,0-.36-.216-.36-.348s0-1.284.012-1.32c.06-.18.264-.18.336-.18Zm.024,2.172a.317.317,0,0,1,.348.336c0,.156-.012,1.56-.036,1.62-.048.2-.24.2-.348.2H15.54a.327.327,0,0,1-.324-.144,14,14,0,0,1-.06-1.656c0-.324.156-.36.372-.36Zm1.548,2.16c-.144,0-.36,0-.36-.336,0-.24,0-1.6.012-1.632.06-.192.264-.192.348-.192H21.66c.312,0,.348.168.348.348,0,1.812-.072,1.812-.4,1.812Zm9.72-6.132c-.072,0-.168.036-.168.12,0,.012.12.288.132.324a1.511,1.511,0,0,1,.108.588c0,.336-.108,1.32-.156,1.716A27.365,27.365,0,0,0,28.728-3.2c0,2.412.744,3.312,2.3,3.312a5.612,5.612,0,0,0,4.032-2.064.056.056,0,0,0-.06-.06c-.048,0-.96.5-1.14.588a5.911,5.911,0,0,1-2.52.624c-1.608,0-1.836-1.08-1.836-2.292a28.843,28.843,0,0,1,.5-4.272,5.519,5.519,0,0,0,.228-.672C30.24-8.316,29.712-9.288,29.088-9.288Zm9.528,4.44c.036.048.06.084.108.084s.216-.036.252-.036c.216-.012.684-.024.816-.024.384,0,.384.192.384.336v2.616c-.024.2-.024.264-.744.624a2.377,2.377,0,0,1-.912.324c-.072.012-.156.024-.156.12,0,.024.468,1.02.7,1.02.132,0,.2-.108.336-.348A13.138,13.138,0,0,1,40.7-1.644c.072,0,.084.036.24.372A2.284,2.284,0,0,0,42.66.132a48.717,48.717,0,0,0,5.568.3c.228,0,.264-.108.4-.432a4.2,4.2,0,0,1,.384-.66c.048-.048.4-.408.4-.432s-.024-.024-.216.048c-.828.324-1.836.516-4.644.516-1.908,0-2.916-.132-3.42-1.092-.12-.216-.156-.36-.156-1.02,0-.228,0-1.812.036-1.884a2.083,2.083,0,0,1,.312-.192c.084-.036.156-.084.156-.192,0-.168-.564-.624-.72-.624a2.4,2.4,0,0,0-.36.276.371.371,0,0,1-.276.108c-.036,0-1.068-.036-1.308-.048-.072,0-.372-.036-.432-.036-.024,0-.048,0-.048.024s.012.036.06.084Zm.924-4.236a3.52,3.52,0,0,0-1-.312c-.036,0-.072.012-.072.036s.024.024.192.156a6.429,6.429,0,0,1,1.4,1.608c.492.828.588,1,.888,1a.445.445,0,0,0,.42-.48A3.265,3.265,0,0,0,39.54-9.084Zm5.148.2c.348,0,.348.228.348.552A9.646,9.646,0,0,1,42.324-2.5c-.132.132-.864.8-.864.816s.012.024.036.024c.084,0,1.788-.576,3.54-3.552.072-.12.372-.756.384-.756s.312.96.36,1.092a6.765,6.765,0,0,0,2.16,3.12.185.185,0,0,0,.132-.072A1.459,1.459,0,0,1,48.66-2.2c.1-.036.7-.084.7-.108s-.828-.492-.972-.6a8.42,8.42,0,0,1-3.12-5.628c0-.216.072-.348.324-.348h.276c.1,0,.348,0,.348-.168,0-.192-.648-.732-.828-.732-.108,0-.12.036-.336.372-.132.2-.216.2-.6.2-.72,0-.744.012-1.632-.024-.12,0-.708-.06-.756-.06a.032.032,0,0,0-.036.036c0,.012,0,.024.048.072L42.3-8.9c.048.048.072.084.108.084a1.82,1.82,0,0,0,.252-.036c.42-.024,1.248-.024,1.524-.024Zm11.58.84a1.691,1.691,0,0,1-.156.54c-.06.108-1.56,2.376-1.836,2.82a.433.433,0,0,1-.3.24c-1.26.444-2.328,1.356-2.328,2.376,0,.3.18.96.792.96.756,0,.96-.444,1.992-2.64.2-.432.228-.48.972-.48a5.2,5.2,0,0,1,2.208.54c.66.324.66.384.66.492a2.21,2.21,0,0,1-.36.684A7.466,7.466,0,0,1,55.44-.132a1.876,1.876,0,0,0-.228.168c0,.036.084.036.1.036a4.424,4.424,0,0,0,1.3-.48,5.177,5.177,0,0,0,2.352-2.22c.036-.06.072-.144.168-.144.12,0,.468.3.492.312.84.72.972.816,1.212.816a.465.465,0,0,0,.444-.456c0-.624-1.092-1.188-1.56-1.44-.2-.108-.276-.144-.276-.3,0-.036.168-1,.168-1.02a2.591,2.591,0,0,0,.264-.468c0-.468-1.044-.66-1.08-.66s-.132,0-.132.072c0,.048.072.576.072.672,0,.12-.072,1.1-.228,1.1a.478.478,0,0,1-.192-.048,9.708,9.708,0,0,0-2.268-.48c-.144-.012-.816,0-.972,0-.036,0-.12-.012-.12-.072a10.9,10.9,0,0,1,1.764-2.436c.624-.576.732-.72.732-.972,0-.18-.18-.72-.972-.72a2.061,2.061,0,0,0-1.152.4c-.72.456-.864.48-1.248.48-.06,0-.336-.048-.408-.048s-.1.048-.1.12c0,.036.336.888.78.888.312,0,.768-.408.924-.552.192-.168.7-.6.852-.6A.154.154,0,0,1,56.268-8.04Zm-2.46,4.116c.036,0,.048.024.048.06s-.78,1.812-1.44,1.812c-.216,0-.312-.144-.312-.348C52.1-3.108,53.376-3.924,53.808-3.924Zm17.772,2.1c.216-.108.84.4,1.188.816.288.36.324.408.468.408a.472.472,0,0,0,.432-.48c0-.708-1.26-1.272-1.848-1.524-.3-.132-.336-.216-.384-.66-.036-.324-.12-1.68-.12-1.944,0-.516,0-.528.444-.72s1.248-.54,1.248-1.1c0-.5-.4-.516-.924-.54-.072,0-.7-.024-.7-.384a.52.52,0,0,1,.072-.252c.12-.192.132-.216.132-.3,0-.456-.8-.624-1.044-.624s-.408.132-.408.2.324.348.372.408c.228.276.228.612.228,1.368,0,.792,0,.792-.66.792a3.591,3.591,0,0,1-1.344-.24,2.087,2.087,0,0,0-.324-.168c-.048,0-.06.048-.06.084a1.7,1.7,0,0,0,1.776,1.068,3.98,3.98,0,0,1,.552.024.4.4,0,0,1,.1.288c.012.336.048,1.608.048,1.68,0,.744,0,.828-.3.828-2.46.036-2.46,1.308-2.46,1.476a1.359,1.359,0,0,0,1.5,1.2,1.979,1.979,0,0,0,1.788-1.14C71.388-1.344,71.5-1.788,71.58-1.824ZM71.412-7.38a.256.256,0,0,1,.144-.048c.168,0,.564.156.564.372,0,.276-.456.42-.624.42-.084,0-.18,0-.18-.456A.364.364,0,0,1,71.412-7.38ZM69.84-2.172c.768,0,.936.1.936.3,0,.408-.732.984-1.44.984-.42,0-.792-.2-.792-.528C68.544-1.764,69.156-2.172,69.84-2.172Zm-3.42.444c0-.348.336-2.076.336-2.46,0-.024,0-.108-.048-.108a6.045,6.045,0,0,0-.492,1.2c-.216.66-.228.708-.336.708-.288,0-.288-.768-.288-.84a8.018,8.018,0,0,1,.432-2.412c.1-.3.624-1.776.624-1.872,0-.216-.6-1.416-1.272-1.416-.072,0-.216.024-.216.1a2.41,2.41,0,0,0,.228.42,1.7,1.7,0,0,1,.276,1,8.083,8.083,0,0,1-.36,1.908,9.166,9.166,0,0,0-.312,2.352c0,1.86.6,3.06,1.2,3.06.276,0,.4-.228.4-.492C66.588-.756,66.42-1.548,66.42-1.728ZM79.848-8.52a3.815,3.815,0,0,0-.4-.12c-.024,0-.06,0-.06.036,0,.12.552.876,2.112,1.164.348.06.384.072.384.144,0,.144-.66.708-.66.816,0,.024.024.024.036.024.048,0,.048.012.168-.06a3.3,3.3,0,0,1,1.512-.576c.828-.06.936-.06.936-.276a1.261,1.261,0,0,0-1.176-.96c-.132,0-.8.024-.948.024A7.194,7.194,0,0,1,79.848-8.52Zm1.14,6.9a2.471,2.471,0,0,1-2.3-1.2c-.024-.06-.108-.444-.192-.444-.024,0-.156.132-.156.588,0,1.884,2.532,2.1,3.72,2.1.66,0,2.7-.06,2.7-.708a.744.744,0,0,0-.792-.564c-.06,0-1.884.252-2.244.252C81.6-1.6,81.072-1.62,80.988-1.62ZM93.1-9.66c-.06,0-.36.048-.36.144,0,.036.036.072.132.18a1.345,1.345,0,0,1,.264.8,3.574,3.574,0,0,1-.24,1.1c-.048.072-.1.1-.24.1a3.573,3.573,0,0,1-1.428-.24,4.686,4.686,0,0,0-.42-.216c-.036,0-.06.048-.06.084,0,.06.18.936,1.7,1.116.2.024.228.024.228.12,0,.336-.624,2.952-.624,3.516,0,.108.1,1.152.588,1.152.252,0,.264-.072.456-.684a2.586,2.586,0,0,1,2.232-1.368A1.352,1.352,0,0,1,96.672-2.3c0,.792-.42,1.788-2.808,2.484a2.706,2.706,0,0,0-.564.2c0,.06.144.06.18.06A7.208,7.208,0,0,0,94.44.36C95.4.2,97.584-.276,97.584-2.3a2.025,2.025,0,0,0-2.052-2.124,3.84,3.84,0,0,0-2.244.768.57.57,0,0,1-.252.132c-.144,0-.144-.4-.144-.552a8.776,8.776,0,0,1,.348-2.208c.036-.156.06-.216.3-.252.792-.132,1.9-.444,1.9-1.128,0-.324-.24-.384-.744-.5a1.2,1.2,0,0,1-.78-.66A1.051,1.051,0,0,0,93.1-9.66Zm.828,1.284c.072,0,.564.384.564.612s-.636.42-.816.42c-.048,0-.12-.012-.12-.084C93.552-7.452,93.768-8.376,93.924-8.376Zm12.264-1.068c-.036.036,0,.108.024.156a.884.884,0,0,1,.2.54c0,.348-.288.468-.96.744a1.475,1.475,0,0,0-1.092,1.44c-.036.444-.324,2.652-.324,3.156,0,.924.408,1.5.912,1.5.408,0,.54-.2,1.092-.984a1.822,1.822,0,0,1,1.56-.9,1.252,1.252,0,0,1,1.332,1.332c0,1.128-1.128,2.076-2.628,2.412-.084.024-.348.084-.348.144,0,.1.168.1.324.1,1.74,0,3.648-.972,3.648-2.436a2.05,2.05,0,0,0-2.2-1.884,3.279,3.279,0,0,0-1.956.768,1.765,1.765,0,0,1-.7.288c-.3,0-.312-.372-.312-.552,0-.3.1-1.32.156-1.764.024-.168.144-.876.144-.984s-.084-.624-.084-.732a.8.8,0,0,1,.852-.792,1.642,1.642,0,0,1,.564.12,2.175,2.175,0,0,0,.708.2.59.59,0,0,0,.612-.576C107.724-8.82,106.272-9.516,106.188-9.444Z" transform="translate(942 641.705)" fill="#fff"/>
    </g>
  </g>
</svg>
