<svg xmlns="http://www.w3.org/2000/svg" width="230.879" height="178.801" viewBox="0 0 230.879 178.801">
  <g id="グループ_31232" data-name="グループ 31232" transform="translate(-79.141 -306)">
    <g id="グループ_31197" data-name="グループ 31197" transform="translate(85.141 437.762)">
      <g id="グループ_31202" data-name="グループ 31202" transform="translate(0 0)">
        <path id="パス_130450" data-name="パス 130450" d="M1-5.319c.054,1.944.054,3.429.081,4.05A6.981,6.981,0,0,0,5.778.405c3.186,0,5.994-2.025,5.994-5.211,0-2.187-1.323-3.618-3.186-5l-.81-.594c-1.4-1.053-2.43-2.025-2.43-3.564a2.943,2.943,0,0,1,2.943-3.078c2.322,0,3.024,1.944,3.24,3.915l.81-.081c.027-1.3,0-2.727.081-3.834-.216-.081-.648-.27-1.161-.459a8.673,8.673,0,0,0-2.673-.459c-3.24,0-5.535,2.025-5.535,4.887,0,2.241,1.728,3.753,3.051,4.779l.783.594c1.539,1.215,2.43,2.268,2.43,3.753A3.094,3.094,0,0,1,6.129-.54C3.186-.54,2.052-3.4,1.782-5.4ZM16.011.324a1.647,1.647,0,0,0,1.647-1.755,1.4,1.4,0,0,0-1.377-1.512,1.676,1.676,0,0,0-1.674,1.782A1.4,1.4,0,0,0,16.011.324ZM31.266-17.523H24.219l-.189.756c2.214.189,2.4.351,2.025,2.349l-2.187,11.2c-.405,2.079-.567,2.3-2.646,2.457L21.033,0h7.1L28.3-.756c-2.187-.162-2.376-.351-1.971-2.457l2.16-11.2c.4-2,.54-2.16,2.619-2.349ZM33.318.324a1.647,1.647,0,0,0,1.647-1.755,1.4,1.4,0,0,0-1.377-1.512,1.676,1.676,0,0,0-1.674,1.782A1.4,1.4,0,0,0,33.318.324ZM58.86-17.523H52.731l-.216.756c1.971.108,2.457.405,2.349,1.674a41.765,41.765,0,0,1-.7,4.617L52.947-4.023h-.081l-7.8-13.5H40.986l-.189.756c1.431.081,1.944.243,2.268.81.324.594.432,1.026.135,2.511L41.85-7.02c-.54,2.511-.837,3.726-1.134,4.644-.351,1.188-.972,1.539-2.376,1.62L38.151,0h6.264l.162-.756c-1.89-.135-2.376-.432-2.295-1.674a34.8,34.8,0,0,1,.675-4.536l1.377-7.02h.081L52.353.216h.918L55.3-10.476a45.842,45.842,0,0,1,1.053-4.59c.351-1.188.7-1.62,2.349-1.7Zm16.5,0H68.31l-.189.756c2.214.189,2.4.351,2.025,2.349l-2.187,11.2c-.4,2.079-.567,2.3-2.646,2.457L65.124,0h7.1l.162-.756c-2.187-.162-2.376-.351-1.971-2.457l2.16-11.2c.4-2,.54-2.16,2.619-2.349Zm20.3,0H89.532l-.216.756c1.971.108,2.457.405,2.349,1.674a41.765,41.765,0,0,1-.7,4.617L89.748-4.023h-.081l-7.8-13.5H77.787l-.189.756c1.431.081,1.944.243,2.268.81.324.594.432,1.026.135,2.511L78.651-7.02c-.54,2.511-.837,3.726-1.134,4.644-.351,1.188-.972,1.539-2.376,1.62L74.952,0h6.264l.162-.756c-1.89-.135-2.376-.432-2.3-1.674a34.8,34.8,0,0,1,.675-4.536l1.377-7.02h.081L89.154.216h.918L92.1-10.476a45.843,45.843,0,0,1,1.053-4.59c.351-1.188.7-1.62,2.349-1.7Zm16.362-.675a1.588,1.588,0,0,1-1.4.675h-10.26c-.7,0-1-.054-1.269-.675h-.621c-.3,1.458-.783,3.24-1.269,4.86h.837a10.492,10.492,0,0,1,1.35-2.43c.513-.594,1-.81,3.24-.81h1.35L101.439-3.267c-.4,2.106-.594,2.349-2.862,2.511L98.388,0h7.587l.162-.756c-2.43-.162-2.619-.378-2.241-2.511l2.511-13.311H108c1.944,0,2.538.162,2.808.783a6.056,6.056,0,0,1,.324,2.457l.864-.054c.162-1.512.4-3.618.648-4.806Zm3.375.675-.189.756c2.214.189,2.349.351,1.917,2.511L115.02-3.267c-.432,2.16-.648,2.322-2.808,2.511L112.023,0h12.744c.378-.864,1.377-3.4,1.674-4.185l-.783-.27a11,11,0,0,1-1.836,2.565c-.729.7-1.539.918-3.483.918-1.458,0-2.241-.054-2.646-.405-.351-.324-.378-1.026-.108-2.511l.891-4.725h2.457c2.322,0,2.322.189,2.268,2.133h.81l1.026-5.184h-.81c-.648,1.782-.81,1.971-3.078,1.971h-2.457l1.107-5.778c.189-1,.27-1.107,1.215-1.107h1.944c1.917,0,2.3.243,2.592.864a5.565,5.565,0,0,1,.378,2.4l.81-.054c.189-1.566.432-3.618.513-4.158ZM143.883-.486A3.251,3.251,0,0,1,142.1-1.755a20.176,20.176,0,0,1-1.674-2.862c-.621-1.242-1.323-2.916-1.593-3.618,2.187-.756,4.212-2.4,4.212-5.13a3.721,3.721,0,0,0-1.674-3.321,7.16,7.16,0,0,0-3.888-.837h-6.048l-.162.756c2.133.189,2.241.3,1.836,2.484L131-3.429c-.459,2.322-.621,2.457-2.673,2.673L128.142,0h6.993l.162-.756c-2.133-.189-2.322-.351-1.863-2.7l.756-4.212h1.053c.945,0,1.3.243,1.7,1.242.567,1.377,1.134,2.727,1.809,4,.945,1.782,1.836,2.538,4.59,2.646h.324Zm-9.5-8.073,1.269-6.615c.135-.7.27-1.026.486-1.188a1.981,1.981,0,0,1,1.188-.27c1.863,0,3.051,1.161,3.051,3.483a4.673,4.673,0,0,1-2,3.915,4.971,4.971,0,0,1-2.835.675Zm31.4-8.964h-6.129l-.216.756c1.971.108,2.457.405,2.349,1.674a41.766,41.766,0,0,1-.7,4.617l-1.215,6.453h-.081l-7.8-13.5h-4.077l-.189.756c1.431.081,1.944.243,2.268.81.324.594.432,1.026.135,2.511L148.77-7.02c-.54,2.511-.837,3.726-1.134,4.644-.351,1.188-.972,1.539-2.376,1.62L145.071,0h6.264l.162-.756c-1.89-.135-2.376-.432-2.295-1.674a34.8,34.8,0,0,1,.675-4.536l1.377-7.02h.081l7.938,14.2h.918l2.025-10.692a45.837,45.837,0,0,1,1.053-4.59c.351-1.188.7-1.62,2.349-1.7Zm.135,12.2c.054,1.944.054,3.429.081,4.05a6.981,6.981,0,0,0,4.7,1.674c3.186,0,5.994-2.025,5.994-5.211,0-2.187-1.323-3.618-3.186-5l-.81-.594c-1.4-1.053-2.43-2.025-2.43-3.564a2.943,2.943,0,0,1,2.943-3.078c2.322,0,3.024,1.944,3.24,3.915l.81-.081c.027-1.3,0-2.727.081-3.834-.216-.081-.648-.27-1.161-.459a8.673,8.673,0,0,0-2.673-.459c-3.24,0-5.535,2.025-5.535,4.887,0,2.241,1.728,3.753,3.051,4.779l.783.594c1.539,1.215,2.43,2.268,2.43,3.753a3.094,3.094,0,0,1-3.186,3.4C168.1-.54,166.968-3.4,166.7-5.4Zm33.75-12.2h-6.939l-.162.756c2.106.189,2.241.378,1.809,2.565l-.81,4.347h-8.532l.837-4.347c.4-2.187.621-2.376,2.538-2.565l.189-.756h-6.912l-.189.756c2.214.189,2.376.351,1.944,2.565L181.332-3.321c-.432,2.16-.54,2.376-2.565,2.565L178.578,0h6.939l.189-.756c-2.187-.189-2.349-.351-1.917-2.565l1-5.373h8.532l-1.026,5.373c-.4,2.16-.567,2.376-2.727,2.565L189.4,0h7.074l.162-.756c-2.16-.189-2.295-.378-1.89-2.565L196.83-14.2c.432-2.187.567-2.376,2.646-2.565Zm9.99,0h-7.047l-.189.756c2.214.189,2.4.351,2.025,2.349l-2.187,11.2c-.4,2.079-.567,2.3-2.646,2.457L199.422,0h7.1l.162-.756c-2.187-.162-2.376-.351-1.971-2.457l2.16-11.2c.4-2,.54-2.16,2.619-2.349Zm3.132,0-.189.756c2.133.216,2.268.378,1.863,2.511L212.3-3.375c-.459,2.268-.648,2.4-2.7,2.619L209.412,0h7.371l.162-.756c-2.457-.216-2.646-.378-2.214-2.619l.81-4.239,1.836.567c.3,0,.648,0,1-.027,3.051-.216,6.453-2.079,6.453-5.886,0-3.078-2.079-4.563-5.8-4.563Zm4.185,2.4c.162-.864.351-1.161.648-1.3a2.563,2.563,0,0,1,1.134-.216c2.214,0,3.429,1.3,3.429,3.537a4.6,4.6,0,0,1-4.536,4.941,5.21,5.21,0,0,1-1.917-.351Z" transform="translate(0 19)" fill="#fff" stroke="#fff" stroke-width="0.1"/>
        <path id="パス_130456" data-name="パス 130456" d="M5.88.54c.06.075.09.105.135.105S6.285.6,6.33.6C6.855.555,7.86.57,8.22.57h5.325c.495,0,.81,0,.81-.21,0-.255-1.32-1.23-1.455-1.23-.18,0-.225.06-.63.585a.932.932,0,0,1-.885.45H10.83c-.39,0-.39-.27-.39-.825,0-1-.045-5.4-.045-6.3,0-.27.03-.495.435-.495h2.085c.48,0,.8,0,.8-.195,0-.285-1.05-1.26-1.26-1.26-.135,0-.18.06-.615.645-.315.42-.39.42-1.095.42-.36,0-.36-.285-.36-.465,0-.4.045-2.895.135-3.1.03-.075.33-.33.33-.4,0-.255-.315-.33-.45-.375-.105-.03-1.035-.315-1.08-.315-.09,0-.12.03-.12.1,0,.12.09.645.09.765.075,1.125.1,1.8.1,3.18,0,.42-.03.615-.39.615-.51,0-1.725-.06-1.875-.06-.075,0-.615-.045-.63-.045s-.045,0-.045.03,0,.03.06.1L6.8-7.47c.06.06.09.09.135.09s.27-.03.315-.03c.525-.045,1.395-.045,1.77-.045.36,0,.36.315.36.465,0,.78-.03,6.555-.06,6.825-.03.33-.3.33-.435.33H8.3c-.84,0-1.62-.03-2.055-.045-.105,0-.57-.06-.66-.06a.048.048,0,0,0-.045.045c0,.015,0,.015.06.09ZM.975-8.64c.045.06.075.09.135.09.045,0,.27-.03.315-.03.525-.03,1.155-.045,1.74-.045h1.05c.135,0,.24.015.24.15,0,.435-2.115,3.06-2.715,3.675A15.1,15.1,0,0,0,.435-3.465c0,.045.045.045.075.045C.9-3.42,2.85-5.115,3-5.115s.15.255.15.42c0,1.77-.06,3.33-.09,4.44C3.06-.09,3,.6,3,.75c0,.21.09.36.45.36A.716.716,0,0,0,4.245.42c0-.21-.075-1.14-.075-1.335,0-.615-.015-3.39-.015-3.96,0-.18,0-.39.135-.39.285,0,.78.765.87.93.39.8.555,1.1.915,1.1.27,0,.525-.225.525-.69,0-1.14-1.41-1.545-1.92-1.665-.36-.075-.495-.105-.495-.42,0-.27.045-.315.48-.765a17.265,17.265,0,0,1,1.4-1.5c.045-.015.255-.06.3-.075a.225.225,0,0,0,.165-.2c0-.09-.03-.12-.36-.435-.045-.03-.36-.4-.54-.585a.284.284,0,0,0-.21-.1c-.135,0-.57.45-.675.51a.534.534,0,0,1-.36.105c-.15,0-.24-.03-.24-.24v-1.26c0-.63,0-.7.075-.84.03-.06.3-.285.3-.345,0-.105-.09-.165-.165-.21A11.532,11.532,0,0,0,3-12.36c-.015,0-.06,0-.06.03,0,.09.075.435.075.51.045.57.06,1.455.06,1.68,0,1.005,0,1.11-.42,1.11C2.34-9.03.96-9.12.675-9.12c-.015,0-.06,0-.06.03,0,.015.015.03.075.105Zm19.89,2.745c-.45,0-.45-.21-.45-.945,0-.36.045-.555.465-.555h5.355c.42,0,.78,0,.78-.18a3.267,3.267,0,0,0-1.23-.915c-.12,0-.525.495-.615.585-.135.12-.195.12-.81.12H20.88c-.465,0-.465-.18-.465-.96,0-.3,0-.57.435-.57h5.34c.435,0,.8,0,.8-.18a3.267,3.267,0,0,0-1.23-.915c-.12,0-.51.51-.615.6s-.195.1-.825.1H20.85c-.435,0-.435-.165-.435-.825,0-.42.045-.555.51-.555H27.36c.495,0,.8,0,.8-.225,0-.18-1.305-.99-1.4-.99-.135,0-.18.06-.6.555-.225.255-.3.255-.96.255H21.135a1.718,1.718,0,0,1-.84-.195,6.887,6.887,0,0,0-.99-.375c-.1,0-.1.075-.1.12,0,.06.135,1.35.15,1.605.03.57.03.9.03,3.855,0,.435-.03.585-.54.585-.36,0-1.965-.105-2.265-.105-.045,0-.06.015-.06.03,0,.03,0,.045.06.105l.3.345c.045.06.075.09.135.09.03,0,.165-.015.21-.015.3-.015,1.11-.06,1.455-.06.435,0,.525.075.525.615,0,.495.015,2.88.015,3.435,0,.345,0,.465-.255.51a7.882,7.882,0,0,1-1.635.1c-.165,0-.39,0-.39.18a.664.664,0,0,0,.075.225c.03.075.24.42.285.5.36.66.405.735.57.735a.19.19,0,0,0,.09-.015c.06-.045.285-.285.345-.33.225-.135,3.8-1.29,4.5-1.53.585-.21,1.665-.57,1.755-.57.165,0,.21.06.675.525A8.979,8.979,0,0,0,28.245.825c.045,0,.255-.195.3-.225a5.478,5.478,0,0,1,.99-.63c.15-.06.255-.12.255-.18s-.045-.09-.27-.12A7.853,7.853,0,0,1,24.96-2.7c0-.09.045-.105.435-.345a8.566,8.566,0,0,1,2.07-1.035c.525-.06.585-.06.585-.21v-.045a6.43,6.43,0,0,0-1.425-.96c-.09,0-.15.15-.255.4a5.453,5.453,0,0,1-1.77,1.8c-.3,0-1.56-1.98-1.56-2.235,0-.12.1-.18.24-.18h5.865c.45,0,.81,0,.81-.18a4.113,4.113,0,0,0-1.26-1.065c-.135,0-.525.555-.645.645a1.6,1.6,0,0,1-1.065.21Zm1.425.39c.3,0,.33.075.6.69a23.016,23.016,0,0,0,1.05,2.13c.225.36.255.405.255.435,0,.165-.075.2-.7.375-.54.165-2.76.69-2.955.69-.225,0-.24-.15-.24-.36-.03-.75-.03-1.8-.03-2.55,0-.21,0-1.05.015-1.125.06-.285.27-.285.42-.285Zm13.575,3.27C35.865.12,38.04.12,38.73.12c.8,0,3.855-.075,3.855-.84,0-.375-.48-.72-.99-.72a4.081,4.081,0,0,0-1.125.225,6.71,6.71,0,0,1-1.8.27c-1.215,0-2.085-.375-2.085-1.4,0-.975.51-2.07,4.08-3.51.54-.21,1.155-.45,1.155-.9a.576.576,0,0,0-.57-.555,4.633,4.633,0,0,0-1.545.7c-.81.51-.9.57-1.11.57-.39,0-.39-1.215-.39-1.785A14.119,14.119,0,0,1,38.34-9.8c.03-.15.21-.825.21-.96,0-.435-.765-1.125-1.62-1.125-.045,0-.4.015-.4.075s.045.09.36.42a1.4,1.4,0,0,1,.45,1.215c0,.39-.075,2.13-.075,2.475a4.823,4.823,0,0,0,.255,1.755,3.814,3.814,0,0,1,.135.465c0,.2-.195.39-.645.81A3.4,3.4,0,0,0,35.865-2.235ZM51.4-.18c.075,0,.375,0,.42.255.045.285.06.405.345.405a.663.663,0,0,0,.69-.63c0-.06-.06-.525-.075-.615-.015-.165-.015-.33-.015-.66,0-.075,0-1.65.015-1.71.015-.075.045-.105.21-.21.06-.045.15-.12.15-.21,0-.33-.945-.69-1.02-.69-.12,0-.15.03-.36.285a.55.55,0,0,1-.495.165H50.19a1.186,1.186,0,0,1-.7-.2,2.134,2.134,0,0,0-.585-.18c-.105,0-.135.105-.135.2,0,.06.06.375.06.435a7.805,7.805,0,0,1,.045,1.17c0,.465-.045,2.505-.045,2.91,0,.12,0,.5.42.5A.63.63,0,0,0,49.89.39c0-.375,0-.57.465-.57Zm0-3.21c.27,0,.42.105.42.42v2a.361.361,0,0,1-.42.4H50.34c-.15,0-.39,0-.435-.27-.06-.33-.06-1.635-.06-2.115,0-.42.285-.435.45-.435Zm6.84-4.71c-.09,0-.375,0-.42-.255-.015-.045-.015-1.4-.015-2.1,0-.375.06-.42.21-.45.12-.03,1.74-.375,1.83-.375.03,0,.435.015.48.015.18,0,.33-.09.33-.225,0-.165-.045-.195-.57-.465a7.22,7.22,0,0,0-.765-.375c-.06,0-.1.03-.42.195-.195.105-1.6.585-1.95.69-.345.12-2.9.66-2.9.78,0,.045.09.075.165.075.33,0,1.95-.21,2.31-.21.27,0,.3.135.3.375v1.9c0,.165,0,.42-.435.42h-.315c-.7,0-1.32-.03-2.055-.06-.09,0-.555-.045-.66-.045-.03,0-.06,0-.06.03s.015.03.075.105l.285.345c.045.06.075.09.135.09.045,0,.27-.03.315-.03.15-.015.585-.045,1.89-.045h.39c.255,0,.435.09.435.405v2.28c0,.45-.045.57-.51.57H55.71a.973.973,0,0,1-.51-.105,2.615,2.615,0,0,0-.84-.285c-.12,0-.18.09-.18.21,0,.06.06.375.06.435a15.361,15.361,0,0,1,.045,1.935c0,.42,0,1.935-.015,2.265,0,.03-.03.42-.03.525,0,.15,0,.48.48.48.63,0,.63-.45.63-.705,0-.375.285-.39.48-.39h2.955c.15,0,.42.015.465.27.045.33.075.42.375.42a.685.685,0,0,0,.75-.675c0-.15-.09-.87-.09-1.035-.03-.555-.045-2.1-.045-2.325a.5.5,0,0,1,.075-.315c.045-.06.345-.3.345-.39a2.121,2.121,0,0,0-1.035-.735c-.135,0-.15.03-.315.255a.593.593,0,0,1-.51.165h-.51c-.24,0-.5,0-.5-.42,0-.27,0-2.34.015-2.505.015-.27.21-.33.435-.33h2.52c.51,0,.855,0,.855-.24s-1.08-.99-1.275-.99-.285.165-.525.57c-.165.27-.33.27-.96.27Zm.54,4.05c.195,0,.48,0,.48.42V-.855c0,.375-.3.375-.495.375H55.83c-.18,0-.435,0-.5-.21-.075-.255-.075-2.355-.075-2.76,0-.465.045-.6.525-.6Zm-6.42-7.065c.33,0,.525,0,.525-.2,0-.24-.84-.945-1.05-.945-.1,0-.15.06-.495.525-.18.225-.195.225-.615.225-.375,0-1.125-.03-1.515-.06-.06-.015-.36-.045-.375-.045s-.03.015-.03.03c0,.03,0,.03.045.105l.195.345c.03.045.06.09.09.09.045,0,.27-.045.315-.045.345-.03.855-.03,1.23-.03ZM49.95-9.675c-.375,0-1.125-.03-1.515-.06-.06,0-.375-.045-.375-.045-.03,0-.045.015-.045.03s.015.03.045.1l.21.345c.03.06.045.09.09.09a2.65,2.65,0,0,0,.315-.045c.405-.03.9-.03,1.215-.03h3.42c.36,0,.555,0,.555-.18,0-.24-1.005-1.02-1.23-1.02-.135,0-.165.06-.54.585-.15.225-.21.225-.39.225Zm.735,1.8c-.375,0-1.125-.03-1.515-.06-.06-.015-.36-.045-.36-.045-.03,0-.045.015-.045.03s0,.03.045.09l.195.36c.03.045.06.09.1.09s.255-.045.3-.045c.39-.03.96-.03,1.23-.03H52.5c.42,0,.645,0,.645-.18,0-.21-.765-.84-1.02-.84-.075,0-.1.045-.435.4-.18.21-.195.225-.42.225ZM50.73-5.85c-.4,0-1.08,0-1.5-.045-.06,0-.375-.045-.375-.045-.03,0-.045,0-.045.03,0,.015,0,.03.045.09l.195.345c.045.075.06.105.1.105s.18-.03.21-.03a9.006,9.006,0,0,1,1.32-.045h1.86c.39,0,.615,0,.615-.18a2.142,2.142,0,0,0-.885-.825c-.12,0-.21.135-.405.39a.39.39,0,0,1-.42.21Zm22.83-4.215a1.214,1.214,0,0,0-1.275-1.05c-.075,0-.33.015-.33.165,0,.03.27.54.285.555a2.21,2.21,0,0,1,.18,1.035c0,.2-.03.915-.075,1.215s-.165.33-1.1.48c-.39.06-2.28.48-2.385.48-.195,0-.195-.12-.195-.435a8.276,8.276,0,0,1,.075-1.155,3.069,3.069,0,0,0,.075-.465c0-.525-.93-.945-1.29-.945-.18,0-.435.075-.435.21,0,.06.3.585.345.705A3.656,3.656,0,0,1,67.68-7.7c0,.555-.015.69-.255.765a7.026,7.026,0,0,1-1.905.21c-.135,0-.765-.06-.915-.06s-.195.015-.195.21c0,.825,1.215,1.11,1.545,1.11.225,0,1.26-.465,1.515-.465s.27.15.27,1.41c0,2.85,0,4.05,4.29,4.05.345,0,1.71,0,1.71-.705a.781.781,0,0,0-.81-.645,4.734,4.734,0,0,0-.72.1,6.756,6.756,0,0,1-1.32.12c-2.1,0-2.37-.705-2.37-2.115,0-.045.03-1.41.045-1.905a1.206,1.206,0,0,1,.135-.615c.195-.33,2.91-.93,3.225-.93.225,0,.225.075.225.195a6.662,6.662,0,0,1-.435,1.71.54.54,0,0,1-.51.39c-.135,0-.81-.27-.975-.27-.03,0-.075,0-.075.03a1.8,1.8,0,0,0,.195.315,5.449,5.449,0,0,1,.285.66c.135.435.195.6.7.6.54,0,1.35-.765,1.635-2.985.09-.78.105-.81.975-.81.27,0,1.575.165,1.875.165s.735-.105.735-.495c0-.3-.225-.54-1.17-.81a8.079,8.079,0,0,0-1.08-.27c-.03,0-.12,0-.12.06a.123.123,0,0,0,.06.09c.27.255.3.285.3.375,0,.165-.135.18-.465.21-.12,0-.645.06-.705.06-.045,0-.165,0-.165-.075,0-.09.015-.2.12-1.2C73.35-9.345,73.56-10.035,73.56-10.065ZM87.765-1.3c-.21,0-.3-.135-.51-.405a2.215,2.215,0,0,0-1.71-.96A1.444,1.444,0,0,0,84.06-1.455C84.06-.7,85.125.09,86.61.09c1.9,0,3.75-1.335,3.75-3.24a3.238,3.238,0,0,0-3.375-3.12,3.629,3.629,0,0,0-1.32.24c-.09.03-.285.105-.375.135-.045,0-.09-.06-.09-.105a9.147,9.147,0,0,1,2.4-3.075c.72-.495,1.065-.735,1.065-1.17,0-.66-.975-1.035-1.575-1.035-.33,0-.435.045-1.365.45a7.273,7.273,0,0,1-2.325.54c-.315,0-.36,0-.36.045,0,.075.465,1.035,1.17,1.035.255,0,.465-.045,1.065-.54.255-.21,1.14-.96,1.695-.96.18,0,.285.1.285.21,0,.165-.21.48-.7,1.185A49.406,49.406,0,0,1,83.16-4.8C82.1-3.555,81.975-3.225,81.975-2.85a.413.413,0,0,0,.435.42c.4,0,.555-.285.855-.8.27-.465,1.545-2.52,3.525-2.52a2.374,2.374,0,0,1,2.535,2.28A2.219,2.219,0,0,1,87.765-1.3Zm-1.38.15a.248.248,0,0,1-.255.27c-.645,0-1.29-.315-1.29-.705a.613.613,0,0,1,.63-.525A1.02,1.02,0,0,1,86.385-1.155ZM102.36-7.41c.285-.36.765-.9,1.02-1.26A4.284,4.284,0,0,1,104.4-9.9a.378.378,0,0,0,.135-.3c0-.57-1.515-1.2-1.74-1.2a.148.148,0,0,0-.15.12,1.667,1.667,0,0,0,.105.24.849.849,0,0,1,.12.42c0,.42-1.17,2.97-4.71,6-.24.21-.66.555-1.05.9a.136.136,0,0,0-.045.105c0,.06.03.09.075.09A16.475,16.475,0,0,0,101.4-6.39c.12-.12.18-.18.255-.18.39,0,.39,1.575.39,2.115,0,.795-.06,1.95-.15,2.76-.015.15-.165.81-.165.96,0,.4.51,1.05.93,1.05.36,0,.36-.51.36-.66,0-.195-.09-1.065-.105-1.245-.03-.585-.045-1.4-.045-1.8a14.483,14.483,0,0,1,.09-2.655c.015-.09.18-.51.18-.6,0-.135-.06-.2-.645-.555A.242.242,0,0,1,102.36-7.41Zm14.715-.99c0-.885-1.26-1.74-2.865-1.74-.21,0-.33.075-.33.135s.075.1.135.135a3.379,3.379,0,0,1,1.365,1.23c.5.75.645.99,1.05.99A.663.663,0,0,0,117.075-8.4Zm6.24-.135a.1.1,0,0,0-.075-.075c-.03,0-.45.42-.69.66-2.49,2.46-6.465,5.115-7.2,5.115a2.483,2.483,0,0,1-1.02-.345,3.734,3.734,0,0,0-.45-.285c-.135,0-.15.69-.15.8,0,.6,1.11,1.56,1.92,1.56.225,0,.255-.03.54-.375a10.474,10.474,0,0,1,1.47-1.23A20.41,20.41,0,0,0,123.315-8.535ZM128.4-.03c-.03.135.105.135.135.135A12.948,12.948,0,0,0,134.07-3.51c.3-.315.39-.42.525-.42s.315.285.345.345c.57.96.63,1.065.945,1.065a.646.646,0,0,0,.645-.72,2.094,2.094,0,0,0-.63-1.32c-.27-.345-.285-.375-.285-.51,0-.12.03-.165.165-.375.18-.3,1.2-1.725,1.41-2.055.45-.7.51-.78.735-.885.27-.12.375-.165.375-.39,0-.48-1.08-1.155-1.23-1.155a3.6,3.6,0,0,0-.555.33,9.188,9.188,0,0,1-2.25.36c-.195,0-.51-.03-.51-.255,0-.09.165-.495.165-.585a1.338,1.338,0,0,0-1.35-.885c-.09,0-.285,0-.285.09,0,.105.24.585.24.7,0,.855-1.23,2.97-3.015,4.9a4.922,4.922,0,0,0-.54.645.07.07,0,0,0,.075.075c.495,0,2.31-1.965,2.655-1.965.375,0,2.16,1.14,2.16,1.605S131.8-2,128.73-.255C128.445-.09,128.415-.09,128.4-.03Zm6.135-5.655a.846.846,0,0,1-.345-.105,16.73,16.73,0,0,0-1.65-.765c-.375-.15-.51-.195-.51-.4A12.272,12.272,0,0,1,133.3-8.64a.236.236,0,0,1,.18-.06,1.008,1.008,0,0,1,.36.06,1.363,1.363,0,0,0,.45.06c.27,0,1.59-.195,1.815-.195.1,0,.255.045.255.21A7.549,7.549,0,0,1,134.535-5.685Zm11.31-.36a8.169,8.169,0,0,1-1.83-.135c-.075-.015-.435-.18-.51-.18s-.12.09-.12.18c0,.51.69,1.44,1.335,1.44.18,0,.99-.24,1.17-.27.36-.075,3.795-.27,5.865-.27.3,0,1.8.03,2.145.03.63,0,1.245-.045,1.245-.465,0-.105-.135-.66-1.05-.66-.075,0-.24.015-.33.015C151.575-6.24,146.34-6.045,145.845-6.045ZM164.325-8.4c0-.885-1.26-1.74-2.865-1.74-.21,0-.33.075-.33.135s.075.1.135.135a3.379,3.379,0,0,1,1.365,1.23c.495.75.645.99,1.05.99A.663.663,0,0,0,164.325-8.4Zm6.24-.135a.1.1,0,0,0-.075-.075c-.03,0-.45.42-.69.66-2.49,2.46-6.465,5.115-7.2,5.115a2.483,2.483,0,0,1-1.02-.345,3.734,3.734,0,0,0-.45-.285c-.135,0-.15.69-.15.8,0,.6,1.11,1.56,1.92,1.56.225,0,.255-.03.54-.375a10.475,10.475,0,0,1,1.47-1.23A20.41,20.41,0,0,0,170.565-8.535ZM177.81-.48c.2,0,.915-.675,1.1-.795,6.21-4.35,7.53-7.56,7.53-7.725a.055.055,0,0,0-.06-.06,7.15,7.15,0,0,0-.645.675c-3.585,4.065-7.62,6.315-8.265,6.315-.12,0-.69-.195-.825-.195-.09,0-.135.045-.135.105a.637.637,0,0,0,.09.285c.045.075.315.39.36.465C177.33-.72,177.48-.48,177.81-.48Zm-.57-6.915c-.2,0-1.05.015-1.05.225,0,.06.09.12.135.15a3.639,3.639,0,0,1,1.365,1.245c.225.375.3.465.525.465.36,0,.585-.45.585-.75C178.8-6.8,177.885-7.395,177.24-7.395Zm1.74-2.865a1.786,1.786,0,0,0-1.155.285c0,.045.165.09.225.105a2.611,2.611,0,0,1,1.29.795c.54.645.615.7.78.7.24,0,.48-.33.48-.675C180.6-9.09,180.6-10.26,178.98-10.26Zm20.265,3.435c0,1.29-1.755,4.11-4.95,6.555a6.406,6.406,0,0,0-.84.63.1.1,0,0,0,.09.09,13.134,13.134,0,0,0,6.1-5.3,12.231,12.231,0,0,1,.765-1.29c.255-.15.315-.165.315-.285,0-.435-.6-.8-.84-.915a3.337,3.337,0,0,0-.675-.375.1.1,0,0,0-.1.1.956.956,0,0,0,.03.135A1.521,1.521,0,0,1,199.245-6.825Zm-6.57.5c-.1,0-.2.045-.2.135,0,.045.03.09.105.195a5.365,5.365,0,0,1,.87,1.515c.1.33.21.675.54.675a.546.546,0,0,0,.51-.57C194.505-5.58,193.035-6.33,192.675-6.33Zm2.6-1.38c-.075-.015-.15.03-.15.075a1.7,1.7,0,0,0,.165.33,4.708,4.708,0,0,1,.555,1.425c.045.255.12.63.45.63.27,0,.51-.33.51-.765A1.9,1.9,0,0,0,195.27-7.71Zm22.59-3.99a1.425,1.425,0,0,0-1.47,1.425,1.474,1.474,0,0,0,1.455,1.455,1.463,1.463,0,0,0,1.44-1.455A1.4,1.4,0,0,0,217.86-11.7Zm-.03.51a1,1,0,0,1,.96.945.925.925,0,0,1-.93.915.931.931,0,0,1-.975-.9A.965.965,0,0,1,217.83-11.19ZM207.015-9.36c-.09,0-.135.045-.135.33,0,.825,1.2,1.575,1.545,1.575a5.44,5.44,0,0,0,.75-.33,49.219,49.219,0,0,1,5.4-1.08c.075,0,.33.015.33.27a8.475,8.475,0,0,1-1.02,2.535A19.523,19.523,0,0,1,207.96-.12c-.15.105-.2.135-.2.2a.1.1,0,0,0,.1.09,15.264,15.264,0,0,0,7.74-6.99,2.483,2.483,0,0,1,.585-.945c.27-.27.345-.345.345-.54s-.09-.375-.765-.975c-.465-.405-.7-.615-1.035-.615-.105,0-.165.03-.63.24a38.836,38.836,0,0,1-5.655.7,3.534,3.534,0,0,1-1.245-.315C207.18-9.27,207.045-9.36,207.015-9.36Z" transform="translate(0 45.678)" fill="#fff" stroke="#fff" stroke-width="0.5"/>
      </g>
    </g>
    <path id="パス_130343" data-name="パス 130343" d="M215.177,14.615A49.639,49.639,0,0,0,180.238,0h-.219c-.155,0-.3.005-.46.005-21.591.144-33.774,8.644-44.636,18.624-2.042,1.876-12.06,11-23.879,21.751C103.224,26.092,84.236,0,49.976,0A50.261,50.261,0,0,0,0,49.661H0v.016H0v.011A50.264,50.264,0,0,0,49.762,99.332c.043,0,2.325-.032,2.422-.037,19.431-.6,32.346-8.836,42.893-18.528,2.047-1.882,12.07-11.012,23.9-21.767,7.842,14.294,26.819,40.338,61.047,40.338A50.27,50.27,0,0,0,230,49.671V49.65h0v-.011A49.6,49.6,0,0,0,215.177,14.615ZM49.976.818A60.555,60.555,0,0,1,78.832,7.954,71.29,71.29,0,0,1,98.605,23.911,93.9,93.9,0,0,1,110.43,40.942c-16.09,14.626-35.292,32.052-42.294,38.3-7.441,6.645-16.513,10.884-30.368,10.884-12.781,0-20.789-4.49-27.546-12.642A49.239,49.239,0,0,1,1.438,49.671C1.609,22.73,23.382.818,49.976.818ZM228.557,49.88c-.283,26.84-22.013,48.634-48.538,48.634a60.55,60.55,0,0,1-28.85-7.136A71.076,71.076,0,0,1,131.4,75.426a93.958,93.958,0,0,1-11.808-16.994c16.085-14.626,35.276-32.031,42.273-38.28,7.441-6.645,16.513-10.948,30.368-10.948,12.781,0,20.794,4.49,27.551,12.642a49.256,49.256,0,0,1,8.778,27.6v.428Z" transform="translate(79.141 306)" fill="#fff"/>
  </g>
</svg>
