<svg xmlns="http://www.w3.org/2000/svg" width="98.372" height="47.025" viewBox="0 0 98.372 47.025">
  <g id="グループ_31218" data-name="グループ 31218" transform="translate(-1.919 -2.056)">
    <path id="パス_130451" data-name="パス 130451" d="M19.778-20.894a1.823,1.823,0,0,1-1.612.775H6.386c-.806,0-1.147-.062-1.457-.775H4.216c-.341,1.674-.9,3.72-1.457,5.58H3.72A12.046,12.046,0,0,1,5.27-18.1c.589-.682,1.147-.93,3.72-.93h1.55L7.626-3.751c-.465,2.418-.682,2.7-3.286,2.883L4.123,0h8.711l.186-.868c-2.79-.186-3.007-.434-2.573-2.883L13.33-19.034h1.829c2.232,0,2.914.186,3.224.9a6.953,6.953,0,0,1,.372,2.821l.992-.062c.186-1.736.465-4.154.744-5.518Zm13.113.279c-6.51,0-11.315,5.8-11.315,12.276,0,5.27,3.379,8.8,8.277,8.8C36.487.465,41.2-5.115,41.2-11.718,41.2-16.926,37.882-20.615,32.891-20.615ZM32.674-19.5c3.844,0,5.27,3.286,5.27,7.378,0,5.146-2.883,11.47-7.843,11.47-3.658,0-5.3-3.193-5.3-7.316C24.8-13.485,27.993-19.5,32.674-19.5Zm13.175-.62-.217.868c2.449.248,2.6.434,2.139,2.883L45.291-3.875c-.527,2.6-.744,2.759-3.1,3.007L41.974,0h8.463l.186-.868C47.8-1.116,47.585-1.3,48.081-3.875l.93-4.867,2.108.651c.341,0,.744,0,1.147-.031,3.5-.248,7.409-2.387,7.409-6.758,0-3.534-2.387-5.239-6.665-5.239Zm4.805,2.759c.186-.992.4-1.333.744-1.488a2.942,2.942,0,0,1,1.3-.248c2.542,0,3.937,1.488,3.937,4.061a5.285,5.285,0,0,1-5.208,5.673,5.982,5.982,0,0,1-2.2-.4Z" transform="translate(0.102 23)" fill="#fff" stroke="#fff" stroke-width="0.1"/>
    <path id="パス_130457" data-name="パス 130457" d="M11.68-10.736A1.533,1.533,0,0,0,10.112-9.2a1.572,1.572,0,0,0,1.552,1.552,1.561,1.561,0,0,0,1.52-1.568A1.483,1.483,0,0,0,11.68-10.736Zm-.032.544a1.073,1.073,0,0,1,1.024,1.024,1,1,0,0,1-.992.976,1,1,0,0,1-1.04-.976A1.041,1.041,0,0,1,11.648-10.192Zm-4.8.848c-.448,0-.7.208-1.456.816-2,1.616-2.816,1.92-3.552,1.92-.08,0-.416-.064-.5-.064-.1,0-.112.112-.112.192a.687.687,0,0,0,.192.5c.816.848,1.024.928,1.344.928a1.024,1.024,0,0,0,.8-.5,3.341,3.341,0,0,1,.72-.816c2.256-2.1,2.272-2.1,2.544-2.1a.761.761,0,0,1,.48.24c.176.192.96,1.184,1.152,1.408,3.968,4.8,5.184,4.8,5.648,4.8.288,0,.672-.112.672-.48a.789.789,0,0,0-.352-.592c-.208-.176-1.408-.9-1.68-1.072A25.63,25.63,0,0,1,8.464-8.176C8.032-8.72,7.488-9.344,6.848-9.344Zm14.32,2.9a8.713,8.713,0,0,1-1.952-.144c-.08-.016-.464-.192-.544-.192s-.128.1-.128.192c0,.544.736,1.536,1.424,1.536.192,0,1.056-.256,1.248-.288.384-.08,4.048-.288,6.256-.288.32,0,1.92.032,2.288.032.672,0,1.328-.048,1.328-.5,0-.112-.144-.7-1.12-.7-.08,0-.256.016-.352.016C27.28-6.656,21.7-6.448,21.168-6.448ZM37.76-7.68c-.1,0-1.12,0-1.12.24,0,.064.112.128.16.16a4.148,4.148,0,0,1,1.456,1.312c.24.4.32.5.56.5.384,0,.608-.464.608-.8C39.424-7.056,38.448-7.68,37.76-7.68Zm2.672-2.96a2.2,2.2,0,0,0-.816-.16c-.48,0-1.216.16-1.216.336,0,.064.016.064.24.144a2.706,2.706,0,0,1,1.392.864c.56.656.624.736.8.736.256,0,.528-.336.528-.752A1.4,1.4,0,0,0,40.432-10.64ZM38.384-.3c.176,0,.24-.048.832-.512.128-.1.192-.144,1.168-.752C46.656-5.52,47.456-8,47.456-8.032a.1.1,0,0,0-.1-.1c-.048,0-.976.944-1.152,1.12-2.816,2.592-7.168,4.976-8.032,4.976-.16,0-.88-.256-.928-.256a.117.117,0,0,0-.128.128.652.652,0,0,0,.08.288c.032.08.288.416.336.512C37.856-.672,38.048-.3,38.384-.3Zm7.936-12.56c-.288,0-.608,0-.608.144,0,.032.032.112.176.192a4.015,4.015,0,0,1,1.3,1.04c.224.368.448.7.784.7A.471.471,0,0,0,48.4-11.3C48.4-12.4,46.736-12.864,46.32-12.864ZM44.48-11.84c-.1,0-.288.016-.288.112,0,.064.144.208.208.256A4.986,4.986,0,0,1,45.424-10.4c.4.624.544.8.784.8.3,0,.512-.416.512-.608C46.72-11.056,45.408-11.84,44.48-11.84Zm11.792-.1.032.064a1.775,1.775,0,0,1,.544.736c.192.512.192,1.024.192,5.6A33.116,33.116,0,0,1,56.9-1.824c0,.064-.064.4-.064.464,0,.416.416,1.5.9,1.5.464,0,.464-1.056.464-1.456,0-.24-.016-.64-.032-.816-.064-1.44-.08-2.288-.08-3.984,0-1.184.064-1.184.224-1.184.5,0,1.248.752,1.7,1.344C61.072-4.56,61.12-4.5,61.52-4.5a.548.548,0,0,0,.576-.56c0-1.2-2.48-2.368-3.456-2.592-.464-.112-.528-.16-.528-.512a20.754,20.754,0,0,1,.144-2.224,4.636,4.636,0,0,0,.192-.672c0-.512-1.152-1.024-1.728-1.024C56.7-12.08,56.288-12.08,56.272-11.936ZM78.128-7.28c0,1.376-1.872,4.384-5.28,6.992a6.833,6.833,0,0,0-.9.672.1.1,0,0,0,.1.1A14.01,14.01,0,0,0,78.56-5.168a13.044,13.044,0,0,1,.816-1.376c.272-.16.336-.176.336-.3,0-.464-.64-.848-.9-.976a3.56,3.56,0,0,0-.72-.4.109.109,0,0,0-.112.112,1.02,1.02,0,0,0,.032.144A1.622,1.622,0,0,1,78.128-7.28Zm-7.008.528c-.112,0-.208.048-.208.144,0,.048.032.1.112.208a5.723,5.723,0,0,1,.928,1.616c.112.352.224.72.576.72a.582.582,0,0,0,.544-.608C73.072-5.952,71.5-6.752,71.12-6.752Zm2.768-1.472c-.08-.016-.16.032-.16.08a1.808,1.808,0,0,0,.176.352,5.022,5.022,0,0,1,.592,1.52c.048.272.128.672.48.672.288,0,.544-.352.544-.816A2.027,2.027,0,0,0,73.888-8.224Zm24.1-4.256a1.52,1.52,0,0,0-1.568,1.52,1.572,1.572,0,0,0,1.552,1.552A1.561,1.561,0,0,0,99.5-10.96,1.489,1.489,0,0,0,97.984-12.48Zm-.032.544a1.07,1.07,0,0,1,1.024,1.008.987.987,0,0,1-.992.976.993.993,0,0,1-1.04-.96A1.029,1.029,0,0,1,97.952-11.936ZM86.416-9.984c-.1,0-.144.048-.144.352,0,.88,1.28,1.68,1.648,1.68a5.8,5.8,0,0,0,.8-.352,52.5,52.5,0,0,1,5.76-1.152c.08,0,.352.016.352.288a9.04,9.04,0,0,1-1.088,2.7,20.824,20.824,0,0,1-6.32,6.336c-.16.112-.208.144-.208.208a.106.106,0,0,0,.112.1A16.282,16.282,0,0,0,95.584-7.28a2.648,2.648,0,0,1,.624-1.008c.288-.288.368-.368.368-.576,0-.224-.1-.4-.816-1.04-.5-.432-.752-.656-1.1-.656-.112,0-.176.032-.672.256a41.425,41.425,0,0,1-6.032.752,3.769,3.769,0,0,1-1.328-.336C86.592-9.888,86.448-9.984,86.416-9.984Z" transform="translate(0.737 48.551)" fill="#fff" stroke="#fff" stroke-width="0.1"/>
  </g>
</svg>
