<svg xmlns="http://www.w3.org/2000/svg" xmlns:xlink="http://www.w3.org/1999/xlink" width="1040.437" height="497.859" viewBox="0 0 1040.437 497.859">
  <defs>
    <filter id="パス_38568" x="0" y="0" width="1040.437" height="497.859" filterUnits="userSpaceOnUse">
      <feOffset input="SourceAlpha"/>
      <feGaussianBlur stdDeviation="14.23" result="blur"/>
      <feFlood flood-color="#fff" flood-opacity="0.749"/>
      <feComposite operator="in" in2="blur"/>
      <feComposite in="SourceGraphic"/>
    </filter>
    <clipPath id="clip-path">
      <rect id="長方形_9509" data-name="長方形 9509" width="197.766" height="11.4" fill="none"/>
    </clipPath>
  </defs>
  <g id="グループ_31501" data-name="グループ 31501" transform="translate(-162.782 -826.57)">
    <g id="レイヤー_1" data-name="レイヤー 1" transform="translate(205.472 869.26)">
      <g transform="matrix(1, 0, 0, 1, -42.69, -42.69)" filter="url(#パス_38568)">
        <path id="パス_38568-2" data-name="パス 38568" d="M936.226,103.395C897.071,64.473,845.579,42.953,791.151,42.72h-.9c-.637,0-1.274.031-1.911.031C698.7,43.357,648.095,78.643,603,120.082c-8.484,7.8-50.078,45.681-99.162,90.305C471.353,151.064,392.515,42.72,250.252,42.72c-54.77,0-106.62,21.551-145.977,60.69C64.933,142.519,43.072,194.2,42.73,248.921v.109c.342,54.646,22.2,106.34,61.56,145.464,39.155,38.922,90.631,60.457,145.076,60.69.171,0,9.665-.14,10.053-.155,80.687-2.5,134.324-36.7,178.109-76.927,8.5-7.8,50.125-45.743,99.255-90.4,32.551,59.354,111.374,167.5,253.482,167.5,54.77,0,106.62-21.551,145.977-60.706,39.342-39.124,61.2-90.8,61.545-145.511v-.109c-.342-54.631-22.2-106.325-61.545-145.433Zm-685.975-57.3c42.7,0,83.018,9.975,119.827,29.646,29.77,15.911,57.4,38.207,82.1,66.253a390.052,390.052,0,0,1,49.1,70.712c-66.812,60.737-146.552,133.1-175.623,159.044-30.9,27.595-68.568,45.184-126.1,45.184-53.077,0-86.343-18.645-114.389-52.5A204.659,204.659,0,0,1,48.7,248.921c.7-111.856,91.113-202.86,201.555-202.86Zm741.537,203.73C990.624,361.259,900.4,451.781,790.234,451.781c-42.682,0-82.987-9.975-119.8-29.63-29.77-15.9-57.4-38.192-82.1-66.237a389.475,389.475,0,0,1-49.021-70.572c66.8-60.721,146.474-133.018,175.529-158.966,30.9-27.595,68.568-45.463,126.1-45.463,53.077,0,86.343,18.645,114.4,52.5A204.425,204.425,0,0,1,991.789,248.02v1.771Z" transform="translate(-0.04 -0.03)" fill="#fff" opacity="0.503"/>
      </g>
    </g>
    <g id="グループ_26554" data-name="グループ 26554" transform="translate(319.272 1046.608)">
      <g id="グループ_26217" data-name="グループ 26217" transform="translate(0 0)">
        <g id="グループ_26252" data-name="グループ 26252" transform="translate(0 0)">
          <path id="パス_38462" data-name="パス 38462" d="M1.729,31.169c.7,4.857,3.321,11.437,10.346,11.437,4.538,0,7.666-3.193,7.666-8.244,0-3.638-2.233-6.069-5.939-9.006l-1.788-1.4c-2.941-2.366-7.158-5.878-7.158-11.181,0-6.647,5.3-11.437,12.968-11.437A18.808,18.808,0,0,1,23.9,2.421c1.212.445,2.3.828,2.809,1.021-.252,2.683-.126,6.069-.191,8.945l-1.851.193C24.153,7.789,22.492,3.442,17,3.442c-4.473,0-7.158,3.578-7.158,7.475,0,3.7,2.617,6,5.943,8.561L17.7,20.883c4.407,3.321,7.41,6.647,7.41,11.691,0,7.475-6.58,12.206-13.929,12.206C6.072,44.78,1.6,42.414.193,40.818.133,39.347.133,35.9,0,31.36Z" transform="translate(0 1.667)" fill="#fff"/>
          <path id="パス_38463" data-name="パス 38463" d="M36.216,9.952a24.106,24.106,0,0,0-5.939.767L31.424,5.8l-.636-.319a19.493,19.493,0,0,0-4.664,3.7l-.7,2.876a30.722,30.722,0,0,0-6.134,3.2l.45,1.6a30.566,30.566,0,0,1,5.174-2.3C22.544,25.6,20.12,36.784,17.754,47.969c-.895,3.958-1.6,4.468-5.622,5.235l-.256,1.664L26.634,54.1l.191-1.662-1.531-.126c-3.132-.319-3.517-.895-2.75-4.533l1.79-9.013a10.415,10.415,0,0,0,3.771.643,25.262,25.262,0,0,0,11.882-7.416,20.621,20.621,0,0,0,5.426-13.22c0-5.687-2.618-8.819-9.2-8.819M29.317,36.6a5.733,5.733,0,0,1-3.962-2.172L29.7,13.145A15.386,15.386,0,0,1,33.34,12.7c3.706,0,6.712,1.405,6.712,7.092,0,8.176-6.2,16.8-10.735,16.8" transform="translate(14.83 6.848)" fill="#fff"/>
          <path id="パス_38464" data-name="パス 38464" d="M56.194,28.748c-1.851,1.851-4.088,3.321-4.6,3.321-.385,0-.578-.51-.126-2.75,1.471-8.111,3.384-16.8,4.405-20.762l-.191-.252a12.663,12.663,0,0,1-2.426-.385,20.716,20.716,0,0,0-3.962-.45c-4.023,0-8.687,2.24-11.882,4.922-4.664,3.9-7.668,10.861-7.668,17.311,0,5.116,2.042,7.223,3.706,7.223,1.723,0,3.836-1.154,5.943-2.876a46,46,0,0,0,8.237-8.819h.133L46.484,31.3c-.893,4.666-.065,5.626,1.147,5.626,1.6,0,5.878-2.366,9.332-6.647Zm-7.535-8.435c-2.174,4.407-9.4,12.525-11.887,12.525-.895,0-1.725-1.345-1.725-4.221,0-6.323,2.557-13.863,6.9-17.059a7.96,7.96,0,0,1,4.538-1.338,10.63,10.63,0,0,1,4.282.895c-.45,2.04-1.405,6.645-2.107,9.2" transform="translate(37.143 9.329)" fill="#fff"/>
          <path id="パス_38465" data-name="パス 38465" d="M64.906,29.836c-3.962,4.533-9.006,7.09-12.777,7.09-4.088,0-6.838-3.258-6.838-9.391A22.09,22.09,0,0,1,51.87,12.2c2.62-2.3,7.092-4.731,10.225-4.731,2.746,0,4.792,1.6,4.853,3.2a3.523,3.523,0,0,1-2.107,2.941c-.51.319-.956.191-1.405-.385a5.628,5.628,0,0,0-4.792-2.75c-2.3,0-4.088,1.923-5.3,4.221a25.09,25.09,0,0,0-2.811,11.565c0,4.533,1.79,6.9,4.533,6.9,3.261,0,7.158-2.944,8.88-4.731Z" transform="translate(56.554 9.328)" fill="#fff"/>
          <path id="パス_38466" data-name="パス 38466" d="M67.411,33.156c-3.9,0-4.983-3.769-4.983-7.216a11.456,11.456,0,0,1,.13-2.046c6.13-1.531,16.865-4.985,16.865-11.307,0-2.75-2.237-5.116-5.624-5.116-2.678,0-6.065,1.471-8.815,3.578-5.048,3.836-7.666,10.544-7.666,16.548,0,7.6,4.088,9.33,7.029,9.33,3.063,0,7.853-1.212,13.479-7.223l-1.086-1.466c-3.2,3.13-6.647,4.918-9.33,4.918m1.41-22.3a5.234,5.234,0,0,1,2.618-.762c1.851,0,3.2,1.273,3.2,3.512,0,2.937-2.685,5.878-11.821,8.3,1.086-7.155,4.279-10.092,6.009-11.052" transform="translate(71.575 9.329)" fill="#fff"/>
          <path id="パス_38467" data-name="パス 38467" d="M99.964,3.453c-4.983.51-5.307.83-6.2,5.494l-5.17,26.9c-.96,4.916-.576,5.3,4.659,5.685l-.385,1.723H76.512l.45-1.723c4.983-.385,5.428-.834,6.389-5.685l5.177-26.9c.895-4.664.443-4.983-4.857-5.494l.45-1.664h16.222Z" transform="translate(95.541 2.234)" fill="#fff"/>
          <path id="パス_38468" data-name="パス 38468" d="M117.17,30.729c-3.771,4.088-7.349,6.2-9.006,6.2-1.6,0-2.174-1.727-1.021-6.645,1.212-4.792,2.3-9.456,3.447-14.183.893-3.643.51-4.6-.51-4.6-2.811,0-10.22,7.92-13.42,13.353-.762,3.128-1.723,6.96-2.492,10.8a30.9,30.9,0,0,0-4.6,1.277l-.378-.508c1.723-6.906,3.638-14.572,5.17-21.664.515-2.042.324-2.552-.061-2.552-.576,0-2.557,1.34-4.156,2.876l-.828-1.536c3.445-3.771,7.216-6.069,9.006-6.069,1.471,0,1.723,2.172.51,7.09l-1.34,5.559h.126A43.159,43.159,0,0,1,109.376,8.874a8.652,8.652,0,0,1,4.282-1.4c1.531,0,3.321.96,1.405,9.137-1.021,4.347-2.049,8.815-3.128,13.288-.385,1.729-.324,2.3.126,2.3.576,0,2.3-1.147,4.214-3Z" transform="translate(111.375 9.329)" fill="#fff"/>
          <path id="パス_38469" data-name="パス 38469" d="M133.721,30.729c-3.771,4.088-7.349,6.2-9.006,6.2-1.6,0-2.174-1.727-1.021-6.645,1.212-4.792,2.3-9.456,3.447-14.183.893-3.643.51-4.6-.51-4.6-2.811,0-10.225,7.92-13.42,13.353-.762,3.128-1.723,6.96-2.492,10.8a30.9,30.9,0,0,0-4.6,1.277l-.378-.508c1.722-6.906,3.638-14.572,5.17-21.664.515-2.042.324-2.552-.061-2.552-.576,0-2.557,1.34-4.156,2.876l-.828-1.536c3.445-3.771,7.216-6.069,9.006-6.069,1.471,0,1.723,2.172.51,7.09l-1.34,5.559h.126A43.16,43.16,0,0,1,125.927,8.874a8.652,8.652,0,0,1,4.282-1.4c1.531,0,3.321.96,1.405,9.137-1.021,4.347-2.049,8.815-3.128,13.288-.385,1.729-.324,2.3.126,2.3.576,0,2.3-1.147,4.214-3Z" transform="translate(132.042 9.329)" fill="#fff"/>
          <path id="パス_38470" data-name="パス 38470" d="M138.278,7.471a16.207,16.207,0,0,0-6.9,2.049c-5.3,2.809-9.714,9.132-9.714,17.441,0,5.174,2.366,9.966,8.435,9.966a15.9,15.9,0,0,0,9.84-4.027c4.473-3.706,6.834-9.966,6.834-15.462,0-6.321-3.2-9.966-8.5-9.966m-3.832,26.515a5.265,5.265,0,0,1-2.046.385c-3.387,0-5.368-3-5.368-7.729,0-9.84,4.279-15.08,6.771-16.168a5.722,5.722,0,0,1,2.433-.571c2.935,0,5.17,2.494,5.17,7.668,0,8.179-3.512,14.945-6.96,16.416" transform="translate(151.924 9.329)" fill="#fff"/>
          <path id="パス_38471" data-name="パス 38471" d="M146.841,30.6c2.618-3.254,9.9-12.584,9.9-16.865a5.43,5.43,0,0,0-.7-2.811,2.267,2.267,0,0,1,0-1.6,3.1,3.1,0,0,1,2.743-1.855c1.536,0,2.683,1.471,2.75,3.645,0,1.981-1.021,4.473-3.964,8.561-3.7,5.177-9.388,12.519-13.22,17.25H142.62c-.191-5.943-.895-15.97-1.212-19.872-.319-3.832-.7-4.918-1.147-4.918-.578,0-1.729,1.021-3.771,3.387l-1.021-1.405c2.3-3.321,5.554-6.647,7.6-6.647,1.657,0,2.492,2.431,2.811,7.09.259,5.626.636,10.8.828,16.038Z" transform="translate(169.162 9.329)" fill="#fff"/>
          <path id="パス_38472" data-name="パス 38472" d="M175.063,28.748c-1.848,1.851-4.088,3.321-4.6,3.321-.385,0-.576-.51-.126-2.75,1.471-8.111,3.384-16.8,4.405-20.762l-.191-.252a12.663,12.663,0,0,1-2.426-.385,20.716,20.716,0,0,0-3.962-.45c-4.023,0-8.687,2.24-11.882,4.922-4.664,3.9-7.666,10.861-7.666,17.311,0,5.116,2.042,7.223,3.7,7.223,1.723,0,3.836-1.154,5.943-2.876a46.007,46.007,0,0,0,8.239-8.819h.13l-1.28,6.069c-.893,4.666-.065,5.626,1.149,5.626,1.6,0,5.876-2.366,9.33-6.647Zm-7.535-8.435c-2.174,4.407-9.4,12.525-11.887,12.525-.9,0-1.725-1.345-1.725-4.221,0-6.323,2.559-13.863,6.9-17.059a7.96,7.96,0,0,1,4.538-1.338,10.63,10.63,0,0,1,4.282.895c-.45,2.04-1.405,6.645-2.107,9.2" transform="translate(185.578 9.329)" fill="#fff"/>
          <path id="パス_38473" data-name="パス 38473" d="M180.412,15.666l-6.328.324L170.32,33.618c-.643,3.135-.324,3.836.378,3.836,1.086,0,4.221-2.107,5.752-3.7l.895,1.338c-2.109,2.559-6.9,6.838-10.286,6.838-1.471,0-2.75-1.853-1.34-8.435l3.767-17.5h-4.727l-.191-.576,1.6-1.916H170l1.471-6.069,4.857-3.964.576.385L174.66,13.5h7.416Z" transform="translate(205.498 4.327)" fill="#fff"/>
          <path id="パス_38474" data-name="パス 38474" d="M185.644,30.538c-2.107,2.618-7.09,6.389-9.325,6.389-1.277,0-2.107-1.025-.834-6.263l3.964-16.355c.382-1.405.382-2.046-.067-2.046-.51,0-2.426,1.086-4.34,2.748l-.769-1.471c3.512-3.445,7.985-6.069,9.714-6.069,1.405,0,1.338,2.046.636,5.048l-4.407,17.634c-.385,1.531-.259,2.042.126,2.042.769,0,3-1.657,4.473-3Z" transform="translate(217.615 9.329)" fill="#fff"/>
          <path id="パス_38475" data-name="パス 38475" d="M183.438,4.892a3.566,3.566,0,0,1-3.387,3.7,2.689,2.689,0,0,1-2.683-2.809,3.755,3.755,0,0,1,3.512-3.771c1.662,0,2.492,1.345,2.557,2.876" transform="translate(221.483 2.517)" fill="#fff"/>
          <path id="パス_38476" data-name="パス 38476" d="M199.676,7.471a16.207,16.207,0,0,0-6.9,2.049c-5.3,2.809-9.714,9.132-9.714,17.441,0,5.174,2.366,9.966,8.435,9.966a15.9,15.9,0,0,0,9.84-4.027c4.473-3.706,6.834-9.966,6.834-15.462,0-6.321-3.2-9.966-8.5-9.966m-3.832,26.515a5.265,5.265,0,0,1-2.046.385c-3.387,0-5.368-3-5.368-7.729,0-9.84,4.279-15.08,6.771-16.168a5.722,5.722,0,0,1,2.433-.571c2.935,0,5.17,2.494,5.17,7.668,0,8.179-3.512,14.945-6.96,16.416" transform="translate(228.593 9.329)" fill="#fff"/>
          <path id="パス_38477" data-name="パス 38477" d="M225.162,30.729c-3.771,4.088-7.349,6.2-9.006,6.2-1.6,0-2.174-1.727-1.021-6.645,1.212-4.792,2.3-9.456,3.447-14.183.895-3.643.51-4.6-.51-4.6-2.811,0-10.22,7.92-13.42,13.353-.762,3.128-1.723,6.96-2.492,10.8a30.9,30.9,0,0,0-4.6,1.277l-.378-.508c1.722-6.906,3.638-14.572,5.17-21.664.515-2.042.324-2.552-.061-2.552-.576,0-2.557,1.34-4.156,2.876l-.828-1.536c3.445-3.771,7.216-6.069,9.006-6.069,1.471,0,1.723,2.172.51,7.09l-1.34,5.559h.126A43.159,43.159,0,0,1,217.368,8.874a8.652,8.652,0,0,1,4.282-1.4c1.531,0,3.321.96,1.405,9.137-1.021,4.347-2.049,8.815-3.128,13.288-.385,1.729-.324,2.3.126,2.3.576,0,2.3-1.147,4.214-3Z" transform="translate(246.226 9.329)" fill="#fff"/>
          <path id="パス_38478" data-name="パス 38478" d="M268.046,3.453c-3.836.252-4.731,1.212-5.559,4.023a106.158,106.158,0,0,0-2.426,10.861L255.2,43.763h-1.916L234.376,9.907h-.193L230.864,26.9A86.993,86.993,0,0,0,229.2,37.633c-.126,2.937,1.028,3.58,5.433,3.9l-.382,1.723H219.618L220,41.53c3.319-.191,4.79-.96,5.624-3.7a98.717,98.717,0,0,0,2.678-11.12l3.326-15.718c.636-3.254.445-4.149-.382-5.554-.769-1.345-1.855-1.729-5.435-1.981l.385-1.664h9.2l18.842,32.519h.259l2.941-15.97a100.847,100.847,0,0,0,1.723-10.922c.191-3.007-.828-3.643-5.559-3.962l.45-1.664h14.374Z" transform="translate(274.239 2.234)" fill="#fff"/>
          <path id="パス_38479" data-name="パス 38479" d="M251.932,33.156c-3.9,0-4.983-3.769-4.983-7.216a11.456,11.456,0,0,1,.13-2.046c6.13-1.531,16.865-4.985,16.865-11.307,0-2.75-2.24-5.116-5.624-5.116-2.678,0-6.065,1.471-8.815,3.578-5.048,3.836-7.666,10.544-7.666,16.548,0,7.6,4.088,9.33,7.029,9.33,3.063,0,7.853-1.212,13.479-7.223l-1.086-1.466c-3.2,3.13-6.647,4.918-9.33,4.918m1.41-22.3a5.234,5.234,0,0,1,2.618-.762c1.851,0,3.2,1.273,3.2,3.512,0,2.937-2.685,5.878-11.821,8.3,1.086-7.155,4.279-10.092,6.008-11.052" transform="translate(301.988 9.329)" fill="#fff"/>
          <path id="パス_38480" data-name="パス 38480" d="M271.327,15.666,265,15.99l-3.764,17.628c-.643,3.135-.324,3.836.385,3.836,1.079,0,4.214-2.107,5.745-3.7l.895,1.338c-2.109,2.559-6.9,6.838-10.286,6.838-1.471,0-2.75-1.853-1.34-8.435l3.767-17.5h-4.727l-.191-.576,1.6-1.916h3.832l1.471-6.069,4.857-3.964.576.385-2.24,9.649h7.416Z" transform="translate(319.024 4.327)" fill="#fff"/>
          <path id="パス_38481" data-name="パス 38481" d="M292.094,30.346c2.617-3.578,9.006-12.4,9.006-16.488a6.682,6.682,0,0,0-.636-2.935,1.744,1.744,0,0,1,0-1.6,3.076,3.076,0,0,1,2.618-1.855c1.6,0,2.75,1.405,2.75,3.645,0,2.172-1.212,4.282-2.618,6.706-2.175,3.512-9.908,14.183-13.486,19.105h-1.79c-.51-6.771-1.147-13.479-1.788-19.933h-.126c-4.09,6.834-8.754,14.309-12.2,19.933h-1.662c-.061-6.2-.385-14.439-.636-20.576-.133-3.063-.384-4.214-1.021-4.214-.452,0-1.412.769-3.771,3.261l-1.086-1.28c2.683-3.578,6-6.647,8.176-6.647,1.471,0,2.175,1.923,2.3,6.328.126,5.111.191,10.861.191,15.078h.126c3.836-6.58,8.113-13.546,11.882-20.443h1.6c.7,7.155,1.277,14.565,2.046,21.914Z" transform="translate(331.716 9.328)" fill="#fff"/>
          <path id="パス_38482" data-name="パス 38482" d="M302.357,7.471a16.216,16.216,0,0,0-6.9,2.049c-5.3,2.809-9.712,9.132-9.712,17.441,0,5.174,2.366,9.966,8.433,9.966a15.894,15.894,0,0,0,9.84-4.027c4.475-3.706,6.834-9.966,6.834-15.462,0-6.321-3.193-9.966-8.5-9.966m-3.829,26.515a5.273,5.273,0,0,1-2.046.385c-3.387,0-5.368-3-5.368-7.729,0-9.84,4.277-15.08,6.769-16.168a5.73,5.73,0,0,1,2.433-.571c2.937,0,5.172,2.494,5.172,7.668,0,8.179-3.515,14.945-6.96,16.416" transform="translate(356.814 9.329)" fill="#fff"/>
          <path id="パス_38483" data-name="パス 38483" d="M300.535,13.734c3.261-3.638,7.223-6.263,8.945-6.263,1.6,0,1.664,2.941.7,7.416l-.636,3.193h.191c3.254-6.263,7.025-10.609,9.582-10.609a3.453,3.453,0,0,1,2.746,1.6,2.81,2.81,0,0,1-.061,2.75,6.666,6.666,0,0,1-1.664,1.851c-.576.385-1.086.385-1.405.065a2.958,2.958,0,0,0-2.172-1.086c-.769,0-1.79.641-3.261,2.683a43.759,43.759,0,0,0-4.533,7.927c-1.021,4.279-1.788,8.3-2.557,12.519a23.617,23.617,0,0,0-4.533,1.151l-.51-.51c1.657-6.838,3.447-14.7,4.659-21.529.385-2.109.385-2.75-.126-2.75-.576,0-2.617,1.277-4.533,3.067Z" transform="translate(375.281 9.329)" fill="#fff"/>
          <path id="パス_38484" data-name="パス 38484" d="M338.18,40.439c-3,4.731-5.687,5.817-7.029,5.817s-2.62-.769-4.216-4.221a128.247,128.247,0,0,1-4.857-11.882,27.663,27.663,0,0,0-3.573,4.09c-.708,3.452-1.471,7.155-2.172,10.8a27.912,27.912,0,0,0-4.6,1.212l-.452-.385C314.35,32.838,317.227,20,319.97,6.708c.511-2.552.191-2.811-2.3-2.876l-1.981-.061.324-1.536C321.182,1.664,324.569,0,325.4,0c.636,0,.571.578.319,1.851-2.175,9.521-4.216,18.912-6.389,28.435h.065a67.991,67.991,0,0,1,5.494-5.752c3.573-3.645,8.239-7.733,11.181-7.733,1.722,0,2.683,1.028,2.683,1.981a4.467,4.467,0,0,1-1.277,2.559c-.385.317-.769.443-1.021.317a5.721,5.721,0,0,0-2.433-.51c-2.935,0-6.515,3.321-8.3,5.3a75.315,75.315,0,0,0,5.235,12.584c1.154,2.366,1.79,3.069,2.492,3.069.643,0,2.049-1.088,3.645-2.937Z" transform="translate(388.7 0)" fill="#fff"/>
        </g>
      </g>
    </g>
    <g id="グループ_26557" data-name="グループ 26557" transform="translate(584.117 911.226)">
      <g id="グループ_26556" data-name="グループ 26556" transform="translate(0 0)" clip-path="url(#clip-path)">
        <path id="パス_39080" data-name="パス 39080" d="M.679,8.423c.166,1.248.757,2.7,2.524,2.7A1.737,1.737,0,0,0,5.068,9.246,2.688,2.688,0,0,0,3.66,7.033l-.549-.41a3.739,3.739,0,0,1-1.9-2.943C1.209,1.87,2.594.513,4.835.513A9,9,0,0,1,7.521.966a21.851,21.851,0,0,0-.342,2.5L6.6,3.515c-.037-1.144-.35-2.378-1.947-2.378A1.67,1.67,0,0,0,2.92,2.968c0,.851.435,1.355,1.321,1.992l.577.416c1.157.836,2.082,1.7,2.082,3.08,0,1.961-1.685,3.334-3.875,3.334A6.363,6.363,0,0,1,0,11.015c.038-.4.083-1.362.121-2.531Z" transform="translate(0 -0.391)" fill="#fff"/>
        <path id="パス_39081" data-name="パス 39081" d="M37.249,39.766a1.05,1.05,0,0,1-1.058-1.13A1.273,1.273,0,0,1,37.453,37.3a1.061,1.061,0,0,1,1.069,1.157,1.253,1.253,0,0,1-1.273,1.306" transform="translate(-27.569 -28.416)" fill="#fff"/>
        <path id="パス_39082" data-name="パス 39082" d="M59.247,2.041c-1.363.105-1.464.227-1.707,1.5l-1.286,6.668c-.249,1.284-.121,1.422,1.285,1.521l-.126.551H52.525l.111-.551c1.291-.106,1.452-.243,1.7-1.521l1.3-6.668c.254-1.283.143-1.4-1.231-1.5l.132-.552h4.829Z" transform="translate(-40.011 -1.134)" fill="#fff"/>
        <path id="パス_39083" data-name="パス 39083" d="M82.49,39.766a1.05,1.05,0,0,1-1.058-1.13A1.273,1.273,0,0,1,82.694,37.3a1.061,1.061,0,0,1,1.069,1.157,1.253,1.253,0,0,1-1.273,1.306" transform="translate(-62.031 -28.416)" fill="#fff"/>
        <path id="パス_39084" data-name="パス 39084" d="M110.32,2.041c-1.107.072-1.373.349-1.561,1.036-.143.531-.321,1.236-.614,2.812l-1.262,6.563h-.808L101.2,3.864l-.8,4.164c-.277,1.4-.388,2.15-.438,2.676-.061.775.277.951,1.521,1.04l-.121.541H97.241l.111-.541c1-.088,1.4-.287,1.632-1.024a26.607,26.607,0,0,0,.637-2.769l.864-4.25a1.234,1.234,0,0,0-.227-1.228,1.911,1.911,0,0,0-1.309-.433l.138-.552h2.857l4.7,7.977.69-3.584c.315-1.62.4-2.325.449-2.79.077-.791-.3-1-1.488-1.051l.127-.552h4.032Z" transform="translate(-74.074 -1.134)" fill="#fff"/>
        <path id="パス_39085" data-name="パス 39085" d="M172.3,1.489c2.138,0,3.373.854,3.373,2.32,0,1.563-1.351,2.4-2.806,2.684,1.337.288,2.564,1.108,2.564,2.525,0,2.1-2.008,3.267-4.712,3.267h-4.742l.11-.541c1.291-.105,1.463-.264,1.717-1.549l1.3-6.624c.248-1.3.093-1.425-1.247-1.53l.132-.552Zm-2.621,8.639c-.243,1.262.3,1.511,1.249,1.511a2.517,2.517,0,0,0,2.441-2.7c0-1.537-1.063-2.064-2.459-2.064h-.61ZM171.089,6.2c1.867,0,2.643-1.062,2.643-2.364a1.53,1.53,0,0,0-1.674-1.691c-.675,0-.844.049-1,.923l-.61,3.132Z" transform="translate(-126.43 -1.134)" fill="#fff"/>
        <path id="パス_39086" data-name="パス 39086" d="M219.689,12.412h-.242c-2.016-.034-2.5-.547-3.051-1.606-.367-.723-.726-1.654-1.037-2.42-.239-.577-.417-.785-.95-.785h-.558l-.471,2.548c-.244,1.343-.085,1.453,1.247,1.6l-.121.541h-4.823l.111-.541c1.226-.116,1.473-.243,1.717-1.58l1.268-6.623c.266-1.33.083-1.4-1.219-1.5l.132-.552h4.29c2.232,0,3.49.947,3.49,2.64A3.312,3.312,0,0,1,216.857,7.2c.3.783.629,1.545.923,2.177.969,2.016,1.356,2.318,2.057,2.534Zm-5.136-5.457a2.564,2.564,0,0,0,2.888-2.748c0-1.12-.578-2.068-1.745-2.068-.545,0-.8.055-.954.876l-.754,3.941Z" transform="translate(-159.726 -1.134)" fill="#fff"/>
        <path id="パス_39087" data-name="パス 39087" d="M263.66,11.733h-4.528l.126-.541c1.175-.122,1.242-.315,1.149-1.072-.083-.605-.194-1.3-.311-2.065h-3.262c-.3.564-.761,1.322-1.078,1.972-.407.818-.3,1.021,1.067,1.164l-.121.541h-3.987l.138-.541c1.182-.154,1.365-.265,2.265-1.789L260.045.869l.71-.1c.688,4.376,1.129,6.817,1.472,8.86.2,1.26.315,1.431,1.582,1.569ZM259.4,3.375h-.033c-.717,1.339-1.489,2.7-2.138,3.908h2.759Z" transform="translate(-192.507 -0.582)" fill="#fff"/>
        <path id="パス_39088" data-name="パス 39088" d="M313.323,2.041c-1.107.072-1.373.349-1.561,1.036-.143.531-.321,1.236-.614,2.812l-1.262,6.563h-.808L304.2,3.864l-.8,4.164c-.277,1.4-.388,2.15-.438,2.676-.061.775.277.951,1.521,1.04l-.121.541h-4.121l.111-.541c1-.088,1.4-.287,1.632-1.024a26.611,26.611,0,0,0,.637-2.769l.864-4.25a1.234,1.234,0,0,0-.227-1.228,1.911,1.911,0,0,0-1.309-.433l.138-.552h2.857l4.7,7.977.69-3.584c.315-1.62.4-2.325.449-2.79.077-.791-.3-1-1.488-1.051l.127-.552h4.032Z" transform="translate(-228.712 -1.134)" fill="#fff"/>
        <path id="パス_39089" data-name="パス 39089" d="M359.1,1.488c3.545,0,5.469,1.778,5.458,4.611a5.723,5.723,0,0,1-2.7,5.022,8.45,8.45,0,0,1-4.849,1.163h-4.239l.127-.541c1.281-.106,1.473-.309,1.7-1.523l1.291-6.62c.249-1.291.188-1.456-1.225-1.561l.127-.552Zm-2.568,8.5c-.277,1.471.576,1.588,1.464,1.588,2.833,0,4.434-2.588,4.434-5.611,0-2.272-.978-3.8-3.226-3.8-.958,0-1.177.148-1.343,1.023Z" transform="translate(-268.726 -1.133)" fill="#fff"/>
        <path id="パス_39090" data-name="パス 39090" d="M425.364,8.423c.166,1.248.757,2.7,2.524,2.7a1.737,1.737,0,0,0,1.865-1.878,2.688,2.688,0,0,0-1.408-2.213l-.549-.41a3.739,3.739,0,0,1-1.9-2.943c0-1.81,1.385-3.167,3.626-3.167a9,9,0,0,1,2.686.453,21.848,21.848,0,0,0-.342,2.5l-.574.044c-.037-1.144-.349-2.378-1.947-2.378A1.67,1.67,0,0,0,427.6,2.968c0,.851.435,1.355,1.321,1.992l.577.416c1.157.836,2.082,1.7,2.082,3.08,0,1.961-1.685,3.334-3.875,3.334a6.363,6.363,0,0,1-3.025-.776c.038-.4.083-1.362.121-2.531Z" transform="translate(-323.506 -0.391)" fill="#fff"/>
        <path id="パス_39091" data-name="パス 39091" d="M472.126,0c-.193.71-.393,2.02-.542,2.982l-.6.033a5.274,5.274,0,0,0-.1-1.086c-.1-.634-.358-.878-1.578-.878h-.981L466.8,9.077c-.238,1.259-.138,1.428,1.4,1.534l-.121.541h-5.086l.127-.541c1.412-.105,1.539-.3,1.777-1.534l1.551-8.026h-.8c-1.264,0-1.557.194-1.889.648A6.43,6.43,0,0,0,462.99,3l-.607-.028A28.393,28.393,0,0,0,463.107,0h.425c.177.36.338.355.786.355h6.519A.927.927,0,0,0,471.669,0Z" transform="translate(-352.223 0)" fill="#fff"/>
        <path id="パス_39092" data-name="パス 39092" d="M503.89,11.733h-4.528l.126-.541c1.175-.122,1.242-.315,1.149-1.072-.083-.605-.194-1.3-.311-2.065h-3.262c-.3.564-.761,1.322-1.078,1.972-.407.818-.3,1.021,1.067,1.164l-.121.541h-3.987l.138-.541c1.182-.154,1.365-.265,2.265-1.789L500.275.869l.71-.1c.688,4.376,1.129,6.817,1.472,8.86.2,1.26.315,1.431,1.582,1.569Zm-4.263-8.358h-.033c-.717,1.339-1.489,2.7-2.138,3.908h2.759Z" transform="translate(-375.503 -0.582)" fill="#fff"/>
        <path id="パス_39093" data-name="パス 39093" d="M551.53,0c-.193.71-.393,2.02-.542,2.982l-.6.033a5.271,5.271,0,0,0-.1-1.086c-.1-.634-.358-.878-1.578-.878h-.981L546.2,9.077c-.238,1.259-.138,1.428,1.4,1.534l-.121.541h-5.086l.127-.541c1.412-.105,1.539-.3,1.777-1.534l1.55-8.026h-.8c-1.264,0-1.557.194-1.889.648a6.43,6.43,0,0,0-.758,1.3l-.607-.028A28.393,28.393,0,0,0,542.511,0h.425c.177.36.338.355.786.355h6.519A.928.928,0,0,0,551.073,0Z" transform="translate(-412.709 0)" fill="#fff"/>
        <path id="パス_39094" data-name="パス 39094" d="M587.949,1.435c.84,0,1.631,0,2.256-.016-.111.528-.293,1.814-.432,2.611l-.59.038c-.067-1.576-.295-1.937-1.4-1.937h-1.321c-.6,0-.816.076-.943.708l-.654,3.431h1.441c1.384,0,1.439-.2,1.915-1.351h.585L588.128,8.4h-.585c.022-1.279.028-1.423-1.362-1.423h-1.473l-.57,3.011c-.239,1.179-.141,1.549.931,1.549H586.1a2.248,2.248,0,0,0,1.78-.51,6,6,0,0,0,1.2-1.6l.557.209c-.188.562-.741,2.042-.99,2.6h-8.38l.127-.541c1.375-.117,1.552-.221,1.8-1.528l1.3-6.643c.249-1.3.134-1.418-1.236-1.534l.143-.552Z" transform="translate(-442.028 -1.081)" fill="#fff"/>
        <path id="パス_39095" data-name="パス 39095" d="M638.6,2.041c-1.245.133-1.425.193-1.609,1.421-.349,2.44-.56,4.346-.82,6.522-.184,1.535-.066,1.645,1.253,1.761l-.127.541h-4.7l.138-.541c1.2-.122,1.32-.226,1.559-1.75.349-2.376.632-4.445.965-6.663h-.05c-1.719,2.959-3.77,6.524-5.1,8.954h-.468c-.385-2.369-1.161-5.788-1.755-8.885h-.055L626.8,7.627c-.4,1.635-.592,2.517-.653,2.974-.138.85.115,1.038,1.34,1.143l-.127.541h-4.087l.138-.541c1.13-.083,1.39-.315,1.677-1.078.234-.626.529-1.545.967-3.2L627,3.891c.4-1.52.388-1.694-1.158-1.85l.176-.552h3.168C629.7,3.863,630.5,6.9,631,9.225l4.566-7.736h3.2Z" transform="translate(-474.778 -1.134)" fill="#fff"/>
        <path id="パス_39096" data-name="パス 39096" d="M694.68,1.435c.84,0,1.631,0,2.256-.016-.111.528-.293,1.814-.432,2.611l-.59.038c-.067-1.576-.295-1.937-1.4-1.937H693.2c-.6,0-.816.076-.943.708L691.6,6.27h1.441c1.384,0,1.439-.2,1.915-1.351h.585L694.859,8.4h-.585c.022-1.279.028-1.423-1.362-1.423H691.44l-.57,3.011c-.239,1.179-.141,1.549.931,1.549h1.035a2.248,2.248,0,0,0,1.78-.51,6,6,0,0,0,1.2-1.6l.557.209c-.188.562-.741,2.042-.99,2.6h-8.38l.127-.541c1.375-.117,1.551-.221,1.8-1.528l1.3-6.643c.249-1.3.134-1.418-1.236-1.534l.143-.552Z" transform="translate(-523.33 -1.081)" fill="#fff"/>
        <path id="パス_39097" data-name="パス 39097" d="M742.756,2.041c-1.107.072-1.373.349-1.561,1.036-.143.531-.321,1.236-.614,2.812l-1.262,6.563h-.808l-4.876-8.587-.8,4.164c-.277,1.4-.388,2.15-.438,2.676-.06.775.277.951,1.521,1.04l-.121.541h-4.121l.111-.541c1-.088,1.4-.287,1.632-1.024a26.608,26.608,0,0,0,.637-2.769l.864-4.25a1.234,1.234,0,0,0-.227-1.228,1.911,1.911,0,0,0-1.309-.433l.138-.552h2.857l4.7,7.977.69-3.584c.315-1.62.4-2.325.449-2.79.077-.791-.3-1-1.488-1.051l.127-.552h4.032Z" transform="translate(-555.835 -1.134)" fill="#fff"/>
        <path id="パス_39098" data-name="パス 39098" d="M798.942,0c-.193.71-.393,2.02-.542,2.982l-.6.033a5.271,5.271,0,0,0-.1-1.086c-.1-.634-.358-.878-1.578-.878h-.981l-1.529,8.026c-.238,1.259-.138,1.428,1.4,1.534l-.121.541H789.8l.127-.541c1.412-.105,1.539-.3,1.777-1.534l1.55-8.026h-.8c-1.264,0-1.557.194-1.889.648a6.43,6.43,0,0,0-.758,1.3l-.607-.028A28.393,28.393,0,0,0,789.923,0h.425c.177.36.338.355.786.355h6.519A.928.928,0,0,0,798.485,0Z" transform="translate(-601.176 0)" fill="#fff"/>
      </g>
    </g>
  </g>
</svg>
