<svg xmlns="http://www.w3.org/2000/svg" xmlns:xlink="http://www.w3.org/1999/xlink" width="410.38" height="337.719" viewBox="0 0 410.38 337.719">
  <defs>
    <filter id="パス_38568" x="0" y="0" width="410.38" height="225.744" filterUnits="userSpaceOnUse">
      <feOffset input="SourceAlpha"/>
      <feGaussianBlur stdDeviation="14.23" result="blur"/>
      <feFlood flood-color="#fff" flood-opacity="0.749"/>
      <feComposite operator="in" in2="blur"/>
      <feComposite in="SourceGraphic"/>
    </filter>
  </defs>
  <g id="グループ_26807" data-name="グループ 26807" transform="translate(17.69 -909.128)">
    <g id="グループ_26804" data-name="グループ 26804" transform="translate(-12553.024 19.53)">
      <path id="パス_29594" data-name="パス 29594" d="M1.232,25.33C1.733,28.8,3.6,33.5,8.618,33.5c3.241,0,5.473-2.282,5.473-5.887,0-2.6-1.593-4.332-4.239-6.43l-1.276-1c-2.1-1.687-5.11-4.195-5.11-7.981,0-4.743,3.784-8.163,9.257-8.163a13.475,13.475,0,0,1,4.335.774c.865.317,1.64.593,2.006.73-.182,1.915-.091,4.332-.138,6.386l-1.32.138c-.367-3.42-1.552-6.523-5.473-6.523a5.092,5.092,0,0,0-5.11,5.336c0,2.646,1.869,4.285,4.241,6.113l1.37,1c3.145,2.37,5.289,4.743,5.289,8.345,0,5.336-4.7,8.714-9.943,8.714-3.649,0-6.843-1.689-7.846-2.83C.094,31.167.094,28.706,0,25.468ZM32.2,14.43a17.247,17.247,0,0,1,4.241-.548c4.7,0,6.565,2.238,6.565,6.295a14.713,14.713,0,0,1-3.875,9.439,18.014,18.014,0,0,1-8.483,5.294,7.437,7.437,0,0,1-2.69-.457L26.68,40.885c-.548,2.6-.273,3.009,1.965,3.235l1.091.091L29.6,45.4l-10.533.548.182-1.188c2.872-.548,3.373-.912,4.013-3.737,1.689-7.987,3.42-15.968,5.11-23.858a21.994,21.994,0,0,0-3.7,1.645l-.32-1.138a21.933,21.933,0,0,1,4.379-2.282l.5-2.053a13.822,13.822,0,0,1,3.332-2.643l.455.226ZM28.687,31.352a4.1,4.1,0,0,0,2.83,1.552c3.235,0,7.662-6.16,7.662-12,0-4.06-2.147-5.063-4.79-5.063a11,11,0,0,0-2.6.317Zm38.5-1.188c-2.467,3.056-5.52,4.746-6.661,4.746-.865,0-1.458-.686-.819-4.015l.912-4.335h-.094a32.829,32.829,0,0,1-5.881,6.3A7.577,7.577,0,0,1,50.4,34.91c-1.188,0-2.643-1.5-2.643-5.156A16.8,16.8,0,0,1,53.226,17.4c2.279-1.915,5.611-3.514,8.483-3.514a15.018,15.018,0,0,1,2.828.32,8.929,8.929,0,0,0,1.731.276l.138.179c-.728,2.83-2.095,9.031-3.145,14.824-.322,1.6-.185,1.962.088,1.962a9.909,9.909,0,0,0,3.285-2.37Zm-5.928-7.113c.5-1.824,1.182-5.11,1.5-6.567a7.6,7.6,0,0,0-3.056-.639,5.669,5.669,0,0,0-3.241.956c-3.1,2.279-4.925,7.664-4.925,12.179,0,2.053.593,3.012,1.229,3.012,1.78,0,6.937-5.8,8.488-8.94m25.457,6.8c-2.83,3.235-6.43,5.063-9.122,5.063-2.919,0-4.884-2.326-4.884-6.705a15.776,15.776,0,0,1,4.7-10.947c1.869-1.64,5.063-3.376,7.3-3.376,1.957,0,3.42,1.141,3.461,2.279a2.515,2.515,0,0,1-1.5,2.1c-.364.229-.681.138-1-.273a4.016,4.016,0,0,0-3.423-1.965c-1.64,0-2.919,1.372-3.784,3.015a17.907,17.907,0,0,0-2.006,8.254c0,3.238,1.279,4.925,3.235,4.925,2.329,0,5.11-2.1,6.341-3.376Zm19.948-.094c-4.015,4.291-7.436,5.156-9.624,5.156-2.1,0-5.019-1.235-5.019-6.661,0-4.285,1.869-9.073,5.473-11.812a11.392,11.392,0,0,1,6.292-2.555,3.759,3.759,0,0,1,4.018,3.652c0,4.514-7.664,6.978-12.041,8.069a8.171,8.171,0,0,0-.094,1.463c0,2.461.774,5.151,3.558,5.151,1.915,0,4.379-1.276,6.658-3.511ZM100.228,16.3c-1.235.686-3.514,2.781-4.291,7.89,6.523-1.731,8.441-3.831,8.441-5.928a2.247,2.247,0,0,0-2.282-2.508,3.747,3.747,0,0,0-1.869.546" transform="translate(12688.625 1091.574)" fill="#fff"/>
      <path id="パス_37885" data-name="パス 37885" d="M247.717,6.588c-3.558.364-3.787.593-4.426,3.922l-3.69,19.2c-.686,3.511-.413,3.784,3.326,4.06L242.652,35H230.975l.322-1.229c3.558-.276,3.875-.6,4.561-4.06l3.7-19.2c.637-3.329.317-3.558-3.47-3.922l.322-1.188h11.581Zm23.588,24.539c-2.693,2.919-5.247,4.423-6.43,4.423-1.141,0-1.552-1.235-.73-4.746.868-3.42,1.643-6.749,2.461-10.123.639-2.6.364-3.285-.364-3.285-2.006,0-7.3,5.655-9.58,9.533-.546,2.235-1.229,4.969-1.778,7.708a21.843,21.843,0,0,0-3.285.912l-.27-.364c1.232-4.93,2.6-10.4,3.69-15.466.369-1.455.231-1.822-.041-1.822a8.425,8.425,0,0,0-2.968,2.053l-.59-1.1c2.461-2.69,5.151-4.332,6.43-4.332,1.05,0,1.229,1.552.364,5.063l-.956,3.969h.091a30.773,30.773,0,0,1,8.392-8.028,6.154,6.154,0,0,1,3.056-1c1.094,0,2.37.686,1,6.523-.73,3.1-1.461,6.292-2.232,9.486-.276,1.235-.232,1.64.088,1.64a7.93,7.93,0,0,0,3.01-2.141Zm26.57,0c-2.693,2.919-5.247,4.423-6.43,4.423-1.141,0-1.552-1.235-.728-4.746.865-3.42,1.64-6.749,2.458-10.123.639-2.6.367-3.285-.364-3.285-2.006,0-7.3,5.655-9.58,9.533-.543,2.235-1.229,4.969-1.778,7.708a21.843,21.843,0,0,0-3.285.912l-.27-.364c1.232-4.93,2.6-10.4,3.693-15.466.367-1.455.229-1.822-.044-1.822a8.423,8.423,0,0,0-2.965,2.053l-.592-1.1c2.461-2.69,5.154-4.332,6.43-4.332,1.05,0,1.229,1.552.364,5.063l-.956,3.969h.091a30.773,30.773,0,0,1,8.392-8.028,6.155,6.155,0,0,1,3.056-1c1.094,0,2.37.686,1,6.523-.728,3.1-1.461,6.292-2.232,9.486-.276,1.235-.232,1.64.088,1.64a7.93,7.93,0,0,0,3.009-2.141Zm5.586-2.693A13.882,13.882,0,0,1,310.4,15.983a11.6,11.6,0,0,1,4.925-1.461c3.787,0,6.066,2.6,6.066,7.116a14.755,14.755,0,0,1-4.878,11.035,11.337,11.337,0,0,1-7.025,2.877c-4.332,0-6.022-3.42-6.022-7.116m9.125,5.016c2.461-1.05,4.969-5.881,4.969-11.718,0-3.7-1.6-5.473-3.693-5.473a4.079,4.079,0,0,0-1.734.405c-1.78.777-4.837,4.52-4.837,11.545,0,3.373,1.417,5.515,3.834,5.515a3.748,3.748,0,0,0,1.461-.273m21.155-2.417c1.869-2.323,7.069-8.984,7.069-12.041a3.861,3.861,0,0,0-.5-2.006,1.625,1.625,0,0,1,0-1.141,2.214,2.214,0,0,1,1.957-1.323c1.1,0,1.918,1.05,1.965,2.6,0,1.414-.73,3.191-2.83,6.113-2.643,3.693-6.7,8.935-9.439,12.314h-1.232c-.138-4.244-.639-11.4-.868-14.188-.226-2.734-.5-3.511-.819-3.511-.411,0-1.235.73-2.69,2.417l-.73-1c1.643-2.37,3.966-4.743,5.426-4.743,1.182,0,1.78,1.736,2.006,5.063.185,4.015.455,7.711.592,11.448Zm32.415-.229c-2.464,3.056-5.52,4.746-6.661,4.746-.865,0-1.458-.686-.818-4.015l.912-4.335H359.5a32.743,32.743,0,0,1-5.881,6.3,7.577,7.577,0,0,1-4.244,2.053c-1.185,0-2.643-1.5-2.643-5.156A16.8,16.8,0,0,1,352.2,18.036c2.279-1.915,5.611-3.514,8.483-3.514a14.993,14.993,0,0,1,2.828.32,8.953,8.953,0,0,0,1.733.276l.135.179c-.728,2.83-2.095,9.031-3.145,14.824-.322,1.6-.185,1.962.088,1.962a9.909,9.909,0,0,0,3.285-2.37Zm-5.928-7.113c.5-1.824,1.182-5.11,1.5-6.567a7.6,7.6,0,0,0-3.056-.639,5.676,5.676,0,0,0-3.241.956c-3.1,2.279-4.925,7.664-4.925,12.179,0,2.053.592,3.012,1.229,3.012,1.78,0,6.937-5.8,8.488-8.94m23.42-6.89-4.517.232-2.69,12.586c-.458,2.235-.232,2.737.27,2.737.777,0,3.015-1.5,4.106-2.643l.639.956c-1.5,1.824-4.925,4.881-7.342,4.881-1.05,0-1.962-1.326-.956-6.022l2.687-12.5h-3.373l-.138-.411,1.141-1.367h2.734l1.05-4.335,3.47-2.828.411.273-1.6,6.89h5.294Zm12.382,14.188c-1.5,1.869-5.06,4.561-6.656,4.561-.912,0-1.5-.733-.6-4.47L391.608,19.4c.276-1,.276-1.461-.047-1.461a8.827,8.827,0,0,0-3.1,1.962l-.548-1.05c2.508-2.461,5.7-4.332,6.934-4.332,1,0,.956,1.461.455,3.6l-3.147,12.589c-.273,1.091-.182,1.455.091,1.455.549,0,2.144-1.182,3.194-2.141Zm1.188-23.172a2.546,2.546,0,0,1-2.417,2.646,1.92,1.92,0,0,1-1.915-2.006,2.68,2.68,0,0,1,2.508-2.693,1.891,1.891,0,0,1,1.824,2.053m4.806,20.617a13.879,13.879,0,0,1,6.937-12.451,11.585,11.585,0,0,1,4.925-1.461c3.784,0,6.066,2.6,6.066,7.116a14.765,14.765,0,0,1-4.878,11.035,11.351,11.351,0,0,1-7.028,2.877c-4.332,0-6.022-3.42-6.022-7.116m9.125,5.016c2.461-1.05,4.969-5.881,4.969-11.718,0-3.7-1.593-5.473-3.69-5.473a4.081,4.081,0,0,0-1.736.405c-1.778.777-4.834,4.52-4.834,11.545,0,3.373,1.414,5.515,3.831,5.515a3.747,3.747,0,0,0,1.461-.273m33.521-2.323c-2.693,2.919-5.247,4.423-6.43,4.423-1.141,0-1.552-1.235-.73-4.746.865-3.42,1.643-6.749,2.461-10.123.639-2.6.364-3.285-.364-3.285-2.006,0-7.3,5.655-9.58,9.533-.546,2.235-1.232,4.969-1.78,7.708a21.893,21.893,0,0,0-3.282.912l-.27-.364c1.229-4.93,2.6-10.4,3.69-15.466.369-1.455.232-1.822-.044-1.822a8.447,8.447,0,0,0-2.965,2.053l-.59-1.1c2.458-2.69,5.151-4.332,6.43-4.332,1.05,0,1.229,1.552.364,5.063l-.956,3.969h.091a30.774,30.774,0,0,1,8.392-8.028,6.155,6.155,0,0,1,3.056-1c1.091,0,2.37.686,1,6.523-.73,3.1-1.463,6.292-2.235,9.486-.273,1.235-.231,1.64.091,1.64a7.951,7.951,0,0,0,3.01-2.141Z" transform="translate(12404.702 1141.35)" fill="#fff"/>
      <path id="パス_37884" data-name="パス 37884" d="M697.564,4.06c-2.739.179-3.376.865-3.969,2.872a75.966,75.966,0,0,0-1.731,7.755l-3.47,18.151h-1.367l-13.5-24.17h-.138L671.019,20.8a62.974,62.974,0,0,0-1.188,7.664c-.088,2.1.733,2.555,3.88,2.784l-.276,1.229H662.991l.275-1.229c2.37-.138,3.42-.686,4.016-2.646a70.5,70.5,0,0,0,1.913-7.937l2.373-11.222c.455-2.323.317-2.963-.273-3.966-.548-.959-1.326-1.235-3.88-1.414l.276-1.188h6.57l13.452,23.216h.182l2.1-11.4a71.856,71.856,0,0,0,1.232-7.8c.138-2.147-.593-2.6-3.969-2.828l.32-1.188h10.263Zm15.742,23.806c-4.016,4.291-7.436,5.156-9.624,5.156-2.1,0-5.019-1.235-5.019-6.661,0-4.285,1.868-9.073,5.473-11.812a11.4,11.4,0,0,1,6.295-2.555,3.758,3.758,0,0,1,4.015,3.652c0,4.514-7.664,6.978-12.041,8.069a8.166,8.166,0,0,0-.094,1.463c0,2.461.774,5.151,3.558,5.151,1.915,0,4.379-1.276,6.661-3.511Zm-6.43-13.455c-1.235.686-3.514,2.781-4.291,7.89,6.523-1.731,8.441-3.831,8.441-5.928a2.247,2.247,0,0,0-2.282-2.508,3.747,3.747,0,0,0-1.868.546m25-.138-4.517.231-2.687,12.586c-.46,2.235-.232,2.737.273,2.737.772,0,3.01-1.5,4.1-2.643l.637.956c-1.5,1.824-4.925,4.881-7.342,4.881-1.05,0-1.962-1.326-.956-6.022l2.687-12.5H720.7l-.135-.411,1.138-1.367h2.737l1.05-4.335,3.467-2.828.411.273-1.6,6.89h5.294Zm23.886,14.05c1.868-2.555,6.429-8.849,6.429-11.768a4.809,4.809,0,0,0-.455-2.1,1.243,1.243,0,0,1,0-1.141,2.2,2.2,0,0,1,1.868-1.323c1.141,0,1.962,1,1.962,2.6,0,1.552-.865,3.056-1.869,4.787-1.551,2.508-7.072,10.125-9.626,13.639H752.8c-.367-4.834-.821-9.624-1.279-14.232h-.091c-2.918,4.878-6.248,10.216-8.709,14.232h-1.188c-.041-4.423-.273-10.307-.455-14.689-.094-2.185-.273-3.009-.728-3.009-.322,0-1.006.548-2.693,2.329l-.774-.915c1.916-2.552,4.286-4.743,5.837-4.743,1.05,0,1.551,1.37,1.642,4.517.088,3.649.138,7.755.138,10.762h.088c2.739-4.7,5.79-9.668,8.483-14.593h1.141c.5,5.107.912,10.4,1.461,15.643Zm13.386-2.417a13.882,13.882,0,0,1,6.934-12.451,11.6,11.6,0,0,1,4.925-1.461c3.784,0,6.066,2.6,6.066,7.116A14.765,14.765,0,0,1,782.2,30.145a11.344,11.344,0,0,1-7.025,2.877c-4.335,0-6.022-3.42-6.022-7.116m9.125,5.016c2.458-1.05,4.966-5.881,4.966-11.718,0-3.7-1.593-5.473-3.69-5.473a4.082,4.082,0,0,0-1.736.405c-1.778.777-4.834,4.52-4.834,11.545,0,3.373,1.414,5.515,3.831,5.515a3.771,3.771,0,0,0,1.463-.273m14.617-14.458c2.326-2.6,5.156-4.47,6.386-4.47,1.141,0,1.188,2.1.5,5.294l-.455,2.279h.138c2.323-4.47,5.016-7.573,6.84-7.573a2.459,2.459,0,0,1,1.959,1.141,2,2,0,0,1-.044,1.962,4.75,4.75,0,0,1-1.185,1.32c-.413.273-.777.273-1,.047a2.118,2.118,0,0,0-1.552-.777c-.548,0-1.279.46-2.329,1.918a31.174,31.174,0,0,0-3.235,5.658c-.728,3.054-1.276,5.928-1.827,8.935a17.058,17.058,0,0,0-3.235.824l-.364-.364c1.182-4.884,2.461-10.492,3.327-15.37.273-1.5.273-1.965-.091-1.965a9.079,9.079,0,0,0-3.236,2.191Zm36.453,12.4c-2.144,3.376-4.059,4.153-5.019,4.153s-1.869-.548-3.009-3.012a90.973,90.973,0,0,1-3.467-8.483,19.687,19.687,0,0,0-2.552,2.919c-.5,2.464-1.05,5.11-1.552,7.711a20.055,20.055,0,0,0-3.282.865l-.322-.276c2.191-9.3,4.244-18.473,6.2-27.959.364-1.822.138-2.006-1.643-2.053l-1.414-.041.231-1.1c3.69-.408,6.107-1.6,6.7-1.6.455,0,.408.411.229,1.32-1.552,6.8-3.009,13.5-4.561,20.3h.047a48.393,48.393,0,0,1,3.922-4.106c2.552-2.6,5.881-5.52,7.981-5.52,1.229,0,1.915.733,1.915,1.414a3.194,3.194,0,0,1-.912,1.827c-.273.226-.549.317-.728.226a4.093,4.093,0,0,0-1.736-.364c-2.1,0-4.652,2.37-5.928,3.784a53.744,53.744,0,0,0,3.737,8.984c.824,1.689,1.279,2.191,1.78,2.191.457,0,1.461-.777,2.6-2.1Z" transform="translate(11996.151 1194.295)" fill="#fff"/>
    </g>
    <g id="レイヤー_1" data-name="レイヤー 1" transform="translate(25 951.818)">
      <g transform="matrix(1, 0, 0, 1, -42.69, -42.69)" filter="url(#パス_38568)">
        <path id="パス_38568-2" data-name="パス 38568" d="M346.781,63.367A70.1,70.1,0,0,0,297.413,42.72h-.307c-.217,0-.434.011-.65.011-30.5.206-47.724,12.214-63.068,26.315-2.887,2.654-17.041,15.545-33.744,30.73-11.056-20.187-37.884-57.056-86.3-57.056A71.018,71.018,0,0,0,42.73,112.889v.037a71.032,71.032,0,0,0,70.317,70.153c.058,0,3.289-.048,3.421-.053,27.457-.851,45.71-12.489,60.609-26.178,2.892-2.654,17.057-15.566,33.776-30.762,11.077,20.2,37.9,57,86.259,57A71.028,71.028,0,0,0,367.73,112.91v-.037a70.084,70.084,0,0,0-20.943-49.49Zm-233.433-19.5a85.579,85.579,0,0,1,40.776,10.088A100.741,100.741,0,0,1,182.063,76.5a132.732,132.732,0,0,1,16.708,24.063c-22.736,20.668-49.871,45.292-59.763,54.122-10.517,9.39-23.333,15.376-42.912,15.376-18.062,0-29.382-6.345-38.926-17.866a69.644,69.644,0,0,1-12.41-39.306C45,74.825,75.766,43.857,113.348,43.857ZM365.689,113.2c-.4,37.921-31.1,68.725-68.588,68.725a85.609,85.609,0,0,1-40.766-10.083A100.623,100.623,0,0,1,228.4,149.3a132.535,132.535,0,0,1-16.682-24.015c22.73-20.663,49.844-45.265,59.732-54.1,10.517-9.39,23.333-15.471,42.912-15.471,18.062,0,29.382,6.345,38.931,17.866a69.565,69.565,0,0,1,12.4,39v.6Z" transform="translate(-0.04 -0.03)" fill="#fff" opacity="0.503"/>
      </g>
    </g>
    <g id="グループ_26806" data-name="グループ 26806" transform="translate(102.133 925.791)">
      <path id="パス_39868" data-name="パス 39868" d="M.6,7.5c.147,1.1.669,2.385,2.23,2.385A1.535,1.535,0,0,0,4.478,8.229,2.375,2.375,0,0,0,3.234,6.274l-.485-.362a3.3,3.3,0,0,1-1.68-2.6c0-1.6,1.224-2.8,3.2-2.8a7.956,7.956,0,0,1,2.373.4,19.306,19.306,0,0,0-.3,2.213l-.507.039c-.033-1.011-.309-2.1-1.721-2.1A1.475,1.475,0,0,0,2.58,2.682c0,.751.385,1.2,1.167,1.76l.509.368c1.022.739,1.84,1.5,1.84,2.722,0,1.732-1.489,2.946-3.424,2.946A5.622,5.622,0,0,1,0,9.792c.034-.357.073-1.2.107-2.237Z" transform="translate(0 -0.405)" fill="#fff"/>
      <path id="パス_39869" data-name="パス 39869" d="M37.126,39.479a.927.927,0,0,1-.935-1A1.124,1.124,0,0,1,37.306,37.3a.937.937,0,0,1,.945,1.022,1.107,1.107,0,0,1-1.125,1.154" transform="translate(-28.573 -29.451)" fill="#fff"/>
      <path id="パス_39870" data-name="パス 39870" d="M58.464,1.976c-1.2.093-1.293.2-1.508,1.329L55.82,9.2c-.22,1.134-.107,1.256,1.135,1.344l-.112.487H52.525l.1-.487c1.141-.093,1.283-.215,1.5-1.344L55.276,3.3c.224-1.134.126-1.236-1.087-1.329l.117-.487h4.266Z" transform="translate(-41.469 -1.176)" fill="#fff"/>
      <path id="パス_39871" data-name="パス 39871" d="M82.367,39.479a.927.927,0,0,1-.935-1A1.124,1.124,0,0,1,82.547,37.3a.937.937,0,0,1,.945,1.022,1.107,1.107,0,0,1-1.125,1.154" transform="translate(-64.291 -29.451)" fill="#fff"/>
      <path id="パス_39872" data-name="パス 39872" d="M108.8,1.976c-.978.064-1.213.308-1.38.915-.127.469-.284,1.092-.543,2.484l-1.115,5.8h-.714l-4.308-7.587-.705,3.679c-.244,1.233-.343,1.9-.387,2.365-.053.685.245.84,1.344.919l-.107.478H97.241l.1-.478c.883-.078,1.236-.254,1.442-.9A23.5,23.5,0,0,0,99.343,7.2l.764-3.755a1.09,1.09,0,0,0-.2-1.085,1.688,1.688,0,0,0-1.157-.383l.122-.487H101.4l4.151,7.048.61-3.167c.278-1.431.357-2.054.4-2.465.068-.7-.262-.88-1.315-.929l.112-.487h3.563Z" transform="translate(-76.772 -1.176)" fill="#fff"/>
      <path id="パス_39873" data-name="パス 39873" d="M171.559,1.489c1.889,0,2.98.754,2.98,2.049,0,1.381-1.194,2.121-2.48,2.372,1.182.254,2.265.979,2.265,2.231,0,1.853-1.774,2.887-4.163,2.887h-4.19l.1-.478c1.14-.093,1.292-.233,1.518-1.369l1.151-5.853c.219-1.152.082-1.259-1.1-1.352l.117-.487Zm-2.316,7.633c-.215,1.115.261,1.335,1.1,1.335A2.224,2.224,0,0,0,172.5,8.069c0-1.358-.939-1.823-2.173-1.823h-.539Zm1.25-3.471c1.649,0,2.335-.938,2.335-2.089a1.352,1.352,0,0,0-1.479-1.494c-.6,0-.746.043-.887.816l-.539,2.767Z" transform="translate(-131.035 -1.176)" fill="#fff"/>
      <path id="パス_39874" data-name="パス 39874" d="M218.523,11.14h-.214c-1.781-.03-2.206-.484-2.7-1.419-.324-.638-.641-1.462-.916-2.138-.211-.51-.368-.694-.839-.694h-.493l-.416,2.251c-.216,1.187-.075,1.283,1.1,1.41l-.107.478h-4.261l.1-.478c1.083-.1,1.3-.214,1.517-1.4l1.12-5.852c.235-1.175.073-1.238-1.077-1.327l.117-.487h3.791c1.972,0,3.083.837,3.083,2.333a2.926,2.926,0,0,1-2.309,2.717c.263.692.556,1.366.816,1.923.856,1.781,1.2,2.048,1.818,2.239Zm-4.538-4.821a2.265,2.265,0,0,0,2.552-2.428c0-.99-.511-1.827-1.542-1.827-.481,0-.706.049-.843.774l-.666,3.482Z" transform="translate(-165.544 -1.176)" fill="#fff"/>
      <path id="パス_39875" data-name="パス 39875" d="M262.385,10.456h-4l.111-.478c1.038-.108,1.1-.278,1.015-.947-.073-.535-.172-1.145-.275-1.824h-2.882c-.268.5-.672,1.168-.952,1.743-.36.723-.264.9.943,1.029l-.107.478h-3.523l.122-.478c1.044-.136,1.206-.234,2-1.58L259.191.856l.627-.092c.607,3.866,1,6.023,1.3,7.828.18,1.113.279,1.264,1.4,1.386Zm-3.767-7.385h-.029c-.634,1.183-1.316,2.385-1.889,3.453h2.438Z" transform="translate(-199.519 -0.603)" fill="#fff"/>
      <path id="パス_39876" data-name="パス 39876" d="M311.8,1.976c-.978.064-1.213.308-1.38.915-.127.469-.284,1.092-.543,2.484l-1.115,5.8h-.714L303.74,3.587l-.705,3.679c-.244,1.233-.343,1.9-.387,2.365-.053.685.245.84,1.344.919l-.107.478h-3.641l.1-.478c.883-.078,1.236-.254,1.442-.9a23.507,23.507,0,0,0,.563-2.446l.764-3.755a1.09,1.09,0,0,0-.2-1.085,1.688,1.688,0,0,0-1.157-.383l.122-.487H304.4l4.151,7.048.61-3.167c.278-1.431.357-2.054.4-2.465.068-.7-.262-.88-1.315-.929l.112-.487h3.563Z" transform="translate(-237.043 -1.176)" fill="#fff"/>
      <path id="パス_39877" data-name="パス 39877" d="M358.366,1.488c3.132,0,4.832,1.571,4.823,4.074A5.056,5.056,0,0,1,360.8,10a7.466,7.466,0,0,1-4.285,1.028h-3.745l.112-.478c1.132-.093,1.3-.273,1.5-1.346l1.14-5.849c.22-1.14.167-1.286-1.082-1.379l.112-.487ZM356.1,9c-.244,1.3.509,1.4,1.294,1.4,2.5,0,3.918-2.286,3.918-4.957,0-2.008-.865-3.353-2.85-3.353-.847,0-1.04.131-1.187.9Z" transform="translate(-278.514 -1.175)" fill="#fff"/>
      <path id="パス_39878" data-name="パス 39878" d="M425.284,7.5c.147,1.1.669,2.385,2.23,2.385a1.535,1.535,0,0,0,1.648-1.659,2.375,2.375,0,0,0-1.244-1.955l-.485-.362a3.3,3.3,0,0,1-1.68-2.6c0-1.6,1.224-2.8,3.2-2.8a7.956,7.956,0,0,1,2.373.4,19.326,19.326,0,0,0-.3,2.213l-.507.039c-.033-1.011-.309-2.1-1.721-2.1a1.475,1.475,0,0,0-1.535,1.618c0,.751.385,1.2,1.167,1.76l.509.368c1.022.739,1.839,1.5,1.839,2.722,0,1.732-1.489,2.946-3.424,2.946a5.622,5.622,0,0,1-2.673-.685c.034-.357.074-1.2.107-2.237Z" transform="translate(-335.289 -0.405)" fill="#fff"/>
      <path id="パス_39879" data-name="パス 39879" d="M470.992,0c-.171.627-.347,1.785-.479,2.634l-.531.029a4.667,4.667,0,0,0-.087-.96c-.092-.56-.316-.776-1.394-.776h-.867L466.282,8.02c-.21,1.112-.122,1.262,1.233,1.355l-.107.478h-4.494l.112-.478c1.247-.093,1.36-.267,1.57-1.355l1.37-7.091h-.709c-1.117,0-1.376.172-1.669.572a5.683,5.683,0,0,0-.67,1.149l-.536-.025A25.12,25.12,0,0,0,463.023,0h.376c.156.318.3.313.695.313h5.76A.819.819,0,0,0,470.587,0Z" transform="translate(-365.052 0)" fill="#fff"/>
      <path id="パス_39880" data-name="パス 39880" d="M502.616,10.456h-4l.111-.478c1.038-.108,1.1-.278,1.015-.947-.073-.535-.172-1.145-.275-1.824h-2.882c-.268.5-.672,1.168-.952,1.743-.359.723-.263.9.943,1.029l-.107.478h-3.523l.122-.478c1.044-.136,1.206-.234,2-1.58L499.421.856l.627-.092c.608,3.866,1,6.023,1.3,7.828.18,1.113.279,1.264,1.4,1.386Zm-3.766-7.385h-.029c-.634,1.183-1.316,2.385-1.889,3.453h2.438Z" transform="translate(-389.18 -0.603)" fill="#fff"/>
      <path id="パス_39881" data-name="パス 39881" d="M550.4,0c-.171.627-.347,1.785-.479,2.634l-.531.029a4.648,4.648,0,0,0-.087-.96c-.092-.56-.316-.776-1.394-.776h-.867L545.686,8.02c-.211,1.112-.122,1.262,1.233,1.355l-.107.478h-4.494l.112-.478c1.247-.093,1.36-.267,1.57-1.355l1.37-7.091h-.709c-1.117,0-1.376.172-1.668.572a5.67,5.67,0,0,0-.67,1.149l-.536-.025A25.045,25.045,0,0,0,542.427,0h.376c.156.318.3.313.694.313h5.76A.819.819,0,0,0,549.991,0Z" transform="translate(-427.741 0)" fill="#fff"/>
      <path id="パス_39882" data-name="パス 39882" d="M587.055,1.434c.743,0,1.441,0,1.994-.015-.1.466-.259,1.6-.382,2.307l-.522.034c-.059-1.393-.261-1.711-1.234-1.711h-1.167c-.532,0-.721.067-.833.625L584.333,5.7h1.273c1.222,0,1.271-.176,1.692-1.194h.517l-.6,3.076H586.7c.019-1.13.025-1.258-1.2-1.258h-1.3l-.5,2.66c-.211,1.042-.124,1.368.822,1.368h.914A1.987,1.987,0,0,0,587,9.907a5.306,5.306,0,0,0,1.064-1.417l.492.185c-.166.5-.655,1.8-.875,2.3h-7.4l.112-.478c1.215-.1,1.371-.2,1.591-1.35l1.15-5.869c.22-1.149.118-1.252-1.092-1.355l.126-.487Z" transform="translate(-458.127 -1.12)" fill="#fff"/>
      <path id="パス_39883" data-name="パス 39883" d="M636.817,1.976c-1.1.117-1.259.171-1.421,1.255-.308,2.156-.495,3.84-.725,5.762-.162,1.357-.059,1.453,1.107,1.556l-.113.478h-4.15l.122-.478c1.059-.108,1.167-.2,1.377-1.547.308-2.1.558-3.927.852-5.887h-.044c-1.519,2.614-3.33,5.765-4.5,7.911h-.414c-.34-2.093-1.026-5.114-1.55-7.851h-.048l-.921,3.735c-.352,1.444-.523,2.224-.577,2.628-.122.751.1.917,1.184,1.01l-.112.478h-3.611l.122-.478c1-.073,1.229-.279,1.482-.952.207-.553.468-1.366.854-2.826l.838-3.161c.357-1.343.343-1.5-1.024-1.635l.156-.487h2.8c.455,2.1,1.166,4.78,1.6,6.835l4.034-6.835h2.827Z" transform="translate(-492.071 -1.176)" fill="#fff"/>
      <path id="パス_39884" data-name="パス 39884" d="M693.786,1.434c.742,0,1.441,0,1.994-.015-.1.466-.259,1.6-.382,2.307l-.522.034c-.059-1.393-.26-1.711-1.234-1.711h-1.167c-.532,0-.721.067-.834.625L691.064,5.7h1.273c1.223,0,1.271-.176,1.692-1.194h.517l-.6,3.076h-.517c.019-1.13.025-1.258-1.2-1.258h-1.3l-.5,2.66c-.211,1.042-.124,1.368.822,1.368h.914a1.986,1.986,0,0,0,1.572-.451,5.3,5.3,0,0,0,1.064-1.417l.492.185c-.166.5-.655,1.8-.875,2.3h-7.4l.112-.478c1.215-.1,1.371-.2,1.591-1.35l1.15-5.869c.22-1.149.118-1.252-1.092-1.355l.126-.487Z" transform="translate(-542.392 -1.12)" fill="#fff"/>
      <path id="パス_39885" data-name="パス 39885" d="M741.233,1.976c-.978.064-1.213.308-1.38.915-.127.469-.284,1.092-.543,2.484l-1.115,5.8h-.714l-4.308-7.587-.705,3.679c-.244,1.233-.343,1.9-.387,2.365-.054.685.245.84,1.344.919l-.107.478h-3.641l.1-.478c.884-.078,1.236-.254,1.442-.9A23.58,23.58,0,0,0,731.78,7.2l.763-3.755a1.091,1.091,0,0,0-.2-1.085,1.689,1.689,0,0,0-1.157-.383l.122-.487h2.524l4.151,7.048.61-3.167c.278-1.431.357-2.054.4-2.465.068-.7-.262-.88-1.315-.929l.112-.487h3.562Z" transform="translate(-576.081 -1.176)" fill="#fff"/>
      <path id="パス_39886" data-name="パス 39886" d="M797.808,0c-.171.627-.347,1.785-.479,2.634l-.531.029a4.652,4.652,0,0,0-.087-.96c-.092-.56-.316-.776-1.394-.776h-.867L793.1,8.02c-.211,1.112-.122,1.262,1.233,1.355l-.107.478H789.73l.112-.478c1.247-.093,1.36-.267,1.57-1.355l1.37-7.091h-.709c-1.117,0-1.376.172-1.669.572a5.684,5.684,0,0,0-.67,1.149l-.536-.025A25.05,25.05,0,0,0,789.839,0h.376c.156.318.3.313.695.313h5.759A.819.819,0,0,0,797.4,0Z" transform="translate(-623.073 0)" fill="#fff"/>
    </g>
  </g>
</svg>
