<svg xmlns="http://www.w3.org/2000/svg" width="350.528" height="86.688" viewBox="0 0 350.528 86.688">
  <path id="パス_130452" data-name="パス 130452" d="M8.016-11.184c-.112,0-.208,0-.208-.064a4.317,4.317,0,0,1,1.1-.944c.448-.176.5-.208.5-.3,0-.288-1.408-.9-1.44-.9-.08,0-.368.576-.448.688A14.647,14.647,0,0,1,2.528-8.4c-.112.064-.208.112-.208.192,0,.048.064.064.1.064a12.682,12.682,0,0,0,4.272-2.3,1.3,1.3,0,0,1,.9-.3h3.584c.128,0,.224,0,.224.1a14.715,14.715,0,0,1-4.64,3.184,34.9,34.9,0,0,1-4.4,1.52c-.288.064-.32.08-.32.144,0,.032,0,.112.176.112a19.46,19.46,0,0,0,6.08-1.6,20.208,20.208,0,0,0,4.592-3.056,1.5,1.5,0,0,1,.64-.416c.224-.048.336-.112.336-.224a2.3,2.3,0,0,0-1.184-.9c-.128,0-.176.048-.656.512a.813.813,0,0,1-.64.192Zm3.952,6.5c.1,0,.224,0,.224.112,0,.128-.72.688-.912.848C8.352-1.424,5.136-.4,1.728.672a3.6,3.6,0,0,0-.72.272c0,.032.032.1.176.1A21.53,21.53,0,0,0,7.632-.432,24.768,24.768,0,0,0,13.776-4a1.954,1.954,0,0,1,.848-.4c.112-.032.32-.1.32-.288,0-.256-1.088-.928-1.232-.928a1.6,1.6,0,0,0-.56.336,1.155,1.155,0,0,1-.624.176H8.912c-.128,0-.24,0-.24-.08,0-.048.048-.08.4-.32.144-.1.784-.56.928-.624.08-.032.464-.1.544-.128.08-.016.224-.08.224-.224,0-.272-1.344-.944-1.472-.944a7.234,7.234,0,0,0-.656.768A18.764,18.764,0,0,1,2.08-2.944c-.512.192-.576.224-.576.288,0,.08.112.1.192.1a12.909,12.909,0,0,0,2.9-.7c.272-.1,1.488-.624,1.648-.624.352,0,.912,1.04.976,1.2.256.752.288.848.544.848a.76.76,0,0,0,.656-.816c0-.864-1.36-1.3-1.392-1.312-.24-.08-.272-.112-.272-.16,0-.1.656-.4.752-.448a1.619,1.619,0,0,1,.72-.112Zm-5.28-5.5a.1.1,0,0,0-.048.1c0,.048.016.08.176.368a3.334,3.334,0,0,1,.336.848c.1.4.144.64.464.64a.649.649,0,0,0,.592-.72C8.208-9.776,6.768-10.208,6.688-10.192ZM25.76-5.824c.528,0,.848,0,.848-.224,0-.272-1.2-1.136-1.328-1.136-.08,0-.128.064-.48.544-.256.352-.3.384-.912.384-.5,0-.512-.256-.512-.528a1.589,1.589,0,0,1,.112-.752c.064-.08.448-.384.448-.48,0-.272-1.168-.72-1.44-.72-.08,0-.224.032-.224.16a2.948,2.948,0,0,0,.08.4c.048.528.048,1.088.048,1.232,0,.688-.016.688-.816.688-.512,0-1.68-.048-2-.064-.1,0-.5-.048-.576-.048-.032,0-.064.016-.064.048,0,.016,0,.016.064.1l.32.368c.048.064.08.112.128.112a2.337,2.337,0,0,0,.352-.048c.4-.032,1.312-.032,1.6-.032.1,0,.352,0,.352.272A16.969,16.969,0,0,1,19.36-.56a8.56,8.56,0,0,0-.5.72.051.051,0,0,0,.048.048c.48,0,2.272-1.984,3.04-3.728.24-.56.272-.608.368-.608s.1.032.1.448c0,1.04-.016,2.24-.08,3.28,0,.128-.048.928-.048,1.008,0,.448.16.576.512.576.656,0,.656-.688.656-.9,0-.368-.048-2.048-.048-2.384,0-.432-.064-2.3-.064-2.688,0-.048.016-.176.1-.176.272,0,.816,1.2.9,1.36.336.736.368.816.576.816.3,0,.56-.368.56-.72,0-.832-.64-1.168-1.568-1.664-.528-.288-.544-.368-.544-.448,0-.208.272-.208.448-.208Zm.48-7.2c-.56-.432-.608-.48-.736-.48a4.884,4.884,0,0,0-.736.32,23.2,23.2,0,0,1-4.752,1.28c-.752.16-.832.176-.832.288,0,.064.1.064.176.064.24,0,1.024-.048,1.312-.08.624-.064,3.664-.416,4.352-.48a12.6,12.6,0,0,1,1.616-.064c.112,0,.3-.016.3-.176C26.944-12.464,26.864-12.528,26.24-13.024ZM20.608-8.368c.432,0,.544-.464.544-.816a2.066,2.066,0,0,0-1.7-2.016.034.034,0,0,0-.032.032,2.242,2.242,0,0,0,.24.48,3.136,3.136,0,0,1,.256.928C20.048-8.656,20.1-8.368,20.608-8.368ZM22.9-8.9a.811.811,0,0,0,.72-.864,2.194,2.194,0,0,0-1.552-1.824c-.016,0-.048.016-.048.032a1.515,1.515,0,0,0,.112.288A3.89,3.89,0,0,1,22.4-9.952C22.512-9.008,22.512-8.9,22.9-8.9Zm3.472-2.448a2.247,2.247,0,0,0-.9-.32.09.09,0,0,0-.1.08c-.016.048-.048.288-.064.352-.064.416-1.136,2.32-1.136,2.416a.051.051,0,0,0,.048.048c.384,0,1.7-1.456,2.064-1.664.08-.048.592-.176.592-.288A.989.989,0,0,0,26.368-11.344Zm6.976,7.456c-.1-.1-.5-.592-.592-.7a.573.573,0,0,0-.416-.256c-.1,0-.32.448-.4.528-.848.976-2.544,2.512-6.528,4.544-.688.352-.768.4-.768.48,0,.064.064.064.112.064a5.205,5.205,0,0,0,.912-.224A21.715,21.715,0,0,0,30.48-1.568c.368-.224,2.1-1.44,2.336-1.5.688-.176.768-.192.768-.384C33.584-3.6,33.392-3.824,33.344-3.888Zm-.832-8.592c-.048-.048-.48-.384-.752-.608-.224-.176-.288-.24-.4-.24-.16,0-.16.144-.176.32-.048.656-1.968,2.848-3.248,4.1-.288.272-1.84,1.568-1.84,1.632,0,.032.016.048.032.048.1,0,1.52-.464,4.736-3.3a17.634,17.634,0,0,1,1.408-1.248c.5-.128.528-.144.528-.288A.609.609,0,0,0,32.512-12.48Zm.352,4.432c-.128-.128-.192-.192-.8-.784a.359.359,0,0,0-.24-.128c-.144,0-.176.1-.224.288a15.84,15.84,0,0,1-4.272,3.888,7.489,7.489,0,0,0-1.216.928.034.034,0,0,0,.032.032A20.482,20.482,0,0,0,32.1-7.152a.843.843,0,0,1,.368-.224c.592-.08.656-.08.656-.24C33.12-7.728,33.072-7.856,32.864-8.048Zm9.248-2.72a1.993,1.993,0,0,1-.7.1,2.371,2.371,0,0,1-1.232-.336c-.32-.192-.368-.208-.432-.208-.1,0-.112.128-.112.192,0,.016,0,1.136,1.888,1.3.24.016.352.032.352.176a14.315,14.315,0,0,1-2.208,5.216c-.48.688-.528.768-.528.992,0,.16.064.448.5.448C41.1-2.9,42.48-8.3,42.672-9.1c.144-.56.16-.608.3-.656,1.3-.384,2.192-.672,2.192-1.28,0-.448-.608-.624-.912-.7-.48-.128-.64-.192-.72-.3a1.3,1.3,0,0,0-1.152-.7c-.32,0-.656.144-.656.336a3.175,3.175,0,0,0,.3.448,1.306,1.306,0,0,1,.224.7A.758.758,0,0,1,42.112-10.768Zm1.008-.144a.172.172,0,0,1-.032-.1c0-.048.112-.7.384-.7.1,0,.656.288.656.4C44.128-11.072,43.168-10.864,43.12-10.912ZM46.96-1.5c.224-.1.96.4,1.392.784.24.208.336.256.5.256.32,0,.432-.288.432-.56,0-.592-.928-1.1-1.264-1.28-.144-.08-.9-.336-1.04-.448-.48-.336-.64-2.816-.64-3.216A1.8,1.8,0,0,1,46.72-7.3a1.915,1.915,0,0,1,1.168-.48c.192,0,.256.032.864.256a1.106,1.106,0,0,0,.368.064.76.76,0,0,0,.752-.832A1.717,1.717,0,0,0,48.7-9.92a5.1,5.1,0,0,0-.944-.272c-.064,0-.112.032-.112.08,0,.064.064.128.208.256a1.4,1.4,0,0,1,.448.816c0,.416-.112.464-1.1,1.04-1.344.768-1.44,1.616-1.44,3.376,0,.224.064,1.3.064,1.536,0,.16-.08.176-.224.176-.112,0-.7-.032-.832-.032-1.44,0-2.576.544-2.576,1.584A2.23,2.23,0,0,0,44.608.5a2.094,2.094,0,0,0,2.256-1.744C46.9-1.408,46.9-1.472,46.96-1.5ZM45.872-1.92c.1.256-.128,1.472-1.68,1.472-.96,0-1.44-.48-1.44-.864,0-.848,1.44-.848,1.808-.848S45.792-2.16,45.872-1.92Zm15.216-8.688c.128.96-1.392,3.168-2.688,4.464a13.569,13.569,0,0,0-1.264,1.2c0,.048.032.1.112.1A4.889,4.889,0,0,0,58.784-5.7a12.028,12.028,0,0,0,2.176-2.08c.672-.768.7-.8,1.008-.8.1,0,.528.048.624.048.384,0,2.592-.5,2.624-.5a.173.173,0,0,1,.176.176c0,.5-3.04,5.952-7.92,8.64-.5.272-.544.3-.544.368A.143.143,0,0,0,57.072.3a10.945,10.945,0,0,0,3.184-1.536,19.565,19.565,0,0,0,5.728-6.016c.56-.864.624-.96.8-1.072.528-.32.64-.384.64-.608a.58.58,0,0,0-.3-.4c-.08-.048-.5-.272-.592-.32-.656-.384-.736-.432-.88-.432a2.989,2.989,0,0,0-.752.256,9.056,9.056,0,0,1-2.432.64c-.064,0-.256,0-.256-.128,0-.08.048-.144.128-.256.32-.4.48-.608.48-.8a1.5,1.5,0,0,0-1.488-.9c-.128,0-.352,0-.352.16C60.976-11.04,61.072-10.688,61.088-10.608Zm6.112-2.7c-.16,0-.576.1-.576.224,0,.048.048.128.208.176a3.752,3.752,0,0,1,1.472.784c.352.368.512.528.848.528a.433.433,0,0,0,.4-.464c0-.16,0-.528-.656-.912A2.952,2.952,0,0,0,67.2-13.312Zm-1.1,1.376c-.144,0-.272.08-.272.144s.16.176.24.224a5.052,5.052,0,0,1,1.136.944c.5.592.624.688.848.688.272,0,.464-.352.464-.624C68.512-10.752,68.144-11.936,66.1-11.936ZM79.168-8.192c0-.816-1.7-1.36-1.808-1.36-.064,0-.08.032-.08.08a1.187,1.187,0,0,0,.064.288,3.509,3.509,0,0,1,.272,1.376A8.474,8.474,0,0,1,75.68-3.12a4.531,4.531,0,0,0-.64.848.075.075,0,0,0,.08.08,5.571,5.571,0,0,0,2.96-3.04C78.352-5.84,79.168-8.144,79.168-8.192Zm2.816,5.76c.112-.016.256-.128.528-.432a8.89,8.89,0,0,1,1.1-1.024c2.8-2.464,3.728-4.448,3.728-4.576a.069.069,0,0,0-.064-.064c-.064,0-1.424,1.44-1.7,1.712C84.048-5.264,82.576-4.208,82.1-4.208c-.288,0-.3-.32-.3-.528,0-.528.064-2.464.128-2.9.032-.176.256-1.008.256-1.2,0-.832-1.68-1.12-1.76-1.12-.032,0-.1.016-.1.08a4.159,4.159,0,0,0,.208.576,9.81,9.81,0,0,1,.3,3.008c0,.4-.016,1.664-.064,1.968-.016.08-.1.5-.1.576C80.672-3.3,81.52-2.352,81.984-2.432ZM95.568-6.448a8.713,8.713,0,0,1-1.952-.144c-.08-.016-.464-.192-.544-.192s-.128.1-.128.192c0,.544.736,1.536,1.424,1.536.192,0,1.056-.256,1.248-.288.384-.08,4.048-.288,6.256-.288.32,0,1.92.032,2.288.032.672,0,1.328-.048,1.328-.5,0-.112-.144-.7-1.12-.7-.08,0-.256.016-.352.016C101.68-6.656,96.1-6.448,95.568-6.448Zm27.856-6.032a1.52,1.52,0,0,0-1.568,1.52,1.572,1.572,0,0,0,1.552,1.552,1.561,1.561,0,0,0,1.536-1.552A1.489,1.489,0,0,0,123.424-12.48Zm-.032.544a1.07,1.07,0,0,1,1.024,1.008.987.987,0,0,1-.992.976.993.993,0,0,1-1.04-.96A1.029,1.029,0,0,1,123.392-11.936ZM111.856-9.984c-.1,0-.144.048-.144.352,0,.88,1.28,1.68,1.648,1.68a5.8,5.8,0,0,0,.8-.352,52.5,52.5,0,0,1,5.76-1.152c.08,0,.352.016.352.288a9.04,9.04,0,0,1-1.088,2.7,20.824,20.824,0,0,1-6.32,6.336c-.16.112-.208.144-.208.208a.106.106,0,0,0,.112.1,16.282,16.282,0,0,0,8.256-7.456,2.648,2.648,0,0,1,.624-1.008c.288-.288.368-.368.368-.576,0-.224-.1-.4-.816-1.04-.5-.432-.752-.656-1.1-.656-.112,0-.176.032-.672.256a41.425,41.425,0,0,1-6.032.752,3.769,3.769,0,0,1-1.328-.336C112.032-9.888,111.888-9.984,111.856-9.984Zm22.64-1.664c-.08,0-.192,0-.192-.1a1,1,0,0,1,.448-.5c.464-.192.56-.24.56-.384,0-.176-.192-.224-.544-.352-.16-.064-1.04-.352-1.1-.352-.192,0-.224.1-.288.4-.16.64-1.136,2.208-3.28,4.4-.032.032-.816.816-.816.832,0,.048.048.08.112.08A11.257,11.257,0,0,0,132.88-10.3a3.73,3.73,0,0,1,.544-.5c.048,0,.1.048.176.208a10.707,10.707,0,0,0,1.36,2.144c.176.24.272.368.272.432,0,.3-3.408,2.992-6.5,4.432-.432.208-.48.224-.48.288a.114.114,0,0,0,.128.112A28.344,28.344,0,0,0,131.36-4.3c.176,0,.192.16.224.384a8.9,8.9,0,0,1,.1,1.68c0,.448-.016,1.376-.048,2.176,0,.1-.032.608-.032.72,0,.3.048.528.432.528a.8.8,0,0,0,.88-.752c.032-.336.3-.336.5-.336h4.816c.432,0,.464.224.464.544,0,.128,0,.416.352.416a.929.929,0,0,0,.912-.928c0-.256-.08-1.5-.08-1.792,0-.5.032-.928.032-1.2a.446.446,0,0,1,.192-.4c.256-.192.288-.208.288-.352,0-.208-1.072-.912-1.264-.912-.1,0-.128.032-.432.336a.526.526,0,0,1-.464.176h-4.88a1.866,1.866,0,0,1-.848-.224c-.5-.208-.56-.224-.56-.32,0-.08.032-.1.288-.224A22.577,22.577,0,0,0,135.472-6.9c.336-.272.384-.3.48-.3a7.086,7.086,0,0,1,.928.768,11.747,11.747,0,0,0,4.464,2.512c.144,0,.24-.1.384-.256a2.63,2.63,0,0,1,1.168-.768c.144-.048.224-.08.224-.128,0-.064-.032-.064-.24-.08-.256-.016-.816-.1-1.232-.176a10.579,10.579,0,0,1-5.008-2.48c0-.064.064-.112.128-.176.16-.144.56-.528.736-.688.336-.336,1.872-2.16,2.016-2.208.416-.144.512-.176.512-.352,0-.32-1.248-1.1-1.408-1.1-.112,0-.128.032-.336.368a.564.564,0,0,1-.56.32Zm3.12.416c.128,0,.24,0,.24.144a9.131,9.131,0,0,1-2.048,2.544c-.432,0-2.176-2.272-2.176-2.464,0-.224.272-.224.464-.224ZM133.344-.32c-.448,0-.48,0-.48-1.9,0-1.3,0-1.376.464-1.376h4.912c.112,0,.336,0,.416.176a10.5,10.5,0,0,1,.064,1.472A10.378,10.378,0,0,1,138.656-.5a.421.421,0,0,1-.416.176Zm18.848.9c.064.08.1.112.144.112s.288-.048.336-.048c.56-.048,1.632-.032,2.016-.032h5.68c.528,0,.864,0,.864-.224,0-.272-1.408-1.312-1.552-1.312-.192,0-.24.064-.672.624a.994.994,0,0,1-.944.48h-.592c-.416,0-.416-.288-.416-.88,0-1.072-.048-5.76-.048-6.72,0-.288.032-.528.464-.528H159.7c.512,0,.848,0,.848-.208,0-.3-1.12-1.344-1.344-1.344-.144,0-.192.064-.656.688-.336.448-.416.448-1.168.448-.384,0-.384-.3-.384-.5,0-.432.048-3.088.144-3.312.032-.08.352-.352.352-.432,0-.272-.336-.352-.48-.4-.112-.032-1.1-.336-1.152-.336-.1,0-.128.032-.128.112,0,.128.1.688.1.816.08,1.2.112,1.92.112,3.392,0,.448-.032.656-.416.656-.544,0-1.84-.064-2-.064-.08,0-.656-.048-.672-.048s-.048,0-.048.032,0,.032.064.112l.3.368c.064.064.1.1.144.1.064,0,.288-.032.336-.032.56-.048,1.488-.048,1.888-.048.384,0,.384.336.384.5,0,.832-.032,6.992-.064,7.28-.032.352-.32.352-.464.352h-.624c-.9,0-1.728-.032-2.192-.048-.112,0-.608-.064-.7-.064a.051.051,0,0,0-.048.048c0,.016,0,.016.064.1ZM146.96-9.216c.048.064.08.1.144.1.048,0,.288-.032.336-.032.56-.032,1.232-.048,1.856-.048h1.12c.144,0,.256.016.256.16,0,.464-2.256,3.264-2.9,3.92A16.1,16.1,0,0,0,146.384-3.7c0,.048.048.048.08.048.416,0,2.5-1.808,2.656-1.808s.16.272.16.448c0,1.888-.064,3.552-.1,4.736,0,.176-.064.912-.064,1.072,0,.224.1.384.48.384a.763.763,0,0,0,.848-.736c0-.224-.08-1.216-.08-1.424,0-.656-.016-3.616-.016-4.224,0-.192,0-.416.144-.416.3,0,.832.816.928.992.416.848.592,1.168.976,1.168.288,0,.56-.24.56-.736,0-1.216-1.5-1.648-2.048-1.776-.384-.08-.528-.112-.528-.448,0-.288.048-.336.512-.816a18.417,18.417,0,0,1,1.488-1.6c.048-.016.272-.064.32-.08a.241.241,0,0,0,.176-.208c0-.1-.032-.128-.384-.464-.048-.032-.384-.432-.576-.624a.3.3,0,0,0-.224-.112c-.144,0-.608.48-.72.544a.57.57,0,0,1-.384.112c-.16,0-.256-.032-.256-.256v-1.344c0-.672,0-.752.08-.9.032-.064.32-.3.32-.368,0-.112-.1-.176-.176-.224a12.3,12.3,0,0,0-1.44-.432c-.016,0-.064,0-.064.032,0,.1.08.464.08.544.048.608.064,1.552.064,1.792,0,1.072,0,1.184-.448,1.184-.336,0-1.808-.1-2.112-.1-.016,0-.064,0-.064.032,0,.016.016.032.08.112Zm25.552-1.664a4.121,4.121,0,0,1,4.432,4.432c0,3.984-3.472,5.36-5.136,6.016-.4.16-.432.176-.432.224,0,.1.1.112.16.112a9.834,9.834,0,0,0,2.656-.592,5.967,5.967,0,0,0,4.032-5.632,5.015,5.015,0,0,0-2.784-4.656,5.212,5.212,0,0,0-2.576-.512,6.62,6.62,0,0,0-5.1,2.08,5.636,5.636,0,0,0-1.776,4.08c0,1.952.944,3.6,2,3.6.64,0,1.456-.384,2.736-2.336a8.207,8.207,0,0,0,1.648-4.688,12.265,12.265,0,0,0-.16-1.728c0-.064-.032-.128-.032-.176C172.176-10.752,172.192-10.88,172.512-10.88Zm-.9.048c.208,0,.272.08.272,1.04a9.152,9.152,0,0,1-1.568,4.656c-1.1,1.664-1.488,1.856-1.952,1.856-.976,0-1.392-1.424-1.392-2.464A5.525,5.525,0,0,1,171.616-10.832Zm18.352,1.376a1.148,1.148,0,0,1-.608-.112c-.656-.352-.736-.384-.848-.384-.144,0-.144.128-.144.192,0,.208.064,1.232.064,1.472,0,.464-.1,2.752-.1,3.264,0,.352.112.464.416.464.432,0,.5-.128.624-.384.112-.224.192-.224.512-.224h1.168c.464,0,.464.208.464.784,0,.688-.016.9-.48.9h-.7c-.736,0-1.456,0-2.192-.048-.1,0-.592-.064-.7-.064a.042.042,0,0,0-.048.048.243.243,0,0,0,.064.1l.3.368c.064.064.1.112.144.112s.288-.048.336-.048c.56-.032,1.664-.048,2.032-.048h.736c.224,0,.464.048.464.448,0,.16-.064.96-.064,1.136,0,.608.384.688.528.688.656,0,.656-.672.656-.9,0-.128-.048-.784-.048-.928,0-.432.288-.448.48-.448h3.216c.752,0,.832,0,.832-.192,0-.256-.944-1.008-1.1-1.008s-.32.192-.48.432c-.256.352-.336.352-1.072.352h-1.408c-.5,0-.5-.048-.5-1.344,0-.048,0-.336.5-.336h1.312c.288,0,.4,0,.464.24a.327.327,0,0,0,.352.272c.208,0,.736-.08.736-.912,0-.368-.032-2-.032-2.336,0-.7,0-.816.208-.928.16-.08.256-.16.256-.256,0-.128-.56-.912-.88-.912-.128,0-.24.08-.448.288-.272.256-.384.256-1.04.256h-.976c-.336,0-.48-.128-.48-.48,0-1.04,0-1.152.528-1.152h2.976c.544,0,.848,0,.848-.224,0-.336-1.024-.928-1.232-.928-.128,0-.16.048-.48.464-.208.272-.288.272-1.024.272h-1.2c-.176,0-.384,0-.384-.368a2.8,2.8,0,0,1,.08-.64,3.075,3.075,0,0,0,.224-.464.284.284,0,0,0-.064-.16,5.3,5.3,0,0,0-1.28-.24.151.151,0,0,0-.16.16,3.6,3.6,0,0,0,.08.352,3.521,3.521,0,0,1,.1.8c0,.32-.032.56-.464.56h-.544c-.752,0-1.472-.032-2.192-.064-.112,0-.608-.048-.72-.048-.032,0-.048,0-.048.032s0,.032.064.112l.3.368c.064.064.1.1.144.1s.288-.032.336-.032c.56-.048,1.664-.048,2.032-.048h.608c.5,0,.5.112.5,1.056,0,.336,0,.576-.48.576Zm4.416,2.336c.432,0,.432.288.432.416,0,.992-.032,1.1-.5,1.1h-1.328c-.48,0-.48-.24-.48-.816,0-.432,0-.7.48-.7Zm-4.576-.432c-.448,0-.448-.192-.448-.8,0-.432.032-.672.448-.672h1.28c.432,0,.432.208.432.752,0,.5,0,.72-.432.72Zm.016,1.952c-.448,0-.448-.224-.448-.976,0-.352.032-.544.5-.544h1.2c.48,0,.48.224.48.7,0,.656,0,.816-.512.816ZM194.4-9.024c.48,0,.5.24.5.72,0,.576-.016.752-.544.752h-1.344c-.528,0-.528-.192-.528-.72s0-.752.5-.752Zm-7.68-.96c0-.112,0-1.1-1.936-1.888a5.755,5.755,0,0,0-1.424-.416c-.064,0-.112,0-.112.048a4.187,4.187,0,0,0,.464.416,10.8,10.8,0,0,1,1.616,1.7c.544.832.608.928.9.928C186.5-9.2,186.72-9.5,186.72-9.984Zm-3.3,3.584c.048.064.08.1.144.1.048,0,.288-.032.336-.032.352-.032.928-.048,1.328-.048.448,0,.48.144.48,1.76,0,2.112-.016,2.128-.16,2.3a7.65,7.65,0,0,1-2.064,1.312c-.224.048-.448.1-.448.24,0,.192.768,1.328,1.024,1.328.176,0,.192-.064.368-.576A16.087,16.087,0,0,1,186.384-2.4c.128,0,.352.768.416.9.96,1.9,3.056,2.24,9.424,2.24.208,0,.224,0,.3-.384a1.466,1.466,0,0,1,.8-1.008c.16-.064.224-.128.224-.192,0-.048-.064-.048-.1-.048-.128,0-.672.144-.784.16A27.26,27.26,0,0,1,192.5-.48c-5.84,0-5.84-.976-5.84-3.84A13.4,13.4,0,0,1,186.72-6c.064-.112.656-.352.656-.48,0-.1-.7-.992-.9-.992-.08,0-.112.048-.5.48a.6.6,0,0,1-.512.176c-.48,0-1.6-.032-1.792-.048-.1-.016-.5-.048-.576-.048-.032,0-.064,0-.064.032,0,.016.016.048.064.112Zm28.224-4.672c-.112,0-.3,0-.3-.24,0-.112.688-1.152,1.056-1.264.176-.064.3-.1.3-.256a.217.217,0,0,0-.1-.176c-.032-.016-1.12-.416-1.184-.416-.1,0-.1.08-.1.16a6.633,6.633,0,0,1-.688,1.984.657.657,0,0,1-.56.208h-1.168c-.064,0-.3,0-.3-.24a4.135,4.135,0,0,1,.688-1.232c.192-.064.368-.112.368-.256,0-.272-1.312-.768-1.568-.768-.016,0-.1,0-.1.048s.064.24.064.288A14.92,14.92,0,0,1,205.888-8.4c-.064.1-.192.3-.272.4a.069.069,0,0,0,.064.064c.128,0,1.536-1.6,1.648-1.6a.164.164,0,0,1,.16.176c0,.624-.176,3.52-.176,3.936,0,.272.032.416.352.416a.924.924,0,0,0,.752-.432c.256-.3.368-.3.56-.3h6.256c.416,0,.688,0,.688-.224,0-.192-1.1-1.056-1.184-1.056-.144,0-.528.64-.64.752-.064.064-.1.112-.672.112h-1.5c-.432,0-.432-.112-.432-.9,0-.24.1-.368.432-.368H214c.4,0,.672,0,.672-.224,0-.208-1.12-1.072-1.168-1.072-.144,0-.544.64-.64.752-.08.08-.176.112-.576.112-.56,0-.624,0-.7-.08-.1-.08-.1-.144-.1-.656,0-.368.064-.464.464-.464H213.9c.416,0,.688,0,.688-.224,0-.192-1.1-1.056-1.184-1.056-.16,0-.56.72-.7.8a2.686,2.686,0,0,1-.736.064c-.272,0-.48-.128-.48-.432,0-.544,0-.736.528-.736h2.752c.416,0,.672,0,.672-.224,0-.208-1.088-1.056-1.184-1.056-.128,0-.528.624-.624.736-.064.08-.1.112-.688.112Zm-1.52,2.016c.432,0,.432.224.432.656,0,.368-.048.544-.432.544H208.9c-.368,0-.448-.176-.448-.608,0-.592.224-.592.448-.592Zm-.08-1.584c.4,0,.544.016.544.608,0,.56-.208.56-.544.56H208.96c-.368,0-.544-.016-.544-.592,0-.56.176-.576.544-.576Zm.064,3.216c.48,0,.48.144.48.64,0,.464,0,.624-.48.624h-1.184c-.48,0-.48-.144-.48-.672,0-.432,0-.592.48-.592Zm-.272,2.768c-.48,0-.88,0-2-.048-.144,0-.768-.064-.9-.064-.032,0-.064.016-.064.048,0,.016.016.032.08.1l.3.368c.048.064.08.112.144.112.144,0,1.056-.08,1.232-.08.464,0,.544.144.544.384a5.619,5.619,0,0,1-1.328,3.184A6.823,6.823,0,0,1,206.144.832a.689.689,0,0,0-.16.112c0,.016.016.032.048.032a5.715,5.715,0,0,0,1.52-.528,6.028,6.028,0,0,0,2.784-4.272.458.458,0,0,1,.5-.4h.832a.318.318,0,0,1,.352.32c0,.192-.32,1.408-.32,1.616a.345.345,0,0,0,.368.336.935.935,0,0,0,.64-.336.589.589,0,0,1,.5-.16h.608c.1,0,.32,0,.32.256,0,.32-.528,2.144-1.632,2.144-.224,0-1.248-.144-1.456-.144-.128,0,.816.624.96.752a1.135,1.135,0,0,1,.368.512c.08.176.112.208.272.208.848,0,2.048-.88,2.528-2.8a.664.664,0,0,1,.288-.432c.3-.24.32-.24.32-.336s-.736-1.088-.96-1.088c-.112,0-.16.032-.64.384a.515.515,0,0,1-.384.112h-.512a.311.311,0,0,1-.352-.32c0-.08.112-.7.3-.832.224-.16.336-.24.336-.368,0-.192-.864-.768-.96-.768-.112,0-.224.128-.432.32a.676.676,0,0,1-.608.192ZM201.68-9.6c.064.08.1.112.144.112.144,0,1.024-.08,1.2-.08.224,0,.48,0,.512.352,0,.08.048,2.624.048,2.864a.6.6,0,0,1-.3.544,9.842,9.842,0,0,1-1.6.336c-.032,0-.24-.032-.288-.032s-.064.064-.064.128c0,.048.256.624.3.736.272.784.3.864.5.864.112,0,.448-.416.528-.5.08-.064.5-.448.72-.448s.224.288.224.384c0,.336.016,1.984.016,2.352,0,1.424,0,1.584-.688,1.584-.16,0-.96-.064-1.152-.064-.064,0-.128.032-.128.08,0,.016.464.32.544.384a2.05,2.05,0,0,1,.832.976c.064.192.08.224.192.224a2.438,2.438,0,0,0,.928-.384,1.273,1.273,0,0,0,.528-1.184c0-.656-.08-3.84-.08-4.56,0-.432.128-.512.72-.832A6.971,6.971,0,0,0,206.7-6.7c0-.048-.048-.064-.08-.064-.208,0-1.76.5-1.824.5-.24,0-.24-.224-.24-.5,0-.352-.016-2.048-.016-2.432,0-.368.4-.368.544-.368h.976c.16,0,.384-.016.384-.24a2.51,2.51,0,0,0-1.056-1.024c-.112,0-.128.064-.384.592-.08.176-.128.256-.24.256-.224,0-.224-.1-.224-.864a5.276,5.276,0,0,1,.1-1.28c.048-.1.448-.448.448-.576,0-.064-.048-.192-.24-.24a9.417,9.417,0,0,0-1.5-.384c-.064,0-.128.032-.128.08a5.306,5.306,0,0,1,.256.688c.016.256.048,1.52.048,2.128,0,.432-.352.432-.56.432-.256,0-1.552-.112-1.6-.112a.042.042,0,0,0-.048.048c0,.016.016.048.064.1Zm20.944,4.992a12.475,12.475,0,0,1,1.232-4.128c.3-.544.3-.56.3-.736,0-.576-.672-2.032-1.408-2.032-.064,0-.128.032-.128.08a2.027,2.027,0,0,0,.1.288A3.919,3.919,0,0,1,222.88-10a5.433,5.433,0,0,1-.272,1.664,11.5,11.5,0,0,0-.672,3.488c0,1.536.736,4.256,1.728,4.256a.536.536,0,0,0,.528-.544,1.725,1.725,0,0,0-.192-.7,2.854,2.854,0,0,1-.256-.832c0-.384.368-2.256.368-2.432,0-.032,0-.192-.08-.192s-.128.128-.224.4c-.352.992-.5,1.248-.768,1.248C222.784-3.648,222.624-4.128,222.624-4.608Zm8.288-5.92c-.16-.016-.208,0-.688.176a6.462,6.462,0,0,1-1.76.24,5.467,5.467,0,0,1-1.088-.1c-.208-.048-.4-.112-.448-.112-.1,0-.112.048-.112.08,0,.208.992,1.184,2.8,1.184.192,0,1.968,0,1.968-.784A.8.8,0,0,0,230.912-10.528Zm.688,7.936c-.064,0-1.184.112-1.408.128a13.335,13.335,0,0,1-1.392.048,3.938,3.938,0,0,1-1.712-.272,2.387,2.387,0,0,0-.384-.224c-.08,0-.08.128-.08.16,0,.3.416.72.5.8a3.268,3.268,0,0,0,2.5.72c2.24,0,2.72-.192,2.72-.816C232.336-2.24,232.208-2.592,231.6-2.592Zm12.752-9.936c-.032,0-.144,0-.144.064a.355.355,0,0,0,.1.192,1.82,1.82,0,0,1,.432.96c.048.56.064,3.824.064,3.952,0,.4.16,3.056.16,3.456,0,.368-.1.4-.336.4-.112,0-.688-.048-.832-.048-1.824,0-3.36.688-3.36,1.728,0,.912,1.28,1.872,2.752,1.872a2.662,2.662,0,0,0,2.48-1.424c.208-.448.24-.5.4-.5a2.278,2.278,0,0,1,.912.4,5.026,5.026,0,0,0,1.472.768.609.609,0,0,0,.576-.64c0-.512-1.04-.96-2.032-1.392-.832-.352-.928-.4-.992-.64-.048-.176-.24-4.176-.24-4.48s.032-.4.16-.432c.032-.016,1.072-.016,1.1-.016,1.312,0,1.7-.384,1.7-.624,0-.256-.592-.7-1.008-.7a7.112,7.112,0,0,0-1.056.4,2.548,2.548,0,0,1-.672.128c-.176,0-.192-.048-.192-.256a10.367,10.367,0,0,1,.144-1.1,7.64,7.64,0,0,0,.24-.864A1.9,1.9,0,0,0,244.352-12.528Zm.48,10.16c.048.144-.24,1.328-1.984,1.328-1.152,0-1.7-.48-1.7-.784,0-.88,1.936-.9,2.1-.9C243.952-2.72,244.768-2.576,244.832-2.368Zm20.144.976c-.224,0-.32-.144-.544-.432a2.362,2.362,0,0,0-1.824-1.024,1.54,1.54,0,0,0-1.584,1.3c0,.8,1.136,1.648,2.72,1.648,2.032,0,4-1.424,4-3.456a3.454,3.454,0,0,0-3.6-3.328,3.871,3.871,0,0,0-1.408.256c-.1.032-.3.112-.4.144-.048,0-.1-.064-.1-.112a9.757,9.757,0,0,1,2.56-3.28c.768-.528,1.136-.784,1.136-1.248,0-.7-1.04-1.1-1.68-1.1-.352,0-.464.048-1.456.48a7.758,7.758,0,0,1-2.48.576c-.336,0-.384,0-.384.048,0,.08.5,1.1,1.248,1.1.272,0,.5-.048,1.136-.576.272-.224,1.216-1.024,1.808-1.024.192,0,.3.112.3.224,0,.176-.224.512-.752,1.264a52.7,52.7,0,0,1-3.616,4.816c-1.136,1.328-1.264,1.68-1.264,2.08a.441.441,0,0,0,.464.448c.432,0,.592-.3.912-.848.288-.5,1.648-2.688,3.76-2.688a2.533,2.533,0,0,1,2.7,2.432A2.367,2.367,0,0,1,264.976-1.392Zm-1.472.16a.265.265,0,0,1-.272.288c-.688,0-1.376-.336-1.376-.752a.654.654,0,0,1,.672-.56A1.088,1.088,0,0,1,263.5-1.232ZM11.3,27.008a15.611,15.611,0,0,1-.8,2.9A14.853,14.853,0,0,1,7.04,35.168a2.913,2.913,0,0,0-.48.544.092.092,0,0,0,.1.1,3.377,3.377,0,0,0,.72-.368,12.021,12.021,0,0,0,4.208-5.312c.16-.368.88-2.16,1.056-2.544.064-.128.48-.624.48-.768,0-.336-1.36-1.392-1.568-1.392-.08,0-.416.288-.512.32-.416.176-5.088.768-5.568.768-.608,0-.736-.08-.848-.16-.48-.288-.592-.352-.832-.352-.256,0-.576.128-.576.24A2.8,2.8,0,0,0,3.5,26.7a5.686,5.686,0,0,1,.512,2.544,4.238,4.238,0,0,1-.048.72,3.3,3.3,0,0,0-.112.72c0,.576.544,1.456.912,1.456.416,0,.416-.976.416-1.184,0-.352-.176-2.08-.176-2.464,0-.976,0-1.056.672-1.152,1.04-.16,5.1-.656,5.328-.656C11.3,26.688,11.3,26.832,11.3,27.008Zm14.224.032c0-.944-1.344-1.856-3.056-1.856-.224,0-.352.08-.352.144s.08.112.144.144a3.6,3.6,0,0,1,1.456,1.312c.528.8.688,1.056,1.12,1.056A.707.707,0,0,0,25.52,27.04Zm6.656-.144a.1.1,0,0,0-.08-.08c-.032,0-.48.448-.736.7-2.656,2.624-6.9,5.456-7.68,5.456a2.648,2.648,0,0,1-1.088-.368,3.983,3.983,0,0,0-.48-.3c-.144,0-.16.736-.16.848,0,.64,1.184,1.664,2.048,1.664.24,0,.272-.032.576-.4A11.173,11.173,0,0,1,26.144,33.1C30.3,30.032,32.176,27.04,32.176,26.9ZM45.84,26.88A17.447,17.447,0,0,1,39.808,34.3a4.936,4.936,0,0,0-.736.592c0,.1.08.1.112.1a3.93,3.93,0,0,0,.992-.368A16.075,16.075,0,0,0,44.448,31.2c.352-.4.4-.448.56-.448.352,0,1.76,1.216,2.864,3.152.56.992.624,1.1.992,1.1a.691.691,0,0,0,.656-.7c0-1.456-2.864-3.072-3.584-3.488-.672-.368-.7-.4-.7-.544a.526.526,0,0,1,.128-.32c.256-.368,1.52-2.24,1.84-2.624.1-.112.688-.544.688-.688,0-.4-.976-1.216-1.36-1.216a6.108,6.108,0,0,0-.88.5,22.141,22.141,0,0,1-4.384.592,2.851,2.851,0,0,1-.848-.16c-.048-.016-.4-.112-.416-.112-.08,0-.1.048-.1.128a3.265,3.265,0,0,0,.384.928,3.339,3.339,0,0,0,1.088.576,6.911,6.911,0,0,0,.72-.3c.08-.032,3.44-.816,3.552-.816A.18.18,0,0,1,45.84,26.88Zm14.752-2.816.032.064a1.775,1.775,0,0,1,.544.736c.192.512.192,1.024.192,5.6a33.116,33.116,0,0,1-.144,3.712c0,.064-.064.4-.064.464,0,.416.416,1.5.9,1.5.464,0,.464-1.056.464-1.456,0-.24-.016-.64-.032-.816-.064-1.44-.08-2.288-.08-3.984,0-1.184.064-1.184.224-1.184.5,0,1.248.752,1.7,1.344,1.072,1.392,1.12,1.456,1.52,1.456a.548.548,0,0,0,.576-.56c0-1.2-2.48-2.368-3.456-2.592-.464-.112-.528-.16-.528-.512a20.754,20.754,0,0,1,.144-2.224,4.636,4.636,0,0,0,.192-.672c0-.512-1.152-1.024-1.728-1.024C61.024,23.92,60.608,23.92,60.592,24.064Zm23.3,4.656c0,1.376-1.872,4.384-5.28,6.992a6.833,6.833,0,0,0-.9.672.1.1,0,0,0,.1.1,14.01,14.01,0,0,0,6.512-5.648,13.042,13.042,0,0,1,.816-1.376c.272-.16.336-.176.336-.3,0-.464-.64-.848-.9-.976a3.56,3.56,0,0,0-.72-.4.109.109,0,0,0-.112.112,1.02,1.02,0,0,0,.032.144A1.622,1.622,0,0,1,83.888,28.72Zm-7.008.528c-.112,0-.208.048-.208.144,0,.048.032.1.112.208a5.723,5.723,0,0,1,.928,1.616c.112.352.224.72.576.72a.582.582,0,0,0,.544-.608C78.832,30.048,77.264,29.248,76.88,29.248Zm2.768-1.472c-.08-.016-.16.032-.16.08a1.807,1.807,0,0,0,.176.352,5.022,5.022,0,0,1,.592,1.52c.048.272.128.672.48.672.288,0,.544-.352.544-.816A2.027,2.027,0,0,0,79.648,27.776Zm25.536-4.256a1.52,1.52,0,0,0-1.568,1.52,1.544,1.544,0,1,0,3.088,0A1.489,1.489,0,0,0,105.184,23.52Zm-.032.544a1.07,1.07,0,0,1,1.024,1.008,1.017,1.017,0,0,1-2.032.016A1.029,1.029,0,0,1,105.152,24.064ZM93.616,26.016c-.1,0-.144.048-.144.352,0,.88,1.28,1.68,1.648,1.68a5.8,5.8,0,0,0,.8-.352,52.5,52.5,0,0,1,5.76-1.152c.08,0,.352.016.352.288a9.04,9.04,0,0,1-1.088,2.7,20.824,20.824,0,0,1-6.32,6.336c-.16.112-.208.144-.208.208a.106.106,0,0,0,.112.1,16.282,16.282,0,0,0,8.256-7.456,2.648,2.648,0,0,1,.624-1.008c.288-.288.368-.368.368-.576,0-.224-.1-.4-.816-1.04-.5-.432-.752-.656-1.1-.656-.112,0-.176.032-.672.256a41.425,41.425,0,0,1-6.032.752,3.769,3.769,0,0,1-1.328-.336C93.792,26.112,93.648,26.016,93.616,26.016Zm28.736.752c0-.352-.512-.8-.672-.944a1.443,1.443,0,0,0-1.168-.448c-.064,0-.416,0-.416.144,0,.048.064.112.08.128a1.209,1.209,0,0,1,.448.816,15.534,15.534,0,0,1-4.816,7.744c-.256.24-1.7,1.44-1.7,1.5a.086.086,0,0,0,.08.08,8.735,8.735,0,0,0,1.776-.88,14.256,14.256,0,0,0,4.768-5.312c.16-.288.864-1.776,1.056-2.08C121.872,27.408,122.352,26.912,122.352,26.768Zm-9.568-.48c-.032,0-.128-.016-.128.048,0,.048.064.112.1.144a7.219,7.219,0,0,1,1.28,1.552c.7,1.216.768,1.312,1.12,1.312.1,0,.656-.1.656-.864C115.808,26.88,113.456,26.432,112.784,26.288Zm19.168-1.408c0,.128.08.224.208.368.5.576.576.944.576,2.736,0,.288,0,.912-.032,1.632,0,.128-.08.672-.08.8,0,.416.368,1.264.72,1.264.24,0,.608-.4.608-.816,0-.16-.08-.96-.1-1.152-.016-.384-.048-1.824-.048-3.68,0-.08.032-.448.032-.528,0-.272-.88-.832-1.264-.832C132.208,24.672,131.952,24.768,131.952,24.88Zm5.648,1.488c0,3.2-.112,5.984-3.2,9.28-.192.208-1.232,1.232-1.232,1.3,0,.048.032.08.1.08a6.379,6.379,0,0,0,1.44-.944,10.122,10.122,0,0,0,4-7.424c.048-.56.064-2.96.128-3.392a6.223,6.223,0,0,0,.16-.64c0-.416-.8-.816-1.76-.816-.464,0-.464.048-.464.1,0,.032.016.064.208.32A3.059,3.059,0,0,1,137.6,26.368Zm13.12,3.36c-.1,0-.144.016-.144.112,0,.3.576,1.056.944,1.056a4.087,4.087,0,0,0,.56-.224A25.677,25.677,0,0,1,154.72,30c.08,0,.208,0,.208.24,0,.032-.352,2.56-.384,2.864-.048.352-.08.528-.256.608-.192.08-3.84.352-4.24.352a4.527,4.527,0,0,1-1.152-.192,3.735,3.735,0,0,0-.4-.112c-.08,0-.112.032-.112.112,0,.864,1.184,1.424,1.328,1.424a5.859,5.859,0,0,0,.7-.208,32,32,0,0,1,6.032-.672,6.708,6.708,0,0,1,1.632.176,7.858,7.858,0,0,0,.88.192c.3,0,.352-.24.352-.4,0-.592-1.008-1.088-1.664-1.088-.256,0-1.52.3-1.808.3-.224,0-.256-.1-.256-.224a12.164,12.164,0,0,1,.56-3.072c.048-.08.4-.448.4-.56a1.786,1.786,0,0,0-1.248-.88,3.683,3.683,0,0,0-.512.24,20.177,20.177,0,0,1-3.28.656C151.376,29.76,150.768,29.728,150.72,29.728Zm17.808-.176a8.713,8.713,0,0,1-1.952-.144c-.08-.016-.464-.192-.544-.192s-.128.1-.128.192c0,.544.736,1.536,1.424,1.536.192,0,1.056-.256,1.248-.288.384-.08,4.048-.288,6.256-.288.32,0,1.92.032,2.288.032.672,0,1.328-.048,1.328-.5,0-.112-.144-.7-1.12-.7-.08,0-.256.016-.352.016C174.64,29.344,169.056,29.552,168.528,29.552Zm18.736,5.936c.208,0,.976-.72,1.168-.848,6.624-4.64,8.032-8.064,8.032-8.24a.059.059,0,0,0-.064-.064,7.626,7.626,0,0,0-.688.72c-3.824,4.336-8.128,6.736-8.816,6.736-.128,0-.736-.208-.88-.208-.1,0-.144.048-.144.112a.679.679,0,0,0,.1.3c.048.08.336.416.384.5C186.752,35.232,186.912,35.488,187.264,35.488Zm-.608-7.376c-.208,0-1.12.016-1.12.24,0,.064.1.128.144.16a3.881,3.881,0,0,1,1.456,1.328c.24.4.32.5.56.5.384,0,.624-.48.624-.8C188.32,28.752,187.344,28.112,186.656,28.112Zm1.856-3.056a1.9,1.9,0,0,0-1.232.3c0,.048.176.1.24.112a2.785,2.785,0,0,1,1.376.848c.576.688.656.752.832.752.256,0,.512-.352.512-.72C190.24,26.3,190.24,25.056,188.512,25.056Zm16.48,3.664a.175.175,0,0,0-.144.176c0,.224.592,1.088,1.184,1.088.192,0,1.168-.16,1.392-.192,1.152-.144,2.976-.336,3.072-.336.24,0,.32.08.32.352a4.688,4.688,0,0,1-.128,1.3,19.8,19.8,0,0,1-4.224.432,2.179,2.179,0,0,1-.8-.112,2.5,2.5,0,0,0-.384-.16c-.08,0-.112.048-.112.208a1.158,1.158,0,0,0,1.088.976c.272,0,1.984-.224,2.416-.272.592-.08,1.744-.24,1.808-.24.192,0,.256.1.256.3,0,.064-.032.736-.032.864-.016.448-.016.592-.192.688-.144.064-3.3.384-3.936.384a2.576,2.576,0,0,1-.768-.128,2.658,2.658,0,0,0-.528-.16c-.128,0-.144.128-.144.192,0,.128.48,1.152.912,1.152.176,0,.672-.144.8-.16.432-.08,2.992-.384,3.52-.384.224,0,.224.048.256.256.064.368.272.624.512.624s.624-.288.624-1.024c0-.144-.032-.848-.032-1.008,0-1.056.032-2.256.08-3.312a.81.81,0,0,1,.16-.528c.224-.256.272-.3.272-.464,0-.32-.944-1.04-1.072-1.04-.112,0-.56.384-.688.432a22.88,22.88,0,0,1-3.984.352,3.965,3.965,0,0,1-.928-.08A4.928,4.928,0,0,0,204.992,28.72Zm21.168-1.68c0-.944-1.344-1.856-3.056-1.856-.224,0-.352.08-.352.144s.08.112.144.144a3.6,3.6,0,0,1,1.456,1.312c.528.8.688,1.056,1.12,1.056A.707.707,0,0,0,226.16,27.04Zm6.656-.144a.1.1,0,0,0-.08-.08c-.032,0-.48.448-.736.7-2.656,2.624-6.9,5.456-7.68,5.456a2.648,2.648,0,0,1-1.088-.368,3.983,3.983,0,0,0-.48-.3c-.144,0-.16.736-.16.848,0,.64,1.184,1.664,2.048,1.664.24,0,.272-.032.576-.4a11.173,11.173,0,0,1,1.568-1.312C230.944,30.032,232.816,27.04,232.816,26.9Zm6.432-.368c-.208.224.56,1.3,1.36,1.3a1.221,1.221,0,0,0,.544-.208A20.352,20.352,0,0,1,245.92,25.9c.032,0,.1,0,.1.032a3.129,3.129,0,0,1-.4.336c-2.3,2.064-2.32,5.456-2.32,6.16a3.008,3.008,0,0,0,3.264,3.424c.1,0,1.856,0,1.856-.848,0-.384-.288-.592-.784-.592-.144,0-1.28.1-1.52.1-.944,0-1.952-.176-1.952-2.864,0-4.128,2.272-6,4.3-6,.176,0,1.088.176,1.3.176a.639.639,0,0,0,.656-.592c0-.544-.72-.768-1.3-.768a43.388,43.388,0,0,0-6.144,1.44,10.338,10.338,0,0,1-3.1.688C239.776,26.592,239.312,26.448,239.248,26.528ZM250.272,27.6a1.477,1.477,0,0,0-.4-.08c-.048,0-.224,0-.224.1,0,.08.064.144.144.208a4.145,4.145,0,0,1,1.056,1.28c.16.384.336.848.72.848.208,0,.464-.176.464-.592C252.032,28.592,251.216,27.9,250.272,27.6Zm-2.064.656c-.144-.032-.32-.016-.32.064a.868.868,0,0,0,.16.288,4.187,4.187,0,0,1,.8,1.248c.256.624.4.928.688.928a.649.649,0,0,0,.56-.656A2.313,2.313,0,0,0,248.208,28.256Zm9.92,5.12a1.776,1.776,0,0,0-.016,3.552,1.776,1.776,0,1,0,.016-3.552Zm-.016.448a1.342,1.342,0,0,1,1.36,1.344,1.321,1.321,0,0,1-1.328,1.312,1.342,1.342,0,0,1-1.344-1.344A1.3,1.3,0,0,1,258.112,33.824ZM5.264,61.376c.368,0,.464.08.464.32,0,1.136-1.9,3.584-4.16,4.544-.048.032-.24.112-.24.144,0,.064.064.064.08.064a5.076,5.076,0,0,0,1.552-.48,7.071,7.071,0,0,0,2.912-2.144c.176-.208.912-1.264,1.04-1.328.352-.16.48-.224.48-.384,0-.08,0-.128-.352-.352-.144-.08-.4-.24-.4-.288,0-.1.112-.1.368-.1h1.5a.387.387,0,0,1,.416.384c.032.528.032,1.808.032,2.4,0,1.456.352,1.456,2.816,1.456a8.718,8.718,0,0,0,2.3-.16c.528-.144.96-.576.96-.912,0-.112-.016-.128-.24-.3-.272-.208-.272-.464-.272-.784.016-.416.016-.48-.08-.48a5.044,5.044,0,0,0-.56.912c-.432.672-.592.672-2.144.672-1.392,0-1.632-.048-1.744-.464a16.692,16.692,0,0,1-.112-2.224c0-.16,0-.5.416-.5h2.064c.192,0,.3,0,.3.112a7.175,7.175,0,0,1-.512.944c0,.032.016.08.064.08a6.957,6.957,0,0,0,.624-.368,1.95,1.95,0,0,1,.944-.336c1.328-.032,1.456-.016,1.456-.336,0-.08,0-.208-.4-.48a12.031,12.031,0,0,0-1.424-.88c-.1,0-.192.192-.288.384a.621.621,0,0,1-.656.464H9.008c-.4,0-.4-.32-.4-.464a2.779,2.779,0,0,1,.128-.976c.032-.08.336-.4.336-.48,0-.256-1.28-.5-1.6-.5-.192,0-.208.1-.208.128a2.417,2.417,0,0,0,.144.288,4.756,4.756,0,0,1,.08.928c0,.768,0,1.072-.432,1.072H3.328a.548.548,0,0,1-.576-.288c-.24-.352-.464-.688-.56-.688-.08,0-.1.208-.1.272a4.025,4.025,0,0,1-.32,1.456A6.205,6.205,0,0,0,1.2,62.768c0,.208.208.416.576.416.608,0,1.056-.608,1.184-1.264.112-.528.144-.544.512-.544Zm-.192,6.016c-.848,0-1.5-.016-2.192-.048-.112,0-.592-.064-.7-.064-.048,0-.064.016-.064.048,0,.016,0,.032.064.1l.32.384c.016.016.1.1.128.1.048,0,.288-.048.352-.048.56-.032,1.616-.048,2.016-.048H7.168c.416,0,.416.32.416.784,0,.4-.032,2.352-.048,2.8,0,.16,0,.512-.416.512H3.536c-.592,0-1.84-.032-2.32-.064-.08,0-.5-.048-.576-.048-.048,0-.064.016-.064.048,0,.016.016.032.064.1l.32.368c.048.064.08.1.144.1.048,0,.272-.032.336-.032.56-.048,1.632-.048,2.128-.048H14.912c.24,0,.4-.016.4-.192a4.526,4.526,0,0,0-1.456-1.408c-.144,0-.192.064-.608.7-.192.32-.3.48-.656.48H9.136c-.016,0-.368,0-.4-.32-.016-.16-.016-2.512-.016-2.784,0-.656,0-.992.416-.992h4.448c.272,0,.416-.064.416-.224,0-.24-1.248-1.136-1.488-1.136-.128,0-.24.032-.656.544-.336.4-.528.4-.688.4Zm16.352-7.728c-.224,0-.272-.016-.688-.24a2.381,2.381,0,0,0-.752-.288c-.064,0-.064.1-.064.16,0,.016.08,1.344.1,1.472.016.208.016,2.608.016,3.584,0,1.76,0,2.816-.16,7.568,0,.208-.016.592-.016.64,0,.112,0,.56.416.56.832,0,.832-.864.832-1.152,0-.384-.048-2.08-.064-2.432-.016-.608-.016-3.312-.016-4.048a7.689,7.689,0,0,1,.048-1.136c.08-.208.336-.208.592-.208h1.984c.3,0,.48,0,.528.336.032.256.08.56.464.56.224,0,.672-.16.672-1.04,0-.464-.08-2.5-.08-2.912,0-.432,0-.56.112-.7.048-.064.3-.3.3-.384,0-.224-.8-.816-.976-.816-.144,0-.272.128-.432.3a.5.5,0,0,1-.448.176Zm2.368.432c.32,0,.464,0,.464.32v.864c0,.416-.1.416-.464.416H21.5c-.32,0-.464,0-.464-.336V60.5c0-.4.1-.4.464-.4Zm-.032,2.016c.352,0,.48.016.48.368v.912c0,.32-.16.32-.48.32H21.5c-.352,0-.48,0-.48-.352v-.928c0-.32.16-.32.48-.32Zm4.688-2.48a.69.69,0,0,1-.416-.1,2.207,2.207,0,0,0-.752-.256c-.144,0-.176.192-.176.272,0,.272.08,1.456.08,1.7s0,3.392.016,3.488a.351.351,0,0,0,.384.3c.288,0,.688-.16.736-.512.048-.256.1-.336.464-.336h2.08c.4,0,.624,0,.624.5,0,2.288-.032,6.3-.048,6.464-.048.448-.208.528-1.248.576-.16,0-.752.032-.752.112,0,.144.672.32.784.384a1.108,1.108,0,0,1,.448.464c.16.272.272.432.448.432a2.657,2.657,0,0,0,.752-.256c.56-.288.64-.672.64-1.312,0-1.648-.032-8.912-.032-10.384,0-.576,0-.624.256-.848.1-.08.176-.16.176-.256,0-.3-.912-.816-1.04-.816-.1,0-.16.048-.352.256a.353.353,0,0,1-.336.128Zm.24,1.984c-.224,0-.4,0-.432-.24-.016-.064-.016-.72-.016-.96,0-.368.176-.368.448-.368H31.04c.256,0,.4,0,.448.24v.976c0,.352-.16.352-.448.352Zm.032,2.16c-.336,0-.464,0-.464-.352V62.368c0-.32.144-.32.464-.32h2.32c.32,0,.448,0,.448.336V63.44c0,.336-.144.336-.448.336Zm-3.888,2.336c-.192,0-1.008-.384-1.184-.384-.08,0-.144.016-.144.144,0,.08.048.432.048.5.048.576.048,2.112.048,2.192,0,.672-.016,1.152-.064,1.984-.016.144-.032.576-.032.688,0,.5.16.576.368.576.4,0,.672-.272.736-.752.032-.3.112-.368.48-.368h1.984c.32,0,.528,0,.528.384,0,.24,0,.576.352.576a1.022,1.022,0,0,0,.672-.352c.144-.176.144-.384.144-.816,0-.384-.048-2.912,0-3.328a.7.7,0,0,1,.224-.48.362.362,0,0,0,.1-.208c0-.288-.784-.816-.944-.816-.144,0-.32.176-.448.32a.381.381,0,0,1-.368.144Zm2.432.432c.3,0,.416,0,.416.4v.912c-.048.224-.176.224-.416.224H25.008c-.24,0-.368,0-.416-.224v-.8c0-.48.032-.512.416-.512Zm-.032,1.968c.32,0,.384,0,.432.224.016.08.016.96.016,1.1,0,.416-.1.416-.448.416H25.04c-.288,0-.448,0-.448-.3v-1.1c0-.336.144-.336.448-.336Zm12.992-1.12a12.475,12.475,0,0,1,1.232-4.128c.3-.544.3-.56.3-.736,0-.576-.672-2.032-1.408-2.032-.064,0-.128.032-.128.08a2.026,2.026,0,0,0,.1.288A3.919,3.919,0,0,1,40.48,62a5.433,5.433,0,0,1-.272,1.664,11.5,11.5,0,0,0-.672,3.488c0,1.536.736,4.256,1.728,4.256a.536.536,0,0,0,.528-.544,1.725,1.725,0,0,0-.192-.7,2.854,2.854,0,0,1-.256-.832c0-.384.368-2.256.368-2.432,0-.032,0-.192-.08-.192s-.128.128-.224.4c-.352.992-.5,1.248-.768,1.248C40.384,68.352,40.224,67.872,40.224,67.392Zm8.288-5.92c-.16-.016-.208,0-.688.176a6.462,6.462,0,0,1-1.76.24,5.467,5.467,0,0,1-1.088-.1c-.208-.048-.4-.112-.448-.112-.1,0-.112.048-.112.08,0,.208.992,1.184,2.8,1.184.192,0,1.968,0,1.968-.784A.8.8,0,0,0,48.512,61.472Zm.688,7.936c-.064,0-1.184.112-1.408.128a13.336,13.336,0,0,1-1.392.048,3.938,3.938,0,0,1-1.712-.272,2.387,2.387,0,0,0-.384-.224c-.08,0-.08.128-.08.16,0,.3.416.72.5.8a3.268,3.268,0,0,0,2.5.72c2.24,0,2.72-.192,2.72-.816C49.936,69.76,49.808,69.408,49.2,69.408ZM63.1,64.1c.3-.384.816-.96,1.088-1.344A4.57,4.57,0,0,1,65.28,61.44a.4.4,0,0,0,.144-.32c0-.608-1.616-1.28-1.856-1.28a.158.158,0,0,0-.16.128,1.778,1.778,0,0,0,.112.256.905.905,0,0,1,.128.448c0,.448-1.248,3.168-5.024,6.4-.256.224-.7.592-1.12.96a.145.145,0,0,0-.048.112c0,.064.032.1.08.1a17.574,17.574,0,0,0,4.544-3.056c.128-.128.192-.192.272-.192.416,0,.416,1.68.416,2.256,0,.848-.064,2.08-.16,2.944-.016.16-.176.864-.176,1.024,0,.432.544,1.12.992,1.12.384,0,.384-.544.384-.7,0-.208-.1-1.136-.112-1.328-.032-.624-.048-1.488-.048-1.92a15.447,15.447,0,0,1,.1-2.832c.016-.1.192-.544.192-.64,0-.144-.064-.208-.688-.592A.258.258,0,0,1,63.1,64.1ZM82.56,62.3a8.394,8.394,0,0,1-1.3,2.832,23.383,23.383,0,0,1-4.352,5.056,8.777,8.777,0,0,0-1.024.976.075.075,0,0,0,.08.08,5.524,5.524,0,0,0,1.424-.784,19.919,19.919,0,0,0,5.5-5.6,20.108,20.108,0,0,1,1.088-1.7c.416-.368.464-.416.464-.64,0-.768-1.856-1.5-2.1-1.5a.192.192,0,0,0-.192.176.472.472,0,0,0,.08.208A2.233,2.233,0,0,1,82.56,62.3Zm15.488.352c-.448,0-.7.208-1.456.816-2,1.616-2.816,1.92-3.552,1.92-.08,0-.416-.064-.5-.064-.1,0-.112.112-.112.192a.687.687,0,0,0,.192.5c.736.752,1.008.928,1.344.928a1.024,1.024,0,0,0,.8-.5,3.341,3.341,0,0,1,.72-.816c2.256-2.1,2.272-2.1,2.544-2.1a.761.761,0,0,1,.48.24c.176.192.96,1.184,1.152,1.408,3.968,4.8,5.184,4.8,5.648,4.8.288,0,.672-.112.672-.48a.789.789,0,0,0-.352-.592c-.208-.176-1.408-.9-1.68-1.072a25.63,25.63,0,0,1-4.288-4.016C99.232,63.28,98.688,62.656,98.048,62.656Zm5.744-1.648c-.3,0-.624-.016-.624.128,0,.032.032.112.192.192a3.689,3.689,0,0,1,1.28,1.056c.24.368.448.688.8.688a.47.47,0,0,0,.416-.512C105.856,61.472,104.208,61.024,103.792,61.008ZM102.08,62.32c-.128,0-.288.064-.288.128s.16.176.24.24A4.572,4.572,0,0,1,103.12,63.7c.448.608.592.736.816.736.288,0,.48-.4.48-.624C104.416,63.28,103.568,62.32,102.08,62.32Zm11.728,3.232a8.713,8.713,0,0,1-1.952-.144c-.08-.016-.464-.192-.544-.192s-.128.1-.128.192c0,.544.736,1.536,1.424,1.536.192,0,1.056-.256,1.248-.288.384-.08,4.048-.288,6.256-.288.32,0,1.92.032,2.288.032.672,0,1.328-.048,1.328-.5,0-.112-.144-.7-1.12-.7-.08,0-.256.016-.352.016C119.92,65.344,114.336,65.552,113.808,65.552Zm18.736,5.936c.208,0,.976-.72,1.168-.848,6.624-4.64,8.032-8.064,8.032-8.24a.059.059,0,0,0-.064-.064,7.628,7.628,0,0,0-.688.72c-3.824,4.336-8.128,6.736-8.816,6.736-.128,0-.736-.208-.88-.208-.1,0-.144.048-.144.112a.679.679,0,0,0,.1.3c.048.08.336.416.384.5C132.032,71.232,132.192,71.488,132.544,71.488Zm-.608-7.376c-.208,0-1.12.016-1.12.24,0,.064.1.128.144.16a3.882,3.882,0,0,1,1.456,1.328c.24.4.32.5.56.5.384,0,.624-.48.624-.8C133.6,64.752,132.624,64.112,131.936,64.112Zm1.856-3.056a1.9,1.9,0,0,0-1.232.3c0,.048.176.1.24.112a2.785,2.785,0,0,1,1.376.848c.576.688.656.752.832.752.256,0,.512-.352.512-.72C135.52,62.3,135.52,61.056,133.792,61.056Zm16.48,3.664a.175.175,0,0,0-.144.176c0,.224.592,1.088,1.184,1.088.192,0,1.168-.16,1.392-.192,1.152-.144,2.976-.336,3.072-.336.24,0,.32.08.32.352a4.688,4.688,0,0,1-.128,1.3,19.8,19.8,0,0,1-4.224.432,2.179,2.179,0,0,1-.8-.112,2.5,2.5,0,0,0-.384-.16c-.08,0-.112.048-.112.208a1.158,1.158,0,0,0,1.088.976c.272,0,1.984-.224,2.416-.272.592-.08,1.744-.24,1.808-.24.192,0,.256.1.256.3,0,.064-.032.736-.032.864-.016.448-.016.592-.192.688-.144.064-3.3.384-3.936.384a2.576,2.576,0,0,1-.768-.128,2.658,2.658,0,0,0-.528-.16c-.128,0-.144.128-.144.192,0,.128.48,1.152.912,1.152.176,0,.672-.144.8-.16.432-.08,2.992-.384,3.52-.384.224,0,.224.048.256.256.064.368.272.624.512.624s.624-.288.624-1.024c0-.144-.032-.848-.032-1.008,0-1.056.032-2.256.08-3.312a.81.81,0,0,1,.16-.528c.224-.256.272-.3.272-.464,0-.32-.944-1.04-1.072-1.04-.112,0-.56.384-.688.432a22.88,22.88,0,0,1-3.984.352,3.965,3.965,0,0,1-.928-.08A4.928,4.928,0,0,0,150.272,64.72Zm21.168-1.68c0-.944-1.344-1.856-3.056-1.856-.224,0-.352.08-.352.144s.08.112.144.144a3.6,3.6,0,0,1,1.456,1.312c.528.8.688,1.056,1.12,1.056A.707.707,0,0,0,171.44,63.04ZM178.1,62.9a.1.1,0,0,0-.08-.08c-.032,0-.48.448-.736.7-2.656,2.624-6.9,5.456-7.68,5.456a2.648,2.648,0,0,1-1.088-.368,3.983,3.983,0,0,0-.48-.3c-.144,0-.16.736-.16.848,0,.64,1.184,1.664,2.048,1.664.24,0,.272-.032.576-.4a11.173,11.173,0,0,1,1.568-1.312C176.224,66.032,178.1,63.04,178.1,62.9Zm8,4.768c.512,0,.688-.384.864-.784a2.754,2.754,0,0,1,1.968-1.7c.64,0,.768.9.768,1.616a.682.682,0,0,1-.24.56c-1.5,1.216-2.112,1.728-2.112,2.752,0,1.264,1.072,2.1,3.1,2.1.384,0,2.864-.064,2.864-1.056,0-.384-.448-.544-.784-.544-.208,0-1.232.256-1.456.288a4.952,4.952,0,0,1-1.024.1c-.464,0-2.064,0-2.064-1.1,0-.912,1.424-1.9,1.552-1.9.112,0,.112.128.112.192,0,.016-.048.784-.048.944,0,.288.064.816.5.816.592,0,.592-.912.592-1.168,0-.144-.032-.816-.032-.96,0-.336.016-.512.272-.672.288-.176,2.1-.9,2.5-1.072.992-.432,2.256-.96,2.256-1.712a1.509,1.509,0,0,0-1.5-1.424c-1.392,0-2.432,1.456-2.96,2.192a7.513,7.513,0,0,1-.656.864c-.032,0-.048-.032-.16-.3a1.443,1.443,0,0,0-1.36-.976,1.5,1.5,0,0,0-.624.128,3.2,3.2,0,0,1-.5.176.059.059,0,0,1-.064-.064c0-.064.032-.112.112-.256a12.408,12.408,0,0,0,.864-1.728c.352-.816.368-.848.608-.944.736-.288,1.9-.736,1.9-1.264,0-.336-.608-.416-.72-.416-.64-.048-.7-.08-.72-.288-.032-.352-.432-.5-.816-.5-.288,0-.7.128-.7.256,0,.1.336.384.384.464a1.283,1.283,0,0,1,.128.56c0,.32,0,.752-1.312.752a2.543,2.543,0,0,1-1.056-.288,3.6,3.6,0,0,0-.608-.3c-.1,0-.1.064-.1.112a1.7,1.7,0,0,0,1.424,1.408c.144,0,.8-.128.96-.128.064,0,.176.016.176.112a7.362,7.362,0,0,1-1.36,2.384c-1.088,1.264-1.536,1.776-1.536,2.256C185.488,67.568,185.792,67.664,186.1,67.664Zm3.44-6.688c0-.064.064-.512.288-.512.144,0,.544.032.544.24,0,.176-.768.384-.8.384S189.536,61.04,189.536,60.976Zm4.192,2.56a.492.492,0,0,1,.56.48c0,1.056-3.152,2.336-3.2,2.336s-.064-.048-.064-.08C191.024,66.016,192.4,63.536,193.728,63.536Zm19.648.736a.381.381,0,0,1,.448.32c.064.4.08.56.416.56a.677.677,0,0,0,.736-.656c0-.448-.048-2.416-.048-2.816,0-.9,0-.992.3-1.152.224-.112.336-.176.336-.288a.271.271,0,0,0-.144-.208,9.082,9.082,0,0,0-1.184-.592c-.1,0-.144.064-.368.336a.61.61,0,0,1-.544.24h-1.056c-.912,0-1.744-.048-2.192-.064-.112,0-.608-.048-.7-.048-.032,0-.064,0-.064.032,0,.016.016.032.064.112l.32.368c.048.064.08.1.144.1.032,0,.4-.048.464-.048.64-.032,1.424-.032,1.888-.032h1.2c.4,0,.448.176.464.416s.016,1.792.016,2.256c0,.528,0,.752-.48.752H211.28a1.389,1.389,0,0,1-.768-.208c-.832-.416-.912-.464-1.04-.464a.143.143,0,0,0-.144.144,3.691,3.691,0,0,0,.16.448,12.193,12.193,0,0,1,.1,1.792c0,.432-.048,2.56-.048,2.752,0,1.1,0,1.472,2.672,1.472a8.218,8.218,0,0,0,2.88-.384c.08-.048.56-.3.56-.592a3.953,3.953,0,0,0-.368-.736,2.727,2.727,0,0,1-.128-.88c0-.464,0-.528-.1-.528s-.128.1-.448.944c-.4,1.04-.432,1.088-2.224,1.088-.832,0-1.472,0-1.68-.272-.08-.112-.112-.24-.112-1.008v-2.7c0-.432.288-.448.48-.448Zm-11.712.784c.048.064.08.112.128.112.032,0,.192-.032.24-.032.416-.048,1.632-.064,1.84-.064.464,0,.64,0,.736.208a18.643,18.643,0,0,1,.08,2.144c0,.432-.016,1.792-.016,2.176,0,.048,0,.336-.16.336a2.838,2.838,0,0,1-1.1-1.776,2.729,2.729,0,0,1,.208-.944c.048-.048.32-.32.32-.4,0-.16-.048-.16-.464-.3a5.014,5.014,0,0,0-.88-.24.169.169,0,0,0-.192.192c0,.048.048.3.048.352a12.419,12.419,0,0,1-1.3,5.52c-.048.08-.128.208-.176.3a.042.042,0,0,0,.048.048,8.153,8.153,0,0,0,2.032-3.328c.016-.048.08-.24.176-.24s.192.176.224.224c.8,1.36,1.68,2.672,3.616,3.024a51.748,51.748,0,0,0,6.256.368c.464,0,1.1-.016,1.376-.032a.368.368,0,0,0,.3-.1,3.566,3.566,0,0,0,.144-.624,12.6,12.6,0,0,1,1.12-1.056.051.051,0,0,0-.048-.048,4.983,4.983,0,0,0-.48.192,21.927,21.927,0,0,1-4.912.448c-1.1,0-4.3-.016-4.992-.656-.192-.176-.192-.336-.192-1.888,0-.512.064-.688.592-.688h1.392c.7,0,.848-.032.848-.224,0-.256-.816-.928-1.04-.928-.08,0-.128,0-.5.464-.208.24-.288.272-.784.272-.512,0-.512-.288-.512-.64a3,3,0,0,1,.128-1.024c.288-.32.384-.416.384-.528,0-.208-.368-.288-.544-.32-.192-.032-.432-.08-.432-.16,0-.112.08-.112.224-.112h2.256c.56,0,.864,0,.864-.24,0-.288-.928-1.072-1.136-1.072-.1,0-.368.336-.544.56a.794.794,0,0,1-.688.32c-.464,0-.464-.112-.464-1.184,0-1.328,0-1.472.56-1.472h1.024c.56,0,.864,0,.864-.24,0-.288-.928-1.072-1.136-1.072-.1,0-.368.336-.544.56a.6.6,0,0,1-.416.24c-.352,0-.384-.192-.384-1.36a.557.557,0,0,1,.24-.544c.208-.16.208-.224.208-.272,0-.208-.048-.224-.592-.368-.1-.032-.928-.272-.976-.272-.08,0-.128.016-.128.128,0,.1.128.544.144.64a10.27,10.27,0,0,1,.064,1.472c0,.592-.128.672-.736.656-.416,0-1.5-.064-1.7-.064-.128,0-.48-.048-.576-.048-.016,0-.064.016-.064.032,0,.032.032.064.08.112l.3.368c.048.064.08.112.144.112.048,0,.176-.032.224-.032a14.466,14.466,0,0,1,1.68-.064c.352,0,.544,0,.624.256a13.81,13.81,0,0,1,.048,1.456c0,.9,0,.976-.72.976-.272,0-1.92-.08-2.016-.08s-.5-.048-.592-.048a.042.042,0,0,0-.048.048c0,.016,0,.032.064.1Zm22.88-4.416a5.089,5.089,0,0,0-.528-.16c-.032,0-.08,0-.08.048,0,.16.736,1.168,2.816,1.552.464.08.512.1.512.192,0,.192-.88.944-.88,1.088,0,.032.032.032.048.032.064,0,.064.016.224-.08a4.4,4.4,0,0,1,2.016-.768c1.1-.08,1.248-.08,1.248-.368a1.681,1.681,0,0,0-1.568-1.28c-.176,0-1.072.032-1.264.032A9.592,9.592,0,0,1,224.544,60.64Zm1.52,9.2c-1.136,0-2.624-.48-3.072-1.6-.032-.08-.144-.592-.256-.592-.032,0-.208.176-.208.784,0,2.512,3.376,2.8,4.96,2.8.88,0,3.6-.08,3.6-.944a.993.993,0,0,0-1.056-.752c-.08,0-2.512.336-2.992.336C226.88,69.872,226.176,69.84,226.064,69.84ZM242.3,59.616c-.1,0-.224.048-.224.16,0,.016.16.384.176.432a2.015,2.015,0,0,1,.144.784c0,.448-.144,1.76-.208,2.288a36.485,36.485,0,0,0-.368,4.448c0,3.216.992,4.416,3.072,4.416a7.482,7.482,0,0,0,5.376-2.752.075.075,0,0,0-.08-.08c-.064,0-1.28.672-1.52.784a7.881,7.881,0,0,1-3.36.832c-2.144,0-2.448-1.44-2.448-3.056a38.457,38.457,0,0,1,.672-5.7,7.359,7.359,0,0,0,.3-.9C243.84,60.912,243.136,59.616,242.3,59.616Zm15.36,2.912c-.192.224.56,1.3,1.36,1.3a1.157,1.157,0,0,0,.56-.208,20.959,20.959,0,0,1,4.752-1.712c.032,0,.1,0,.1.032a2.867,2.867,0,0,1-.384.336c-2.32,2.064-2.336,5.456-2.336,6.16a3.013,3.013,0,0,0,3.28,3.424c.1,0,1.856,0,1.856-.848,0-.384-.3-.592-.8-.592-.128,0-1.28.1-1.52.1-.944,0-1.952-.176-1.952-2.864,0-4.128,2.272-6,4.3-6,.192,0,1.1.176,1.312.176a.635.635,0,0,0,.64-.592c0-.544-.72-.768-1.28-.768a42.886,42.886,0,0,0-6.144,1.44,10.3,10.3,0,0,1-3.12.688C258.208,62.592,257.728,62.448,257.664,62.528Zm18.928-1.04c-.032,0-.1.016-.1.064a2.161,2.161,0,0,0,.128.544,4.445,4.445,0,0,1,.112.928c0,.416-.224,2.384-.224,2.832,0,3.056,2.016,4.736,3.04,4.736.272,0,.608-.176.608-.5a4.013,4.013,0,0,0-.128-.528,2.159,2.159,0,0,1-.1-.64,4.489,4.489,0,0,1,.208-1.216,1.92,1.92,0,0,0,.048-.32c0-.064-.032-.128-.08-.128-.128,0-.4.384-.5.544-.48.8-.544.88-.816.88-.5,0-1.328-1.168-1.328-2.784a5.651,5.651,0,0,1,.384-2.064,2.193,2.193,0,0,0,.192-.64C278.048,62.768,277.328,61.488,276.592,61.488Zm7.632,1.472c-.08,0-.144.032-.144.08,0,.1.64.592.768.72.848.848.848,1.52.848,2.848,0,.208,0,1.072.784,1.072.768,0,.8-.752.8-1.056a3.982,3.982,0,0,0-1.424-3.056A3.114,3.114,0,0,0,284.224,62.96Zm13.2-3.632c-.32,0-.624.272-.624.432,0,.112.064.128.528.352a5.48,5.48,0,0,1,1.632,1.7c0,.112-.56.192-.944.192a2.928,2.928,0,0,1-1.1-.224,3.177,3.177,0,0,0-.416-.144.125.125,0,0,0-.128.128,2.391,2.391,0,0,0,2.192,1.168c.16,0,1.008-.144,1.04-.144.192,0,1.088,1.408,1.088,1.5a5.4,5.4,0,0,1-2.48.512,4.078,4.078,0,0,1-1.68-.32,4.125,4.125,0,0,0-.512-.288.147.147,0,0,0-.144.16,1.252,1.252,0,0,0,.384.688,2.813,2.813,0,0,0,2.112.608,7.607,7.607,0,0,0,1.92-.24c.128-.032.736-.208.832-.208.144,0,.16.048.4.512a5.684,5.684,0,0,1,.72,1.968c0,.256-.176.336-.416.336a2.945,2.945,0,0,1-.7-.1,6.614,6.614,0,0,0-1.536-.192c-2.416,0-3.1,1.584-3.1,2.512,0,2.24,2.688,2.24,3.152,2.24.192,0,1.872,0,1.872-.912,0-.512-.56-.576-.752-.576-.224,0-1.3.112-1.552.112-.416,0-1.824-.08-1.824-1.264,0-.72.672-1.648,2.112-1.648a2.571,2.571,0,0,1,1.552.48c1.04.72,1.152.8,1.552.8a1.065,1.065,0,0,0,.928-1.1,4.813,4.813,0,0,0-1.024-2.512c-.5-.784-.512-.816-.512-.9,0-.064.048-.1.464-.24,1.376-.5,1.408-.864,1.408-1.088,0-.448-.416-.7-.944-.7-.1,0-.416.032-.992.08-.064.016-.224.032-.224.16,0,.064.208.288.208.352,0,.272-.512.448-.576.448a6.63,6.63,0,0,1-.976-1.344c0-.048.336-.176.384-.192a.913.913,0,0,0,.688-.784.5.5,0,0,0-.544-.48c-.192,0-.24.032-.56.224a1.5,1.5,0,0,1-.624.256A3.337,3.337,0,0,1,298.864,60C298.72,59.52,297.776,59.328,297.424,59.328Zm20.912,1.04a11.008,11.008,0,0,1-.1,1.408c-.032.16-.192.24-.528.24a2.824,2.824,0,0,1-1.552-.432c-.048-.032-.432-.256-.448-.256-.048,0-.064.08-.064.112,0,.624,1.008,1.44,2.144,1.52.256.016.336.016.336.1,0,.016-.128,2.112-.144,2.16-.112.3-1.184.3-1.568.3a6.225,6.225,0,0,1-1.936-.288,3.941,3.941,0,0,0-.608-.224c-.048,0-.048.032-.048.064a1.8,1.8,0,0,0,.464.736,3.263,3.263,0,0,0,2.208.656c.208,0,1.168-.08,1.392-.08.16,0,.16.1.16.24.016.432.032,1.5.032,1.824,0,.544,0,.592-.176.592-.112,0-.7-.048-.848-.048-1.9,0-2.88.736-2.88,1.7a1.856,1.856,0,0,0,2.048,1.728,3.1,3.1,0,0,0,2.72-1.616c.08-.176.112-.256.208-.256a2.856,2.856,0,0,1,1.12.864c.576.688.64.768.864.768a.62.62,0,0,0,.544-.672c0-.752-1.024-1.6-2.272-2.112-.336-.128-.336-.192-.4-.72-.016-.16-.192-2-.192-2.3,0-.16.048-.176.544-.352.736-.24,2.512-.976,2.512-1.536,0-.352-.416-.384-1.072-.432-.08,0-.416-.08-.5-.08-.032,0-.08,0-.08.048s.064.24.064.288c0,.512-1.152.832-1.328.832-.208,0-.208-.1-.208-.464,0-.656.064-1.5.08-1.552.016-.24.048-.256.176-.288.448-.144,1.536-.464,1.536-1.056,0-.256-.3-.3-.464-.3a1.914,1.914,0,0,0-.576.128,1.868,1.868,0,0,1-.448.144c-.064,0-.064-.064-.064-.1a3.739,3.739,0,0,1,.24-1.04,4.6,4.6,0,0,0,.4-.848c0-.336-.864-.736-1.3-.736-.1,0-.4,0-.4.112,0,.032.1.192.112.24A3.041,3.041,0,0,1,318.336,60.368Zm-.384,9.664c.064.144-.08.528-.368.784a2.64,2.64,0,0,1-1.584.592c-.448,0-1.28-.192-1.28-.8,0-.912,1.68-.912,1.712-.912C316.72,69.7,317.84,69.76,317.952,70.032ZM330,62.912c-.048.016-.08.1-.08.16,0,.656,1.328,1.328,1.68,1.328a14.872,14.872,0,0,0,1.712-.64,19.817,19.817,0,0,1,2.832-.64c.32,0,.32.1.32.96,0,.816,0,.912-.448.976-1.552.24-1.552,2-1.552,2.208,0,1.28.768,2.1,1.632,2.1.048,0,.288-.032.336-.032.16,0,.16.176.16.224a5.2,5.2,0,0,1-.9,2.352c-.112.16-.768.928-.768.96,0,.048.048.064.08.064.5,0,2.912-1.984,2.912-5.088a5.072,5.072,0,0,0-.464-2.16,2.09,2.09,0,0,1-.208-1.04c0-1.408.032-1.632.256-1.728a7.465,7.465,0,0,1,1.728-.16c.3,0,1.792.144,2.128.144.56,0,.864-.144.864-.56,0-.56-.7-.624-.912-.624-.128,0-.8.08-.96.08a3.516,3.516,0,0,1-1.408-.32c-.944-.4-1.408-.64-1.408-1.008,0-.08.064-.416.064-.5,0-.512-.624-.8-1.328-.8-.1,0-.336,0-.336.112,0,.08.256.368.272.448a9.557,9.557,0,0,1,.224,2.176c0,.416-.1.432-.928.576a32.339,32.339,0,0,1-4.352.544C330.928,63.024,330.16,62.928,330,62.912Zm7.552-1.872a3.469,3.469,0,0,1,1.216.848c0,.24-1.04.272-1.1.272-.224,0-.288-.048-.288-.3C337.376,61.44,337.44,61.072,337.552,61.04ZM336.464,66.1a3.112,3.112,0,0,1,.208,1.12c0,.256-.016,1.216-.64,1.216a1.159,1.159,0,0,1-1.04-1.28c0-.816.512-1.472.912-1.472A.676.676,0,0,1,336.464,66.1Zm12.864,3.28a1.776,1.776,0,0,0-.016,3.552,1.776,1.776,0,1,0,.016-3.552Zm-.016.448a1.342,1.342,0,0,1,1.36,1.344,1.321,1.321,0,0,1-1.328,1.312A1.342,1.342,0,0,1,348,71.136,1.3,1.3,0,0,1,349.312,69.824Z" transform="translate(-0.576 13.568)" fill="#fff"/>
</svg>
