<svg xmlns="http://www.w3.org/2000/svg" width="233.982" height="93.684" viewBox="0 0 233.982 93.684">
  <path id="パス_130447" data-name="パス 130447" d="M7.014-9.786c-.1,0-.182,0-.182-.056a3.778,3.778,0,0,1,.966-.826c.392-.154.434-.182.434-.266,0-.252-1.232-.784-1.26-.784-.07,0-.322.5-.392.6A12.816,12.816,0,0,1,2.212-7.35c-.1.056-.182.1-.182.168,0,.042.056.056.084.056A11.1,11.1,0,0,0,5.852-9.142a1.139,1.139,0,0,1,.784-.266H9.772c.112,0,.2,0,.2.084a12.876,12.876,0,0,1-4.06,2.786,30.541,30.541,0,0,1-3.85,1.33c-.252.056-.28.07-.28.126,0,.028,0,.1.154.1a17.028,17.028,0,0,0,5.32-1.4A17.682,17.682,0,0,0,11.27-9.058a1.309,1.309,0,0,1,.56-.364c.2-.042.294-.1.294-.2a2.015,2.015,0,0,0-1.036-.784c-.112,0-.154.042-.574.448a.712.712,0,0,1-.56.168ZM10.472-4.1c.084,0,.2,0,.2.1s-.63.6-.8.742C7.308-1.246,4.494-.35,1.512.588a3.147,3.147,0,0,0-.63.238c0,.028.028.084.154.084A18.838,18.838,0,0,0,6.678-.378,21.672,21.672,0,0,0,12.054-3.5a1.709,1.709,0,0,1,.742-.35c.1-.028.28-.084.28-.252,0-.224-.952-.812-1.078-.812a1.4,1.4,0,0,0-.49.294,1.011,1.011,0,0,1-.546.154H7.8c-.112,0-.21,0-.21-.07,0-.042.042-.07.35-.28.126-.084.686-.49.812-.546.07-.028.406-.084.476-.112s.2-.07.2-.2c0-.238-1.176-.826-1.288-.826a6.33,6.33,0,0,0-.574.672A16.419,16.419,0,0,1,1.82-2.576c-.448.168-.5.2-.5.252s.1.084.168.084a11.3,11.3,0,0,0,2.534-.616C4.256-2.94,5.32-3.4,5.46-3.4c.308,0,.8.91.854,1.05.224.658.252.742.476.742a.665.665,0,0,0,.574-.714c0-.756-1.19-1.134-1.218-1.148-.21-.07-.238-.1-.238-.14,0-.084.574-.35.658-.392a1.417,1.417,0,0,1,.63-.1ZM5.852-8.918a.085.085,0,0,0-.042.084c0,.042.014.07.154.322a2.917,2.917,0,0,1,.294.742c.084.35.126.56.406.56a.568.568,0,0,0,.518-.63C7.182-8.554,5.922-8.932,5.852-8.918ZM22.54-5.1c.462,0,.742,0,.742-.2,0-.238-1.05-.994-1.162-.994-.07,0-.112.056-.42.476-.224.308-.266.336-.8.336-.434,0-.448-.224-.448-.462a1.391,1.391,0,0,1,.1-.658c.056-.07.392-.336.392-.42,0-.238-1.022-.63-1.26-.63-.07,0-.2.028-.2.14a2.58,2.58,0,0,0,.07.35c.042.462.042.952.042,1.078,0,.6-.014.6-.714.6-.448,0-1.47-.042-1.75-.056-.084,0-.434-.042-.5-.042-.028,0-.056.014-.056.042s0,.014.056.084l.28.322c.042.056.07.1.112.1a2.045,2.045,0,0,0,.308-.042c.35-.028,1.148-.028,1.4-.028.084,0,.308,0,.308.238A14.848,14.848,0,0,1,16.94-.49a7.491,7.491,0,0,0-.434.63.045.045,0,0,0,.042.042c.42,0,1.988-1.736,2.66-3.262.21-.49.238-.532.322-.532s.084.028.084.392c0,.91-.014,1.96-.07,2.87,0,.112-.042.812-.042.882,0,.392.14.5.448.5.574,0,.574-.6.574-.784,0-.322-.042-1.792-.042-2.086,0-.378-.056-2.016-.056-2.352,0-.042.014-.154.084-.154.238,0,.714,1.05.784,1.19.294.644.322.714.5.714.266,0,.49-.322.49-.63,0-.728-.56-1.022-1.372-1.456-.462-.252-.476-.322-.476-.392,0-.182.238-.182.392-.182Zm.42-6.3c-.49-.378-.532-.42-.644-.42a4.274,4.274,0,0,0-.644.28,20.3,20.3,0,0,1-4.158,1.12c-.658.14-.728.154-.728.252,0,.056.084.056.154.056.21,0,.9-.042,1.148-.07.546-.056,3.206-.364,3.808-.42a11.028,11.028,0,0,1,1.414-.056c.1,0,.266-.014.266-.154C23.576-10.906,23.506-10.962,22.96-11.4ZM18.032-7.322c.378,0,.476-.406.476-.714A1.808,1.808,0,0,0,17.024-9.8.03.03,0,0,0,17-9.772a1.962,1.962,0,0,0,.21.42,2.744,2.744,0,0,1,.224.812C17.542-7.574,17.584-7.322,18.032-7.322Zm2-.462a.709.709,0,0,0,.63-.756,1.92,1.92,0,0,0-1.358-1.6c-.014,0-.042.014-.042.028a1.325,1.325,0,0,0,.1.252A3.4,3.4,0,0,1,19.6-8.708C19.7-7.882,19.7-7.784,20.034-7.784Zm3.038-2.142a1.966,1.966,0,0,0-.784-.28.078.078,0,0,0-.084.07c-.014.042-.042.252-.056.308-.056.364-.994,2.03-.994,2.114a.045.045,0,0,0,.042.042c.336,0,1.484-1.274,1.806-1.456.07-.042.518-.154.518-.252A.866.866,0,0,0,23.072-9.926Zm6.1,6.524c-.084-.084-.434-.518-.518-.616a.5.5,0,0,0-.364-.224c-.084,0-.28.392-.35.462-.742.854-2.226,2.2-5.712,3.976-.6.308-.672.35-.672.42s.056.056.1.056a4.555,4.555,0,0,0,.8-.2A19,19,0,0,0,26.67-1.372c.322-.2,1.834-1.26,2.044-1.316.6-.154.672-.168.672-.336C29.386-3.15,29.218-3.346,29.176-3.4Zm-.728-7.518c-.042-.042-.42-.336-.658-.532-.2-.154-.252-.21-.35-.21-.14,0-.14.126-.154.28-.042.574-1.722,2.492-2.842,3.584-.252.238-1.61,1.372-1.61,1.428,0,.028.014.042.028.042.084,0,1.33-.406,4.144-2.884A15.429,15.429,0,0,1,28.238-10.3c.434-.112.462-.126.462-.252A.533.533,0,0,0,28.448-10.92Zm.308,3.878c-.112-.112-.168-.168-.7-.686a.314.314,0,0,0-.21-.112c-.126,0-.154.084-.2.252a13.86,13.86,0,0,1-3.738,3.4,6.553,6.553,0,0,0-1.064.812.03.03,0,0,0,.028.028,17.921,17.921,0,0,0,5.208-2.912.738.738,0,0,1,.322-.2c.518-.07.574-.07.574-.21C28.98-6.762,28.938-6.874,28.756-7.042Zm8.092-2.38a1.744,1.744,0,0,1-.616.084,2.074,2.074,0,0,1-1.078-.294c-.28-.168-.322-.182-.378-.182-.084,0-.1.112-.1.168,0,.014,0,.994,1.652,1.134.21.014.308.028.308.154a12.526,12.526,0,0,1-1.932,4.564c-.42.6-.462.672-.462.868,0,.14.056.392.434.392,1.288,0,2.492-4.732,2.66-5.432.126-.49.14-.532.266-.574,1.134-.336,1.918-.588,1.918-1.12,0-.392-.532-.546-.8-.616-.42-.112-.56-.168-.63-.266a1.138,1.138,0,0,0-1.008-.616c-.28,0-.574.126-.574.294a2.778,2.778,0,0,0,.266.392,1.143,1.143,0,0,1,.2.616A.663.663,0,0,1,36.848-9.422Zm.882-.126a.15.15,0,0,1-.028-.084c0-.042.1-.616.336-.616.084,0,.574.252.574.35C38.612-9.688,37.772-9.506,37.73-9.548Zm3.36,8.232c.2-.084.84.35,1.218.686.21.182.294.224.434.224.28,0,.378-.252.378-.49,0-.518-.812-.966-1.106-1.12-.126-.07-.784-.294-.91-.392-.42-.294-.56-2.464-.56-2.814a1.578,1.578,0,0,1,.336-1.162A1.676,1.676,0,0,1,41.9-6.8c.168,0,.224.028.756.224a.968.968,0,0,0,.322.056.665.665,0,0,0,.658-.728A1.5,1.5,0,0,0,42.616-8.68a4.458,4.458,0,0,0-.826-.238c-.056,0-.1.028-.1.07s.056.112.182.224a1.229,1.229,0,0,1,.392.714c0,.364-.1.406-.966.91-1.176.672-1.26,1.414-1.26,2.954,0,.2.056,1.134.056,1.344,0,.14-.07.154-.2.154-.1,0-.616-.028-.728-.028-1.26,0-2.254.476-2.254,1.386A1.951,1.951,0,0,0,39.032.434a1.832,1.832,0,0,0,1.974-1.526C41.034-1.232,41.034-1.288,41.09-1.316Zm-.952-.364c.084.224-.112,1.288-1.47,1.288-.84,0-1.26-.42-1.26-.756,0-.742,1.26-.742,1.582-.742S40.068-1.89,40.138-1.68Zm13.314-7.6c.112.84-1.218,2.772-2.352,3.906a11.873,11.873,0,0,0-1.106,1.05c0,.042.028.084.1.084a4.278,4.278,0,0,0,1.344-.742,10.525,10.525,0,0,0,1.9-1.82c.588-.672.616-.7.882-.7.084,0,.462.042.546.042.336,0,2.268-.434,2.3-.434a.151.151,0,0,1,.154.154,17.485,17.485,0,0,1-6.93,7.56c-.434.238-.476.266-.476.322a.125.125,0,0,0,.126.126,9.577,9.577,0,0,0,2.786-1.344,17.119,17.119,0,0,0,5.012-5.264c.49-.756.546-.84.7-.938.462-.28.56-.336.56-.532a.507.507,0,0,0-.266-.35c-.07-.042-.434-.238-.518-.28-.574-.336-.644-.378-.77-.378a2.616,2.616,0,0,0-.658.224,7.924,7.924,0,0,1-2.128.56c-.056,0-.224,0-.224-.112,0-.07.042-.126.112-.224.28-.35.42-.532.42-.7a1.308,1.308,0,0,0-1.3-.784c-.112,0-.308,0-.308.14C53.354-9.66,53.438-9.352,53.452-9.282ZM58.8-11.648c-.14,0-.5.084-.5.2,0,.042.042.112.182.154a3.283,3.283,0,0,1,1.288.686c.308.322.448.462.742.462a.379.379,0,0,0,.35-.406c0-.14,0-.462-.574-.8A2.583,2.583,0,0,0,58.8-11.648Zm-.966,1.2c-.126,0-.238.07-.238.126s.14.154.21.2A4.421,4.421,0,0,1,58.8-9.3c.434.518.546.6.742.6.238,0,.406-.308.406-.546C59.948-9.408,59.626-10.444,57.834-10.444ZM69.272-7.168c0-.714-1.484-1.19-1.582-1.19-.056,0-.07.028-.07.07a1.039,1.039,0,0,0,.056.252,3.07,3.07,0,0,1,.238,1.2,7.414,7.414,0,0,1-1.694,4.1,3.964,3.964,0,0,0-.56.742.065.065,0,0,0,.07.07,4.875,4.875,0,0,0,2.59-2.66C68.558-5.11,69.272-7.126,69.272-7.168Zm2.464,5.04c.1-.014.224-.112.462-.378a7.78,7.78,0,0,1,.966-.9,11.763,11.763,0,0,0,3.262-4,.06.06,0,0,0-.056-.056c-.056,0-1.246,1.26-1.484,1.5a8.334,8.334,0,0,1-3.052,2.282c-.252,0-.266-.28-.266-.462,0-.462.056-2.156.112-2.534.028-.154.224-.882.224-1.05,0-.728-1.47-.98-1.54-.98-.028,0-.084.014-.084.07a3.639,3.639,0,0,0,.182.5A8.584,8.584,0,0,1,70.728-5.5c0,.35-.014,1.456-.056,1.722-.014.07-.084.434-.084.5C70.588-2.884,71.33-2.058,71.736-2.128ZM83.622-5.642a7.624,7.624,0,0,1-1.708-.126c-.07-.014-.406-.168-.476-.168s-.112.084-.112.168c0,.476.644,1.344,1.246,1.344.168,0,.924-.224,1.092-.252.336-.07,3.542-.252,5.474-.252.28,0,1.68.028,2,.028.588,0,1.162-.042,1.162-.434,0-.1-.126-.616-.98-.616-.07,0-.224.014-.308.014C88.97-5.824,84.084-5.642,83.622-5.642ZM108-10.92a1.33,1.33,0,0,0-1.372,1.33,1.376,1.376,0,0,0,1.358,1.358,1.366,1.366,0,0,0,1.344-1.358A1.3,1.3,0,0,0,108-10.92Zm-.028.476a.936.936,0,0,1,.9.882.863.863,0,0,1-.868.854.869.869,0,0,1-.91-.84A.9.9,0,0,1,107.968-10.444ZM97.874-8.736c-.084,0-.126.042-.126.308,0,.77,1.12,1.47,1.442,1.47a5.077,5.077,0,0,0,.7-.308,45.938,45.938,0,0,1,5.04-1.008c.07,0,.308.014.308.252a7.91,7.91,0,0,1-.952,2.366,18.221,18.221,0,0,1-5.53,5.544c-.14.1-.182.126-.182.182a.093.093,0,0,0,.1.084A14.246,14.246,0,0,0,105.9-6.37a2.317,2.317,0,0,1,.546-.882c.252-.252.322-.322.322-.5s-.084-.35-.714-.91c-.434-.378-.658-.574-.966-.574-.1,0-.154.028-.588.224a36.247,36.247,0,0,1-5.278.658,3.3,3.3,0,0,1-1.162-.294C98.028-8.652,97.9-8.736,97.874-8.736Zm19.81-1.456c-.07,0-.168,0-.168-.084a.873.873,0,0,1,.392-.434c.406-.168.49-.21.49-.336,0-.154-.168-.2-.476-.308-.14-.056-.91-.308-.966-.308-.168,0-.2.084-.252.35a11.922,11.922,0,0,1-2.87,3.85c-.028.028-.714.714-.714.728,0,.042.042.07.1.07a9.85,9.85,0,0,0,3.052-2.352,3.264,3.264,0,0,1,.476-.434c.042,0,.084.042.154.182a9.369,9.369,0,0,0,1.19,1.876c.154.21.238.322.238.378,0,.266-2.982,2.618-5.684,3.878-.378.182-.42.2-.42.252a.1.1,0,0,0,.112.1,24.8,24.8,0,0,0,2.6-.98c.154,0,.168.14.2.336a7.791,7.791,0,0,1,.084,1.47c0,.392-.014,1.2-.042,1.9,0,.084-.028.532-.028.63,0,.266.042.462.378.462a.7.7,0,0,0,.77-.658c.028-.294.266-.294.434-.294h4.214c.378,0,.406.2.406.476,0,.112,0,.364.308.364a.813.813,0,0,0,.8-.812c0-.224-.07-1.316-.07-1.568,0-.434.028-.812.028-1.05a.39.39,0,0,1,.168-.35c.224-.168.252-.182.252-.308,0-.182-.938-.8-1.106-.8-.084,0-.112.028-.378.294a.46.46,0,0,1-.406.154h-4.27a1.632,1.632,0,0,1-.742-.2c-.434-.182-.49-.2-.49-.28s.028-.084.252-.2a19.755,19.755,0,0,0,2.842-1.848c.294-.238.336-.266.42-.266a6.2,6.2,0,0,1,.812.672,10.279,10.279,0,0,0,3.906,2.2c.126,0,.21-.084.336-.224a2.3,2.3,0,0,1,1.022-.672c.126-.042.2-.07.2-.112s-.028-.056-.21-.07c-.224-.014-.714-.084-1.078-.154a9.257,9.257,0,0,1-4.382-2.17c0-.056.056-.1.112-.154.14-.126.49-.462.644-.6.294-.294,1.638-1.89,1.764-1.932.364-.126.448-.154.448-.308,0-.28-1.092-.966-1.232-.966-.1,0-.112.028-.294.322a.493.493,0,0,1-.49.28Zm2.73.364c.112,0,.21,0,.21.126a7.99,7.99,0,0,1-1.792,2.226c-.378,0-1.9-1.988-1.9-2.156,0-.2.238-.2.406-.2ZM116.676-.28c-.392,0-.42,0-.42-1.666,0-1.134,0-1.2.406-1.2h4.3c.1,0,.294,0,.364.154a9.185,9.185,0,0,1,.056,1.288,9.08,9.08,0,0,1-.056,1.274.368.368,0,0,1-.364.154ZM133.168.5c.056.07.084.1.126.1s.252-.042.294-.042c.49-.042,1.428-.028,1.764-.028h4.97c.462,0,.756,0,.756-.2,0-.238-1.232-1.148-1.358-1.148-.168,0-.21.056-.588.546a.87.87,0,0,1-.826.42h-.518c-.364,0-.364-.252-.364-.77,0-.938-.042-5.04-.042-5.88,0-.252.028-.462.406-.462h1.946c.448,0,.742,0,.742-.182,0-.266-.98-1.176-1.176-1.176-.126,0-.168.056-.574.6-.294.392-.364.392-1.022.392-.336,0-.336-.266-.336-.434,0-.378.042-2.7.126-2.9.028-.07.308-.308.308-.378,0-.238-.294-.308-.42-.35-.1-.028-.966-.294-1.008-.294-.084,0-.112.028-.112.1,0,.112.084.6.084.714.07,1.05.1,1.68.1,2.968,0,.392-.028.574-.364.574-.476,0-1.61-.056-1.75-.056-.07,0-.574-.042-.588-.042s-.042,0-.042.028,0,.028.056.1l.266.322c.056.056.084.084.126.084s.252-.028.294-.028c.49-.042,1.3-.042,1.652-.042s.336.294.336.434c0,.728-.028,6.118-.056,6.37-.028.308-.28.308-.406.308h-.546c-.784,0-1.512-.028-1.918-.042-.1,0-.532-.056-.616-.056a.045.045,0,0,0-.042.042c0,.014,0,.014.056.084ZM128.59-8.064c.042.056.07.084.126.084s.252-.028.294-.028c.49-.028,1.078-.042,1.624-.042h.98c.126,0,.224.014.224.14A17.241,17.241,0,0,1,129.3-4.48a14.089,14.089,0,0,0-1.218,1.246c0,.042.042.042.07.042.364,0,2.184-1.582,2.324-1.582s.14.238.14.392c0,1.652-.056,3.108-.084,4.144,0,.154-.056.8-.056.938,0,.2.084.336.42.336a.668.668,0,0,0,.742-.644c0-.2-.07-1.064-.07-1.246,0-.574-.014-3.164-.014-3.7,0-.168,0-.364.126-.364.266,0,.728.714.812.868.364.742.518,1.022.854,1.022.252,0,.49-.21.49-.644,0-1.064-1.316-1.442-1.792-1.554-.336-.07-.462-.1-.462-.392,0-.252.042-.294.448-.714a16.115,16.115,0,0,1,1.3-1.4c.042-.014.238-.056.28-.07a.21.21,0,0,0,.154-.182c0-.084-.028-.112-.336-.406-.042-.028-.336-.378-.5-.546a.265.265,0,0,0-.2-.1c-.126,0-.532.42-.63.476a.5.5,0,0,1-.336.1c-.14,0-.224-.028-.224-.224V-9.856c0-.588,0-.658.07-.784.028-.056.28-.266.28-.322,0-.1-.084-.154-.154-.2a10.763,10.763,0,0,0-1.26-.378c-.014,0-.056,0-.056.028,0,.084.07.406.07.476.042.532.056,1.358.056,1.568,0,.938,0,1.036-.392,1.036-.294,0-1.582-.084-1.848-.084-.014,0-.056,0-.056.028s.014.028.07.1ZM150.948-9.52a3.606,3.606,0,0,1,3.878,3.878c0,3.486-3.038,4.69-4.494,5.264-.35.14-.378.154-.378.2,0,.084.084.1.14.1A8.6,8.6,0,0,0,152.418-.6a5.221,5.221,0,0,0,3.528-4.928A4.388,4.388,0,0,0,153.51-9.6a4.561,4.561,0,0,0-2.254-.448,5.792,5.792,0,0,0-4.466,1.82,4.932,4.932,0,0,0-1.554,3.57c0,1.708.826,3.15,1.75,3.15.56,0,1.274-.336,2.394-2.044a7.181,7.181,0,0,0,1.442-4.1,10.731,10.731,0,0,0-.14-1.512c0-.056-.028-.112-.028-.154C150.654-9.408,150.668-9.52,150.948-9.52Zm-.784.042c.182,0,.238.07.238.91a8.008,8.008,0,0,1-1.372,4.074c-.966,1.456-1.3,1.624-1.708,1.624-.854,0-1.218-1.246-1.218-2.156A4.834,4.834,0,0,1,150.164-9.478Zm16.058,1.2a1,1,0,0,1-.532-.1c-.574-.308-.644-.336-.742-.336-.126,0-.126.112-.126.168,0,.182.056,1.078.056,1.288,0,.406-.084,2.408-.084,2.856,0,.308.1.406.364.406.378,0,.434-.112.546-.336.1-.2.168-.2.448-.2h1.022c.406,0,.406.182.406.686,0,.6-.014.784-.42.784h-.616c-.644,0-1.274,0-1.918-.042-.084,0-.518-.056-.616-.056a.037.037,0,0,0-.042.042.213.213,0,0,0,.056.084l.266.322c.056.056.084.1.126.1s.252-.042.294-.042c.49-.028,1.456-.042,1.778-.042h.644c.2,0,.406.042.406.392,0,.14-.056.84-.056.994,0,.532.336.6.462.6.574,0,.574-.588.574-.784,0-.112-.042-.686-.042-.812,0-.378.252-.392.42-.392h2.814c.658,0,.728,0,.728-.168,0-.224-.826-.882-.966-.882s-.28.168-.42.378c-.224.308-.294.308-.938.308h-1.232c-.434,0-.434-.042-.434-1.176,0-.042,0-.294.434-.294h1.148c.252,0,.35,0,.406.21a.286.286,0,0,0,.308.238c.182,0,.644-.07.644-.8,0-.322-.028-1.75-.028-2.044,0-.616,0-.714.182-.812.14-.07.224-.14.224-.224,0-.112-.49-.8-.77-.8-.112,0-.21.07-.392.252-.238.224-.336.224-.91.224h-.854c-.294,0-.42-.112-.42-.42,0-.91,0-1.008.462-1.008h2.6c.476,0,.742,0,.742-.2,0-.294-.9-.812-1.078-.812-.112,0-.14.042-.42.406-.182.238-.252.238-.9.238h-1.05c-.154,0-.336,0-.336-.322a2.454,2.454,0,0,1,.07-.56,2.691,2.691,0,0,0,.2-.406.249.249,0,0,0-.056-.14,4.633,4.633,0,0,0-1.12-.21.132.132,0,0,0-.14.14,3.151,3.151,0,0,0,.07.308,3.081,3.081,0,0,1,.084.7c0,.28-.028.49-.406.49h-.476c-.658,0-1.288-.028-1.918-.056-.1,0-.532-.042-.63-.042-.028,0-.042,0-.042.028s0,.028.056.1l.266.322c.056.056.084.084.126.084s.252-.028.294-.028c.49-.042,1.456-.042,1.778-.042h.532c.434,0,.434.1.434.924,0,.294,0,.5-.42.5Zm3.864,2.044c.378,0,.378.252.378.364,0,.868-.028.966-.434.966h-1.162c-.42,0-.42-.21-.42-.714,0-.378,0-.616.42-.616Zm-4-.378c-.392,0-.392-.168-.392-.7,0-.378.028-.588.392-.588h1.12c.378,0,.378.182.378.658,0,.434,0,.63-.378.63ZM166.1-4.9c-.392,0-.392-.2-.392-.854,0-.308.028-.476.434-.476h1.05c.42,0,.42.2.42.616,0,.574,0,.714-.448.714Zm4-3c.42,0,.434.21.434.63,0,.5-.014.658-.476.658h-1.176c-.462,0-.462-.168-.462-.63s0-.658.434-.658Zm-6.72-.84c0-.1,0-.966-1.694-1.652a5.035,5.035,0,0,0-1.246-.364c-.056,0-.1,0-.1.042a3.663,3.663,0,0,0,.406.364,9.447,9.447,0,0,1,1.414,1.484c.476.728.532.812.784.812S163.38-8.316,163.38-8.736ZM160.5-5.6c.042.056.07.084.126.084s.252-.028.294-.028c.308-.028.812-.042,1.162-.042.392,0,.42.126.42,1.54,0,1.848-.014,1.862-.14,2.016a6.694,6.694,0,0,1-1.806,1.148c-.2.042-.392.084-.392.21,0,.168.672,1.162.9,1.162.154,0,.168-.056.322-.5A14.076,14.076,0,0,1,163.086-2.1c.112,0,.308.672.364.784C164.29.35,166.124.644,171.7.644c.182,0,.2,0,.266-.336a1.282,1.282,0,0,1,.7-.882c.14-.056.2-.112.2-.168s-.056-.042-.084-.042c-.112,0-.588.126-.686.14a23.853,23.853,0,0,1-3.654.224c-5.11,0-5.11-.854-5.11-3.36a11.723,11.723,0,0,1,.056-1.47c.056-.1.574-.308.574-.42,0-.084-.616-.868-.784-.868-.07,0-.1.042-.434.42a.525.525,0,0,1-.448.154c-.42,0-1.4-.028-1.568-.042-.084-.014-.434-.042-.5-.042-.028,0-.056,0-.056.028s.014.042.056.1Zm24.7-4.088c-.1,0-.266,0-.266-.21,0-.1.6-1.008.924-1.106.154-.056.266-.084.266-.224a.19.19,0,0,0-.084-.154c-.028-.014-.98-.364-1.036-.364-.084,0-.084.07-.084.14a5.8,5.8,0,0,1-.6,1.736.575.575,0,0,1-.49.182H182.8c-.056,0-.266,0-.266-.21a3.618,3.618,0,0,1,.6-1.078c.168-.056.322-.1.322-.224,0-.238-1.148-.672-1.372-.672-.014,0-.084,0-.084.042s.056.21.056.252a13.055,13.055,0,0,1-1.9,4.228c-.056.084-.168.266-.238.35a.06.06,0,0,0,.056.056c.112,0,1.344-1.4,1.442-1.4a.143.143,0,0,1,.14.154c0,.546-.154,3.08-.154,3.444,0,.238.028.364.308.364a.809.809,0,0,0,.658-.378c.224-.266.322-.266.49-.266h5.474c.364,0,.6,0,.6-.2,0-.168-.966-.924-1.036-.924-.126,0-.462.56-.56.658-.056.056-.084.1-.588.1H185.43c-.378,0-.378-.1-.378-.784,0-.21.084-.322.378-.322h1.82c.35,0,.588,0,.588-.2s-.98-.938-1.022-.938c-.126,0-.476.56-.56.658-.07.07-.154.1-.5.1-.49,0-.546,0-.616-.07s-.084-.126-.084-.574c0-.322.056-.406.406-.406h1.708c.364,0,.6,0,.6-.2,0-.168-.966-.924-1.036-.924-.14,0-.49.63-.616.7a2.351,2.351,0,0,1-.644.056c-.238,0-.42-.112-.42-.378,0-.476,0-.644.462-.644h2.408c.364,0,.588,0,.588-.2s-.952-.924-1.036-.924c-.112,0-.462.546-.546.644-.056.07-.084.1-.6.1Zm-1.33,1.764c.378,0,.378.2.378.574,0,.322-.042.476-.378.476h-1.078c-.322,0-.392-.154-.392-.532,0-.518.2-.518.392-.518Zm-.07-1.386c.35,0,.476.014.476.532,0,.49-.182.49-.476.49h-.952c-.322,0-.476-.014-.476-.518s.154-.5.476-.5Zm.056,2.814c.42,0,.42.126.42.56,0,.406,0,.546-.42.546h-1.036c-.42,0-.42-.126-.42-.588,0-.378,0-.518.42-.518Zm-.238,2.422c-.42,0-.77,0-1.75-.042-.126,0-.672-.056-.784-.056-.028,0-.056.014-.056.042s.014.028.07.084l.266.322c.042.056.07.1.126.1.126,0,.924-.07,1.078-.07.406,0,.476.126.476.336a4.917,4.917,0,0,1-1.162,2.786,5.97,5.97,0,0,1-1.5,1.3.6.6,0,0,0-.14.1c0,.014.014.028.042.028a5,5,0,0,0,1.33-.462,5.275,5.275,0,0,0,2.436-3.738.4.4,0,0,1,.434-.35h.728a.278.278,0,0,1,.308.28c0,.168-.28,1.232-.28,1.414a.3.3,0,0,0,.322.294.818.818,0,0,0,.56-.294.515.515,0,0,1,.434-.14h.532c.084,0,.28,0,.28.224,0,.28-.462,1.876-1.428,1.876-.2,0-1.092-.126-1.274-.126-.112,0,.714.546.84.658a.993.993,0,0,1,.322.448c.07.154.1.182.238.182.742,0,1.792-.77,2.212-2.45a.581.581,0,0,1,.252-.378c.266-.21.28-.21.28-.294s-.644-.952-.84-.952c-.1,0-.14.028-.56.336a.45.45,0,0,1-.336.1h-.448a.272.272,0,0,1-.308-.28c0-.07.1-.616.266-.728.2-.14.294-.21.294-.322,0-.168-.756-.672-.84-.672s-.2.112-.378.28a.592.592,0,0,1-.532.168ZM176.47-8.4c.056.07.084.1.126.1.126,0,.9-.07,1.05-.07.2,0,.42,0,.448.308,0,.07.042,2.3.042,2.506a.525.525,0,0,1-.266.476,8.611,8.611,0,0,1-1.4.294c-.028,0-.21-.028-.252-.028s-.056.056-.056.112.224.546.266.644c.238.686.266.756.434.756.1,0,.392-.364.462-.434s.434-.392.63-.392.2.252.2.336c0,.294.014,1.736.014,2.058,0,1.246,0,1.386-.6,1.386-.14,0-.84-.056-1.008-.056-.056,0-.112.028-.112.07,0,.014.406.28.476.336a1.794,1.794,0,0,1,.728.854c.056.168.07.2.168.2a2.133,2.133,0,0,0,.812-.336,1.114,1.114,0,0,0,.462-1.036c0-.574-.07-3.36-.07-3.99,0-.378.112-.448.63-.728a6.1,6.1,0,0,0,1.218-.826c0-.042-.042-.056-.07-.056-.182,0-1.54.434-1.6.434-.21,0-.21-.2-.21-.434,0-.308-.014-1.792-.014-2.128s.35-.322.476-.322h.854c.14,0,.336-.014.336-.21a2.2,2.2,0,0,0-.924-.9c-.1,0-.112.056-.336.518-.07.154-.112.224-.21.224-.2,0-.2-.084-.2-.756a4.616,4.616,0,0,1,.084-1.12c.042-.084.392-.392.392-.5,0-.056-.042-.168-.21-.21a8.24,8.24,0,0,0-1.316-.336c-.056,0-.112.028-.112.07a4.64,4.64,0,0,1,.224.6c.014.224.042,1.33.042,1.862,0,.378-.308.378-.49.378-.224,0-1.358-.1-1.4-.1a.037.037,0,0,0-.042.042c0,.014.014.042.056.084ZM194.8-4.032a10.915,10.915,0,0,1,1.078-3.612c.266-.476.266-.49.266-.644,0-.5-.588-1.778-1.232-1.778-.056,0-.112.028-.112.07a1.772,1.772,0,0,0,.084.252,3.429,3.429,0,0,1,.14.994,4.753,4.753,0,0,1-.238,1.456,10.063,10.063,0,0,0-.588,3.052c0,1.344.644,3.724,1.512,3.724a.469.469,0,0,0,.462-.476A1.509,1.509,0,0,0,196-1.61a2.5,2.5,0,0,1-.224-.728c0-.336.322-1.974.322-2.128,0-.028,0-.168-.07-.168s-.112.112-.2.35c-.308.868-.434,1.092-.672,1.092S194.8-3.612,194.8-4.032Zm7.252-5.18c-.14-.014-.182,0-.6.154a5.655,5.655,0,0,1-1.54.21,4.784,4.784,0,0,1-.952-.084c-.182-.042-.35-.1-.392-.1-.084,0-.1.042-.1.07a2.746,2.746,0,0,0,2.45,1.036c.168,0,1.722,0,1.722-.686A.7.7,0,0,0,202.048-9.212Zm.6,6.944c-.056,0-1.036.1-1.232.112a11.668,11.668,0,0,1-1.218.042,3.446,3.446,0,0,1-1.5-.238,2.089,2.089,0,0,0-.336-.2c-.07,0-.07.112-.07.14,0,.266.364.63.434.7a2.859,2.859,0,0,0,2.184.63c1.96,0,2.38-.168,2.38-.714C203.294-1.96,203.182-2.268,202.65-2.268Zm11.158-8.694c-.028,0-.126,0-.126.056a.311.311,0,0,0,.084.168,1.592,1.592,0,0,1,.378.84c.042.49.056,3.346.056,3.458,0,.35.14,2.674.14,3.024,0,.322-.084.35-.294.35-.1,0-.6-.042-.728-.042-1.6,0-2.94.6-2.94,1.512,0,.8,1.12,1.638,2.408,1.638a2.33,2.33,0,0,0,2.17-1.246c.182-.392.21-.434.35-.434a1.994,1.994,0,0,1,.8.35,4.4,4.4,0,0,0,1.288.672.533.533,0,0,0,.5-.56c0-.448-.91-.84-1.778-1.218-.728-.308-.812-.35-.868-.56-.042-.154-.21-3.654-.21-3.92s.028-.35.14-.378c.028-.014.938-.014.966-.014,1.148,0,1.484-.336,1.484-.546s-.518-.616-.882-.616a6.223,6.223,0,0,0-.924.35,2.229,2.229,0,0,1-.588.112c-.154,0-.168-.042-.168-.224a9.07,9.07,0,0,1,.126-.966,6.684,6.684,0,0,0,.21-.756A1.66,1.66,0,0,0,213.808-10.962Zm.42,8.89c.042.126-.21,1.162-1.736,1.162-1.008,0-1.484-.42-1.484-.686,0-.77,1.694-.784,1.834-.784C213.458-2.38,214.172-2.254,214.228-2.072Zm17.626.854c-.2,0-.28-.126-.476-.378a2.067,2.067,0,0,0-1.6-.9A1.348,1.348,0,0,0,228.4-1.358c0,.7.994,1.442,2.38,1.442a3.312,3.312,0,0,0,3.5-3.024,3.022,3.022,0,0,0-3.15-2.912,3.387,3.387,0,0,0-1.232.224c-.084.028-.266.1-.35.126-.042,0-.084-.056-.084-.1a8.537,8.537,0,0,1,2.24-2.87c.672-.462.994-.686.994-1.092,0-.616-.91-.966-1.47-.966-.308,0-.406.042-1.274.42a6.788,6.788,0,0,1-2.17.5c-.294,0-.336,0-.336.042,0,.07.434.966,1.092.966.238,0,.434-.042.994-.5.238-.2,1.064-.9,1.582-.9.168,0,.266.1.266.2,0,.154-.2.448-.658,1.106a46.111,46.111,0,0,1-3.164,4.214c-.994,1.162-1.106,1.47-1.106,1.82a.386.386,0,0,0,.406.392c.378,0,.518-.266.8-.742.252-.434,1.442-2.352,3.29-2.352a2.216,2.216,0,0,1,2.366,2.128A2.071,2.071,0,0,1,231.854-1.218Zm-1.288.14a.232.232,0,0,1-.238.252c-.6,0-1.2-.294-1.2-.658a.572.572,0,0,1,.588-.49A.952.952,0,0,1,230.566-1.078ZM9.884,19.132a13.66,13.66,0,0,1-.7,2.534A13,13,0,0,1,6.16,26.272a2.549,2.549,0,0,0-.42.476.081.081,0,0,0,.084.084,2.955,2.955,0,0,0,.63-.322,10.518,10.518,0,0,0,3.682-4.648c.14-.322.77-1.89.924-2.226.056-.112.42-.546.42-.672,0-.294-1.19-1.218-1.372-1.218-.07,0-.364.252-.448.28-.364.154-4.452.672-4.872.672-.532,0-.644-.07-.742-.14-.42-.252-.518-.308-.728-.308s-.5.112-.5.21a2.447,2.447,0,0,0,.252.406,4.976,4.976,0,0,1,.448,2.226,3.708,3.708,0,0,1-.042.63,2.889,2.889,0,0,0-.1.63c0,.5.476,1.274.8,1.274.364,0,.364-.854.364-1.036,0-.308-.154-1.82-.154-2.156,0-.854,0-.924.588-1.008.91-.14,4.466-.574,4.662-.574C9.884,18.852,9.884,18.978,9.884,19.132Zm12.446.028c0-.826-1.176-1.624-2.674-1.624-.2,0-.308.07-.308.126s.07.1.126.126a3.153,3.153,0,0,1,1.274,1.148c.462.7.6.924.98.924A.618.618,0,0,0,22.33,19.16Zm5.824-.126a.09.09,0,0,0-.07-.07c-.028,0-.42.392-.644.616-2.324,2.3-6.034,4.774-6.72,4.774a2.317,2.317,0,0,1-.952-.322,3.485,3.485,0,0,0-.42-.266c-.126,0-.14.644-.14.742,0,.56,1.036,1.456,1.792,1.456.21,0,.238-.028.5-.35a9.777,9.777,0,0,1,1.372-1.148A19.049,19.049,0,0,0,28.154,19.034ZM40.11,19.02a15.266,15.266,0,0,1-5.278,6.5,4.319,4.319,0,0,0-.644.518c0,.084.07.084.1.084a3.439,3.439,0,0,0,.868-.322,14.065,14.065,0,0,0,3.738-3c.308-.35.35-.392.49-.392a6.424,6.424,0,0,1,2.506,2.758c.49.868.546.966.868.966a.6.6,0,0,0,.574-.616c0-1.274-2.506-2.688-3.136-3.052-.588-.322-.616-.35-.616-.476a.46.46,0,0,1,.112-.28c.224-.322,1.33-1.96,1.61-2.3.084-.1.6-.476.6-.6,0-.35-.854-1.064-1.19-1.064a5.344,5.344,0,0,0-.77.434,19.374,19.374,0,0,1-3.836.518,2.494,2.494,0,0,1-.742-.14c-.042-.014-.35-.1-.364-.1-.07,0-.084.042-.084.112a2.857,2.857,0,0,0,.336.812,2.922,2.922,0,0,0,.952.5,6.047,6.047,0,0,0,.63-.266c.07-.028,3.01-.714,3.108-.714A.157.157,0,0,1,40.11,19.02Zm12.908-2.464.028.056a1.553,1.553,0,0,1,.476.644c.168.448.168.9.168,4.9a28.977,28.977,0,0,1-.126,3.248c0,.056-.056.35-.056.406,0,.364.364,1.316.784,1.316s.406-.924.406-1.274c0-.21-.014-.56-.028-.714-.056-1.26-.07-2-.07-3.486,0-1.036.056-1.036.2-1.036.434,0,1.092.658,1.484,1.176.938,1.218.98,1.274,1.33,1.274a.479.479,0,0,0,.5-.49c0-1.05-2.17-2.072-3.024-2.268-.406-.1-.462-.14-.462-.448a18.16,18.16,0,0,1,.126-1.946,4.057,4.057,0,0,0,.168-.588c0-.448-1.008-.9-1.512-.9C53.4,16.43,53.032,16.43,53.018,16.556ZM73.4,20.63c0,1.2-1.638,3.836-4.62,6.118a5.979,5.979,0,0,0-.784.588.09.09,0,0,0,.084.084,12.259,12.259,0,0,0,5.7-4.942,11.413,11.413,0,0,1,.714-1.2c.238-.14.294-.154.294-.266,0-.406-.56-.742-.784-.854a3.115,3.115,0,0,0-.63-.35.1.1,0,0,0-.1.1.892.892,0,0,0,.028.126A1.419,1.419,0,0,1,73.4,20.63Zm-6.132.462c-.1,0-.182.042-.182.126,0,.042.028.084.1.182A5.007,5.007,0,0,1,68,22.814c.1.308.2.63.5.63a.509.509,0,0,0,.476-.532C68.978,21.792,67.606,21.092,67.27,21.092ZM69.692,19.8c-.07-.014-.14.028-.14.07a1.582,1.582,0,0,0,.154.308,4.394,4.394,0,0,1,.518,1.33c.042.238.112.588.42.588.252,0,.476-.308.476-.714A1.774,1.774,0,0,0,69.692,19.8ZM92.036,16.08a1.33,1.33,0,0,0-1.372,1.33,1.351,1.351,0,1,0,2.7,0A1.3,1.3,0,0,0,92.036,16.08Zm-.028.476a.936.936,0,0,1,.9.882.89.89,0,0,1-1.778.014A.9.9,0,0,1,92.008,16.556ZM81.914,18.264c-.084,0-.126.042-.126.308,0,.77,1.12,1.47,1.442,1.47a5.077,5.077,0,0,0,.7-.308,45.938,45.938,0,0,1,5.04-1.008c.07,0,.308.014.308.252a7.91,7.91,0,0,1-.952,2.366,18.221,18.221,0,0,1-5.53,5.544c-.14.1-.182.126-.182.182a.093.093,0,0,0,.1.084,14.246,14.246,0,0,0,7.224-6.524,2.317,2.317,0,0,1,.546-.882c.252-.252.322-.322.322-.5s-.084-.35-.714-.91c-.434-.378-.658-.574-.966-.574-.1,0-.154.028-.588.224a36.247,36.247,0,0,1-5.278.658,3.3,3.3,0,0,1-1.162-.294C82.068,18.348,81.942,18.264,81.914,18.264Zm25.144.658c0-.308-.448-.7-.588-.826a1.263,1.263,0,0,0-1.022-.392c-.056,0-.364,0-.364.126,0,.042.056.1.07.112a1.058,1.058,0,0,1,.392.714,13.593,13.593,0,0,1-4.214,6.776c-.224.21-1.484,1.26-1.484,1.316a.075.075,0,0,0,.07.07,7.643,7.643,0,0,0,1.554-.77,12.474,12.474,0,0,0,4.172-4.648c.14-.252.756-1.554.924-1.82C106.638,19.482,107.058,19.048,107.058,18.922Zm-8.372-.42c-.028,0-.112-.014-.112.042s.056.1.084.126a6.317,6.317,0,0,1,1.12,1.358c.616,1.064.672,1.148.98,1.148.084,0,.574-.084.574-.756C101.332,19.02,99.274,18.628,98.686,18.5Zm16.772-1.232c0,.112.07.2.182.322.434.5.5.826.5,2.394,0,.252,0,.8-.028,1.428,0,.112-.07.588-.07.7,0,.364.322,1.106.63,1.106.21,0,.532-.35.532-.714,0-.14-.07-.84-.084-1.008-.014-.336-.042-1.6-.042-3.22,0-.07.028-.392.028-.462,0-.238-.77-.728-1.106-.728S115.458,17.172,115.458,17.27Zm4.942,1.3c0,2.8-.1,5.236-2.8,8.12-.168.182-1.078,1.078-1.078,1.134s.028.07.084.07a5.582,5.582,0,0,0,1.26-.826,8.857,8.857,0,0,0,3.5-6.5c.042-.49.056-2.59.112-2.968a5.445,5.445,0,0,0,.14-.56c0-.364-.7-.714-1.54-.714-.406,0-.406.042-.406.084s.014.056.182.28A2.677,2.677,0,0,1,120.4,18.572Zm11.48,2.94c-.084,0-.126.014-.126.1,0,.266.5.924.826.924a3.576,3.576,0,0,0,.49-.2,22.468,22.468,0,0,1,2.31-.588c.07,0,.182,0,.182.21,0,.028-.308,2.24-.336,2.506-.042.308-.07.462-.224.532s-3.36.308-3.71.308a3.961,3.961,0,0,1-1.008-.168,3.268,3.268,0,0,0-.35-.1c-.07,0-.1.028-.1.1,0,.756,1.036,1.246,1.162,1.246a5.126,5.126,0,0,0,.616-.182,28,28,0,0,1,5.278-.588,5.869,5.869,0,0,1,1.428.154,6.876,6.876,0,0,0,.77.168c.266,0,.308-.21.308-.35,0-.518-.882-.952-1.456-.952-.224,0-1.33.266-1.582.266-.2,0-.224-.084-.224-.2a10.643,10.643,0,0,1,.49-2.688c.042-.07.35-.392.35-.49a1.563,1.563,0,0,0-1.092-.77,3.222,3.222,0,0,0-.448.21,17.655,17.655,0,0,1-2.87.574C132.454,21.54,131.922,21.512,131.88,21.512Zm15.582-.154a7.624,7.624,0,0,1-1.708-.126c-.07-.014-.406-.168-.476-.168s-.112.084-.112.168c0,.476.644,1.344,1.246,1.344.168,0,.924-.224,1.092-.252.336-.07,3.542-.252,5.474-.252.28,0,1.68.028,2,.028.588,0,1.162-.042,1.162-.434,0-.1-.126-.616-.98-.616-.07,0-.224.014-.308.014C152.81,21.176,147.924,21.358,147.462,21.358Zm16.394,5.194c.182,0,.854-.63,1.022-.742,5.8-4.06,7.028-7.056,7.028-7.21a.051.051,0,0,0-.056-.056,6.675,6.675,0,0,0-.6.63c-3.346,3.794-7.112,5.894-7.714,5.894-.112,0-.644-.182-.77-.182-.084,0-.126.042-.126.1a.594.594,0,0,0,.084.266c.042.07.294.364.336.434C163.408,26.328,163.548,26.552,163.856,26.552Zm-.532-6.454c-.182,0-.98.014-.98.21,0,.056.084.112.126.14a3.4,3.4,0,0,1,1.274,1.162c.21.35.28.434.49.434.336,0,.546-.42.546-.7C164.78,20.658,163.926,20.1,163.324,20.1Zm1.624-2.674a1.667,1.667,0,0,0-1.078.266c0,.042.154.084.21.1a2.437,2.437,0,0,1,1.2.742c.5.6.574.658.728.658.224,0,.448-.308.448-.63C166.46,18.516,166.46,17.424,164.948,17.424Zm14.42,3.206a.154.154,0,0,0-.126.154c0,.2.518.952,1.036.952.168,0,1.022-.14,1.218-.168,1.008-.126,2.6-.294,2.688-.294.21,0,.28.07.28.308a4.1,4.1,0,0,1-.112,1.134,17.327,17.327,0,0,1-3.7.378,1.907,1.907,0,0,1-.7-.1,2.187,2.187,0,0,0-.336-.14c-.07,0-.1.042-.1.182a1.014,1.014,0,0,0,.952.854c.238,0,1.736-.2,2.114-.238.518-.07,1.526-.21,1.582-.21.168,0,.224.084.224.266,0,.056-.028.644-.028.756-.014.392-.014.518-.168.6-.126.056-2.884.336-3.444.336a2.254,2.254,0,0,1-.672-.112,2.326,2.326,0,0,0-.462-.14c-.112,0-.126.112-.126.168,0,.112.42,1.008.8,1.008.154,0,.588-.126.7-.14.378-.07,2.618-.336,3.08-.336.2,0,.2.042.224.224.056.322.238.546.448.546s.546-.252.546-.9c0-.126-.028-.742-.028-.882,0-.924.028-1.974.07-2.9a.709.709,0,0,1,.14-.462c.2-.224.238-.266.238-.406,0-.28-.826-.91-.938-.91s-.49.336-.6.378a20.02,20.02,0,0,1-3.486.308,3.47,3.47,0,0,1-.812-.07A4.312,4.312,0,0,0,179.368,20.63Zm18.522-1.47c0-.826-1.176-1.624-2.674-1.624-.2,0-.308.07-.308.126s.07.1.126.126a3.153,3.153,0,0,1,1.274,1.148c.462.7.6.924.98.924A.618.618,0,0,0,197.89,19.16Zm5.824-.126a.09.09,0,0,0-.07-.07c-.028,0-.42.392-.644.616-2.324,2.3-6.034,4.774-6.72,4.774a2.317,2.317,0,0,1-.952-.322,3.485,3.485,0,0,0-.42-.266c-.126,0-.14.644-.14.742,0,.56,1.036,1.456,1.792,1.456.21,0,.238-.028.5-.35a9.776,9.776,0,0,1,1.372-1.148A19.049,19.049,0,0,0,203.714,19.034Zm5.628-.322c-.182.2.49,1.134,1.19,1.134a1.069,1.069,0,0,0,.476-.182,17.809,17.809,0,0,1,4.172-1.5c.028,0,.084,0,.084.028a2.738,2.738,0,0,1-.35.294c-2.016,1.806-2.03,4.774-2.03,5.39a2.632,2.632,0,0,0,2.856,3c.084,0,1.624,0,1.624-.742,0-.336-.252-.518-.686-.518-.126,0-1.12.084-1.33.084-.826,0-1.708-.154-1.708-2.506,0-3.612,1.988-5.25,3.766-5.25.154,0,.952.154,1.134.154a.559.559,0,0,0,.574-.518c0-.476-.63-.672-1.134-.672a37.965,37.965,0,0,0-5.376,1.26,9.046,9.046,0,0,1-2.716.6C209.8,18.768,209.4,18.642,209.342,18.712Zm9.646.938a1.292,1.292,0,0,0-.35-.07c-.042,0-.2,0-.2.084s.056.126.126.182a3.627,3.627,0,0,1,.924,1.12c.14.336.294.742.63.742.182,0,.406-.154.406-.518C220.528,20.518,219.814,19.916,218.988,19.65Zm-1.806.574c-.126-.028-.28-.014-.28.056a.759.759,0,0,0,.14.252,3.664,3.664,0,0,1,.7,1.092c.224.546.35.812.6.812a.568.568,0,0,0,.49-.574A2.024,2.024,0,0,0,217.182,20.224Zm8.68,4.48a1.554,1.554,0,0,0-.014,3.108,1.554,1.554,0,1,0,.014-3.108Zm-.014.392a1.174,1.174,0,0,1,1.19,1.176,1.156,1.156,0,0,1-1.162,1.148,1.174,1.174,0,0,1-1.176-1.176A1.133,1.133,0,0,1,225.848,25.1ZM4.606,44.7c.322,0,.406.07.406.28,0,.994-1.666,3.136-3.64,3.976-.042.028-.21.1-.21.126,0,.056.056.056.07.056a4.442,4.442,0,0,0,1.358-.42,6.187,6.187,0,0,0,2.548-1.876c.154-.182.8-1.106.91-1.162.308-.14.42-.2.42-.336,0-.07,0-.112-.308-.308-.126-.07-.35-.21-.35-.252,0-.084.1-.084.322-.084H7.448a.339.339,0,0,1,.364.336c.028.462.028,1.582.028,2.1,0,1.274.308,1.274,2.464,1.274a7.628,7.628,0,0,0,2.016-.14c.462-.126.84-.5.84-.8,0-.1-.014-.112-.21-.266-.238-.182-.238-.406-.238-.686.014-.364.014-.42-.07-.42a4.413,4.413,0,0,0-.49.8c-.378.588-.518.588-1.876.588-1.218,0-1.428-.042-1.526-.406a14.605,14.605,0,0,1-.1-1.946c0-.14,0-.434.364-.434h1.806c.168,0,.266,0,.266.1a6.278,6.278,0,0,1-.448.826c0,.028.014.07.056.07a6.087,6.087,0,0,0,.546-.322,1.706,1.706,0,0,1,.826-.294c1.162-.028,1.274-.014,1.274-.294,0-.07,0-.182-.35-.42a10.527,10.527,0,0,0-1.246-.77c-.084,0-.168.168-.252.336a.543.543,0,0,1-.574.406H7.882c-.35,0-.35-.28-.35-.406a2.432,2.432,0,0,1,.112-.854c.028-.07.294-.35.294-.42,0-.224-1.12-.434-1.4-.434-.168,0-.182.084-.182.112a2.115,2.115,0,0,0,.126.252,4.161,4.161,0,0,1,.07.812c0,.672,0,.938-.378.938H2.912a.479.479,0,0,1-.5-.252c-.21-.308-.406-.6-.49-.6s-.084.182-.084.238A3.522,3.522,0,0,1,1.554,45a5.429,5.429,0,0,0-.5.924c0,.182.182.364.5.364.532,0,.924-.532,1.036-1.106.1-.462.126-.476.448-.476Zm-.168,5.264c-.742,0-1.316-.014-1.918-.042-.1,0-.518-.056-.616-.056-.042,0-.056.014-.056.042s0,.028.056.084l.28.336c.014.014.084.084.112.084s.252-.042.308-.042c.49-.028,1.414-.042,1.764-.042h1.9c.364,0,.364.28.364.686,0,.35-.028,2.058-.042,2.45,0,.14,0,.448-.364.448H3.094c-.518,0-1.61-.028-2.03-.056-.07,0-.434-.042-.5-.042-.042,0-.056.014-.056.042s.014.028.056.084l.28.322c.042.056.07.084.126.084s.238-.028.294-.028c.49-.042,1.428-.042,1.862-.042h9.926c.21,0,.35-.014.35-.168a3.96,3.96,0,0,0-1.274-1.232c-.126,0-.168.056-.532.616-.168.28-.266.42-.574.42H7.994c-.014,0-.322,0-.35-.28-.014-.14-.014-2.2-.014-2.436,0-.574,0-.868.364-.868h3.892c.238,0,.364-.056.364-.2,0-.21-1.092-.994-1.3-.994-.112,0-.21.028-.574.476-.294.35-.462.35-.6.35Zm14.308-6.762c-.2,0-.238-.014-.6-.21a2.084,2.084,0,0,0-.658-.252c-.056,0-.056.084-.056.14,0,.014.07,1.176.084,1.288.014.182.014,2.282.014,3.136,0,1.54,0,2.464-.14,6.622,0,.182-.014.518-.014.56,0,.1,0,.49.364.49.728,0,.728-.756.728-1.008,0-.336-.042-1.82-.056-2.128-.014-.532-.014-2.9-.014-3.542a6.728,6.728,0,0,1,.042-.994c.07-.182.294-.182.518-.182h1.736c.266,0,.42,0,.462.294.028.224.07.49.406.49.2,0,.588-.14.588-.91,0-.406-.07-2.184-.07-2.548s0-.49.1-.616c.042-.056.266-.266.266-.336,0-.2-.7-.714-.854-.714-.126,0-.238.112-.378.266a.436.436,0,0,1-.392.154Zm2.072.378c.28,0,.406,0,.406.28v.756c0,.364-.084.364-.406.364h-2c-.28,0-.406,0-.406-.294v-.756c0-.35.084-.35.406-.35Zm-.028,1.764c.308,0,.42.014.42.322v.8c0,.28-.14.28-.42.28H18.816c-.308,0-.42,0-.42-.308v-.812c0-.28.14-.28.42-.28Zm4.1-2.17a.6.6,0,0,1-.364-.084,1.931,1.931,0,0,0-.658-.224c-.126,0-.154.168-.154.238,0,.238.07,1.274.07,1.484s0,2.968.014,3.052a.307.307,0,0,0,.336.266c.252,0,.6-.14.644-.448.042-.224.084-.294.406-.294h1.82c.35,0,.546,0,.546.434,0,2-.028,5.516-.042,5.656-.042.392-.182.462-1.092.5-.14,0-.658.028-.658.1,0,.126.588.28.686.336a.97.97,0,0,1,.392.406c.14.238.238.378.392.378a2.325,2.325,0,0,0,.658-.224c.49-.252.56-.588.56-1.148,0-1.442-.028-7.8-.028-9.086,0-.5,0-.546.224-.742.084-.07.154-.14.154-.224,0-.266-.8-.714-.91-.714-.084,0-.14.042-.308.224a.309.309,0,0,1-.294.112Zm.21,1.736c-.2,0-.35,0-.378-.21-.014-.056-.014-.63-.014-.84,0-.322.154-.322.392-.322H27.16c.224,0,.35,0,.392.21v.854c0,.308-.14.308-.392.308Zm.028,1.89c-.294,0-.406,0-.406-.308v-.924c0-.28.126-.28.406-.28h2.03c.28,0,.392,0,.392.294v.924c0,.294-.126.294-.392.294Zm-3.4,2.044c-.168,0-.882-.336-1.036-.336-.07,0-.126.014-.126.126,0,.07.042.378.042.434.042.5.042,1.848.042,1.918,0,.588-.014,1.008-.056,1.736-.014.126-.028.5-.028.6,0,.434.14.5.322.5.35,0,.588-.238.644-.658.028-.266.1-.322.42-.322h1.736c.28,0,.462,0,.462.336,0,.21,0,.5.308.5a.894.894,0,0,0,.588-.308c.126-.154.126-.336.126-.714,0-.336-.042-2.548,0-2.912a.616.616,0,0,1,.2-.42.316.316,0,0,0,.084-.182c0-.252-.686-.714-.826-.714s-.28.154-.392.28a.334.334,0,0,1-.322.126Zm2.128.378c.266,0,.364,0,.364.35v.8c-.042.2-.154.2-.364.2H21.882c-.21,0-.322,0-.364-.2v-.7c0-.42.028-.448.364-.448Zm-.028,1.722c.28,0,.336,0,.378.2.014.07.014.84.014.966,0,.364-.084.364-.392.364H21.91c-.252,0-.392,0-.392-.266v-.966c0-.294.126-.294.392-.294Zm11.368-.98a10.915,10.915,0,0,1,1.078-3.612c.266-.476.266-.49.266-.644,0-.5-.588-1.778-1.232-1.778-.056,0-.112.028-.112.07a1.773,1.773,0,0,0,.084.252,3.429,3.429,0,0,1,.14.994,4.754,4.754,0,0,1-.238,1.456,10.063,10.063,0,0,0-.588,3.052c0,1.344.644,3.724,1.512,3.724a.469.469,0,0,0,.462-.476,1.51,1.51,0,0,0-.168-.616,2.5,2.5,0,0,1-.224-.728c0-.336.322-1.974.322-2.128,0-.028,0-.168-.07-.168s-.112.112-.2.35c-.308.868-.434,1.092-.672,1.092S35.2,50.388,35.2,49.968Zm7.252-5.18c-.14-.014-.182,0-.6.154a5.655,5.655,0,0,1-1.54.21,4.784,4.784,0,0,1-.952-.084c-.182-.042-.35-.1-.392-.1-.084,0-.1.042-.1.07a2.746,2.746,0,0,0,2.45,1.036c.168,0,1.722,0,1.722-.686A.7.7,0,0,0,42.448,44.788Zm.6,6.944c-.056,0-1.036.1-1.232.112a11.668,11.668,0,0,1-1.218.042,3.446,3.446,0,0,1-1.5-.238,2.088,2.088,0,0,0-.336-.2c-.07,0-.07.112-.07.14,0,.266.364.63.434.7a2.859,2.859,0,0,0,2.184.63c1.96,0,2.38-.168,2.38-.714C43.694,52.04,43.582,51.732,43.05,51.732Zm12.166-4.648c.266-.336.714-.84.952-1.176a4,4,0,0,1,.952-1.148.353.353,0,0,0,.126-.28c0-.532-1.414-1.12-1.624-1.12a.138.138,0,0,0-.14.112,1.556,1.556,0,0,0,.1.224.792.792,0,0,1,.112.392c0,.392-1.092,2.772-4.4,5.6-.224.2-.616.518-.98.84a.127.127,0,0,0-.042.1c0,.056.028.084.07.084a15.377,15.377,0,0,0,3.976-2.674c.112-.112.168-.168.238-.168.364,0,.364,1.47.364,1.974,0,.742-.056,1.82-.14,2.576-.014.14-.154.756-.154.9,0,.378.476.98.868.98.336,0,.336-.476.336-.616,0-.182-.084-.994-.1-1.162-.028-.546-.042-1.3-.042-1.68a13.517,13.517,0,0,1,.084-2.478c.014-.084.168-.476.168-.56,0-.126-.056-.182-.6-.518A.226.226,0,0,1,55.216,47.084ZM72.24,45.516a7.344,7.344,0,0,1-1.134,2.478A20.46,20.46,0,0,1,67.3,52.418a7.68,7.68,0,0,0-.9.854.065.065,0,0,0,.07.07,4.834,4.834,0,0,0,1.246-.686,17.429,17.429,0,0,0,4.816-4.9,17.594,17.594,0,0,1,.952-1.484c.364-.322.406-.364.406-.56,0-.672-1.624-1.316-1.834-1.316a.168.168,0,0,0-.168.154.413.413,0,0,0,.07.182A1.954,1.954,0,0,1,72.24,45.516Zm13.552.308c-.392,0-.616.182-1.274.714-1.75,1.414-2.464,1.68-3.108,1.68-.07,0-.364-.056-.434-.056s-.1.1-.1.168a.6.6,0,0,0,.168.434c.644.658.882.812,1.176.812a.9.9,0,0,0,.7-.434,2.923,2.923,0,0,1,.63-.714c1.974-1.834,1.988-1.834,2.226-1.834a.666.666,0,0,1,.42.21c.154.168.84,1.036,1.008,1.232,3.472,4.2,4.536,4.2,4.942,4.2.252,0,.588-.1.588-.42a.69.69,0,0,0-.308-.518c-.182-.154-1.232-.784-1.47-.938a22.426,22.426,0,0,1-3.752-3.514C86.828,46.37,86.352,45.824,85.792,45.824Zm5.026-1.442c-.266,0-.546-.014-.546.112,0,.028.028.1.168.168a3.228,3.228,0,0,1,1.12.924c.21.322.392.6.7.6a.411.411,0,0,0,.364-.448C92.624,44.788,91.182,44.4,90.818,44.382Zm-1.5,1.148c-.112,0-.252.056-.252.112s.14.154.21.21a4,4,0,0,1,.952.882c.392.532.518.644.714.644.252,0,.42-.35.42-.546C91.364,46.37,90.622,45.53,89.32,45.53Zm10.262,2.828a7.624,7.624,0,0,1-1.708-.126c-.07-.014-.406-.168-.476-.168s-.112.084-.112.168c0,.476.644,1.344,1.246,1.344.168,0,.924-.224,1.092-.252.336-.07,3.542-.252,5.474-.252.28,0,1.68.028,2,.028.588,0,1.162-.042,1.162-.434,0-.1-.126-.616-.98-.616-.07,0-.224.014-.308.014C104.93,48.176,100.044,48.358,99.582,48.358Zm16.394,5.194c.182,0,.854-.63,1.022-.742,5.8-4.06,7.028-7.056,7.028-7.21a.051.051,0,0,0-.056-.056,6.673,6.673,0,0,0-.6.63c-3.346,3.794-7.112,5.894-7.714,5.894-.112,0-.644-.182-.77-.182-.084,0-.126.042-.126.1a.594.594,0,0,0,.084.266c.042.07.294.364.336.434C115.528,53.328,115.668,53.552,115.976,53.552Zm-.532-6.454c-.182,0-.98.014-.98.21,0,.056.084.112.126.14a3.4,3.4,0,0,1,1.274,1.162c.21.35.28.434.49.434.336,0,.546-.42.546-.7C116.9,47.658,116.046,47.1,115.444,47.1Zm1.624-2.674a1.667,1.667,0,0,0-1.078.266c0,.042.154.084.21.1a2.437,2.437,0,0,1,1.2.742c.5.6.574.658.728.658.224,0,.448-.308.448-.63C118.58,45.516,118.58,44.424,117.068,44.424Zm14.42,3.206a.154.154,0,0,0-.126.154c0,.2.518.952,1.036.952.168,0,1.022-.14,1.218-.168,1.008-.126,2.6-.294,2.688-.294.21,0,.28.07.28.308a4.1,4.1,0,0,1-.112,1.134,17.326,17.326,0,0,1-3.7.378,1.907,1.907,0,0,1-.7-.1,2.188,2.188,0,0,0-.336-.14c-.07,0-.1.042-.1.182a1.014,1.014,0,0,0,.952.854c.238,0,1.736-.2,2.114-.238.518-.07,1.526-.21,1.582-.21.168,0,.224.084.224.266,0,.056-.028.644-.028.756-.014.392-.014.518-.168.6-.126.056-2.884.336-3.444.336a2.254,2.254,0,0,1-.672-.112,2.326,2.326,0,0,0-.462-.14c-.112,0-.126.112-.126.168,0,.112.42,1.008.8,1.008.154,0,.588-.126.7-.14.378-.07,2.618-.336,3.08-.336.2,0,.2.042.224.224.056.322.238.546.448.546s.546-.252.546-.9c0-.126-.028-.742-.028-.882,0-.924.028-1.974.07-2.9a.709.709,0,0,1,.14-.462c.2-.224.238-.266.238-.406,0-.28-.826-.91-.938-.91s-.49.336-.6.378a20.02,20.02,0,0,1-3.486.308,3.469,3.469,0,0,1-.812-.07A4.312,4.312,0,0,0,131.488,47.63Zm18.522-1.47c0-.826-1.176-1.624-2.674-1.624-.2,0-.308.07-.308.126s.07.1.126.126a3.153,3.153,0,0,1,1.274,1.148c.462.7.6.924.98.924A.618.618,0,0,0,150.01,46.16Zm5.824-.126a.09.09,0,0,0-.07-.07c-.028,0-.42.392-.644.616-2.324,2.3-6.034,4.774-6.72,4.774a2.317,2.317,0,0,1-.952-.322,3.485,3.485,0,0,0-.42-.266c-.126,0-.14.644-.14.742,0,.56,1.036,1.456,1.792,1.456.21,0,.238-.028.5-.35a9.776,9.776,0,0,1,1.372-1.148A19.049,19.049,0,0,0,155.834,46.034Zm7,4.172c.448,0,.6-.336.756-.686a2.41,2.41,0,0,1,1.722-1.484c.56,0,.672.784.672,1.414a.6.6,0,0,1-.21.49c-1.316,1.064-1.848,1.512-1.848,2.408,0,1.106.938,1.834,2.716,1.834.336,0,2.506-.056,2.506-.924,0-.336-.392-.476-.686-.476-.182,0-1.078.224-1.274.252a4.333,4.333,0,0,1-.9.084c-.406,0-1.806,0-1.806-.966,0-.8,1.246-1.666,1.358-1.666s.1.112.1.168c0,.014-.042.686-.042.826,0,.252.056.714.434.714.518,0,.518-.8.518-1.022,0-.126-.028-.714-.028-.84,0-.294.014-.448.238-.588.252-.154,1.834-.784,2.184-.938.868-.378,1.974-.84,1.974-1.5a1.321,1.321,0,0,0-1.316-1.246c-1.218,0-2.128,1.274-2.59,1.918a6.574,6.574,0,0,1-.574.756c-.028,0-.042-.028-.14-.266a1.263,1.263,0,0,0-1.19-.854,1.308,1.308,0,0,0-.546.112,2.8,2.8,0,0,1-.434.154.051.051,0,0,1-.056-.056c0-.056.028-.1.1-.224a10.858,10.858,0,0,0,.756-1.512c.308-.714.322-.742.532-.826.644-.252,1.666-.644,1.666-1.106,0-.294-.532-.364-.63-.364-.56-.042-.616-.07-.63-.252-.028-.308-.378-.434-.714-.434-.252,0-.616.112-.616.224,0,.084.294.336.336.406a1.122,1.122,0,0,1,.112.49c0,.28,0,.658-1.148.658a2.225,2.225,0,0,1-.924-.252,3.144,3.144,0,0,0-.532-.266c-.084,0-.084.056-.084.1a1.485,1.485,0,0,0,1.246,1.232c.126,0,.7-.112.84-.112.056,0,.154.014.154.1a6.442,6.442,0,0,1-1.19,2.086c-.952,1.106-1.344,1.554-1.344,1.974C162.3,50.122,162.568,50.206,162.834,50.206Zm3.01-5.852c0-.056.056-.448.252-.448.126,0,.476.028.476.21,0,.154-.672.336-.7.336S165.844,44.41,165.844,44.354Zm3.668,2.24a.431.431,0,0,1,.49.42c0,.924-2.758,2.044-2.8,2.044s-.056-.042-.056-.07C167.146,48.764,168.35,46.594,169.512,46.594ZM11.144,74.238a.333.333,0,0,1,.392.28c.056.35.07.49.364.49a.593.593,0,0,0,.644-.574c0-.392-.042-2.114-.042-2.464,0-.784,0-.868.266-1.008.2-.1.294-.154.294-.252a.237.237,0,0,0-.126-.182A7.946,7.946,0,0,0,11.9,70.01c-.084,0-.126.056-.322.294a.534.534,0,0,1-.476.21h-.924c-.8,0-1.526-.042-1.918-.056-.1,0-.532-.042-.616-.042-.028,0-.056,0-.056.028s.014.028.056.1l.28.322c.042.056.07.084.126.084.028,0,.35-.042.406-.042.56-.028,1.246-.028,1.652-.028h1.05c.35,0,.392.154.406.364s.014,1.568.014,1.974c0,.462,0,.658-.42.658H9.31a1.215,1.215,0,0,1-.672-.182c-.728-.364-.8-.406-.91-.406a.125.125,0,0,0-.126.126,3.23,3.23,0,0,0,.14.392,10.667,10.667,0,0,1,.084,1.568c0,.378-.042,2.24-.042,2.408,0,.966,0,1.288,2.338,1.288a7.19,7.19,0,0,0,2.52-.336c.07-.042.49-.266.49-.518a3.459,3.459,0,0,0-.322-.644,2.386,2.386,0,0,1-.112-.77c0-.406,0-.462-.084-.462s-.112.084-.392.826c-.35.91-.378.952-1.946.952-.728,0-1.288,0-1.47-.238-.07-.1-.1-.21-.1-.882V74.63c0-.378.252-.392.42-.392ZM.9,74.924c.042.056.07.1.112.1s.168-.028.21-.028c.364-.042,1.428-.056,1.61-.056.406,0,.56,0,.644.182A16.313,16.313,0,0,1,3.542,77c0,.378-.014,1.568-.014,1.9,0,.042,0,.294-.14.294a2.483,2.483,0,0,1-.966-1.554,2.388,2.388,0,0,1,.182-.826c.042-.042.28-.28.28-.35,0-.14-.042-.14-.406-.266a4.388,4.388,0,0,0-.77-.21.148.148,0,0,0-.168.168c0,.042.042.266.042.308a10.867,10.867,0,0,1-1.134,4.83c-.042.07-.112.182-.154.266a.037.037,0,0,0,.042.042A7.134,7.134,0,0,0,2.114,78.69c.014-.042.07-.21.154-.21s.168.154.2.2a4.556,4.556,0,0,0,3.164,2.646,45.28,45.28,0,0,0,5.474.322c.406,0,.966-.014,1.2-.028a.322.322,0,0,0,.266-.084,3.121,3.121,0,0,0,.126-.546,11.026,11.026,0,0,1,.98-.924.045.045,0,0,0-.042-.042,4.36,4.36,0,0,0-.42.168,19.186,19.186,0,0,1-4.3.392c-.966,0-3.766-.014-4.368-.574-.168-.154-.168-.294-.168-1.652,0-.448.056-.6.518-.6H6.118c.616,0,.742-.028.742-.2,0-.224-.714-.812-.91-.812-.07,0-.112,0-.434.406-.182.21-.252.238-.686.238s-.448-.252-.448-.56a2.625,2.625,0,0,1,.112-.9c.252-.28.336-.364.336-.462,0-.182-.322-.252-.476-.28s-.378-.07-.378-.14c0-.1.07-.1.2-.1H6.146c.49,0,.756,0,.756-.21,0-.252-.812-.938-.994-.938-.084,0-.322.294-.476.49a.7.7,0,0,1-.6.28c-.406,0-.406-.1-.406-1.036,0-1.162,0-1.288.49-1.288h.9c.49,0,.756,0,.756-.21,0-.252-.812-.938-.994-.938-.084,0-.322.294-.476.49a.521.521,0,0,1-.364.21c-.308,0-.336-.168-.336-1.19a.488.488,0,0,1,.21-.476c.182-.14.182-.2.182-.238,0-.182-.042-.2-.518-.322-.084-.028-.812-.238-.854-.238-.07,0-.112.014-.112.112s.112.476.126.56A8.985,8.985,0,0,1,3.486,71.3c0,.518-.112.588-.644.574-.364,0-1.316-.056-1.484-.056-.112,0-.42-.042-.5-.042-.014,0-.056.014-.056.028s.028.056.07.1l.266.322c.042.056.07.1.126.1s.154-.028.2-.028a12.658,12.658,0,0,1,1.47-.056c.308,0,.476,0,.546.224a12.084,12.084,0,0,1,.042,1.274c0,.784,0,.854-.63.854-.238,0-1.68-.07-1.764-.07S.686,74.476.6,74.476a.037.037,0,0,0-.042.042c0,.014,0,.028.056.084Zm20.02-3.864a4.452,4.452,0,0,0-.462-.14c-.028,0-.07,0-.07.042,0,.14.644,1.022,2.464,1.358.406.07.448.084.448.168,0,.168-.77.826-.77.952,0,.028.028.028.042.028.056,0,.056.014.2-.07a3.846,3.846,0,0,1,1.764-.672c.966-.07,1.092-.07,1.092-.322a1.471,1.471,0,0,0-1.372-1.12c-.154,0-.938.028-1.106.028A8.393,8.393,0,0,1,20.916,71.06Zm1.33,8.05a2.883,2.883,0,0,1-2.688-1.4c-.028-.07-.126-.518-.224-.518-.028,0-.182.154-.182.686,0,2.2,2.954,2.45,4.34,2.45.77,0,3.15-.07,3.15-.826a.868.868,0,0,0-.924-.658c-.07,0-2.2.294-2.618.294C22.96,79.138,22.344,79.11,22.246,79.11Zm14.21-8.946c-.084,0-.2.042-.2.14,0,.014.14.336.154.378a1.763,1.763,0,0,1,.126.686c0,.392-.126,1.54-.182,2a31.926,31.926,0,0,0-.322,3.892c0,2.814.868,3.864,2.688,3.864a6.547,6.547,0,0,0,4.7-2.408.065.065,0,0,0-.07-.07c-.056,0-1.12.588-1.33.686a6.9,6.9,0,0,1-2.94.728c-1.876,0-2.142-1.26-2.142-2.674a33.65,33.65,0,0,1,.588-4.984,6.439,6.439,0,0,0,.266-.784C37.8,71.3,37.184,70.164,36.456,70.164ZM49.9,72.712c-.168.2.49,1.134,1.19,1.134a1.012,1.012,0,0,0,.49-.182,18.34,18.34,0,0,1,4.158-1.5c.028,0,.084,0,.084.028a2.509,2.509,0,0,1-.336.294c-2.03,1.806-2.044,4.774-2.044,5.39a2.636,2.636,0,0,0,2.87,3c.084,0,1.624,0,1.624-.742,0-.336-.266-.518-.7-.518-.112,0-1.12.084-1.33.084-.826,0-1.708-.154-1.708-2.506,0-3.612,1.988-5.25,3.766-5.25.168,0,.966.154,1.148.154a.556.556,0,0,0,.56-.518c0-.476-.63-.672-1.12-.672a37.525,37.525,0,0,0-5.376,1.26,9.014,9.014,0,0,1-2.73.6C50.372,72.768,49.952,72.642,49.9,72.712Zm16.562-.91c-.028,0-.084.014-.084.056a1.891,1.891,0,0,0,.112.476,3.889,3.889,0,0,1,.1.812c0,.364-.2,2.086-.2,2.478,0,2.674,1.764,4.144,2.66,4.144.238,0,.532-.154.532-.434a3.512,3.512,0,0,0-.112-.462,1.89,1.89,0,0,1-.084-.56,3.928,3.928,0,0,1,.182-1.064,1.68,1.68,0,0,0,.042-.28c0-.056-.028-.112-.07-.112-.112,0-.35.336-.434.476-.42.7-.476.77-.714.77-.434,0-1.162-1.022-1.162-2.436a4.945,4.945,0,0,1,.336-1.806,1.918,1.918,0,0,0,.168-.56C67.732,72.922,67.1,71.8,66.458,71.8Zm6.678,1.288c-.07,0-.126.028-.126.07,0,.084.56.518.672.63.742.742.742,1.33.742,2.492,0,.182,0,.938.686.938s.7-.658.7-.924a3.484,3.484,0,0,0-1.246-2.674A2.725,2.725,0,0,0,73.136,73.09Zm11.55-3.178c-.28,0-.546.238-.546.378,0,.1.056.112.462.308a4.8,4.8,0,0,1,1.428,1.484c0,.1-.49.168-.826.168a2.562,2.562,0,0,1-.966-.2,2.78,2.78,0,0,0-.364-.126.109.109,0,0,0-.112.112,2.092,2.092,0,0,0,1.918,1.022c.14,0,.882-.126.91-.126.168,0,.952,1.232.952,1.316a4.728,4.728,0,0,1-2.17.448,3.568,3.568,0,0,1-1.47-.28,3.612,3.612,0,0,0-.448-.252.129.129,0,0,0-.126.14,1.1,1.1,0,0,0,.336.6,2.461,2.461,0,0,0,1.848.532,6.656,6.656,0,0,0,1.68-.21c.112-.028.644-.182.728-.182.126,0,.14.042.35.448a4.974,4.974,0,0,1,.63,1.722c0,.224-.154.294-.364.294a2.577,2.577,0,0,1-.616-.084,5.788,5.788,0,0,0-1.344-.168c-2.114,0-2.716,1.386-2.716,2.2,0,1.96,2.352,1.96,2.758,1.96.168,0,1.638,0,1.638-.8,0-.448-.49-.5-.658-.5-.2,0-1.134.1-1.358.1-.364,0-1.6-.07-1.6-1.106,0-.63.588-1.442,1.848-1.442a2.25,2.25,0,0,1,1.358.42c.91.63,1.008.7,1.358.7a.932.932,0,0,0,.812-.966,4.211,4.211,0,0,0-.9-2.2c-.434-.686-.448-.714-.448-.784s.042-.084.406-.21c1.2-.434,1.232-.756,1.232-.952,0-.392-.364-.616-.826-.616-.084,0-.364.028-.868.07-.056.014-.2.028-.2.14,0,.056.182.252.182.308,0,.238-.448.392-.5.392a5.8,5.8,0,0,1-.854-1.176c0-.042.294-.154.336-.168a.8.8,0,0,0,.6-.686.437.437,0,0,0-.476-.42c-.168,0-.21.028-.49.2a1.312,1.312,0,0,1-.546.224,2.92,2.92,0,0,1-.728-1.442C85.82,70.08,84.994,69.912,84.686,69.912Zm18.3.91a9.633,9.633,0,0,1-.084,1.232c-.028.14-.168.21-.462.21a2.471,2.471,0,0,1-1.358-.378c-.042-.028-.378-.224-.392-.224-.042,0-.056.07-.056.1,0,.546.882,1.26,1.876,1.33.224.014.294.014.294.084,0,.014-.112,1.848-.126,1.89-.1.266-1.036.266-1.372.266a5.447,5.447,0,0,1-1.694-.252,3.449,3.449,0,0,0-.532-.2c-.042,0-.042.028-.042.056a1.573,1.573,0,0,0,.406.644,2.855,2.855,0,0,0,1.932.574c.182,0,1.022-.07,1.218-.07.14,0,.14.084.14.21.014.378.028,1.316.028,1.6,0,.476,0,.518-.154.518-.1,0-.616-.042-.742-.042-1.666,0-2.52.644-2.52,1.484a1.624,1.624,0,0,0,1.792,1.512,2.712,2.712,0,0,0,2.38-1.414c.07-.154.1-.224.182-.224a2.5,2.5,0,0,1,.98.756c.5.6.56.672.756.672a.542.542,0,0,0,.476-.588c0-.658-.9-1.4-1.988-1.848-.294-.112-.294-.168-.35-.63-.014-.14-.168-1.75-.168-2.016,0-.14.042-.154.476-.308.644-.21,2.2-.854,2.2-1.344,0-.308-.364-.336-.938-.378-.07,0-.364-.07-.434-.07-.028,0-.07,0-.07.042s.056.21.056.252c0,.448-1.008.728-1.162.728-.182,0-.182-.084-.182-.406,0-.574.056-1.316.07-1.358.014-.21.042-.224.154-.252.392-.126,1.344-.406,1.344-.924,0-.224-.266-.266-.406-.266a1.675,1.675,0,0,0-.5.112,1.634,1.634,0,0,1-.392.126c-.056,0-.056-.056-.056-.084a3.271,3.271,0,0,1,.21-.91,4.022,4.022,0,0,0,.35-.742c0-.294-.756-.644-1.134-.644-.084,0-.35,0-.35.1,0,.028.084.168.1.21A2.661,2.661,0,0,1,102.984,70.822Zm-.336,8.456c.056.126-.07.462-.322.686a2.31,2.31,0,0,1-1.386.518c-.392,0-1.12-.168-1.12-.7,0-.8,1.47-.8,1.5-.8C101.57,78.984,102.55,79.04,102.648,79.278Zm10.542-6.23c-.042.014-.07.084-.07.14,0,.574,1.162,1.162,1.47,1.162a13.013,13.013,0,0,0,1.5-.56,17.34,17.34,0,0,1,2.478-.56c.28,0,.28.084.28.84,0,.714,0,.8-.392.854-1.358.21-1.358,1.75-1.358,1.932,0,1.12.672,1.834,1.428,1.834.042,0,.252-.028.294-.028.14,0,.14.154.14.2a4.554,4.554,0,0,1-.784,2.058c-.1.14-.672.812-.672.84s.042.056.07.056c.434,0,2.548-1.736,2.548-4.452a4.438,4.438,0,0,0-.406-1.89,1.828,1.828,0,0,1-.182-.91c0-1.232.028-1.428.224-1.512a6.532,6.532,0,0,1,1.512-.14c.266,0,1.568.126,1.862.126.49,0,.756-.126.756-.49,0-.49-.616-.546-.8-.546-.112,0-.7.07-.84.07a3.076,3.076,0,0,1-1.232-.28c-.826-.35-1.232-.56-1.232-.882,0-.07.056-.364.056-.434,0-.448-.546-.7-1.162-.7-.084,0-.294,0-.294.1,0,.07.224.322.238.392a8.362,8.362,0,0,1,.2,1.9c0,.364-.084.378-.812.5a28.3,28.3,0,0,1-3.808.476C114,73.146,113.33,73.062,113.19,73.048ZM119.8,71.41a3.035,3.035,0,0,1,1.064.742c0,.21-.91.238-.966.238-.2,0-.252-.042-.252-.266C119.644,71.76,119.7,71.438,119.8,71.41Zm-.952,4.424a2.722,2.722,0,0,1,.182.98c0,.224-.014,1.064-.56,1.064a1.015,1.015,0,0,1-.91-1.12c0-.714.448-1.288.8-1.288A.592.592,0,0,1,118.846,75.834ZM130.1,78.7a1.554,1.554,0,0,0-.014,3.108A1.554,1.554,0,1,0,130.1,78.7Zm-.014.392a1.174,1.174,0,0,1,1.19,1.176,1.156,1.156,0,0,1-1.162,1.148,1.174,1.174,0,0,1-1.176-1.176A1.133,1.133,0,0,1,130.088,79.1Z" transform="translate(-0.294 11.872)" fill="#fff"/>
</svg>
