<svg xmlns="http://www.w3.org/2000/svg" width="403.124" height="40.9" viewBox="0 0 403.124 40.9">
  <path id="パス_130450" data-name="パス 130450" d="M2.22-11.82c.12,4.32.12,7.62.18,9C3.78-1.26,7.98.9,12.84.9c7.08,0,13.32-4.5,13.32-11.58,0-4.86-2.94-8.04-7.08-11.1l-1.8-1.32c-3.12-2.34-5.4-4.5-5.4-7.92a6.54,6.54,0,0,1,6.54-6.84c5.16,0,6.72,4.32,7.2,8.7l1.8-.18c.06-2.88,0-6.06.18-8.52-.48-.18-1.44-.6-2.58-1.02a19.273,19.273,0,0,0-5.94-1.02c-7.2,0-12.3,4.5-12.3,10.86,0,4.98,3.84,8.34,6.78,10.62L15.3-17.1c3.42,2.7,5.4,5.04,5.4,8.34,0,4.56-2.76,7.56-7.08,7.56C7.08-1.2,4.56-7.56,3.96-12ZM34.98.72a3.659,3.659,0,0,0,3.66-3.9,3.114,3.114,0,0,0-3.06-3.36,3.725,3.725,0,0,0-3.72,3.96A3.108,3.108,0,0,0,34.98.72Zm33.3-39.66H52.62l-.42,1.68c4.92.42,5.34.78,4.5,5.22L51.84-7.14c-.9,4.62-1.26,5.1-5.88,5.46L45.54,0H61.32l.36-1.68c-4.86-.36-5.28-.78-4.38-5.46l4.8-24.9c.9-4.44,1.2-4.8,5.82-5.22ZM72.24.72a3.659,3.659,0,0,0,3.66-3.9,3.114,3.114,0,0,0-3.06-3.36,3.725,3.725,0,0,0-3.72,3.96A3.108,3.108,0,0,0,72.24.72ZM128.4-38.94H114.78l-.48,1.68c4.38.24,5.46.9,5.22,3.72a92.81,92.81,0,0,1-1.56,10.26l-2.7,14.34h-.18l-17.34-30H88.68l-.42,1.68c3.18.18,4.32.54,5.04,1.8.72,1.32.96,2.28.3,5.58l-3,14.28c-1.2,5.58-1.86,8.28-2.52,10.32-.78,2.64-2.16,3.42-5.28,3.6L82.38,0H96.3l.36-1.68c-4.2-.3-5.28-.96-5.1-3.72a77.325,77.325,0,0,1,1.5-10.08l3.06-15.6h.18L113.94.48h2.04l4.5-23.76a101.866,101.866,0,0,1,2.34-10.2c.78-2.64,1.56-3.6,5.22-3.78Zm20.04,0-.36,1.68c4.74.42,5.1.78,4.2,5.22l-4.8,24.78c-.96,4.8-1.44,5.16-6,5.58L141.06,0h13.08c4.74,0,9-.48,12.36-2.1,4.02-1.92,6.84-5.28,6.84-9.72,0-5.52-4.14-8.4-8.82-9.36v-.12c5.34-1.08,9.84-3.9,9.84-9.36,0-6.06-4.56-8.28-11.58-8.28Zm7.2,16.92,2.16-11.64c.3-1.62.66-2.34,1.14-2.7a4.614,4.614,0,0,1,2.7-.6c3.36,0,6.84,1.5,6.84,6.36,0,5.16-3.48,8.58-10.08,8.58Zm-.42,2.04h2.7c4.92,0,9.18,1.92,9.18,7.86,0,6.12-4.26,10.02-9.78,10.02-3.66,0-5.34-.84-4.5-5.34Zm66.72-18.96H207.9l-.42,1.68c4.32.24,5.46.84,5.34,3.3a91.822,91.822,0,0,1-1.56,10.62l-.9,4.38C208.14-7.62,204.12-2.4,197.04-2.4c-5.88,0-10.14-4.08-8.1-14.76L191.7-31.8c.9-4.8,1.32-5.04,5.76-5.46l.36-1.68h-15.3l-.42,1.68c4.74.42,5.04.78,4.14,5.46l-2.82,14.94c-1.38,7.44-.06,11.94,2.7,14.52A13.521,13.521,0,0,0,195.48.9a15.427,15.427,0,0,0,10.38-3.96c3.96-3.72,5.76-9.18,6.96-15.42l.96-4.86c1.08-5.46,1.8-8.52,2.4-10.56.72-2.28,1.44-3.18,5.34-3.36Zm-.72,27.12c.12,4.32.12,7.62.18,9C222.78-1.26,226.98.9,231.84.9c7.08,0,13.32-4.5,13.32-11.58,0-4.86-2.94-8.04-7.08-11.1l-1.8-1.32c-3.12-2.34-5.4-4.5-5.4-7.92a6.54,6.54,0,0,1,6.54-6.84c5.16,0,6.72,4.32,7.2,8.7l1.8-.18c.06-2.88,0-6.06.18-8.52-.48-.18-1.44-.6-2.58-1.02a19.273,19.273,0,0,0-5.94-1.02c-7.2,0-12.3,4.5-12.3,10.86,0,4.98,3.84,8.34,6.78,10.62l1.74,1.32c3.42,2.7,5.4,5.04,5.4,8.34,0,4.56-2.76,7.56-7.08,7.56-6.54,0-9.06-6.36-9.66-10.8Zm50.04-27.12H255.6l-.42,1.68c4.92.42,5.34.78,4.5,5.22l-4.86,24.9c-.9,4.62-1.26,5.1-5.88,5.46L248.52,0H264.3l.36-1.68c-4.86-.36-5.28-.78-4.38-5.46l4.8-24.9c.9-4.44,1.2-4.8,5.82-5.22Zm44.52,0H302.16l-.48,1.68c4.38.24,5.46.9,5.22,3.72a92.815,92.815,0,0,1-1.56,10.26l-2.7,14.34h-.18l-17.34-30h-9.06l-.42,1.68c3.18.18,4.32.54,5.04,1.8.72,1.32.96,2.28.3,5.58l-3,14.28c-1.2,5.58-1.86,8.28-2.52,10.32-.78,2.64-2.16,3.42-5.28,3.6L269.76,0h13.92l.36-1.68c-4.2-.3-5.28-.96-5.1-3.72a77.326,77.326,0,0,1,1.5-10.08l3.06-15.6h.18L301.32.48h2.04l4.5-23.76a101.86,101.86,0,0,1,2.34-10.2c.78-2.64,1.56-3.6,5.22-3.78Zm5.1,0-.42,1.68c4.92.42,5.22.78,4.26,5.58L320.04-7.26c-.96,4.8-1.44,5.16-6.24,5.58L313.38,0H341.7c.84-1.92,3.06-7.56,3.72-9.3l-1.74-.6a24.455,24.455,0,0,1-4.08,5.7c-1.62,1.56-3.42,2.04-7.74,2.04-3.24,0-4.98-.12-5.88-.9-.78-.72-.84-2.28-.24-5.58l1.98-10.5h5.46c5.16,0,5.16.42,5.04,4.74h1.8l2.28-11.52h-1.8c-1.44,3.96-1.8,4.38-6.84,4.38H328.2l2.46-12.84c.42-2.22.6-2.46,2.7-2.46h4.32c4.26,0,5.1.54,5.76,1.92.66,1.14.78,3,.84,5.34l1.8-.12c.42-3.48.96-8.04,1.14-9.24Zm29.46,27.12c.12,4.32.12,7.62.18,9C351.9-1.26,356.1.9,360.96.9c7.08,0,13.32-4.5,13.32-11.58,0-4.86-2.94-8.04-7.08-11.1l-1.8-1.32c-3.12-2.34-5.4-4.5-5.4-7.92a6.54,6.54,0,0,1,6.54-6.84c5.16,0,6.72,4.32,7.2,8.7l1.8-.18c.06-2.88,0-6.06.18-8.52-.48-.18-1.44-.6-2.58-1.02a19.272,19.272,0,0,0-5.94-1.02c-7.2,0-12.3,4.5-12.3,10.86,0,4.98,3.84,8.34,6.78,10.62l1.74,1.32c3.42,2.7,5.4,5.04,5.4,8.34,0,4.56-2.76,7.56-7.08,7.56-6.54,0-9.06-6.36-9.66-10.8Zm29.52,0c.12,4.32.12,7.62.18,9C381.42-1.26,385.62.9,390.48.9c7.08,0,13.32-4.5,13.32-11.58,0-4.86-2.94-8.04-7.08-11.1l-1.8-1.32c-3.12-2.34-5.4-4.5-5.4-7.92a6.54,6.54,0,0,1,6.54-6.84c5.16,0,6.72,4.32,7.2,8.7l1.8-.18c.06-2.88,0-6.06.18-8.52-.48-.18-1.44-.6-2.58-1.02a19.272,19.272,0,0,0-5.94-1.02c-7.2,0-12.3,4.5-12.3,10.86,0,4.98,3.84,8.34,6.78,10.62l1.74,1.32c3.42,2.7,5.4,5.04,5.4,8.34,0,4.56-2.76,7.56-7.08,7.56-6.54,0-9.06-6.36-9.66-10.8Z" transform="translate(-2.169 39.95)" fill="#fff" stroke="#fff" stroke-width="0.1"/>
</svg>
