<svg xmlns="http://www.w3.org/2000/svg" width="104.88" height="22.176" viewBox="0 0 104.88 22.176">
  <path id="パス_130451" data-name="パス 130451" d="M10.8-16.248c.48,0,.48.408.48.672,0,1.272,0,1.392-.528,1.392H8.16a2.44,2.44,0,0,1-.96-.144,10.592,10.592,0,0,0-1.872-.96c-.144,0-.168.1-.168.216a5.715,5.715,0,0,0,.12.624c.048.48.048,2.04.048,2.112,0,.312-.072,1.824-.072,2.16,0,.312.072.624.624.624a1.07,1.07,0,0,0,1.1-.744c.1-.36.12-.456.576-.456h3.168c.5,0,.5.384.5.648,0,1.032,0,1.3-.528,1.3H7.512c-1.128,0-2.112,0-3.288-.072-.168,0-.888-.1-1.056-.1-.072,0-.1.024-.1.072,0,.024.024.048.1.144l.48.576c.072.1.12.144.216.144.072,0,.408-.072.5-.072.216-.024.912-.048,3.024-.048H10.7c.5,0,.5.384.5.912,0,.672,0,.984-.528.984H5.472c-1.128,0-2.112-.024-3.288-.072-.144,0-.888-.1-1.056-.1-.048,0-.1.024-.1.072,0,.024.024.048.12.144l.456.552c.072.1.144.168.24.168.072,0,.408-.072.48-.072.24-.024.936-.048,3.024-.048H10.68c.5,0,.5.384.5.744,0,1.1,0,1.368-.576,1.368H8.16c-1.128,0-2.112-.048-3.288-.1-.168,0-.912-.072-1.08-.072-.048,0-.072.024-.072.048,0,.048,0,.048.1.168L4.3-2.9c.072.1.12.144.192.144s.432-.048.528-.048c.216-.024,1.32-.072,3.024-.072h2.568a.494.494,0,0,1,.552.576c0,1.872,0,1.944-1.32,1.944-.288,0-1.7-.192-2.016-.192-.048,0-.312,0-.312.12,0,.216.5.384.768.456C9.744.5,10.1,1.056,10.272,1.44c.12.264.144.336.312.336a5.7,5.7,0,0,0,1.2-.288,1.71,1.71,0,0,0,1.128-1.9c0-.24-.048-1.416-.048-1.68,0-.456,0-.792.576-.792h3.72c.288,0,.48.1.528.552.1.768.12,1.032.7,1.032A1.151,1.151,0,0,0,19.632-2.52c0-.264-.072-1.992-.072-2.376,0-.312,0-.72.5-.72h1.824c.624,0,1.056,0,1.056-.288,0-.456-1.608-1.488-1.848-1.488-.192,0-.24.1-.744.768a.872.872,0,0,1-.528.312c-.264,0-.264-.216-.264-.36,0-.84,0-.936.144-1.08.432-.48.456-.528.456-.648,0-.312-1.32-1.2-1.536-1.2-.264,0-.432.168-.72.456a1.185,1.185,0,0,1-1.008.336H13.344c-.528,0-.528-.336-.528-.936,0-.648,0-1.008.528-1.008h3.072a.426.426,0,0,1,.456.312c.144.5.192.7.816.7a.971.971,0,0,0,1.032-.864v-2.28a.476.476,0,0,1,.216-.456c.312-.288.432-.384.432-.552,0-.312-1.344-1.2-1.512-1.2-.216,0-.36.168-.744.576a.771.771,0,0,1-.744.336h-3c-.5,0-.528-.36-.528-.6.024-1.32.024-1.464.6-1.464h7.7c.816,0,1.3,0,1.3-.336,0-.312-2.112-1.584-2.256-1.584-.216,0-.288.1-.96.888-.36.408-.456.408-1.536.408H13.44a.478.478,0,0,1-.528-.552,3.036,3.036,0,0,1,.072-.672c.048-.144.552-.744.552-.912,0-.5-2.016-1.056-2.256-1.056-.1,0-.216.048-.216.312,0,.288.216,1.824.216,2.184,0,.264,0,.7-.5.7H6.1c-1.128,0-2.112-.048-3.288-.1-.168,0-.888-.072-1.056-.072-.072,0-.1,0-.1.048s.024.048.1.168l.48.552c.072.1.12.144.216.144.072,0,.408-.048.5-.048.456-.024,1.2-.072,3.024-.072ZM7.56-11.376c-.6,0-.6-.24-.6-1.08s0-1.08.576-1.08H10.7c.528,0,.528.36.528,1.056,0,.744,0,1.1-.528,1.1Zm8.928-2.16c.528,0,.528.384.528.888,0,.984,0,1.272-.576,1.272H13.368c-.552,0-.552-.288-.552-1.3,0-.456,0-.864.552-.864ZM13.344-6.264c-.528,0-.528-.288-.528-1.128,0-.36,0-.768.528-.768h4.008c.528,0,.528.408.528.768,0,.84-.1,1.128-.576,1.128Zm3.96.648c.528,0,.528.384.528.792,0,1.128-.1,1.32-.648,1.32H13.416c-.576,0-.576-.144-.576-1.44,0-.288,0-.672.528-.672ZM48.84-4.8c.792,0,1.272,0,1.272-.336,0-.408-1.824-1.584-2.064-1.584-.288,0-1.1,1.1-1.32,1.2a4.592,4.592,0,0,1-1.176.072H40.68c-.576,0-.576-.312-.576-.6,0-1.1,0-1.3.6-1.3H45.96c.768,0,1.2,0,1.2-.384s-1.44-1.56-1.848-1.56c-.264,0-.336.1-1.032.912-.336.384-.456.384-1.512.384H40.776c-.672,0-.672-.336-.672-.96,0-.936,0-1.224.72-1.224h6.7c1.1,0,1.224,0,1.224-.312,0-.384-1.728-1.584-1.824-1.584-.24,0-.912.936-1.08,1.08-.192.168-.312.168-1.3.168h-2.16c-.168,0-.456,0-.456-.216,0-.312,1.056-1.272,1.608-1.584.336-.168.432-.24.432-.408,0-.24-.1-.288-.888-.744-.48-.288-.528-.312-.528-.408,0-.12.168-.12.264-.12h5.5c.816,0,1.3,0,1.3-.336a6.365,6.365,0,0,0-2.064-1.536c-.216,0-.912.912-1.08,1.032-.24.192-.48.216-1.392.216H43.9c-.1,0-.288-.024-.288-.144a10.931,10.931,0,0,1,2.064-1.512,10.6,10.6,0,0,1,.984-.624c.5-.192.552-.192.552-.36,0-.456-1.776-1.416-1.824-1.416-.12,0-.144.048-.408.672-.384.888-2.112,3.384-2.544,3.384-.216,0-.24-.192-.24-.36-.024-1.224-.048-1.344-.048-2.712a1,1,0,0,1,.264-.84c.216-.288.264-.336.264-.432,0-.216-.24-.384-.384-.432a9.921,9.921,0,0,0-1.656-.432c-.168,0-.24.144-.24.336a3.985,3.985,0,0,0,.072.528c.024.432.072,1.632.072,2.28,0,1.872,0,2.064-.7,2.064h-.864c-.672,0-.72,0-.72-3.216,0-.528.048-.72.216-.912a.849.849,0,0,0,.24-.384c0-.528-1.944-.672-1.992-.672-.144,0-.24,0-.24.288,0,.24.144,1.248.168,1.464.024.648.048,2.352.048,2.784,0,.216,0,.648-.528.648h-.72c-.072,0-.264,0-.264-.192a.5.5,0,0,1,.12-.336,1.257,1.257,0,0,0,.168-.6c0-1.56-2.592-2.256-3.192-2.256-.144,0-.24.1-.24.168,0,0,.84.816.984.984a6.312,6.312,0,0,1,.96,1.944c0,.288-.144.288-.5.288-1.368,0-2.616-.072-3.312-.1-.168,0-.888-.072-1.056-.072-.024,0-.072,0-.072.048s0,.048.1.168l.48.552c.072.1.12.144.192.144.1,0,.432-.048.528-.048.456-.048,2.064-.072,3.024-.072h.6c.456,0,.768.048,1.248.84a10.211,10.211,0,0,1,.984,2.448c0,.192-.144.192-.264.192H35.04c-1.344,0-2.592-.048-3.288-.072-.168,0-.912-.1-1.056-.1a.077.077,0,0,0-.072.072c0,.024,0,.024.1.144l.456.552c.1.12.144.168.216.168s.432-.048.5-.048c.84-.072,2.472-.072,3.048-.072h2.9c.624,0,.624.5.624,1.008,0,.888,0,1.176-.7,1.176H36.264c-1.08,0-2.616-.048-3.288-.072-.168,0-.912-.1-1.056-.1-.048,0-.1.024-.1.072,0,.024,0,.024.1.144l.48.576c.1.1.12.144.216.144.072,0,.576-.072.648-.072.528-.048,1.992-.048,2.88-.048h1.728c.576,0,.6.288.6.552,0,1.128,0,1.344-.5,1.344h-4.7c-1.008,0-2.616-.048-3.312-.072-.168,0-.888-.1-1.056-.1a.077.077,0,0,0-.072.072c0,.024,0,.024.1.144l.456.552c.1.12.144.168.216.168.1,0,.576-.072.648-.072.624-.048,2.112-.048,2.9-.048h3.168c.168,0,.408,0,.408.24,0,.48-3.792,3.816-7.92,5.64-.024.024-.5.24-.5.312,0,.1.12.12.168.12A23.916,23.916,0,0,0,37.68-2.9a2.526,2.526,0,0,1,.576-.36c.192,0,.192.216.192.312,0,.624,0,1.392-.024,2.016-.024.36-.144,2.16-.144,2.208,0,.528.24.6.528.6a1.5,1.5,0,0,0,1.08-.48c.24-.264.24-.456.24-1.32,0-.5-.024-2.712-.024-3.168,0-.144-.024-.864-.024-.96,0-.072.024-.288.216-.288.12,0,.144.048.7.72a15.547,15.547,0,0,0,6.6,4.8,6.889,6.889,0,0,0,1.176.408c.072,0,.24-.288.312-.456a2.3,2.3,0,0,1,1.3-1.2c.384-.1.5-.12.5-.264s-.072-.144-.648-.216A17.313,17.313,0,0,1,42.1-3.72c-.768-.576-.864-.624-.864-.84,0-.24.264-.24.6-.24Zm-7.512-9.5c.408,0,.5.072.5.312a8.132,8.132,0,0,1-.456,2.184c-.264.792-.408.984-1.1.984H37.608c-.1,0-.264,0-.264-.12a.452.452,0,0,1,.048-.192,1.432,1.432,0,0,0,.168-.624c0-.528-.312-1.176-1.464-2.016-.1-.048-.5-.336-.5-.408,0-.12.144-.12.192-.12Zm27.384,6.84a2.244,2.244,0,0,1-1.1-.216,3.8,3.8,0,0,0-1.3-.48.221.221,0,0,0-.24.24c0,.168.12.888.12,1.032.072,1.08.072,1.848.072,2.808,0,1.176,0,2.664-.072,3.84,0,.192-.1,1.1-.1,1.3,0,.312.048.7.648.7,1.128,0,1.152-.6,1.176-1.344.024-.576.48-.576.744-.576h5.4c.312,0,.7,0,.744.6.024.576.072,1.008.648,1.008A1.1,1.1,0,0,0,76.68.168c0-.456-.12-2.5-.12-2.9,0-.48,0-3.384.072-3.5.024-.024.432-.336.48-.384a.292.292,0,0,0,.144-.24c0-.528-1.752-1.32-1.92-1.32-.144,0-.6.5-.7.576a1.261,1.261,0,0,1-.744.144ZM68.664-.792c-.168,0-.552,0-.672-.312-.1-.192-.1-3.432-.1-3.7,0-1.824,0-2.016.768-2.016h5.448c.432,0,.576.072.7.288.072.192.072,3.432.072,3.72,0,1.824,0,2.016-.768,2.016Zm-8.736-12.6a2.454,2.454,0,0,0-.96-1.656.637.637,0,0,1-.216-.36c0-.168.072-.264.84-.984a17.929,17.929,0,0,1,1.92-1.9c.24-.144.336-.168.336-.384,0-.408-1.512-1.44-1.824-1.44-.24,0-.24.1-.24.5,0,.336-1.2,3.912-1.68,3.912-.1,0-1.44-.48-1.7-.48-.048,0-.144,0-.144.072a1.72,1.72,0,0,0,.264.36,7.076,7.076,0,0,1,1.656,2.28c.432.864.768,1.032,1.056,1.032C59.592-12.432,59.928-12.888,59.928-13.392Zm9.7-5.064c-1.368,0-2.592-.048-3.288-.1-.168,0-.912-.072-1.056-.072-.024,0-.1,0-.1.048s.024.072.12.168l.456.552c.072.1.12.144.216.144.072,0,.432-.048.5-.048.312-.024,1.512-.048,1.848-.048.432,0,.528.288.528.624a11.27,11.27,0,0,1-1.944,6.5c-.24.312-1.512,1.824-1.512,1.92a.052.052,0,0,0,.048.048,11.1,11.1,0,0,0,3.7-3.312,11.145,11.145,0,0,0,1.584-5.136c.072-.6.288-.672.768-.672h2.88c.336,0,.7.024.7.648a27.238,27.238,0,0,1-.672,5.136c-.336,1.032-.6,1.032-.984,1.032a6.4,6.4,0,0,1-1.536-.312c-.024,0-.408-.12-.408-.12-.024,0-.1.024-.1.072,0,.1.432.48.48.6a3.076,3.076,0,0,1,.5,1.152c.144.552.288.672.648.672A3.092,3.092,0,0,0,75.6-10.608a15.341,15.341,0,0,0,.984-5.112c.168-1.68.264-1.728.48-1.872.408-.24.456-.264.456-.456,0-.408-1.368-1.416-1.728-1.416-.216,0-.288.12-.576.624a.833.833,0,0,1-.816.384ZM58.152-6.552a8.911,8.911,0,0,0-.984-.288A.163.163,0,0,0,57-6.672c0,.072.048.456.048.528a26.736,26.736,0,0,1-.5,3.84c-.1.384-.672,2.3-.672,2.448,0,.1,0,.12.12.12A5.088,5.088,0,0,0,56.9-1.08c.288-.552,1.488-3.288,1.824-3.888.072-.144.6-.84.6-.912C59.328-6.144,58.512-6.432,58.152-6.552ZM63.48-5.5a3.265,3.265,0,0,0-.816-.552A.047.047,0,0,0,62.616-6c0,.072,0,.12.168.528a11.868,11.868,0,0,1,.432,2.04c.192,1.44.24,1.944.984,1.944.456,0,.888-.36.888-1.1A4.27,4.27,0,0,0,63.48-5.5Zm-.312-4.536c0,.288,0,.336-1.608.336-.72,0-1.488-.024-1.584-.024-.12-.024-.336-.024-.336-.192a.324.324,0,0,1,.12-.24c.672-.744,3.6-4.7,4.056-4.9.672-.312.7-.336.7-.528,0-.672-1.608-1.32-2.064-1.32-.24,0-.24.1-.24.408,0,.7-2.3,5.136-3.024,6.288-.288.456-.408.456-.864.456a9.222,9.222,0,0,1-1.68-.12c-.1,0-.528-.24-.648-.24-.24,0-.312.288-.312.648s.216,1.68.7,1.68a6.7,6.7,0,0,0,.816-.432,17.312,17.312,0,0,1,2.472-.432c.336,0,.408.168.408.624.024.5,0,2.928,0,3.48,0,.144-.216,4.224-.24,4.632,0,.12-.072.744-.072.864a.731.731,0,0,0,.768.816c1.08,0,1.08-1.128,1.08-1.68,0-1.176-.072-6.888-.072-8.184,0-.6,0-.768.408-.888a7.814,7.814,0,0,1,1.272-.216c.192,0,.288.024.384.384.168.7.24.96.72.96.672,0,.72-.888.72-1.056,0-.96-.48-1.3-1.488-2.016a3.04,3.04,0,0,0-.816-.336.088.088,0,0,0-.1.1,1.206,1.206,0,0,0,.192.288A2.49,2.49,0,0,1,63.168-10.032ZM82.776-8.664c.6,0,6.072-2.544,10.656-8.448.672-.864.744-.96.912-.96s.264.12.36.264a27.3,27.3,0,0,0,1.68,2.64,16.9,16.9,0,0,0,6.984,5.64c.12,0,.192-.072.288-.168A3.313,3.313,0,0,1,105-10.776a8.411,8.411,0,0,0,.912-.432c0-.048-.072-.072-.168-.1-.5-.1-1.536-.432-2.112-.624-4.728-1.632-8.568-5.9-8.568-6.456a.208.208,0,0,1,.1-.168c.192-.12.336-.216.336-.432,0-.576-2.52-1.32-2.664-1.32-.288,0-.288.192-.288.408,0,1.872-5.28,7.92-9.648,10.968-.024.024-.24.144-.24.168C82.656-8.688,82.728-8.664,82.776-8.664Zm13.92-3.5c-.192-.024-.432.024-.432.264,0,.12.192.648.216.768.1.768.1,2.352.1,3.192,0,1.992,0,4.968-.072,6.672C96.5-.984,96.36.48,96.36.792c0,.264,0,.984.768.984a1.229,1.229,0,0,0,1.2-1.344c0-.288-.072-1.632-.072-1.944-.048-1.992-.048-3.528-.048-4.032A40.574,40.574,0,0,1,98.4-10.56c.072-.12.576-.528.576-.672C98.976-11.736,97.152-12.12,96.7-12.168Zm-6.6.1c-.24,0-.288.12-.288.24a3.579,3.579,0,0,0,.1.432A21.287,21.287,0,0,1,90.1-8.544c0,3.312-.552,6.984-4.7,9.216a6.2,6.2,0,0,0-1.272.672c0,.1.144.1.168.1a10.1,10.1,0,0,0,3.024-1.1c4.272-2.256,4.464-6.1,4.464-9.792,0-.528,0-1.008.288-1.224.312-.216.336-.264.336-.408a.406.406,0,0,0-.312-.36A17.82,17.82,0,0,0,90.1-12.072Z" transform="translate(-1.032 20.304)" fill="#fff"/>
</svg>
