<svg xmlns="http://www.w3.org/2000/svg" width="285.248" height="50.816" viewBox="0 0 285.248 50.816">
  <path id="パス_130455" data-name="パス 130455" d="M9.36-4.432c-.112,0-.384,0-.464-.192a4.317,4.317,0,0,1-.032-1.008c0-1.152,0-1.28.288-1.456.144-.1.32-.224.32-.432,0-.128-.064-.208-.272-.272A9.656,9.656,0,0,0,7.488-8.16c-.08,0-.208.016-.208.112a4.166,4.166,0,0,0,.256.544A9.064,9.064,0,0,1,7.7-4.88c0,.448-.048,4.192-.08,4.3a.392.392,0,0,1-.432.3h-1.6c-.128,0-.384,0-.48-.192a12.442,12.442,0,0,1-.048-1.392c0-.368,0-2.08.048-2.3a.462.462,0,0,1,.208-.3c.208-.16.3-.224.3-.384,0-.368-1.648-.624-1.68-.624a.165.165,0,0,0-.192.176c0,.112.16.64.176.752.016.352.032,2.08.032,2.5,0,1.6,0,1.776-.48,1.776-.16,0-1.328-.032-1.7-.048-.1-.016-.608-.064-.72-.064-.048,0-.064.016-.064.032a.2.2,0,0,0,.064.112l.32.368c.048.064.08.1.128.1.064,0,.288-.032.352-.032C2.416.144,3.5.144,3.872.144H14.16c.528,0,.864,0,.864-.208a4.265,4.265,0,0,0-1.392-1.152c-.176,0-.72.7-.864.832-.128.112-.208.112-.864.112H9.376c-.144,0-.368,0-.464-.192-.032-.08-.032-.944-.032-1.424,0-.224-.032-1.328-.032-1.584,0-.368.08-.544.512-.544h2.88c.752,0,.848,0,.848-.208a3.17,3.17,0,0,0-1.28-1.136c-.144,0-.192.064-.5.592-.208.336-.336.336-.992.336ZM8.128-11.968c.144,0,.272.192.32.288C10.64-7.808,13.776-6.128,14.1-6.128A.267.267,0,0,0,14.3-6.24a2.288,2.288,0,0,1,.88-.768,5.179,5.179,0,0,0,.592-.288c0-.032-.272-.1-.352-.112a11.292,11.292,0,0,1-4.256-2.048,10.685,10.685,0,0,1-2.48-2.672c0-.064.144-.336.144-.4,0-.16-.144-.272-.448-.4a5.951,5.951,0,0,0-1.216-.448c-.112,0-.16.032-.208.336-.08.656-2.4,4.3-5.792,6.832-.048.032-.64.48-.64.5a.069.069,0,0,0,.064.064c.48,0,4.656-2.368,6.992-5.76C7.92-11.9,7.968-11.968,8.128-11.968ZM32.56-3.2c.528,0,.848,0,.848-.224,0-.272-1.216-1.056-1.376-1.056-.192,0-.736.736-.88.8a3.061,3.061,0,0,1-.784.048H27.12c-.384,0-.384-.208-.384-.4,0-.736,0-.864.4-.864h3.5c.512,0,.8,0,.8-.256s-.96-1.04-1.232-1.04c-.176,0-.224.064-.688.608-.224.256-.3.256-1.008.256H27.184c-.448,0-.448-.224-.448-.64,0-.624,0-.816.48-.816H31.68c.736,0,.816,0,.816-.208,0-.256-1.152-1.056-1.216-1.056-.16,0-.608.624-.72.72-.128.112-.208.112-.864.112h-1.44c-.112,0-.3,0-.3-.144,0-.208.7-.848,1.072-1.056.224-.112.288-.16.288-.272,0-.16-.064-.192-.592-.5-.32-.192-.352-.208-.352-.272,0-.08.112-.08.176-.08h3.664c.544,0,.864,0,.864-.224A4.243,4.243,0,0,0,31.7-10.784c-.144,0-.608.608-.72.688-.16.128-.32.144-.928.144h-.784c-.064,0-.192-.016-.192-.1a7.288,7.288,0,0,1,1.376-1.008,7.065,7.065,0,0,1,.656-.416c.336-.128.368-.128.368-.24,0-.3-1.184-.944-1.216-.944-.08,0-.1.032-.272.448-.256.592-1.408,2.256-1.7,2.256-.144,0-.16-.128-.16-.24-.016-.816-.032-.9-.032-1.808a.664.664,0,0,1,.176-.56c.144-.192.176-.224.176-.288,0-.144-.16-.256-.256-.288a6.614,6.614,0,0,0-1.1-.288c-.112,0-.16.1-.16.224a2.656,2.656,0,0,0,.048.352c.016.288.048,1.088.048,1.52,0,1.248,0,1.376-.464,1.376h-.576c-.448,0-.48,0-.48-2.144,0-.352.032-.48.144-.608a.566.566,0,0,0,.16-.256c0-.352-1.3-.448-1.328-.448-.1,0-.16,0-.16.192,0,.16.1.832.112.976.016.432.032,1.568.032,1.856,0,.144,0,.432-.352.432h-.48c-.048,0-.176,0-.176-.128a.336.336,0,0,1,.08-.224.838.838,0,0,0,.112-.4c0-1.04-1.728-1.5-2.128-1.5-.1,0-.16.064-.16.112,0,0,.56.544.656.656a4.208,4.208,0,0,1,.64,1.3c0,.192-.1.192-.336.192-.912,0-1.744-.048-2.208-.064-.112,0-.592-.048-.7-.048-.016,0-.048,0-.048.032s0,.032.064.112l.32.368c.048.064.08.1.128.1.064,0,.288-.032.352-.032.3-.032,1.376-.048,2.016-.048h.4c.3,0,.512.032.832.56a6.807,6.807,0,0,1,.656,1.632c0,.128-.1.128-.176.128H23.36c-.9,0-1.728-.032-2.192-.048-.112,0-.608-.064-.7-.064a.051.051,0,0,0-.048.048c0,.016,0,.016.064.1l.3.368c.064.08.1.112.144.112s.288-.032.336-.032c.56-.048,1.648-.048,2.032-.048h1.936c.416,0,.416.336.416.672,0,.592,0,.784-.464.784H24.176c-.72,0-1.744-.032-2.192-.048-.112,0-.608-.064-.7-.064-.032,0-.064.016-.064.048,0,.016,0,.016.064.1l.32.384c.064.064.08.1.144.1.048,0,.384-.048.432-.048C22.528-4.9,23.5-4.9,24.1-4.9h1.152c.384,0,.4.192.4.368,0,.752,0,.9-.336.9H22.176c-.672,0-1.744-.032-2.208-.048-.112,0-.592-.064-.7-.064a.051.051,0,0,0-.048.048c0,.016,0,.016.064.1l.3.368c.064.08.1.112.144.112.064,0,.384-.048.432-.048C20.576-3.2,21.568-3.2,22.1-3.2h2.112c.112,0,.272,0,.272.16,0,.32-2.528,2.544-5.28,3.76-.016.016-.336.16-.336.208,0,.064.08.08.112.08A15.944,15.944,0,0,0,25.12-1.936a1.684,1.684,0,0,1,.384-.24c.128,0,.128.144.128.208,0,.416,0,.928-.016,1.344-.016.24-.1,1.44-.1,1.472,0,.352.16.4.352.4a1,1,0,0,0,.72-.32c.16-.176.16-.3.16-.88,0-.336-.016-1.808-.016-2.112,0-.1-.016-.576-.016-.64,0-.048.016-.192.144-.192.08,0,.1.032.464.48a10.365,10.365,0,0,0,4.4,3.2,4.593,4.593,0,0,0,.784.272c.048,0,.16-.192.208-.3a1.53,1.53,0,0,1,.864-.8c.256-.064.336-.08.336-.176s-.048-.1-.432-.144A11.542,11.542,0,0,1,28.064-2.48c-.512-.384-.576-.416-.576-.56,0-.16.176-.16.4-.16ZM27.552-9.536c.272,0,.336.048.336.208a5.421,5.421,0,0,1-.3,1.456c-.176.528-.272.656-.736.656H25.072c-.064,0-.176,0-.176-.08a.3.3,0,0,1,.032-.128.955.955,0,0,0,.112-.416c0-.352-.208-.784-.976-1.344-.064-.032-.336-.224-.336-.272,0-.08.1-.08.128-.08ZM48.576-1.808c.144,0,.464,0,.464.384,0,1.264-.016,1.264-.192,1.36a3.134,3.134,0,0,1-.96.24c-.08,0-.192.032-.192.1s.368.192.432.224a1.784,1.784,0,0,1,.56.512c.048.08.1.144.176.144.24,0,1.28-.464,1.28-1.344,0-.528-.1-2.848-.1-3.312a14.21,14.21,0,0,1,.064-1.728c.016-.016.16-.176.256-.272a.34.34,0,0,0,.112-.24c0-.16-.064-.208-.336-.368-.56-.3-.624-.336-.736-.336-.128,0-.176.032-.384.272a.589.589,0,0,1-.48.176H45.008a1.662,1.662,0,0,1-.544-.08c-.144-.016-.784-.288-.928-.288-.112,0-.128.048-.128.176,0,.256.048,1.36.048,1.6,0,1.344-.016,2.832-.08,4.176,0,.176-.08.96-.08,1.12,0,.368.064.432.336.432a.749.749,0,0,0,.8-.832c0-.224,0-1.76.016-1.824.064-.256.256-.288.464-.288Zm0-3.76c.448,0,.448.208.448,1.024,0,.384-.336.384-.448.384H44.9c-.416,0-.416-.288-.416-.672,0-.464,0-.736.448-.736Zm.016,1.824c.448,0,.448.176.448.96,0,.3,0,.544-.464.544H44.912c-.464,0-.464-.24-.464-.512,0-.7,0-.992.416-.992ZM38.512-9.632c-.048,0-.1.08-.112.24a3.359,3.359,0,0,1-.656,1.824c-.464.544-.544.624-.544.9a.536.536,0,0,0,.544.528c.672,0,1.056-.976,1.056-2.064C38.8-8.608,38.7-9.632,38.512-9.632Zm2.528-3.2c-.016-.112-.1-.192-.352-.24-.16-.032-1.12-.208-1.184-.208s-.064.064-.064.144c0,.016.016.32.032.48.08,1.3.1,1.52.1,2.576,0,2-.112,6.32-.176,8.64,0,.32-.1,1.872-.1,2.24,0,.272.112.4.288.4s.848-.176.9-.592v-6.08c0-.784.112-5.744.128-6.432a.7.7,0,0,1,.224-.56A.468.468,0,0,0,41.04-12.832Zm3.9,5.12c-.912,0-1.744-.032-2.208-.064-.112,0-.592-.048-.7-.048-.016,0-.048,0-.048.032s0,.032.064.112l.3.368c.064.064.1.1.144.1.064,0,.288-.032.336-.032.56-.048,1.648-.048,2.032-.048h6.064c.544,0,.864,0,.864-.208a2.758,2.758,0,0,0-1.152-.96c-.16,0-.192.048-.512.48-.192.272-.272.272-1.024.272H47.616c-.464,0-.464-.24-.464-.7,0-.608,0-.848.464-.848h2.528c.528,0,.864,0,.864-.208,0-.288-1.12-.928-1.28-.928-.128,0-.48.512-.576.592-.128.128-.208.128-.88.128h-.656c-.464,0-.464-.288-.464-.64,0-.736,0-.944.48-.944h2.64c.528,0,.848,0,.848-.208,0-.224-.928-.912-1.056-.912s-.448.512-.528.576c-.144.128-.224.128-.9.128h-.992c-.144,0-.48,0-.48-.4a1,1,0,0,1,.128-.448,2.082,2.082,0,0,0,.288-.4c0-.176-.176-.224-.272-.24a5.886,5.886,0,0,0-1.168-.192c-.064,0-.064.032-.064.08,0,.08.08.48.08.56,0,.9,0,1.04-.464,1.04h-.544c-.912,0-1.744-.032-2.208-.064-.112,0-.592-.048-.7-.048-.016,0-.048,0-.048.032s0,.032.064.112l.3.368c.064.064.1.1.144.1.064,0,.288-.032.336-.032.56-.048,1.648-.048,2.032-.048h.608c.16,0,.5,0,.5.4,0,.944,0,1.184-.4,1.184-.3,0-1.968-.048-2.08-.064-.1,0-.5-.048-.576-.048-.016,0-.064,0-.064.032s.016.048.08.112l.3.368c.048.064.08.1.144.1.048,0,.288-.032.336-.032.416-.032,1.52-.048,1.632-.048.416,0,.576.064.576.448,0,.992,0,1.1-.48,1.1ZM41.072-10.3c-.112-.032-.176.016-.176.1a.537.537,0,0,0,.064.224,3.026,3.026,0,0,1,.3.88c.16,1.04.176,1.152.56,1.152.352,0,.64-.32.64-.832C42.464-9.584,41.312-10.256,41.072-10.3ZM65.056-6.656c-.272,0-.56,0-.56-.464,0-.176.016-3.952.032-4.256.016-.432.256-.448.592-.448h2.32c.592,0,.624.08.624.816,0,.7,0,1.376-.032,1.648-.048.464-.16.464-1.184.464-.064,0-.224,0-.224.048,0,.064.528.5.72.7a5.532,5.532,0,0,0,.352.5.317.317,0,0,0,.208.1,1.885,1.885,0,0,0,.928-.656c.256-.368.256-.72.256-2.112,0-.592,0-.992.176-1.12.288-.208.32-.24.32-.368a1.835,1.835,0,0,0-1.12-1.136c-.112,0-.16.048-.56.512-.144.16-.176.176-.368.176H64.96a1.076,1.076,0,0,1-.64-.16,2.981,2.981,0,0,0-.88-.3c-.048,0-.048.064-.048.112,0,.128.048.736.064.864.032,1.056.032,4.912.032,6.24,0,1.472-.064,4.208-.128,5.52-.016.176-.016.5-.016.608,0,.368.08.608.384.608A.77.77,0,0,0,64.512.5c.016-.688.08-.72.624-1.072A15.369,15.369,0,0,0,66.384-1.5c.064-.048.16-.144.24-.144.1,0,.16.08.3.256A7.913,7.913,0,0,0,68.544.192,3.227,3.227,0,0,0,69.12-.1a2.458,2.458,0,0,1,1.056-.24c.032,0,.128-.016.128-.1,0-.048-.048-.08-.512-.288a5.429,5.429,0,0,1-2.368-1.824c0-.1.528-.992.624-1.184a16.646,16.646,0,0,1,.9-1.776c.064-.048.4-.224.464-.256a.294.294,0,0,0,.128-.224c0-.3-.96-.864-1.04-.864a2.611,2.611,0,0,0-.3.144.747.747,0,0,1-.272.048Zm2.24.416c.336,0,.544,0,.544.288,0,.448-.768,2.7-1.056,2.7-.3,0-1.392-1.984-1.392-2.816,0-.112.064-.176.224-.176ZM64.448-3.7c0-.672,0-1.344.016-2.016,0-.336.08-.528.512-.528.08,0,.144.048.16.176a6.61,6.61,0,0,0,.3,1.84c.1.3.784,1.792.784,1.9A4.79,4.79,0,0,1,64.656-.688a.159.159,0,0,1-.176-.16V-1.7C64.48-1.984,64.448-3.376,64.448-3.7ZM62.368-8.64c.544,0,.864,0,.864-.224s-1.1-1.024-1.28-1.024c-.16,0-.672.7-.832.768-.1.048-.208.064-.912.064-.336,0-.448-.064-.448-.416v-.912c0-.416.192-.416.544-.416h1.312c.528,0,.848,0,.848-.224a2.3,2.3,0,0,0-1.12-.96c-.16,0-.192.048-.544.5a.627.627,0,0,1-.624.256c-.288,0-.416-.1-.416-.4a1.894,1.894,0,0,1,.08-.688,2.491,2.491,0,0,0,.256-.448c0-.3-1.344-.576-1.424-.576-.048,0-.048.016-.048.064,0,.176.128,1.376.128,1.616,0,.272-.064.432-.4.432-.208,0-1.376-.064-1.5-.064-.08,0-.5-.032-.576-.032-.048,0-.064,0-.064.032,0,.016.016.032.064.1l.32.368c.048.08.08.112.144.112.032,0,.192-.032.224-.032.352-.048,1.12-.048,1.408-.048.336,0,.4.16.4.448v.864c0,.432-.1.432-.848.432-.3,0-1.536-.048-1.776-.064-.112,0-.624-.048-.736-.048-.032,0-.048,0-.048.032s0,.032.064.112l.3.368c.064.064.1.1.144.1s.288-.032.336-.032c.56-.048,1.664-.048,2.032-.048ZM58.5-6.368a1.586,1.586,0,0,0-.736-1.44,2.653,2.653,0,0,0-.672-.416c-.048,0-.08.016-.08.048A1.55,1.55,0,0,0,57.056-8a5.011,5.011,0,0,1,.352,1.36c.08.72.1.944.48.944S58.5-6.144,58.5-6.368ZM55.968-5.024c.048.08.08.112.144.112.048,0,.288-.032.336-.032.288-.032,1.056-.048,1.36-.048.72,0,.88,0,.88.416,0,1.472,0,1.536-.416,1.536-.32,0-1.84-.112-2.192-.112-.032,0-.048,0-.048.032s.032.064.064.112l.3.368c.064.064.1.1.144.1s.272-.032.32-.032c.368-.032.912-.048,1.28-.048.272,0,.512.064.512.48,0,.352-.1,2.56-.1,2.9,0,.208.032.432.336.432a.893.893,0,0,0,.88-.976c0-.32-.048-1.984-.048-2.352,0-.48.3-.48.592-.48h1.7c.512,0,.864,0,.864-.208,0-.144-.832-1.072-1.136-1.072-.128,0-.176.048-.528.592-.176.272-.32.272-.9.272-.384,0-.544,0-.592-.272V-4.544c0-.4.144-.448.48-.448h1.968c.768,0,.848,0,.848-.208,0-.24-.88-.992-1.12-.992-.128,0-.16.048-.5.512-.192.272-.272.272-1.056.272a.151.151,0,0,1-.16-.16,4.578,4.578,0,0,1,1.216-1.76c.24-.192.288-.224.288-.336,0-.416-1.152-.816-1.2-.816-.064,0-.1.016-.112.112-.032.192-.1,1.12-.128,1.328-.256,1.632-.384,1.632-.848,1.632H58.176c-.432,0-1.344-.048-1.808-.064-.1,0-.608-.048-.72-.048-.032,0-.064,0-.064.032,0,.016.016.032.08.112Zm24.992,0A1.055,1.055,0,0,0,82.016-6.08,1.055,1.055,0,0,0,80.96-7.136,1.055,1.055,0,0,0,79.9-6.08,1.055,1.055,0,0,0,80.96-5.024Zm18.08.032c-.272,0-.32-.032-.816-.336a1.71,1.71,0,0,0-.7-.288c-.032,0-.144,0-.144.08,0,.048.08.336.1.4a7.853,7.853,0,0,1,.064,1.264c0,.784-.064,2.928-.1,3.728,0,.1-.064.784-.064.848,0,.144,0,.448.384.448a.9.9,0,0,0,.928-.7c.064-.336.08-.4.448-.4h4.288c.08,0,.464,0,.464.368,0,.336.016.688.48.688.144,0,.928-.112.928-.864,0-.048-.016-.176-.032-.336C105.2-.752,105.2-1.9,105.2-2.688c0-1.344.016-1.392.192-1.5.224-.144.336-.24.336-.32,0-.128-.064-.192-.688-.656-.512-.384-.56-.416-.672-.416s-.128.032-.368.352a.517.517,0,0,1-.528.24Zm4.48.432c.176,0,.464,0,.464.5V-.88c0,.432-.192.5-.464.5H99.152c-.176,0-.464,0-.464-.5V-4.064c0-.432.208-.5.464-.5ZM92.976-13.216c-.048.064.032.16.1.24a5.763,5.763,0,0,1,.72.992c.512.88.608,1.024.976,1.024a.624.624,0,0,0,.608-.672C95.376-12.912,92.992-13.232,92.976-13.216Zm8.72.464c-.176,0-1.136-.112-1.168-.112-.016,0-.064,0-.064.032s0,.032.064.112l.32.368c.048.064.08.1.144.1a1.121,1.121,0,0,0,.224-.048c.192-.016.336-.032.512-.032h.736c.368,0,.384.064.48.752.448,3.344,2.016,5.52,2.384,5.52.1,0,.368-.368.448-.416a3.924,3.924,0,0,1,.96-.528c.064-.032.1-.048.1-.08,0-.016-.64-.32-.768-.4a5.9,5.9,0,0,1-2.592-4.352c0-.32.064-.32.528-.352s.608-.08.608-.272c0-.256-1.04-1.04-1.168-1.04-.1,0-.16.048-.528.544a.478.478,0,0,1-.48.208ZM91.488-9.824c-.016.064.144.16.176.192A5.907,5.907,0,0,1,92.8-8.352c.56.816.624.912.912.912.112,0,.512-.048.512-.72a1.393,1.393,0,0,0-.976-1.312,5.983,5.983,0,0,0-1.664-.4C91.536-9.872,91.488-9.856,91.488-9.824ZM98.7-12.768a2.733,2.733,0,0,1,.1.736,11.378,11.378,0,0,1-1.984,5.52c-.112.176-.768,1.056-.768,1.072,0,.032.048.064.1.064a2.792,2.792,0,0,0,.976-.688,12.113,12.113,0,0,0,2.928-5.408c.016-.064.032-.144.1-.176.448-.208.5-.24.5-.352,0-.176-.064-.192-.672-.416-.064-.016-1.2-.384-1.232-.384S98.7-12.784,98.7-12.768ZM91.7-3.344c1.472.544,1.712,1.68,1.744,2.88.032.976.048,1.632.752,1.632a.9.9,0,0,0,.816-.992,4.808,4.808,0,0,0-.288-1.344,4.665,4.665,0,0,1-.464-1.616,2.735,2.735,0,0,1,.176-.864c.256-.784,1.792-5.6,1.792-5.92,0-.016-.016-.08-.048-.08-.064,0-.112.1-.208.3a40.078,40.078,0,0,1-2.624,5.216c-.368.592-.432.7-1.552.7C91.648-3.424,91.664-3.36,91.7-3.344ZM120.672-4.48c.368,0,.592,0,.656.32.048.3.08.48.464.48a.752.752,0,0,0,.832-.7c0-.256-.048-1.52-.048-1.808,0-.192.016-.256.224-.368.144-.064.352-.176.352-.352s-.112-.24-.448-.464c-.736-.464-.816-.512-.912-.512-.08,0-.352.3-.432.352a.932.932,0,0,1-.64.128h-2.08c-.672,0-.672-.1-.672-1.04,0-.464.112-.464.48-.464h.336c.32,0,.384.016.432.288a.312.312,0,0,0,.336.3c.864,0,.864-.624.864-.816,0-.16-.064-.976-.064-1.168,0-.64.048-.72.656-.72h2.512c.528,0,.848,0,.848-.224A2.7,2.7,0,0,0,123.1-12.3c-.16,0-.192.048-.544.592-.176.272-.336.272-1.024.272h-.56c-.32,0-.608,0-.608-.432,0-.464,0-.512.08-.624.048-.048.288-.24.288-.3,0-.224-1.136-.432-1.424-.432-.064,0-.208,0-.208.1,0,.032.1.336.112.4a1.66,1.66,0,0,1,.08.736c0,.544-.192.56-.624.56h-2.48c-.352,0-.624,0-.624-.448a.939.939,0,0,1,.08-.4c.032-.064.368-.352.368-.448,0-.352-1.328-.56-1.488-.56-.144,0-.176.016-.176.144,0,.1.128,1.12.128,1.3,0,.416-.3.416-.656.416h-.656c-.5,0-1.1-.016-1.936-.064-.08,0-.48-.048-.576-.048-.032,0-.064,0-.064.032s.016.064.064.112l.32.368c.048.064.08.1.144.1.048,0,.272-.032.336-.032.016,0,.56-.048,1.632-.048h.72c.368,0,.656,0,.656.416,0,.24-.032,1.44-.032,1.712,0,.528.192.528.32.528.064,0,.608,0,.8-.336.112-.192.128-.208.416-.208h.432c.448,0,.448.1.448.976,0,.5-.176.528-.592.528H114.1a1.148,1.148,0,0,1-.72-.144c-.9-.56-.928-.576-1.056-.576a.134.134,0,0,0-.144.144,3.538,3.538,0,0,0,.08.4,9.223,9.223,0,0,1,.08,1.216c0,.32-.08,1.92-.08,2.288,0,.224.032.528.368.528.7,0,.784-.352.864-.672.064-.256.224-.256.656-.256h2.064c.352,0,.608,0,.608.368v.9c0,.624-.144.624-.736.624h-2.992c-.752,0-1.408,0-2.192-.048-.112,0-.608-.064-.72-.064a.042.042,0,0,0-.048.048c0,.016,0,.032.064.1l.32.368c.048.064.08.112.128.112a3.071,3.071,0,0,0,.352-.048c.144,0,.608-.032,2.016-.032h3.072c.5,0,.72,0,.72.48,0,.288-.048,1.712-.048,2.048,0,.224,0,.816.592.816a.741.741,0,0,0,.72-.8c0-.128-.08-1.76-.08-2.1,0-.448.224-.448.72-.448h5.136c.528,0,.848,0,.848-.224a2.416,2.416,0,0,0-1.152-1.024c-.176,0-.208.048-.544.544-.192.272-.336.272-1.024.272H118.7c-.528,0-.656,0-.72-.256a9.923,9.923,0,0,1-.032-1.184c0-.448.288-.448.7-.448Zm-6.592-.432c-.416,0-.608,0-.608-.56v-.944c0-.56.192-.56.608-.56h2.144c.272,0,.528,0,.592.272.032.112.032,1.072.032,1.264,0,.528-.24.528-.624.528Zm6.688-2.064c.656,0,.656.048.656.928,0,.928-.016.928-.128,1.04-.112.1-.192.1-.528.1H118.64c-.7,0-.7-.016-.7-.976,0-.784,0-.88.112-.992.112-.1.224-.1.592-.1Zm-2.1-4.048c.592,0,.592.112.592.832,0,.768,0,.864-.592.864h-2.464c-.64,0-.64-.1-.64-.848,0-.768,0-.848.64-.848Zm10.48,4.72a.158.158,0,0,0-.144.16c0,.192.832,1.056,1.136,1.056a6.743,6.743,0,0,0,1.984-.96,3.335,3.335,0,0,1,.672-.416c.1,0,.16.1.224.192a15.051,15.051,0,0,1,1.68,3.984,5.664,5.664,0,0,1,.176,1.92c0,.48.208.944.688.944.336,0,.72-.336.72-.96,0-1.408-1.68-4.56-2.64-6.112a.747.747,0,0,1-.176-.384c0-.112,0-.128.48-.432,2.528-1.616,3.36-2.144,4.688-2.144a1.924,1.924,0,0,1,2.032,1.936c0,1.344-1.344,1.776-2.176,1.776a4.264,4.264,0,0,1-1.568-.352c-.1-.032-.64-.224-.672-.224-.048,0-.1.016-.1.064a4.033,4.033,0,0,0,2.976,1.5,2.523,2.523,0,0,0,2.768-2.48,3.083,3.083,0,0,0-3.072-2.88,6.444,6.444,0,0,0-1.552.24c-.08.016-.4.144-.48.144-.1,0-.112-.1-.112-.144,0-.08.08-.384.08-.464a1.874,1.874,0,0,0-1.152-1.536.109.109,0,0,0-.112.112c0,.08.112.48.112.56a.393.393,0,0,1-.448.432,4.146,4.146,0,0,1-.592-.048,10.377,10.377,0,0,0-1.488-.112c-1.5,0-2.352.56-2.352,1.072,0,.336.128.5,1.2,1.952a1.382,1.382,0,0,1,.256.512,4.374,4.374,0,0,1-2.528,1.12C129.456-6.272,129.216-6.3,129.152-6.3Zm3.808-4.208a12.243,12.243,0,0,1,2.224.864c.448.192.5.224.5.288,0,.08-.064.144-.224.224a23.656,23.656,0,0,0-2.112,1.2.959.959,0,0,1-.384.192c-.128,0-.144-.048-.432-.48-.656-1.024-.72-1.136-.72-1.456A.882.882,0,0,1,132.96-10.512ZM6.368,25.392c.128.96-1.392,3.168-2.688,4.464a13.57,13.57,0,0,0-1.264,1.2c0,.048.032.1.112.1A4.889,4.889,0,0,0,4.064,30.3a12.028,12.028,0,0,0,2.176-2.08c.672-.768.7-.8,1.008-.8.1,0,.528.048.624.048.384,0,2.592-.5,2.624-.5a.173.173,0,0,1,.176.176c0,.5-3.04,5.952-7.92,8.64-.5.272-.544.3-.544.368a.143.143,0,0,0,.144.144,10.945,10.945,0,0,0,3.184-1.536,19.565,19.565,0,0,0,5.728-6.016c.56-.864.624-.96.8-1.072.528-.32.64-.384.64-.608a.58.58,0,0,0-.3-.4c-.08-.048-.5-.272-.592-.32-.656-.384-.736-.432-.88-.432a2.989,2.989,0,0,0-.752.256,9.056,9.056,0,0,1-2.432.64c-.064,0-.256,0-.256-.128,0-.08.048-.144.128-.256.32-.4.48-.608.48-.8a1.5,1.5,0,0,0-1.488-.9c-.128,0-.352,0-.352.16C6.256,24.96,6.352,25.312,6.368,25.392Zm6.112-2.7c-.16,0-.576.1-.576.224,0,.048.048.128.208.176a3.752,3.752,0,0,1,1.472.784c.352.368.512.528.848.528a.433.433,0,0,0,.4-.464c0-.16,0-.528-.656-.912A2.952,2.952,0,0,0,12.48,22.688Zm-1.1,1.376c-.144,0-.272.08-.272.144s.16.176.24.224a5.053,5.053,0,0,1,1.136.944c.5.592.624.688.848.688.272,0,.464-.352.464-.624C13.792,25.248,13.424,24.064,11.376,24.064Zm13.072,3.744c0-.816-1.7-1.36-1.808-1.36-.064,0-.08.032-.08.08a1.187,1.187,0,0,0,.064.288,3.509,3.509,0,0,1,.272,1.376A8.474,8.474,0,0,1,20.96,32.88a4.531,4.531,0,0,0-.64.848.075.075,0,0,0,.08.08,5.571,5.571,0,0,0,2.96-3.04C23.632,30.16,24.448,27.856,24.448,27.808Zm2.816,5.76c.112-.016.256-.128.528-.432a8.89,8.89,0,0,1,1.1-1.024c2.8-2.464,3.728-4.448,3.728-4.576a.069.069,0,0,0-.064-.064c-.064,0-1.424,1.44-1.7,1.712-1.536,1.552-3.008,2.608-3.488,2.608-.288,0-.3-.32-.3-.528,0-.528.064-2.464.128-2.9.032-.176.256-1.008.256-1.2,0-.832-1.68-1.12-1.76-1.12-.032,0-.1.016-.1.08a4.159,4.159,0,0,0,.208.576,9.81,9.81,0,0,1,.3,3.008c0,.4-.016,1.664-.064,1.968-.016.08-.1.5-.1.576C25.952,32.7,26.8,33.648,27.264,33.568Zm13.584-4.016a8.713,8.713,0,0,1-1.952-.144c-.08-.016-.464-.192-.544-.192s-.128.1-.128.192c0,.544.736,1.536,1.424,1.536.192,0,1.056-.256,1.248-.288.384-.08,4.048-.288,6.256-.288.32,0,1.92.032,2.288.032.672,0,1.328-.048,1.328-.5,0-.112-.144-.7-1.12-.7-.08,0-.256.016-.352.016C46.96,29.344,41.376,29.552,40.848,29.552ZM68.7,23.52a1.52,1.52,0,0,0-1.568,1.52,1.544,1.544,0,1,0,3.088,0A1.489,1.489,0,0,0,68.7,23.52Zm-.032.544A1.07,1.07,0,0,1,69.7,25.072a1.017,1.017,0,0,1-2.032.016A1.029,1.029,0,0,1,68.672,24.064ZM57.136,26.016c-.1,0-.144.048-.144.352,0,.88,1.28,1.68,1.648,1.68a5.8,5.8,0,0,0,.8-.352,52.5,52.5,0,0,1,5.76-1.152c.08,0,.352.016.352.288a9.04,9.04,0,0,1-1.088,2.7,20.824,20.824,0,0,1-6.32,6.336c-.16.112-.208.144-.208.208a.106.106,0,0,0,.112.1A16.282,16.282,0,0,0,66.3,28.72a2.648,2.648,0,0,1,.624-1.008c.288-.288.368-.368.368-.576,0-.224-.1-.4-.816-1.04-.5-.432-.752-.656-1.1-.656-.112,0-.176.032-.672.256a41.425,41.425,0,0,1-6.032.752,3.769,3.769,0,0,1-1.328-.336C57.312,26.112,57.168,26.016,57.136,26.016ZM73.68,29.728a15.866,15.866,0,0,0,7.008-5.136c.128-.16.384-.48.448-.48s.1.048.272.384a15.044,15.044,0,0,0,5.568,5.648c.1,0,.144-.048.208-.16a1.876,1.876,0,0,1,1.024-.656c.4-.128.448-.144.448-.24,0-.08,0-.08-.448-.208-3.792-1.072-6.624-4.624-6.624-5.12,0-.064.016-.112.112-.16.16-.112.192-.128.192-.208,0-.272-1.488-.976-1.5-.976-.192,0-.192.064-.32.56-.08.352-1.088,2.256-3.824,4.592-1.04.88-2.352,1.808-2.464,1.888-.192.128-.24.16-.24.224C73.536,29.76,73.632,29.744,73.68,29.728Zm5.264,2.144c.272,0,.48,0,.48.272a11.194,11.194,0,0,1-.832,2.112c-.656,1.312-.768,1.312-1.664,1.312a8.48,8.48,0,0,1-.944-.064c-.1-.016-.592-.112-.7-.112-.048,0-.128,0-.128.112a12.641,12.641,0,0,0,.88,1.7.182.182,0,0,0,.16.112,3.345,3.345,0,0,0,.464-.256,70.042,70.042,0,0,1,7.424-1.472c.224,0,.368.048.672.592.288.528.624,1.12,1.088,1.12.3,0,.624-.352.624-.864,0-1.008-.992-1.584-1.424-1.84a14.882,14.882,0,0,0-2.032-.992c-.048,0-.112.016-.112.1,0,.192.944,1.008.944,1.248,0,.16-.128.176-1.28.288-1.776.176-3.28.272-3.488.272-.064,0-.288-.016-.288-.16s.16-.3.224-.384c.1-.1.752-.88,1.088-1.328.4-.528.432-.576.56-.624.48-.128.48-.128.48-.272,0-.176-.752-.816-.752-.816,0-.048.064-.048.224-.048h4.9c.752,0,.832,0,.832-.208,0-.144,0-.16-.816-.832-.368-.3-.416-.336-.544-.336-.144,0-.208.1-.448.432-.384.528-.56.528-1.232.528h-5.28c-.56,0-1.408-.032-2.192-.064-.1,0-.592-.048-.7-.048-.032,0-.064,0-.064.032,0,.016.048.064.08.112l.3.368c.064.064.08.1.144.1.048,0,.288-.032.336-.032.432-.032.832-.048,2.016-.048ZM79.68,28.9c-.64,0-1.408-.016-2.192-.064-.1,0-.592-.048-.7-.048-.032,0-.048.016-.048.032,0,.032,0,.048.064.112l.3.368c.064.064.1.1.144.1s.288-.032.336-.032c.592-.048,1.056-.048,2.032-.048H83.3c.768,0,.848,0,.848-.176a4.339,4.339,0,0,0-1.216-1.2c-.08,0-.272.24-.528.544-.32.384-.352.416-1.136.416Zm17.792,7.68c.064.08.1.112.144.112s.288-.048.336-.048c.56-.048,1.632-.032,2.016-.032h5.68c.528,0,.864,0,.864-.224,0-.272-1.408-1.312-1.552-1.312-.192,0-.24.064-.672.624a.994.994,0,0,1-.944.48h-.592c-.416,0-.416-.288-.416-.88,0-1.072-.048-5.76-.048-6.72,0-.288.032-.528.464-.528h2.224c.512,0,.848,0,.848-.208,0-.3-1.12-1.344-1.344-1.344-.144,0-.192.064-.656.688-.336.448-.416.448-1.168.448-.384,0-.384-.3-.384-.5,0-.432.048-3.088.144-3.312.032-.08.352-.352.352-.432,0-.272-.336-.352-.48-.4-.112-.032-1.1-.336-1.152-.336-.1,0-.128.032-.128.112,0,.128.1.688.1.816.08,1.2.112,1.92.112,3.392,0,.448-.032.656-.416.656-.544,0-1.84-.064-2-.064-.08,0-.656-.048-.672-.048s-.048,0-.048.032,0,.032.064.112l.3.368c.064.064.1.1.144.1.064,0,.288-.032.336-.032.56-.048,1.488-.048,1.888-.048.384,0,.384.336.384.5,0,.832-.032,6.992-.064,7.28-.032.352-.32.352-.464.352h-.624c-.9,0-1.728-.032-2.192-.048-.112,0-.608-.064-.7-.064a.051.051,0,0,0-.048.048c0,.016,0,.016.064.1ZM92.24,26.784c.048.064.08.1.144.1.048,0,.288-.032.336-.032.56-.032,1.232-.048,1.856-.048H95.7c.144,0,.256.016.256.16,0,.464-2.256,3.264-2.9,3.92A16.1,16.1,0,0,0,91.664,32.3c0,.048.048.048.08.048.416,0,2.5-1.808,2.656-1.808s.16.272.16.448c0,1.888-.064,3.552-.1,4.736,0,.176-.064.912-.064,1.072,0,.224.1.384.48.384a.763.763,0,0,0,.848-.736c0-.224-.08-1.216-.08-1.424,0-.656-.016-3.616-.016-4.224,0-.192,0-.416.144-.416.3,0,.832.816.928.992.416.848.592,1.168.976,1.168.288,0,.56-.24.56-.736,0-1.216-1.5-1.648-2.048-1.776-.384-.08-.528-.112-.528-.448,0-.288.048-.336.512-.816a18.418,18.418,0,0,1,1.488-1.6c.048-.016.272-.064.32-.08a.241.241,0,0,0,.176-.208c0-.1-.032-.128-.384-.464-.048-.032-.384-.432-.576-.624a.3.3,0,0,0-.224-.112c-.144,0-.608.48-.72.544a.57.57,0,0,1-.384.112c-.16,0-.256-.032-.256-.256V24.736c0-.672,0-.752.08-.9.032-.064.32-.3.32-.368,0-.112-.1-.176-.176-.224a12.3,12.3,0,0,0-1.44-.432c-.016,0-.064,0-.064.032,0,.1.08.464.08.544.048.608.064,1.552.064,1.792,0,1.072,0,1.184-.448,1.184-.336,0-1.808-.1-2.112-.1-.016,0-.064,0-.064.032,0,.016.016.032.08.112Zm20.944,4.608a12.475,12.475,0,0,1,1.232-4.128c.3-.544.3-.56.3-.736,0-.576-.672-2.032-1.408-2.032-.064,0-.128.032-.128.08a2.026,2.026,0,0,0,.1.288A3.919,3.919,0,0,1,113.44,26a5.433,5.433,0,0,1-.272,1.664,11.5,11.5,0,0,0-.672,3.488c0,1.536.736,4.256,1.728,4.256a.536.536,0,0,0,.528-.544,1.725,1.725,0,0,0-.192-.7,2.853,2.853,0,0,1-.256-.832c0-.384.368-2.256.368-2.432,0-.032,0-.192-.08-.192s-.128.128-.224.4c-.352.992-.5,1.248-.768,1.248C113.344,32.352,113.184,31.872,113.184,31.392Zm8.288-5.92c-.16-.016-.208,0-.688.176a6.462,6.462,0,0,1-1.76.24,5.467,5.467,0,0,1-1.088-.1c-.208-.048-.4-.112-.448-.112-.1,0-.112.048-.112.08,0,.208.992,1.184,2.8,1.184.192,0,1.968,0,1.968-.784A.8.8,0,0,0,121.472,25.472Zm.688,7.936c-.064,0-1.184.112-1.408.128a13.335,13.335,0,0,1-1.392.048,3.938,3.938,0,0,1-1.712-.272,2.387,2.387,0,0,0-.384-.224c-.08,0-.08.128-.08.16,0,.3.416.72.5.8a3.268,3.268,0,0,0,2.5.72c2.24,0,2.72-.192,2.72-.816C122.9,33.76,122.768,33.408,122.16,33.408Zm8.848-3.9c.432,0,.672-.1,1.472-.656,1.392-.96,3.68-2.176,5.2-2.176a2.6,2.6,0,0,1,2.592,2.672c0,1.424-.96,4.24-4.912,4.8-.592.08-.656.08-.656.208,0,.208.24.208.384.208,3.44,0,6.432-1.728,6.416-4.64a3.99,3.99,0,0,0-4.08-3.952,14.619,14.619,0,0,0-4.48,1.2c-1.968.8-2.176.9-2.576.9-.144,0-.816-.192-.976-.192a.224.224,0,0,0-.24.256A2.021,2.021,0,0,0,131.008,29.5Zm17.9-4.016c-.032,0-.1.016-.1.064a2.161,2.161,0,0,0,.128.544,4.445,4.445,0,0,1,.112.928c0,.416-.224,2.384-.224,2.832,0,3.056,2.016,4.736,3.04,4.736.272,0,.608-.176.608-.5a4.015,4.015,0,0,0-.128-.528,2.159,2.159,0,0,1-.1-.64,4.489,4.489,0,0,1,.208-1.216,1.921,1.921,0,0,0,.048-.32c0-.064-.032-.128-.08-.128-.128,0-.4.384-.5.544-.48.8-.544.88-.816.88-.5,0-1.328-1.168-1.328-2.784a5.651,5.651,0,0,1,.384-2.064,2.192,2.192,0,0,0,.192-.64C150.368,26.768,149.648,25.488,148.912,25.488Zm7.632,1.472c-.08,0-.144.032-.144.08,0,.1.64.592.768.72.848.848.848,1.52.848,2.848,0,.208,0,1.072.784,1.072.768,0,.8-.752.8-1.056a3.982,3.982,0,0,0-1.424-3.056A3.114,3.114,0,0,0,156.544,26.96Zm9.92-.432c-.192.224.56,1.3,1.36,1.3a1.157,1.157,0,0,0,.56-.208,20.959,20.959,0,0,1,4.752-1.712c.032,0,.1,0,.1.032a2.868,2.868,0,0,1-.384.336c-2.32,2.064-2.336,5.456-2.336,6.16a3.013,3.013,0,0,0,3.28,3.424c.1,0,1.856,0,1.856-.848,0-.384-.3-.592-.8-.592-.128,0-1.28.1-1.52.1-.944,0-1.952-.176-1.952-2.864,0-4.128,2.272-6,4.3-6,.192,0,1.1.176,1.312.176a.635.635,0,0,0,.64-.592c0-.544-.72-.768-1.28-.768a42.885,42.885,0,0,0-6.144,1.44,10.3,10.3,0,0,1-3.12.688C167.008,26.592,166.528,26.448,166.464,26.528Zm27.376,7.04c.288-.144,1.12.528,1.584,1.088.384.48.432.544.624.544a.629.629,0,0,0,.576-.64c0-.944-1.68-1.7-2.464-2.032-.4-.176-.448-.288-.512-.88-.048-.432-.16-2.24-.16-2.592,0-.688,0-.7.592-.96s1.664-.72,1.664-1.472c0-.672-.528-.688-1.232-.72-.1,0-.928-.032-.928-.512a.694.694,0,0,1,.1-.336c.16-.256.176-.288.176-.4,0-.608-1.072-.832-1.392-.832-.336,0-.544.176-.544.272,0,.112.432.464.5.544.3.368.3.816.3,1.824,0,1.056,0,1.056-.88,1.056a4.788,4.788,0,0,1-1.792-.32,2.782,2.782,0,0,0-.432-.224c-.064,0-.08.064-.08.112a2.272,2.272,0,0,0,2.368,1.424,5.307,5.307,0,0,1,.736.032.532.532,0,0,1,.128.384c.016.448.064,2.144.064,2.24,0,.992,0,1.1-.4,1.1-3.28.048-3.28,1.744-3.28,1.968a1.812,1.812,0,0,0,2,1.6,2.638,2.638,0,0,0,2.384-1.52C193.584,34.208,193.728,33.616,193.84,33.568Zm-.224-7.408a.341.341,0,0,1,.192-.064c.224,0,.752.208.752.5,0,.368-.608.56-.832.56-.112,0-.24,0-.24-.608A.485.485,0,0,1,193.616,26.16Zm-2.1,6.944c1.024,0,1.248.128,1.248.4,0,.544-.976,1.312-1.92,1.312-.56,0-1.056-.272-1.056-.7C189.792,33.648,190.608,33.1,191.52,33.1Zm-4.56.592c0-.464.448-2.768.448-3.28,0-.032,0-.144-.064-.144a8.061,8.061,0,0,0-.656,1.6c-.288.88-.3.944-.448.944-.384,0-.384-1.024-.384-1.12a10.691,10.691,0,0,1,.576-3.216c.128-.4.832-2.368.832-2.5,0-.288-.8-1.888-1.7-1.888-.1,0-.288.032-.288.128a3.214,3.214,0,0,0,.3.56,2.265,2.265,0,0,1,.368,1.328,10.778,10.778,0,0,1-.48,2.544,12.22,12.22,0,0,0-.416,3.136c0,2.48.8,4.08,1.6,4.08.368,0,.528-.3.528-.656C187.184,34.992,186.96,33.936,186.96,33.7ZM206.3,24.64a5.089,5.089,0,0,0-.528-.16c-.032,0-.08,0-.08.048,0,.16.736,1.168,2.816,1.552.464.08.512.1.512.192,0,.192-.88.944-.88,1.088,0,.032.032.032.048.032.064,0,.064.016.224-.08a4.4,4.4,0,0,1,2.016-.768c1.1-.08,1.248-.08,1.248-.368a1.681,1.681,0,0,0-1.568-1.28c-.176,0-1.072.032-1.264.032A9.591,9.591,0,0,1,206.3,24.64Zm1.52,9.2c-1.136,0-2.624-.48-3.072-1.6-.032-.08-.144-.592-.256-.592-.032,0-.208.176-.208.784,0,2.512,3.376,2.8,4.96,2.8.88,0,3.6-.08,3.6-.944a.993.993,0,0,0-1.056-.752c-.08,0-2.512.336-2.992.336C208.64,33.872,207.936,33.84,207.824,33.84Zm17.584-10.72c-.08,0-.48.064-.48.192,0,.048.048.1.176.24a1.793,1.793,0,0,1,.352,1.072,4.765,4.765,0,0,1-.32,1.472c-.064.1-.128.128-.32.128a4.764,4.764,0,0,1-1.9-.32,6.248,6.248,0,0,0-.56-.288c-.048,0-.08.064-.08.112,0,.08.24,1.248,2.272,1.488.272.032.3.032.3.16,0,.448-.832,3.936-.832,4.688,0,.144.128,1.536.784,1.536.336,0,.352-.1.608-.912a3.448,3.448,0,0,1,2.976-1.824,1.8,1.8,0,0,1,1.792,2.064c0,1.056-.56,2.384-3.744,3.312a3.607,3.607,0,0,0-.752.272c0,.08.192.08.24.08a9.61,9.61,0,0,0,1.28-.112c1.28-.208,4.192-.848,4.192-3.552a2.7,2.7,0,0,0-2.736-2.832,5.12,5.12,0,0,0-2.992,1.024.76.76,0,0,1-.336.176c-.192,0-.192-.528-.192-.736a11.7,11.7,0,0,1,.464-2.944c.048-.208.08-.288.4-.336,1.056-.176,2.528-.592,2.528-1.5,0-.432-.32-.512-.992-.672a1.6,1.6,0,0,1-1.04-.88A1.4,1.4,0,0,0,225.408,23.12Zm1.1,1.712c.1,0,.752.512.752.816,0,.32-.848.56-1.088.56-.064,0-.16-.016-.16-.112C226.016,26.064,226.3,24.832,226.512,24.832ZM244.3,23.408c-.048.048,0,.144.032.208a1.178,1.178,0,0,1,.272.72c0,.464-.384.624-1.28.992a1.967,1.967,0,0,0-1.456,1.92c-.048.592-.432,3.536-.432,4.208,0,1.232.544,2,1.216,2,.544,0,.72-.272,1.456-1.312a2.43,2.43,0,0,1,2.08-1.2,1.669,1.669,0,0,1,1.776,1.776c0,1.5-1.5,2.768-3.5,3.216-.112.032-.464.112-.464.192,0,.128.224.128.432.128,2.32,0,4.864-1.3,4.864-3.248a2.734,2.734,0,0,0-2.928-2.512,4.372,4.372,0,0,0-2.608,1.024,2.354,2.354,0,0,1-.928.384c-.4,0-.416-.5-.416-.736,0-.4.128-1.76.208-2.352.032-.224.192-1.168.192-1.312s-.112-.832-.112-.976a1.066,1.066,0,0,1,1.136-1.056,2.19,2.19,0,0,1,.752.16,2.9,2.9,0,0,0,.944.272.787.787,0,0,0,.816-.768C246.352,24.24,244.416,23.312,244.3,23.408Zm14.592,5.9c.32,0,1.808-.64,2.16-.64.1,0,.112.08.112.128a4.3,4.3,0,0,1-.224.752,9.374,9.374,0,0,1-1.968,3.616c-.96,1.056-1.072,1.184-1.072,1.52a.47.47,0,0,0,.512.512c1.3,0,2.848-3.936,3.488-6.112.16-.544.176-.608.24-.688a3.478,3.478,0,0,1,1.536-.384c.464,0,1.1.08,1.1,1.2a12.721,12.721,0,0,1-.5,2.784c-.464,1.728-1.056,1.952-1.52,1.952a5.071,5.071,0,0,1-.816-.112,2.919,2.919,0,0,0-.4-.112.076.076,0,0,0-.08.08c0,.032.176.448.208.528.176.512.336,1.1.944,1.1a2.481,2.481,0,0,0,1.632-.976c.928-1.12,1.376-3.872,1.376-5.136A1.89,1.89,0,0,0,263.5,27.28c-.128,0-.864.08-.944.08-.112,0-.176-.048-.176-.144,0-.3.608-2.336.608-2.368,0-.416-.624-1.024-1.7-1.024-.064,0-.256.016-.256.128,0,.048.032.08.272.368a2.025,2.025,0,0,1,.4,1.36c0,.08-.016,1.7-.288,1.888a26.757,26.757,0,0,1-2.688.48c-.176,0-1.008-.224-1.056-.224a.141.141,0,0,0-.144.128C257.536,28.3,258.272,29.312,258.9,29.312Zm10.72.656a2.934,2.934,0,0,0-2.8-2.832c-.048,0-.112,0-.112.1,0,.064.256.176.384.24a2.057,2.057,0,0,1,1.3,1.84c0,.432-.064.48-.656.928-.1.08-.624.352-.624.448,0,.048.432.08.512.112.192.048.928.48,1.088.48C269.376,31.28,269.616,30.16,269.616,29.968Zm11.168-6.56c-.048.048,0,.144.032.208a1.178,1.178,0,0,1,.272.72c0,.464-.384.624-1.28.992a1.967,1.967,0,0,0-1.456,1.92c-.048.592-.432,3.536-.432,4.208,0,1.232.544,2,1.216,2,.544,0,.72-.272,1.456-1.312a2.43,2.43,0,0,1,2.08-1.2,1.669,1.669,0,0,1,1.776,1.776c0,1.5-1.5,2.768-3.5,3.216-.112.032-.464.112-.464.192,0,.128.224.128.432.128,2.32,0,4.864-1.3,4.864-3.248a2.734,2.734,0,0,0-2.928-2.512,4.371,4.371,0,0,0-2.608,1.024,2.354,2.354,0,0,1-.928.384c-.4,0-.416-.5-.416-.736,0-.4.128-1.76.208-2.352.032-.224.192-1.168.192-1.312s-.112-.832-.112-.976a1.066,1.066,0,0,1,1.136-1.056,2.19,2.19,0,0,1,.752.16,2.9,2.9,0,0,0,.944.272.787.787,0,0,0,.816-.768C282.832,24.24,280.9,23.312,280.784,23.408Z" transform="translate(-0.528 13.504)" fill="#fff"/>
</svg>
