<svg xmlns="http://www.w3.org/2000/svg" width="289.856" height="40.9" viewBox="0 0 289.856 40.9">
  <path id="パス_130453" data-name="パス 130453" d="M35.04-10.62C31.5-5.16,27.9-1.26,22.14-1.26c-7.62,0-11.82-6.6-11.82-15.24,0-11.22,7.14-21.18,17.34-21.18,5.7,0,8.82,2.04,9.3,9.24l1.86-.18c.24-3,.36-6.3.48-9.36A29.479,29.479,0,0,0,28.98-39.9C15.12-39.9,3.9-30.66,3.9-16.32,3.9-5.16,11.46.9,21.54.9A43.235,43.235,0,0,0,31.92-.6a73.151,73.151,0,0,0,4.74-9.18ZM65.7-39.9c-12.6,0-21.9,11.22-21.9,23.76C43.8-5.94,50.34.9,59.82.9,72.66.9,81.78-9.9,81.78-22.68,81.78-32.76,75.36-39.9,65.7-39.9Zm-.42,2.16c7.44,0,10.2,6.36,10.2,14.28,0,9.96-5.58,22.2-15.18,22.2-7.08,0-10.26-6.18-10.26-14.16C50.04-26.1,56.22-37.74,65.28-37.74Zm72.24-1.2H127.44L109.26-9.66c-2.34-10.44-4.32-19.68-6.3-29.28H92.58l-.48,1.68c5.58.48,5.94,1.02,4.2,6.84L92.82-18.48C90.66-11.22,89.58-7.8,88.62-5.4,87.6-2.82,86.4-1.98,83.04-1.68L82.62,0H96.18l.36-1.68c-4.32-.42-4.92-1.14-4.5-3.78A111.038,111.038,0,0,1,94.8-16.92l4.32-15.6h.18c2.16,11.46,4.08,21.6,5.94,32.28h1.44l19.5-32.82h.18c-1.26,8.28-2.58,16.08-3.9,24.9-.9,5.7-1.2,6-5.7,6.48L116.34,0h15.54l.36-1.68c-4.74-.48-5.1-.66-4.38-6.48,1.02-7.86,1.92-14.88,3.24-23.58.72-4.86.9-5.1,6-5.52Zm7.14,0-.42,1.68c4.74.48,5.04.84,4.14,5.58L143.58-7.5c-1.02,5.04-1.44,5.34-6,5.82L137.16,0h16.38l.36-1.68c-5.46-.48-5.88-.84-4.92-5.82l1.8-9.42,4.08,1.26c.66,0,1.44,0,2.22-.06,6.78-.48,14.34-4.62,14.34-13.08,0-6.84-4.62-10.14-12.9-10.14Zm9.3,5.34c.36-1.92.78-2.58,1.44-2.88a5.7,5.7,0,0,1,2.52-.48c4.92,0,7.62,2.88,7.62,7.86,0,7.68-5.64,10.98-10.08,10.98a11.578,11.578,0,0,1-4.26-.78Zm51,31.92c-4.2-.48-4.56-.96-5.34-5.46-1.32-7.32-2.64-14.94-3.9-22.74l-1.56-9.96-2.1.54L174.18-7.68c-2.88,5.16-3.54,5.46-7.2,6L166.5,0h13.02l.42-1.68c-4.62-.42-4.98-.9-3.3-4.32,1.26-2.7,2.94-5.94,4.02-7.92h12.36c.54,3.3,1.02,6.06,1.38,8.52.36,2.64.12,3.3-3.96,3.72L189.96,0h14.58ZM192.6-16.56H181.98c2.58-4.98,5.34-9.84,8.16-15.12h.12Zm62.16-22.38H241.14l-.48,1.68c4.38.24,5.46.9,5.22,3.72a92.808,92.808,0,0,1-1.56,10.26l-2.7,14.34h-.18l-17.34-30h-9.06l-.42,1.68c3.18.18,4.32.54,5.04,1.8.72,1.32.96,2.28.3,5.58l-3,14.28c-1.2,5.58-1.86,8.28-2.52,10.32-.78,2.64-2.16,3.42-5.28,3.6L208.74,0h13.92l.36-1.68c-4.2-.3-5.28-.96-5.1-3.72a77.323,77.323,0,0,1,1.5-10.08l3.06-15.6h.18L240.3.48h2.04l4.5-23.76a101.872,101.872,0,0,1,2.34-10.2c.78-2.64,1.56-3.6,5.22-3.78Zm38.88,0H280.62l-.48,1.68,1.74.24c2.28.36,2.64.84,1.38,2.94-2.34,3.96-6.54,9.96-9.36,13.92-1.68-4.2-4.08-10.86-5.28-14.22-.54-1.8-.42-2.28,1.56-2.58l2.04-.3.42-1.68H258.42l-.48,1.68c3.78.42,4.2.72,5.58,4.38,2.34,6.18,3.78,10.14,5.1,13.8a5.432,5.432,0,0,1,.3,3.6l-1.56,7.92c-1.02,5.16-1.44,5.52-6.36,5.88L260.58,0h16.56l.42-1.68c-5.34-.48-5.82-.78-4.8-5.88l1.68-8.28a8.907,8.907,0,0,1,1.5-3.48c3.9-5.58,7.02-10.02,9.66-13.32,3.06-3.84,3.78-4.2,7.56-4.62Z" transform="translate(-3.85 39.95)" fill="#fff" stroke="#fff" stroke-width="0.1"/>
</svg>
