<svg xmlns="http://www.w3.org/2000/svg" width="171.584" height="66.334" viewBox="0 0 171.584 66.334">
  <path id="パス_130448" data-name="パス 130448" d="M8.19-3.878c-.1,0-.336,0-.406-.168a3.778,3.778,0,0,1-.028-.882c0-1.008,0-1.12.252-1.274.126-.084.28-.2.28-.378,0-.112-.056-.182-.238-.238a8.449,8.449,0,0,0-1.5-.322c-.07,0-.182.014-.182.1a3.645,3.645,0,0,0,.224.476,7.931,7.931,0,0,1,.14,2.3c0,.392-.042,3.668-.07,3.766a.343.343,0,0,1-.378.266h-1.4c-.112,0-.336,0-.42-.168a10.887,10.887,0,0,1-.042-1.218c0-.322,0-1.82.042-2.016a.4.4,0,0,1,.182-.266c.182-.14.266-.2.266-.336,0-.322-1.442-.546-1.47-.546a.144.144,0,0,0-.168.154c0,.1.14.56.154.658.014.308.028,1.82.028,2.184,0,1.4,0,1.554-.42,1.554-.14,0-1.162-.028-1.484-.042C1.47-.294,1.022-.336.924-.336c-.042,0-.056.014-.056.028a.178.178,0,0,0,.056.1L1.2.112c.042.056.07.084.112.084s.252-.028.308-.028C2.114.126,3.066.126,3.388.126h9c.462,0,.756,0,.756-.182a3.732,3.732,0,0,0-1.218-1.008c-.154,0-.63.616-.756.728s-.182.1-.756.1H8.2c-.126,0-.322,0-.406-.168-.028-.07-.028-.826-.028-1.246,0-.2-.028-1.162-.028-1.386,0-.322.07-.476.448-.476h2.52c.658,0,.742,0,.742-.182a2.774,2.774,0,0,0-1.12-.994c-.126,0-.168.056-.434.518-.182.294-.294.294-.868.294ZM7.112-10.472c.126,0,.238.168.28.252a11.087,11.087,0,0,0,4.942,4.858.234.234,0,0,0,.182-.1,2,2,0,0,1,.77-.672,4.532,4.532,0,0,0,.518-.252c0-.028-.238-.084-.308-.1A9.881,9.881,0,0,1,9.772-8.274,9.349,9.349,0,0,1,7.6-10.612c0-.056.126-.294.126-.35,0-.14-.126-.238-.392-.35A5.207,5.207,0,0,0,6.272-11.7c-.1,0-.14.028-.182.294-.07.574-2.1,3.766-5.068,5.978C.98-5.4.462-5.012.462-5a.06.06,0,0,0,.056.056,15.457,15.457,0,0,0,6.118-5.04C6.93-10.416,6.972-10.472,7.112-10.472ZM28.49-2.8c.462,0,.742,0,.742-.2,0-.238-1.064-.924-1.2-.924-.168,0-.644.644-.77.7a2.678,2.678,0,0,1-.686.042H23.73c-.336,0-.336-.182-.336-.35,0-.644,0-.756.35-.756H26.81c.448,0,.7,0,.7-.224s-.84-.91-1.078-.91c-.154,0-.2.056-.6.532-.2.224-.266.224-.882.224H23.786c-.392,0-.392-.2-.392-.56,0-.546,0-.714.42-.714H27.72c.644,0,.714,0,.714-.182,0-.224-1.008-.924-1.064-.924-.14,0-.532.546-.63.63s-.182.1-.756.1h-1.26c-.1,0-.266,0-.266-.126,0-.182.616-.742.938-.924.2-.1.252-.14.252-.238,0-.14-.056-.168-.518-.434-.28-.168-.308-.182-.308-.238s.1-.07.154-.07h3.206c.476,0,.756,0,.756-.2a3.713,3.713,0,0,0-1.2-.9c-.126,0-.532.532-.63.6-.14.112-.28.126-.812.126h-.686c-.056,0-.168-.014-.168-.084a6.377,6.377,0,0,1,1.2-.882,6.182,6.182,0,0,1,.574-.364c.294-.112.322-.112.322-.21,0-.266-1.036-.826-1.064-.826-.07,0-.084.028-.238.392-.224.518-1.232,1.974-1.484,1.974-.126,0-.14-.112-.14-.21-.014-.714-.028-.784-.028-1.582a.581.581,0,0,1,.154-.49c.126-.168.154-.2.154-.252,0-.126-.14-.224-.224-.252a5.788,5.788,0,0,0-.966-.252c-.1,0-.14.084-.14.2a2.325,2.325,0,0,0,.042.308c.014.252.042.952.042,1.33,0,1.092,0,1.2-.406,1.2h-.5c-.392,0-.42,0-.42-1.876,0-.308.028-.42.126-.532a.5.5,0,0,0,.14-.224c0-.308-1.134-.392-1.162-.392-.084,0-.14,0-.14.168,0,.14.084.728.1.854.014.378.028,1.372.028,1.624,0,.126,0,.378-.308.378h-.42c-.042,0-.154,0-.154-.112a.294.294,0,0,1,.07-.2.734.734,0,0,0,.1-.35c0-.91-1.512-1.316-1.862-1.316-.084,0-.14.056-.14.1,0,0,.49.476.574.574a3.682,3.682,0,0,1,.56,1.134c0,.168-.084.168-.294.168-.8,0-1.526-.042-1.932-.056-.1,0-.518-.042-.616-.042-.014,0-.042,0-.042.028s0,.028.056.1l.28.322c.042.056.07.084.112.084S17.64-8.3,17.7-8.3c.266-.028,1.2-.042,1.764-.042h.35c.266,0,.448.028.728.49a5.956,5.956,0,0,1,.574,1.428c0,.112-.084.112-.154.112H20.44c-.784,0-1.512-.028-1.918-.042-.1,0-.532-.056-.616-.056a.045.045,0,0,0-.042.042c0,.014,0,.014.056.084l.266.322c.056.07.084.1.126.1s.252-.028.294-.028c.49-.042,1.442-.042,1.778-.042h1.694c.364,0,.364.294.364.588,0,.518,0,.686-.406.686h-.882c-.63,0-1.526-.028-1.918-.042-.1,0-.532-.056-.616-.056-.028,0-.056.014-.056.042s0,.014.056.084l.28.336c.056.056.07.084.126.084s.336-.042.378-.042c.308-.028,1.162-.028,1.68-.028h1.008c.336,0,.35.168.35.322,0,.658,0,.784-.294.784H19.4c-.588,0-1.526-.028-1.932-.042-.1,0-.518-.056-.616-.056a.045.045,0,0,0-.042.042c0,.014,0,.014.056.084l.266.322c.056.07.084.1.126.1s.336-.042.378-.042C18-2.8,18.872-2.8,19.334-2.8h1.848c.1,0,.238,0,.238.14,0,.28-2.212,2.226-4.62,3.29-.014.014-.294.14-.294.182s.07.07.1.07A13.951,13.951,0,0,0,21.98-1.694a1.473,1.473,0,0,1,.336-.21c.112,0,.112.126.112.182,0,.364,0,.812-.014,1.176C22.4-.336,22.33.714,22.33.742c0,.308.14.35.308.35a.877.877,0,0,0,.63-.28c.14-.154.14-.266.14-.77,0-.294-.014-1.582-.014-1.848,0-.084-.014-.5-.014-.56s.014-.168.126-.168c.07,0,.084.028.406.42a9.069,9.069,0,0,0,3.85,2.8,4.019,4.019,0,0,0,.686.238c.042,0,.14-.168.182-.266a1.339,1.339,0,0,1,.756-.7c.224-.056.294-.07.294-.154S29.638-.28,29.3-.322A10.1,10.1,0,0,1,24.556-2.17c-.448-.336-.5-.364-.5-.49s.154-.14.35-.14ZM24.108-8.344c.238,0,.294.042.294.182a4.744,4.744,0,0,1-.266,1.274c-.154.462-.238.574-.644.574H21.938c-.056,0-.154,0-.154-.07a.264.264,0,0,1,.028-.112.835.835,0,0,0,.1-.364c0-.308-.182-.686-.854-1.176-.056-.028-.294-.2-.294-.238,0-.07.084-.07.112-.07ZM42.5-1.582c.126,0,.406,0,.406.336,0,1.106-.014,1.106-.168,1.19a2.742,2.742,0,0,1-.84.21c-.07,0-.168.028-.168.084s.322.168.378.2a1.561,1.561,0,0,1,.49.448c.042.07.084.126.154.126.21,0,1.12-.406,1.12-1.176,0-.462-.084-2.492-.084-2.9a12.434,12.434,0,0,1,.056-1.512c.014-.014.14-.154.224-.238a.3.3,0,0,0,.1-.21c0-.14-.056-.182-.294-.322-.49-.266-.546-.294-.644-.294s-.154.028-.336.238a.515.515,0,0,1-.42.154H39.382a1.454,1.454,0,0,1-.476-.07c-.126-.014-.686-.252-.812-.252-.1,0-.112.042-.112.154,0,.224.042,1.19.042,1.4,0,1.176-.014,2.478-.07,3.654,0,.154-.07.84-.07.98,0,.322.056.378.294.378a.655.655,0,0,0,.7-.728c0-.2,0-1.54.014-1.6.056-.224.224-.252.406-.252Zm0-3.29c.392,0,.392.182.392.9,0,.336-.294.336-.392.336h-3.22c-.364,0-.364-.252-.364-.588,0-.406,0-.644.392-.644Zm.014,1.6c.392,0,.392.154.392.84,0,.266,0,.476-.406.476H39.3c-.406,0-.406-.21-.406-.448,0-.616,0-.868.364-.868ZM33.7-8.428c-.042,0-.084.07-.1.21a2.939,2.939,0,0,1-.574,1.6c-.406.476-.476.546-.476.784a.469.469,0,0,0,.476.462c.588,0,.924-.854.924-1.806C33.95-7.532,33.866-8.428,33.7-8.428Zm2.212-2.8c-.014-.1-.084-.168-.308-.21-.14-.028-.98-.182-1.036-.182s-.056.056-.056.126c0,.014.014.28.028.42.07,1.134.084,1.33.084,2.254,0,1.75-.1,5.53-.154,7.56,0,.28-.084,1.638-.084,1.96,0,.238.1.35.252.35S35.378.9,35.42.532v-5.32c0-.686.1-5.026.112-5.628a.612.612,0,0,1,.2-.49A.409.409,0,0,0,35.91-11.228Zm3.416,4.48c-.8,0-1.526-.028-1.932-.056-.1,0-.518-.042-.616-.042-.014,0-.042,0-.042.028s0,.028.056.1l.266.322c.056.056.084.084.126.084s.252-.028.294-.028c.49-.042,1.442-.042,1.778-.042h5.306c.476,0,.756,0,.756-.182a2.413,2.413,0,0,0-1.008-.84c-.14,0-.168.042-.448.42-.168.238-.238.238-.9.238h-1.3c-.406,0-.406-.21-.406-.616,0-.532,0-.742.406-.742h2.212c.462,0,.756,0,.756-.182,0-.252-.98-.812-1.12-.812-.112,0-.42.448-.5.518-.112.112-.182.112-.77.112h-.574c-.406,0-.406-.252-.406-.56,0-.644,0-.826.42-.826h2.31c.462,0,.742,0,.742-.182s-.812-.8-.924-.8-.392.448-.462.5c-.126.112-.2.112-.784.112h-.868c-.126,0-.42,0-.42-.35a.873.873,0,0,1,.112-.392,1.822,1.822,0,0,0,.252-.35c0-.154-.154-.2-.238-.21a5.15,5.15,0,0,0-1.022-.168c-.056,0-.056.028-.056.07,0,.07.07.42.07.49,0,.784,0,.91-.406.91h-.476c-.8,0-1.526-.028-1.932-.056-.1,0-.518-.042-.616-.042-.014,0-.042,0-.042.028s0,.028.056.1l.266.322c.056.056.084.084.126.084s.252-.028.294-.028c.49-.042,1.442-.042,1.778-.042h.532c.14,0,.434,0,.434.35,0,.826,0,1.036-.35,1.036-.266,0-1.722-.042-1.82-.056s-.434-.042-.5-.042c-.014,0-.056,0-.056.028s.014.042.07.1l.266.322c.042.056.07.084.126.084s.252-.028.294-.028c.364-.028,1.33-.042,1.428-.042.364,0,.5.056.5.392,0,.868,0,.966-.42.966ZM35.938-9.016c-.1-.028-.154.014-.154.084a.47.47,0,0,0,.056.2,2.648,2.648,0,0,1,.266.77c.14.91.154,1.008.49,1.008.308,0,.56-.28.56-.728C37.156-8.386,36.148-8.974,35.938-9.016ZM56.924-5.824c-.238,0-.49,0-.49-.406,0-.154.014-3.458.028-3.724.014-.378.224-.392.518-.392h2.03c.518,0,.546.07.546.714,0,.616,0,1.2-.028,1.442-.042.406-.14.406-1.036.406-.056,0-.2,0-.2.042s.462.434.63.616a4.84,4.84,0,0,0,.308.434.278.278,0,0,0,.182.084,1.649,1.649,0,0,0,.812-.574c.224-.322.224-.63.224-1.848,0-.518,0-.868.154-.98.252-.182.28-.21.28-.322a1.606,1.606,0,0,0-.98-.994c-.1,0-.14.042-.49.448-.126.14-.154.154-.322.154H56.84a.941.941,0,0,1-.56-.14,2.609,2.609,0,0,0-.77-.266c-.042,0-.042.056-.042.1,0,.112.042.644.056.756.028.924.028,4.3.028,5.46,0,1.288-.056,3.682-.112,4.83-.014.154-.014.434-.014.532,0,.322.07.532.336.532a.674.674,0,0,0,.686-.644c.014-.6.07-.63.546-.938a13.447,13.447,0,0,0,1.092-.812c.056-.042.14-.126.21-.126s.14.07.266.224A6.924,6.924,0,0,0,59.976.168a2.824,2.824,0,0,0,.5-.252,2.151,2.151,0,0,1,.924-.21c.028,0,.112-.014.112-.084,0-.042-.042-.07-.448-.252A4.751,4.751,0,0,1,59-2.226c0-.084.462-.868.546-1.036a14.565,14.565,0,0,1,.784-1.554c.056-.042.35-.2.406-.224a.257.257,0,0,0,.112-.2c0-.266-.84-.756-.91-.756a2.284,2.284,0,0,0-.266.126.654.654,0,0,1-.238.042Zm1.96.364c.294,0,.476,0,.476.252,0,.392-.672,2.366-.924,2.366a4.5,4.5,0,0,1-1.218-2.464c0-.1.056-.154.2-.154ZM56.392-3.234c0-.588,0-1.176.014-1.764,0-.294.07-.462.448-.462.07,0,.126.042.14.154A5.784,5.784,0,0,0,57.26-3.7c.084.266.686,1.568.686,1.666A4.191,4.191,0,0,1,56.574-.6a.139.139,0,0,1-.154-.14v-.742C56.42-1.736,56.392-2.954,56.392-3.234ZM54.572-7.56c.476,0,.756,0,.756-.2s-.966-.9-1.12-.9-.588.616-.728.672c-.084.042-.182.056-.8.056-.294,0-.392-.056-.392-.364v-.8c0-.364.168-.364.476-.364h1.148c.462,0,.742,0,.742-.2a2.016,2.016,0,0,0-.98-.84c-.14,0-.168.042-.476.434a.548.548,0,0,1-.546.224c-.252,0-.364-.084-.364-.35a1.657,1.657,0,0,1,.07-.6,2.18,2.18,0,0,0,.224-.392c0-.266-1.176-.5-1.246-.5-.042,0-.042.014-.042.056,0,.154.112,1.2.112,1.414,0,.238-.056.378-.35.378-.182,0-1.2-.056-1.316-.056-.07,0-.434-.028-.5-.028-.042,0-.056,0-.056.028s.014.028.056.084l.28.322c.042.07.07.1.126.1.028,0,.168-.028.2-.028.308-.042.98-.042,1.232-.042.294,0,.35.14.35.392V-8.3c0,.378-.084.378-.742.378-.266,0-1.344-.042-1.554-.056-.1,0-.546-.042-.644-.042-.028,0-.042,0-.042.028s0,.028.056.1l.266.322c.056.056.084.084.126.084s.252-.028.294-.028c.49-.042,1.456-.042,1.778-.042ZM51.184-5.572a1.388,1.388,0,0,0-.644-1.26,2.322,2.322,0,0,0-.588-.364c-.042,0-.07.014-.07.042A1.356,1.356,0,0,0,49.924-7a4.384,4.384,0,0,1,.308,1.19c.07.63.084.826.42.826S51.184-5.376,51.184-5.572ZM48.972-4.4c.042.07.07.1.126.1s.252-.028.294-.028c.252-.028.924-.042,1.19-.042.63,0,.77,0,.77.364,0,1.288,0,1.344-.364,1.344-.28,0-1.61-.1-1.918-.1-.028,0-.042,0-.042.028s.028.056.056.1l.266.322c.056.056.084.084.126.084s.238-.028.28-.028c.322-.028.8-.042,1.12-.042.238,0,.448.056.448.42,0,.308-.084,2.24-.084,2.534,0,.182.028.378.294.378A.782.782,0,0,0,52.3.182c0-.28-.042-1.736-.042-2.058,0-.42.266-.42.518-.42h1.484c.448,0,.756,0,.756-.182,0-.126-.728-.938-.994-.938-.112,0-.154.042-.462.518-.154.238-.28.238-.784.238-.336,0-.476,0-.518-.238V-3.976c0-.35.126-.392.42-.392H54.4c.672,0,.742,0,.742-.182,0-.21-.77-.868-.98-.868-.112,0-.14.042-.434.448-.168.238-.238.238-.924.238a.132.132,0,0,1-.14-.14,4.005,4.005,0,0,1,1.064-1.54c.21-.168.252-.2.252-.294,0-.364-1.008-.714-1.05-.714s-.084.014-.1.1c-.028.168-.084.98-.112,1.162-.224,1.428-.336,1.428-.742,1.428H50.9c-.378,0-1.176-.042-1.582-.056-.084,0-.532-.042-.63-.042-.028,0-.056,0-.056.028s.014.028.07.1Zm21.868,0a.923.923,0,0,0,.924-.924.923.923,0,0,0-.924-.924.923.923,0,0,0-.924.924A.923.923,0,0,0,70.84-4.4Zm15.82.028c-.238,0-.28-.028-.714-.294a1.5,1.5,0,0,0-.616-.252c-.028,0-.126,0-.126.07,0,.042.07.294.084.35a6.871,6.871,0,0,1,.056,1.106c0,.686-.056,2.562-.084,3.262,0,.084-.056.686-.056.742,0,.126,0,.392.336.392a.788.788,0,0,0,.812-.616c.056-.294.07-.35.392-.35H90.5c.07,0,.406,0,.406.322,0,.294.014.6.42.6.126,0,.812-.1.812-.756,0-.042-.014-.154-.028-.294-.056-.574-.056-1.582-.056-2.268,0-1.176.014-1.218.168-1.316.2-.126.294-.21.294-.28,0-.112-.056-.168-.6-.574-.448-.336-.49-.364-.588-.364s-.112.028-.322.308a.453.453,0,0,1-.462.21Zm3.92.378c.154,0,.406,0,.406.434V-.77c0,.378-.168.434-.406.434H86.758c-.154,0-.406,0-.406-.434V-3.556c0-.378.182-.434.406-.434Zm-9.226-7.574c-.042.056.028.14.084.21a5.042,5.042,0,0,1,.63.868c.448.77.532.9.854.9a.546.546,0,0,0,.532-.588C83.454-11.3,81.368-11.578,81.354-11.564Zm7.63.406c-.154,0-.994-.1-1.022-.1s-.056,0-.056.028,0,.028.056.1l.28.322c.042.056.07.084.126.084a.981.981,0,0,0,.2-.042c.168-.014.294-.028.448-.028h.644c.322,0,.336.056.42.658.392,2.926,1.764,4.83,2.086,4.83.084,0,.322-.322.392-.364a3.433,3.433,0,0,1,.84-.462c.056-.028.084-.042.084-.07s-.56-.28-.672-.35a5.163,5.163,0,0,1-2.268-3.808c0-.28.056-.28.462-.308s.532-.07.532-.238c0-.224-.91-.91-1.022-.91-.084,0-.14.042-.462.476a.418.418,0,0,1-.42.182ZM80.052-8.6c-.014.056.126.14.154.168a5.169,5.169,0,0,1,.994,1.12c.49.714.546.8.8.8.1,0,.448-.042.448-.63a1.219,1.219,0,0,0-.854-1.148,5.235,5.235,0,0,0-1.456-.35C80.094-8.638,80.052-8.624,80.052-8.6Zm6.314-2.576a2.392,2.392,0,0,1,.084.644A9.955,9.955,0,0,1,84.714-5.7c-.1.154-.672.924-.672.938s.042.056.084.056a2.443,2.443,0,0,0,.854-.6,10.6,10.6,0,0,0,2.562-4.732c.014-.056.028-.126.084-.154.392-.182.434-.21.434-.308,0-.154-.056-.168-.588-.364-.056-.014-1.05-.336-1.078-.336S86.366-11.186,86.366-11.172ZM80.234-2.926A2.359,2.359,0,0,1,81.76-.406c.028.854.042,1.428.658,1.428a.784.784,0,0,0,.714-.868,4.207,4.207,0,0,0-.252-1.176,4.082,4.082,0,0,1-.406-1.414,2.394,2.394,0,0,1,.154-.756c.224-.686,1.568-4.9,1.568-5.18,0-.014-.014-.07-.042-.07-.056,0-.1.084-.182.266a35.067,35.067,0,0,1-2.3,4.564C81.354-3.094,81.3-3,80.318-3,80.192-3,80.206-2.94,80.234-2.926Zm25.354-.994c.322,0,.518,0,.574.28s.07.42.406.42a.658.658,0,0,0,.728-.616c0-.224-.042-1.33-.042-1.582,0-.168.014-.224.2-.322.126-.056.308-.154.308-.308s-.1-.21-.392-.406c-.644-.406-.714-.448-.8-.448s-.308.266-.378.308a.815.815,0,0,1-.56.112h-1.82c-.588,0-.588-.084-.588-.91,0-.406.1-.406.42-.406h.294c.28,0,.336.014.378.252a.273.273,0,0,0,.294.266c.756,0,.756-.546.756-.714,0-.14-.056-.854-.056-1.022,0-.56.042-.63.574-.63h2.2c.462,0,.742,0,.742-.2a2.362,2.362,0,0,0-1.106-.924c-.14,0-.168.042-.476.518-.154.238-.294.238-.9.238h-.49c-.28,0-.532,0-.532-.378,0-.406,0-.448.07-.546.042-.042.252-.21.252-.266,0-.2-.994-.378-1.246-.378-.056,0-.182,0-.182.084,0,.028.084.294.1.35a1.453,1.453,0,0,1,.07.644c0,.476-.168.49-.546.49h-2.17c-.308,0-.546,0-.546-.392a.822.822,0,0,1,.07-.35c.028-.056.322-.308.322-.392,0-.308-1.162-.49-1.3-.49s-.154.014-.154.126c0,.084.112.98.112,1.134,0,.364-.266.364-.574.364h-.574c-.434,0-.966-.014-1.694-.056-.07,0-.42-.042-.5-.042-.028,0-.056,0-.056.028s.014.056.056.1l.28.322c.042.056.07.084.126.084s.238-.028.294-.028c.014,0,.49-.042,1.428-.042h.63c.322,0,.574,0,.574.364,0,.21-.028,1.26-.028,1.5,0,.462.168.462.28.462.056,0,.532,0,.7-.294.1-.168.112-.182.364-.182h.378c.392,0,.392.084.392.854,0,.434-.154.462-.518.462h-1.89a1,1,0,0,1-.63-.126c-.784-.49-.812-.5-.924-.5a.118.118,0,0,0-.126.126,3.1,3.1,0,0,0,.07.35,8.07,8.07,0,0,1,.07,1.064c0,.28-.07,1.68-.07,2,0,.2.028.462.322.462.616,0,.686-.308.756-.588.056-.224.2-.224.574-.224h1.806c.308,0,.532,0,.532.322v.784c0,.546-.126.546-.644.546H98.952c-.658,0-1.232,0-1.918-.042-.1,0-.532-.056-.63-.056a.037.037,0,0,0-.042.042c0,.014,0,.028.056.084l.28.322c.042.056.07.1.112.1a2.687,2.687,0,0,0,.308-.042c.126,0,.532-.028,1.764-.028h2.688c.434,0,.63,0,.63.42,0,.252-.042,1.5-.042,1.792,0,.2,0,.714.518.714a.649.649,0,0,0,.63-.7c0-.112-.07-1.54-.07-1.834,0-.392.2-.392.63-.392h4.494c.462,0,.742,0,.742-.2a2.114,2.114,0,0,0-1.008-.9c-.154,0-.182.042-.476.476-.168.238-.294.238-.9.238h-2.856c-.462,0-.574,0-.63-.224a8.682,8.682,0,0,1-.028-1.036c0-.392.252-.392.616-.392ZM99.82-4.3c-.364,0-.532,0-.532-.49v-.826c0-.49.168-.49.532-.49H101.7c.238,0,.462,0,.518.238.028.1.028.938.028,1.106,0,.462-.21.462-.546.462ZM105.672-6.1c.574,0,.574.042.574.812,0,.812-.014.812-.112.91s-.168.084-.462.084H103.81c-.616,0-.616-.014-.616-.854,0-.686,0-.77.1-.868s.2-.084.518-.084Zm-1.834-3.542c.518,0,.518.1.518.728,0,.672,0,.756-.518.756h-2.156c-.56,0-.56-.084-.56-.742s0-.742.56-.742Zm9.17,4.13a.138.138,0,0,0-.126.14c0,.168.728.924.994.924a5.9,5.9,0,0,0,1.736-.84,2.918,2.918,0,0,1,.588-.364c.084,0,.14.084.2.168A13.17,13.17,0,0,1,117.866-2a4.956,4.956,0,0,1,.154,1.68c0,.42.182.826.6.826.294,0,.63-.294.63-.84,0-1.232-1.47-3.99-2.31-5.348a.653.653,0,0,1-.154-.336c0-.1,0-.112.42-.378,2.212-1.414,2.94-1.876,4.1-1.876a1.684,1.684,0,0,1,1.778,1.694c0,1.176-1.176,1.554-1.9,1.554a3.731,3.731,0,0,1-1.372-.308c-.084-.028-.56-.2-.588-.2s-.084.014-.084.056a3.529,3.529,0,0,0,2.6,1.316,2.208,2.208,0,0,0,2.422-2.17,2.7,2.7,0,0,0-2.688-2.52,5.638,5.638,0,0,0-1.358.21c-.07.014-.35.126-.42.126s-.1-.084-.1-.126c0-.07.07-.336.07-.406a1.64,1.64,0,0,0-1.008-1.344.1.1,0,0,0-.1.1c0,.07.1.42.1.49a.344.344,0,0,1-.392.378,3.628,3.628,0,0,1-.518-.042,9.08,9.08,0,0,0-1.3-.1c-1.316,0-2.058.49-2.058.938,0,.294.112.434,1.05,1.708a1.21,1.21,0,0,1,.224.448,3.827,3.827,0,0,1-2.212.98C113.274-5.488,113.064-5.516,113.008-5.516ZM116.34-9.2a10.712,10.712,0,0,1,1.946.756c.392.168.434.2.434.252s-.056.126-.2.2a20.7,20.7,0,0,0-1.848,1.05.839.839,0,0,1-.336.168c-.112,0-.126-.042-.378-.42-.574-.9-.63-.994-.63-1.274A.772.772,0,0,1,116.34-9.2ZM5.572,17.718c.112.84-1.218,2.772-2.352,3.906a11.873,11.873,0,0,0-1.106,1.05c0,.042.028.084.1.084a4.278,4.278,0,0,0,1.344-.742,10.525,10.525,0,0,0,1.9-1.82c.588-.672.616-.7.882-.7.084,0,.462.042.546.042.336,0,2.268-.434,2.3-.434a.151.151,0,0,1,.154.154,17.485,17.485,0,0,1-6.93,7.56c-.434.238-.476.266-.476.322a.125.125,0,0,0,.126.126,9.577,9.577,0,0,0,2.786-1.344,17.119,17.119,0,0,0,5.012-5.264c.49-.756.546-.84.7-.938.462-.28.56-.336.56-.532a.507.507,0,0,0-.266-.35c-.07-.042-.434-.238-.518-.28-.574-.336-.644-.378-.77-.378A2.616,2.616,0,0,0,8.9,18.4a7.924,7.924,0,0,1-2.128.56c-.056,0-.224,0-.224-.112,0-.07.042-.126.112-.224.28-.35.42-.532.42-.7a1.308,1.308,0,0,0-1.3-.784c-.112,0-.308,0-.308.14C5.474,17.34,5.558,17.648,5.572,17.718Zm5.348-2.366c-.14,0-.5.084-.5.2,0,.042.042.112.182.154a3.283,3.283,0,0,1,1.288.686c.308.322.448.462.742.462a.379.379,0,0,0,.35-.406c0-.14,0-.462-.574-.8A2.583,2.583,0,0,0,10.92,15.352Zm-.966,1.2c-.126,0-.238.07-.238.126s.14.154.21.2a4.421,4.421,0,0,1,.994.826c.434.518.546.6.742.6.238,0,.406-.308.406-.546C12.068,17.592,11.746,16.556,9.954,16.556Zm11.438,3.276c0-.714-1.484-1.19-1.582-1.19-.056,0-.07.028-.07.07a1.039,1.039,0,0,0,.056.252,3.07,3.07,0,0,1,.238,1.2,7.414,7.414,0,0,1-1.694,4.1,3.964,3.964,0,0,0-.56.742.065.065,0,0,0,.07.07,4.875,4.875,0,0,0,2.59-2.66C20.678,21.89,21.392,19.874,21.392,19.832Zm2.464,5.04c.1-.014.224-.112.462-.378a7.779,7.779,0,0,1,.966-.9,11.762,11.762,0,0,0,3.262-4,.06.06,0,0,0-.056-.056c-.056,0-1.246,1.26-1.484,1.5a8.334,8.334,0,0,1-3.052,2.282c-.252,0-.266-.28-.266-.462,0-.462.056-2.156.112-2.534.028-.154.224-.882.224-1.05,0-.728-1.47-.98-1.54-.98-.028,0-.084.014-.084.07a3.639,3.639,0,0,0,.182.5,8.584,8.584,0,0,1,.266,2.632c0,.35-.014,1.456-.056,1.722-.014.07-.084.434-.084.5C22.708,24.116,23.45,24.942,23.856,24.872Zm11.886-3.514a7.624,7.624,0,0,1-1.708-.126c-.07-.014-.406-.168-.476-.168s-.112.084-.112.168c0,.476.644,1.344,1.246,1.344.168,0,.924-.224,1.092-.252.336-.07,3.542-.252,5.474-.252.28,0,1.68.028,2,.028.588,0,1.162-.042,1.162-.434,0-.1-.126-.616-.98-.616-.07,0-.224.014-.308.014C41.09,21.176,36.2,21.358,35.742,21.358ZM60.116,16.08a1.33,1.33,0,0,0-1.372,1.33,1.351,1.351,0,1,0,2.7,0A1.3,1.3,0,0,0,60.116,16.08Zm-.028.476a.936.936,0,0,1,.9.882.89.89,0,0,1-1.778.014A.9.9,0,0,1,60.088,16.556ZM49.994,18.264c-.084,0-.126.042-.126.308,0,.77,1.12,1.47,1.442,1.47a5.077,5.077,0,0,0,.7-.308,45.937,45.937,0,0,1,5.04-1.008c.07,0,.308.014.308.252a7.91,7.91,0,0,1-.952,2.366,18.221,18.221,0,0,1-5.53,5.544c-.14.1-.182.126-.182.182a.093.093,0,0,0,.1.084,14.246,14.246,0,0,0,7.224-6.524,2.317,2.317,0,0,1,.546-.882c.252-.252.322-.322.322-.5s-.084-.35-.714-.91c-.434-.378-.658-.574-.966-.574-.1,0-.154.028-.588.224a36.247,36.247,0,0,1-5.278.658,3.3,3.3,0,0,1-1.162-.294C50.148,18.348,50.022,18.264,49.994,18.264ZM64.47,21.512A13.883,13.883,0,0,0,70.6,17.018c.112-.14.336-.42.392-.42s.084.042.238.336A13.164,13.164,0,0,0,76.1,21.876c.084,0,.126-.042.182-.14a1.642,1.642,0,0,1,.9-.574c.35-.112.392-.126.392-.21s0-.07-.392-.182c-3.318-.938-5.8-4.046-5.8-4.48,0-.056.014-.1.1-.14.14-.1.168-.112.168-.182,0-.238-1.3-.854-1.316-.854-.168,0-.168.056-.28.49a11.467,11.467,0,0,1-3.346,4.018c-.91.77-2.058,1.582-2.156,1.652-.168.112-.21.14-.21.2S64.428,21.526,64.47,21.512Zm4.606,1.876c.238,0,.42,0,.42.238a9.8,9.8,0,0,1-.728,1.848c-.574,1.148-.672,1.148-1.456,1.148a7.419,7.419,0,0,1-.826-.056c-.084-.014-.518-.1-.616-.1-.042,0-.112,0-.112.1a11.061,11.061,0,0,0,.77,1.484.159.159,0,0,0,.14.1,2.927,2.927,0,0,0,.406-.224,61.287,61.287,0,0,1,6.5-1.288c.2,0,.322.042.588.518s.546.98.952.98c.266,0,.546-.308.546-.756,0-.882-.868-1.386-1.246-1.61a13.022,13.022,0,0,0-1.778-.868c-.042,0-.1.014-.1.084,0,.168.826.882.826,1.092,0,.14-.112.154-1.12.252-1.554.154-2.87.238-3.052.238-.056,0-.252-.014-.252-.14s.14-.266.2-.336c.084-.084.658-.77.952-1.162.35-.462.378-.5.49-.546.42-.112.42-.112.42-.238,0-.154-.658-.714-.658-.714,0-.042.056-.042.2-.042h4.284c.658,0,.728,0,.728-.182,0-.126,0-.14-.714-.728-.322-.266-.364-.294-.476-.294s-.182.084-.392.378c-.336.462-.49.462-1.078.462h-4.62c-.49,0-1.232-.028-1.918-.056-.084,0-.518-.042-.616-.042-.028,0-.056,0-.056.028s.042.056.07.1l.266.322c.056.056.07.084.126.084s.252-.028.294-.028c.378-.028.728-.042,1.764-.042Zm.644-2.6c-.56,0-1.232-.014-1.918-.056-.084,0-.518-.042-.616-.042-.028,0-.042.014-.042.028s0,.042.056.1l.266.322c.056.056.084.084.126.084s.252-.028.294-.028c.518-.042.924-.042,1.778-.042h3.22c.672,0,.742,0,.742-.154a3.8,3.8,0,0,0-1.064-1.05c-.07,0-.238.21-.462.476-.28.336-.308.364-.994.364ZM85.288,27.5c.056.07.084.1.126.1s.252-.042.294-.042c.49-.042,1.428-.028,1.764-.028h4.97c.462,0,.756,0,.756-.2,0-.238-1.232-1.148-1.358-1.148-.168,0-.21.056-.588.546a.87.87,0,0,1-.826.42h-.518c-.364,0-.364-.252-.364-.77,0-.938-.042-5.04-.042-5.88,0-.252.028-.462.406-.462h1.946c.448,0,.742,0,.742-.182,0-.266-.98-1.176-1.176-1.176-.126,0-.168.056-.574.6-.294.392-.364.392-1.022.392-.336,0-.336-.266-.336-.434,0-.378.042-2.7.126-2.9.028-.07.308-.308.308-.378,0-.238-.294-.308-.42-.35-.1-.028-.966-.294-1.008-.294-.084,0-.112.028-.112.1,0,.112.084.6.084.714.07,1.05.1,1.68.1,2.968,0,.392-.028.574-.364.574-.476,0-1.61-.056-1.75-.056-.07,0-.574-.042-.588-.042s-.042,0-.042.028,0,.028.056.1l.266.322c.056.056.084.084.126.084s.252-.028.294-.028c.49-.042,1.3-.042,1.652-.042s.336.294.336.434c0,.728-.028,6.118-.056,6.37-.028.308-.28.308-.406.308h-.546c-.784,0-1.512-.028-1.918-.042-.1,0-.532-.056-.616-.056a.045.045,0,0,0-.042.042c0,.014,0,.014.056.084ZM80.71,18.936c.042.056.07.084.126.084s.252-.028.294-.028c.49-.028,1.078-.042,1.624-.042h.98c.126,0,.224.014.224.14a17.241,17.241,0,0,1-2.534,3.43,14.09,14.09,0,0,0-1.218,1.246c0,.042.042.042.07.042.364,0,2.184-1.582,2.324-1.582s.14.238.14.392c0,1.652-.056,3.108-.084,4.144,0,.154-.056.8-.056.938,0,.2.084.336.42.336a.668.668,0,0,0,.742-.644c0-.2-.07-1.064-.07-1.246,0-.574-.014-3.164-.014-3.7,0-.168,0-.364.126-.364.266,0,.728.714.812.868.364.742.518,1.022.854,1.022.252,0,.49-.21.49-.644,0-1.064-1.316-1.442-1.792-1.554-.336-.07-.462-.1-.462-.392,0-.252.042-.294.448-.714a16.114,16.114,0,0,1,1.3-1.4c.042-.014.238-.056.28-.07a.21.21,0,0,0,.154-.182c0-.084-.028-.112-.336-.406-.042-.028-.336-.378-.5-.546a.265.265,0,0,0-.2-.1c-.126,0-.532.42-.63.476a.5.5,0,0,1-.336.1c-.14,0-.224-.028-.224-.224V17.144c0-.588,0-.658.07-.784.028-.056.28-.266.28-.322,0-.1-.084-.154-.154-.2a10.763,10.763,0,0,0-1.26-.378c-.014,0-.056,0-.056.028,0,.084.07.406.07.476.042.532.056,1.358.056,1.568,0,.938,0,1.036-.392,1.036-.294,0-1.582-.084-1.848-.084-.014,0-.056,0-.056.028s.014.028.07.1Zm18.326,4.032a10.915,10.915,0,0,1,1.078-3.612c.266-.476.266-.49.266-.644,0-.5-.588-1.778-1.232-1.778-.056,0-.112.028-.112.07a1.773,1.773,0,0,0,.084.252,3.429,3.429,0,0,1,.14.994,4.754,4.754,0,0,1-.238,1.456,10.063,10.063,0,0,0-.588,3.052c0,1.344.644,3.724,1.512,3.724a.469.469,0,0,0,.462-.476,1.51,1.51,0,0,0-.168-.616,2.5,2.5,0,0,1-.224-.728c0-.336.322-1.974.322-2.128,0-.028,0-.168-.07-.168s-.112.112-.2.35c-.308.868-.434,1.092-.672,1.092S99.036,23.388,99.036,22.968Zm7.252-5.18c-.14-.014-.182,0-.6.154a5.655,5.655,0,0,1-1.54.21,4.784,4.784,0,0,1-.952-.084c-.182-.042-.35-.1-.392-.1-.084,0-.1.042-.1.07a2.746,2.746,0,0,0,2.45,1.036c.168,0,1.722,0,1.722-.686A.7.7,0,0,0,106.288,17.788Zm.6,6.944c-.056,0-1.036.1-1.232.112a11.668,11.668,0,0,1-1.218.042,3.446,3.446,0,0,1-1.5-.238,2.088,2.088,0,0,0-.336-.2c-.07,0-.07.112-.07.14,0,.266.364.63.434.7a2.859,2.859,0,0,0,2.184.63c1.96,0,2.38-.168,2.38-.714C107.534,25.04,107.422,24.732,106.89,24.732Zm7.742-3.416c.378,0,.588-.084,1.288-.574,1.218-.84,3.22-1.9,4.55-1.9a2.271,2.271,0,0,1,2.268,2.338c0,1.246-.84,3.71-4.3,4.2-.518.07-.574.07-.574.182,0,.182.21.182.336.182,3.01,0,5.628-1.512,5.614-4.06a3.491,3.491,0,0,0-3.57-3.458,12.791,12.791,0,0,0-3.92,1.05c-1.722.7-1.9.784-2.254.784-.126,0-.714-.168-.854-.168a.2.2,0,0,0-.21.224A1.768,1.768,0,0,0,114.632,21.316ZM130.3,17.8c-.028,0-.084.014-.084.056a1.891,1.891,0,0,0,.112.476,3.89,3.89,0,0,1,.1.812c0,.364-.2,2.086-.2,2.478,0,2.674,1.764,4.144,2.66,4.144.238,0,.532-.154.532-.434a3.511,3.511,0,0,0-.112-.462,1.89,1.89,0,0,1-.084-.56,3.928,3.928,0,0,1,.182-1.064,1.68,1.68,0,0,0,.042-.28c0-.056-.028-.112-.07-.112-.112,0-.35.336-.434.476-.42.7-.476.77-.714.77-.434,0-1.162-1.022-1.162-2.436a4.945,4.945,0,0,1,.336-1.806,1.918,1.918,0,0,0,.168-.56C131.572,18.922,130.942,17.8,130.3,17.8Zm6.678,1.288c-.07,0-.126.028-.126.07,0,.084.56.518.672.63.742.742.742,1.33.742,2.492,0,.182,0,.938.686.938s.7-.658.7-.924a3.484,3.484,0,0,0-1.246-2.674A2.725,2.725,0,0,0,136.976,19.09Zm8.68-.378c-.168.2.49,1.134,1.19,1.134a1.012,1.012,0,0,0,.49-.182,18.34,18.34,0,0,1,4.158-1.5c.028,0,.084,0,.084.028a2.509,2.509,0,0,1-.336.294c-2.03,1.806-2.044,4.774-2.044,5.39a2.636,2.636,0,0,0,2.87,3c.084,0,1.624,0,1.624-.742,0-.336-.266-.518-.7-.518-.112,0-1.12.084-1.33.084-.826,0-1.708-.154-1.708-2.506,0-3.612,1.988-5.25,3.766-5.25.168,0,.966.154,1.148.154a.556.556,0,0,0,.56-.518c0-.476-.63-.672-1.12-.672a37.524,37.524,0,0,0-5.376,1.26,9.014,9.014,0,0,1-2.73.6C146.132,18.768,145.712,18.642,145.656,18.712Zm23.954,6.16c.252-.126.98.462,1.386.952.336.42.378.476.546.476a.55.55,0,0,0,.5-.56c0-.826-1.47-1.484-2.156-1.778-.35-.154-.392-.252-.448-.77-.042-.378-.14-1.96-.14-2.268,0-.6,0-.616.518-.84s1.456-.63,1.456-1.288c0-.588-.462-.6-1.078-.63-.084,0-.812-.028-.812-.448a.607.607,0,0,1,.084-.294c.14-.224.154-.252.154-.35,0-.532-.938-.728-1.218-.728s-.476.154-.476.238.378.406.434.476c.266.322.266.714.266,1.6,0,.924,0,.924-.77.924a4.19,4.19,0,0,1-1.568-.28,2.435,2.435,0,0,0-.378-.2c-.056,0-.07.056-.07.1a1.988,1.988,0,0,0,2.072,1.246,4.644,4.644,0,0,1,.644.028.465.465,0,0,1,.112.336c.014.392.056,1.876.056,1.96,0,.868,0,.966-.35.966-2.87.042-2.87,1.526-2.87,1.722a1.586,1.586,0,0,0,1.75,1.4,2.309,2.309,0,0,0,2.086-1.33C169.386,25.432,169.512,24.914,169.61,24.872Zm-.2-6.482a.3.3,0,0,1,.168-.056c.2,0,.658.182.658.434,0,.322-.532.49-.728.49-.1,0-.21,0-.21-.532A.424.424,0,0,1,169.414,18.39Zm-1.834,6.076c.9,0,1.092.112,1.092.35,0,.476-.854,1.148-1.68,1.148-.49,0-.924-.238-.924-.616C166.068,24.942,166.782,24.466,167.58,24.466Zm-3.99.518c0-.406.392-2.422.392-2.87,0-.028,0-.126-.056-.126a7.052,7.052,0,0,0-.574,1.4c-.252.77-.266.826-.392.826-.336,0-.336-.9-.336-.98a9.355,9.355,0,0,1,.5-2.814c.112-.35.728-2.072.728-2.184,0-.252-.7-1.652-1.484-1.652-.084,0-.252.028-.252.112a2.813,2.813,0,0,0,.266.49,1.982,1.982,0,0,1,.322,1.162,9.431,9.431,0,0,1-.42,2.226,10.693,10.693,0,0,0-.364,2.744c0,2.17.7,3.57,1.4,3.57.322,0,.462-.266.462-.574C163.786,26.118,163.59,25.194,163.59,24.984ZM4.956,44.06a4.451,4.451,0,0,0-.462-.14c-.028,0-.07,0-.07.042,0,.14.644,1.022,2.464,1.358.406.07.448.084.448.168,0,.168-.77.826-.77.952,0,.028.028.028.042.028.056,0,.056.014.2-.07a3.846,3.846,0,0,1,1.764-.672c.966-.07,1.092-.07,1.092-.322a1.471,1.471,0,0,0-1.372-1.12c-.154,0-.938.028-1.106.028A8.393,8.393,0,0,1,4.956,44.06Zm1.33,8.05A2.883,2.883,0,0,1,3.6,50.71c-.028-.07-.126-.518-.224-.518-.028,0-.182.154-.182.686,0,2.2,2.954,2.45,4.34,2.45.77,0,3.15-.07,3.15-.826a.868.868,0,0,0-.924-.658c-.07,0-2.2.294-2.618.294C7,52.138,6.384,52.11,6.286,52.11Zm15.386-9.38c-.07,0-.42.056-.42.168,0,.042.042.084.154.21a1.569,1.569,0,0,1,.308.938,4.17,4.17,0,0,1-.28,1.288c-.056.084-.112.112-.28.112a4.169,4.169,0,0,1-1.666-.28,5.468,5.468,0,0,0-.49-.252c-.042,0-.07.056-.07.1,0,.07.21,1.092,1.988,1.3.238.028.266.028.266.14,0,.392-.728,3.444-.728,4.1,0,.126.112,1.344.686,1.344.294,0,.308-.084.532-.8a3.017,3.017,0,0,1,2.6-1.6,1.578,1.578,0,0,1,1.568,1.806c0,.924-.49,2.086-3.276,2.9a3.156,3.156,0,0,0-.658.238c0,.07.168.07.21.07a8.409,8.409,0,0,0,1.12-.1c1.12-.182,3.668-.742,3.668-3.108a2.363,2.363,0,0,0-2.394-2.478,4.48,4.48,0,0,0-2.618.9.665.665,0,0,1-.294.154c-.168,0-.168-.462-.168-.644a10.239,10.239,0,0,1,.406-2.576c.042-.182.07-.252.35-.294.924-.154,2.212-.518,2.212-1.316,0-.378-.28-.448-.868-.588a1.4,1.4,0,0,1-.91-.77A1.226,1.226,0,0,0,21.672,42.73Zm.966,1.5c.084,0,.658.448.658.714s-.742.49-.952.49c-.056,0-.14-.014-.14-.1C22.2,45.306,22.456,44.228,22.638,44.228Zm15.568-1.246c-.042.042,0,.126.028.182a1.031,1.031,0,0,1,.238.63c0,.406-.336.546-1.12.868a1.721,1.721,0,0,0-1.274,1.68c-.042.518-.378,3.094-.378,3.682,0,1.078.476,1.75,1.064,1.75.476,0,.63-.238,1.274-1.148a2.126,2.126,0,0,1,1.82-1.05,1.46,1.46,0,0,1,1.554,1.554c0,1.316-1.316,2.422-3.066,2.814-.1.028-.406.1-.406.168,0,.112.2.112.378.112,2.03,0,4.256-1.134,4.256-2.842a2.392,2.392,0,0,0-2.562-2.2,3.825,3.825,0,0,0-2.282.9,2.06,2.06,0,0,1-.812.336c-.35,0-.364-.434-.364-.644,0-.35.112-1.54.182-2.058.028-.2.168-1.022.168-1.148s-.1-.728-.1-.854a.932.932,0,0,1,.994-.924,1.916,1.916,0,0,1,.658.14,2.537,2.537,0,0,0,.826.238A.688.688,0,0,0,40,44.494C40,43.71,38.3,42.9,38.206,42.982Zm12.768,5.166c.28,0,1.582-.56,1.89-.56.084,0,.1.07.1.112a3.764,3.764,0,0,1-.2.658,8.2,8.2,0,0,1-1.722,3.164c-.84.924-.938,1.036-.938,1.33a.412.412,0,0,0,.448.448c1.134,0,2.492-3.444,3.052-5.348.14-.476.154-.532.21-.6a3.043,3.043,0,0,1,1.344-.336c.406,0,.966.07.966,1.05a11.13,11.13,0,0,1-.434,2.436c-.406,1.512-.924,1.708-1.33,1.708a4.437,4.437,0,0,1-.714-.1,2.554,2.554,0,0,0-.35-.1.066.066,0,0,0-.07.07c0,.028.154.392.182.462.154.448.294.966.826.966a2.171,2.171,0,0,0,1.428-.854c.812-.98,1.2-3.388,1.2-4.494a1.653,1.653,0,0,0-1.862-1.792c-.112,0-.756.07-.826.07-.1,0-.154-.042-.154-.126,0-.266.532-2.044.532-2.072,0-.364-.546-.9-1.484-.9-.056,0-.224.014-.224.112,0,.042.028.07.238.322a1.772,1.772,0,0,1,.35,1.19c0,.07-.014,1.484-.252,1.652a23.412,23.412,0,0,1-2.352.42c-.154,0-.882-.2-.924-.2a.123.123,0,0,0-.126.112C49.784,47.266,50.428,48.148,50.974,48.148Zm9.38.574a2.568,2.568,0,0,0-2.45-2.478c-.042,0-.1,0-.1.084,0,.056.224.154.336.21a1.8,1.8,0,0,1,1.134,1.61c0,.378-.056.42-.574.812-.084.07-.546.308-.546.392,0,.042.378.07.448.1.168.042.812.42.952.42C60.144,49.87,60.354,48.89,60.354,48.722Zm9.772-5.74c-.042.042,0,.126.028.182a1.031,1.031,0,0,1,.238.63c0,.406-.336.546-1.12.868A1.721,1.721,0,0,0,68,46.342c-.042.518-.378,3.094-.378,3.682,0,1.078.476,1.75,1.064,1.75.476,0,.63-.238,1.274-1.148a2.126,2.126,0,0,1,1.82-1.05,1.46,1.46,0,0,1,1.554,1.554c0,1.316-1.316,2.422-3.066,2.814-.1.028-.406.1-.406.168,0,.112.2.112.378.112,2.03,0,4.256-1.134,4.256-2.842a2.392,2.392,0,0,0-2.562-2.2,3.825,3.825,0,0,0-2.282.9,2.06,2.06,0,0,1-.812.336c-.35,0-.364-.434-.364-.644,0-.35.112-1.54.182-2.058.028-.2.168-1.022.168-1.148s-.1-.728-.1-.854a.932.932,0,0,1,.994-.924,1.916,1.916,0,0,1,.658.14,2.537,2.537,0,0,0,.826.238.688.688,0,0,0,.714-.672C71.918,43.71,70.224,42.9,70.126,42.982Z" transform="translate(-0.462 11.816)" fill="#fff"/>
</svg>
