<svg xmlns="http://www.w3.org/2000/svg" width="104.088" height="22.344" viewBox="0 0 104.088 22.344">
  <path id="パス_130454" data-name="パス 130454" d="M1.08-9.408a23.8,23.8,0,0,0,10.512-7.7c.192-.24.576-.72.672-.72s.144.072.408.576c2.712,4.944,7.824,8.472,8.352,8.472.144,0,.216-.072.312-.24a2.815,2.815,0,0,1,1.536-.984c.6-.192.672-.216.672-.36,0-.12,0-.12-.672-.312-5.688-1.608-9.936-6.936-9.936-7.68,0-.1.024-.168.168-.24.24-.168.288-.192.288-.312,0-.408-2.232-1.464-2.256-1.464-.288,0-.288.1-.48.84-.12.528-1.632,3.384-5.736,6.888-1.56,1.32-3.528,2.712-3.7,2.832-.288.192-.36.24-.36.336C.864-9.36,1.008-9.384,1.08-9.408Zm7.9,3.216c.408,0,.72,0,.72.408A16.792,16.792,0,0,1,8.448-2.616C7.464-.648,7.3-.648,5.952-.648a12.719,12.719,0,0,1-1.416-.1C4.392-.768,3.648-.912,3.48-.912c-.072,0-.192,0-.192.168A18.962,18.962,0,0,0,4.608,1.8a.273.273,0,0,0,.24.168,5.017,5.017,0,0,0,.7-.384A105.062,105.062,0,0,1,16.68-.624c.336,0,.552.072,1.008.888.432.792.936,1.68,1.632,1.68.456,0,.936-.528.936-1.3,0-1.512-1.488-2.376-2.136-2.76A22.323,22.323,0,0,0,15.072-3.6c-.072,0-.168.024-.168.144,0,.288,1.416,1.512,1.416,1.872,0,.24-.192.264-1.92.432-2.664.264-4.92.408-5.232.408-.1,0-.432-.024-.432-.24s.24-.456.336-.576C9.216-1.7,10.2-2.88,10.7-3.552c.6-.792.648-.864.84-.936.72-.192.72-.192.72-.408,0-.264-1.128-1.224-1.128-1.224,0-.072.1-.072.336-.072h7.344c1.128,0,1.248,0,1.248-.312,0-.216,0-.24-1.224-1.248-.552-.456-.624-.5-.816-.5-.216,0-.312.144-.672.648-.576.792-.84.792-1.848.792H7.584c-.84,0-2.112-.048-3.288-.1-.144,0-.888-.072-1.056-.072-.048,0-.1,0-.1.048,0,.024.072.1.12.168l.456.552c.1.1.12.144.216.144.072,0,.432-.048.5-.048.648-.048,1.248-.072,3.024-.072Zm1.1-4.464c-.96,0-2.112-.024-3.288-.1-.144,0-.888-.072-1.056-.072-.048,0-.072.024-.072.048,0,.048,0,.072.1.168l.456.552c.1.1.144.144.216.144s.432-.048.5-.048c.888-.072,1.584-.072,3.048-.072H15.5c1.152,0,1.272,0,1.272-.264a6.508,6.508,0,0,0-1.824-1.8c-.12,0-.408.36-.792.816-.48.576-.528.624-1.7.624ZM36.768.864c.1.12.144.168.216.168s.432-.072.5-.072c.84-.072,2.448-.048,3.024-.048h8.52c.792,0,1.3,0,1.3-.336,0-.408-2.112-1.968-2.328-1.968-.288,0-.36.1-1.008.936a1.491,1.491,0,0,1-1.416.72h-.888c-.624,0-.624-.432-.624-1.32,0-1.608-.072-8.64-.072-10.08,0-.432.048-.792.7-.792h3.336c.768,0,1.272,0,1.272-.312,0-.456-1.68-2.016-2.016-2.016-.216,0-.288.1-.984,1.032-.5.672-.624.672-1.752.672-.576,0-.576-.456-.576-.744,0-.648.072-4.632.216-4.968.048-.12.528-.528.528-.648,0-.408-.5-.528-.72-.6-.168-.048-1.656-.5-1.728-.5-.144,0-.192.048-.192.168,0,.192.144,1.032.144,1.224.12,1.8.168,2.88.168,5.088,0,.672-.048.984-.624.984-.816,0-2.76-.1-3-.1-.12,0-.984-.072-1.008-.072s-.072,0-.072.048,0,.048.1.168l.456.552c.1.1.144.144.216.144.1,0,.432-.048.5-.048.84-.072,2.232-.072,2.832-.072.576,0,.576.5.576.744,0,1.248-.048,10.488-.1,10.92-.048.528-.48.528-.7.528h-.936c-1.344,0-2.592-.048-3.288-.072-.168,0-.912-.1-1.056-.1a.077.077,0,0,0-.072.072c0,.024,0,.024.1.144ZM28.92-13.824c.072.1.12.144.216.144.072,0,.432-.048.5-.048.84-.048,1.848-.072,2.784-.072H34.1c.216,0,.384.024.384.24,0,.7-3.384,4.9-4.344,5.88a24.154,24.154,0,0,0-2.088,2.136c0,.072.072.072.12.072.624,0,3.744-2.712,3.984-2.712s.24.408.24.672c0,2.832-.1,5.328-.144,7.1,0,.264-.1,1.368-.1,1.608,0,.336.144.576.72.576a1.145,1.145,0,0,0,1.272-1.1c0-.336-.12-1.824-.12-2.136,0-.984-.024-5.424-.024-6.336,0-.288,0-.624.216-.624.456,0,1.248,1.224,1.392,1.488.624,1.272.888,1.752,1.464,1.752.432,0,.84-.36.84-1.1,0-1.824-2.256-2.472-3.072-2.664-.576-.12-.792-.168-.792-.672,0-.432.072-.5.768-1.224a27.625,27.625,0,0,1,2.232-2.4c.072-.024.408-.1.48-.12a.361.361,0,0,0,.264-.312c0-.144-.048-.192-.576-.7-.072-.048-.576-.648-.864-.936a.454.454,0,0,0-.336-.168c-.216,0-.912.72-1.08.816a.855.855,0,0,1-.576.168c-.24,0-.384-.048-.384-.384V-16.9c0-1.008,0-1.128.12-1.344.048-.1.48-.456.48-.552,0-.168-.144-.264-.264-.336a18.451,18.451,0,0,0-2.16-.648c-.024,0-.1,0-.1.048,0,.144.12.7.12.816.072.912.1,2.328.1,2.688,0,1.608,0,1.776-.672,1.776-.5,0-2.712-.144-3.168-.144-.024,0-.1,0-.1.048,0,.024.024.048.12.168Zm36.936,4.44c.216,0,.624,0,.7.48.1.48.12.6.432.6a.938.938,0,0,0,1.008-.936c0-.984-.192-5.352-.192-6.264,0-.216.024-1.608.072-1.7.048-.12.432-.456.432-.552a3.952,3.952,0,0,0-1.224-1.56c-.168,0-.6.7-.72.816a1.037,1.037,0,0,1-.744.24h-.48a2.038,2.038,0,0,1-.96-.192c-.288-.12-1.464-.888-1.608-.888-.048,0-.048.048-.048.1,0,.144.072.816.072.96.1,1.944.12,4.128.12,6.1,0,.984-.024,9.528-.12,9.84a1.178,1.178,0,0,1-.912.816c-.672.216-.744.24-.744.384,0,.264,1.008,1.536,1.32,1.536.192,0,.216-.072.456-.576a15.96,15.96,0,0,1,2.232-1.992c.264-.216,1.32-1.32,1.68-1.7a.286.286,0,0,1,.216-.12c.168,0,.216.144.24.24.048.168.24.84.624.84.408,0,.792-.6.792-1.176,0-1.608-2.808-3.768-3.36-3.768-.024,0-.072,0-.072.048,0,.24,1.56,2.568,1.56,3.024,0,.36-.144.456-.864.96a6.487,6.487,0,0,1-1.344.816c-.36,0-.36-.288-.36-.408,0-.816-.024-4.512-.024-5.256,0-.5.24-.7.744-.7Zm-.144-8.232c.768,0,.768.216.768,2.184,0,.936,0,1.272-.768,1.272H64.8c-.768,0-.768-.168-.768-1.752,0-1.416,0-1.7.768-1.7Zm.072,4.1a.617.617,0,0,1,.672.384c.024.1.024,2.3.024,2.592,0,.12,0,.528-.7.528H64.776c-.744,0-.744-.072-.744-2.52,0-.576,0-.984.72-.984Zm10.824,3.6c.72,0,1.272,0,1.272-.312a5.881,5.881,0,0,0-1.752-1.68c-.216,0-.264.1-.816.936-.264.408-.576.408-1.056.408a.557.557,0,0,1-.624-.552c0-.12.48-2.472.528-2.856.072-.5.384-2.976.432-3.312a.641.641,0,0,1,.672-.432h.768c.792,0,1.3,0,1.3-.312S75.7-19.68,75.456-19.68s-.84,1.008-1.008,1.152c-.192.192-.312.192-1.344.192H72.48c-.984,0-2.064-.048-3.048-.072-.168-.024-.912-.1-1.08-.1-.024,0-.072,0-.072.048a.3.3,0,0,0,.1.168l.456.552c.1.1.144.144.216.144.048,0,.264-.024.312-.024a.272.272,0,0,1,.264.288c0,.96-.072,5.184-.072,6.048,0,.36-.144.648-.5.648-.144,0-.864-.1-.936-.1-.048,0-.1.024-.1.072,0,.024.072.072.12.144l.456.552c.072.12.12.168.216.168.048,0,.288-.048.336-.048.36-.024,1.056-.072,1.9-.072.384,0,.7.024.7.432A18.646,18.646,0,0,1,66.7-.216,8.963,8.963,0,0,0,65.52.816c0,.072.1.12.144.12.552,0,5.088-2.232,6.936-8.328.1-.288.1-.336.192-.336.144,0,.144.168.144.264,0,.312-.12,5.568-.12,6.384,0,1.512.168,2.16,2.088,2.16,1.584,0,1.944-.192,2.328-.5a1.857,1.857,0,0,0,.792-1.32c0-.288-.048-.36-.408-.888a6.919,6.919,0,0,1-.552-2.856c0-.192-.072-.288-.12-.288A9.44,9.44,0,0,0,76.512-2.9C76.08-.36,75.936-.36,75.24-.36c-.792,0-.864,0-.864-4.176,0-.432,0-3.36.048-3.552.1-.216.168-.288.552-.624a.344.344,0,0,0,.12-.264c0-.264-.48-.48-.792-.6-.24-.1-.384-.168-.384-.24,0-.1.192-.1.264-.1Zm-4.3-7.8a.527.527,0,0,1,.6.528,48.466,48.466,0,0,1-.768,6.048c-.048.312-.1.576-.5.576-.336,0-.72-.048-.72-.528,0-.864.072-5.088.072-6.024,0-.36.168-.6.648-.6Zm-16.1,3.432c.072.1.12.144.216.144.12,0,.984-.1,1.176-.1.552,0,.552.432.552.48,0,.6-1.08,5.16-1.344,6.144-.12.456-1.176,3.936-1.176,4.008,0,.024,0,.072.048.072A26.142,26.142,0,0,0,58.152-8.04c.1-.192.144-.288.216-.288.216,0,.216.144.216.576,0,1.2-.24,7.08-.24,8.4,0,.84.048,1.056.624,1.056C60.1,1.7,60.1.648,60.1.264c0-1.2-.144-7.1-.144-8.448,0-.384.024-2.328.024-2.76,0-.048,0-.36.168-.36.36,0,.888,1.1.936,1.248.216.6.312.912.744.912.24,0,.6-.264.6-.84,0-1.152-1.248-1.656-1.872-1.92C60-12.12,60-12.576,60-13.584c0-.456.168-.672.768-.672h.84c.384,0,.912,0,.912-.384,0-.288-.96-1.32-1.344-1.32-.144,0-.24.12-.456.408-.1.168-.384.576-.528.576-.1,0-.192-.144-.192-.24s.1-2.832.12-2.9a.721.721,0,0,1,.24-.5c.336-.24.36-.264.36-.408,0-.552-2.016-.888-2.112-.888-.192,0-.24.1-.24.24,0,.168.12.984.144,1.176,0,.48.024,2.568.024,2.952a.557.557,0,0,1-.624.624c-.312,0-1.848-.12-2.184-.12-.048,0-.1,0-.1.048s.024.048.12.168Zm32.328-1.512a2.572,2.572,0,0,1-.864-.168c-.24-.072-1.3-.6-1.464-.6-.1,0-.1.168-.1.24a3.035,3.035,0,0,0,.024.384c.072.672.12,1.848.12,2.952,0,.384-.048,2.256-.048,2.688,0,.408,0,.84.744.84s.888-.576,1.032-1.176c.072-.264.408-.264.624-.264h3.984c.216,0,.432,0,.432.24,0,.648-1.152,2.256-2.016,3.456a1.12,1.12,0,0,1-1.032.456h-2.4c-1.128,0-2.136-.024-3.312-.072-.144,0-.888-.1-1.056-.1a.064.064,0,0,0-.072.072c0,.024,0,.048.1.144l.456.552c.1.1.144.168.216.168a3.641,3.641,0,0,0,.5-.072c.24,0,.936-.048,3.048-.048h2.088c.5,0,.552,0,.552.12a28.516,28.516,0,0,1-1.752,2.448c-1.008,1.1-1.056,1.152-1.056,1.488,0,.408.528.6.864.6.552,0,.84-.24,1.56-1.2.384-.5.432-.576.72-.576.264,0,3.216.816,3.216,1.056,0,.288-3.768,2.9-7.656,3.744-.12.024-.288.072-.288.168s.168.144.336.144a19.159,19.159,0,0,0,9.12-3.144.545.545,0,0,1,.384-.144c.624,0,2.088.984,4.848,2.9a1.252,1.252,0,0,0,.576.168.881.881,0,0,0,.864-.864c0-1.176-2.5-2.3-4.44-2.928-.672-.216-.744-.24-.744-.312,0-.1.144-.24.192-.288.264-.264,1.44-1.584,1.728-1.872.12-.1.84-.576.84-.768,0-.168-.072-.192-.672-.5-.216-.12-.24-.12-.24-.192,0-.048.024-.048.216-.048h4.968c.792,0,1.272,0,1.272-.336,0-.384-2.328-1.848-2.424-1.848-.264,0-1.032,1.176-1.272,1.368-.144.12-.192.168-1.2.168h-6.7c-.336,0-.528,0-.528-.192a11.534,11.534,0,0,1,1.9-2.472c.624-.336.7-.408.7-.576,0-.216-1.1-.768-1.1-.84s.024-.072.264-.072H99.7c.24,0,.5,0,.576.408.072.5.072.552.5.552a1.11,1.11,0,0,0,1.152-.792c.024-.024.024-1.728.024-1.872a12.24,12.24,0,0,1,.1-1.92c.048-.12.48-.576.48-.7,0-.432-1.536-1.392-1.68-1.392s-.576.576-.7.672a.9.9,0,0,1-.576.144H97.752c-.6,0-.6-.456-.6-.744,0-1.1,0-1.536.624-1.536h5.136c.792,0,1.272,0,1.272-.336a6.787,6.787,0,0,0-2.376-1.7c-.216,0-.288.1-1.008,1.008-.312.408-.432.408-1.512.408H88.368c-1.128,0-2.112-.048-3.288-.1-.168,0-.888-.072-1.056-.072-.072,0-.1,0-.1.048s.024.048.1.168l.48.552c.072.1.12.144.216.144.072,0,.408-.048.5-.048.216-.024.912-.072,3.024-.072H90.36c.7,0,.7.24.7,1.488,0,.384,0,.792-.7.792Zm6.7.624a.556.556,0,0,1,.6.624c0,.36.024,2.544-.048,2.688a.628.628,0,0,1-.648.312H93.12c-.7,0-.72-.168-.72-1.8s.024-1.824.744-1.824Zm-.024-2.9c.624,0,.624.36.624,1.512,0,.216,0,.768-.624.768h-2.04c-.72,0-.72-.408-.72-.84,0-1.128,0-1.44.7-1.44Zm4.488,2.9c.624,0,.624.36.624,1.656,0,1.68,0,1.968-.624,1.968H97.752c-.624,0-.624-.36-.624-1.656,0-1.68,0-1.968.624-1.968Zm-9.36,0c.72,0,.72.024.72,2.3,0,.96,0,1.32-.72,1.32H88.56c-.7,0-.7-.072-.7-2.5,0-.624,0-1.128.648-1.128ZM96.7-6.1c.12,0,.264,0,.264.192s-1.9,2.952-2.592,2.952c-.048,0-2.808-.528-3.264-.6-.48-.072-.528-.072-.528-.216,0-.12,1.152-1.728,1.272-1.9A1.063,1.063,0,0,1,92.88-6.1Z" transform="translate(-0.864 20.376)" fill="#fff"/>
</svg>
