<svg xmlns="http://www.w3.org/2000/svg" xmlns:xlink="http://www.w3.org/1999/xlink" width="871.465" height="424.882" viewBox="0 0 871.465 424.882">
  <defs>
    <filter id="パス_38568" x="0" y="0" width="871.465" height="424.882" filterUnits="userSpaceOnUse">
      <feOffset input="SourceAlpha"/>
      <feGaussianBlur stdDeviation="14.23" result="blur"/>
      <feFlood flood-color="#fff" flood-opacity="0.749"/>
      <feComposite operator="in" in2="blur"/>
      <feComposite in="SourceGraphic"/>
    </filter>
  </defs>
  <g id="レイヤー_1" data-name="レイヤー 1" transform="translate(42.69 42.69)">
    <g transform="matrix(1, 0, 0, 1, -42.69, -42.69)" filter="url(#パス_38568)">
      <path id="パス_38568-2" data-name="パス 38568" d="M778.146,92.66c-32.228-32.036-74.609-49.748-119.408-49.94H658c-.524,0-1.049.026-1.573.026-73.778.5-115.431,29.542-152.544,63.65-6.983,6.42-41.218,37.6-81.618,74.328-26.741-48.827-91.631-138-208.725-138-45.08,0-87.756,17.738-120.15,49.953C61.005,124.862,43.011,167.4,42.73,212.439v.089c.281,44.978,18.275,87.526,50.669,119.728,32.228,32.036,74.6,49.761,119.408,49.953.141,0,7.955-.115,8.274-.128,66.412-2.059,110.559-30.207,146.6-63.317,7-6.42,41.256-37.65,81.694-74.4,26.792,48.853,91.67,137.863,208.635,137.863,45.08,0,87.756-17.738,120.15-49.966,32.381-32.2,50.375-74.737,50.656-119.766V212.4c-.281-44.965-18.275-87.513-50.656-119.7ZM213.536,45.5a206.993,206.993,0,0,1,98.627,24.4c24.5,13.1,47.242,31.447,67.576,54.531a321.044,321.044,0,0,1,40.412,58.2C365.159,232.62,299.528,292.177,275.6,313.534c-25.437,22.713-56.437,37.19-103.793,37.19-43.686,0-71.067-15.346-94.151-43.213a168.45,168.45,0,0,1-30.015-95.071c.576-92.066,74.993-166.97,165.9-166.97ZM823.879,213.181c-.959,91.721-75.223,166.228-165.9,166.228a207.065,207.065,0,0,1-98.6-24.388c-24.5-13.083-47.242-31.435-67.576-54.518a320.566,320.566,0,0,1-40.348-58.086c54.979-49.978,120.559-109.484,144.474-130.842,25.437-22.713,56.437-37.42,103.793-37.42,43.686,0,71.067,15.346,94.163,43.213a168.257,168.257,0,0,1,29.99,94.33v1.458Z" transform="translate(-0.04 -0.03)" fill="#fff" opacity="0.503"/>
    </g>
  </g>
</svg>
