<svg xmlns="http://www.w3.org/2000/svg" width="303.646" height="124.866" viewBox="0 0 303.646 124.866">
  <path id="パス_130444" data-name="パス 130444" d="M-150.15-7.9c-.056.056.1.364.238.56a2.427,2.427,0,0,0,.91.63c.056,0,1.512-.42,1.806-.42.392,0,.5.364.5,2.016,0,.7,0,1.484-.28,1.61a30.015,30.015,0,0,1-3.346.392,6.652,6.652,0,0,1-1.218-.126,3.466,3.466,0,0,0-.406-.084.088.088,0,0,0-.1.1c0,.686,1.372,1.288,1.428,1.288.112,0,.63-.21.756-.238a25.026,25.026,0,0,1,6.062-.714A5.74,5.74,0,0,1-142.1-2.7c.168.042.77.21.882.21.042,0,.518-.042.518-.294,0-.406-1.008-1.036-1.386-1.036-.154,0-.868.084-1.036.1-.378.014-2.142.14-2.422.14-.322,0-.42-.056-.42-.266,0-.028.014-.084.014-.154.084-.644.182-1.372.238-1.932.014-.07.112-.434.112-.518,0-.112-.042-.154-.378-.5a.341.341,0,0,1-.126-.21c0-.126.154-.154.21-.154.294-.028,1.722-.224,2.044-.238s.728-.028.728-.294c0-.42-.938-.714-1.372-.714-.126,0-.658.266-.784.294a16.3,16.3,0,0,1-3.5.56,5.525,5.525,0,0,1-1.176-.14A.494.494,0,0,0-150.15-7.9Zm20.44-.084a15.266,15.266,0,0,1-5.278,6.5,4.319,4.319,0,0,0-.644.518c0,.084.07.084.1.084a3.439,3.439,0,0,0,.868-.322,14.065,14.065,0,0,0,3.738-3c.308-.35.35-.392.49-.392a6.424,6.424,0,0,1,2.506,2.758c.49.868.546.966.868.966a.6.6,0,0,0,.574-.616c0-1.274-2.506-2.688-3.136-3.052-.588-.322-.616-.35-.616-.476a.46.46,0,0,1,.112-.28c.224-.322,1.33-1.96,1.61-2.3.084-.1.6-.476.6-.6,0-.35-.854-1.064-1.19-1.064a5.344,5.344,0,0,0-.77.434,19.374,19.374,0,0,1-3.836.518,2.494,2.494,0,0,1-.742-.14c-.042-.014-.35-.1-.364-.1-.07,0-.084.042-.084.112a2.857,2.857,0,0,0,.336.812,2.922,2.922,0,0,0,.952.5,6.047,6.047,0,0,0,.63-.266c.07-.028,3.01-.714,3.108-.714A.157.157,0,0,1-129.71-7.98Zm9.394-.784c-.07,0-.1.028-.1.056,0,.49,1.092,1.386,1.428,1.386a10.673,10.673,0,0,0,1.176-.406,24.509,24.509,0,0,1,5-.868c.182,0,.266.112.266.21a3.8,3.8,0,0,1-1.736,1.708,4.161,4.161,0,0,1-.546-.182,2.111,2.111,0,0,0-.756-.126c-.084,0-.294.014-.294.126,0,.056.014.084.126.308a1.789,1.789,0,0,1,.182.826,6.39,6.39,0,0,1-1.05,3.066,9.536,9.536,0,0,1-2.506,2.6c-.252.2-.28.224-.28.266s.028.07.084.07a3.645,3.645,0,0,0,.966-.406,7.644,7.644,0,0,0,3.528-4.326,7.8,7.8,0,0,1,.714-1.792,9.824,9.824,0,0,1,2.926-1.274c.49-.112.49-.266.49-.364A3.706,3.706,0,0,0-112.35-9.7a4.847,4.847,0,0,0-.574.322,41.714,41.714,0,0,1-5.8.812,6.09,6.09,0,0,1-.882-.056C-119.714-8.638-120.274-8.764-120.316-8.764Zm20.552,1.848c.266-.336.714-.84.952-1.176A4,4,0,0,1-97.86-9.24a.353.353,0,0,0,.126-.28c0-.532-1.414-1.12-1.624-1.12a.138.138,0,0,0-.14.112,1.556,1.556,0,0,0,.1.224.792.792,0,0,1,.112.392c0,.392-1.092,2.772-4.4,5.6-.224.2-.616.518-.98.84a.127.127,0,0,0-.042.1c0,.056.028.084.07.084a15.377,15.377,0,0,0,3.976-2.674c.112-.112.168-.168.238-.168.364,0,.364,1.47.364,1.974,0,.742-.056,1.82-.14,2.576-.014.14-.154.756-.154.9,0,.378.476.98.868.98.336,0,.336-.476.336-.616,0-.182-.084-.994-.1-1.162-.028-.546-.042-1.3-.042-1.68A13.517,13.517,0,0,1-99.2-5.642c.014-.084.168-.476.168-.56,0-.126-.056-.182-.6-.518A.226.226,0,0,1-99.764-6.916ZM-88.55-7.9c-.056.056.1.364.238.56a2.427,2.427,0,0,0,.91.63c.056,0,1.512-.42,1.806-.42.392,0,.5.364.5,2.016,0,.7,0,1.484-.28,1.61a30.014,30.014,0,0,1-3.346.392,6.652,6.652,0,0,1-1.218-.126,3.465,3.465,0,0,0-.406-.084.088.088,0,0,0-.1.1c0,.686,1.372,1.288,1.428,1.288.112,0,.63-.21.756-.238a25.026,25.026,0,0,1,6.062-.714A5.74,5.74,0,0,1-80.5-2.7c.168.042.77.21.882.21.042,0,.518-.042.518-.294,0-.406-1.008-1.036-1.386-1.036-.154,0-.868.084-1.036.1-.378.014-2.142.14-2.422.14-.322,0-.42-.056-.42-.266,0-.028.014-.084.014-.154.084-.644.182-1.372.238-1.932.014-.07.112-.434.112-.518,0-.112-.042-.154-.378-.5a.341.341,0,0,1-.126-.21c0-.126.154-.154.21-.154.294-.028,1.722-.224,2.044-.238s.728-.028.728-.294c0-.42-.938-.714-1.372-.714-.126,0-.658.266-.784.294a16.3,16.3,0,0,1-3.5.56,5.525,5.525,0,0,1-1.176-.14A.494.494,0,0,0-88.55-7.9Zm18.886,3.164c.028.154-.112.294-.21.406a23.943,23.943,0,0,1-3.794,3.094,5.305,5.305,0,0,0-.812.616.075.075,0,0,0,.07.07,12.879,12.879,0,0,0,5.278-3.4.7.7,0,0,1,.476-.28c.28,0,.966.574,1.218.812,1.218,1.176,1.358,1.3,1.806,1.3a.383.383,0,0,0,.378-.434c0-.756-1.344-1.638-2.128-2.03-.63-.322-.7-.35-.7-.476a11.929,11.929,0,0,1,.868-1.372c.728-1.148.812-1.274,1.092-1.456.406-.252.448-.28.448-.5a.474.474,0,0,0-.168-.364,3.461,3.461,0,0,0-1.12-.672c-.126,0-.154.028-.49.294a27.26,27.26,0,0,1-4.13.77A1.806,1.806,0,0,1-72.3-8.54c-.042-.014-.406-.168-.434-.168s-.07.056-.07.1a2.731,2.731,0,0,0,.336.728,1.456,1.456,0,0,0,1.008.714,5.933,5.933,0,0,0,.714-.294c.532-.2,2.9-.756,2.982-.756a.173.173,0,0,1,.182.2A5.21,5.21,0,0,1-68.25-6.5c-.336.546-.7,1.134-1.022,1.134a7.623,7.623,0,0,1-.868-.266,5.756,5.756,0,0,0-1.246-.224c-.2,0-.2.084-.2.112C-71.582-5.544-69.72-5.04-69.664-4.732Zm16.2-1.176c0-.8.126-.8,1.33-.8.112,0,1.134.014,1.666.07.2.028,1.106.182,1.316.182.056,0,.364-.014.364-.28,0-.238-.2-.35-.35-.448A2.943,2.943,0,0,0-50.5-7.658c-.154,0-.9.182-1.078.21a12.427,12.427,0,0,1-1.358.14c-.364,0-.546-.07-.546-.5a3.5,3.5,0,0,1,.126-1.078,2.956,2.956,0,0,0,.252-.462c0-.112-.35-.728-1.316-.728-.322,0-.476.1-.476.14,0,.07.238.294.266.364a5.122,5.122,0,0,1,.294,1.792c0,.462-.14.56-.672.588-.42.014-1.932.1-2.254.1a4.139,4.139,0,0,1-1.246-.14c-.182-.07-.21-.084-.266-.084-.084,0-.1.056-.1.126,0,.28.7,1.232,1.008,1.232a4.169,4.169,0,0,0,.56-.154c.826-.21,2.506-.448,2.59-.448.378,0,.406.252.406.924,0,.756,0,2.156-.07,2.814-.028.224-.1.378-.28.378-.1,0-.56-.182-.658-.182a.051.051,0,0,0-.056.056c0,.042.028.07.084.168a3.976,3.976,0,0,1,.518.994c.294.812.322.9.63.9.742,0,.742-.924.742-1.134C-53.4-2.254-53.466-5.236-53.466-5.908Zm4.214,4.172c.462.014.63-.448.63-.77,0-1.176-2.254-2.534-3-2.534-.028,0-.1,0-.1.07a3.225,3.225,0,0,0,.56.588A4.988,4.988,0,0,1-50.022-2.66C-49.77-2.058-49.644-1.736-49.252-1.736Zm-9.226-.322A.684.684,0,0,0-58.212-2c.924,0,1.582-1.694,1.582-2.352,0-.042-.014-.168-.07-.168s-.21.14-.28.21a11.994,11.994,0,0,1-1.372,1.078c-.406.252-.532.392-.532.658A.564.564,0,0,0-58.478-2.058Zm16.8-3.584a7.624,7.624,0,0,1-1.708-.126c-.07-.014-.406-.168-.476-.168s-.112.084-.112.168c0,.476.644,1.344,1.246,1.344.168,0,.924-.224,1.092-.252.336-.07,3.542-.252,5.474-.252.28,0,1.68.028,2,.028.588,0,1.162-.042,1.162-.434,0-.1-.126-.616-.98-.616-.07,0-.224.014-.308.014C-36.33-5.824-41.216-5.642-41.678-5.642Zm17.01-1.526c0-.714-1.484-1.19-1.582-1.19-.056,0-.07.028-.07.07a1.039,1.039,0,0,0,.056.252,3.07,3.07,0,0,1,.238,1.2,7.414,7.414,0,0,1-1.694,4.1,3.964,3.964,0,0,0-.56.742.065.065,0,0,0,.07.07,4.875,4.875,0,0,0,2.59-2.66C-25.382-5.11-24.668-7.126-24.668-7.168Zm2.464,5.04c.1-.014.224-.112.462-.378a7.779,7.779,0,0,1,.966-.9,11.762,11.762,0,0,0,3.262-4,.06.06,0,0,0-.056-.056c-.056,0-1.246,1.26-1.484,1.5a8.334,8.334,0,0,1-3.052,2.282c-.252,0-.266-.28-.266-.462,0-.462.056-2.156.112-2.534.028-.154.224-.882.224-1.05,0-.728-1.47-.98-1.54-.98-.028,0-.084.014-.084.07a3.639,3.639,0,0,0,.182.5A8.584,8.584,0,0,1-23.212-5.5c0,.35-.014,1.456-.056,1.722-.014.07-.084.434-.084.5C-23.352-2.884-22.61-2.058-22.2-2.128Zm19.46-8.456c-.1,0-.518,0-.518.14,0,.042.028.1.168.154a3.32,3.32,0,0,1,1.176.854c.238.322.42.56.714.56A.4.4,0,0,0-.84-9.3C-.84-10.108-1.988-10.584-2.744-10.584ZM-4.116-9.24c-.112,0-.238.056-.238.112s.14.182.2.224a4.056,4.056,0,0,1,.952.868c.392.532.518.644.714.644.252,0,.42-.322.42-.532C-2.072-8.414-2.856-9.24-4.116-9.24Zm-2.8,3.234a.17.17,0,0,1,.1-.21A12.049,12.049,0,0,1-5.4-6.258c.308,0,.7.042.994.07.14.014.826.126.98.126.182,0,.406-.084.406-.336,0-.574-1.6-.882-1.764-.882s-.882.224-1.05.252c-.98.14-4.606.532-5.5.532a4.141,4.141,0,0,1-.882-.1,1.232,1.232,0,0,0-.21-.07c-.07,0-.1.056-.1.14A1.225,1.225,0,0,0-11.424-5.46a8.839,8.839,0,0,0,1.008-.252,17.257,17.257,0,0,1,2.226-.42c.308,0,.336.252.336.42A9.442,9.442,0,0,1-10.6-.434a9.534,9.534,0,0,0-.742.7c0,.042.028.07.084.07a6.939,6.939,0,0,0,3.71-3.6c.126-.238.658-1.526.7-1.582s.378-.336.378-.434A4.35,4.35,0,0,0-6.916-6.006Zm-3.388-3.5c-.07.028.364,1.008,1.05,1.008.042,0,.588-.112.658-.126.21-.042,1.148-.224,1.862-.308.826-.084,1.064-.112,1.064-.518s-.5-.462-.8-.462a5.721,5.721,0,0,0-1.12.168,8.639,8.639,0,0,1-1.988.35C-9.688-9.394-10.3-9.506-10.3-9.506ZM8.12-5.446c.7-.9.784-.994,1.092-1.456a1.6,1.6,0,0,1,.434-.448A.33.33,0,0,0,9.758-7.6c0-.476-1.19-.966-1.344-.966a.153.153,0,0,0-.154.14,1.671,1.671,0,0,0,.112.224.735.735,0,0,1,.1.336c0,.35-1.078,2.506-3.864,4.8-.14.112-.56.462-.56.532a.079.079,0,0,0,.084.084,10.051,10.051,0,0,0,3.136-2.1c.224-.2.252-.224.294-.224.28,0,.28,1.19.28,1.54A17.553,17.553,0,0,1,7.686-.826a2.957,2.957,0,0,0-.07.5c0,.28.364.826.7.826.308,0,.308-.42.308-.532,0-.154-.084-.868-.084-1.008-.028-.532-.028-.98-.028-1.344A14.425,14.425,0,0,1,8.568-4.4c.014-.084.14-.406.14-.476,0-.182-.294-.322-.532-.476A.142.142,0,0,1,8.12-5.446ZM22.47-7.84c0-.826-1.176-1.624-2.674-1.624-.2,0-.308.07-.308.126s.07.1.126.126a3.153,3.153,0,0,1,1.274,1.148c.462.7.6.924.98.924A.618.618,0,0,0,22.47-7.84Zm5.824-.126a.09.09,0,0,0-.07-.07c-.028,0-.42.392-.644.616-2.324,2.3-6.034,4.774-6.72,4.774a2.317,2.317,0,0,1-.952-.322,3.485,3.485,0,0,0-.42-.266c-.126,0-.14.644-.14.742,0,.56,1.036,1.456,1.792,1.456.21,0,.238-.028.5-.35a9.776,9.776,0,0,1,1.372-1.148A19.049,19.049,0,0,0,28.294-7.966Zm8.778-1.316c.112.84-1.218,2.772-2.352,3.906a11.873,11.873,0,0,0-1.106,1.05c0,.042.028.084.1.084a4.278,4.278,0,0,0,1.344-.742,10.525,10.525,0,0,0,1.9-1.82c.588-.672.616-.7.882-.7.084,0,.462.042.546.042.336,0,2.268-.434,2.3-.434a.151.151,0,0,1,.154.154,17.485,17.485,0,0,1-6.93,7.56c-.434.238-.476.266-.476.322a.125.125,0,0,0,.126.126,9.577,9.577,0,0,0,2.786-1.344,17.119,17.119,0,0,0,5.012-5.264c.49-.756.546-.84.7-.938.462-.28.56-.336.56-.532a.507.507,0,0,0-.266-.35c-.07-.042-.434-.238-.518-.28-.574-.336-.644-.378-.77-.378A2.616,2.616,0,0,0,40.4-8.6a7.924,7.924,0,0,1-2.128.56c-.056,0-.224,0-.224-.112,0-.07.042-.126.112-.224.28-.35.42-.532.42-.7a1.308,1.308,0,0,0-1.3-.784c-.112,0-.308,0-.308.14C36.974-9.66,37.058-9.352,37.072-9.282Zm5.348-2.366c-.14,0-.5.084-.5.2,0,.042.042.112.182.154a3.283,3.283,0,0,1,1.288.686c.308.322.448.462.742.462a.379.379,0,0,0,.35-.406c0-.14,0-.462-.574-.8A2.583,2.583,0,0,0,42.42-11.648Zm-.966,1.2c-.126,0-.238.07-.238.126s.14.154.21.2a4.421,4.421,0,0,1,.994.826c.434.518.546.6.742.6.238,0,.406-.308.406-.546C43.568-9.408,43.246-10.444,41.454-10.444ZM55.09-7.98a15.266,15.266,0,0,1-5.278,6.5,4.319,4.319,0,0,0-.644.518c0,.084.07.084.1.084a3.439,3.439,0,0,0,.868-.322,14.065,14.065,0,0,0,3.738-3c.308-.35.35-.392.49-.392a6.424,6.424,0,0,1,2.506,2.758c.49.868.546.966.868.966a.6.6,0,0,0,.574-.616c0-1.274-2.506-2.688-3.136-3.052-.588-.322-.616-.35-.616-.476a.46.46,0,0,1,.112-.28c.224-.322,1.33-1.96,1.61-2.3.084-.1.6-.476.6-.6,0-.35-.854-1.064-1.19-1.064a5.345,5.345,0,0,0-.77.434,19.374,19.374,0,0,1-3.836.518,2.494,2.494,0,0,1-.742-.14c-.042-.014-.35-.1-.364-.1-.07,0-.084.042-.084.112a2.857,2.857,0,0,0,.336.812,2.922,2.922,0,0,0,.952.5,6.047,6.047,0,0,0,.63-.266c.07-.028,3.01-.714,3.108-.714A.157.157,0,0,1,55.09-7.98ZM74.83-5.348c.448,0,.742,0,.742-.2s-1.134-.9-1.232-.9c-.126,0-.518.532-.63.63s-.168.1-.742.1h-.616c-.462,0-.462-.168-.462-.686a18.294,18.294,0,0,1,.056-1.834c.084-.154.21-.182.406-.182h1.974c.462,0,.742,0,.742-.2a4.035,4.035,0,0,0-1.162-.924c-.14,0-.574.56-.686.658s-.2.1-.518.1h-.336c-.322,0-.462-.07-.462-.434a15.143,15.143,0,0,1,.084-1.652c.014-.056.238-.28.238-.35,0-.154-1.26-.434-1.3-.434a.06.06,0,0,0-.056.056c0,.126.126,1.106.14,1.316.014.112.028.952.028,1.12,0,.378-.28.378-.406.378H69.552c-.07,0-.182-.014-.182-.126,0-.014.168-.406.252-.616.2-.448.21-.5.35-.546.252-.084.35-.112.35-.21,0-.2-1.3-.574-1.344-.574-.1,0-.112.028-.14.322a12.172,12.172,0,0,1-.8,2.842c-.07.168-.462,1.05-.462,1.078s.028.042.042.042a5.117,5.117,0,0,0,1.232-1.5c.182-.322.21-.35.5-.35h1.26c.308,0,.378.1.406.294.042.224.042,1.61.042,1.946,0,.378-.1.462-.49.462H70.14c-.658,0-1.666-.056-1.778-.056-.084,0-.518-.042-.616-.042-.028,0-.056,0-.056.028s.014.028.07.1l.266.322c.042.056.07.084.126.084s.252-.028.294-.028c.322-.028,1.064-.042,1.4-.042.308,0,.532,0,.532.294a11.686,11.686,0,0,1-3,4.34,3.015,3.015,0,0,0-.476.5c0,.042.056.056.084.056a2.321,2.321,0,0,0,.5-.238,10.147,10.147,0,0,0,3.318-3.654c.112-.182.14-.21.2-.21s.084.056.084.266c0,.028-.042,2.24-.056,2.926-.014.49-.112,1.288-.112,1.778,0,.2.084.294.294.294a1.045,1.045,0,0,0,.574-.182c.112-.084.14-.21.14-.434,0-.686-.028-4.032-.028-4.788,0-.07,0-.154.056-.154.028,0,.056.042.056.056.042.1.2.574.238.672a9.924,9.924,0,0,0,2.2,3.542,3.268,3.268,0,0,0,.63-.378A1.819,1.819,0,0,1,75.8-.812c.042,0,.14,0,.14-.07s-.322-.252-.532-.378a7.394,7.394,0,0,1-3.3-3.892c0-.2.2-.2.35-.2ZM67.2-7.56c.322,0,.616,0,.616-.168a3.427,3.427,0,0,0-1.05-.8c-.112,0-.154.084-.294.35a.415.415,0,0,1-.364.238c-.28,0-.294-.182-.294-.266,0-.168.1-1.932.1-2.17s.028-.322.168-.434.182-.14.182-.238c0-.14-.1-.182-.378-.252a8.717,8.717,0,0,0-.9-.266c-.028,0-.042.028-.042.056,0,.07.1,1.05.1,1.26,0,2.31,0,2.31-.378,2.31-.294,0-1.582-.1-1.806-.1a.037.037,0,0,0-.042.042c0,.014.014.028.056.084l.224.322c.028.056.056.1.1.1a1.578,1.578,0,0,0,.252-.042c.266-.014.84-.028.966-.028s.434,0,.434.336a21.227,21.227,0,0,1-1.316,4.2c-.084.182-.518,1.12-.518,1.148a.03.03,0,0,0,.028.028c.42,0,1.862-2.87,1.9-2.87s.042.154.042.182c0,.42-.042,3.612-.056,3.948C64.918-.434,64.89.56,64.89.686A.27.27,0,0,0,65.2.98a.617.617,0,0,0,.644-.658c0-.434-.056-2.59-.042-3.08,0-.42-.014-2.464-.014-2.926,0-.266.084-.322.14-.322.2,0,.56.658.7.924.294.574.364.728.6.728.35,0,.364-.518.364-.574,0-.742-.784-1.036-1.134-1.176-.574-.21-.672-.28-.672-.56,0-.8,0-.9.49-.9ZM81.1-8.61c-.658,0-1.274-.014-1.918-.042-.084-.014-.518-.056-.616-.056-.042,0-.056.014-.056.042s0,.028.056.084l.28.322c.042.056.07.1.112.1a2.324,2.324,0,0,0,.308-.042c.49-.028,1.442-.028,1.764-.028h3.78c.35,0,.378.084.462.6C86.17-2.268,89.1.714,90.328.714a.318.318,0,0,0,.364-.35.768.768,0,0,0-.14-.392A1.042,1.042,0,0,1,90.4-.6c0-.294.182-1.806.182-1.848s0-.1-.042-.1c-.07,0-.336.616-.406.742-.182.336-.42.742-.616.742-.42,0-1.946-1.764-2.814-4.466a18.6,18.6,0,0,1-.56-2.478c0-.2.084-.224.322-.224h3.71c.49,0,.742,0,.742-.21,0-.238-1.134-1.05-1.344-1.05-.14,0-.182.056-.616.644-.182.238-.252.238-.9.238H86.436c-.35,0-.462,0-.476-1.484,0-.644,0-.714.154-.868.126-.14.14-.154.14-.238,0-.182-.182-.238-.546-.308a6.079,6.079,0,0,0-.98-.154c-.042,0-.1,0-.1.042,0,.154.168.868.2,1.022.042.224.266,1.708.266,1.82s-.056.168-.294.168Zm3.276,3.682c.476,0,.756,0,.756-.182a2.435,2.435,0,0,0-1.022-.966c-.14,0-.56.672-.714.742a2.259,2.259,0,0,1-.672.042H81.62c-.644,0-1.274-.014-1.918-.042-.084-.014-.518-.056-.616-.056-.028,0-.056.014-.056.028s.014.042.07.1l.266.322c.042.056.07.1.126.1.028,0,.168-.028.2-.028a10.919,10.919,0,0,1,1.274-.042c.14,0,.392,0,.406.336,0,.056.014,1.246.014,1.358,0,.168-.014,1.89-.028,2a.283.283,0,0,1-.126.2,17.756,17.756,0,0,1-1.932.28c-.434.042-.476.056-.476.112s.392,1.512.546,1.512c.084,0,.378-.35.462-.392A17.646,17.646,0,0,1,82.39-.378,18.1,18.1,0,0,0,86.142-1.9c0-.042-.056-.042-.07-.042s-3.192.714-3.4.714c-.238,0-.238-.14-.238-.994s.056-2.324.084-2.464c.056-.224.294-.238.392-.238Zm2.632-6.538c-.014.028.042.084.084.112a6.979,6.979,0,0,1,1.078,1.246c.294.42.322.462.476.462a.517.517,0,0,0,.574-.574c0-.812-1.932-1.288-2.128-1.288C87.066-11.508,87.01-11.494,87.01-11.466Zm6.72,5.978a13.883,13.883,0,0,0,6.132-4.494c.112-.14.336-.42.392-.42s.084.042.238.336a13.164,13.164,0,0,0,4.872,4.942c.084,0,.126-.042.182-.14a1.642,1.642,0,0,1,.9-.574c.35-.112.392-.126.392-.21s0-.07-.392-.182c-3.318-.938-5.8-4.046-5.8-4.48,0-.056.014-.1.1-.14.14-.1.168-.112.168-.182,0-.238-1.3-.854-1.316-.854-.168,0-.168.056-.28.49A11.467,11.467,0,0,1,95.97-7.378c-.91.77-2.058,1.582-2.156,1.652-.168.112-.21.14-.21.2S93.688-5.474,93.73-5.488Zm4.606,1.876c.238,0,.42,0,.42.238a9.8,9.8,0,0,1-.728,1.848c-.574,1.148-.672,1.148-1.456,1.148a7.42,7.42,0,0,1-.826-.056c-.084-.014-.518-.1-.616-.1-.042,0-.112,0-.112.1a11.06,11.06,0,0,0,.77,1.484.159.159,0,0,0,.14.1,2.927,2.927,0,0,0,.406-.224,61.286,61.286,0,0,1,6.5-1.288c.2,0,.322.042.588.518s.546.98.952.98c.266,0,.546-.308.546-.756,0-.882-.868-1.386-1.246-1.61a13.022,13.022,0,0,0-1.778-.868c-.042,0-.1.014-.1.084,0,.168.826.882.826,1.092,0,.14-.112.154-1.12.252-1.554.154-2.87.238-3.052.238-.056,0-.252-.014-.252-.14s.14-.266.2-.336c.084-.084.658-.77.952-1.162.35-.462.378-.5.49-.546.42-.112.42-.112.42-.238,0-.154-.658-.714-.658-.714,0-.042.056-.042.2-.042h4.284c.658,0,.728,0,.728-.182,0-.126,0-.14-.714-.728-.322-.266-.364-.294-.476-.294s-.182.084-.392.378c-.336.462-.49.462-1.078.462h-4.62c-.49,0-1.232-.028-1.918-.056-.084,0-.518-.042-.616-.042-.028,0-.056,0-.056.028s.042.056.07.1l.266.322c.056.056.07.084.126.084s.252-.028.294-.028c.378-.028.728-.042,1.764-.042Zm.644-2.6c-.56,0-1.232-.014-1.918-.056-.084,0-.518-.042-.616-.042-.028,0-.042.014-.042.028s0,.042.056.1l.266.322c.056.056.084.084.126.084s.252-.028.294-.028c.518-.042.924-.042,1.778-.042h3.22c.672,0,.742,0,.742-.154a3.8,3.8,0,0,0-1.064-1.05c-.07,0-.238.21-.462.476-.28.336-.308.364-.994.364ZM113.988.5c.056.07.084.1.126.1s.252-.042.294-.042c.49-.042,1.428-.028,1.764-.028h4.97c.462,0,.756,0,.756-.2,0-.238-1.232-1.148-1.358-1.148-.168,0-.21.056-.588.546a.87.87,0,0,1-.826.42h-.518c-.364,0-.364-.252-.364-.77,0-.938-.042-5.04-.042-5.88,0-.252.028-.462.406-.462h1.946c.448,0,.742,0,.742-.182,0-.266-.98-1.176-1.176-1.176-.126,0-.168.056-.574.6-.294.392-.364.392-1.022.392-.336,0-.336-.266-.336-.434,0-.378.042-2.7.126-2.9.028-.07.308-.308.308-.378,0-.238-.294-.308-.42-.35-.1-.028-.966-.294-1.008-.294-.084,0-.112.028-.112.1,0,.112.084.6.084.714.07,1.05.1,1.68.1,2.968,0,.392-.028.574-.364.574-.476,0-1.61-.056-1.75-.056-.07,0-.574-.042-.588-.042s-.042,0-.042.028,0,.028.056.1l.266.322c.056.056.084.084.126.084s.252-.028.294-.028c.49-.042,1.3-.042,1.652-.042s.336.294.336.434c0,.728-.028,6.118-.056,6.37-.028.308-.28.308-.406.308h-.546c-.784,0-1.512-.028-1.918-.042-.1,0-.532-.056-.616-.056a.045.045,0,0,0-.042.042c0,.014,0,.014.056.084ZM109.41-8.064c.042.056.07.084.126.084s.252-.028.294-.028c.49-.028,1.078-.042,1.624-.042h.98c.126,0,.224.014.224.14a17.241,17.241,0,0,1-2.534,3.43,14.09,14.09,0,0,0-1.218,1.246c0,.042.042.042.07.042.364,0,2.184-1.582,2.324-1.582s.14.238.14.392c0,1.652-.056,3.108-.084,4.144,0,.154-.056.8-.056.938,0,.2.084.336.42.336a.668.668,0,0,0,.742-.644c0-.2-.07-1.064-.07-1.246,0-.574-.014-3.164-.014-3.7,0-.168,0-.364.126-.364.266,0,.728.714.812.868.364.742.518,1.022.854,1.022.252,0,.49-.21.49-.644,0-1.064-1.316-1.442-1.792-1.554-.336-.07-.462-.1-.462-.392,0-.252.042-.294.448-.714a16.114,16.114,0,0,1,1.3-1.4c.042-.014.238-.056.28-.07a.21.21,0,0,0,.154-.182c0-.084-.028-.112-.336-.406-.042-.028-.336-.378-.5-.546a.265.265,0,0,0-.2-.1c-.126,0-.532.42-.63.476a.5.5,0,0,1-.336.1c-.14,0-.224-.028-.224-.224V-9.856c0-.588,0-.658.07-.784.028-.056.28-.266.28-.322,0-.1-.084-.154-.154-.2a10.763,10.763,0,0,0-1.26-.378c-.014,0-.056,0-.056.028,0,.084.07.406.07.476.042.532.056,1.358.056,1.568,0,.938,0,1.036-.392,1.036-.294,0-1.582-.084-1.848-.084-.014,0-.056,0-.056.028s.014.028.07.1Zm20.216.182c-.476,0-.756.1-1.932,1.036a5.315,5.315,0,0,1-2.282,1.078c-.238.028-.266.042-.266.1,0,.238.826.9,1.358.9a.387.387,0,0,0,.224-.07c.028-.014,1.05-.98,1.148-1.078,1.148-1.12,1.274-1.246,1.736-1.246.224,0,.462.182.784.49s1.806,1.806,2.142,2.128c2.086,2,3.346,2.044,3.472,2.044.392,0,.518-.448.518-.532,0-.406-.574-.714-1.232-1.022a11.974,11.974,0,0,1-3.92-2.688C130.452-7.672,129.99-7.882,129.626-7.882ZM146.608-9.52a3.606,3.606,0,0,1,3.878,3.878c0,3.486-3.038,4.69-4.494,5.264-.35.14-.378.154-.378.2,0,.084.084.1.14.1A8.6,8.6,0,0,0,148.078-.6a5.221,5.221,0,0,0,3.528-4.928A4.388,4.388,0,0,0,149.17-9.6a4.561,4.561,0,0,0-2.254-.448,5.792,5.792,0,0,0-4.466,1.82,4.932,4.932,0,0,0-1.554,3.57c0,1.708.826,3.15,1.75,3.15.56,0,1.274-.336,2.394-2.044a7.181,7.181,0,0,0,1.442-4.1,10.731,10.731,0,0,0-.14-1.512c0-.056-.028-.112-.028-.154C146.314-9.408,146.328-9.52,146.608-9.52Zm-.784.042c.182,0,.238.07.238.91a8.008,8.008,0,0,1-1.372,4.074c-.966,1.456-1.3,1.624-1.708,1.624-.854,0-1.218-1.246-1.218-2.156A4.834,4.834,0,0,1,145.824-9.478ZM-49.756,20.188a1.791,1.791,0,0,0-1.512.882c0,.042.014.056.056.056a.313.313,0,0,0,.14-.042,1.216,1.216,0,0,1,.546-.14c.476,0,1.176.2,1.176.756a.737.737,0,0,1-.056.252.965.965,0,0,0-.042.112.065.065,0,0,0,.07.07c.056,0,.35-.084.42-.1s.392.028.476.028c.294,0,.462-.378.462-.672C-48.02,20.748-48.678,20.188-49.756,20.188Zm-5.138-.406c-.028.014-.056.042-.056.056s.07.168.07.2c0,.2-.392.35-.49.35s-.112-.1-.112-.154a7.479,7.479,0,0,1,.14-.91,5.643,5.643,0,0,0,.294-.728,1.4,1.4,0,0,0-1.442-.952c-.084,0-.308.028-.308.154a1.4,1.4,0,0,0,.2.224,1.375,1.375,0,0,1,.462,1.12,10.469,10.469,0,0,1-.14,1.526,6.115,6.115,0,0,1-1.778.42,4.068,4.068,0,0,1-.644-.07c-.042,0-.21-.056-.252-.056a.1.1,0,0,0-.112.1c0,.1.532,1.064,1.008,1.064a3,3,0,0,0,.994-.266,3.274,3.274,0,0,1,.644-.126c.154,0,.2.21.2.308.014.238.028,1.428.028,1.75,0,.392-.084.434-.8.784a2.992,2.992,0,0,1-1.456.476c-.084,0-.49-.07-.574-.07-.252,0-.406.294-.406.546,0,.462.714.882.868.882a2.766,2.766,0,0,0,.532-.28,1.167,1.167,0,0,1,.35-.084c.182,0,.252,0,.7.868.112.224.266.518.644.518.5,0,.714-.924.714-1.568,0-.14-.042-.77-.042-.924,0-.238.084-.28.868-.7a7.151,7.151,0,0,1,2.9-1.05,1.45,1.45,0,0,1,1.344,1.54c0,1.12-1.176,1.736-2.1,1.736-.14,0-.91,0-.91-.672a.579.579,0,0,1,.126-.378c.028-.042.056-.07.056-.112a.075.075,0,0,0-.07-.07,1.248,1.248,0,0,0-.7,1.106c0,.728.644,1.134,1.442,1.134,1.148,0,3.094-.84,3.094-2.688a2.144,2.144,0,0,0-2.156-2.114,6.579,6.579,0,0,0-2.38.56c-.224.084-1.372.56-1.414.56-.126,0-.126-.168-.126-.252s0-1.2.028-1.512c.028-.49.042-.546.238-.616.336-.14,1.4-.56,1.4-1.022C-54.026,19.95-54.7,19.754-54.894,19.782ZM-56.28,25.1c.042.028.042.168.042.224,0,.686-.2,1.078-.392,1.078s-.588-.448-.588-.658S-56.322,25.1-56.28,25.1Zm15.554-5.8c.21,0,.35,0,.378.2v.966c0,.308-.14.308-.378.308h-1.862c-.21,0-.336,0-.378-.21v-.952c0-.308.14-.308.378-.308Zm4.228-2.1a.9.9,0,0,1-.392-.1,1.842,1.842,0,0,0-.672-.252c-.126,0-.154.154-.154.224,0,.238.07,1.288.07,1.5,0,.434-.014,2.646-.014,2.758.014.42.238.448.35.448a.642.642,0,0,0,.644-.448c.056-.2.224-.2.42-.2h1.806c.308,0,.462,0,.462.406,0,.784-.028,4.242-.028,4.942,0,1.036,0,1.148-.574,1.148-.14,0-.7-.028-.826-.028-.1,0-.154.028-.154.07,0,.07.742.434.868.56a.742.742,0,0,1,.2.56c0,.07.112.126.182.126a1.934,1.934,0,0,0,.882-.448,1.69,1.69,0,0,0,.35-1.316c0-.406-.028-2.212-.028-2.576v-6.4a.579.579,0,0,1,.224-.532c.084-.07.168-.154.168-.238,0-.252-.812-.714-.924-.714s-.126.042-.406.364a.331.331,0,0,1-.336.14Zm-6.2,0a.667.667,0,0,1-.406-.1,1.917,1.917,0,0,0-.784-.322c-.056,0-.056.084-.056.14,0,.126.112,1.414.112,1.68,0,4.34-.014,4.872-.154,9.646,0,.042-.014.182-.014.252,0,.336.126.476.364.476a.8.8,0,0,0,.756-.91c0-.154-.042-.854-.042-.994-.028-1.022-.042-4.228-.042-4.97,0-.868,0-.966.448-.966h1.694c.182,0,.392,0,.434.2s.084.42.392.42c.658,0,.658-.728.658-.91s-.056-1.946-.056-2.3c0-.5,0-.546.1-.644.042-.042.322-.21.322-.266,0-.252-.7-.868-.924-.868-.112,0-.2.084-.434.294a.385.385,0,0,1-.35.14Zm2,.364c.308,0,.364.042.364.364v.812c-.028.182-.182.2-.364.2h-1.9c-.238,0-.364-.014-.364-.308V17.85c0-.266.126-.28.364-.28Zm4.382,1.372c-.224,0-.336,0-.378-.14a3.422,3.422,0,0,1-.028-.826c0-.392.07-.406.406-.406h1.932c.224,0,.336,0,.378.126a3.608,3.608,0,0,1,.028.84c0,.392-.084.406-.406.406Zm0,1.82c-.28,0-.392,0-.392-.308v-.826c0-.322.112-.322.392-.322h1.946c.28,0,.392,0,.392.322v.826c0,.308-.112.308-.392.308Zm-3.29,2.576a.855.855,0,0,1-.462-.126c-.7-.322-.742-.322-.826-.322-.056,0-.07.056-.07.112s.042.35.056.434c.042.378.028,1.2.028,1.554,0,.56-.028.938-.056,1.54-.014.126-.028.5-.028.6,0,.308.07.518.322.518a.811.811,0,0,0,.728-.7c.028-.392.028-.462.448-.462h1.778c.238,0,.448,0,.448.336,0,.168.056.392.28.392a1.046,1.046,0,0,0,.616-.364c.112-.14.126-.308.126-.658,0-.322-.028-1.722-.014-2a.39.39,0,0,1,.112-.266c.126-.126.21-.2.21-.28,0-.28-.7-.784-.854-.784s-.2.084-.392.336a.363.363,0,0,1-.35.14Zm.154,2.772c-.294,0-.49-.028-.49-.266V24.15c0-.392.084-.434.49-.434h1.792c.224,0,.392,0,.462.168.028.084.042.994.042,1.162a6.013,6.013,0,0,1-.042.9c-.056.168-.252.168-.462.168Zm11.97-7.308c-.028,0-.084.014-.084.056a1.891,1.891,0,0,0,.112.476,3.889,3.889,0,0,1,.1.812c0,.364-.2,2.086-.2,2.478,0,2.674,1.764,4.144,2.66,4.144.238,0,.532-.154.532-.434a3.512,3.512,0,0,0-.112-.462,1.89,1.89,0,0,1-.084-.56,3.928,3.928,0,0,1,.182-1.064,1.68,1.68,0,0,0,.042-.28c0-.056-.028-.112-.07-.112-.112,0-.35.336-.434.476-.42.7-.476.77-.714.77-.434,0-1.162-1.022-1.162-2.436a4.945,4.945,0,0,1,.336-1.806,1.918,1.918,0,0,0,.168-.56C-26.208,19.922-26.838,18.8-27.482,18.8ZM-20.8,20.09c-.07,0-.126.028-.126.07,0,.084.56.518.672.63.742.742.742,1.33.742,2.492,0,.182,0,.938.686.938s.7-.658.7-.924a3.484,3.484,0,0,0-1.246-2.674A2.725,2.725,0,0,0-20.8,20.09Zm10.668,3.948a1.273,1.273,0,0,1-.574-.084,7.142,7.142,0,0,0-.84-.378c-.126,0-.126.112-.126.154s.07.378.07.434c.042.252.028,1.064.028,1.358,0,.5-.126,3.08-.126,3.164a.328.328,0,0,0,.364.364,1.293,1.293,0,0,0,.742-.28c.1-.1.1-.14.1-.518s.28-.378.42-.378h4.228c.364,0,.364.154.364.742,0,.1,0,.364.308.364.2,0,.9-.182.9-.56s-.084-2.338-.084-2.772c0-.21.014-.84.154-.966s.182-.168.182-.294c0-.238-.826-.882-.91-.882s-.462.406-.546.476a.6.6,0,0,1-.308.056Zm.042,3.472c-.406,0-.42-.252-.42-.434,0-.322.014-1.89.014-2.24,0-.21.028-.434.434-.434H-5.81c.392,0,.392.266.392.434,0,.322-.014,1.89-.014,2.24,0,.168,0,.434-.406.434Zm1.428-11.48c-.042.028-.266.77-.336.91a18,18,0,0,1-3.416,4.69c-.252.252-1.61,1.456-1.61,1.526,0,.042.042.084.112.084.364,0,3.57-2.1,5.88-5.446.28-.406.308-.448.378-.448s.28.448.364.63a10.654,10.654,0,0,0,2.632,3.7,5.618,5.618,0,0,0,2.03,1.54c.056,0,.126-.07.182-.126a1.809,1.809,0,0,1,.882-.392c.434-.1.49-.112.49-.238,0-.1,0-.1-.448-.266a11.516,11.516,0,0,1-3.528-2.156,9.866,9.866,0,0,1-2.184-2.94.127.127,0,0,1,.056-.112c.112-.084.154-.1.154-.182a.107.107,0,0,0-.028-.07A6.39,6.39,0,0,0-8.666,16.03Zm.308,5.824c-.658,0-1.246,0-1.932-.042-.084,0-.518-.056-.616-.056-.028,0-.042.014-.042.028s0,.042.056.1l.266.322c.056.056.084.084.126.084s.252-.028.294-.028c.406-.028.784-.042,1.778-.042H-5.8c.42,0,.756,0,.756-.168a5.329,5.329,0,0,0-1.274-1.008c-.126,0-.56.588-.672.686-.154.126-.322.126-.826.126ZM6.188,19.488c0-.154.042-.588.07-.812.028-.182.21-1.064.21-1.274,0-.462-.952-1.036-1.33-1.036-.14,0-.476.07-.476.182,0,.056.028.084.266.364a2.65,2.65,0,0,1,.56,1.974,4.615,4.615,0,0,1-.126,1.19A4.663,4.663,0,0,1,5,20.412c-.938.868-1.022.882-1.26.924-.574.084-.952.14-.952.616,0,.252.042.308.49.868A2.453,2.453,0,0,1,3.822,23.9a10.585,10.585,0,0,1-.7,1.358c-.35.588-.42.714-.42.952,0,.28.168.392.336.392.5,0,.8-.574,1.008-.98.112-.224.294-.574.364-.574.336,0,.42,1.33.448,1.624.056.854.1,1.358.49,1.358a.854.854,0,0,0,.616-.812c0-.084-.056-.546-.07-.658-.056-.742-.07-2.52-.07-2.828,0-.952.084-1.19.266-1.4a5.65,5.65,0,0,1,3.668-1.442,2.024,2.024,0,0,1,2.114,2.17c0,2.086-2.03,3.626-2.73,4.1-.154.112-1.036.6-1.036.644s.028.028.056.028c.322,0,4.8-1.092,4.8-4.452a2.894,2.894,0,0,0-3.178-2.94,5.822,5.822,0,0,0-2.828.812,2.8,2.8,0,0,1-.406.21.064.064,0,0,1-.056-.07.777.777,0,0,1,.1-.266,1.538,1.538,0,0,0,.2-.672c0-.1,0-.322-.364-.546C6.2,19.768,6.188,19.754,6.188,19.488Zm-.938,1.6c.056.014.056.084.056.2,0,.5,0,.532-.868,1.806-.154.224-.2.294-.28.294-.154,0-.658-.9-.658-1.092s.14-.2.588-.224a.837.837,0,0,0,.6-.49C4.928,21.168,5.166,21.07,5.25,21.084Zm-.1,2.464c.042,0,.07.028.07.084,0,.644,0,1.4-.168,1.4-.126,0-.406-.364-.406-.546A2.145,2.145,0,0,1,5.152,23.548Zm20.8-4.942a1.133,1.133,0,0,0-1.19-.98c-.07,0-.308.014-.308.154,0,.028.252.5.266.518a2.063,2.063,0,0,1,.168.966c0,.182-.028.854-.07,1.134s-.154.308-1.022.448c-.364.056-2.128.448-2.226.448-.182,0-.182-.112-.182-.406a7.725,7.725,0,0,1,.07-1.078,2.864,2.864,0,0,0,.07-.434c0-.49-.868-.882-1.2-.882-.168,0-.406.07-.406.2,0,.056.28.546.322.658a3.413,3.413,0,0,1,.224,1.47c0,.518-.014.644-.238.714a6.557,6.557,0,0,1-1.778.2c-.126,0-.714-.056-.854-.056s-.182.014-.182.2c0,.77,1.134,1.036,1.442,1.036.21,0,1.176-.434,1.414-.434s.252.14.252,1.316c0,2.66,0,3.78,4,3.78.322,0,1.6,0,1.6-.658a.729.729,0,0,0-.756-.6,4.418,4.418,0,0,0-.672.1,6.306,6.306,0,0,1-1.232.112c-1.96,0-2.212-.658-2.212-1.974,0-.042.028-1.316.042-1.778a1.126,1.126,0,0,1,.126-.574,10.065,10.065,0,0,1,3.01-.868c.21,0,.21.07.21.182a6.218,6.218,0,0,1-.406,1.6.5.5,0,0,1-.476.364c-.126,0-.756-.252-.91-.252-.028,0-.07,0-.07.028a1.677,1.677,0,0,0,.182.294,5.085,5.085,0,0,1,.266.616c.126.406.182.56.658.56.5,0,1.26-.714,1.526-2.786.084-.728.1-.756.91-.756.252,0,1.47.154,1.75.154s.686-.1.686-.462c0-.28-.21-.5-1.092-.756a7.541,7.541,0,0,0-1.008-.252c-.028,0-.112,0-.112.056a.115.115,0,0,0,.056.084c.252.238.28.266.28.35,0,.154-.126.168-.434.2-.112,0-.6.056-.658.056s-.154,0-.154-.07.014-.182.112-1.12C25.76,19.278,25.956,18.634,25.956,18.606ZM41.51,25.872c.252-.126.98.462,1.386.952.336.42.378.476.546.476a.55.55,0,0,0,.5-.56c0-.826-1.47-1.484-2.156-1.778-.35-.154-.392-.252-.448-.77-.042-.378-.14-1.96-.14-2.268,0-.6,0-.616.518-.84s1.456-.63,1.456-1.288c0-.588-.462-.6-1.078-.63-.084,0-.812-.028-.812-.448a.607.607,0,0,1,.084-.294c.14-.224.154-.252.154-.35,0-.532-.938-.728-1.218-.728s-.476.154-.476.238.378.406.434.476c.266.322.266.714.266,1.6,0,.924,0,.924-.77.924a4.19,4.19,0,0,1-1.568-.28,2.435,2.435,0,0,0-.378-.2c-.056,0-.07.056-.07.1a1.988,1.988,0,0,0,2.072,1.246,4.643,4.643,0,0,1,.644.028.465.465,0,0,1,.112.336c.014.392.056,1.876.056,1.96,0,.868,0,.966-.35.966-2.87.042-2.87,1.526-2.87,1.722a1.586,1.586,0,0,0,1.75,1.4,2.309,2.309,0,0,0,2.086-1.33C41.286,26.432,41.412,25.914,41.51,25.872Zm-.2-6.482a.3.3,0,0,1,.168-.056c.2,0,.658.182.658.434,0,.322-.532.49-.728.49-.1,0-.21,0-.21-.532A.424.424,0,0,1,41.314,19.39ZM39.48,25.466c.9,0,1.092.112,1.092.35,0,.476-.854,1.148-1.68,1.148-.49,0-.924-.238-.924-.616C37.968,25.942,38.682,25.466,39.48,25.466Zm-3.99.518c0-.406.392-2.422.392-2.87,0-.028,0-.126-.056-.126a7.053,7.053,0,0,0-.574,1.4c-.252.77-.266.826-.392.826-.336,0-.336-.9-.336-.98a9.355,9.355,0,0,1,.5-2.814c.112-.35.728-2.072.728-2.184,0-.252-.7-1.652-1.484-1.652-.084,0-.252.028-.252.112a2.812,2.812,0,0,0,.266.49,1.982,1.982,0,0,1,.322,1.162,9.431,9.431,0,0,1-.42,2.226,10.694,10.694,0,0,0-.364,2.744c0,2.17.7,3.57,1.4,3.57.322,0,.462-.266.462-.574C35.686,27.118,35.49,26.194,35.49,25.984ZM50.778,28.14c0-1.3-2.38-2.03-2.87-2.03-.112,0-.154.056-.154.1s.154.14.2.168a3.958,3.958,0,0,1,1.47,1.5c.462.84.518.938.812.938A.673.673,0,0,0,50.778,28.14ZM-111.811,48.188a1.791,1.791,0,0,0-1.512.882c0,.042.014.056.056.056a.313.313,0,0,0,.14-.042,1.216,1.216,0,0,1,.546-.14c.476,0,1.176.2,1.176.756a.737.737,0,0,1-.056.252.965.965,0,0,0-.042.112.065.065,0,0,0,.07.07c.056,0,.35-.084.42-.1s.392.028.476.028c.294,0,.462-.378.462-.672C-110.075,48.748-110.733,48.188-111.811,48.188Zm-5.138-.406c-.028.014-.056.042-.056.056s.07.168.07.2c0,.2-.392.35-.49.35s-.112-.1-.112-.154a7.479,7.479,0,0,1,.14-.91,5.643,5.643,0,0,0,.294-.728,1.4,1.4,0,0,0-1.442-.952c-.084,0-.308.028-.308.154a1.4,1.4,0,0,0,.2.224,1.375,1.375,0,0,1,.462,1.12,10.469,10.469,0,0,1-.14,1.526,6.115,6.115,0,0,1-1.778.42,4.068,4.068,0,0,1-.644-.07c-.042,0-.21-.056-.252-.056a.1.1,0,0,0-.112.1c0,.1.532,1.064,1.008,1.064a3,3,0,0,0,.994-.266,3.274,3.274,0,0,1,.644-.126c.154,0,.2.21.2.308.014.238.028,1.428.028,1.75,0,.392-.084.434-.8.784a2.993,2.993,0,0,1-1.456.476c-.084,0-.49-.07-.574-.07-.252,0-.406.294-.406.546,0,.462.714.882.868.882a2.766,2.766,0,0,0,.532-.28,1.167,1.167,0,0,1,.35-.084c.182,0,.252,0,.7.868.112.224.266.518.644.518.5,0,.714-.924.714-1.568,0-.14-.042-.77-.042-.924,0-.238.084-.28.868-.7a7.151,7.151,0,0,1,2.9-1.05,1.45,1.45,0,0,1,1.344,1.54c0,1.12-1.176,1.736-2.1,1.736-.14,0-.91,0-.91-.672a.579.579,0,0,1,.126-.378c.028-.042.056-.07.056-.112a.075.075,0,0,0-.07-.07,1.248,1.248,0,0,0-.7,1.106c0,.728.644,1.134,1.442,1.134,1.148,0,3.094-.84,3.094-2.688a2.144,2.144,0,0,0-2.156-2.114,6.579,6.579,0,0,0-2.38.56c-.224.084-1.372.56-1.414.56-.126,0-.126-.168-.126-.252s0-1.2.028-1.512c.028-.49.042-.546.238-.616.336-.14,1.4-.56,1.4-1.022C-116.081,47.95-116.753,47.754-116.949,47.782Zm-1.386,5.32c.042.028.042.168.042.224,0,.686-.2,1.078-.392,1.078s-.588-.448-.588-.658S-118.377,53.1-118.335,53.1Zm14.392-2.282a1.3,1.3,0,0,1-.756-.182c-.378-.224-.49-.28-.616-.28s-.14.14-.14.21.028.308.042.462c.014.126.07,1.2.07,1.582,0,.336-.042,2-.042,2.366,0,.1,0,.462.364.462.238,0,.7-.2.714-.546.014-.434.014-.532.434-.532h2.31c.448,0,.448.126.448.868,0,1.47.98,1.5,3.038,1.5a11.458,11.458,0,0,0,2.926-.28,1.3,1.3,0,0,0,.8-1.008c0-.084-.056-.126-.126-.2a.679.679,0,0,1-.336-.406c-.042-.14-.042-.994-.21-.994-.042,0-.084.112-.112.238-.322,1.75-.434,1.806-3.108,1.806-1.988,0-1.988-.2-1.988-1.12,0-.406.252-.406.462-.406h2.17c.322,0,.392.042.462.2s.084.252.308.252a.629.629,0,0,0,.7-.714c0-.308-.042-1.82-.042-2.156a.842.842,0,0,1,.1-.518,1.58,1.58,0,0,0,.252-.392c0-.21-.616-.742-.8-.742-.1,0-.126.028-.42.294a.634.634,0,0,1-.616.238Zm2.436,1.9c.364,0,.392.112.392.63s0,.644-.392.644h-2.464c-.392,0-.392-.1-.392-.924,0-.336.2-.35.378-.35Zm-2.464-.364c-.406,0-.42-.112-.42-.8,0-.21.028-.378.406-.378h2.464c.392,0,.392.14.392.6,0,.434,0,.574-.392.574Zm6.44.364c.392,0,.392.1.392.672,0,.476,0,.6-.392.6h-2.3c-.406,0-.406-.1-.406-.714,0-.42,0-.56.406-.56Zm-2.31-.364c-.392,0-.392-.126-.392-.56,0-.49,0-.616.392-.616h2.324c.392,0,.392.14.392.546,0,.518,0,.63-.392.63Zm3.682-5.306c.112,0,.28,0,.28.168,0,.14-.336.714-.336.812a.066.066,0,0,0,.07.07,3.226,3.226,0,0,0,.574-.392,1.612,1.612,0,0,1,1.064-.364c.112-.014.392-.056.392-.21a3.322,3.322,0,0,0-1.2-.98c-.084,0-.21.112-.476.364a.563.563,0,0,1-.49.168h-3.556c-.378,0-.378-.168-.378-.574,0-.35,0-.518.392-.518h3.318c.476,0,.756,0,.756-.2,0-.168-1.218-.924-1.316-.924-.126,0-.168.056-.56.518-.2.238-.266.238-.9.238h-4.34c-.658,0-1.232-.028-1.918-.056-.084,0-.518-.042-.616-.042-.028,0-.042,0-.042.028s0,.028.056.1l.266.322c.042.042.084.084.126.084s.252-.028.294-.028c.168-.014.546-.042,1.778-.042h1.4c.392,0,.392.084.392.728,0,.364-.21.364-.364.364h-3.85c-.182,0-.336,0-.42-.154-.126-.224-.2-.35-.28-.35s-.084.042-.112.378a2.252,2.252,0,0,1-.28.784c-.35.546-.448.7-.448.938a.479.479,0,0,0,.462.5c.084,0,.868,0,.868-1.512,0-.224.1-.224.308-.224h3.71c.35,0,.434.112.434.56,0,.364-.028,2.142-.028,2.548,0,.322.042.364.336.364.63.014.63-.434.63-.63,0-.322-.056-1.918-.056-2.282s.014-.56.476-.56Zm-.448,1.344c.1,0,.364,0,.364-.2,0-.154-.392-.672-.6-.672-.1,0-.14.042-.406.308a.538.538,0,0,1-.49.182h-.672c-.378,0-.77-.042-.882-.042a1.982,1.982,0,0,0-.28-.056c-.028,0-.028.014-.028.028a.16.16,0,0,0,.042.1l.182.28a1.224,1.224,0,0,0,.112.14c.014,0,.154-.042.182-.042.266-.028.574-.028.756-.028Zm-7.252-.378c-.364,0-.77-.042-.882-.042a1.982,1.982,0,0,0-.28-.056c-.028,0-.028.014-.028.042a.614.614,0,0,0,.07.126l.154.238c.028.042.084.14.112.14s.154-.042.2-.042a7.345,7.345,0,0,1,.756-.028h1.68c.112,0,.336,0,.336-.168s-.364-.756-.588-.756c-.07,0-.126.042-.574.42a.423.423,0,0,1-.378.126Zm.014,1.344c-.378,0-.77-.028-.882-.042a1.982,1.982,0,0,0-.28-.056c-.028,0-.028.014-.028.042a.567.567,0,0,0,.07.126l.154.238c.028.042.084.14.112.14s.154-.042.182-.042a7.481,7.481,0,0,1,.756-.028h1.694c.182,0,.294,0,.294-.154a1.5,1.5,0,0,0-.588-.77,4.854,4.854,0,0,0-.532.42.423.423,0,0,1-.378.126Zm5.474,0c-.378,0-.77-.028-.9-.042a1.487,1.487,0,0,0-.266-.056c-.028,0-.028.014-.028.042a.391.391,0,0,0,.07.126l.154.238c.028.056.07.14.112.14.014,0,.154-.042.182-.042a7.481,7.481,0,0,1,.756-.028h1.918c.182,0,.392,0,.392-.154,0-.112-.476-.742-.644-.742-.084,0-.252.182-.42.35a.371.371,0,0,1-.35.168Zm10.094,6.468c.07,0,.35,0,.392.238.042.266.056.378.322.378a.619.619,0,0,0,.644-.588c0-.056-.056-.49-.07-.574C-87,55.132-87,54.978-87,54.67c0-.07,0-1.54.014-1.6s.042-.1.2-.2c.056-.042.14-.112.14-.2,0-.308-.882-.644-.952-.644-.112,0-.14.028-.336.266a.513.513,0,0,1-.462.154h-1.008a1.107,1.107,0,0,1-.658-.182,1.992,1.992,0,0,0-.546-.168c-.1,0-.126.1-.126.182,0,.056.056.35.056.406a7.285,7.285,0,0,1,.042,1.092c0,.434-.042,2.338-.042,2.716,0,.112,0,.462.392.462a.588.588,0,0,0,.6-.6c0-.35,0-.532.434-.532Zm0-3c.252,0,.392.1.392.392V55.09a.337.337,0,0,1-.392.378h-.994c-.14,0-.364,0-.406-.252-.056-.308-.056-1.526-.056-1.974,0-.392.266-.406.42-.406Zm6.384-4.4c-.084,0-.35,0-.392-.238-.014-.042-.014-1.3-.014-1.96,0-.35.056-.392.2-.42.112-.028,1.624-.35,1.708-.35.028,0,.406.014.448.014.168,0,.308-.084.308-.21,0-.154-.042-.182-.532-.434a6.739,6.739,0,0,0-.714-.35c-.056,0-.1.028-.392.182-.182.1-1.5.546-1.82.644s-2.7.616-2.7.728c0,.042.084.07.154.07.308,0,1.82-.2,2.156-.2.252,0,.28.126.28.35v1.778c0,.154,0,.392-.406.392h-.294c-.658,0-1.232-.028-1.918-.056-.084,0-.518-.042-.616-.042-.028,0-.056,0-.056.028s.014.028.07.1l.266.322c.042.056.07.084.126.084s.252-.028.294-.028c.14-.014.546-.042,1.764-.042h.364c.238,0,.406.084.406.378V51.31c0,.42-.042.532-.476.532h-.574a.908.908,0,0,1-.476-.1,2.44,2.44,0,0,0-.784-.266c-.112,0-.168.084-.168.2,0,.056.056.35.056.406a14.338,14.338,0,0,1,.042,1.806c0,.392,0,1.806-.014,2.114,0,.028-.028.392-.028.49,0,.14,0,.448.448.448.588,0,.588-.42.588-.658,0-.35.266-.364.448-.364h2.758c.14,0,.392.014.434.252.042.308.07.392.35.392a.64.64,0,0,0,.7-.63c0-.14-.084-.812-.084-.966-.028-.518-.042-1.96-.042-2.17a.47.47,0,0,1,.07-.294c.042-.056.322-.28.322-.364a1.979,1.979,0,0,0-.966-.686c-.126,0-.14.028-.294.238a.553.553,0,0,1-.476.154h-.476c-.224,0-.462,0-.462-.392,0-.252,0-2.184.014-2.338.014-.252.2-.308.406-.308h2.352c.476,0,.8,0,.8-.224s-1.008-.924-1.19-.924-.266.154-.49.532c-.154.252-.308.252-.9.252Zm.5,3.78c.182,0,.448,0,.448.392V55.2c0,.35-.28.35-.462.35h-2.744c-.168,0-.406,0-.462-.2-.07-.238-.07-2.2-.07-2.576,0-.434.042-.56.49-.56Zm-5.992-6.594c.308,0,.49,0,.49-.182,0-.224-.784-.882-.98-.882-.1,0-.14.056-.462.49-.168.21-.182.21-.574.21-.35,0-1.05-.028-1.414-.056-.056-.014-.336-.042-.35-.042s-.028.014-.028.028,0,.028.042.1l.182.322c.028.042.056.084.084.084s.252-.042.294-.042c.322-.028.8-.028,1.148-.028Zm-2.254,1.344c-.35,0-1.05-.028-1.414-.056-.056,0-.35-.042-.35-.042-.028,0-.042.014-.042.028s.014.028.042.1l.2.322c.028.056.042.084.084.084a2.473,2.473,0,0,0,.294-.042c.378-.028.84-.028,1.134-.028H-86.5c.336,0,.518,0,.518-.168,0-.224-.938-.952-1.148-.952-.126,0-.154.056-.5.546-.14.21-.2.21-.364.21Zm.686,1.68c-.35,0-1.05-.028-1.414-.056-.056-.014-.336-.042-.336-.042-.028,0-.042.014-.042.028s0,.028.042.084l.182.336c.028.042.056.084.1.084s.238-.042.28-.042c.364-.028.9-.028,1.148-.028h1.736c.392,0,.6,0,.6-.168,0-.2-.714-.784-.952-.784-.07,0-.1.042-.406.378-.168.2-.182.21-.392.21Zm.042,1.89c-.378,0-1.008,0-1.4-.042-.056,0-.35-.042-.35-.042-.028,0-.042,0-.042.028s0,.028.042.084l.182.322c.042.07.056.1.1.1s.168-.028.2-.028a8.406,8.406,0,0,1,1.232-.042h1.736c.364,0,.574,0,.574-.168a2,2,0,0,0-.826-.77c-.112,0-.2.126-.378.364a.364.364,0,0,1-.392.2Zm22.61.14a9.169,9.169,0,0,1,2.016-5.754A6.455,6.455,0,0,0-63.6,44.1a.093.093,0,0,0-.1-.084,8.131,8.131,0,0,0-3.374,6.664,8.131,8.131,0,0,0,3.374,6.664.093.093,0,0,0,.1-.084,6.455,6.455,0,0,0-.686-.826A9.169,9.169,0,0,1-66.3,50.68Zm6.216-.84a.323.323,0,0,1,.35.35c.028.476,0,3.514,0,3.556,0,1.414,0,2.52,1.47,2.52a2.305,2.305,0,0,0,2.044-1.218c0-.056-.028-.112-.084-.112-.1,0-.42.322-.5.378a1.565,1.565,0,0,1-.938.35.927.927,0,0,1-.966-.784c-.042-.2-.042-2.436-.042-2.856,0-.28,0-1.848.056-2a.355.355,0,0,1,.322-.182h1.5c.294,0,.378-.14.378-.224,0-.2-.252-.224-.392-.224h-1.484a.317.317,0,0,1-.35-.35V47.236c0-.084,0-.294-.224-.294-.182,0-.182.2-.182.322,0,1.792-1.176,2.072-1.4,2.1-.406.056-.476.07-.476.252,0,.224.224.224.378.224Zm11.228,2.492c.28,0,.42-.07.42-.322,0-.588-.616-2.884-2.786-2.884-1.526,0-2.968,1.232-2.968,3.556,0,2.03,1.106,3.584,3.066,3.584a2.964,2.964,0,0,0,2.828-1.75c0-.112-.07-.182-.14-.182-.126,0-.448.476-.532.546a2.629,2.629,0,0,1-1.694.784,2.66,2.66,0,0,1-2.324-2.884c0-.448.266-.448.448-.448Zm-3.668-.462c-.126,0-.364,0-.364-.308s.406-2.058,1.708-2.058c1.176,0,1.68,1.428,1.68,1.96,0,.336-.154.406-.462.406Zm9.24,4.13c.168,0,.35,0,.35-.21s-.14-.224-.448-.238c-.728-.042-.728-.5-.728-1.988,0-1.218.028-6.608.028-7.714,0-.28,0-.322-.084-.322-.014,0-1.19.364-1.288.392-.224.07-.686.21-.686.336a.114.114,0,0,0,.126.112c.084,0,.406-.042.462-.042a.376.376,0,0,1,.392.238,22.548,22.548,0,0,1,.084,2.45c0,.756,0,5.726-.084,6.02a.647.647,0,0,1-.658.518c-.182,0-.406,0-.406.238,0,.21.252.21.336.21Zm3.22.266a.935.935,0,0,0,.938-.924.926.926,0,0,0-.938-.924.911.911,0,0,0-.91.924A.92.92,0,0,0-40.061,56.266ZM-24.647,50.9c0-2.464-.882-5.362-3.15-5.376-2.2,0-3.15,2.772-3.15,5.376,0,2.576.938,5.362,3.15,5.362C-25.543,56.266-24.647,53.382-24.647,50.9Zm-1.26,0c0,.728-.028,4.9-1.89,4.9-1.89.014-1.89-4.326-1.89-4.9,0-.714.028-4.914,1.89-4.914C-25.907,45.99-25.907,50.316-25.907,50.9Zm4.788-5.11c-.728,0-.8.182-.966.952-.042.21-.364,1.722-.364,1.764a.176.176,0,0,0,.182.182c.112,0,.14-.042.322-.49.308-.784.882-1.344,2.492-1.344h1.932c.252,0,.364,0,.364.182s-1.316,2.31-1.554,2.744c-.476.882-2.226,4.1-2.226,5.642a.8.8,0,0,0,.714.84c.686,0,.756-.84.8-1.344.182-2.422.532-4.27,3.038-8.2a.829.829,0,0,0,.154-.532c0-.392-.28-.392-.588-.392Zm10.808,3.752a2.644,2.644,0,0,0-1.96.952c-.28.28-.308.322-.35.322-.1,0-.1-.224-.1-.28,0-1.862,1.008-4.55,2.352-4.55.364,0,.392.2.406.476.028.784.518.938.77.938a.7.7,0,0,0,.728-.7c0-.658-.714-1.176-1.568-1.176-2.114,0-3.99,2.674-3.99,5.936,0,3.08,1.722,4.8,3.22,4.8,1.54,0,3-1.694,3-3.7A2.78,2.78,0,0,0-10.311,49.546Zm-.392.616c1.512,0,1.638,1.89,1.638,2.59,0,2.3-1.148,3.066-1.792,3.066-1.106,0-1.82-1.932-1.82-3.374A2.315,2.315,0,0,1-10.7,50.162Zm7.476,2.982c.154,0,.56,0,.56-.448,0-.07,0-.448-.56-.448H-5.341c-.1,0-.56,0-.56.448,0,.364.308.448.56.448ZM4.137,56a.744.744,0,0,0,.84-.5c.07-.294.518-2.1.518-2.212,0-.028,0-.2-.14-.2-.084,0-.084.014-.308.532-.392.924-1.2,1.316-2.618,1.316H.987c-.056,0-.5,0-.5-.21,0-.266.756-1.568,2.87-3.332C4.543,50.4,5.425,49.6,5.425,48.16a2.618,2.618,0,0,0-2.8-2.632,2.872,2.872,0,0,0-3.01,2.534.859.859,0,0,0,.8.952.762.762,0,0,0,.756-.756,1.135,1.135,0,0,0-.294-.672.715.715,0,0,1-.14-.42c0-.6.728-1.176,1.568-1.176a1.871,1.871,0,0,1,1.862,1.974c0,1.33-.294,1.694-3.6,5.628a4.671,4.671,0,0,0-1.218,2.2c0,.2.322.21.406.21Zm6.72-10.472c-1.9,0-2.73,1.2-2.73,1.876a.71.71,0,0,0,.7.742.723.723,0,0,0,.714-.742c0-.084-.07-.448-.07-.518a1.007,1.007,0,0,1,1.12-.9A1.929,1.929,0,0,1,12.355,48.1a2.073,2.073,0,0,1-1.918,2.212c-.1,0-.518-.07-.6-.07a.3.3,0,0,0-.322.294.273.273,0,0,0,.308.28c.084,0,.476-.056.546-.056a2.443,2.443,0,0,1,2.2,2.562,2.415,2.415,0,0,1-2.17,2.492c-.658,0-1.26-.378-1.26-.9,0-.112.126-.63.126-.742a.661.661,0,0,0-.686-.658.775.775,0,0,0-.8.84c0,1.12,1.344,1.9,2.744,1.9a3.077,3.077,0,0,0,3.3-2.954,2.749,2.749,0,0,0-1.414-2.38c-.112-.07-.77-.294-.77-.42,0-.084.616-.42.728-.49a2.682,2.682,0,0,0,1.246-2.128A2.587,2.587,0,0,0,10.857,45.528Zm6.65.266c-.728,0-.8.182-.966.952-.042.21-.364,1.722-.364,1.764a.176.176,0,0,0,.182.182c.112,0,.14-.042.322-.49.308-.784.882-1.344,2.492-1.344h1.932c.252,0,.364,0,.364.182s-1.316,2.31-1.554,2.744c-.476.882-2.226,4.1-2.226,5.642a.8.8,0,0,0,.714.84c.686,0,.756-.84.8-1.344.182-2.422.532-4.27,3.038-8.2a.829.829,0,0,0,.154-.532c0-.392-.28-.392-.588-.392ZM27,53.144c.154,0,.56,0,.56-.448,0-.07,0-.448-.56-.448H24.885c-.1,0-.56,0-.56.448,0,.364.308.448.56.448ZM34.769,56c.126,0,.35,0,.35-.2,0-.252-.21-.252-.336-.252-1.036,0-1.232-.168-1.33-.574-.042-.154-.056-5.53-.056-6.174,0-.42.028-2.226.028-2.6,0-.63,0-.672-.154-.672a6.032,6.032,0,0,0-.686.308,6.553,6.553,0,0,1-1.582.35c-.434.028-.574.042-.574.224s.14.182.476.182c1.176,0,1.372,0,1.372.658,0,.742.028,4,.028,4.676,0,.49,0,2.954-.1,3.192-.168.392-.532.434-1.288.434-.5,0-.714,0-.714.224,0,.042.014.224.322.224Zm3.15-2.128c0,1.372,1.344,2.394,3.024,2.394a3.1,3.1,0,0,0,3.3-3.066,2.73,2.73,0,0,0-1.526-2.45c-.476-.308-.588-.392-.588-.5,0-.154.588-.588.686-.686a2.475,2.475,0,0,0,.868-1.82,2.306,2.306,0,0,0-2.562-2.212,2.529,2.529,0,0,0-2.8,2.478,2.858,2.858,0,0,0,1.5,2.422c.322.2.406.28.406.35,0,.1-.056.126-.56.434C38.1,52.136,37.919,52.976,37.919,53.872Zm5.334-.182a2.2,2.2,0,0,1-2.142,2.128,2.02,2.02,0,0,1-2-2.142,2.793,2.793,0,0,1,1.736-2.548,3.229,3.229,0,0,1,1.386.742A2.119,2.119,0,0,1,43.253,53.69Zm-3.962-6.076a1.568,1.568,0,0,1,1.638-1.624,1.813,1.813,0,0,1,1.806,1.974c0,1.12-.742,1.974-1.148,1.974a3.9,3.9,0,0,1-1.526-.854A1.558,1.558,0,0,1,39.291,47.614ZM51.569,56c.126,0,.35,0,.35-.2,0-.252-.21-.252-.336-.252-1.036,0-1.232-.168-1.33-.574-.042-.154-.056-5.53-.056-6.174,0-.42.028-2.226.028-2.6,0-.63,0-.672-.154-.672a6.032,6.032,0,0,0-.686.308,6.553,6.553,0,0,1-1.582.35c-.434.028-.574.042-.574.224s.14.182.476.182c1.176,0,1.372,0,1.372.658,0,.742.028,4,.028,4.676,0,.49,0,2.954-.1,3.192-.168.392-.532.434-1.288.434-.5,0-.714,0-.714.224,0,.042.014.224.322.224Zm5.852-3.738A2.481,2.481,0,0,0,59.3,51.45c.042-.042.168-.154.252-.154.112,0,.126.182.126.266a6.971,6.971,0,0,1-.546,2.576c-.686,1.526-1.554,1.68-1.806,1.68a.593.593,0,0,1-.644-.63c-.028-.49-.084-1.106-.742-1.106a.8.8,0,0,0-.812.8c0,.756.952,1.386,1.862,1.386,2.086,0,3.976-2.87,3.976-5.922,0-2.184-1.05-4.816-3.248-4.816-1.834,0-2.968,1.89-2.968,3.626A2.915,2.915,0,0,0,57.421,52.262Zm.42-.616c-.952,0-1.806-.84-1.806-2.674,0-1.456.546-3.01,1.708-3.01,1.54,0,1.946,2.842,1.946,3.85A1.873,1.873,0,0,1,57.841,51.646ZM66.3,50.68a9.169,9.169,0,0,1-2.016,5.754,6.455,6.455,0,0,0-.686.826.093.093,0,0,0,.1.084,8.268,8.268,0,0,0,0-13.328.093.093,0,0,0-.1.084,6.455,6.455,0,0,0,.686.826A9.169,9.169,0,0,1,66.3,50.68Zm19.082-4.858a9.633,9.633,0,0,1-.084,1.232c-.028.14-.168.21-.462.21a2.471,2.471,0,0,1-1.358-.378c-.042-.028-.378-.224-.392-.224-.042,0-.056.07-.056.1,0,.546.882,1.26,1.876,1.33.224.014.294.014.294.084,0,.014-.112,1.848-.126,1.89-.1.266-1.036.266-1.372.266A5.447,5.447,0,0,1,82,50.078a3.449,3.449,0,0,0-.532-.2c-.042,0-.042.028-.042.056a1.573,1.573,0,0,0,.406.644,2.855,2.855,0,0,0,1.932.574c.182,0,1.022-.07,1.218-.07.14,0,.14.084.14.21.014.378.028,1.316.028,1.6,0,.476,0,.518-.154.518-.1,0-.616-.042-.742-.042-1.666,0-2.52.644-2.52,1.484a1.624,1.624,0,0,0,1.792,1.512,2.712,2.712,0,0,0,2.38-1.414c.07-.154.1-.224.182-.224a2.5,2.5,0,0,1,.98.756c.5.6.56.672.756.672a.542.542,0,0,0,.476-.588c0-.658-.9-1.4-1.988-1.848-.294-.112-.294-.168-.35-.63-.014-.14-.168-1.75-.168-2.016,0-.14.042-.154.476-.308.644-.21,2.2-.854,2.2-1.344,0-.308-.364-.336-.938-.378-.07,0-.364-.07-.434-.07-.028,0-.07,0-.07.042s.056.21.056.252c0,.448-1.008.728-1.162.728-.182,0-.182-.084-.182-.406,0-.574.056-1.316.07-1.358.014-.21.042-.224.154-.252.392-.126,1.344-.406,1.344-.924,0-.224-.266-.266-.406-.266a1.675,1.675,0,0,0-.5.112,1.634,1.634,0,0,1-.392.126c-.056,0-.056-.056-.056-.084a3.271,3.271,0,0,1,.21-.91,4.022,4.022,0,0,0,.35-.742c0-.294-.756-.644-1.134-.644-.084,0-.35,0-.35.1,0,.028.084.168.1.21A2.661,2.661,0,0,1,85.379,45.822Zm-.336,8.456c.056.126-.07.462-.322.686a2.31,2.31,0,0,1-1.386.518c-.392,0-1.12-.168-1.12-.7,0-.8,1.47-.8,1.5-.8C83.965,53.984,84.945,54.04,85.043,54.278Zm10.542.756c0,.154.042.616.378.616.266,0,.77,0,1.736-2.912a37.41,37.41,0,0,0,1.022-3.976c.056-.252.112-.266.588-.392.924-.252,2.114-.658,2.114-1.442a.4.4,0,0,0-.462-.434c-.07,0-.378.028-.434.028-.14,0-1.26-.238-1.26-.5,0-.07.154-.35.154-.42a1.263,1.263,0,0,0-1.12-.742c-.364,0-.63.182-.63.322,0,.1.336.448.392.518a1.931,1.931,0,0,1,.168.868,4.049,4.049,0,0,1-.154,1.148,3.063,3.063,0,0,1-.994.126,5.145,5.145,0,0,1-1.246-.154,3.059,3.059,0,0,0-.322-.126.059.059,0,0,0-.056.056,1.348,1.348,0,0,0,.728.756,2.69,2.69,0,0,0,1.246.252c.448,0,.5,0,.5.14a18.853,18.853,0,0,1-1.848,5.152C95.655,54.726,95.585,54.866,95.585,55.034Zm3.4-7.7c.07-.336.07-.378.126-.658.028-.14.07-.168.154-.168.154,0,.91.308.91.448,0,.182-1.064.56-1.134.56S98.973,47.432,98.987,47.334Zm1.6,1.988c.014.028.112.028.126.028.056,0,.378-.042.462-.056a8.261,8.261,0,0,1,1.008-.056c.21,0,1.2.014,1.2.224,0,.154-.728.686-.728.784,0,.042.042.042.07.042a2.449,2.449,0,0,0,.588-.182,2.351,2.351,0,0,1,1.036-.224c.112,0,.658.042.784.042s.406,0,.406-.336c0-.616-1.008-1.008-2.338-1.008C101.7,48.58,100.485,49.14,100.583,49.322Zm-.63,3.738c-.112,0-.2.294-.2.616,0,1.764,1.89,2.338,4.158,2.338,1.19,0,1.708-.07,1.708-.476,0-.462-.644-.7-1.12-.7-.224,0-1.288.1-1.526.1-1.064,0-2.576-.266-2.87-1.484C100.093,53.41,100.009,53.06,99.953,53.06Zm19.012.812c.252-.126.98.462,1.386.952.336.42.378.476.546.476a.55.55,0,0,0,.5-.56c0-.826-1.47-1.484-2.156-1.778-.35-.154-.392-.252-.448-.77-.042-.378-.14-1.96-.14-2.268,0-.6,0-.616.518-.84s1.456-.63,1.456-1.288c0-.588-.462-.6-1.078-.63-.084,0-.812-.028-.812-.448a.607.607,0,0,1,.084-.294c.14-.224.154-.252.154-.35,0-.532-.938-.728-1.218-.728s-.476.154-.476.238.378.406.434.476c.266.322.266.714.266,1.6,0,.924,0,.924-.77.924a4.19,4.19,0,0,1-1.568-.28,2.435,2.435,0,0,0-.378-.2c-.056,0-.07.056-.07.1a1.988,1.988,0,0,0,2.072,1.246,4.643,4.643,0,0,1,.644.028.465.465,0,0,1,.112.336c.014.392.056,1.876.056,1.96,0,.868,0,.966-.35.966-2.87.042-2.87,1.526-2.87,1.722a1.586,1.586,0,0,0,1.75,1.4,2.309,2.309,0,0,0,2.086-1.33C118.741,54.432,118.867,53.914,118.965,53.872Zm-.2-6.482a.3.3,0,0,1,.168-.056c.2,0,.658.182.658.434,0,.322-.532.49-.728.49-.1,0-.21,0-.21-.532A.424.424,0,0,1,118.769,47.39Zm-1.834,6.076c.9,0,1.092.112,1.092.35,0,.476-.854,1.148-1.68,1.148-.49,0-.924-.238-.924-.616C115.423,53.942,116.137,53.466,116.935,53.466Zm-3.99.518c0-.406.392-2.422.392-2.87,0-.028,0-.126-.056-.126a7.053,7.053,0,0,0-.574,1.4c-.252.77-.266.826-.392.826-.336,0-.336-.9-.336-.98a9.355,9.355,0,0,1,.5-2.814c.112-.35.728-2.072.728-2.184,0-.252-.7-1.652-1.484-1.652-.084,0-.252.028-.252.112a2.812,2.812,0,0,0,.266.49,1.982,1.982,0,0,1,.322,1.162,9.431,9.431,0,0,1-.42,2.226,10.693,10.693,0,0,0-.364,2.744c0,2.17.7,3.57,1.4,3.57.322,0,.462-.266.462-.574C113.141,55.118,112.945,54.194,112.945,53.984Zm-193.5,22.2a1.791,1.791,0,0,0-1.512.882c0,.042.014.056.056.056a.313.313,0,0,0,.14-.042,1.216,1.216,0,0,1,.546-.14c.476,0,1.176.2,1.176.756a.737.737,0,0,1-.056.252.965.965,0,0,0-.042.112.065.065,0,0,0,.07.07c.056,0,.35-.084.42-.1s.392.028.476.028c.294,0,.462-.378.462-.672C-78.82,76.748-79.478,76.188-80.556,76.188Zm-5.138-.406c-.028.014-.056.042-.056.056s.07.168.07.2c0,.2-.392.35-.49.35s-.112-.1-.112-.154a7.479,7.479,0,0,1,.14-.91,5.643,5.643,0,0,0,.294-.728,1.4,1.4,0,0,0-1.442-.952c-.084,0-.308.028-.308.154a1.4,1.4,0,0,0,.2.224,1.375,1.375,0,0,1,.462,1.12,10.469,10.469,0,0,1-.14,1.526,6.115,6.115,0,0,1-1.778.42,4.068,4.068,0,0,1-.644-.07c-.042,0-.21-.056-.252-.056a.1.1,0,0,0-.112.1c0,.1.532,1.064,1.008,1.064a3,3,0,0,0,.994-.266,3.274,3.274,0,0,1,.644-.126c.154,0,.2.21.2.308.014.238.028,1.428.028,1.75,0,.392-.084.434-.8.784a2.992,2.992,0,0,1-1.456.476c-.084,0-.49-.07-.574-.07-.252,0-.406.294-.406.546,0,.462.714.882.868.882a2.766,2.766,0,0,0,.532-.28,1.167,1.167,0,0,1,.35-.084c.182,0,.252,0,.7.868.112.224.266.518.644.518.5,0,.714-.924.714-1.568,0-.14-.042-.77-.042-.924,0-.238.084-.28.868-.7a7.15,7.15,0,0,1,2.9-1.05,1.45,1.45,0,0,1,1.344,1.54c0,1.12-1.176,1.736-2.1,1.736-.14,0-.91,0-.91-.672a.579.579,0,0,1,.126-.378c.028-.042.056-.07.056-.112a.075.075,0,0,0-.07-.07,1.248,1.248,0,0,0-.7,1.106c0,.728.644,1.134,1.442,1.134,1.148,0,3.094-.84,3.094-2.688a2.144,2.144,0,0,0-2.156-2.114,6.58,6.58,0,0,0-2.38.56c-.224.084-1.372.56-1.414.56-.126,0-.126-.168-.126-.252s0-1.2.028-1.512c.028-.49.042-.546.238-.616.336-.14,1.4-.56,1.4-1.022C-84.826,75.95-85.5,75.754-85.694,75.782ZM-87.08,81.1c.042.028.042.168.042.224,0,.686-.2,1.078-.392,1.078s-.588-.448-.588-.658S-87.122,81.1-87.08,81.1Zm15.554-5.8c.21,0,.35,0,.378.2v.966c0,.308-.14.308-.378.308h-1.862c-.21,0-.336,0-.378-.21v-.952c0-.308.14-.308.378-.308Zm4.228-2.1a.9.9,0,0,1-.392-.1,1.842,1.842,0,0,0-.672-.252c-.126,0-.154.154-.154.224,0,.238.07,1.288.07,1.5,0,.434-.014,2.646-.014,2.758.014.42.238.448.35.448a.642.642,0,0,0,.644-.448c.056-.2.224-.2.42-.2h1.806c.308,0,.462,0,.462.406,0,.784-.028,4.242-.028,4.942,0,1.036,0,1.148-.574,1.148-.14,0-.7-.028-.826-.028-.1,0-.154.028-.154.07,0,.07.742.434.868.56a.742.742,0,0,1,.2.56c0,.07.112.126.182.126a1.934,1.934,0,0,0,.882-.448,1.69,1.69,0,0,0,.35-1.316c0-.406-.028-2.212-.028-2.576v-6.4a.579.579,0,0,1,.224-.532c.084-.07.168-.154.168-.238,0-.252-.812-.714-.924-.714s-.126.042-.406.364a.331.331,0,0,1-.336.14Zm-6.2,0a.667.667,0,0,1-.406-.1,1.917,1.917,0,0,0-.784-.322c-.056,0-.056.084-.056.14,0,.126.112,1.414.112,1.68,0,4.34-.014,4.872-.154,9.646,0,.042-.014.182-.014.252,0,.336.126.476.364.476a.8.8,0,0,0,.756-.91c0-.154-.042-.854-.042-.994-.028-1.022-.042-4.228-.042-4.97,0-.868,0-.966.448-.966h1.694c.182,0,.392,0,.434.2s.084.42.392.42c.658,0,.658-.728.658-.91s-.056-1.946-.056-2.3c0-.5,0-.546.1-.644.042-.042.322-.21.322-.266,0-.252-.7-.868-.924-.868-.112,0-.2.084-.434.294a.385.385,0,0,1-.35.14Zm2,.364c.308,0,.364.042.364.364v.812c-.028.182-.182.2-.364.2h-1.9c-.238,0-.364-.014-.364-.308V73.85c0-.266.126-.28.364-.28Zm4.382,1.372c-.224,0-.336,0-.378-.14a3.422,3.422,0,0,1-.028-.826c0-.392.07-.406.406-.406h1.932c.224,0,.336,0,.378.126a3.607,3.607,0,0,1,.028.84c0,.392-.084.406-.406.406Zm0,1.82c-.28,0-.392,0-.392-.308v-.826c0-.322.112-.322.392-.322h1.946c.28,0,.392,0,.392.322v.826c0,.308-.112.308-.392.308Zm-3.29,2.576a.855.855,0,0,1-.462-.126c-.7-.322-.742-.322-.826-.322-.056,0-.07.056-.07.112s.042.35.056.434c.042.378.028,1.2.028,1.554,0,.56-.028.938-.056,1.54-.014.126-.028.5-.028.6,0,.308.07.518.322.518a.811.811,0,0,0,.728-.7c.028-.392.028-.462.448-.462h1.778c.238,0,.448,0,.448.336,0,.168.056.392.28.392a1.046,1.046,0,0,0,.616-.364c.112-.14.126-.308.126-.658,0-.322-.028-1.722-.014-2a.39.39,0,0,1,.112-.266c.126-.126.21-.2.21-.28,0-.28-.7-.784-.854-.784s-.2.084-.392.336a.363.363,0,0,1-.35.14Zm.154,2.772c-.294,0-.49-.028-.49-.266V80.15c0-.392.084-.434.49-.434h1.792c.224,0,.392,0,.462.168.028.084.042.994.042,1.162a6.013,6.013,0,0,1-.042.9c-.056.168-.252.168-.462.168Zm11.97-7.308c-.028,0-.084.014-.084.056a1.891,1.891,0,0,0,.112.476,3.889,3.889,0,0,1,.1.812c0,.364-.2,2.086-.2,2.478,0,2.674,1.764,4.144,2.66,4.144.238,0,.532-.154.532-.434a3.512,3.512,0,0,0-.112-.462,1.889,1.889,0,0,1-.084-.56,3.928,3.928,0,0,1,.182-1.064,1.68,1.68,0,0,0,.042-.28c0-.056-.028-.112-.07-.112-.112,0-.35.336-.434.476-.42.7-.476.77-.714.77-.434,0-1.162-1.022-1.162-2.436a4.945,4.945,0,0,1,.336-1.806,1.918,1.918,0,0,0,.168-.56C-57.008,75.922-57.638,74.8-58.282,74.8ZM-51.6,76.09c-.07,0-.126.028-.126.07,0,.084.56.518.672.63.742.742.742,1.33.742,2.492,0,.182,0,.938.686.938s.7-.658.7-.924a3.484,3.484,0,0,0-1.246-2.674A2.725,2.725,0,0,0-51.6,76.09Zm10.668,3.948a1.273,1.273,0,0,1-.574-.084,7.143,7.143,0,0,0-.84-.378c-.126,0-.126.112-.126.154s.07.378.07.434c.042.252.028,1.064.028,1.358,0,.5-.126,3.08-.126,3.164a.328.328,0,0,0,.364.364,1.293,1.293,0,0,0,.742-.28c.1-.1.1-.14.1-.518s.28-.378.42-.378h4.228c.364,0,.364.154.364.742,0,.1,0,.364.308.364.2,0,.9-.182.9-.56s-.084-2.338-.084-2.772c0-.21.014-.84.154-.966s.182-.168.182-.294c0-.238-.826-.882-.91-.882s-.462.406-.546.476a.6.6,0,0,1-.308.056Zm.042,3.472c-.406,0-.42-.252-.42-.434,0-.322.014-1.89.014-2.24,0-.21.028-.434.434-.434h4.256c.392,0,.392.266.392.434,0,.322-.014,1.89-.014,2.24,0,.168,0,.434-.406.434Zm1.428-11.48c-.042.028-.266.77-.336.91a18,18,0,0,1-3.416,4.69c-.252.252-1.61,1.456-1.61,1.526,0,.042.042.084.112.084.364,0,3.57-2.1,5.88-5.446.28-.406.308-.448.378-.448s.28.448.364.63a10.654,10.654,0,0,0,2.632,3.7,5.618,5.618,0,0,0,2.03,1.54c.056,0,.126-.07.182-.126a1.809,1.809,0,0,1,.882-.392c.434-.1.49-.112.49-.238,0-.1,0-.1-.448-.266a11.516,11.516,0,0,1-3.528-2.156,9.866,9.866,0,0,1-2.184-2.94.127.127,0,0,1,.056-.112c.112-.084.154-.1.154-.182a.107.107,0,0,0-.028-.07A6.39,6.39,0,0,0-39.466,72.03Zm.308,5.824c-.658,0-1.246,0-1.932-.042-.084,0-.518-.056-.616-.056-.028,0-.042.014-.042.028s0,.042.056.1l.266.322c.056.056.084.084.126.084s.252-.028.294-.028c.406-.028.784-.042,1.778-.042H-36.6c.42,0,.756,0,.756-.168a5.329,5.329,0,0,0-1.274-1.008c-.126,0-.56.588-.672.686-.154.126-.322.126-.826.126Zm14.546-2.366c0-.154.042-.588.07-.812.028-.182.21-1.064.21-1.274,0-.462-.952-1.036-1.33-1.036-.14,0-.476.07-.476.182,0,.056.028.084.266.364a2.65,2.65,0,0,1,.56,1.974,4.615,4.615,0,0,1-.126,1.19,4.665,4.665,0,0,1-.364.336c-.938.868-1.022.882-1.26.924-.574.084-.952.14-.952.616,0,.252.042.308.49.868a2.453,2.453,0,0,1,.546,1.078,10.585,10.585,0,0,1-.7,1.358c-.35.588-.42.714-.42.952,0,.28.168.392.336.392.5,0,.8-.574,1.008-.98.112-.224.294-.574.364-.574.336,0,.42,1.33.448,1.624.056.854.1,1.358.49,1.358a.854.854,0,0,0,.616-.812c0-.084-.056-.546-.07-.658-.056-.742-.07-2.52-.07-2.828,0-.952.084-1.19.266-1.4a5.65,5.65,0,0,1,3.668-1.442,2.024,2.024,0,0,1,2.114,2.17c0,2.086-2.03,3.626-2.73,4.1-.154.112-1.036.6-1.036.644s.028.028.056.028c.322,0,4.8-1.092,4.8-4.452a2.894,2.894,0,0,0-3.178-2.94,5.822,5.822,0,0,0-2.828.812,2.8,2.8,0,0,1-.406.21.064.064,0,0,1-.056-.07.777.777,0,0,1,.1-.266,1.538,1.538,0,0,0,.2-.672c0-.1,0-.322-.364-.546C-24.6,75.768-24.612,75.754-24.612,75.488Zm-.938,1.6c.056.014.056.084.056.2,0,.5,0,.532-.868,1.806-.154.224-.2.294-.28.294-.154,0-.658-.9-.658-1.092s.14-.2.588-.224a.837.837,0,0,0,.6-.49C-25.872,77.168-25.634,77.07-25.55,77.084Zm-.1,2.464c.042,0,.07.028.07.084,0,.644,0,1.4-.168,1.4-.126,0-.406-.364-.406-.546A2.145,2.145,0,0,1-25.648,79.548Zm20.8-4.942a1.133,1.133,0,0,0-1.19-.98c-.07,0-.308.014-.308.154,0,.028.252.5.266.518a2.063,2.063,0,0,1,.168.966c0,.182-.028.854-.07,1.134s-.154.308-1.022.448c-.364.056-2.128.448-2.226.448-.182,0-.182-.112-.182-.406a7.725,7.725,0,0,1,.07-1.078,2.864,2.864,0,0,0,.07-.434c0-.49-.868-.882-1.2-.882-.168,0-.406.07-.406.2,0,.056.28.546.322.658a3.413,3.413,0,0,1,.224,1.47c0,.518-.014.644-.238.714a6.557,6.557,0,0,1-1.778.2c-.126,0-.714-.056-.854-.056s-.182.014-.182.2c0,.77,1.134,1.036,1.442,1.036.21,0,1.176-.434,1.414-.434s.252.14.252,1.316c0,2.66,0,3.78,4,3.78.322,0,1.6,0,1.6-.658a.729.729,0,0,0-.756-.6,4.418,4.418,0,0,0-.672.1,6.306,6.306,0,0,1-1.232.112c-1.96,0-2.212-.658-2.212-1.974,0-.042.028-1.316.042-1.778a1.126,1.126,0,0,1,.126-.574,10.065,10.065,0,0,1,3.01-.868c.21,0,.21.07.21.182a6.218,6.218,0,0,1-.406,1.6.5.5,0,0,1-.476.364c-.126,0-.756-.252-.91-.252-.028,0-.07,0-.07.028a1.677,1.677,0,0,0,.182.294,5.085,5.085,0,0,1,.266.616c.126.406.182.56.658.56.5,0,1.26-.714,1.526-2.786.084-.728.1-.756.91-.756.252,0,1.47.154,1.75.154s.686-.1.686-.462c0-.28-.21-.5-1.092-.756a7.54,7.54,0,0,0-1.008-.252c-.028,0-.112,0-.112.056a.115.115,0,0,0,.056.084c.252.238.28.266.28.35,0,.154-.126.168-.434.2-.112,0-.6.056-.658.056s-.154,0-.154-.07.014-.182.112-1.12C-5.04,75.278-4.844,74.634-4.844,74.606Zm8.134.49a1.453,1.453,0,0,0-.042.322.887.887,0,0,0,.406.784c.728.672.826.672,1.008.672a4.046,4.046,0,0,0,.728-.308,46.7,46.7,0,0,1,5.04-1.008c.07,0,.308.014.308.252a7.91,7.91,0,0,1-.952,2.366,18.221,18.221,0,0,1-5.53,5.544c-.14.1-.182.126-.182.182a.093.093,0,0,0,.1.084A14.246,14.246,0,0,0,11.4,77.462a2.317,2.317,0,0,1,.546-.882c.252-.252.322-.322.322-.5s-.084-.35-.714-.91c-.434-.378-.658-.574-.966-.574-.1,0-.154.028-.588.224a36.293,36.293,0,0,1-5.278.672,3.421,3.421,0,0,1-1.162-.308A.933.933,0,0,0,3.29,75.1ZM19.264,78.3a1.7,1.7,0,0,0,1.092,1.05c.1,0,.574-.182.686-.21.224-.056,1.54-.21,1.708-.21.07,0,.1.014.1.084a11.989,11.989,0,0,1-3.01,3.654c-.406.364-.462.392-.462.448,0,.028.028.07.112.07a8.909,8.909,0,0,0,2.968-2.254c.154-.168.952-1.078.966-1.078a.079.079,0,0,1,.084.07c.042.21.07,2.45.07,2.674,0,.126,0,.252-.112.252s-.98-.322-1.008-.322c-.056,0-.084.028-.084.07a1.558,1.558,0,0,0,.266.28,2.386,2.386,0,0,1,.63.91c.112.378.168.588.462.588.336,0,.714-.49.714-1.078,0-.182-.112-1.036-.126-1.232-.028-.266-.154-2.87-.154-3.052,0-.238.014-.364.994-.364.14,0,.77.042.91.042s.7,0,.7-.35c0-.406-.686-.518-.756-.518s-.406.112-.49.126c-.21.028-1.022.168-1.162.168-.238,0-.238-.056-.238-.63,0-.154.014-.784.042-.924a3.691,3.691,0,0,0,.14-.42.937.937,0,0,0-.938-.5c-.154,0-.658,0-.658.154a4.273,4.273,0,0,0,.364.434,3.975,3.975,0,0,1,.322,1.792c0,.2-.07.252-.336.28a22.4,22.4,0,0,1-2.352.168,6.563,6.563,0,0,1-1.288-.126C19.362,78.33,19.32,78.316,19.264,78.3Zm16.058.056a7.624,7.624,0,0,1-1.708-.126c-.07-.014-.406-.168-.476-.168s-.112.084-.112.168c0,.476.644,1.344,1.246,1.344.168,0,.924-.224,1.092-.252.336-.07,3.542-.252,5.474-.252.28,0,1.68.028,2,.028.588,0,1.162-.042,1.162-.434,0-.1-.126-.616-.98-.616-.07,0-.224.014-.308.014C40.67,78.176,35.784,78.358,35.322,78.358Zm16.114,2.1c.014-.056.812-1.092.966-1.3.35-.5,1.96-3.024,2.184-3.234.28-.266.434-.406.434-.644,0-.49-1.288-1.428-1.386-1.428s-.1.084-.1.154.028.392.028.462c0,1.064-1.26,3.612-1.876,4.746-.756,1.372-1.036,1.554-1.624,1.554a2.428,2.428,0,0,1-.5-.07,3.44,3.44,0,0,0-.406-.126c-.056,0-.056.056-.056.1a3.08,3.08,0,0,0,.364,1.12c.616.6.616.616.742.616.1,0,.434-.406.532-.448.126-.056,1.96-.476,2.338-.574.6-.168,3.766-1.134,3.836-1.134.21,0,.266.126.392.8.182.924.238,1.274.714,1.274.1,0,.77-.042.77-.98,0-1.372-2.114-3.094-2.52-3.094a.094.094,0,0,0-.1.084,5.278,5.278,0,0,0,.322.532,1.755,1.755,0,0,1,.406.826c0,.168,0,.238-2.058.588a21.919,21.919,0,0,1-3.22.406C51.492,80.682,51.422,80.6,51.436,80.458Zm17.192-7.42c-.028,0-.126,0-.126.056a.311.311,0,0,0,.084.168,1.592,1.592,0,0,1,.378.84c.042.49.056,3.346.056,3.458,0,.35.14,2.674.14,3.024,0,.322-.084.35-.294.35-.1,0-.6-.042-.728-.042-1.6,0-2.94.6-2.94,1.512,0,.8,1.12,1.638,2.408,1.638a2.33,2.33,0,0,0,2.17-1.246c.182-.392.21-.434.35-.434a1.994,1.994,0,0,1,.8.35,4.4,4.4,0,0,0,1.288.672.533.533,0,0,0,.5-.56c0-.448-.91-.84-1.778-1.218-.728-.308-.812-.35-.868-.56-.042-.154-.21-3.654-.21-3.92s.028-.35.14-.378c.028-.014.938-.014.966-.014,1.148,0,1.484-.336,1.484-.546s-.518-.616-.882-.616a6.222,6.222,0,0,0-.924.35,2.229,2.229,0,0,1-.588.112c-.154,0-.168-.042-.168-.224a9.072,9.072,0,0,1,.126-.966,6.685,6.685,0,0,0,.21-.756A1.66,1.66,0,0,0,68.628,73.038Zm.42,8.89c.042.126-.21,1.162-1.736,1.162-1.008,0-1.484-.42-1.484-.686,0-.77,1.694-.784,1.834-.784C68.278,81.62,68.992,81.746,69.048,81.928Zm17.4-4.1c0,2.856-.42,4.48-2.716,6.216-.322.238-.35.266-.35.308s.028.042.056.042a3.616,3.616,0,0,0,1.008-.462,6.065,6.065,0,0,0,3.052-5.8c0-2.94-.938-3.4-1.806-3.4-1.47,0-2.422,1.764-2.576,2.072-.1.182-.182.35-.252.35-.112,0-.112-.154-.112-.2a14.856,14.856,0,0,1,.308-1.736,8.749,8.749,0,0,0,.294-1.036,1.083,1.083,0,0,0-1.078-.938.566.566,0,0,0-.378.1c0,.028.21.308.238.364a1.552,1.552,0,0,1,.182.868,9.571,9.571,0,0,1-.21,1.792,12.613,12.613,0,0,0-.252,2.226c0,1.106.308,2.268.952,2.268a.468.468,0,0,0,.5-.5,1.4,1.4,0,0,0-.126-.532,2.856,2.856,0,0,1-.182-1.036c0-1.484,1.12-3.444,2.31-3.444C86.17,75.348,86.45,76.286,86.45,77.826ZM-57.456,104.188a1.791,1.791,0,0,0-1.512.882c0,.042.014.056.056.056a.313.313,0,0,0,.14-.042,1.216,1.216,0,0,1,.546-.14c.476,0,1.176.2,1.176.756a.737.737,0,0,1-.056.252.965.965,0,0,0-.042.112.065.065,0,0,0,.07.07c.056,0,.35-.084.42-.1s.392.028.476.028c.294,0,.462-.378.462-.672C-55.72,104.748-56.378,104.188-57.456,104.188Zm-5.138-.406c-.028.014-.056.042-.056.056s.07.168.07.2c0,.2-.392.35-.49.35s-.112-.1-.112-.154a7.479,7.479,0,0,1,.14-.91,5.643,5.643,0,0,0,.294-.728,1.4,1.4,0,0,0-1.442-.952c-.084,0-.308.028-.308.154a1.4,1.4,0,0,0,.2.224,1.375,1.375,0,0,1,.462,1.12,10.469,10.469,0,0,1-.14,1.526,6.115,6.115,0,0,1-1.778.42,4.068,4.068,0,0,1-.644-.07c-.042,0-.21-.056-.252-.056a.1.1,0,0,0-.112.1c0,.1.532,1.064,1.008,1.064a3,3,0,0,0,.994-.266,3.274,3.274,0,0,1,.644-.126c.154,0,.2.21.2.308.014.238.028,1.428.028,1.75,0,.392-.084.434-.8.784a2.992,2.992,0,0,1-1.456.476c-.084,0-.49-.07-.574-.07-.252,0-.406.294-.406.546,0,.462.714.882.868.882a2.766,2.766,0,0,0,.532-.28,1.167,1.167,0,0,1,.35-.084c.182,0,.252,0,.7.868.112.224.266.518.644.518.5,0,.714-.924.714-1.568,0-.14-.042-.77-.042-.924,0-.238.084-.28.868-.7a7.151,7.151,0,0,1,2.9-1.05,1.45,1.45,0,0,1,1.344,1.54c0,1.12-1.176,1.736-2.1,1.736-.14,0-.91,0-.91-.672a.579.579,0,0,1,.126-.378c.028-.042.056-.07.056-.112a.075.075,0,0,0-.07-.07,1.248,1.248,0,0,0-.7,1.106c0,.728.644,1.134,1.442,1.134,1.148,0,3.094-.84,3.094-2.688a2.144,2.144,0,0,0-2.156-2.114,6.58,6.58,0,0,0-2.38.56c-.224.084-1.372.56-1.414.56-.126,0-.126-.168-.126-.252s0-1.2.028-1.512c.028-.49.042-.546.238-.616.336-.14,1.4-.56,1.4-1.022C-61.726,103.95-62.4,103.754-62.594,103.782Zm-1.386,5.32c.042.028.042.168.042.224,0,.686-.2,1.078-.392,1.078s-.588-.448-.588-.658S-64.022,109.1-63.98,109.1Zm20.608-5.824c-.126,0-.336,0-.336-.2a5.015,5.015,0,0,1,.42-.98c.224-.434.238-.448.644-.448h1.9c.462,0,.742,0,.742-.2a2.62,2.62,0,0,0-1.022-.924c-.112,0-.168.056-.5.5-.182.238-.238.238-.882.238h-1.078c-.8,0-1.526-.028-1.932-.042-.1-.014-.518-.056-.616-.056-.014,0-.042,0-.042.042,0,.014,0,.014.056.084l.266.322c.056.056.084.1.126.1.1,0,1.05-.07,1.232-.07.266,0,.322.154.322.364,0,.112-.1.9-.112.98-.042.2-.056.252-.168.252-.182,0-.9-.476-1.064-.476a.126.126,0,0,0-.14.14c0,.042.056.392.07.462a8.869,8.869,0,0,1,.056,1.218c0,1.638,0,4.018-.07,5.474,0,.028-.014.462-.014.532,0,.336.1.392.28.392a.675.675,0,0,0,.686-.392c.112-.336.14-.406.406-.406h2.03a.379.379,0,0,1,.364.154c.112.224.2.364.434.364.6,0,.6-.56.6-.77,0-.266-.056-1.4-.07-1.638-.028-.91-.042-1.344-.042-2.016a17.576,17.576,0,0,1,.084-2.184c.028-.126.056-.14.336-.336a.2.2,0,0,0,.084-.14c0-.252-.938-.784-.98-.784-.112,0-.266.182-.35.28-.126.154-.126.154-.49.154Zm-.784,4.368c-.42,0-.42,0-.42-1.33,0-.266,0-.5.42-.5h2.03c.154,0,.378.028.42.308v1.05c0,.266-.014.476-.42.476Zm0-2.2c-.42,0-.42-.028-.42-1.3,0-.252,0-.5.42-.5H-42.1c.406,0,.406.252.406.518v.77c0,.28,0,.518-.406.518Zm.014,4.368c-.406,0-.406-.126-.406-1.344,0-.182,0-.448.392-.448h2.03a.36.36,0,0,1,.406.406c0,1.274,0,1.386-.42,1.386Zm-4.774-4.606c-.42,0-.42-.084-.42-.91,0-.49,0-.658.42-.658h.994c.42,0,.42.084.42.924,0,.476,0,.644-.42.644Zm.448-1.946c-.1,0-.224,0-.224-.168,0-.056.266-.658.322-.8.28-.658.336-.672.658-.672h.616c.462,0,.742,0,.742-.2a2.761,2.761,0,0,0-.8-.812c-.112,0-.42.462-.49.518-.126.112-.2.112-.784.112h-1.932a1.016,1.016,0,0,1-.686-.182c-.616-.392-.686-.448-.77-.448a.108.108,0,0,0-.112.1,2.334,2.334,0,0,0,.112.28c.154.532.266,4.578.266,5.306a23.994,23.994,0,0,1-.686,5.88c-.014.084-.14.56-.154.63,0,.014,0,.042.028.042.168,0,.476-.728.574-.966a19.715,19.715,0,0,0,1.064-6.986c0-.448-.042-2.562-.042-2.912s.14-.364.364-.364h.966c.238,0,.392.014.392.364,0,.1-.028.462-.07.91-.014.112-.014.308-.28.308-.112,0-.616-.266-.728-.266-.084,0-.126.07-.126.154,0,.056.07.686.07.8,0,.756-.028,2.2-.042,2.884,0,.126-.042.714-.042.84,0,.252.1.322.35.322a.551.551,0,0,0,.546-.28c.07-.1.14-.224.294-.224.238,0,.238.2.266.672,0,.1.084,2.73.084,2.926,0,.812-.224.812-.6.812-.126,0-.686-.014-.8-.014-.042,0-.154.014-.154.07,0,.084.406.28.462.322a1.493,1.493,0,0,1,.336.406c.056.084.182.252.308.252a1.129,1.129,0,0,0,1.232-1.12c0-.392-.07-3.766-.07-4.032,0-.084,0-.28.238-.28.154,0,.182.056.266.28.042.1.224.14.35.14.56,0,.588-.63.588-.84,0-.182-.112-2.24-.112-2.66,0-.308.028-.35.21-.476.084-.07.224-.182.224-.28,0-.168-.826-.742-.924-.742-.07,0-.084.028-.266.266-.1.112-.21.126-.434.126Zm.56,2.324c.35,0,.406.168.406.49,0,.924-.07.994-.42.994h-.966c-.336,0-.406-.182-.406-.434v-.812c.042-.182.2-.238.378-.238Zm-1.68,3.262a2.48,2.48,0,0,0-.518-.238c-.1,0-.112.042-.168.392a4.889,4.889,0,0,1-.448,1.414c-.084.2-.644,1.134-.644,1.19a.03.03,0,0,0,.028.028c.2,0,.756-.588.966-.8a7.446,7.446,0,0,0,.9-1.26c.042-.07.392-.28.392-.35C-49.084,109.116-49.322,108.99-49.588,108.85Zm6.034,2.086c-.42-.28-.462-.308-.532-.308s-.126.112-.168.21a3.215,3.215,0,0,1-1.358,1.134,13.621,13.621,0,0,0-1.47.84c0,.028.056.028.07.028a24.371,24.371,0,0,0,2.688-.784c.868-.364.966-.406,1.218-.406a.182.182,0,0,0,.182-.154C-42.924,111.356-42.994,111.314-43.554,110.936Zm3.528,1.428c-.1-.644-.686-.952-1.344-1.218a5.627,5.627,0,0,0-1.134-.364c-.042,0-.1,0-.1.042s.126.154.294.308a7.623,7.623,0,0,1,.952,1.022c.434.56.63.826.938.826C-40.194,112.98-39.97,112.672-40.026,112.364Zm-5.894-1.96c-.14-1.05-1.47-1.708-1.5-1.708s-.042.028-.042.056c.042.1.1.21.154.35a7.651,7.651,0,0,1,.5,1.414c.14.588.21.658.406.658C-46.116,111.174-45.864,110.8-45.92,110.4Zm10.738-7.6c-.028,0-.084.014-.084.056a1.891,1.891,0,0,0,.112.476,3.889,3.889,0,0,1,.1.812c0,.364-.2,2.086-.2,2.478,0,2.674,1.764,4.144,2.66,4.144.238,0,.532-.154.532-.434a3.512,3.512,0,0,0-.112-.462,1.889,1.889,0,0,1-.084-.56,3.928,3.928,0,0,1,.182-1.064,1.68,1.68,0,0,0,.042-.28c0-.056-.028-.112-.07-.112-.112,0-.35.336-.434.476-.42.7-.476.77-.714.77-.434,0-1.162-1.022-1.162-2.436a4.945,4.945,0,0,1,.336-1.806,1.918,1.918,0,0,0,.168-.56C-33.908,103.922-34.538,102.8-35.182,102.8Zm6.678,1.288c-.07,0-.126.028-.126.07,0,.084.56.518.672.63.742.742.742,1.33.742,2.492,0,.182,0,.938.686.938s.7-.658.7-.924a3.484,3.484,0,0,0-1.246-2.674A2.725,2.725,0,0,0-28.5,104.09Zm8.722-1.288c-.028,0-.084.014-.084.056a1.891,1.891,0,0,0,.112.476,3.889,3.889,0,0,1,.1.812c0,.364-.2,2.086-.2,2.478,0,2.674,1.764,4.144,2.66,4.144.238,0,.532-.154.532-.434a3.512,3.512,0,0,0-.112-.462,1.89,1.89,0,0,1-.084-.56,3.928,3.928,0,0,1,.182-1.064,1.68,1.68,0,0,0,.042-.28c0-.056-.028-.112-.07-.112-.112,0-.35.336-.434.476-.42.7-.476.77-.714.77-.434,0-1.162-1.022-1.162-2.436a4.945,4.945,0,0,1,.336-1.806,1.918,1.918,0,0,0,.168-.56C-18.508,103.922-19.138,102.8-19.782,102.8Zm6.678,1.288c-.07,0-.126.028-.126.07,0,.084.56.518.672.63.742.742.742,1.33.742,2.492,0,.182,0,.938.686.938s.7-.658.7-.924a3.484,3.484,0,0,0-1.246-2.674A2.725,2.725,0,0,0-13.1,104.09Zm8.134,6.944c0,.154.042.616.378.616.266,0,.77,0,1.736-2.912a37.41,37.41,0,0,0,1.022-3.976c.056-.252.112-.266.588-.392.924-.252,2.114-.658,2.114-1.442a.4.4,0,0,0-.462-.434c-.07,0-.378.028-.434.028-.14,0-1.26-.238-1.26-.5,0-.07.154-.35.154-.42a1.263,1.263,0,0,0-1.12-.742c-.364,0-.63.182-.63.322,0,.1.336.448.392.518a1.931,1.931,0,0,1,.168.868,4.049,4.049,0,0,1-.154,1.148,3.063,3.063,0,0,1-.994.126,5.145,5.145,0,0,1-1.246-.154,3.059,3.059,0,0,0-.322-.126.059.059,0,0,0-.056.056,1.348,1.348,0,0,0,.728.756,2.69,2.69,0,0,0,1.246.252c.448,0,.5,0,.5.14a18.852,18.852,0,0,1-1.848,5.152C-4.9,110.726-4.97,110.866-4.97,111.034Zm3.4-7.7c.07-.336.07-.378.126-.658.028-.14.07-.168.154-.168.154,0,.91.308.91.448,0,.182-1.064.56-1.134.56S-1.582,103.432-1.568,103.334Zm1.6,1.988c.014.028.112.028.126.028.056,0,.378-.042.462-.056a8.261,8.261,0,0,1,1.008-.056c.21,0,1.2.014,1.2.224,0,.154-.728.686-.728.784,0,.042.042.042.07.042a2.449,2.449,0,0,0,.588-.182,2.351,2.351,0,0,1,1.036-.224c.112,0,.658.042.784.042s.406,0,.406-.336c0-.616-1.008-1.008-2.338-1.008C1.148,104.58-.07,105.14.028,105.322ZM-.6,109.06c-.112,0-.2.294-.2.616,0,1.764,1.89,2.338,4.158,2.338,1.19,0,1.708-.07,1.708-.476,0-.462-.644-.7-1.12-.7-.224,0-1.288.1-1.526.1-1.064,0-2.576-.266-2.87-1.484C-.462,109.41-.546,109.06-.6,109.06Zm13.538-7.9c-.084,0-.2.042-.2.14,0,.014.14.336.154.378a1.763,1.763,0,0,1,.126.686c0,.392-.126,1.54-.182,2a31.926,31.926,0,0,0-.322,3.892c0,2.814.868,3.864,2.688,3.864a6.547,6.547,0,0,0,4.7-2.408.065.065,0,0,0-.07-.07c-.056,0-1.12.588-1.33.686a6.9,6.9,0,0,1-2.94.728c-1.876,0-2.142-1.26-2.142-2.674a33.65,33.65,0,0,1,.588-4.984,6.439,6.439,0,0,0,.266-.784C14.28,102.3,13.664,101.164,12.936,101.164Zm18.088.658a9.633,9.633,0,0,1-.084,1.232c-.028.14-.168.21-.462.21a2.471,2.471,0,0,1-1.358-.378c-.042-.028-.378-.224-.392-.224-.042,0-.056.07-.056.1,0,.546.882,1.26,1.876,1.33.224.014.294.014.294.084,0,.014-.112,1.848-.126,1.89-.1.266-1.036.266-1.372.266a5.447,5.447,0,0,1-1.694-.252,3.45,3.45,0,0,0-.532-.2c-.042,0-.042.028-.042.056a1.573,1.573,0,0,0,.406.644,2.855,2.855,0,0,0,1.932.574c.182,0,1.022-.07,1.218-.07.14,0,.14.084.14.21.014.378.028,1.316.028,1.6,0,.476,0,.518-.154.518-.1,0-.616-.042-.742-.042-1.666,0-2.52.644-2.52,1.484a1.624,1.624,0,0,0,1.792,1.512,2.712,2.712,0,0,0,2.38-1.414c.07-.154.1-.224.182-.224a2.5,2.5,0,0,1,.98.756c.5.6.56.672.756.672a.542.542,0,0,0,.476-.588c0-.658-.9-1.4-1.988-1.848-.294-.112-.294-.168-.35-.63-.014-.14-.168-1.75-.168-2.016,0-.14.042-.154.476-.308.644-.21,2.2-.854,2.2-1.344,0-.308-.364-.336-.938-.378-.07,0-.364-.07-.434-.07-.028,0-.07,0-.07.042s.056.21.056.252c0,.448-1.008.728-1.162.728-.182,0-.182-.084-.182-.406,0-.574.056-1.316.07-1.358.014-.21.042-.224.154-.252.392-.126,1.344-.406,1.344-.924,0-.224-.266-.266-.406-.266a1.675,1.675,0,0,0-.5.112,1.634,1.634,0,0,1-.392.126c-.056,0-.056-.056-.056-.084a3.271,3.271,0,0,1,.21-.91,4.022,4.022,0,0,0,.35-.742c0-.294-.756-.644-1.134-.644-.084,0-.35,0-.35.1,0,.028.084.168.1.21A2.661,2.661,0,0,1,31.024,101.822Zm-.336,8.456c.056.126-.07.462-.322.686a2.31,2.31,0,0,1-1.386.518c-.392,0-1.12-.168-1.12-.7,0-.8,1.47-.8,1.5-.8C29.61,109.984,30.59,110.04,30.688,110.278Zm9.982-6.23c-.042.014-.07.084-.07.14,0,.574,1.162,1.162,1.47,1.162a13.013,13.013,0,0,0,1.5-.56,17.34,17.34,0,0,1,2.478-.56c.28,0,.28.084.28.84,0,.714,0,.8-.392.854-1.358.21-1.358,1.75-1.358,1.932,0,1.12.672,1.834,1.428,1.834.042,0,.252-.028.294-.028.14,0,.14.154.14.2a4.554,4.554,0,0,1-.784,2.058c-.1.14-.672.812-.672.84s.042.056.07.056c.434,0,2.548-1.736,2.548-4.452a4.438,4.438,0,0,0-.406-1.89,1.828,1.828,0,0,1-.182-.91c0-1.232.028-1.428.224-1.512a6.532,6.532,0,0,1,1.512-.14c.266,0,1.568.126,1.862.126.49,0,.756-.126.756-.49,0-.49-.616-.546-.8-.546-.112,0-.7.07-.84.07a3.076,3.076,0,0,1-1.232-.28c-.826-.35-1.232-.56-1.232-.882,0-.07.056-.364.056-.434,0-.448-.546-.7-1.162-.7-.084,0-.294,0-.294.1,0,.07.224.322.238.392a8.362,8.362,0,0,1,.2,1.9c0,.364-.084.378-.812.5a28.3,28.3,0,0,1-3.808.476C41.482,104.146,40.81,104.062,40.67,104.048Zm6.608-1.638a3.035,3.035,0,0,1,1.064.742c0,.21-.91.238-.966.238-.2,0-.252-.042-.252-.266C47.124,102.76,47.18,102.438,47.278,102.41Zm-.952,4.424a2.722,2.722,0,0,1,.182.98c0,.224-.014,1.064-.56,1.064a1.015,1.015,0,0,1-.91-1.12c0-.714.448-1.288.8-1.288A.592.592,0,0,1,46.326,106.834Zm10.7,2.87a1.554,1.554,0,0,0-.014,3.108,1.554,1.554,0,1,0,.014-3.108Zm-.014.392a1.174,1.174,0,0,1,1.19,1.176,1.156,1.156,0,0,1-1.162,1.148,1.174,1.174,0,0,1-1.176-1.176A1.133,1.133,0,0,1,57.008,110.1Z" transform="translate(152.04 11.886)" fill="#fff"/>
</svg>
