<svg xmlns="http://www.w3.org/2000/svg" width="274.26" height="41.34" viewBox="0 0 274.26 41.34">
  <path id="パス_130444" data-name="パス 130444" d="M35.04-10.62C31.5-5.16,27.9-1.26,22.14-1.26c-7.62,0-11.82-6.6-11.82-15.24,0-11.22,7.14-21.18,17.34-21.18,5.7,0,8.82,2.04,9.3,9.24l1.86-.18c.24-3,.36-6.3.48-9.36A29.479,29.479,0,0,0,28.98-39.9C15.12-39.9,3.9-30.66,3.9-16.32,3.9-5.16,11.46.9,21.54.9A43.235,43.235,0,0,0,31.92-.6a73.151,73.151,0,0,0,4.74-9.18ZM65.7-39.9c-12.6,0-21.9,11.22-21.9,23.76C43.8-5.94,50.34.9,59.82.9,72.66.9,81.78-9.9,81.78-22.68,81.78-32.76,75.36-39.9,65.7-39.9Zm-.42,2.16c7.44,0,10.2,6.36,10.2,14.28,0,9.96-5.58,22.2-15.18,22.2-7.08,0-10.26-6.18-10.26-14.16C50.04-26.1,56.22-37.74,65.28-37.74Zm63.66-1.2H115.32l-.48,1.68c4.38.24,5.46.9,5.22,3.72a92.808,92.808,0,0,1-1.56,10.26L115.8-8.94h-.18l-17.34-30H89.22l-.42,1.68c3.18.18,4.32.54,5.04,1.8.72,1.32.96,2.28.3,5.58l-3,14.28c-1.2,5.58-1.86,8.28-2.52,10.32-.78,2.64-2.16,3.42-5.28,3.6L82.92,0H96.84l.36-1.68c-4.2-.3-5.28-.96-5.1-3.72a77.326,77.326,0,0,1,1.5-10.08l3.06-15.6h.18L114.48.48h2.04l4.5-23.76a101.866,101.866,0,0,1,2.34-10.2c.78-2.64,1.56-3.6,5.22-3.78Zm35.76-1.5c-1.14,1.14-1.56,1.5-3.12,1.5h-22.8c-1.56,0-2.22-.12-2.82-1.5h-1.38c-.66,3.24-1.74,7.2-2.82,10.8h1.86a23.316,23.316,0,0,1,3-5.4c1.14-1.32,2.22-1.8,7.2-1.8h3L141.18-7.26c-.9,4.68-1.32,5.22-6.36,5.58L134.4,0h16.86l.36-1.68c-5.4-.36-5.82-.84-4.98-5.58l5.58-29.58h3.54c4.32,0,5.64.36,6.24,1.74.6,1.26.72,3.06.72,5.46l1.92-.12c.36-3.36.9-8.04,1.44-10.68ZM197.4-1.68c-4.2-.48-4.56-.96-5.34-5.46-1.32-7.32-2.64-14.94-3.9-22.74l-1.56-9.96-2.1.54L166.62-7.68c-2.88,5.16-3.54,5.46-7.2,6L158.94,0h13.02l.42-1.68c-4.62-.42-4.98-.9-3.3-4.32,1.26-2.7,2.94-5.94,4.02-7.92h12.36c.54,3.3,1.02,6.06,1.38,8.52.36,2.64.12,3.3-3.96,3.72L182.4,0h14.58ZM185.04-16.56H174.42c2.58-4.98,5.34-9.84,8.16-15.12h.12Zm49.02,5.94c-3.54,5.46-7.14,9.36-12.9,9.36-7.62,0-11.82-6.6-11.82-15.24,0-11.22,7.14-21.18,17.34-21.18,5.7,0,8.82,2.04,9.3,9.24l1.86-.18c.24-3,.36-6.3.48-9.36A29.479,29.479,0,0,0,228-39.9c-13.86,0-25.08,9.24-25.08,23.58C202.92-5.16,210.48.9,220.56.9A43.235,43.235,0,0,0,230.94-.6a73.151,73.151,0,0,0,4.74-9.18Zm42.72-29.82c-1.14,1.14-1.56,1.5-3.12,1.5h-22.8c-1.56,0-2.22-.12-2.82-1.5h-1.38c-.66,3.24-1.74,7.2-2.82,10.8h1.86a23.316,23.316,0,0,1,3-5.4c1.14-1.32,2.22-1.8,7.2-1.8h3L253.26-7.26c-.9,4.68-1.32,5.22-6.36,5.58L246.48,0h16.86l.36-1.68c-5.4-.36-5.82-.84-4.98-5.58l5.58-29.58h3.54c4.32,0,5.64.36,6.24,1.74.6,1.26.72,3.06.72,5.46l1.92-.12c.36-3.36.9-8.04,1.44-10.68Z" transform="translate(-3.9 40.44)" fill="#fff"/>
</svg>
