<svg xmlns="http://www.w3.org/2000/svg" width="637.504" height="55.219" viewBox="0 0 637.504 55.219">
  <path id="パス_130445" data-name="パス 130445" d="M-242-9.024c-.064.064.112.416.272.64a2.774,2.774,0,0,0,1.04.72c.064,0,1.728-.48,2.064-.48.448,0,.576.416.576,2.3,0,.8,0,1.7-.32,1.84a34.3,34.3,0,0,1-3.824.448,7.6,7.6,0,0,1-1.392-.144,3.96,3.96,0,0,0-.464-.1.1.1,0,0,0-.112.112c0,.784,1.568,1.472,1.632,1.472.128,0,.72-.24.864-.272a28.6,28.6,0,0,1,6.928-.816,6.56,6.56,0,0,1,1.936.208c.192.048.88.24,1.008.24.048,0,.592-.048.592-.336,0-.464-1.152-1.184-1.584-1.184-.176,0-.992.1-1.184.112-.432.016-2.448.16-2.768.16-.368,0-.48-.064-.48-.3,0-.032.016-.1.016-.176.1-.736.208-1.568.272-2.208.016-.08.128-.5.128-.592,0-.128-.048-.176-.432-.576a.389.389,0,0,1-.144-.24c0-.144.176-.176.24-.176.336-.032,1.968-.256,2.336-.272.384-.016.832-.032.832-.336,0-.48-1.072-.816-1.568-.816-.144,0-.752.3-.9.336a18.625,18.625,0,0,1-4,.64,6.314,6.314,0,0,1-1.344-.16A.565.565,0,0,0-242-9.024Zm23.36-.1A17.447,17.447,0,0,1-224.672-1.7a4.936,4.936,0,0,0-.736.592c0,.1.08.1.112.1a3.93,3.93,0,0,0,.992-.368A16.075,16.075,0,0,0-220.032-4.8c.352-.4.4-.448.56-.448.352,0,1.76,1.216,2.864,3.152.56.992.624,1.1.992,1.1a.691.691,0,0,0,.656-.7c0-1.456-2.864-3.072-3.584-3.488-.672-.368-.7-.4-.7-.544a.526.526,0,0,1,.128-.32c.256-.368,1.52-2.24,1.84-2.624.1-.112.688-.544.688-.688,0-.4-.976-1.216-1.36-1.216a6.108,6.108,0,0,0-.88.5,22.141,22.141,0,0,1-4.384.592,2.85,2.85,0,0,1-.848-.16c-.048-.016-.4-.112-.416-.112-.08,0-.1.048-.1.128a3.265,3.265,0,0,0,.384.928,3.339,3.339,0,0,0,1.088.576,6.911,6.911,0,0,0,.72-.3c.08-.032,3.44-.816,3.552-.816A.18.18,0,0,1-218.64-9.12Zm10.736-.9c-.08,0-.112.032-.112.064,0,.56,1.248,1.584,1.632,1.584a12.2,12.2,0,0,0,1.344-.464,28.011,28.011,0,0,1,5.712-.992c.208,0,.3.128.3.24a4.342,4.342,0,0,1-1.984,1.952,4.755,4.755,0,0,1-.624-.208,2.412,2.412,0,0,0-.864-.144c-.1,0-.336.016-.336.144,0,.064.016.1.144.352a2.045,2.045,0,0,1,.208.944,7.3,7.3,0,0,1-1.2,3.5,10.9,10.9,0,0,1-2.864,2.976c-.288.224-.32.256-.32.3s.032.08.1.08a4.166,4.166,0,0,0,1.1-.464,8.737,8.737,0,0,0,4.032-4.944,8.916,8.916,0,0,1,.816-2.048,11.227,11.227,0,0,1,3.344-1.456c.56-.128.56-.3.56-.416a4.235,4.235,0,0,0-1.888-2.08,5.539,5.539,0,0,0-.656.368,47.673,47.673,0,0,1-6.624.928,6.96,6.96,0,0,1-1.008-.064C-207.216-9.872-207.856-10.016-207.9-10.016ZM-184.416-7.9c.3-.384.816-.96,1.088-1.344a4.57,4.57,0,0,1,1.088-1.312.4.4,0,0,0,.144-.32c0-.608-1.616-1.28-1.856-1.28a.158.158,0,0,0-.16.128,1.777,1.777,0,0,0,.112.256.9.9,0,0,1,.128.448c0,.448-1.248,3.168-5.024,6.4-.256.224-.7.592-1.12.96a.145.145,0,0,0-.048.112c0,.064.032.1.08.1a17.573,17.573,0,0,0,4.544-3.056c.128-.128.192-.192.272-.192.416,0,.416,1.68.416,2.256,0,.848-.064,2.08-.16,2.944-.016.16-.176.864-.176,1.024,0,.432.544,1.12.992,1.12.384,0,.384-.544.384-.7,0-.208-.1-1.136-.112-1.328-.032-.624-.048-1.488-.048-1.92a15.448,15.448,0,0,1,.1-2.832c.016-.1.192-.544.192-.64,0-.144-.064-.208-.688-.592A.258.258,0,0,1-184.416-7.9Zm12.816-1.12c-.064.064.112.416.272.64a2.774,2.774,0,0,0,1.04.72c.064,0,1.728-.48,2.064-.48.448,0,.576.416.576,2.3,0,.8,0,1.7-.32,1.84a34.3,34.3,0,0,1-3.824.448,7.6,7.6,0,0,1-1.392-.144,3.96,3.96,0,0,0-.464-.1.1.1,0,0,0-.112.112c0,.784,1.568,1.472,1.632,1.472.128,0,.72-.24.864-.272a28.6,28.6,0,0,1,6.928-.816,6.56,6.56,0,0,1,1.936.208c.192.048.88.24,1.008.24.048,0,.592-.048.592-.336,0-.464-1.152-1.184-1.584-1.184-.176,0-.992.1-1.184.112-.432.016-2.448.16-2.768.16-.368,0-.48-.064-.48-.3,0-.032.016-.1.016-.176.1-.736.208-1.568.272-2.208.016-.08.128-.5.128-.592,0-.128-.048-.176-.432-.576a.389.389,0,0,1-.144-.24c0-.144.176-.176.24-.176.336-.032,1.968-.256,2.336-.272.384-.016.832-.032.832-.336,0-.48-1.072-.816-1.568-.816-.144,0-.752.3-.9.336a18.625,18.625,0,0,1-4,.64,6.314,6.314,0,0,1-1.344-.16A.565.565,0,0,0-171.6-9.024Zm21.584,3.616c.032.176-.128.336-.24.464a27.363,27.363,0,0,1-4.336,3.536,6.063,6.063,0,0,0-.928.7.086.086,0,0,0,.08.08,14.719,14.719,0,0,0,6.032-3.888.8.8,0,0,1,.544-.32c.32,0,1.1.656,1.392.928,1.392,1.344,1.552,1.488,2.064,1.488a.437.437,0,0,0,.432-.5c0-.864-1.536-1.872-2.432-2.32-.72-.368-.8-.4-.8-.544a13.633,13.633,0,0,1,.992-1.568c.832-1.312.928-1.456,1.248-1.664.464-.288.512-.32.512-.576a.542.542,0,0,0-.192-.416,3.955,3.955,0,0,0-1.28-.768c-.144,0-.176.032-.56.336a31.154,31.154,0,0,1-4.72.88,2.064,2.064,0,0,1-.816-.208c-.048-.016-.464-.192-.5-.192-.048,0-.08.064-.08.112a3.121,3.121,0,0,0,.384.832,1.664,1.664,0,0,0,1.152.816,6.78,6.78,0,0,0,.816-.336c.608-.224,3.312-.864,3.408-.864a.2.2,0,0,1,.208.224,5.954,5.954,0,0,1-.768,1.744c-.384.624-.8,1.3-1.168,1.3a8.712,8.712,0,0,1-.992-.3,6.578,6.578,0,0,0-1.424-.256c-.224,0-.224.1-.224.128C-152.208-6.336-150.08-5.76-150.016-5.408ZM-131.5-6.752c0-.912.144-.912,1.52-.912.128,0,1.3.016,1.9.08.224.032,1.264.208,1.5.208.064,0,.416-.016.416-.32,0-.272-.224-.4-.4-.512a3.363,3.363,0,0,0-1.552-.544c-.176,0-1.024.208-1.232.24a14.2,14.2,0,0,1-1.552.16c-.416,0-.624-.08-.624-.576a4,4,0,0,1,.144-1.232,3.378,3.378,0,0,0,.288-.528c0-.128-.4-.832-1.5-.832-.368,0-.544.112-.544.16,0,.08.272.336.3.416A5.854,5.854,0,0,1-132.5-8.9c0,.528-.16.64-.768.672-.48.016-2.208.112-2.576.112a4.73,4.73,0,0,1-1.424-.16c-.208-.08-.24-.1-.3-.1-.1,0-.112.064-.112.144,0,.32.8,1.408,1.152,1.408a4.765,4.765,0,0,0,.64-.176c.944-.24,2.864-.512,2.96-.512.432,0,.464.288.464,1.056,0,.864,0,2.464-.08,3.216-.032.256-.112.432-.32.432-.112,0-.64-.208-.752-.208a.059.059,0,0,0-.064.064c0,.048.032.08.1.192a4.544,4.544,0,0,1,.592,1.136c.336.928.368,1.024.72,1.024.848,0,.848-1.056.848-1.3C-131.424-2.576-131.5-5.984-131.5-6.752Zm4.816,4.768c.528.016.72-.512.72-.88,0-1.344-2.576-2.9-3.424-2.9-.032,0-.112,0-.112.08a3.686,3.686,0,0,0,.64.672,5.7,5.7,0,0,1,1.3,1.968C-127.28-2.352-127.136-1.984-126.688-1.984Zm-10.544-.368a.781.781,0,0,0,.3.064c1.056,0,1.808-1.936,1.808-2.688,0-.048-.016-.192-.08-.192s-.24.16-.32.24A13.708,13.708,0,0,1-137.088-3.7c-.464.288-.608.448-.608.752A.644.644,0,0,0-137.232-2.352Zm19.2-4.1a8.713,8.713,0,0,1-1.952-.144c-.08-.016-.464-.192-.544-.192s-.128.1-.128.192c0,.544.736,1.536,1.424,1.536.192,0,1.056-.256,1.248-.288.384-.08,4.048-.288,6.256-.288.32,0,1.92.032,2.288.032.672,0,1.328-.048,1.328-.5,0-.112-.144-.7-1.12-.7-.08,0-.256.016-.352.016C-111.92-6.656-117.5-6.448-118.032-6.448Zm19.44-1.744c0-.816-1.7-1.36-1.808-1.36-.064,0-.08.032-.08.08a1.187,1.187,0,0,0,.064.288,3.509,3.509,0,0,1,.272,1.376A8.474,8.474,0,0,1-102.08-3.12a4.531,4.531,0,0,0-.64.848.075.075,0,0,0,.08.08,5.571,5.571,0,0,0,2.96-3.04C-99.408-5.84-98.592-8.144-98.592-8.192Zm2.816,5.76c.112-.016.256-.128.528-.432a8.89,8.89,0,0,1,1.1-1.024c2.8-2.464,3.728-4.448,3.728-4.576a.069.069,0,0,0-.064-.064c-.064,0-1.424,1.44-1.7,1.712-1.536,1.552-3.008,2.608-3.488,2.608-.288,0-.3-.32-.3-.528,0-.528.064-2.464.128-2.9.032-.176.256-1.008.256-1.2,0-.832-1.68-1.12-1.76-1.12-.032,0-.1.016-.1.08a4.159,4.159,0,0,0,.208.576,9.81,9.81,0,0,1,.3,3.008c0,.4-.016,1.664-.064,1.968-.016.08-.1.5-.1.576C-97.088-3.3-96.24-2.352-95.776-2.432Zm22.24-9.664c-.112,0-.592,0-.592.16,0,.048.032.112.192.176a3.8,3.8,0,0,1,1.344.976c.272.368.48.64.816.64a.455.455,0,0,0,.416-.48C-71.36-11.552-72.672-12.1-73.536-12.1ZM-75.1-10.56c-.128,0-.272.064-.272.128s.16.208.224.256a4.636,4.636,0,0,1,1.088.992c.448.608.592.736.816.736.288,0,.48-.368.48-.608C-72.768-9.616-73.664-10.56-75.1-10.56Zm-3.2,3.7a.194.194,0,0,1,.112-.24,13.77,13.77,0,0,1,1.616-.048c.352,0,.8.048,1.136.08.16.016.944.144,1.12.144.208,0,.464-.1.464-.384,0-.656-1.824-1.008-2.016-1.008-.176,0-1.008.256-1.2.288-1.12.16-5.264.608-6.288.608a4.733,4.733,0,0,1-1.008-.112,1.408,1.408,0,0,0-.24-.08c-.08,0-.112.064-.112.16A1.4,1.4,0,0,0-83.456-6.24,10.1,10.1,0,0,0-82.3-6.528a19.723,19.723,0,0,1,2.544-.48c.352,0,.384.288.384.48A10.791,10.791,0,0,1-82.512-.5a10.9,10.9,0,0,0-.848.8c0,.048.032.08.1.08a7.93,7.93,0,0,0,4.24-4.112c.144-.272.752-1.744.8-1.808.048-.08.432-.384.432-.5A4.971,4.971,0,0,0-78.3-6.864Zm-3.872-4c-.08.032.416,1.152,1.2,1.152.048,0,.672-.128.752-.144.24-.048,1.312-.256,2.128-.352.944-.1,1.216-.128,1.216-.592s-.576-.528-.912-.528a6.538,6.538,0,0,0-1.28.192,9.873,9.873,0,0,1-2.272.4C-81.472-10.736-82.176-10.864-82.176-10.864Zm21.056,4.64c.8-1.024.9-1.136,1.248-1.664a1.828,1.828,0,0,1,.5-.512.377.377,0,0,0,.128-.288c0-.544-1.36-1.1-1.536-1.1a.174.174,0,0,0-.176.16,1.91,1.91,0,0,0,.128.256.84.84,0,0,1,.112.384c0,.4-1.232,2.864-4.416,5.488-.16.128-.64.528-.64.608a.091.091,0,0,0,.1.1A11.487,11.487,0,0,0-62.1-5.2c.256-.224.288-.256.336-.256.32,0,.32,1.36.32,1.76a20.061,20.061,0,0,1-.176,2.752,3.38,3.38,0,0,0-.08.576c0,.32.416.944.8.944.352,0,.352-.48.352-.608,0-.176-.1-.992-.1-1.152-.032-.608-.032-1.12-.032-1.536a16.485,16.485,0,0,1,.064-2.3c.016-.1.16-.464.16-.544,0-.208-.336-.368-.608-.544A.162.162,0,0,1-61.12-6.224Zm16.4-2.736c0-.944-1.344-1.856-3.056-1.856-.224,0-.352.08-.352.144s.08.112.144.144a3.6,3.6,0,0,1,1.456,1.312c.528.8.688,1.056,1.12,1.056A.707.707,0,0,0-44.72-8.96Zm6.656-.144a.1.1,0,0,0-.08-.08c-.032,0-.48.448-.736.7-2.656,2.624-6.9,5.456-7.68,5.456a2.648,2.648,0,0,1-1.088-.368,3.983,3.983,0,0,0-.48-.3c-.144,0-.16.736-.16.848,0,.64,1.184,1.664,2.048,1.664.24,0,.272-.032.576-.4A11.173,11.173,0,0,1-44.1-2.9C-39.936-5.968-38.064-8.96-38.064-9.1Zm10.032-1.5c.128.96-1.392,3.168-2.688,4.464a13.569,13.569,0,0,0-1.264,1.2c0,.048.032.1.112.1A4.889,4.889,0,0,0-30.336-5.7a12.028,12.028,0,0,0,2.176-2.08c.672-.768.7-.8,1.008-.8.1,0,.528.048.624.048.384,0,2.592-.5,2.624-.5a.173.173,0,0,1,.176.176c0,.5-3.04,5.952-7.92,8.64-.5.272-.544.3-.544.368A.143.143,0,0,0-32.048.3a10.945,10.945,0,0,0,3.184-1.536,19.565,19.565,0,0,0,5.728-6.016c.56-.864.624-.96.8-1.072.528-.32.64-.384.64-.608a.58.58,0,0,0-.3-.4c-.08-.048-.5-.272-.592-.32-.656-.384-.736-.432-.88-.432a2.989,2.989,0,0,0-.752.256,9.056,9.056,0,0,1-2.432.64c-.064,0-.256,0-.256-.128,0-.08.048-.144.128-.256.32-.4.48-.608.48-.8a1.5,1.5,0,0,0-1.488-.9c-.128,0-.352,0-.352.16C-28.144-11.04-28.048-10.688-28.032-10.608Zm6.112-2.7c-.16,0-.576.1-.576.224,0,.048.048.128.208.176a3.752,3.752,0,0,1,1.472.784c.352.368.512.528.848.528a.433.433,0,0,0,.4-.464c0-.16,0-.528-.656-.912A2.952,2.952,0,0,0-21.92-13.312Zm-1.1,1.376c-.144,0-.272.08-.272.144s.16.176.24.224a5.053,5.053,0,0,1,1.136.944c.5.592.624.688.848.688.272,0,.464-.352.464-.624C-20.608-10.752-20.976-11.936-23.024-11.936ZM-7.44-9.12A17.447,17.447,0,0,1-13.472-1.7a4.936,4.936,0,0,0-.736.592c0,.1.08.1.112.1a3.93,3.93,0,0,0,.992-.368A16.075,16.075,0,0,0-8.832-4.8c.352-.4.4-.448.56-.448.352,0,1.76,1.216,2.864,3.152.56.992.624,1.1.992,1.1a.691.691,0,0,0,.656-.7c0-1.456-2.864-3.072-3.584-3.488-.672-.368-.7-.4-.7-.544a.526.526,0,0,1,.128-.32c.256-.368,1.52-2.24,1.84-2.624.1-.112.688-.544.688-.688,0-.4-.976-1.216-1.36-1.216a6.108,6.108,0,0,0-.88.5,22.141,22.141,0,0,1-4.384.592,2.851,2.851,0,0,1-.848-.16c-.048-.016-.4-.112-.416-.112-.08,0-.1.048-.1.128a3.265,3.265,0,0,0,.384.928,3.339,3.339,0,0,0,1.088.576,6.911,6.911,0,0,0,.72-.3c.08-.032,3.44-.816,3.552-.816A.18.18,0,0,1-7.44-9.12ZM15.12-6.112c.512,0,.848,0,.848-.224,0-.208-1.3-1.024-1.408-1.024-.144,0-.592.608-.72.72-.112.112-.192.112-.848.112h-.7c-.528,0-.528-.192-.528-.784a20.907,20.907,0,0,1,.064-2.1c.1-.176.24-.208.464-.208h2.256c.528,0,.848,0,.848-.224A4.612,4.612,0,0,0,14.064-10.9c-.16,0-.656.64-.784.752-.112.1-.224.112-.592.112H12.3c-.368,0-.528-.08-.528-.5a17.306,17.306,0,0,1,.1-1.888c.016-.064.272-.32.272-.4,0-.176-1.44-.5-1.488-.5a.069.069,0,0,0-.064.064c0,.144.144,1.264.16,1.5.016.128.032,1.088.032,1.28,0,.432-.32.432-.464.432H9.088c-.08,0-.208-.016-.208-.144,0-.016.192-.464.288-.7.224-.512.24-.576.4-.624.288-.1.4-.128.4-.24,0-.224-1.488-.656-1.536-.656-.112,0-.128.032-.16.368A13.911,13.911,0,0,1,7.36-8.784c-.08.192-.528,1.2-.528,1.232,0,.048.032.048.048.048A5.848,5.848,0,0,0,8.288-9.216c.208-.368.24-.4.576-.4H10.3c.352,0,.432.112.464.336.048.256.048,1.84.048,2.224,0,.432-.112.528-.56.528h-.5c-.752,0-1.9-.064-2.032-.064-.1,0-.592-.048-.7-.048-.032,0-.064,0-.064.032s.016.032.08.112l.3.368c.048.064.08.1.144.1.048,0,.288-.032.336-.032.368-.032,1.216-.048,1.6-.048.352,0,.608,0,.608.336A13.355,13.355,0,0,1,6.608-.816a3.446,3.446,0,0,0-.544.576c0,.048.064.064.1.064a2.653,2.653,0,0,0,.576-.272,11.6,11.6,0,0,0,3.792-4.176c.128-.208.16-.24.224-.24.08,0,.1.064.1.3,0,.032-.048,2.56-.064,3.344-.016.56-.128,1.472-.128,2.032,0,.224.1.336.336.336a1.194,1.194,0,0,0,.656-.208c.128-.1.16-.24.16-.5,0-.784-.032-4.608-.032-5.472,0-.08,0-.176.064-.176.032,0,.064.048.064.064.048.112.224.656.272.768A11.342,11.342,0,0,0,14.688-.32a3.734,3.734,0,0,0,.72-.432,2.079,2.079,0,0,1,.816-.176c.048,0,.16,0,.16-.08s-.368-.288-.608-.432A8.451,8.451,0,0,1,12-5.888c0-.224.224-.224.4-.224ZM6.4-8.64c.368,0,.7,0,.7-.192a3.917,3.917,0,0,0-1.2-.912c-.128,0-.176.1-.336.4a.474.474,0,0,1-.416.272c-.32,0-.336-.208-.336-.3,0-.192.112-2.208.112-2.48,0-.288.032-.368.192-.5s.208-.16.208-.272c0-.16-.112-.208-.432-.288a9.962,9.962,0,0,0-1.024-.3c-.032,0-.048.032-.048.064,0,.08.112,1.2.112,1.44,0,2.64,0,2.64-.432,2.64-.336,0-1.808-.112-2.064-.112a.042.042,0,0,0-.048.048c0,.016.016.032.064.1l.256.368c.032.064.064.112.112.112a1.8,1.8,0,0,0,.288-.048c.3-.016.96-.032,1.1-.032s.5,0,.5.384a24.26,24.26,0,0,1-1.5,4.8c-.1.208-.592,1.28-.592,1.312a.034.034,0,0,0,.032.032c.48,0,2.128-3.28,2.176-3.28s.048.176.048.208c0,.48-.048,4.128-.064,4.512C3.792-.5,3.76.64,3.76.784a.308.308,0,0,0,.352.336A.7.7,0,0,0,4.848.368c0-.5-.064-2.96-.048-3.52,0-.48-.016-2.816-.016-3.344,0-.3.1-.368.16-.368.224,0,.64.752.8,1.056.336.656.416.832.688.832.4,0,.416-.592.416-.656,0-.848-.9-1.184-1.3-1.344-.656-.24-.768-.32-.768-.64,0-.912,0-1.024.56-1.024Zm15.888-1.2c-.752,0-1.456-.016-2.192-.048-.1-.016-.592-.064-.7-.064-.048,0-.064.016-.064.048,0,.016,0,.032.064.1l.32.368c.048.064.08.112.128.112a2.656,2.656,0,0,0,.352-.048c.56-.032,1.648-.032,2.016-.032h4.32c.4,0,.432.1.528.688C28.08-2.592,31.424.816,32.832.816a.363.363,0,0,0,.416-.4.878.878,0,0,0-.16-.448,1.19,1.19,0,0,1-.176-.656c0-.336.208-2.064.208-2.112,0-.032,0-.112-.048-.112-.08,0-.384.7-.464.848-.208.384-.48.848-.7.848-.48,0-2.224-2.016-3.216-5.1a21.262,21.262,0,0,1-.64-2.832c0-.224.1-.256.368-.256h4.24c.56,0,.848,0,.848-.24,0-.272-1.3-1.2-1.536-1.2-.16,0-.208.064-.7.736-.208.272-.288.272-1.024.272H28.384c-.4,0-.528,0-.544-1.7,0-.736,0-.816.176-.992.144-.16.16-.176.16-.272,0-.208-.208-.272-.624-.352a6.947,6.947,0,0,0-1.12-.176c-.048,0-.112,0-.112.048,0,.176.192.992.224,1.168.048.256.3,1.952.3,2.08,0,.144-.064.192-.336.192Zm3.744,4.208c.544,0,.864,0,.864-.208a2.783,2.783,0,0,0-1.168-1.1c-.16,0-.64.768-.816.848a2.581,2.581,0,0,1-.768.048H22.88c-.736,0-1.456-.016-2.192-.048-.1-.016-.592-.064-.7-.064-.032,0-.064.016-.064.032,0,.032.016.048.08.112l.3.368c.048.064.08.112.144.112.032,0,.192-.032.224-.032a12.479,12.479,0,0,1,1.456-.048c.16,0,.448,0,.464.384,0,.064.016,1.424.016,1.552,0,.192-.016,2.16-.032,2.288a.323.323,0,0,1-.144.224,20.293,20.293,0,0,1-2.208.32c-.5.048-.544.064-.544.128,0,.048.448,1.728.624,1.728.1,0,.432-.4.528-.448A20.167,20.167,0,0,1,23.76-.432a20.688,20.688,0,0,0,4.288-1.744c0-.048-.064-.048-.08-.048-.032,0-3.648.816-3.888.816-.272,0-.272-.16-.272-1.136s.064-2.656.1-2.816c.064-.256.336-.272.448-.272ZM29.04-13.1c-.016.032.048.1.1.128a7.976,7.976,0,0,1,1.232,1.424c.336.48.368.528.544.528a.591.591,0,0,0,.656-.656c0-.928-2.208-1.472-2.432-1.472C29.1-13.152,29.04-13.136,29.04-13.1Zm7.68,6.832a15.866,15.866,0,0,0,7.008-5.136c.128-.16.384-.48.448-.48s.1.048.272.384a15.044,15.044,0,0,0,5.568,5.648c.1,0,.144-.048.208-.16a1.876,1.876,0,0,1,1.024-.656c.4-.128.448-.144.448-.24,0-.08,0-.08-.448-.208-3.792-1.072-6.624-4.624-6.624-5.12,0-.064.016-.112.112-.16.16-.112.192-.128.192-.208,0-.272-1.488-.976-1.5-.976-.192,0-.192.064-.32.56-.08.352-1.088,2.256-3.824,4.592-1.04.88-2.352,1.808-2.464,1.888-.192.128-.24.16-.24.224C36.576-6.24,36.672-6.256,36.72-6.272Zm5.264,2.144c.272,0,.48,0,.48.272a11.2,11.2,0,0,1-.832,2.112c-.656,1.312-.768,1.312-1.664,1.312A8.479,8.479,0,0,1,39.024-.5c-.1-.016-.592-.112-.7-.112-.048,0-.128,0-.128.112a12.641,12.641,0,0,0,.88,1.7.182.182,0,0,0,.16.112,3.344,3.344,0,0,0,.464-.256A70.041,70.041,0,0,1,47.12-.416c.224,0,.368.048.672.592C48.08.7,48.416,1.3,48.88,1.3c.3,0,.624-.352.624-.864,0-1.008-.992-1.584-1.424-1.84A14.882,14.882,0,0,0,46.048-2.4c-.048,0-.112.016-.112.1,0,.192.944,1.008.944,1.248,0,.16-.128.176-1.28.288-1.776.176-3.28.272-3.488.272-.064,0-.288-.016-.288-.16s.16-.3.224-.384c.1-.1.752-.88,1.088-1.328.4-.528.432-.576.56-.624.48-.128.48-.128.48-.272,0-.176-.752-.816-.752-.816,0-.048.064-.048.224-.048h4.9c.752,0,.832,0,.832-.208,0-.144,0-.16-.816-.832-.368-.3-.416-.336-.544-.336-.144,0-.208.1-.448.432-.384.528-.56.528-1.232.528h-5.28c-.56,0-1.408-.032-2.192-.064-.1,0-.592-.048-.7-.048-.032,0-.064,0-.064.032,0,.016.048.064.08.112l.3.368c.064.064.08.1.144.1.048,0,.288-.032.336-.032.432-.032.832-.048,2.016-.048ZM42.72-7.1c-.64,0-1.408-.016-2.192-.064-.1,0-.592-.048-.7-.048-.032,0-.048.016-.048.032,0,.032,0,.048.064.112l.3.368c.064.064.1.1.144.1s.288-.032.336-.032c.592-.048,1.056-.048,2.032-.048h3.68c.768,0,.848,0,.848-.176a4.339,4.339,0,0,0-1.216-1.2c-.08,0-.272.24-.528.544-.32.384-.352.416-1.136.416ZM59.872.576c.064.08.1.112.144.112S60.3.64,60.352.64c.56-.048,1.632-.032,2.016-.032h5.68c.528,0,.864,0,.864-.224,0-.272-1.408-1.312-1.552-1.312-.192,0-.24.064-.672.624a.994.994,0,0,1-.944.48h-.592c-.416,0-.416-.288-.416-.88,0-1.072-.048-5.76-.048-6.72,0-.288.032-.528.464-.528h2.224c.512,0,.848,0,.848-.208,0-.3-1.12-1.344-1.344-1.344-.144,0-.192.064-.656.688-.336.448-.416.448-1.168.448-.384,0-.384-.3-.384-.5,0-.432.048-3.088.144-3.312.032-.08.352-.352.352-.432,0-.272-.336-.352-.48-.4-.112-.032-1.1-.336-1.152-.336-.1,0-.128.032-.128.112,0,.128.1.688.1.816.08,1.2.112,1.92.112,3.392,0,.448-.032.656-.416.656-.544,0-1.84-.064-2-.064-.08,0-.656-.048-.672-.048s-.048,0-.048.032,0,.032.064.112l.3.368c.064.064.1.1.144.1.064,0,.288-.032.336-.032.56-.048,1.488-.048,1.888-.048.384,0,.384.336.384.5,0,.832-.032,6.992-.064,7.28-.032.352-.32.352-.464.352h-.624c-.9,0-1.728-.032-2.192-.048-.112,0-.608-.064-.7-.064A.051.051,0,0,0,59.5.112c0,.016,0,.016.064.1ZM54.64-9.216c.048.064.08.1.144.1.048,0,.288-.032.336-.032.56-.032,1.232-.048,1.856-.048H58.1c.144,0,.256.016.256.16,0,.464-2.256,3.264-2.9,3.92A16.1,16.1,0,0,0,54.064-3.7c0,.048.048.048.08.048.416,0,2.5-1.808,2.656-1.808s.16.272.16.448c0,1.888-.064,3.552-.1,4.736C56.864-.1,56.8.64,56.8.8c0,.224.1.384.48.384a.763.763,0,0,0,.848-.736c0-.224-.08-1.216-.08-1.424,0-.656-.016-3.616-.016-4.224,0-.192,0-.416.144-.416.3,0,.832.816.928.992.416.848.592,1.168.976,1.168.288,0,.56-.24.56-.736,0-1.216-1.5-1.648-2.048-1.776-.384-.08-.528-.112-.528-.448,0-.288.048-.336.512-.816a18.416,18.416,0,0,1,1.488-1.6c.048-.016.272-.064.32-.08a.241.241,0,0,0,.176-.208c0-.1-.032-.128-.384-.464-.048-.032-.384-.432-.576-.624a.3.3,0,0,0-.224-.112c-.144,0-.608.48-.72.544a.57.57,0,0,1-.384.112c-.16,0-.256-.032-.256-.256v-1.344c0-.672,0-.752.08-.9.032-.064.32-.3.32-.368,0-.112-.1-.176-.176-.224a12.3,12.3,0,0,0-1.44-.432c-.016,0-.064,0-.064.032,0,.1.08.464.08.544.048.608.064,1.552.064,1.792,0,1.072,0,1.184-.448,1.184-.336,0-1.808-.1-2.112-.1-.016,0-.064,0-.064.032,0,.016.016.032.08.112Zm23.1.208c-.544,0-.864.112-2.208,1.184a6.074,6.074,0,0,1-2.608,1.232c-.272.032-.3.048-.3.112,0,.272.944,1.024,1.552,1.024a.443.443,0,0,0,.256-.08c.032-.016,1.2-1.12,1.312-1.232,1.312-1.28,1.456-1.424,1.984-1.424.256,0,.528.208.9.56.352.336,2.064,2.064,2.448,2.432C83.456-2.912,84.9-2.864,85.04-2.864c.448,0,.592-.512.592-.608,0-.464-.656-.816-1.408-1.168a13.684,13.684,0,0,1-4.48-3.072C78.688-8.768,78.16-9.008,77.744-9.008ZM97.152-10.88a4.121,4.121,0,0,1,4.432,4.432c0,3.984-3.472,5.36-5.136,6.016-.4.16-.432.176-.432.224,0,.1.1.112.16.112a9.834,9.834,0,0,0,2.656-.592,5.967,5.967,0,0,0,4.032-5.632,5.015,5.015,0,0,0-2.784-4.656,5.212,5.212,0,0,0-2.576-.512,6.62,6.62,0,0,0-5.1,2.08,5.636,5.636,0,0,0-1.776,4.08c0,1.952.944,3.6,2,3.6.64,0,1.456-.384,2.736-2.336a8.207,8.207,0,0,0,1.648-4.688,12.265,12.265,0,0,0-.16-1.728c0-.064-.032-.128-.032-.176C96.816-10.752,96.832-10.88,97.152-10.88Zm-.9.048c.208,0,.272.08.272,1.04A9.152,9.152,0,0,1,94.96-5.136c-1.1,1.664-1.488,1.856-1.952,1.856-.976,0-1.392-1.424-1.392-2.464A5.525,5.525,0,0,1,96.256-10.832Zm22.88,1.9a2.046,2.046,0,0,0-1.728,1.008c0,.048.016.064.064.064a.358.358,0,0,0,.16-.048,1.389,1.389,0,0,1,.624-.16c.544,0,1.344.224,1.344.864a.842.842,0,0,1-.064.288,1.1,1.1,0,0,0-.048.128.075.075,0,0,0,.08.08c.064,0,.4-.1.48-.112.08,0,.448.032.544.032.336,0,.528-.432.528-.768C121.12-8.288,120.368-8.928,119.136-8.928Zm-5.872-.464c-.032.016-.064.048-.064.064,0,.032.08.192.08.224,0,.224-.448.4-.56.4-.1,0-.128-.112-.128-.176a8.547,8.547,0,0,1,.16-1.04,6.448,6.448,0,0,0,.336-.832,1.6,1.6,0,0,0-1.648-1.088c-.1,0-.352.032-.352.176a1.6,1.6,0,0,0,.224.256,1.571,1.571,0,0,1,.528,1.28,11.965,11.965,0,0,1-.16,1.744,6.989,6.989,0,0,1-2.032.48,4.649,4.649,0,0,1-.736-.08c-.048,0-.24-.064-.288-.064a.113.113,0,0,0-.128.112c0,.112.608,1.216,1.152,1.216a3.431,3.431,0,0,0,1.136-.3,3.742,3.742,0,0,1,.736-.144c.176,0,.224.24.224.352.016.272.032,1.632.032,2,0,.448-.1.5-.912.9a3.42,3.42,0,0,1-1.664.544c-.1,0-.56-.08-.656-.08-.288,0-.464.336-.464.624,0,.528.816,1.008.992,1.008a3.161,3.161,0,0,0,.608-.32,1.334,1.334,0,0,1,.4-.1c.208,0,.288,0,.8.992.128.256.3.592.736.592.576,0,.816-1.056.816-1.792,0-.16-.048-.88-.048-1.056,0-.272.1-.32.992-.8a8.172,8.172,0,0,1,3.312-1.2,1.658,1.658,0,0,1,1.536,1.76c0,1.28-1.344,1.984-2.4,1.984-.16,0-1.04,0-1.04-.768a.662.662,0,0,1,.144-.432c.032-.048.064-.08.064-.128a.086.086,0,0,0-.08-.08,1.426,1.426,0,0,0-.8,1.264c0,.832.736,1.3,1.648,1.3,1.312,0,3.536-.96,3.536-3.072A2.45,2.45,0,0,0,116.832-6.1a7.519,7.519,0,0,0-2.72.64c-.256.1-1.568.64-1.616.64-.144,0-.144-.192-.144-.288,0-.08,0-1.376.032-1.728.032-.56.048-.624.272-.7.384-.16,1.6-.64,1.6-1.168C114.256-9.2,113.488-9.424,113.264-9.392Zm-1.584,6.08c.048.032.048.192.048.256,0,.784-.224,1.232-.448,1.232-.24,0-.672-.512-.672-.752C110.608-2.8,111.632-3.312,111.68-3.312Zm17.776-6.624c.24,0,.4,0,.432.224v1.1c0,.352-.16.352-.432.352h-2.128c-.24,0-.384,0-.432-.24V-9.584c0-.352.16-.352.432-.352Zm4.832-2.4a1.024,1.024,0,0,1-.448-.112,2.1,2.1,0,0,0-.768-.288c-.144,0-.176.176-.176.256,0,.272.08,1.472.08,1.712,0,.5-.016,3.024-.016,3.152.016.48.272.512.4.512a.734.734,0,0,0,.736-.512c.064-.224.256-.224.48-.224h2.064c.352,0,.528,0,.528.464,0,.9-.032,4.848-.032,5.648,0,1.184,0,1.312-.656,1.312-.16,0-.8-.032-.944-.032-.112,0-.176.032-.176.08,0,.08.848.5.992.64a.848.848,0,0,1,.224.64c0,.08.128.144.208.144a2.21,2.21,0,0,0,1.008-.512,1.931,1.931,0,0,0,.4-1.5c0-.464-.032-2.528-.032-2.944v-7.312a.662.662,0,0,1,.256-.608c.1-.08.192-.176.192-.272,0-.288-.928-.816-1.056-.816-.112,0-.144.048-.464.416a.378.378,0,0,1-.384.16Zm-7.088,0a.762.762,0,0,1-.464-.112,2.191,2.191,0,0,0-.9-.368c-.064,0-.064.1-.064.16,0,.144.128,1.616.128,1.92,0,4.96-.016,5.568-.176,11.024,0,.048-.016.208-.016.288,0,.384.144.544.416.544a.916.916,0,0,0,.864-1.04c0-.176-.048-.976-.048-1.136-.032-1.168-.048-4.832-.048-5.68,0-.992,0-1.1.512-1.1h1.936c.208,0,.448,0,.5.224s.1.48.448.48c.752,0,.752-.832.752-1.04,0-.224-.064-2.224-.064-2.624,0-.576,0-.624.112-.736.048-.048.368-.24.368-.3,0-.288-.8-.992-1.056-.992-.128,0-.224.1-.5.336a.44.44,0,0,1-.4.16Zm2.288.416c.352,0,.416.048.416.416v.928c-.032.208-.208.224-.416.224h-2.176c-.272,0-.416-.016-.416-.352v-.9c0-.3.144-.32.416-.32Zm5.008,1.568c-.256,0-.384,0-.432-.16a3.911,3.911,0,0,1-.032-.944c0-.448.08-.464.464-.464H136.7c.256,0,.384,0,.432.144a4.124,4.124,0,0,1,.032.96c0,.448-.1.464-.464.464Zm0,2.08c-.32,0-.448,0-.448-.352v-.944c0-.368.128-.368.448-.368h2.224c.32,0,.448,0,.448.368v.944c0,.352-.128.352-.448.352Zm-3.76,2.944a.977.977,0,0,1-.528-.144c-.8-.368-.848-.368-.944-.368-.064,0-.08.064-.08.128,0,.048.048.4.064.5.048.432.032,1.376.032,1.776,0,.64-.032,1.072-.064,1.76-.016.144-.032.576-.032.688,0,.352.08.592.368.592a.926.926,0,0,0,.832-.8c.032-.448.032-.528.512-.528h2.032c.272,0,.512,0,.512.384,0,.192.064.448.32.448a1.2,1.2,0,0,0,.7-.416c.128-.16.144-.352.144-.752,0-.368-.032-1.968-.016-2.288a.446.446,0,0,1,.128-.3c.144-.144.24-.224.24-.32,0-.32-.8-.9-.976-.9-.16,0-.224.1-.448.384a.415.415,0,0,1-.4.16Zm.176,3.168c-.336,0-.56-.032-.56-.3V-4.4c0-.448.1-.5.56-.5h2.048c.256,0,.448,0,.528.192.032.1.048,1.136.048,1.328a6.873,6.873,0,0,1-.048,1.024c-.064.192-.288.192-.528.192Zm13.68-8.352c-.032,0-.1.016-.1.064a2.161,2.161,0,0,0,.128.544,4.445,4.445,0,0,1,.112.928c0,.416-.224,2.384-.224,2.832,0,3.056,2.016,4.736,3.04,4.736.272,0,.608-.176.608-.5a4.015,4.015,0,0,0-.128-.528,2.159,2.159,0,0,1-.1-.64,4.489,4.489,0,0,1,.208-1.216,1.921,1.921,0,0,0,.048-.32c0-.064-.032-.128-.08-.128-.128,0-.4.384-.5.544-.48.8-.544.88-.816.88-.5,0-1.328-1.168-1.328-2.784a5.651,5.651,0,0,1,.384-2.064,2.192,2.192,0,0,0,.192-.64C146.048-9.232,145.328-10.512,144.592-10.512Zm7.632,1.472c-.08,0-.144.032-.144.08,0,.1.64.592.768.72.848.848.848,1.52.848,2.848,0,.208,0,1.072.784,1.072.768,0,.8-.752.8-1.056a3.982,3.982,0,0,0-1.424-3.056A3.114,3.114,0,0,0,152.224-9.04Zm12.192,4.512a1.454,1.454,0,0,1-.656-.1,8.164,8.164,0,0,0-.96-.432c-.144,0-.144.128-.144.176,0,.064.08.432.08.5.048.288.032,1.216.032,1.552,0,.576-.144,3.52-.144,3.616a.375.375,0,0,0,.416.416,1.478,1.478,0,0,0,.848-.32C164,.768,164,.72,164,.288s.32-.432.48-.432h4.832c.416,0,.416.176.416.848,0,.112,0,.416.352.416.224,0,1.024-.208,1.024-.64,0-.448-.1-2.672-.1-3.168,0-.24.016-.96.176-1.1s.208-.192.208-.336c0-.272-.944-1.008-1.04-1.008-.112,0-.528.464-.624.544a.689.689,0,0,1-.352.064Zm.048,3.968c-.464,0-.48-.288-.48-.5,0-.368.016-2.16.016-2.56,0-.24.032-.5.5-.5h4.864c.448,0,.448.3.448.5,0,.368-.016,2.16-.016,2.56,0,.192,0,.5-.464.5ZM166.1-13.68c-.048.032-.3.88-.384,1.04a20.566,20.566,0,0,1-3.9,5.36c-.288.288-1.84,1.664-1.84,1.744,0,.048.048.1.128.1.416,0,4.08-2.4,6.72-6.224.32-.464.352-.512.432-.512s.32.512.416.72a12.177,12.177,0,0,0,3.008,4.224,6.421,6.421,0,0,0,2.32,1.76c.064,0,.144-.08.208-.144a2.067,2.067,0,0,1,1.008-.448c.5-.112.56-.128.56-.272,0-.112,0-.112-.512-.3A13.161,13.161,0,0,1,170.224-9.1a11.275,11.275,0,0,1-2.5-3.36.146.146,0,0,1,.064-.128c.128-.1.176-.112.176-.208a.122.122,0,0,0-.032-.08A7.3,7.3,0,0,0,166.1-13.68Zm.352,6.656c-.752,0-1.424,0-2.208-.048-.1,0-.592-.064-.7-.064-.032,0-.048.016-.048.032,0,.032,0,.048.064.112l.3.368c.064.064.1.1.144.1s.288-.032.336-.032c.464-.032.9-.048,2.032-.048h3.008c.48,0,.864,0,.864-.192a6.091,6.091,0,0,0-1.456-1.152c-.144,0-.64.672-.768.784-.176.144-.368.144-.944.144Zm16.624-2.7c0-.176.048-.672.08-.928.032-.208.24-1.216.24-1.456,0-.528-1.088-1.184-1.52-1.184-.16,0-.544.08-.544.208,0,.064.032.1.3.416a3.028,3.028,0,0,1,.64,2.256,5.274,5.274,0,0,1-.144,1.36,5.33,5.33,0,0,1-.416.384c-1.072.992-1.168,1.008-1.44,1.056-.656.1-1.088.16-1.088.7,0,.288.048.352.56.992a2.8,2.8,0,0,1,.624,1.232,12.1,12.1,0,0,1-.8,1.552c-.4.672-.48.816-.48,1.088,0,.32.192.448.384.448.576,0,.912-.656,1.152-1.12.128-.256.336-.656.416-.656.384,0,.48,1.52.512,1.856.064.976.112,1.552.56,1.552a.976.976,0,0,0,.7-.928c0-.1-.064-.624-.08-.752-.064-.848-.08-2.88-.08-3.232,0-1.088.1-1.36.3-1.6a6.457,6.457,0,0,1,4.192-1.648,2.314,2.314,0,0,1,2.416,2.48c0,2.384-2.32,4.144-3.12,4.688-.176.128-1.184.688-1.184.736,0,.032.032.032.064.032.368,0,5.488-1.248,5.488-5.088a3.307,3.307,0,0,0-3.632-3.36,6.654,6.654,0,0,0-3.232.928,3.2,3.2,0,0,1-.464.24.073.073,0,0,1-.064-.08.889.889,0,0,1,.112-.3,1.757,1.757,0,0,0,.224-.768c0-.112,0-.368-.416-.624C183.088-9.408,183.072-9.424,183.072-9.728ZM182-7.9c.064.016.064.1.064.224,0,.576,0,.608-.992,2.064-.176.256-.224.336-.32.336-.176,0-.752-1.024-.752-1.248,0-.208.16-.224.672-.256a.956.956,0,0,0,.688-.56C181.632-7.808,181.9-7.92,182-7.9Zm-.112,2.816c.048,0,.08.032.08.1,0,.736,0,1.6-.192,1.6-.144,0-.464-.416-.464-.624A2.452,2.452,0,0,1,181.888-5.088Zm23.776-5.648a1.3,1.3,0,0,0-1.36-1.12c-.08,0-.352.016-.352.176,0,.032.288.576.3.592a2.358,2.358,0,0,1,.192,1.1c0,.208-.032.976-.08,1.3-.064.336-.176.352-1.168.512-.416.064-2.432.512-2.544.512-.208,0-.208-.128-.208-.464a8.828,8.828,0,0,1,.08-1.232,3.275,3.275,0,0,0,.08-.5c0-.56-.992-1.008-1.376-1.008-.192,0-.464.08-.464.224,0,.064.32.624.368.752a3.9,3.9,0,0,1,.256,1.68c0,.592-.016.736-.272.816a7.494,7.494,0,0,1-2.032.224c-.144,0-.816-.064-.976-.064-.144,0-.208.016-.208.224,0,.88,1.3,1.184,1.648,1.184.24,0,1.344-.5,1.616-.5.288,0,.288.16.288,1.5,0,3.04,0,4.32,4.576,4.32.368,0,1.824,0,1.824-.752a.833.833,0,0,0-.864-.688,5.049,5.049,0,0,0-.768.112,7.207,7.207,0,0,1-1.408.128c-2.24,0-2.528-.752-2.528-2.256,0-.048.032-1.5.048-2.032a1.286,1.286,0,0,1,.144-.656c.208-.352,3.1-.992,3.44-.992.24,0,.24.08.24.208A7.107,7.107,0,0,1,203.7-5.6a.576.576,0,0,1-.544.416c-.144,0-.864-.288-1.04-.288-.032,0-.08,0-.08.032a1.916,1.916,0,0,0,.208.336,5.811,5.811,0,0,1,.3.7c.144.464.208.64.752.64.576,0,1.44-.816,1.744-3.184.1-.832.112-.864,1.04-.864.288,0,1.68.176,2,.176s.784-.112.784-.528c0-.32-.24-.576-1.248-.864a8.618,8.618,0,0,0-1.152-.288c-.032,0-.128,0-.128.064a.132.132,0,0,0,.064.1c.288.272.32.3.32.4,0,.176-.144.192-.5.224-.128,0-.688.064-.752.064-.048,0-.176,0-.176-.08,0-.1.016-.208.128-1.28C205.44-9.968,205.664-10.7,205.664-10.736Zm17.776,8.3c.288-.144,1.12.528,1.584,1.088.384.48.432.544.624.544a.629.629,0,0,0,.576-.64c0-.944-1.68-1.7-2.464-2.032-.4-.176-.448-.288-.512-.88-.048-.432-.16-2.24-.16-2.592,0-.688,0-.7.592-.96s1.664-.72,1.664-1.472c0-.672-.528-.688-1.232-.72-.1,0-.928-.032-.928-.512a.694.694,0,0,1,.1-.336c.16-.256.176-.288.176-.4,0-.608-1.072-.832-1.392-.832-.336,0-.544.176-.544.272,0,.112.432.464.5.544.3.368.3.816.3,1.824,0,1.056,0,1.056-.88,1.056a4.788,4.788,0,0,1-1.792-.32,2.782,2.782,0,0,0-.432-.224c-.064,0-.08.064-.08.112A2.272,2.272,0,0,0,221.5-7.488a5.307,5.307,0,0,1,.736.032.532.532,0,0,1,.128.384c.016.448.064,2.144.064,2.24,0,.992,0,1.1-.4,1.1-3.28.048-3.28,1.744-3.28,1.968a1.812,1.812,0,0,0,2,1.6,2.638,2.638,0,0,0,2.384-1.52C223.184-1.792,223.328-2.384,223.44-2.432Zm-.224-7.408a.341.341,0,0,1,.192-.064c.224,0,.752.208.752.5,0,.368-.608.56-.832.56-.112,0-.24,0-.24-.608A.485.485,0,0,1,223.216-9.84ZM221.12-2.9c1.024,0,1.248.128,1.248.4,0,.544-.976,1.312-1.92,1.312-.56,0-1.056-.272-1.056-.7C219.392-2.352,220.208-2.9,221.12-2.9Zm-4.56.592c0-.464.448-2.768.448-3.28,0-.032,0-.144-.064-.144a8.061,8.061,0,0,0-.656,1.6c-.288.88-.3.944-.448.944-.384,0-.384-1.024-.384-1.12a10.691,10.691,0,0,1,.576-3.216c.128-.4.832-2.368.832-2.5,0-.288-.8-1.888-1.7-1.888-.1,0-.288.032-.288.128a3.214,3.214,0,0,0,.3.56,2.265,2.265,0,0,1,.368,1.328,10.778,10.778,0,0,1-.48,2.544,12.221,12.221,0,0,0-.416,3.136c0,2.48.8,4.08,1.6,4.08.368,0,.528-.3.528-.656C216.784-1.008,216.56-2.064,216.56-2.3ZM234.032.16c0-1.488-2.72-2.32-3.28-2.32-.128,0-.176.064-.176.112s.176.16.224.192a4.523,4.523,0,0,1,1.68,1.712c.528.96.592,1.072.928,1.072A.769.769,0,0,0,234.032.16ZM-312.584,31.072a2.046,2.046,0,0,0-1.728,1.008c0,.048.016.064.064.064a.358.358,0,0,0,.16-.048,1.389,1.389,0,0,1,.624-.16c.544,0,1.344.224,1.344.864a.842.842,0,0,1-.064.288,1.1,1.1,0,0,0-.048.128.075.075,0,0,0,.08.08c.064,0,.4-.1.48-.112.08,0,.448.032.544.032.336,0,.528-.432.528-.768C-310.6,31.712-311.352,31.072-312.584,31.072Zm-5.872-.464c-.032.016-.064.048-.064.064,0,.032.08.192.08.224,0,.224-.448.4-.56.4-.1,0-.128-.112-.128-.176a8.549,8.549,0,0,1,.16-1.04,6.447,6.447,0,0,0,.336-.832,1.6,1.6,0,0,0-1.648-1.088c-.1,0-.352.032-.352.176a1.6,1.6,0,0,0,.224.256,1.571,1.571,0,0,1,.528,1.28,11.967,11.967,0,0,1-.16,1.744,6.989,6.989,0,0,1-2.032.48,4.649,4.649,0,0,1-.736-.08c-.048,0-.24-.064-.288-.064a.113.113,0,0,0-.128.112c0,.112.608,1.216,1.152,1.216a3.431,3.431,0,0,0,1.136-.3,3.743,3.743,0,0,1,.736-.144c.176,0,.224.24.224.352.016.272.032,1.632.032,2,0,.448-.1.5-.912.9a3.42,3.42,0,0,1-1.664.544c-.1,0-.56-.08-.656-.08-.288,0-.464.336-.464.624,0,.528.816,1.008.992,1.008a3.161,3.161,0,0,0,.608-.32,1.334,1.334,0,0,1,.4-.1c.208,0,.288,0,.8.992.128.256.3.592.736.592.576,0,.816-1.056.816-1.792,0-.16-.048-.88-.048-1.056,0-.272.1-.32.992-.8a8.172,8.172,0,0,1,3.312-1.2,1.658,1.658,0,0,1,1.536,1.76c0,1.28-1.344,1.984-2.4,1.984-.16,0-1.04,0-1.04-.768a.662.662,0,0,1,.144-.432c.032-.048.064-.08.064-.128a.086.086,0,0,0-.08-.08,1.426,1.426,0,0,0-.8,1.264c0,.832.736,1.3,1.648,1.3,1.312,0,3.536-.96,3.536-3.072a2.45,2.45,0,0,0-2.464-2.416,7.519,7.519,0,0,0-2.72.64c-.256.1-1.568.64-1.616.64-.144,0-.144-.192-.144-.288,0-.08,0-1.376.032-1.728.032-.56.048-.624.272-.7.384-.16,1.6-.64,1.6-1.168C-317.464,30.8-318.232,30.576-318.456,30.608Zm-1.584,6.08c.048.032.048.192.048.256,0,.784-.224,1.232-.448,1.232-.24,0-.672-.512-.672-.752C-321.112,37.2-320.088,36.688-320.04,36.688Zm16.448-2.608a1.486,1.486,0,0,1-.864-.208c-.432-.256-.56-.32-.7-.32s-.16.16-.16.24c0,.1.032.352.048.528.016.144.08,1.376.08,1.808,0,.384-.048,2.288-.048,2.7,0,.112,0,.528.416.528.272,0,.8-.224.816-.624.016-.5.016-.608.5-.608h2.64c.512,0,.512.144.512.992,0,1.68,1.12,1.712,3.472,1.712a13.1,13.1,0,0,0,3.344-.32,1.484,1.484,0,0,0,.912-1.152c0-.1-.064-.144-.144-.224a.776.776,0,0,1-.384-.464c-.048-.16-.048-1.136-.24-1.136-.048,0-.1.128-.128.272-.368,2-.5,2.064-3.552,2.064-2.272,0-2.272-.224-2.272-1.28,0-.464.288-.464.528-.464h2.48c.368,0,.448.048.528.224.064.176.1.288.352.288a.719.719,0,0,0,.8-.816c0-.352-.048-2.08-.048-2.464a.963.963,0,0,1,.112-.592,1.806,1.806,0,0,0,.288-.448c0-.24-.7-.848-.912-.848-.112,0-.144.032-.48.336a.725.725,0,0,1-.7.272Zm2.784,2.176c.416,0,.448.128.448.72,0,.576,0,.736-.448.736h-2.816c-.448,0-.448-.112-.448-1.056,0-.384.224-.4.432-.4Zm-2.816-.416c-.464,0-.48-.128-.48-.912,0-.24.032-.432.464-.432h2.816c.448,0,.448.16.448.688,0,.5,0,.656-.448.656Zm7.36.416c.448,0,.448.112.448.768,0,.544,0,.688-.448.688h-2.624c-.464,0-.464-.112-.464-.816,0-.48,0-.64.464-.64Zm-2.64-.416c-.448,0-.448-.144-.448-.64,0-.56,0-.7.448-.7h2.656c.448,0,.448.16.448.624,0,.592,0,.72-.448.72Zm4.208-6.064c.128,0,.32,0,.32.192,0,.16-.384.816-.384.928a.076.076,0,0,0,.08.08,3.688,3.688,0,0,0,.656-.448,1.842,1.842,0,0,1,1.216-.416c.128-.016.448-.064.448-.24a3.8,3.8,0,0,0-1.376-1.12c-.1,0-.24.128-.544.416a.644.644,0,0,1-.56.192H-298.9c-.432,0-.432-.192-.432-.656,0-.4,0-.592.448-.592h3.792c.544,0,.864,0,.864-.224,0-.192-1.392-1.056-1.5-1.056-.144,0-.192.064-.64.592-.224.272-.3.272-1.024.272h-4.96c-.752,0-1.408-.032-2.192-.064-.1,0-.592-.048-.7-.048-.032,0-.048,0-.048.032s0,.032.064.112l.3.368c.048.048.1.1.144.1s.288-.032.336-.032c.192-.016.624-.048,2.032-.048h1.6c.448,0,.448.1.448.832,0,.416-.24.416-.416.416h-4.4c-.208,0-.384,0-.48-.176-.144-.256-.224-.4-.32-.4-.08,0-.1.048-.128.432a2.574,2.574,0,0,1-.32.9c-.4.624-.512.8-.512,1.072a.547.547,0,0,0,.528.576c.1,0,.992,0,.992-1.728,0-.256.112-.256.352-.256h4.24c.4,0,.5.128.5.64,0,.416-.032,2.448-.032,2.912,0,.368.048.416.384.416.72.016.72-.5.72-.72,0-.368-.064-2.192-.064-2.608,0-.4.016-.64.544-.64Zm-.512,1.536c.112,0,.416,0,.416-.224,0-.176-.448-.768-.688-.768-.112,0-.16.048-.464.352a.614.614,0,0,1-.56.208h-.768c-.432,0-.88-.048-1.008-.048a2.265,2.265,0,0,0-.32-.064c-.032,0-.032.016-.032.032a.183.183,0,0,0,.048.112l.208.32a1.4,1.4,0,0,0,.128.16c.016,0,.176-.048.208-.048.3-.032.656-.032.864-.032Zm-8.288-.432c-.416,0-.88-.048-1.008-.048a2.265,2.265,0,0,0-.32-.064c-.032,0-.032.016-.032.048a.7.7,0,0,0,.08.144l.176.272c.032.048.1.16.128.16.016,0,.176-.048.224-.048a8.4,8.4,0,0,1,.864-.032h1.92c.128,0,.384,0,.384-.192,0-.208-.416-.864-.672-.864-.08,0-.144.048-.656.48a.484.484,0,0,1-.432.144Zm.016,1.536c-.432,0-.88-.032-1.008-.048a2.266,2.266,0,0,0-.32-.064c-.032,0-.032.016-.032.048a.649.649,0,0,0,.08.144l.176.272c.032.048.1.16.128.16.016,0,.176-.048.208-.048a8.55,8.55,0,0,1,.864-.032h1.936c.208,0,.336,0,.336-.176a1.72,1.72,0,0,0-.672-.88,5.547,5.547,0,0,0-.608.48.484.484,0,0,1-.432.144Zm6.256,0c-.432,0-.88-.032-1.024-.048a1.7,1.7,0,0,0-.3-.064c-.032,0-.032.016-.032.048a.446.446,0,0,0,.08.144l.176.272c.032.064.08.16.128.16.016,0,.176-.048.208-.048a8.55,8.55,0,0,1,.864-.032h2.192c.208,0,.448,0,.448-.176,0-.128-.544-.848-.736-.848-.1,0-.288.208-.48.4a.424.424,0,0,1-.4.192Zm11.536,7.392c.08,0,.4,0,.448.272.048.3.064.432.368.432a.707.707,0,0,0,.736-.672c0-.064-.064-.56-.08-.656-.016-.176-.016-.352-.016-.7,0-.08,0-1.76.016-1.824.016-.08.048-.112.224-.224.064-.048.16-.128.16-.224,0-.352-1.008-.736-1.088-.736-.128,0-.16.032-.384.3a.587.587,0,0,1-.528.176h-1.152a1.266,1.266,0,0,1-.752-.208,2.276,2.276,0,0,0-.624-.192c-.112,0-.144.112-.144.208,0,.064.064.4.064.464a8.325,8.325,0,0,1,.048,1.248c0,.5-.048,2.672-.048,3.1,0,.128,0,.528.448.528a.672.672,0,0,0,.688-.688c0-.4,0-.608.5-.608Zm0-3.424c.288,0,.448.112.448.448V38.96a.386.386,0,0,1-.448.432h-1.136c-.16,0-.416,0-.464-.288-.064-.352-.064-1.744-.064-2.256,0-.448.3-.464.48-.464Zm7.3-5.024c-.1,0-.4,0-.448-.272-.016-.048-.016-1.488-.016-2.24,0-.4.064-.448.224-.48.128-.032,1.856-.4,1.952-.4.032,0,.464.016.512.016.192,0,.352-.1.352-.24,0-.176-.048-.208-.608-.5a7.7,7.7,0,0,0-.816-.4c-.064,0-.112.032-.448.208-.208.112-1.712.624-2.08.736-.368.128-3.088.7-3.088.832,0,.048.1.08.176.08.352,0,2.08-.224,2.464-.224.288,0,.32.144.32.4v2.032c0,.176,0,.448-.464.448h-.336c-.752,0-1.408-.032-2.192-.064-.1,0-.592-.048-.7-.048-.032,0-.064,0-.064.032s.016.032.08.112l.3.368c.048.064.08.1.144.1.048,0,.288-.032.336-.032.16-.016.624-.048,2.016-.048h.416c.272,0,.464.1.464.432V34.64c0,.48-.048.608-.544.608h-.656a1.038,1.038,0,0,1-.544-.112,2.789,2.789,0,0,0-.9-.3c-.128,0-.192.1-.192.224,0,.064.064.4.064.464a16.384,16.384,0,0,1,.048,2.064c0,.448,0,2.064-.016,2.416,0,.032-.032.448-.032.56,0,.16,0,.512.512.512.672,0,.672-.48.672-.752,0-.4.3-.416.512-.416h3.152c.16,0,.448.016.5.288.048.352.08.448.4.448a.731.731,0,0,0,.8-.72c0-.16-.1-.928-.1-1.1-.032-.592-.048-2.24-.048-2.48a.538.538,0,0,1,.08-.336c.048-.064.368-.32.368-.416a2.262,2.262,0,0,0-1.1-.784c-.144,0-.16.032-.336.272a.632.632,0,0,1-.544.176h-.544c-.256,0-.528,0-.528-.448,0-.288,0-2.5.016-2.672.016-.288.224-.352.464-.352h2.688c.544,0,.912,0,.912-.256s-1.152-1.056-1.36-1.056c-.192,0-.3.176-.56.608-.176.288-.352.288-1.024.288Zm.576,4.32c.208,0,.512,0,.512.448v2.96c0,.4-.32.4-.528.4h-3.136c-.192,0-.464,0-.528-.224-.08-.272-.08-2.512-.08-2.944,0-.5.048-.64.56-.64Zm-6.848-7.536c.352,0,.56,0,.56-.208,0-.256-.9-1.008-1.12-1.008-.112,0-.16.064-.528.56-.192.24-.208.24-.656.24-.4,0-1.2-.032-1.616-.064-.064-.016-.384-.048-.4-.048-.032,0-.032.016-.032.032,0,.032,0,.032.048.112l.208.368c.032.048.064.1.1.1.048,0,.288-.048.336-.048.368-.032.912-.032,1.312-.032Zm-2.576,1.536c-.4,0-1.2-.032-1.616-.064-.064,0-.4-.048-.4-.048-.032,0-.048.016-.048.032,0,.032.016.032.048.112l.224.368c.032.064.048.1.1.1a2.826,2.826,0,0,0,.336-.048c.432-.032.96-.032,1.3-.032h3.648c.384,0,.592,0,.592-.192,0-.256-1.072-1.088-1.312-1.088-.144,0-.176.064-.576.624-.16.24-.224.24-.416.24Zm.784,1.92c-.4,0-1.2-.032-1.616-.064-.064-.016-.384-.048-.384-.048-.032,0-.048.016-.048.032s0,.032.048.1l.208.384c.032.048.064.1.112.1s.272-.048.32-.048c.416-.032,1.024-.032,1.312-.032h1.984c.448,0,.688,0,.688-.192,0-.224-.816-.9-1.088-.9-.08,0-.112.048-.464.432-.192.224-.208.24-.448.24Zm.048,2.16c-.432,0-1.152,0-1.6-.048-.064,0-.4-.048-.4-.048-.032,0-.048,0-.048.032,0,.016,0,.032.048.1l.208.368c.048.08.064.112.112.112.032,0,.192-.032.224-.032a9.607,9.607,0,0,1,1.408-.048h1.984c.416,0,.656,0,.656-.192a2.285,2.285,0,0,0-.944-.88c-.128,0-.224.144-.432.416a.416.416,0,0,1-.448.224Zm25.84.16a10.478,10.478,0,0,1,2.3-6.576,7.377,7.377,0,0,0,.784-.944.106.106,0,0,0-.112-.1,9.293,9.293,0,0,0-3.856,7.616,9.293,9.293,0,0,0,3.856,7.616.106.106,0,0,0,.112-.1,7.378,7.378,0,0,0-.784-.944A10.478,10.478,0,0,1-260.568,33.92Zm7.1-.96a.369.369,0,0,1,.4.4c.032.544,0,4.016,0,4.064,0,1.616,0,2.88,1.68,2.88a2.634,2.634,0,0,0,2.336-1.392c0-.064-.032-.128-.1-.128-.112,0-.48.368-.576.432a1.789,1.789,0,0,1-1.072.4,1.06,1.06,0,0,1-1.1-.9c-.048-.224-.048-2.784-.048-3.264,0-.32,0-2.112.064-2.288a.406.406,0,0,1,.368-.208h1.712c.336,0,.432-.16.432-.256,0-.224-.288-.256-.448-.256h-1.7a.363.363,0,0,1-.4-.4V29.984c0-.1,0-.336-.256-.336-.208,0-.208.224-.208.368,0,2.048-1.344,2.368-1.6,2.4-.464.064-.544.08-.544.288,0,.256.256.256.432.256Zm12.832,2.848c.32,0,.48-.08.48-.368,0-.672-.7-3.3-3.184-3.3-1.744,0-3.392,1.408-3.392,4.064,0,2.32,1.264,4.1,3.5,4.1a3.387,3.387,0,0,0,3.232-2c0-.128-.08-.208-.16-.208-.144,0-.512.544-.608.624a3,3,0,0,1-1.936.9,3.039,3.039,0,0,1-2.656-3.3c0-.512.3-.512.512-.512Zm-4.192-.528c-.144,0-.416,0-.416-.352s.464-2.352,1.952-2.352c1.344,0,1.92,1.632,1.92,2.24,0,.384-.176.464-.528.464Zm10.56,4.72c.192,0,.4,0,.4-.24,0-.256-.16-.256-.512-.272-.832-.048-.832-.576-.832-2.272,0-1.392.032-7.552.032-8.816,0-.32,0-.368-.1-.368-.016,0-1.36.416-1.472.448-.256.08-.784.24-.784.384a.131.131,0,0,0,.144.128c.1,0,.464-.048.528-.048a.43.43,0,0,1,.448.272,25.768,25.768,0,0,1,.1,2.8c0,.864,0,6.544-.1,6.88a.74.74,0,0,1-.752.592c-.208,0-.464,0-.464.272,0,.24.288.24.384.24Zm3.68.3a1.068,1.068,0,0,0,1.072-1.056,1.059,1.059,0,0,0-1.072-1.056,1.041,1.041,0,0,0-1.04,1.056A1.052,1.052,0,0,0-230.584,40.3Zm17.616-6.128c0-2.816-1.008-6.128-3.6-6.144-2.512,0-3.6,3.168-3.6,6.144,0,2.944,1.072,6.128,3.6,6.128C-213.992,40.3-212.968,37.008-212.968,34.176Zm-1.44,0c0,.832-.032,5.6-2.16,5.6-2.16.016-2.16-4.944-2.16-5.6,0-.816.032-5.616,2.16-5.616C-214.408,28.56-214.408,33.5-214.408,34.176Zm5.472-5.84c-.832,0-.912.208-1.1,1.088-.048.24-.416,1.968-.416,2.016a.2.2,0,0,0,.208.208c.128,0,.16-.048.368-.56.352-.9,1.008-1.536,2.848-1.536h2.208c.288,0,.416,0,.416.208s-1.5,2.64-1.776,3.136c-.544,1.008-2.544,4.688-2.544,6.448a.911.911,0,0,0,.816.96c.784,0,.864-.96.912-1.536.208-2.768.608-4.88,3.472-9.376a.947.947,0,0,0,.176-.608c0-.448-.32-.448-.672-.448Zm12.352,4.288a3.021,3.021,0,0,0-2.24,1.088c-.32.32-.352.368-.4.368-.112,0-.112-.256-.112-.32,0-2.128,1.152-5.2,2.688-5.2.416,0,.448.224.464.544.032.9.592,1.072.88,1.072a.8.8,0,0,0,.832-.8c0-.752-.816-1.344-1.792-1.344-2.416,0-4.56,3.056-4.56,6.784,0,3.52,1.968,5.488,3.68,5.488,1.76,0,3.424-1.936,3.424-4.224C-193.72,34.032-195.1,32.624-196.584,32.624Zm-.448.7c1.728,0,1.872,2.16,1.872,2.96,0,2.624-1.312,3.5-2.048,3.5-1.264,0-2.08-2.208-2.08-3.856A2.645,2.645,0,0,1-197.032,33.328Zm8.544,3.408c.176,0,.64,0,.64-.512,0-.08,0-.512-.64-.512H-190.9c-.112,0-.64,0-.64.512,0,.416.352.512.64.512ZM-180.072,40a.851.851,0,0,0,.96-.576c.08-.336.592-2.4.592-2.528,0-.032,0-.224-.16-.224-.1,0-.1.016-.352.608-.448,1.056-1.376,1.5-2.992,1.5h-1.648c-.064,0-.576,0-.576-.24,0-.3.864-1.792,3.28-3.808,1.36-1.136,2.368-2.048,2.368-3.7a2.992,2.992,0,0,0-3.2-3.008,3.283,3.283,0,0,0-3.44,2.9.981.981,0,0,0,.912,1.088.871.871,0,0,0,.864-.864,1.3,1.3,0,0,0-.336-.768.817.817,0,0,1-.16-.48c0-.688.832-1.344,1.792-1.344a2.138,2.138,0,0,1,2.128,2.256c0,1.52-.336,1.936-4.112,6.432a5.338,5.338,0,0,0-1.392,2.512c0,.224.368.24.464.24Zm7.68-11.968c-2.176,0-3.12,1.376-3.12,2.144a.811.811,0,0,0,.8.848.827.827,0,0,0,.816-.848c0-.1-.08-.512-.08-.592a1.151,1.151,0,0,1,1.28-1.024,2.2,2.2,0,0,1,2.016,2.416,2.369,2.369,0,0,1-2.192,2.528c-.112,0-.592-.08-.688-.08a.346.346,0,0,0-.368.336.312.312,0,0,0,.352.32c.1,0,.544-.064.624-.064a2.792,2.792,0,0,1,2.512,2.928,2.76,2.76,0,0,1-2.48,2.848c-.752,0-1.44-.432-1.44-1.024,0-.128.144-.72.144-.848a.755.755,0,0,0-.784-.752.885.885,0,0,0-.912.96c0,1.28,1.536,2.176,3.136,2.176A3.517,3.517,0,0,0-169,36.928a3.142,3.142,0,0,0-1.616-2.72c-.128-.08-.88-.336-.88-.48,0-.1.7-.48.832-.56a3.065,3.065,0,0,0,1.424-2.432A2.957,2.957,0,0,0-172.392,28.032Zm7.6.3c-.832,0-.912.208-1.1,1.088-.048.24-.416,1.968-.416,2.016a.2.2,0,0,0,.208.208c.128,0,.16-.048.368-.56.352-.9,1.008-1.536,2.848-1.536h2.208c.288,0,.416,0,.416.208s-1.5,2.64-1.776,3.136c-.544,1.008-2.544,4.688-2.544,6.448a.911.911,0,0,0,.816.96c.784,0,.864-.96.912-1.536.208-2.768.608-4.88,3.472-9.376a.947.947,0,0,0,.176-.608c0-.448-.32-.448-.672-.448Zm10.848,8.4c.176,0,.64,0,.64-.512,0-.08,0-.512-.64-.512h-2.416c-.112,0-.64,0-.64.512,0,.416.352.512.64.512Zm8.88,3.264c.144,0,.4,0,.4-.224,0-.288-.24-.288-.384-.288-1.184,0-1.408-.192-1.52-.656-.048-.176-.064-6.32-.064-7.056,0-.48.032-2.544.032-2.976,0-.72,0-.768-.176-.768a6.9,6.9,0,0,0-.784.352,7.489,7.489,0,0,1-1.808.4c-.5.032-.656.048-.656.256s.16.208.544.208c1.344,0,1.568,0,1.568.752,0,.848.032,4.576.032,5.344,0,.56,0,3.376-.112,3.648-.192.448-.608.5-1.472.5-.576,0-.816,0-.816.256,0,.048.016.256.368.256Zm3.6-2.432c0,1.568,1.536,2.736,3.456,2.736a3.541,3.541,0,0,0,3.776-3.5,3.12,3.12,0,0,0-1.744-2.8c-.544-.352-.672-.448-.672-.576,0-.176.672-.672.784-.784a2.829,2.829,0,0,0,.992-2.08,2.635,2.635,0,0,0-2.928-2.528c-1.664,0-3.2.944-3.2,2.832a3.266,3.266,0,0,0,1.712,2.768c.368.224.464.32.464.4,0,.112-.064.144-.64.5C-141.256,35.584-141.464,36.544-141.464,37.568Zm6.1-.208a2.509,2.509,0,0,1-2.448,2.432,2.309,2.309,0,0,1-2.288-2.448,3.192,3.192,0,0,1,1.984-2.912,3.69,3.69,0,0,1,1.584.848A2.421,2.421,0,0,1-135.368,37.36Zm-4.528-6.944a1.792,1.792,0,0,1,1.872-1.856,2.072,2.072,0,0,1,2.064,2.256c0,1.28-.848,2.256-1.312,2.256a4.455,4.455,0,0,1-1.744-.976A1.78,1.78,0,0,1-139.9,30.416ZM-125.864,40c.144,0,.4,0,.4-.224,0-.288-.24-.288-.384-.288-1.184,0-1.408-.192-1.52-.656-.048-.176-.064-6.32-.064-7.056,0-.48.032-2.544.032-2.976,0-.72,0-.768-.176-.768a6.894,6.894,0,0,0-.784.352,7.489,7.489,0,0,1-1.808.4c-.5.032-.656.048-.656.256s.16.208.544.208c1.344,0,1.568,0,1.568.752,0,.848.032,4.576.032,5.344,0,.56,0,3.376-.112,3.648-.192.448-.608.5-1.472.5-.576,0-.816,0-.816.256,0,.048.016.256.368.256Zm6.688-4.272a2.836,2.836,0,0,0,2.144-.928c.048-.048.192-.176.288-.176.128,0,.144.208.144.3a7.967,7.967,0,0,1-.624,2.944c-.784,1.744-1.776,1.92-2.064,1.92a.678.678,0,0,1-.736-.72c-.032-.56-.1-1.264-.848-1.264a.915.915,0,0,0-.928.912c0,.864,1.088,1.584,2.128,1.584,2.384,0,4.544-3.28,4.544-6.768,0-2.5-1.2-5.5-3.712-5.5-2.1,0-3.392,2.16-3.392,4.144A3.332,3.332,0,0,0-119.176,35.728Zm.48-.7c-1.088,0-2.064-.96-2.064-3.056,0-1.664.624-3.44,1.952-3.44,1.76,0,2.224,3.248,2.224,4.4A2.141,2.141,0,0,1-118.7,35.024Zm9.664-1.1a10.479,10.479,0,0,1-2.3,6.576,7.377,7.377,0,0,0-.784.944.106.106,0,0,0,.112.1,9.293,9.293,0,0,0,3.856-7.616,9.293,9.293,0,0,0-3.856-7.616.106.106,0,0,0-.112.1,7.376,7.376,0,0,0,.784.944A10.479,10.479,0,0,1-109.032,33.92Zm21.808-5.552a11.01,11.01,0,0,1-.1,1.408c-.032.16-.192.24-.528.24a2.824,2.824,0,0,1-1.552-.432c-.048-.032-.432-.256-.448-.256-.048,0-.064.08-.064.112,0,.624,1.008,1.44,2.144,1.52.256.016.336.016.336.1,0,.016-.128,2.112-.144,2.16-.112.3-1.184.3-1.568.3a6.225,6.225,0,0,1-1.936-.288,3.943,3.943,0,0,0-.608-.224c-.048,0-.048.032-.048.064a1.8,1.8,0,0,0,.464.736,3.263,3.263,0,0,0,2.208.656c.208,0,1.168-.08,1.392-.08.16,0,.16.1.16.24.016.432.032,1.5.032,1.824,0,.544,0,.592-.176.592-.112,0-.7-.048-.848-.048-1.9,0-2.88.736-2.88,1.7a1.855,1.855,0,0,0,2.048,1.728,3.1,3.1,0,0,0,2.72-1.616c.08-.176.112-.256.208-.256a2.856,2.856,0,0,1,1.12.864c.576.688.64.768.864.768a.619.619,0,0,0,.544-.672c0-.752-1.024-1.6-2.272-2.112-.336-.128-.336-.192-.4-.72-.016-.16-.192-2-.192-2.3,0-.16.048-.176.544-.352.736-.24,2.512-.976,2.512-1.536,0-.352-.416-.384-1.072-.432-.08,0-.416-.08-.5-.08-.032,0-.08,0-.08.048s.064.24.064.288c0,.512-1.152.832-1.328.832-.208,0-.208-.1-.208-.464,0-.656.064-1.5.08-1.552.016-.24.048-.256.176-.288.448-.144,1.536-.464,1.536-1.056,0-.256-.3-.3-.464-.3a1.914,1.914,0,0,0-.576.128,1.867,1.867,0,0,1-.448.144c-.064,0-.064-.064-.064-.1a3.739,3.739,0,0,1,.24-1.04,4.6,4.6,0,0,0,.4-.848c0-.336-.864-.736-1.3-.736-.1,0-.4,0-.4.112,0,.032.1.192.112.24A3.041,3.041,0,0,1-87.224,28.368Zm-.384,9.664c.064.144-.08.528-.368.784a2.64,2.64,0,0,1-1.584.592c-.448,0-1.28-.192-1.28-.8,0-.912,1.68-.912,1.712-.912C-88.84,37.7-87.72,37.76-87.608,38.032Zm12.048.864c0,.176.048.7.432.7.3,0,.88,0,1.984-3.328a42.756,42.756,0,0,0,1.168-4.544c.064-.288.128-.3.672-.448,1.056-.288,2.416-.752,2.416-1.648a.458.458,0,0,0-.528-.5c-.08,0-.432.032-.5.032-.16,0-1.44-.272-1.44-.576,0-.08.176-.4.176-.48a1.443,1.443,0,0,0-1.28-.848c-.416,0-.72.208-.72.368,0,.112.384.512.448.592a2.206,2.206,0,0,1,.192.992,4.628,4.628,0,0,1-.176,1.312,3.5,3.5,0,0,1-1.136.144,5.88,5.88,0,0,1-1.424-.176,3.5,3.5,0,0,0-.368-.144.067.067,0,0,0-.064.064,1.54,1.54,0,0,0,.832.864,3.075,3.075,0,0,0,1.424.288c.512,0,.576,0,.576.16a21.546,21.546,0,0,1-2.112,5.888C-75.48,38.544-75.56,38.7-75.56,38.9Zm3.888-8.8c.08-.384.08-.432.144-.752.032-.16.08-.192.176-.192.176,0,1.04.352,1.04.512,0,.208-1.216.64-1.3.64C-71.7,30.3-71.688,30.208-71.672,30.1Zm1.824,2.272c.016.032.128.032.144.032.064,0,.432-.048.528-.064a9.441,9.441,0,0,1,1.152-.064c.24,0,1.376.016,1.376.256,0,.176-.832.784-.832.9,0,.048.048.048.08.048a2.8,2.8,0,0,0,.672-.208,2.687,2.687,0,0,1,1.184-.256c.128,0,.752.048.9.048.128,0,.464,0,.464-.384,0-.7-1.152-1.152-2.672-1.152C-68.568,31.52-69.96,32.16-69.848,32.368Zm-.72,4.272c-.128,0-.224.336-.224.7,0,2.016,2.16,2.672,4.752,2.672,1.36,0,1.952-.08,1.952-.544,0-.528-.736-.8-1.28-.8-.256,0-1.472.112-1.744.112-1.216,0-2.944-.3-3.28-1.7C-70.408,37.04-70.5,36.64-70.568,36.64Zm21.728.928c.288-.144,1.12.528,1.584,1.088.384.48.432.544.624.544a.629.629,0,0,0,.576-.64c0-.944-1.68-1.7-2.464-2.032-.4-.176-.448-.288-.512-.88-.048-.432-.16-2.24-.16-2.592,0-.688,0-.7.592-.96s1.664-.72,1.664-1.472c0-.672-.528-.688-1.232-.72-.1,0-.928-.032-.928-.512a.694.694,0,0,1,.1-.336c.16-.256.176-.288.176-.4,0-.608-1.072-.832-1.392-.832-.336,0-.544.176-.544.272,0,.112.432.464.5.544.3.368.3.816.3,1.824,0,1.056,0,1.056-.88,1.056a4.788,4.788,0,0,1-1.792-.32,2.782,2.782,0,0,0-.432-.224c-.064,0-.08.064-.08.112a2.272,2.272,0,0,0,2.368,1.424,5.307,5.307,0,0,1,.736.032.532.532,0,0,1,.128.384c.016.448.064,2.144.064,2.24,0,.992,0,1.1-.4,1.1-3.28.048-3.28,1.744-3.28,1.968a1.812,1.812,0,0,0,2,1.6,2.638,2.638,0,0,0,2.384-1.52C-49.1,38.208-48.952,37.616-48.84,37.568Zm-.224-7.408a.341.341,0,0,1,.192-.064c.224,0,.752.208.752.5,0,.368-.608.56-.832.56-.112,0-.24,0-.24-.608A.485.485,0,0,1-49.064,30.16Zm-2.1,6.944c1.024,0,1.248.128,1.248.4,0,.544-.976,1.312-1.92,1.312-.56,0-1.056-.272-1.056-.7C-52.888,37.648-52.072,37.1-51.16,37.1Zm-4.56.592c0-.464.448-2.768.448-3.28,0-.032,0-.144-.064-.144a8.06,8.06,0,0,0-.656,1.6c-.288.88-.3.944-.448.944-.384,0-.384-1.024-.384-1.12a10.691,10.691,0,0,1,.576-3.216c.128-.4.832-2.368.832-2.5,0-.288-.8-1.888-1.7-1.888-.1,0-.288.032-.288.128a3.214,3.214,0,0,0,.3.56,2.265,2.265,0,0,1,.368,1.328,10.778,10.778,0,0,1-.48,2.544,12.221,12.221,0,0,0-.416,3.136c0,2.48.8,4.08,1.6,4.08.368,0,.528-.3.528-.656C-55.5,38.992-55.72,37.936-55.72,37.7Zm25.776-6.624a2.046,2.046,0,0,0-1.728,1.008c0,.048.016.064.064.064a.358.358,0,0,0,.16-.048,1.389,1.389,0,0,1,.624-.16c.544,0,1.344.224,1.344.864a.842.842,0,0,1-.064.288,1.1,1.1,0,0,0-.048.128.075.075,0,0,0,.08.08c.064,0,.4-.1.48-.112.08,0,.448.032.544.032.336,0,.528-.432.528-.768C-27.96,31.712-28.712,31.072-29.944,31.072Zm-5.872-.464c-.032.016-.064.048-.064.064,0,.032.08.192.08.224,0,.224-.448.4-.56.4-.1,0-.128-.112-.128-.176a8.547,8.547,0,0,1,.16-1.04,6.45,6.45,0,0,0,.336-.832A1.6,1.6,0,0,0-37.64,28.16c-.1,0-.352.032-.352.176a1.6,1.6,0,0,0,.224.256,1.571,1.571,0,0,1,.528,1.28,11.965,11.965,0,0,1-.16,1.744,6.989,6.989,0,0,1-2.032.48,4.649,4.649,0,0,1-.736-.08c-.048,0-.24-.064-.288-.064a.113.113,0,0,0-.128.112c0,.112.608,1.216,1.152,1.216a3.431,3.431,0,0,0,1.136-.3,3.742,3.742,0,0,1,.736-.144c.176,0,.224.24.224.352.016.272.032,1.632.032,2,0,.448-.1.5-.912.9a3.42,3.42,0,0,1-1.664.544c-.1,0-.56-.08-.656-.08-.288,0-.464.336-.464.624,0,.528.816,1.008.992,1.008a3.161,3.161,0,0,0,.608-.32,1.334,1.334,0,0,1,.4-.1c.208,0,.288,0,.8.992.128.256.3.592.736.592.576,0,.816-1.056.816-1.792,0-.16-.048-.88-.048-1.056,0-.272.1-.32.992-.8a8.172,8.172,0,0,1,3.312-1.2,1.658,1.658,0,0,1,1.536,1.76c0,1.28-1.344,1.984-2.4,1.984-.16,0-1.04,0-1.04-.768a.662.662,0,0,1,.144-.432c.032-.048.064-.08.064-.128a.086.086,0,0,0-.08-.08,1.426,1.426,0,0,0-.8,1.264c0,.832.736,1.3,1.648,1.3,1.312,0,3.536-.96,3.536-3.072A2.45,2.45,0,0,0-32.248,33.9a7.519,7.519,0,0,0-2.72.64c-.256.1-1.568.64-1.616.64-.144,0-.144-.192-.144-.288,0-.08,0-1.376.032-1.728.032-.56.048-.624.272-.7.384-.16,1.6-.64,1.6-1.168C-34.824,30.8-35.592,30.576-35.816,30.608Zm-1.584,6.08c.048.032.048.192.048.256,0,.784-.224,1.232-.448,1.232-.24,0-.672-.512-.672-.752C-38.472,37.2-37.448,36.688-37.4,36.688Zm17.776-6.624c.24,0,.4,0,.432.224v1.1c0,.352-.16.352-.432.352h-2.128c-.24,0-.384,0-.432-.24V30.416c0-.352.16-.352.432-.352Zm4.832-2.4a1.024,1.024,0,0,1-.448-.112,2.1,2.1,0,0,0-.768-.288c-.144,0-.176.176-.176.256,0,.272.08,1.472.08,1.712,0,.5-.016,3.024-.016,3.152.016.48.272.512.4.512a.734.734,0,0,0,.736-.512c.064-.224.256-.224.48-.224h2.064c.352,0,.528,0,.528.464,0,.9-.032,4.848-.032,5.648,0,1.184,0,1.312-.656,1.312-.16,0-.8-.032-.944-.032-.112,0-.176.032-.176.08,0,.08.848.5.992.64a.848.848,0,0,1,.224.64c0,.08.128.144.208.144a2.21,2.21,0,0,0,1.008-.512,1.931,1.931,0,0,0,.4-1.5c0-.464-.032-2.528-.032-2.944V28.784a.662.662,0,0,1,.256-.608c.1-.08.192-.176.192-.272,0-.288-.928-.816-1.056-.816-.112,0-.144.048-.464.416a.378.378,0,0,1-.384.16Zm-7.088,0a.762.762,0,0,1-.464-.112,2.191,2.191,0,0,0-.9-.368c-.064,0-.064.1-.064.16,0,.144.128,1.616.128,1.92,0,4.96-.016,5.568-.176,11.024,0,.048-.016.208-.016.288,0,.384.144.544.416.544a.916.916,0,0,0,.864-1.04c0-.176-.048-.976-.048-1.136-.032-1.168-.048-4.832-.048-5.68,0-.992,0-1.1.512-1.1h1.936c.208,0,.448,0,.5.224s.1.48.448.48c.752,0,.752-.832.752-1.04,0-.224-.064-2.224-.064-2.624,0-.576,0-.624.112-.736.048-.048.368-.24.368-.3,0-.288-.8-.992-1.056-.992-.128,0-.224.1-.5.336a.44.44,0,0,1-.4.16Zm2.288.416c.352,0,.416.048.416.416v.928c-.032.208-.208.224-.416.224h-2.176c-.272,0-.416-.016-.416-.352v-.9c0-.3.144-.32.416-.32Zm5.008,1.568c-.256,0-.384,0-.432-.16a3.91,3.91,0,0,1-.032-.944c0-.448.08-.464.464-.464h2.208c.256,0,.384,0,.432.144a4.124,4.124,0,0,1,.032.96c0,.448-.1.464-.464.464Zm0,2.08c-.32,0-.448,0-.448-.352v-.944c0-.368.128-.368.448-.368h2.224c.32,0,.448,0,.448.368v.944c0,.352-.128.352-.448.352Zm-3.76,2.944a.977.977,0,0,1-.528-.144c-.8-.368-.848-.368-.944-.368-.064,0-.08.064-.08.128,0,.048.048.4.064.5.048.432.032,1.376.032,1.776,0,.64-.032,1.072-.064,1.76-.016.144-.032.576-.032.688,0,.352.08.592.368.592a.926.926,0,0,0,.832-.8c.032-.448.032-.528.512-.528h2.032c.272,0,.512,0,.512.384,0,.192.064.448.32.448a1.2,1.2,0,0,0,.7-.416c.128-.16.144-.352.144-.752,0-.368-.032-1.968-.016-2.288a.446.446,0,0,1,.128-.3c.144-.144.24-.224.24-.32,0-.32-.8-.9-.976-.9-.16,0-.224.1-.448.384a.415.415,0,0,1-.4.16Zm.176,3.168c-.336,0-.56-.032-.56-.3V35.6c0-.448.1-.5.56-.5h2.048c.256,0,.448,0,.528.192.032.1.048,1.136.048,1.328a6.872,6.872,0,0,1-.048,1.024c-.064.192-.288.192-.528.192Zm13.68-8.352c-.032,0-.1.016-.1.064a2.161,2.161,0,0,0,.128.544,4.445,4.445,0,0,1,.112.928c0,.416-.224,2.384-.224,2.832,0,3.056,2.016,4.736,3.04,4.736.272,0,.608-.176.608-.5a4.013,4.013,0,0,0-.128-.528,2.159,2.159,0,0,1-.1-.64,4.489,4.489,0,0,1,.208-1.216,1.92,1.92,0,0,0,.048-.32c0-.064-.032-.128-.08-.128-.128,0-.4.384-.5.544-.48.8-.544.88-.816.88-.5,0-1.328-1.168-1.328-2.784a5.651,5.651,0,0,1,.384-2.064,2.192,2.192,0,0,0,.192-.64C-3.032,30.768-3.752,29.488-4.488,29.488ZM3.144,30.96c-.08,0-.144.032-.144.08,0,.1.64.592.768.72.848.848.848,1.52.848,2.848,0,.208,0,1.072.784,1.072.768,0,.8-.752.8-1.056a3.982,3.982,0,0,0-1.424-3.056A3.114,3.114,0,0,0,3.144,30.96Zm12.192,4.512a1.454,1.454,0,0,1-.656-.1,8.163,8.163,0,0,0-.96-.432c-.144,0-.144.128-.144.176,0,.064.08.432.08.5.048.288.032,1.216.032,1.552,0,.576-.144,3.52-.144,3.616a.375.375,0,0,0,.416.416,1.478,1.478,0,0,0,.848-.32c.112-.112.112-.16.112-.592s.32-.432.48-.432h4.832c.416,0,.416.176.416.848,0,.112,0,.416.352.416.224,0,1.024-.208,1.024-.64,0-.448-.1-2.672-.1-3.168,0-.24.016-.96.176-1.1s.208-.192.208-.336c0-.272-.944-1.008-1.04-1.008-.112,0-.528.464-.624.544a.689.689,0,0,1-.352.064Zm.048,3.968c-.464,0-.48-.288-.48-.5,0-.368.016-2.16.016-2.56,0-.24.032-.5.5-.5H20.28c.448,0,.448.3.448.5,0,.368-.016,2.16-.016,2.56,0,.192,0,.5-.464.5Zm1.632-13.12c-.048.032-.3.88-.384,1.04a20.567,20.567,0,0,1-3.9,5.36c-.288.288-1.84,1.664-1.84,1.744,0,.048.048.1.128.1.416,0,4.08-2.4,6.72-6.224.32-.464.352-.512.432-.512s.32.512.416.72a12.176,12.176,0,0,0,3.008,4.224,6.421,6.421,0,0,0,2.32,1.76c.064,0,.144-.08.208-.144a2.067,2.067,0,0,1,1.008-.448c.5-.112.56-.128.56-.272,0-.112,0-.112-.512-.3A13.161,13.161,0,0,1,21.144,30.9a11.275,11.275,0,0,1-2.5-3.36.146.146,0,0,1,.064-.128c.128-.1.176-.112.176-.208a.122.122,0,0,0-.032-.08A7.3,7.3,0,0,0,17.016,26.32Zm.352,6.656c-.752,0-1.424,0-2.208-.048-.1,0-.592-.064-.7-.064-.032,0-.048.016-.048.032,0,.032,0,.048.064.112l.3.368c.064.064.1.1.144.1s.288-.032.336-.032c.464-.032.9-.048,2.032-.048H20.3c.48,0,.864,0,.864-.192A6.09,6.09,0,0,0,19.7,32.048c-.144,0-.64.672-.768.784-.176.144-.368.144-.944.144Zm16.624-2.7c0-.176.048-.672.08-.928.032-.208.24-1.216.24-1.456,0-.528-1.088-1.184-1.52-1.184-.16,0-.544.08-.544.208,0,.064.032.1.3.416a3.028,3.028,0,0,1,.64,2.256,5.274,5.274,0,0,1-.144,1.36,5.328,5.328,0,0,1-.416.384c-1.072.992-1.168,1.008-1.44,1.056-.656.1-1.088.16-1.088.7,0,.288.048.352.56.992a2.8,2.8,0,0,1,.624,1.232,12.1,12.1,0,0,1-.8,1.552c-.4.672-.48.816-.48,1.088,0,.32.192.448.384.448.576,0,.912-.656,1.152-1.12.128-.256.336-.656.416-.656.384,0,.48,1.52.512,1.856.064.976.112,1.552.56,1.552a.976.976,0,0,0,.7-.928c0-.1-.064-.624-.08-.752-.064-.848-.08-2.88-.08-3.232,0-1.088.1-1.36.3-1.6a6.457,6.457,0,0,1,4.192-1.648,2.314,2.314,0,0,1,2.416,2.48c0,2.384-2.32,4.144-3.12,4.688-.176.128-1.184.688-1.184.736,0,.032.032.032.064.032.368,0,5.488-1.248,5.488-5.088A3.307,3.307,0,0,0,38.1,31.36a6.654,6.654,0,0,0-3.232.928,3.2,3.2,0,0,1-.464.24.073.073,0,0,1-.064-.08.888.888,0,0,1,.112-.3,1.757,1.757,0,0,0,.224-.768c0-.112,0-.368-.416-.624C34.008,30.592,33.992,30.576,33.992,30.272ZM32.92,32.1c.064.016.064.1.064.224,0,.576,0,.608-.992,2.064-.176.256-.224.336-.32.336-.176,0-.752-1.024-.752-1.248,0-.208.16-.224.672-.256a.956.956,0,0,0,.688-.56C32.552,32.192,32.824,32.08,32.92,32.1Zm-.112,2.816c.048,0,.08.032.08.1,0,.736,0,1.6-.192,1.6-.144,0-.464-.416-.464-.624A2.452,2.452,0,0,1,32.808,34.912Zm23.776-5.648a1.3,1.3,0,0,0-1.36-1.12c-.08,0-.352.016-.352.176,0,.032.288.576.3.592a2.358,2.358,0,0,1,.192,1.1c0,.208-.032.976-.08,1.3-.064.336-.176.352-1.168.512-.416.064-2.432.512-2.544.512-.208,0-.208-.128-.208-.464a8.829,8.829,0,0,1,.08-1.232,3.273,3.273,0,0,0,.08-.5c0-.56-.992-1.008-1.376-1.008-.192,0-.464.08-.464.224,0,.064.32.624.368.752a3.9,3.9,0,0,1,.256,1.68c0,.592-.016.736-.272.816a7.494,7.494,0,0,1-2.032.224c-.144,0-.816-.064-.976-.064-.144,0-.208.016-.208.224,0,.88,1.3,1.184,1.648,1.184.24,0,1.344-.5,1.616-.5.288,0,.288.16.288,1.5,0,3.04,0,4.32,4.576,4.32.368,0,1.824,0,1.824-.752a.833.833,0,0,0-.864-.688,5.049,5.049,0,0,0-.768.112,7.207,7.207,0,0,1-1.408.128c-2.24,0-2.528-.752-2.528-2.256,0-.048.032-1.5.048-2.032a1.286,1.286,0,0,1,.144-.656c.208-.352,3.1-.992,3.44-.992.24,0,.24.08.24.208a7.107,7.107,0,0,1-.464,1.824.576.576,0,0,1-.544.416c-.144,0-.864-.288-1.04-.288-.032,0-.08,0-.08.032a1.916,1.916,0,0,0,.208.336,5.812,5.812,0,0,1,.3.7c.144.464.208.64.752.64.576,0,1.44-.816,1.744-3.184.1-.832.112-.864,1.04-.864.288,0,1.68.176,2,.176s.784-.112.784-.528c0-.32-.24-.576-1.248-.864a8.618,8.618,0,0,0-1.152-.288c-.032,0-.128,0-.128.064a.132.132,0,0,0,.064.1c.288.272.32.3.32.4,0,.176-.144.192-.5.224-.128,0-.688.064-.752.064-.048,0-.176,0-.176-.08,0-.1.016-.208.128-1.28C56.36,30.032,56.584,29.3,56.584,29.264Zm9.3.56a1.66,1.66,0,0,0-.048.368,1.014,1.014,0,0,0,.464.9c.832.768.944.768,1.152.768a4.624,4.624,0,0,0,.832-.352,53.368,53.368,0,0,1,5.76-1.152c.08,0,.352.016.352.288a9.04,9.04,0,0,1-1.088,2.7,20.824,20.824,0,0,1-6.32,6.336c-.16.112-.208.144-.208.208a.106.106,0,0,0,.112.1,16.282,16.282,0,0,0,8.256-7.456,2.648,2.648,0,0,1,.624-1.008c.288-.288.368-.368.368-.576,0-.224-.1-.4-.816-1.04-.5-.432-.752-.656-1.1-.656-.112,0-.176.032-.672.256a41.478,41.478,0,0,1-6.032.768,3.909,3.909,0,0,1-1.328-.352A1.066,1.066,0,0,0,65.88,29.824Zm18.256,3.664a1.943,1.943,0,0,0,1.248,1.2c.112,0,.656-.208.784-.24.256-.064,1.76-.24,1.952-.24.08,0,.112.016.112.1,0,.432-1.68,2.656-3.44,4.176-.464.416-.528.448-.528.512,0,.032.032.08.128.08A10.182,10.182,0,0,0,87.784,36.5c.176-.192,1.088-1.232,1.1-1.232a.09.09,0,0,1,.1.08c.048.24.08,2.8.08,3.056,0,.144,0,.288-.128.288s-1.12-.368-1.152-.368c-.064,0-.1.032-.1.08a1.781,1.781,0,0,0,.3.32,2.727,2.727,0,0,1,.72,1.04c.128.432.192.672.528.672.384,0,.816-.56.816-1.232,0-.208-.128-1.184-.144-1.408-.032-.3-.176-3.28-.176-3.488,0-.272.016-.416,1.136-.416.16,0,.88.048,1.04.048s.8,0,.8-.4c0-.464-.784-.592-.864-.592s-.464.128-.56.144c-.24.032-1.168.192-1.328.192-.272,0-.272-.064-.272-.72,0-.176.016-.9.048-1.056a4.22,4.22,0,0,0,.16-.48,1.07,1.07,0,0,0-1.072-.576c-.176,0-.752,0-.752.176a4.883,4.883,0,0,0,.416.5,4.542,4.542,0,0,1,.368,2.048c0,.224-.08.288-.384.32a25.6,25.6,0,0,1-2.688.192,7.5,7.5,0,0,1-1.472-.144C84.248,33.52,84.2,33.5,84.136,33.488Zm18.352.064a8.713,8.713,0,0,1-1.952-.144c-.08-.016-.464-.192-.544-.192s-.128.1-.128.192c0,.544.736,1.536,1.424,1.536.192,0,1.056-.256,1.248-.288.384-.08,4.048-.288,6.256-.288.32,0,1.92.032,2.288.032.672,0,1.328-.048,1.328-.5,0-.112-.144-.7-1.12-.7-.08,0-.256.016-.352.016C108.6,33.344,103.016,33.552,102.488,33.552Zm18.416,2.4c.016-.064.928-1.248,1.1-1.488.4-.576,2.24-3.456,2.5-3.7.32-.3.5-.464.5-.736,0-.56-1.472-1.632-1.584-1.632-.1,0-.112.1-.112.176,0,.064.032.448.032.528,0,1.216-1.44,4.128-2.144,5.424-.864,1.568-1.184,1.776-1.856,1.776a2.775,2.775,0,0,1-.576-.08,3.932,3.932,0,0,0-.464-.144c-.064,0-.064.064-.064.112a3.52,3.52,0,0,0,.416,1.28c.7.688.7.7.848.7.112,0,.5-.464.608-.512.144-.064,2.24-.544,2.672-.656.688-.192,4.3-1.3,4.384-1.3.24,0,.3.144.448.912.208,1.056.272,1.456.816,1.456.112,0,.88-.048.88-1.12,0-1.568-2.416-3.536-2.88-3.536a.107.107,0,0,0-.112.1,6.031,6.031,0,0,0,.368.608,2.006,2.006,0,0,1,.464.944c0,.192,0,.272-2.352.672a25.051,25.051,0,0,1-3.68.464C120.968,36.208,120.888,36.112,120.9,35.952Zm19.648-8.48c-.032,0-.144,0-.144.064a.355.355,0,0,0,.1.192,1.82,1.82,0,0,1,.432.96c.048.56.064,3.824.064,3.952,0,.4.16,3.056.16,3.456,0,.368-.1.4-.336.4-.112,0-.688-.048-.832-.048-1.824,0-3.36.688-3.36,1.728,0,.912,1.28,1.872,2.752,1.872a2.662,2.662,0,0,0,2.48-1.424c.208-.448.24-.5.4-.5a2.278,2.278,0,0,1,.912.4,5.026,5.026,0,0,0,1.472.768.609.609,0,0,0,.576-.64c0-.512-1.04-.96-2.032-1.392-.832-.352-.928-.4-.992-.64-.048-.176-.24-4.176-.24-4.48s.032-.4.16-.432c.032-.016,1.072-.016,1.1-.016,1.312,0,1.7-.384,1.7-.624,0-.256-.592-.7-1.008-.7a7.112,7.112,0,0,0-1.056.4,2.548,2.548,0,0,1-.672.128c-.176,0-.192-.048-.192-.256a10.367,10.367,0,0,1,.144-1.1,7.64,7.64,0,0,0,.24-.864A1.9,1.9,0,0,0,140.552,27.472Zm.48,10.16c.048.144-.24,1.328-1.984,1.328-1.152,0-1.7-.48-1.7-.784,0-.88,1.936-.9,2.1-.9C140.152,37.28,140.968,37.424,141.032,37.632Zm19.888-4.688c0,3.264-.48,5.12-3.1,7.1-.368.272-.4.3-.4.352,0,.032.032.048.064.048a4.132,4.132,0,0,0,1.152-.528c3.04-1.808,3.488-4.368,3.488-6.624,0-3.36-1.072-3.888-2.064-3.888-1.68,0-2.768,2.016-2.944,2.368-.112.208-.208.4-.288.4-.128,0-.128-.176-.128-.224a16.975,16.975,0,0,1,.352-1.984,10,10,0,0,0,.336-1.184,1.238,1.238,0,0,0-1.232-1.072.647.647,0,0,0-.432.112c0,.032.24.352.272.416a1.774,1.774,0,0,1,.208.992,10.937,10.937,0,0,1-.24,2.048,14.416,14.416,0,0,0-.288,2.544c0,1.264.352,2.592,1.088,2.592a.535.535,0,0,0,.576-.576,1.6,1.6,0,0,0-.144-.608,3.264,3.264,0,0,1-.208-1.184c0-1.7,1.28-3.936,2.64-3.936C160.6,30.112,160.92,31.184,160.92,32.944Zm20.336-1.872a2.046,2.046,0,0,0-1.728,1.008c0,.048.016.064.064.064a.358.358,0,0,0,.16-.048,1.389,1.389,0,0,1,.624-.16c.544,0,1.344.224,1.344.864a.842.842,0,0,1-.064.288,1.1,1.1,0,0,0-.048.128.075.075,0,0,0,.08.08c.064,0,.4-.1.48-.112.08,0,.448.032.544.032.336,0,.528-.432.528-.768C183.24,31.712,182.488,31.072,181.256,31.072Zm-5.872-.464c-.032.016-.064.048-.064.064,0,.032.08.192.08.224,0,.224-.448.4-.56.4-.1,0-.128-.112-.128-.176a8.546,8.546,0,0,1,.16-1.04,6.45,6.45,0,0,0,.336-.832,1.6,1.6,0,0,0-1.648-1.088c-.1,0-.352.032-.352.176a1.6,1.6,0,0,0,.224.256,1.571,1.571,0,0,1,.528,1.28,11.965,11.965,0,0,1-.16,1.744,6.989,6.989,0,0,1-2.032.48,4.649,4.649,0,0,1-.736-.08c-.048,0-.24-.064-.288-.064a.113.113,0,0,0-.128.112c0,.112.608,1.216,1.152,1.216a3.431,3.431,0,0,0,1.136-.3,3.742,3.742,0,0,1,.736-.144c.176,0,.224.24.224.352.016.272.032,1.632.032,2,0,.448-.1.5-.912.9a3.42,3.42,0,0,1-1.664.544c-.1,0-.56-.08-.656-.08-.288,0-.464.336-.464.624,0,.528.816,1.008.992,1.008a3.161,3.161,0,0,0,.608-.32,1.334,1.334,0,0,1,.4-.1c.208,0,.288,0,.8.992.128.256.3.592.736.592.576,0,.816-1.056.816-1.792,0-.16-.048-.88-.048-1.056,0-.272.1-.32.992-.8a8.172,8.172,0,0,1,3.312-1.2,1.658,1.658,0,0,1,1.536,1.76c0,1.28-1.344,1.984-2.4,1.984-.16,0-1.04,0-1.04-.768a.662.662,0,0,1,.144-.432c.032-.048.064-.08.064-.128a.086.086,0,0,0-.08-.08,1.426,1.426,0,0,0-.8,1.264c0,.832.736,1.3,1.648,1.3,1.312,0,3.536-.96,3.536-3.072a2.45,2.45,0,0,0-2.464-2.416,7.519,7.519,0,0,0-2.72.64c-.256.1-1.568.64-1.616.64-.144,0-.144-.192-.144-.288,0-.08,0-1.376.032-1.728.032-.56.048-.624.272-.7.384-.16,1.6-.64,1.6-1.168C176.376,30.8,175.608,30.576,175.384,30.608Zm-1.584,6.08c.048.032.048.192.048.256,0,.784-.224,1.232-.448,1.232-.24,0-.672-.512-.672-.752C172.728,37.2,173.752,36.688,173.8,36.688Zm23.552-6.656c-.144,0-.384,0-.384-.224a5.731,5.731,0,0,1,.48-1.12c.256-.5.272-.512.736-.512h2.176c.528,0,.848,0,.848-.224A3,3,0,0,0,200.04,26.9c-.128,0-.192.064-.576.576-.208.272-.272.272-1.008.272h-1.232c-.912,0-1.744-.032-2.208-.048-.112-.016-.592-.064-.7-.064-.016,0-.048,0-.048.048,0,.016,0,.016.064.1l.3.368c.064.064.1.112.144.112.112,0,1.2-.08,1.408-.08.3,0,.368.176.368.416,0,.128-.112,1.024-.128,1.12-.048.224-.064.288-.192.288-.208,0-1.024-.544-1.216-.544a.144.144,0,0,0-.16.16c0,.048.064.448.08.528A10.134,10.134,0,0,1,195,31.536c0,1.872,0,4.592-.08,6.256,0,.032-.016.528-.016.608,0,.384.112.448.32.448a.771.771,0,0,0,.784-.448c.128-.384.16-.464.464-.464h2.32a.433.433,0,0,1,.416.176c.128.256.224.416.5.416.688,0,.688-.64.688-.88,0-.3-.064-1.6-.08-1.872-.032-1.04-.048-1.536-.048-2.3a20.085,20.085,0,0,1,.1-2.5c.032-.144.064-.16.384-.384a.23.23,0,0,0,.1-.16c0-.288-1.072-.9-1.12-.9-.128,0-.3.208-.4.32-.144.176-.144.176-.56.176Zm-.9,4.992c-.48,0-.48,0-.48-1.52,0-.3,0-.576.48-.576h2.32c.176,0,.432.032.48.352v1.2c0,.3-.016.544-.48.544Zm0-2.512c-.48,0-.48-.032-.48-1.488,0-.288,0-.576.48-.576h2.352c.464,0,.464.288.464.592v.88c0,.32,0,.592-.464.592Zm.016,4.992c-.464,0-.464-.144-.464-1.536,0-.208,0-.512.448-.512h2.32a.411.411,0,0,1,.464.464c0,1.456,0,1.584-.48,1.584Zm-5.456-5.264c-.48,0-.48-.1-.48-1.04,0-.56,0-.752.48-.752h1.136c.48,0,.48.1.48,1.056,0,.544,0,.736-.48.736Zm.512-2.224c-.112,0-.256,0-.256-.192,0-.064.3-.752.368-.912.32-.752.384-.768.752-.768h.7c.528,0,.848,0,.848-.224a3.156,3.156,0,0,0-.912-.928c-.128,0-.48.528-.56.592-.144.128-.224.128-.9.128h-2.208a1.161,1.161,0,0,1-.784-.208c-.7-.448-.784-.512-.88-.512a.124.124,0,0,0-.128.112,2.667,2.667,0,0,0,.128.32c.176.608.3,5.232.3,6.064a27.422,27.422,0,0,1-.784,6.72c-.016.1-.16.64-.176.72,0,.016,0,.048.032.048.192,0,.544-.832.656-1.1a22.532,22.532,0,0,0,1.216-7.984c0-.512-.048-2.928-.048-3.328,0-.416.16-.416.416-.416h1.1c.272,0,.448.016.448.416,0,.112-.032.528-.08,1.04-.016.128-.016.352-.32.352-.128,0-.7-.3-.832-.3-.1,0-.144.08-.144.176,0,.064.08.784.08.912,0,.864-.032,2.512-.048,3.3,0,.144-.048.816-.048.96,0,.288.112.368.4.368a.629.629,0,0,0,.624-.32c.08-.112.16-.256.336-.256.272,0,.272.224.3.768,0,.112.1,3.12.1,3.344,0,.928-.256.928-.688.928-.144,0-.784-.016-.912-.016-.048,0-.176.016-.176.08,0,.1.464.32.528.368a1.706,1.706,0,0,1,.384.464c.064.1.208.288.352.288a1.29,1.29,0,0,0,1.408-1.28c0-.448-.08-4.3-.08-4.608,0-.1,0-.32.272-.32.176,0,.208.064.3.32.048.112.256.16.4.16.64,0,.672-.72.672-.96,0-.208-.128-2.56-.128-3.04,0-.352.032-.4.24-.544.1-.08.256-.208.256-.32,0-.192-.944-.848-1.056-.848-.08,0-.1.032-.3.3-.112.128-.24.144-.5.144Zm.64,2.656c.4,0,.464.192.464.56,0,1.056-.08,1.136-.48,1.136h-1.1c-.384,0-.464-.208-.464-.5v-.928c.048-.208.224-.272.432-.272Zm-1.92,3.728a2.834,2.834,0,0,0-.592-.272c-.112,0-.128.048-.192.448a5.588,5.588,0,0,1-.512,1.616c-.1.224-.736,1.3-.736,1.36a.034.034,0,0,0,.032.032c.224,0,.864-.672,1.1-.912a8.509,8.509,0,0,0,1.024-1.44c.048-.08.448-.32.448-.4C190.824,36.7,190.552,36.56,190.248,36.4Zm6.9,2.384c-.48-.32-.528-.352-.608-.352s-.144.128-.192.24a3.674,3.674,0,0,1-1.552,1.3,15.566,15.566,0,0,0-1.68.96c0,.032.064.032.08.032a27.853,27.853,0,0,0,3.072-.9c.992-.416,1.1-.464,1.392-.464a.208.208,0,0,0,.208-.176C197.864,39.264,197.784,39.216,197.144,38.784Zm4.032,1.632c-.112-.736-.784-1.088-1.536-1.392a6.431,6.431,0,0,0-1.3-.416c-.048,0-.112,0-.112.048,0,.064.144.176.336.352a8.711,8.711,0,0,1,1.088,1.168c.5.64.72.944,1.072.944C200.984,41.12,201.24,40.768,201.176,40.416Zm-6.736-2.24c-.16-1.2-1.68-1.952-1.712-1.952s-.048.032-.048.064c.048.112.112.24.176.4a8.744,8.744,0,0,1,.576,1.616c.16.672.24.752.464.752C194.216,39.056,194.5,38.624,194.44,38.176Zm12.272-8.688c-.032,0-.1.016-.1.064a2.161,2.161,0,0,0,.128.544,4.445,4.445,0,0,1,.112.928c0,.416-.224,2.384-.224,2.832,0,3.056,2.016,4.736,3.04,4.736.272,0,.608-.176.608-.5a4.015,4.015,0,0,0-.128-.528,2.159,2.159,0,0,1-.1-.64,4.489,4.489,0,0,1,.208-1.216,1.92,1.92,0,0,0,.048-.32c0-.064-.032-.128-.08-.128-.128,0-.4.384-.5.544-.48.8-.544.88-.816.88-.5,0-1.328-1.168-1.328-2.784a5.651,5.651,0,0,1,.384-2.064,2.192,2.192,0,0,0,.192-.64C208.168,30.768,207.448,29.488,206.712,29.488Zm7.632,1.472c-.08,0-.144.032-.144.08,0,.1.64.592.768.72.848.848.848,1.52.848,2.848,0,.208,0,1.072.784,1.072.768,0,.8-.752.8-1.056a3.982,3.982,0,0,0-1.424-3.056A3.114,3.114,0,0,0,214.344,30.96Zm9.968-1.472c-.032,0-.1.016-.1.064a2.161,2.161,0,0,0,.128.544,4.445,4.445,0,0,1,.112.928c0,.416-.224,2.384-.224,2.832,0,3.056,2.016,4.736,3.04,4.736.272,0,.608-.176.608-.5a4.015,4.015,0,0,0-.128-.528,2.159,2.159,0,0,1-.1-.64,4.489,4.489,0,0,1,.208-1.216,1.92,1.92,0,0,0,.048-.32c0-.064-.032-.128-.08-.128-.128,0-.4.384-.5.544-.48.8-.544.88-.816.88-.5,0-1.328-1.168-1.328-2.784a5.651,5.651,0,0,1,.384-2.064,2.192,2.192,0,0,0,.192-.64C225.768,30.768,225.048,29.488,224.312,29.488Zm7.632,1.472c-.08,0-.144.032-.144.08,0,.1.64.592.768.72.848.848.848,1.52.848,2.848,0,.208,0,1.072.784,1.072.768,0,.8-.752.8-1.056a3.982,3.982,0,0,0-1.424-3.056A3.114,3.114,0,0,0,231.944,30.96Zm9.3,7.936c0,.176.048.7.432.7.3,0,.88,0,1.984-3.328a42.752,42.752,0,0,0,1.168-4.544c.064-.288.128-.3.672-.448,1.056-.288,2.416-.752,2.416-1.648a.458.458,0,0,0-.528-.5c-.08,0-.432.032-.5.032-.16,0-1.44-.272-1.44-.576,0-.08.176-.4.176-.48a1.443,1.443,0,0,0-1.28-.848c-.416,0-.72.208-.72.368,0,.112.384.512.448.592a2.206,2.206,0,0,1,.192.992,4.627,4.627,0,0,1-.176,1.312,3.5,3.5,0,0,1-1.136.144,5.88,5.88,0,0,1-1.424-.176,3.5,3.5,0,0,0-.368-.144.067.067,0,0,0-.064.064,1.54,1.54,0,0,0,.832.864,3.075,3.075,0,0,0,1.424.288c.512,0,.576,0,.576.16a21.545,21.545,0,0,1-2.112,5.888C241.32,38.544,241.24,38.7,241.24,38.9Zm3.888-8.8c.08-.384.08-.432.144-.752.032-.16.08-.192.176-.192.176,0,1.04.352,1.04.512,0,.208-1.216.64-1.3.64C245.1,30.3,245.112,30.208,245.128,30.1Zm1.824,2.272c.016.032.128.032.144.032.064,0,.432-.048.528-.064a9.442,9.442,0,0,1,1.152-.064c.24,0,1.376.016,1.376.256,0,.176-.832.784-.832.9,0,.048.048.048.08.048a2.8,2.8,0,0,0,.672-.208,2.687,2.687,0,0,1,1.184-.256c.128,0,.752.048.9.048.128,0,.464,0,.464-.384,0-.7-1.152-1.152-2.672-1.152C248.232,31.52,246.84,32.16,246.952,32.368Zm-.72,4.272c-.128,0-.224.336-.224.7,0,2.016,2.16,2.672,4.752,2.672,1.36,0,1.952-.08,1.952-.544,0-.528-.736-.8-1.28-.8-.256,0-1.472.112-1.744.112-1.216,0-2.944-.3-3.28-1.7C246.392,37.04,246.3,36.64,246.232,36.64ZM261.7,27.616c-.1,0-.224.048-.224.16,0,.016.16.384.176.432a2.015,2.015,0,0,1,.144.784c0,.448-.144,1.76-.208,2.288a36.485,36.485,0,0,0-.368,4.448c0,3.216.992,4.416,3.072,4.416a7.482,7.482,0,0,0,5.376-2.752.075.075,0,0,0-.08-.08c-.064,0-1.28.672-1.52.784a7.881,7.881,0,0,1-3.36.832c-2.144,0-2.448-1.44-2.448-3.056a38.457,38.457,0,0,1,.672-5.7,7.356,7.356,0,0,0,.3-.9C263.24,28.912,262.536,27.616,261.7,27.616Zm20.672.752a11.008,11.008,0,0,1-.1,1.408c-.032.16-.192.24-.528.24a2.824,2.824,0,0,1-1.552-.432c-.048-.032-.432-.256-.448-.256-.048,0-.064.08-.064.112,0,.624,1.008,1.44,2.144,1.52.256.016.336.016.336.1,0,.016-.128,2.112-.144,2.16-.112.3-1.184.3-1.568.3a6.225,6.225,0,0,1-1.936-.288,3.942,3.942,0,0,0-.608-.224c-.048,0-.048.032-.048.064a1.8,1.8,0,0,0,.464.736,3.263,3.263,0,0,0,2.208.656c.208,0,1.168-.08,1.392-.08.16,0,.16.1.16.24.016.432.032,1.5.032,1.824,0,.544,0,.592-.176.592-.112,0-.7-.048-.848-.048-1.9,0-2.88.736-2.88,1.7a1.856,1.856,0,0,0,2.048,1.728,3.1,3.1,0,0,0,2.72-1.616c.08-.176.112-.256.208-.256a2.856,2.856,0,0,1,1.12.864c.576.688.64.768.864.768a.619.619,0,0,0,.544-.672c0-.752-1.024-1.6-2.272-2.112-.336-.128-.336-.192-.4-.72-.016-.16-.192-2-.192-2.3,0-.16.048-.176.544-.352.736-.24,2.512-.976,2.512-1.536,0-.352-.416-.384-1.072-.432-.08,0-.416-.08-.5-.08-.032,0-.08,0-.08.048s.064.24.064.288c0,.512-1.152.832-1.328.832-.208,0-.208-.1-.208-.464,0-.656.064-1.5.08-1.552.016-.24.048-.256.176-.288.448-.144,1.536-.464,1.536-1.056,0-.256-.3-.3-.464-.3a1.913,1.913,0,0,0-.576.128,1.868,1.868,0,0,1-.448.144c-.064,0-.064-.064-.064-.1a3.739,3.739,0,0,1,.24-1.04,4.6,4.6,0,0,0,.4-.848c0-.336-.864-.736-1.3-.736-.1,0-.4,0-.4.112,0,.032.1.192.112.24A3.041,3.041,0,0,1,282.376,28.368Zm-.384,9.664c.064.144-.08.528-.368.784a2.64,2.64,0,0,1-1.584.592c-.448,0-1.28-.192-1.28-.8,0-.912,1.68-.912,1.712-.912C280.76,37.7,281.88,37.76,281.992,38.032Zm11.408-7.12c-.048.016-.08.1-.08.16,0,.656,1.328,1.328,1.68,1.328a14.872,14.872,0,0,0,1.712-.64,19.817,19.817,0,0,1,2.832-.64c.32,0,.32.1.32.96,0,.816,0,.912-.448.976-1.552.24-1.552,2-1.552,2.208,0,1.28.768,2.1,1.632,2.1.048,0,.288-.032.336-.032.16,0,.16.176.16.224a5.2,5.2,0,0,1-.9,2.352c-.112.16-.768.928-.768.96,0,.048.048.064.08.064.5,0,2.912-1.984,2.912-5.088a5.072,5.072,0,0,0-.464-2.16,2.09,2.09,0,0,1-.208-1.04c0-1.408.032-1.632.256-1.728a7.465,7.465,0,0,1,1.728-.16c.3,0,1.792.144,2.128.144.56,0,.864-.144.864-.56,0-.56-.7-.624-.912-.624-.128,0-.8.08-.96.08a3.516,3.516,0,0,1-1.408-.32c-.944-.4-1.408-.64-1.408-1.008,0-.08.064-.416.064-.5,0-.512-.624-.8-1.328-.8-.1,0-.336,0-.336.112,0,.08.256.368.272.448a9.557,9.557,0,0,1,.224,2.176c0,.416-.1.432-.928.576a32.339,32.339,0,0,1-4.352.544C294.328,31.024,293.56,30.928,293.4,30.912Zm7.552-1.872a3.469,3.469,0,0,1,1.216.848c0,.24-1.04.272-1.1.272-.224,0-.288-.048-.288-.3C300.776,29.44,300.84,29.072,300.952,29.04ZM299.864,34.1a3.112,3.112,0,0,1,.208,1.12c0,.256-.016,1.216-.64,1.216a1.159,1.159,0,0,1-1.04-1.28c0-.816.512-1.472.912-1.472A.676.676,0,0,1,299.864,34.1Zm12.224,3.28a1.776,1.776,0,0,0-.016,3.552,1.776,1.776,0,1,0,.016-3.552Zm-.016.448a1.342,1.342,0,0,1,1.36,1.344A1.321,1.321,0,0,1,312.1,40.48a1.342,1.342,0,0,1-1.344-1.344A1.3,1.3,0,0,1,312.072,37.824Z" transform="translate(323.64 13.683)" fill="#fff"/>
</svg>
