<svg xmlns="http://www.w3.org/2000/svg" xmlns:xlink="http://www.w3.org/1999/xlink" width="326.242" height="189.406" viewBox="0 0 326.242 189.406">
  <defs>
    <filter id="パス_39220" x="0" y="0" width="326.242" height="189.406" filterUnits="userSpaceOnUse">
      <feOffset input="SourceAlpha"/>
      <feGaussianBlur stdDeviation="14.23" result="blur"/>
      <feFlood flood-color="#fff" flood-opacity="0.749"/>
      <feComposite operator="in" in2="blur"/>
      <feComposite in="SourceGraphic"/>
    </filter>
  </defs>
  <g id="レイヤー_1" data-name="レイヤー 1" transform="translate(-0.04 -0.03)" opacity="0.5">
    <g transform="matrix(1, 0, 0, 1, 0.04, 0.03)" filter="url(#パス_39220)">
      <path id="パス_39220-2" data-name="パス 39220" d="M268.067,58.022a51.954,51.954,0,0,0-36.588-15.3h-.227c-.161,0-.321.008-.482.008-22.606.153-35.369,9.052-46.741,19.5-2.14,1.967-12.63,11.521-25.008,22.775C150.827,70.044,130.945,42.72,95.066,42.72a52.633,52.633,0,0,0-52.336,52v.027a52.643,52.643,0,0,0,52.113,51.991c.043,0,2.437-.035,2.535-.039,20.349-.631,33.876-9.256,44.918-19.4,2.143-1.967,12.641-11.536,25.032-22.8,8.209,14.969,28.088,42.242,63.927,42.242a52.64,52.64,0,0,0,52.336-52.007v-.027a51.941,51.941,0,0,0-15.521-36.678Zm-173-14.452a63.424,63.424,0,0,1,30.22,7.477,74.661,74.661,0,0,1,20.706,16.709,98.371,98.371,0,0,1,12.383,17.833c-16.85,15.318-36.96,33.566-44.292,40.11-7.794,6.959-17.293,11.4-31.8,11.4-13.386,0-21.775-4.7-28.848-13.241a51.615,51.615,0,0,1-9.2-29.131c.176-28.21,22.978-51.161,50.832-51.161ZM282.08,94.951c-.294,28.1-23.049,50.933-50.832,50.933a63.446,63.446,0,0,1-30.212-7.473,74.574,74.574,0,0,1-20.706-16.7,98.225,98.225,0,0,1-12.363-17.8c16.846-15.314,36.94-33.547,44.268-40.091,7.794-6.959,17.293-11.466,31.8-11.466,13.386,0,21.775,4.7,28.852,13.241a51.556,51.556,0,0,1,9.189,28.9v.447Z" transform="translate(-0.04 -0.03)" fill="#fff"/>
    </g>
  </g>
</svg>
