<svg xmlns="http://www.w3.org/2000/svg" width="140.346" height="24.624" viewBox="0 0 140.346 24.624">
  <path id="パス_130851" data-name="パス 130851" d="M-59.819-9.882c.081.108.135.162.243.162.243,0,1.593-.135,1.89-.135.621,0,.7.3.7.594a18.322,18.322,0,0,1-.567,2.16A16.691,16.691,0,0,1-62.6.189c-.054.054-.7.594-.7.621s.054.054.081.054a14.69,14.69,0,0,0,6.885-6.75c.243-.513.324-.675.567-.675.216,0,.3.135.378.27.081.108.675,1.566.81,1.863a9.977,9.977,0,0,1,.972,1.836c0,.567-3.159,3.24-6.723,4.131-.486.135-.54.108-.54.216,0,.054.054.054.351.054A13.516,13.516,0,0,0-54.5,0a10.553,10.553,0,0,1,2.133-1.215,1.32,1.32,0,0,1,.729.351c.81.7,2.97,2.268,3.618,2.268.108,0,.486-.378.594-.459a5.066,5.066,0,0,1,2-.864c.081-.027.4-.081.4-.162,0-.162-.081-.162-.81-.351-2.754-.648-5.049-1.809-5.049-2.349a21.179,21.179,0,0,1,1.269-1.944c.432-.729.783-1.323,1-1.377.621-.108.864-.162.864-.594,0-.837-1.728-1.593-1.836-1.593-.135,0-.621.567-.756.675a1.066,1.066,0,0,1-.837.243H-54.77c-.243,0-.675,0-.675-.459,0-.162.3-1.161.351-1.4a.959.959,0,0,1,1.08-.621h6.939c.891,0,1,0,1-.3a5.383,5.383,0,0,0-2-1.971c-.3,0-1.242,1.323-1.539,1.458a3.628,3.628,0,0,1-1.35.108h-2.97c-.3,0-.675,0-.675-.594,0-.135.216-1.944.243-2,.135-.513.567-.513.864-.513h4.7c.594,0,.783,0,1.161-.027.054,0,.567-.054.567-.324a3.639,3.639,0,0,0-1.836-1.755c-.216,0-.3.081-.864.837-.4.54-.7.54-1.674.54h-3.51c-1.269,0-2.457-.027-3.7-.081-.162-.027-1-.108-1.188-.108-.054,0-.108.027-.108.081,0,.027.027.054.135.162l.513.621c.081.108.135.189.243.189.135,0,1.458-.135,1.755-.135.432,0,.837,0,.837.675,0,2.376-.54,2.376-.972,2.376-.4,0-2.457-.135-2.916-.135-.081,0-.108,0-.108.054s.054.108.108.189Zm8.181,3.213c.3,0,.621,0,.621.432,0,.27-.864,2.376-1.431,2.376-.513,0-2.052-1.971-2.052-2.484,0-.324.378-.324.594-.324ZM-47.993-21.6a3.015,3.015,0,0,0-1.269-.7c-.135,0-.594.486-.729.54a26.98,26.98,0,0,1-7.857,1.944,6.571,6.571,0,0,0-1.215.243c0,.162,1,.216,2,.216.81,0,3.483-.027,7.074-.351,2.781-.27,3.051-.3,3.051-.729C-46.94-20.763-47.4-21.141-47.993-21.6ZM-67.649-7.209a3.112,3.112,0,0,0-1.08-.54.257.257,0,0,0-.216.135v.675a11.363,11.363,0,0,1-.675,3.483c-.135.459-.81,2.727-.81,2.916,0,.081.027.162.081.162a8.257,8.257,0,0,0,1.566-2.187c.432-.783,1.08-2.106,1.512-2.916.054-.135.594-.648.594-.81C-66.677-6.561-67.352-7.02-67.649-7.209Zm4.563-4.185a1.013,1.013,0,0,1,.027.27c0,.189-.459.27-2.349.27-.891,0-.972,0-.972-.243a.667.667,0,0,1,.216-.432,43.3,43.3,0,0,0,3.24-4.293c.513-.783.756-.918.918-1,.594-.243.7-.3.7-.513,0-.432-1.566-1.485-2.079-1.485-.324,0-.432.162-.513.675a26.545,26.545,0,0,1-2.241,4.968c-1.215,2.106-1.242,2.133-1.917,2.133a5.226,5.226,0,0,1-1.4-.216,6.791,6.791,0,0,0-.783-.324c-.216,0-.3.081-.3.27,0,.135.459,2.727,1.08,2.727a5.558,5.558,0,0,0,.891-.459,20.617,20.617,0,0,1,2.4-.459c.324,0,.432.135.459.54.027.108.027,2.619.027,3.078,0,1-.108,5.859-.108,6.966,0,.324,0,.837.432.837A1.6,1.6,0,0,0-63.95.3c0-.3-.189-6.372-.189-6.8,0-.567,0-2.97.081-3.186.108-.351.7-.486,1.026-.486.3,0,.4.108.513.513.162.621.27,1.053.837,1.053a1.194,1.194,0,0,0,1.026-1.3c0-1.377-2.538-3.564-2.97-3.564-.054,0-.162.027-.162.108a1.571,1.571,0,0,0,.135.432A13.345,13.345,0,0,1-63.086-11.394Zm14.742-7.614a5.588,5.588,0,0,0-1-.486c-.216,0-.216.108-.216.3a5.162,5.162,0,0,1-.648,1.782c-.216.351-1.431,2.16-1.431,2.268,0,.027,0,.108.081.108.162,0,3.348-2.538,3.483-2.592.675-.27.756-.3.756-.513C-47.318-18.387-47.426-18.441-48.344-19.008Zm-5.616.378a3.253,3.253,0,0,0-1.269-.486c-.108,0-.162.054-.162.108a1.447,1.447,0,0,0,.135.3c.135.27.459.945.7,1.593.513,1.458.594,1.62,1.107,1.62a1.008,1.008,0,0,0,.945-1.08A2.917,2.917,0,0,0-53.96-18.63Zm-4.752.027c-.189-.135-.459-.3-.81-.513-.27-.162-.351-.216-.486-.216-.081,0,.054.27.162.405a6.189,6.189,0,0,1,.864,2.052c.351,1.431.459,1.944,1.134,1.944a1,1,0,0,0,.972-1.107A3.458,3.458,0,0,0-58.712-18.6Zm-7.911,1.431a3.557,3.557,0,0,1,.756-1.107c1.485-1.782,1.7-2.052,1.917-2.133.621-.3.7-.324.7-.513,0-.567-2.187-1.242-2.322-1.242-.189,0-.243.27-.27.594-.108,1.377-1.215,4.05-1.728,4.05-.081,0-1.728-.567-2.079-.567-.081,0-.162.027-.162.054,0,.054,1.458,1.539,1.7,1.836a15.561,15.561,0,0,0,1.053,1.458.739.739,0,0,0,.594.243.874.874,0,0,0,.864-.945,1.55,1.55,0,0,0-.594-1.188C-66.461-16.875-66.623-17.01-66.623-17.172ZM-62.168-6.4a6.073,6.073,0,0,0-1.4-.756c-.054,0-.054.108-.054.135,0,.054.837,1.539.945,1.863.432,1.485.675,2.268,1.377,2.268.27,0,.729-.324.729-1.08A3.23,3.23,0,0,0-62.168-6.4Zm31.347,5.94c.378,0,.81,0,.864.54.027.351.054.729.621.729.405,0,1.323-.3,1.323-1.107,0-.054-.108-2.673-.108-3.132,0-1.377,0-1.512.162-1.782.081-.108.594-.513.594-.621,0-.513-1.863-1.107-1.944-1.107-.135,0-.567.486-.675.567a1.608,1.608,0,0,1-.81.135h-1.89a2.3,2.3,0,0,1-1.053-.189,3.732,3.732,0,0,0-1.3-.459c-.216,0-.3.054-.3.189,0,.108.108.7.135.945a33.888,33.888,0,0,1,.135,3.78c0,.513-.081,2.781-.081,3.24s.189.729.7.729A1.169,1.169,0,0,0-33.17.81,7.33,7.33,0,0,1-33.2.027c.081-.486.567-.486.81-.486Zm-1.674-.7a.9.9,0,0,1-.7-.189c-.162-.189-.162-.378-.162-2s0-1.809.189-2a.976.976,0,0,1,.675-.162h1.782a.9.9,0,0,1,.7.189c.162.162.162.351.162,1.971s0,1.809-.162,2a.933.933,0,0,1-.7.189ZM-21.884-7.4a2.863,2.863,0,0,1-1.485-.3,4.874,4.874,0,0,0-1.593-.621.171.171,0,0,0-.189.189c0,.108.108.594.108.7.162,2.322.162,2.835.162,3.888a36.332,36.332,0,0,1-.135,4c0,.108-.081.945-.081.972,0,.567.351.621.675.621a1.592,1.592,0,0,0,1.269-.513,1.025,1.025,0,0,0,.189-.7c0-.972,0-1.215.81-1.215h5.265c.243,0,.783,0,.783.729,0,.675,0,1.08.648,1.08a1.44,1.44,0,0,0,1.512-1.4c0-.243-.108-1.269-.108-1.485-.081-1.323-.081-2.808-.081-3.078,0-1.35,0-1.485.378-1.809.459-.351.567-.459.567-.675,0-.432-2.106-1.3-2.187-1.3-.243,0-.405.216-.567.459-.3.405-.54.459-1.107.459Zm5.022.7c.891,0,.891.27.891,1.323,0,.567,0,3.645-.108,3.915-.108.351-.459.351-.81.351h-5.292c-.27,0-.7,0-.837-.351-.108-.3-.108-3.4-.108-3.807,0-1.215,0-1.431.918-1.431ZM-31.874-20.682a12.441,12.441,0,0,1-1.431-.054c-.3-.027-1.7-.135-2.025-.135-.054,0-.081,0-.081.054,0,.027,0,.054.108.189l.513.594c.108.135.162.189.243.189s.486-.054.567-.054a17.647,17.647,0,0,1,1.971-.081h2.538c.891,0,1.458,0,1.458-.405a3.944,3.944,0,0,0-1.566-1.485c-.189,0-.324.162-.54.567-.324.621-.594.621-1.3.621Zm-.972,3.942c-.621,0-.837-.027-1.431-.054-.3,0-1.7-.135-2.025-.135-.054,0-.081.027-.081.054,0,.054,0,.081.108.189l.513.621c.108.108.162.162.243.162s.486-.054.567-.054a17.647,17.647,0,0,1,1.971-.081h4.59c.864,0,1.485,0,1.485-.351s-1.4-1.566-1.566-1.566c-.189,0-.7.864-.837,1-.216.216-.3.216-1.161.216Zm.918,3.375c-.459,0-2.7-.189-2.943-.189-.081,0-.108.027-.108.054,0,.054.027.108.108.189l.54.621c.081.108.135.162.243.162.189,0,1.809-.135,2.052-.135h2.565c.837,0,1.458,0,1.458-.378,0-.243-1.188-1.269-1.377-1.269-.108,0-.3.243-.621.648-.216.3-.459.3-1.188.3Zm.135,3.726c-.459,0-.621,0-1.08-.027-.27-.027-1.647-.162-1.944-.162-.054,0-.108.027-.108.081,0,.027.027.054.135.162l.513.621c.081.108.135.189.243.189s1.782-.135,2.106-.135h2.376c.945,0,1.566-.027,1.566-.351a3.988,3.988,0,0,0-1.458-1.377c-.216,0-.459.351-.54.459-.405.54-.54.54-1.3.54Zm7.1-1.161c.108.108.162.162.243.162s.7-.054.81-.054c1.08-.054,2.4-.081,3.186-.081h5.67c1,0,1.566,0,1.566-.378,0-.3-1.431-1.566-1.647-1.566-.243,0-.945.837-1.08.972-.324.27-.594.27-1.485.27h-.513c-.378,0-.81-.027-.837-.729,0-.054-.054-3.024-.054-3.429,0-.567,0-1,.783-1h4.1c.837,0,1.512,0,1.512-.378,0-.432-1.4-1.674-1.62-1.674-.243,0-.918.918-1.053,1.053-.324.3-.621.3-1.512.3H-18.05c-.783,0-.783-.378-.783-1.323a6.274,6.274,0,0,1,.243-2.268c.351-.405.432-.486.432-.648a.447.447,0,0,0-.27-.405c-.135-.027-1.971-.513-2.079-.513-.216,0-.513,0-.513.4,0,.162.216.864.216,1,.081.918.108,2.052.108,2.727,0,.648,0,1.026-.81,1.026-.729,0-2.511-.054-3.24-.081-.189-.027-1.026-.108-1.188-.108-.027,0-.108,0-.108.054s.027.081.108.189l.54.621c.081.108.135.189.243.189.054,0,.675-.081.783-.081.54-.027,1.971-.081,2.754-.081.918,0,.945.27.945,1.647,0,.459,0,2.835-.054,3.024-.081.324-.324.486-.783.486-.567,0-3.186-.189-3.726-.189-.027,0-.081,0-.081.054s.027.108.108.189ZM26.1-18.684c-.594,0-.729-.3-.729-.837a3.225,3.225,0,0,1,.108-.891c.081-.162.7-.7.7-.837,0-.594-2.565-1.053-2.673-1.053-.3,0-.378.162-.378.243,0,.135.216.783.216.891.027.27.027,1.242.027,1.566,0,.729-.135.918-.756.918H20.425a3.42,3.42,0,0,1-1.836-.756c-.594-.405-.7-.432-.891-.432-.243,0-.324.054-.324.378,0,.594.108,3.159.108,3.672,0,1.107-.027,13.311-.081,13.581-.054.3-.432.4-.837.459a19.489,19.489,0,0,1-2.16.189,6.082,6.082,0,0,1-1.026-.081,3.139,3.139,0,0,0-.486-.108.171.171,0,0,0-.189.189c0,.216,1.431,3.186,1.863,3.186.135,0,.54-.486.648-.54A12.83,12.83,0,0,1,17.671.162c1.323-.351,8.316-2.781,8.559-2.781s.378.135.945.675a16.407,16.407,0,0,0,6.615,3.7c.3,0,.351-.108.486-.594.189-.675,1.3-1.269,2.025-1.566.054-.027.324-.162.324-.216,0-.162-.189-.162-.27-.162a13.371,13.371,0,0,1-5.535-1,7.307,7.307,0,0,1-3.132-2.079c0-.243.3-.351.567-.459a57.772,57.772,0,0,1,5.589-2.187c.729-.054.972-.054.972-.459,0-.27-.135-.378-1.215-1.3a9.459,9.459,0,0,0-.837-.729.46.46,0,0,0-.189-.027c-.135,0-.459.567-.54.648C31.144-7.29,27.8-4.536,27.04-4.536c-.7,0-2.565-3.213-2.565-4.077,0-.513.351-.513.594-.513h3.807c.216,0,.648,0,.81.324.135.243.351.729.891.729a1.22,1.22,0,0,0,1.161-1.3c0-.243-.108-1.3-.108-1.512-.054-.918-.054-2.889-.054-3.969,0-2.025.081-2.241.27-2.457.081-.135.729-.54.729-.675a3.922,3.922,0,0,0-1.89-1.782c-.243,0-.3.081-.729.675a1.019,1.019,0,0,1-1,.405ZM20.047-9.855c-.783,0-.81-.243-.81-1.89,0-1.674.027-1.944.81-1.944h8.964c.756,0,.783.324.783,1.917s-.027,1.917-.783,1.917Zm0-4.536c-.81,0-.81-.4-.81-1.782,0-1.4,0-1.782.81-1.782h8.991a.694.694,0,0,1,.783.783V-15.2a.709.709,0,0,1-.783.81Zm3.159,5.265c.567,0,.648.162.729.567a20.221,20.221,0,0,0,1.026,3.132c.135.351.945,2,.945,2.106,0,.324-.108.351-1.107.513-.3.054-4.725.621-4.914.621-.513,0-.621-.4-.621-.7,0-.648-.054-4.671-.054-4.995,0-.81,0-1.242.756-1.242ZM59.818-19.143c-.351,0-.864,0-.864-.675a3.582,3.582,0,0,1,.081-1.107c.027-.108.486-.594.486-.756,0-.513-2.376-.891-2.43-.891-.081,0-.243,0-.243.162,0,.081.108.54.108.648a9.049,9.049,0,0,1,.054,1.269c0,1.026,0,1.35-.81,1.35H52.69c-1.269,0-2.376-.027-3.7-.081-.162,0-1-.108-1.188-.108-.054,0-.108.027-.108.081,0,.027.027.054.135.162l.513.621c.081.108.135.189.243.189.081,0,.459-.081.567-.081.27-.027,1.026-.054,3.4-.054H66.892c.891,0,1.458,0,1.458-.378s-2.4-2.052-2.592-2.052c-.27,0-.918,1.3-1.134,1.485-.27.216-.4.216-1.539.216Zm8.532,7.56c.891,0,1.458,0,1.458-.378,0-.432-2.457-2.052-2.619-2.052-.324,0-1.08,1.3-1.3,1.485-.243.216-.378.216-1.512.216H52.015a1.983,1.983,0,0,1-1.3-.4c-1.431-.918-1.458-.945-1.782-.945-.3,0-.3.081-.3.189a3.3,3.3,0,0,0,.081.459,17.062,17.062,0,0,1,.216,2.943c0,1.917-.324,6.723-1.62,9.1a9.18,9.18,0,0,1-1.566,2.187c-.054.081-.108.135-.108.216s.081.081.108.081a6.2,6.2,0,0,0,2.565-2.4c2-2.916,2.106-5.346,2.322-9.72.027-.648.054-.972.918-.972Zm-6.669.486c-.027,0-.594.567-.729.675a28.953,28.953,0,0,1-3.78,1.809c-.81.324-5.184,1.89-5.184,1.917,0,.054.108.054.162.054a24.656,24.656,0,0,0,7.209-1.377c.621-.189,3.591-1.269,4.293-1.4.378-.054.891-.162.891-.378C64.544-10.179,62.005-11.2,61.681-11.1Zm5.67,5.508a3.568,3.568,0,0,0-.567.675,12.894,12.894,0,0,1-2.025,1.3C60.169-1.08,52.285.891,51.016,1.161c-.108.027-.945.216-.945.243,0,.054.162.135.378.135a44.369,44.369,0,0,0,12.069-2.4c.756-.243,4.4-1.728,5.211-2.052A5.234,5.234,0,0,1,68.917-3c.216,0,.513,0,.513-.243a.444.444,0,0,0-.054-.243C69.376-3.51,67.648-5.643,67.352-5.589ZM52.339-17.955c-.027.054.027.162.054.189a13.419,13.419,0,0,1,1.08,2.565c.324,1.485.513,2.376,1.377,2.376.648,0,1.053-.621,1.053-1.35C55.9-16.362,52.555-18.252,52.339-17.955Zm7.155,5.427c.513.54,3.969-3.618,4.131-3.672.513-.27.567-.3.567-.459,0-.351-2.646-1.431-2.673-1.431-.081,0-.081.054-.081.567a9.585,9.585,0,0,1-1.647,4.32C59.6-12.933,59.386-12.636,59.494-12.528Zm4.779,4.239c-.081.027-.513.567-.621.648-1.377,1.026-6.021,3.132-10.341,4.509-.351.108-.918.27-.918.351q0,.081.162.081a38.315,38.315,0,0,0,7.587-1.512c.783-.243,4.779-1.728,4.914-1.755.945-.108,1.026-.108,1.026-.378A6.982,6.982,0,0,0,64.273-8.289Z" transform="translate(70.538 22.572)" fill="#fff"/>
</svg>
