<svg xmlns="http://www.w3.org/2000/svg" width="388.265" height="41.44" viewBox="0 0 388.265 41.44">
  <path id="パス_130456" data-name="パス 130456" d="M38.28-40.44c-1.14,1.14-1.56,1.5-3.12,1.5H12.36c-1.56,0-2.22-.12-2.82-1.5H8.16c-.66,3.24-1.74,7.2-2.82,10.8H7.2a23.316,23.316,0,0,1,3-5.4c1.14-1.32,2.22-1.8,7.2-1.8h3L14.76-7.26c-.9,4.68-1.32,5.22-6.36,5.58L7.98,0H24.84l.36-1.68c-5.4-.36-5.82-.84-4.98-5.58L25.8-36.84h3.54c4.32,0,5.64.36,6.24,1.74.6,1.26.72,3.06.72,5.46l1.92-.12c.36-3.36.9-8.04,1.44-10.68Zm25.38.54c-12.6,0-21.9,11.22-21.9,23.76C41.76-5.94,48.3.9,57.78.9,70.62.9,79.74-9.9,79.74-22.68,79.74-32.76,73.32-39.9,63.66-39.9Zm-.42,2.16c7.44,0,10.2,6.36,10.2,14.28,0,9.96-5.58,22.2-15.18,22.2C51.18-1.26,48-7.44,48-15.42,48-26.1,54.18-37.74,63.24-37.74Zm25.5-1.2-.42,1.68c4.74.48,5.04.84,4.14,5.58L87.66-7.5c-1.02,5.04-1.44,5.34-6,5.82L81.24,0H97.62l.36-1.68c-5.46-.48-5.88-.84-4.92-5.82l1.8-9.42,4.08,1.26c.66,0,1.44,0,2.22-.06,6.78-.48,14.34-4.62,14.34-13.08,0-6.84-4.62-10.14-12.9-10.14Zm9.3,5.34c.36-1.92.78-2.58,1.44-2.88a5.7,5.7,0,0,1,2.52-.48c4.92,0,7.62,2.88,7.62,7.86,0,7.68-5.64,10.98-10.08,10.98a11.578,11.578,0,0,1-4.26-.78Zm87.12-5.34H175.08L156.9-9.66c-2.34-10.44-4.32-19.68-6.3-29.28H140.22l-.48,1.68c5.58.48,5.94,1.02,4.2,6.84l-3.48,11.94c-2.16,7.26-3.24,10.68-4.2,13.08-1.02,2.58-2.22,3.42-5.58,3.72L130.26,0h13.56l.36-1.68c-4.32-.42-4.92-1.14-4.5-3.78a111.039,111.039,0,0,1,2.76-11.46l4.32-15.6h.18c2.16,11.46,4.08,21.6,5.94,32.28h1.44l19.5-32.82H174c-1.26,8.28-2.58,16.08-3.9,24.9-.9,5.7-1.2,6-5.7,6.48L163.98,0h15.54l.36-1.68c-4.74-.48-5.1-.66-4.38-6.48,1.02-7.86,1.92-14.88,3.24-23.58.72-4.86.9-5.1,6-5.52Zm6.9,0-.42,1.68c4.92.42,5.22.78,4.26,5.58L191.22-7.26c-.96,4.8-1.44,5.16-6.24,5.58L184.56,0h28.32c.84-1.92,3.06-7.56,3.72-9.3l-1.74-.6a24.455,24.455,0,0,1-4.08,5.7c-1.62,1.56-3.42,2.04-7.74,2.04-3.24,0-4.98-.12-5.88-.9-.78-.72-.84-2.28-.24-5.58l1.98-10.5h5.46c5.16,0,5.16.42,5.04,4.74h1.8l2.28-11.52h-1.8c-1.44,3.96-1.8,4.38-6.84,4.38h-5.46l2.46-12.84c.42-2.22.6-2.46,2.7-2.46h4.32c4.26,0,5.1.54,5.76,1.92.66,1.14.78,3,.84,5.34l1.8-.12c.42-3.48.96-8.04,1.14-9.24Zm29.46,27.12c.12,4.32.12,7.62.18,9C223.08-1.26,227.28.9,232.14.9c7.08,0,13.32-4.5,13.32-11.58,0-4.86-2.94-8.04-7.08-11.1l-1.8-1.32c-3.12-2.34-5.4-4.5-5.4-7.92a6.54,6.54,0,0,1,6.54-6.84c5.16,0,6.72,4.32,7.2,8.7l1.8-.18c.06-2.88,0-6.06.18-8.52-.48-.18-1.44-.6-2.58-1.02a19.273,19.273,0,0,0-5.94-1.02c-7.2,0-12.3,4.5-12.3,10.86,0,4.98,3.84,8.34,6.78,10.62l1.74,1.32c3.42,2.7,5.4,5.04,5.4,8.34,0,4.56-2.76,7.56-7.08,7.56-6.54,0-9.06-6.36-9.66-10.8Zm29.52,0c.12,4.32.12,7.62.18,9C252.6-1.26,256.8.9,261.66.9c7.08,0,13.32-4.5,13.32-11.58,0-4.86-2.94-8.04-7.08-11.1l-1.8-1.32c-3.12-2.34-5.4-4.5-5.4-7.92a6.54,6.54,0,0,1,6.54-6.84c5.16,0,6.72,4.32,7.2,8.7l1.8-.18c.06-2.88,0-6.06.18-8.52-.48-.18-1.44-.6-2.58-1.02a19.272,19.272,0,0,0-5.94-1.02c-7.2,0-12.3,4.5-12.3,10.86,0,4.98,3.84,8.34,6.78,10.62l1.74,1.32c3.42,2.7,5.4,5.04,5.4,8.34,0,4.56-2.76,7.56-7.08,7.56-6.54,0-9.06-6.36-9.66-10.8ZM315.66-1.68c-4.2-.48-4.56-.96-5.34-5.46-1.32-7.32-2.64-14.94-3.9-22.74l-1.56-9.96-2.1.54L284.88-7.68c-2.88,5.16-3.54,5.46-7.2,6L277.2,0h13.02l.42-1.68c-4.62-.42-4.98-.9-3.3-4.32,1.26-2.7,2.94-5.94,4.02-7.92h12.36c.54,3.3,1.02,6.06,1.38,8.52.36,2.64.12,3.3-3.96,3.72L300.66,0h14.58ZM303.3-16.56H292.68c2.58-4.98,5.34-9.84,8.16-15.12h.12Zm53.4-12c.24-4.14.54-7.62.72-9.48a33.538,33.538,0,0,0-10.68-1.86c-14.94,0-25.5,9.84-25.5,23.64,0,10.98,7.44,17.16,18,17.16,4.74,0,9-1.38,12.72-2.28a14.674,14.674,0,0,1,.3-4.68l.96-4.92c.84-4.5,1.14-4.74,4.44-5.22l.42-1.62H342.84l-.42,1.62c5.94.6,6.24.78,5.4,5.22l-1.14,5.52c-.66,3.24-3,4.2-6.42,4.2-8.1,0-12.6-6.42-12.6-15.36,0-11.28,7.02-21.12,17.64-21.12,5.94,0,9.42,2.46,9.54,9.36Zm10.44-10.38-.42,1.68c4.92.42,5.22.78,4.26,5.58L366.3-7.26c-.96,4.8-1.44,5.16-6.24,5.58L359.64,0h28.32c.84-1.92,3.06-7.56,3.72-9.3l-1.74-.6a24.455,24.455,0,0,1-4.08,5.7c-1.62,1.56-3.42,2.04-7.74,2.04-3.24,0-4.98-.12-5.88-.9-.78-.72-.84-2.28-.24-5.58l1.98-10.5h5.46c5.16,0,5.16.42,5.04,4.74h1.8l2.28-11.52h-1.8c-1.44,3.96-1.8,4.38-6.84,4.38h-5.46l2.46-12.84c.42-2.22.6-2.46,2.7-2.46h4.32c4.26,0,5.1.54,5.76,1.92.66,1.14.78,3,.84,5.34l1.8-.12c.42-3.48.96-8.04,1.14-9.24Z" transform="translate(-5.273 40.49)" fill="#fff" stroke="#fff" stroke-width="0.1"/>
</svg>
