<svg xmlns="http://www.w3.org/2000/svg" width="204.912" height="20.016" viewBox="0 0 204.912 20.016">
  <path id="パス_130457" data-name="パス 130457" d="M8.808-17.9l.048.1a2.663,2.663,0,0,1,.816,1.1c.288.768.288,1.536.288,8.4a49.675,49.675,0,0,1-.216,5.568c0,.1-.1.6-.1.7,0,.624.624,2.256,1.344,2.256.7,0,.7-1.584.7-2.184,0-.36-.024-.96-.048-1.224-.1-2.16-.12-3.432-.12-5.976,0-1.776.1-1.776.336-1.776.744,0,1.872,1.128,2.544,2.016,1.608,2.088,1.68,2.184,2.28,2.184a.821.821,0,0,0,.864-.84c0-1.8-3.72-3.552-5.184-3.888-.7-.168-.792-.24-.792-.768a31.13,31.13,0,0,1,.216-3.336,6.955,6.955,0,0,0,.288-1.008c0-.768-1.728-1.536-2.592-1.536C9.456-18.12,8.832-18.12,8.808-17.9ZM43.752-10.92c0,2.064-2.808,6.576-7.92,10.488A10.25,10.25,0,0,0,34.488.576a.155.155,0,0,0,.144.144A21.015,21.015,0,0,0,44.4-7.752a19.565,19.565,0,0,1,1.224-2.064c.408-.24.5-.264.5-.456,0-.7-.96-1.272-1.344-1.464a5.34,5.34,0,0,0-1.08-.6.163.163,0,0,0-.168.168,1.53,1.53,0,0,0,.048.216A2.433,2.433,0,0,1,43.752-10.92Zm-10.512.792c-.168,0-.312.072-.312.216,0,.072.048.144.168.312a8.584,8.584,0,0,1,1.392,2.424c.168.528.336,1.08.864,1.08a.873.873,0,0,0,.816-.912C36.168-8.928,33.816-10.128,33.24-10.128Zm4.152-2.208c-.12-.024-.24.048-.24.12a2.712,2.712,0,0,0,.264.528,7.533,7.533,0,0,1,.888,2.28c.072.408.192,1.008.72,1.008.432,0,.816-.528.816-1.224A3.041,3.041,0,0,0,37.392-12.336ZM75.7-18.72a2.28,2.28,0,0,0-2.352,2.28,2.358,2.358,0,0,0,2.328,2.328,2.341,2.341,0,0,0,2.3-2.328A2.234,2.234,0,0,0,75.7-18.72Zm-.048.816a1.605,1.605,0,0,1,1.536,1.512A1.48,1.48,0,0,1,75.7-14.928a1.489,1.489,0,0,1-1.56-1.44A1.544,1.544,0,0,1,75.648-17.9Zm-17.3,2.928c-.144,0-.216.072-.216.528,0,1.32,1.92,2.52,2.472,2.52a8.7,8.7,0,0,0,1.2-.528,78.749,78.749,0,0,1,8.64-1.728c.12,0,.528.024.528.432A13.56,13.56,0,0,1,69.336-9.7c-1.92,3.408-5.3,6.576-9.48,9.5-.24.168-.312.216-.312.312a.16.16,0,0,0,.168.144c.24,0,8.616-3.36,12.384-11.184a3.972,3.972,0,0,1,.936-1.512c.432-.432.552-.552.552-.864,0-.336-.144-.6-1.224-1.56-.744-.648-1.128-.984-1.656-.984-.168,0-.264.048-1.008.384-1.032.456-8.064,1.128-9.048,1.128a5.654,5.654,0,0,1-1.992-.5C58.608-14.832,58.392-14.976,58.344-14.976Zm32.04,2.568c-.168,0-.216.1-.216.192,0,.12.048.144.5.384.912.5,3.12,1.824,3.12,2.328a11.327,11.327,0,0,1-1.728,2.568,38.514,38.514,0,0,1-6.36,5.88c-.288.24-.744.6-.744.7s.1.12.168.12c.216,0,5.016-2.04,9.408-7.536a.691.691,0,0,1,.5-.336c.336,0,.792.816,1.032,1.248.84,1.488,1.2,2.112,2.064,2.112a.753.753,0,0,0,.768-.792c0-.6-.288-1.9-2.352-3.72a.955.955,0,0,1-.408-.648,1.1,1.1,0,0,1,.24-.6c.5-.792.96-1.608,1.368-2.4.624-1.176.7-1.3.96-1.44.528-.264.6-.288.6-.48A3.153,3.153,0,0,0,98.28-16.56a3.741,3.741,0,0,0-1.608-.768.2.2,0,0,0-.192.216c0,.072.072.144.144.288a1.068,1.068,0,0,1,.168.552,11.83,11.83,0,0,1-.888,2.88c-.288.7-.984,2.376-1.488,2.376a13.006,13.006,0,0,1-1.512-.648A9.644,9.644,0,0,0,90.384-12.408Zm35.448,1.488c0,2.064-2.808,6.576-7.92,10.488A10.249,10.249,0,0,0,116.568.576a.155.155,0,0,0,.144.144,21.015,21.015,0,0,0,9.768-8.472A19.565,19.565,0,0,1,127.7-9.816c.408-.24.5-.264.5-.456,0-.7-.96-1.272-1.344-1.464a5.34,5.34,0,0,0-1.08-.6.163.163,0,0,0-.168.168,1.53,1.53,0,0,0,.048.216A2.433,2.433,0,0,1,125.832-10.92Zm-10.512.792c-.168,0-.312.072-.312.216,0,.072.048.144.168.312a8.584,8.584,0,0,1,1.392,2.424c.168.528.336,1.08.864,1.08a.873.873,0,0,0,.816-.912C118.248-8.928,115.9-10.128,115.32-10.128Zm4.152-2.208c-.12-.024-.24.048-.24.12a2.711,2.711,0,0,0,.264.528,7.533,7.533,0,0,1,.888,2.28c.072.408.192,1.008.72,1.008.432,0,.816-.528.816-1.224A3.041,3.041,0,0,0,119.472-12.336Zm20.808,1.848c-.048,0-.144.024-.144.1,0,.1.96,1.92,2.184,1.92.528,0,.672-.072,2.088-.816a17.492,17.492,0,0,1,2.256-.672c.336,0,.48.168.48.552,0,.408-.048,2.5-.048,2.976,0,3.984.5,5.064,4.656,5.064,1.3,0,5.328,0,5.328-1.536a.93.93,0,0,0-1.008-.768,9.043,9.043,0,0,0-1.992.336,20.357,20.357,0,0,1-2.64.24c-1.44,0-2.784-.216-2.976-2.112-.048-.456-.048-2.616-.048-4.632a.9.9,0,0,1,.744-1.032c.312-.1,3.912-1.272,3.96-1.272.264,0,.288.336.288.48a4.113,4.113,0,0,1-.672,1.992c-.048.1-.456.768-.456.792a.138.138,0,0,0,.144.144,19.943,19.943,0,0,0,1.8-1.08c.864-.528,1.128-.7,1.632-.7.1,0,.552.048.648.048.312,0,.432-.192.432-.36,0-.984-2.568-2.832-3.216-2.832a6.805,6.805,0,0,0-1.032.5,29.084,29.084,0,0,1-3.6,1.008.424.424,0,0,1-.48-.456,20.056,20.056,0,0,1,.36-2.3,7.294,7.294,0,0,0,.456-1.08c0-.24-.432-.648-.5-.72-1.1-.936-1.368-1.056-1.656-1.056-.216,0-1.1.192-1.1.408a4.78,4.78,0,0,0,.288.456c.576.864.864,1.272.864,3.864,0,1.272-.048,1.464-.7,1.632-3.648.96-4.056,1.08-5.016,1.08a5.322,5.322,0,0,1-.888-.072A1.4,1.4,0,0,0,140.28-10.488Zm30.432.816a13.07,13.07,0,0,1-2.928-.216c-.12-.024-.7-.288-.816-.288s-.192.144-.192.288c0,.816,1.1,2.3,2.136,2.3.288,0,1.584-.384,1.872-.432.576-.12,6.072-.432,9.384-.432.48,0,2.88.048,3.432.048,1.008,0,1.992-.072,1.992-.744,0-.168-.216-1.056-1.68-1.056-.12,0-.384.024-.528.024C179.88-9.984,171.5-9.672,170.712-9.672ZM197.76-11.52c-.144,0-1.68,0-1.68.36,0,.1.168.192.24.24A6.221,6.221,0,0,1,198.5-8.952c.36.6.48.744.84.744.576,0,.912-.7.912-1.2C200.256-10.584,198.792-11.52,197.76-11.52Zm4.008-4.44a3.3,3.3,0,0,0-1.224-.24c-.72,0-1.824.24-1.824.5,0,.1.024.1.36.216a4.059,4.059,0,0,1,2.088,1.3c.84.984.936,1.1,1.2,1.1.384,0,.792-.5.792-1.128A2.1,2.1,0,0,0,201.768-15.96ZM198.7-.456c.264,0,.36-.072,1.248-.768.192-.144.288-.216,1.752-1.128C211.1-8.28,212.3-12,212.3-12.048a.153.153,0,0,0-.144-.144c-.072,0-1.464,1.416-1.728,1.68-4.224,3.888-10.752,7.464-12.048,7.464-.24,0-1.32-.384-1.392-.384a.176.176,0,0,0-.192.192.977.977,0,0,0,.12.432c.048.12.432.624.5.768C197.9-1.008,198.192-.456,198.7-.456ZM210.6-19.3c-.432,0-.912,0-.912.216,0,.048.048.168.264.288a6.022,6.022,0,0,1,1.944,1.56c.336.552.672,1.056,1.176,1.056a.706.706,0,0,0,.648-.768C213.72-18.6,211.224-19.3,210.6-19.3Zm-2.76,1.536c-.144,0-.432.024-.432.168,0,.1.216.312.312.384a7.479,7.479,0,0,1,1.536,1.608c.6.936.816,1.2,1.176,1.2.456,0,.768-.624.768-.912C211.2-16.584,209.232-17.76,207.84-17.76Z" transform="translate(-8.808 19.296)" fill="#fff"/>
</svg>
