<svg xmlns="http://www.w3.org/2000/svg" width="301.74" height="40.8" viewBox="0 0 301.74 40.8">
  <path id="パス_130443" data-name="パス 130443" d="M2.22-11.82c.12,4.32.12,7.62.18,9C3.78-1.26,7.98.9,12.84.9c7.08,0,13.32-4.5,13.32-11.58,0-4.86-2.94-8.04-7.08-11.1l-1.8-1.32c-3.12-2.34-5.4-4.5-5.4-7.92a6.54,6.54,0,0,1,6.54-6.84c5.16,0,6.72,4.32,7.2,8.7l1.8-.18c.06-2.88,0-6.06.18-8.52-.48-.18-1.44-.6-2.58-1.02a19.273,19.273,0,0,0-5.94-1.02c-7.2,0-12.3,4.5-12.3,10.86,0,4.98,3.84,8.34,6.78,10.62L15.3-17.1c3.42,2.7,5.4,5.04,5.4,8.34,0,4.56-2.76,7.56-7.08,7.56C7.08-1.2,4.56-7.56,3.96-12ZM34.98.72a3.659,3.659,0,0,0,3.66-3.9,3.114,3.114,0,0,0-3.06-3.36,3.725,3.725,0,0,0-3.72,3.96A3.108,3.108,0,0,0,34.98.72Zm33.3-39.66H52.62l-.42,1.68c4.92.42,5.34.78,4.5,5.22L51.84-7.14c-.9,4.62-1.26,5.1-5.88,5.46L45.54,0H61.32l.36-1.68c-4.86-.36-5.28-.78-4.38-5.46l4.8-24.9c.9-4.44,1.2-4.8,5.82-5.22ZM72.24.72a3.659,3.659,0,0,0,3.66-3.9,3.114,3.114,0,0,0-3.06-3.36,3.725,3.725,0,0,0-3.72,3.96A3.108,3.108,0,0,0,72.24.72ZM128.4-38.94H114.78l-.48,1.68c4.38.24,5.46.9,5.22,3.72a92.81,92.81,0,0,1-1.56,10.26l-2.7,14.34h-.18l-17.34-30H88.68l-.42,1.68c3.18.18,4.32.54,5.04,1.8.72,1.32.96,2.28.3,5.58l-3,14.28c-1.2,5.58-1.86,8.28-2.52,10.32-.78,2.64-2.16,3.42-5.28,3.6L82.38,0H96.3l.36-1.68c-4.2-.3-5.28-.96-5.1-3.72a77.325,77.325,0,0,1,1.5-10.08l3.06-15.6h.18L113.94.48h2.04l4.5-23.76a101.866,101.866,0,0,1,2.34-10.2c.78-2.64,1.56-3.6,5.22-3.78Zm58.32,0H173.1l-.48,1.68c4.38.24,5.46.9,5.22,3.72a92.808,92.808,0,0,1-1.56,10.26l-2.7,14.34h-.18l-17.34-30H147l-.42,1.68c3.18.18,4.32.54,5.04,1.8.72,1.32.96,2.28.3,5.58l-3,14.28c-1.2,5.58-1.86,8.28-2.52,10.32-.78,2.64-2.16,3.42-5.28,3.6L140.7,0h13.92l.36-1.68c-4.2-.3-5.28-.96-5.1-3.72a77.323,77.323,0,0,1,1.5-10.08l3.06-15.6h.18L172.26.48h2.04l4.5-23.76a101.872,101.872,0,0,1,2.34-10.2c.78-2.64,1.56-3.6,5.22-3.78Zm5.1,0-.42,1.68c4.92.42,5.22.78,4.26,5.58L190.98-7.26c-.96,4.8-1.44,5.16-6.24,5.58L184.32,0h28.32c.84-1.92,3.06-7.56,3.72-9.3l-1.74-.6a24.455,24.455,0,0,1-4.08,5.7c-1.62,1.56-3.42,2.04-7.74,2.04-3.24,0-4.98-.12-5.88-.9-.78-.72-.84-2.28-.24-5.58l1.98-10.5h5.46c5.16,0,5.16.42,5.04,4.74h1.8l2.28-11.52h-1.8c-1.44,3.96-1.8,4.38-6.84,4.38h-5.46l2.46-12.84c.42-2.22.6-2.46,2.7-2.46h4.32c4.26,0,5.1.54,5.76,1.92.66,1.14.78,3,.84,5.34l1.8-.12c.42-3.48.96-8.04,1.14-9.24Zm86.94,0h-12.9l-.36,1.68,1.5.18c3.06.42,3.36.9,2.1,4.2-2.22,5.76-7.08,16.2-10.8,24.3h-.12l-4.92-29.7h-1.92L237.42-8.7h-.12l-2.58-24.36c-.3-3.3.06-3.66,2.4-4.02l1.5-.18.42-1.68H225l-.36,1.68c4.02.42,4.32.72,4.86,5.7L233.16.6h2.04l14.1-29.22h.18L254.34.6h1.98c7.74-16.74,12.84-27.54,15.3-32.22,2.46-4.86,2.88-5.1,6.78-5.64Zm-.18,27.12c.12,4.32.12,7.62.18,9C280.14-1.26,284.34.9,289.2.9c7.08,0,13.32-4.5,13.32-11.58,0-4.86-2.94-8.04-7.08-11.1l-1.8-1.32c-3.12-2.34-5.4-4.5-5.4-7.92a6.54,6.54,0,0,1,6.54-6.84c5.16,0,6.72,4.32,7.2,8.7l1.8-.18c.06-2.88,0-6.06.18-8.52-.48-.18-1.44-.6-2.58-1.02a19.272,19.272,0,0,0-5.94-1.02c-7.2,0-12.3,4.5-12.3,10.86,0,4.98,3.84,8.34,6.78,10.62l1.74,1.32c3.42,2.7,5.4,5.04,5.4,8.34,0,4.56-2.76,7.56-7.08,7.56-6.54,0-9.06-6.36-9.66-10.8Z" transform="translate(-2.22 39.9)" fill="#4a4a4a"/>
</svg>
