<svg xmlns="http://www.w3.org/2000/svg" width="251.285" height="41.44" viewBox="0 0 251.285 41.44">
  <path id="パス_130459" data-name="パス 130459" d="M35.46-1.08A7.223,7.223,0,0,1,31.5-3.9a44.835,44.835,0,0,1-3.72-6.36c-1.38-2.76-2.94-6.48-3.54-8.04,4.86-1.68,9.36-5.34,9.36-11.4a8.268,8.268,0,0,0-3.72-7.38c-2.1-1.44-5.34-1.86-8.64-1.86H7.8l-.36,1.68c4.74.42,4.98.66,4.08,5.52L6.84-7.62C5.82-2.46,5.46-2.16.9-1.68L.48,0H16.02l.36-1.68c-4.74-.42-5.16-.78-4.14-6l1.68-9.36h2.34c2.1,0,2.88.54,3.78,2.76,1.26,3.06,2.52,6.06,4.02,8.88C26.16-1.44,28.14.24,34.26.48h.72ZM14.34-19.02l2.82-14.7c.3-1.56.6-2.28,1.08-2.64a4.4,4.4,0,0,1,2.64-.6c4.14,0,6.78,2.58,6.78,7.74a10.384,10.384,0,0,1-4.44,8.7,11.048,11.048,0,0,1-6.3,1.5ZM45.12-38.94l-.42,1.68c4.92.42,5.22.78,4.26,5.58L44.28-7.26c-.96,4.8-1.44,5.16-6.24,5.58L37.62,0H65.94c.84-1.92,3.06-7.56,3.72-9.3l-1.74-.6a24.455,24.455,0,0,1-4.08,5.7c-1.62,1.56-3.42,2.04-7.74,2.04-3.24,0-4.98-.12-5.88-.9-.78-.72-.84-2.28-.24-5.58l1.98-10.5h5.46c5.16,0,5.16.42,5.04,4.74h1.8l2.28-11.52h-1.8c-1.44,3.96-1.8,4.38-6.84,4.38H52.44L54.9-34.38c.42-2.22.6-2.46,2.7-2.46h4.32c4.26,0,5.1.54,5.76,1.92.66,1.14.78,3,.84,5.34l1.8-.12c.42-3.48.96-8.04,1.14-9.24ZM107.4-10.62c-3.54,5.46-7.14,9.36-12.9,9.36-7.62,0-11.82-6.6-11.82-15.24,0-11.22,7.14-21.18,17.34-21.18,5.7,0,8.82,2.04,9.3,9.24l1.86-.18c.24-3,.36-6.3.48-9.36a29.479,29.479,0,0,0-10.32-1.92c-13.86,0-25.08,9.24-25.08,23.58C76.26-5.16,83.82.9,93.9.9A43.235,43.235,0,0,0,104.28-.6a73.151,73.151,0,0,0,4.74-9.18Zm39.9,9.54a7.223,7.223,0,0,1-3.96-2.82,44.836,44.836,0,0,1-3.72-6.36c-1.38-2.76-2.94-6.48-3.54-8.04,4.86-1.68,9.36-5.34,9.36-11.4a8.268,8.268,0,0,0-3.72-7.38c-2.1-1.44-5.34-1.86-8.64-1.86H119.64l-.36,1.68c4.74.42,4.98.66,4.08,5.52L118.68-7.62c-1.02,5.16-1.38,5.46-5.94,5.94L112.32,0h15.54l.36-1.68c-4.74-.42-5.16-.78-4.14-6l1.68-9.36h2.34c2.1,0,2.88.54,3.78,2.76,1.26,3.06,2.52,6.06,4.02,8.88C138-1.44,139.98.24,146.1.48h.72ZM126.18-19.02,129-33.72c.3-1.56.6-2.28,1.08-2.64a4.4,4.4,0,0,1,2.64-.6c4.14,0,6.78,2.58,6.78,7.74a10.384,10.384,0,0,1-4.44,8.7,11.048,11.048,0,0,1-6.3,1.5Zm67.08-19.92H179.22l-.42,1.68c4.32.24,5.46.84,5.34,3.3a91.822,91.822,0,0,1-1.56,10.62l-.9,4.38C179.46-7.62,175.44-2.4,168.36-2.4c-5.88,0-10.14-4.08-8.1-14.76l2.76-14.64c.9-4.8,1.32-5.04,5.76-5.46l.36-1.68h-15.3l-.42,1.68c4.74.42,5.04.78,4.14,5.46l-2.82,14.94c-1.38,7.44-.06,11.94,2.7,14.52A13.521,13.521,0,0,0,166.8.9a15.427,15.427,0,0,0,10.38-3.96c3.96-3.72,5.76-9.18,6.96-15.42l.96-4.86c1.08-5.46,1.8-8.52,2.4-10.56.72-2.28,1.44-3.18,5.34-3.36Zm20.22,0H197.82l-.42,1.68c4.92.42,5.34.78,4.5,5.22l-4.86,24.9c-.9,4.62-1.26,5.1-5.88,5.46L190.74,0h15.78l.36-1.68c-4.86-.36-5.28-.78-4.38-5.46l4.8-24.9c.9-4.44,1.2-4.8,5.82-5.22Zm36.78-1.5c-1.14,1.14-1.56,1.5-3.12,1.5h-22.8c-1.56,0-2.22-.12-2.82-1.5h-1.38c-.66,3.24-1.74,7.2-2.82,10.8h1.86a23.316,23.316,0,0,1,3-5.4c1.14-1.32,2.22-1.8,7.2-1.8h3L226.74-7.26c-.9,4.68-1.32,5.22-6.36,5.58L219.96,0h16.86l.36-1.68c-5.4-.36-5.82-.84-4.98-5.58l5.58-29.58h3.54c4.32,0,5.64.36,6.24,1.74.6,1.26.72,3.06.72,5.46l1.92-.12c.36-3.36.9-8.04,1.44-10.68Z" transform="translate(-0.416 40.49)" fill="#fff" stroke="#fff" stroke-width="0.1"/>
</svg>
