<svg xmlns="http://www.w3.org/2000/svg" width="104.616" height="21.936" viewBox="0 0 104.616 21.936">
  <path id="パス_130460" data-name="パス 130460" d="M20.784-8.3c.816,0,1.3,0,1.3-.336a5.139,5.139,0,0,0-1.7-1.512c-.216,0-.744.888-.888,1.032-.168.168-.264.168-1.272.168H16.2c-.264,0-.768,0-.768-.648,0-.864.12-1.008.336-1.176.408-.36.456-.408.456-.552,0-.24-.1-.288-1.1-.72a3.051,3.051,0,0,0-1.08-.264c-.192,0-.24.048-.24.216,0,.144.12.816.12.96.072.624.12,1.344.12,1.512,0,.672-.456.672-.792.672h-.576c-1.344,0-2.592-.048-3.288-.072-.168,0-.888-.1-1.056-.1a.077.077,0,0,0-.072.072c0,.024,0,.024.1.144l.456.552c.1.12.144.168.216.168a3.184,3.184,0,0,0,.5-.072c.5-.024,2.04-.072,2.592-.072.288,0,.744,0,.744.432,0,.5-1.968,3.144-2.712,4.032-.48.6-3.384,3.432-3.384,3.5a.052.052,0,0,0,.048.048,10.715,10.715,0,0,0,3.84-2.616c1.056-1.008,1.824-1.9,2.712-2.9a.432.432,0,0,1,.36-.216c.168,0,.264.1.264.168,0,1.056-.24,5.784-.24,6.744,0,.456.144.936.624.936,1.152,0,1.152-1.08,1.152-1.44,0-.912-.12-4.92-.12-5.736,0-1.3,0-1.368.192-1.368.168,0,.192.072.336.456,1.512,3.7,4.176,6.336,4.512,6.336.144,0,.648-.528.744-.6A2.747,2.747,0,0,1,22.776-.96c.12-.024.384-.048.384-.216,0-.1-.192-.192-.528-.384a16.268,16.268,0,0,1-5.76-4.824A7.858,7.858,0,0,1,15.864-7.9c0-.264.216-.408.5-.408ZM14.736-17.16c0-.264.336-.312.648-.36.576-.1,4.08-.648,4.416-.648.456,0,.84-.048.84-.408,0-.288-.36-.456-.6-.6-.144-.072-1.536-.792-1.584-.792a9.162,9.162,0,0,0-1.32.744,33.444,33.444,0,0,1-6.552,1.68c-.912.168-1.032.192-1.032.288,0,.12.1.12.888.12.456,0,2.736-.168,3.264-.168a.6.6,0,0,1,.6.336,6.8,6.8,0,0,1,.528,2.328c.072.984.12,1.368.7,1.368a1.09,1.09,0,0,0,.96-1.128c0-.96-1.08-1.968-1.344-2.232C14.9-16.848,14.736-17.016,14.736-17.16ZM8.064-14.376c.792,0,1.272,0,1.272-.336,0-.24-1.032-1.32-1.344-1.32-.264,0-.312.12-.6.576a.641.641,0,0,1-.648.408c-.528,0-.528-.5-.528-.792a9.94,9.94,0,0,1,.192-2.448c.072-.12.552-.576.552-.72,0-.264-.144-.336-.768-.552-.24-.1-1.464-.528-1.584-.528-.168,0-.288.072-.288.192a3.731,3.731,0,0,0,.192.552,30.5,30.5,0,0,1,.144,3.672.593.593,0,0,1-.648.648c-.48,0-2.544-.168-2.952-.168-.048,0-.1.024-.1.072,0,.024,0,.024.1.144l.48.552c.072.1.12.168.216.168.048,0,.288-.048.336-.048.408-.048,1.392-.072,1.848-.072.576,0,.744.192.744.744,0,3.36,0,3.744-.192,4.056-.192.288-.288.312-.888.528a9.167,9.167,0,0,1-2.256.6c-.192,0-.5,0-.5.144,0,.24.216.6.744,1.536.288.48.336.576.552.576.168,0,.672-.648.816-.744a5.822,5.822,0,0,1,1.272-.6c.48,0,.48.24.48,2.136,0,.5,0,4.2-.024,4.368-.048.528-.456.648-1.056.648-.168,0-.888-.024-1.032-.024s-.456,0-.456.144C2.136-.1,2.9.384,3,.5c.12.144.5.864.624.984a.687.687,0,0,0,.552.288A2.606,2.606,0,0,0,5.832.864,2.8,2.8,0,0,0,6.288-.984c0-.648-.1-3.576-.1-4.152C6.168-6,6.168-6.864,6.168-7.7c0-.96.192-1.08,1.56-1.872,1.752-1.032,2.4-1.368,2.4-1.608,0-.072-.1-.072-.144-.072-.288,0-3.024,1.176-3.408,1.176-.36,0-.384-.264-.384-.576V-13.68c0-.7.384-.7.864-.7Zm13.08-2.568a6.549,6.549,0,0,0-.96-.528c-.024,0-.072.384-.1.432a10.126,10.126,0,0,1-1.152,2.592c-.192.36-1.416,2.208-1.416,2.328,0,.024.024.048.072.048.624,0,3.744-3.36,4.128-3.552.5-.264.552-.288.552-.432C22.272-16.224,22.152-16.3,21.144-16.944ZM12.168-13.8c-.1-.744-.432-1.368-1.728-2.472-.5-.432-.576-.432-.7-.432-.024,0-.072,0-.072.072s.024.12.288.72a4.232,4.232,0,0,1,.336,1.7c.072,1.248.1,1.9.84,1.9A1.216,1.216,0,0,0,12.168-13.8ZM37.752-6.48c.576,0,.744.24.744.768C38.5-4.7,38.352-.288,38.352.6c0,.312.024.624.5.624A1.808,1.808,0,0,0,39.984.792c.168-.168.24-.336.24-.792,0-1.848,0-3.816-.024-5.544-.024-.7.1-.936.744-.936h4.872c.264,0,.624,0,.72.432.048.192.048,1.872.048,2.184,0,3.048-.024,3.312-.96,3.312-.336,0-1.848-.12-2.16-.12-.12,0-.288.048-.288.144,0,.144.36.216.432.24.216.048,1.68.552,2.016,1.416.168.48.192.528.408.528,2.232,0,2.232-2.664,2.232-3.72,0-2.04-.144-10.9-.144-12.864,0-2.28.072-2.3.624-2.592.192-.1.384-.24.384-.456,0-.384-1.752-1.368-1.944-1.368-.168,0-.192.048-.6.48a.956.956,0,0,1-.84.288H34.008a3.351,3.351,0,0,1-1.9-.552,4.732,4.732,0,0,0-1.2-.408c-.144,0-.168.048-.168.192,0,.048.168,1.416.192,1.68.168,1.776.216,5.712.216,7.608,0,5.976-.408,8.088-1.392,10.128-.1.192-.672,1.128-.672,1.152a.135.135,0,0,0,.144.12c.36,0,3.024-2.568,3.432-6.768.1-.864.1-1.056.792-1.056ZM33.48-13.1c-.72,0-.744,0-.744-2.736,0-1.992,0-2.088.72-2.088h4.368c.72,0,.72.072.72,2.4,0,2.424,0,2.424-.72,2.424Zm-.024,5.976c-.7,0-.7-.456-.7-.84,0-.552,0-3.936.024-4.056.1-.384.408-.432.672-.432h4.368c.72,0,.72.1.72,2.232a26.3,26.3,0,0,1-.1,2.808.615.615,0,0,1-.624.288Zm12.312-5.328c.744,0,.768.048.768,3.576,0,1.584,0,1.752-.72,1.752h-4.9c-.168,0-.528,0-.648-.312a24.288,24.288,0,0,1-.1-2.736c0-2.208,0-2.28.744-2.28Zm-.12-5.472c.768,0,.792,0,.792,3.192,0,1.368,0,1.632-.744,1.632H40.92c-.744,0-.744-.408-.744-.912,0-.576,0-3.336.024-3.48.1-.384.408-.432.72-.432ZM72.864-2.712c.216,0,.7,0,.7.576,0,1.9-.024,1.9-.288,2.04a4.7,4.7,0,0,1-1.44.36c-.12,0-.288.048-.288.144s.552.288.648.336a2.677,2.677,0,0,1,.84.768c.072.12.144.216.264.216.36,0,1.92-.7,1.92-2.016,0-.792-.144-4.272-.144-4.968a21.315,21.315,0,0,1,.1-2.592c.024-.024.24-.264.384-.408a.51.51,0,0,0,.168-.36c0-.24-.1-.312-.5-.552-.84-.456-.936-.5-1.1-.5-.192,0-.264.048-.576.408a.883.883,0,0,1-.72.264h-5.3a2.493,2.493,0,0,1-.816-.12c-.216-.024-1.176-.432-1.392-.432-.168,0-.192.072-.192.264,0,.384.072,2.04.072,2.4,0,2.016-.024,4.248-.12,6.264,0,.264-.12,1.44-.12,1.68,0,.552.1.648.5.648a1.124,1.124,0,0,0,1.2-1.248c0-.336,0-2.64.024-2.736.1-.384.384-.432.7-.432Zm0-5.64c.672,0,.672.312.672,1.536,0,.576-.5.576-.672.576h-5.52c-.624,0-.624-.432-.624-1.008,0-.7,0-1.1.672-1.1Zm.024,2.736c.672,0,.672.264.672,1.44,0,.456,0,.816-.7.816h-5.5c-.7,0-.7-.36-.7-.768,0-1.056,0-1.488.624-1.488Zm-15.12-8.832c-.072,0-.144.12-.168.36a5.039,5.039,0,0,1-.984,2.736c-.7.816-.816.936-.816,1.344a.8.8,0,0,0,.816.792c1.008,0,1.584-1.464,1.584-3.1C58.2-12.912,58.056-14.448,57.768-14.448Zm3.792-4.8c-.024-.168-.144-.288-.528-.36-.24-.048-1.68-.312-1.776-.312s-.1.1-.1.216c0,.024.024.48.048.72.12,1.944.144,2.28.144,3.864,0,3-.168,9.48-.264,12.96,0,.48-.144,2.808-.144,3.36,0,.408.168.6.432.6s1.272-.264,1.344-.888v-9.12c0-1.176.168-8.616.192-9.648a1.049,1.049,0,0,1,.336-.84A.7.7,0,0,0,61.56-19.248Zm5.856,7.68c-1.368,0-2.616-.048-3.312-.1-.168,0-.888-.072-1.056-.072-.024,0-.072,0-.072.048s0,.048.1.168l.456.552c.1.1.144.144.216.144.1,0,.432-.048.5-.048.84-.072,2.472-.072,3.048-.072h9.1c.816,0,1.3,0,1.3-.312A4.137,4.137,0,0,0,75.96-12.7c-.24,0-.288.072-.768.72-.288.408-.408.408-1.536.408H71.424c-.7,0-.7-.36-.7-1.056,0-.912,0-1.272.7-1.272h3.792c.792,0,1.3,0,1.3-.312,0-.432-1.68-1.392-1.92-1.392-.192,0-.72.768-.864.888-.192.192-.312.192-1.32.192h-.984c-.7,0-.7-.432-.7-.96,0-1.1,0-1.416.72-1.416h3.96c.792,0,1.272,0,1.272-.312,0-.336-1.392-1.368-1.584-1.368s-.672.768-.792.864c-.216.192-.336.192-1.344.192H71.472c-.216,0-.72,0-.72-.6a1.5,1.5,0,0,1,.192-.672,3.123,3.123,0,0,0,.432-.6c0-.264-.264-.336-.408-.36a8.829,8.829,0,0,0-1.752-.288c-.1,0-.1.048-.1.12,0,.12.12.72.12.84,0,1.344,0,1.56-.7,1.56h-.816c-1.368,0-2.616-.048-3.312-.1-.168,0-.888-.072-1.056-.072-.024,0-.072,0-.072.048s0,.048.1.168l.456.552c.1.1.144.144.216.144.1,0,.432-.048.5-.048.84-.072,2.472-.072,3.048-.072h.912c.24,0,.744,0,.744.6,0,1.416,0,1.776-.6,1.776-.456,0-2.952-.072-3.12-.1-.144,0-.744-.072-.864-.072-.024,0-.1,0-.1.048s.024.072.12.168l.456.552c.072.1.12.144.216.144.072,0,.432-.048.5-.048.624-.048,2.28-.072,2.448-.072.624,0,.864.1.864.672,0,1.488,0,1.656-.72,1.656Zm-5.808-3.888c-.168-.048-.264.024-.264.144a.805.805,0,0,0,.1.336,4.539,4.539,0,0,1,.456,1.32c.24,1.56.264,1.728.84,1.728.528,0,.96-.48.96-1.248C63.7-14.376,61.968-15.384,61.608-15.456ZM97.584-9.984c-.408,0-.84,0-.84-.7,0-.264.024-5.928.048-6.384.024-.648.384-.672.888-.672h3.48c.888,0,.936.12.936,1.224,0,1.056,0,2.064-.048,2.472-.072.7-.24.7-1.776.7-.1,0-.336,0-.336.072,0,.1.792.744,1.08,1.056a8.3,8.3,0,0,0,.528.744.476.476,0,0,0,.312.144,2.828,2.828,0,0,0,1.392-.984c.384-.552.384-1.08.384-3.168,0-.888,0-1.488.264-1.68.432-.312.48-.36.48-.552a2.753,2.753,0,0,0-1.68-1.7c-.168,0-.24.072-.84.768-.216.24-.264.264-.552.264H97.44a1.614,1.614,0,0,1-.96-.24,4.472,4.472,0,0,0-1.32-.456c-.072,0-.072.1-.072.168,0,.192.072,1.1.1,1.3.048,1.584.048,7.368.048,9.36,0,2.208-.1,6.312-.192,8.28-.024.264-.024.744-.024.912,0,.552.12.912.576.912a1.155,1.155,0,0,0,1.176-1.1c.024-1.032.12-1.08.936-1.608a23.054,23.054,0,0,0,1.872-1.392c.1-.072.24-.216.36-.216.144,0,.24.12.456.384A11.869,11.869,0,0,0,102.816.288a4.841,4.841,0,0,0,.864-.432,3.687,3.687,0,0,1,1.584-.36c.048,0,.192-.024.192-.144,0-.072-.072-.12-.768-.432a8.144,8.144,0,0,1-3.552-2.736c0-.144.792-1.488.936-1.776a24.968,24.968,0,0,1,1.344-2.664c.1-.072.6-.336.7-.384a.441.441,0,0,0,.192-.336c0-.456-1.44-1.3-1.56-1.3a3.915,3.915,0,0,0-.456.216,1.121,1.121,0,0,1-.408.072Zm3.36.624c.5,0,.816,0,.816.432,0,.672-1.152,4.056-1.584,4.056-.456,0-2.088-2.976-2.088-4.224,0-.168.1-.264.336-.264ZM96.672-5.544c0-1.008,0-2.016.024-3.024,0-.5.12-.792.768-.792.12,0,.216.072.24.264a9.916,9.916,0,0,0,.456,2.76c.144.456,1.176,2.688,1.176,2.856a7.185,7.185,0,0,1-2.352,2.448.239.239,0,0,1-.264-.24V-2.544C96.72-2.976,96.672-5.064,96.672-5.544Zm-3.12-7.416c.816,0,1.3,0,1.3-.336s-1.656-1.536-1.92-1.536c-.24,0-1.008,1.056-1.248,1.152-.144.072-.312.1-1.368.1-.5,0-.672-.1-.672-.624v-1.368c0-.624.288-.624.816-.624h1.968c.792,0,1.272,0,1.272-.336a3.456,3.456,0,0,0-1.68-1.44c-.24,0-.288.072-.816.744a.94.94,0,0,1-.936.384c-.432,0-.624-.144-.624-.6a2.841,2.841,0,0,1,.12-1.032,3.737,3.737,0,0,0,.384-.672c0-.456-2.016-.864-2.136-.864-.072,0-.072.024-.072.1,0,.264.192,2.064.192,2.424,0,.408-.1.648-.6.648-.312,0-2.064-.1-2.256-.1-.12,0-.744-.048-.864-.048-.072,0-.1,0-.1.048,0,.024.024.048.1.144l.48.552c.072.12.12.168.216.168.048,0,.288-.048.336-.048.528-.072,1.68-.072,2.112-.072.5,0,.6.24.6.672v1.3c0,.648-.144.648-1.272.648-.456,0-2.3-.072-2.664-.1-.168,0-.936-.072-1.1-.072-.048,0-.072,0-.072.048s0,.048.1.168l.456.552c.1.1.144.144.216.144s.432-.048.5-.048c.84-.072,2.5-.072,3.048-.072ZM87.744-9.552a2.379,2.379,0,0,0-1.1-2.16,3.98,3.98,0,0,0-1.008-.624c-.072,0-.12.024-.12.072a2.325,2.325,0,0,0,.072.264,7.516,7.516,0,0,1,.528,2.04c.12,1.08.144,1.416.72,1.416S87.744-9.216,87.744-9.552ZM83.952-7.536c.072.12.12.168.216.168.072,0,.432-.048.5-.048.432-.048,1.584-.072,2.04-.072,1.08,0,1.32,0,1.32.624,0,2.208,0,2.3-.624,2.3-.48,0-2.76-.168-3.288-.168-.048,0-.072,0-.072.048s.048.1.1.168l.456.552c.1.1.144.144.216.144s.408-.048.48-.048c.552-.048,1.368-.072,1.92-.072.408,0,.768.1.768.72,0,.528-.144,3.84-.144,4.344,0,.312.048.648.5.648A1.34,1.34,0,0,0,89.664.312c0-.48-.072-2.976-.072-3.528,0-.72.456-.72.888-.72h2.544c.768,0,1.3,0,1.3-.312,0-.216-1.248-1.608-1.7-1.608-.192,0-.264.072-.792.888-.264.408-.48.408-1.344.408-.576,0-.816,0-.888-.408V-6.816c0-.6.216-.672.72-.672h2.952c1.152,0,1.272,0,1.272-.312,0-.36-1.32-1.488-1.68-1.488-.192,0-.24.072-.744.768-.288.408-.408.408-1.584.408a.226.226,0,0,1-.24-.24,6.866,6.866,0,0,1,1.824-2.64c.36-.288.432-.336.432-.5,0-.624-1.728-1.224-1.8-1.224-.1,0-.144.024-.168.168-.048.288-.144,1.68-.192,1.992C90-8.112,89.808-8.112,89.112-8.112H87.264c-.648,0-2.016-.072-2.712-.1-.144,0-.912-.072-1.08-.072-.048,0-.1,0-.1.048,0,.024.024.048.12.168Z" transform="translate(-0.84 20.088)" fill="#fff"/>
</svg>
