<svg xmlns="http://www.w3.org/2000/svg" width="140.252" height="120.488" viewBox="0 0 140.252 120.488">
  <path id="パス_130456" data-name="パス 130456" d="M12.572-8.75c.462,0,.742,0,.742-.182s-1.218-.938-1.3-.938c-.168,0-.644.644-.784.7a1.932,1.932,0,0,1-.672.056H7.826c-.42,0-.42-.168-.42-.91a2.651,2.651,0,0,1,.084-.658c.028-.084.35-.35.35-.434,0-.224-.322-.294-.406-.308-.2-.042-.938-.2-1.078-.2-.07,0-.1,0-.1.084s.056.406.056.476c.014.2.056.8.056,1.5,0,.2,0,.448-.406.448H3.486c-.8,0-1.526-.042-1.932-.056-.1,0-.518-.042-.6-.042-.028,0-.056,0-.056.028s0,.028.056.1l.28.322c.042.056.07.084.112.084s.266-.028.308-.028C2.128-8.75,3.08-8.75,3.416-8.75H4.1c.266,0,.266.042.308.322A13.116,13.116,0,0,0,5.894-3.962c.462.84.518.938.518,1.064,0,.462-1.918,2.352-4.732,3.416A5.077,5.077,0,0,0,.812.826C.812.868.868.9.966.9A9.578,9.578,0,0,0,6.51-1.526c.532-.448.588-.49.686-.49s.1,0,1.078.8A10.44,10.44,0,0,0,11.536.728c.112,0,.49-.378.574-.434A3.6,3.6,0,0,1,13.1-.112c.35-.084.392-.1.392-.2,0-.056-.084-.056-.126-.056A8.151,8.151,0,0,1,10.3-1.2C8.806-1.918,7.938-2.66,7.938-3a3.037,3.037,0,0,1,.336-.714A23.422,23.422,0,0,0,9.73-7.238a1.394,1.394,0,0,1,.294-.5c.154-.112.224-.154.224-.224,0-.21-1.33-.686-1.372-.686-.112,0-.112.112-.112.182,0,1.442-1.218,4.718-1.68,4.718-.028,0-.77-.182-1.806-3.066-.266-.756-.532-1.75-.532-1.792,0-.112.1-.14.182-.14Zm9.506,5.67c.406,0,.42.112.42.9,0,.28-.014.5-.378.5H19.18c-.8,0-1.526-.028-1.932-.042-.1,0-.518-.042-.616-.042-.014,0-.042,0-.042.028s0,.014.056.084l.266.322c.056.07.084.1.126.1s.252-.028.294-.028c.49-.042,1.442-.042,1.778-.042h2.968c.378,0,.42.168.42.434,0,.238-.056,1.442-.056,1.456,0,.21,0,.462.49.462.658,0,.658-.574.658-.882,0-.2-.042-1.05-.014-1.218.042-.21.21-.252.392-.252h4.564c.406,0,.756,0,.756-.168a4.426,4.426,0,0,0-1.232-1.064c-.182,0-.644.756-.784.812a2.74,2.74,0,0,1-.686.042H23.954c-.406,0-.406-.238-.406-.448,0-.77,0-.952.434-.952h1.33c.294,0,.35.07.364.21s.028.35.35.35a.81.81,0,0,0,.756-.672c0-.238-.056-1.26-.056-1.47a4.075,4.075,0,0,1,.1-1.12c.028-.056.266-.266.266-.322,0-.168-.77-.7-.9-.7s-.462.392-.546.42a1.934,1.934,0,0,1-.49.042H20.482a1.618,1.618,0,0,1-.56-.084,4.465,4.465,0,0,0-.672-.266c-.126,0-.154.084-.154.168,0,.042.07.714.07.812.014.322.028.644.028.966s-.07,1.736-.07,2.03c0,.364.07.476.42.476a.669.669,0,0,0,.686-.56c.056-.224.112-.28.42-.28ZM20.622-4.886c-.42,0-.42-.182-.42-.644,0-.28.042-.448.42-.448h4.69c.434,0,.434.224.434.546s0,.546-.434.546Zm4.662.378c.434,0,.434.21.434.476,0,.406,0,.588-.434.588H20.65c-.434,0-.434-.2-.434-.532s0-.532.434-.532Zm-1.442-5.754c-.28,0-.294-.14-.294-.35a1.035,1.035,0,0,1,.042-.252c.028-.07.294-.336.294-.42,0-.14-.35-.224-.462-.238-.084-.014-.826-.154-.84-.154s-.126,0-.126.084c0,.112.056.686.056.826,0,.364,0,.5-.28.5h-1.9c-.644,0-1.232-.028-1.918-.056-.084,0-.518-.042-.616-.042-.028,0-.042,0-.042.028s0,.028.056.1l.266.322c.056.056.084.084.126.084s.252-.028.294-.028c.14-.014.546-.042,1.778-.042h7.322c.28,0,.532,0,.532-.168,0-.21-1.092-1.05-1.232-1.05s-.5.6-.6.7c-.14.154-.252.154-.714.154ZM21.91-7.672c-.2,0-.266,0-.266-.084,0-.028.014-.042.056-.112a.645.645,0,0,0,.112-.35c0-.98-1.68-1.6-1.932-1.6a.064.064,0,0,0-.07.056c0,.028.378.518.448.616a9.179,9.179,0,0,1,.5,1.358c0,.112-.07.112-.21.112H19.488c-.658,0-1.232-.014-1.918-.042-.084-.014-.518-.056-.616-.056-.028,0-.056.014-.056.042s.014.028.07.084l.266.322c.042.056.07.1.126.1a2.124,2.124,0,0,0,.294-.042c.14,0,.546-.028,1.764-.028h8.96c.462,0,.728,0,.728-.168a3.761,3.761,0,0,0-1.218-1.064c-.112,0-.154.07-.574.616-.168.238-.238.238-.882.238H25.046c-.042,0-.2,0-.2-.1a6.381,6.381,0,0,1,.924-1.092c.07-.056.49-.336.49-.448,0-.168-1.106-.476-1.2-.476-.154,0-.154.084-.154.252a8.283,8.283,0,0,1-.532,1.484c-.168.336-.266.378-.546.378ZM41.93-2.128c.252-.126.98.462,1.386.952.336.42.378.476.546.476a.55.55,0,0,0,.5-.56c0-.826-1.47-1.484-2.156-1.778-.35-.154-.392-.252-.448-.77-.042-.378-.14-1.96-.14-2.268,0-.6,0-.616.518-.84S43.6-7.546,43.6-8.2c0-.588-.462-.6-1.078-.63-.084,0-.812-.028-.812-.448a.607.607,0,0,1,.084-.294c.14-.224.154-.252.154-.35,0-.532-.938-.728-1.218-.728s-.476.154-.476.238.378.406.434.476c.266.322.266.714.266,1.6,0,.924,0,.924-.77.924a4.19,4.19,0,0,1-1.568-.28,2.435,2.435,0,0,0-.378-.2c-.056,0-.07.056-.07.1a1.988,1.988,0,0,0,2.072,1.246,4.643,4.643,0,0,1,.644.028.465.465,0,0,1,.112.336c.014.392.056,1.876.056,1.96,0,.868,0,.966-.35.966-2.87.042-2.87,1.526-2.87,1.722a1.586,1.586,0,0,0,1.75,1.4,2.309,2.309,0,0,0,2.086-1.33C41.706-1.568,41.832-2.086,41.93-2.128Zm-.2-6.482a.3.3,0,0,1,.168-.056c.2,0,.658.182.658.434,0,.322-.532.49-.728.49-.1,0-.21,0-.21-.532A.424.424,0,0,1,41.734-8.61ZM39.9-2.534c.9,0,1.092.112,1.092.35,0,.476-.854,1.148-1.68,1.148-.49,0-.924-.238-.924-.616C38.388-2.058,39.1-2.534,39.9-2.534Zm-3.99.518c0-.406.392-2.422.392-2.87,0-.028,0-.126-.056-.126a7.053,7.053,0,0,0-.574,1.4c-.252.77-.266.826-.392.826-.336,0-.336-.9-.336-.98a9.354,9.354,0,0,1,.5-2.814c.112-.35.728-2.072.728-2.184,0-.252-.7-1.652-1.484-1.652-.084,0-.252.028-.252.112a2.812,2.812,0,0,0,.266.49,1.982,1.982,0,0,1,.322,1.162,9.431,9.431,0,0,1-.42,2.226,10.693,10.693,0,0,0-.364,2.744c0,2.17.7,3.57,1.4,3.57.322,0,.462-.266.462-.574C36.106-.882,35.91-1.806,35.91-2.016ZM49.784.084c-.028.126.1.126.126.126a12.085,12.085,0,0,0,5.166-3.374c.28-.294.364-.392.49-.392s.294.266.322.322c.532.9.588.994.882.994a.6.6,0,0,0,.6-.672,1.954,1.954,0,0,0-.588-1.232c-.252-.322-.266-.35-.266-.476a17.106,17.106,0,0,1,1.3-2c.448-.714.49-.784.714-.882s.35-.168.35-.392c0-.126-.056-.2-.616-.8-.126-.14-.364-.406-.63-.406-.1,0-.154.014-.392.21a5.48,5.48,0,0,1-1.988.378c-.182,0-.476-.028-.476-.238,0-.084.154-.462.154-.546a1.249,1.249,0,0,0-1.26-.826c-.084,0-.266,0-.266.084s.224.546.224.658c0,.8-1.148,2.772-2.814,4.578a4.594,4.594,0,0,0-.5.6.065.065,0,0,0,.07.07c.462,0,2.156-1.834,2.478-1.834.35,0,2.016,1.064,2.016,1.5S52.962-1.75,50.092-.126C49.826.028,49.8.028,49.784.084ZM55.51-5.194a.79.79,0,0,1-.322-.1,15.616,15.616,0,0,0-1.54-.714c-.35-.14-.476-.182-.476-.378a12.385,12.385,0,0,1,1.19-1.568.22.22,0,0,1,.168-.056.8.8,0,0,1,.336.056,1.517,1.517,0,0,0,.42.056c.252,0,1.484-.182,1.694-.182.1,0,.238.042.238.2A7.045,7.045,0,0,1,55.51-5.194Zm3.934-6.244c-.252,0-.518.084-.518.182,0,.028.042.084.182.14a3.407,3.407,0,0,1,1.218.8c.266.322.434.518.728.518.252,0,.35-.266.35-.406C61.4-10.794,60.648-11.438,59.444-11.438Zm-1.106,1.176c-.084,0-.252.028-.252.1s.126.182.182.224a3.833,3.833,0,0,1,.882.952c.336.532.476.686.7.686.252,0,.434-.336.434-.518C60.284-9.576,59.122-10.262,58.338-10.262Zm10.556.2c0,.1.014.1.322.224a8.769,8.769,0,0,1,2.66,1.274,3.161,3.161,0,0,0,1.036.6.463.463,0,0,0,.42-.49c0-1.372-2.562-1.708-3.864-1.708C69.118-10.164,68.894-10.122,68.894-10.066Zm.14,3.038c-.812-.014-.9-.014-.9.112,0,.084.084.112.168.14a6.731,6.731,0,0,1,2.03.924c.924.7,1.036.784,1.344.784a.559.559,0,0,0,.49-.546C72.17-6.79,69.72-7.028,69.034-7.028ZM73.71-.812c0-1.68-4.256-2.828-5.572-2.828-.056,0-.252,0-.252.126,0,.07.028.084.35.2A9.531,9.531,0,0,1,71.89-1.036c.742.826.826.91,1.162.91A.658.658,0,0,0,73.71-.812Zm9.912-4.83a7.624,7.624,0,0,1-1.708-.126c-.07-.014-.406-.168-.476-.168s-.112.084-.112.168c0,.476.644,1.344,1.246,1.344.168,0,.924-.224,1.092-.252.336-.07,3.542-.252,5.474-.252.28,0,1.68.028,2,.028.588,0,1.162-.042,1.162-.434,0-.1-.126-.616-.98-.616-.07,0-.224.014-.308.014C88.97-5.824,84.084-5.642,83.622-5.642Zm14-2.646c-.182.2.49,1.134,1.19,1.134a1.069,1.069,0,0,0,.476-.182,17.808,17.808,0,0,1,4.172-1.5c.028,0,.084,0,.084.028a2.738,2.738,0,0,1-.35.294c-2.016,1.806-2.03,4.774-2.03,5.39a2.632,2.632,0,0,0,2.856,3c.084,0,1.624,0,1.624-.742,0-.336-.252-.518-.686-.518-.126,0-1.12.084-1.33.084-.826,0-1.708-.154-1.708-2.506,0-3.612,1.988-5.25,3.766-5.25.154,0,.952.154,1.134.154a.559.559,0,0,0,.574-.518c0-.476-.63-.672-1.134-.672a37.964,37.964,0,0,0-5.376,1.26,9.046,9.046,0,0,1-2.716.6C98.084-8.232,97.678-8.358,97.622-8.288Zm9.646.938a1.292,1.292,0,0,0-.35-.07c-.042,0-.2,0-.2.084s.056.126.126.182a3.627,3.627,0,0,1,.924,1.12c.14.336.294.742.63.742.182,0,.406-.154.406-.518C108.808-6.482,108.094-7.084,107.268-7.35Zm-1.806.574c-.126-.028-.28-.014-.28.056a.759.759,0,0,0,.14.252,3.664,3.664,0,0,1,.7,1.092c.224.546.35.812.6.812a.568.568,0,0,0,.49-.574A2.024,2.024,0,0,0,105.462-6.776Zm7.728-1.176c-.042.014-.07.084-.07.14,0,.574,1.162,1.162,1.47,1.162a13.013,13.013,0,0,0,1.5-.56,17.34,17.34,0,0,1,2.478-.56c.28,0,.28.084.28.84,0,.714,0,.8-.392.854-1.358.21-1.358,1.75-1.358,1.932,0,1.12.672,1.834,1.428,1.834.042,0,.252-.028.294-.028.14,0,.14.154.14.2a4.554,4.554,0,0,1-.784,2.058c-.1.14-.672.812-.672.84s.042.056.07.056c.434,0,2.548-1.736,2.548-4.452a4.438,4.438,0,0,0-.406-1.89,1.828,1.828,0,0,1-.182-.91c0-1.232.028-1.428.224-1.512a6.531,6.531,0,0,1,1.512-.14c.266,0,1.568.126,1.862.126.49,0,.756-.126.756-.49,0-.49-.616-.546-.8-.546-.112,0-.7.07-.84.07a3.076,3.076,0,0,1-1.232-.28c-.826-.35-1.232-.56-1.232-.882,0-.07.056-.364.056-.434,0-.448-.546-.7-1.162-.7-.084,0-.294,0-.294.1,0,.07.224.322.238.392a8.362,8.362,0,0,1,.2,1.9c0,.364-.084.378-.812.5a28.3,28.3,0,0,1-3.808.476C114-7.854,113.33-7.938,113.19-7.952ZM119.8-9.59a3.035,3.035,0,0,1,1.064.742c0,.21-.91.238-.966.238-.2,0-.252-.042-.252-.266C119.644-9.24,119.7-9.562,119.8-9.59Zm-.952,4.424a2.722,2.722,0,0,1,.182.98c0,.224-.014,1.064-.56,1.064a1.015,1.015,0,0,1-.91-1.12c0-.714.448-1.288.8-1.288A.592.592,0,0,1,118.846-5.166ZM130.1-2.3a1.545,1.545,0,0,0-1.554,1.54,1.549,1.549,0,0,0,1.54,1.568,1.561,1.561,0,0,0,1.568-1.554A1.559,1.559,0,0,0,130.1-2.3Zm-.014.392a1.174,1.174,0,0,1,1.19,1.176A1.156,1.156,0,0,1,130.116.42,1.174,1.174,0,0,1,128.94-.756,1.133,1.133,0,0,1,130.088-1.9ZM7.476,16.164a2.11,2.11,0,0,1-.644-.07,6.586,6.586,0,0,0-.8-.35c-.042,0-.042.056-.042.1,0,.154.056.77.056.9.056.938.056,2.03.056,3.752,0,1.274-.014,1.554-.042,2,0,.042-.042.588-.042.616,0,.364.168.434.35.434a.6.6,0,0,0,.574-.392c.07-.224.084-.322.294-.322H8.96c.14,0,.336,0,.378.308.042.252.042,1.96.042,2.352,0,.224-.028,1.218,0,1.414.084.714.756.84,2.058.84,1.12,0,1.442-.154,1.666-.35a.82.82,0,0,0,.322-.476c0-.126-.406-.616-.448-.742a4.386,4.386,0,0,1-.168-.98c-.014-.168-.028-.224-.084-.224-.084,0-.1.07-.168.448-.224,1.274-.252,1.456-1.134,1.456-.322,0-.91-.028-1.064-.294a6.753,6.753,0,0,1-.1-1.5c0-.336,0-1.848.042-2.03s.252-.224.392-.224c.28,0,.49,0,.546.238.042.182.07.336.336.336.658,0,.658-.56.658-.77,0-.742-.084-4.074-.084-4.746,0-.14.014-.854.042-.938s.42-.364.42-.448c0-.2-.952-.84-1.05-.84s-.35.322-.42.364a.824.824,0,0,1-.532.14Zm3.332,2.45c.448,0,.448.168.448.7,0,.84,0,.952-.448.952H7.42c-.434,0-.434-.154-.434-.742,0-.784,0-.91.434-.91ZM7.42,18.236c-.434,0-.434-.126-.434-.784,0-.812,0-.91.434-.91h3.388c.434,0,.434.126.434.77,0,.826,0,.924-.434.924Zm.028,4.228C7,22.464,7,22.436,7,21.12c0-.266,0-.476.434-.476h3.374c.434,0,.434.2.434.532,0,1.232-.028,1.288-.462,1.288Zm-6.3-1.778c.056.056.07.084.112.084s.224-.028.28-.028c.294-.028.882-.028.938-.028.364,0,.364.294.364.462,0,.266,0,2.7-.042,2.8-.1.21-1.442.28-1.694.28-.056,0-.294-.028-.35-.028-.084,0-.112.056-.112.126,0,.154.532,1.274.714,1.274.1,0,.2-.084.308-.21.2-.252.28-.28,1.064-.588,2.45-.938,2.982-1.148,2.982-1.274,0-.056-.056-.056-.1-.056-.14,0-1.4.336-1.666.336a.137.137,0,0,1-.154-.112c-.028-.112-.028-2.184-.028-2.436,0-.378,0-.588.448-.588h.714c.266,0,.658,0,.658-.126a2.4,2.4,0,0,0-.868-.924c-.1,0-.168.084-.434.448-.14.21-.238.21-.308.21-.21,0-.21-.07-.21-.756,0-.476,0-2.058.042-2.156.07-.182.28-.182.406-.182h.91c.42,0,.672,0,.672-.2,0-.168-1.092-.924-1.176-.924-.126,0-.238.14-.35.294-.28.378-.322.42-.434.434a6.547,6.547,0,0,1-1.092.028c-.224,0-1.3-.042-1.484-.056-.07,0-.392-.042-.462-.042-.028,0-.042.014-.042.028s.014.056.056.1l.238.322c.042.056.07.084.112.084a.819.819,0,0,0,.182-.028c.238-.014.826-.042,1.078-.042.2,0,.392.042.406.364.014.28.014,1.89.014,2.282,0,.21,0,.462-.42.462-.21,0-1.288-.084-1.526-.084-.028,0-.042.014-.042.028s0,.028.056.1Zm6.4,2.268c-.07-.028-.21-.042-.21.084,0,.042.056.266.056.322a4.727,4.727,0,0,1-.77,2.184,6.564,6.564,0,0,1-3.4,2.212c-.182.042-.308.056-.308.126s.07.112.182.112a7.408,7.408,0,0,0,2.548-.742,4.513,4.513,0,0,0,2.478-2.73c.28-.826.294-.84.462-.9.1-.028.182-.056.182-.154C8.764,23.3,7.728,23,7.546,22.954ZM24.654,19.44c-.1,0-.28.014-.35-.1a24.364,24.364,0,0,1-.2-2.772.506.506,0,0,1,.056-.294,1.99,1.99,0,0,0,.294-.462c0-.35-1.442-.518-1.47-.518s-.112,0-.112.056c0,.084.14.476.154.56.07.42.322,3.4.322,3.416,0,.21-.042.21-.35.252l-.42.056h-.14c-.084,0-1.5.084-1.792.084-.1,0-.56-.028-.6-.028s-.056.014-.056.042.014.028.07.084l.28.322c.056.056.07.084.126.084s.588-.084.7-.1c.2-.028,1.148-.1,1.358-.126l.5-.056c.364-.042.406.2.434.476.658,5.334,3.094,7.616,4.872,7.616.21,0,.574-.07.574-.364a.871.871,0,0,0-.14-.392,1.239,1.239,0,0,1-.2-.658c0-.21.2-1.316.2-1.358s-.028-.1-.07-.1-.182.252-.224.322c-.252.476-.588,1.064-.882,1.064a1.118,1.118,0,0,1-.364-.126c-.5-.238-1.61-1.092-2.366-3.654a14.929,14.929,0,0,1-.518-2.646c0-.294.126-.308.364-.322l3.85-.238c.672-.042.742-.056.742-.224s-1.246-.882-1.33-.882c-.14,0-.182.056-.56.532-.168.224-.238.224-.882.28Zm-6.16,1.232c.07.014.084.182.084.238,0,1.666-.014,3.192-.07,4.858,0,.238-.084,1.33-.084,1.54,0,.28,0,.728.448.728.112,0,.658-.1.658-.616,0-.966-.07-5.264-.07-6.132a5.647,5.647,0,0,1,.056-1.092c.014-.07.168-.35.168-.42s-.028-.084-.224-.2c-.042-.028-.126-.084-.126-.154a3.631,3.631,0,0,1,.336-.616c.406-.686.784-1.372,1.148-2.072a.887.887,0,0,1,.392-.448c.126-.07.2-.112.2-.2,0-.21-1.26-.826-1.33-.826-.112,0-.14.14-.168.42a29.006,29.006,0,0,1-2.968,6.384c-.154.252-.168.28-.168.336s.014.112.1.112C17.178,22.52,18.368,20.644,18.494,20.672Zm7.308-4.34c-.28,0-.406.014-.406.112,0,.056.1.126.168.182a2.417,2.417,0,0,1,.56.686c.35.574.476.8.812.8a.533.533,0,0,0,.49-.56,1.232,1.232,0,0,0-.728-.994A2.625,2.625,0,0,0,25.8,16.332ZM35.2,22.968a10.915,10.915,0,0,1,1.078-3.612c.266-.476.266-.49.266-.644,0-.5-.588-1.778-1.232-1.778-.056,0-.112.028-.112.07a1.773,1.773,0,0,0,.084.252,3.429,3.429,0,0,1,.14.994,4.754,4.754,0,0,1-.238,1.456,10.063,10.063,0,0,0-.588,3.052c0,1.344.644,3.724,1.512,3.724a.469.469,0,0,0,.462-.476,1.51,1.51,0,0,0-.168-.616,2.5,2.5,0,0,1-.224-.728c0-.336.322-1.974.322-2.128,0-.028,0-.168-.07-.168s-.112.112-.2.35c-.308.868-.434,1.092-.672,1.092S35.2,23.388,35.2,22.968Zm7.252-5.18c-.14-.014-.182,0-.6.154a5.655,5.655,0,0,1-1.54.21,4.784,4.784,0,0,1-.952-.084c-.182-.042-.35-.1-.392-.1-.084,0-.1.042-.1.07a2.746,2.746,0,0,0,2.45,1.036c.168,0,1.722,0,1.722-.686A.7.7,0,0,0,42.448,17.788Zm.6,6.944c-.056,0-1.036.1-1.232.112a11.668,11.668,0,0,1-1.218.042,3.446,3.446,0,0,1-1.5-.238,2.088,2.088,0,0,0-.336-.2c-.07,0-.07.112-.07.14,0,.266.364.63.434.7a2.859,2.859,0,0,0,2.184.63c1.96,0,2.38-.168,2.38-.714C43.694,25.04,43.582,24.732,43.05,24.732Zm15.974-5.544a1.791,1.791,0,0,0-1.512.882c0,.042.014.056.056.056a.313.313,0,0,0,.14-.042,1.216,1.216,0,0,1,.546-.14c.476,0,1.176.2,1.176.756a.737.737,0,0,1-.056.252.965.965,0,0,0-.042.112.065.065,0,0,0,.07.07c.056,0,.35-.084.42-.1s.392.028.476.028c.294,0,.462-.378.462-.672C60.76,19.748,60.1,19.188,59.024,19.188Zm-5.138-.406c-.028.014-.056.042-.056.056s.07.168.07.2c0,.2-.392.35-.49.35s-.112-.1-.112-.154a7.479,7.479,0,0,1,.14-.91,5.643,5.643,0,0,0,.294-.728,1.4,1.4,0,0,0-1.442-.952c-.084,0-.308.028-.308.154a1.4,1.4,0,0,0,.2.224,1.375,1.375,0,0,1,.462,1.12,10.469,10.469,0,0,1-.14,1.526,6.115,6.115,0,0,1-1.778.42,4.068,4.068,0,0,1-.644-.07c-.042,0-.21-.056-.252-.056a.1.1,0,0,0-.112.1c0,.1.532,1.064,1.008,1.064a3,3,0,0,0,.994-.266,3.274,3.274,0,0,1,.644-.126c.154,0,.2.21.2.308.014.238.028,1.428.028,1.75,0,.392-.084.434-.8.784a2.993,2.993,0,0,1-1.456.476c-.084,0-.49-.07-.574-.07-.252,0-.406.294-.406.546,0,.462.714.882.868.882a2.766,2.766,0,0,0,.532-.28,1.167,1.167,0,0,1,.35-.084c.182,0,.252,0,.7.868.112.224.266.518.644.518.5,0,.714-.924.714-1.568,0-.14-.042-.77-.042-.924,0-.238.084-.28.868-.7a7.151,7.151,0,0,1,2.9-1.05,1.45,1.45,0,0,1,1.344,1.54c0,1.12-1.176,1.736-2.1,1.736-.14,0-.91,0-.91-.672a.579.579,0,0,1,.126-.378c.028-.042.056-.07.056-.112a.075.075,0,0,0-.07-.07,1.248,1.248,0,0,0-.7,1.106c0,.728.644,1.134,1.442,1.134,1.148,0,3.094-.84,3.094-2.688a2.144,2.144,0,0,0-2.156-2.114,6.579,6.579,0,0,0-2.38.56c-.224.084-1.372.56-1.414.56-.126,0-.126-.168-.126-.252s0-1.2.028-1.512c.028-.49.042-.546.238-.616.336-.14,1.4-.56,1.4-1.022C54.754,18.95,54.082,18.754,53.886,18.782ZM52.5,24.1c.042.028.042.168.042.224,0,.686-.2,1.078-.392,1.078s-.588-.448-.588-.658S52.458,24.1,52.5,24.1ZM74.41,20.07c.042-.07.126-.112.56-.322.322-.154.8-.434.8-.854,0-.35-.658-.448-.756-.448-.14,0-.14.014-.28.21a.583.583,0,0,1-.364.224c-.112,0-.14-.112-.14-.35a4.4,4.4,0,0,1,.042-.728c.014-.1.224-.518.224-.63,0-.28-.826-.658-1.218-.658-.2,0-.364.084-.364.154a1.7,1.7,0,0,0,.2.28,6.5,6.5,0,0,1,.238,1.666c0,.476-.056.532-.126.588a4.1,4.1,0,0,1-1.638.252,6.253,6.253,0,0,1-.882-.084c-.1-.014-.238-.084-.322-.084-.028,0-.042.028-.042.056,0,.294.616.966,1.988.966.112,0,.728-.042.868-.042.224,0,.252.084.252.56,0,2.674-.1,4.032-1.316,5.614-.112.154-.8.9-.8.938s.042.042.07.042a4.366,4.366,0,0,0,2.1-1.764c.756-1.162.868-2.31.868-5.208A1.249,1.249,0,0,1,74.41,20.07ZM67,16.864c-.112,0-.112.07-.112.112a1.2,1.2,0,0,0,.084.28,3.012,3.012,0,0,1,.14.952,8.944,8.944,0,0,1-.168,1.512,18.842,18.842,0,0,0-.35,3.164,7.2,7.2,0,0,0,.378,2.352c.238.77.6,1.568,1.134,1.568a.447.447,0,0,0,.476-.434,1.668,1.668,0,0,0-.168-.56,1.228,1.228,0,0,1-.168-.63,11.85,11.85,0,0,1,.266-1.834c.056-.252.336-1.47.336-1.582,0-.042-.014-.1-.056-.1-.238,0-.952,2.506-1.246,2.506-.168,0-.322-.8-.322-1.428a9.483,9.483,0,0,1,.462-2.632,10.7,10.7,0,0,0,.5-1.47C68.194,17.8,67.382,16.864,67,16.864Zm21.21,8.918c-.2,0-.28-.126-.476-.378a2.067,2.067,0,0,0-1.6-.9,1.348,1.348,0,0,0-1.386,1.134c0,.7.994,1.442,2.38,1.442a3.312,3.312,0,0,0,3.5-3.024,3.022,3.022,0,0,0-3.15-2.912,3.387,3.387,0,0,0-1.232.224c-.084.028-.266.1-.35.126-.042,0-.084-.056-.084-.1a8.537,8.537,0,0,1,2.24-2.87c.672-.462.994-.686.994-1.092,0-.616-.91-.966-1.47-.966-.308,0-.406.042-1.274.42a6.788,6.788,0,0,1-2.17.5c-.294,0-.336,0-.336.042,0,.07.434.966,1.092.966.238,0,.434-.042.994-.5.238-.2,1.064-.9,1.582-.9.168,0,.266.1.266.2,0,.154-.2.448-.658,1.106a46.111,46.111,0,0,1-3.164,4.214c-.994,1.162-1.106,1.47-1.106,1.82a.386.386,0,0,0,.406.392c.378,0,.518-.266.8-.742.252-.434,1.442-2.352,3.29-2.352a2.216,2.216,0,0,1,2.366,2.128A2.071,2.071,0,0,1,88.214,25.782Zm-1.288.14a.232.232,0,0,1-.238.252c-.6,0-1.2-.294-1.2-.658a.572.572,0,0,1,.588-.49A.952.952,0,0,1,86.926,25.922ZM7.266,43.57c.042-.056.112-.07.224-.084s.238-.07.238-.224c0-.252-.28-.336-.952-.518-.126-.028-.728-.224-.812-.224a.12.12,0,0,0-.112.112,1.982,1.982,0,0,0,.056.28,3.84,3.84,0,0,1,.056.854,17.6,17.6,0,0,1-1.6,7.2,10.383,10.383,0,0,1-3.318,3.6c-.112.07-.182.126-.182.168s.042.07.084.07a7.738,7.738,0,0,0,4.074-3.332,16.141,16.141,0,0,0,1.792-5.992c.056-.5.056-.56.14-.56.056,0,.056.014.07.168A15.122,15.122,0,0,0,8.372,50.5a9.018,9.018,0,0,0,3.192,4.074c.042,0,.084-.042.35-.238a2.787,2.787,0,0,1,.966-.42c.448-.1.49-.1.49-.168s-.1-.084-.14-.1c-2.156-.56-3.738-3.122-3.976-3.5a15.226,15.226,0,0,1-2.03-6.412A.269.269,0,0,1,7.266,43.57Zm12.768,8.344c0,2.2,2.03,2.2,2.674,2.2.742,0,3.6-.07,3.6-.784,0-.35-.448-.672-.924-.672a3.809,3.809,0,0,0-1.05.21,6.262,6.262,0,0,1-1.68.252c-1.134,0-1.946-.35-1.946-1.3,0-.91.476-1.932,3.808-3.276.5-.2,1.078-.42,1.078-.84a.538.538,0,0,0-.532-.518,4.324,4.324,0,0,0-1.442.658c-.756.476-.84.532-1.036.532-.364,0-.364-1.134-.364-1.666a13.178,13.178,0,0,1,.126-1.848c.028-.14.2-.77.2-.9,0-.406-.714-1.05-1.512-1.05-.042,0-.378.014-.378.07s.042.084.336.392a1.308,1.308,0,0,1,.42,1.134c0,.364-.07,1.988-.07,2.31a4.5,4.5,0,0,0,.238,1.638,3.559,3.559,0,0,1,.126.434c0,.182-.182.364-.6.756A3.174,3.174,0,0,0,20.034,51.914ZM36.526,44.7c.322,0,.406.07.406.28,0,.994-1.666,3.136-3.64,3.976-.042.028-.21.1-.21.126,0,.056.056.056.07.056a4.442,4.442,0,0,0,1.358-.42,6.187,6.187,0,0,0,2.548-1.876c.154-.182.8-1.106.91-1.162.308-.14.42-.2.42-.336,0-.07,0-.112-.308-.308-.126-.07-.35-.21-.35-.252,0-.084.1-.084.322-.084h1.316a.339.339,0,0,1,.364.336c.028.462.028,1.582.028,2.1,0,1.274.308,1.274,2.464,1.274a7.628,7.628,0,0,0,2.016-.14c.462-.126.84-.5.84-.8,0-.1-.014-.112-.21-.266-.238-.182-.238-.406-.238-.686.014-.364.014-.42-.07-.42a4.413,4.413,0,0,0-.49.8c-.378.588-.518.588-1.876.588-1.218,0-1.428-.042-1.526-.406a14.605,14.605,0,0,1-.1-1.946c0-.14,0-.434.364-.434h1.806c.168,0,.266,0,.266.1a6.278,6.278,0,0,1-.448.826c0,.028.014.07.056.07a6.087,6.087,0,0,0,.546-.322,1.706,1.706,0,0,1,.826-.294c1.162-.028,1.274-.014,1.274-.294,0-.07,0-.182-.35-.42a10.527,10.527,0,0,0-1.246-.77c-.084,0-.168.168-.252.336a.543.543,0,0,1-.574.406H39.8c-.35,0-.35-.28-.35-.406a2.432,2.432,0,0,1,.112-.854c.028-.07.294-.35.294-.42,0-.224-1.12-.434-1.4-.434-.168,0-.182.084-.182.112a2.115,2.115,0,0,0,.126.252,4.161,4.161,0,0,1,.07.812c0,.672,0,.938-.378.938H34.832a.479.479,0,0,1-.5-.252c-.21-.308-.406-.6-.49-.6s-.084.182-.084.238A3.522,3.522,0,0,1,33.474,45a5.429,5.429,0,0,0-.5.924c0,.182.182.364.5.364.532,0,.924-.532,1.036-1.106.1-.462.126-.476.448-.476Zm-.168,5.264c-.742,0-1.316-.014-1.918-.042-.1,0-.518-.056-.616-.056-.042,0-.056.014-.056.042s0,.028.056.084l.28.336c.014.014.084.084.112.084s.252-.042.308-.042c.49-.028,1.414-.042,1.764-.042h1.9c.364,0,.364.28.364.686,0,.35-.028,2.058-.042,2.45,0,.14,0,.448-.364.448H35.014c-.518,0-1.61-.028-2.03-.056-.07,0-.434-.042-.5-.042-.042,0-.056.014-.056.042s.014.028.056.084l.28.322c.042.056.07.084.126.084s.238-.028.294-.028c.49-.042,1.428-.042,1.862-.042h9.926c.21,0,.35-.014.35-.168a3.96,3.96,0,0,0-1.274-1.232c-.126,0-.168.056-.532.616-.168.28-.266.42-.574.42H39.914c-.014,0-.322,0-.35-.28-.014-.14-.014-2.2-.014-2.436,0-.574,0-.868.364-.868h3.892c.238,0,.364-.056.364-.2,0-.21-1.092-.994-1.3-.994-.112,0-.21.028-.574.476-.294.35-.462.35-.6.35Zm14.308-6.762c-.2,0-.238-.014-.6-.21a2.084,2.084,0,0,0-.658-.252c-.056,0-.056.084-.056.14,0,.014.07,1.176.084,1.288.014.182.014,2.282.014,3.136,0,1.54,0,2.464-.14,6.622,0,.182-.014.518-.014.56,0,.1,0,.49.364.49.728,0,.728-.756.728-1.008,0-.336-.042-1.82-.056-2.128-.014-.532-.014-2.9-.014-3.542a6.728,6.728,0,0,1,.042-.994c.07-.182.294-.182.518-.182h1.736c.266,0,.42,0,.462.294.028.224.07.49.406.49.2,0,.588-.14.588-.91,0-.406-.07-2.184-.07-2.548s0-.49.1-.616c.042-.056.266-.266.266-.336,0-.2-.7-.714-.854-.714-.126,0-.238.112-.378.266a.436.436,0,0,1-.392.154Zm2.072.378c.28,0,.406,0,.406.28v.756c0,.364-.084.364-.406.364h-2c-.28,0-.406,0-.406-.294v-.756c0-.35.084-.35.406-.35Zm-.028,1.764c.308,0,.42.014.42.322v.8c0,.28-.14.28-.42.28H50.736c-.308,0-.42,0-.42-.308v-.812c0-.28.14-.28.42-.28Zm4.1-2.17a.6.6,0,0,1-.364-.084,1.931,1.931,0,0,0-.658-.224c-.126,0-.154.168-.154.238,0,.238.07,1.274.07,1.484s0,2.968.014,3.052a.307.307,0,0,0,.336.266c.252,0,.6-.14.644-.448.042-.224.084-.294.406-.294h1.82c.35,0,.546,0,.546.434,0,2-.028,5.516-.042,5.656-.042.392-.182.462-1.092.5-.14,0-.658.028-.658.1,0,.126.588.28.686.336a.97.97,0,0,1,.392.406c.14.238.238.378.392.378a2.325,2.325,0,0,0,.658-.224c.49-.252.56-.588.56-1.148,0-1.442-.028-7.8-.028-9.086,0-.5,0-.546.224-.742.084-.07.154-.14.154-.224,0-.266-.8-.714-.91-.714-.084,0-.14.042-.308.224a.309.309,0,0,1-.294.112Zm.21,1.736c-.2,0-.35,0-.378-.21-.014-.056-.014-.63-.014-.84,0-.322.154-.322.392-.322H59.08c.224,0,.35,0,.392.21v.854c0,.308-.14.308-.392.308Zm.028,1.89c-.294,0-.406,0-.406-.308v-.924c0-.28.126-.28.406-.28h2.03c.28,0,.392,0,.392.294v.924c0,.294-.126.294-.392.294Zm-3.4,2.044c-.168,0-.882-.336-1.036-.336-.07,0-.126.014-.126.126,0,.07.042.378.042.434.042.5.042,1.848.042,1.918,0,.588-.014,1.008-.056,1.736-.014.126-.028.5-.028.6,0,.434.14.5.322.5.35,0,.588-.238.644-.658.028-.266.1-.322.42-.322h1.736c.28,0,.462,0,.462.336,0,.21,0,.5.308.5a.894.894,0,0,0,.588-.308c.126-.154.126-.336.126-.714,0-.336-.042-2.548,0-2.912a.616.616,0,0,1,.2-.42.316.316,0,0,0,.084-.182c0-.252-.686-.714-.826-.714s-.28.154-.392.28a.334.334,0,0,1-.322.126Zm2.128.378c.266,0,.364,0,.364.35v.8c-.042.2-.154.2-.364.2H53.8c-.21,0-.322,0-.364-.2v-.7c0-.42.028-.448.364-.448Zm-.028,1.722c.28,0,.336,0,.378.2.014.07.014.84.014.966,0,.364-.084.364-.392.364H53.83c-.252,0-.392,0-.392-.266v-.966c0-.294.126-.294.392-.294Zm15.4-6.468a3.606,3.606,0,0,1,3.878,3.878c0,3.486-3.038,4.69-4.494,5.264-.35.14-.378.154-.378.2,0,.084.084.1.14.1a8.6,8.6,0,0,0,2.324-.518,5.221,5.221,0,0,0,3.528-4.928A4.388,4.388,0,0,0,73.71,44.4a4.561,4.561,0,0,0-2.254-.448,5.792,5.792,0,0,0-4.466,1.82,4.932,4.932,0,0,0-1.554,3.57c0,1.708.826,3.15,1.75,3.15.56,0,1.274-.336,2.394-2.044a7.181,7.181,0,0,0,1.442-4.1,10.731,10.731,0,0,0-.14-1.512c0-.056-.028-.112-.028-.154C70.854,44.592,70.868,44.48,71.148,44.48Zm-.784.042c.182,0,.238.07.238.91a8.008,8.008,0,0,1-1.372,4.074c-.966,1.456-1.3,1.624-1.708,1.624-.854,0-1.218-1.246-1.218-2.156A4.834,4.834,0,0,1,70.364,44.522ZM90.986,46.37c.294,0,.448,0,.448.378V51.69c0,1.848-.056,1.89-.2,2.016a4.163,4.163,0,0,1-1.176.14c-.14,0-.182,0-.182.042s.826.5.91.658c.224.42.252.462.364.462a2.2,2.2,0,0,0,.686-.308c.5-.378.6-.868.6-1.722,0-1.232-.168-6.678-.168-7.784,0-.966,0-1.078.252-1.316.182-.168.238-.238.238-.336,0-.322-.882-.756-.98-.756s-.378.322-.434.364a.587.587,0,0,1-.308.07H88.76a.693.693,0,0,1-.434-.112,1.885,1.885,0,0,0-.686-.252c-.126,0-.154.154-.154.224,0,.238.07,1.246.07,1.456v2.1c0,.182.056.392.35.392a.661.661,0,0,0,.644-.448c.07-.2.154-.21.448-.21Zm-2.114-1.778c-.392,0-.392-.07-.392-.742,0-.266.182-.266.392-.266h2.184c.378,0,.378.084.378.756,0,.252-.182.252-.378.252Zm2.184.378c.14,0,.378,0,.378.224,0,.6,0,.672-.07.742a.487.487,0,0,1-.308.056h-2.2c-.378,0-.378-.084-.378-.448,0-.532,0-.574.378-.574Zm-7.28,4.214c.042.056.07.1.112.1a2.686,2.686,0,0,0,.308-.042c.322-.014,1.092-.028,1.358-.028.532,0,.672,0,.672.336a3.649,3.649,0,0,1-.07.938c-.056.084-.126.084-.784.084-.476,0-1.638-.056-1.792-.056-.07,0-.42-.042-.5-.042a.037.037,0,0,0-.042.042.213.213,0,0,0,.056.084l.266.322c.042.056.084.1.126.1.084,0,.364-.042.42-.042.56-.028,1.232-.028,1.834-.028.154,0,.294,0,.294.154a1.517,1.517,0,0,1-.182.5,5.073,5.073,0,0,1-2.2,2.184c-.294.168-.322.2-.322.238s.042.07.112.07a5.257,5.257,0,0,0,3.248-2.31c.154-.28.168-.322.224-.322s.1.056.434.476A7.078,7.078,0,0,0,89.4,53.9c.056,0,.112-.126.126-.168a1.437,1.437,0,0,1,.98-.672c.168-.042.2-.056.2-.1s-.042-.07-.1-.084c-.266-.056-.7-.154-.91-.224a7.6,7.6,0,0,1-2.66-1.568c0-.14.084-.14.378-.14h2.73c.462,0,.742,0,.742-.2a1.953,1.953,0,0,0-.924-.882c-.14,0-.56.588-.7.644a1.847,1.847,0,0,1-.686.056H87.444c-.2,0-.308,0-.308-.168,0-.126.056-.728.07-.854.014-.336.21-.336.476-.336h2.03c.462,0,.742,0,.742-.2s-.8-.84-.98-.84c-.126,0-.154.042-.434.448-.154.21-.224.21-.9.21h-.238c-.1,0-.154,0-.154-.042A6.061,6.061,0,0,1,89.04,47.8c.364-.1.406-.112.406-.252a3.176,3.176,0,0,0-.91-.77c-.042,0-.07.028-.084.1a2.157,2.157,0,0,1-.294.742c-.8,1.106-.9,1.218-1.33,1.218h-.8c-.658,0-1.246-.014-1.918-.042-.1,0-.532-.056-.63-.056a.037.037,0,0,0-.042.042c0,.014,0,.028.056.084Zm-1.344-5.936a1.159,1.159,0,0,1-.518-.112c-.042-.014-.574-.224-.644-.224s-.07.1-.07.168c0,.2.056,1.022.056,1.19.028.56.014.966.014,2.73,0,3.066,0,4.27-.028,5.6,0,.294-.056,1.6-.056,1.862,0,.168.014.546.378.546a.78.78,0,0,0,.7-.84c0-.1-.028-.5-.028-.616-.042-.658-.028-3.654-.028-4.844,0-.252,0-2.044.014-2.128.042-.238.224-.252.434-.252H84.63c.294,0,.35,0,.42.168.112.252.14.336.378.336.63,0,.63-.49.63-.8a17.363,17.363,0,0,1,.028-1.988c.014-.1.308-.406.308-.49,0-.238-.6-.714-.826-.714-.14,0-.21.07-.406.266a.487.487,0,0,1-.42.14Zm2.3.378c.392,0,.392.042.392.532,0,.378,0,.434-.392.434h-2.1c-.406,0-.406-.028-.406-.532,0-.378,0-.434.406-.434Zm-.014,1.344c.392,0,.392.07.392.742,0,.252-.2.252-.392.252h-2.1c-.392,0-.392-.07-.392-.5s0-.49.392-.49Zm.364,2.17a2.735,2.735,0,0,0-.756-.252.079.079,0,0,0-.084.084.252.252,0,0,0,.056.126c.28.364.546.756.714.994.364.532.406.588.574.588s.392-.224.392-.588C85.974,47.756,85.806,47.476,85.078,47.14ZM107.3,49.632c.084.056.126.182.182.462.056.238.126.6.5.6.28,0,.588-.238.588-.728a2.228,2.228,0,0,0-.938-1.624c-.28-.252-.63-.56-.784-.56a.051.051,0,0,0-.056.056c0,.028.168.336.2.392a1.986,1.986,0,0,1,.252.756c0,.14-.1.21-.266.238-.252.028-2.716.168-2.828.168-.056,0-.294,0-.294-.112,0-.084.168-.266.322-.434.238-.266,1.246-1.428,1.456-1.652a7.347,7.347,0,0,1,1.05-.966c.224-.126.28-.154.28-.28,0-.252-.952-.882-1.022-.882s-.224.448-.252.518c-.378.686-1.89,3.052-2.282,3.514-.28.322-.532.322-1.218.322h-1.778c-.084-.014-.476-.1-.56-.1-.056,0-.07.056-.07.1a7.2,7.2,0,0,0,.35,1.19c.056.182.112.238.21.238s.406-.252.476-.28a24.378,24.378,0,0,1,2.646-.378c.28,0,.378.126.378.616,0,.322-.056,2.744-.07,3.01-.042.49-.056.714-.056.812a.384.384,0,0,0,.392.448c.028,0,.7-.028.7-.588,0-.588-.084-3.178-.084-3.71,0-.63.028-.756.574-.868A17.185,17.185,0,0,1,107.3,49.632Zm-.084-7.112a.946.946,0,0,0-.364.1,13.116,13.116,0,0,1-2.352.63,28.036,28.036,0,0,1-3.822.434c-.126,0-.154.042-.154.084,0,.168,1.078.168,1.26.168.112,0,1.736,0,3.038-.042.392-.014,2.282-.182,2.716-.182.056,0,.35.042.406.042s.2,0,.2-.126A6.352,6.352,0,0,0,107.212,42.52ZM98.8,45.908c-.014-.028,0-.07,0-.1a9.779,9.779,0,0,1,1.428-2.422c.21-.056.336-.084.336-.238,0-.322-1.288-.854-1.33-.854-.084,0-.084.028-.14.28a24.481,24.481,0,0,1-2.464,5.572c-.28.5-.308.56-.308.63,0,.028,0,.1.056.1a9.024,9.024,0,0,0,1.316-1.526c.308-.392.336-.434.392-.434.112,0,.126.168.126.35s.028.728.028,1.344c0,.924-.014,2.352-.056,3.654-.014.364-.084,2.1-.084,2.324,0,.294,0,.476.294.476.084,0,.728,0,.728-.476,0-.994-.028-5.936-.028-7.042a1.964,1.964,0,0,1,.084-.7,2.228,2.228,0,0,0,.2-.364c0-.14-.2-.252-.266-.294C98.952,46.118,98.826,46.048,98.8,45.908Zm4.06.686a7.246,7.246,0,0,1,1.694-1.428c.238-.126.336-.168.336-.266,0-.21-.854-.826-.98-.826-.07,0-.1.042-.252.406a10.355,10.355,0,0,1-.91,1.54c-.1.14-.182.224-.322.224a4.174,4.174,0,0,1-.882-.49,1.773,1.773,0,0,0-.476-.2c-.042,0-.07.014-.07.07a8.169,8.169,0,0,0,.546.756,4.106,4.106,0,0,1,.574,1.386c.028.126.126.462.42.462a.664.664,0,0,0,.588-.742,1.132,1.132,0,0,0-.1-.462C102.872,46.72,102.858,46.692,102.858,46.594Zm3.136,4.676a.066.066,0,0,0-.042.07c0,.042.028.1.126.21a9.725,9.725,0,0,1,1.134,1.82c.476,1.092.532,1.2.868,1.2a.585.585,0,0,0,.518-.6C108.6,52.726,106.358,51.13,105.994,51.27Zm-4.13-.154c-.084,0-.084.014-.154.2a13.336,13.336,0,0,1-1.778,2.842,2.1,2.1,0,0,0-.238.322.065.065,0,0,0,.07.07,5.171,5.171,0,0,0,1.274-.882c.21-.168,1.148-1.162,1.414-1.3.336-.182.434-.224.434-.364C102.886,51.746,101.934,51.116,101.864,51.116Zm13.09-.91c.448,0,.6-.336.756-.686a2.41,2.41,0,0,1,1.722-1.484c.56,0,.672.784.672,1.414a.6.6,0,0,1-.21.49c-1.316,1.064-1.848,1.512-1.848,2.408,0,1.106.938,1.834,2.716,1.834.336,0,2.506-.056,2.506-.924,0-.336-.392-.476-.686-.476-.182,0-1.078.224-1.274.252a4.333,4.333,0,0,1-.9.084c-.406,0-1.806,0-1.806-.966,0-.8,1.246-1.666,1.358-1.666s.1.112.1.168c0,.014-.042.686-.042.826,0,.252.056.714.434.714.518,0,.518-.8.518-1.022,0-.126-.028-.714-.028-.84,0-.294.014-.448.238-.588.252-.154,1.834-.784,2.184-.938.868-.378,1.974-.84,1.974-1.5a1.321,1.321,0,0,0-1.316-1.246c-1.218,0-2.128,1.274-2.59,1.918a6.574,6.574,0,0,1-.574.756c-.028,0-.042-.028-.14-.266a1.263,1.263,0,0,0-1.19-.854,1.308,1.308,0,0,0-.546.112,2.8,2.8,0,0,1-.434.154.051.051,0,0,1-.056-.056c0-.056.028-.1.1-.224a10.857,10.857,0,0,0,.756-1.512c.308-.714.322-.742.532-.826.644-.252,1.666-.644,1.666-1.106,0-.294-.532-.364-.63-.364-.56-.042-.616-.07-.63-.252-.028-.308-.378-.434-.714-.434-.252,0-.616.112-.616.224,0,.084.294.336.336.406a1.122,1.122,0,0,1,.112.49c0,.28,0,.658-1.148.658a2.225,2.225,0,0,1-.924-.252,3.144,3.144,0,0,0-.532-.266c-.084,0-.084.056-.084.1a1.485,1.485,0,0,0,1.246,1.232c.126,0,.7-.112.84-.112.056,0,.154.014.154.1a6.442,6.442,0,0,1-1.19,2.086c-.952,1.106-1.344,1.554-1.344,1.974C114.422,50.122,114.688,50.206,114.954,50.206Zm3.01-5.852c0-.056.056-.448.252-.448.126,0,.476.028.476.21,0,.154-.672.336-.7.336S117.964,44.41,117.964,44.354Zm3.668,2.24a.431.431,0,0,1,.49.42c0,.924-2.758,2.044-2.8,2.044s-.056-.042-.056-.07C119.266,48.764,120.47,46.594,121.632,46.594ZM6.328,70.038c-.028,0-.126,0-.126.056a.311.311,0,0,0,.084.168,1.592,1.592,0,0,1,.378.84c.042.49.056,3.346.056,3.458,0,.35.14,2.674.14,3.024,0,.322-.084.35-.294.35-.1,0-.6-.042-.728-.042-1.6,0-2.94.6-2.94,1.512,0,.8,1.12,1.638,2.408,1.638A2.33,2.33,0,0,0,7.476,79.8c.182-.392.21-.434.35-.434a1.994,1.994,0,0,1,.8.35,4.4,4.4,0,0,0,1.288.672.533.533,0,0,0,.5-.56c0-.448-.91-.84-1.778-1.218-.728-.308-.812-.35-.868-.56-.042-.154-.21-3.654-.21-3.92s.028-.35.14-.378c.028-.014.938-.014.966-.014,1.148,0,1.484-.336,1.484-.546s-.518-.616-.882-.616a6.223,6.223,0,0,0-.924.35,2.229,2.229,0,0,1-.588.112c-.154,0-.168-.042-.168-.224a9.072,9.072,0,0,1,.126-.966,6.685,6.685,0,0,0,.21-.756A1.66,1.66,0,0,0,6.328,70.038Zm.42,8.89c.042.126-.21,1.162-1.736,1.162-1.008,0-1.484-.42-1.484-.686,0-.77,1.694-.784,1.834-.784C5.978,78.62,6.692,78.746,6.748,78.928Zm17.962-4.1c0,2.856-.42,4.48-2.716,6.216-.322.238-.35.266-.35.308s.028.042.056.042a3.616,3.616,0,0,0,1.008-.462,6.065,6.065,0,0,0,3.052-5.8c0-2.94-.938-3.4-1.806-3.4-1.47,0-2.422,1.764-2.576,2.072-.1.182-.182.35-.252.35-.112,0-.112-.154-.112-.2a14.856,14.856,0,0,1,.308-1.736,8.749,8.749,0,0,0,.294-1.036,1.083,1.083,0,0,0-1.078-.938.566.566,0,0,0-.378.1c0,.028.21.308.238.364a1.552,1.552,0,0,1,.182.868,9.57,9.57,0,0,1-.21,1.792,12.613,12.613,0,0,0-.252,2.226c0,1.106.308,2.268.952,2.268a.468.468,0,0,0,.5-.5,1.4,1.4,0,0,0-.126-.532,2.856,2.856,0,0,1-.182-1.036c0-1.484,1.12-3.444,2.31-3.444C24.43,72.348,24.71,73.286,24.71,74.826Zm15.05-3.514c-.308,0-.378-.154-.378-.434a1.672,1.672,0,0,1,.056-.462c.042-.084.364-.364.364-.434,0-.308-1.33-.546-1.386-.546-.154,0-.2.084-.2.126,0,.07.112.406.112.462.014.14.014.644.014.812,0,.378-.07.476-.392.476H36.82a1.773,1.773,0,0,1-.952-.392c-.308-.21-.364-.224-.462-.224-.126,0-.168.028-.168.2,0,.308.056,1.638.056,1.9,0,.574-.014,6.9-.042,7.042s-.224.21-.434.238a10.1,10.1,0,0,1-1.12.1,3.154,3.154,0,0,1-.532-.042,1.627,1.627,0,0,0-.252-.056.088.088,0,0,0-.1.1c0,.112.742,1.652.966,1.652.07,0,.28-.252.336-.28a6.653,6.653,0,0,1,1.274-.462c.686-.182,4.312-1.442,4.438-1.442s.2.07.49.35a8.508,8.508,0,0,0,3.43,1.918c.154,0,.182-.056.252-.308.1-.35.672-.658,1.05-.812.028-.014.168-.084.168-.112,0-.084-.1-.084-.14-.084a6.933,6.933,0,0,1-2.87-.518A3.789,3.789,0,0,1,40.586,79c0-.126.154-.182.294-.238a29.956,29.956,0,0,1,2.9-1.134c.378-.028.5-.028.5-.238,0-.14-.07-.2-.63-.672a4.9,4.9,0,0,0-.434-.378.238.238,0,0,0-.1-.014c-.07,0-.238.294-.28.336a8.851,8.851,0,0,1-2.59,1.988c-.364,0-1.33-1.666-1.33-2.114,0-.266.182-.266.308-.266H41.2c.112,0,.336,0,.42.168.07.126.182.378.462.378a.633.633,0,0,0,.6-.672c0-.126-.056-.672-.056-.784-.028-.476-.028-1.5-.028-2.058,0-1.05.042-1.162.14-1.274.042-.07.378-.28.378-.35a2.033,2.033,0,0,0-.98-.924c-.126,0-.154.042-.378.35a.528.528,0,0,1-.518.21ZM36.624,75.89c-.406,0-.42-.126-.42-.98s.014-1.008.42-1.008h4.648c.392,0,.406.168.406.994s-.014.994-.406.994Zm0-2.352c-.42,0-.42-.21-.42-.924s0-.924.42-.924h4.662a.36.36,0,0,1,.406.406v1.022a.368.368,0,0,1-.406.42Zm1.638,2.73c.294,0,.336.084.378.294a10.485,10.485,0,0,0,.532,1.624c.07.182.49,1.036.49,1.092,0,.168-.056.182-.574.266-.154.028-2.45.322-2.548.322-.266,0-.322-.21-.322-.364,0-.336-.028-2.422-.028-2.59,0-.42,0-.644.392-.644Zm16.716-6.412c-.028.042,0,.1.042.168a1.33,1.33,0,0,1,.35.812c0,.518-.518,1.246-1.9,2.982-.952,1.19-1.134,1.61-1.134,1.988,0,.294.112.5.546,1.036A15.929,15.929,0,0,1,55.2,80.384c.294.826.378,1.092.812,1.092a.6.6,0,0,0,.6-.658c0-.966-1.9-3.024-3.15-4.382a1.12,1.12,0,0,1-.42-.77c0-.6,3.752-4.228,3.752-4.606,0-.518-1.386-1.232-1.722-1.232C55.034,69.828,54.992,69.828,54.978,69.856ZM65.31,73.048c-.042.014-.07.084-.07.14,0,.574,1.162,1.162,1.47,1.162a13.013,13.013,0,0,0,1.5-.56,17.34,17.34,0,0,1,2.478-.56c.28,0,.28.084.28.84,0,.714,0,.8-.392.854-1.358.21-1.358,1.75-1.358,1.932,0,1.12.672,1.834,1.428,1.834.042,0,.252-.028.294-.028.14,0,.14.154.14.2a4.554,4.554,0,0,1-.784,2.058c-.1.14-.672.812-.672.84s.042.056.07.056c.434,0,2.548-1.736,2.548-4.452a4.438,4.438,0,0,0-.406-1.89,1.828,1.828,0,0,1-.182-.91c0-1.232.028-1.428.224-1.512a6.532,6.532,0,0,1,1.512-.14c.266,0,1.568.126,1.862.126.49,0,.756-.126.756-.49,0-.49-.616-.546-.8-.546-.112,0-.7.07-.84.07a3.076,3.076,0,0,1-1.232-.28c-.826-.35-1.232-.56-1.232-.882,0-.07.056-.364.056-.434,0-.448-.546-.7-1.162-.7-.084,0-.294,0-.294.1,0,.07.224.322.238.392a8.362,8.362,0,0,1,.2,1.9c0,.364-.084.378-.812.5a28.3,28.3,0,0,1-3.808.476C66.122,73.146,65.45,73.062,65.31,73.048Zm6.608-1.638a3.035,3.035,0,0,1,1.064.742c0,.21-.91.238-.966.238-.2,0-.252-.042-.252-.266C71.764,71.76,71.82,71.438,71.918,71.41Zm-.952,4.424a2.722,2.722,0,0,1,.182.98c0,.224-.014,1.064-.56,1.064a1.015,1.015,0,0,1-.91-1.12c0-.714.448-1.288.8-1.288A.592.592,0,0,1,70.966,75.834Zm17.248,3.948c-.2,0-.28-.126-.476-.378a2.067,2.067,0,0,0-1.6-.9,1.348,1.348,0,0,0-1.386,1.134c0,.7.994,1.442,2.38,1.442a3.312,3.312,0,0,0,3.5-3.024,3.022,3.022,0,0,0-3.15-2.912,3.387,3.387,0,0,0-1.232.224c-.084.028-.266.1-.35.126-.042,0-.084-.056-.084-.1a8.537,8.537,0,0,1,2.24-2.87c.672-.462.994-.686.994-1.092,0-.616-.91-.966-1.47-.966-.308,0-.406.042-1.274.42a6.788,6.788,0,0,1-2.17.5c-.294,0-.336,0-.336.042,0,.07.434.966,1.092.966.238,0,.434-.042.994-.5.238-.2,1.064-.9,1.582-.9.168,0,.266.1.266.2,0,.154-.2.448-.658,1.106a46.109,46.109,0,0,1-3.164,4.214c-.994,1.162-1.106,1.47-1.106,1.82a.386.386,0,0,0,.406.392c.378,0,.518-.266.8-.742.252-.434,1.442-2.352,3.29-2.352a2.216,2.216,0,0,1,2.366,2.128A2.071,2.071,0,0,1,88.214,79.782Zm-1.288.14a.232.232,0,0,1-.238.252c-.6,0-1.2-.294-1.2-.658a.572.572,0,0,1,.588-.49A.952.952,0,0,1,86.926,79.922Zm13.79-8.862a4.452,4.452,0,0,0-.462-.14c-.028,0-.07,0-.07.042,0,.14.644,1.022,2.464,1.358.406.07.448.084.448.168,0,.168-.77.826-.77.952,0,.028.028.028.042.028.056,0,.056.014.2-.07a3.846,3.846,0,0,1,1.764-.672c.966-.07,1.092-.07,1.092-.322a1.471,1.471,0,0,0-1.372-1.12c-.154,0-.938.028-1.106.028A8.393,8.393,0,0,1,100.716,71.06Zm1.33,8.05a2.883,2.883,0,0,1-2.688-1.4c-.028-.07-.126-.518-.224-.518-.028,0-.182.154-.182.686,0,2.2,2.954,2.45,4.34,2.45.77,0,3.15-.07,3.15-.826a.868.868,0,0,0-.924-.658c-.07,0-2.2.294-2.618.294C102.76,79.138,102.144,79.11,102.046,79.11Zm13.748-.2c0,2.2,2.03,2.2,2.674,2.2.742,0,3.6-.07,3.6-.784,0-.35-.448-.672-.924-.672a3.809,3.809,0,0,0-1.05.21,6.262,6.262,0,0,1-1.68.252c-1.134,0-1.946-.35-1.946-1.3,0-.91.476-1.932,3.808-3.276.5-.2,1.078-.42,1.078-.84a.538.538,0,0,0-.532-.518,4.324,4.324,0,0,0-1.442.658c-.756.476-.84.532-1.036.532-.364,0-.364-1.134-.364-1.666a13.178,13.178,0,0,1,.126-1.848c.028-.14.2-.77.2-.9,0-.406-.714-1.05-1.512-1.05-.042,0-.378.014-.378.07s.042.084.336.392a1.308,1.308,0,0,1,.42,1.134c0,.364-.07,1.988-.07,2.31a4.5,4.5,0,0,0,.238,1.638,3.559,3.559,0,0,1,.126.434c0,.182-.182.364-.6.756A3.174,3.174,0,0,0,115.794,78.914Zm14.812-3.6c.28,0,1.582-.56,1.89-.56.084,0,.1.07.1.112a3.763,3.763,0,0,1-.2.658,8.2,8.2,0,0,1-1.722,3.164c-.84.924-.938,1.036-.938,1.33a.412.412,0,0,0,.448.448c1.134,0,2.492-3.444,3.052-5.348.14-.476.154-.532.21-.6a3.043,3.043,0,0,1,1.344-.336c.406,0,.966.07.966,1.05a11.131,11.131,0,0,1-.434,2.436c-.406,1.512-.924,1.708-1.33,1.708a3.484,3.484,0,0,1-.714-.1,2.553,2.553,0,0,0-.35-.1.066.066,0,0,0-.07.07c0,.042.154.364.182.462.168.476.308.966.826.966a2.171,2.171,0,0,0,1.428-.854c.812-.98,1.2-3.388,1.2-4.494a1.653,1.653,0,0,0-1.862-1.792c-.112,0-.756.07-.826.07-.1,0-.154-.042-.154-.126,0-.266.532-2.058.532-2.072,0-.364-.546-.9-1.484-.9-.056,0-.224.014-.224.112,0,.042.028.07.238.322a1.772,1.772,0,0,1,.35,1.19c0,.07-.014,1.484-.252,1.652a23.413,23.413,0,0,1-2.352.42c-.154,0-.882-.2-.924-.2a.123.123,0,0,0-.126.112C129.416,74.434,130.06,75.316,130.606,75.316Zm9.324.63a2.579,2.579,0,0,0-2.45-2.478c-.042,0-.1,0-.1.084,0,.056.224.154.336.21a1.8,1.8,0,0,1,1.134,1.61c0,.378-.056.42-.574.812-.084.07-.546.308-.546.392,0,.056.35.07.448.1a7.052,7.052,0,0,0,.952.42C139.72,77.094,139.93,76.114,139.93,75.946Zm-1.05-5.894c-.168,0-.5.084-.5.2,0,.042.042.1.182.14a3.859,3.859,0,0,1,1.246.742c.28.322.434.5.742.5a.384.384,0,0,0,.35-.406C140.9,70.962,140.616,70.052,138.88,70.052Zm-1.218,1.134c-.126,0-.238.084-.238.126s.14.168.21.21a3.784,3.784,0,0,1,.994.826c.434.518.546.6.742.6.238,0,.406-.308.406-.546C139.776,72.236,139.454,71.186,137.662,71.186ZM5.054,97.934c0,.1.014.1.322.224a8.769,8.769,0,0,1,2.66,1.274,3.161,3.161,0,0,0,1.036.6.463.463,0,0,0,.42-.49c0-1.372-2.562-1.708-3.864-1.708C5.278,97.836,5.054,97.878,5.054,97.934Zm.14,3.038c-.812-.014-.9-.014-.9.112,0,.084.084.112.168.14a6.731,6.731,0,0,1,2.03.924c.924.7,1.036.784,1.344.784a.559.559,0,0,0,.49-.546C8.33,101.21,5.88,100.972,5.194,100.972Zm4.676,6.216c0-1.68-4.256-2.828-5.572-2.828-.056,0-.252,0-.252.126,0,.07.028.084.35.2a9.531,9.531,0,0,1,3.654,2.282c.742.826.826.91,1.162.91A.658.658,0,0,0,9.87,107.188Zm15.652-5.558c0,1.2-1.638,3.836-4.62,6.118a5.979,5.979,0,0,0-.784.588.09.09,0,0,0,.084.084,12.259,12.259,0,0,0,5.7-4.942,11.413,11.413,0,0,1,.714-1.2c.238-.14.294-.154.294-.266,0-.406-.56-.742-.784-.854a3.115,3.115,0,0,0-.63-.35.1.1,0,0,0-.1.1.892.892,0,0,0,.028.126A1.419,1.419,0,0,1,25.522,101.63Zm-6.132.462c-.1,0-.182.042-.182.126,0,.042.028.084.1.182a5.007,5.007,0,0,1,.812,1.414c.1.308.2.63.5.63a.509.509,0,0,0,.476-.532C21.1,102.792,19.726,102.092,19.39,102.092Zm2.422-1.288c-.07-.014-.14.028-.14.07a1.582,1.582,0,0,0,.154.308,4.394,4.394,0,0,1,.518,1.33c.042.238.112.588.42.588.252,0,.476-.308.476-.714A1.774,1.774,0,0,0,21.812,100.8Zm14.364,6.748c.182,0,.854-.63,1.022-.742,5.8-4.06,7.028-7.056,7.028-7.21a.051.051,0,0,0-.056-.056,6.673,6.673,0,0,0-.6.63c-3.346,3.794-7.112,5.894-7.714,5.894-.112,0-.644-.182-.77-.182-.084,0-.126.042-.126.1a.594.594,0,0,0,.084.266c.042.07.294.364.336.434C35.728,107.328,35.868,107.552,36.176,107.552Zm-.532-6.454c-.182,0-.98.014-.98.21,0,.056.084.112.126.14a3.4,3.4,0,0,1,1.274,1.162c.21.35.28.434.49.434.336,0,.546-.42.546-.7C37.1,101.658,36.246,101.1,35.644,101.1Zm1.624-2.674a1.667,1.667,0,0,0-1.078.266c0,.042.154.084.21.1a2.437,2.437,0,0,1,1.2.742c.5.6.574.658.728.658.224,0,.448-.308.448-.63C38.78,99.516,38.78,98.424,37.268,98.424Zm14.42,3.206a.154.154,0,0,0-.126.154c0,.2.518.952,1.036.952.168,0,1.022-.14,1.218-.168,1.008-.126,2.6-.294,2.688-.294.21,0,.28.07.28.308a4.1,4.1,0,0,1-.112,1.134,17.327,17.327,0,0,1-3.7.378,1.907,1.907,0,0,1-.7-.1,2.187,2.187,0,0,0-.336-.14c-.07,0-.1.042-.1.182a1.014,1.014,0,0,0,.952.854c.238,0,1.736-.2,2.114-.238.518-.07,1.526-.21,1.582-.21.168,0,.224.084.224.266,0,.056-.028.644-.028.756-.014.392-.014.518-.168.6-.126.056-2.884.336-3.444.336a2.254,2.254,0,0,1-.672-.112,2.326,2.326,0,0,0-.462-.14c-.112,0-.126.112-.126.168,0,.112.42,1.008.8,1.008.154,0,.588-.126.7-.14.378-.07,2.618-.336,3.08-.336.2,0,.2.042.224.224.056.322.238.546.448.546s.546-.252.546-.9c0-.126-.028-.742-.028-.882,0-.924.028-1.974.07-2.9a.709.709,0,0,1,.14-.462c.2-.224.238-.266.238-.406,0-.28-.826-.91-.938-.91s-.49.336-.6.378a20.02,20.02,0,0,1-3.486.308,3.469,3.469,0,0,1-.812-.07A4.312,4.312,0,0,0,51.688,101.63Zm18.522-1.47c0-.826-1.176-1.624-2.674-1.624-.2,0-.308.07-.308.126s.07.1.126.126a3.153,3.153,0,0,1,1.274,1.148c.462.7.6.924.98.924A.618.618,0,0,0,70.21,100.16Zm5.824-.126a.09.09,0,0,0-.07-.07c-.028,0-.42.392-.644.616-2.324,2.3-6.034,4.774-6.72,4.774a2.317,2.317,0,0,1-.952-.322,3.486,3.486,0,0,0-.42-.266c-.126,0-.14.644-.14.742,0,.56,1.036,1.456,1.792,1.456.21,0,.238-.028.5-.35a9.777,9.777,0,0,1,1.372-1.148A19.049,19.049,0,0,0,76.034,100.034Zm5.628-.322c-.182.2.49,1.134,1.19,1.134a1.069,1.069,0,0,0,.476-.182,17.808,17.808,0,0,1,4.172-1.5c.028,0,.084,0,.084.028a2.738,2.738,0,0,1-.35.294c-2.016,1.806-2.03,4.774-2.03,5.39a2.632,2.632,0,0,0,2.856,3c.084,0,1.624,0,1.624-.742,0-.336-.252-.518-.686-.518-.126,0-1.12.084-1.33.084-.826,0-1.708-.154-1.708-2.506,0-3.612,1.988-5.25,3.766-5.25.154,0,.952.154,1.134.154a.559.559,0,0,0,.574-.518c0-.476-.63-.672-1.134-.672a37.965,37.965,0,0,0-5.376,1.26,9.046,9.046,0,0,1-2.716.6C82.124,99.768,81.718,99.642,81.662,99.712Zm9.646.938a1.292,1.292,0,0,0-.35-.07c-.042,0-.2,0-.2.084s.056.126.126.182a3.627,3.627,0,0,1,.924,1.12c.14.336.294.742.63.742.182,0,.406-.154.406-.518C92.848,101.518,92.134,100.916,91.308,100.65Zm-1.806.574c-.126-.028-.28-.014-.28.056a.759.759,0,0,0,.14.252,3.664,3.664,0,0,1,.7,1.092c.224.546.35.812.6.812a.568.568,0,0,0,.49-.574A2.024,2.024,0,0,0,89.5,101.224Zm7.728-1.176c-.042.014-.07.084-.07.14,0,.574,1.162,1.162,1.47,1.162a13.013,13.013,0,0,0,1.5-.56,17.34,17.34,0,0,1,2.478-.56c.28,0,.28.084.28.84,0,.714,0,.8-.392.854-1.358.21-1.358,1.75-1.358,1.932,0,1.12.672,1.834,1.428,1.834.042,0,.252-.028.294-.028.14,0,.14.154.14.2a4.554,4.554,0,0,1-.784,2.058c-.1.14-.672.812-.672.84s.042.056.07.056c.434,0,2.548-1.736,2.548-4.452a4.438,4.438,0,0,0-.406-1.89,1.828,1.828,0,0,1-.182-.91c0-1.232.028-1.428.224-1.512a6.532,6.532,0,0,1,1.512-.14c.266,0,1.568.126,1.862.126.49,0,.756-.126.756-.49,0-.49-.616-.546-.8-.546-.112,0-.7.07-.84.07a3.076,3.076,0,0,1-1.232-.28c-.826-.35-1.232-.56-1.232-.882,0-.07.056-.364.056-.434,0-.448-.546-.7-1.162-.7-.084,0-.294,0-.294.1,0,.07.224.322.238.392a8.362,8.362,0,0,1,.2,1.9c0,.364-.084.378-.812.5a28.3,28.3,0,0,1-3.808.476C98.042,100.146,97.37,100.062,97.23,100.048Zm6.608-1.638a3.035,3.035,0,0,1,1.064.742c0,.21-.91.238-.966.238-.2,0-.252-.042-.252-.266C103.684,98.76,103.74,98.438,103.838,98.41Zm-.952,4.424a2.722,2.722,0,0,1,.182.98c0,.224-.014,1.064-.56,1.064a1.015,1.015,0,0,1-.91-1.12c0-.714.448-1.288.8-1.288A.592.592,0,0,1,102.886,102.834Zm11.256,2.87a1.554,1.554,0,0,0-.014,3.108,1.554,1.554,0,1,0,.014-3.108Zm-.014.392a1.174,1.174,0,0,1,1.19,1.176,1.156,1.156,0,0,1-1.162,1.148,1.174,1.174,0,0,1-1.176-1.176A1.133,1.133,0,0,1,114.128,106.1Z" transform="translate(-0.644 11.676)" fill="#fff"/>
</svg>
