<svg xmlns="http://www.w3.org/2000/svg" width="465.336" height="52.308" viewBox="0 0 465.336 52.308">
  <path id="パス_130461" data-name="パス 130461" d="M16.164-11.25c.594,0,.954,0,.954-.234,0-.252-1.566-1.206-1.674-1.206-.216,0-.828.828-1.008.9a2.484,2.484,0,0,1-.864.072h-3.51c-.54,0-.54-.216-.54-1.17a3.408,3.408,0,0,1,.108-.846c.036-.108.45-.45.45-.558,0-.288-.414-.378-.522-.4-.252-.054-1.206-.252-1.386-.252-.09,0-.126,0-.126.108s.072.522.072.612c.018.252.072,1.026.072,1.926,0,.252,0,.576-.522.576H4.482c-1.026,0-1.962-.054-2.484-.072-.126,0-.666-.054-.774-.054-.036,0-.072,0-.072.036s0,.036.072.126l.36.414c.054.072.09.108.144.108.072,0,.342-.036.4-.036.612-.054,1.836-.054,2.268-.054h.882c.342,0,.342.054.4.414A16.864,16.864,0,0,0,7.578-5.094c.594,1.08.666,1.206.666,1.368C8.244-3.132,5.778-.7,2.16.666a6.528,6.528,0,0,0-1.116.4c0,.054.072.09.2.09,2.178,0,4.968-1.3,7.128-3.114.684-.576.756-.63.882-.63s.126,0,1.386,1.026a13.422,13.422,0,0,0,4.194,2.5c.144,0,.63-.486.738-.558a4.624,4.624,0,0,1,1.278-.522c.45-.108.5-.126.5-.252,0-.072-.108-.072-.162-.072a10.48,10.48,0,0,1-3.942-1.08c-1.926-.918-3.042-1.872-3.042-2.3a3.9,3.9,0,0,1,.432-.918A30.114,30.114,0,0,0,12.51-9.306a1.793,1.793,0,0,1,.378-.648c.2-.144.288-.2.288-.288,0-.27-1.71-.882-1.764-.882-.144,0-.144.144-.144.234,0,1.854-1.566,6.066-2.16,6.066-.036,0-.99-.234-2.322-3.942-.342-.972-.684-2.25-.684-2.3,0-.144.126-.18.234-.18ZM28.386-3.96c.522,0,.54.144.54,1.152,0,.36-.018.648-.486.648H24.66c-1.026,0-1.962-.036-2.484-.054-.126,0-.666-.054-.792-.054-.018,0-.054,0-.054.036,0,.018,0,.018.072.108l.342.414c.072.09.108.126.162.126.072,0,.324-.036.378-.036.63-.054,1.854-.054,2.286-.054h3.816c.486,0,.54.216.54.558,0,.306-.072,1.854-.072,1.872,0,.27,0,.594.63.594.846,0,.846-.738.846-1.134,0-.252-.054-1.35-.018-1.566.054-.27.27-.324.5-.324h5.868c.522,0,.972,0,.972-.216a5.69,5.69,0,0,0-1.584-1.368c-.234,0-.828.972-1.008,1.044a3.523,3.523,0,0,1-.882.054H30.8c-.522,0-.522-.306-.522-.576,0-.99,0-1.224.558-1.224h1.71c.378,0,.45.09.468.27s.036.45.45.45a1.042,1.042,0,0,0,.972-.864c0-.306-.072-1.62-.072-1.89a5.239,5.239,0,0,1,.126-1.44c.036-.072.342-.342.342-.414,0-.216-.99-.9-1.152-.9-.144,0-.594.5-.7.54a2.487,2.487,0,0,1-.63.054H26.334a2.081,2.081,0,0,1-.72-.108A5.74,5.74,0,0,0,24.75-8.6c-.162,0-.2.108-.2.216,0,.054.09.918.09,1.044.018.414.036.828.036,1.242s-.09,2.232-.09,2.61c0,.468.09.612.54.612a.861.861,0,0,0,.882-.72c.072-.288.144-.36.54-.36ZM26.514-6.282c-.54,0-.54-.234-.54-.828,0-.36.054-.576.54-.576h6.03c.558,0,.558.288.558.7,0,.432,0,.7-.558.7Zm5.994.486c.558,0,.558.27.558.612,0,.522,0,.756-.558.756H26.55c-.558,0-.558-.252-.558-.684,0-.45,0-.684.558-.684Zm-1.854-7.4c-.36,0-.378-.18-.378-.45a1.331,1.331,0,0,1,.054-.324c.036-.09.378-.432.378-.54,0-.18-.45-.288-.594-.306-.108-.018-1.062-.2-1.08-.2-.036,0-.162,0-.162.108,0,.144.072.882.072,1.062,0,.468,0,.648-.36.648H26.136c-.828,0-1.584-.036-2.466-.072-.108,0-.666-.054-.792-.054-.036,0-.054,0-.054.036s0,.036.072.126l.342.414c.072.072.108.108.162.108s.324-.036.378-.036c.18-.018.7-.054,2.286-.054h9.414c.36,0,.684,0,.684-.216,0-.27-1.4-1.35-1.584-1.35-.162,0-.648.774-.774.9-.18.2-.324.2-.918.2ZM28.17-9.864c-.252,0-.342,0-.342-.108,0-.036.018-.054.072-.144a.829.829,0,0,0,.144-.45c0-1.26-2.16-2.052-2.484-2.052a.082.082,0,0,0-.09.072c0,.036.486.666.576.792a11.8,11.8,0,0,1,.648,1.746c0,.144-.09.144-.27.144H25.056c-.846,0-1.584-.018-2.466-.054-.108-.018-.666-.072-.792-.072-.036,0-.072.018-.072.054,0,.018.018.036.09.108l.342.414c.054.072.09.126.162.126a2.731,2.731,0,0,0,.378-.054c.18,0,.7-.036,2.268-.036h11.52c.594,0,.936,0,.936-.216a4.836,4.836,0,0,0-1.566-1.368c-.144,0-.2.09-.738.792-.216.306-.306.306-1.134.306H32.2c-.054,0-.252,0-.252-.126a8.2,8.2,0,0,1,1.188-1.4c.09-.072.63-.432.63-.576,0-.216-1.422-.612-1.548-.612-.2,0-.2.108-.2.324a10.649,10.649,0,0,1-.684,1.908c-.216.432-.342.486-.7.486ZM53.91-2.736c.324-.162,1.26.594,1.782,1.224.432.54.486.612.7.612a.708.708,0,0,0,.648-.72c0-1.062-1.89-1.908-2.772-2.286-.45-.2-.5-.324-.576-.99-.054-.486-.18-2.52-.18-2.916,0-.774,0-.792.666-1.08s1.872-.81,1.872-1.656c0-.756-.594-.774-1.386-.81-.108,0-1.044-.036-1.044-.576a.781.781,0,0,1,.108-.378c.18-.288.2-.324.2-.45,0-.684-1.206-.936-1.566-.936-.378,0-.612.2-.612.306,0,.126.486.522.558.612.342.414.342.918.342,2.052,0,1.188,0,1.188-.99,1.188a5.387,5.387,0,0,1-2.016-.36,3.13,3.13,0,0,0-.486-.252c-.072,0-.09.072-.09.126a2.556,2.556,0,0,0,2.664,1.6,5.97,5.97,0,0,1,.828.036.6.6,0,0,1,.144.432c.018.5.072,2.412.072,2.52,0,1.116,0,1.242-.45,1.242-3.69.054-3.69,1.962-3.69,2.214a2.039,2.039,0,0,0,2.25,1.8,2.968,2.968,0,0,0,2.682-1.71C53.622-2.016,53.784-2.682,53.91-2.736Zm-.252-8.334a.383.383,0,0,1,.216-.072c.252,0,.846.234.846.558,0,.414-.684.63-.936.63-.126,0-.27,0-.27-.684A.545.545,0,0,1,53.658-11.07ZM51.3-3.258c1.152,0,1.4.144,1.4.45,0,.612-1.1,1.476-2.16,1.476-.63,0-1.188-.306-1.188-.792C49.356-2.646,50.274-3.258,51.3-3.258Zm-5.13.666c0-.522.5-3.114.5-3.69,0-.036,0-.162-.072-.162a9.068,9.068,0,0,0-.738,1.8c-.324.99-.342,1.062-.5,1.062-.432,0-.432-1.152-.432-1.26a12.027,12.027,0,0,1,.648-3.618c.144-.45.936-2.664.936-2.808,0-.324-.9-2.124-1.908-2.124-.108,0-.324.036-.324.144a3.615,3.615,0,0,0,.342.63,2.548,2.548,0,0,1,.414,1.494,12.125,12.125,0,0,1-.54,2.862,13.749,13.749,0,0,0-.468,3.528c0,2.79.9,4.59,1.8,4.59.414,0,.594-.342.594-.738C46.422-1.134,46.17-2.322,46.17-2.592ZM64.008.108c-.036.162.126.162.162.162a15.538,15.538,0,0,0,6.642-4.338c.36-.378.468-.5.63-.5.18,0,.378.342.414.414.684,1.152.756,1.278,1.134,1.278a.775.775,0,0,0,.774-.864,2.513,2.513,0,0,0-.756-1.584c-.324-.414-.342-.45-.342-.612A21.993,21.993,0,0,1,74.34-8.514c.576-.918.63-1.008.918-1.134.306-.144.45-.216.45-.5,0-.162-.072-.252-.792-1.026-.162-.18-.468-.522-.81-.522-.126,0-.2.018-.5.27a7.046,7.046,0,0,1-2.556.486c-.234,0-.612-.036-.612-.306,0-.108.2-.594.2-.7a1.606,1.606,0,0,0-1.62-1.062c-.108,0-.342,0-.342.108,0,.126.288.7.288.846,0,1.026-1.476,3.564-3.618,5.886a5.906,5.906,0,0,0-.648.774.084.084,0,0,0,.09.09c.594,0,2.772-2.358,3.186-2.358.45,0,2.592,1.368,2.592,1.926S68.094-2.25,64.4-.162C64.062.036,64.026.036,64.008.108ZM71.37-6.678a1.015,1.015,0,0,1-.414-.126,20.077,20.077,0,0,0-1.98-.918c-.45-.18-.612-.234-.612-.486a15.924,15.924,0,0,1,1.53-2.016.283.283,0,0,1,.216-.072,1.028,1.028,0,0,1,.432.072,1.951,1.951,0,0,0,.54.072c.324,0,1.908-.234,2.178-.234.126,0,.306.054.306.252A9.058,9.058,0,0,1,71.37-6.678Zm5.058-8.028c-.324,0-.666.108-.666.234,0,.036.054.108.234.18a4.381,4.381,0,0,1,1.566,1.026c.342.414.558.666.936.666.324,0,.45-.342.45-.522C78.948-13.878,77.976-14.706,76.428-14.706Zm-1.422,1.512c-.108,0-.324.036-.324.126,0,.072.162.234.234.288a4.929,4.929,0,0,1,1.134,1.224c.432.684.612.882.9.882.324,0,.558-.432.558-.666C77.508-12.312,76.014-13.194,75.006-13.194Zm13.572.252c0,.126.018.126.414.288a11.274,11.274,0,0,1,3.42,1.638,4.064,4.064,0,0,0,1.332.774.6.6,0,0,0,.54-.63c0-1.764-3.294-2.2-4.968-2.2C88.866-13.068,88.578-13.014,88.578-12.942Zm.18,3.906c-1.044-.018-1.152-.018-1.152.144,0,.108.108.144.216.18a8.654,8.654,0,0,1,2.61,1.188c1.188.9,1.332,1.008,1.728,1.008a.719.719,0,0,0,.63-.7C92.79-8.73,89.64-9.036,88.758-9.036ZM94.77-1.044c0-2.16-5.472-3.636-7.164-3.636-.072,0-.324,0-.324.162,0,.09.036.108.45.252a12.254,12.254,0,0,1,4.7,2.934c.954,1.062,1.062,1.17,1.494,1.17A.846.846,0,0,0,94.77-1.044Zm12.744-6.21a9.8,9.8,0,0,1-2.2-.162c-.09-.018-.522-.216-.612-.216s-.144.108-.144.216c0,.612.828,1.728,1.6,1.728.216,0,1.188-.288,1.4-.324.432-.09,4.554-.324,7.038-.324.36,0,2.16.036,2.574.036.756,0,1.494-.054,1.494-.558,0-.126-.162-.792-1.26-.792-.09,0-.288.018-.4.018C114.39-7.488,108.108-7.254,107.514-7.254Zm18-3.4c-.234.252.63,1.458,1.53,1.458a1.374,1.374,0,0,0,.612-.234c.594-.342,4.32-1.926,5.364-1.926.036,0,.108,0,.108.036a3.521,3.521,0,0,1-.45.378c-2.592,2.322-2.61,6.138-2.61,6.93,0,.846,0,3.852,3.672,3.852.108,0,2.088,0,2.088-.954,0-.432-.324-.666-.882-.666-.162,0-1.44.108-1.71.108-1.062,0-2.2-.2-2.2-3.222,0-4.644,2.556-6.75,4.842-6.75.2,0,1.224.2,1.458.2a.719.719,0,0,0,.738-.666c0-.612-.81-.864-1.458-.864a48.811,48.811,0,0,0-6.912,1.62c-2.466.7-2.736.774-3.492.774C126.108-10.584,125.586-10.746,125.514-10.656Zm12.4,1.206a1.662,1.662,0,0,0-.45-.09c-.054,0-.252,0-.252.108,0,.09.072.162.162.234a4.663,4.663,0,0,1,1.188,1.44c.18.432.378.954.81.954.234,0,.522-.2.522-.666C139.9-8.334,138.978-9.108,137.916-9.45Zm-2.322.738c-.162-.036-.36-.018-.36.072a.976.976,0,0,0,.18.324,4.711,4.711,0,0,1,.9,1.4c.288.7.45,1.044.774,1.044a.73.73,0,0,0,.63-.738A2.6,2.6,0,0,0,135.594-8.712Zm9.936-1.512c-.054.018-.09.108-.09.18,0,.738,1.494,1.494,1.89,1.494a16.731,16.731,0,0,0,1.926-.72,22.294,22.294,0,0,1,3.186-.72c.36,0,.36.108.36,1.08,0,.918,0,1.026-.5,1.1-1.746.27-1.746,2.25-1.746,2.484,0,1.44.864,2.358,1.836,2.358.054,0,.324-.036.378-.036.18,0,.18.2.18.252a5.855,5.855,0,0,1-1.008,2.646c-.126.18-.864,1.044-.864,1.08,0,.054.054.072.09.072.558,0,3.276-2.232,3.276-5.724a5.706,5.706,0,0,0-.522-2.43,2.351,2.351,0,0,1-.234-1.17c0-1.584.036-1.836.288-1.944a8.4,8.4,0,0,1,1.944-.18c.342,0,2.016.162,2.394.162.63,0,.972-.162.972-.63,0-.63-.792-.7-1.026-.7-.144,0-.9.09-1.08.09a3.955,3.955,0,0,1-1.584-.36c-1.062-.45-1.584-.72-1.584-1.134,0-.09.072-.468.072-.558,0-.576-.7-.9-1.494-.9-.108,0-.378,0-.378.126,0,.09.288.414.306.5a10.75,10.75,0,0,1,.252,2.448c0,.468-.108.486-1.044.648a36.381,36.381,0,0,1-4.9.612C146.574-10.1,145.71-10.206,145.53-10.224Zm8.5-2.106a3.9,3.9,0,0,1,1.368.954c0,.27-1.17.306-1.242.306-.252,0-.324-.054-.324-.342C153.828-11.88,153.9-12.294,154.026-12.33ZM152.8-6.642a3.5,3.5,0,0,1,.234,1.26c0,.288-.018,1.368-.72,1.368a1.3,1.3,0,0,1-1.17-1.44c0-.918.576-1.656,1.026-1.656A.761.761,0,0,1,152.8-6.642Zm14.472,3.69a1.987,1.987,0,0,0-2,1.98,1.991,1.991,0,0,0,1.98,2.016,2.008,2.008,0,0,0,2.016-2A2,2,0,0,0,167.274-2.952Zm-.018.5a1.51,1.51,0,0,1,1.53,1.512A1.486,1.486,0,0,1,167.292.54,1.51,1.51,0,0,1,165.78-.972,1.456,1.456,0,0,1,167.256-2.448Zm27.036-11.484a2.713,2.713,0,0,1-.828-.09,8.468,8.468,0,0,0-1.026-.45c-.054,0-.054.072-.054.126,0,.2.072.99.072,1.152.072,1.206.072,2.61.072,4.824,0,1.638-.018,2-.054,2.574,0,.054-.054.756-.054.792,0,.468.216.558.45.558a.765.765,0,0,0,.738-.5c.09-.288.108-.414.378-.414H196.2c.18,0,.432,0,.486.4.054.324.054,2.52.054,3.024,0,.288-.036,1.566,0,1.818.108.918.972,1.08,2.646,1.08,1.44,0,1.854-.2,2.142-.45a1.054,1.054,0,0,0,.414-.612c0-.162-.522-.792-.576-.954a5.639,5.639,0,0,1-.216-1.26c-.018-.216-.036-.288-.108-.288-.108,0-.126.09-.216.576C200.538-.4,200.5-.162,199.368-.162c-.414,0-1.17-.036-1.368-.378a8.682,8.682,0,0,1-.126-1.926c0-.432,0-2.376.054-2.61.054-.252.324-.288.5-.288.36,0,.63,0,.7.306.054.234.09.432.432.432.846,0,.846-.72.846-.99,0-.954-.108-5.238-.108-6.1,0-.18.018-1.1.054-1.206.054-.126.54-.468.54-.576,0-.252-1.224-1.08-1.35-1.08s-.45.414-.54.468a1.06,1.06,0,0,1-.684.18Zm4.284,3.15c.576,0,.576.216.576.9,0,1.08,0,1.224-.576,1.224H194.22c-.558,0-.558-.2-.558-.954,0-1.008,0-1.17.558-1.17Zm-4.356-.486c-.558,0-.558-.162-.558-1.008,0-1.044,0-1.17.558-1.17h4.356c.558,0,.558.162.558.99,0,1.062,0,1.188-.558,1.188Zm.036,5.436c-.576,0-.576-.036-.576-1.728,0-.342,0-.612.558-.612h4.338c.558,0,.558.252.558.684,0,1.584-.036,1.656-.594,1.656Zm-8.1-2.286c.072.072.09.108.144.108s.288-.036.36-.036c.378-.036,1.134-.036,1.206-.036.468,0,.468.378.468.594,0,.342,0,3.474-.054,3.6-.126.27-1.854.36-2.178.36-.072,0-.378-.036-.45-.036-.108,0-.144.072-.144.162,0,.2.684,1.638.918,1.638.126,0,.252-.108.4-.27.252-.324.36-.36,1.368-.756,3.15-1.206,3.834-1.476,3.834-1.638,0-.072-.072-.072-.126-.072-.18,0-1.8.432-2.142.432a.176.176,0,0,1-.2-.144c-.036-.144-.036-2.808-.036-3.132,0-.486,0-.756.576-.756h.918c.342,0,.846,0,.846-.162a3.085,3.085,0,0,0-1.116-1.188c-.126,0-.216.108-.558.576-.18.27-.306.27-.4.27-.27,0-.27-.09-.27-.972,0-.612,0-2.646.054-2.772.09-.234.36-.234.522-.234h1.17c.54,0,.864,0,.864-.252,0-.216-1.4-1.188-1.512-1.188-.162,0-.306.18-.45.378-.36.486-.414.54-.558.558a8.418,8.418,0,0,1-1.4.036c-.288,0-1.674-.054-1.908-.072-.09,0-.5-.054-.594-.054-.036,0-.054.018-.054.036,0,.036.018.072.072.126l.306.414c.054.072.09.108.144.108a1.053,1.053,0,0,0,.234-.036c.306-.018,1.062-.054,1.386-.054.252,0,.5.054.522.468.018.36.018,2.43.018,2.934,0,.27,0,.594-.54.594-.27,0-1.656-.108-1.962-.108-.036,0-.054.018-.054.036,0,.036,0,.036.072.126ZM194.382-5.2c-.09-.036-.27-.054-.27.108,0,.054.072.342.072.414a6.078,6.078,0,0,1-.99,2.808A8.439,8.439,0,0,1,188.82.972c-.234.054-.4.072-.4.162,0,.072.09.144.234.144a9.525,9.525,0,0,0,3.276-.954,5.8,5.8,0,0,0,3.186-3.51c.36-1.062.378-1.08.594-1.152.126-.036.234-.072.234-.2C195.948-4.752,194.616-5.148,194.382-5.2Zm22-4.518c-.126,0-.36.018-.45-.126a31.327,31.327,0,0,1-.252-3.564.651.651,0,0,1,.072-.378,2.559,2.559,0,0,0,.378-.594c0-.45-1.854-.666-1.89-.666-.054,0-.144,0-.144.072,0,.108.18.612.2.72.09.54.414,4.374.414,4.392,0,.27-.054.27-.45.324l-.54.072h-.18c-.108,0-1.926.108-2.3.108-.126,0-.72-.036-.774-.036-.036,0-.072.018-.072.054,0,.018.018.036.09.108l.36.414c.072.072.09.108.162.108.09,0,.756-.108.9-.126.252-.036,1.476-.126,1.746-.162l.648-.072c.468-.054.522.252.558.612.846,6.858,3.978,9.792,6.264,9.792.27,0,.738-.09.738-.468a1.119,1.119,0,0,0-.18-.5,1.593,1.593,0,0,1-.252-.846c0-.27.252-1.692.252-1.746,0-.072-.036-.126-.09-.126-.072,0-.234.324-.288.414-.324.612-.756,1.368-1.134,1.368a1.437,1.437,0,0,1-.468-.162c-.648-.306-2.07-1.4-3.042-4.7a19.2,19.2,0,0,1-.666-3.4c0-.378.162-.4.468-.414l4.95-.306c.864-.054.954-.072.954-.288,0-.234-1.6-1.134-1.71-1.134-.18,0-.234.072-.72.684-.216.288-.306.288-1.134.36Zm-7.92,1.584c.09.018.108.234.108.306,0,2.142-.018,4.1-.09,6.246,0,.306-.108,1.71-.108,1.98,0,.36,0,.936.576.936.144,0,.846-.126.846-.792,0-1.242-.09-6.768-.09-7.884a7.259,7.259,0,0,1,.072-1.4c.018-.09.216-.45.216-.54s-.036-.108-.288-.252c-.054-.036-.162-.108-.162-.2a4.668,4.668,0,0,1,.432-.792c.522-.882,1.008-1.764,1.476-2.664a1.14,1.14,0,0,1,.5-.576c.162-.09.252-.144.252-.252,0-.27-1.62-1.062-1.71-1.062-.144,0-.18.18-.216.54a37.294,37.294,0,0,1-3.816,8.208c-.2.324-.216.36-.216.432,0,.054.018.144.126.144C206.766-5.76,208.3-8.172,208.458-8.136Zm9.4-5.58c-.36,0-.522.018-.522.144,0,.072.126.162.216.234a3.108,3.108,0,0,1,.72.882c.45.738.612,1.026,1.044,1.026a.685.685,0,0,0,.63-.72,1.584,1.584,0,0,0-.936-1.278A3.375,3.375,0,0,0,217.854-13.716Zm12.078,8.532a14.034,14.034,0,0,1,1.386-4.644c.342-.612.342-.63.342-.828,0-.648-.756-2.286-1.584-2.286-.072,0-.144.036-.144.09a2.279,2.279,0,0,0,.108.324,4.409,4.409,0,0,1,.18,1.278,6.112,6.112,0,0,1-.306,1.872,12.939,12.939,0,0,0-.756,3.924c0,1.728.828,4.788,1.944,4.788a.6.6,0,0,0,.594-.612,1.941,1.941,0,0,0-.216-.792,3.21,3.21,0,0,1-.288-.936c0-.432.414-2.538.414-2.736,0-.036,0-.216-.09-.216s-.144.144-.252.45c-.4,1.116-.558,1.4-.864,1.4C230.112-4.1,229.932-4.644,229.932-5.184Zm9.324-6.66c-.18-.018-.234,0-.774.2a7.27,7.27,0,0,1-1.98.27,6.151,6.151,0,0,1-1.224-.108c-.234-.054-.45-.126-.5-.126-.108,0-.126.054-.126.09,0,.234,1.116,1.332,3.15,1.332.216,0,2.214,0,2.214-.882A.9.9,0,0,0,239.256-11.844Zm.774,8.928c-.072,0-1.332.126-1.584.144a15,15,0,0,1-1.566.054,4.431,4.431,0,0,1-1.926-.306,2.685,2.685,0,0,0-.432-.252c-.09,0-.09.144-.09.18,0,.342.468.81.558.9a3.676,3.676,0,0,0,2.808.81c2.52,0,3.06-.216,3.06-.918C240.858-2.52,240.714-2.916,240.03-2.916Zm20.538-7.128a2.3,2.3,0,0,0-1.944,1.134c0,.054.018.072.072.072a.4.4,0,0,0,.18-.054,1.563,1.563,0,0,1,.7-.18c.612,0,1.512.252,1.512.972a.947.947,0,0,1-.072.324,1.24,1.24,0,0,0-.054.144.084.084,0,0,0,.09.09c.072,0,.45-.108.54-.126.09,0,.5.036.612.036.378,0,.594-.486.594-.864C262.8-9.324,261.954-10.044,260.568-10.044Zm-6.606-.522c-.036.018-.072.054-.072.072,0,.036.09.216.09.252,0,.252-.5.45-.63.45-.108,0-.144-.126-.144-.2a9.618,9.618,0,0,1,.18-1.17,7.254,7.254,0,0,0,.378-.936,1.8,1.8,0,0,0-1.854-1.224c-.108,0-.4.036-.4.2a1.8,1.8,0,0,0,.252.288,1.767,1.767,0,0,1,.594,1.44,13.461,13.461,0,0,1-.18,1.962,7.863,7.863,0,0,1-2.286.54,5.229,5.229,0,0,1-.828-.09c-.054,0-.27-.072-.324-.072a.128.128,0,0,0-.144.126c0,.126.684,1.368,1.3,1.368a3.86,3.86,0,0,0,1.278-.342A4.21,4.21,0,0,1,252-8.064c.2,0,.252.27.252.4.018.306.036,1.836.036,2.25,0,.5-.108.558-1.026,1.008a3.847,3.847,0,0,1-1.872.612c-.108,0-.63-.09-.738-.09-.324,0-.522.378-.522.7,0,.594.918,1.134,1.116,1.134a3.556,3.556,0,0,0,.684-.36,1.5,1.5,0,0,1,.45-.108c.234,0,.324,0,.9,1.116.144.288.342.666.828.666.648,0,.918-1.188.918-2.016,0-.18-.054-.99-.054-1.188,0-.306.108-.36,1.116-.9a9.193,9.193,0,0,1,3.726-1.35,1.865,1.865,0,0,1,1.728,1.98c0,1.44-1.512,2.232-2.7,2.232-.18,0-1.17,0-1.17-.864a.745.745,0,0,1,.162-.486c.036-.054.072-.09.072-.144a.1.1,0,0,0-.09-.09,1.6,1.6,0,0,0-.9,1.422c0,.936.828,1.458,1.854,1.458,1.476,0,3.978-1.08,3.978-3.456a2.756,2.756,0,0,0-2.772-2.718,8.459,8.459,0,0,0-3.06.72c-.288.108-1.764.72-1.818.72-.162,0-.162-.216-.162-.324,0-.09,0-1.548.036-1.944.036-.63.054-.7.306-.792.432-.18,1.8-.72,1.8-1.314C255.078-10.35,254.214-10.6,253.962-10.566Zm-1.782,6.84c.054.036.054.216.054.288,0,.882-.252,1.386-.5,1.386-.27,0-.756-.576-.756-.846C250.974-3.15,252.126-3.726,252.18-3.726ZM280.35-8.91c.054-.09.162-.144.72-.414.414-.2,1.026-.558,1.026-1.1,0-.45-.846-.576-.972-.576-.18,0-.18.018-.36.27a.749.749,0,0,1-.468.288c-.144,0-.18-.144-.18-.45a5.655,5.655,0,0,1,.054-.936c.018-.126.288-.666.288-.81,0-.36-1.062-.846-1.566-.846-.252,0-.468.108-.468.2a2.185,2.185,0,0,0,.252.36,8.354,8.354,0,0,1,.306,2.142c0,.612-.072.684-.162.756a5.276,5.276,0,0,1-2.106.324,8.039,8.039,0,0,1-1.134-.108c-.126-.018-.306-.108-.414-.108-.036,0-.054.036-.054.072,0,.378.792,1.242,2.556,1.242.144,0,.936-.054,1.116-.054.288,0,.324.108.324.72,0,3.438-.126,5.184-1.692,7.218-.144.2-1.026,1.152-1.026,1.206s.054.054.09.054a5.614,5.614,0,0,0,2.7-2.268c.972-1.494,1.116-2.97,1.116-6.7A1.607,1.607,0,0,1,280.35-8.91Zm-9.522-4.122c-.144,0-.144.09-.144.144a1.535,1.535,0,0,0,.108.36,3.874,3.874,0,0,1,.18,1.224,11.5,11.5,0,0,1-.216,1.944,24.226,24.226,0,0,0-.45,4.068,9.254,9.254,0,0,0,.486,3.024c.306.99.774,2.016,1.458,2.016a.575.575,0,0,0,.612-.558,2.145,2.145,0,0,0-.216-.72,1.579,1.579,0,0,1-.216-.81,15.237,15.237,0,0,1,.342-2.358c.072-.324.432-1.89.432-2.034,0-.054-.018-.126-.072-.126-.306,0-1.224,3.222-1.6,3.222-.216,0-.414-1.026-.414-1.836a12.192,12.192,0,0,1,.594-3.384,13.764,13.764,0,0,0,.648-1.89C272.358-11.826,271.314-13.032,270.828-13.032ZM298.1-1.566c-.252,0-.36-.162-.612-.486A2.657,2.657,0,0,0,295.434-3.2a1.733,1.733,0,0,0-1.782,1.458c0,.9,1.278,1.854,3.06,1.854,2.286,0,4.5-1.6,4.5-3.888a3.885,3.885,0,0,0-4.05-3.744,4.354,4.354,0,0,0-1.584.288c-.108.036-.342.126-.45.162-.054,0-.108-.072-.108-.126a10.977,10.977,0,0,1,2.88-3.69c.864-.594,1.278-.882,1.278-1.4,0-.792-1.17-1.242-1.89-1.242-.4,0-.522.054-1.638.54a8.728,8.728,0,0,1-2.79.648c-.378,0-.432,0-.432.054,0,.09.558,1.242,1.4,1.242.306,0,.558-.054,1.278-.648.306-.252,1.368-1.152,2.034-1.152.216,0,.342.126.342.252,0,.2-.252.576-.846,1.422a59.282,59.282,0,0,1-4.068,5.418c-1.278,1.494-1.422,1.89-1.422,2.34a.5.5,0,0,0,.522.5c.486,0,.666-.342,1.026-.954.324-.558,1.854-3.024,4.23-3.024a2.849,2.849,0,0,1,3.042,2.736A2.663,2.663,0,0,1,298.1-1.566Zm-1.656.18a.3.3,0,0,1-.306.324c-.774,0-1.548-.378-1.548-.846a.736.736,0,0,1,.756-.63A1.224,1.224,0,0,1,296.442-1.386Zm20.7-12.024c.054-.072.144-.09.288-.108.162-.036.306-.09.306-.288,0-.324-.36-.432-1.224-.666-.162-.036-.936-.288-1.044-.288a.154.154,0,0,0-.144.144,2.548,2.548,0,0,0,.072.36,4.938,4.938,0,0,1,.072,1.1,22.635,22.635,0,0,1-2.052,9.252A13.349,13.349,0,0,1,309.15.72c-.144.09-.234.162-.234.216,0,.072.054.09.108.09a9.948,9.948,0,0,0,5.238-4.284,20.753,20.753,0,0,0,2.3-7.7c.072-.648.072-.72.18-.72.072,0,.072.018.09.216A19.443,19.443,0,0,0,318.564-4.5C320.31-.684,322.6.738,322.668.738c.054,0,.108-.054.45-.306a3.584,3.584,0,0,1,1.242-.54c.576-.126.63-.126.63-.216,0-.072-.126-.108-.18-.126-2.772-.72-4.806-4.014-5.112-4.5a19.576,19.576,0,0,1-2.61-8.244A.346.346,0,0,1,317.142-13.41ZM333.558-2.682c0,2.826,2.61,2.826,3.438,2.826.954,0,4.626-.09,4.626-1.008,0-.45-.576-.864-1.188-.864a4.9,4.9,0,0,0-1.35.27,8.052,8.052,0,0,1-2.16.324c-1.458,0-2.5-.45-2.5-1.674,0-1.17.612-2.484,4.9-4.212.648-.252,1.386-.54,1.386-1.08a.691.691,0,0,0-.684-.666,5.56,5.56,0,0,0-1.854.846c-.972.612-1.08.684-1.332.684-.468,0-.468-1.458-.468-2.142a16.939,16.939,0,0,1,.162-2.376c.036-.18.252-.99.252-1.152,0-.522-.918-1.35-1.944-1.35-.054,0-.486.018-.486.09,0,.054.054.108.432.5a1.682,1.682,0,0,1,.54,1.458c0,.468-.09,2.556-.09,2.97a5.789,5.789,0,0,0,.306,2.106,4.575,4.575,0,0,1,.162.558c0,.234-.234.468-.774.972A4.08,4.08,0,0,0,333.558-2.682Zm21.2-9.27c.414,0,.522.09.522.36,0,1.278-2.142,4.032-4.68,5.112-.054.036-.27.126-.27.162,0,.072.072.072.09.072a5.711,5.711,0,0,0,1.746-.54A7.954,7.954,0,0,0,355.446-9.2c.2-.234,1.026-1.422,1.17-1.494.4-.18.54-.252.54-.432,0-.09,0-.144-.4-.4-.162-.09-.45-.27-.45-.324,0-.108.126-.108.414-.108h1.692a.436.436,0,0,1,.468.432c.036.594.036,2.034.036,2.7,0,1.638.4,1.638,3.168,1.638a9.807,9.807,0,0,0,2.592-.18c.594-.162,1.08-.648,1.08-1.026,0-.126-.018-.144-.27-.342-.306-.234-.306-.522-.306-.882.018-.468.018-.54-.09-.54a5.674,5.674,0,0,0-.63,1.026c-.486.756-.666.756-2.412.756-1.566,0-1.836-.054-1.962-.522a18.778,18.778,0,0,1-.126-2.5c0-.18,0-.558.468-.558h2.322c.216,0,.342,0,.342.126a8.072,8.072,0,0,1-.576,1.062c0,.036.018.09.072.09a7.828,7.828,0,0,0,.7-.414,2.194,2.194,0,0,1,1.062-.378c1.494-.036,1.638-.018,1.638-.378,0-.09,0-.234-.45-.54a13.536,13.536,0,0,0-1.6-.99c-.108,0-.216.216-.324.432a.7.7,0,0,1-.738.522h-3.906c-.45,0-.45-.36-.45-.522a3.127,3.127,0,0,1,.144-1.1c.036-.09.378-.45.378-.54,0-.288-1.44-.558-1.8-.558-.216,0-.234.108-.234.144a2.718,2.718,0,0,0,.162.324,5.351,5.351,0,0,1,.09,1.044c0,.864,0,1.206-.486,1.206h-4.194a.616.616,0,0,1-.648-.324c-.27-.4-.522-.774-.63-.774-.09,0-.108.234-.108.306a4.528,4.528,0,0,1-.36,1.638,6.981,6.981,0,0,0-.648,1.188c0,.234.234.468.648.468.684,0,1.188-.684,1.332-1.422.126-.594.162-.612.576-.612Zm-.216,6.768c-.954,0-1.692-.018-2.466-.054-.126,0-.666-.072-.792-.072-.054,0-.072.018-.072.054,0,.018,0,.036.072.108l.36.432c.018.018.108.108.144.108.054,0,.324-.054.4-.054.63-.036,1.818-.054,2.268-.054H356.9c.468,0,.468.36.468.882,0,.45-.036,2.646-.054,3.15,0,.18,0,.576-.468.576h-4.032c-.666,0-2.07-.036-2.61-.072-.09,0-.558-.054-.648-.054-.054,0-.072.018-.072.054,0,.018.018.036.072.108l.36.414c.054.072.09.108.162.108.054,0,.306-.036.378-.036C351.09.36,352.3.36,352.854.36h12.762c.27,0,.45-.018.45-.216a5.092,5.092,0,0,0-1.638-1.584c-.162,0-.216.072-.684.792-.216.36-.342.54-.738.54h-3.888c-.018,0-.414,0-.45-.36-.018-.18-.018-2.826-.018-3.132,0-.738,0-1.116.468-1.116h5c.306,0,.468-.072.468-.252,0-.27-1.4-1.278-1.674-1.278-.144,0-.27.036-.738.612-.378.45-.594.45-.774.45Zm18.4-8.694c-.252,0-.306-.018-.774-.27a2.679,2.679,0,0,0-.846-.324c-.072,0-.072.108-.072.18,0,.018.09,1.512.108,1.656.018.234.018,2.934.018,4.032,0,1.98,0,3.168-.18,8.514,0,.234-.018.666-.018.72,0,.126,0,.63.468.63.936,0,.936-.972.936-1.3,0-.432-.054-2.34-.072-2.736-.018-.684-.018-3.726-.018-4.554a8.647,8.647,0,0,1,.054-1.278c.09-.234.378-.234.666-.234h2.232c.342,0,.54,0,.594.378.036.288.09.63.522.63.252,0,.756-.18.756-1.17,0-.522-.09-2.808-.09-3.276,0-.486,0-.63.126-.792.054-.072.342-.342.342-.432,0-.252-.9-.918-1.1-.918-.162,0-.306.144-.486.342a.56.56,0,0,1-.5.2Zm2.664.486c.36,0,.522,0,.522.36v.972c0,.468-.108.468-.522.468h-2.574c-.36,0-.522,0-.522-.378v-.972c0-.45.108-.45.522-.45Zm-.036,2.268c.4,0,.54.018.54.414v1.026c0,.36-.18.36-.54.36h-2.538c-.4,0-.54,0-.54-.4v-1.044c0-.36.18-.36.54-.36Zm5.274-2.79a.776.776,0,0,1-.468-.108,2.483,2.483,0,0,0-.846-.288c-.162,0-.2.216-.2.306,0,.306.09,1.638.09,1.908s0,3.816.018,3.924a.4.4,0,0,0,.432.342c.324,0,.774-.18.828-.576.054-.288.108-.378.522-.378h2.34c.45,0,.7,0,.7.558,0,2.574-.036,7.092-.054,7.272-.054.5-.234.594-1.4.648-.18,0-.846.036-.846.126,0,.162.756.36.882.432a1.247,1.247,0,0,1,.5.522c.18.306.306.486.5.486A2.989,2.989,0,0,0,384.7.972c.63-.324.72-.756.72-1.476,0-1.854-.036-10.026-.036-11.682,0-.648,0-.7.288-.954.108-.09.2-.18.2-.288,0-.342-1.026-.918-1.17-.918-.108,0-.18.054-.4.288a.4.4,0,0,1-.378.144Zm.27,2.232c-.252,0-.45,0-.486-.27-.018-.072-.018-.81-.018-1.08,0-.414.2-.414.5-.414h2.646c.288,0,.45,0,.5.27v1.1c0,.4-.18.4-.5.4Zm.036,2.43c-.378,0-.522,0-.522-.4v-1.188c0-.36.162-.36.522-.36h2.61c.36,0,.5,0,.5.378V-9.63c0,.378-.162.378-.5.378Zm-4.374,2.628c-.216,0-1.134-.432-1.332-.432-.09,0-.162.018-.162.162,0,.09.054.486.054.558.054.648.054,2.376.054,2.466,0,.756-.018,1.3-.072,2.232-.018.162-.036.648-.036.774,0,.558.18.648.414.648.45,0,.756-.306.828-.846.036-.342.126-.414.54-.414H379.3c.36,0,.594,0,.594.432,0,.27,0,.648.4.648a1.15,1.15,0,0,0,.756-.4c.162-.2.162-.432.162-.918,0-.432-.054-3.276,0-3.744a.793.793,0,0,1,.252-.54.407.407,0,0,0,.108-.234c0-.324-.882-.918-1.062-.918-.162,0-.36.2-.5.36a.429.429,0,0,1-.414.162Zm2.736.486c.342,0,.468,0,.468.45v1.026c-.054.252-.2.252-.468.252h-2.538c-.27,0-.414,0-.468-.252v-.9c0-.54.036-.576.468-.576Zm-.036,2.214c.36,0,.432,0,.486.252.018.09.018,1.08.018,1.242,0,.468-.108.468-.5.468H377.01c-.324,0-.5,0-.5-.342V-3.546c0-.378.162-.378.5-.378Zm19.8-8.316a4.636,4.636,0,0,1,4.986,4.986c0,4.482-3.906,6.03-5.778,6.768-.45.18-.486.2-.486.252,0,.108.108.126.18.126a11.063,11.063,0,0,0,2.988-.666A6.713,6.713,0,0,0,405.7-7.11a5.642,5.642,0,0,0-3.132-5.238,5.864,5.864,0,0,0-2.9-.576,7.447,7.447,0,0,0-5.742,2.34,6.341,6.341,0,0,0-2,4.59c0,2.2,1.062,4.05,2.25,4.05.72,0,1.638-.432,3.078-2.628a9.233,9.233,0,0,0,1.854-5.274,13.8,13.8,0,0,0-.18-1.944c0-.072-.036-.144-.036-.2C398.9-12.1,398.916-12.24,399.276-12.24Zm-1.008.054c.234,0,.306.09.306,1.17a10.3,10.3,0,0,1-1.764,5.238c-1.242,1.872-1.674,2.088-2.2,2.088-1.1,0-1.566-1.6-1.566-2.772C393.048-9.864,396.558-12.186,398.268-12.186ZM424.782-9.81c.378,0,.576,0,.576.486V-2.97c0,2.376-.072,2.43-.252,2.592a5.353,5.353,0,0,1-1.512.18c-.18,0-.234,0-.234.054,0,.072,1.062.648,1.17.846.288.54.324.594.468.594a2.831,2.831,0,0,0,.882-.4c.648-.486.774-1.116.774-2.214,0-1.584-.216-8.586-.216-10.008,0-1.242,0-1.386.324-1.692.234-.216.306-.306.306-.432,0-.414-1.134-.972-1.26-.972-.108,0-.486.414-.558.468a.755.755,0,0,1-.4.09H421.92a.892.892,0,0,1-.558-.144,2.424,2.424,0,0,0-.882-.324c-.162,0-.2.2-.2.288,0,.306.09,1.6.09,1.872v2.7c0,.234.072.5.45.5a.849.849,0,0,0,.828-.576c.09-.252.2-.27.576-.27ZM422.064-12.1c-.5,0-.5-.09-.5-.954,0-.342.234-.342.5-.342h2.808c.486,0,.486.108.486.972,0,.324-.234.324-.486.324Zm2.808.486c.18,0,.486,0,.486.288,0,.774,0,.864-.09.954a.626.626,0,0,1-.4.072h-2.826c-.486,0-.486-.108-.486-.576,0-.684,0-.738.486-.738Zm-9.36,5.418c.054.072.09.126.144.126a3.456,3.456,0,0,0,.4-.054c.414-.018,1.4-.036,1.746-.036.684,0,.864,0,.864.432a4.692,4.692,0,0,1-.09,1.206c-.072.108-.162.108-1.008.108-.612,0-2.106-.072-2.3-.072-.09,0-.54-.054-.648-.054a.048.048,0,0,0-.054.054.274.274,0,0,0,.072.108l.342.414c.054.072.108.126.162.126.108,0,.468-.054.54-.054.72-.036,1.584-.036,2.358-.036.2,0,.378,0,.378.2a1.95,1.95,0,0,1-.234.648A6.522,6.522,0,0,1,415.35-.27c-.378.216-.414.252-.414.306,0,.036.054.09.144.09a6.758,6.758,0,0,0,4.176-2.97c.2-.36.216-.414.288-.414.09,0,.126.072.558.612a9.1,9.1,0,0,0,2.646,2.52c.072,0,.144-.162.162-.216a1.848,1.848,0,0,1,1.26-.864c.216-.054.252-.072.252-.126,0-.072-.054-.09-.126-.108-.342-.072-.9-.2-1.17-.288-1.152-.36-3.42-1.728-3.42-2.016,0-.18.108-.18.486-.18h3.51c.594,0,.954,0,.954-.252a2.51,2.51,0,0,0-1.188-1.134c-.18,0-.72.756-.9.828a2.375,2.375,0,0,1-.882.072h-1.458c-.252,0-.4,0-.4-.216,0-.162.072-.936.09-1.1.018-.432.27-.432.612-.432h2.61c.594,0,.954,0,.954-.252,0-.27-1.026-1.08-1.26-1.08-.162,0-.2.054-.558.576-.2.27-.288.27-1.152.27h-.306c-.126,0-.2,0-.2-.054a7.793,7.793,0,0,1,1.656-1.278c.468-.126.522-.144.522-.324a4.084,4.084,0,0,0-1.17-.99c-.054,0-.09.036-.108.126a2.774,2.774,0,0,1-.378.954c-1.026,1.422-1.152,1.566-1.71,1.566H418.41c-.846,0-1.6-.018-2.466-.054-.126,0-.684-.072-.81-.072a.048.048,0,0,0-.054.054c0,.018,0,.036.072.108Zm-1.728-7.632a1.491,1.491,0,0,1-.666-.144c-.054-.018-.738-.288-.828-.288s-.09.126-.09.216c0,.252.072,1.314.072,1.53.036.72.018,1.242.018,3.51,0,3.942,0,5.49-.036,7.2,0,.378-.072,2.052-.072,2.394,0,.216.018.7.486.7a1,1,0,0,0,.9-1.08c0-.126-.036-.648-.036-.792-.054-.846-.036-4.7-.036-6.228,0-.324,0-2.628.018-2.736.054-.306.288-.324.558-.324h2.538c.378,0,.45,0,.54.216.144.324.18.432.486.432.81,0,.81-.63.81-1.026a22.318,22.318,0,0,1,.036-2.556c.018-.126.4-.522.4-.63,0-.306-.774-.918-1.062-.918-.18,0-.27.09-.522.342a.627.627,0,0,1-.54.18Zm2.952.486c.5,0,.5.054.5.684,0,.486,0,.558-.5.558h-2.7c-.522,0-.522-.036-.522-.684,0-.486,0-.558.522-.558Zm-.018,1.728c.5,0,.5.09.5.954,0,.324-.252.324-.5.324h-2.7c-.5,0-.5-.09-.5-.648s0-.63.5-.63Zm.468,2.79a3.517,3.517,0,0,0-.972-.324.1.1,0,0,0-.108.108.323.323,0,0,0,.072.162c.36.468.7.972.918,1.278.468.684.522.756.738.756.234,0,.5-.288.5-.756C418.338-8.028,418.122-8.388,417.186-8.82Zm28.566,3.2c.108.072.162.234.234.594.072.306.162.774.648.774.36,0,.756-.306.756-.936a2.864,2.864,0,0,0-1.206-2.088c-.36-.324-.81-.72-1.008-.72a.066.066,0,0,0-.072.072c0,.036.216.432.252.5a2.553,2.553,0,0,1,.324.972c0,.18-.126.27-.342.306-.324.036-3.492.216-3.636.216-.072,0-.378,0-.378-.144,0-.108.216-.342.414-.558.306-.342,1.6-1.836,1.872-2.124a9.446,9.446,0,0,1,1.35-1.242c.288-.162.36-.2.36-.36,0-.324-1.224-1.134-1.314-1.134-.108,0-.288.576-.324.666-.486.882-2.43,3.924-2.934,4.518-.36.414-.684.414-1.566.414H436.9c-.108-.018-.612-.126-.72-.126-.072,0-.09.072-.09.126a9.259,9.259,0,0,0,.45,1.53c.072.234.144.306.27.306s.522-.324.612-.36a31.344,31.344,0,0,1,3.4-.486c.36,0,.486.162.486.792,0,.414-.072,3.528-.09,3.87-.054.63-.072.918-.072,1.044a.494.494,0,0,0,.5.576c.036,0,.9-.036.9-.756,0-.756-.108-4.086-.108-4.77,0-.81.036-.972.738-1.116A22.1,22.1,0,0,1,445.752-5.616Zm-.108-9.144a1.216,1.216,0,0,0-.468.126,16.864,16.864,0,0,1-3.024.81,36.046,36.046,0,0,1-4.914.558c-.162,0-.2.054-.2.108,0,.216,1.386.216,1.62.216.144,0,2.232,0,3.906-.054.5-.018,2.934-.234,3.492-.234.072,0,.45.054.522.054.054,0,.252,0,.252-.162A8.167,8.167,0,0,0,445.644-14.76ZM434.826-10.4c-.018-.036,0-.09,0-.126,0-.09,1.422-3.006,1.836-3.114.27-.072.432-.108.432-.306,0-.414-1.656-1.1-1.71-1.1-.108,0-.108.036-.18.36a31.476,31.476,0,0,1-3.168,7.164c-.36.648-.4.72-.4.81,0,.036,0,.126.072.126A11.6,11.6,0,0,0,433.4-8.55c.4-.5.432-.558.5-.558.144,0,.162.216.162.45.018.234.036.936.036,1.728,0,1.188-.018,3.024-.072,4.7-.018.468-.108,2.7-.108,2.988,0,.378,0,.612.378.612.108,0,.936,0,.936-.612,0-1.278-.036-7.632-.036-9.054a2.525,2.525,0,0,1,.108-.9,2.864,2.864,0,0,0,.252-.468c0-.18-.252-.324-.342-.378C435.024-10.134,434.862-10.224,434.826-10.4Zm5.22.882a9.317,9.317,0,0,1,2.178-1.836c.306-.162.432-.216.432-.342,0-.27-1.1-1.062-1.26-1.062-.09,0-.126.054-.324.522a13.314,13.314,0,0,1-1.17,1.98c-.126.18-.234.288-.414.288a5.368,5.368,0,0,1-1.134-.63,2.28,2.28,0,0,0-.612-.252c-.054,0-.09.018-.09.09a10.5,10.5,0,0,0,.7.972,5.279,5.279,0,0,1,.738,1.782c.036.162.162.594.54.594a.854.854,0,0,0,.756-.954,1.456,1.456,0,0,0-.126-.594C440.064-9.36,440.046-9.4,440.046-9.522Zm4.032,6.012a.085.085,0,0,0-.054.09c0,.054.036.126.162.27a12.5,12.5,0,0,1,1.458,2.34c.612,1.4.684,1.548,1.116,1.548a.752.752,0,0,0,.666-.774C447.426-1.638,444.546-3.69,444.078-3.51Zm-5.31-.2c-.108,0-.108.018-.2.252A17.147,17.147,0,0,1,436.284.2a2.692,2.692,0,0,0-.306.414.084.084,0,0,0,.09.09,6.649,6.649,0,0,0,1.638-1.134c.27-.216,1.476-1.494,1.818-1.674.432-.234.558-.288.558-.468C440.082-2.9,438.858-3.708,438.768-3.708Zm16.83-1.17c.576,0,.774-.432.972-.882a3.1,3.1,0,0,1,2.214-1.908c.72,0,.864,1.008.864,1.818a.767.767,0,0,1-.27.63C457.686-3.852,457-3.276,457-2.124,457-.7,458.208.234,460.494.234c.432,0,3.222-.072,3.222-1.188,0-.432-.5-.612-.882-.612-.234,0-1.386.288-1.638.324a5.571,5.571,0,0,1-1.152.108c-.522,0-2.322,0-2.322-1.242,0-1.026,1.6-2.142,1.746-2.142.126,0,.126.144.126.216,0,.018-.054.882-.054,1.062,0,.324.072.918.558.918.666,0,.666-1.026.666-1.314,0-.162-.036-.918-.036-1.08,0-.378.018-.576.306-.756.324-.2,2.358-1.008,2.808-1.206,1.116-.486,2.538-1.08,2.538-1.926a1.7,1.7,0,0,0-1.692-1.6c-1.566,0-2.736,1.638-3.33,2.466a8.449,8.449,0,0,1-.738.972c-.036,0-.054-.036-.18-.342a1.623,1.623,0,0,0-1.53-1.1,1.682,1.682,0,0,0-.7.144,3.6,3.6,0,0,1-.558.2.066.066,0,0,1-.072-.072c0-.072.036-.126.126-.288a13.961,13.961,0,0,0,.972-1.944c.4-.918.414-.954.684-1.062.828-.324,2.142-.828,2.142-1.422,0-.378-.684-.468-.81-.468-.72-.054-.792-.09-.81-.324-.036-.4-.486-.558-.918-.558-.324,0-.792.144-.792.288,0,.108.378.432.432.522a1.443,1.443,0,0,1,.144.63c0,.36,0,.846-1.476.846a2.861,2.861,0,0,1-1.188-.324,4.043,4.043,0,0,0-.684-.342c-.108,0-.108.072-.108.126a1.91,1.91,0,0,0,1.6,1.584c.162,0,.9-.144,1.08-.144.072,0,.2.018.2.126a8.283,8.283,0,0,1-1.53,2.682c-1.224,1.422-1.728,2-1.728,2.538C454.914-4.986,455.256-4.878,455.6-4.878Zm3.87-7.524c0-.072.072-.576.324-.576.162,0,.612.036.612.27,0,.2-.864.432-.9.432S459.468-12.33,459.468-12.4Zm4.716,2.88a.554.554,0,0,1,.63.54c0,1.188-3.546,2.628-3.6,2.628s-.072-.054-.072-.09C461.142-6.732,462.69-9.522,464.184-9.522ZM8.136,21.906c-.036,0-.162,0-.162.072a.4.4,0,0,0,.108.216,2.047,2.047,0,0,1,.486,1.08c.054.63.072,4.3.072,4.446,0,.45.18,3.438.18,3.888,0,.414-.108.45-.378.45-.126,0-.774-.054-.936-.054-2.052,0-3.78.774-3.78,1.944,0,1.026,1.44,2.106,3.1,2.106a3,3,0,0,0,2.79-1.6c.234-.5.27-.558.45-.558a2.563,2.563,0,0,1,1.026.45,5.655,5.655,0,0,0,1.656.864.685.685,0,0,0,.648-.72c0-.576-1.17-1.08-2.286-1.566-.936-.4-1.044-.45-1.116-.72-.054-.2-.27-4.7-.27-5.04s.036-.45.18-.486c.036-.018,1.206-.018,1.242-.018,1.476,0,1.908-.432,1.908-.7,0-.288-.666-.792-1.134-.792a8,8,0,0,0-1.188.45,2.866,2.866,0,0,1-.756.144c-.2,0-.216-.054-.216-.288a11.664,11.664,0,0,1,.162-1.242,8.6,8.6,0,0,0,.27-.972A2.134,2.134,0,0,0,8.136,21.906Zm.54,11.43c.054.162-.27,1.494-2.232,1.494-1.3,0-1.908-.54-1.908-.882,0-.99,2.178-1.008,2.358-1.008C7.686,32.94,8.6,33.1,8.676,33.336ZM31.77,28.062c0,3.672-.54,5.76-3.492,7.992-.414.306-.45.342-.45.4,0,.036.036.054.072.054a4.649,4.649,0,0,0,1.3-.594c3.42-2.034,3.924-4.914,3.924-7.452,0-3.78-1.206-4.374-2.322-4.374-1.89,0-3.114,2.268-3.312,2.664-.126.234-.234.45-.324.45-.144,0-.144-.2-.144-.252a19.1,19.1,0,0,1,.4-2.232,11.249,11.249,0,0,0,.378-1.332,1.392,1.392,0,0,0-1.386-1.206.728.728,0,0,0-.486.126c0,.036.27.4.306.468a2,2,0,0,1,.234,1.116,12.3,12.3,0,0,1-.27,2.3,16.217,16.217,0,0,0-.324,2.862c0,1.422.4,2.916,1.224,2.916a.6.6,0,0,0,.648-.648,1.8,1.8,0,0,0-.162-.684,3.672,3.672,0,0,1-.234-1.332c0-1.908,1.44-4.428,2.97-4.428C31.41,24.876,31.77,26.082,31.77,28.062Zm19.35-4.518c-.4,0-.486-.2-.486-.558a2.15,2.15,0,0,1,.072-.594c.054-.108.468-.468.468-.558,0-.4-1.71-.7-1.782-.7-.2,0-.252.108-.252.162,0,.09.144.522.144.594.018.18.018.828.018,1.044,0,.486-.09.612-.5.612H47.34a2.28,2.28,0,0,1-1.224-.5c-.4-.27-.468-.288-.594-.288-.162,0-.216.036-.216.252,0,.4.072,2.106.072,2.448,0,.738-.018,8.874-.054,9.054-.036.2-.288.27-.558.306a12.993,12.993,0,0,1-1.44.126,4.055,4.055,0,0,1-.684-.054,2.093,2.093,0,0,0-.324-.072.114.114,0,0,0-.126.126c0,.144.954,2.124,1.242,2.124.09,0,.36-.324.432-.36a8.553,8.553,0,0,1,1.638-.594c.882-.234,5.544-1.854,5.706-1.854s.252.09.63.45a10.938,10.938,0,0,0,4.41,2.466c.2,0,.234-.072.324-.4.126-.45.864-.846,1.35-1.044.036-.018.216-.108.216-.144,0-.108-.126-.108-.18-.108a8.914,8.914,0,0,1-3.69-.666,4.871,4.871,0,0,1-2.088-1.386c0-.162.2-.234.378-.306a38.514,38.514,0,0,1,3.726-1.458c.486-.036.648-.036.648-.306,0-.18-.09-.252-.81-.864a6.305,6.305,0,0,0-.558-.486.306.306,0,0,0-.126-.018c-.09,0-.306.378-.36.432-.594.72-2.826,2.556-3.33,2.556-.468,0-1.71-2.142-1.71-2.718,0-.342.234-.342.4-.342h2.538c.144,0,.432,0,.54.216.09.162.234.486.594.486a.813.813,0,0,0,.774-.864c0-.162-.072-.864-.072-1.008-.036-.612-.036-1.926-.036-2.646,0-1.35.054-1.494.18-1.638.054-.09.486-.36.486-.45a2.614,2.614,0,0,0-1.26-1.188c-.162,0-.2.054-.486.45a.679.679,0,0,1-.666.27ZM47.088,29.43c-.522,0-.54-.162-.54-1.26,0-1.116.018-1.3.54-1.3h5.976c.5,0,.522.216.522,1.278s-.018,1.278-.522,1.278Zm0-3.024c-.54,0-.54-.27-.54-1.188,0-.936,0-1.188.54-1.188h5.994a.462.462,0,0,1,.522.522v1.314a.473.473,0,0,1-.522.54Zm2.106,3.51c.378,0,.432.108.486.378a13.48,13.48,0,0,0,.684,2.088c.09.234.63,1.332.63,1.4,0,.216-.072.234-.738.342-.2.036-3.15.414-3.276.414-.342,0-.414-.27-.414-.468,0-.432-.036-3.114-.036-3.33,0-.54,0-.828.5-.828Zm21.492-8.244c-.036.054,0,.126.054.216a1.711,1.711,0,0,1,.45,1.044c0,.666-.666,1.6-2.448,3.834-1.224,1.53-1.458,2.07-1.458,2.556,0,.378.144.648.7,1.332a20.48,20.48,0,0,1,2.988,4.554c.378,1.062.486,1.4,1.044,1.4a.766.766,0,0,0,.774-.846c0-1.242-2.448-3.888-4.05-5.634a1.441,1.441,0,0,1-.54-.99c0-.774,4.824-5.436,4.824-5.922,0-.666-1.782-1.584-2.214-1.584C70.758,21.636,70.7,21.636,70.686,21.672Zm13.284,4.1c-.054.018-.09.108-.09.18,0,.738,1.494,1.494,1.89,1.494a16.731,16.731,0,0,0,1.926-.72,22.3,22.3,0,0,1,3.186-.72c.36,0,.36.108.36,1.08,0,.918,0,1.026-.5,1.1-1.746.27-1.746,2.25-1.746,2.484,0,1.44.864,2.358,1.836,2.358.054,0,.324-.036.378-.036.18,0,.18.2.18.252a5.855,5.855,0,0,1-1.008,2.646c-.126.18-.864,1.044-.864,1.08,0,.054.054.072.09.072.558,0,3.276-2.232,3.276-5.724a5.706,5.706,0,0,0-.522-2.43,2.351,2.351,0,0,1-.234-1.17c0-1.584.036-1.836.288-1.944a8.4,8.4,0,0,1,1.944-.18c.342,0,2.016.162,2.394.162.63,0,.972-.162.972-.63,0-.63-.792-.7-1.026-.7-.144,0-.9.09-1.08.09a3.955,3.955,0,0,1-1.584-.36c-1.062-.45-1.584-.72-1.584-1.134,0-.09.072-.468.072-.558,0-.576-.7-.9-1.494-.9-.108,0-.378,0-.378.126,0,.09.288.414.306.5a10.751,10.751,0,0,1,.252,2.448c0,.468-.108.486-1.044.648a36.381,36.381,0,0,1-4.9.612C85.014,25.9,84.15,25.794,83.97,25.776Zm8.5-2.106a3.9,3.9,0,0,1,1.368.954c0,.27-1.17.306-1.242.306-.252,0-.324-.054-.324-.342C92.268,24.12,92.34,23.706,92.466,23.67Zm-1.224,5.688a3.5,3.5,0,0,1,.234,1.26c0,.288-.018,1.368-.72,1.368a1.3,1.3,0,0,1-1.17-1.44c0-.918.576-1.656,1.026-1.656A.761.761,0,0,1,91.242,29.358Zm22.176,5.076c-.252,0-.36-.162-.612-.486a2.657,2.657,0,0,0-2.052-1.152,1.733,1.733,0,0,0-1.782,1.458c0,.9,1.278,1.854,3.06,1.854,2.286,0,4.5-1.6,4.5-3.888a3.885,3.885,0,0,0-4.05-3.744,4.354,4.354,0,0,0-1.584.288c-.108.036-.342.126-.45.162-.054,0-.108-.072-.108-.126a10.977,10.977,0,0,1,2.88-3.69c.864-.594,1.278-.882,1.278-1.4,0-.792-1.17-1.242-1.89-1.242-.4,0-.522.054-1.638.54a8.728,8.728,0,0,1-2.79.648c-.378,0-.432,0-.432.054,0,.09.558,1.242,1.4,1.242.306,0,.558-.054,1.278-.648.306-.252,1.368-1.152,2.034-1.152.216,0,.342.126.342.252,0,.2-.252.576-.846,1.422a59.288,59.288,0,0,1-4.068,5.418c-1.278,1.494-1.422,1.89-1.422,2.34a.5.5,0,0,0,.522.5c.486,0,.666-.342,1.026-.954.324-.558,1.854-3.024,4.23-3.024a2.849,2.849,0,0,1,3.042,2.736A2.663,2.663,0,0,1,113.418,34.434Zm-1.656.18a.3.3,0,0,1-.306.324c-.774,0-1.548-.378-1.548-.846a.736.736,0,0,1,.756-.63A1.224,1.224,0,0,1,111.762,34.614Zm17.73-11.394a5.724,5.724,0,0,0-.594-.18c-.036,0-.09,0-.09.054,0,.18.828,1.314,3.168,1.746.522.09.576.108.576.216,0,.216-.99,1.062-.99,1.224,0,.036.036.036.054.036.072,0,.072.018.252-.09a4.945,4.945,0,0,1,2.268-.864c1.242-.09,1.4-.09,1.4-.414a1.891,1.891,0,0,0-1.764-1.44c-.2,0-1.206.036-1.422.036A10.791,10.791,0,0,1,129.492,23.22Zm1.71,10.35c-1.278,0-2.952-.54-3.456-1.8-.036-.09-.162-.666-.288-.666-.036,0-.234.2-.234.882,0,2.826,3.8,3.15,5.58,3.15.99,0,4.05-.09,4.05-1.062a1.117,1.117,0,0,0-1.188-.846c-.09,0-2.826.378-3.366.378C132.12,33.606,131.328,33.57,131.2,33.57Zm17.676-.252c0,2.826,2.61,2.826,3.438,2.826.954,0,4.626-.09,4.626-1.008,0-.45-.576-.864-1.188-.864a4.9,4.9,0,0,0-1.35.27,8.051,8.051,0,0,1-2.16.324c-1.458,0-2.5-.45-2.5-1.674,0-1.17.612-2.484,4.9-4.212.648-.252,1.386-.54,1.386-1.08a.691.691,0,0,0-.684-.666,5.56,5.56,0,0,0-1.854.846c-.972.612-1.08.684-1.332.684-.468,0-.468-1.458-.468-2.142a16.945,16.945,0,0,1,.162-2.376c.036-.18.252-.99.252-1.152,0-.522-.918-1.35-1.944-1.35-.054,0-.486.018-.486.09,0,.054.054.108.432.5a1.682,1.682,0,0,1,.54,1.458c0,.468-.09,2.556-.09,2.97a5.788,5.788,0,0,0,.306,2.106,4.577,4.577,0,0,1,.162.558c0,.234-.234.468-.774.972A4.08,4.08,0,0,0,148.878,33.318Zm19.044-4.626c.36,0,2.034-.72,2.43-.72.108,0,.126.09.126.144a4.838,4.838,0,0,1-.252.846,10.545,10.545,0,0,1-2.214,4.068c-1.08,1.188-1.206,1.332-1.206,1.71a.529.529,0,0,0,.576.576c1.458,0,3.2-4.428,3.924-6.876.18-.612.2-.684.27-.774a3.913,3.913,0,0,1,1.728-.432c.522,0,1.242.09,1.242,1.35a14.311,14.311,0,0,1-.558,3.132c-.522,1.944-1.188,2.2-1.71,2.2a4.48,4.48,0,0,1-.918-.126,3.284,3.284,0,0,0-.45-.126.085.085,0,0,0-.09.09c0,.054.2.468.234.594.216.612.4,1.242,1.062,1.242a2.791,2.791,0,0,0,1.836-1.1c1.044-1.26,1.548-4.356,1.548-5.778a2.126,2.126,0,0,0-2.394-2.3c-.144,0-.972.09-1.062.09-.126,0-.2-.054-.2-.162,0-.342.684-2.646.684-2.664,0-.468-.7-1.152-1.908-1.152-.072,0-.288.018-.288.144,0,.054.036.09.306.414a2.278,2.278,0,0,1,.45,1.53c0,.09-.018,1.908-.324,2.124a30.1,30.1,0,0,1-3.024.54c-.2,0-1.134-.252-1.188-.252a.159.159,0,0,0-.162.144C166.392,27.558,167.22,28.692,167.922,28.692Zm11.988.81a3.316,3.316,0,0,0-3.15-3.186c-.054,0-.126,0-.126.108,0,.072.288.2.432.27a2.314,2.314,0,0,1,1.458,2.07c0,.486-.072.54-.738,1.044-.108.09-.7.4-.7.5,0,.072.45.09.576.126a9.066,9.066,0,0,0,1.224.54C179.64,30.978,179.91,29.718,179.91,29.5Zm-1.35-7.578c-.216,0-.648.108-.648.252,0,.054.054.126.234.18a4.961,4.961,0,0,1,1.6.954c.36.414.558.648.954.648a.494.494,0,0,0,.45-.522C181.152,23.094,180.792,21.924,178.56,21.924Zm-1.566,1.458c-.162,0-.306.108-.306.162,0,.072.18.216.27.27a4.865,4.865,0,0,1,1.278,1.062c.558.666.7.774.954.774.306,0,.522-.4.522-.7C179.712,24.732,179.3,23.382,176.994,23.382Zm14.184-.324c0,.126.018.126.414.288a11.274,11.274,0,0,1,3.42,1.638,4.064,4.064,0,0,0,1.332.774.6.6,0,0,0,.54-.63c0-1.764-3.294-2.2-4.968-2.2C191.466,22.932,191.178,22.986,191.178,23.058Zm.18,3.906c-1.044-.018-1.152-.018-1.152.144,0,.108.108.144.216.18a8.654,8.654,0,0,1,2.61,1.188c1.188.9,1.332,1.008,1.728,1.008a.719.719,0,0,0,.63-.7C195.39,27.27,192.24,26.964,191.358,26.964Zm6.012,7.992c0-2.16-5.472-3.636-7.164-3.636-.072,0-.324,0-.324.162,0,.09.036.108.45.252a12.254,12.254,0,0,1,4.7,2.934c.954,1.062,1.062,1.17,1.494,1.17A.846.846,0,0,0,197.37,34.956Zm20.124-7.146c0,1.548-2.106,4.932-5.94,7.866a7.687,7.687,0,0,0-1.008.756.116.116,0,0,0,.108.108,15.761,15.761,0,0,0,7.326-6.354,14.674,14.674,0,0,1,.918-1.548c.306-.18.378-.2.378-.342,0-.522-.72-.954-1.008-1.1a4,4,0,0,0-.81-.45.122.122,0,0,0-.126.126,1.148,1.148,0,0,0,.036.162A1.825,1.825,0,0,1,217.494,27.81Zm-7.884.594c-.126,0-.234.054-.234.162,0,.054.036.108.126.234a6.438,6.438,0,0,1,1.044,1.818c.126.4.252.81.648.81a.655.655,0,0,0,.612-.684C211.806,29.3,210.042,28.4,209.61,28.4Zm3.114-1.656c-.09-.018-.18.036-.18.09a2.033,2.033,0,0,0,.2.4,5.649,5.649,0,0,1,.666,1.71c.054.306.144.756.54.756.324,0,.612-.4.612-.918A2.281,2.281,0,0,0,212.724,26.748Zm18.468,8.676c.234,0,1.1-.81,1.314-.954,7.452-5.22,9.036-9.072,9.036-9.27a.066.066,0,0,0-.072-.072,8.579,8.579,0,0,0-.774.81c-4.3,4.878-9.144,7.578-9.918,7.578-.144,0-.828-.234-.99-.234-.108,0-.162.054-.162.126a.764.764,0,0,0,.108.342c.054.09.378.468.432.558C230.616,35.136,230.8,35.424,231.192,35.424Zm-.684-8.3c-.234,0-1.26.018-1.26.27,0,.072.108.144.162.18a4.367,4.367,0,0,1,1.638,1.494c.27.45.36.558.63.558.432,0,.7-.54.7-.9C232.38,27.846,231.282,27.126,230.508,27.126Zm2.088-3.438a2.143,2.143,0,0,0-1.386.342c0,.054.2.108.27.126a3.133,3.133,0,0,1,1.548.954c.648.774.738.846.936.846.288,0,.576-.4.576-.81C234.54,25.092,234.54,23.688,232.6,23.688Zm18.54,4.122a.2.2,0,0,0-.162.2c0,.252.666,1.224,1.332,1.224.216,0,1.314-.18,1.566-.216,1.3-.162,3.348-.378,3.456-.378.27,0,.36.09.36.4a5.274,5.274,0,0,1-.144,1.458,22.277,22.277,0,0,1-4.752.486,2.452,2.452,0,0,1-.9-.126,2.812,2.812,0,0,0-.432-.18c-.09,0-.126.054-.126.234a1.3,1.3,0,0,0,1.224,1.1c.306,0,2.232-.252,2.718-.306.666-.09,1.962-.27,2.034-.27.216,0,.288.108.288.342,0,.072-.036.828-.036.972-.018.5-.018.666-.216.774-.162.072-3.708.432-4.428.432a2.9,2.9,0,0,1-.864-.144,2.99,2.99,0,0,0-.594-.18c-.144,0-.162.144-.162.216,0,.144.54,1.3,1.026,1.3.2,0,.756-.162.9-.18.486-.09,3.366-.432,3.96-.432.252,0,.252.054.288.288.072.414.306.7.576.7s.7-.324.7-1.152c0-.162-.036-.954-.036-1.134,0-1.188.036-2.538.09-3.726a.911.911,0,0,1,.18-.594c.252-.288.306-.342.306-.522,0-.36-1.062-1.17-1.206-1.17-.126,0-.63.432-.774.486a25.74,25.74,0,0,1-4.482.4,4.461,4.461,0,0,1-1.044-.09A5.544,5.544,0,0,0,251.136,27.81Zm23.814-1.89c0-1.062-1.512-2.088-3.438-2.088-.252,0-.4.09-.4.162s.09.126.162.162a4.054,4.054,0,0,1,1.638,1.476c.594.9.774,1.188,1.26,1.188A.8.8,0,0,0,274.95,25.92Zm7.488-.162a.116.116,0,0,0-.09-.09c-.036,0-.54.5-.828.792-2.988,2.952-7.758,6.138-8.64,6.138a2.979,2.979,0,0,1-1.224-.414,4.479,4.479,0,0,0-.54-.342c-.162,0-.18.828-.18.954,0,.72,1.332,1.872,2.3,1.872.27,0,.306-.036.648-.45a12.572,12.572,0,0,1,1.764-1.476C280.332,29.286,282.438,25.92,282.438,25.758Zm7.236-.414c-.234.252.63,1.458,1.53,1.458a1.374,1.374,0,0,0,.612-.234c.594-.342,4.32-1.926,5.364-1.926.036,0,.108,0,.108.036a3.52,3.52,0,0,1-.45.378c-2.592,2.322-2.61,6.138-2.61,6.93,0,.846,0,3.852,3.672,3.852.108,0,2.088,0,2.088-.954,0-.432-.324-.666-.882-.666-.162,0-1.44.108-1.71.108-1.062,0-2.2-.2-2.2-3.222,0-4.644,2.556-6.75,4.842-6.75.2,0,1.224.2,1.458.2a.719.719,0,0,0,.738-.666c0-.612-.81-.864-1.458-.864a48.811,48.811,0,0,0-6.912,1.62c-2.466.7-2.736.774-3.492.774C290.268,25.416,289.746,25.254,289.674,25.344Zm12.4,1.206a1.662,1.662,0,0,0-.45-.09c-.054,0-.252,0-.252.108,0,.09.072.162.162.234a4.663,4.663,0,0,1,1.188,1.44c.18.432.378.954.81.954.234,0,.522-.2.522-.666C304.056,27.666,303.138,26.892,302.076,26.55Zm-2.322.738c-.162-.036-.36-.018-.36.072a.976.976,0,0,0,.18.324,4.711,4.711,0,0,1,.9,1.4c.288.7.45,1.044.774,1.044a.73.73,0,0,0,.63-.738A2.6,2.6,0,0,0,299.754,27.288Zm9.936-1.512c-.054.018-.09.108-.09.18,0,.738,1.494,1.494,1.89,1.494a16.731,16.731,0,0,0,1.926-.72,22.3,22.3,0,0,1,3.186-.72c.36,0,.36.108.36,1.08,0,.918,0,1.026-.5,1.1-1.746.27-1.746,2.25-1.746,2.484,0,1.44.864,2.358,1.836,2.358.054,0,.324-.036.378-.036.18,0,.18.2.18.252a5.855,5.855,0,0,1-1.008,2.646c-.126.18-.864,1.044-.864,1.08,0,.054.054.072.09.072.558,0,3.276-2.232,3.276-5.724a5.706,5.706,0,0,0-.522-2.43,2.351,2.351,0,0,1-.234-1.17c0-1.584.036-1.836.288-1.944a8.4,8.4,0,0,1,1.944-.18c.342,0,2.016.162,2.394.162.63,0,.972-.162.972-.63,0-.63-.792-.7-1.026-.7-.144,0-.9.09-1.08.09a3.955,3.955,0,0,1-1.584-.36c-1.062-.45-1.584-.72-1.584-1.134,0-.09.072-.468.072-.558,0-.576-.7-.9-1.494-.9-.108,0-.378,0-.378.126,0,.09.288.414.306.5a10.75,10.75,0,0,1,.252,2.448c0,.468-.108.486-1.044.648a36.381,36.381,0,0,1-4.9.612C310.734,25.9,309.87,25.794,309.69,25.776Zm8.5-2.106a3.9,3.9,0,0,1,1.368.954c0,.27-1.17.306-1.242.306-.252,0-.324-.054-.324-.342C317.988,24.12,318.06,23.706,318.186,23.67Zm-1.224,5.688a3.5,3.5,0,0,1,.234,1.26c0,.288-.018,1.368-.72,1.368a1.3,1.3,0,0,1-1.17-1.44c0-.918.576-1.656,1.026-1.656A.76.76,0,0,1,316.962,29.358Zm14.472,3.69a2,2,0,0,0-.018,4,2,2,0,1,0,.018-4Zm-.018.5a1.51,1.51,0,0,1,1.53,1.512,1.486,1.486,0,0,1-1.494,1.476,1.51,1.51,0,0,1-1.512-1.512A1.456,1.456,0,0,1,331.416,33.552Z" transform="translate(-1.044 15.138)" fill="#fff"/>
</svg>
