<svg xmlns="http://www.w3.org/2000/svg" width="681.149" height="57.787" viewBox="0 0 681.149 57.787">
  <g id="グループ_32858" data-name="グループ 32858" transform="translate(-222.367 -343.921)">
    <g id="グループ_26219" data-name="グループ 26219" transform="translate(222.367 343.921)">
      <path id="パス_38462" data-name="パス 38462" d="M1.619,29.27c.657,4.548,3.11,10.709,9.688,10.709,4.249,0,7.178-2.99,7.178-7.719,0-3.407-2.091-5.683-5.561-8.433L11.25,22.513c-2.754-2.215-6.7-5.5-6.7-10.469,0-6.224,4.965-10.709,12.143-10.709a17.611,17.611,0,0,1,5.685,1.017c1.135.417,2.152.775,2.63.956-.236,2.512-.118,5.683-.179,8.376l-1.733.181c-.478-4.487-2.034-8.557-7.178-8.557-4.188,0-6.7,3.35-6.7,7,0,3.468,2.451,5.622,5.565,8.016l1.794,1.316c4.127,3.11,6.938,6.224,6.938,10.947,0,7-6.161,11.429-13.042,11.429C5.685,42.015,1.495,39.8.181,38.3.124,36.928.124,33.7,0,29.449Z" transform="translate(0 1.476)" fill="#fff"/>
      <path id="パス_38463" data-name="パス 38463" d="M34.667,9.668a22.572,22.572,0,0,0-5.561.718l1.074-4.6-.6-.3a18.252,18.252,0,0,0-4.367,3.468l-.659,2.693a28.767,28.767,0,0,0-5.744,2.992l.421,1.495a28.62,28.62,0,0,1,4.845-2.158c-2.215,10.349-4.485,20.818-6.7,31.291-.838,3.706-1.5,4.184-5.264,4.9l-.24,1.558L25.695,51l.179-1.556L24.44,49.33c-2.933-.3-3.293-.838-2.575-4.245l1.676-8.439a9.752,9.752,0,0,0,3.531.6A23.654,23.654,0,0,0,38.2,30.3a19.309,19.309,0,0,0,5.081-12.379c0-5.325-2.451-8.258-8.612-8.258m-6.46,24.949a5.368,5.368,0,0,1-3.71-2.034l4.07-19.925a14.406,14.406,0,0,1,3.407-.417c3.47,0,6.285,1.316,6.285,6.641,0,7.656-5.807,15.735-10.052,15.735" transform="translate(13.13 6.063)" fill="#fff"/>
      <path id="パス_38464" data-name="パス 38464" d="M54.511,27.394c-1.733,1.733-3.828,3.11-4.306,3.11-.36,0-.541-.478-.118-2.575,1.377-7.595,3.169-15.731,4.125-19.441l-.179-.236a11.857,11.857,0,0,1-2.272-.36,19.4,19.4,0,0,0-3.71-.421c-3.767,0-8.134,2.1-11.126,4.609-4.367,3.649-7.18,10.17-7.18,16.209,0,4.79,1.912,6.763,3.47,6.763,1.613,0,3.592-1.08,5.565-2.693A43.072,43.072,0,0,0,46.493,24.1h.124l-1.2,5.683c-.836,4.369-.061,5.268,1.074,5.268,1.5,0,5.5-2.215,8.738-6.224Zm-7.056-7.9c-2.036,4.127-8.8,11.728-11.13,11.728-.838,0-1.615-1.259-1.615-3.952,0-5.921,2.394-12.981,6.46-15.973a7.453,7.453,0,0,1,4.249-1.253,9.953,9.953,0,0,1,4.009.838c-.421,1.91-1.316,6.222-1.973,8.612" transform="translate(32.885 8.26)" fill="#fff"/>
      <path id="パス_38465" data-name="パス 38465" d="M63.657,28.412c-3.71,4.245-8.433,6.639-11.964,6.639-3.828,0-6.4-3.051-6.4-8.793A20.684,20.684,0,0,1,51.451,11.9c2.453-2.152,6.641-4.43,9.574-4.43,2.571,0,4.487,1.5,4.544,2.992A3.3,3.3,0,0,1,63.6,13.216c-.478.3-.895.179-1.316-.36a5.27,5.27,0,0,0-4.487-2.575c-2.152,0-3.828,1.8-4.963,3.952A23.493,23.493,0,0,0,50.2,25.062c0,4.245,1.676,6.46,4.245,6.46,3.053,0,6.7-2.756,8.315-4.43Z" transform="translate(50.071 8.259)" fill="#fff"/>
      <path id="パス_38466" data-name="パス 38466" d="M66.769,31.521c-3.649,0-4.666-3.529-4.666-6.757a10.727,10.727,0,0,1,.122-1.916c5.74-1.434,15.792-4.668,15.792-10.587a4.928,4.928,0,0,0-5.266-4.79c-2.508,0-5.679,1.377-8.254,3.35-4.727,3.592-7.178,9.873-7.178,15.495,0,7.117,3.828,8.736,6.582,8.736,2.868,0,7.353-1.135,12.621-6.763L75.5,26.916c-2.992,2.931-6.224,4.6-8.736,4.6m1.32-20.879a4.9,4.9,0,0,1,2.451-.714c1.733,0,2.992,1.192,2.992,3.289,0,2.75-2.514,5.5-11.069,7.774,1.017-6.7,4.007-9.45,5.626-10.349" transform="translate(63.37 8.26)" fill="#fff"/>
      <path id="パス_38467" data-name="パス 38467" d="M98.471,3.347c-4.666.478-4.969.777-5.807,5.144L87.823,33.678c-.9,4.6-.539,4.963,4.363,5.323l-.36,1.613H76.512L76.933,39c4.666-.36,5.083-.781,5.982-5.323L87.762,8.491c.838-4.367.415-4.666-4.548-5.144l.421-1.558h15.19Z" transform="translate(84.782 1.978)" fill="#fff"/>
      <path id="パス_38468" data-name="パス 38468" d="M115.389,29.249c-3.531,3.828-6.881,5.8-8.433,5.8-1.495,0-2.036-1.617-.956-6.222,1.135-4.487,2.154-8.854,3.228-13.28.836-3.411.478-4.306-.478-4.306-2.632,0-9.57,7.416-12.566,12.5-.714,2.929-1.613,6.517-2.333,10.109a28.932,28.932,0,0,0-4.306,1.2l-.354-.476C90.8,28.108,92.6,20.93,94.033,14.289c.482-1.912.3-2.39-.057-2.39-.539,0-2.394,1.255-3.891,2.693l-.775-1.438c3.226-3.531,6.757-5.683,8.433-5.683,1.377,0,1.613,2.034.478,6.639l-1.255,5.2h.118a40.412,40.412,0,0,1,11.008-10.53A8.1,8.1,0,0,1,112.1,7.471c1.434,0,3.11.9,1.316,8.555-.956,4.07-1.918,8.254-2.929,12.442-.36,1.619-.3,2.154.118,2.154.539,0,2.152-1.074,3.946-2.811Z" transform="translate(98.608 8.26)" fill="#fff"/>
      <path id="パス_38469" data-name="パス 38469" d="M131.94,29.249c-3.531,3.828-6.881,5.8-8.433,5.8-1.495,0-2.036-1.617-.956-6.222,1.135-4.487,2.154-8.854,3.228-13.28.836-3.411.478-4.306-.478-4.306-2.632,0-9.574,7.416-12.566,12.5-.714,2.929-1.613,6.517-2.333,10.109a28.933,28.933,0,0,0-4.306,1.2l-.354-.476c1.613-6.466,3.407-13.644,4.841-20.285.482-1.912.3-2.39-.057-2.39-.539,0-2.394,1.255-3.891,2.693l-.775-1.438c3.226-3.531,6.757-5.683,8.433-5.683,1.377,0,1.613,2.034.478,6.639l-1.255,5.2h.118a40.412,40.412,0,0,1,11.008-10.53,8.1,8.1,0,0,1,4.009-1.314c1.434,0,3.11.9,1.316,8.555-.956,4.07-1.918,8.254-2.929,12.442-.36,1.619-.3,2.154.118,2.154.539,0,2.152-1.074,3.946-2.811Z" transform="translate(116.906 8.26)" fill="#fff"/>
      <path id="パス_38470" data-name="パス 38470" d="M137.221,7.471a15.176,15.176,0,0,0-6.46,1.918c-4.965,2.63-9.1,8.551-9.1,16.331,0,4.845,2.215,9.332,7.9,9.332a14.887,14.887,0,0,0,9.214-3.771c4.188-3.47,6.4-9.332,6.4-14.478,0-5.919-2.992-9.332-7.955-9.332M133.633,32.3a4.93,4.93,0,0,1-1.916.36c-3.171,0-5.026-2.811-5.026-7.237,0-9.214,4.007-14.12,6.34-15.139a5.358,5.358,0,0,1,2.278-.535c2.748,0,4.841,2.335,4.841,7.18,0,7.658-3.289,13.994-6.517,15.371" transform="translate(134.509 8.26)" fill="#fff"/>
      <path id="パス_38471" data-name="パス 38471" d="M146.117,29.127c2.451-3.047,9.271-11.783,9.271-15.792a5.084,5.084,0,0,0-.657-2.632,2.123,2.123,0,0,1,0-1.495A2.9,2.9,0,0,1,157.3,7.471c1.438,0,2.512,1.377,2.575,3.413,0,1.855-.956,4.188-3.712,8.016-3.468,4.847-8.791,11.722-12.379,16.152h-1.619c-.179-5.565-.838-14.954-1.135-18.607-.3-3.588-.659-4.6-1.074-4.6-.541,0-1.619.956-3.531,3.171l-.956-1.316c2.154-3.11,5.2-6.224,7.117-6.224,1.552,0,2.333,2.276,2.632,6.639.242,5.268.6,10.115.775,15.017Z" transform="translate(149.77 8.26)" fill="#fff"/>
      <path id="パス_38472" data-name="パス 38472" d="M173.38,27.394c-1.731,1.733-3.828,3.11-4.306,3.11-.36,0-.539-.478-.118-2.575,1.377-7.595,3.169-15.731,4.125-19.441l-.179-.236a11.857,11.857,0,0,1-2.272-.36,19.4,19.4,0,0,0-3.71-.421c-3.767,0-8.134,2.1-11.126,4.609-4.367,3.649-7.178,10.17-7.178,16.209,0,4.79,1.912,6.763,3.468,6.763,1.613,0,3.592-1.08,5.565-2.693a43.079,43.079,0,0,0,7.715-8.258h.122l-1.2,5.683c-.836,4.369-.061,5.268,1.076,5.268,1.495,0,5.5-2.215,8.736-6.224Zm-7.056-7.9c-2.036,4.127-8.8,11.728-11.13,11.728-.838,0-1.615-1.259-1.615-3.952,0-5.921,2.4-12.981,6.46-15.973a7.454,7.454,0,0,1,4.249-1.253,9.953,9.953,0,0,1,4.009.838c-.421,1.91-1.316,6.222-1.973,8.612" transform="translate(164.305 8.26)" fill="#fff"/>
      <path id="パス_38473" data-name="パス 38473" d="M179.4,14.89l-5.925.3L169.954,31.7c-.6,2.935-.3,3.592.354,3.592,1.017,0,3.952-1.973,5.386-3.468l.838,1.253c-1.975,2.4-6.46,6.4-9.631,6.4-1.377,0-2.575-1.735-1.255-7.9l3.527-16.388h-4.426l-.179-.539,1.495-1.794h3.588l1.377-5.683,4.548-3.712.539.36-2.1,9.035h6.944Z" transform="translate(181.941 3.831)" fill="#fff"/>
      <path id="パス_38474" data-name="パス 38474" d="M184.92,29.07c-1.973,2.451-6.639,5.982-8.732,5.982-1.2,0-1.973-.96-.781-5.864l3.712-15.314c.358-1.316.358-1.916-.063-1.916a11.586,11.586,0,0,0-4.064,2.573l-.72-1.377c3.289-3.226,7.477-5.683,9.1-5.683,1.316,0,1.253,1.916.6,4.727L179.837,28.71c-.36,1.434-.242,1.912.118,1.912.72,0,2.811-1.552,4.188-2.811Z" transform="translate(192.67 8.26)" fill="#fff"/>
      <path id="パス_38475" data-name="パス 38475" d="M183.052,4.709a3.339,3.339,0,0,1-3.171,3.468,2.518,2.518,0,0,1-2.512-2.63,3.516,3.516,0,0,1,3.289-3.531c1.556,0,2.333,1.259,2.394,2.693" transform="translate(196.094 2.229)" fill="#fff"/>
      <path id="パス_38476" data-name="パス 38476" d="M198.619,7.471a15.176,15.176,0,0,0-6.46,1.918c-4.965,2.63-9.1,8.551-9.1,16.331,0,4.845,2.215,9.332,7.9,9.332a14.887,14.887,0,0,0,9.214-3.771c4.188-3.47,6.4-9.332,6.4-14.478,0-5.919-2.992-9.332-7.955-9.332M195.031,32.3a4.93,4.93,0,0,1-1.916.36c-3.171,0-5.026-2.811-5.026-7.237,0-9.214,4.007-14.12,6.34-15.139a5.358,5.358,0,0,1,2.278-.535c2.748,0,4.841,2.335,4.841,7.18,0,7.658-3.289,13.994-6.517,15.371" transform="translate(202.389 8.26)" fill="#fff"/>
      <path id="パス_38477" data-name="パス 38477" d="M223.381,29.249c-3.531,3.828-6.881,5.8-8.433,5.8-1.495,0-2.036-1.617-.956-6.222,1.135-4.487,2.154-8.854,3.228-13.28.838-3.411.478-4.306-.478-4.306-2.632,0-9.57,7.416-12.566,12.5-.714,2.929-1.613,6.517-2.333,10.109a28.932,28.932,0,0,0-4.306,1.2l-.354-.476c1.613-6.466,3.407-13.644,4.841-20.285.482-1.912.3-2.39-.057-2.39-.539,0-2.394,1.255-3.891,2.693l-.775-1.438c3.226-3.531,6.757-5.683,8.433-5.683,1.377,0,1.613,2.034.478,6.639l-1.255,5.2h.118a40.412,40.412,0,0,1,11.008-10.53,8.1,8.1,0,0,1,4.009-1.314c1.434,0,3.11.9,1.316,8.555-.956,4.07-1.918,8.254-2.929,12.442-.36,1.619-.3,2.154.118,2.154.539,0,2.152-1.074,3.946-2.811Z" transform="translate(218 8.26)" fill="#fff"/>
      <path id="パス_38478" data-name="パス 38478" d="M264.964,3.347c-3.592.236-4.43,1.135-5.205,3.767a99.387,99.387,0,0,0-2.272,10.17l-4.548,23.808h-1.794L233.437,9.39h-.181L230.148,25.3a81.454,81.454,0,0,0-1.558,10.052c-.118,2.75.962,3.352,5.087,3.649l-.358,1.613h-13.7l.36-1.613c3.108-.179,4.485-.9,5.266-3.468a92.434,92.434,0,0,0,2.508-10.412L230.866,10.4c.6-3.047.417-3.885-.358-5.2-.72-1.259-1.737-1.619-5.089-1.855l.36-1.558H234.4L252.04,32.238h.242l2.754-14.954a94.43,94.43,0,0,0,1.613-10.227c.179-2.815-.775-3.411-5.2-3.71l.421-1.558h13.459Z" transform="translate(243.148 1.978)" fill="#fff"/>
      <path id="パス_38479" data-name="パス 38479" d="M251.29,31.521c-3.649,0-4.666-3.529-4.666-6.757a10.728,10.728,0,0,1,.122-1.916c5.74-1.434,15.792-4.668,15.792-10.587a4.929,4.929,0,0,0-5.266-4.79c-2.508,0-5.679,1.377-8.254,3.35-4.727,3.592-7.178,9.873-7.178,15.495,0,7.117,3.828,8.736,6.582,8.736,2.868,0,7.353-1.135,12.621-6.763l-1.017-1.373c-2.992,2.931-6.224,4.6-8.736,4.6m1.32-20.879a4.9,4.9,0,0,1,2.451-.714c1.733,0,2.992,1.192,2.992,3.289,0,2.75-2.514,5.5-11.069,7.774,1.017-6.7,4.007-9.45,5.626-10.349" transform="translate(267.371 8.26)" fill="#fff"/>
      <path id="パス_38480" data-name="パス 38480" d="M270.319,14.89l-5.925.3L260.869,31.7c-.6,2.935-.3,3.592.36,3.592,1.011,0,3.946-1.973,5.38-3.468l.838,1.253c-1.975,2.4-6.46,6.4-9.631,6.4-1.377,0-2.575-1.735-1.255-7.9l3.527-16.388h-4.426l-.179-.539,1.495-1.794h3.588l1.377-5.683,4.548-3.712.539.36-2.1,9.035h6.944Z" transform="translate(282.454 3.831)" fill="#fff"/>
      <path id="パス_38481" data-name="パス 38481" d="M290.411,28.89c2.451-3.35,8.433-11.608,8.433-15.438a6.257,6.257,0,0,0-.6-2.748,1.633,1.633,0,0,1,0-1.5A2.88,2.88,0,0,1,300.7,7.47c1.495,0,2.575,1.316,2.575,3.413,0,2.034-1.135,4.009-2.451,6.279-2.036,3.289-9.277,13.28-12.627,17.889h-1.676c-.478-6.34-1.074-12.621-1.674-18.664h-.118c-3.83,6.4-8.2,13.4-11.425,18.664h-1.556c-.057-5.8-.36-13.52-.6-19.266-.124-2.868-.36-3.946-.956-3.946-.423,0-1.322.72-3.531,3.053l-1.017-1.2c2.512-3.35,5.622-6.224,7.656-6.224,1.377,0,2.036,1.8,2.154,5.925.118,4.786.179,10.17.179,14.118h.118c3.592-6.161,7.6-12.684,11.126-19.142h1.5c.657,6.7,1.2,13.638,1.916,20.519Z" transform="translate(293.691 8.259)" fill="#fff"/>
      <path id="パス_38482" data-name="パス 38482" d="M301.3,7.471a15.184,15.184,0,0,0-6.46,1.918c-4.963,2.63-9.094,8.551-9.094,16.331,0,4.845,2.215,9.332,7.9,9.332a14.882,14.882,0,0,0,9.214-3.771c4.19-3.47,6.4-9.332,6.4-14.478,0-5.919-2.99-9.332-7.955-9.332M297.714,32.3a4.937,4.937,0,0,1-1.916.36c-3.171,0-5.026-2.811-5.026-7.237,0-9.214,4-14.12,6.338-15.139a5.365,5.365,0,0,1,2.278-.535c2.75,0,4.843,2.335,4.843,7.18,0,7.658-3.291,13.994-6.517,15.371" transform="translate(315.912 8.26)" fill="#fff"/>
      <path id="パス_38483" data-name="パス 38483" d="M300.535,13.335c3.053-3.407,6.763-5.864,8.376-5.864,1.495,0,1.558,2.754.659,6.944l-.6,2.99h.179c3.047-5.864,6.578-9.934,8.972-9.934A3.233,3.233,0,0,1,320.7,8.966a2.631,2.631,0,0,1-.057,2.575,6.241,6.241,0,0,1-1.558,1.733c-.539.36-1.017.36-1.316.061a2.769,2.769,0,0,0-2.034-1.017c-.72,0-1.676.6-3.053,2.512a40.978,40.978,0,0,0-4.245,7.422c-.956,4.007-1.674,7.774-2.394,11.722a22.114,22.114,0,0,0-4.245,1.078l-.478-.478c1.552-6.4,3.228-13.762,4.363-20.159.36-1.975.36-2.575-.118-2.575-.539,0-2.451,1.2-4.245,2.872Z" transform="translate(332.262 8.26)" fill="#fff"/>
      <path id="パス_38484" data-name="パス 38484" d="M336.468,37.864c-2.811,4.43-5.325,5.447-6.582,5.447s-2.453-.72-3.948-3.952a120.1,120.1,0,0,1-4.548-11.126,25.906,25.906,0,0,0-3.346,3.83c-.663,3.232-1.377,6.7-2.034,10.113a26.134,26.134,0,0,0-4.306,1.135l-.423-.36c2.874-12.2,5.567-24.229,8.136-36.671.478-2.39.179-2.632-2.154-2.693l-1.855-.057.3-1.438C320.552,1.558,323.723,0,324.5,0c.6,0,.535.541.3,1.733-2.036,8.915-3.948,17.708-5.982,26.625h.061a63.664,63.664,0,0,1,5.144-5.386c3.346-3.413,7.715-7.241,10.469-7.241,1.613,0,2.512.962,2.512,1.855a4.183,4.183,0,0,1-1.2,2.4c-.36.3-.72.415-.956.3a5.357,5.357,0,0,0-2.278-.478c-2.748,0-6.1,3.11-7.774,4.965a70.523,70.523,0,0,0,4.9,11.783c1.08,2.215,1.676,2.874,2.333,2.874.6,0,1.918-1.019,3.413-2.75Z" transform="translate(344.142 0)" fill="#fff"/>
      <ellipse id="楕円形_41" data-name="楕円形 41" cx="2.4" cy="2.4" rx="2.4" ry="2.4" transform="translate(308.314 39.682)" fill="#fff" opacity="0"/>
      <ellipse id="楕円形_42" data-name="楕円形 42" cx="2.4" cy="2.4" rx="2.4" ry="2.4" transform="translate(342.598 39.682)" fill="#fff" opacity="0"/>
    </g>
  </g>
</svg>
