<svg xmlns="http://www.w3.org/2000/svg" width="208.971" height="32" viewBox="0 0 208.971 32">
  <g id="グループ_32855" data-name="グループ 32855" transform="translate(-4653.029 -9982)">
    <g id="グループ_26799" data-name="グループ 26799" transform="translate(240.214 -204.786)">
      <g id="楕円形_52" data-name="楕円形 52" transform="translate(4589.786 10186.786)" fill="none" stroke="#fff" stroke-width="1">
        <circle cx="16" cy="16" r="16" stroke="none"/>
        <circle cx="16" cy="16" r="15.5" fill="none"/>
      </g>
      <path id="多角形_3" data-name="多角形 3" d="M6.5,0,13,11H0Z" transform="translate(4612.786 10195.786) rotate(90)" fill="#fff"/>
    </g>
    <path id="パス_130983" data-name="パス 130983" d="M-67.149-14.769c0-2.322-1.458-4.455-5-4.455H-79.11L-82.971,0h8.046a6.166,6.166,0,0,0,6.48-6.372,3.566,3.566,0,0,0-1.836-3.375A5.368,5.368,0,0,0-67.149-14.769ZM-72.036-6.21a2.876,2.876,0,0,1-3,3.051h-3.726l1-5.022h3.7A1.831,1.831,0,0,1-72.036-6.21Zm1.269-7.965A2.781,2.781,0,0,1-73.71-11.34h-3.429l.972-4.725h3.4A1.741,1.741,0,0,1-70.767-14.175Zm20.628.108c0-2.7-1.35-5.157-5.238-5.157h-6.75L-65.988,0h3.564l1.593-7.776h2.7L-55.89,0h3.915l-2.646-8.181A6.248,6.248,0,0,0-50.139-14.067Zm-3.564.189a3.127,3.127,0,0,1-3.321,3.132h-3.24l1.08-5.319h3.24A2.006,2.006,0,0,1-53.7-13.878ZM-34.884,0l-2.835-19.224h-2.835L-51.03,0h3.807l1.809-3.51h6.507L-38.5,0Zm-4.293-6.426h-4.779l3.861-7.4Zm24.489-12.8h-3.564l-2.4,12.042-5.022-12.042H-28.7L-32.562,0H-29l2.43-12.015L-21.573,0h3.024ZM1.62-13.851c0-3.726-2.484-5.373-5.67-5.373h-6.291L-14.2,0h6.831A7.418,7.418,0,0,0-2.079-1.89C-.432-3.483.081-4.995,1-9.693A22.285,22.285,0,0,0,1.62-13.851Zm-3.591.3a24.845,24.845,0,0,1-.594,3.861c-.7,3.645-1.134,4.752-1.917,5.508A3.828,3.828,0,0,1-7.29-3.132h-2.7L-7.4-16.092h2.727C-3.024-16.092-1.971-15.282-1.971-13.554Zm31.158-5.67H25.7L18.738-8.964l-2.727-10.26H12.663L8.8,0h3.564l2.3-11.421,2.16,7.155h2.4l4.833-7.1L21.762,0h3.564Zm15.795,5.292c0-3-2.106-5.454-5.805-5.454a7.253,7.253,0,0,0-5.427,2.214c-1.647,1.728-2.133,3.834-2.862,7.56a22.382,22.382,0,0,0-.54,4.32c0,3,2.106,5.454,5.805,5.454A7.253,7.253,0,0,0,41.58-2.052c1.647-1.728,2.133-3.834,2.862-7.56A22.382,22.382,0,0,0,44.982-13.932Zm-3.564.3a23.049,23.049,0,0,1-.54,4.023c-.7,3.537-1.215,4.7-1.917,5.481A3.24,3.24,0,0,1,36.4-2.97a2.417,2.417,0,0,1-2.484-2.619,23.376,23.376,0,0,1,.54-4.023c.7-3.51,1.215-4.7,1.917-5.481a3.24,3.24,0,0,1,2.565-1.161A2.4,2.4,0,0,1,41.418-13.635Zm21.141-5.589H58.725L52.569-6.48l-1.3-12.744h-3.51L49.95,0h2.808Zm5.832,0H64.827L60.966,0H64.53Zm16.335,0H72.738L68.877,0H81.054l.621-3.132H73.089l1-4.995h7.263l.621-3.132H74.709l.972-4.833h8.424Z" transform="translate(4736 10007)" fill="#fff"/>
  </g>
</svg>
