<?xml version="1.0" encoding="UTF-8"?>
<svg xmlns="http://www.w3.org/2000/svg" version="1.1" viewBox="0 0 238.9 21.9">
  <defs>
    <style>
      .cls-1 {
        fill: #fff;
      }
    </style>
  </defs>
  <!-- Generator: Adobe Illustrator 28.7.1, SVG Export Plug-In . SVG Version: 1.2.0 Build 142)  -->
  <g>
    <g id="_レイヤー_1" data-name="レイヤー_1">
      <path id="_パス_130456" data-name="パス_130456" class="cls-1" d="M7,4.2c.6,0,.7.1.7.5,0,1.7-2.9,5.4-6.2,6.8,0,0-.4.2-.4.2,0,.1,0,.1.1.1.8-.1,1.6-.4,2.3-.7,1.7-.7,3.2-1.8,4.4-3.2.3-.3,1.4-1.9,1.6-2,.5-.2.7-.3.7-.6s0-.2-.5-.5c-.2-.1-.6-.4-.6-.4,0-.1.2-.1.6-.1h2.3c.3,0,.6.2.6.5,0,0,0,0,0,0,0,.8,0,2.7,0,3.6,0,2.2.5,2.2,4.2,2.2,1.2,0,2.3,0,3.5-.2.8-.2,1.4-.9,1.4-1.4s0-.2-.4-.5c-.4-.3-.4-.7-.4-1.2,0-.6,0-.7-.1-.7-.3.4-.6.9-.8,1.4-.6,1-.9,1-3.2,1s-2.4,0-2.6-.7c-.1-1.1-.2-2.2-.2-3.3,0-.2,0-.7.6-.7h3.1c.3,0,.5,0,.5.2-.2.5-.5,1-.8,1.4,0,0,0,.1.1.1.3-.2.6-.4.9-.6.4-.3.9-.5,1.4-.5,2,0,2.2,0,2.2-.5s0-.3-.6-.7c-.7-.5-1.4-.9-2.1-1.3-.1,0-.3.3-.4.6-.1.4-.5.7-1,.7h-5.2c-.6,0-.6-.5-.6-.7,0-.5,0-1,.2-1.5,0-.1.5-.6.5-.7,0-.4-1.9-.7-2.4-.7s-.3.1-.3.2c0,.1.1.3.2.4,0,.5.1.9.1,1.4,0,1.2,0,1.6-.6,1.6h-5.6c-.4,0-.7-.1-.9-.4-.4-.5-.7-1-.8-1s-.1.3-.1.4c0,.8-.2,1.5-.5,2.2-.3.5-.6,1-.9,1.6,0,.3.3.6.9.6.9,0,1.6-.9,1.8-1.9.2-.8.2-.8.8-.8h2.7ZM6.7,13.3c-1.3,0-2.3,0-3.3,0-.2,0-.9,0-1.1,0s0,0,0,0,0,0,0,.1l.5.6s.1.1.2.1c0,0,.4,0,.5,0,.8,0,2.4,0,3,0h3.3c.6,0,.6.5.6,1.2s0,3.5,0,4.2c0,.2,0,.8-.6.8h-5.4c-.9,0-2.8,0-3.5,0-.1,0-.7,0-.9,0s-.1,0-.1,0,0,0,.1.1l.5.6c0,.1.1.1.2.1s.4,0,.5,0c.8,0,2.5,0,3.2,0h17c.4,0,.6,0,.6-.3-.6-.9-1.3-1.6-2.2-2.1-.2,0-.3.1-.9,1.1-.3.5-.5.7-1,.7h-5.2s-.6,0-.6-.5,0-3.8,0-4.2c0-1,0-1.5.6-1.5h6.7c.4,0,.6,0,.6-.3,0-.4-1.9-1.7-2.2-1.7s-.4,0-1,.8c-.5.6-.8.6-1,.6H6.7ZM31.3,1.7c-.3,0-.4,0-1-.4-.3-.2-.7-.4-1.1-.4-.1,0-.1.1-.1.2s.1,2,.1,2.2c0,.3,0,3.9,0,5.4,0,2.6,0,4.2-.2,11.4,0,.3,0,.9,0,1,0,.2,0,.8.6.8,1.2,0,1.2-1.3,1.2-1.7s0-3.1-.1-3.6c0-.9,0-5,0-6.1,0-.6,0-1.1,0-1.7.1-.3.5-.3.9-.3h3c.5,0,.7,0,.8.5,0,.4.1.8.7.8s1-.2,1-1.6-.1-3.7-.1-4.4,0-.8.2-1.1c0-.1.5-.5.5-.6,0-.3-1.2-1.2-1.5-1.2s-.4.2-.6.5c-.2.2-.4.3-.7.3h-3.5ZM34.8,2.3c.5,0,.7,0,.7.5v1.3c0,.6-.1.6-.7.6h-3.4c-.5,0-.7,0-.7-.5v-1.3c0-.6.1-.6.7-.6h3.4ZM34.8,5.4c.5,0,.7,0,.7.6v1.4c0,.5-.2.5-.7.5h-3.4c-.5,0-.7,0-.7-.5v-1.4c0-.5.2-.5.7-.5h3.4ZM41.8,1.6c-.2,0-.4,0-.6-.1-.3-.2-.7-.3-1.1-.4-.2,0-.3.3-.3.4,0,.4.1,2.2.1,2.5s0,5.1,0,5.2c0,.3.3.5.6.5.4,0,1-.2,1.1-.8,0-.4.1-.5.7-.5h3.1c.6,0,.9,0,.9.7,0,3.4,0,9.5,0,9.7,0,.7-.3.8-1.9.9-.2,0-1.1,0-1.1.2,0,.2,1,.5,1.2.6.3.2.5.4.7.7.2.4.4.6.7.6.4,0,.8-.2,1.1-.4.8-.4,1-1,1-2,0-2.5,0-13.4,0-15.6s0-.9.4-1.3c.1-.1.3-.2.3-.4,0-.5-1.4-1.2-1.6-1.2s-.2,0-.5.4c-.1.1-.3.2-.5.2h-4.1ZM42.2,4.6c-.3,0-.6,0-.6-.4,0,0,0-1.1,0-1.4,0-.6.3-.6.7-.6h3.5c.4,0,.6,0,.7.4v1.5c0,.5-.2.5-.7.5h-3.5ZM42.2,7.9c-.5,0-.7,0-.7-.5v-1.6c0-.5.2-.5.7-.5h3.5c.5,0,.7,0,.7.5v1.6c0,.5-.2.5-.7.5h-3.5ZM36.4,11.4c-.3,0-1.5-.6-1.8-.6s-.2,0-.2.2,0,.6,0,.7c0,.9,0,3.2,0,3.3,0,1,0,1.7,0,3,0,.2,0,.9,0,1,0,.7.2.9.6.9.6,0,1-.4,1.1-1.1,0-.5.2-.6.7-.6h3c.5,0,.8,0,.8.6s0,.9.5.9c.4,0,.8-.2,1-.5.2-.3.2-.6.2-1.2s0-4.4,0-5c0-.3.1-.5.3-.7,0,0,.1-.2.1-.3,0-.4-1.2-1.2-1.4-1.2s-.5.3-.7.5c-.1.2-.3.3-.6.2h-3.7ZM40,12c.5,0,.6,0,.6.6v1.4c0,.3-.3.3-.6.3h-3.4c-.4,0-.6,0-.6-.3v-1.2c0-.7,0-.8.6-.8h3.4ZM40,15c.5,0,.6,0,.6.3,0,.1,0,1.4,0,1.7,0,.6-.1.6-.7.6h-3.3c-.4,0-.7,0-.7-.5v-1.7c0-.5.2-.5.7-.5h3.3ZM66.4,8.3c.5-.6,1.2-1.4,1.6-2,.4-.8,1-1.4,1.6-2,.1-.1.2-.3.2-.5,0-.9-2.4-1.9-2.8-1.9-.1,0-.2,0-.2.2,0,.1.1.3.2.4.1.2.2.4.2.7,0,.7-1.9,4.8-7.5,9.6-.4.3-1.1.9-1.7,1.4,0,0,0,.1,0,.2,0,0,0,.1.1.1,2.5-1.2,4.8-2.7,6.8-4.6.2-.2.3-.3.4-.3.6,0,.6,2.5.6,3.4,0,1.3,0,3.1-.2,4.4,0,.2-.3,1.3-.3,1.5,0,.6.8,1.7,1.5,1.7s.6-.8.6-1.1-.1-1.7-.2-2c0-.9,0-2.2,0-2.9,0-1.4,0-2.8.1-4.2,0-.1.3-.8.3-1,0-.2,0-.3-1-.9-.1,0-.2-.2-.2-.3ZM95.6,5.6c0,1-1.3,3.2-1.9,4.2-1.8,2.8-4,5.4-6.5,7.6-.6.4-1.1.9-1.5,1.5,0,0,0,.1.1.1,0,0,0,0,0,0,.8-.3,1.5-.7,2.1-1.2,3.3-2.2,6.1-5.1,8.3-8.4.5-.9,1-1.7,1.6-2.5.6-.6.7-.6.7-1,0-1.2-2.8-2.3-3.1-2.3-.1,0-.3.1-.3.3,0,.1,0,.2.1.3.3.4.4.9.5,1.3ZM118.9,6.2c-.7,0-1.1.3-2.2,1.2-3,2.4-4.2,2.9-5.3,2.9s-.6-.1-.7-.1-.2.2-.2.3c0,.3,0,.5.3.7,1.1,1.1,1.5,1.4,2,1.4.5,0,.9-.3,1.2-.7.3-.5.7-.9,1.1-1.2,3.4-3.1,3.4-3.1,3.8-3.1.3,0,.5.2.7.4.3.3,1.4,1.8,1.7,2.1,6,7.2,7.8,7.2,8.5,7.2s1-.2,1-.7c0-.4-.2-.7-.5-.9-.3-.3-2.1-1.3-2.5-1.6-2.4-1.8-4.5-3.8-6.4-6-.6-.8-1.5-1.7-2.4-1.7ZM127.5,3.7c-.5,0-.9,0-.9.2s0,.2.3.3c.8.4,1.4.9,1.9,1.6.4.6.7,1,1.2,1,.4,0,.7-.4.6-.8,0-1.6-2.5-2.3-3.1-2.3ZM124.9,5.7c-.2,0-.4.1-.4.2s.2.3.4.4c.6.4,1.2.9,1.6,1.5.7.9.9,1.1,1.2,1.1s.7-.6.7-.9c0-.8-1.3-2.2-3.5-2.2ZM142.5,10.5c-1,0-2,0-2.9-.2-.1,0-.7-.3-.8-.3s-.2.1-.2.3c0,.8,1.1,2.3,2.1,2.3s1.6-.4,1.9-.4c.6-.1,6.1-.4,9.4-.4s2.9,0,3.4,0c1,0,2,0,2-.7s-.2-1.1-1.7-1.1-.4,0-.5,0c-3.5.2-11.9.5-12.7.5ZM170.6,19.4c.3,0,1.5-1.1,1.8-1.3,9.9-7,12-12.1,12-12.4,0,0,0,0,0-.1,0,0,0,0,0,0-.4.3-.7.7-1,1.1-5.7,6.5-12.2,10.1-13.2,10.1s-1.1-.3-1.3-.3-.2,0-.2.2c0,.2,0,.3.1.5,0,.1.5.6.6.7.6,1.1.8,1.5,1.4,1.5h0ZM169.7,8.3c-.3,0-1.7,0-1.7.4s.1.2.2.2c.9.5,1.6,1.2,2.2,2,.4.6.5.7.8.7.6,0,.9-.7.9-1.2,0-1.2-1.5-2.1-2.5-2.1h0ZM172.5,3.8c-.7,0-1.3,0-1.8.5,0,0,.3.1.4.2.8.2,1.5.7,2.1,1.3.9,1,1,1.1,1.2,1.1.4,0,.8-.5.8-1.1,0,0,0-1.9-2.6-1.9h0ZM197.2,9.3c-.1,0-.2.1-.2.3,0,.3.9,1.6,1.8,1.6s1.8-.2,2.1-.3c1.7-.2,4.5-.5,4.6-.5.4,0,.5.1.5.5,0,.7,0,1.3-.2,1.9-2.1.4-4.2.7-6.3.6-.4,0-.8,0-1.2-.2-.2,0-.4-.2-.6-.2-.1,0-.2,0-.2.3.1.8.8,1.4,1.6,1.5.4,0,3-.3,3.6-.4.9-.1,2.6-.4,2.7-.4.3,0,.4.1.4.5s0,1.1,0,1.3c0,.7,0,.9-.3,1-.2,0-4.9.6-5.9.6-.4,0-.8,0-1.2-.2-.3-.1-.5-.2-.8-.2-.2,0-.2.2-.2.3,0,.2.7,1.7,1.4,1.7s1-.2,1.2-.2c.6-.1,4.5-.6,5.3-.6s.3,0,.4.4c.1.6.4.9.8.9s.9-.4.9-1.5,0-1.3,0-1.5c0-1.6,0-3.4.1-5,0-.3,0-.6.2-.8.3-.4.4-.5.4-.7,0-.5-1.4-1.6-1.6-1.6s-.8.6-1,.6c-2,.4-4,.5-6,.5-.5,0-.9,0-1.4-.1-.3-.1-.6-.2-.9-.3h0ZM228.9,6.7c0-1.4-2-2.8-4.6-2.8s-.5.1-.5.2.1.2.2.2c.9.4,1.7,1.1,2.2,2,.8,1.2,1,1.6,1.7,1.6.6,0,1.1-.5,1-1.1,0,0,0,0,0-.1ZM238.9,6.5c0,0,0-.1-.1-.1,0,0-.7.7-1.1,1.1-4,3.9-10.3,8.2-11.5,8.2-.6,0-1.1-.3-1.6-.6-.2-.2-.5-.3-.7-.5-.2,0-.2,1.1-.2,1.3,0,1,1.8,2.5,3.1,2.5s.4,0,.9-.6c.7-.7,1.5-1.4,2.4-2,6.2-4.6,9-9.1,9-9.3Z"/>
    </g>
  </g>
</svg>