<svg xmlns="http://www.w3.org/2000/svg" width="580.904" height="41.44" viewBox="0 0 580.904 41.44">
  <path id="パス_130455" data-name="パス 130455" d="M2.22-11.82c.12,4.32.12,7.62.18,9C3.78-1.26,7.98.9,12.84.9c7.08,0,13.32-4.5,13.32-11.58,0-4.86-2.94-8.04-7.08-11.1l-1.8-1.32c-3.12-2.34-5.4-4.5-5.4-7.92a6.54,6.54,0,0,1,6.54-6.84c5.16,0,6.72,4.32,7.2,8.7l1.8-.18c.06-2.88,0-6.06.18-8.52-.48-.18-1.44-.6-2.58-1.02a19.273,19.273,0,0,0-5.94-1.02c-7.2,0-12.3,4.5-12.3,10.86,0,4.98,3.84,8.34,6.78,10.62L15.3-17.1c3.42,2.7,5.4,5.04,5.4,8.34,0,4.56-2.76,7.56-7.08,7.56C7.08-1.2,4.56-7.56,3.96-12ZM36.96-38.94l-.42,1.68c4.74.48,5.04.84,4.14,5.58L35.88-7.5c-1.02,5.04-1.44,5.34-6,5.82L29.46,0H45.84l.36-1.68c-5.46-.48-5.88-.84-4.92-5.82l1.8-9.42,4.08,1.26c.66,0,1.44,0,2.22-.06,6.78-.48,14.34-4.62,14.34-13.08,0-6.84-4.62-10.14-12.9-10.14Zm9.3,5.34c.36-1.92.78-2.58,1.44-2.88a5.7,5.7,0,0,1,2.52-.48c4.92,0,7.62,2.88,7.62,7.86,0,7.68-5.64,10.98-10.08,10.98a11.578,11.578,0,0,1-4.26-.78Zm51,31.92c-4.2-.48-4.56-.96-5.34-5.46-1.32-7.32-2.64-14.94-3.9-22.74l-1.56-9.96-2.1.54L66.48-7.68c-2.88,5.16-3.54,5.46-7.2,6L58.8,0H71.82l.42-1.68c-4.62-.42-4.98-.9-3.3-4.32,1.26-2.7,2.94-5.94,4.02-7.92H85.32c.54,3.3,1.02,6.06,1.38,8.52.36,2.64.12,3.3-3.96,3.72L82.26,0H96.84ZM84.9-16.56H74.28c2.58-4.98,5.34-9.84,8.16-15.12h.12Zm49.02,5.94c-3.54,5.46-7.14,9.36-12.9,9.36-7.62,0-11.82-6.6-11.82-15.24,0-11.22,7.14-21.18,17.34-21.18,5.7,0,8.82,2.04,9.3,9.24l1.86-.18c.24-3,.36-6.3.48-9.36a29.479,29.479,0,0,0-10.32-1.92c-13.86,0-25.08,9.24-25.08,23.58C102.78-5.16,110.34.9,120.42.9A43.235,43.235,0,0,0,130.8-.6a73.153,73.153,0,0,0,4.74-9.18Zm12.06-28.32-.42,1.68c4.92.42,5.22.78,4.26,5.58L145.14-7.26c-.96,4.8-1.44,5.16-6.24,5.58L138.48,0H166.8c.84-1.92,3.06-7.56,3.72-9.3l-1.74-.6a24.455,24.455,0,0,1-4.08,5.7c-1.62,1.56-3.42,2.04-7.74,2.04-3.24,0-4.98-.12-5.88-.9-.78-.72-.84-2.28-.24-5.58l1.98-10.5h5.46c5.16,0,5.16.42,5.04,4.74h1.8l2.28-11.52h-1.8c-1.44,3.96-1.8,4.38-6.84,4.38H153.3l2.46-12.84c.42-2.22.6-2.46,2.7-2.46h4.32c4.26,0,5.1.54,5.76,1.92.66,1.14.78,3,.84,5.34l1.8-.12c.42-3.48.96-8.04,1.14-9.24Zm65.22,0H195.54l-.42,1.68c4.92.42,5.34.78,4.5,5.22l-4.86,24.9c-.9,4.62-1.26,5.1-5.88,5.46L188.46,0h15.78l.36-1.68c-4.86-.36-5.28-.78-4.38-5.46l4.8-24.9c.9-4.44,1.2-4.8,5.82-5.22Zm44.52,0H242.1l-.48,1.68c4.38.24,5.46.9,5.22,3.72a92.808,92.808,0,0,1-1.56,10.26l-2.7,14.34h-.18l-17.34-30H216l-.42,1.68c3.18.18,4.32.54,5.04,1.8.72,1.32.96,2.28.3,5.58l-3,14.28c-1.2,5.58-1.86,8.28-2.52,10.32-.78,2.64-2.16,3.42-5.28,3.6L209.7,0h13.92l.36-1.68c-4.2-.3-5.28-.96-5.1-3.72a77.323,77.323,0,0,1,1.5-10.08l3.06-15.6h.18L241.26.48h2.04l4.5-23.76a101.872,101.872,0,0,1,2.34-10.2c.78-2.64,1.56-3.6,5.22-3.78Zm43.5,0H285.6l-.48,1.68c4.38.24,5.46.9,5.22,3.72a92.812,92.812,0,0,1-1.56,10.26l-2.7,14.34h-.18l-17.34-30H259.5l-.42,1.68c3.18.18,4.32.54,5.04,1.8.72,1.32.96,2.28.3,5.58l-3,14.28c-1.2,5.58-1.86,8.28-2.52,10.32-.78,2.64-2.16,3.42-5.28,3.6L253.2,0h13.92l.36-1.68c-4.2-.3-5.28-.96-5.1-3.72a77.321,77.321,0,0,1,1.5-10.08l3.06-15.6h.18L284.76.48h2.04l4.5-23.76a101.866,101.866,0,0,1,2.34-10.2c.78-2.64,1.56-3.6,5.22-3.78Zm23.16-.96c-12.6,0-21.9,11.22-21.9,23.76C300.48-5.94,307.02.9,316.5.9c12.84,0,21.96-10.8,21.96-23.58C338.46-32.76,332.04-39.9,322.38-39.9Zm-.42,2.16c7.44,0,10.2,6.36,10.2,14.28,0,9.96-5.58,22.2-15.18,22.2-7.08,0-10.26-6.18-10.26-14.16C306.72-26.1,312.9-37.74,321.96-37.74Zm61.32-1.2H370.14l-.48,1.68,1.74.24c2.7.3,3.06.9,1.5,4.2-2.64,5.52-8.82,16.56-13.56,25.08h-.12c-1.86-10.26-4.2-22.2-4.68-26.28-.3-2.22-.06-2.64,2.28-3l1.56-.24.42-1.68H344.64l-.48,1.68c3.72.42,4.32.72,5.22,5.28,1.32,6.9,4.02,21.42,5.82,32.58h1.98c6.78-12.48,15.3-27.54,18.18-32.16,3.06-4.92,3.72-5.28,7.5-5.7ZM411.42-1.68c-4.2-.48-4.56-.96-5.34-5.46-1.32-7.32-2.64-14.94-3.9-22.74l-1.56-9.96-2.1.54L380.64-7.68c-2.88,5.16-3.54,5.46-7.2,6L372.96,0h13.02l.42-1.68c-4.62-.42-4.98-.9-3.3-4.32,1.26-2.7,2.94-5.94,4.02-7.92h12.36c.54,3.3,1.02,6.06,1.38,8.52.36,2.64.12,3.3-3.96,3.72L396.42,0H411ZM399.06-16.56H388.44c2.58-4.98,5.34-9.84,8.16-15.12h.12Zm49.2-23.88c-1.14,1.14-1.56,1.5-3.12,1.5h-22.8c-1.56,0-2.22-.12-2.82-1.5h-1.38c-.66,3.24-1.74,7.2-2.82,10.8h1.86a23.314,23.314,0,0,1,3-5.4c1.14-1.32,2.22-1.8,7.2-1.8h3L424.74-7.26c-.9,4.68-1.32,5.22-6.36,5.58L417.96,0h16.86l.36-1.68c-5.4-.36-5.82-.84-4.98-5.58l5.58-29.58h3.54c4.32,0,5.64.36,6.24,1.74.6,1.26.72,3.06.72,5.46l1.92-.12c.36-3.36.9-8.04,1.44-10.68Zm22.44,1.5H455.04l-.42,1.68c4.92.42,5.34.78,4.5,5.22l-4.86,24.9c-.9,4.62-1.26,5.1-5.88,5.46L447.96,0h15.78l.36-1.68c-4.86-.36-5.28-.78-4.38-5.46l4.8-24.9c.9-4.44,1.2-4.8,5.82-5.22Zm24-.96c-12.6,0-21.9,11.22-21.9,23.76C472.8-5.94,479.34.9,488.82.9c12.84,0,21.96-10.8,21.96-23.58C510.78-32.76,504.36-39.9,494.7-39.9Zm-.42,2.16c7.44,0,10.2,6.36,10.2,14.28,0,9.96-5.58,22.2-15.18,22.2-7.08,0-10.26-6.18-10.26-14.16C479.04-26.1,485.22-37.74,494.28-37.74Zm63.66-1.2H544.32l-.48,1.68c4.38.24,5.46.9,5.22,3.72a92.8,92.8,0,0,1-1.56,10.26L544.8-8.94h-.18l-17.34-30h-9.06l-.42,1.68c3.18.18,4.32.54,5.04,1.8.72,1.32.96,2.28.3,5.58l-3,14.28c-1.2,5.58-1.86,8.28-2.52,10.32-.78,2.64-2.16,3.42-5.28,3.6L511.92,0h13.92l.36-1.68c-4.2-.3-5.28-.96-5.1-3.72a77.321,77.321,0,0,1,1.5-10.08l3.06-15.6h.18L543.48.48h2.04l4.5-23.76a101.882,101.882,0,0,1,2.34-10.2c.78-2.64,1.56-3.6,5.22-3.78Zm-.3,27.12c.12,4.32.12,7.62.18,9C559.2-1.26,563.4.9,568.26.9c7.08,0,13.32-4.5,13.32-11.58,0-4.86-2.94-8.04-7.08-11.1l-1.8-1.32c-3.12-2.34-5.4-4.5-5.4-7.92a6.54,6.54,0,0,1,6.54-6.84c5.16,0,6.72,4.32,7.2,8.7l1.8-.18c.06-2.88,0-6.06.18-8.52-.48-.18-1.44-.6-2.58-1.02a19.273,19.273,0,0,0-5.94-1.02c-7.2,0-12.3,4.5-12.3,10.86,0,4.98,3.84,8.34,6.78,10.62l1.74,1.32c3.42,2.7,5.4,5.04,5.4,8.34,0,4.56-2.76,7.56-7.08,7.56-6.54,0-9.06-6.36-9.66-10.8Z" transform="translate(-2.169 40.49)" fill="#fff" stroke="#fff" stroke-width="0.1"/>
</svg>
