<svg xmlns="http://www.w3.org/2000/svg" xmlns:xlink="http://www.w3.org/1999/xlink" width="193" height="13.984" viewBox="0 0 193 13.984">
  <defs>
    <clipPath id="clip-path">
      <rect id="長方形_9554" data-name="長方形 9554" width="193" height="13.984" fill="#fff"/>
    </clipPath>
  </defs>
  <g id="グループ_30172" data-name="グループ 30172" transform="translate(0 0)">
    <rect id="長方形_9551" data-name="長方形 9551" width="2.685" height="13.752" transform="translate(0 0.116)" fill="#fff"/>
    <path id="パス_39175" data-name="パス 39175" d="M12.808.094v8.42L7.362.094H4.967V13.846H7.651V5.406l5.448,8.44h2.394V.094Z" transform="translate(1.173 0.022)" fill="#fff"/>
    <path id="パス_39176" data-name="パス 39176" d="M24.116.094v8.42L18.67.094H16.276V13.846h2.684V5.406l5.448,8.44h2.4V.094Z" transform="translate(3.843 0.022)" fill="#fff"/>
    <g id="グループ_26605" data-name="グループ 26605" transform="translate(0 0)">
      <g id="グループ_26604" data-name="グループ 26604" clip-path="url(#clip-path)">
        <path id="パス_39177" data-name="パス 39177" d="M35.958,12.534a4.9,4.9,0,0,1-3.67,1.449A4.942,4.942,0,0,1,28.6,12.534c-1.371-1.371-1.391-2.916-1.391-5.543s.02-4.172,1.391-5.543A4.942,4.942,0,0,1,32.288,0a4.9,4.9,0,0,1,3.67,1.449c1.372,1.371,1.41,2.916,1.41,5.543s-.038,4.172-1.41,5.543M34.008,3.129a2.233,2.233,0,0,0-1.719-.734,2.308,2.308,0,0,0-1.738.734c-.5.58-.656,1.236-.656,3.863s.155,3.265.656,3.843a2.317,2.317,0,0,0,1.738.754,2.243,2.243,0,0,0,1.719-.754c.5-.579.676-1.216.676-3.843s-.174-3.283-.676-3.863" transform="translate(6.424 0.001)" fill="#fff"/>
        <path id="パス_39178" data-name="パス 39178" d="M42.987,13.846H40.978L36.439.094h2.781l2.763,8.962L44.745.094h2.8Z" transform="translate(8.604 0.023)" fill="#fff"/>
        <path id="パス_39179" data-name="パス 39179" d="M54.454,13.846l-.812-2.434H48.755l-.831,2.434h-2.8l5-13.752h2.105l5.021,13.752Zm-3.206-9.7-1.738,5h3.418Z" transform="translate(10.655 0.023)" fill="#fff"/>
        <path id="パス_39180" data-name="パス 39180" d="M60.867,2.489V13.846H58.182V2.489H54.59V.094h9.869V2.489Z" transform="translate(12.89 0.023)" fill="#fff"/>
        <rect id="長方形_9552" data-name="長方形 9552" width="2.685" height="13.752" transform="translate(79.778 0.116)" fill="#fff"/>
        <path id="パス_39181" data-name="パス 39181" d="M77.88,12.534a5.4,5.4,0,0,1-7.359,0c-1.371-1.371-1.391-2.916-1.391-5.543s.02-4.172,1.391-5.543a5.4,5.4,0,0,1,7.359,0c1.372,1.371,1.41,2.916,1.41,5.543s-.038,4.172-1.41,5.543M75.93,3.129a2.233,2.233,0,0,0-1.719-.734,2.308,2.308,0,0,0-1.738.734c-.5.58-.656,1.236-.656,3.863s.155,3.265.656,3.843a2.317,2.317,0,0,0,1.738.754,2.243,2.243,0,0,0,1.719-.754c.5-.579.676-1.216.676-3.843s-.174-3.283-.676-3.863" transform="translate(16.323 0.001)" fill="#fff"/>
        <path id="パス_39182" data-name="パス 39182" d="M87.9,13.846l-5.446-8.44v8.44H79.768V.094h2.394L87.61,8.515V.094h2.684V13.846Z" transform="translate(18.834 0.023)" fill="#fff"/>
        <path id="パス_39183" data-name="パス 39183" d="M104.676,13.846V5.831l-2.627,5.214h-1.816L97.588,5.831v8.015H94.9V.094h2.645l3.593,7.436L104.715.094h2.647V13.846Z" transform="translate(22.408 0.023)" fill="#fff"/>
        <rect id="長方形_9553" data-name="長方形 9553" width="2.685" height="13.752" transform="translate(133.22 0.116)" fill="#fff"/>
        <path id="パス_39184" data-name="パス 39184" d="M120.872,13.846l-5.446-8.44v8.44H112.74V.094h2.394l5.448,8.422V.094h2.684V13.846Z" transform="translate(26.62 0.023)" fill="#fff"/>
        <path id="パス_39185" data-name="パス 39185" d="M133.165,11.837a4.676,4.676,0,0,1-4.152,2.009h-4.964V.094h4.964A4.676,4.676,0,0,1,133.165,2.1c.849,1.178.869,2.588.869,4.868s-.02,3.689-.869,4.867m-2.376-8.5a2.4,2.4,0,0,0-2.009-.849h-2.047V11.45h2.047a2.4,2.4,0,0,0,2.009-.849c.5-.6.56-1.469.56-3.63s-.058-3.033-.56-3.632" transform="translate(29.29 0.023)" fill="#fff"/>
        <path id="パス_39186" data-name="パス 39186" d="M144.128,13.846h-5.755V.094H143.9c2.685,0,4.25,1.507,4.25,3.863a3.183,3.183,0,0,1-1.7,2.839,3.193,3.193,0,0,1,1.892,3.09c0,2.569-1.758,3.959-4.21,3.959m-.445-11.357h-2.627V5.657h2.627a1.561,1.561,0,0,0,1.778-1.583,1.561,1.561,0,0,0-1.778-1.585m.174,5.582h-2.8v3.38h2.8a1.628,1.628,0,0,0,1.8-1.7,1.614,1.614,0,0,0-1.8-1.68" transform="translate(32.672 0.023)" fill="#fff"/>
        <path id="パス_39187" data-name="パス 39187" d="M154.089,8.206v5.639h-2.665V8.206L147.29.094h2.916l2.57,5.543L155.3.094h2.917Z" transform="translate(34.778 0.023)" fill="#fff"/>
      </g>
    </g>
  </g>
</svg>
