<svg xmlns="http://www.w3.org/2000/svg" width="188.904" height="15.813" viewBox="0 0 188.904 15.813">
  <path id="パス_130502" data-name="パス 130502" d="M13.532-9.486A2.174,2.174,0,0,0,11.7-8.415c0,.051.017.068.068.068a.38.38,0,0,0,.17-.051,1.476,1.476,0,0,1,.663-.17c.578,0,1.428.238,1.428.918a.9.9,0,0,1-.068.306,1.171,1.171,0,0,0-.051.136.079.079,0,0,0,.085.085c.068,0,.425-.1.51-.119.085,0,.476.034.578.034.357,0,.561-.459.561-.816C15.64-8.806,14.841-9.486,13.532-9.486ZM7.293-9.979c-.034.017-.068.051-.068.068,0,.034.085.2.085.238,0,.238-.476.425-.595.425-.1,0-.136-.119-.136-.187a9.081,9.081,0,0,1,.17-1.1,6.852,6.852,0,0,0,.357-.884A1.7,1.7,0,0,0,5.355-12.58c-.1,0-.374.034-.374.187a1.7,1.7,0,0,0,.238.272,1.669,1.669,0,0,1,.561,1.36,12.713,12.713,0,0,1-.17,1.853,7.426,7.426,0,0,1-2.159.51,4.939,4.939,0,0,1-.782-.085c-.051,0-.255-.068-.306-.068a.12.12,0,0,0-.136.119c0,.119.646,1.292,1.224,1.292a3.646,3.646,0,0,0,1.207-.323,3.976,3.976,0,0,1,.782-.153c.187,0,.238.255.238.374.017.289.034,1.734.034,2.125,0,.476-.1.527-.969.952a3.634,3.634,0,0,1-1.768.578c-.1,0-.595-.085-.7-.085-.306,0-.493.357-.493.663,0,.561.867,1.071,1.054,1.071a3.358,3.358,0,0,0,.646-.34,1.417,1.417,0,0,1,.425-.1c.221,0,.306,0,.85,1.054.136.272.323.629.782.629.612,0,.867-1.122.867-1.9,0-.17-.051-.935-.051-1.122,0-.289.1-.34,1.054-.85a8.683,8.683,0,0,1,3.519-1.275,1.761,1.761,0,0,1,1.632,1.87c0,1.36-1.428,2.108-2.55,2.108-.17,0-1.1,0-1.1-.816a.7.7,0,0,1,.153-.459c.034-.051.068-.085.068-.136a.091.091,0,0,0-.085-.085,1.515,1.515,0,0,0-.85,1.343c0,.884.782,1.377,1.751,1.377,1.394,0,3.757-1.02,3.757-3.264a2.6,2.6,0,0,0-2.618-2.567,7.989,7.989,0,0,0-2.89.68c-.272.1-1.666.68-1.717.68-.153,0-.153-.2-.153-.306,0-.085,0-1.462.034-1.836.034-.6.051-.663.289-.748.408-.17,1.7-.68,1.7-1.241C8.347-9.775,7.531-10.013,7.293-9.979ZM5.61-3.519c.051.034.051.2.051.272,0,.833-.238,1.309-.476,1.309-.255,0-.714-.544-.714-.8C4.471-2.975,5.559-3.519,5.61-3.519Zm19.567-7.038c.255,0,.425,0,.459.238v1.173c0,.374-.17.374-.459.374H22.916c-.255,0-.408,0-.459-.255v-1.156c0-.374.17-.374.459-.374Zm5.134-2.55a1.088,1.088,0,0,1-.476-.119,2.236,2.236,0,0,0-.816-.306c-.153,0-.187.187-.187.272,0,.289.085,1.564.085,1.819,0,.527-.017,3.213-.017,3.349.017.51.289.544.425.544a.78.78,0,0,0,.782-.544c.068-.238.272-.238.51-.238H32.81c.374,0,.561,0,.561.493,0,.952-.034,5.151-.034,6,0,1.258,0,1.394-.7,1.394-.17,0-.85-.034-1-.034-.119,0-.187.034-.187.085,0,.085.9.527,1.054.68a.9.9,0,0,1,.238.68c0,.085.136.153.221.153A2.349,2.349,0,0,0,34.034.578a2.052,2.052,0,0,0,.425-1.6c0-.493-.034-2.686-.034-3.128v-7.769a.7.7,0,0,1,.272-.646c.1-.085.2-.187.2-.289,0-.306-.986-.867-1.122-.867-.119,0-.153.051-.493.442a.4.4,0,0,1-.408.17Zm-7.531,0a.81.81,0,0,1-.493-.119,2.328,2.328,0,0,0-.952-.391c-.068,0-.068.1-.068.17,0,.153.136,1.717.136,2.04,0,5.27-.017,5.916-.187,11.713,0,.051-.017.221-.017.306,0,.408.153.578.442.578A.974.974,0,0,0,22.559.085c0-.187-.051-1.037-.051-1.207-.034-1.241-.051-5.134-.051-6.035,0-1.054,0-1.173.544-1.173h2.057c.221,0,.476,0,.527.238s.1.51.476.51c.8,0,.8-.884.8-1.1,0-.238-.068-2.363-.068-2.788,0-.612,0-.663.119-.782.051-.051.391-.255.391-.323,0-.306-.85-1.054-1.122-1.054-.136,0-.238.1-.527.357a.468.468,0,0,1-.425.17Zm2.431.442c.374,0,.442.051.442.442v.986c-.034.221-.221.238-.442.238H22.9c-.289,0-.442-.017-.442-.374v-.952c0-.323.153-.34.442-.34ZM30.532-11c-.272,0-.408,0-.459-.17a4.155,4.155,0,0,1-.034-1c0-.476.085-.493.493-.493h2.346c.272,0,.408,0,.459.153a4.381,4.381,0,0,1,.034,1.02c0,.476-.1.493-.493.493Zm0,2.21c-.34,0-.476,0-.476-.374v-1c0-.391.136-.391.476-.391H32.9c.34,0,.476,0,.476.391v1c0,.374-.136.374-.476.374Zm-4,3.128a1.039,1.039,0,0,1-.561-.153c-.85-.391-.9-.391-1-.391-.068,0-.085.068-.085.136,0,.051.051.425.068.527.051.459.034,1.462.034,1.887,0,.68-.034,1.139-.068,1.87-.017.153-.034.612-.034.731,0,.374.085.629.391.629a.984.984,0,0,0,.884-.85c.034-.476.034-.561.544-.561h2.159c.289,0,.544,0,.544.408,0,.2.068.476.34.476a1.27,1.27,0,0,0,.748-.442c.136-.17.153-.374.153-.8,0-.391-.034-2.091-.017-2.431a.474.474,0,0,1,.136-.323c.153-.153.255-.238.255-.34,0-.34-.85-.952-1.037-.952-.17,0-.238.1-.476.408a.441.441,0,0,1-.425.17ZM26.724-2.3c-.357,0-.595-.034-.595-.323V-4.675c0-.476.1-.527.595-.527H28.9c.272,0,.476,0,.561.2.034.1.051,1.207.051,1.411A7.3,7.3,0,0,1,29.461-2.5c-.068.2-.306.2-.561.2Zm15.215-8.874c-.034,0-.1.017-.1.068a2.3,2.3,0,0,0,.136.578,4.723,4.723,0,0,1,.119.986c0,.442-.238,2.533-.238,3.009C41.854-3.281,44-1.5,45.084-1.5c.289,0,.646-.187.646-.527a4.264,4.264,0,0,0-.136-.561,2.294,2.294,0,0,1-.1-.68,4.77,4.77,0,0,1,.221-1.292,2.039,2.039,0,0,0,.051-.34c0-.068-.034-.136-.085-.136-.136,0-.425.408-.527.578-.51.85-.578.935-.867.935-.527,0-1.411-1.241-1.411-2.958a6,6,0,0,1,.408-2.193,2.329,2.329,0,0,0,.2-.68C43.486-9.809,42.721-11.169,41.939-11.169ZM50.048-9.6c-.085,0-.153.034-.153.085,0,.1.68.629.816.765.9.9.9,1.615.9,3.026,0,.221,0,1.139.833,1.139.816,0,.85-.8.85-1.122a4.231,4.231,0,0,0-1.513-3.247A3.309,3.309,0,0,0,50.048-9.6ZM63.682-4.811a1.545,1.545,0,0,1-.7-.1,8.673,8.673,0,0,0-1.02-.459c-.153,0-.153.136-.153.187,0,.068.085.459.085.527.051.306.034,1.292.034,1.649,0,.612-.153,3.74-.153,3.842a.4.4,0,0,0,.442.442,1.57,1.57,0,0,0,.9-.34c.119-.119.119-.17.119-.629s.34-.459.51-.459h5.134c.442,0,.442.187.442.9,0,.119,0,.442.374.442.238,0,1.088-.221,1.088-.68,0-.476-.1-2.839-.1-3.366,0-.255.017-1.02.187-1.173s.221-.2.221-.357c0-.289-1-1.071-1.105-1.071-.119,0-.561.493-.663.578a.732.732,0,0,1-.374.068ZM63.733-.6c-.493,0-.51-.306-.51-.527,0-.391.017-2.3.017-2.72,0-.255.034-.527.527-.527h5.168c.476,0,.476.323.476.527,0,.391-.017,2.3-.017,2.72,0,.2,0,.527-.493.527Zm1.734-13.94c-.051.034-.323.935-.408,1.1a21.852,21.852,0,0,1-4.148,5.7c-.306.306-1.955,1.768-1.955,1.853,0,.051.051.1.136.1.442,0,4.335-2.55,7.14-6.613.34-.493.374-.544.459-.544s.34.544.442.765a12.938,12.938,0,0,0,3.2,4.488,6.822,6.822,0,0,0,2.465,1.87c.068,0,.153-.085.221-.153a2.2,2.2,0,0,1,1.071-.476c.527-.119.6-.136.6-.289,0-.119,0-.119-.544-.323a13.983,13.983,0,0,1-4.284-2.618,11.98,11.98,0,0,1-2.652-3.57.155.155,0,0,1,.068-.136c.136-.1.187-.119.187-.221a.13.13,0,0,0-.034-.085A7.759,7.759,0,0,0,65.467-14.535Zm.374,7.072c-.8,0-1.513,0-2.346-.051-.1,0-.629-.068-.748-.068-.034,0-.051.017-.051.034,0,.034,0,.051.068.119l.323.391c.068.068.1.1.153.1s.306-.034.357-.034c.493-.034.952-.051,2.159-.051h3.2c.51,0,.918,0,.918-.2a6.471,6.471,0,0,0-1.547-1.224c-.153,0-.68.714-.816.833-.187.153-.391.153-1,.153Zm18.343-2.873c0-.187.051-.714.085-.986.034-.221.255-1.292.255-1.547,0-.561-1.156-1.258-1.615-1.258-.17,0-.578.085-.578.221,0,.068.034.1.323.442a3.217,3.217,0,0,1,.68,2.4,5.6,5.6,0,0,1-.153,1.445,5.663,5.663,0,0,1-.442.408C81.6-8.16,81.5-8.143,81.209-8.092c-.7.1-1.156.17-1.156.748,0,.306.051.374.6,1.054a2.978,2.978,0,0,1,.663,1.309,12.854,12.854,0,0,1-.85,1.649c-.425.714-.51.867-.51,1.156,0,.34.2.476.408.476.612,0,.969-.7,1.224-1.19.136-.272.357-.7.442-.7.408,0,.51,1.615.544,1.972.068,1.037.119,1.649.6,1.649a1.037,1.037,0,0,0,.748-.986c0-.1-.068-.663-.085-.8-.068-.9-.085-3.06-.085-3.434,0-1.156.1-1.445.323-1.7a6.861,6.861,0,0,1,4.454-1.751A2.458,2.458,0,0,1,91.086-6c0,2.533-2.465,4.4-3.315,4.981-.187.136-1.258.731-1.258.782,0,.034.034.034.068.034.391,0,5.831-1.326,5.831-5.406a3.514,3.514,0,0,0-3.859-3.57,7.07,7.07,0,0,0-3.434.986,3.4,3.4,0,0,1-.493.255.078.078,0,0,1-.068-.085.944.944,0,0,1,.119-.323,1.867,1.867,0,0,0,.238-.816c0-.119,0-.391-.442-.663C84.2-10,84.184-10.013,84.184-10.336ZM83.045-8.4c.068.017.068.1.068.238,0,.612,0,.646-1.054,2.193-.187.272-.238.357-.34.357-.187,0-.8-1.088-.8-1.326,0-.221.17-.238.714-.272a1.016,1.016,0,0,0,.731-.6C82.654-8.3,82.943-8.415,83.045-8.4Zm-.119,2.992c.051,0,.085.034.085.1,0,.782,0,1.7-.2,1.7-.153,0-.493-.442-.493-.663A2.605,2.605,0,0,1,82.926-5.406Zm25.942-6a1.376,1.376,0,0,0-1.445-1.19c-.085,0-.374.017-.374.187,0,.034.306.612.323.629a2.505,2.505,0,0,1,.2,1.173c0,.221-.034,1.037-.085,1.377-.068.357-.187.374-1.241.544-.442.068-2.584.544-2.7.544-.221,0-.221-.136-.221-.493a9.38,9.38,0,0,1,.085-1.309,3.477,3.477,0,0,0,.085-.527c0-.6-1.054-1.071-1.462-1.071-.2,0-.493.085-.493.238,0,.068.34.663.391.8a4.144,4.144,0,0,1,.272,1.785c0,.629-.017.782-.289.867a7.963,7.963,0,0,1-2.159.238c-.153,0-.867-.068-1.037-.068-.153,0-.221.017-.221.238,0,.935,1.377,1.258,1.751,1.258.255,0,1.428-.527,1.717-.527.306,0,.306.17.306,1.6,0,3.23,0,4.59,4.862,4.59.391,0,1.938,0,1.938-.8a.885.885,0,0,0-.918-.731,5.365,5.365,0,0,0-.816.119,7.657,7.657,0,0,1-1.5.136c-2.38,0-2.686-.8-2.686-2.4,0-.051.034-1.6.051-2.159a1.367,1.367,0,0,1,.153-.7c.221-.374,3.3-1.054,3.655-1.054.255,0,.255.085.255.221a7.551,7.551,0,0,1-.493,1.938.612.612,0,0,1-.578.442c-.153,0-.918-.306-1.105-.306-.034,0-.085,0-.085.034a2.036,2.036,0,0,0,.221.357,6.175,6.175,0,0,1,.323.748c.153.493.221.68.8.68.612,0,1.53-.867,1.853-3.383.1-.884.119-.918,1.1-.918.306,0,1.785.187,2.125.187s.833-.119.833-.561c0-.34-.255-.612-1.326-.918a9.157,9.157,0,0,0-1.224-.306c-.034,0-.136,0-.136.068a.14.14,0,0,0,.068.1c.306.289.34.323.34.425,0,.187-.153.2-.527.238-.136,0-.731.068-.8.068-.051,0-.187,0-.187-.085,0-.1.017-.221.136-1.36C108.63-10.591,108.868-11.373,108.868-11.407Zm20.723,1.122c.476,0,.476.119.493.952.068,2.6.085,2.89.085,5.423,0,.357,0,2.89-.017,2.941-.051.34-.323.391-.595.391-.1,0-.986-.068-1.207-.1-.136-.017-.816-.136-.867-.136a.138.138,0,0,0-.153.119c0,.1.068.119.731.374A1.709,1.709,0,0,1,129.336.952c.034.153.068.272.17.272a2.862,2.862,0,0,0,1.717-.85,2.67,2.67,0,0,0,.289-1.513c0-1.037-.153-5.559-.153-6.494,0-1.241.034-1.8.272-2.108.289-.374.323-.408.323-.527,0-.391-1.139-1.343-1.377-1.343-.153,0-.289.2-.612.646-.051.068-.17.221-.578.221h-3.706c-.136,0-.391-.034-.391-.34,0-.323.136-1.479.17-1.887.017-.119.391-.527.391-.646,0-.323-1.564-.527-1.751-.527-.085,0-.153,0-.153.034,0,.1.068.51.068.595.017.221.017.612.017,1.122,0,1.649-.068,1.649-.544,1.649h-3.4c-.357,0-.408-.034-.952-.357a7.842,7.842,0,0,0-.969-.51c-.068,0-.1.051-.1.136s.068.425.068.493c.068,1.088.068,1.105.068,6.1,0,1.819,0,2.941-.068,4.556,0,.153-.034.8-.034.935,0,.1,0,.612.34.612a2.277,2.277,0,0,0,.85-.323A.618.618,0,0,0,119.51.34c0-.714-.068-3.944-.068-4.59V-9.775c0-.2,0-.51.493-.51h3.485c.187,0,.425,0,.425.374a11.283,11.283,0,0,1-3.672,6.851c-.289.238-.408.323-.408.408s.1.085.136.085c.663,0,3.145-1.887,4.4-4.59.051-.1.238-.595.289-.68a.3.3,0,0,1,.255-.187c.272,0,1.377,1.445,1.547,1.734a18.619,18.619,0,0,1,1.139,2.448c.136.34.391.952.969.952.51,0,.646-.527.646-.867,0-.663-.7-2.567-3.111-4.148-.153-.1-.833-.51-.9-.561a.393.393,0,0,1-.17-.34c0-.1.2-1.139.221-1.224.085-.255.221-.255.442-.255ZM145.911.544c.255,0,.374.017.476.255a.5.5,0,0,0,.561.391c.527,0,.765-.544.765-1.02,0-.119-.068-1.666-.068-1.972,0-.85.068-.9.221-1,.323-.238.357-.272.357-.391,0-.272-1.122-1.122-1.292-1.122-.153,0-.357.238-.476.391a.647.647,0,0,1-.663.289h-3.519a1.994,1.994,0,0,1-.986-.272,4.593,4.593,0,0,0-.8-.289.121.121,0,0,0-.119.136,2.579,2.579,0,0,0,.051.357c.051.714.1,1.411.1,1.972,0,.918-.034,1.547-.068,2.023a4.26,4.26,0,0,0-.051.527c0,.289.187.442.629.442A.731.731,0,0,0,141.7.952c.221-.374.255-.408.527-.408Zm.051-3.74c.51,0,.51.221.51.578V-.357c0,.34-.119.442-.51.442h-3.774c-.51,0-.51-.2-.51-.561V-2.737c0-.34.119-.459.51-.459Zm-.7-8.976c-.306,0-.578-.017-.578-.612,0-.357.068-.391.272-.51a.43.43,0,0,0,.238-.34c0-.221-.238-.306-.289-.323-.119-.051-1.462-.272-1.513-.272a.165.165,0,0,0-.187.17c0,.085.136.442.153.527a4.671,4.671,0,0,1,.068.884c0,.391-.17.476-.578.476h-3.825c-.289,0-.323-.1-.459-.459-.051-.1-.238-.442-.306-.442-.034,0-.1.272-.119.323a3.3,3.3,0,0,1-.765,1.513c-.612.68-.7.782-.7.986a.7.7,0,0,0,.7.612c.357,0,1.105-.323,1.326-1.445.119-.595.136-.646.51-.646h9.639c.153,0,.34,0,.34.238,0,.119-.238.782-.238.816a.045.045,0,0,0,.051.051.913.913,0,0,0,.272-.17,2.505,2.505,0,0,1,1.411-.442c.119,0,.663,0,.731-.017a.421.421,0,0,0,.272-.323c0-.136-.289-.34-.561-.527-.17-.119-.952-.731-1.088-.8a.263.263,0,0,0-.136-.034c-.1,0-.391.493-.459.578a.642.642,0,0,1-.51.187ZM152.3-4.3c.034-.068-.119-.085-.187-.085a9.5,9.5,0,0,1-1.734-.289A17.42,17.42,0,0,1,144.857-7.8c-.136-.119-.136-.153-.136-.493,0-.238-.119-.306-.425-.459a7.966,7.966,0,0,0-.952-.408c-.153,0-.255.153-.306.238a3.17,3.17,0,0,1-.51.884,25.076,25.076,0,0,1-5.61,4.573,2.33,2.33,0,0,0-.7.51c0,.017.017.034.051.034s.884-.238,1.122-.323a17.638,17.638,0,0,0,6.171-4.063c.425-.459.476-.51.663-.51.2,0,.238.051.493.374a12.914,12.914,0,0,0,2.788,2.873,16.455,16.455,0,0,0,2.533,1.564c.085,0,.187-.1.238-.153a3.563,3.563,0,0,1,1.547-.986A2.242,2.242,0,0,0,152.3-4.3Zm-9.928-5.406c.323-.119.408-.153.408-.289,0-.221-1.088-.884-1.19-.884-.119,0-.17.085-.357.391a15.723,15.723,0,0,1-3.06,2.55,7.627,7.627,0,0,0-.765.493.045.045,0,0,0,.051.051,13.882,13.882,0,0,0,4.216-1.853C141.78-9.316,142.256-9.656,142.375-9.707Zm6.256,1.8c.34.408.476.578.8.578a.609.609,0,0,0,.612-.612c0-.544-.544-1.649-2.839-2.3-.629-.17-1.9-.408-1.921-.408a.062.062,0,0,0-.068.068c0,.051.289.221.374.255A9.557,9.557,0,0,1,148.631-7.905Zm18.19-4.2c-.153,0-.34,0-.34-.187a2.105,2.105,0,0,1,.272-.663c.068-.119.51-.493.51-.612a.219.219,0,0,0-.119-.187c-.034-.017-1.411-.493-1.462-.493-.17,0-.17.2-.17.357a4.111,4.111,0,0,1-.289,1.445c-.119.272-.255.34-.578.34h-.969c-.374,0-.442-.017-.527-.187-.357-.714-.544-.748-.578-.748-.068,0-.068.1-.068.17a2.333,2.333,0,0,1-.493,1.513c-.527.884-.6.969-.6,1.275a.61.61,0,0,0,.561.646c.085,0,.952,0,1.224-1.768.068-.442.17-.442.493-.442h.8c.119,0,.34,0,.34.187A39.256,39.256,0,0,1,162.5-7.14a17.235,17.235,0,0,0-.918,1.462.037.037,0,0,0,.034.034c.153,0,1.139-.884,1.224-.884.153,0,.153.1.153.255,0,.612,0,5.083-.017,5.338-.017.238-.136,1.309-.136,1.53,0,.374.068.544.561.544.748,0,.748-.612.748-.9,0-.408,0-.544.476-.544h5.8a2.391,2.391,0,0,0,.748-.051.216.216,0,0,0,.153-.187,3.365,3.365,0,0,0-1.19-1.105c-.136,0-.17.051-.527.476-.306.374-.391.408-1.139.408h-.646c-.272,0-.544,0-.544-.527,0-.476,0-1.343.017-1.428.068-.289.357-.289.544-.289h1.717a2.456,2.456,0,0,0,.748-.051c.068-.034.153-.085.153-.187,0-.255-.884-.952-1.088-.952-.17,0-.272.119-.425.323a.912.912,0,0,1-.867.408c-.442,0-.646,0-.748-.221a7.837,7.837,0,0,1-.051-1.241c0-.493.221-.561.493-.561h1.785a2.391,2.391,0,0,0,.748-.051.2.2,0,0,0,.153-.187c0-.272-.9-1.054-1.105-1.054-.136,0-.221.1-.459.425a.822.822,0,0,1-.782.408c-.476,0-.527,0-.646-.051-.2-.1-.2-.221-.2-1.207,0-.391.017-.612.544-.612h2.023a2.521,2.521,0,0,0,.748-.051.188.188,0,0,0,.136-.187,2.951,2.951,0,0,0-1.173-1.156c-.153,0-.2.051-.544.527-.306.425-.459.425-1.139.425h-.833c-.085,0-.17,0-.17-.051a5.7,5.7,0,0,1,1.173-1.36c.255-.136.408-.2.408-.425s-.085-.255-.816-.51a5.132,5.132,0,0,0-.8-.306c-.085,0-.153.034-.153.136,0,.068.1.391.1.459a9.618,9.618,0,0,1-.459,1.717c-.068.187-.119.34-.34.34h-1.445c-.119,0-.255,0-.255-.17,0-.068.833-1.394.986-1.649.221-.357.51-.952.748-1.292a.628.628,0,0,1,.612-.272h2.176c.085,0,.255,0,.255.17a7.084,7.084,0,0,1-.374,1,.037.037,0,0,0,.034.034c.187-.085.493-.255.646-.34a1.8,1.8,0,0,1,.935-.289c.119,0,.612.085.714.085a.261.261,0,0,0,.255-.255c0-.442-1.037-1.581-1.428-1.581-.136,0-.238.17-.425.459-.153.238-.187.255-.493.255Zm-2.176,8.636c-.561,0-.561-.136-.561-1.02s0-1,.578-1h1c.544,0,.544.153.544,1,0,.884,0,1.02-.561,1.02Zm-.017-2.482c-.527,0-.527-.17-.527-.935s0-.935.51-.935h1.054c.527,0,.527.17.527.935s0,.935-.544.935ZM164.7-.765c-.561,0-.561,0-.561-1.666,0-.391.051-.578.51-.578h1c.578,0,.578.153.578,1.513,0,.6-.1.731-.561.731Zm-3.808-11.084c.8,0,.884,0,.884-.238,0-.17-.9-1.258-1.173-1.258-.153,0-.2.068-.68.646-.306.357-.374.408-.986.408-.119,0-1.8-.017-2.669-.068-.085,0-.51-.051-.612-.051-.034,0-.068.017-.068.034,0,.034.017.034.085.119l.323.391c.051.068.085.1.153.1.136,0,1.309-.068,1.547-.068.187,0,.2.1.2.17a20.006,20.006,0,0,1-1.326,4.556c-.119.34-.884,2.125-.884,2.159,0,.068.034.1.085.1a5.181,5.181,0,0,0,1.207-1.275c.153-.221.2-.289.272-.289s.068.136.068.238v1.292c0,1.411-.017,2.839-.034,4.25,0,.119-.068.629-.068.748,0,.238.1.459.323.459a.908.908,0,0,0,.9-.833c0-.17-.017-1-.017-1.19,0-.476,0-.714.442-.714h.51c.221,0,.425.017.442.34.034.527.051.629.408.629.765,0,.765-.9.765-1.054,0-.544-.085-3.23-.085-3.842,0-1.207.017-1.224.221-1.377s.238-.17.238-.323c0-.391-.918-.9-1.054-.9s-.187.051-.425.323a.667.667,0,0,1-.6.221H158.8c-.187,0-.663,0-.663-.238,0-.034.884-2.618.986-2.924.119-.391.238-.544.612-.544Zm-1.547,4.165c.493,0,.527.255.527.51,0,1.87,0,3.876-.017,4.148-.017.357-.255.425-.527.425h-.408c-.2,0-.476-.034-.51-.391-.034-.459-.034-3.6-.034-4.2,0-.374.153-.493.527-.493Zm19.5,7.565c.425,0,.527.17.527.459.017.442.017.527.306.527A.743.743,0,0,0,180.506.1c0-.17-.068-.9-.068-1.037-.017-.425-.017-1.411-.017-1.87,0-.408.017-.442.2-.561.068-.051.323-.2.323-.374,0-.272-1.258-.731-1.258-.731-.085,0-.323.34-.374.391-.085.1-.221.1-.442.1h-1.241a2.153,2.153,0,0,1-.8-.153c-.017,0-.561-.187-.6-.187-.187,0-.187.119-.187.2,0,.1.034.493.051.578a19.249,19.249,0,0,1,.1,1.938c0,.374-.119,2.295-.119,2.329,0,.153,0,.391.476.391.731,0,.748-.476.748-.714.017-.476.2-.527.527-.527Zm.034-3.417c.119,0,.391.017.476.2.051.136.051,1.411.051,1.6,0,1.054,0,1.173-.527,1.173H177.8c-.136,0-.391,0-.476-.2a17.876,17.876,0,0,1-.1-2.21c0-.408.136-.561.544-.561Zm-.952-9.775c-.306,0-.51,0-1.394-.051-.068,0-.391-.051-.476-.051-.017,0-.068,0-.068.051a.13.13,0,0,0,.034.085l.289.391c.034.034.068.1.136.1s.357-.051.408-.051c.442-.017.765-.017,1.122-.017h1.938c.357,0,.561,0,.561-.17a2.309,2.309,0,0,0-1-.867c-.119,0-.2.1-.476.476-.051.068-.085.1-.578.1Zm.17,2.312c-.8,0-1.5-.034-2.329-.068-.1,0-.629-.051-.748-.051-.034,0-.051,0-.051.034s0,.034.068.119l.323.391c.068.068.085.1.17.1.068,0,.408-.051.493-.051.68-.034,1.5-.034,1.989-.034h2.448c.816,0,.9,0,.9-.187a2.624,2.624,0,0,0-1.088-.816c-.119,0-.221.119-.34.272-.221.289-.306.289-1.088.289Zm-.034,2.4c-.357,0-.6,0-1.411-.051a4.271,4.271,0,0,0-.459-.068c-.051,0-.085.017-.085.068,0,.034.017.051.051.085l.272.391c.034.034.068.085.136.085s.357-.034.425-.034c.442-.034.731-.034,1.1-.034h1.87c.357,0,.561,0,.561-.2,0-.187-.68-.7-.85-.7-.119,0-.2.1-.306.238-.187.221-.272.221-.629.221Zm.1,2.142c-.323,0-.544,0-1.394-.051-.068,0-.391-.051-.459-.051-.034,0-.085,0-.085.051a.209.209,0,0,0,.034.085l.289.391c.034.051.085.1.136.1a4.111,4.111,0,0,0,.425-.051C177.5-6,177.888-6,178.211-6H180.1c.323,0,.561,0,.561-.2s-.884-.833-1-.833c-.068,0-.306.272-.459.442-.119.136-.17.136-.544.136Zm3.876,2.72c-.068.017-.068.34-.068.425a3.4,3.4,0,0,1-.289,1.292,8.914,8.914,0,0,0-.663,1.479c0,.306.238.442.51.442.935,0,.935-1.819.935-1.972A2.431,2.431,0,0,0,182.036-3.74Zm3.23-1.7c-.017.034.1.136.153.153a2.729,2.729,0,0,1,.68,1.037c.272.816.306.884.544.884.306,0,.493-.459.493-.765,0-.748-1.173-1.377-1.717-1.377C185.368-5.508,185.283-5.491,185.266-5.44Zm2.992,1.479c-.034.034,0,.136.068.255a6.921,6.921,0,0,1,.85,1.9c.323,1.054.391,1.258.85,1.258.408,0,.663-.374.663-.867C190.689-3.043,188.275-3.995,188.258-3.961ZM181.7-12.733c.068.068.1.1.153.1.034,0,.442-.034.51-.034.663-.051,1.479-.051,2.227-.051a.337.337,0,0,1,.374.374c0,.153-.119.884-.153,1.088-.068.391-.153.544-.408.544-.119,0-1.343-.272-1.6-.272-.017,0-.187,0-.187.051a14.962,14.962,0,0,0,1.275.867.67.67,0,0,1,.374.527,3.294,3.294,0,0,1-.544,1.224,9.627,9.627,0,0,1-2.261,2.4c-.051.034-.1.1-.034.1a3.467,3.467,0,0,0,.8-.272,5.714,5.714,0,0,0,2.4-2.125c.357-.544.357-.544.459-.544a.279.279,0,0,1,.2.119c.323.459.442.646.748.646a.7.7,0,0,0,.527-.731,1.885,1.885,0,0,0-.612-1.1c-.17-.17-.306-.289-.306-.51a.963.963,0,0,1,.051-.255A9.742,9.742,0,0,0,186-11.832c.153-.816.153-.884.629-.884h1.632c.2,0,.544,0,.544.51a23.058,23.058,0,0,1-.187,3.264c-.238,1.6-.476,1.887-1.054,1.887a3.5,3.5,0,0,1-.782-.153c-.1-.034-.612-.2-.68-.2a.037.037,0,0,0-.034.034.43.43,0,0,0,.119.238,5.513,5.513,0,0,1,.731,1.173c.136.306.187.306.408.306,1.989,0,2.244-1.836,2.431-4.114.034-.408.1-2.4.17-2.533.051-.1.544-.493.544-.629,0-.221-1.071-.748-1.292-.748-.136,0-.153.017-.323.289-.17.238-.323.238-.6.238h-3.825c-.8,0-1.5-.017-2.329-.068-.1,0-.629-.051-.748-.051-.034,0-.051.017-.051.034,0,.034,0,.051.068.119Zm1.615,7.973a.13.13,0,0,0-.034.085c0,.068.153.391.17.476.017.306-.017,1.853-.017,2.193,0,1.853.1,2.108.34,2.278A4.9,4.9,0,0,0,186.1.731c2.278,0,2.465-1,2.465-1.173A.344.344,0,0,0,188.5-.68c-.306-.374-.34-.408-.408-.51-.085-.17-.306-1.071-.408-1.071-.051,0-.119.306-.153.527-.2,1.054-.289,1.445-1.768,1.445-1.326,0-1.411-.221-1.411-1.6a15.417,15.417,0,0,1,.119-2.023c.017-.068.289-.374.289-.459,0-.221-1-.476-1.241-.476C183.464-4.845,183.345-4.845,183.311-4.76Z" transform="translate(-1.785 14.538)" fill="#4a4a4a"/>
</svg>
