<svg xmlns="http://www.w3.org/2000/svg" width="69.92" height="14.784" viewBox="0 0 69.92 14.784">
  <path id="パス_130446" data-name="パス 130446" d="M7.2-10.832c.32,0,.32.272.32.448,0,.848,0,.928-.352.928H5.44a1.627,1.627,0,0,1-.64-.1,7.061,7.061,0,0,0-1.248-.64c-.1,0-.112.064-.112.144a3.81,3.81,0,0,0,.08.416c.032.32.032,1.36.032,1.408,0,.208-.048,1.216-.048,1.44,0,.208.048.416.416.416a.713.713,0,0,0,.736-.5c.064-.24.08-.3.384-.3H7.152c.336,0,.336.256.336.432,0,.688,0,.864-.352.864H5.008c-.752,0-1.408,0-2.192-.048-.112,0-.592-.064-.7-.064-.048,0-.064.016-.064.048,0,.016.016.032.064.1l.32.384c.048.064.08.1.144.1.048,0,.272-.048.336-.048.144-.016.608-.032,2.016-.032H7.136c.336,0,.336.256.336.608,0,.448,0,.656-.352.656H3.648c-.752,0-1.408-.016-2.192-.048-.1,0-.592-.064-.7-.064-.032,0-.064.016-.064.048,0,.016.016.032.08.1l.3.368c.048.064.1.112.16.112.048,0,.272-.048.32-.048.16-.016.624-.032,2.016-.032H7.12c.336,0,.336.256.336.5,0,.736,0,.912-.384.912H5.44c-.752,0-1.408-.032-2.192-.064-.112,0-.608-.048-.72-.048-.032,0-.048.016-.048.032,0,.032,0,.032.064.112l.32.368c.048.064.08.1.128.1s.288-.032.352-.032c.144-.016.88-.048,2.016-.048H7.072a.329.329,0,0,1,.368.384c0,1.248,0,1.3-.88,1.3-.192,0-1.136-.128-1.344-.128-.032,0-.208,0-.208.08,0,.144.336.256.512.3C6.5.336,6.736.7,6.848.96c.08.176.1.224.208.224a3.8,3.8,0,0,0,.8-.192A1.14,1.14,0,0,0,8.608-.272c0-.16-.032-.944-.032-1.12,0-.3,0-.528.384-.528h2.48c.192,0,.32.064.352.368.064.512.08.688.464.688a.767.767,0,0,0,.832-.816c0-.176-.048-1.328-.048-1.584,0-.208,0-.48.336-.48h1.216c.416,0,.7,0,.7-.192,0-.3-1.072-.992-1.232-.992-.128,0-.16.064-.5.512a.581.581,0,0,1-.352.208c-.176,0-.176-.144-.176-.24,0-.56,0-.624.1-.72.288-.32.3-.352.3-.432,0-.208-.88-.8-1.024-.8-.176,0-.288.112-.48.3a.79.79,0,0,1-.672.224H8.9c-.352,0-.352-.224-.352-.624,0-.432,0-.672.352-.672h2.048a.284.284,0,0,1,.3.208c.1.336.128.464.544.464a.647.647,0,0,0,.688-.576v-1.52a.317.317,0,0,1,.144-.3c.208-.192.288-.256.288-.368,0-.208-.9-.8-1.008-.8-.144,0-.24.112-.5.384a.514.514,0,0,1-.5.224h-2c-.336,0-.352-.24-.352-.4.016-.88.016-.976.4-.976H14.1c.544,0,.864,0,.864-.224,0-.208-1.408-1.056-1.5-1.056-.144,0-.192.064-.64.592-.24.272-.3.272-1.024.272H8.96a.319.319,0,0,1-.352-.368,2.024,2.024,0,0,1,.048-.448c.032-.1.368-.5.368-.608,0-.336-1.344-.7-1.5-.7-.064,0-.144.032-.144.208,0,.192.144,1.216.144,1.456,0,.176,0,.464-.336.464H4.064c-.752,0-1.408-.032-2.192-.064-.112,0-.592-.048-.7-.048-.048,0-.064,0-.064.032s.016.032.064.112l.32.368c.048.064.08.1.144.1.048,0,.272-.032.336-.032.3-.016.8-.048,2.016-.048ZM5.04-7.584c-.4,0-.4-.16-.4-.72s0-.72.384-.72H7.136c.352,0,.352.24.352.7,0,.5,0,.736-.352.736Zm5.952-1.44c.352,0,.352.256.352.592,0,.656,0,.848-.384.848H8.912c-.368,0-.368-.192-.368-.864,0-.3,0-.576.368-.576ZM8.9-4.176c-.352,0-.352-.192-.352-.752,0-.24,0-.512.352-.512h2.672c.352,0,.352.272.352.512,0,.56-.064.752-.384.752Zm2.64.432c.352,0,.352.256.352.528,0,.752-.064.88-.432.88H8.944c-.384,0-.384-.1-.384-.96,0-.192,0-.448.352-.448ZM32.56-3.2c.528,0,.848,0,.848-.224,0-.272-1.216-1.056-1.376-1.056-.192,0-.736.736-.88.8a3.061,3.061,0,0,1-.784.048H27.12c-.384,0-.384-.208-.384-.4,0-.736,0-.864.4-.864h3.5c.512,0,.8,0,.8-.256s-.96-1.04-1.232-1.04c-.176,0-.224.064-.688.608-.224.256-.3.256-1.008.256H27.184c-.448,0-.448-.224-.448-.64,0-.624,0-.816.48-.816H31.68c.736,0,.816,0,.816-.208,0-.256-1.152-1.056-1.216-1.056-.16,0-.608.624-.72.72-.128.112-.208.112-.864.112h-1.44c-.112,0-.3,0-.3-.144,0-.208.7-.848,1.072-1.056.224-.112.288-.16.288-.272,0-.16-.064-.192-.592-.5-.32-.192-.352-.208-.352-.272,0-.08.112-.08.176-.08h3.664c.544,0,.864,0,.864-.224A4.243,4.243,0,0,0,31.7-10.784c-.144,0-.608.608-.72.688-.16.128-.32.144-.928.144h-.784c-.064,0-.192-.016-.192-.1a7.288,7.288,0,0,1,1.376-1.008,7.065,7.065,0,0,1,.656-.416c.336-.128.368-.128.368-.24,0-.3-1.184-.944-1.216-.944-.08,0-.1.032-.272.448-.256.592-1.408,2.256-1.7,2.256-.144,0-.16-.128-.16-.24-.016-.816-.032-.9-.032-1.808a.664.664,0,0,1,.176-.56c.144-.192.176-.224.176-.288,0-.144-.16-.256-.256-.288a6.614,6.614,0,0,0-1.1-.288c-.112,0-.16.1-.16.224a2.656,2.656,0,0,0,.048.352c.016.288.048,1.088.048,1.52,0,1.248,0,1.376-.464,1.376h-.576c-.448,0-.48,0-.48-2.144,0-.352.032-.48.144-.608a.566.566,0,0,0,.16-.256c0-.352-1.3-.448-1.328-.448-.1,0-.16,0-.16.192,0,.16.1.832.112.976.016.432.032,1.568.032,1.856,0,.144,0,.432-.352.432h-.48c-.048,0-.176,0-.176-.128a.336.336,0,0,1,.08-.224.838.838,0,0,0,.112-.4c0-1.04-1.728-1.5-2.128-1.5-.1,0-.16.064-.16.112,0,0,.56.544.656.656a4.208,4.208,0,0,1,.64,1.3c0,.192-.1.192-.336.192-.912,0-1.744-.048-2.208-.064-.112,0-.592-.048-.7-.048-.016,0-.048,0-.048.032s0,.032.064.112l.32.368c.048.064.08.1.128.1.064,0,.288-.032.352-.032.3-.032,1.376-.048,2.016-.048h.4c.3,0,.512.032.832.56a6.807,6.807,0,0,1,.656,1.632c0,.128-.1.128-.176.128H23.36c-.9,0-1.728-.032-2.192-.048-.112,0-.608-.064-.7-.064a.051.051,0,0,0-.048.048c0,.016,0,.016.064.1l.3.368c.064.08.1.112.144.112s.288-.032.336-.032c.56-.048,1.648-.048,2.032-.048h1.936c.416,0,.416.336.416.672,0,.592,0,.784-.464.784H24.176c-.72,0-1.744-.032-2.192-.048-.112,0-.608-.064-.7-.064-.032,0-.064.016-.064.048,0,.016,0,.016.064.1l.32.384c.064.064.08.1.144.1.048,0,.384-.048.432-.048C22.528-4.9,23.5-4.9,24.1-4.9h1.152c.384,0,.4.192.4.368,0,.752,0,.9-.336.9H22.176c-.672,0-1.744-.032-2.208-.048-.112,0-.592-.064-.7-.064a.051.051,0,0,0-.048.048c0,.016,0,.016.064.1l.3.368c.064.08.1.112.144.112.064,0,.384-.048.432-.048C20.576-3.2,21.568-3.2,22.1-3.2h2.112c.112,0,.272,0,.272.16,0,.32-2.528,2.544-5.28,3.76-.016.016-.336.16-.336.208,0,.064.08.08.112.08A15.944,15.944,0,0,0,25.12-1.936a1.684,1.684,0,0,1,.384-.24c.128,0,.128.144.128.208,0,.416,0,.928-.016,1.344-.016.24-.1,1.44-.1,1.472,0,.352.16.4.352.4a1,1,0,0,0,.72-.32c.16-.176.16-.3.16-.88,0-.336-.016-1.808-.016-2.112,0-.1-.016-.576-.016-.64,0-.048.016-.192.144-.192.08,0,.1.032.464.48a10.365,10.365,0,0,0,4.4,3.2,4.593,4.593,0,0,0,.784.272c.048,0,.16-.192.208-.3a1.53,1.53,0,0,1,.864-.8c.256-.064.336-.08.336-.176s-.048-.1-.432-.144A11.542,11.542,0,0,1,28.064-2.48c-.512-.384-.576-.416-.576-.56,0-.16.176-.16.4-.16ZM27.552-9.536c.272,0,.336.048.336.208a5.421,5.421,0,0,1-.3,1.456c-.176.528-.272.656-.736.656H25.072c-.064,0-.176,0-.176-.08a.3.3,0,0,1,.032-.128.955.955,0,0,0,.112-.416c0-.352-.208-.784-.976-1.344-.064-.032-.336-.224-.336-.272,0-.08.1-.08.128-.08Zm18.256,4.56a1.5,1.5,0,0,1-.736-.144,2.53,2.53,0,0,0-.864-.32.147.147,0,0,0-.16.16c0,.112.08.592.08.688.048.72.048,1.232.048,1.872,0,.784,0,1.776-.048,2.56,0,.128-.064.736-.064.864,0,.208.032.464.432.464.752,0,.768-.4.784-.9.016-.384.32-.384.5-.384h3.6c.208,0,.464,0,.5.4.016.384.048.672.432.672A.735.735,0,0,0,51.12.112c0-.3-.08-1.664-.08-1.936,0-.32,0-2.256.048-2.336.016-.016.288-.224.32-.256a.2.2,0,0,0,.1-.16c0-.352-1.168-.88-1.28-.88-.1,0-.4.336-.464.384a.841.841,0,0,1-.5.1ZM45.776-.528c-.112,0-.368,0-.448-.208-.064-.128-.064-2.288-.064-2.464,0-1.216,0-1.344.512-1.344h3.632c.288,0,.384.048.464.192.048.128.048,2.288.048,2.48,0,1.216,0,1.344-.512,1.344Zm-5.824-8.4a1.636,1.636,0,0,0-.64-1.1.425.425,0,0,1-.144-.24c0-.112.048-.176.56-.656a11.953,11.953,0,0,1,1.28-1.264c.16-.1.224-.112.224-.256,0-.272-1.008-.96-1.216-.96-.16,0-.16.064-.16.336,0,.224-.8,2.608-1.12,2.608-.064,0-.96-.32-1.136-.32-.032,0-.1,0-.1.048a1.146,1.146,0,0,0,.176.24,4.717,4.717,0,0,1,1.1,1.52c.288.576.512.688.7.688C39.728-8.288,39.952-8.592,39.952-8.928ZM46.416-12.3c-.912,0-1.728-.032-2.192-.064-.112,0-.608-.048-.7-.048-.016,0-.064,0-.064.032s.016.048.08.112l.3.368c.048.064.08.1.144.1.048,0,.288-.032.336-.032.208-.016,1.008-.032,1.232-.032.288,0,.352.192.352.416a7.513,7.513,0,0,1-1.3,4.336C44.448-6.912,43.6-5.9,43.6-5.84a.034.034,0,0,0,.032.032A7.4,7.4,0,0,0,46.1-8.016a7.43,7.43,0,0,0,1.056-3.424c.048-.4.192-.448.512-.448h1.92c.224,0,.464.016.464.432A18.159,18.159,0,0,1,49.6-8.032c-.224.688-.4.688-.656.688a4.263,4.263,0,0,1-1.024-.208c-.016,0-.272-.08-.272-.08-.016,0-.064.016-.064.048,0,.064.288.32.32.4a2.05,2.05,0,0,1,.336.768c.1.368.192.448.432.448a2.062,2.062,0,0,0,1.728-1.1,10.227,10.227,0,0,0,.656-3.408c.112-1.12.176-1.152.32-1.248.272-.16.3-.176.3-.3,0-.272-.912-.944-1.152-.944-.144,0-.192.08-.384.416a.555.555,0,0,1-.544.256ZM38.768-4.368a5.94,5.94,0,0,0-.656-.192A.109.109,0,0,0,38-4.448c0,.048.032.3.032.352a17.823,17.823,0,0,1-.336,2.56C37.632-1.28,37.248,0,37.248.1c0,.064,0,.08.08.08a3.392,3.392,0,0,0,.608-.9c.192-.368.992-2.192,1.216-2.592.048-.1.4-.56.4-.608C39.552-4.1,39.008-4.288,38.768-4.368Zm3.552.7a2.177,2.177,0,0,0-.544-.368A.031.031,0,0,0,41.744-4c0,.048,0,.08.112.352a7.912,7.912,0,0,1,.288,1.36c.128.96.16,1.3.656,1.3.3,0,.592-.24.592-.736A2.847,2.847,0,0,0,42.32-3.664Zm-.208-3.024c0,.192,0,.224-1.072.224-.48,0-.992-.016-1.056-.016-.08-.016-.224-.016-.224-.128a.216.216,0,0,1,.08-.16c.448-.5,2.4-3.136,2.7-3.264.448-.208.464-.224.464-.352,0-.448-1.072-.88-1.376-.88-.16,0-.16.064-.16.272A23.888,23.888,0,0,1,39.456-6.8c-.192.3-.272.3-.576.3a6.148,6.148,0,0,1-1.12-.08c-.064,0-.352-.16-.432-.16-.16,0-.208.192-.208.432s.144,1.12.464,1.12a4.469,4.469,0,0,0,.544-.288,11.541,11.541,0,0,1,1.648-.288c.224,0,.272.112.272.416.016.336,0,1.952,0,2.32,0,.1-.144,2.816-.16,3.088,0,.08-.048.5-.048.576a.487.487,0,0,0,.512.544c.72,0,.72-.752.72-1.12,0-.784-.048-4.592-.048-5.456,0-.4,0-.512.272-.592a5.209,5.209,0,0,1,.848-.144c.128,0,.192.016.256.256.112.464.16.64.48.64.448,0,.48-.592.48-.7,0-.64-.32-.864-.992-1.344a2.027,2.027,0,0,0-.544-.224.059.059,0,0,0-.064.064.8.8,0,0,0,.128.192A1.66,1.66,0,0,1,42.112-6.688Zm13.072.912c.4,0,4.048-1.7,7.1-5.632.448-.576.5-.64.608-.64s.176.08.24.176a18.2,18.2,0,0,0,1.12,1.76,11.269,11.269,0,0,0,4.656,3.76c.08,0,.128-.048.192-.112a2.208,2.208,0,0,1,.9-.72,5.607,5.607,0,0,0,.608-.288c0-.032-.048-.048-.112-.064-.336-.064-1.024-.288-1.408-.416-3.152-1.088-5.712-3.936-5.712-4.3a.139.139,0,0,1,.064-.112c.128-.08.224-.144.224-.288,0-.384-1.68-.88-1.776-.88-.192,0-.192.128-.192.272,0,1.248-3.52,5.28-6.432,7.312-.016.016-.16.1-.16.112C55.1-5.792,55.152-5.776,55.184-5.776Zm9.28-2.336c-.128-.016-.288.016-.288.176,0,.08.128.432.144.512.064.512.064,1.568.064,2.128,0,1.328,0,3.312-.048,4.448,0,.192-.1,1.168-.1,1.376,0,.176,0,.656.512.656a.819.819,0,0,0,.8-.9c0-.192-.048-1.088-.048-1.3-.032-1.328-.032-2.352-.032-2.688A27.05,27.05,0,0,1,65.6-7.04c.048-.08.384-.352.384-.448C65.984-7.824,64.768-8.08,64.464-8.112Zm-4.4.064c-.16,0-.192.08-.192.16a2.385,2.385,0,0,0,.064.288,14.192,14.192,0,0,1,.128,1.9c0,2.208-.368,4.656-3.136,6.144A4.132,4.132,0,0,0,56.08.9c0,.064.1.064.112.064A6.735,6.735,0,0,0,58.208.224c2.848-1.5,2.976-4.064,2.976-6.528,0-.352,0-.672.192-.816.208-.144.224-.176.224-.272a.271.271,0,0,0-.208-.24A11.88,11.88,0,0,0,60.064-8.048Z" transform="translate(-0.688 13.536)"/>
</svg>
