<svg xmlns="http://www.w3.org/2000/svg" width="281.203" height="12.597" viewBox="0 0 281.203 12.597">
  <g id="グループ_12632" data-name="グループ 12632" transform="translate(-542.163 -6240.522)">
    <path id="パス_38606" data-name="パス 38606" d="M4.563-8.138a3.866,3.866,0,0,0-3.9,3.952,3.863,3.863,0,0,0,3.9,3.939A3.852,3.852,0,0,0,8.45-4.186,3.863,3.863,0,0,0,4.563-8.138Zm0,.455A3.293,3.293,0,0,1,7.852-4.2,3.312,3.312,0,0,1,4.563-.7,3.312,3.312,0,0,1,1.274-4.2,3.3,3.3,0,0,1,4.563-7.683Zm1.69,4.264a1.469,1.469,0,0,1-1.4,1.105c-.858,0-1.521-.78-1.521-1.924,0-1.066.546-1.846,1.482-1.846a1.278,1.278,0,0,1,1.3,1.092L6.4-5.044c-.052-.546-.091-.832-.143-1.183A3.832,3.832,0,0,0,4.9-6.448a2.335,2.335,0,0,0-2.522,2.3,2.247,2.247,0,0,0,2.47,2.21A4.322,4.322,0,0,0,6.2-2.184a10.131,10.131,0,0,0,.338-1.17ZM17.914-6.552c-.1-.819-.169-1.326-.221-1.794a5.4,5.4,0,0,0-1.638-.3,2.416,2.416,0,0,0-2.678,2.314c0,1.469,1.313,2.119,2.145,2.561.975.52,1.69.975,1.69,1.937a1.448,1.448,0,0,1-1.56,1.56c-1.339,0-1.924-1.313-2.132-2.106l-.377.091a16.005,16.005,0,0,0,.351,2.015A4.451,4.451,0,0,0,14.131,0a4.527,4.527,0,0,0,1.274.195,2.611,2.611,0,0,0,2.886-2.457c0-1.456-1.235-2.067-2.249-2.587s-1.651-.975-1.651-1.924A1.364,1.364,0,0,1,15.834-8.2c1.131,0,1.469.9,1.7,1.729ZM20.5.156A.71.71,0,0,0,21.229-.6a.722.722,0,0,0-.728-.741.722.722,0,0,0-.728.741A.71.71,0,0,0,20.5.156ZM26.182,0V-.364c-1.066-.078-1.17-.143-1.17-1.261v-5.2c0-1.105.1-1.183,1.17-1.261V-8.45H22.737v.364c1.066.078,1.17.156,1.17,1.261v5.2c0,1.105-.1,1.183-1.17,1.261V0Zm2.236.156A.71.71,0,0,0,29.146-.6a.722.722,0,0,0-.728-.741A.722.722,0,0,0,27.69-.6.71.71,0,0,0,28.418.156ZM39.507-8.45H36.439v.364c.9.052,1.209.221,1.274.806A19.282,19.282,0,0,1,37.8-5.122v3.2h-.039L32.344-8.45H30.42v.364a1.4,1.4,0,0,1,1.157.481c.234.312.26.364.26,1.313v2.86c0,1.2-.039,1.82-.078,2.223-.065.637-.39.806-1.144.845V0H33.7V-.364c-.884-.052-1.183-.208-1.248-.871a21.855,21.855,0,0,1-.078-2.2V-6.695H32.4L37.934.117h.4V-5.122a18.083,18.083,0,0,1,.078-2.184c.052-.572.364-.741,1.092-.78Zm13.26,0H49.374v.364c1.014.091,1.118.156,1.118,1.235v2.106H46.059V-6.851c0-1.079.1-1.144,1.092-1.235V-8.45H43.784v.364c1.066.091,1.17.143,1.17,1.235V-1.6c0,1.092-.1,1.157-1.144,1.235V0h3.419V-.364c-1.066-.078-1.17-.156-1.17-1.235V-4.2h4.433v2.6c0,1.092-.117,1.157-1.222,1.235V0h3.484V-.364C51.7-.442,51.6-.507,51.6-1.6V-6.851c0-1.079.1-1.144,1.17-1.235Zm5.525-.2a4.333,4.333,0,0,0-4.368,4.511A4.2,4.2,0,0,0,58.149.195a4.262,4.262,0,0,0,4.342-4.524A4.191,4.191,0,0,0,58.292-8.645Zm-.26.468c1.7,0,3.133,1.456,3.133,4.2,0,2.5-1.3,3.7-2.743,3.7-1.833,0-3.172-1.781-3.172-4.225S56.576-8.177,58.032-8.177ZM69.641-2.119a3.787,3.787,0,0,1-.663,1.274c-.3.338-.741.4-1.456.4a2.9,2.9,0,0,1-1.248-.169c-.234-.13-.3-.39-.3-1.092V-6.838c0-1.1.117-1.17,1.144-1.248V-8.45H63.726v.364c1.053.078,1.144.143,1.144,1.248v5.2c0,1.105-.1,1.2-1.2,1.274V0h5.889c.117-.4.39-1.638.468-2.041ZM71.006-8.45v.377c1,.078,1.105.13,1.105,1.248v5.213c0,1.1-.1,1.183-1.222,1.261V0H73.97a6.128,6.128,0,0,0,3.861-1.079,4.126,4.126,0,0,0,1.6-3.471,3.831,3.831,0,0,0-1.092-2.8A5.153,5.153,0,0,0,74.659-8.45Zm2.223,1.339c0-.507.039-.65.169-.741a2.131,2.131,0,0,1,1.014-.156,4.04,4.04,0,0,1,2.21.533,3.42,3.42,0,0,1,1.534,3.107c0,2.08-1.118,3.9-3.549,3.9-.949,0-1.378-.247-1.378-1.235ZM84.1,0V-.364c-1.066-.078-1.17-.143-1.17-1.261v-5.2c0-1.105.1-1.183,1.17-1.261V-8.45H80.652v.364c1.066.078,1.17.156,1.17,1.261v5.2c0,1.105-.1,1.183-1.17,1.261V0ZM94.2-8.45H91.13v.364c.9.052,1.209.221,1.274.806a19.282,19.282,0,0,1,.091,2.158v3.2h-.039L87.035-8.45H85.111v.364a1.4,1.4,0,0,1,1.157.481c.234.312.26.364.26,1.313v2.86c0,1.2-.039,1.82-.078,2.223-.065.637-.39.806-1.144.845V0h3.081V-.364C87.5-.416,87.2-.572,87.139-1.235a21.853,21.853,0,0,1-.078-2.2V-6.695h.026L92.625.117h.4V-5.122a18.086,18.086,0,0,1,.078-2.184c.052-.572.364-.741,1.092-.78Zm9.477,4.537h-3.3v.351c1.274.1,1.365.182,1.365,1.118v1.105c0,.546-.156.7-.416.845a2.606,2.606,0,0,1-1.131.234c-2.509,0-3.614-2.184-3.614-4.056,0-2.405,1.456-3.861,3.445-3.861a2.26,2.26,0,0,1,2.535,2.015l.364-.078c-.1-.858-.169-1.573-.208-2.028a10.868,10.868,0,0,0-2.5-.377c-2.548,0-4.966,1.469-4.966,4.485,0,2.574,1.911,4.355,4.771,4.355a12.607,12.607,0,0,0,2.912-.481,5.849,5.849,0,0,1-.091-1.222V-2.613c0-.767.052-.832.832-.949Zm5.876-2.639c-.1-.819-.169-1.326-.221-1.794a5.4,5.4,0,0,0-1.638-.3,2.416,2.416,0,0,0-2.678,2.314c0,1.469,1.313,2.119,2.145,2.561.975.52,1.69.975,1.69,1.937a1.448,1.448,0,0,1-1.56,1.56c-1.339,0-1.924-1.313-2.132-2.106l-.377.091a16.005,16.005,0,0,0,.351,2.015,4.45,4.45,0,0,0,.637.273,4.527,4.527,0,0,0,1.274.195,2.611,2.611,0,0,0,2.886-2.457c0-1.456-1.235-2.067-2.249-2.587s-1.651-.975-1.651-1.924a1.364,1.364,0,0,1,1.443-1.43c1.131,0,1.469.9,1.7,1.729Zm12.3,4.264c-.65,1.3-1.352,2.015-2.678,2.015-1.976,0-3.406-1.664-3.406-4.1,0-1.976,1.157-3.809,3.328-3.809a2.261,2.261,0,0,1,2.522,1.937l.39-.091c-.078-.7-.156-1.222-.26-1.963a10.272,10.272,0,0,0-2.3-.351c-2.9,0-5.005,1.807-5.005,4.537a4.269,4.269,0,0,0,4.654,4.3,10.96,10.96,0,0,0,2.392-.351,13.927,13.927,0,0,0,.741-1.989ZM127.8-8.645a4.333,4.333,0,0,0-4.368,4.511A4.2,4.2,0,0,0,127.66.195,4.262,4.262,0,0,0,132-4.329,4.191,4.191,0,0,0,127.8-8.645Zm-.26.468c1.7,0,3.133,1.456,3.133,4.2,0,2.5-1.3,3.7-2.743,3.7-1.833,0-3.172-1.781-3.172-4.225S126.087-8.177,127.543-8.177ZM133.8.156a.71.71,0,0,0,.728-.754.722.722,0,0,0-.728-.741.722.722,0,0,0-.728.741A.71.71,0,0,0,133.8.156Zm2.964-1.833a.583.583,0,0,0-.624.533c0,.221.091.312.156.325a.929.929,0,0,1,.819.871c0,.494-.377.832-1,1.092l.143.377c.793-.234,1.7-.793,1.7-1.794A1.353,1.353,0,0,0,136.76-1.677Zm11.648-.442a3.787,3.787,0,0,1-.663,1.274c-.3.338-.741.4-1.456.4a2.9,2.9,0,0,1-1.248-.169c-.234-.13-.3-.39-.3-1.092V-6.838c0-1.1.117-1.17,1.144-1.248V-8.45h-3.393v.364c1.053.078,1.144.143,1.144,1.248v5.2c0,1.105-.1,1.2-1.2,1.274V0h5.889c.117-.4.39-1.638.468-2.041Zm7.683-4.355c-.065-.754-.13-1.7-.13-2.3h-.273a.691.691,0,0,1-.663.325H149.89c-.364,0-.533-.026-.715-.325h-.26c-.026.715-.091,1.56-.156,2.34h.377a4.1,4.1,0,0,1,.416-1.157c.169-.3.429-.4,1.508-.4h.806v6.4c0,1.027-.1,1.157-1.287,1.235V0h3.731V-.364c-1.235-.078-1.339-.208-1.339-1.235v-6.4h.923c.975,0,1.2.091,1.4.4a3.142,3.142,0,0,1,.416,1.157Zm1.131-1.976v.377c1,.078,1.1.13,1.1,1.248v5.213c0,1.1-.1,1.183-1.222,1.261V0h3.081a6.128,6.128,0,0,0,3.861-1.079,4.126,4.126,0,0,0,1.6-3.471,3.831,3.831,0,0,0-1.092-2.8,5.153,5.153,0,0,0-3.679-1.105Zm2.223,1.339c0-.507.039-.65.169-.741a2.131,2.131,0,0,1,1.014-.156,4.04,4.04,0,0,1,2.21.533,3.42,3.42,0,0,1,1.534,3.107c0,2.08-1.118,3.9-3.549,3.9-.949,0-1.378-.247-1.378-1.235ZM167.453.156a.71.71,0,0,0,.728-.754.722.722,0,0,0-.728-.741.722.722,0,0,0-.728.741A.71.71,0,0,0,167.453.156ZM181.155,0V-.364c-.845-.078-1.014-.195-1.43-1.313-.832-2.262-1.7-4.732-2.509-6.968l-.4.117L174.122-1.7c-.455,1.144-.637,1.222-1.456,1.339V0h2.821V-.364c-.975-.091-1.092-.221-.806-1.04.169-.546.364-1.092.572-1.677h2.769c.286.793.546,1.5.715,2s.052.611-.767.715V0ZM177.84-3.64h-2.392c.39-1.066.806-2.2,1.222-3.315h.026ZM184.782,0V-.338c-.832-.078-.936-.156-.936-1.014v-7.9a10,10,0,0,1-1.924.455v.312c.819.065.9.1.9.988v6.149c0,.858-.117.936-.936,1.014V0ZM188.4,0V-.338c-.832-.078-.936-.156-.936-1.014v-7.9a10,10,0,0,1-1.924.455v.312c.819.065.9.1.9.988v6.149c0,.858-.117.936-.936,1.014V0Zm11.869-.234a1.847,1.847,0,0,1-.936-.611A11.3,11.3,0,0,1,198.276-2.2c-.39-.585-.936-1.456-1.157-1.885a2.369,2.369,0,0,0,1.651-2.223,1.946,1.946,0,0,0-.858-1.7,3.669,3.669,0,0,0-2.08-.442h-3.224v.364c1.014.091,1.118.13,1.118,1.235v5.226c0,1.105-.117,1.183-1.183,1.261V0h3.419V-.364c-1.04-.078-1.157-.156-1.157-1.261V-3.692h.416c.676,0,.9.156,1.118.52.39.637.858,1.443,1.313,2.08A2.369,2.369,0,0,0,199.758.091c.156.013.3.013.455.013ZM194.8-4.121v-3.2c0-.351.052-.507.143-.572a1.275,1.275,0,0,1,.7-.13A1.761,1.761,0,0,1,197.561-6.1a1.866,1.866,0,0,1-.715,1.612,2.151,2.151,0,0,1-1.417.364Zm7.4-2.847a.666.666,0,0,0,.663-.663.65.65,0,0,0-.65-.676.669.669,0,0,0-.663.676A.681.681,0,0,0,202.2-6.968ZM203.723,0V-.338c-.832-.078-.923-.156-.923-1.04V-5.863a8.2,8.2,0,0,1-1.846.507v.312c.78.13.819.182.819.988v2.678c0,.884-.091.962-.91,1.04V0ZM210.2-5.694a15.2,15.2,0,0,1-1.768.182,2.588,2.588,0,0,0-1.248-.325,2.225,2.225,0,0,0-2.327,2.158A1.875,1.875,0,0,0,206-1.937a2.8,2.8,0,0,1-1.144.793A.977.977,0,0,0,205-.6a1.731,1.731,0,0,0,.962.715,12.445,12.445,0,0,0-1.079.91,1.013,1.013,0,0,0-.312.728c.013.741.806,1.586,2.249,1.586,1.729,0,3.25-1.261,3.25-2.574,0-1.274-1.066-1.534-1.872-1.534-.429,0-.9.013-1.365.013-.585,0-.819-.247-.819-.507a.817.817,0,0,1,.39-.533,5.454,5.454,0,0,0,.663.065,2.11,2.11,0,0,0,2.275-2.08,1.75,1.75,0,0,0-.39-1.157l.741.039a2.053,2.053,0,0,0,.585-.663Zm-3.146.247c.741,0,1.222.728,1.222,1.755s-.507,1.534-1.079,1.547c-.728,0-1.222-.728-1.222-1.742S206.479-5.447,207.051-5.447Zm.286,5.59a3.318,3.318,0,0,1,1.248.169.942.942,0,0,1,.6.923c0,.806-.637,1.443-1.872,1.443-.962,0-1.716-.533-1.716-1.235a1.4,1.4,0,0,1,.6-1.014A1.556,1.556,0,0,1,207.337.143ZM217.3,0V-.338c-.767-.065-.858-.143-.858-1V-3.614c0-1.56-.741-2.223-1.794-2.223a2.844,2.844,0,0,0-1.859.949V-9.256a14.237,14.237,0,0,1-1.911.455v.3c.858.078.884.143.884.962v6.2c0,.858-.117.936-.9,1V0h2.756V-.338c-.767-.078-.832-.169-.832-1V-4.433a1.834,1.834,0,0,1,1.352-.663c.871,0,1.274.533,1.274,1.6v2.158c0,.845-.1.923-.858,1V0Zm4.16-.468-.117-.338a1.859,1.859,0,0,1-.806.221c-.325,0-.754-.195-.754-1.248V-5.174h1.391a.37.37,0,0,0,.078-.507h-1.469V-7.462l-.182-.026-.845.858v.949h-.6L217.8-5.3l.052.13h.9v3.783c0,1.027.455,1.547,1.274,1.547a1.319,1.319,0,0,0,.546-.169Zm4.511-3.757a9.768,9.768,0,0,0-.286-1.391,3.025,3.025,0,0,0-1.157-.221,1.791,1.791,0,0,0-1.976,1.677c0,1,.845,1.43,1.625,1.794.65.3,1.027.611,1.027,1.183a.907.907,0,0,1-.923.91c-.78,0-1.365-.754-1.6-1.612l-.338.065a6.129,6.129,0,0,0,.208,1.534,2.609,2.609,0,0,0,1.495.442,1.95,1.95,0,0,0,2.145-1.794c0-.9-.663-1.365-1.638-1.768-.585-.247-1.1-.546-1.1-1.131a.848.848,0,0,1,.845-.9c.637,0,1.092.52,1.339,1.287ZM238.251-.234a1.847,1.847,0,0,1-.936-.611A11.3,11.3,0,0,1,236.262-2.2c-.39-.585-.936-1.456-1.157-1.885a2.369,2.369,0,0,0,1.651-2.223,1.946,1.946,0,0,0-.858-1.7,3.669,3.669,0,0,0-2.08-.442h-3.224v.364c1.014.091,1.118.13,1.118,1.235v5.226c0,1.105-.117,1.183-1.183,1.261V0h3.419V-.364c-1.04-.078-1.157-.156-1.157-1.261V-3.692h.416c.676,0,.9.156,1.118.52.39.637.858,1.443,1.313,2.08A2.369,2.369,0,0,0,237.744.091c.156.013.3.013.455.013Zm-5.46-3.887v-3.2c0-.351.052-.507.143-.572a1.275,1.275,0,0,1,.7-.13A1.761,1.761,0,0,1,235.547-6.1a1.866,1.866,0,0,1-.715,1.612,2.151,2.151,0,0,1-1.417.364Zm10.556,2.743a2.124,2.124,0,0,1-1.482.65c-.91,0-1.924-.728-1.937-2.5,1.547-.052,3.172-.182,3.393-.221s.3-.156.3-.416a2.013,2.013,0,0,0-1.95-1.976,2.639,2.639,0,0,0-1.911.949,3.348,3.348,0,0,0-.858,2.275A2.571,2.571,0,0,0,241.436.156a2.952,2.952,0,0,0,2.119-1.261Zm-1.989-3.978a1.193,1.193,0,0,1,1.144,1.3c0,.182-.078.26-.312.26-.754.026-1.469.039-2.2.039C240.188-4.81,240.76-5.356,241.358-5.356Zm7.007,1.131a9.768,9.768,0,0,0-.286-1.391,3.025,3.025,0,0,0-1.157-.221,1.791,1.791,0,0,0-1.976,1.677c0,1,.845,1.43,1.625,1.794.65.3,1.027.611,1.027,1.183a.907.907,0,0,1-.923.91c-.78,0-1.365-.754-1.6-1.612l-.338.065a6.129,6.129,0,0,0,.208,1.534,2.609,2.609,0,0,0,1.5.442,1.95,1.95,0,0,0,2.145-1.794c0-.9-.663-1.365-1.638-1.768-.585-.247-1.1-.546-1.1-1.131a.848.848,0,0,1,.845-.9c.637,0,1.092.52,1.339,1.287Zm5.9,2.847a2.124,2.124,0,0,1-1.482.65c-.91,0-1.924-.728-1.937-2.5,1.547-.052,3.172-.182,3.393-.221s.3-.156.3-.416a2.013,2.013,0,0,0-1.95-1.976,2.639,2.639,0,0,0-1.911.949,3.348,3.348,0,0,0-.858,2.275A2.571,2.571,0,0,0,252.356.156a2.952,2.952,0,0,0,2.119-1.261Zm-1.989-3.978a1.193,1.193,0,0,1,1.144,1.3c0,.182-.078.26-.312.26-.754.026-1.469.039-2.2.039C251.108-4.81,251.68-5.356,252.278-5.356Zm5.2.9V-5.876a7.351,7.351,0,0,1-1.833.533v.286c.741.1.806.156.806,1.014v2.691c0,.858-.091.936-.9,1.014V0h2.99V-.338c-1-.078-1.066-.156-1.066-1.014V-3.731c.286-.728.7-1.118,1.04-1.118a.7.7,0,0,1,.546.273.3.3,0,0,0,.351.026.73.73,0,0,0,.416-.637.723.723,0,0,0-.754-.65c-.624,0-1.183.728-1.573,1.378Zm9.308-1.222h-2.314v.325c.741.091.819.234.624.858-.286.845-.7,2.028-1.157,3.107-.377-.936-.9-2.3-1.235-3.211-.208-.559-.182-.663.52-.754v-.325h-2.665v.325c.7.1.806.195,1.105.949.611,1.508,1.209,2.99,1.794,4.55h.351c.715-1.937,1.4-3.536,1.833-4.511.351-.78.468-.9,1.144-.988Zm4.9,4.3a2.124,2.124,0,0,1-1.482.65c-.91,0-1.924-.728-1.937-2.5,1.547-.052,3.172-.182,3.393-.221s.3-.156.3-.416a2.013,2.013,0,0,0-1.95-1.976,2.64,2.64,0,0,0-1.911.949,3.348,3.348,0,0,0-.858,2.275A2.571,2.571,0,0,0,269.776.156,2.952,2.952,0,0,0,271.9-1.105ZM269.7-5.356a1.193,1.193,0,0,1,1.144,1.3c0,.182-.078.26-.312.26-.754.026-1.469.039-2.2.039C268.528-4.81,269.1-5.356,269.7-5.356Zm9.633,4.693L278.915-.7c-.481-.052-.572-.117-.572-.793V-9.256a12.1,12.1,0,0,1-2.028.455v.312c.936.065,1,.1,1,.962v1.833a3,3,0,0,0-.858-.143A3.328,3.328,0,0,0,273.1-2.613a2.6,2.6,0,0,0,2.4,2.769,2.283,2.283,0,0,0,1.014-.377l.793-.468V.156a13.455,13.455,0,0,1,2.015-.494Zm-2.015-.442a2.191,2.191,0,0,1-1.248.442c-.832,0-1.781-.754-1.781-2.3,0-1.885,1.092-2.392,1.69-2.392a1.614,1.614,0,0,1,1.339.663ZM281.138.156a.71.71,0,0,0,.728-.754.722.722,0,0,0-.728-.741.722.722,0,0,0-.728.741A.71.71,0,0,0,281.138.156Z" transform="translate(541.5 6249.778)" fill="#80868b"/>
  </g>
</svg>
