<svg xmlns="http://www.w3.org/2000/svg" width="69.392" height="14.896" viewBox="0 0 69.392 14.896">
  <path id="パス_130447" data-name="パス 130447" d="M.72-6.272a15.866,15.866,0,0,0,7.008-5.136c.128-.16.384-.48.448-.48s.1.048.272.384a15.044,15.044,0,0,0,5.568,5.648c.1,0,.144-.048.208-.16a1.876,1.876,0,0,1,1.024-.656c.4-.128.448-.144.448-.24,0-.08,0-.08-.448-.208-3.792-1.072-6.624-4.624-6.624-5.12,0-.064.016-.112.112-.16.16-.112.192-.128.192-.208,0-.272-1.488-.976-1.5-.976-.192,0-.192.064-.32.56-.08.352-1.088,2.256-3.824,4.592C2.24-7.552.928-6.624.816-6.544c-.192.128-.24.16-.24.224C.576-6.24.672-6.256.72-6.272ZM5.984-4.128c.272,0,.48,0,.48.272a11.194,11.194,0,0,1-.832,2.112C4.976-.432,4.864-.432,3.968-.432A8.479,8.479,0,0,1,3.024-.5c-.1-.016-.592-.112-.7-.112-.048,0-.128,0-.128.112a12.641,12.641,0,0,0,.88,1.7.182.182,0,0,0,.16.112A3.345,3.345,0,0,0,3.7,1.056,70.041,70.041,0,0,1,11.12-.416c.224,0,.368.048.672.592C12.08.7,12.416,1.3,12.88,1.3c.3,0,.624-.352.624-.864,0-1.008-.992-1.584-1.424-1.84A14.882,14.882,0,0,0,10.048-2.4c-.048,0-.112.016-.112.1,0,.192.944,1.008.944,1.248,0,.16-.128.176-1.28.288C7.824-.592,6.32-.5,6.112-.5c-.064,0-.288-.016-.288-.16s.16-.3.224-.384c.1-.1.752-.88,1.088-1.328.4-.528.432-.576.56-.624.48-.128.48-.128.48-.272,0-.176-.752-.816-.752-.816,0-.048.064-.048.224-.048h4.9c.752,0,.832,0,.832-.208,0-.144,0-.16-.816-.832-.368-.3-.416-.336-.544-.336-.144,0-.208.1-.448.432-.384.528-.56.528-1.232.528H5.056c-.56,0-1.408-.032-2.192-.064-.1,0-.592-.048-.7-.048-.032,0-.064,0-.064.032,0,.016.048.064.08.112l.3.368c.064.064.08.1.144.1.048,0,.288-.032.336-.032.432-.032.832-.048,2.016-.048ZM6.72-7.1c-.64,0-1.408-.016-2.192-.064-.1,0-.592-.048-.7-.048-.032,0-.048.016-.048.032,0,.032,0,.048.064.112l.3.368c.064.064.1.1.144.1s.288-.032.336-.032c.592-.048,1.056-.048,2.032-.048h3.68c.768,0,.848,0,.848-.176a4.339,4.339,0,0,0-1.216-1.2c-.08,0-.272.24-.528.544-.32.384-.352.416-1.136.416ZM24.512.576c.064.08.1.112.144.112s.288-.048.336-.048c.56-.048,1.632-.032,2.016-.032h5.68c.528,0,.864,0,.864-.224C33.552.112,32.144-.928,32-.928c-.192,0-.24.064-.672.624a.994.994,0,0,1-.944.48h-.592c-.416,0-.416-.288-.416-.88,0-1.072-.048-5.76-.048-6.72,0-.288.032-.528.464-.528h2.224c.512,0,.848,0,.848-.208,0-.3-1.12-1.344-1.344-1.344-.144,0-.192.064-.656.688-.336.448-.416.448-1.168.448-.384,0-.384-.3-.384-.5,0-.432.048-3.088.144-3.312.032-.08.352-.352.352-.432,0-.272-.336-.352-.48-.4-.112-.032-1.1-.336-1.152-.336-.1,0-.128.032-.128.112,0,.128.1.688.1.816.08,1.2.112,1.92.112,3.392,0,.448-.032.656-.416.656-.544,0-1.84-.064-2-.064-.08,0-.656-.048-.672-.048s-.048,0-.048.032,0,.032.064.112l.3.368c.064.064.1.1.144.1.064,0,.288-.032.336-.032.56-.048,1.488-.048,1.888-.048.384,0,.384.336.384.5,0,.832-.032,6.992-.064,7.28-.032.352-.32.352-.464.352h-.624c-.9,0-1.728-.032-2.192-.048-.112,0-.608-.064-.7-.064a.051.051,0,0,0-.048.048c0,.016,0,.016.064.1ZM19.28-9.216c.048.064.08.1.144.1.048,0,.288-.032.336-.032.56-.032,1.232-.048,1.856-.048h1.12c.144,0,.256.016.256.16,0,.464-2.256,3.264-2.9,3.92A16.1,16.1,0,0,0,18.7-3.7c0,.048.048.048.08.048.416,0,2.5-1.808,2.656-1.808s.16.272.16.448c0,1.888-.064,3.552-.1,4.736C21.5-.1,21.44.64,21.44.8c0,.224.1.384.48.384a.763.763,0,0,0,.848-.736c0-.224-.08-1.216-.08-1.424,0-.656-.016-3.616-.016-4.224,0-.192,0-.416.144-.416.3,0,.832.816.928.992.416.848.592,1.168.976,1.168.288,0,.56-.24.56-.736,0-1.216-1.5-1.648-2.048-1.776-.384-.08-.528-.112-.528-.448,0-.288.048-.336.512-.816a18.416,18.416,0,0,1,1.488-1.6c.048-.016.272-.064.32-.08A.241.241,0,0,0,25.2-9.12c0-.1-.032-.128-.384-.464-.048-.032-.384-.432-.576-.624a.3.3,0,0,0-.224-.112c-.144,0-.608.48-.72.544a.57.57,0,0,1-.384.112c-.16,0-.256-.032-.256-.256v-1.344c0-.672,0-.752.08-.9.032-.064.32-.3.32-.368,0-.112-.1-.176-.176-.224a12.3,12.3,0,0,0-1.44-.432c-.016,0-.064,0-.064.032,0,.1.08.464.08.544.048.608.064,1.552.064,1.792,0,1.072,0,1.184-.448,1.184-.336,0-1.808-.1-2.112-.1-.016,0-.064,0-.064.032,0,.016.016.032.08.112ZM43.9-6.256c.144,0,.416,0,.464.32.064.32.08.4.288.4a.625.625,0,0,0,.672-.624c0-.656-.128-3.568-.128-4.176,0-.144.016-1.072.048-1.136.032-.08.288-.3.288-.368a2.634,2.634,0,0,0-.816-1.04c-.112,0-.4.464-.48.544a.692.692,0,0,1-.5.16h-.32a1.359,1.359,0,0,1-.64-.128c-.192-.08-.976-.592-1.072-.592-.032,0-.032.032-.032.064,0,.1.048.544.048.64.064,1.3.08,2.752.08,4.064,0,.656-.016,6.352-.08,6.56a.785.785,0,0,1-.608.544c-.448.144-.5.16-.5.256,0,.176.672,1.024.88,1.024.128,0,.144-.048.3-.384A10.64,10.64,0,0,1,43.3-1.456c.176-.144.88-.88,1.12-1.136a.191.191,0,0,1,.144-.08c.112,0,.144.1.16.16.032.112.16.56.416.56.272,0,.528-.4.528-.784,0-1.072-1.872-2.512-2.24-2.512-.016,0-.048,0-.048.032,0,.16,1.04,1.712,1.04,2.016,0,.24-.1.3-.576.64a4.325,4.325,0,0,1-.9.544c-.24,0-.24-.192-.24-.272,0-.544-.016-3.008-.016-3.5,0-.336.16-.464.5-.464Zm-.1-5.488c.512,0,.512.144.512,1.456,0,.624,0,.848-.512.848H43.2c-.512,0-.512-.112-.512-1.168,0-.944,0-1.136.512-1.136Zm.048,2.736a.411.411,0,0,1,.448.256c.016.064.016,1.536.016,1.728,0,.08,0,.352-.464.352h-.672c-.5,0-.5-.048-.5-1.68,0-.384,0-.656.48-.656Zm7.216,2.4c.48,0,.848,0,.848-.208a3.921,3.921,0,0,0-1.168-1.12c-.144,0-.176.064-.544.624-.176.272-.384.272-.7.272a.371.371,0,0,1-.416-.368c0-.08.32-1.648.352-1.9.048-.336.256-1.984.288-2.208a.427.427,0,0,1,.448-.288h.512c.528,0,.864,0,.864-.208s-1.088-1.1-1.248-1.1-.56.672-.672.768c-.128.128-.208.128-.9.128H48.32c-.656,0-1.376-.032-2.032-.048-.112-.016-.608-.064-.72-.064-.016,0-.048,0-.048.032a.2.2,0,0,0,.064.112l.3.368c.064.064.1.1.144.1.032,0,.176-.016.208-.016a.182.182,0,0,1,.176.192c0,.64-.048,3.456-.048,4.032,0,.24-.1.432-.336.432-.1,0-.576-.064-.624-.064-.032,0-.064.016-.064.048,0,.016.048.048.08.1l.3.368c.048.08.08.112.144.112.032,0,.192-.032.224-.032.24-.016.7-.048,1.264-.048.256,0,.464.016.464.288a12.431,12.431,0,0,1-3.36,6.176,5.975,5.975,0,0,0-.784.688c0,.048.064.08.1.08.368,0,3.392-1.488,4.624-5.552.064-.192.064-.224.128-.224.1,0,.1.112.1.176,0,.208-.08,3.712-.08,4.256,0,1.008.112,1.44,1.392,1.44,1.056,0,1.3-.128,1.552-.336a1.238,1.238,0,0,0,.528-.88c0-.192-.032-.24-.272-.592a4.613,4.613,0,0,1-.368-1.9c0-.128-.048-.192-.08-.192a6.294,6.294,0,0,0-.288,1.248c-.288,1.7-.384,1.7-.848,1.7-.528,0-.576,0-.576-2.784,0-.288,0-2.24.032-2.368.064-.144.112-.192.368-.416a.229.229,0,0,0,.08-.176c0-.176-.32-.32-.528-.4-.16-.064-.256-.112-.256-.16,0-.064.128-.064.176-.064Zm-2.864-5.2a.351.351,0,0,1,.4.352A32.312,32.312,0,0,1,48.1-7.424c-.032.208-.064.384-.336.384-.224,0-.48-.032-.48-.352,0-.576.048-3.392.048-4.016,0-.24.112-.4.432-.4ZM37.472-9.52c.048.064.08.1.144.1.08,0,.656-.064.784-.064.368,0,.368.288.368.32,0,.4-.72,3.44-.9,4.1-.08.3-.784,2.624-.784,2.672,0,.016,0,.048.032.048A17.428,17.428,0,0,0,38.768-5.36c.064-.128.1-.192.144-.192.144,0,.144.1.144.384,0,.8-.16,4.72-.16,5.6,0,.56.032.7.416.7.752,0,.752-.7.752-.96,0-.8-.1-4.736-.1-5.632,0-.256.016-1.552.016-1.84,0-.032,0-.24.112-.24.24,0,.592.736.624.832.144.4.208.608.5.608.16,0,.4-.176.4-.56,0-.768-.832-1.1-1.248-1.28C40-8.08,40-8.384,40-9.056c0-.3.112-.448.512-.448h.56c.256,0,.608,0,.608-.256,0-.192-.64-.88-.9-.88-.1,0-.16.08-.3.272-.064.112-.256.384-.352.384-.064,0-.128-.1-.128-.16s.064-1.888.08-1.936a.481.481,0,0,1,.16-.336c.224-.16.24-.176.24-.272,0-.368-1.344-.592-1.408-.592-.128,0-.16.064-.16.16,0,.112.08.656.1.784,0,.32.016,1.712.016,1.968a.371.371,0,0,1-.416.416c-.208,0-1.232-.08-1.456-.08-.032,0-.064,0-.064.032s.016.032.08.112Zm21.552-1.008a1.715,1.715,0,0,1-.576-.112c-.16-.048-.864-.4-.976-.4-.064,0-.064.112-.064.16a2.024,2.024,0,0,0,.016.256c.048.448.08,1.232.08,1.968,0,.256-.032,1.5-.032,1.792,0,.272,0,.56.5.56s.592-.384.688-.784c.048-.176.272-.176.416-.176h2.656c.144,0,.288,0,.288.16a7.438,7.438,0,0,1-1.344,2.3.747.747,0,0,1-.688.3h-1.6c-.752,0-1.424-.016-2.208-.048-.1,0-.592-.064-.7-.064a.042.042,0,0,0-.048.048c0,.016,0,.032.064.1l.3.368c.064.064.1.112.144.112a2.427,2.427,0,0,0,.336-.048c.16,0,.624-.032,2.032-.032H59.7c.336,0,.368,0,.368.08A19.011,19.011,0,0,1,58.9-2.352c-.672.736-.7.768-.7.992,0,.272.352.4.576.4.368,0,.56-.16,1.04-.8.256-.336.288-.384.48-.384a8.23,8.23,0,0,1,2.144.7,12.064,12.064,0,0,1-5.1,2.5c-.08.016-.192.048-.192.112s.112.1.224.1a12.772,12.772,0,0,0,6.08-2.1.363.363,0,0,1,.256-.1c.416,0,1.392.656,3.232,1.936a.834.834,0,0,0,.384.112.587.587,0,0,0,.576-.576c0-.784-1.664-1.536-2.96-1.952-.448-.144-.5-.16-.5-.208,0-.064.1-.16.128-.192.176-.176.96-1.056,1.152-1.248.08-.064.56-.384.56-.512,0-.112-.048-.128-.448-.336-.144-.08-.16-.08-.16-.128,0-.032.016-.032.144-.032H69.12c.528,0,.848,0,.848-.224,0-.256-1.552-1.232-1.616-1.232-.176,0-.688.784-.848.912-.1.08-.128.112-.8.112H62.24c-.224,0-.352,0-.352-.128a7.69,7.69,0,0,1,1.264-1.648c.416-.224.464-.272.464-.384,0-.144-.736-.512-.736-.56s.016-.048.176-.048h3.408c.16,0,.336,0,.384.272.048.336.048.368.336.368a.74.74,0,0,0,.768-.528c.016-.016.016-1.152.016-1.248a8.16,8.16,0,0,1,.064-1.28c.032-.08.32-.384.32-.464,0-.288-1.024-.928-1.12-.928s-.384.384-.464.448a.6.6,0,0,1-.384.1H65.168c-.4,0-.4-.3-.4-.5,0-.736,0-1.024.416-1.024h3.424c.528,0,.848,0,.848-.224a4.525,4.525,0,0,0-1.584-1.136c-.144,0-.192.064-.672.672-.208.272-.288.272-1.008.272h-7.28c-.752,0-1.408-.032-2.192-.064-.112,0-.592-.048-.7-.048-.048,0-.064,0-.064.032s.016.032.064.112l.32.368c.048.064.08.1.144.1.048,0,.272-.032.336-.032.144-.016.608-.048,2.016-.048H60.24c.464,0,.464.16.464.992,0,.256,0,.528-.464.528Zm4.464.416a.371.371,0,0,1,.4.416c0,.24.016,1.7-.032,1.792a.419.419,0,0,1-.432.208H62.08c-.464,0-.48-.112-.48-1.2s.016-1.216.5-1.216Zm-.016-1.936c.416,0,.416.24.416,1.008,0,.144,0,.512-.416.512h-1.36c-.48,0-.48-.272-.48-.56,0-.752,0-.96.464-.96Zm2.992,1.936c.416,0,.416.24.416,1.1,0,1.12,0,1.312-.416,1.312h-1.3c-.416,0-.416-.24-.416-1.1,0-1.12,0-1.312.416-1.312Zm-6.24,0c.48,0,.48.016.48,1.536,0,.64,0,.88-.48.88H59.04c-.464,0-.464-.048-.464-1.664,0-.416,0-.752.432-.752Zm4.24,6.048c.08,0,.176,0,.176.128s-1.264,1.968-1.728,1.968c-.032,0-1.872-.352-2.176-.4-.32-.048-.352-.048-.352-.144,0-.08.768-1.152.848-1.264a.708.708,0,0,1,.688-.288Z" transform="translate(-0.576 13.584)"/>
</svg>
