<svg xmlns="http://www.w3.org/2000/svg" width="259.572" height="11.628" viewBox="0 0 259.572 11.628">
  <path id="パス_130494" data-name="パス 130494" d="M-126.228-7.512a3.569,3.569,0,0,0-3.6,3.648,3.566,3.566,0,0,0,3.6,3.636,3.556,3.556,0,0,0,3.588-3.636A3.566,3.566,0,0,0-126.228-7.512Zm0,.42a3.04,3.04,0,0,1,3.036,3.216,3.057,3.057,0,0,1-3.036,3.228,3.057,3.057,0,0,1-3.036-3.228A3.047,3.047,0,0,1-126.228-7.092Zm1.56,3.936a1.356,1.356,0,0,1-1.3,1.02c-.792,0-1.4-.72-1.4-1.776,0-.984.5-1.7,1.368-1.7a1.18,1.18,0,0,1,1.2,1.008l.264-.048c-.048-.5-.084-.768-.132-1.092a3.537,3.537,0,0,0-1.248-.2,2.155,2.155,0,0,0-2.328,2.124,2.074,2.074,0,0,0,2.28,2.04,3.99,3.99,0,0,0,1.248-.228A9.353,9.353,0,0,0-124.4-3.1ZM-113.9-6.048c-.1-.756-.156-1.224-.2-1.656a4.98,4.98,0,0,0-1.512-.276,2.23,2.23,0,0,0-2.472,2.136c0,1.356,1.212,1.956,1.98,2.364.9.48,1.56.9,1.56,1.788a1.336,1.336,0,0,1-1.44,1.44c-1.236,0-1.776-1.212-1.968-1.944l-.348.084a14.774,14.774,0,0,0,.324,1.86A4.108,4.108,0,0,0-117.4,0a4.178,4.178,0,0,0,1.176.18,2.41,2.41,0,0,0,2.664-2.268c0-1.344-1.14-1.908-2.076-2.388s-1.524-.9-1.524-1.776a1.259,1.259,0,0,1,1.332-1.32c1.044,0,1.356.828,1.572,1.6Zm2.388,6.192a.656.656,0,0,0,.672-.7.666.666,0,0,0-.672-.684.666.666,0,0,0-.672.684A.656.656,0,0,0-111.516.144ZM-106.272,0V-.336c-.984-.072-1.08-.132-1.08-1.164V-6.3c0-1.02.1-1.092,1.08-1.164V-7.8h-3.18v.336c.984.072,1.08.144,1.08,1.164v4.8c0,1.02-.1,1.092-1.08,1.164V0Zm2.064.144a.656.656,0,0,0,.672-.7.666.666,0,0,0-.672-.684.666.666,0,0,0-.672.684A.656.656,0,0,0-104.208.144ZM-93.972-7.8H-96.8v.336c.828.048,1.116.2,1.176.744a17.8,17.8,0,0,1,.084,1.992v2.952h-.036l-5-6.024h-1.776v.336a1.3,1.3,0,0,1,1.068.444c.216.288.24.336.24,1.212v2.64c0,1.1-.036,1.68-.072,2.052-.06.588-.36.744-1.056.78V0h2.844V-.336c-.816-.048-1.092-.192-1.152-.8a20.172,20.172,0,0,1-.072-2.028V-6.18h.024L-95.424.108h.372V-4.728a16.692,16.692,0,0,1,.072-2.016c.048-.528.336-.684,1.008-.72Zm12.24,0h-3.132v.336c.936.084,1.032.144,1.032,1.14V-4.38h-4.092V-6.324c0-1,.1-1.056,1.008-1.14V-7.8h-3.108v.336c.984.084,1.08.132,1.08,1.14v4.848c0,1.008-.1,1.068-1.056,1.14V0h3.156V-.336c-.984-.072-1.08-.144-1.08-1.14v-2.4h4.092v2.4c0,1.008-.108,1.068-1.128,1.14V0h3.216V-.336c-.972-.072-1.068-.132-1.068-1.14V-6.324c0-1,.1-1.056,1.08-1.14Zm5.1-.18a4,4,0,0,0-4.032,4.164,3.878,3.878,0,0,0,3.9,4A3.934,3.934,0,0,0-72.756-4,3.868,3.868,0,0,0-76.632-7.98Zm-.24.432c1.572,0,2.892,1.344,2.892,3.876,0,2.3-1.2,3.42-2.532,3.42-1.692,0-2.928-1.644-2.928-3.9S-78.216-7.548-76.872-7.548Zm10.716,5.592A3.5,3.5,0,0,1-66.768-.78c-.276.312-.684.372-1.344.372a2.676,2.676,0,0,1-1.152-.156c-.216-.12-.276-.36-.276-1.008v-4.74c0-1.02.108-1.08,1.056-1.152V-7.8h-3.132v.336c.972.072,1.056.132,1.056,1.152v4.8c0,1.02-.1,1.1-1.1,1.176V0h5.436c.108-.372.36-1.512.432-1.884ZM-64.9-7.8v.348c.924.072,1.02.12,1.02,1.152v4.812c0,1.02-.1,1.092-1.128,1.164V0h2.844A5.656,5.656,0,0,0-58.6-1,3.809,3.809,0,0,0-57.12-4.2a3.536,3.536,0,0,0-1.008-2.58,4.756,4.756,0,0,0-3.4-1.02Zm2.052,1.236c0-.468.036-.6.156-.684a1.967,1.967,0,0,1,.936-.144,3.729,3.729,0,0,1,2.04.492A3.157,3.157,0,0,1-58.3-4.032c0,1.92-1.032,3.6-3.276,3.6-.876,0-1.272-.228-1.272-1.14ZM-52.812,0V-.336c-.984-.072-1.08-.132-1.08-1.164V-6.3c0-1.02.1-1.092,1.08-1.164V-7.8h-3.18v.336c.984.072,1.08.144,1.08,1.164v4.8c0,1.02-.1,1.092-1.08,1.164V0Zm9.324-7.8H-46.32v.336c.828.048,1.116.2,1.176.744a17.8,17.8,0,0,1,.084,1.992v2.952H-45.1l-5-6.024h-1.776v.336a1.3,1.3,0,0,1,1.068.444c.216.288.24.336.24,1.212v2.64c0,1.1-.036,1.68-.072,2.052-.06.588-.36.744-1.056.78V0h2.844V-.336c-.816-.048-1.092-.192-1.152-.8a20.173,20.173,0,0,1-.072-2.028V-6.18h.024L-44.94.108h.372V-4.728A16.693,16.693,0,0,1-44.5-6.744c.048-.528.336-.684,1.008-.72Zm8.748,4.188h-3.048v.324c1.176.1,1.26.168,1.26,1.032v1.02c0,.5-.144.648-.384.78a2.406,2.406,0,0,1-1.044.216c-2.316,0-3.336-2.016-3.336-3.744,0-2.22,1.344-3.564,3.18-3.564a2.087,2.087,0,0,1,2.34,1.86l.336-.072c-.1-.792-.156-1.452-.192-1.872a10.032,10.032,0,0,0-2.3-.348c-2.352,0-4.584,1.356-4.584,4.14,0,2.376,1.764,4.02,4.4,4.02a11.637,11.637,0,0,0,2.688-.444,5.4,5.4,0,0,1-.084-1.128v-1.02c0-.708.048-.768.768-.876Zm5.424-2.436c-.1-.756-.156-1.224-.2-1.656a4.98,4.98,0,0,0-1.512-.276A2.23,2.23,0,0,0-33.5-5.844c0,1.356,1.212,1.956,1.98,2.364.9.48,1.56.9,1.56,1.788A1.336,1.336,0,0,1-31.4-.252c-1.236,0-1.776-1.212-1.968-1.944l-.348.084A14.774,14.774,0,0,0-33.4-.252,4.108,4.108,0,0,0-32.808,0a4.178,4.178,0,0,0,1.176.18,2.41,2.41,0,0,0,2.664-2.268c0-1.344-1.14-1.908-2.076-2.388s-1.524-.9-1.524-1.776a1.259,1.259,0,0,1,1.332-1.32c1.044,0,1.356.828,1.572,1.6Zm11.352,3.936c-.6,1.2-1.248,1.86-2.472,1.86-1.824,0-3.144-1.536-3.144-3.78,0-1.824,1.068-3.516,3.072-3.516A2.088,2.088,0,0,1-18.18-5.76l.36-.084c-.072-.648-.144-1.128-.24-1.812a9.482,9.482,0,0,0-2.124-.324c-2.676,0-4.62,1.668-4.62,4.188A3.941,3.941,0,0,0-20.508.18,10.117,10.117,0,0,0-18.3-.144a12.855,12.855,0,0,0,.684-1.836Zm5.5-5.868A4,4,0,0,0-16.5-3.816a3.878,3.878,0,0,0,3.9,4A3.934,3.934,0,0,0-8.592-4,3.868,3.868,0,0,0-12.468-7.98Zm-.24.432c1.572,0,2.892,1.344,2.892,3.876,0,2.3-1.2,3.42-2.532,3.42-1.692,0-2.928-1.644-2.928-3.9S-14.052-7.548-12.708-7.548ZM-6.936.144a.656.656,0,0,0,.672-.7.666.666,0,0,0-.672-.684.666.666,0,0,0-.672.684A.656.656,0,0,0-6.936.144ZM-4.2-1.548a.538.538,0,0,0-.576.492c0,.2.084.288.144.3a.857.857,0,0,1,.756.8c0,.456-.348.768-.924,1.008l.132.348C-3.936,1.188-3.1.672-3.1-.252A1.249,1.249,0,0,0-4.2-1.548ZM6.552-1.956A3.5,3.5,0,0,1,5.94-.78c-.276.312-.684.372-1.344.372A2.676,2.676,0,0,1,3.444-.564c-.216-.12-.276-.36-.276-1.008v-4.74c0-1.02.108-1.08,1.056-1.152V-7.8H1.092v.336c.972.072,1.056.132,1.056,1.152v4.8c0,1.02-.1,1.1-1.1,1.176V0H6.48c.108-.372.36-1.512.432-1.884Zm7.092-4.02c-.06-.7-.12-1.572-.12-2.124h-.252a.638.638,0,0,1-.612.3H7.92c-.336,0-.492-.024-.66-.3H7.02C7-7.44,6.936-6.66,6.876-5.94h.348a3.78,3.78,0,0,1,.384-1.068C7.764-7.284,8-7.38,9-7.38h.744v5.9c0,.948-.1,1.068-1.188,1.14V0H12V-.336c-1.14-.072-1.236-.192-1.236-1.14v-5.9h.852c.9,0,1.1.084,1.3.372A2.9,2.9,0,0,1,13.3-5.94ZM14.688-7.8v.348c.924.072,1.02.12,1.02,1.152v4.812c0,1.02-.1,1.092-1.128,1.164V0h2.844a5.656,5.656,0,0,0,3.564-1,3.809,3.809,0,0,0,1.476-3.2,3.536,3.536,0,0,0-1.008-2.58,4.756,4.756,0,0,0-3.4-1.02ZM16.74-6.564c0-.468.036-.6.156-.684a1.967,1.967,0,0,1,.936-.144,3.729,3.729,0,0,1,2.04.492,3.157,3.157,0,0,1,1.416,2.868c0,1.92-1.032,3.6-3.276,3.6-.876,0-1.272-.228-1.272-1.14ZM24.132.144a.656.656,0,0,0,.672-.7.666.666,0,0,0-.672-.684.666.666,0,0,0-.672.684A.656.656,0,0,0,24.132.144ZM36.78,0V-.336c-.78-.072-.936-.18-1.32-1.212-.768-2.088-1.572-4.368-2.316-6.432l-.372.108-2.484,6.3C29.868-.516,29.7-.444,28.944-.336V0h2.6V-.336c-.9-.084-1.008-.2-.744-.96.156-.5.336-1.008.528-1.548h2.556c.264.732.5,1.38.66,1.848s.048.564-.708.66V0ZM33.72-3.36H31.512c.36-.984.744-2.028,1.128-3.06h.024ZM40.128,0V-.312c-.768-.072-.864-.144-.864-.936v-7.3a9.233,9.233,0,0,1-1.776.42v.288c.756.06.828.1.828.912v5.676c0,.792-.108.864-.864.936V0Zm3.336,0V-.312C42.7-.384,42.6-.456,42.6-1.248v-7.3a9.233,9.233,0,0,1-1.776.42v.288c.756.06.828.1.828.912v5.676c0,.792-.108.864-.864.936V0ZM54.42-.216a1.705,1.705,0,0,1-.864-.564,10.425,10.425,0,0,1-.972-1.248c-.36-.54-.864-1.344-1.068-1.74A2.187,2.187,0,0,0,53.04-5.82a1.8,1.8,0,0,0-.792-1.572,3.387,3.387,0,0,0-1.92-.408H47.352v.336c.936.084,1.032.12,1.032,1.14V-1.5c0,1.02-.108,1.092-1.092,1.164V0h3.156V-.336C49.488-.408,49.38-.48,49.38-1.5V-3.408h.384c.624,0,.828.144,1.032.48.36.588.792,1.332,1.212,1.92A2.187,2.187,0,0,0,53.952.084c.144.012.276.012.42.012ZM49.38-3.8V-6.756c0-.324.048-.468.132-.528a1.177,1.177,0,0,1,.648-.12,1.625,1.625,0,0,1,1.764,1.776,1.722,1.722,0,0,1-.66,1.488,1.985,1.985,0,0,1-1.308.336Zm6.828-2.628a.614.614,0,0,0,.612-.612.6.6,0,0,0-.6-.624.617.617,0,0,0-.612.624A.629.629,0,0,0,56.208-6.432ZM57.612,0V-.312c-.768-.072-.852-.144-.852-.96v-4.14a7.567,7.567,0,0,1-1.7.468v.288c.72.12.756.168.756.912v2.472c0,.816-.084.888-.84.96V0Zm5.976-5.256a14.026,14.026,0,0,1-1.632.168,2.389,2.389,0,0,0-1.152-.3A2.054,2.054,0,0,0,58.656-3.4a1.731,1.731,0,0,0,1.056,1.608,2.584,2.584,0,0,1-1.056.732.9.9,0,0,0,.132.5,1.6,1.6,0,0,0,.888.66,11.487,11.487,0,0,0-1,.84.935.935,0,0,0-.288.672c.012.684.744,1.464,2.076,1.464,1.6,0,3-1.164,3-2.376,0-1.176-.984-1.416-1.728-1.416-.4,0-.828.012-1.26.012-.54,0-.756-.228-.756-.468a.754.754,0,0,1,.36-.492,5.035,5.035,0,0,0,.612.06,1.948,1.948,0,0,0,2.1-1.92,1.616,1.616,0,0,0-.36-1.068l.684.036a1.9,1.9,0,0,0,.54-.612Zm-2.9.228c.684,0,1.128.672,1.128,1.62s-.468,1.416-1,1.428c-.672,0-1.128-.672-1.128-1.608S60.156-5.028,60.684-5.028Zm.264,5.16A3.063,3.063,0,0,1,62.1.288a.87.87,0,0,1,.552.852c0,.744-.588,1.332-1.728,1.332-.888,0-1.584-.492-1.584-1.14A1.3,1.3,0,0,1,59.892.4,1.437,1.437,0,0,1,60.948.132ZM70.14,0V-.312c-.708-.06-.792-.132-.792-.924v-2.1c0-1.44-.684-2.052-1.656-2.052a2.625,2.625,0,0,0-1.716.876V-8.544a13.141,13.141,0,0,1-1.764.42v.276c.792.072.816.132.816.888v5.724c0,.792-.108.864-.828.924V0h2.544V-.312c-.708-.072-.768-.156-.768-.924V-4.092A1.693,1.693,0,0,1,67.224-4.7c.8,0,1.176.492,1.176,1.476v1.992c0,.78-.1.852-.792.924V0Zm3.84-.432-.108-.312a1.716,1.716,0,0,1-.744.2c-.3,0-.7-.18-.7-1.152V-4.776h1.284a.341.341,0,0,0,.072-.468H72.432V-6.888l-.168-.024-.78.792v.876h-.552l-.324.348.048.12h.828v3.492c0,.948.42,1.428,1.176,1.428a1.217,1.217,0,0,0,.5-.156ZM78.144-3.9a9.017,9.017,0,0,0-.264-1.284,2.792,2.792,0,0,0-1.068-.2A1.654,1.654,0,0,0,74.988-3.84c0,.924.78,1.32,1.5,1.656.6.276.948.564.948,1.092a.837.837,0,0,1-.852.84c-.72,0-1.26-.7-1.476-1.488l-.312.06a5.658,5.658,0,0,0,.192,1.416,2.409,2.409,0,0,0,1.38.408,1.8,1.8,0,0,0,1.98-1.656c0-.828-.612-1.26-1.512-1.632-.54-.228-1.02-.5-1.02-1.044a.783.783,0,0,1,.78-.828c.588,0,1.008.48,1.236,1.188ZM89.484-.216A1.705,1.705,0,0,1,88.62-.78a10.425,10.425,0,0,1-.972-1.248c-.36-.54-.864-1.344-1.068-1.74A2.187,2.187,0,0,0,88.1-5.82a1.8,1.8,0,0,0-.792-1.572,3.387,3.387,0,0,0-1.92-.408H82.416v.336c.936.084,1.032.12,1.032,1.14V-1.5c0,1.02-.108,1.092-1.092,1.164V0h3.156V-.336c-.96-.072-1.068-.144-1.068-1.164V-3.408h.384c.624,0,.828.144,1.032.48.36.588.792,1.332,1.212,1.92A2.187,2.187,0,0,0,89.016.084c.144.012.276.012.42.012ZM84.444-3.8V-6.756c0-.324.048-.468.132-.528a1.177,1.177,0,0,1,.648-.12,1.625,1.625,0,0,1,1.764,1.776,1.722,1.722,0,0,1-.66,1.488A1.985,1.985,0,0,1,85.02-3.8Zm9.744,2.532a1.96,1.96,0,0,1-1.368.6c-.84,0-1.776-.672-1.788-2.3,1.428-.048,2.928-.168,3.132-.2s.276-.144.276-.384a1.858,1.858,0,0,0-1.8-1.824,2.436,2.436,0,0,0-1.764.876,3.09,3.09,0,0,0-.792,2.1A2.373,2.373,0,0,0,92.424.144,2.725,2.725,0,0,0,94.38-1.02ZM92.352-4.944a1.1,1.1,0,0,1,1.056,1.2c0,.168-.072.24-.288.24-.7.024-1.356.036-2.028.036C91.272-4.44,91.8-4.944,92.352-4.944ZM98.82-3.9a9.017,9.017,0,0,0-.264-1.284,2.792,2.792,0,0,0-1.068-.2A1.654,1.654,0,0,0,95.664-3.84c0,.924.78,1.32,1.5,1.656.6.276.948.564.948,1.092a.837.837,0,0,1-.852.84c-.72,0-1.26-.7-1.476-1.488l-.312.06a5.658,5.658,0,0,0,.192,1.416,2.409,2.409,0,0,0,1.38.408,1.8,1.8,0,0,0,1.98-1.656c0-.828-.612-1.26-1.512-1.632-.54-.228-1.02-.5-1.02-1.044a.783.783,0,0,1,.78-.828c.588,0,1.008.48,1.236,1.188Zm5.448,2.628a1.96,1.96,0,0,1-1.368.6c-.84,0-1.776-.672-1.788-2.3,1.428-.048,2.928-.168,3.132-.2s.276-.144.276-.384a1.858,1.858,0,0,0-1.8-1.824,2.436,2.436,0,0,0-1.764.876,3.09,3.09,0,0,0-.792,2.1A2.373,2.373,0,0,0,102.5.144,2.725,2.725,0,0,0,104.46-1.02Zm-1.836-3.672a1.1,1.1,0,0,1,1.056,1.2c0,.168-.072.24-.288.24-.7.024-1.356.036-2.028.036C101.352-4.44,101.88-4.944,102.432-4.944Zm4.8.828V-5.424a6.785,6.785,0,0,1-1.692.492v.264c.684.1.744.144.744.936v2.484c0,.792-.084.864-.828.936V0h2.76V-.312c-.924-.072-.984-.144-.984-.936v-2.2c.264-.672.648-1.032.96-1.032a.645.645,0,0,1,.5.252.278.278,0,0,0,.324.024.674.674,0,0,0,.384-.588.668.668,0,0,0-.7-.6c-.576,0-1.092.672-1.452,1.272Zm8.592-1.128h-2.136v.3c.684.084.756.216.576.792-.264.78-.648,1.872-1.068,2.868-.348-.864-.828-2.124-1.14-2.964-.192-.516-.168-.612.48-.7v-.3h-2.46v.3c.648.1.744.18,1.02.876.564,1.392,1.116,2.76,1.656,4.2h.324c.66-1.788,1.3-3.264,1.692-4.164.324-.72.432-.828,1.056-.912Zm4.524,3.972a1.96,1.96,0,0,1-1.368.6c-.84,0-1.776-.672-1.788-2.3,1.428-.048,2.928-.168,3.132-.2s.276-.144.276-.384a1.858,1.858,0,0,0-1.8-1.824,2.436,2.436,0,0,0-1.764.876,3.09,3.09,0,0,0-.792,2.1,2.373,2.373,0,0,0,2.34,2.556A2.725,2.725,0,0,0,120.54-1.02Zm-1.836-3.672a1.1,1.1,0,0,1,1.056,1.2c0,.168-.072.24-.288.24-.7.024-1.356.036-2.028.036C117.432-4.44,117.96-4.944,118.512-4.944ZM127.4-.612l-.384-.036c-.444-.048-.528-.108-.528-.732V-8.544a11.166,11.166,0,0,1-1.872.42v.288c.864.06.924.1.924.888v1.692a2.771,2.771,0,0,0-.792-.132,3.072,3.072,0,0,0-3.1,2.976,2.4,2.4,0,0,0,2.22,2.556,2.107,2.107,0,0,0,.936-.348l.732-.432v.78a12.42,12.42,0,0,1,1.86-.456Zm-1.86-.408a2.022,2.022,0,0,1-1.152.408c-.768,0-1.644-.7-1.644-2.124,0-1.74,1.008-2.208,1.56-2.208a1.49,1.49,0,0,1,1.236.612ZM129.072.144a.656.656,0,0,0,.672-.7.666.666,0,0,0-.672-.684.666.666,0,0,0-.672.684A.656.656,0,0,0,129.072.144Z" transform="translate(129.828 8.544)" fill="#fff"/>
</svg>
