<svg xmlns="http://www.w3.org/2000/svg" width="67.504" height="14.496" viewBox="0 0 67.504 14.496">
  <path id="パス_130450" data-name="パス 130450" d="M12.736-8.928A2.046,2.046,0,0,0,11.008-7.92c0,.048.016.064.064.064a.358.358,0,0,0,.16-.048,1.389,1.389,0,0,1,.624-.16c.544,0,1.344.224,1.344.864a.842.842,0,0,1-.064.288,1.1,1.1,0,0,0-.048.128.075.075,0,0,0,.08.08c.064,0,.4-.1.48-.112.08,0,.448.032.544.032.336,0,.528-.432.528-.768C14.72-8.288,13.968-8.928,12.736-8.928ZM6.864-9.392c-.032.016-.064.048-.064.064,0,.032.08.192.08.224,0,.224-.448.4-.56.4-.1,0-.128-.112-.128-.176a8.547,8.547,0,0,1,.16-1.04,6.449,6.449,0,0,0,.336-.832A1.6,1.6,0,0,0,5.04-11.84c-.1,0-.352.032-.352.176a1.6,1.6,0,0,0,.224.256,1.571,1.571,0,0,1,.528,1.28,11.965,11.965,0,0,1-.16,1.744,6.989,6.989,0,0,1-2.032.48,4.649,4.649,0,0,1-.736-.08c-.048,0-.24-.064-.288-.064a.113.113,0,0,0-.128.112c0,.112.608,1.216,1.152,1.216a3.431,3.431,0,0,0,1.136-.3,3.742,3.742,0,0,1,.736-.144c.176,0,.224.24.224.352.016.272.032,1.632.032,2,0,.448-.1.5-.912.9A3.42,3.42,0,0,1,2.8-3.376c-.1,0-.56-.08-.656-.08-.288,0-.464.336-.464.624,0,.528.816,1.008.992,1.008a3.161,3.161,0,0,0,.608-.32,1.334,1.334,0,0,1,.4-.1c.208,0,.288,0,.8.992.128.256.3.592.736.592.576,0,.816-1.056.816-1.792,0-.16-.048-.88-.048-1.056,0-.272.1-.32.992-.8a8.172,8.172,0,0,1,3.312-1.2,1.658,1.658,0,0,1,1.536,1.76c0,1.28-1.344,1.984-2.4,1.984-.16,0-1.04,0-1.04-.768a.662.662,0,0,1,.144-.432c.032-.048.064-.08.064-.128a.086.086,0,0,0-.08-.08,1.426,1.426,0,0,0-.8,1.264c0,.832.736,1.3,1.648,1.3,1.312,0,3.536-.96,3.536-3.072A2.45,2.45,0,0,0,10.432-6.1a7.519,7.519,0,0,0-2.72.64c-.256.1-1.568.64-1.616.64-.144,0-.144-.192-.144-.288,0-.08,0-1.376.032-1.728.032-.56.048-.624.272-.7.384-.16,1.6-.64,1.6-1.168C7.856-9.2,7.088-9.424,6.864-9.392ZM5.28-3.312c.048.032.048.192.048.256,0,.784-.224,1.232-.448,1.232-.24,0-.672-.512-.672-.752C4.208-2.8,5.232-3.312,5.28-3.312ZM26.144-5.84c.528,0,.832,0,.832-.192a1.558,1.558,0,0,0-.288-.432c-.528-.64-.576-.64-.656-.64-.16,0-.608.624-.7.72-.128.128-.208.128-.88.128h-.336c-.464,0-.5-.24-.5-.512,0-.176.048-2.3.064-2.448.032-.416.288-.416.464-.416h1.392c.736,0,.816,0,.816-.192,0-.24-.992-1.04-1.072-1.04-.112,0-.576.624-.7.7a1.778,1.778,0,0,1-.848.1h-2.08c-.272,0-.384,0-.384-.128,0-.064.736-1.392.88-1.648a1.368,1.368,0,0,1,.464-.624c.368-.224.368-.224.368-.3a5.322,5.322,0,0,0-1.488-.8c-.064,0-.08.016-.192.512a24.439,24.439,0,0,1-1.536,4c-.1.208-.64,1.152-.64,1.264,0,.016,0,.032.016.032.208,0,.992-.976,1.472-1.568a.626.626,0,0,1,.576-.3h.928c.5,0,.5.224.5.736A16.45,16.45,0,0,1,22.5-6.448c-.08.192-.288.192-.48.192-.832,0-1.7-.032-2.176-.064-.112,0-.608-.048-.7-.048-.032,0-.064,0-.064.032a.2.2,0,0,0,.064.112l.32.368c.064.08.08.112.144.112.1,0,.576-.064.672-.064.576-.032,1.2-.032,1.712-.032.288,0,.48,0,.48.4A7.193,7.193,0,0,1,19.5.512c-.32.224-.32.224-.32.3a.114.114,0,0,0,.128.112,6.056,6.056,0,0,0,3.712-3.776c.128-.368.208-.592.288-.592a5.119,5.119,0,0,1,1.52,2.56c.288,1.024.32,1.136.64,1.136.368,0,.656-.5.656-.864,0-.848-.848-1.9-2.384-2.912-.336-.224-.4-.256-.4-.448,0-.16.144-1.344.176-1.536.032-.24.16-.336.464-.336ZM31.056-.96c.464,0,.464.3.464.512,0,.624,0,.7.336.7.416,0,.9-.3.9-1.1,0-.128,0-.208-.032-.976-.016-.192-.048-6.864-.048-7.008a3.094,3.094,0,0,1,.064-.912c.032-.1.368-.5.368-.592,0-.192-.944-.848-1.008-.848-.1,0-.288.224-.464.448-.128.16-.224.16-.448.16H28.752a1.018,1.018,0,0,1-.672-.24,5.885,5.885,0,0,0-.944-.544c-.16,0-.16.144-.16.224,0,.128.144.736.16.864.1.976.128,1.92.128,2.72v6.5c0,.08-.048,1.3-.048,1.536,0,.336.032.448.352.448a.782.782,0,0,0,.864-.864c0-.08-.016-.464-.016-.544,0-.352.144-.48.448-.48Zm.048-9.184c.192,0,.384.048.448.224.08.208.08,2.688.08,3.12,0,.288-.048,5.024-.1,5.2-.064.176-.272.224-.448.224h-2.24c-.144,0-.432-.032-.464-.32-.048-.336-.064-6.368-.064-7.488,0-.768,0-.96.5-.96Zm12.56-2.448c-.048.048,0,.144.032.208a1.178,1.178,0,0,1,.272.72c0,.464-.384.624-1.28.992a1.967,1.967,0,0,0-1.456,1.92c-.048.592-.432,3.536-.432,4.208,0,1.232.544,2,1.216,2,.544,0,.72-.272,1.456-1.312a2.43,2.43,0,0,1,2.08-1.2A1.669,1.669,0,0,1,47.328-3.28c0,1.5-1.5,2.768-3.5,3.216-.112.032-.464.112-.464.192,0,.128.224.128.432.128,2.32,0,4.864-1.3,4.864-3.248A2.734,2.734,0,0,0,45.728-5.5,4.372,4.372,0,0,0,43.12-4.48a2.354,2.354,0,0,1-.928.384c-.4,0-.416-.5-.416-.736,0-.4.128-1.76.208-2.352.032-.224.192-1.168.192-1.312s-.112-.832-.112-.976A1.066,1.066,0,0,1,43.2-10.528a2.19,2.19,0,0,1,.752.16,2.9,2.9,0,0,0,.944.272.787.787,0,0,0,.816-.768C45.712-11.76,43.776-12.688,43.664-12.592Zm22.32,1.856a1.3,1.3,0,0,0-1.36-1.12c-.08,0-.352.016-.352.176,0,.032.288.576.3.592a2.358,2.358,0,0,1,.192,1.1c0,.208-.032.976-.08,1.3-.064.336-.176.352-1.168.512-.416.064-2.432.512-2.544.512-.208,0-.208-.128-.208-.464a8.828,8.828,0,0,1,.08-1.232,3.273,3.273,0,0,0,.08-.5c0-.56-.992-1.008-1.376-1.008-.192,0-.464.08-.464.224,0,.064.32.624.368.752a3.9,3.9,0,0,1,.256,1.68c0,.592-.016.736-.272.816a7.494,7.494,0,0,1-2.032.224c-.144,0-.816-.064-.976-.064-.144,0-.208.016-.208.224,0,.88,1.3,1.184,1.648,1.184.24,0,1.344-.5,1.616-.5.288,0,.288.16.288,1.5,0,3.04,0,4.32,4.576,4.32.368,0,1.824,0,1.824-.752a.833.833,0,0,0-.864-.688,5.049,5.049,0,0,0-.768.112,7.207,7.207,0,0,1-1.408.128c-2.24,0-2.528-.752-2.528-2.256,0-.048.032-1.5.048-2.032A1.286,1.286,0,0,1,60.8-6.64c.208-.352,3.1-.992,3.44-.992.24,0,.24.08.24.208A7.107,7.107,0,0,1,64.016-5.6a.576.576,0,0,1-.544.416c-.144,0-.864-.288-1.04-.288-.032,0-.08,0-.08.032a1.916,1.916,0,0,0,.208.336,5.812,5.812,0,0,1,.3.7c.144.464.208.64.752.64.576,0,1.44-.816,1.744-3.184.1-.832.112-.864,1.04-.864.288,0,1.68.176,2,.176s.784-.112.784-.528c0-.32-.24-.576-1.248-.864a8.618,8.618,0,0,0-1.152-.288c-.032,0-.128,0-.128.064a.132.132,0,0,0,.064.1c.288.272.32.3.32.4,0,.176-.144.192-.5.224-.128,0-.688.064-.752.064-.048,0-.176,0-.176-.08,0-.1.016-.208.128-1.28C65.76-9.968,65.984-10.7,65.984-10.736Z" transform="translate(-1.68 13.568)"/>
</svg>
