<svg xmlns="http://www.w3.org/2000/svg" width="136.608" height="13.344" viewBox="0 0 136.608 13.344">
  <path id="パス_130448" data-name="パス 130448" d="M5.872-11.936l.032.064a1.775,1.775,0,0,1,.544.736c.192.512.192,1.024.192,5.6A33.117,33.117,0,0,1,6.5-1.824c0,.064-.064.4-.064.464,0,.416.416,1.5.9,1.5.464,0,.464-1.056.464-1.456,0-.24-.016-.64-.032-.816-.064-1.44-.08-2.288-.08-3.984C7.68-7.3,7.744-7.3,7.9-7.3c.5,0,1.248.752,1.7,1.344C10.672-4.56,10.72-4.5,11.12-4.5a.548.548,0,0,0,.576-.56c0-1.2-2.48-2.368-3.456-2.592-.464-.112-.528-.16-.528-.512a20.754,20.754,0,0,1,.144-2.224,4.637,4.637,0,0,0,.192-.672c0-.512-1.152-1.024-1.728-1.024C6.3-12.08,5.888-12.08,5.872-11.936Zm23.3,4.656c0,1.376-1.872,4.384-5.28,6.992a6.833,6.833,0,0,0-.9.672.1.1,0,0,0,.1.1A14.01,14.01,0,0,0,29.6-5.168a13.044,13.044,0,0,1,.816-1.376c.272-.16.336-.176.336-.3,0-.464-.64-.848-.9-.976a3.56,3.56,0,0,0-.72-.4.109.109,0,0,0-.112.112,1.02,1.02,0,0,0,.032.144A1.622,1.622,0,0,1,29.168-7.28Zm-7.008.528c-.112,0-.208.048-.208.144,0,.048.032.1.112.208a5.723,5.723,0,0,1,.928,1.616c.112.352.224.72.576.72a.582.582,0,0,0,.544-.608C24.112-5.952,22.544-6.752,22.16-6.752Zm2.768-1.472c-.08-.016-.16.032-.16.08a1.808,1.808,0,0,0,.176.352,5.022,5.022,0,0,1,.592,1.52c.048.272.128.672.48.672.288,0,.544-.352.544-.816A2.027,2.027,0,0,0,24.928-8.224ZM50.464-12.48A1.52,1.52,0,0,0,48.9-10.96a1.572,1.572,0,0,0,1.552,1.552,1.561,1.561,0,0,0,1.536-1.552A1.489,1.489,0,0,0,50.464-12.48Zm-.032.544a1.07,1.07,0,0,1,1.024,1.008.987.987,0,0,1-.992.976.993.993,0,0,1-1.04-.96A1.029,1.029,0,0,1,50.432-11.936ZM38.9-9.984c-.1,0-.144.048-.144.352,0,.88,1.28,1.68,1.648,1.68a5.8,5.8,0,0,0,.8-.352,52.5,52.5,0,0,1,5.76-1.152c.08,0,.352.016.352.288a9.04,9.04,0,0,1-1.088,2.7A20.824,20.824,0,0,1,39.9-.128c-.16.112-.208.144-.208.208a.106.106,0,0,0,.112.1A16.282,16.282,0,0,0,48.064-7.28a2.648,2.648,0,0,1,.624-1.008c.288-.288.368-.368.368-.576,0-.224-.1-.4-.816-1.04-.5-.432-.752-.656-1.1-.656-.112,0-.176.032-.672.256a41.425,41.425,0,0,1-6.032.752A3.769,3.769,0,0,1,39.1-9.888C39.072-9.888,38.928-9.984,38.9-9.984Zm21.36,1.712c-.112,0-.144.064-.144.128,0,.08.032.1.336.256.608.336,2.08,1.216,2.08,1.552a7.551,7.551,0,0,1-1.152,1.712A25.676,25.676,0,0,1,57.136-.7c-.192.16-.5.4-.5.464s.064.08.112.08a16.193,16.193,0,0,0,6.272-5.024.461.461,0,0,1,.336-.224c.224,0,.528.544.688.832.56.992.8,1.408,1.376,1.408a.5.5,0,0,0,.512-.528c0-.4-.192-1.264-1.568-2.48a.636.636,0,0,1-.272-.432.734.734,0,0,1,.16-.4c.336-.528.64-1.072.912-1.6.416-.784.464-.864.64-.96.352-.176.4-.192.4-.32a2.1,2.1,0,0,0-.688-1.152,2.494,2.494,0,0,0-1.072-.512.131.131,0,0,0-.128.144c0,.048.048.1.1.192a.712.712,0,0,1,.112.368,7.887,7.887,0,0,1-.592,1.92c-.192.464-.656,1.584-.992,1.584a8.67,8.67,0,0,1-1.008-.432A6.429,6.429,0,0,0,60.256-8.272Zm23.632.992c0,1.376-1.872,4.384-5.28,6.992a6.833,6.833,0,0,0-.9.672.1.1,0,0,0,.1.1A14.01,14.01,0,0,0,84.32-5.168a13.042,13.042,0,0,1,.816-1.376c.272-.16.336-.176.336-.3,0-.464-.64-.848-.9-.976a3.56,3.56,0,0,0-.72-.4.109.109,0,0,0-.112.112,1.02,1.02,0,0,0,.032.144A1.622,1.622,0,0,1,83.888-7.28Zm-7.008.528c-.112,0-.208.048-.208.144,0,.048.032.1.112.208a5.723,5.723,0,0,1,.928,1.616c.112.352.224.72.576.72a.582.582,0,0,0,.544-.608C78.832-5.952,77.264-6.752,76.88-6.752Zm2.768-1.472c-.08-.016-.16.032-.16.08a1.808,1.808,0,0,0,.176.352,5.022,5.022,0,0,1,.592,1.52c.048.272.128.672.48.672.288,0,.544-.352.544-.816A2.027,2.027,0,0,0,79.648-8.224ZM93.52-6.992c-.032,0-.1.016-.1.064,0,.064.64,1.28,1.456,1.28.352,0,.448-.048,1.392-.544a11.661,11.661,0,0,1,1.5-.448c.224,0,.32.112.32.368,0,.272-.032,1.664-.032,1.984,0,2.656.336,3.376,3.1,3.376.864,0,3.552,0,3.552-1.024a.62.62,0,0,0-.672-.512,6.028,6.028,0,0,0-1.328.224,13.572,13.572,0,0,1-1.76.16c-.96,0-1.856-.144-1.984-1.408-.032-.3-.032-1.744-.032-3.088a.6.6,0,0,1,.5-.688c.208-.064,2.608-.848,2.64-.848.176,0,.192.224.192.32a2.742,2.742,0,0,1-.448,1.328c-.032.064-.3.512-.3.528a.092.092,0,0,0,.1.1,13.3,13.3,0,0,0,1.2-.72c.576-.352.752-.464,1.088-.464.064,0,.368.032.432.032.208,0,.288-.128.288-.24,0-.656-1.712-1.888-2.144-1.888a4.537,4.537,0,0,0-.688.336,19.39,19.39,0,0,1-2.4.672.282.282,0,0,1-.32-.3,13.371,13.371,0,0,1,.24-1.536,4.863,4.863,0,0,0,.3-.72c0-.16-.288-.432-.336-.48-.736-.624-.912-.7-1.1-.7-.144,0-.736.128-.736.272a3.187,3.187,0,0,0,.192.3c.384.576.576.848.576,2.576,0,.848-.032.976-.464,1.088a13.077,13.077,0,0,1-3.344.72,3.548,3.548,0,0,1-.592-.048A.935.935,0,0,0,93.52-6.992Zm20.288.544a8.713,8.713,0,0,1-1.952-.144c-.08-.016-.464-.192-.544-.192s-.128.1-.128.192c0,.544.736,1.536,1.424,1.536.192,0,1.056-.256,1.248-.288.384-.08,4.048-.288,6.256-.288.32,0,1.92.032,2.288.032.672,0,1.328-.048,1.328-.5,0-.112-.144-.7-1.12-.7-.08,0-.256.016-.352.016C119.92-6.656,114.336-6.448,113.808-6.448ZM131.84-7.68c-.1,0-1.12,0-1.12.24,0,.064.112.128.16.16a4.148,4.148,0,0,1,1.456,1.312c.24.4.32.5.56.5.384,0,.608-.464.608-.8C133.5-7.056,132.528-7.68,131.84-7.68Zm2.672-2.96a2.2,2.2,0,0,0-.816-.16c-.48,0-1.216.16-1.216.336,0,.064.016.064.24.144a2.706,2.706,0,0,1,1.392.864c.56.656.624.736.8.736.256,0,.528-.336.528-.752A1.4,1.4,0,0,0,134.512-10.64ZM132.464-.3c.176,0,.24-.048.832-.512.128-.1.192-.144,1.168-.752,6.272-3.952,7.072-6.432,7.072-6.464a.1.1,0,0,0-.1-.1c-.048,0-.976.944-1.152,1.12-2.816,2.592-7.168,4.976-8.032,4.976-.16,0-.88-.256-.928-.256a.117.117,0,0,0-.128.128.652.652,0,0,0,.08.288c.032.08.288.416.336.512C131.936-.672,132.128-.3,132.464-.3Zm7.936-12.56c-.288,0-.608,0-.608.144,0,.032.032.112.176.192a4.015,4.015,0,0,1,1.3,1.04c.224.368.448.7.784.7a.471.471,0,0,0,.432-.512C142.48-12.4,140.816-12.864,140.4-12.864Zm-1.84,1.024c-.1,0-.288.016-.288.112,0,.064.144.208.208.256A4.986,4.986,0,0,1,139.5-10.4c.4.624.544.8.784.8.3,0,.512-.416.512-.608C140.8-11.056,139.488-11.84,138.56-11.84Z" transform="translate(-5.872 12.864)"/>
</svg>
