<svg xmlns="http://www.w3.org/2000/svg" width="79.114" height="9.52" viewBox="0 0 79.114 9.52">
  <path id="パス_130443" data-name="パス 130443" d="M-39.186-2.758c.028,1.008.028,1.778.042,2.1A3.62,3.62,0,0,0-36.708.21a2.861,2.861,0,0,0,3.108-2.7,3.215,3.215,0,0,0-1.652-2.59l-.42-.308c-.728-.546-1.26-1.05-1.26-1.848a1.526,1.526,0,0,1,1.526-1.6c1.2,0,1.568,1.008,1.68,2.03l.42-.042c.014-.672,0-1.414.042-1.988-.112-.042-.336-.14-.6-.238a4.5,4.5,0,0,0-1.386-.238,2.609,2.609,0,0,0-2.87,2.534A3.308,3.308,0,0,0-36.54-4.3l.406.308c.8.63,1.26,1.176,1.26,1.946A1.6,1.6,0,0,1-36.526-.28c-1.526,0-2.114-1.484-2.254-2.52ZM-31.542.168a.854.854,0,0,0,.854-.91.727.727,0,0,0-.714-.784A.869.869,0,0,0-32.27-.6.725.725,0,0,0-31.542.168Zm7.77-9.254h-3.654l-.1.392c1.148.1,1.246.182,1.05,1.218l-1.134,5.81c-.21,1.078-.294,1.19-1.372,1.274l-.1.392H-25.4l.084-.392c-1.134-.084-1.232-.182-1.022-1.274l1.12-5.81c.21-1.036.28-1.12,1.358-1.218Zm.924,9.254a.854.854,0,0,0,.854-.91.727.727,0,0,0-.714-.784.869.869,0,0,0-.868.924A.725.725,0,0,0-22.848.168Zm13.1-9.254h-3.178l-.112.392c1.022.056,1.274.21,1.218.868a21.656,21.656,0,0,1-.364,2.394l-.63,3.346h-.042l-4.046-7h-2.114l-.1.392c.742.042,1.008.126,1.176.42s.224.532.07,1.3l-.7,3.332c-.28,1.3-.434,1.932-.588,2.408-.182.616-.5.8-1.232.84l-.1.392h3.248l.084-.392c-.98-.07-1.232-.224-1.19-.868a18.042,18.042,0,0,1,.35-2.352l.714-3.64h.042L-13.118.112h.476l1.05-5.544a23.769,23.769,0,0,1,.546-2.38c.182-.616.364-.84,1.218-.882ZM2.324-6.664c.056-.966.126-1.778.168-2.212A7.826,7.826,0,0,0,0-9.31c-3.486,0-5.95,2.3-5.95,5.516,0,2.562,1.736,4,4.2,4A12.2,12.2,0,0,0,1.218-.322a3.424,3.424,0,0,1,.07-1.092l.224-1.148c.2-1.05.266-1.106,1.036-1.218l.1-.378H-.91l-.1.378C.378-3.64.448-3.6.252-2.562L-.014-1.274c-.154.756-.7.98-1.5.98-1.89,0-2.94-1.5-2.94-3.584,0-2.632,1.638-4.928,4.116-4.928A1.936,1.936,0,0,1,1.89-6.622ZM11.256-.252a1.685,1.685,0,0,1-.924-.658,10.462,10.462,0,0,1-.868-1.484c-.322-.644-.686-1.512-.826-1.876a2.875,2.875,0,0,0,2.184-2.66,1.929,1.929,0,0,0-.868-1.722,3.713,3.713,0,0,0-2.016-.434H4.8l-.084.392c1.106.1,1.162.154.952,1.288L4.578-1.778C4.34-.574,4.256-.5,3.192-.392L3.094,0H6.72L6.8-.392c-1.106-.1-1.2-.182-.966-1.4L6.23-3.976h.546c.49,0,.672.126.882.644.294.714.588,1.414.938,2.072A2.272,2.272,0,0,0,10.976.112h.168ZM6.328-4.438l.658-3.43c.07-.364.14-.532.252-.616a1.027,1.027,0,0,1,.616-.14c.966,0,1.582.6,1.582,1.806A2.423,2.423,0,0,1,8.4-4.788a2.578,2.578,0,0,1-1.47.35ZM17.64-9.31a5.348,5.348,0,0,0-5.11,5.544A3.668,3.668,0,0,0,16.268.21a5.252,5.252,0,0,0,5.124-5.5A3.706,3.706,0,0,0,17.64-9.31Zm-.1.5c1.736,0,2.38,1.484,2.38,3.332,0,2.324-1.3,5.18-3.542,5.18-1.652,0-2.394-1.442-2.394-3.3C13.986-6.09,15.428-8.806,17.542-8.806Zm14.994-.28H29.26l-.1.392c1.008.056,1.274.2,1.246.77a21.425,21.425,0,0,1-.364,2.478l-.21,1.022C29.316-1.778,28.378-.56,26.726-.56c-1.372,0-2.366-.952-1.89-3.444L25.48-7.42c.21-1.12.308-1.176,1.344-1.274l.084-.392h-3.57l-.1.392c1.106.1,1.176.182.966,1.274l-.658,3.486c-.322,1.736-.014,2.786.63,3.388A3.155,3.155,0,0,0,26.362.21a3.6,3.6,0,0,0,2.422-.924,6.406,6.406,0,0,0,1.624-3.6l.224-1.134c.252-1.274.42-1.988.56-2.464.168-.532.336-.742,1.246-.784Zm1.148,0-.1.392c1.106.112,1.176.2.966,1.3L33.432-1.75C33.194-.574,33.1-.5,32.032-.392l-.1.392h3.822l.084-.392c-1.274-.112-1.372-.2-1.148-1.358l.42-2.2.952.294c.154,0,.336,0,.518-.014,1.582-.112,3.346-1.078,3.346-3.052,0-1.6-1.078-2.366-3.01-2.366Zm2.17,1.246c.084-.448.182-.6.336-.672a1.329,1.329,0,0,1,.588-.112A1.638,1.638,0,0,1,38.556-6.79,2.387,2.387,0,0,1,36.2-4.228a2.7,2.7,0,0,1-.994-.182Z" transform="translate(39.186 9.31)"/>
</svg>
