<svg xmlns="http://www.w3.org/2000/svg" width="103.984" height="14.883" viewBox="0 0 103.984 14.883">
  <path id="パス_130451" data-name="パス 130451" d="M12.736-8.928A2.046,2.046,0,0,0,11.008-7.92c0,.048.016.064.064.064a.358.358,0,0,0,.16-.048,1.389,1.389,0,0,1,.624-.16c.544,0,1.344.224,1.344.864a.842.842,0,0,1-.064.288,1.1,1.1,0,0,0-.048.128.075.075,0,0,0,.08.08c.064,0,.4-.1.48-.112.08,0,.448.032.544.032.336,0,.528-.432.528-.768C14.72-8.288,13.968-8.928,12.736-8.928ZM6.864-9.392c-.032.016-.064.048-.064.064,0,.032.08.192.08.224,0,.224-.448.4-.56.4-.1,0-.128-.112-.128-.176a8.547,8.547,0,0,1,.16-1.04,6.449,6.449,0,0,0,.336-.832A1.6,1.6,0,0,0,5.04-11.84c-.1,0-.352.032-.352.176a1.6,1.6,0,0,0,.224.256,1.571,1.571,0,0,1,.528,1.28,11.965,11.965,0,0,1-.16,1.744,6.989,6.989,0,0,1-2.032.48,4.649,4.649,0,0,1-.736-.08c-.048,0-.24-.064-.288-.064a.113.113,0,0,0-.128.112c0,.112.608,1.216,1.152,1.216a3.431,3.431,0,0,0,1.136-.3,3.742,3.742,0,0,1,.736-.144c.176,0,.224.24.224.352.016.272.032,1.632.032,2,0,.448-.1.5-.912.9A3.42,3.42,0,0,1,2.8-3.376c-.1,0-.56-.08-.656-.08-.288,0-.464.336-.464.624,0,.528.816,1.008.992,1.008a3.161,3.161,0,0,0,.608-.32,1.334,1.334,0,0,1,.4-.1c.208,0,.288,0,.8.992.128.256.3.592.736.592.576,0,.816-1.056.816-1.792,0-.16-.048-.88-.048-1.056,0-.272.1-.32.992-.8a8.172,8.172,0,0,1,3.312-1.2,1.658,1.658,0,0,1,1.536,1.76c0,1.28-1.344,1.984-2.4,1.984-.16,0-1.04,0-1.04-.768a.662.662,0,0,1,.144-.432c.032-.048.064-.08.064-.128a.086.086,0,0,0-.08-.08,1.426,1.426,0,0,0-.8,1.264c0,.832.736,1.3,1.648,1.3,1.312,0,3.536-.96,3.536-3.072A2.45,2.45,0,0,0,10.432-6.1a7.519,7.519,0,0,0-2.72.64c-.256.1-1.568.64-1.616.64-.144,0-.144-.192-.144-.288,0-.08,0-1.376.032-1.728.032-.56.048-.624.272-.7.384-.16,1.6-.64,1.6-1.168C7.856-9.2,7.088-9.424,6.864-9.392ZM5.28-3.312c.048.032.048.192.048.256,0,.784-.224,1.232-.448,1.232-.24,0-.672-.512-.672-.752C4.208-2.8,5.232-3.312,5.28-3.312ZM23.7-9.936c.24,0,.4,0,.432.224v1.1c0,.352-.16.352-.432.352H21.568c-.24,0-.384,0-.432-.24V-9.584c0-.352.16-.352.432-.352Zm4.832-2.4a1.024,1.024,0,0,1-.448-.112,2.1,2.1,0,0,0-.768-.288c-.144,0-.176.176-.176.256,0,.272.08,1.472.08,1.712,0,.5-.016,3.024-.016,3.152.016.48.272.512.4.512a.734.734,0,0,0,.736-.512c.064-.224.256-.224.48-.224H30.88c.352,0,.528,0,.528.464,0,.9-.032,4.848-.032,5.648,0,1.184,0,1.312-.656,1.312-.16,0-.8-.032-.944-.032-.112,0-.176.032-.176.08,0,.08.848.5.992.64a.848.848,0,0,1,.224.64c0,.08.128.144.208.144A2.21,2.21,0,0,0,32.032.544a1.931,1.931,0,0,0,.4-1.5c0-.464-.032-2.528-.032-2.944v-7.312a.662.662,0,0,1,.256-.608c.1-.08.192-.176.192-.272,0-.288-.928-.816-1.056-.816-.112,0-.144.048-.464.416a.378.378,0,0,1-.384.16Zm-7.088,0a.762.762,0,0,1-.464-.112,2.191,2.191,0,0,0-.9-.368c-.064,0-.064.1-.064.16,0,.144.128,1.616.128,1.92,0,4.96-.016,5.568-.176,11.024,0,.048-.016.208-.016.288,0,.384.144.544.416.544A.916.916,0,0,0,21.232.08c0-.176-.048-.976-.048-1.136-.032-1.168-.048-4.832-.048-5.68,0-.992,0-1.1.512-1.1h1.936c.208,0,.448,0,.5.224s.1.48.448.48c.752,0,.752-.832.752-1.04,0-.224-.064-2.224-.064-2.624,0-.576,0-.624.112-.736.048-.048.368-.24.368-.3,0-.288-.8-.992-1.056-.992-.128,0-.224.1-.5.336a.44.44,0,0,1-.4.16Zm2.288.416c.352,0,.416.048.416.416v.928c-.032.208-.208.224-.416.224H21.552c-.272,0-.416-.016-.416-.352v-.9c0-.3.144-.32.416-.32Zm5.008,1.568c-.256,0-.384,0-.432-.16a3.91,3.91,0,0,1-.032-.944c0-.448.08-.464.464-.464h2.208c.256,0,.384,0,.432.144a4.123,4.123,0,0,1,.032.96c0,.448-.1.464-.464.464Zm0,2.08c-.32,0-.448,0-.448-.352v-.944c0-.368.128-.368.448-.368H30.96c.32,0,.448,0,.448.368v.944c0,.352-.128.352-.448.352Zm-3.76,2.944a.977.977,0,0,1-.528-.144c-.8-.368-.848-.368-.944-.368-.064,0-.08.064-.08.128,0,.048.048.4.064.5.048.432.032,1.376.032,1.776,0,.64-.032,1.072-.064,1.76-.016.144-.032.576-.032.688,0,.352.08.592.368.592a.926.926,0,0,0,.832-.8c.032-.448.032-.528.512-.528h2.032c.272,0,.512,0,.512.384,0,.192.064.448.32.448a1.2,1.2,0,0,0,.7-.416c.128-.16.144-.352.144-.752,0-.368-.032-1.968-.016-2.288a.446.446,0,0,1,.128-.3c.144-.144.24-.224.24-.32,0-.32-.8-.9-.976-.9-.16,0-.224.1-.448.384a.415.415,0,0,1-.4.16Zm.176,3.168c-.336,0-.56-.032-.56-.3V-4.4c0-.448.1-.5.56-.5H27.2c.256,0,.448,0,.528.192.032.1.048,1.136.048,1.328a6.872,6.872,0,0,1-.048,1.024c-.064.192-.288.192-.528.192Zm14.32-8.352c-.032,0-.1.016-.1.064A2.161,2.161,0,0,0,39.5-9.9a4.445,4.445,0,0,1,.112.928c0,.416-.224,2.384-.224,2.832,0,3.056,2.016,4.736,3.04,4.736.272,0,.608-.176.608-.5a4.014,4.014,0,0,0-.128-.528,2.159,2.159,0,0,1-.1-.64,4.489,4.489,0,0,1,.208-1.216,1.919,1.919,0,0,0,.048-.32c0-.064-.032-.128-.08-.128-.128,0-.4.384-.5.544-.48.8-.544.88-.816.88-.5,0-1.328-1.168-1.328-2.784a5.651,5.651,0,0,1,.384-2.064,2.192,2.192,0,0,0,.192-.64C40.928-9.232,40.208-10.512,39.472-10.512ZM47.1-9.04c-.08,0-.144.032-.144.08,0,.1.64.592.768.72.848.848.848,1.52.848,2.848,0,.208,0,1.072.784,1.072.768,0,.8-.752.8-1.056a3.982,3.982,0,0,0-1.424-3.056A3.114,3.114,0,0,0,47.1-9.04ZM59.936-4.528a1.454,1.454,0,0,1-.656-.1,8.163,8.163,0,0,0-.96-.432c-.144,0-.144.128-.144.176,0,.064.08.432.08.5.048.288.032,1.216.032,1.552,0,.576-.144,3.52-.144,3.616a.375.375,0,0,0,.416.416,1.478,1.478,0,0,0,.848-.32c.112-.112.112-.16.112-.592s.32-.432.48-.432h4.832c.416,0,.416.176.416.848,0,.112,0,.416.352.416.224,0,1.024-.208,1.024-.64,0-.448-.1-2.672-.1-3.168,0-.24.016-.96.176-1.1s.208-.192.208-.336c0-.272-.944-1.008-1.04-1.008-.112,0-.528.464-.624.544a.689.689,0,0,1-.352.064ZM59.984-.56c-.464,0-.48-.288-.48-.5,0-.368.016-2.16.016-2.56,0-.24.032-.5.5-.5H64.88c.448,0,.448.3.448.5,0,.368-.016,2.16-.016,2.56,0,.192,0,.5-.464.5Zm1.632-13.12c-.048.032-.3.88-.384,1.04a20.567,20.567,0,0,1-3.9,5.36c-.288.288-1.84,1.664-1.84,1.744,0,.048.048.1.128.1.416,0,4.08-2.4,6.72-6.224.32-.464.352-.512.432-.512s.32.512.416.72a12.177,12.177,0,0,0,3.008,4.224,6.421,6.421,0,0,0,2.32,1.76c.064,0,.144-.08.208-.144a2.067,2.067,0,0,1,1.008-.448c.5-.112.56-.128.56-.272,0-.112,0-.112-.512-.3A13.161,13.161,0,0,1,65.744-9.1a11.275,11.275,0,0,1-2.5-3.36.146.146,0,0,1,.064-.128c.128-.1.176-.112.176-.208a.122.122,0,0,0-.032-.08A7.3,7.3,0,0,0,61.616-13.68Zm.352,6.656c-.752,0-1.424,0-2.208-.048-.1,0-.592-.064-.7-.064-.032,0-.048.016-.048.032,0,.032,0,.048.064.112l.3.368c.064.064.1.1.144.1s.288-.032.336-.032c.464-.032.9-.048,2.032-.048H64.9c.48,0,.864,0,.864-.192A6.091,6.091,0,0,0,64.3-7.952c-.144,0-.64.672-.768.784-.176.144-.368.144-.944.144Zm17.264-2.7c0-.176.048-.672.08-.928.032-.208.24-1.216.24-1.456,0-.528-1.088-1.184-1.52-1.184-.16,0-.544.08-.544.208,0,.064.032.1.3.416a3.028,3.028,0,0,1,.64,2.256,5.275,5.275,0,0,1-.144,1.36,5.331,5.331,0,0,1-.416.384C76.8-7.68,76.7-7.664,76.432-7.616c-.656.1-1.088.16-1.088.7,0,.288.048.352.56.992a2.8,2.8,0,0,1,.624,1.232,12.1,12.1,0,0,1-.8,1.552c-.4.672-.48.816-.48,1.088,0,.32.192.448.384.448.576,0,.912-.656,1.152-1.12.128-.256.336-.656.416-.656.384,0,.48,1.52.512,1.856.064.976.112,1.552.56,1.552a.976.976,0,0,0,.7-.928c0-.1-.064-.624-.08-.752-.064-.848-.08-2.88-.08-3.232,0-1.088.1-1.36.3-1.6a6.457,6.457,0,0,1,4.192-1.648,2.314,2.314,0,0,1,2.416,2.48c0,2.384-2.32,4.144-3.12,4.688-.176.128-1.184.688-1.184.736,0,.032.032.032.064.032.368,0,5.488-1.248,5.488-5.088a3.307,3.307,0,0,0-3.632-3.36,6.654,6.654,0,0,0-3.232.928,3.2,3.2,0,0,1-.464.24.073.073,0,0,1-.064-.08.888.888,0,0,1,.112-.3,1.757,1.757,0,0,0,.224-.768c0-.112,0-.368-.416-.624C79.248-9.408,79.232-9.424,79.232-9.728ZM78.16-7.9c.064.016.064.1.064.224,0,.576,0,.608-.992,2.064-.176.256-.224.336-.32.336-.176,0-.752-1.024-.752-1.248,0-.208.16-.224.672-.256a.956.956,0,0,0,.688-.56C77.792-7.808,78.064-7.92,78.16-7.9Zm-.112,2.816c.048,0,.08.032.08.1,0,.736,0,1.6-.192,1.6-.144,0-.464-.416-.464-.624A2.452,2.452,0,0,1,78.048-5.088Zm24.416-5.648a1.3,1.3,0,0,0-1.36-1.12c-.08,0-.352.016-.352.176,0,.032.288.576.3.592a2.358,2.358,0,0,1,.192,1.1c0,.208-.032.976-.08,1.3-.064.336-.176.352-1.168.512-.416.064-2.432.512-2.544.512-.208,0-.208-.128-.208-.464a8.828,8.828,0,0,1,.08-1.232,3.273,3.273,0,0,0,.08-.5c0-.56-.992-1.008-1.376-1.008-.192,0-.464.08-.464.224,0,.064.32.624.368.752a3.9,3.9,0,0,1,.256,1.68c0,.592-.016.736-.272.816a7.494,7.494,0,0,1-2.032.224c-.144,0-.816-.064-.976-.064-.144,0-.208.016-.208.224,0,.88,1.3,1.184,1.648,1.184.24,0,1.344-.5,1.616-.5.288,0,.288.16.288,1.5,0,3.04,0,4.32,4.576,4.32.368,0,1.824,0,1.824-.752a.833.833,0,0,0-.864-.688,5.049,5.049,0,0,0-.768.112,7.207,7.207,0,0,1-1.408.128c-2.24,0-2.528-.752-2.528-2.256,0-.048.032-1.5.048-2.032a1.287,1.287,0,0,1,.144-.656c.208-.352,3.1-.992,3.44-.992.24,0,.24.08.24.208A7.107,7.107,0,0,1,100.5-5.6a.576.576,0,0,1-.544.416c-.144,0-.864-.288-1.04-.288-.032,0-.08,0-.08.032a1.916,1.916,0,0,0,.208.336,5.811,5.811,0,0,1,.3.7c.144.464.208.64.752.64.576,0,1.44-.816,1.744-3.184.1-.832.112-.864,1.04-.864.288,0,1.68.176,2,.176s.784-.112.784-.528c0-.32-.24-.576-1.248-.864a8.618,8.618,0,0,0-1.152-.288c-.032,0-.128,0-.128.064a.132.132,0,0,0,.064.1c.288.272.32.3.32.4,0,.176-.144.192-.5.224-.128,0-.688.064-.752.064-.048,0-.176,0-.176-.08,0-.1.016-.208.128-1.28C102.24-9.968,102.464-10.7,102.464-10.736Z" transform="translate(-1.68 13.683)"/>
</svg>
