<svg xmlns="http://www.w3.org/2000/svg" width="118.672" height="12.272" viewBox="0 0 118.672 12.272">
  <path id="パス_130445" data-name="パス 130445" d="M1.68.3c.16,0,.192-.032.464-.272a.827.827,0,0,1,.608-.208,2.088,2.088,0,0,1,.64.16A5.141,5.141,0,0,0,5.12.3,3.392,3.392,0,0,0,8.592-3.152c0-1.232-.432-2.512-3.664-3.632C2.832-7.52,1.872-8,1.872-9.328A2.047,2.047,0,0,1,4.048-11.44,3.708,3.708,0,0,1,7.312-9.376c.256.416.288.464.416.464A.252.252,0,0,0,8-9.168c0-.1-.752-1.984-.864-2.24-.16-.416-.208-.56-.4-.56-.112,0-.144.032-.368.208a.608.608,0,0,1-.352.1c-.112,0-.784-.144-.96-.176a6.32,6.32,0,0,0-1.136-.128,3.015,3.015,0,0,0-3.2,3.1c0,1.9,1.472,2.752,3.7,3.52,2.032.7,2.992,1.216,2.992,2.672A2.306,2.306,0,0,1,5.04-.256,4.727,4.727,0,0,1,1.28-2.448C.9-3.04.864-3.12.688-3.12a.338.338,0,0,0-.352.336c0,.1.688,1.9.8,2.192C1.44.208,1.472.3,1.68.3ZM12.608.3A1.068,1.068,0,0,0,13.68-.752a1.059,1.059,0,0,0-1.072-1.056,1.041,1.041,0,0,0-1.04,1.056A1.052,1.052,0,0,0,12.608.3ZM21.664,0c.192,0,.432,0,.432-.256s-.256-.256-.336-.256c-1.072,0-1.648,0-1.792-.832a42.22,42.22,0,0,1-.048-4.512c0-.736,0-4.336.064-4.56.208-.72.9-.736,1.376-.736.592,0,.736,0,.736-.24,0-.272-.24-.272-.432-.272h-4.7c-.224,0-.464,0-.464.272,0,.256.256.256.352.256,1.056,0,1.632,0,1.792.816.048.288.048,3.9.048,4.56,0,.464,0,4.144-.048,4.416-.16.832-.928.832-1.392.832-.624,0-.752,0-.752.256s.24.256.448.256Zm4.3.3A1.068,1.068,0,0,0,27.04-.752a1.059,1.059,0,0,0-1.072-1.056,1.041,1.041,0,0,0-1.04,1.056A1.052,1.052,0,0,0,25.968.3ZM34.1,0c.3,0,.512,0,.512-.256s-.24-.256-.368-.256c-.688,0-1.568,0-1.76-1.056-.048-.3-.048-3.488-.048-4.128s.016-3.424.016-4c0-.176.048-.3.128-.3s.112.064.4.528c.08.112,6.352,9.536,6.448,9.648A.279.279,0,0,0,39.632.3c.208,0,.208-.272.208-.352,0-1.328-.016-7.248-.016-8.448,0-1.92,0-2.64,1.328-2.64.256,0,.48,0,.48-.256,0-.272-.24-.272-.416-.272H37.888c-.224,0-.448,0-.448.272,0,.256.24.256.336.256.528,0,1.344,0,1.536.976.048.288.048,3.12.048,3.7,0,.56-.016,3.184-.016,3.632,0,.208-.048.32-.112.32-.1,0-1.568-2.24-1.776-2.56-.976-1.472-2.544-3.824-3.52-5.3-.816-1.248-.848-1.3-2-1.3H30.384c-.24,0-.48,0-.48.272,0,.256.256.256.352.256.544,0,1.424,0,1.616.96a39.831,39.831,0,0,1,.048,4.32c0,4.24-.016,4.256-.144,4.624a1.264,1.264,0,0,1-1.28.72c-.4,0-.592,0-.592.256s.24.256.48.256ZM52.5-11.664c-.464,0-.624,0-.624.256,0,.272.176.272.7.272.16,0,.912,0,1.12.592A27.426,27.426,0,0,1,53.84-6.8c0,.624-.032,5.136-.1,5.456-.144.832-.848.832-1.376.832-.256,0-.5,0-.5.256s.24.256.48.256h5.36c2.992,0,4.352-1.7,4.352-3.216A3.164,3.164,0,0,0,59.872-6c-.128-.048-.8-.192-.8-.272s.288-.192.384-.224a2.881,2.881,0,0,0,1.936-2.592c0-1.984-2.272-2.576-4.064-2.576Zm2.96,5.232a.446.446,0,0,1-.368-.208c-.048-.144-.048-1.584-.048-2.384,0-1.392,0-2.112,1.152-2.112h1.136c1.5,0,2.576.72,2.576,2.272a2.416,2.416,0,0,1-2.72,2.432Zm2.176.512a2.7,2.7,0,0,1,2.912,2.752c0,1.68-1.232,2.656-2.96,2.656H56.192c-1.168,0-1.168-.672-1.168-2.416,0-.368,0-2.64.064-2.784a.427.427,0,0,1,.368-.208Zm8.08-5.744c-.192,0-.48,0-.48.24,0,.288.336.288.432.288.368,0,1.056,0,1.264.592a25.715,25.715,0,0,1,.128,3.232c0,.752,0,5.152-.032,5.7-.048.592-.208,1.1-1.312,1.1-.224,0-.448,0-.448.256,0,.224.24.256.4.256h3.952c.176,0,.464,0,.464-.256s-.224-.256-.336-.256c-1.472,0-1.472-.416-1.472-2.352,0-.368,0-2.48.064-2.64.048-.128.256-.192.368-.192h.88c.56,0,.672.256,1.552,2.192.176.4,1.312,2.88,1.408,3.04A.784.784,0,0,0,73.3,0h2c.08,0,.4-.032.4-.256,0-.256-.32-.256-.48-.256a1.993,1.993,0,0,1-1.888-1.28,28.347,28.347,0,0,1-1.664-3.824c0-.176.064-.208.624-.48a3.116,3.116,0,0,0,2.128-2.8c0-2.688-3.648-2.768-4.416-2.768Zm4.5.528c2.08,0,2.688,1.28,2.688,2.4,0,1.664-1.328,2.528-2.9,2.528H68.7c-.432,0-.432-.048-.432-2.56,0-1.648,0-2.368,1.152-2.368ZM90.144,0c.112,0,.368,0,.368-.24,0-.176-.16-.272-.368-.272-.912,0-1.024-.224-1.936-2.944C87.2-6.416,87.1-6.8,85.984-10.272a10.564,10.564,0,0,0-.528-1.44.365.365,0,0,0-.352-.256c-1.136,0-1.232.368-1.392.928-.208.72-1.232,3.856-1.44,4.5a47.515,47.515,0,0,1-1.9,5.392,1.345,1.345,0,0,1-1.216.64c-.368,0-.544,0-.544.272,0,.224.208.24.336.24h3.072c.128,0,.368,0,.368-.256,0-.224-.176-.256-.368-.256-.384,0-.9,0-.9-.624a12.766,12.766,0,0,1,.576-2.08c.256-.72.32-.88.912-.88H86.08c.528,0,.576.112.928,1.008A8.664,8.664,0,0,1,87.6-1.216a.7.7,0,0,1-.656.7c-.384,0-.64,0-.64.256,0,.208.208.256.384.256ZM82.752-4.624c-.208,0-.448,0-.448-.24,0-.144,1.248-4.208,1.7-5.5.176-.528.192-.576.288-.576.112,0,.144.144.24.416.288.864,1.808,5.312,1.808,5.648,0,.176-.224.256-.4.256ZM97.728,0c.3,0,.512,0,.512-.256S98-.512,97.872-.512c-.688,0-1.568,0-1.76-1.056-.048-.3-.048-3.488-.048-4.128s.016-3.424.016-4c0-.176.048-.3.128-.3s.112.064.4.528c.08.112,6.352,9.536,6.448,9.648a.279.279,0,0,0,.208.128c.208,0,.208-.272.208-.352,0-1.328-.016-7.248-.016-8.448,0-1.92,0-2.64,1.328-2.64.256,0,.48,0,.48-.256,0-.272-.24-.272-.416-.272H101.52c-.224,0-.448,0-.448.272,0,.256.24.256.336.256.528,0,1.344,0,1.536.976.048.288.048,3.12.048,3.7,0,.56-.016,3.184-.016,3.632,0,.208-.048.32-.112.32-.1,0-1.568-2.24-1.776-2.56-.976-1.472-2.544-3.824-3.52-5.3-.816-1.248-.848-1.3-2-1.3H94.016c-.24,0-.48,0-.48.272,0,.256.256.256.352.256.544,0,1.424,0,1.616.96a39.833,39.833,0,0,1,.048,4.32c0,4.24-.016,4.256-.144,4.624a1.264,1.264,0,0,1-1.28.72c-.4,0-.592,0-.592.256s.24.256.48.256Zm10.96-11.664c-.24,0-.464,0-.464.272,0,.256.176.256.576.256a1.062,1.062,0,0,1,1.216.816c.048.272.048,3.7.048,4.448a42.483,42.483,0,0,1-.048,4.528c-.144.832-.832.832-1.456.832-.1,0-.336,0-.336.256s.224.256.464.256h4.4c3.952,0,5.92-2.528,5.92-5.984,0-1.84-.64-5.68-6.064-5.68Zm4.592.528c3.456,0,4.288,3.072,4.288,5.088,0,3.2-1.632,5.536-4.352,5.536h-.768a1.007,1.007,0,0,1-1.1-.832,42.483,42.483,0,0,1-.048-4.528c0-.72,0-4.16.048-4.432a.991.991,0,0,1,1.1-.832Z" transform="translate(-0.336 11.968)"/>
</svg>
