<svg xmlns="http://www.w3.org/2000/svg" width="233" height="179.896" viewBox="0 0 233 179.896">
  <g id="グループ_31233" data-name="グループ 31233" transform="translate(-0.013)">
    <g id="グループ_12594" data-name="グループ 12594" transform="translate(2.307 135.291)">
      <g id="グループ_12633" data-name="グループ 12633">
        <path id="パス_29020" data-name="パス 29020" d="M52.4,214.78c.134.925.633,2.179,1.971,2.179a1.431,1.431,0,0,0,1.46-1.571c0-.693-.425-1.156-1.131-1.715l-.34-.268A2.894,2.894,0,0,1,53,211.275a2.243,2.243,0,0,1,2.471-2.179,3.577,3.577,0,0,1,1.156.207l.536.194c-.048.512-.024,1.156-.037,1.7l-.352.037c-.1-.913-.415-1.741-1.461-1.741a1.359,1.359,0,0,0-1.364,1.424c0,.706.5,1.144,1.133,1.631l.365.267a2.78,2.78,0,0,1,1.412,2.228,2.454,2.454,0,0,1-2.654,2.325,3.135,3.135,0,0,1-2.094-.755c-.011-.28-.011-.937-.036-1.8Z" transform="translate(-12.362 -175.677)" fill="#fff"/>
        <path id="パス_29021" data-name="パス 29021" d="M62.355,212.3a4.579,4.579,0,0,1,1.132-.146c1.253,0,1.752.6,1.752,1.68A3.932,3.932,0,0,1,64.2,216.35a4.813,4.813,0,0,1-2.264,1.413,1.974,1.974,0,0,1-.718-.123l-.34,1.717c-.147.693-.073.8.524.863l.291.024-.036.317-2.812.146.049-.316c.767-.147.9-.244,1.071-1,.451-2.131.913-4.261,1.364-6.366a5.746,5.746,0,0,0-.986.439l-.086-.3a5.848,5.848,0,0,1,1.169-.609l.133-.548a3.719,3.719,0,0,1,.889-.705l.121.06Zm-.938,4.516a1.093,1.093,0,0,0,.755.414c.863,0,2.045-1.644,2.045-3.2,0-1.083-.573-1.351-1.278-1.351a2.937,2.937,0,0,0-.694.085Z" transform="translate(-13.67 -176.103)" fill="#fff"/>
        <path id="パス_29022" data-name="パス 29022" d="M74.418,216.7a3.32,3.32,0,0,1-1.777,1.267c-.232,0-.389-.183-.219-1.072l.244-1.156H72.64a8.808,8.808,0,0,1-1.569,1.681,2.022,2.022,0,0,1-1.133.548c-.317,0-.706-.4-.706-1.376a4.483,4.483,0,0,1,1.461-3.3,3.851,3.851,0,0,1,2.263-.938,3.952,3.952,0,0,1,.755.085,2.412,2.412,0,0,0,.462.073l.036.048c-.194.755-.559,2.41-.839,3.956-.086.426-.049.524.023.524a2.637,2.637,0,0,0,.876-.633Zm-1.582-1.9c.134-.487.315-1.364.4-1.753a2.041,2.041,0,0,0-.816-.17,1.514,1.514,0,0,0-.865.255,4.313,4.313,0,0,0-1.314,3.25c0,.548.158.8.328.8.474,0,1.851-1.546,2.265-2.386" transform="translate(-15.675 -176.306)" fill="#fff"/>
        <path id="パス_29023" data-name="パス 29023" d="M81.84,216.615a3.6,3.6,0,0,1-2.434,1.351c-.779,0-1.3-.62-1.3-1.789a4.211,4.211,0,0,1,1.254-2.922,3.579,3.579,0,0,1,1.949-.9c.522,0,.913.3.924.608a.67.67,0,0,1-.4.561c-.1.061-.182.036-.267-.073a1.072,1.072,0,0,0-.913-.524,1.261,1.261,0,0,0-1.009.8,4.773,4.773,0,0,0-.536,2.2c0,.863.34,1.314.863,1.314a2.874,2.874,0,0,0,1.692-.9Z" transform="translate(-17.389 -176.306)" fill="#fff"/>
        <path id="パス_29024" data-name="パス 29024" d="M89.18,216.59a3.574,3.574,0,0,1-2.568,1.376c-.561,0-1.339-.33-1.339-1.777a4.043,4.043,0,0,1,1.46-3.153,3.044,3.044,0,0,1,1.679-.682,1,1,0,0,1,1.072.975c0,1.2-2.045,1.862-3.214,2.154a2.17,2.17,0,0,0-.025.39c0,.657.207,1.375.95,1.375a2.832,2.832,0,0,0,1.777-.937ZM87.463,213a2.737,2.737,0,0,0-1.145,2.106c1.741-.462,2.252-1.022,2.252-1.582a.6.6,0,0,0-.608-.669,1,1,0,0,0-.5.145" transform="translate(-18.774 -176.306)" fill="#fff"/>
        <path id="パス_29025" data-name="パス 29025" d="M101.69,209.654c-.95.1-1.011.158-1.181,1.046l-.985,5.124c-.183.938-.11,1.01.888,1.084l-.073.328H97.222l.086-.328c.95-.073,1.034-.159,1.217-1.084l.986-5.124c.171-.888.085-.949-.925-1.046l.086-.317h3.09Z" transform="translate(-21.082 -175.723)" fill="#fff"/>
        <path id="パス_29026" data-name="パス 29026" d="M109.284,216.785a3.315,3.315,0,0,1-1.716,1.18c-.3,0-.414-.329-.194-1.266.232-.913.438-1.8.657-2.7.17-.694.1-.876-.1-.876-.536,0-1.947,1.509-2.557,2.544-.145.6-.328,1.326-.474,2.057a5.908,5.908,0,0,0-.876.244l-.073-.1c.328-1.316.694-2.776.985-4.127.1-.389.062-.487-.011-.487a2.247,2.247,0,0,0-.792.548l-.158-.293a3.3,3.3,0,0,1,1.716-1.156c.28,0,.328.414.1,1.351l-.255,1.059h.024a8.207,8.207,0,0,1,2.24-2.142,1.641,1.641,0,0,1,.816-.268c.291,0,.633.183.267,1.741-.194.828-.39,1.679-.6,2.531-.073.329-.062.438.024.438a2.126,2.126,0,0,0,.8-.572Z" transform="translate(-22.382 -176.306)" fill="#fff"/>
        <path id="パス_29027" data-name="パス 29027" d="M118.564,216.785a3.315,3.315,0,0,1-1.716,1.18c-.3,0-.414-.329-.194-1.266.232-.913.438-1.8.657-2.7.17-.694.1-.876-.1-.876-.536,0-1.949,1.509-2.557,2.544-.145.6-.328,1.326-.474,2.057a5.908,5.908,0,0,0-.876.244l-.073-.1c.328-1.316.694-2.776.985-4.127.1-.389.062-.487-.011-.487a2.247,2.247,0,0,0-.792.548l-.158-.293a3.3,3.3,0,0,1,1.716-1.156c.28,0,.328.414.1,1.351l-.255,1.059h.024a8.207,8.207,0,0,1,2.24-2.142,1.641,1.641,0,0,1,.816-.268c.291,0,.633.183.267,1.741-.194.828-.39,1.679-.6,2.531-.073.329-.062.438.024.438a2.12,2.12,0,0,0,.8-.572Z" transform="translate(-24.174 -176.306)" fill="#fff"/>
        <path id="パス_29028" data-name="パス 29028" d="M122.5,216.067a3.7,3.7,0,0,1,1.851-3.323,3.086,3.086,0,0,1,1.314-.391c1.009,0,1.619.695,1.619,1.9a3.94,3.94,0,0,1-1.3,2.945,3.026,3.026,0,0,1-1.874.768c-1.157,0-1.607-.913-1.607-1.9m2.435,1.339c.657-.28,1.326-1.569,1.326-3.127,0-.986-.425-1.46-.985-1.46a1.088,1.088,0,0,0-.463.108c-.474.207-1.29,1.206-1.29,3.081,0,.9.378,1.472,1.023,1.472a1,1,0,0,0,.39-.073" transform="translate(-25.964 -176.306)" fill="#fff"/>
        <path id="パス_29029" data-name="パス 29029" d="M133.025,216.76c.5-.62,1.886-2.4,1.886-3.213a1.031,1.031,0,0,0-.134-.536.438.438,0,0,1,0-.3.591.591,0,0,1,.524-.353c.292,0,.511.28.523.695a3.04,3.04,0,0,1-.755,1.631c-.705.986-1.789,2.385-2.518,3.286h-.329c-.037-1.132-.17-3.043-.232-3.786s-.134-.937-.219-.937c-.11,0-.329.195-.718.645l-.194-.268c.438-.633,1.059-1.266,1.448-1.266.316,0,.474.463.535,1.351.049,1.072.122,2.058.158,3.056Z" transform="translate(-27.578 -176.306)" fill="#fff"/>
        <path id="パス_29030" data-name="パス 29030" d="M144.179,216.7a3.324,3.324,0,0,1-1.778,1.267c-.232,0-.388-.183-.218-1.072l.244-1.156H142.4a8.779,8.779,0,0,1-1.569,1.681,2.023,2.023,0,0,1-1.134.548c-.316,0-.706-.4-.706-1.376a4.481,4.481,0,0,1,1.462-3.3,3.852,3.852,0,0,1,2.262-.938,3.96,3.96,0,0,1,.756.085,2.4,2.4,0,0,0,.462.073l.036.048c-.194.755-.558,2.41-.838,3.956-.086.426-.049.524.023.524a2.637,2.637,0,0,0,.877-.633Zm-1.582-1.9c.134-.487.315-1.364.4-1.753a2.044,2.044,0,0,0-.816-.17,1.517,1.517,0,0,0-.866.255,4.316,4.316,0,0,0-1.314,3.25c0,.548.158.8.328.8.475,0,1.852-1.546,2.266-2.386" transform="translate(-29.15 -176.306)" fill="#fff"/>
        <path id="パス_29031" data-name="パス 29031" d="M150.959,212.552l-1.205.061-.717,3.359c-.123.6-.062.731.072.731a2.685,2.685,0,0,0,1.1-.706l.171.255c-.4.487-1.314,1.3-1.96,1.3-.28,0-.524-.353-.255-1.607l.717-3.335h-.9l-.036-.11.3-.365h.729l.281-1.156.925-.755.11.073-.427,1.838h1.413Z" transform="translate(-30.878 -175.896)" fill="#fff"/>
        <path id="パス_29032" data-name="パス 29032" d="M156.021,216.19a3.685,3.685,0,0,1-1.776,1.217c-.244,0-.4-.2-.159-1.193l.754-3.116c.073-.268.073-.39-.012-.39a2.348,2.348,0,0,0-.827.524l-.147-.28a4.1,4.1,0,0,1,1.851-1.157c.268,0,.255.391.121.963l-.839,3.359c-.073.292-.049.389.023.389a2.479,2.479,0,0,0,.853-.572Zm.317-6.184a.68.68,0,0,1-.645.706.512.512,0,0,1-.511-.536.715.715,0,0,1,.669-.718.5.5,0,0,1,.487.548" transform="translate(-32.02 -175.747)" fill="#fff"/>
        <path id="パス_29033" data-name="パス 29033" d="M159.244,216.067a3.7,3.7,0,0,1,1.851-3.323,3.086,3.086,0,0,1,1.314-.391c1.009,0,1.619.695,1.619,1.9a3.94,3.94,0,0,1-1.3,2.945,3.026,3.026,0,0,1-1.874.768c-1.157,0-1.607-.913-1.607-1.9m2.435,1.339c.657-.28,1.326-1.569,1.326-3.127,0-.986-.425-1.46-.985-1.46a1.088,1.088,0,0,0-.463.108c-.474.207-1.29,1.206-1.29,3.081,0,.9.378,1.472,1.023,1.472a1,1,0,0,0,.39-.073" transform="translate(-33.061 -176.306)" fill="#fff"/>
        <path id="パス_29034" data-name="パス 29034" d="M173.191,216.785a3.315,3.315,0,0,1-1.716,1.18c-.3,0-.414-.329-.194-1.266.232-.913.438-1.8.657-2.7.17-.694.1-.876-.1-.876-.536,0-1.947,1.509-2.557,2.544-.145.6-.328,1.326-.474,2.057a5.909,5.909,0,0,0-.876.244l-.073-.1c.328-1.316.694-2.776.985-4.127.1-.389.062-.487-.011-.487a2.247,2.247,0,0,0-.792.548l-.158-.293a3.3,3.3,0,0,1,1.716-1.156c.28,0,.328.414.1,1.351l-.255,1.059h.024a8.207,8.207,0,0,1,2.24-2.142,1.641,1.641,0,0,1,.816-.268c.291,0,.633.183.267,1.741-.194.828-.39,1.679-.6,2.531-.073.329-.062.438.024.438a2.126,2.126,0,0,0,.8-.572Z" transform="translate(-34.725 -176.306)" fill="#fff"/>
        <path id="パス_29035" data-name="パス 29035" d="M190.757,209.654c-.731.048-.9.231-1.059.766a20.529,20.529,0,0,0-.462,2.069l-.925,4.844h-.366l-3.6-6.45h-.037l-.633,3.237a16.633,16.633,0,0,0-.316,2.045c-.024.559.2.682,1.035.742l-.073.328h-2.788l.073-.328c.633-.036.913-.183,1.071-.706a18.871,18.871,0,0,0,.51-2.118l.634-3c.121-.62.085-.79-.073-1.058s-.353-.329-1.035-.378l.073-.317h1.753l3.59,6.2h.049l.56-3.043a19.244,19.244,0,0,0,.328-2.08c.037-.574-.157-.695-1.059-.755l.086-.317h2.738Z" transform="translate(-37.366 -175.723)" fill="#fff"/>
        <path id="パス_29036" data-name="パス 29036" d="M197.782,216.59a3.574,3.574,0,0,1-2.568,1.376c-.561,0-1.339-.33-1.339-1.777a4.043,4.043,0,0,1,1.46-3.153,3.044,3.044,0,0,1,1.679-.682,1,1,0,0,1,1.072.975c0,1.2-2.045,1.862-3.214,2.154a2.168,2.168,0,0,0-.025.39c0,.657.207,1.375.95,1.375a2.832,2.832,0,0,0,1.778-.937ZM196.065,213a2.737,2.737,0,0,0-1.145,2.106c1.741-.462,2.252-1.022,2.252-1.582a.6.6,0,0,0-.608-.669,1,1,0,0,0-.5.145" transform="translate(-39.75 -176.306)" fill="#fff"/>
        <path id="パス_29037" data-name="パス 29037" d="M204.634,212.552l-1.205.061-.717,3.359c-.123.6-.062.731.073.731a2.692,2.692,0,0,0,1.094-.706l.171.255c-.4.487-1.314,1.3-1.96,1.3-.28,0-.524-.353-.255-1.607l.717-3.335h-.9l-.036-.11.3-.365h.729l.281-1.156.925-.755.11.073-.427,1.838h1.413Z" transform="translate(-41.245 -175.896)" fill="#fff"/>
        <path id="パス_29038" data-name="パス 29038" d="M212.51,216.713c.5-.682,1.716-2.362,1.716-3.141a1.278,1.278,0,0,0-.122-.559.332.332,0,0,1,0-.3.586.586,0,0,1,.5-.353c.3,0,.524.267.524.694a2.741,2.741,0,0,1-.5,1.278c-.415.669-1.888,2.7-2.57,3.64h-.34c-.1-1.29-.219-2.568-.34-3.8h-.024c-.779,1.3-1.668,2.726-2.325,3.8h-.317c-.011-1.18-.073-2.751-.121-3.92-.025-.583-.073-.8-.194-.8-.086,0-.269.147-.718.621l-.207-.244c.512-.682,1.144-1.266,1.558-1.266.28,0,.414.366.438,1.205.024.973.036,2.069.036,2.872h.024c.731-1.254,1.545-2.581,2.264-3.9h.3c.134,1.364.244,2.776.39,4.175Z" transform="translate(-42.376 -176.306)" fill="#fff"/>
        <path id="パス_29039" data-name="パス 29039" d="M219.046,216.067a3.7,3.7,0,0,1,1.851-3.323,3.086,3.086,0,0,1,1.314-.391c1.009,0,1.619.695,1.619,1.9a3.94,3.94,0,0,1-1.3,2.945,3.026,3.026,0,0,1-1.874.768c-1.157,0-1.607-.913-1.607-1.9m2.435,1.339c.657-.28,1.326-1.569,1.326-3.127,0-.986-.425-1.46-.985-1.46a1.088,1.088,0,0,0-.463.108c-.474.207-1.29,1.206-1.29,3.081,0,.9.378,1.472,1.023,1.472a1,1,0,0,0,.39-.073" transform="translate(-44.611 -176.306)" fill="#fff"/>
        <path id="パス_29040" data-name="パス 29040" d="M227.54,213.547a3.5,3.5,0,0,1,1.7-1.193c.3,0,.318.561.134,1.413l-.12.608h.036c.62-1.193,1.338-2.021,1.826-2.021a.657.657,0,0,1,.522.3.54.54,0,0,1-.011.524,1.288,1.288,0,0,1-.318.352c-.11.073-.207.073-.268.013a.566.566,0,0,0-.414-.207c-.146,0-.34.123-.621.512a8.27,8.27,0,0,0-.863,1.51c-.194.816-.342,1.582-.488,2.385a4.528,4.528,0,0,0-.864.22l-.1-.1c.315-1.3.656-2.8.887-4.1.073-.4.073-.524-.024-.524a2.409,2.409,0,0,0-.863.584Z" transform="translate(-46.252 -176.306)" fill="#fff"/>
        <path id="パス_29041" data-name="パス 29041" d="M239.336,216.092c-.572.9-1.084,1.109-1.339,1.109s-.5-.147-.8-.8a24.312,24.312,0,0,1-.926-2.264,5.3,5.3,0,0,0-.681.779c-.135.658-.28,1.364-.414,2.057a5.293,5.293,0,0,0-.876.232l-.086-.073c.584-2.483,1.132-4.93,1.655-7.462.1-.486.037-.535-.438-.548l-.378-.011.062-.293a11.747,11.747,0,0,0,1.789-.425c.121,0,.109.11.061.352-.414,1.815-.8,3.6-1.217,5.418h.012a13,13,0,0,1,1.047-1.1c.68-.694,1.569-1.473,2.129-1.473.328,0,.512.2.512.377a.85.85,0,0,1-.244.487c-.073.061-.146.085-.194.061a1.1,1.1,0,0,0-.463-.1c-.559,0-1.241.633-1.582,1.01a14.326,14.326,0,0,0,1,2.4c.219.451.34.585.474.585s.39-.207.694-.56Z" transform="translate(-47.541 -175.54)" fill="#fff"/>
        <path id="パス_29042" data-name="パス 29042" d="M11.2,171.777c-.436-1.528-1.139-3.25-3.2-3.25a2.511,2.511,0,0,0-2.644,2.62c0,1.7,1.117,2.522,3.081,3.516,2.013,1.02,4.2,2.184,4.2,4.852,0,2.6-2.183,4.657-5.483,4.657a7.759,7.759,0,0,1-2.377-.364A8.566,8.566,0,0,1,3.51,183.3a29.835,29.835,0,0,1-.655-3.833l.752-.195c.388,1.5,1.528,4,4,4a2.637,2.637,0,0,0,2.838-2.838c0-1.723-1.285-2.6-3.1-3.566-1.723-.9-4.051-2.135-4.051-4.8,0-2.377,1.916-4.391,5.094-4.391a9.983,9.983,0,0,1,3.1.583c.1.873.243,1.844.437,3.372Z" transform="translate(-2.855 -167.677)" fill="#fff"/>
        <path id="パス_29043" data-name="パス 29043" d="M21.959,185.848a1.432,1.432,0,1,1,1.431,1.479,1.4,1.4,0,0,1-1.431-1.479" transform="translate(-6.545 -170.906)" fill="#fff"/>
        <path id="パス_29044" data-name="パス 29044" d="M32.583,183.9v-.7c1.94-.145,2.159-.29,2.159-2.354v-9.629c0-2.063-.219-2.208-2.159-2.378v-.7h6.573v.7c-1.94.169-2.158.315-2.158,2.378v9.629c0,2.063.219,2.208,2.158,2.354v.7Z" transform="translate(-8.597 -167.764)" fill="#fff"/>
        <path id="パス_29045" data-name="パス 29045" d="M47.777,185.848a1.432,1.432,0,1,1,1.431,1.479,1.4,1.4,0,0,1-1.431-1.479" transform="translate(-11.532 -170.906)" fill="#fff"/>
        <path id="パス_29046" data-name="パス 29046" d="M74.833,168.832c-1.358.072-1.916.388-2.037,1.456-.073.751-.145,1.843-.145,4.075v9.752h-.825l-10.285-12.59h-.048v5.967a40.606,40.606,0,0,0,.145,4.075c.122,1.189.655,1.528,2.329,1.626v.7H58.193v-.7c1.382-.1,1.99-.412,2.111-1.577a39.969,39.969,0,0,0,.169-4.125V172.2c0-1.722-.048-1.893-.509-2.475a2.567,2.567,0,0,0-2.135-.9v-.7h3.76l9.97,11.887h.072v-5.653a36.6,36.6,0,0,0-.169-4.027c-.121-1.066-.679-1.406-2.4-1.5v-.7h5.773Z" transform="translate(-13.473 -167.764)" fill="#fff"/>
        <path id="パス_29047" data-name="パス 29047" d="M110.933,168.832c-1.966.169-2.159.29-2.159,2.329v9.7c0,2.038.194,2.159,2.159,2.329v.7h-6.671v-.7c2.037-.169,2.232-.29,2.232-2.329v-4.778H98.537v4.778c0,2.038.194,2.159,2.135,2.329v.7H94.147v-.7c1.916-.169,2.111-.29,2.111-2.329v-9.7c0-2.038-.194-2.159-2.183-2.329v-.7h6.477v.7c-1.819.169-2.013.29-2.013,2.329v3.858h7.956V171.16c0-2.014-.194-2.159-2.062-2.329v-.7h6.5Z" transform="translate(-20.474 -167.764)" fill="#fff"/>
        <path id="パス_29048" data-name="パス 29048" d="M139.359,175.73c0,5.24-3.687,8.442-8.152,8.442a7.874,7.874,0,0,1-7.956-8.1,8.109,8.109,0,0,1,8.223-8.393,7.816,7.816,0,0,1,7.884,8.053m-13.391-.29c0,4.463,2.377,7.835,5.75,7.835,2.62,0,4.924-2.256,4.924-6.889,0-5.07-2.522-7.812-5.652-7.812-2.645,0-5.022,2.378-5.022,6.866" transform="translate(-26.109 -167.677)" fill="#fff"/>
        <path id="パス_29049" data-name="パス 29049" d="M163.444,180.039c-.145.8-.654,3.129-.873,3.857H151.437v-.7c2.037-.145,2.255-.315,2.255-2.378v-9.629c0-2.063-.17-2.184-2.134-2.354v-.7h6.525v.7c-1.892.145-2.134.266-2.134,2.354v9.557c0,1.285.12,1.746.583,1.989a5.049,5.049,0,0,0,2.231.291c1.285,0,2.111-.121,2.669-.753a6.945,6.945,0,0,0,1.26-2.4Z" transform="translate(-31.553 -167.764)" fill="#fff"/>
        <path id="パス_29050" data-name="パス 29050" d="M180.982,168.129c3.081,0,5.362.63,6.89,2.086a7.06,7.06,0,0,1,2.062,5.191,7.763,7.763,0,0,1-2.984,6.477A11.735,11.735,0,0,1,179.7,183.9h-5.821v-.7c2.062-.146,2.256-.291,2.256-2.354v-9.654c0-2.062-.194-2.183-2.037-2.329v-.728Zm-2.571,12.541c0,1.819.728,2.3,2.474,2.3,4.318,0,6.452-3.227,6.452-7.2,0-2.475-.9-4.585-2.692-5.7a6.953,6.953,0,0,0-4.075-1.092,3.632,3.632,0,0,0-1.844.315c-.219.169-.315.461-.315,1.382Z" transform="translate(-35.887 -167.764)" fill="#fff"/>
        <path id="パス_29051" data-name="パス 29051" d="M202.149,183.9v-.7c1.94-.145,2.159-.29,2.159-2.354v-9.629c0-2.063-.219-2.208-2.159-2.378v-.7h6.573v.7c-1.94.169-2.158.315-2.158,2.378v9.629c0,2.063.219,2.208,2.158,2.354v.7Z" transform="translate(-41.348 -167.764)" fill="#fff"/>
        <path id="パス_29052" data-name="パス 29052" d="M235.218,168.832c-1.358.072-1.916.388-2.036,1.456a40.627,40.627,0,0,0-.146,4.075v9.752h-.825l-10.286-12.59h-.048v5.967a40.511,40.511,0,0,0,.146,4.075c.122,1.189.654,1.528,2.329,1.626v.7h-5.774v-.7c1.383-.1,1.99-.412,2.112-1.577a40.3,40.3,0,0,0,.169-4.125V172.2c0-1.722-.048-1.893-.509-2.475a2.566,2.566,0,0,0-2.134-.9v-.7h3.76l9.969,11.887h.073v-5.653a36.3,36.3,0,0,0-.17-4.027c-.12-1.066-.679-1.406-2.4-1.5v-.7h5.773Z" transform="translate(-44.451 -167.764)" fill="#fff"/>
        <path id="パス_29053" data-name="パス 29053" d="M263.037,177.162c-1.407.219-1.528.34-1.528,1.8v2.037a10.884,10.884,0,0,0,.17,2.281,23.535,23.535,0,0,1-5.434.9c-5.409,0-8.975-3.3-8.975-8.127,0-5.6,4.512-8.369,9.315-8.369a20.519,20.519,0,0,1,4.681.7c.073.825.194,2.159.388,3.833l-.728.145c-.583-2.91-2.4-3.784-4.73-3.784-3.542,0-6.235,2.718-6.235,7.156,0,3.542,2.013,7.569,6.574,7.569a4.273,4.273,0,0,0,1.965-.413c.461-.242.728-.582.728-1.528v-2.11c0-1.747-.145-1.892-2.547-2.087v-.7h6.356Z" transform="translate(-50.063 -167.677)" fill="#fff"/>
        <path id="パス_29054" data-name="パス 29054" d="M283.287,171.777c-.436-1.528-1.138-3.25-3.2-3.25a2.511,2.511,0,0,0-2.644,2.62c0,1.7,1.117,2.522,3.081,3.516,2.013,1.02,4.2,2.184,4.2,4.852,0,2.6-2.183,4.657-5.483,4.657a7.763,7.763,0,0,1-2.377-.364,8.565,8.565,0,0,1-1.261-.509,29.826,29.826,0,0,1-.655-3.833l.752-.195c.389,1.5,1.529,4,4,4a2.637,2.637,0,0,0,2.838-2.838c0-1.723-1.285-2.6-3.1-3.566-1.723-.9-4.051-2.135-4.051-4.8,0-2.377,1.916-4.391,5.094-4.391a9.984,9.984,0,0,1,3.1.583c.1.873.243,1.844.437,3.372Z" transform="translate(-55.408 -167.677)" fill="#fff"/>
      </g>
    </g>
    <path id="パス_29055" data-name="パス 29055" d="M217.983,14.806A50.287,50.287,0,0,0,182.589,0h-.222c-.157,0-.309.005-.466.005-21.873.146-34.214,8.757-45.218,18.867-2.069,1.9-12.217,11.145-24.19,22.035C104.57,26.432,85.335,0,50.628,0A50.917,50.917,0,0,0,0,50.308H0v.016H0v.011a50.92,50.92,0,0,0,50.411,50.292c.043,0,2.356-.033,2.453-.038,19.685-.612,32.768-8.952,43.453-18.77,2.074-1.906,12.228-11.156,24.212-22.051,7.944,14.481,27.169,40.864,61.843,40.864A50.926,50.926,0,0,0,233,50.319V50.3h0v-.011A50.251,50.251,0,0,0,217.983,14.806ZM50.628.829A61.345,61.345,0,0,1,79.86,8.058,72.22,72.22,0,0,1,99.891,24.223,95.125,95.125,0,0,1,111.87,41.476c-16.3,14.816-35.752,32.47-42.846,38.8C61.486,87.008,52.3,91.3,38.259,91.3,25.311,91.3,17.2,86.754,10.354,78.5a49.881,49.881,0,0,1-8.9-28.176C1.63,23.026,23.687.829,50.628.829Zm180.91,49.7c-.287,27.19-22.3,49.269-49.171,49.269A61.34,61.34,0,0,1,153.14,92.57,72,72,0,0,1,133.114,76.41a95.184,95.184,0,0,1-11.962-17.215c16.295-14.816,35.736-32.449,42.824-38.779,7.538-6.731,16.728-11.091,30.764-11.091,12.948,0,21.066,4.549,27.911,12.807a49.9,49.9,0,0,1,8.892,27.959v.433Z" transform="translate(0.013)" fill="#fff"/>
  </g>
</svg>
