<svg xmlns="http://www.w3.org/2000/svg" width="65.55" height="13.86" viewBox="0 0 65.55 13.86">
  <path id="パス_130444" data-name="パス 130444" d="M6.75-10.155c.3,0,.3.255.3.42,0,.795,0,.87-.33.87H5.1a1.525,1.525,0,0,1-.6-.09,6.62,6.62,0,0,0-1.17-.6c-.09,0-.1.06-.1.135a3.572,3.572,0,0,0,.075.39c.03.3.03,1.275.03,1.32,0,.2-.045,1.14-.045,1.35s.045.39.39.39a.669.669,0,0,0,.69-.465c.06-.225.075-.285.36-.285H6.7c.315,0,.315.24.315.405,0,.645,0,.81-.33.81h-2c-.7,0-1.32,0-2.055-.045-.1,0-.555-.06-.66-.06-.045,0-.06.015-.06.045s.015.03.06.09l.3.36c.045.06.075.09.135.09s.255-.045.315-.045c.135-.015.57-.03,1.89-.03H6.69c.315,0,.315.24.315.57,0,.42,0,.615-.33.615H3.42c-.705,0-1.32-.015-2.055-.045-.09,0-.555-.06-.66-.06-.03,0-.06.015-.06.045s.015.03.075.09L1-3.54c.045.06.09.105.15.105s.255-.045.3-.045c.15-.015.585-.03,1.89-.03h3.33c.315,0,.315.24.315.465,0,.69,0,.855-.36.855H5.1c-.7,0-1.32-.03-2.055-.06-.105,0-.57-.045-.675-.045-.03,0-.045.015-.045.03s0,.03.06.105l.3.345c.045.06.075.09.12.09s.27-.03.33-.03C3.27-1.77,3.96-1.8,5.025-1.8H6.63a.309.309,0,0,1,.345.36c0,1.17,0,1.215-.825,1.215-.18,0-1.065-.12-1.26-.12-.03,0-.2,0-.2.075,0,.135.315.24.48.285C6.09.315,6.315.66,6.42.9c.075.165.09.21.2.21a3.561,3.561,0,0,0,.75-.18,1.069,1.069,0,0,0,.7-1.185c0-.15-.03-.885-.03-1.05,0-.285,0-.5.36-.5h2.325c.18,0,.3.06.33.345.06.48.075.645.435.645a.719.719,0,0,0,.78-.765c0-.165-.045-1.245-.045-1.485,0-.195,0-.45.315-.45h1.14c.39,0,.66,0,.66-.18,0-.285-1-.93-1.155-.93-.12,0-.15.06-.465.48a.545.545,0,0,1-.33.195c-.165,0-.165-.135-.165-.225,0-.525,0-.585.09-.675.27-.3.285-.33.285-.4,0-.2-.825-.75-.96-.75-.165,0-.27.105-.45.285a.741.741,0,0,1-.63.21H8.34c-.33,0-.33-.21-.33-.585,0-.405,0-.63.33-.63h1.92a.266.266,0,0,1,.285.2c.09.315.12.435.51.435a.607.607,0,0,0,.645-.54V-8.055a.3.3,0,0,1,.135-.285c.195-.18.27-.24.27-.345,0-.2-.84-.75-.945-.75-.135,0-.225.105-.465.36a.482.482,0,0,1-.465.21H8.355c-.315,0-.33-.225-.33-.375.015-.825.015-.915.375-.915h4.815c.51,0,.81,0,.81-.21,0-.195-1.32-.99-1.41-.99-.135,0-.18.06-.6.555-.225.255-.285.255-.96.255H8.4a.3.3,0,0,1-.33-.345,1.9,1.9,0,0,1,.045-.42c.03-.09.345-.465.345-.57,0-.315-1.26-.66-1.41-.66-.06,0-.135.03-.135.195,0,.18.135,1.14.135,1.365,0,.165,0,.435-.315.435H3.81c-.705,0-1.32-.03-2.055-.06-.105,0-.555-.045-.66-.045-.045,0-.06,0-.06.03s.015.03.06.105l.3.345c.045.06.075.09.135.09.045,0,.255-.03.315-.03.285-.015.75-.045,1.89-.045ZM4.725-7.11c-.375,0-.375-.15-.375-.675s0-.675.36-.675H6.69c.33,0,.33.225.33.66,0,.465,0,.69-.33.69ZM10.3-8.46c.33,0,.33.24.33.555,0,.615,0,.8-.36.8H8.355c-.345,0-.345-.18-.345-.81,0-.285,0-.54.345-.54ZM8.34-3.915c-.33,0-.33-.18-.33-.7,0-.225,0-.48.33-.48h2.505c.33,0,.33.255.33.48,0,.525-.06.7-.36.7Zm2.475.405c.33,0,.33.24.33.495,0,.705-.06.825-.4.825H8.385c-.36,0-.36-.09-.36-.9,0-.18,0-.42.33-.42ZM30.525-3c.5,0,.8,0,.8-.21,0-.255-1.14-.99-1.29-.99-.18,0-.69.69-.825.75a2.87,2.87,0,0,1-.735.045H25.425c-.36,0-.36-.195-.36-.375,0-.69,0-.81.375-.81h3.285c.48,0,.75,0,.75-.24s-.9-.975-1.155-.975c-.165,0-.21.06-.645.57-.21.24-.285.24-.945.24H25.485c-.42,0-.42-.21-.42-.6,0-.585,0-.765.45-.765H29.7c.69,0,.765,0,.765-.2,0-.24-1.08-.99-1.14-.99-.15,0-.57.585-.675.675s-.195.105-.81.105H26.49c-.1,0-.285,0-.285-.135,0-.195.66-.8,1.005-.99.21-.1.27-.15.27-.255,0-.15-.06-.18-.555-.465-.3-.18-.33-.2-.33-.255s.1-.075.165-.075h3.435c.51,0,.81,0,.81-.21a3.978,3.978,0,0,0-1.29-.96c-.135,0-.57.57-.675.645-.15.12-.3.135-.87.135h-.735c-.06,0-.18-.015-.18-.09a6.832,6.832,0,0,1,1.29-.945,6.623,6.623,0,0,1,.615-.39c.315-.12.345-.12.345-.225,0-.285-1.11-.885-1.14-.885-.075,0-.09.03-.255.42-.24.555-1.32,2.115-1.59,2.115-.135,0-.15-.12-.15-.225-.015-.765-.03-.84-.03-1.695a.623.623,0,0,1,.165-.525c.135-.18.165-.21.165-.27,0-.135-.15-.24-.24-.27a6.2,6.2,0,0,0-1.035-.27c-.1,0-.15.09-.15.21a2.491,2.491,0,0,0,.045.33c.015.27.045,1.02.045,1.425,0,1.17,0,1.29-.435,1.29h-.54c-.42,0-.45,0-.45-2.01,0-.33.03-.45.135-.57a.531.531,0,0,0,.15-.24c0-.33-1.215-.42-1.245-.42-.09,0-.15,0-.15.18,0,.15.09.78.105.915.015.4.03,1.47.03,1.74,0,.135,0,.4-.33.4h-.45c-.045,0-.165,0-.165-.12a.315.315,0,0,1,.075-.21.786.786,0,0,0,.1-.375c0-.975-1.62-1.41-1.995-1.41-.09,0-.15.06-.15.1,0,0,.525.51.615.615a3.945,3.945,0,0,1,.6,1.215c0,.18-.09.18-.315.18-.855,0-1.635-.045-2.07-.06-.1,0-.555-.045-.66-.045-.015,0-.045,0-.045.03s0,.03.06.1l.3.345c.045.06.075.09.12.09s.27-.03.33-.03c.285-.03,1.29-.045,1.89-.045h.375c.285,0,.48.03.78.525a6.382,6.382,0,0,1,.615,1.53c0,.12-.09.12-.165.12H21.9c-.84,0-1.62-.03-2.055-.045-.105,0-.57-.06-.66-.06a.048.048,0,0,0-.045.045c0,.015,0,.015.06.09l.285.345c.06.075.09.105.135.105s.27-.03.315-.03c.525-.045,1.545-.045,1.9-.045h1.815c.39,0,.39.315.39.63,0,.555,0,.735-.435.735h-.945c-.675,0-1.635-.03-2.055-.045-.1,0-.57-.06-.66-.06-.03,0-.06.015-.06.045s0,.015.06.09l.3.36c.06.06.075.09.135.09s.36-.045.405-.045c.33-.03,1.245-.03,1.8-.03h1.08c.36,0,.375.18.375.345,0,.7,0,.84-.315.84H20.79c-.63,0-1.635-.03-2.07-.045-.105,0-.555-.06-.66-.06a.048.048,0,0,0-.045.045c0,.015,0,.015.06.09l.285.345c.06.075.09.105.135.105s.36-.045.4-.045C19.29-3,20.22-3,20.715-3h1.98c.1,0,.255,0,.255.15,0,.3-2.37,2.385-4.95,3.525-.015.015-.315.15-.315.195s.075.075.1.075a14.947,14.947,0,0,0,5.76-2.76,1.579,1.579,0,0,1,.36-.225c.12,0,.12.135.12.2,0,.39,0,.87-.015,1.26C24-.36,23.925.765,23.925.8c0,.33.15.375.33.375a.939.939,0,0,0,.675-.3c.15-.165.15-.285.15-.825,0-.315-.015-1.695-.015-1.98,0-.09-.015-.54-.015-.6s.015-.18.135-.18c.075,0,.09.03.435.45a9.717,9.717,0,0,0,4.125,3A4.306,4.306,0,0,0,30.48.99c.045,0,.15-.18.195-.285a1.435,1.435,0,0,1,.81-.75c.24-.06.315-.075.315-.165S31.755-.3,31.4-.345a10.821,10.821,0,0,1-5.085-1.98c-.48-.36-.54-.39-.54-.525,0-.15.165-.15.375-.15ZM25.83-8.94c.255,0,.315.045.315.2A5.082,5.082,0,0,1,25.86-7.38c-.165.5-.255.615-.69.615H23.505c-.06,0-.165,0-.165-.075a.283.283,0,0,1,.03-.12.9.9,0,0,0,.1-.39c0-.33-.195-.735-.915-1.26-.06-.03-.315-.21-.315-.255,0-.075.09-.075.12-.075ZM42.945-4.665a1.4,1.4,0,0,1-.69-.135,2.372,2.372,0,0,0-.81-.3.138.138,0,0,0-.15.15c0,.105.075.555.075.645.045.675.045,1.155.045,1.755,0,.735,0,1.665-.045,2.4,0,.12-.06.69-.06.81,0,.2.03.435.4.435.7,0,.72-.375.735-.84.015-.36.3-.36.465-.36H46.29c.195,0,.435,0,.465.375.015.36.045.63.4.63a.689.689,0,0,0,.765-.795c0-.285-.075-1.56-.075-1.815,0-.3,0-2.115.045-2.19.015-.015.27-.21.3-.24a.183.183,0,0,0,.09-.15c0-.33-1.095-.825-1.2-.825-.09,0-.375.315-.435.36a.788.788,0,0,1-.465.09ZM42.915-.5c-.1,0-.345,0-.42-.195-.06-.12-.06-2.145-.06-2.31,0-1.14,0-1.26.48-1.26h3.4c.27,0,.36.045.435.18.045.12.045,2.145.045,2.325,0,1.14,0,1.26-.48,1.26ZM37.455-8.37a1.534,1.534,0,0,0-.6-1.035.4.4,0,0,1-.135-.225c0-.1.045-.165.525-.615a11.206,11.206,0,0,1,1.2-1.185c.15-.09.21-.1.21-.24,0-.255-.945-.9-1.14-.9-.15,0-.15.06-.15.315,0,.21-.75,2.445-1.05,2.445-.06,0-.9-.3-1.065-.3-.03,0-.09,0-.09.045a1.075,1.075,0,0,0,.165.225A4.422,4.422,0,0,1,36.36-8.415c.27.54.48.645.66.645C37.245-7.77,37.455-8.055,37.455-8.37Zm6.06-3.165c-.855,0-1.62-.03-2.055-.06-.1,0-.57-.045-.66-.045-.015,0-.06,0-.06.03s.015.045.075.1l.285.345c.045.06.075.09.135.09.045,0,.27-.03.315-.03.195-.015.945-.03,1.155-.03.27,0,.33.18.33.39A7.044,7.044,0,0,1,41.82-6.675c-.15.195-.945,1.14-.945,1.2a.032.032,0,0,0,.03.03,6.939,6.939,0,0,0,2.31-2.07,6.965,6.965,0,0,0,.99-3.21c.045-.375.18-.42.48-.42h1.8c.21,0,.435.015.435.4a17.024,17.024,0,0,1-.42,3.21c-.21.645-.375.645-.615.645a4,4,0,0,1-.96-.2c-.015,0-.255-.075-.255-.075-.015,0-.06.015-.06.045,0,.06.27.3.3.375a1.922,1.922,0,0,1,.315.72c.09.345.18.42.4.42A1.933,1.933,0,0,0,47.25-6.63a9.588,9.588,0,0,0,.615-3.195c.1-1.05.165-1.08.3-1.17.255-.15.285-.165.285-.285,0-.255-.855-.885-1.08-.885-.135,0-.18.075-.36.39a.521.521,0,0,1-.51.24ZM36.345-4.1a5.57,5.57,0,0,0-.615-.18.1.1,0,0,0-.1.105c0,.045.03.285.03.33a16.71,16.71,0,0,1-.315,2.4c-.06.24-.42,1.44-.42,1.53,0,.06,0,.075.075.075a3.18,3.18,0,0,0,.57-.84c.18-.345.93-2.055,1.14-2.43.045-.09.375-.525.375-.57C37.08-3.84,36.57-4.02,36.345-4.1Zm3.33.66a2.041,2.041,0,0,0-.51-.345.029.029,0,0,0-.03.03c0,.045,0,.075.1.33a7.418,7.418,0,0,1,.27,1.275c.12.9.15,1.215.615,1.215.285,0,.555-.225.555-.69A2.669,2.669,0,0,0,39.675-3.435Zm-.2-2.835c0,.18,0,.21-1,.21-.45,0-.93-.015-.99-.015s-.21-.015-.21-.12a.2.2,0,0,1,.075-.15c.42-.465,2.25-2.94,2.535-3.06.42-.195.435-.21.435-.33,0-.42-1-.825-1.29-.825-.15,0-.15.06-.15.255a22.4,22.4,0,0,1-1.89,3.93c-.18.285-.255.285-.54.285a5.764,5.764,0,0,1-1.05-.075c-.06,0-.33-.15-.405-.15-.15,0-.195.18-.195.405s.135,1.05.435,1.05a4.19,4.19,0,0,0,.51-.27A10.82,10.82,0,0,1,37.29-5.4c.21,0,.255.105.255.39.015.315,0,1.83,0,2.175,0,.09-.135,2.64-.15,2.9,0,.075-.045.465-.045.54a.457.457,0,0,0,.48.51c.675,0,.675-.705.675-1.05,0-.735-.045-4.3-.045-5.115,0-.375,0-.48.255-.555a4.883,4.883,0,0,1,.8-.135c.12,0,.18.015.24.24.1.435.15.6.45.6.42,0,.45-.555.45-.66,0-.6-.3-.81-.93-1.26a1.9,1.9,0,0,0-.51-.21.055.055,0,0,0-.06.06.754.754,0,0,0,.12.18A1.556,1.556,0,0,1,39.48-6.27Zm12.255.855a15.728,15.728,0,0,0,6.66-5.28c.42-.54.465-.6.57-.6s.165.075.225.165a17.064,17.064,0,0,0,1.05,1.65A10.564,10.564,0,0,0,64.6-5.955c.075,0,.12-.045.18-.105a2.07,2.07,0,0,1,.84-.675,5.257,5.257,0,0,0,.57-.27c0-.03-.045-.045-.105-.06-.315-.06-.96-.27-1.32-.39-2.955-1.02-5.355-3.69-5.355-4.035a.13.13,0,0,1,.06-.105c.12-.075.21-.135.21-.27,0-.36-1.575-.825-1.665-.825-.18,0-.18.12-.18.255,0,1.17-3.3,4.95-6.03,6.855-.015.015-.15.09-.15.1C51.66-5.43,51.7-5.415,51.735-5.415Zm8.7-2.19c-.12-.015-.27.015-.27.165,0,.075.12.4.135.48.06.48.06,1.47.06,1.995,0,1.245,0,3.105-.045,4.17,0,.18-.09,1.095-.09,1.29,0,.165,0,.615.48.615a.768.768,0,0,0,.75-.84c0-.18-.045-1.02-.045-1.215-.03-1.245-.03-2.2-.03-2.52A25.358,25.358,0,0,1,61.5-6.6c.045-.075.36-.33.36-.42C61.86-7.335,60.72-7.575,60.435-7.605Zm-4.125.06c-.15,0-.18.075-.18.15a2.236,2.236,0,0,0,.06.27,13.3,13.3,0,0,1,.12,1.785c0,2.07-.345,4.365-2.94,5.76a3.874,3.874,0,0,0-.795.42c0,.06.09.06.1.06A6.314,6.314,0,0,0,54.57.21c2.67-1.41,2.79-3.81,2.79-6.12,0-.33,0-.63.18-.765s.21-.165.21-.255a.254.254,0,0,0-.195-.225A11.137,11.137,0,0,0,56.31-7.545Z" transform="translate(-0.645 12.69)" fill="#fff"/>
</svg>
