<svg xmlns="http://www.w3.org/2000/svg" width="63.285" height="13.59" viewBox="0 0 63.285 13.59">
  <path id="パス_130448" data-name="パス 130448" d="M11.94-8.37a1.918,1.918,0,0,0-1.62.945c0,.045.015.06.06.06a.335.335,0,0,0,.15-.045,1.3,1.3,0,0,1,.585-.15c.51,0,1.26.21,1.26.81a.789.789,0,0,1-.06.27,1.034,1.034,0,0,0-.045.12.07.07,0,0,0,.075.075c.06,0,.375-.09.45-.105s.42.03.51.03c.315,0,.495-.4.495-.72C13.8-7.77,13.1-8.37,11.94-8.37ZM6.435-8.805c-.03.015-.06.045-.06.06,0,.03.075.18.075.21,0,.21-.42.375-.525.375s-.12-.1-.12-.165a8.013,8.013,0,0,1,.15-.975,6.046,6.046,0,0,0,.315-.78A1.5,1.5,0,0,0,4.725-11.1c-.09,0-.33.03-.33.165a1.5,1.5,0,0,0,.21.24,1.473,1.473,0,0,1,.495,1.2A11.217,11.217,0,0,1,4.95-7.86a6.552,6.552,0,0,1-1.905.45,4.358,4.358,0,0,1-.69-.075c-.045,0-.225-.06-.27-.06a.106.106,0,0,0-.12.105c0,.105.57,1.14,1.08,1.14A3.217,3.217,0,0,0,4.11-6.585,3.508,3.508,0,0,1,4.8-6.72c.165,0,.21.225.21.33.015.255.03,1.53.03,1.875,0,.42-.09.465-.855.84a3.206,3.206,0,0,1-1.56.51c-.09,0-.525-.075-.615-.075-.27,0-.435.315-.435.585,0,.5.765.945.93.945a2.963,2.963,0,0,0,.57-.3A1.251,1.251,0,0,1,3.45-2.1c.195,0,.27,0,.75.93.12.24.285.555.69.555.54,0,.765-.99.765-1.68,0-.15-.045-.825-.045-.99,0-.255.09-.3.93-.75A7.661,7.661,0,0,1,9.645-5.16a1.554,1.554,0,0,1,1.44,1.65c0,1.2-1.26,1.86-2.25,1.86-.15,0-.975,0-.975-.72a.62.62,0,0,1,.135-.4c.03-.045.06-.075.06-.12A.08.08,0,0,0,7.98-2.97a1.337,1.337,0,0,0-.75,1.185C7.23-1,7.92-.57,8.775-.57c1.23,0,3.315-.9,3.315-2.88A2.3,2.3,0,0,0,9.78-5.715a7.049,7.049,0,0,0-2.55.6c-.24.09-1.47.6-1.515.6-.135,0-.135-.18-.135-.27s0-1.29.03-1.62c.03-.525.045-.585.255-.66.36-.15,1.5-.6,1.5-1.1C7.365-8.625,6.645-8.835,6.435-8.805ZM4.95-3.105c.045.03.045.18.045.24,0,.735-.21,1.155-.42,1.155-.225,0-.63-.48-.63-.7S4.9-3.105,4.95-3.105Zm19.56-2.37c.5,0,.78,0,.78-.18a1.46,1.46,0,0,0-.27-.405c-.495-.6-.54-.6-.615-.6-.15,0-.57.585-.66.675-.12.12-.195.12-.825.12H22.6c-.435,0-.465-.225-.465-.48,0-.165.045-2.16.06-2.295.03-.39.27-.39.435-.39H23.94c.69,0,.765,0,.765-.18,0-.225-.93-.975-1.005-.975-.1,0-.54.585-.66.66a1.667,1.667,0,0,1-.8.09H20.3c-.255,0-.36,0-.36-.12,0-.06.69-1.3.825-1.545a1.282,1.282,0,0,1,.435-.585c.345-.21.345-.21.345-.285a4.989,4.989,0,0,0-1.4-.75c-.06,0-.075.015-.18.48a22.911,22.911,0,0,1-1.44,3.75c-.09.195-.6,1.08-.6,1.185,0,.015,0,.03.015.03.195,0,.93-.915,1.38-1.47a.587.587,0,0,1,.54-.285h.87c.465,0,.465.21.465.69a15.422,15.422,0,0,1-.1,2.3c-.075.18-.27.18-.45.18-.78,0-1.59-.03-2.04-.06-.1,0-.57-.045-.66-.045-.03,0-.06,0-.06.03a.191.191,0,0,0,.06.105l.3.345c.06.075.075.105.135.105.09,0,.54-.06.63-.06.54-.03,1.125-.03,1.6-.03.27,0,.45,0,.45.375A6.744,6.744,0,0,1,18.285.48c-.3.21-.3.21-.3.285A.107.107,0,0,0,18.1.87a5.677,5.677,0,0,0,3.48-3.54c.12-.345.195-.555.27-.555a4.8,4.8,0,0,1,1.425,2.4c.27.96.3,1.065.6,1.065.345,0,.615-.465.615-.81,0-.8-.8-1.785-2.235-2.73-.315-.21-.375-.24-.375-.42,0-.15.135-1.26.165-1.44.03-.225.15-.315.435-.315ZM29.115-.9c.435,0,.435.285.435.48,0,.585,0,.66.315.66.39,0,.84-.285.84-1.035,0-.12,0-.195-.03-.915-.015-.18-.045-6.435-.045-6.57a2.9,2.9,0,0,1,.06-.855c.03-.09.345-.465.345-.555,0-.18-.885-.795-.945-.795-.09,0-.27.21-.435.42-.12.15-.21.15-.42.15h-2.28a.954.954,0,0,1-.63-.225,5.517,5.517,0,0,0-.885-.51c-.15,0-.15.135-.15.21,0,.12.135.69.15.81.09.915.12,1.8.12,2.55V-.99c0,.075-.045,1.215-.045,1.44,0,.315.03.42.33.42a.733.733,0,0,0,.81-.81c0-.075-.015-.435-.015-.51,0-.33.135-.45.42-.45Zm.045-8.61c.18,0,.36.045.42.21.075.2.075,2.52.075,2.925,0,.27-.045,4.71-.09,4.875s-.255.21-.42.21h-2.1c-.135,0-.405-.03-.435-.3-.045-.315-.06-5.97-.06-7.02,0-.72,0-.9.465-.9Zm11.775-2.3c-.045.045,0,.135.03.2a1.1,1.1,0,0,1,.255.675c0,.435-.36.585-1.2.93a1.844,1.844,0,0,0-1.365,1.8c-.045.555-.4,3.315-.4,3.945,0,1.155.51,1.875,1.14,1.875.51,0,.675-.255,1.365-1.23a2.278,2.278,0,0,1,1.95-1.125A1.565,1.565,0,0,1,44.37-3.075c0,1.41-1.41,2.6-3.285,3.015-.1.03-.435.105-.435.18,0,.12.21.12.4.12,2.175,0,4.56-1.215,4.56-3.045A2.563,2.563,0,0,0,42.87-5.16a4.1,4.1,0,0,0-2.445.96,2.207,2.207,0,0,1-.87.36c-.375,0-.39-.465-.39-.69,0-.375.12-1.65.195-2.205.03-.21.18-1.1.18-1.23s-.1-.78-.1-.915A1,1,0,0,1,40.5-9.87a2.053,2.053,0,0,1,.705.15,2.718,2.718,0,0,0,.885.255.737.737,0,0,0,.765-.72C42.855-11.025,41.04-11.895,40.935-11.805Zm20.925,1.74a1.214,1.214,0,0,0-1.275-1.05c-.075,0-.33.015-.33.165,0,.03.27.54.285.555a2.211,2.211,0,0,1,.18,1.035c0,.2-.03.915-.075,1.215-.06.315-.165.33-1.1.48-.39.06-2.28.48-2.385.48-.195,0-.195-.12-.195-.435a8.277,8.277,0,0,1,.075-1.155,3.068,3.068,0,0,0,.075-.465c0-.525-.93-.945-1.29-.945-.18,0-.435.075-.435.21,0,.06.3.585.345.705A3.656,3.656,0,0,1,55.98-7.7c0,.555-.015.69-.255.765a7.026,7.026,0,0,1-1.9.21c-.135,0-.765-.06-.915-.06-.135,0-.195.015-.195.21,0,.825,1.215,1.11,1.545,1.11.225,0,1.26-.465,1.515-.465s.27.15.27,1.41c0,2.85,0,4.05,4.29,4.05.345,0,1.71,0,1.71-.705a.781.781,0,0,0-.81-.645,4.734,4.734,0,0,0-.72.1,6.756,6.756,0,0,1-1.32.12c-2.1,0-2.37-.705-2.37-2.115,0-.045.03-1.41.045-1.905A1.206,1.206,0,0,1,57-6.225c.195-.33,2.91-.93,3.225-.93.225,0,.225.075.225.195a6.663,6.663,0,0,1-.435,1.71.54.54,0,0,1-.51.39c-.135,0-.81-.27-.975-.27-.03,0-.075,0-.075.03a1.8,1.8,0,0,0,.2.315,5.449,5.449,0,0,1,.285.66c.135.435.2.6.705.6.54,0,1.35-.765,1.635-2.985.09-.78.1-.81.975-.81.27,0,1.575.165,1.875.165s.735-.105.735-.495c0-.3-.225-.54-1.17-.81a8.08,8.08,0,0,0-1.08-.27c-.03,0-.12,0-.12.06a.123.123,0,0,0,.06.09c.27.255.3.285.3.375,0,.165-.135.18-.465.21-.12,0-.645.06-.7.06s-.165,0-.165-.075c0-.09.015-.2.12-1.2C61.65-9.345,61.86-10.035,61.86-10.065Z" transform="translate(-1.575 12.72)" fill="#fff"/>
</svg>
