<svg xmlns="http://www.w3.org/2000/svg" width="165.508" height="53.79" viewBox="0 0 165.508 53.79">
  <g id="グループ_26302" data-name="グループ 26302" transform="translate(-104.988 -465.38)">
    <path id="パス_38491" data-name="パス 38491" d="M-82.012-5.516c.056,2.016.056,3.556.084,4.2A7.239,7.239,0,0,0-77.056.42c3.3,0,6.216-2.1,6.216-5.4,0-2.268-1.372-3.752-3.3-5.18l-.84-.616c-1.456-1.092-2.52-2.1-2.52-3.7a3.052,3.052,0,0,1,3.052-3.192c2.408,0,3.136,2.016,3.36,4.06l.84-.084c.028-1.344,0-2.828.084-3.976-.224-.084-.672-.28-1.2-.476a8.994,8.994,0,0,0-2.772-.476c-3.36,0-5.74,2.1-5.74,5.068,0,2.324,1.792,3.892,3.164,4.956l.812.616c1.6,1.26,2.52,2.352,2.52,3.892a3.209,3.209,0,0,1-3.3,3.528c-3.052,0-4.228-2.968-4.508-5.04ZM-66,.336a1.708,1.708,0,0,0,1.708-1.82,1.453,1.453,0,0,0-1.428-1.568A1.738,1.738,0,0,0-67.452-1.2,1.451,1.451,0,0,0-66,.336Zm16.268-18.508h-7.308l-.2.784c2.3.2,2.492.364,2.1,2.436L-57.4-3.332c-.42,2.156-.588,2.38-2.744,2.548l-.2.784h7.364l.168-.784c-2.268-.168-2.464-.364-2.044-2.548l2.24-11.62c.42-2.072.56-2.24,2.716-2.436ZM-47.152.336a1.708,1.708,0,0,0,1.708-1.82,1.453,1.453,0,0,0-1.428-1.568A1.738,1.738,0,0,0-48.608-1.2,1.451,1.451,0,0,0-47.152.336Zm26.936-18.508h-6.356l-.224.784c2.044.112,2.548.42,2.436,1.736a43.312,43.312,0,0,1-.728,4.788l-1.26,6.692h-.084l-8.092-14h-4.228l-.2.784c1.484.084,2.016.252,2.352.84.336.616.448,1.064.14,2.6l-1.4,6.664c-.56,2.6-.868,3.864-1.176,4.816C-39.4-1.232-40.04-.868-41.5-.784l-.2.784h6.5l.168-.784c-1.96-.14-2.464-.448-2.38-1.736a36.085,36.085,0,0,1,.7-4.7l1.428-7.28h.084L-26.964.224h.952l2.1-11.088a47.538,47.538,0,0,1,1.092-4.76c.364-1.232.728-1.68,2.436-1.764ZM5.376-13.328c.112-1.932.252-3.556.336-4.424A15.651,15.651,0,0,0,.728-18.62c-6.972,0-11.9,4.592-11.9,11.032C-11.172-2.464-7.7.42-2.772.42A24.408,24.408,0,0,0,3.164-.644,6.848,6.848,0,0,1,3.3-2.828l.448-2.3c.392-2.1.532-2.212,2.072-2.436l.2-.756H-1.092l-.2.756c2.772.28,2.912.364,2.52,2.436L.7-2.548C.392-1.036-.7-.588-2.3-.588c-3.78,0-5.88-3-5.88-7.168,0-5.264,3.276-9.856,8.232-9.856,2.772,0,4.4,1.148,4.452,4.368ZM23.968-.5A3.371,3.371,0,0,1,22.12-1.82a20.923,20.923,0,0,1-1.736-2.968c-.644-1.288-1.372-3.024-1.652-3.752C21-9.324,23.1-11.032,23.1-13.86A3.858,3.858,0,0,0,21.364-17.3a7.425,7.425,0,0,0-4.032-.868H11.06l-.168.784c2.212.2,2.324.308,1.9,2.576L10.612-3.556C10.136-1.148,9.968-1.008,7.84-.784L7.644,0H14.9l.168-.784c-2.212-.2-2.408-.364-1.932-2.8l.784-4.368h1.092c.98,0,1.344.252,1.764,1.288.588,1.428,1.176,2.828,1.876,4.144.98,1.848,1.9,2.632,4.76,2.744h.336ZM14.112-8.876l1.316-6.86c.14-.728.28-1.064.5-1.232a2.054,2.054,0,0,1,1.232-.28c1.932,0,3.164,1.2,3.164,3.612a4.846,4.846,0,0,1-2.072,4.06,5.156,5.156,0,0,1-2.94.7ZM37.464-18.62c-5.88,0-10.22,5.236-10.22,11.088C27.244-2.772,30.3.42,34.72.42c5.992,0,10.248-5.04,10.248-11C44.968-15.288,41.972-18.62,37.464-18.62Zm-.2,1.008c3.472,0,4.76,2.968,4.76,6.664,0,4.648-2.6,10.36-7.084,10.36-3.3,0-4.788-2.884-4.788-6.608C30.156-12.18,33.04-17.612,37.268-17.612Zm30.716-.56H61.432l-.2.784c2.016.112,2.548.392,2.492,1.54A42.849,42.849,0,0,1,63-10.892l-.42,2.044C61.544-3.556,59.668-1.12,56.364-1.12c-2.744,0-4.732-1.9-3.78-6.888l1.288-6.832c.42-2.24.616-2.352,2.688-2.548l.168-.784h-7.14l-.2.784c2.212.2,2.352.364,1.932,2.548L50.008-7.868C49.364-4.4,49.98-2.3,51.268-1.092A6.31,6.31,0,0,0,55.636.42,7.2,7.2,0,0,0,60.48-1.428c1.848-1.736,2.688-4.284,3.248-7.2l.448-2.268c.5-2.548.84-3.976,1.12-4.928.336-1.064.672-1.484,2.492-1.568Zm3.024,0-.2.784c2.212.224,2.352.392,1.932,2.6L70.5-3.5c-.476,2.352-.672,2.492-2.8,2.716l-.2.784h7.644l.168-.784c-2.548-.224-2.744-.392-2.3-2.716l.84-4.4,1.9.588c.308,0,.672,0,1.036-.028,3.164-.224,6.692-2.156,6.692-6.1,0-3.192-2.156-4.732-6.02-4.732Zm4.34,2.492c.168-.9.364-1.2.672-1.344a2.658,2.658,0,0,1,1.176-.224c2.3,0,3.556,1.344,3.556,3.668a4.773,4.773,0,0,1-4.7,5.124A5.4,5.4,0,0,1,74.06-8.82Z" transform="translate(187 484)" fill="#80868b"/>
    <path id="パス_38494" data-name="パス 38494" d="M-44.28-9.945c.12.9-1.305,2.97-2.52,4.185a12.721,12.721,0,0,0-1.185,1.125c0,.045.03.09.1.09a4.584,4.584,0,0,0,1.44-.8A11.276,11.276,0,0,0-44.4-7.29c.63-.72.66-.75.945-.75.09,0,.5.045.585.045.36,0,2.43-.465,2.46-.465a.162.162,0,0,1,.165.165c0,.465-2.85,5.58-7.425,8.1-.465.255-.51.285-.51.345a.134.134,0,0,0,.135.135,10.261,10.261,0,0,0,2.985-1.44A18.342,18.342,0,0,0-39.69-6.8c.525-.81.585-.9.75-1,.495-.3.6-.36.6-.57a.544.544,0,0,0-.285-.375c-.075-.045-.465-.255-.555-.3-.615-.36-.69-.4-.825-.4a2.8,2.8,0,0,0-.705.24,8.49,8.49,0,0,1-2.28.6c-.06,0-.24,0-.24-.12,0-.075.045-.135.12-.24.3-.375.45-.57.45-.75a1.4,1.4,0,0,0-1.4-.84c-.12,0-.33,0-.33.15C-44.385-10.35-44.295-10.02-44.28-9.945Zm5.73-2.535c-.15,0-.54.09-.54.21,0,.045.045.12.195.165a3.517,3.517,0,0,1,1.38.735c.33.345.48.495.795.495a.406.406,0,0,0,.375-.435c0-.15,0-.495-.615-.855A2.767,2.767,0,0,0-38.55-12.48Zm-1.035,1.29c-.135,0-.255.075-.255.135s.15.165.225.21a4.737,4.737,0,0,1,1.065.885c.465.555.585.645.795.645.255,0,.435-.33.435-.585C-37.32-10.08-37.665-11.19-39.585-11.19ZM-27.33-7.68c0-.765-1.59-1.275-1.695-1.275-.06,0-.075.03-.075.075a1.113,1.113,0,0,0,.06.27,3.29,3.29,0,0,1,.255,1.29,7.944,7.944,0,0,1-1.815,4.4,4.248,4.248,0,0,0-.6.795.07.07,0,0,0,.075.075A5.223,5.223,0,0,0-28.35-4.9C-28.1-5.475-27.33-7.635-27.33-7.68Zm2.64,5.4c.1-.015.24-.12.5-.405a8.335,8.335,0,0,1,1.035-.96,12.6,12.6,0,0,0,3.5-4.29.065.065,0,0,0-.06-.06c-.06,0-1.335,1.35-1.59,1.605-1.44,1.455-2.82,2.445-3.27,2.445-.27,0-.285-.3-.285-.495,0-.495.06-2.31.12-2.715.03-.165.24-.945.24-1.125,0-.78-1.575-1.05-1.65-1.05-.03,0-.09.015-.09.075a3.9,3.9,0,0,0,.195.54,9.2,9.2,0,0,1,.285,2.82c0,.375-.015,1.56-.06,1.845-.015.075-.09.465-.09.54C-25.92-3.09-25.125-2.2-24.69-2.28Zm12.735-3.765a8.169,8.169,0,0,1-1.83-.135c-.075-.015-.435-.18-.51-.18s-.12.09-.12.18c0,.51.69,1.44,1.335,1.44.18,0,.99-.24,1.17-.27.36-.075,3.8-.27,5.865-.27.3,0,1.8.03,2.145.03.63,0,1.245-.045,1.245-.465,0-.105-.135-.66-1.05-.66-.075,0-.24.015-.33.015C-6.225-6.24-11.46-6.045-11.955-6.045ZM14.16-11.7a1.425,1.425,0,0,0-1.47,1.425A1.474,1.474,0,0,0,14.145-8.82a1.463,1.463,0,0,0,1.44-1.455A1.4,1.4,0,0,0,14.16-11.7Zm-.03.51a1,1,0,0,1,.96.945.925.925,0,0,1-.93.915.931.931,0,0,1-.975-.9A.965.965,0,0,1,14.13-11.19ZM3.315-9.36c-.09,0-.135.045-.135.33,0,.825,1.2,1.575,1.545,1.575a5.44,5.44,0,0,0,.75-.33,49.219,49.219,0,0,1,5.4-1.08c.075,0,.33.015.33.27a8.475,8.475,0,0,1-1.02,2.535A19.523,19.523,0,0,1,4.26-.12c-.15.105-.195.135-.195.2a.1.1,0,0,0,.1.09,15.264,15.264,0,0,0,7.74-6.99,2.483,2.483,0,0,1,.585-.945c.27-.27.345-.345.345-.54s-.09-.375-.765-.975c-.465-.405-.7-.615-1.035-.615-.105,0-.165.03-.63.24a38.836,38.836,0,0,1-5.655.7A3.534,3.534,0,0,1,3.51-9.27C3.48-9.27,3.345-9.36,3.315-9.36Zm23.61,5.205c-.1,0-.36,0-.435-.18a4.048,4.048,0,0,1-.03-.945c0-1.08,0-1.2.27-1.365.135-.09.3-.21.3-.405,0-.12-.06-.2-.255-.255a9.052,9.052,0,0,0-1.6-.345c-.075,0-.195.015-.195.1a3.905,3.905,0,0,0,.24.51,8.5,8.5,0,0,1,.15,2.46c0,.42-.045,3.93-.075,4.035a.368.368,0,0,1-.4.285h-1.5c-.12,0-.36,0-.45-.18A11.664,11.664,0,0,1,22.89-1.74c0-.345,0-1.95.045-2.16a.433.433,0,0,1,.195-.285c.195-.15.285-.21.285-.36,0-.345-1.545-.585-1.575-.585a.154.154,0,0,0-.18.165c0,.105.15.6.165.7.015.33.03,1.95.03,2.34,0,1.5,0,1.665-.45,1.665-.15,0-1.245-.03-1.59-.045-.09-.015-.57-.06-.675-.06-.045,0-.06.015-.06.03a.191.191,0,0,0,.06.1l.3.345c.045.06.075.09.12.09s.27-.03.33-.03c.525-.045,1.545-.045,1.89-.045h9.645c.5,0,.81,0,.81-.195A4,4,0,0,0,30.93-1.14c-.165,0-.675.66-.81.78-.12.1-.195.1-.81.1H26.94c-.135,0-.345,0-.435-.18-.03-.075-.03-.885-.03-1.335,0-.21-.03-1.245-.03-1.485,0-.345.075-.51.48-.51h2.7c.705,0,.8,0,.8-.2a2.972,2.972,0,0,0-1.2-1.065c-.135,0-.18.06-.465.555-.195.315-.315.315-.93.315ZM25.77-11.22c.135,0,.255.18.3.27a11.879,11.879,0,0,0,5.3,5.205.251.251,0,0,0,.195-.105,2.145,2.145,0,0,1,.825-.72,4.855,4.855,0,0,0,.555-.27c0-.03-.255-.09-.33-.105a10.586,10.586,0,0,1-3.99-1.92,10.017,10.017,0,0,1-2.325-2.5c0-.06.135-.315.135-.375,0-.15-.135-.255-.42-.375a5.579,5.579,0,0,0-1.14-.42c-.105,0-.15.03-.2.315-.075.615-2.25,4.035-5.43,6.405-.045.03-.6.45-.6.465a.065.065,0,0,0,.06.06,16.561,16.561,0,0,0,6.555-5.4C25.575-11.16,25.62-11.22,25.77-11.22ZM48.675-3c.495,0,.8,0,.8-.21,0-.255-1.14-.99-1.29-.99-.18,0-.69.69-.825.75a2.87,2.87,0,0,1-.735.045H43.575c-.36,0-.36-.195-.36-.375,0-.69,0-.81.375-.81h3.285c.48,0,.75,0,.75-.24s-.9-.975-1.155-.975c-.165,0-.21.06-.645.57-.21.24-.285.24-.945.24H43.635c-.42,0-.42-.21-.42-.6,0-.585,0-.765.45-.765H47.85c.69,0,.765,0,.765-.2,0-.24-1.08-.99-1.14-.99-.15,0-.57.585-.675.675s-.195.105-.81.105H44.64c-.1,0-.285,0-.285-.135,0-.195.66-.8,1.005-.99.21-.1.27-.15.27-.255,0-.15-.06-.18-.555-.465-.3-.18-.33-.2-.33-.255s.1-.075.165-.075h3.435c.51,0,.81,0,.81-.21a3.978,3.978,0,0,0-1.29-.96c-.135,0-.57.57-.675.645-.15.12-.3.135-.87.135h-.735c-.06,0-.18-.015-.18-.09a6.832,6.832,0,0,1,1.29-.945,6.623,6.623,0,0,1,.615-.39c.315-.12.345-.12.345-.225,0-.285-1.11-.885-1.14-.885-.075,0-.09.03-.255.42-.24.555-1.32,2.115-1.59,2.115-.135,0-.15-.12-.15-.225-.015-.765-.03-.84-.03-1.695a.623.623,0,0,1,.165-.525c.135-.18.165-.21.165-.27,0-.135-.15-.24-.24-.27a6.2,6.2,0,0,0-1.035-.27c-.1,0-.15.09-.15.21a2.49,2.49,0,0,0,.045.33c.015.27.045,1.02.045,1.425,0,1.17,0,1.29-.435,1.29h-.54c-.42,0-.45,0-.45-2.01,0-.33.03-.45.135-.57a.531.531,0,0,0,.15-.24c0-.33-1.215-.42-1.245-.42-.09,0-.15,0-.15.18,0,.15.09.78.1.915.015.4.03,1.47.03,1.74,0,.135,0,.4-.33.4h-.45c-.045,0-.165,0-.165-.12a.315.315,0,0,1,.075-.21.786.786,0,0,0,.1-.375c0-.975-1.62-1.41-1.995-1.41-.09,0-.15.06-.15.1,0,0,.525.51.615.615a3.945,3.945,0,0,1,.6,1.215c0,.18-.09.18-.315.18-.855,0-1.635-.045-2.07-.06-.1,0-.555-.045-.66-.045-.015,0-.045,0-.045.03s0,.03.06.1l.3.345c.045.06.075.09.12.09.06,0,.27-.03.33-.03C37.4-8.925,38.4-8.94,39-8.94h.375c.285,0,.48.03.78.525a6.382,6.382,0,0,1,.615,1.53c0,.12-.09.12-.165.12H40.05c-.84,0-1.62-.03-2.055-.045-.1,0-.57-.06-.66-.06a.048.048,0,0,0-.045.045c0,.015,0,.015.06.09l.285.345c.06.075.09.105.135.105s.27-.03.315-.03c.525-.045,1.545-.045,1.905-.045h1.815c.39,0,.39.315.39.63,0,.555,0,.735-.435.735h-.945c-.675,0-1.635-.03-2.055-.045-.1,0-.57-.06-.66-.06-.03,0-.06.015-.06.045s0,.015.06.09l.3.36c.06.06.075.09.135.09s.36-.045.4-.045c.33-.03,1.245-.03,1.8-.03h1.08c.36,0,.375.18.375.345,0,.7,0,.84-.315.84H38.94c-.63,0-1.635-.03-2.07-.045-.1,0-.555-.06-.66-.06a.048.048,0,0,0-.045.045c0,.015,0,.015.06.09l.285.345c.06.075.09.105.135.105s.36-.045.4-.045C37.44-3,38.37-3,38.865-3h1.98c.1,0,.255,0,.255.15,0,.3-2.37,2.385-4.95,3.525-.015.015-.315.15-.315.195s.075.075.1.075a14.947,14.947,0,0,0,5.76-2.76,1.579,1.579,0,0,1,.36-.225c.12,0,.12.135.12.2,0,.39,0,.87-.015,1.26-.015.225-.09,1.35-.09,1.38,0,.33.15.375.33.375a.939.939,0,0,0,.675-.3c.15-.165.15-.285.15-.825,0-.315-.015-1.695-.015-1.98,0-.09-.015-.54-.015-.6s.015-.18.135-.18c.075,0,.09.03.435.45a9.717,9.717,0,0,0,4.125,3A4.306,4.306,0,0,0,48.63.99c.045,0,.15-.18.195-.285a1.435,1.435,0,0,1,.81-.75c.24-.06.315-.075.315-.165S49.9-.3,49.545-.345a10.821,10.821,0,0,1-5.085-1.98c-.48-.36-.54-.39-.54-.525,0-.15.165-.15.375-.15ZM43.98-8.94c.255,0,.315.045.315.2A5.082,5.082,0,0,1,44.01-7.38c-.165.5-.255.615-.69.615H41.655c-.06,0-.165,0-.165-.075a.283.283,0,0,1,.03-.12.9.9,0,0,0,.1-.39c0-.33-.195-.735-.915-1.26-.06-.03-.315-.21-.315-.255,0-.075.09-.075.12-.075Z" transform="translate(188 518)" fill="#80868b"/>
  </g>
</svg>
