<svg xmlns="http://www.w3.org/2000/svg" width="97.485" height="13.952" viewBox="0 0 97.485 13.952">
  <path id="パス_130449" data-name="パス 130449" d="M11.94-8.37a1.918,1.918,0,0,0-1.62.945c0,.045.015.06.06.06a.335.335,0,0,0,.15-.045,1.3,1.3,0,0,1,.585-.15c.51,0,1.26.21,1.26.81a.789.789,0,0,1-.06.27,1.034,1.034,0,0,0-.045.12.07.07,0,0,0,.075.075c.06,0,.375-.09.45-.105s.42.03.51.03c.315,0,.495-.4.495-.72C13.8-7.77,13.1-8.37,11.94-8.37ZM6.435-8.805c-.03.015-.06.045-.06.06,0,.03.075.18.075.21,0,.21-.42.375-.525.375s-.12-.1-.12-.165a8.013,8.013,0,0,1,.15-.975,6.046,6.046,0,0,0,.315-.78A1.5,1.5,0,0,0,4.725-11.1c-.09,0-.33.03-.33.165a1.5,1.5,0,0,0,.21.24,1.473,1.473,0,0,1,.495,1.2A11.217,11.217,0,0,1,4.95-7.86a6.552,6.552,0,0,1-1.905.45,4.358,4.358,0,0,1-.69-.075c-.045,0-.225-.06-.27-.06a.106.106,0,0,0-.12.105c0,.105.57,1.14,1.08,1.14A3.217,3.217,0,0,0,4.11-6.585,3.508,3.508,0,0,1,4.8-6.72c.165,0,.21.225.21.33.015.255.03,1.53.03,1.875,0,.42-.09.465-.855.84a3.206,3.206,0,0,1-1.56.51c-.09,0-.525-.075-.615-.075-.27,0-.435.315-.435.585,0,.5.765.945.93.945a2.963,2.963,0,0,0,.57-.3A1.251,1.251,0,0,1,3.45-2.1c.195,0,.27,0,.75.93.12.24.285.555.69.555.54,0,.765-.99.765-1.68,0-.15-.045-.825-.045-.99,0-.255.09-.3.93-.75A7.661,7.661,0,0,1,9.645-5.16a1.554,1.554,0,0,1,1.44,1.65c0,1.2-1.26,1.86-2.25,1.86-.15,0-.975,0-.975-.72a.62.62,0,0,1,.135-.4c.03-.045.06-.075.06-.12A.08.08,0,0,0,7.98-2.97a1.337,1.337,0,0,0-.75,1.185C7.23-1,7.92-.57,8.775-.57c1.23,0,3.315-.9,3.315-2.88A2.3,2.3,0,0,0,9.78-5.715a7.049,7.049,0,0,0-2.55.6c-.24.09-1.47.6-1.515.6-.135,0-.135-.18-.135-.27s0-1.29.03-1.62c.03-.525.045-.585.255-.66.36-.15,1.5-.6,1.5-1.1C7.365-8.625,6.645-8.835,6.435-8.805ZM4.95-3.105c.045.03.045.18.045.24,0,.735-.21,1.155-.42,1.155-.225,0-.63-.48-.63-.7S4.9-3.105,4.95-3.105Zm17.265-6.21c.225,0,.375,0,.405.21V-8.07c0,.33-.15.33-.405.33H20.22c-.225,0-.36,0-.405-.225v-1.02c0-.33.15-.33.405-.33Zm4.53-2.25a.96.96,0,0,1-.42-.1,1.973,1.973,0,0,0-.72-.27c-.135,0-.165.165-.165.24,0,.255.075,1.38.075,1.605,0,.465-.015,2.835-.015,2.955.015.45.255.48.375.48a.688.688,0,0,0,.69-.48c.06-.21.24-.21.45-.21H28.95c.33,0,.495,0,.495.435,0,.84-.03,4.545-.03,5.295,0,1.11,0,1.23-.615,1.23-.15,0-.75-.03-.885-.03-.1,0-.165.03-.165.075,0,.075.8.465.93.6a.8.8,0,0,1,.21.6c0,.075.12.135.2.135A2.072,2.072,0,0,0,30.03.51,1.81,1.81,0,0,0,30.405-.9c0-.435-.03-2.37-.03-2.76v-6.855a.621.621,0,0,1,.24-.57c.09-.075.18-.165.18-.255,0-.27-.87-.765-.99-.765-.1,0-.135.045-.435.39a.354.354,0,0,1-.36.15Zm-6.645,0a.715.715,0,0,1-.435-.1,2.054,2.054,0,0,0-.84-.345c-.06,0-.06.09-.06.15,0,.135.12,1.515.12,1.8,0,4.65-.015,5.22-.165,10.335,0,.045-.015.2-.015.27,0,.36.135.51.39.51a.859.859,0,0,0,.81-.975c0-.165-.045-.915-.045-1.065-.03-1.1-.045-4.53-.045-5.325,0-.93,0-1.035.48-1.035H22.11c.195,0,.42,0,.465.21s.09.45.42.45c.7,0,.7-.78.7-.975,0-.21-.06-2.085-.06-2.46,0-.54,0-.585.105-.69.045-.045.345-.225.345-.285,0-.27-.75-.93-.99-.93-.12,0-.21.09-.465.315a.413.413,0,0,1-.375.15Zm2.145.39c.33,0,.39.045.39.39v.87c-.03.195-.195.21-.39.21H20.2c-.255,0-.39-.015-.39-.33v-.84c0-.285.135-.3.39-.3ZM26.94-9.7c-.24,0-.36,0-.405-.15a3.666,3.666,0,0,1-.03-.885c0-.42.075-.435.435-.435h2.07c.24,0,.36,0,.4.135a3.866,3.866,0,0,1,.03.9c0,.42-.09.435-.435.435Zm0,1.95c-.3,0-.42,0-.42-.33V-8.97c0-.345.12-.345.42-.345h2.085c.3,0,.42,0,.42.345v.885c0,.33-.12.33-.42.33Zm-3.525,2.76a.916.916,0,0,1-.5-.135c-.75-.345-.8-.345-.885-.345-.06,0-.075.06-.075.12s.045.375.06.465c.045.4.03,1.29.03,1.665,0,.6-.03,1.005-.06,1.65-.015.135-.03.54-.03.645,0,.33.075.555.345.555a.869.869,0,0,0,.78-.75c.03-.42.03-.5.48-.5H25.47c.255,0,.48,0,.48.36,0,.18.06.42.3.42a1.12,1.12,0,0,0,.66-.39c.12-.15.135-.33.135-.7,0-.345-.03-1.845-.015-2.145a.418.418,0,0,1,.12-.285c.135-.135.225-.21.225-.3,0-.3-.75-.84-.915-.84s-.21.09-.42.36a.389.389,0,0,1-.375.15Zm.165,2.97c-.315,0-.525-.03-.525-.285V-4.125c0-.42.09-.465.525-.465H25.5c.24,0,.42,0,.495.18.03.09.045,1.065.045,1.245a6.442,6.442,0,0,1-.045.96c-.06.18-.27.18-.495.18Zm13.425-7.83c-.03,0-.09.015-.09.06a2.026,2.026,0,0,0,.12.51,4.167,4.167,0,0,1,.1.87c0,.39-.21,2.235-.21,2.655,0,2.865,1.89,4.44,2.85,4.44.255,0,.57-.165.57-.465a3.762,3.762,0,0,0-.12-.495,2.025,2.025,0,0,1-.09-.6,4.209,4.209,0,0,1,.195-1.14,1.8,1.8,0,0,0,.045-.3c0-.06-.03-.12-.075-.12-.12,0-.375.36-.465.51-.45.75-.51.825-.765.825-.465,0-1.245-1.095-1.245-2.61a5.3,5.3,0,0,1,.36-1.935,2.055,2.055,0,0,0,.18-.6C38.37-8.655,37.695-9.855,37.005-9.855Zm7.155,1.38c-.075,0-.135.03-.135.075,0,.09.6.555.72.675.795.795.795,1.425.795,2.67,0,.2,0,1.005.735,1.005s.75-.7.75-.99A3.733,3.733,0,0,0,45.69-7.905,2.919,2.919,0,0,0,44.16-8.475Zm12.03,4.23a1.363,1.363,0,0,1-.615-.09,7.653,7.653,0,0,0-.9-.405c-.135,0-.135.12-.135.165,0,.06.075.405.075.465.045.27.03,1.14.03,1.455,0,.54-.135,3.3-.135,3.39a.352.352,0,0,0,.39.39,1.386,1.386,0,0,0,.8-.3c.1-.1.1-.15.1-.555s.3-.4.45-.4h4.53c.39,0,.39.165.39.795,0,.105,0,.39.33.39.21,0,.96-.195.96-.6s-.09-2.5-.09-2.97c0-.225.015-.9.165-1.035s.195-.18.195-.315c0-.255-.885-.945-.975-.945s-.495.435-.585.51a.646.646,0,0,1-.33.06Zm.045,3.72c-.435,0-.45-.27-.45-.465,0-.345.015-2.025.015-2.4,0-.225.03-.465.465-.465h4.56c.42,0,.42.285.42.465,0,.345-.015,2.025-.015,2.4,0,.18,0,.465-.435.465Zm1.53-12.3c-.045.03-.285.825-.36.975a19.281,19.281,0,0,1-3.66,5.025c-.27.27-1.725,1.56-1.725,1.635,0,.045.045.09.12.09.39,0,3.825-2.25,6.3-5.835.3-.435.33-.48.405-.48s.3.48.39.675a11.415,11.415,0,0,0,2.82,3.96A6.019,6.019,0,0,0,64.23-5.13c.06,0,.135-.075.2-.135a1.938,1.938,0,0,1,.945-.42c.465-.105.525-.12.525-.255,0-.105,0-.105-.48-.285a12.338,12.338,0,0,1-3.78-2.31,10.571,10.571,0,0,1-2.34-3.15.136.136,0,0,1,.06-.12c.12-.09.165-.105.165-.195a.115.115,0,0,0-.03-.075A6.847,6.847,0,0,0,57.765-12.825Zm.33,6.24c-.705,0-1.335,0-2.07-.045-.09,0-.555-.06-.66-.06-.03,0-.045.015-.045.03s0,.045.06.1l.285.345c.06.06.09.09.135.09s.27-.03.315-.03c.435-.03.84-.045,1.905-.045h2.82c.45,0,.81,0,.81-.18a5.71,5.71,0,0,0-1.365-1.08c-.135,0-.6.63-.72.735-.165.135-.345.135-.885.135ZM74.28-9.12c0-.165.045-.63.075-.87.03-.2.225-1.14.225-1.365,0-.495-1.02-1.11-1.425-1.11-.15,0-.51.075-.51.195,0,.06.03.09.285.39a2.839,2.839,0,0,1,.6,2.115A4.945,4.945,0,0,1,73.4-8.49a5,5,0,0,1-.39.36c-1.005.93-1.1.945-1.35.99-.615.09-1.02.15-1.02.66,0,.27.045.33.525.93a2.628,2.628,0,0,1,.585,1.155A11.341,11.341,0,0,1,71-2.94c-.375.63-.45.765-.45,1.02,0,.3.18.42.36.42.54,0,.855-.615,1.08-1.05.12-.24.315-.615.39-.615.36,0,.45,1.425.48,1.74.06.915.1,1.455.525,1.455a.915.915,0,0,0,.66-.87c0-.09-.06-.585-.075-.7-.06-.8-.075-2.7-.075-3.03,0-1.02.09-1.275.285-1.5a6.053,6.053,0,0,1,3.93-1.545A2.169,2.169,0,0,1,80.37-5.295c0,2.235-2.175,3.885-2.925,4.395-.165.12-1.11.645-1.11.69,0,.03.03.03.06.03.345,0,5.145-1.17,5.145-4.77a3.1,3.1,0,0,0-3.4-3.15,6.238,6.238,0,0,0-3.03.87,3,3,0,0,1-.435.225.069.069,0,0,1-.06-.075.833.833,0,0,1,.105-.285,1.647,1.647,0,0,0,.21-.72c0-.105,0-.345-.39-.585C74.295-8.82,74.28-8.835,74.28-9.12Zm-1,1.71c.06.015.06.09.06.21,0,.54,0,.57-.93,1.935-.165.24-.21.315-.3.315-.165,0-.705-.96-.705-1.17s.15-.21.63-.24a.9.9,0,0,0,.645-.525C72.93-7.32,73.185-7.425,73.275-7.41ZM73.17-4.77c.045,0,.075.03.075.09,0,.69,0,1.5-.18,1.5-.135,0-.435-.39-.435-.585A2.3,2.3,0,0,1,73.17-4.77Zm22.89-5.3a1.214,1.214,0,0,0-1.275-1.05c-.075,0-.33.015-.33.165,0,.03.27.54.285.555a2.21,2.21,0,0,1,.18,1.035c0,.2-.03.915-.075,1.215s-.165.33-1.1.48c-.39.06-2.28.48-2.385.48-.195,0-.195-.12-.195-.435a8.276,8.276,0,0,1,.075-1.155,3.069,3.069,0,0,0,.075-.465c0-.525-.93-.945-1.29-.945-.18,0-.435.075-.435.21,0,.06.3.585.345.705A3.656,3.656,0,0,1,90.18-7.7c0,.555-.015.69-.255.765a7.026,7.026,0,0,1-1.905.21c-.135,0-.765-.06-.915-.06s-.195.015-.195.21c0,.825,1.215,1.11,1.545,1.11.225,0,1.26-.465,1.515-.465s.27.15.27,1.41c0,2.85,0,4.05,4.29,4.05.345,0,1.71,0,1.71-.705a.781.781,0,0,0-.81-.645,4.734,4.734,0,0,0-.72.1,6.756,6.756,0,0,1-1.32.12c-2.1,0-2.37-.705-2.37-2.115,0-.045.03-1.41.045-1.905a1.206,1.206,0,0,1,.135-.615c.195-.33,2.91-.93,3.225-.93.225,0,.225.075.225.195a6.662,6.662,0,0,1-.435,1.71.54.54,0,0,1-.51.39c-.135,0-.81-.27-.975-.27-.03,0-.075,0-.075.03a1.8,1.8,0,0,0,.195.315,5.449,5.449,0,0,1,.285.66c.135.435.195.6.7.6.54,0,1.35-.765,1.635-2.985.09-.78.105-.81.975-.81.27,0,1.575.165,1.875.165s.735-.105.735-.495c0-.3-.225-.54-1.17-.81a8.079,8.079,0,0,0-1.08-.27c-.03,0-.12,0-.12.06a.123.123,0,0,0,.06.09c.27.255.3.285.3.375,0,.165-.135.18-.465.21-.12,0-.645.06-.705.06-.045,0-.165,0-.165-.075,0-.09.015-.2.12-1.2C95.85-9.345,96.06-10.035,96.06-10.065Z" transform="translate(-1.575 12.827)" fill="#fff"/>
</svg>
