<svg xmlns="http://www.w3.org/2000/svg" xmlns:xlink="http://www.w3.org/1999/xlink" width="330.524" height="50.59" viewBox="0 0 330.524 50.59">
  <defs>
    <clipPath id="clip-path">
      <rect id="長方形_8646" data-name="長方形 8646" width="330.524" height="50.59" fill="none"/>
    </clipPath>
  </defs>
  <g id="グループ_12589" data-name="グループ 12589" transform="translate(0 -0.001)">
    <g id="グループ_12589-2" data-name="グループ 12589" transform="translate(0 0.001)" clip-path="url(#clip-path)">
      <path id="パス_28988" data-name="パス 28988" d="M59.586,6.232c-.363-1.274-.951-2.709-2.67-2.709a2.094,2.094,0,0,0-2.2,2.185c0,1.414.932,2.1,2.569,2.929,1.677.85,3.5,1.822,3.5,4.044,0,2.164-1.82,3.883-4.569,3.883a6.405,6.405,0,0,1-1.981-.3,7.307,7.307,0,0,1-1.051-.424,25,25,0,0,1-.546-3.194l.628-.162c.323,1.253,1.271,3.337,3.335,3.337a2.2,2.2,0,0,0,2.365-2.368c0-1.436-1.07-2.161-2.588-2.972-1.436-.747-3.377-1.78-3.377-4,0-1.981,1.6-3.66,4.248-3.66A8.322,8.322,0,0,1,59.83,3.3c.079.728.2,1.536.363,2.81Z" transform="translate(86.764 4.639)" fill="#fff"/>
      <path id="パス_28989" data-name="パス 28989" d="M57.482,8.272a1.193,1.193,0,1,1,2.386,0,1.194,1.194,0,1,1-2.386,0" transform="translate(94.761 11.636)" fill="#fff"/>
      <path id="パス_28990" data-name="パス 28990" d="M60.18,16.071v-.585c1.618-.122,1.8-.244,1.8-1.963V5.5c0-1.719-.18-1.841-1.8-1.984V2.929h5.48v.585c-1.618.143-1.8.265-1.8,1.984v8.025c0,1.719.183,1.841,1.8,1.963v.585Z" transform="translate(99.209 4.827)" fill="#fff"/>
      <path id="パス_28991" data-name="パス 28991" d="M64.037,8.272a1.193,1.193,0,1,1,2.386,0,1.194,1.194,0,1,1-2.386,0" transform="translate(105.567 11.636)" fill="#fff"/>
      <path id="パス_28992" data-name="パス 28992" d="M80.762,3.514c-1.131.061-1.6.323-1.7,1.213a33.96,33.96,0,0,0-.122,3.4v8.128h-.689L69.683,5.758h-.04v4.974a34,34,0,0,0,.119,3.4c.1.991.546,1.274,1.941,1.353v.588H66.892v-.588c1.152-.079,1.658-.344,1.761-1.314a34.117,34.117,0,0,0,.14-3.438V6.324c0-1.436-.04-1.576-.424-2.063a2.148,2.148,0,0,0-1.78-.747V2.929h3.133l8.311,9.906h.058V8.123a30.69,30.69,0,0,0-.14-3.356c-.1-.887-.567-1.171-2-1.253V2.929h4.812Z" transform="translate(109.776 4.827)" fill="#fff"/>
      <path id="パス_28993" data-name="パス 28993" d="M89.844,3.514c-1.637.14-1.8.241-1.8,1.941v8.086c0,1.7.162,1.8,1.8,1.941v.588H84.285v-.588c1.7-.14,1.859-.241,1.859-1.941V9.561H79.513v3.981c0,1.7.162,1.8,1.78,1.941v.588h-5.44v-.588c1.6-.14,1.761-.241,1.761-1.941V5.456c0-1.7-.164-1.8-1.82-1.941V2.929h5.4v.585c-1.518.14-1.679.241-1.679,1.941V8.671h6.632V5.456c0-1.679-.162-1.8-1.719-1.941V2.929h5.419Z" transform="translate(124.949 4.827)" fill="#fff"/>
      <path id="パス_28994" data-name="パス 28994" d="M96.629,9.525a6.648,6.648,0,0,1-6.793,7.037A6.565,6.565,0,0,1,83.2,9.809a6.762,6.762,0,0,1,6.857-6.995,6.514,6.514,0,0,1,6.571,6.711M85.468,9.284c0,3.721,1.981,6.531,4.791,6.531,2.185,0,4.105-1.88,4.105-5.742,0-4.227-2.1-6.513-4.712-6.513-2.2,0-4.185,1.984-4.185,5.723" transform="translate(137.16 4.638)" fill="#fff"/>
      <path id="パス_28995" data-name="パス 28995" d="M100.367,12.856c-.122.667-.546,2.609-.728,3.215h-9.28v-.588c1.7-.119,1.88-.262,1.88-1.981V5.477c0-1.719-.14-1.822-1.777-1.963V2.929H95.9v.585c-1.576.122-1.78.222-1.78,1.963v7.964c0,1.073.1,1.457.487,1.658a4.189,4.189,0,0,0,1.859.244c1.07,0,1.759-.1,2.225-.628a5.822,5.822,0,0,0,1.049-2Z" transform="translate(148.959 4.827)" fill="#fff"/>
      <path id="パス_28996" data-name="パス 28996" d="M101.98,2.929c2.569,0,4.468.527,5.742,1.74a5.884,5.884,0,0,1,1.719,4.325,6.478,6.478,0,0,1-2.487,5.4,9.791,9.791,0,0,1-6.047,1.677H96.055v-.585c1.719-.122,1.88-.244,1.88-1.963V5.477c0-1.719-.162-1.82-1.7-1.941V2.929ZM99.837,13.383c0,1.515.606,1.92,2.061,1.92,3.6,0,5.379-2.688,5.379-6a5.341,5.341,0,0,0-2.243-4.751,5.791,5.791,0,0,0-3.4-.911A3.006,3.006,0,0,0,100.1,3.9c-.183.14-.262.384-.262,1.152Z" transform="translate(158.35 4.827)" fill="#fff"/>
      <path id="パス_28997" data-name="パス 28997" d="M103.235,16.071v-.585c1.618-.122,1.8-.244,1.8-1.963V5.5c0-1.719-.18-1.841-1.8-1.984V2.929h5.48v.585c-1.618.143-1.8.265-1.8,1.984v8.025c0,1.719.183,1.841,1.8,1.963v.585Z" transform="translate(170.187 4.827)" fill="#fff"/>
      <path id="パス_28998" data-name="パス 28998" d="M121.486,3.514c-1.131.061-1.6.323-1.7,1.213a33.964,33.964,0,0,0-.122,3.4v8.128h-.689L110.407,5.758h-.04v4.974a34,34,0,0,0,.119,3.4c.1.991.546,1.274,1.941,1.353v.588h-4.812v-.588c1.152-.079,1.658-.344,1.761-1.314a34.12,34.12,0,0,0,.14-3.438V6.324c0-1.436-.04-1.576-.424-2.063a2.148,2.148,0,0,0-1.78-.747V2.929h3.133l8.311,9.906h.058V8.123a30.7,30.7,0,0,0-.14-3.356c-.1-.887-.567-1.171-2-1.253V2.929h4.812Z" transform="translate(176.911 4.827)" fill="#fff"/>
      <path id="パス_28999" data-name="パス 28999" d="M127.834,10.72c-1.173.183-1.274.283-1.274,1.5v1.7a9.052,9.052,0,0,0,.143,1.9,19.692,19.692,0,0,1-4.532.747c-4.508,0-7.479-2.749-7.479-6.772,0-4.669,3.761-6.976,7.763-6.976a17.021,17.021,0,0,1,3.9.588c.061.686.162,1.8.323,3.194l-.607.122a3.55,3.55,0,0,0-3.944-3.154c-2.95,0-5.2,2.264-5.2,5.965,0,2.95,1.679,6.309,5.48,6.309a3.56,3.56,0,0,0,1.637-.344c.387-.2.607-.487.607-1.274V12.46c0-1.457-.119-1.579-2.122-1.74v-.585h5.3Z" transform="translate(189.074 4.638)" fill="#fff"/>
      <path id="パス_29000" data-name="パス 29000" d="M128.673,6.232c-.363-1.274-.951-2.709-2.67-2.709a2.091,2.091,0,0,0-2.2,2.185c0,1.414.93,2.1,2.566,2.929,1.677.85,3.5,1.822,3.5,4.044,0,2.164-1.82,3.883-4.569,3.883a6.405,6.405,0,0,1-1.981-.3,7.307,7.307,0,0,1-1.051-.424,25,25,0,0,1-.546-3.194l.628-.162c.323,1.253,1.274,3.337,3.337,3.337a2.2,2.2,0,0,0,2.363-2.368c0-1.436-1.07-2.161-2.585-2.972-1.436-.747-3.38-1.78-3.38-4,0-1.981,1.6-3.66,4.248-3.66a8.355,8.355,0,0,1,2.59.485c.077.728.2,1.536.36,2.81Z" transform="translate(200.657 4.639)" fill="#fff"/>
      <path id="パス_29001" data-name="パス 29001" d="M54.194,14.357a4.1,4.1,0,0,0,.882.106,12.206,12.206,0,0,0,2.622-.421c.1-.021.493-.22.585-.22.326,0,1.03.22,1.03.535,0,.2-.294.209-.546.22s-1.311.159-1.531.177c-.042,0-.159.024-.159.117a.246.246,0,0,0,.1.156c.252.265.283.294.283.379,0,.064-.074.336-.085.387-.042.421-.117.967-.177,1.449,0,.053-.011.1-.011.117,0,.156.072.2.313.2.212,0,1.534-.1,1.817-.106.124-.011.659-.074.776-.074.283,0,1.038.474,1.038.776,0,.191-.358.222-.389.222-.085,0-.535-.127-.659-.159a4.3,4.3,0,0,0-1.271-.135,18.693,18.693,0,0,0-4.54.535c-.1.021-.482.177-.567.177-.042,0-1.07-.45-1.07-.964a.067.067,0,0,1,.074-.074,2.575,2.575,0,0,1,.3.064,4.961,4.961,0,0,0,.911.093,23.216,23.216,0,0,0,2.508-.291c.209-.1.209-.683.209-1.208,0-1.237-.085-1.51-.379-1.51-.22,0-1.311.315-1.351.315a1.812,1.812,0,0,1-.683-.471c-.1-.148-.22-.379-.177-.421a.362.362,0,0,1,.146.032" transform="translate(86.764 22.785)" fill="#fff"/>
      <path id="パス_29002" data-name="パス 29002" d="M61.54,14.5c-.074,0-2.275.514-2.328.535a4.718,4.718,0,0,1-.471.2,2.226,2.226,0,0,1-.715-.376,2.2,2.2,0,0,1-.252-.609c0-.053.011-.085.064-.085.011,0,.241.064.273.074a1.851,1.851,0,0,0,.556.106,14.546,14.546,0,0,0,2.874-.389,3.974,3.974,0,0,1,.577-.326c.252,0,.89.535.89.8,0,.093-.387.376-.45.45-.209.252-1.038,1.478-1.205,1.719a.347.347,0,0,0-.085.209c0,.1.021.117.461.358.474.273,2.349,1.332,2.349,2.286a.454.454,0,0,1-.429.463c-.241,0-.283-.074-.652-.726a4.813,4.813,0,0,0-1.875-2.066c-.106,0-.138.032-.368.294a10.547,10.547,0,0,1-2.8,2.243,2.512,2.512,0,0,1-.652.241c-.021,0-.074,0-.074-.061a3.233,3.233,0,0,1,.485-.389,11.43,11.43,0,0,0,3.952-4.865.115.115,0,0,0-.124-.085" transform="translate(94.342 22.463)" fill="#fff"/>
      <path id="パス_29003" data-name="パス 29003" d="M61.868,14.309a4.512,4.512,0,0,0,.662.042,31.071,31.071,0,0,0,4.341-.609A3.584,3.584,0,0,1,67.3,13.5a2.778,2.778,0,0,1,1.24,1.364c0,.074,0,.188-.368.273a7.387,7.387,0,0,0-2.193.953,6.04,6.04,0,0,0-.535,1.343A5.727,5.727,0,0,1,62.8,20.676a2.769,2.769,0,0,1-.726.3c-.042,0-.061-.021-.061-.053s.019-.053.209-.2A7.233,7.233,0,0,0,64.1,18.777a4.8,4.8,0,0,0,.784-2.3,1.365,1.365,0,0,0-.135-.62c-.085-.167-.1-.188-.1-.23,0-.085.159-.1.22-.1a1.563,1.563,0,0,1,.567.1,3.1,3.1,0,0,0,.411.135,2.844,2.844,0,0,0,1.3-1.279c0-.072-.064-.156-.2-.156a18.5,18.5,0,0,0-3.745.649,7.934,7.934,0,0,1-.882.3c-.252,0-1.07-.67-1.07-1.038,0-.021.021-.04.074-.04.032,0,.45.093.535.1" transform="translate(100.988 22.256)" fill="#fff"/>
      <path id="パス_29004" data-name="パス 29004" d="M69.219,16.172c.408.252.45.294.45.387,0,.064-.114.358-.125.421a10.011,10.011,0,0,0-.064,1.857c0,.283.011.848.032,1.258.011.124.074.734.074.871,0,.1,0,.461-.252.461-.294,0-.652-.453-.652-.734,0-.106.106-.567.114-.673.064-.567.106-1.375.106-1.928,0-.379,0-1.481-.273-1.481-.053,0-.1.042-.177.127a11.489,11.489,0,0,1-2.98,2c-.032,0-.053-.021-.053-.064a.091.091,0,0,1,.032-.072c.273-.244.567-.485.734-.63,2.476-2.119,3.295-3.9,3.295-4.2a.589.589,0,0,0-.085-.294,1.152,1.152,0,0,1-.074-.167.1.1,0,0,1,.106-.085c.159,0,1.218.44,1.218.84a.266.266,0,0,1-.1.209,3.006,3.006,0,0,0-.715.861c-.177.252-.514.628-.712.879a.171.171,0,0,0,.1.148" transform="translate(107.849 21.817)" fill="#fff"/>
      <path id="パス_29005" data-name="パス 29005" d="M70.548,14.357a4.1,4.1,0,0,0,.882.106,12.23,12.23,0,0,0,2.622-.421c.1-.021.493-.22.585-.22.326,0,1.03.22,1.03.535,0,.2-.294.209-.546.22s-1.311.159-1.531.177c-.042,0-.159.024-.159.117a.246.246,0,0,0,.1.156c.252.265.283.294.283.379,0,.064-.074.336-.085.387-.042.421-.117.967-.177,1.449,0,.053-.011.1-.011.117,0,.156.072.2.313.2.212,0,1.534-.1,1.817-.106.124-.011.659-.074.776-.074.283,0,1.038.474,1.038.776,0,.191-.358.222-.389.222-.085,0-.535-.127-.659-.159a4.3,4.3,0,0,0-1.271-.135,18.693,18.693,0,0,0-4.54.535c-.1.021-.482.177-.567.177-.042,0-1.07-.45-1.07-.964a.067.067,0,0,1,.074-.074,2.576,2.576,0,0,1,.3.064,4.961,4.961,0,0,0,.911.093,23.216,23.216,0,0,0,2.508-.291c.209-.1.209-.683.209-1.208,0-1.237-.085-1.51-.379-1.51-.22,0-1.311.315-1.351.315a1.812,1.812,0,0,1-.683-.471c-.1-.148-.22-.379-.177-.421a.362.362,0,0,1,.146.032" transform="translate(113.724 22.785)" fill="#fff"/>
      <path id="パス_29006" data-name="パス 29006" d="M75.707,16.339c0-.021,0-.085.146-.085a4.294,4.294,0,0,1,.935.17,5.628,5.628,0,0,0,.649.2c.241,0,.514-.44.765-.85a3.854,3.854,0,0,0,.5-1.142c0-.1-.05-.148-.135-.148-.064,0-1.835.421-2.235.567a4.367,4.367,0,0,1-.532.22,1.091,1.091,0,0,1-.757-.535,2.072,2.072,0,0,1-.252-.546c0-.032.021-.072.053-.072s.294.114.326.124a1.316,1.316,0,0,0,.535.135A20.525,20.525,0,0,0,78.8,13.8c.252-.2.273-.222.368-.222a2.567,2.567,0,0,1,.837.506.349.349,0,0,1,.127.273c0,.167-.032.188-.336.376-.209.138-.273.23-.818,1.091a8.955,8.955,0,0,0-.649,1.028c0,.1.053.117.524.358.588.294,1.594.953,1.594,1.52a.288.288,0,0,1-.283.326c-.336,0-.442-.1-1.353-.977-.188-.177-.7-.607-.914-.607a.522.522,0,0,0-.355.209,9.662,9.662,0,0,1-3.954,2.548.057.057,0,0,1-.053-.053,4.121,4.121,0,0,1,.609-.461A17.806,17.806,0,0,0,76.986,17.4c.074-.085.177-.188.156-.3-.04-.23-1.436-.607-1.436-.755" transform="translate(121.225 22.384)" fill="#fff"/>
      <path id="パス_29007" data-name="パス 29007" d="M77.653,19.017c0-.2.1-.3.4-.493a9.726,9.726,0,0,0,1.028-.808c.053-.053.167-.159.209-.159s.053.1.053.127c0,.493-.493,1.761-1.184,1.761a.517.517,0,0,1-.2-.042.423.423,0,0,1-.3-.387m4.113.691c0,.156,0,.85-.556.85-.23,0-.252-.064-.471-.673a3.089,3.089,0,0,0-.389-.744c-.042-.074-.064-.093-.064-.124a.039.039,0,0,1,.042-.042c.074,0,.421.135.493.135.138,0,.191-.114.212-.283.05-.493.05-1.541.05-2.108,0-.5-.019-.691-.3-.691-.061,0-1.319.177-1.939.336a3.177,3.177,0,0,1-.418.114c-.233,0-.755-.712-.755-.922,0-.053.008-.1.072-.1.042,0,.064.011.2.064a3.158,3.158,0,0,0,.935.1c.241,0,1.375-.061,1.687-.072.4-.021.506-.1.506-.442a3.788,3.788,0,0,0-.222-1.34c-.021-.053-.2-.22-.2-.273,0-.032.117-.106.358-.106.723,0,.985.461.985.546a2.2,2.2,0,0,1-.188.347,2.59,2.59,0,0,0-.1.808c0,.323.135.376.408.376a10.117,10.117,0,0,0,1.02-.1c.135-.021.691-.159.805-.159a2.224,2.224,0,0,1,1.02.358c.114.074.262.156.262.334,0,.2-.233.212-.273.212-.159,0-.84-.117-.988-.138-.4-.042-1.163-.053-1.247-.053-.9,0-1,0-1,.6,0,.5.053,2.739.053,3.189m2.527-.755a3.7,3.7,0,0,0-.85-1.29,2.57,2.57,0,0,1-.418-.44c0-.053.053-.053.074-.053.554,0,2.243,1.017,2.243,1.9,0,.244-.124.588-.471.577-.294,0-.389-.241-.577-.691" transform="translate(128.014 22.079)" fill="#fff"/>
      <path id="パス_29008" data-name="パス 29008" d="M87.579,14.573c.064,0,.177-.011.23-.011.641,0,.734.389.734.461,0,.294-.429.326-.869.326-.244,0-1.292-.021-1.5-.021a16.956,16.956,0,0,0-2.733.188c-.124.021-.691.191-.816.191-.453,0-.935-.652-.935-1.006,0-.064.032-.127.085-.127s.3.117.355.127a5.922,5.922,0,0,0,1.282.093c.344,0,2.638-.135,4.169-.22" transform="translate(134.667 24.005)" fill="#fff"/>
      <path id="パス_29009" data-name="パス 29009" d="M87.09,16.875a3.642,3.642,0,0,1-1.939,1.992.049.049,0,0,1-.053-.053,3.143,3.143,0,0,1,.418-.556,5.554,5.554,0,0,0,1.271-3.072,2.273,2.273,0,0,0-.18-.9.767.767,0,0,1-.04-.191c0-.032.008-.053.05-.053.074,0,1.187.358,1.187.893,0,.032-.535,1.541-.715,1.941m1.7.975c0-.053.053-.326.064-.379.032-.2.042-1.028.042-1.29a6.361,6.361,0,0,0-.2-1.971,2.7,2.7,0,0,1-.135-.379c0-.042.042-.05.064-.05.05,0,1.152.188,1.152.734,0,.124-.146.67-.167.787-.042.281-.085,1.552-.085,1.9,0,.138.011.347.2.347a6.252,6.252,0,0,0,2.286-1.708c.177-.18,1.07-1.123,1.112-1.123a.045.045,0,0,1,.04.042,8.762,8.762,0,0,1-2.442,3,5.412,5.412,0,0,0-.723.673c-.18.2-.273.273-.347.283-.3.05-.861-.567-.861-.861" transform="translate(140.287 22.719)" fill="#fff"/>
      <path id="パス_29010" data-name="パス 29010" d="M93.805,17.225c0,.074-.252.273-.283.326s-.429,1.006-.524,1.187a5.2,5.2,0,0,1-2.778,2.694c-.042,0-.064-.021-.064-.05a6.62,6.62,0,0,1,.556-.524A7.085,7.085,0,0,0,92.767,16.9c0-.127-.021-.315-.252-.315a12.819,12.819,0,0,0-1.669.315,6.982,6.982,0,0,1-.755.188.919.919,0,0,1-.829-.8c0-.064.021-.106.074-.106a1.015,1.015,0,0,1,.159.053,3.057,3.057,0,0,0,.659.074c.673,0,3.387-.294,4.121-.4.127-.024.673-.191.787-.191s1.322.23,1.322.662c0,.188-.167.252-.3.252-.114,0-.628-.085-.734-.1-.22-.021-.514-.053-.744-.053a8.936,8.936,0,0,0-1.059.032.126.126,0,0,0-.074.156,3.337,3.337,0,0,1,.336.546m-2.328-3.083a6.483,6.483,0,0,0,1.488-.262,4.444,4.444,0,0,1,.84-.124c.22,0,.6.042.6.344s-.177.326-.8.389c-.535.064-1.237.2-1.4.23-.053.011-.461.1-.493.1-.514,0-.84-.736-.787-.755,0,0,.461.082.546.082m5.623,1.1c0,.156-.127.4-.315.4-.148,0-.241-.085-.535-.485a3.038,3.038,0,0,0-.715-.649c-.04-.032-.146-.127-.146-.17s.1-.082.177-.082c.946,0,1.534.617,1.534.985m.922-1.028a.3.3,0,0,1-.273.315c-.22,0-.358-.18-.535-.421a2.465,2.465,0,0,0-.882-.638c-.1-.042-.124-.085-.124-.117,0-.1.315-.1.387-.1.567,0,1.428.355,1.428.964" transform="translate(147.153 21.845)" fill="#fff"/>
      <path id="パス_29011" data-name="パス 29011" d="M96.37,16.234c.177.114.4.22.4.358,0,.05-.093.291-.1.355a10.714,10.714,0,0,0-.042,1.51c0,.273,0,.609.021,1.006,0,.106.064.641.064.757,0,.082,0,.4-.23.4-.254,0-.527-.408-.527-.617A2.2,2.2,0,0,1,96,19.621a13.027,13.027,0,0,0,.117-1.8c0-.262,0-1.155-.209-1.155-.032,0-.053.021-.22.17a7.578,7.578,0,0,1-2.352,1.573.059.059,0,0,1-.061-.064c0-.053.313-.315.418-.4a8.584,8.584,0,0,0,2.895-3.6.573.573,0,0,0-.072-.252.991.991,0,0,1-.085-.167.113.113,0,0,1,.114-.106c.117,0,1.006.368,1.006.723a.248.248,0,0,1-.082.191,1.225,1.225,0,0,0-.326.334c-.23.347-.294.421-.818,1.091a.107.107,0,0,0,.042.074" transform="translate(153.769 22.783)" fill="#fff"/>
      <path id="パス_29012" data-name="パス 29012" d="M99.287,18.762a7.081,7.081,0,0,0-1.028.861c-.2.241-.22.26-.379.26-.567,0-1.343-.67-1.343-1.089,0-.074.011-.556.106-.556a2.585,2.585,0,0,1,.315.2,1.715,1.715,0,0,0,.712.241c.514,0,3.295-1.857,5.035-3.576a6.369,6.369,0,0,1,.482-.461.065.065,0,0,1,.053.05,14.307,14.307,0,0,1-3.954,4.071m-.861-3.451c-.283,0-.387-.17-.734-.691a2.356,2.356,0,0,0-.953-.861c-.042-.021-.1-.053-.1-.1s.082-.1.23-.1c1.123,0,2,.6,2,1.218a.462.462,0,0,1-.45.524" transform="translate(159.146 22.366)" fill="#fff"/>
      <path id="パス_29013" data-name="パス 29013" d="M102.641,14.4c0-.1.146-.1.23-.1a.982.982,0,0,1,.975.585c0,.127-.1.262-.315.524-.05.074-.082.117-.082.17,0,.085.124.085.167.085a5.932,5.932,0,0,0,1.594-.421,1.969,1.969,0,0,1,.493-.167c.1,0,.148.029.577.283.064.032.336.177.389.209a.378.378,0,0,1,.2.262c0,.146-.074.188-.421.4-.114.074-.156.138-.524.7a12.847,12.847,0,0,1-3.753,3.944,7.182,7.182,0,0,1-2.087,1.006.1.1,0,0,1-.1-.1c0-.042.032-.064.358-.241a13.1,13.1,0,0,0,5.191-5.663.115.115,0,0,0-.117-.117c-.021,0-1.467.326-1.719.326-.064,0-.347-.032-.411-.032-.2,0-.22.021-.659.524a8,8,0,0,1-1.428,1.364,3.231,3.231,0,0,1-1.006.556.066.066,0,0,1-.074-.064,8.8,8.8,0,0,1,.829-.787c.85-.85,1.846-2.3,1.764-2.927-.011-.053-.074-.283-.074-.326m4.94.358c0,.177-.124.408-.3.408-.146,0-.23-.064-.556-.45a3.333,3.333,0,0,0-.744-.62c-.053-.032-.156-.1-.156-.146s.082-.1.177-.1c1.343,0,1.584.776,1.584.9m.252-1.584c.429.252.429.493.429.6a.281.281,0,0,1-.26.3c-.222,0-.326-.1-.556-.344a2.429,2.429,0,0,0-.967-.514c-.1-.032-.135-.085-.135-.117,0-.082.273-.146.376-.146a1.939,1.939,0,0,1,1.112.22" transform="translate(164.832 21.349)" fill="#fff"/>
      <path id="パス_29014" data-name="パス 29014" d="M108.36,14.5c-.074,0-2.275.514-2.328.535a4.719,4.719,0,0,1-.471.2,2.226,2.226,0,0,1-.715-.376,2.2,2.2,0,0,1-.252-.609c0-.053.011-.085.064-.085.011,0,.241.064.273.074a1.851,1.851,0,0,0,.556.106,14.546,14.546,0,0,0,2.874-.389,3.976,3.976,0,0,1,.577-.326c.252,0,.89.535.89.8,0,.093-.387.376-.45.45-.209.252-1.038,1.478-1.205,1.719a.347.347,0,0,0-.085.209c0,.1.021.117.461.358.474.273,2.349,1.332,2.349,2.286a.454.454,0,0,1-.429.463c-.241,0-.283-.074-.652-.726a4.813,4.813,0,0,0-1.875-2.066c-.106,0-.138.032-.368.294a10.547,10.547,0,0,1-2.8,2.243,2.512,2.512,0,0,1-.652.241c-.021,0-.074,0-.074-.061a3.233,3.233,0,0,1,.485-.389,11.43,11.43,0,0,0,3.952-4.865.115.115,0,0,0-.124-.085" transform="translate(171.527 22.463)" fill="#fff"/>
      <path id="パス_29015" data-name="パス 29015" d="M110.5,15.941c-.347,0-.347.069-.347.633,0,.2.072.249.477.4.249.1.8.307.8.832,0,.04-.011.405-.257.405-.17,0-.217-.109-.426-.514-.1-.188-.358-.654-.5-.654-.04,0-.1.04-.1.228,0,.328.011,1.775.011,2.071-.011.347.029,1.873.029,2.18a.435.435,0,0,1-.456.466.192.192,0,0,1-.217-.209c0-.09.021-.792.029-.9.011-.238.04-2.5.04-2.794,0-.021,0-.13-.029-.13s-1.049,2.031-1.348,2.031a.023.023,0,0,1-.019-.021c0-.019.307-.683.366-.81a14.962,14.962,0,0,0,.932-2.972c0-.238-.22-.238-.307-.238s-.5.011-.683.019a1.041,1.041,0,0,1-.177.032c-.032,0-.05-.032-.072-.072l-.156-.228c-.032-.04-.04-.048-.04-.058a.025.025,0,0,1,.029-.029c.159,0,1.07.069,1.277.069.267,0,.267,0,.267-1.634,0-.148-.069-.842-.069-.893,0-.019.011-.04.029-.04a5.984,5.984,0,0,1,.636.188c.2.05.267.079.267.177,0,.072-.032.09-.13.17s-.119.13-.119.307-.069,1.417-.069,1.536c0,.058.011.188.207.188a.3.3,0,0,0,.26-.17c.1-.188.127-.246.207-.246a2.419,2.419,0,0,1,.744.564c0,.119-.209.119-.437.119Zm4.37,1.565c-.109,0-.249,0-.249.138A5.229,5.229,0,0,0,116.96,20.4c.148.09.376.217.376.267s-.069.05-.1.05a1.3,1.3,0,0,0-.506.109,2.282,2.282,0,0,1-.445.268,6.964,6.964,0,0,1-1.555-2.508c-.032-.069-.14-.405-.17-.474,0-.011-.019-.04-.04-.04-.04,0-.04.058-.04.109,0,.535.021,2.9.021,3.387,0,.159-.021.249-.1.307A.721.721,0,0,1,114,22c-.148,0-.209-.069-.209-.207,0-.35.069-.914.079-1.261.011-.485.04-2.05.04-2.069,0-.148-.011-.188-.058-.188s-.061.019-.14.148a7.156,7.156,0,0,1-2.347,2.585,1.665,1.665,0,0,1-.358.17c-.019,0-.058-.011-.058-.04a2.1,2.1,0,0,1,.336-.358,8.259,8.259,0,0,0,2.119-3.072c0-.207-.159-.207-.376-.207-.238,0-.763.011-.991.029-.029,0-.177.021-.207.021s-.061-.021-.09-.061l-.188-.228c-.04-.05-.05-.05-.05-.069s.021-.021.04-.021c.069,0,.376.032.437.032.079,0,.792.04,1.258.04h.307c.275,0,.347-.061.347-.328,0-.238,0-1.218-.032-1.377-.019-.138-.069-.207-.286-.207h-.893c-.207,0-.228.019-.355.246a3.618,3.618,0,0,1-.874,1.059c-.008,0-.029,0-.029-.029s.278-.644.328-.763a8.556,8.556,0,0,0,.564-2.01c.019-.209.029-.228.1-.228.032,0,.951.268.951.405,0,.069-.069.09-.246.148-.1.032-.109.072-.249.387-.058.148-.177.426-.177.437,0,.079.079.087.13.087h.763c.087,0,.286,0,.286-.268,0-.117-.011-.712-.019-.792-.011-.148-.1-.842-.1-.93a.043.043,0,0,1,.04-.04c.029,0,.922.2.922.307,0,.048-.159.207-.167.246a10.671,10.671,0,0,0-.061,1.168c0,.26.1.307.326.307h.238c.228,0,.3-.008.368-.069s.387-.466.485-.466a2.9,2.9,0,0,1,.821.654c0,.14-.2.14-.524.14h-1.4c-.14,0-.228.019-.289.127a12.934,12.934,0,0,0-.04,1.3c0,.368,0,.487.328.487h.434c.408,0,.456,0,.524-.072s.358-.445.448-.445c.069,0,.871.506.871.636s-.209.138-.524.138Z" transform="translate(178.134 21.51)" fill="#fff"/>
      <path id="パス_29016" data-name="パス 29016" d="M117.117,15.2c.167,0,.207-.029.207-.119s-.159-1.128-.188-1.287c-.019-.109-.138-.614-.138-.723,0-.029.04-.029.069-.029a4.367,4.367,0,0,1,.694.109c.257.05.387.09.387.217,0,.061-.011.069-.1.17-.109.109-.109.159-.109.614.011,1.049.09,1.049.336,1.049h1.149c.456,0,.506,0,.636-.167.307-.418.336-.456.434-.456.148,0,.951.572.951.742,0,.148-.177.148-.524.148H118.3c-.169,0-.228.021-.228.159a12.968,12.968,0,0,0,.395,1.753c.614,1.912,1.7,3.16,1.992,3.16.14,0,.307-.286.437-.524.048-.09.236-.524.286-.524.029,0,.029.048.029.069s-.127,1.1-.127,1.308a.734.734,0,0,0,.109.405.537.537,0,0,1,.1.278.224.224,0,0,1-.257.246c-.871,0-2.943-2.108-3.576-5.9-.061-.368-.079-.426-.328-.426h-2.675c-.228,0-.9,0-1.247.021a2.035,2.035,0,0,1-.217.029c-.029,0-.05-.029-.079-.069l-.2-.228c-.04-.04-.04-.05-.04-.061s.011-.029.04-.029c.069,0,.376.029.437.04.456.019.89.029,1.356.029Zm-1.338,2.606c-.069,0-.238.011-.278.167-.019.1-.058,1.142-.058,1.745s0,.7.167.7c.148,0,2.386-.5,2.408-.5s.05,0,.05.029a12.917,12.917,0,0,1-2.656,1.081,12.67,12.67,0,0,0-1.812.612c-.061.032-.267.278-.326.278-.111,0-.389-1.041-.389-1.07s.032-.048.339-.079a12.641,12.641,0,0,0,1.367-.2.2.2,0,0,0,.087-.14c.011-.079.021-1.3.021-1.417,0-.079-.011-.922-.011-.961-.011-.236-.188-.236-.286-.236a7.915,7.915,0,0,0-.9.029c-.019,0-.117.019-.138.019-.04,0-.058-.029-.087-.069l-.191-.228c-.037-.04-.048-.05-.048-.069s.019-.019.04-.019c.069,0,.376.029.434.037.456.021.9.032,1.356.032h.784a1.513,1.513,0,0,0,.477-.032c.109-.048.405-.524.5-.524a1.719,1.719,0,0,1,.723.683c0,.13-.2.13-.532.13Zm2.961-4.656c.138,0,1.507.336,1.507.911a.367.367,0,0,1-.408.405c-.109,0-.127-.029-.336-.326a4.985,4.985,0,0,0-.763-.882c-.029-.019-.069-.058-.058-.079s.04-.029.058-.029" transform="translate(185.736 21.504)" fill="#fff"/>
      <path id="パス_29017" data-name="パス 29017" d="M116.99,17.482c0-.04.032-.058.151-.138.069-.05.879-.625,1.523-1.168a8.1,8.1,0,0,0,2.368-2.845c.079-.307.079-.347.2-.347.011,0,.932.437.932.6,0,.05-.021.061-.119.13-.061.029-.069.058-.069.1a7.314,7.314,0,0,0,4.1,3.17c.278.079.278.079.278.13s-.029.069-.278.148a1.171,1.171,0,0,0-.633.405c-.04.072-.069.1-.13.1a9.308,9.308,0,0,1-3.446-3.5c-.111-.207-.13-.236-.17-.236s-.2.2-.278.3a9.852,9.852,0,0,1-4.338,3.181c-.029.008-.09.019-.09-.032m2.725,1.359c-.734,0-.98.011-1.247.029-.032,0-.18.019-.209.019s-.05-.019-.09-.058l-.188-.228-.048-.069c0-.021.019-.021.04-.021.069,0,.376.029.434.029.487.021,1.012.042,1.359.042h3.268c.416,0,.524,0,.763-.328.148-.209.188-.268.278-.268s.109.019.336.209c.506.416.506.426.506.514,0,.13-.05.13-.516.13h-3.03c-.1,0-.14,0-.14.029,0,0,.466.4.466.506,0,.087,0,.087-.3.167-.079.029-.1.061-.347.387-.209.278-.614.763-.675.824-.037.048-.138.148-.138.236s.138.1.177.1c.13,0,1.062-.061,2.161-.17.712-.069.792-.079.792-.177,0-.148-.583-.654-.583-.773,0-.05.037-.058.069-.058a9.04,9.04,0,0,1,1.258.614c.267.156.882.514.882,1.139,0,.315-.2.535-.387.535-.289,0-.5-.368-.675-.694s-.275-.368-.416-.368a43.389,43.389,0,0,0-4.6.914,2.209,2.209,0,0,1-.289.156.109.109,0,0,1-.1-.069,7.923,7.923,0,0,1-.546-1.049c0-.069.05-.069.079-.069.069,0,.376.058.437.069a5.549,5.549,0,0,0,.583.04c.556,0,.625,0,1.03-.813a6.945,6.945,0,0,0,.516-1.308c0-.167-.13-.167-.3-.167ZM121.776,17c.485,0,.506-.019.7-.257.156-.188.275-.336.326-.336a2.672,2.672,0,0,1,.752.742c0,.109-.05.109-.524.109h-2.278c-.607,0-.893,0-1.258.032-.032,0-.18.019-.209.019s-.05-.019-.087-.058l-.191-.228c-.037-.04-.037-.05-.037-.072s.008-.019.029-.019c.069,0,.376.029.434.029.485.029.961.04,1.359.04Z" transform="translate(192.862 21.405)" fill="#fff"/>
      <path id="パス_29018" data-name="パス 29018" d="M121.494,15.369c-.04-.05-.05-.058-.05-.069s.032-.021.04-.021c.188,0,1.1.061,1.308.061.278,0,.278-.069.278-.734,0-.148-.011-.734-.04-1.11,0-.05-.05-.278-.05-.336,0-.021.029-.021.04-.021a7.611,7.611,0,0,1,.893.267c.048.032.109.072.109.14,0,.04-.18.188-.2.228-.05.09-.05.138-.05.554v.832c0,.14.061.159.159.159a.345.345,0,0,0,.238-.069c.069-.04.358-.336.445-.336a.2.2,0,0,1,.14.069c.117.119.326.365.355.387.217.207.238.228.238.289a.148.148,0,0,1-.109.127c-.029.011-.17.04-.2.05a11.384,11.384,0,0,0-.922.991c-.286.3-.318.326-.318.5,0,.209.09.23.328.278.336.079,1.269.347,1.269,1.1,0,.31-.17.458-.347.458-.238,0-.347-.2-.607-.726-.058-.109-.384-.612-.572-.612-.09,0-.09.138-.09.257,0,.376.011,2.209.011,2.614,0,.13.048.744.048.882a.472.472,0,0,1-.524.456c-.238,0-.3-.1-.3-.238,0-.1.04-.554.04-.662.019-.734.058-1.764.058-2.932,0-.109,0-.278-.1-.278s-1.388,1.12-1.645,1.12c-.021,0-.05,0-.05-.029a9.717,9.717,0,0,1,.863-.882,12.279,12.279,0,0,0,1.793-2.429c0-.087-.069-.1-.159-.1h-.694c-.387,0-.8.011-1.149.029-.029,0-.177.021-.207.021s-.061-.021-.09-.061Zm3.239,6.062c-.04-.05-.04-.05-.04-.058a.034.034,0,0,1,.029-.032c.061,0,.368.04.437.04.286.011.8.032,1.356.032h.387c.09,0,.267,0,.289-.22.019-.177.04-3.991.04-4.508,0-.1,0-.3-.238-.3s-.824,0-1.171.029c-.029,0-.167.019-.207.019s-.05-.019-.09-.058l-.188-.228c-.04-.05-.04-.05-.04-.069s.021-.021.029-.021.368.029.416.029c.1,0,.9.04,1.24.04.238,0,.257-.127.257-.405,0-.911-.019-1.356-.069-2.1,0-.079-.058-.426-.058-.506,0-.048.019-.069.079-.069.029,0,.644.188.712.209.087.029.3.077.3.246,0,.05-.2.22-.217.267-.058.14-.09,1.782-.09,2.05,0,.119,0,.307.238.307.466,0,.514,0,.723-.275.286-.387.318-.426.405-.426.14,0,.834.644.834.832,0,.13-.209.13-.527.13h-1.377c-.265,0-.286.148-.286.326,0,.593.029,3.5.029,4.161,0,.365,0,.546.257.546h.368a.612.612,0,0,0,.583-.3c.268-.344.3-.384.416-.384.09,0,.961.644.961.81,0,.14-.207.14-.535.14h-3.515c-.238,0-.9-.011-1.25.019-.029,0-.177.029-.207.029s-.05-.019-.09-.069Z" transform="translate(200.007 21.497)" fill="#fff"/>
      <path id="パス_33881" data-name="パス 33881" d="M109.589,7.443A25.281,25.281,0,0,0,91.795,0h-.112l-.234,0c-11,.074-17.2,4.4-22.733,9.485-1.04.956-6.142,5.6-12.161,11.078C52.572,13.289,42.9,0,25.453,0A25.6,25.6,0,0,0,0,25.292H0V25.3H0v.005A25.6,25.6,0,0,0,25.344,50.59c.022,0,1.184-.016,1.233-.019,9.9-.308,16.474-4.5,21.845-9.436,1.043-.958,6.147-5.608,12.172-11.086,3.994,7.28,13.659,20.544,31.091,20.544A25.6,25.6,0,0,0,117.139,25.3v-.011h0v-.005A25.263,25.263,0,0,0,109.589,7.443ZM25.453.417a30.841,30.841,0,0,1,14.7,3.635,36.308,36.308,0,0,1,10.071,8.127,47.823,47.823,0,0,1,6.022,8.674C48.047,28.3,38.268,37.176,34.7,40.358c-3.79,3.384-8.41,5.543-15.467,5.543-6.51,0-10.588-2.287-14.029-6.439A24.829,24.829,0,0,1,25.453.417ZM116.4,25.4a24.938,24.938,0,0,1-24.72,24.769A30.838,30.838,0,0,1,76.99,46.539a36.2,36.2,0,0,1-10.068-8.124,47.853,47.853,0,0,1-6.014-8.655c8.192-7.449,17.966-16.313,21.53-19.5,3.79-3.384,8.41-5.576,15.467-5.576,6.51,0,10.591,2.287,14.032,6.439a25.086,25.086,0,0,1,4.47,14.056V25.4Z" transform="translate(0 -0.001)" fill="#fff"/>
    </g>
  </g>
</svg>
