<svg xmlns="http://www.w3.org/2000/svg" width="45.304" height="15.931" viewBox="0 0 45.304 15.931">
  <g id="グループ_26128" data-name="グループ 26128" transform="translate(-354.838 -94.69)">
    <path id="パス_38723" data-name="パス 38723" d="M-14.9-2.478c-.826,1.274-1.666,2.184-3.01,2.184-1.778,0-2.758-1.54-2.758-3.556,0-2.618,1.666-4.942,4.046-4.942,1.33,0,2.058.476,2.17,2.156l.434-.042c.056-.7.084-1.47.112-2.184A6.878,6.878,0,0,0-16.31-9.31c-3.234,0-5.852,2.156-5.852,5.5A3.8,3.8,0,0,0-18.046.21a10.088,10.088,0,0,0,2.422-.35,17.069,17.069,0,0,0,1.106-2.142Zm8.974.112A5.84,5.84,0,0,1-6.916-.938,2.157,2.157,0,0,1-8.526-.5,2.163,2.163,0,0,1-9.758-.7c-.21-.182-.224-.5-.14-1.008l1.106-5.754c.2-1.05.252-1.134,1.372-1.232l.084-.392h-3.626l-.084.392c1.134.1,1.2.168.994,1.232l-1.134,5.81c-.21,1.064-.308,1.176-1.386,1.26l-.1.392h6.258c.21-.448.714-1.75.9-2.212ZM1.988-9.31a5.348,5.348,0,0,0-5.11,5.544A3.668,3.668,0,0,0,.616.21a5.252,5.252,0,0,0,5.124-5.5A3.706,3.706,0,0,0,1.988-9.31Zm-.1.5c1.736,0,2.38,1.484,2.38,3.332,0,2.324-1.3,5.18-3.542,5.18-1.652,0-2.394-1.442-2.394-3.3C-1.666-6.09-.224-8.806,1.89-8.806ZM7.826-2.758c.028,1.008.028,1.778.042,2.1A3.62,3.62,0,0,0,10.3.21a2.861,2.861,0,0,0,3.108-2.7,3.215,3.215,0,0,0-1.652-2.59l-.42-.308c-.728-.546-1.26-1.05-1.26-1.848a1.526,1.526,0,0,1,1.526-1.6c1.2,0,1.568,1.008,1.68,2.03l.42-.042c.014-.672,0-1.414.042-1.988-.112-.042-.336-.14-.6-.238A4.5,4.5,0,0,0,11.76-9.31,2.609,2.609,0,0,0,8.89-6.776,3.308,3.308,0,0,0,10.472-4.3l.406.308c.8.63,1.26,1.176,1.26,1.946A1.6,1.6,0,0,1,10.486-.28C8.96-.28,8.372-1.764,8.232-2.8ZM17-9.086l-.1.392c1.148.1,1.218.182.994,1.3L16.8-1.694c-.224,1.12-.336,1.2-1.456,1.3l-.1.392h6.608c.2-.448.714-1.764.868-2.17l-.406-.14a5.706,5.706,0,0,1-.952,1.33c-.378.364-.8.476-1.806.476-.756,0-1.162-.028-1.372-.21-.182-.168-.2-.532-.056-1.3l.462-2.45h1.274c1.2,0,1.2.1,1.176,1.106h.42l.532-2.688h-.42c-.336.924-.42,1.022-1.6,1.022H18.7l.574-3c.1-.518.14-.574.63-.574h1.008c.994,0,1.19.126,1.344.448a2.886,2.886,0,0,1,.2,1.246l.42-.028c.1-.812.224-1.876.266-2.156Z" transform="translate(377 104)"/>
    <path id="パス_37886" data-name="パス 37886" d="M0,0H44.671" transform="translate(355.329 110.371)" fill="none" stroke="#000" stroke-width="0.5"/>
  </g>
</svg>
