<svg xmlns="http://www.w3.org/2000/svg" width="100.755" height="11.505" viewBox="0 0 100.755 11.505">
  <path id="パス_130443" data-name="パス 130443" d="M1.575.285c.15,0,.18-.03.435-.255a.775.775,0,0,1,.57-.195,1.957,1.957,0,0,1,.6.15,4.82,4.82,0,0,0,1.62.3,3.18,3.18,0,0,0,3.255-3.24C8.055-4.11,7.65-5.31,4.62-6.36,2.655-7.05,1.755-7.5,1.755-8.745a1.919,1.919,0,0,1,2.04-1.98A3.477,3.477,0,0,1,6.855-8.79c.24.39.27.435.39.435A.236.236,0,0,0,7.5-8.6c0-.09-.7-1.86-.81-2.1-.15-.39-.2-.525-.375-.525-.105,0-.135.03-.345.195a.57.57,0,0,1-.33.09c-.105,0-.735-.135-.9-.165a5.925,5.925,0,0,0-1.065-.12,2.826,2.826,0,0,0-3,2.91c0,1.785,1.38,2.58,3.465,3.3,1.905.66,2.805,1.14,2.805,2.5A2.162,2.162,0,0,1,4.725-.24,4.432,4.432,0,0,1,1.2-2.3c-.36-.555-.39-.63-.555-.63a.317.317,0,0,0-.33.315c0,.09.645,1.785.75,2.055C1.35.2,1.38.285,1.575.285Zm9.2,0A1,1,0,0,0,11.775-.7a.992.992,0,0,0-1.005-.99A.976.976,0,0,0,9.8-.7.986.986,0,0,0,10.77.285ZM18.21,0c.18,0,.405,0,.405-.24s-.24-.24-.315-.24c-1,0-1.545,0-1.68-.78a39.582,39.582,0,0,1-.045-4.23c0-.69,0-4.065.06-4.275.195-.675.84-.69,1.29-.69.555,0,.69,0,.69-.225,0-.255-.225-.255-.405-.255H13.8c-.21,0-.435,0-.435.255s.24.24.33.24c.99,0,1.53,0,1.68.765.045.27.045,3.66.045,4.275,0,.435,0,3.885-.045,4.14-.15.78-.87.78-1.305.78-.585,0-.7,0-.7.24s.225.24.42.24Zm2.985.285A1,1,0,0,0,22.2-.7a.992.992,0,0,0-1.005-.99.976.976,0,0,0-.975.99A.986.986,0,0,0,21.195.285ZM27.765,0c.285,0,.48,0,.48-.24S28.02-.48,27.9-.48c-.645,0-1.47,0-1.65-.99C26.2-1.755,26.2-4.74,26.2-5.34s.015-3.21.015-3.75c0-.165.045-.285.12-.285s.1.06.375.495C26.79-8.775,32.67.06,32.76.165a.262.262,0,0,0,.195.12c.2,0,.2-.255.2-.33,0-1.245-.015-6.8-.015-7.92,0-1.8,0-2.475,1.245-2.475.24,0,.45,0,.45-.24s-.225-.255-.39-.255H31.32c-.21,0-.42,0-.42.255s.225.24.315.24c.495,0,1.26,0,1.44.915.045.27.045,2.925.045,3.465s-.015,2.985-.015,3.405c0,.195-.045.3-.1.3-.09,0-1.47-2.1-1.665-2.4C30-6.135,28.53-8.34,27.615-9.72c-.765-1.17-.8-1.215-1.875-1.215H24.285c-.225,0-.45,0-.45.255s.24.24.33.24c.51,0,1.335,0,1.515.9a37.342,37.342,0,0,1,.045,4.05c0,3.975-.015,3.99-.135,4.335a1.185,1.185,0,0,1-1.2.675c-.375,0-.555,0-.555.24s.225.24.45.24Zm15.15-10.935c-.435,0-.585,0-.585.24,0,.255.165.255.66.255.15,0,.855,0,1.05.555a25.712,25.712,0,0,1,.135,3.51c0,.585-.03,4.815-.09,5.115-.135.78-.795.78-1.29.78-.24,0-.465,0-.465.24s.225.24.45.24h5.025c2.805,0,4.08-1.59,4.08-3.015a2.966,2.966,0,0,0-2.055-2.61c-.12-.045-.75-.18-.75-.255s.27-.18.36-.21a2.7,2.7,0,0,0,1.815-2.43c0-1.86-2.13-2.415-3.81-2.415Zm2.775,4.9a.419.419,0,0,1-.345-.195C45.3-6.36,45.3-7.71,45.3-8.46c0-1.305,0-1.98,1.08-1.98h1.065c1.41,0,2.415.675,2.415,2.13a2.265,2.265,0,0,1-2.55,2.28Zm2.04.48a2.527,2.527,0,0,1,2.73,2.58A2.477,2.477,0,0,1,47.685-.48H46.38c-1.095,0-1.095-.63-1.095-2.265,0-.345,0-2.475.06-2.61a.4.4,0,0,1,.345-.2Zm6.525-5.385c-.18,0-.45,0-.45.225,0,.27.315.27.4.27.345,0,.99,0,1.185.555a24.108,24.108,0,0,1,.12,3.03c0,.7,0,4.83-.03,5.34C55.44-.96,55.29-.48,54.255-.48c-.21,0-.42,0-.42.24,0,.21.225.24.375.24h3.705c.165,0,.435,0,.435-.24s-.21-.24-.315-.24c-1.38,0-1.38-.39-1.38-2.205,0-.345,0-2.325.06-2.475.045-.12.24-.18.345-.18h.825c.525,0,.63.24,1.455,2.055.165.375,1.23,2.7,1.32,2.85a.735.735,0,0,0,.7.435H63.24c.075,0,.375-.03.375-.24,0-.24-.3-.24-.45-.24a1.868,1.868,0,0,1-1.77-1.2,26.577,26.577,0,0,1-1.56-3.585c0-.165.06-.195.585-.45a2.921,2.921,0,0,0,2-2.625c0-2.52-3.42-2.595-4.14-2.595Zm4.215.495c1.95,0,2.52,1.2,2.52,2.25a2.422,2.422,0,0,1-2.715,2.37H57.06c-.405,0-.405-.045-.405-2.4,0-1.545,0-2.22,1.08-2.22ZM76.11,0c.1,0,.345,0,.345-.225,0-.165-.15-.255-.345-.255-.855,0-.96-.21-1.815-2.76C73.35-6.015,73.26-6.375,72.21-9.63a9.9,9.9,0,0,0-.5-1.35.342.342,0,0,0-.33-.24c-1.065,0-1.155.345-1.305.87-.195.675-1.155,3.615-1.35,4.215A44.548,44.548,0,0,1,66.945-1.08a1.261,1.261,0,0,1-1.14.6c-.345,0-.51,0-.51.255,0,.21.195.225.315.225h2.88c.12,0,.345,0,.345-.24,0-.21-.165-.24-.345-.24-.36,0-.84,0-.84-.585a11.968,11.968,0,0,1,.54-1.95c.24-.675.3-.825.855-.825H72.3c.5,0,.54.105.87.945a8.122,8.122,0,0,1,.555,1.755.658.658,0,0,1-.615.66c-.36,0-.6,0-.6.24,0,.2.195.24.36.24ZM69.18-4.335c-.195,0-.42,0-.42-.225,0-.135,1.17-3.945,1.59-5.16.165-.495.18-.54.27-.54.105,0,.135.135.225.39.27.81,1.695,4.98,1.695,5.295,0,.165-.21.24-.375.24ZM82.17,0c.285,0,.48,0,.48-.24s-.225-.24-.345-.24c-.645,0-1.47,0-1.65-.99-.045-.285-.045-3.27-.045-3.87s.015-3.21.015-3.75c0-.165.045-.285.12-.285s.105.06.375.495c.075.105,5.955,8.94,6.045,9.045a.262.262,0,0,0,.195.12c.195,0,.195-.255.195-.33,0-1.245-.015-6.8-.015-7.92,0-1.8,0-2.475,1.245-2.475.24,0,.45,0,.45-.24s-.225-.255-.39-.255h-3.12c-.21,0-.42,0-.42.255s.225.24.315.24c.5,0,1.26,0,1.44.915.045.27.045,2.925.045,3.465s-.015,2.985-.015,3.405c0,.195-.045.3-.1.3-.09,0-1.47-2.1-1.665-2.4-.915-1.38-2.385-3.585-3.3-4.965-.765-1.17-.795-1.215-1.875-1.215H78.69c-.225,0-.45,0-.45.255s.24.24.33.24c.51,0,1.335,0,1.515.9a37.342,37.342,0,0,1,.045,4.05c0,3.975-.015,3.99-.135,4.335a1.185,1.185,0,0,1-1.2.675c-.375,0-.555,0-.555.24s.225.24.45.24Zm9.225-10.935c-.225,0-.435,0-.435.255s.165.24.54.24a1,1,0,0,1,1.14.765c.045.255.045,3.465.045,4.17A39.826,39.826,0,0,1,92.64-1.26c-.135.78-.78.78-1.365.78-.09,0-.315,0-.315.24s.21.24.435.24H95.52c3.705,0,5.55-2.37,5.55-5.61,0-1.725-.6-5.325-5.685-5.325Zm4.305.495c3.24,0,4.02,2.88,4.02,4.77,0,3-1.53,5.19-4.08,5.19h-.72a.944.944,0,0,1-1.035-.78,39.826,39.826,0,0,1-.045-4.245c0-.675,0-3.9.045-4.155a.929.929,0,0,1,1.035-.78Z" transform="translate(-0.315 11.22)" fill="#fff"/>
</svg>
