<svg xmlns="http://www.w3.org/2000/svg" width="165.984" height="52.785" viewBox="0 0 165.984 52.785">
  <g id="グループ_26293" data-name="グループ 26293" transform="translate(-1117.386 -216.38)">
    <path id="パス_38585" data-name="パス 38585" d="M-82.614-5.516c.056,2.016.056,3.556.084,4.2A7.239,7.239,0,0,0-77.658.42c3.3,0,6.216-2.1,6.216-5.4,0-2.268-1.372-3.752-3.3-5.18l-.84-.616c-1.456-1.092-2.52-2.1-2.52-3.7a3.052,3.052,0,0,1,3.052-3.192c2.408,0,3.136,2.016,3.36,4.06l.84-.084c.028-1.344,0-2.828.084-3.976-.224-.084-.672-.28-1.2-.476a8.994,8.994,0,0,0-2.772-.476c-3.36,0-5.74,2.1-5.74,5.068,0,2.324,1.792,3.892,3.164,4.956l.812.616c1.6,1.26,2.52,2.352,2.52,3.892a3.209,3.209,0,0,1-3.3,3.528c-3.052,0-4.228-2.968-4.508-5.04ZM-66.6.336a1.708,1.708,0,0,0,1.708-1.82,1.453,1.453,0,0,0-1.428-1.568A1.738,1.738,0,0,0-68.054-1.2,1.451,1.451,0,0,0-66.6.336ZM-50.33-18.172h-7.308l-.2.784c2.3.2,2.492.364,2.1,2.436L-58-3.332c-.42,2.156-.588,2.38-2.744,2.548l-.2.784h7.364l.168-.784c-2.268-.168-2.464-.364-2.044-2.548l2.24-11.62c.42-2.072.56-2.24,2.716-2.436ZM-47.754.336a1.708,1.708,0,0,0,1.708-1.82,1.453,1.453,0,0,0-1.428-1.568A1.738,1.738,0,0,0-49.21-1.2,1.451,1.451,0,0,0-47.754.336Zm26.936-18.508h-6.356l-.224.784c2.044.112,2.548.42,2.436,1.736a43.312,43.312,0,0,1-.728,4.788l-1.26,6.692h-.084l-8.092-14h-4.228l-.2.784c1.484.084,2.016.252,2.352.84.336.616.448,1.064.14,2.6l-1.4,6.664c-.56,2.6-.868,3.864-1.176,4.816C-40-1.232-40.642-.868-42.1-.784l-.2.784h6.5l.168-.784c-1.96-.14-2.464-.448-2.38-1.736a36.085,36.085,0,0,1,.7-4.7l1.428-7.28h.084L-27.566.224h.952l2.1-11.088a47.538,47.538,0,0,1,1.092-4.76c.364-1.232.728-1.68,2.436-1.764Zm10.808,0-.168.784c2.212.2,2.38.364,1.96,2.436l-2.24,11.564c-.448,2.24-.672,2.408-2.8,2.6l-.2.784h6.1A13.478,13.478,0,0,0-1.582-.98,5.052,5.052,0,0,0,1.61-5.516c0-2.576-1.932-3.92-4.116-4.368V-9.94c2.492-.5,4.592-1.82,4.592-4.368,0-2.828-2.128-3.864-5.4-3.864Zm3.36,7.9,1.008-5.432c.14-.756.308-1.092.532-1.26a2.153,2.153,0,0,1,1.26-.28c1.568,0,3.192.7,3.192,2.968,0,2.408-1.624,4-4.7,4Zm-.2.952h1.26c2.3,0,4.284.9,4.284,3.668A4.426,4.426,0,0,1-5.866-.98c-1.708,0-2.492-.392-2.1-2.492ZM20.65-.5A3.371,3.371,0,0,1,18.8-1.82a20.923,20.923,0,0,1-1.736-2.968c-.644-1.288-1.372-3.024-1.652-3.752,2.268-.784,4.368-2.492,4.368-5.32A3.858,3.858,0,0,0,18.046-17.3a7.425,7.425,0,0,0-4.032-.868H7.742l-.168.784c2.212.2,2.324.308,1.9,2.576L7.294-3.556C6.818-1.148,6.65-1.008,4.522-.784L4.326,0h7.252l.168-.784c-2.212-.2-2.408-.364-1.932-2.8L10.6-7.952H11.69c.98,0,1.344.252,1.764,1.288.588,1.428,1.176,2.828,1.876,4.144.98,1.848,1.9,2.632,4.76,2.744h.336ZM10.794-8.876l1.316-6.86c.14-.728.28-1.064.5-1.232a2.054,2.054,0,0,1,1.232-.28c1.932,0,3.164,1.2,3.164,3.612a4.846,4.846,0,0,1-2.072,4.06,5.156,5.156,0,0,1-2.94.7Zm29.4,8.092c-1.96-.224-2.128-.448-2.492-2.548-.616-3.416-1.232-6.972-1.82-10.612l-.728-4.648-.98.252L25.83-3.584c-1.344,2.408-1.652,2.548-3.36,2.8L22.246,0h6.076l.2-.784c-2.156-.2-2.324-.42-1.54-2.016.588-1.26,1.372-2.772,1.876-3.7h5.768c.252,1.54.476,2.828.644,3.976.168,1.232.056,1.54-1.848,1.736L33.194,0H40ZM34.426-7.728H29.47c1.2-2.324,2.492-4.592,3.808-7.056h.056ZM64.162-18.172H57.806l-.224.784c2.044.112,2.548.42,2.436,1.736a43.311,43.311,0,0,1-.728,4.788L58.03-4.172h-.084l-8.092-14H45.626l-.2.784c1.484.084,2.016.252,2.352.84.336.616.448,1.064.14,2.6l-1.4,6.664c-.56,2.6-.868,3.864-1.176,4.816-.364,1.232-1.008,1.6-2.464,1.68l-.2.784h6.5l.168-.784c-1.96-.14-2.464-.448-2.38-1.736a36.085,36.085,0,0,1,.7-4.7L49.1-14.5h.084L57.414.224h.952l2.1-11.088a47.538,47.538,0,0,1,1.092-4.76c.364-1.232.728-1.68,2.436-1.764Zm3.164,0-.2.784c2.24.252,2.352.42,1.932,2.66L66.878-3.388c-.392,2.128-.588,2.38-2.744,2.6l-.2.784H70.1c3.528,0,6.244-.56,8.652-2.072a9.8,9.8,0,0,0,4.62-8.484c0-5.348-3.528-7.616-9.044-7.616Zm4.424,2.66c.168-.924.308-1.232.588-1.4A3.479,3.479,0,0,1,74.1-17.22c4,.028,6.328,2.38,6.328,6.5,0,5.236-3.22,9.66-8.708,9.688a3.776,3.776,0,0,1-1.9-.392c-.5-.308-.56-.84-.308-2.24Z" transform="translate(1200 235)" fill="#fff"/>
    <path id="パス_38586" data-name="パス 38586" d="M-73.635-9.36c-.09,0-.135.045-.135.33,0,.825,1.2,1.575,1.545,1.575a5.44,5.44,0,0,0,.75-.33,49.219,49.219,0,0,1,5.4-1.08c.075,0,.33.015.33.27a8.475,8.475,0,0,1-1.02,2.535A19.523,19.523,0,0,1-72.69-.12c-.15.105-.195.135-.195.2a.1.1,0,0,0,.105.09,15.264,15.264,0,0,0,7.74-6.99,2.483,2.483,0,0,1,.585-.945c.27-.27.345-.345.345-.54s-.09-.375-.765-.975C-65.34-9.69-65.58-9.9-65.91-9.9c-.1,0-.165.03-.63.24a38.836,38.836,0,0,1-5.655.7A3.534,3.534,0,0,1-73.44-9.27C-73.47-9.27-73.605-9.36-73.635-9.36Zm10.305-2.52c-.12,0-.57,0-.57.15,0,.045.045.105.195.18a3.731,3.731,0,0,1,1.245.915c.255.345.435.615.765.615.27,0,.39-.285.39-.45C-61.305-11.43-62.7-11.88-63.33-11.88Zm-1.26,1.08c-.135,0-.27.045-.27.105s.15.195.21.24a4.457,4.457,0,0,1,.975.975c.405.57.525.72.765.72.27,0,.465-.36.465-.57C-62.445-10.02-63.525-10.8-64.59-10.8Zm10.23.345c-.06,0-.09.03-.09.1,0,.1.45,1.125,1.245,1.125.1,0,3.33-.285,3.57-.315.87-.075,1.395-.12,1.395-.585,0-.435-.66-.57-.915-.57-.21,0-1.245.255-1.47.3a14.348,14.348,0,0,1-2.4.165,3.687,3.687,0,0,1-.8-.06C-53.91-10.3-54.27-10.455-54.36-10.455ZM-54.735-.21a.161.161,0,0,0-.03.09A.12.12,0,0,0-54.63,0a10.6,10.6,0,0,0,2.655-.975,9.945,9.945,0,0,0,4.23-4.005,4.2,4.2,0,0,1,.81-1.065c.345-.285.405-.345.405-.57,0-.345-1.065-1.23-1.32-1.23a2.577,2.577,0,0,0-.435.165c-.015,0-1,.09-1.035.09-.555.06-3.54.45-4.77.45a4.21,4.21,0,0,1-1.485-.255,2.125,2.125,0,0,0-.27-.12.084.084,0,0,0-.09.075c0,.42,1.065,1.71,1.71,1.71a6.415,6.415,0,0,0,.69-.255c.66-.2,4.425-.855,4.935-.855.21,0,.315.105.315.285,0,.315-1.23,3.555-5.91,6.075C-54.285-.435-54.705-.24-54.735-.21Zm19.86-8.19c0-.885-1.26-1.74-2.865-1.74-.21,0-.33.075-.33.135s.075.1.135.135A3.379,3.379,0,0,1-36.57-8.64c.495.75.645.99,1.05.99A.663.663,0,0,0-34.875-8.4Zm6.24-.135a.1.1,0,0,0-.075-.075c-.03,0-.45.42-.69.66-2.49,2.46-6.465,5.115-7.2,5.115a2.483,2.483,0,0,1-1.02-.345,3.735,3.735,0,0,0-.45-.285c-.135,0-.15.69-.15.8,0,.6,1.11,1.56,1.92,1.56.225,0,.255-.03.54-.375a10.475,10.475,0,0,1,1.47-1.23A20.41,20.41,0,0,0-28.635-8.535Zm9.1-2.625a.114.114,0,0,0,.03.06,1.667,1.667,0,0,1,.525.69c.18.48.18.81.18,5.25a20.125,20.125,0,0,1-.135,3.48c0,.06-.06.375-.06.435,0,.39.375,1.41.84,1.41.435,0,.435-1.005.435-1.365,0-.225-.015-.6-.03-.765-.06-1.35-.075-2.145-.075-3.735,0-1.11.045-1.11.21-1.11.465,0,1.17.72,1.59,1.26,1.035,1.335,1.05,1.365,1.41,1.365a.525.525,0,0,0,.555-.525c0-1.11-2.3-2.2-3.255-2.43-.42-.09-.5-.15-.5-.465a19.214,19.214,0,0,1,.15-2.1c.015-.09.165-.525.165-.63,0-.48-1.08-.96-1.62-.96C-19.125-11.3-19.5-11.28-19.53-11.16Zm5.865-.615c-.39,0-.57.09-.57.18,0,.03.045.105.195.165a3.782,3.782,0,0,1,1.29.855c.27.345.45.585.78.585.27,0,.39-.285.39-.45C-11.58-11.175-12.585-11.775-13.665-11.775Zm-1.26,1.575c-.135,0-.27.03-.27.105,0,.06.15.195.21.24a4.2,4.2,0,0,1,.975.975c.39.57.525.72.75.72.3,0,.465-.375.465-.57C-12.8-9.4-13.86-10.2-14.925-10.2ZM-4.41-8.37c-.075,0-.18.03-.18.15,0,.3,1.065,1.215,1.395,1.215.12,0,.645-.21.78-.24.585-.135,4.3-.735,4.77-.735.165,0,.225.06.225.315,0,.3-.135,1.6-.315,2.925-.105.75-.165.93-.345,1.02a49.435,49.435,0,0,1-5.19.39,5.307,5.307,0,0,1-.765-.045,4.021,4.021,0,0,0-.45-.075.121.121,0,0,0-.135.105c0,.525.885,1.2,1.155,1.2.075,0,.45-.165.54-.18.24-.06,3.09-.375,4.02-.375.345,0,2.01.105,2.385.105.12,0,.81,0,.81-.405,0-.375-.555-.57-.93-.63C3.135-3.675,3-3.69,3-3.885c0-.09.21-.75.24-.885.51-2.085.57-2.31.84-2.505.465-.345.51-.39.51-.525,0-.39-1.44-1.35-1.74-1.35-.135,0-.2.03-.735.39a25.351,25.351,0,0,1-4.875.48C-3.015-8.28-4.32-8.37-4.41-8.37ZM16.425-8.4c0-.885-1.26-1.74-2.865-1.74-.21,0-.33.075-.33.135s.075.1.135.135A3.379,3.379,0,0,1,14.73-8.64c.495.75.645.99,1.05.99A.663.663,0,0,0,16.425-8.4Zm6.24-.135a.1.1,0,0,0-.075-.075c-.03,0-.45.42-.69.66-2.49,2.46-6.465,5.115-7.2,5.115a2.483,2.483,0,0,1-1.02-.345,3.734,3.734,0,0,0-.45-.285c-.135,0-.15.69-.15.8,0,.6,1.11,1.56,1.92,1.56.225,0,.255-.03.54-.375a10.475,10.475,0,0,1,1.47-1.23A20.41,20.41,0,0,0,22.665-8.535Zm6.21,1.98c-.03,0-.09.015-.09.06s.6,1.2,1.365,1.2c.33,0,.42-.045,1.305-.51a10.932,10.932,0,0,1,1.41-.42c.21,0,.3.105.3.345s-.03,1.56-.03,1.86c0,2.49.315,3.165,2.91,3.165.81,0,3.33,0,3.33-.96a.581.581,0,0,0-.63-.48,5.652,5.652,0,0,0-1.245.21,12.723,12.723,0,0,1-1.65.15c-.9,0-1.74-.135-1.86-1.32-.03-.285-.03-1.635-.03-2.9a.563.563,0,0,1,.465-.645c.195-.06,2.445-.795,2.475-.795.165,0,.18.21.18.3a2.571,2.571,0,0,1-.42,1.245c-.03.06-.285.48-.285.495a.086.086,0,0,0,.09.09,12.464,12.464,0,0,0,1.125-.675c.54-.33.705-.435,1.02-.435.06,0,.345.03.4.03.2,0,.27-.12.27-.225,0-.615-1.6-1.77-2.01-1.77a4.253,4.253,0,0,0-.645.315,18.178,18.178,0,0,1-2.25.63.265.265,0,0,1-.3-.285,12.535,12.535,0,0,1,.225-1.44,4.559,4.559,0,0,0,.285-.675c0-.15-.27-.405-.315-.45-.69-.585-.855-.66-1.035-.66-.135,0-.69.12-.69.255a2.988,2.988,0,0,0,.18.285c.36.54.54.795.54,2.415,0,.795-.03.915-.435,1.02A12.26,12.26,0,0,1,29.7-6.45a3.327,3.327,0,0,1-.555-.045A.877.877,0,0,0,28.875-6.555ZM56.91-11.7a1.425,1.425,0,0,0-1.47,1.425A1.474,1.474,0,0,0,56.895-8.82a1.463,1.463,0,0,0,1.44-1.455A1.4,1.4,0,0,0,56.91-11.7Zm-.03.51a1,1,0,0,1,.96.945.925.925,0,0,1-.93.915.931.931,0,0,1-.975-.9A.965.965,0,0,1,56.88-11.19ZM46.065-9.36c-.09,0-.135.045-.135.33,0,.825,1.2,1.575,1.545,1.575a5.44,5.44,0,0,0,.75-.33,49.219,49.219,0,0,1,5.4-1.08c.075,0,.33.015.33.27a8.475,8.475,0,0,1-1.02,2.535A19.523,19.523,0,0,1,47.01-.12c-.15.105-.195.135-.195.2a.1.1,0,0,0,.1.09,15.264,15.264,0,0,0,7.74-6.99,2.483,2.483,0,0,1,.585-.945c.27-.27.345-.345.345-.54s-.09-.375-.765-.975C54.36-9.69,54.12-9.9,53.79-9.9c-.1,0-.165.03-.63.24a38.836,38.836,0,0,1-5.655.7A3.534,3.534,0,0,1,46.26-9.27C46.23-9.27,46.095-9.36,46.065-9.36ZM66.4-11.19l.03.06a1.664,1.664,0,0,1,.51.69c.18.48.18.96.18,5.25a31.046,31.046,0,0,1-.135,3.48c0,.06-.06.375-.06.435,0,.39.39,1.41.84,1.41.435,0,.435-.99.435-1.365,0-.225-.015-.6-.03-.765-.06-1.35-.075-2.145-.075-3.735,0-1.11.06-1.11.21-1.11.465,0,1.17.7,1.59,1.26,1,1.3,1.05,1.365,1.425,1.365a.513.513,0,0,0,.54-.525c0-1.125-2.325-2.22-3.24-2.43-.435-.105-.495-.15-.495-.48a19.457,19.457,0,0,1,.135-2.085,4.347,4.347,0,0,0,.18-.63c0-.48-1.08-.96-1.62-.96C66.81-11.325,66.42-11.325,66.4-11.19Z" transform="translate(1192 269)" fill="#fff"/>
  </g>
</svg>
