<svg xmlns="http://www.w3.org/2000/svg" width="166.582" height="29.792" viewBox="0 0 166.582 29.792">
  <g id="グループ_31551" data-name="グループ 31551" transform="translate(11309.302 1119.161)">
    <g id="グループ_31550" data-name="グループ 31550" transform="translate(-11309.302 -1119.161)">
      <g id="グループ_12594" data-name="グループ 12594" transform="translate(0 0)">
        <g id="グループ_12633" data-name="グループ 12633" transform="translate(0)">
          <path id="パス_29020" data-name="パス 29020" d="M52.314,213.225c.1.672.46,1.583,1.432,1.583a1.039,1.039,0,0,0,1.061-1.141c0-.5-.309-.84-.822-1.246l-.247-.195a2.1,2.1,0,0,1-.991-1.547,1.63,1.63,0,0,1,1.795-1.583,2.6,2.6,0,0,1,.84.151l.389.141c-.035.372-.018.84-.027,1.238l-.256.027c-.071-.664-.3-1.265-1.061-1.265a.987.987,0,0,0-.991,1.035c0,.513.363.831.823,1.185l.265.194a2.019,2.019,0,0,1,1.026,1.618,1.783,1.783,0,0,1-1.928,1.689,2.277,2.277,0,0,1-1.521-.549c-.008-.2-.008-.681-.026-1.309Z" transform="translate(-23.225 -187.43)"/>
          <path id="パス_29021" data-name="パス 29021" d="M61.4,212.024a3.327,3.327,0,0,1,.822-.106c.91,0,1.273.434,1.273,1.22a2.856,2.856,0,0,1-.751,1.83,3.5,3.5,0,0,1-1.645,1.026,1.435,1.435,0,0,1-.522-.089l-.247,1.247c-.107.5-.053.583.38.627l.212.018-.026.23-2.043.106.036-.23c.557-.107.654-.177.778-.725.328-1.548.663-3.1.991-4.625a4.171,4.171,0,0,0-.716.319l-.062-.221a4.246,4.246,0,0,1,.849-.443l.1-.4a2.7,2.7,0,0,1,.646-.512l.088.044Zm-.681,3.281a.794.794,0,0,0,.549.3c.627,0,1.485-1.194,1.485-2.326,0-.787-.416-.981-.928-.981a2.133,2.133,0,0,0-.5.062Z" transform="translate(-26.028 -188.342)"/>
          <path id="パス_29022" data-name="パス 29022" d="M73,215.511a2.412,2.412,0,0,1-1.291.92c-.168,0-.283-.133-.159-.779l.177-.84h-.018a6.4,6.4,0,0,1-1.14,1.221,1.469,1.469,0,0,1-.823.4c-.23,0-.513-.292-.513-1a3.257,3.257,0,0,1,1.061-2.4,2.8,2.8,0,0,1,1.644-.681,2.872,2.872,0,0,1,.549.062,1.754,1.754,0,0,0,.336.053l.026.035c-.141.549-.406,1.751-.61,2.874-.063.309-.036.38.017.38a1.916,1.916,0,0,0,.637-.46Zm-1.149-1.379c.1-.353.229-.991.292-1.273a1.483,1.483,0,0,0-.593-.124,1.1,1.1,0,0,0-.628.185,3.133,3.133,0,0,0-.955,2.361c0,.4.115.584.239.584.345,0,1.345-1.123,1.645-1.733" transform="translate(-30.326 -188.779)"/>
          <path id="パス_29023" data-name="パス 29023" d="M80.818,215.449a2.612,2.612,0,0,1-1.768.981c-.566,0-.947-.451-.947-1.3a3.059,3.059,0,0,1,.911-2.122,2.6,2.6,0,0,1,1.416-.655c.379,0,.663.221.671.442a.487.487,0,0,1-.292.407c-.07.044-.132.026-.194-.053a.779.779,0,0,0-.664-.38.916.916,0,0,0-.733.584,3.468,3.468,0,0,0-.389,1.6c0,.627.247.955.627.955a2.088,2.088,0,0,0,1.229-.655Z" transform="translate(-33.997 -188.779)"/>
          <path id="パス_29024" data-name="パス 29024" d="M88.111,215.431a2.6,2.6,0,0,1-1.866,1c-.407,0-.973-.24-.973-1.291a2.937,2.937,0,0,1,1.061-2.291,2.211,2.211,0,0,1,1.22-.5.729.729,0,0,1,.779.708c0,.875-1.486,1.353-2.335,1.565a1.577,1.577,0,0,0-.018.283c0,.477.151,1,.69,1a2.058,2.058,0,0,0,1.291-.681Zm-1.247-2.608a1.989,1.989,0,0,0-.832,1.53c1.265-.336,1.636-.743,1.636-1.149a.435.435,0,0,0-.442-.486.726.726,0,0,0-.362.105" transform="translate(-36.964 -188.779)"/>
          <path id="パス_29025" data-name="パス 29025" d="M100.467,209.567c-.69.071-.734.115-.858.76l-.716,3.723c-.133.681-.08.734.645.787l-.053.239H97.222l.062-.239c.69-.053.751-.115.884-.787l.716-3.723c.124-.645.062-.689-.672-.76l.063-.23h2.245Z" transform="translate(-41.91 -187.53)"/>
          <path id="パス_29026" data-name="パス 29026" d="M107.826,215.573a2.408,2.408,0,0,1-1.247.858c-.221,0-.3-.239-.141-.92.168-.664.318-1.309.477-1.963.124-.5.071-.637-.07-.637-.389,0-1.414,1.1-1.857,1.848-.105.433-.239.963-.345,1.494a4.292,4.292,0,0,0-.637.177l-.053-.07c.239-.956.5-2.017.716-3,.072-.283.045-.353-.008-.353a1.633,1.633,0,0,0-.575.4l-.115-.213a2.394,2.394,0,0,1,1.247-.84c.2,0,.239.3.07.981l-.185.77h.018a5.962,5.962,0,0,1,1.627-1.556,1.192,1.192,0,0,1,.593-.195c.212,0,.46.133.194,1.265-.141.6-.283,1.22-.433,1.839-.053.239-.045.318.018.318a1.544,1.544,0,0,0,.583-.416Z" transform="translate(-44.695 -188.779)"/>
          <path id="パス_29027" data-name="パス 29027" d="M117.106,215.573a2.408,2.408,0,0,1-1.247.858c-.221,0-.3-.239-.141-.92.168-.664.318-1.309.477-1.963.124-.5.071-.637-.07-.637-.389,0-1.416,1.1-1.857,1.848-.106.433-.239.963-.345,1.494a4.291,4.291,0,0,0-.637.177l-.053-.07c.239-.956.5-2.017.716-3,.072-.283.045-.353-.008-.353a1.632,1.632,0,0,0-.575.4l-.115-.213a2.394,2.394,0,0,1,1.247-.84c.2,0,.239.3.07.981l-.185.77h.018a5.962,5.962,0,0,1,1.627-1.556,1.192,1.192,0,0,1,.593-.195c.212,0,.46.133.194,1.265-.141.6-.283,1.22-.433,1.839-.053.239-.045.318.018.318a1.54,1.54,0,0,0,.583-.416Z" transform="translate(-48.536 -188.779)"/>
          <path id="パス_29028" data-name="パス 29028" d="M122.5,215.051a2.69,2.69,0,0,1,1.345-2.414,2.242,2.242,0,0,1,.955-.284c.733,0,1.176.5,1.176,1.38a2.862,2.862,0,0,1-.946,2.139,2.2,2.2,0,0,1-1.362.558c-.84,0-1.168-.664-1.168-1.38m1.769.972a2.59,2.59,0,0,0,.963-2.272c0-.716-.309-1.061-.716-1.061a.79.79,0,0,0-.336.079,2.442,2.442,0,0,0-.937,2.238c0,.654.274,1.07.743,1.07a.729.729,0,0,0,.283-.053" transform="translate(-52.371 -188.779)"/>
          <path id="パス_29029" data-name="パス 29029" d="M132.433,215.555a6.426,6.426,0,0,0,1.37-2.334.749.749,0,0,0-.1-.389.318.318,0,0,1,0-.221.43.43,0,0,1,.38-.257c.212,0,.371.2.38.5a2.208,2.208,0,0,1-.549,1.185c-.512.716-1.3,1.733-1.829,2.387h-.239c-.027-.822-.124-2.21-.168-2.75s-.1-.681-.159-.681c-.08,0-.239.141-.522.468l-.141-.195c.318-.46.769-.92,1.052-.92.23,0,.345.336.389.981.036.779.089,1.5.115,2.22Z" transform="translate(-55.831 -188.779)"/>
          <path id="パス_29030" data-name="パス 29030" d="M142.761,215.511a2.415,2.415,0,0,1-1.292.92c-.168,0-.282-.133-.158-.779l.177-.84h-.019a6.377,6.377,0,0,1-1.139,1.221,1.47,1.47,0,0,1-.824.4c-.23,0-.513-.292-.513-1a3.255,3.255,0,0,1,1.062-2.4,2.8,2.8,0,0,1,1.644-.681,2.878,2.878,0,0,1,.549.062,1.749,1.749,0,0,0,.335.053l.026.035c-.141.549-.406,1.751-.609,2.874-.063.309-.036.38.016.38a1.916,1.916,0,0,0,.637-.46Zm-1.149-1.379c.1-.353.229-.991.292-1.273a1.485,1.485,0,0,0-.593-.124,1.1,1.1,0,0,0-.629.185,3.135,3.135,0,0,0-.955,2.361c0,.4.115.584.239.584.345,0,1.345-1.123,1.646-1.733" transform="translate(-59.197 -188.779)"/>
          <path id="パス_29031" data-name="パス 29031" d="M150.134,211.917l-.876.045-.521,2.44c-.089.434-.045.531.052.531a1.951,1.951,0,0,0,.8-.513l.124.185c-.292.354-.955.947-1.424.947-.2,0-.38-.257-.185-1.168l.521-2.423h-.654l-.026-.08.221-.265h.53l.2-.84.672-.549.08.053-.31,1.335h1.026Z" transform="translate(-62.901 -187.899)"/>
          <path id="パス_29032" data-name="パス 29032" d="M155.429,214.348a2.677,2.677,0,0,1-1.29.884c-.177,0-.292-.142-.115-.866l.548-2.264c.053-.195.053-.283-.009-.283a1.706,1.706,0,0,0-.6.38l-.107-.2a2.975,2.975,0,0,1,1.345-.841c.195,0,.185.284.088.7l-.61,2.44c-.053.212-.036.283.017.283a1.8,1.8,0,0,0,.62-.416Zm.23-4.492a.494.494,0,0,1-.469.513.372.372,0,0,1-.371-.389.52.52,0,0,1,.486-.522.366.366,0,0,1,.354.4" transform="translate(-65.348 -187.58)"/>
          <path id="パス_29033" data-name="パス 29033" d="M159.244,215.051a2.69,2.69,0,0,1,1.345-2.414,2.242,2.242,0,0,1,.955-.284c.733,0,1.176.5,1.176,1.38a2.862,2.862,0,0,1-.946,2.139,2.2,2.2,0,0,1-1.362.558c-.84,0-1.168-.664-1.168-1.38m1.769.972a2.59,2.59,0,0,0,.963-2.272c0-.716-.309-1.061-.716-1.061a.79.79,0,0,0-.336.079,2.442,2.442,0,0,0-.937,2.238c0,.654.274,1.07.743,1.07a.73.73,0,0,0,.283-.053" transform="translate(-67.578 -188.779)"/>
          <path id="パス_29034" data-name="パス 29034" d="M171.733,215.573a2.408,2.408,0,0,1-1.247.858c-.221,0-.3-.239-.141-.92.168-.664.318-1.309.477-1.963.124-.5.071-.637-.07-.637-.389,0-1.414,1.1-1.857,1.848-.105.433-.239.963-.345,1.494a4.293,4.293,0,0,0-.637.177l-.053-.07c.239-.956.5-2.017.716-3,.072-.283.045-.353-.008-.353a1.632,1.632,0,0,0-.575.4l-.115-.213a2.394,2.394,0,0,1,1.247-.84c.2,0,.239.3.07.981l-.185.77h.018a5.962,5.962,0,0,1,1.627-1.556,1.192,1.192,0,0,1,.593-.195c.212,0,.46.133.194,1.265-.141.6-.283,1.22-.433,1.839-.053.239-.045.318.018.318a1.544,1.544,0,0,0,.583-.416Z" transform="translate(-71.144 -188.779)"/>
          <path id="パス_29035" data-name="パス 29035" d="M188.233,209.567c-.531.035-.655.168-.77.557a14.927,14.927,0,0,0-.336,1.5l-.672,3.519h-.266l-2.617-4.686h-.027l-.46,2.352a12.081,12.081,0,0,0-.23,1.486c-.018.406.142.5.752.539l-.053.239h-2.025l.053-.239c.46-.026.663-.133.778-.513a13.721,13.721,0,0,0,.37-1.539l.461-2.176c.088-.45.062-.574-.053-.768s-.257-.239-.752-.274l.053-.23h1.274l2.608,4.5h.036l.407-2.211a13.978,13.978,0,0,0,.239-1.511c.027-.417-.114-.5-.77-.549l.063-.23h1.989Z" transform="translate(-76.802 -187.53)"/>
          <path id="パス_29036" data-name="パス 29036" d="M196.713,215.431a2.6,2.6,0,0,1-1.866,1c-.407,0-.973-.24-.973-1.291a2.937,2.937,0,0,1,1.061-2.291,2.211,2.211,0,0,1,1.22-.5.729.729,0,0,1,.779.708c0,.875-1.486,1.353-2.335,1.565a1.575,1.575,0,0,0-.018.283c0,.477.151,1,.69,1a2.057,2.057,0,0,0,1.291-.681Zm-1.247-2.608a1.989,1.989,0,0,0-.832,1.53c1.265-.336,1.636-.743,1.636-1.149a.435.435,0,0,0-.442-.486.726.726,0,0,0-.362.105" transform="translate(-81.91 -188.779)"/>
          <path id="パス_29037" data-name="パス 29037" d="M203.809,211.917l-.876.045-.521,2.44c-.089.434-.045.531.053.531a1.956,1.956,0,0,0,.795-.513l.124.185c-.292.354-.955.947-1.424.947-.2,0-.38-.257-.185-1.168l.521-2.423h-.654l-.026-.08.221-.265h.53l.2-.84.672-.549.08.053-.31,1.335h1.026Z" transform="translate(-85.115 -187.899)"/>
          <path id="パス_29038" data-name="パス 29038" d="M211.131,215.521a6.464,6.464,0,0,0,1.247-2.282.928.928,0,0,0-.089-.406.241.241,0,0,1,0-.221.426.426,0,0,1,.362-.257c.222,0,.381.194.381.5a1.991,1.991,0,0,1-.362.928c-.3.486-1.372,1.962-1.867,2.644h-.247c-.071-.937-.159-1.866-.247-2.759h-.018c-.566.945-1.212,1.98-1.689,2.759h-.23c-.008-.858-.053-2-.088-2.848-.018-.424-.053-.583-.141-.583-.062,0-.2.107-.522.451l-.151-.177c.372-.5.831-.92,1.132-.92.2,0,.3.266.318.876.018.707.026,1.5.026,2.087h.018c.531-.911,1.122-1.875,1.645-2.83h.221c.1.991.177,2.016.283,3.033Z" transform="translate(-87.538 -188.779)"/>
          <path id="パス_29039" data-name="パス 29039" d="M219.046,215.051a2.69,2.69,0,0,1,1.345-2.414,2.242,2.242,0,0,1,.955-.284c.733,0,1.176.5,1.176,1.38a2.862,2.862,0,0,1-.946,2.139,2.2,2.2,0,0,1-1.362.558c-.84,0-1.168-.664-1.168-1.38m1.769.972a2.59,2.59,0,0,0,.963-2.272c0-.716-.309-1.061-.716-1.061a.79.79,0,0,0-.336.079,2.442,2.442,0,0,0-.937,2.238c0,.654.274,1.07.743,1.07a.73.73,0,0,0,.283-.053" transform="translate(-92.328 -188.779)"/>
          <path id="パス_29040" data-name="パス 29040" d="M227.54,213.221a2.546,2.546,0,0,1,1.238-.867c.221,0,.231.407.1,1.026l-.087.442h.026c.45-.866.972-1.468,1.326-1.468a.477.477,0,0,1,.379.221.392.392,0,0,1-.008.381.936.936,0,0,1-.231.256c-.08.053-.151.053-.195.009a.411.411,0,0,0-.3-.151c-.106,0-.247.089-.451.372a6.008,6.008,0,0,0-.627,1.1c-.141.593-.249,1.149-.355,1.733a3.29,3.29,0,0,0-.628.16l-.07-.071c.229-.947.477-2.034.644-2.98.053-.291.053-.38-.018-.38a1.75,1.75,0,0,0-.627.424Z" transform="translate(-95.844 -188.779)"/>
          <path id="パス_29041" data-name="パス 29041" d="M237.934,213.984c-.416.655-.787.805-.973.805s-.362-.107-.583-.584a17.659,17.659,0,0,1-.672-1.645,3.856,3.856,0,0,0-.495.566c-.1.478-.2.991-.3,1.495a3.843,3.843,0,0,0-.637.168l-.062-.053c.424-1.8.822-3.581,1.2-5.421.071-.353.027-.389-.318-.4l-.274-.008.045-.213a8.53,8.53,0,0,0,1.3-.309c.088,0,.079.08.044.256-.3,1.318-.583,2.618-.884,3.936h.009a9.442,9.442,0,0,1,.761-.8c.494-.5,1.14-1.07,1.547-1.07.239,0,.372.142.372.274a.617.617,0,0,1-.177.354c-.053.044-.106.062-.141.044a.8.8,0,0,0-.336-.07c-.406,0-.9.46-1.149.734a10.4,10.4,0,0,0,.725,1.741c.159.328.247.425.345.425s.283-.151.5-.407Z" transform="translate(-98.605 -187.137)"/>
          <g id="グループ_31552" data-name="グループ 31552">
            <path id="パス_29042" data-name="パス 29042" d="M8.917,170.655c-.317-1.11-.828-2.361-2.326-2.361a1.824,1.824,0,0,0-1.921,1.9c0,1.233.811,1.832,2.238,2.554,1.462.741,3.048,1.587,3.048,3.525,0,1.886-1.586,3.383-3.983,3.383a5.637,5.637,0,0,1-1.727-.264,6.222,6.222,0,0,1-.916-.37,21.675,21.675,0,0,1-.476-2.784L3.4,176.1c.282,1.093,1.11,2.908,2.908,2.908a1.916,1.916,0,0,0,2.061-2.061c0-1.252-.934-1.886-2.255-2.591-1.251-.652-2.943-1.551-2.943-3.489,0-1.727,1.392-3.19,3.7-3.19a7.251,7.251,0,0,1,2.255.423c.07.634.176,1.339.317,2.449Z" transform="translate(-2.855 -167.677)"/>
            <path id="パス_29043" data-name="パス 29043" d="M21.959,185.45A1.04,1.04,0,1,1,23,186.525a1.014,1.014,0,0,1-1.04-1.074" transform="translate(-10.761 -174.595)"/>
            <path id="パス_29044" data-name="パス 29044" d="M32.583,179.582v-.511c1.41-.106,1.569-.211,1.569-1.71v-6.995c0-1.5-.159-1.6-1.569-1.727v-.511h4.775v.511c-1.409.123-1.568.229-1.568,1.727v6.995c0,1.5.159,1.6,1.568,1.71v.511Z" transform="translate(-15.158 -167.864)"/>
            <path id="パス_29045" data-name="パス 29045" d="M47.777,185.45a1.04,1.04,0,1,1,1.04,1.074,1.014,1.014,0,0,1-1.04-1.074" transform="translate(-21.446 -174.595)"/>
            <path id="パス_29046" data-name="パス 29046" d="M70.182,168.639c-.986.052-1.392.282-1.48,1.057-.053.546-.105,1.339-.105,2.96v7.085H68L60.525,170.6H60.49v4.334a29.5,29.5,0,0,0,.106,2.961c.089.863.476,1.11,1.692,1.181v.511H58.093v-.511c1-.071,1.445-.3,1.533-1.145a29.038,29.038,0,0,0,.123-3v-3.841c0-1.251-.035-1.375-.37-1.8a1.865,1.865,0,0,0-1.551-.652v-.511H60.56l7.243,8.635h.052v-4.106a26.591,26.591,0,0,0-.123-2.925c-.088-.774-.494-1.022-1.744-1.092v-.511h4.194Z" transform="translate(-25.607 -167.864)"/>
            <path id="パス_29047" data-name="パス 29047" d="M106.321,168.639c-1.428.123-1.569.211-1.569,1.692v7.049c0,1.481.141,1.569,1.569,1.692v.511h-4.846v-.511c1.48-.123,1.621-.211,1.621-1.692v-3.471h-5.78v3.471c0,1.481.141,1.569,1.551,1.692v.511H94.127v-.511c1.392-.123,1.533-.211,1.533-1.692v-7.049c0-1.481-.141-1.568-1.586-1.692v-.511h4.7v.511c-1.321.123-1.462.211-1.462,1.692v2.8h5.78v-2.8c0-1.463-.141-1.568-1.5-1.692v-.511h4.723Z" transform="translate(-40.607 -167.864)"/>
            <path id="パス_29048" data-name="パス 29048" d="M134.953,173.527a5.8,5.8,0,0,1-5.922,6.133,5.72,5.72,0,0,1-5.779-5.886,5.891,5.891,0,0,1,5.974-6.1,5.678,5.678,0,0,1,5.727,5.85m-9.728-.211c0,3.242,1.727,5.692,4.177,5.692,1.9,0,3.577-1.639,3.577-5,0-3.683-1.832-5.675-4.106-5.675-1.921,0-3.648,1.727-3.648,4.987" transform="translate(-52.683 -167.677)"/>
            <path id="パス_29049" data-name="パス 29049" d="M160.159,176.781c-.105.581-.475,2.273-.634,2.8h-8.088v-.511c1.48-.106,1.638-.229,1.638-1.727v-6.995c0-1.5-.124-1.587-1.55-1.71v-.511h4.74v.511c-1.374.105-1.55.193-1.55,1.71v6.943c0,.934.087,1.268.423,1.445a3.668,3.668,0,0,0,1.621.212c.934,0,1.533-.088,1.939-.547a5.045,5.045,0,0,0,.915-1.744Z" transform="translate(-64.348 -167.864)"/>
            <path id="パス_29050" data-name="パス 29050" d="M179.038,168.129c2.238,0,3.895.458,5,1.515a5.129,5.129,0,0,1,1.5,3.771,5.639,5.639,0,0,1-2.168,4.7,8.525,8.525,0,0,1-5.269,1.463h-4.229v-.511c1.5-.106,1.639-.212,1.639-1.71v-7.013c0-1.5-.141-1.586-1.48-1.692v-.529Zm-1.867,9.11c0,1.322.529,1.674,1.8,1.674,3.137,0,4.687-2.344,4.687-5.234a4.656,4.656,0,0,0-1.956-4.141,5.051,5.051,0,0,0-2.96-.793,2.638,2.638,0,0,0-1.34.229c-.159.123-.229.335-.229,1Z" transform="translate(-73.634 -167.864)"/>
            <path id="パス_29051" data-name="パス 29051" d="M202.149,179.582v-.511c1.41-.106,1.568-.211,1.568-1.71v-6.995c0-1.5-.159-1.6-1.568-1.727v-.511h4.775v.511c-1.409.123-1.568.229-1.568,1.727v6.995c0,1.5.159,1.6,1.568,1.71v.511Z" transform="translate(-85.335 -167.864)"/>
            <path id="パス_29052" data-name="パス 29052" d="M230.566,168.639c-.986.052-1.392.282-1.479,1.057a29.5,29.5,0,0,0-.106,2.96v7.085h-.6L220.91,170.6h-.035v4.334a29.426,29.426,0,0,0,.106,2.961c.088.863.475,1.11,1.692,1.181v.511h-4.194v-.511c1-.071,1.445-.3,1.534-1.145a29.275,29.275,0,0,0,.123-3v-3.841c0-1.251-.035-1.375-.37-1.8a1.864,1.864,0,0,0-1.55-.652v-.511h2.731l7.242,8.635h.053v-4.106a26.378,26.378,0,0,0-.124-2.925c-.087-.774-.493-1.022-1.744-1.092v-.511h4.194Z" transform="translate(-91.984 -167.864)"/>
            <path id="パス_29053" data-name="パス 29053" d="M258.724,174.567c-1.022.159-1.11.247-1.11,1.3v1.48a7.907,7.907,0,0,0,.124,1.657,17.1,17.1,0,0,1-3.948.652c-3.929,0-6.52-2.4-6.52-5.9,0-4.071,3.278-6.079,6.767-6.079a14.905,14.905,0,0,1,3.4.511c.053.6.141,1.569.282,2.784l-.529.106a3.094,3.094,0,0,0-3.436-2.749c-2.573,0-4.529,1.974-4.529,5.2,0,2.573,1.462,5.5,4.776,5.5a3.1,3.1,0,0,0,1.427-.3c.335-.176.529-.423.529-1.11v-1.533c0-1.269-.105-1.374-1.85-1.516v-.511h4.617Z" transform="translate(-104.009 -167.677)"/>
            <path id="パス_29054" data-name="パス 29054" d="M281,170.655c-.316-1.11-.827-2.361-2.326-2.361a1.824,1.824,0,0,0-1.921,1.9c0,1.233.811,1.832,2.238,2.554,1.462.741,3.048,1.587,3.048,3.525,0,1.886-1.586,3.383-3.983,3.383a5.64,5.64,0,0,1-1.727-.264,6.22,6.22,0,0,1-.916-.37,21.676,21.676,0,0,1-.476-2.784l.546-.141c.283,1.093,1.111,2.908,2.908,2.908a1.916,1.916,0,0,0,2.061-2.061c0-1.252-.934-1.886-2.255-2.591-1.251-.652-2.943-1.551-2.943-3.489,0-1.727,1.392-3.19,3.7-3.19a7.251,7.251,0,0,1,2.255.423c.07.634.176,1.339.318,2.449Z" transform="translate(-115.463 -167.677)"/>
          </g>
        </g>
      </g>
    </g>
  </g>
</svg>
