<svg xmlns="http://www.w3.org/2000/svg" width="203.504" height="52.725" viewBox="0 0 203.504 52.725">
  <g id="グループ_26294" data-name="グループ 26294" transform="translate(-1116.648 -354.38)">
    <path id="パス_38587" data-name="パス 38587" d="M-100.352-5.516c.056,2.016.056,3.556.084,4.2A7.239,7.239,0,0,0-95.4.42c3.3,0,6.216-2.1,6.216-5.4,0-2.268-1.372-3.752-3.3-5.18l-.84-.616c-1.456-1.092-2.52-2.1-2.52-3.7a3.052,3.052,0,0,1,3.052-3.192c2.408,0,3.136,2.016,3.36,4.06l.84-.084c.028-1.344,0-2.828.084-3.976-.224-.084-.672-.28-1.2-.476a8.994,8.994,0,0,0-2.772-.476c-3.36,0-5.74,2.1-5.74,5.068,0,2.324,1.792,3.892,3.164,4.956l.812.616c1.6,1.26,2.52,2.352,2.52,3.892a3.209,3.209,0,0,1-3.3,3.528c-3.052,0-4.228-2.968-4.508-5.04Zm31.976-12.656h-6.076l-.224.784.812.112c1.064.168,1.232.392.644,1.372-1.092,1.848-3.052,4.648-4.368,6.5-.784-1.96-1.9-5.068-2.464-6.636-.252-.84-.2-1.064.728-1.2l.952-.14.2-.784h-6.636l-.224.784c1.764.2,1.96.336,2.6,2.044,1.092,2.884,1.764,4.732,2.38,6.44a2.535,2.535,0,0,1,.14,1.68l-.728,3.7c-.476,2.408-.672,2.576-2.968,2.744L-83.8,0h7.728l.2-.784c-2.492-.224-2.716-.364-2.24-2.744l.784-3.864a4.157,4.157,0,0,1,.7-1.624c1.82-2.6,3.276-4.676,4.508-6.216,1.428-1.792,1.764-1.96,3.528-2.156Zm24.3,0h-4.7L-57.26-4.508c-1.092-4.872-2.016-9.184-2.94-13.664h-4.844l-.224.784c2.6.224,2.772.476,1.96,3.192l-1.624,5.572c-1.008,3.388-1.512,4.984-1.96,6.1-.476,1.2-1.036,1.6-2.6,1.736l-.2.784h6.328l.168-.784c-2.016-.2-2.3-.532-2.1-1.764A51.819,51.819,0,0,1-64.008-7.9l2.016-7.28h.084C-60.9-9.828-60-5.1-59.136-.112h.672l9.1-15.316h.084c-.588,3.864-1.2,7.5-1.82,11.62-.42,2.66-.56,2.8-2.66,3.024l-.2.784H-46.7l.168-.784c-2.212-.224-2.38-.308-2.044-3.024.476-3.668.9-6.944,1.512-11,.336-2.268.42-2.38,2.8-2.576Zm4,0-.168.784c2.212.2,2.38.364,1.96,2.436l-2.24,11.564c-.448,2.24-.672,2.408-2.8,2.6l-.2.784h6.1A13.478,13.478,0,0,0-31.64-.98a5.052,5.052,0,0,0,3.192-4.536c0-2.576-1.932-3.92-4.116-4.368V-9.94c2.492-.5,4.592-1.82,4.592-4.368,0-2.828-2.128-3.864-5.4-3.864Zm3.36,7.9,1.008-5.432c.14-.756.308-1.092.532-1.26a2.153,2.153,0,0,1,1.26-.28c1.568,0,3.192.7,3.192,2.968,0,2.408-1.624,4-4.7,4Zm-.2.952h1.26c2.3,0,4.284.9,4.284,3.668A4.426,4.426,0,0,1-35.924-.98c-1.708,0-2.492-.392-2.1-2.492Zm23.184-9.3c-5.88,0-10.22,5.236-10.22,11.088,0,4.76,3.052,7.952,7.476,7.952,5.992,0,10.248-5.04,10.248-11C-6.216-15.288-9.212-18.62-13.72-18.62Zm-.2,1.008c3.472,0,4.76,2.968,4.76,6.664,0,4.648-2.6,10.36-7.084,10.36-3.3,0-4.788-2.884-4.788-6.608C-21.028-12.18-18.144-17.612-13.916-17.612ZM8.68-4.732A11.68,11.68,0,0,1,6.692-1.876c-.7.672-1.652.868-3.22.868A4.327,4.327,0,0,1,1.008-1.4C.588-1.764.56-2.408.728-3.416L2.94-14.924c.392-2.1.5-2.268,2.744-2.464l.168-.784H-1.4l-.168.784C.7-17.192.84-17.052.42-14.924L-1.848-3.3c-.42,2.128-.616,2.352-2.772,2.52l-.2.784H7.7c.42-.9,1.428-3.5,1.792-4.424Zm35.756-13.44h-4.7L31.248-4.508c-1.092-4.872-2.016-9.184-2.94-13.664H23.464l-.224.784c2.6.224,2.772.476,1.96,3.192L23.576-8.624c-1.008,3.388-1.512,4.984-1.96,6.1-.476,1.2-1.036,1.6-2.6,1.736l-.2.784h6.328l.168-.784c-2.016-.2-2.3-.532-2.1-1.764A51.818,51.818,0,0,1,24.5-7.9l2.016-7.28H26.6C27.608-9.828,28.5-5.1,29.372-.112h.672l9.1-15.316h.084c-.588,3.864-1.2,7.5-1.82,11.62-.42,2.66-.56,2.8-2.66,3.024l-.2.784H41.8l.168-.784c-2.212-.224-2.38-.308-2.044-3.024.476-3.668.9-6.944,1.512-11,.336-2.268.42-2.38,2.8-2.576ZM62.244-.784c-1.96-.224-2.128-.448-2.492-2.548-.616-3.416-1.232-6.972-1.82-10.612L57.2-18.592l-.98.252L47.88-3.584c-1.344,2.408-1.652,2.548-3.36,2.8L44.3,0h6.076l.2-.784c-2.156-.2-2.324-.42-1.54-2.016C49.616-4.06,50.4-5.572,50.9-6.5h5.768c.252,1.54.476,2.828.644,3.976.168,1.232.056,1.54-1.848,1.736L55.244,0h6.8ZM56.476-7.728H51.52c1.2-2.324,2.492-4.592,3.808-7.056h.056ZM81.284-.5A3.371,3.371,0,0,1,79.436-1.82,20.924,20.924,0,0,1,77.7-4.788c-.644-1.288-1.372-3.024-1.652-3.752,2.268-.784,4.368-2.492,4.368-5.32A3.858,3.858,0,0,0,78.68-17.3a7.425,7.425,0,0,0-4.032-.868H68.376l-.168.784c2.212.2,2.324.308,1.9,2.576L67.928-3.556c-.476,2.408-.644,2.548-2.772,2.772L64.96,0h7.252l.168-.784c-2.212-.2-2.408-.364-1.932-2.8l.784-4.368h1.092c.98,0,1.344.252,1.764,1.288.588,1.428,1.176,2.828,1.876,4.144.98,1.848,1.9,2.632,4.76,2.744h.336ZM71.428-8.876l1.316-6.86c.14-.728.28-1.064.5-1.232a2.054,2.054,0,0,1,1.232-.28c1.932,0,3.164,1.2,3.164,3.612a4.846,4.846,0,0,1-2.072,4.06,5.156,5.156,0,0,1-2.94.7Zm31.724-9.3H96.628l-.2.784.784.112c.98.14,1.036.392.224,1.2C95.508-14.14,93.352-12.208,91.9-11a6.544,6.544,0,0,1-2.1,1.232l.952-4.928c.448-2.3.588-2.464,2.688-2.688l.168-.784h-7l-.2.784c2.184.224,2.324.392,1.876,2.688L86.156-3.584c-.448,2.436-.672,2.6-2.66,2.8L83.272,0h7.084l.168-.784c-2.212-.2-2.324-.364-1.876-2.8l.98-5.348c.56-.252.98-.112,1.512.812C92.736-5.432,94.528-2.6,96.208,0h4.256l.2-.784c-1.54-.2-1.96-.448-3.052-1.932-1.316-1.876-3.5-5.236-4.928-7.7,2.324-2.016,4.284-3.724,5.992-5.1a6.71,6.71,0,0,1,4.284-1.9Z" transform="translate(1217 373)" fill="#fff"/>
    <path id="パス_38588" data-name="パス 38588" d="M-54.24-.48c.195,0,.915-.675,1.095-.795,6.21-4.35,7.53-7.56,7.53-7.725a.055.055,0,0,0-.06-.06,7.15,7.15,0,0,0-.645.675C-49.9-4.32-53.94-2.07-54.585-2.07c-.12,0-.69-.195-.825-.195-.09,0-.135.045-.135.105a.637.637,0,0,0,.09.285c.045.075.315.39.36.465C-54.72-.72-54.57-.48-54.24-.48Zm-.57-6.915c-.2,0-1.05.015-1.05.225,0,.06.09.12.135.15A3.639,3.639,0,0,1-54.36-5.775c.225.375.3.465.525.465.36,0,.585-.45.585-.75C-53.25-6.8-54.165-7.395-54.81-7.395Zm1.74-2.865a1.786,1.786,0,0,0-1.155.285c0,.045.165.09.225.105a2.611,2.611,0,0,1,1.29.795c.54.645.615.7.78.7.24,0,.48-.33.48-.675C-51.45-9.09-51.45-10.26-53.07-10.26Zm18.2,1.86c0-.885-1.26-1.74-2.865-1.74-.21,0-.33.075-.33.135s.075.1.135.135A3.379,3.379,0,0,1-36.57-8.64c.495.75.645.99,1.05.99A.663.663,0,0,0-34.875-8.4Zm6.24-.135a.1.1,0,0,0-.075-.075c-.03,0-.45.42-.69.66-2.49,2.46-6.465,5.115-7.2,5.115a2.483,2.483,0,0,1-1.02-.345,3.735,3.735,0,0,0-.45-.285c-.135,0-.15.69-.15.8,0,.6,1.11,1.56,1.92,1.56.225,0,.255-.03.54-.375a10.475,10.475,0,0,1,1.47-1.23A20.41,20.41,0,0,0-28.635-8.535Zm11.88,2.325c0-.855.135-.855,1.425-.855.12,0,1.215.015,1.785.075.21.03,1.185.195,1.41.195.06,0,.39-.015.39-.3,0-.255-.21-.375-.375-.48a3.153,3.153,0,0,0-1.455-.51c-.165,0-.96.195-1.155.225a13.315,13.315,0,0,1-1.455.15c-.39,0-.585-.075-.585-.54A3.746,3.746,0,0,1-16.635-9.4a3.168,3.168,0,0,0,.27-.5c0-.12-.375-.78-1.41-.78-.345,0-.51.105-.51.15,0,.075.255.315.285.39a5.488,5.488,0,0,1,.315,1.92c0,.495-.15.6-.72.63-.45.015-2.07.1-2.415.1a4.435,4.435,0,0,1-1.335-.15c-.195-.075-.225-.09-.285-.09-.09,0-.1.06-.1.135,0,.3.75,1.32,1.08,1.32a4.467,4.467,0,0,0,.6-.165c.885-.225,2.685-.48,2.775-.48.405,0,.435.27.435.99,0,.81,0,2.31-.075,3.015-.03.24-.1.405-.3.405-.1,0-.6-.2-.7-.2a.055.055,0,0,0-.06.06c0,.045.03.075.09.18a4.26,4.26,0,0,1,.555,1.065c.315.87.345.96.675.96.8,0,.8-.99.8-1.215C-16.68-2.3-16.755-5.49-16.755-6.21Zm4.515,4.47c.495.015.675-.48.675-.825,0-1.26-2.415-2.715-3.21-2.715-.03,0-.1,0-.1.075a3.456,3.456,0,0,0,.6.63A5.344,5.344,0,0,1-13.065-2.73C-12.795-2.085-12.66-1.74-12.24-1.74Zm-9.885-.345a.732.732,0,0,0,.285.06c.99,0,1.695-1.815,1.695-2.52,0-.045-.015-.18-.075-.18s-.225.15-.3.225a12.852,12.852,0,0,1-1.47,1.155c-.435.27-.57.42-.57.705A.6.6,0,0,0-22.125-2.085ZM-12.6-11.67c-.285,0-.555.075-.555.18,0,.045.045.1.2.165a3.634,3.634,0,0,1,1.3.84c.27.345.465.57.78.57.255,0,.375-.27.375-.45C-10.5-11.01-11.355-11.67-12.6-11.67ZM-14.01-10.4c-.135,0-.255.105-.255.15,0,.06.165.165.24.21a4.27,4.27,0,0,1,1.125.81c.51.54.63.6.81.6.24,0,.42-.285.42-.585a1.205,1.205,0,0,0-.66-.855A2.629,2.629,0,0,0-14.01-10.4ZM-1.68-7.68c0-.765-1.59-1.275-1.7-1.275-.06,0-.075.03-.075.075a1.113,1.113,0,0,0,.06.27,3.29,3.29,0,0,1,.255,1.29,7.944,7.944,0,0,1-1.815,4.4,4.248,4.248,0,0,0-.6.795.07.07,0,0,0,.075.075A5.223,5.223,0,0,0-2.7-4.9C-2.445-5.475-1.68-7.635-1.68-7.68ZM.96-2.28c.1-.015.24-.12.495-.405a8.335,8.335,0,0,1,1.035-.96,12.6,12.6,0,0,0,3.495-4.29.065.065,0,0,0-.06-.06c-.06,0-1.335,1.35-1.59,1.605C2.9-4.935,1.515-3.945,1.065-3.945c-.27,0-.285-.3-.285-.495,0-.495.06-2.31.12-2.715.03-.165.24-.945.24-1.125,0-.78-1.575-1.05-1.65-1.05-.03,0-.09.015-.09.075a3.9,3.9,0,0,0,.195.54A9.2,9.2,0,0,1-.12-5.895c0,.375-.015,1.56-.06,1.845-.015.075-.09.465-.09.54C-.27-3.09.525-2.2.96-2.28ZM12.84-7.515a4.173,4.173,0,0,1-.87-.075,5.142,5.142,0,0,0-.495-.18c-.1,0-.1.21-.1.24,0,.7,1.215,1.5,1.455,1.5.045,0,.975-.435,1.17-.495a46.588,46.588,0,0,1,6.12-1.215c.12,0,.3.015.3.195,0,.435-2,3.255-2.445,3.255-.09,0-2.115-.72-2.52-.72a.122.122,0,0,0-.135.12c0,.06.015.075.165.18A10.872,10.872,0,0,1,17.7-2.82c.87.975.96,1.08,1.35,1.08a.525.525,0,0,0,.51-.585A1.69,1.69,0,0,0,19.1-3.36c-.45-.495-.51-.555-.51-.675a.353.353,0,0,1,.075-.15c.27-.285.765-.645.975-.825,1.305-1.1,1.455-1.215,2.265-1.32.36-.045.585-.12.585-.33,0-.75-1.62-1.98-1.935-1.98-.03,0-1.335.315-1.575.36A54.356,54.356,0,0,1,12.84-7.515ZM30.8-6.045a8.169,8.169,0,0,1-1.83-.135c-.075-.015-.435-.18-.51-.18s-.12.09-.12.18c0,.51.69,1.44,1.335,1.44.18,0,.99-.24,1.17-.27.36-.075,3.8-.27,5.865-.27.3,0,1.8.03,2.145.03.63,0,1.245-.045,1.245-.465,0-.105-.135-.66-1.05-.66-.075,0-.24.015-.33.015C36.525-6.24,31.29-6.045,30.8-6.045Zm19.515-4.08c.12.9-1.305,2.97-2.52,4.185A12.721,12.721,0,0,0,46.6-4.815c0,.045.03.09.1.09a4.584,4.584,0,0,0,1.44-.8,11.276,11.276,0,0,0,2.04-1.95c.63-.72.66-.75.945-.75.09,0,.5.045.585.045.36,0,2.43-.465,2.46-.465a.162.162,0,0,1,.165.165c0,.465-2.85,5.58-7.425,8.1-.465.255-.51.285-.51.345a.134.134,0,0,0,.135.135,10.261,10.261,0,0,0,2.985-1.44,18.342,18.342,0,0,0,5.37-5.64c.525-.81.585-.9.75-1.005.495-.3.6-.36.6-.57a.544.544,0,0,0-.285-.375c-.075-.045-.465-.255-.555-.3-.615-.36-.69-.4-.825-.4a2.8,2.8,0,0,0-.705.24,8.49,8.49,0,0,1-2.28.6c-.06,0-.24,0-.24-.12,0-.075.045-.135.12-.24.3-.375.45-.57.45-.75a1.4,1.4,0,0,0-1.4-.84c-.12,0-.33,0-.33.15C50.2-10.53,50.295-10.2,50.31-10.125Z" transform="translate(1175 407)" fill="#fff"/>
  </g>
</svg>
