<svg xmlns="http://www.w3.org/2000/svg" width="58.248" height="18.47" viewBox="0 0 58.248 18.47">
  <g id="グループ_26335" data-name="グループ 26335" transform="translate(-1268.506 -30.03)">
    <path id="パス_38722" data-name="パス 38722" d="M-19.152-3.186c-1.062,1.638-2.142,2.808-3.87,2.808-2.286,0-3.546-1.98-3.546-4.572,0-3.366,2.142-6.354,5.2-6.354,1.71,0,2.646.612,2.79,2.772l.558-.054c.072-.9.108-1.89.144-2.808a8.844,8.844,0,0,0-3.1-.576c-4.158,0-7.524,2.772-7.524,7.074C-28.494-1.548-26.226.27-23.2.27a12.97,12.97,0,0,0,3.114-.45,21.945,21.945,0,0,0,1.422-2.754Zm11.538.144A7.509,7.509,0,0,1-8.892-1.206a2.774,2.774,0,0,1-2.07.558A2.781,2.781,0,0,1-12.546-.9c-.27-.234-.288-.648-.18-1.3l1.422-7.4c.252-1.35.324-1.458,1.764-1.584l.108-.5h-4.662l-.108.5c1.458.126,1.548.216,1.278,1.584l-1.458,7.47c-.27,1.368-.4,1.512-1.782,1.62l-.126.5h8.046c.27-.576.918-2.25,1.152-2.844ZM2.556-11.97c-3.78,0-6.57,3.366-6.57,7.128C-4.014-1.782-2.052.27.792.27,4.644.27,7.38-2.97,7.38-6.8,7.38-9.828,5.454-11.97,2.556-11.97Zm-.126.648c2.232,0,3.06,1.908,3.06,4.284C5.49-4.05,3.816-.378.936-.378c-2.124,0-3.078-1.854-3.078-4.248C-2.142-7.83-.288-11.322,2.43-11.322Zm7.632,7.776c.036,1.3.036,2.286.054,2.7A4.654,4.654,0,0,0,13.248.27c2.124,0,4-1.35,4-3.474,0-1.458-.882-2.412-2.124-3.33l-.54-.4c-.936-.7-1.62-1.35-1.62-2.376a1.962,1.962,0,0,1,1.962-2.052c1.548,0,2.016,1.3,2.16,2.61l.54-.054c.018-.864,0-1.818.054-2.556-.144-.054-.432-.18-.774-.306a5.782,5.782,0,0,0-1.782-.306c-2.16,0-3.69,1.35-3.69,3.258a4.253,4.253,0,0,0,2.034,3.186l.522.4c1.026.81,1.62,1.512,1.62,2.5A2.063,2.063,0,0,1,13.482-.36c-1.962,0-2.718-1.908-2.9-3.24Zm11.79-8.136-.126.5c1.476.126,1.566.234,1.278,1.674L21.6-2.178C21.312-.738,21.168-.63,19.728-.5L19.6,0h8.5c.252-.576.918-2.268,1.116-2.79l-.522-.18a7.337,7.337,0,0,1-1.224,1.71c-.486.468-1.026.612-2.322.612-.972,0-1.494-.036-1.764-.27-.234-.216-.252-.684-.072-1.674l.594-3.15h1.638c1.548,0,1.548.126,1.512,1.422h.54l.684-3.456h-.54c-.432,1.188-.54,1.314-2.052,1.314H24.048l.738-3.852c.126-.666.18-.738.81-.738h1.3c1.278,0,1.53.162,1.728.576a3.71,3.71,0,0,1,.252,1.6l.54-.036c.126-1.044.288-2.412.342-2.772Z" transform="translate(1297 42)" fill="#fff"/>
    <path id="パス_38501" data-name="パス 38501" d="M0,0H55.1" transform="translate(1269.895 48)" fill="none" stroke="#fff" stroke-width="1"/>
  </g>
</svg>
