<svg xmlns="http://www.w3.org/2000/svg" width="65.385" height="13.71" viewBox="0 0 65.385 13.71">
  <path id="パス_130447" data-name="パス 130447" d="M12.99-5.19c.51,0,.81,0,.81-.21a3.212,3.212,0,0,0-1.065-.945c-.135,0-.465.555-.555.645s-.165.105-.795.105h-1.26c-.165,0-.48,0-.48-.405,0-.54.075-.63.21-.735.255-.225.285-.255.285-.345,0-.15-.06-.18-.69-.45A1.907,1.907,0,0,0,8.775-7.7c-.12,0-.15.03-.15.135s.075.51.075.6c.045.39.075.84.075.945,0,.42-.285.42-.495.42H7.92c-.84,0-1.62-.03-2.055-.045-.105,0-.555-.06-.66-.06a.048.048,0,0,0-.045.045c0,.015,0,.015.06.09l.285.345c.06.075.09.105.135.105a1.99,1.99,0,0,0,.315-.045C6.27-5.175,7.23-5.2,7.575-5.2c.18,0,.465,0,.465.27a12.1,12.1,0,0,1-1.695,2.52C6.045-2.04,4.23-.27,4.23-.225a.032.032,0,0,0,.03.03A6.7,6.7,0,0,0,6.66-1.83c.66-.63,1.14-1.185,1.695-1.815A.27.27,0,0,1,8.58-3.78c.1,0,.165.06.165.1,0,.66-.15,3.615-.15,4.215,0,.285.09.585.39.585.72,0,.72-.675.72-.9,0-.57-.075-3.075-.075-3.585,0-.81,0-.855.12-.855s.12.045.21.285A9.459,9.459,0,0,0,12.78.03c.09,0,.405-.33.465-.375a1.717,1.717,0,0,1,.99-.255c.075-.015.24-.03.24-.135,0-.06-.12-.12-.33-.24a10.168,10.168,0,0,1-3.6-3.015,4.911,4.911,0,0,1-.63-.945c0-.165.135-.255.315-.255ZM9.21-10.725c0-.165.21-.2.4-.225.36-.06,2.55-.4,2.76-.4.285,0,.525-.03.525-.255,0-.18-.225-.285-.375-.375-.09-.045-.96-.495-.99-.495a5.726,5.726,0,0,0-.825.465,20.9,20.9,0,0,1-4.095,1.05c-.57.105-.645.12-.645.18s.06.075.555.075c.285,0,1.71-.105,2.04-.105a.372.372,0,0,1,.375.21A4.249,4.249,0,0,1,9.27-9.15c.045.615.075.855.435.855a.681.681,0,0,0,.6-.7c0-.6-.675-1.23-.84-1.4C9.315-10.53,9.21-10.635,9.21-10.725ZM5.04-8.985c.495,0,.8,0,.8-.21,0-.15-.645-.825-.84-.825-.165,0-.2.075-.375.36a.4.4,0,0,1-.405.255c-.33,0-.33-.315-.33-.5A6.212,6.212,0,0,1,4-11.43c.045-.075.345-.36.345-.45,0-.165-.09-.21-.48-.345-.15-.06-.915-.33-.99-.33-.105,0-.18.045-.18.12a2.332,2.332,0,0,0,.12.345,19.065,19.065,0,0,1,.09,2.3A.371.371,0,0,1,2.5-9.39c-.3,0-1.59-.105-1.845-.105-.03,0-.06.015-.06.045,0,.015,0,.015.06.09l.3.345c.045.06.075.105.135.105.03,0,.18-.03.21-.03.255-.03.87-.045,1.155-.045.36,0,.465.12.465.465,0,2.1,0,2.34-.12,2.535-.12.18-.18.195-.555.33A5.73,5.73,0,0,1,.84-5.28c-.12,0-.315,0-.315.09,0,.15.135.375.465.96.18.3.21.36.345.36.105,0,.42-.405.51-.465A3.639,3.639,0,0,1,2.64-4.71c.3,0,.3.15.3,1.335,0,.315,0,2.625-.015,2.73-.03.33-.285.405-.66.405-.105,0-.555-.015-.645-.015s-.285,0-.285.09.48.405.54.48c.075.09.315.54.39.615a.43.43,0,0,0,.345.18A1.629,1.629,0,0,0,3.645.54,1.751,1.751,0,0,0,3.93-.615c0-.405-.06-2.235-.06-2.6-.015-.54-.015-1.08-.015-1.605,0-.6.12-.675.975-1.17,1.1-.645,1.5-.855,1.5-1.005,0-.045-.06-.045-.09-.045-.18,0-1.89.735-2.13.735-.225,0-.24-.165-.24-.36V-8.55c0-.435.24-.435.54-.435Zm8.175-1.6a4.093,4.093,0,0,0-.6-.33c-.015,0-.045.24-.06.27a6.329,6.329,0,0,1-.72,1.62c-.12.225-.885,1.38-.885,1.455,0,.015.015.03.045.03.39,0,2.34-2.1,2.58-2.22.315-.165.345-.18.345-.27S13.845-10.185,13.215-10.59ZM7.605-8.625c-.06-.465-.27-.855-1.08-1.545-.315-.27-.36-.27-.435-.27-.015,0-.045,0-.045.045s.015.075.18.45a2.645,2.645,0,0,1,.21,1.065c.045.78.06,1.185.525,1.185A.76.76,0,0,0,7.605-8.625ZM23.6-4.05c.36,0,.465.15.465.48,0,.63-.09,3.39-.09,3.945,0,.195.015.39.315.39A1.13,1.13,0,0,0,24.99.5c.1-.1.15-.21.15-.5,0-1.155,0-2.385-.015-3.465-.015-.435.06-.585.465-.585h3.045c.165,0,.39,0,.45.27.03.12.03,1.17.03,1.365,0,1.9-.015,2.07-.6,2.07-.21,0-1.155-.075-1.35-.075-.075,0-.18.03-.18.09,0,.09.225.135.27.15.135.03,1.05.345,1.26.885.105.3.12.33.255.33,1.4,0,1.4-1.665,1.4-2.325,0-1.275-.09-6.81-.09-8.04,0-1.425.045-1.44.39-1.62.12-.06.24-.15.24-.285,0-.24-1.1-.855-1.215-.855-.1,0-.12.03-.375.3a.6.6,0,0,1-.525.18H21.255a2.1,2.1,0,0,1-1.185-.345,2.958,2.958,0,0,0-.75-.255c-.09,0-.1.03-.1.12,0,.03.1.885.12,1.05.1,1.11.135,3.57.135,4.755,0,3.735-.255,5.055-.87,6.33-.06.12-.42.7-.42.72a.084.084,0,0,0,.09.075,5.85,5.85,0,0,0,2.145-4.23c.06-.54.06-.66.495-.66Zm-2.67-4.14c-.45,0-.465,0-.465-1.71,0-1.245,0-1.3.45-1.3h2.73c.45,0,.45.045.45,1.5,0,1.515,0,1.515-.45,1.515ZM20.91-4.455c-.435,0-.435-.285-.435-.525,0-.345,0-2.46.015-2.535.06-.24.255-.27.42-.27h2.73c.45,0,.45.06.45,1.395a16.435,16.435,0,0,1-.06,1.755.384.384,0,0,1-.39.18ZM28.6-7.785c.465,0,.48.03.48,2.235,0,.99,0,1.1-.45,1.1h-3.06c-.1,0-.33,0-.405-.2a15.179,15.179,0,0,1-.06-1.71c0-1.38,0-1.425.465-1.425ZM28.53-11.2c.48,0,.5,0,.5,1.995,0,.855,0,1.02-.465,1.02H25.575c-.465,0-.465-.255-.465-.57,0-.36,0-2.085.015-2.175.06-.24.255-.27.45-.27Zm17.01,9.51c.135,0,.435,0,.435.36,0,1.185-.015,1.185-.18,1.275a2.938,2.938,0,0,1-.9.225c-.075,0-.18.03-.18.09s.345.18.405.21a1.673,1.673,0,0,1,.525.48c.045.075.09.135.165.135.225,0,1.2-.435,1.2-1.26,0-.5-.09-2.67-.09-3.1a13.322,13.322,0,0,1,.06-1.62c.015-.015.15-.165.24-.255a.319.319,0,0,0,.1-.225c0-.15-.06-.2-.315-.345-.525-.285-.585-.315-.69-.315s-.165.03-.36.255a.552.552,0,0,1-.45.165H42.195a1.558,1.558,0,0,1-.51-.075c-.135-.015-.735-.27-.87-.27-.105,0-.12.045-.12.165,0,.24.045,1.275.045,1.5,0,1.26-.015,2.655-.075,3.915,0,.165-.075.9-.075,1.05,0,.345.06.405.315.405a.7.7,0,0,0,.75-.78c0-.21,0-1.65.015-1.71.06-.24.24-.27.435-.27Zm0-3.525c.42,0,.42.195.42.96,0,.36-.315.36-.42.36H42.09c-.39,0-.39-.27-.39-.63,0-.435,0-.69.42-.69Zm.015,1.71c.42,0,.42.165.42.9,0,.285,0,.51-.435.51H42.1c-.435,0-.435-.225-.435-.48,0-.66,0-.93.39-.93ZM36.1-9.03c-.045,0-.09.075-.1.225a3.149,3.149,0,0,1-.615,1.71c-.435.51-.51.585-.51.84a.5.5,0,0,0,.51.495c.63,0,.99-.915.99-1.935C36.375-8.07,36.285-9.03,36.1-9.03Zm2.37-3c-.015-.105-.09-.18-.33-.225-.15-.03-1.05-.2-1.11-.2s-.06.06-.06.135c0,.015.015.3.03.45.075,1.215.09,1.425.09,2.415,0,1.875-.1,5.925-.165,8.1,0,.3-.09,1.755-.09,2.1,0,.255.1.375.27.375S37.9.96,37.95.57v-5.7c0-.735.1-5.385.12-6.03a.655.655,0,0,1,.21-.525A.439.439,0,0,0,38.475-12.03Zm3.66,4.8c-.855,0-1.635-.03-2.07-.06-.105,0-.555-.045-.66-.045-.015,0-.045,0-.045.03s0,.03.06.105l.285.345c.06.06.09.09.135.09.06,0,.27-.03.315-.03.525-.045,1.545-.045,1.9-.045h5.685c.51,0,.81,0,.81-.2a2.585,2.585,0,0,0-1.08-.9c-.15,0-.18.045-.48.45-.18.255-.255.255-.96.255h-1.4c-.435,0-.435-.225-.435-.66,0-.57,0-.795.435-.795h2.37c.495,0,.81,0,.81-.2,0-.27-1.05-.87-1.2-.87-.12,0-.45.48-.54.555-.12.12-.195.12-.825.12H44.64c-.435,0-.435-.27-.435-.6,0-.69,0-.885.45-.885H47.13c.495,0,.8,0,.8-.2s-.87-.855-.99-.855-.42.48-.495.54c-.135.12-.21.12-.84.12h-.93c-.135,0-.45,0-.45-.375a.936.936,0,0,1,.12-.42,1.952,1.952,0,0,0,.27-.375c0-.165-.165-.21-.255-.225a5.518,5.518,0,0,0-1.095-.18c-.06,0-.06.03-.06.075,0,.075.075.45.075.525,0,.84,0,.975-.435.975h-.51c-.855,0-1.635-.03-2.07-.06-.1,0-.555-.045-.66-.045-.015,0-.045,0-.045.03s0,.03.06.105l.285.345c.06.06.09.09.135.09.06,0,.27-.03.315-.03.525-.045,1.545-.045,1.9-.045h.57c.15,0,.465,0,.465.375,0,.885,0,1.11-.375,1.11-.285,0-1.845-.045-1.95-.06-.09,0-.465-.045-.54-.045-.015,0-.06,0-.06.03s.015.045.075.105l.285.345c.045.06.075.09.135.09.045,0,.27-.03.315-.03.39-.03,1.425-.045,1.53-.045.39,0,.54.06.54.42,0,.93,0,1.035-.45,1.035Zm-3.63-2.43c-.1-.03-.165.015-.165.09a.5.5,0,0,0,.06.21,2.837,2.837,0,0,1,.285.825c.15.975.165,1.08.525,1.08.33,0,.6-.3.6-.78C39.81-8.985,38.73-9.615,38.505-9.66ZM60.99-6.24c-.255,0-.525,0-.525-.435,0-.165.015-3.7.03-3.99.015-.4.24-.42.555-.42h2.175c.555,0,.585.075.585.765,0,.66,0,1.29-.03,1.545-.045.435-.15.435-1.11.435-.06,0-.21,0-.21.045s.495.465.675.66a5.186,5.186,0,0,0,.33.465.3.3,0,0,0,.195.09,1.767,1.767,0,0,0,.87-.615c.24-.345.24-.675.24-1.98,0-.555,0-.93.165-1.05.27-.2.3-.225.3-.345a1.72,1.72,0,0,0-1.05-1.065c-.1,0-.15.045-.525.48-.135.15-.165.165-.345.165H60.9a1.008,1.008,0,0,1-.6-.15,2.8,2.8,0,0,0-.825-.285c-.045,0-.045.06-.045.105,0,.12.045.69.06.81.03.99.03,4.605.03,5.85,0,1.38-.06,3.945-.12,5.175-.015.165-.015.465-.015.57,0,.345.075.57.36.57a.722.722,0,0,0,.735-.69c.015-.645.075-.675.585-1a14.407,14.407,0,0,0,1.17-.87c.06-.045.15-.135.225-.135s.15.075.285.24A7.418,7.418,0,0,0,64.26.18a3.026,3.026,0,0,0,.54-.27,2.3,2.3,0,0,1,.99-.225c.03,0,.12-.015.12-.09,0-.045-.045-.075-.48-.27a5.09,5.09,0,0,1-2.22-1.71c0-.09.5-.93.585-1.11a15.605,15.605,0,0,1,.84-1.665c.06-.045.375-.21.435-.24a.276.276,0,0,0,.12-.21c0-.285-.9-.81-.975-.81a2.447,2.447,0,0,0-.285.135.7.7,0,0,1-.255.045Zm2.1.39c.315,0,.51,0,.51.27,0,.42-.72,2.535-.99,2.535a4.824,4.824,0,0,1-1.305-2.64c0-.105.06-.165.21-.165ZM60.42-3.465c0-.63,0-1.26.015-1.89,0-.315.075-.495.48-.495.075,0,.135.045.15.165A6.2,6.2,0,0,0,61.35-3.96c.09.285.735,1.68.735,1.785a4.491,4.491,0,0,1-1.47,1.53A.149.149,0,0,1,60.45-.8v-.8C60.45-1.86,60.42-3.165,60.42-3.465ZM58.47-8.1c.51,0,.81,0,.81-.21s-1.035-.96-1.2-.96c-.15,0-.63.66-.78.72-.09.045-.195.06-.855.06-.315,0-.42-.06-.42-.39v-.855c0-.39.18-.39.51-.39h1.23c.495,0,.795,0,.795-.21a2.16,2.16,0,0,0-1.05-.9c-.15,0-.18.045-.51.465a.588.588,0,0,1-.585.24c-.27,0-.39-.09-.39-.375a1.776,1.776,0,0,1,.075-.645,2.335,2.335,0,0,0,.24-.42c0-.285-1.26-.54-1.335-.54-.045,0-.045.015-.045.06,0,.165.12,1.29.12,1.515,0,.255-.06.4-.375.4-.195,0-1.29-.06-1.41-.06-.075,0-.465-.03-.54-.03-.045,0-.06,0-.06.03,0,.015.015.03.06.09l.3.345c.045.075.075.1.135.1.03,0,.18-.03.21-.03.33-.045,1.05-.045,1.32-.045.315,0,.375.15.375.42v.81c0,.4-.09.4-.795.4-.285,0-1.44-.045-1.665-.06-.1,0-.585-.045-.69-.045-.03,0-.045,0-.045.03s0,.03.06.1l.285.345c.06.06.09.09.135.09s.27-.03.315-.03c.525-.045,1.56-.045,1.9-.045ZM54.84-5.97a1.487,1.487,0,0,0-.69-1.35,2.488,2.488,0,0,0-.63-.39c-.045,0-.075.015-.075.045a1.453,1.453,0,0,0,.045.165,4.7,4.7,0,0,1,.33,1.275c.075.675.09.885.45.885S54.84-5.76,54.84-5.97ZM52.47-4.71c.045.075.075.105.135.105.045,0,.27-.03.315-.03.27-.03.99-.045,1.275-.045.675,0,.825,0,.825.39,0,1.38,0,1.44-.39,1.44-.3,0-1.725-.105-2.055-.105-.03,0-.045,0-.045.03s.03.06.06.105l.285.345c.06.06.09.09.135.09s.255-.03.3-.03c.345-.03.855-.045,1.2-.045.255,0,.48.06.48.45,0,.33-.09,2.4-.09,2.715,0,.195.03.405.315.405A.837.837,0,0,0,56.04.2c0-.3-.045-1.86-.045-2.2,0-.45.285-.45.555-.45h1.59c.48,0,.81,0,.81-.195,0-.135-.78-1.005-1.065-1.005-.12,0-.165.045-.495.555-.165.255-.3.255-.84.255-.36,0-.51,0-.555-.255V-4.26c0-.375.135-.42.45-.42H58.29c.72,0,.795,0,.795-.195,0-.225-.825-.93-1.05-.93-.12,0-.15.045-.465.48-.18.255-.255.255-.99.255a.141.141,0,0,1-.15-.15,4.292,4.292,0,0,1,1.14-1.65c.225-.18.27-.21.27-.315,0-.39-1.08-.765-1.125-.765-.06,0-.09.015-.1.1-.03.18-.09,1.05-.12,1.245-.24,1.53-.36,1.53-.795,1.53H54.54c-.405,0-1.26-.045-1.7-.06-.09,0-.57-.045-.675-.045-.03,0-.06,0-.06.03,0,.015.015.03.075.105Z" transform="translate(-0.525 12.555)" fill="#fff"/>
</svg>
