<svg xmlns="http://www.w3.org/2000/svg" width="128.07" height="12.51" viewBox="0 0 128.07 12.51">
  <path id="パス_130446" data-name="パス 130446" d="M5.505-11.19l.03.06a1.664,1.664,0,0,1,.51.69c.18.48.18.96.18,5.25A31.047,31.047,0,0,1,6.09-1.71c0,.06-.06.375-.06.435,0,.39.39,1.41.84,1.41S7.3-.855,7.3-1.23c0-.225-.015-.6-.03-.765C7.215-3.345,7.2-4.14,7.2-5.73c0-1.11.06-1.11.21-1.11.465,0,1.17.7,1.59,1.26,1.005,1.3,1.05,1.365,1.425,1.365a.513.513,0,0,0,.54-.525c0-1.125-2.325-2.22-3.24-2.43-.435-.105-.495-.15-.495-.48a19.457,19.457,0,0,1,.135-2.085,4.347,4.347,0,0,0,.18-.63c0-.48-1.08-.96-1.62-.96C5.91-11.325,5.52-11.325,5.505-11.19Zm21.84,4.365c0,1.29-1.755,4.11-4.95,6.555a6.406,6.406,0,0,0-.84.63.1.1,0,0,0,.09.09,13.134,13.134,0,0,0,6.1-5.3,12.228,12.228,0,0,1,.765-1.29c.255-.15.315-.165.315-.285,0-.435-.6-.8-.84-.915a3.338,3.338,0,0,0-.675-.375.1.1,0,0,0-.1.1.956.956,0,0,0,.03.135A1.521,1.521,0,0,1,27.345-6.825Zm-6.57.5c-.105,0-.2.045-.2.135,0,.045.03.09.1.195a5.365,5.365,0,0,1,.87,1.515c.1.33.21.675.54.675a.546.546,0,0,0,.51-.57C22.6-5.58,21.135-6.33,20.775-6.33ZM23.37-7.71c-.075-.015-.15.03-.15.075a1.7,1.7,0,0,0,.165.33A4.708,4.708,0,0,1,23.94-5.88c.045.255.12.63.45.63.27,0,.51-.33.51-.765A1.9,1.9,0,0,0,23.37-7.71ZM47.31-11.7a1.425,1.425,0,0,0-1.47,1.425A1.474,1.474,0,0,0,47.3-8.82a1.463,1.463,0,0,0,1.44-1.455A1.4,1.4,0,0,0,47.31-11.7Zm-.03.51a1,1,0,0,1,.96.945.925.925,0,0,1-.93.915.931.931,0,0,1-.975-.9A.965.965,0,0,1,47.28-11.19ZM36.465-9.36c-.09,0-.135.045-.135.33,0,.825,1.2,1.575,1.545,1.575a5.44,5.44,0,0,0,.75-.33,49.219,49.219,0,0,1,5.4-1.08c.075,0,.33.015.33.27a8.475,8.475,0,0,1-1.02,2.535A19.523,19.523,0,0,1,37.41-.12c-.15.105-.195.135-.195.2a.1.1,0,0,0,.1.09,15.264,15.264,0,0,0,7.74-6.99,2.483,2.483,0,0,1,.585-.945c.27-.27.345-.345.345-.54s-.09-.375-.765-.975C44.76-9.69,44.52-9.9,44.19-9.9c-.105,0-.165.03-.63.24a38.836,38.836,0,0,1-5.655.7A3.534,3.534,0,0,1,36.66-9.27C36.63-9.27,36.5-9.36,36.465-9.36ZM56.49-7.755c-.1,0-.135.06-.135.12,0,.075.03.09.315.24.57.315,1.95,1.14,1.95,1.455a7.079,7.079,0,0,1-1.08,1.605A24.071,24.071,0,0,1,53.565-.66c-.18.15-.465.375-.465.435s.06.075.1.075a15.181,15.181,0,0,0,5.88-4.71.432.432,0,0,1,.315-.21c.21,0,.495.51.645.78.525.93.75,1.32,1.29,1.32a.47.47,0,0,0,.48-.5c0-.375-.18-1.185-1.47-2.325a.6.6,0,0,1-.255-.4.688.688,0,0,1,.15-.375c.315-.495.6-1.005.855-1.5.39-.735.435-.81.6-.9.33-.165.375-.18.375-.3a1.971,1.971,0,0,0-.645-1.08,2.338,2.338,0,0,0-1.005-.48.123.123,0,0,0-.12.135c0,.045.045.09.09.18a.668.668,0,0,1,.1.345,7.394,7.394,0,0,1-.555,1.8c-.18.435-.615,1.485-.93,1.485a8.129,8.129,0,0,1-.945-.405A6.027,6.027,0,0,0,56.49-7.755Zm22.155.93c0,1.29-1.755,4.11-4.95,6.555a6.406,6.406,0,0,0-.84.63.1.1,0,0,0,.09.09,13.134,13.134,0,0,0,6.105-5.3,12.227,12.227,0,0,1,.765-1.29c.255-.15.315-.165.315-.285,0-.435-.6-.8-.84-.915a3.338,3.338,0,0,0-.675-.375.1.1,0,0,0-.105.1.956.956,0,0,0,.03.135A1.521,1.521,0,0,1,78.645-6.825Zm-6.57.5c-.105,0-.195.045-.195.135,0,.045.03.09.1.195a5.365,5.365,0,0,1,.87,1.515c.1.33.21.675.54.675a.546.546,0,0,0,.51-.57C73.9-5.58,72.435-6.33,72.075-6.33ZM74.67-7.71c-.075-.015-.15.03-.15.075a1.7,1.7,0,0,0,.165.33A4.708,4.708,0,0,1,75.24-5.88c.045.255.12.63.45.63.27,0,.51-.33.51-.765A1.9,1.9,0,0,0,74.67-7.71ZM87.675-6.555c-.03,0-.09.015-.09.06s.6,1.2,1.365,1.2c.33,0,.42-.045,1.305-.51a10.933,10.933,0,0,1,1.41-.42c.21,0,.3.105.3.345s-.03,1.56-.03,1.86c0,2.49.315,3.165,2.91,3.165.81,0,3.33,0,3.33-.96a.581.581,0,0,0-.63-.48,5.652,5.652,0,0,0-1.245.21,12.723,12.723,0,0,1-1.65.15c-.9,0-1.74-.135-1.86-1.32-.03-.285-.03-1.635-.03-2.9a.563.563,0,0,1,.465-.645c.195-.06,2.445-.795,2.475-.795.165,0,.18.21.18.3a2.571,2.571,0,0,1-.42,1.245c-.03.06-.285.48-.285.495a.086.086,0,0,0,.09.09,12.465,12.465,0,0,0,1.125-.675c.54-.33.705-.435,1.02-.435.06,0,.345.03.4.03.195,0,.27-.12.27-.225,0-.615-1.605-1.77-2.01-1.77a4.254,4.254,0,0,0-.645.315,18.178,18.178,0,0,1-2.25.63.265.265,0,0,1-.3-.285,12.535,12.535,0,0,1,.225-1.44,4.559,4.559,0,0,0,.285-.675c0-.15-.27-.405-.315-.45-.69-.585-.855-.66-1.035-.66-.135,0-.69.12-.69.255a2.988,2.988,0,0,0,.18.285c.36.54.54.795.54,2.415,0,.795-.03.915-.435,1.02A12.26,12.26,0,0,1,88.5-6.45a3.327,3.327,0,0,1-.555-.045A.877.877,0,0,0,87.675-6.555Zm19.02.51a8.169,8.169,0,0,1-1.83-.135c-.075-.015-.435-.18-.51-.18s-.12.09-.12.18c0,.51.69,1.44,1.335,1.44.18,0,.99-.24,1.17-.27.36-.075,3.795-.27,5.865-.27.3,0,1.8.03,2.145.03.63,0,1.245-.045,1.245-.465,0-.105-.135-.66-1.05-.66-.075,0-.24.015-.33.015C112.425-6.24,107.19-6.045,106.695-6.045ZM123.6-7.2c-.09,0-1.05,0-1.05.225,0,.06.105.12.15.15a3.888,3.888,0,0,1,1.365,1.23c.225.375.3.465.525.465.36,0,.57-.435.57-.75C125.16-6.615,124.245-7.2,123.6-7.2Zm2.5-2.775a2.065,2.065,0,0,0-.765-.15c-.45,0-1.14.15-1.14.315,0,.06.015.06.225.135a2.537,2.537,0,0,1,1.305.81c.525.615.585.69.75.69.24,0,.5-.315.5-.7A1.311,1.311,0,0,0,126.1-9.975Zm-1.92,9.69c.165,0,.225-.045.78-.48.12-.09.18-.135,1.1-.7,5.88-3.705,6.63-6.03,6.63-6.06a.1.1,0,0,0-.09-.09c-.045,0-.915.885-1.08,1.05-2.64,2.43-6.72,4.665-7.53,4.665-.15,0-.825-.24-.87-.24a.11.11,0,0,0-.12.12.611.611,0,0,0,.075.27c.03.075.27.39.315.48C123.69-.63,123.87-.285,124.185-.285Zm7.44-11.775c-.27,0-.57,0-.57.135,0,.03.03.105.165.18a3.764,3.764,0,0,1,1.215.975c.21.345.42.66.735.66a.441.441,0,0,0,.4-.48C133.575-11.625,132.015-12.06,131.625-12.06Zm-1.725.96c-.09,0-.27.015-.27.105,0,.06.135.195.195.24a4.675,4.675,0,0,1,.96,1.005c.375.585.51.75.735.75.285,0,.48-.39.48-.57C132-10.365,130.77-11.1,129.9-11.1Z" transform="translate(-5.505 12.06)" fill="#fff"/>
</svg>
