<svg xmlns="http://www.w3.org/2000/svg" width="65.055" height="13.965" viewBox="0 0 65.055 13.965">
  <path id="パス_130445" data-name="パス 130445" d="M.675-5.88a14.875,14.875,0,0,0,6.57-4.815c.12-.15.36-.45.42-.45s.09.045.255.36a14.1,14.1,0,0,0,5.22,5.3c.09,0,.135-.045.2-.15a1.759,1.759,0,0,1,.96-.615c.375-.12.42-.135.42-.225s0-.075-.42-.195c-3.555-1.005-6.21-4.335-6.21-4.8,0-.06.015-.105.105-.15.15-.105.18-.12.18-.195,0-.255-1.4-.915-1.41-.915-.18,0-.18.06-.3.525-.075.33-1.02,2.115-3.585,4.3C2.1-7.08.87-6.21.765-6.135c-.18.12-.225.15-.225.21C.54-5.85.63-5.865.675-5.88ZM5.61-3.87c.255,0,.45,0,.45.255a10.5,10.5,0,0,1-.78,1.98c-.615,1.23-.72,1.23-1.56,1.23a7.949,7.949,0,0,1-.885-.06c-.09-.015-.555-.1-.66-.1-.045,0-.12,0-.12.1a11.851,11.851,0,0,0,.825,1.59.171.171,0,0,0,.15.105A3.136,3.136,0,0,0,3.465.99a65.664,65.664,0,0,1,6.96-1.38c.21,0,.345.045.63.555.27.495.585,1.05,1.02,1.05.285,0,.585-.33.585-.81,0-.945-.93-1.485-1.335-1.725a13.952,13.952,0,0,0-1.9-.93c-.045,0-.105.015-.105.09,0,.18.885.945.885,1.17,0,.15-.12.165-1.2.27-1.665.165-3.075.255-3.27.255-.06,0-.27-.015-.27-.15s.15-.285.21-.36c.09-.09.7-.825,1.02-1.245.375-.495.4-.54.525-.585.45-.12.45-.12.45-.255,0-.165-.7-.765-.7-.765,0-.045.06-.045.21-.045h4.59c.7,0,.78,0,.78-.2,0-.135,0-.15-.765-.78-.345-.285-.39-.315-.51-.315s-.195.09-.42.405c-.36.495-.525.495-1.155.495H4.74c-.525,0-1.32-.03-2.055-.06-.09,0-.555-.045-.66-.045-.03,0-.06,0-.06.03s.045.06.075.105l.285.345c.06.06.075.09.135.09.045,0,.27-.03.315-.03.4-.03.78-.045,1.89-.045ZM6.3-6.66c-.6,0-1.32-.015-2.055-.06-.09,0-.555-.045-.66-.045-.03,0-.045.015-.045.03,0,.03,0,.045.06.105l.285.345c.06.06.09.09.135.09s.27-.03.315-.03c.555-.045.99-.045,1.905-.045H9.69c.72,0,.795,0,.795-.165A4.068,4.068,0,0,0,9.345-7.56c-.075,0-.255.225-.5.51-.3.36-.33.39-1.065.39ZM22.98.54c.06.075.09.105.135.105S23.385.6,23.43.6c.525-.045,1.53-.03,1.89-.03h5.325c.495,0,.81,0,.81-.21,0-.255-1.32-1.23-1.455-1.23-.18,0-.225.06-.63.585a.932.932,0,0,1-.885.45H27.93c-.39,0-.39-.27-.39-.825,0-1-.045-5.4-.045-6.3,0-.27.03-.495.435-.495h2.085c.48,0,.8,0,.8-.195,0-.285-1.05-1.26-1.26-1.26-.135,0-.18.06-.615.645-.315.42-.39.42-1.1.42-.36,0-.36-.285-.36-.465,0-.4.045-2.895.135-3.1.03-.075.33-.33.33-.4,0-.255-.315-.33-.45-.375-.105-.03-1.035-.315-1.08-.315-.09,0-.12.03-.12.1,0,.12.09.645.09.765.075,1.125.1,1.8.1,3.18,0,.42-.03.615-.39.615-.51,0-1.725-.06-1.875-.06-.075,0-.615-.045-.63-.045s-.045,0-.045.03,0,.03.06.1l.285.345c.06.06.09.09.135.09s.27-.03.315-.03c.525-.045,1.395-.045,1.77-.045.36,0,.36.315.36.465,0,.78-.03,6.555-.06,6.825-.03.33-.3.33-.435.33H25.4c-.84,0-1.62-.03-2.055-.045-.1,0-.57-.06-.66-.06a.048.048,0,0,0-.045.045c0,.015,0,.015.06.09Zm-4.9-9.18c.045.06.075.09.135.09.045,0,.27-.03.315-.03.525-.03,1.155-.045,1.74-.045h1.05c.135,0,.24.015.24.15,0,.435-2.115,3.06-2.715,3.675a15.1,15.1,0,0,0-1.305,1.335c0,.045.045.045.075.045.39,0,2.34-1.695,2.49-1.695s.15.255.15.42c0,1.77-.06,3.33-.09,4.44C20.16-.09,20.1.6,20.1.75c0,.21.09.36.45.36a.716.716,0,0,0,.8-.69c0-.21-.075-1.14-.075-1.335,0-.615-.015-3.39-.015-3.96,0-.18,0-.39.135-.39.285,0,.78.765.87.93.39.8.555,1.1.915,1.1.27,0,.525-.225.525-.69,0-1.14-1.41-1.545-1.92-1.665-.36-.075-.5-.105-.5-.42,0-.27.045-.315.48-.765a17.265,17.265,0,0,1,1.4-1.5c.045-.015.255-.06.3-.075a.225.225,0,0,0,.165-.2c0-.09-.03-.12-.36-.435-.045-.03-.36-.4-.54-.585a.284.284,0,0,0-.21-.1c-.135,0-.57.45-.675.51a.534.534,0,0,1-.36.105c-.15,0-.24-.03-.24-.24v-1.26c0-.63,0-.7.075-.84.03-.06.3-.285.3-.345,0-.105-.09-.165-.165-.21a11.532,11.532,0,0,0-1.35-.4c-.015,0-.06,0-.06.03,0,.09.075.435.075.51.045.57.06,1.455.06,1.68,0,1.005,0,1.11-.42,1.11-.315,0-1.695-.09-1.98-.09-.015,0-.06,0-.06.03,0,.015.015.03.075.105ZM41.16-5.865c.135,0,.39,0,.435.3s.075.375.27.375a.586.586,0,0,0,.63-.585c0-.615-.12-3.345-.12-3.915,0-.135.015-1,.045-1.065s.27-.285.27-.345a2.47,2.47,0,0,0-.765-.975c-.1,0-.375.435-.45.51a.648.648,0,0,1-.465.15h-.3a1.274,1.274,0,0,1-.6-.12c-.18-.075-.915-.555-1.005-.555-.03,0-.03.03-.03.06,0,.09.045.51.045.6.06,1.215.075,2.58.075,3.81,0,.615-.015,5.955-.075,6.15a.736.736,0,0,1-.57.51c-.42.135-.465.15-.465.24,0,.165.63.96.825.96.12,0,.135-.045.285-.36a9.975,9.975,0,0,1,1.4-1.245c.165-.135.825-.825,1.05-1.065a.179.179,0,0,1,.135-.075c.1,0,.135.09.15.15.03.105.15.525.39.525s.495-.375.495-.735c0-1.005-1.755-2.355-2.1-2.355-.015,0-.045,0-.045.03,0,.15.975,1.605.975,1.89,0,.225-.09.285-.54.6a4.054,4.054,0,0,1-.84.51c-.225,0-.225-.18-.225-.255,0-.51-.015-2.82-.015-3.285,0-.315.15-.435.465-.435Zm-.09-5.145c.48,0,.48.135.48,1.365,0,.585,0,.8-.48.8H40.5c-.48,0-.48-.105-.48-1.1,0-.885,0-1.065.48-1.065Zm.045,2.565a.386.386,0,0,1,.42.24c.015.06.015,1.44.015,1.62,0,.075,0,.33-.435.33h-.63c-.465,0-.465-.045-.465-1.575,0-.36,0-.615.45-.615Zm6.765,2.25c.45,0,.795,0,.795-.2A3.676,3.676,0,0,0,47.58-7.44c-.135,0-.165.06-.51.585-.165.255-.36.255-.66.255a.348.348,0,0,1-.39-.345c0-.075.3-1.545.33-1.785.045-.315.24-1.86.27-2.07a.4.4,0,0,1,.42-.27h.48c.495,0,.81,0,.81-.195S47.31-12.3,47.16-12.3s-.525.63-.63.72c-.12.12-.195.12-.84.12H45.3c-.615,0-1.29-.03-1.905-.045-.1-.015-.57-.06-.675-.06-.015,0-.045,0-.045.03a.191.191,0,0,0,.06.1l.285.345c.06.06.09.09.135.09s.165-.015.2-.015a.17.17,0,0,1,.165.18c0,.6-.045,3.24-.045,3.78,0,.225-.09.405-.315.405-.09,0-.54-.06-.585-.06-.03,0-.06.015-.06.045,0,.015.045.045.075.09l.285.345c.045.075.075.105.135.105.03,0,.18-.03.21-.03.225-.015.66-.045,1.185-.045.24,0,.435.015.435.27a11.654,11.654,0,0,1-3.15,5.79A5.6,5.6,0,0,0,40.95.51c0,.045.06.075.09.075.345,0,3.18-1.4,4.335-5.2.06-.18.06-.21.12-.21.09,0,.09.105.09.165,0,.195-.075,3.48-.075,3.99,0,.945.1,1.35,1.305,1.35.99,0,1.215-.12,1.455-.315a1.16,1.16,0,0,0,.495-.825c0-.18-.03-.225-.255-.555a4.324,4.324,0,0,1-.345-1.785c0-.12-.045-.18-.075-.18a5.9,5.9,0,0,0-.27,1.17c-.27,1.59-.36,1.59-.795,1.59-.5,0-.54,0-.54-2.61,0-.27,0-2.1.03-2.22.06-.135.105-.18.345-.39a.215.215,0,0,0,.075-.165c0-.165-.3-.3-.495-.375-.15-.06-.24-.105-.24-.15s.12-.06.165-.06ZM45.195-11.07a.329.329,0,0,1,.375.33,30.292,30.292,0,0,1-.48,3.78c-.03.2-.06.36-.315.36-.21,0-.45-.03-.45-.33,0-.54.045-3.18.045-3.765,0-.225.1-.375.4-.375ZM35.13-8.925c.045.06.075.09.135.09.075,0,.615-.06.735-.06.345,0,.345.27.345.3,0,.375-.675,3.225-.84,3.84-.075.285-.735,2.46-.735,2.505,0,.015,0,.045.03.045a16.339,16.339,0,0,0,1.545-2.82c.06-.12.09-.18.135-.18.135,0,.135.09.135.36,0,.75-.15,4.425-.15,5.25,0,.525.03.66.39.66.705,0,.705-.66.705-.9,0-.75-.09-4.44-.09-5.28,0-.24.015-1.455.015-1.725,0-.03,0-.225.1-.225.225,0,.555.69.585.78.135.375.2.57.465.57.15,0,.375-.165.375-.525,0-.72-.78-1.035-1.17-1.2-.345-.135-.345-.42-.345-1.05,0-.285.1-.42.48-.42h.525c.24,0,.57,0,.57-.24,0-.18-.6-.825-.84-.825-.09,0-.15.075-.285.255-.06.105-.24.36-.33.36-.06,0-.12-.09-.12-.15s.06-1.77.075-1.815a.451.451,0,0,1,.15-.315c.21-.15.225-.165.225-.255,0-.345-1.26-.555-1.32-.555-.12,0-.15.06-.15.15,0,.1.075.615.09.735,0,.3.015,1.605.015,1.845a.348.348,0,0,1-.39.39C36-9.33,35.04-9.4,34.83-9.4c-.03,0-.06,0-.06.03s.015.03.075.105Zm20.2-.945a1.608,1.608,0,0,1-.54-.105c-.15-.045-.81-.375-.915-.375-.06,0-.06.1-.06.15a1.9,1.9,0,0,0,.015.24c.045.42.075,1.155.075,1.845,0,.24-.03,1.41-.03,1.68s0,.525.465.525.555-.36.645-.735c.045-.165.255-.165.39-.165h2.49c.135,0,.27,0,.27.15A6.973,6.973,0,0,1,56.88-4.5a.7.7,0,0,1-.645.285h-1.5c-.705,0-1.335-.015-2.07-.045-.09,0-.555-.06-.66-.06a.04.04,0,0,0-.045.045c0,.015,0,.03.06.09l.285.345c.06.06.09.105.135.105a2.276,2.276,0,0,0,.315-.045c.15,0,.585-.03,1.9-.03h1.305c.315,0,.345,0,.345.075A17.823,17.823,0,0,1,55.215-2.2c-.63.69-.66.72-.66.93,0,.255.33.375.54.375.345,0,.525-.15.975-.75.24-.315.27-.36.45-.36a7.715,7.715,0,0,1,2.01.66A11.31,11.31,0,0,1,53.745.99c-.075.015-.18.045-.18.105s.1.09.21.09a11.974,11.974,0,0,0,5.7-1.965.341.341,0,0,1,.24-.09c.39,0,1.305.615,3.03,1.815a.782.782,0,0,0,.36.1.55.55,0,0,0,.54-.54c0-.735-1.56-1.44-2.775-1.83-.42-.135-.465-.15-.465-.2s.09-.15.12-.18c.165-.165.9-.99,1.08-1.17.075-.06.525-.36.525-.48s-.045-.12-.42-.315c-.135-.075-.15-.075-.15-.12s.015-.03.135-.03H64.8c.495,0,.795,0,.795-.21,0-.24-1.455-1.155-1.515-1.155-.165,0-.645.735-.8.855-.09.075-.12.105-.75.105H58.35c-.21,0-.33,0-.33-.12A7.209,7.209,0,0,1,59.2-5.88c.39-.21.435-.255.435-.36,0-.135-.69-.48-.69-.525s.015-.045.165-.045H62.31c.15,0,.315,0,.36.255.045.315.045.345.315.345a.694.694,0,0,0,.72-.495c.015-.015.015-1.08.015-1.17a7.65,7.65,0,0,1,.06-1.2c.03-.075.3-.36.3-.435,0-.27-.96-.87-1.05-.87s-.36.36-.435.42a.561.561,0,0,1-.36.09H61.1c-.375,0-.375-.285-.375-.465,0-.69,0-.96.39-.96h3.21c.5,0,.795,0,.795-.21A4.242,4.242,0,0,0,63.63-12.57c-.135,0-.18.06-.63.63-.195.255-.27.255-.945.255H55.23c-.705,0-1.32-.03-2.055-.06-.1,0-.555-.045-.66-.045-.045,0-.06,0-.06.03s.015.03.06.1l.3.345c.045.06.075.09.135.09.045,0,.255-.03.315-.03.135-.015.57-.045,1.89-.045h1.32c.435,0,.435.15.435.93,0,.24,0,.495-.435.495Zm4.185.39a.347.347,0,0,1,.375.39c0,.225.015,1.59-.03,1.68a.393.393,0,0,1-.4.195H58.2c-.435,0-.45-.105-.45-1.125s.015-1.14.465-1.14ZM59.5-11.3c.39,0,.39.225.39.945,0,.135,0,.48-.39.48H58.23c-.45,0-.45-.255-.45-.525,0-.7,0-.9.435-.9ZM62.31-9.48c.39,0,.39.225.39,1.035,0,1.05,0,1.23-.39,1.23H61.1c-.39,0-.39-.225-.39-1.035,0-1.05,0-1.23.39-1.23Zm-5.85,0c.45,0,.45.015.45,1.44,0,.6,0,.825-.45.825H55.35c-.435,0-.435-.045-.435-1.56,0-.39,0-.705.4-.705Zm3.975,5.67c.075,0,.165,0,.165.12s-1.185,1.845-1.62,1.845c-.03,0-1.755-.33-2.04-.375s-.33-.045-.33-.135c0-.075.72-1.08.795-1.185a.664.664,0,0,1,.645-.27Z" transform="translate(-0.54 12.735)" fill="#fff"/>
</svg>
