<svg xmlns="http://www.w3.org/2000/svg" width="58.05" height="18.182" viewBox="0 0 58.05 18.182">
  <g id="グループ_26336" data-name="グループ 26336" transform="translate(-1268.551 -34.318)">
    <path id="パス_38724" data-name="パス 38724" d="M-11.979-11.682H-15L-20.457-2.9c-.7-3.132-1.3-5.9-1.89-8.784h-3.114l-.144.5c1.674.144,1.782.306,1.26,2.052l-1.044,3.582c-.648,2.178-.972,3.2-1.26,3.924-.306.774-.666,1.026-1.674,1.116l-.126.5h4.068l.108-.5c-1.3-.126-1.476-.342-1.35-1.134A33.312,33.312,0,0,1-24.8-5.076l1.3-4.68h.054c.648,3.438,1.224,6.48,1.782,9.684h.432l5.85-9.846h.054c-.378,2.484-.774,4.824-1.17,7.47-.27,1.71-.36,1.8-1.71,1.944l-.126.5h4.662l.108-.5c-1.422-.144-1.53-.2-1.314-1.944.306-2.358.576-4.464.972-7.074.216-1.458.27-1.53,1.8-1.656Zm3.51,0-.126.5c1.476.126,1.566.234,1.278,1.674l-1.4,7.326C-9.009-.738-9.153-.63-10.593-.5l-.126.5h8.5c.252-.576.918-2.268,1.116-2.79l-.522-.18A7.337,7.337,0,0,1-2.853-1.26c-.486.468-1.026.612-2.322.612-.972,0-1.494-.036-1.764-.27-.234-.216-.252-.684-.072-1.674l.594-3.15h1.638c1.548,0,1.548.126,1.512,1.422h.54l.684-3.456h-.54c-.432,1.188-.54,1.314-2.052,1.314H-6.273l.738-3.852c.126-.666.18-.738.81-.738h1.3c1.278,0,1.53.162,1.728.576a3.71,3.71,0,0,1,.252,1.6l.54-.036c.126-1.044.288-2.412.342-2.772Zm23.418,0H10.863l-.144.5c1.314.072,1.638.27,1.566,1.116a27.843,27.843,0,0,1-.468,3.078l-.81,4.3h-.054l-5.2-9H3.033l-.126.5c.954.054,1.3.162,1.512.54.216.4.288.684.09,1.674l-.9,4.284c-.36,1.674-.558,2.484-.756,3.1C2.619-.792,2.2-.558,1.269-.5L1.143,0H5.319l.108-.5C4.167-.594,3.843-.792,3.9-1.62a23.2,23.2,0,0,1,.45-3.024l.918-4.68h.054L10.611.144h.612l1.35-7.128a30.56,30.56,0,0,1,.7-3.06c.234-.792.468-1.08,1.566-1.134Zm14.652,0H25.389l-.126.5c1.3.072,1.638.252,1.6.99A27.547,27.547,0,0,1,26.4-7l-.27,1.314c-.666,3.4-1.872,4.968-4,4.968-1.764,0-3.042-1.224-2.43-4.428l.828-4.392c.27-1.44.4-1.512,1.728-1.638l.108-.5h-4.59l-.126.5c1.422.126,1.512.234,1.242,1.638l-.846,4.482c-.414,2.232-.018,3.582.81,4.356A4.056,4.056,0,0,0,21.663.27,4.628,4.628,0,0,0,24.777-.918a8.237,8.237,0,0,0,2.088-4.626L27.153-7c.324-1.638.54-2.556.72-3.168.216-.684.432-.954,1.6-1.008Z" transform="translate(1297 46)" fill="#fff"/>
    <path id="パス_25578" data-name="パス 25578" d="M0,0H55.1" transform="translate(1269.895 52)" fill="none" stroke="#fff" stroke-width="1"/>
  </g>
</svg>
