<svg xmlns="http://www.w3.org/2000/svg" width="55.368" height="8.268" viewBox="0 0 55.368 8.268">
  <path id="パス_130445" data-name="パス 130445" d="M-26.052-7.788l-.084.336c.948.1,1.008.168.828,1.116l-.96,4.836c-.2,1.008-.288,1.068-1.2,1.164L-27.552,0h3.276l.072-.336C-25.3-.432-25.38-.5-25.188-1.5l.36-1.884.816.252c.132,0,.288,0,.444-.012A2.792,2.792,0,0,0-20.7-5.76c0-1.368-.924-2.028-2.58-2.028Zm1.86,1.068c.072-.384.156-.516.288-.576a1.139,1.139,0,0,1,.5-.1A1.4,1.4,0,0,1-21.876-5.82a2.046,2.046,0,0,1-2.016,2.2,2.316,2.316,0,0,1-.852-.156Zm10.2,6.384c-.84-.1-.912-.192-1.068-1.092-.264-1.464-.528-2.988-.78-4.548l-.312-1.992-.42.108-3.576,6.324c-.576,1.032-.708,1.092-1.44,1.2l-.1.336h2.6L-19-.336c-.924-.084-1-.18-.66-.864.252-.54.588-1.188.8-1.584h2.472c.108.66.2,1.212.276,1.7.072.528.024.66-.792.744l-.1.336h2.916Zm-2.472-2.976h-2.124c.516-1,1.068-1.968,1.632-3.024h.024Zm10.68-2.4c.048-.828.108-1.524.144-1.9A6.708,6.708,0,0,0-7.776-7.98c-2.988,0-5.1,1.968-5.1,4.728A3.278,3.278,0,0,0-9.276.18,10.46,10.46,0,0,0-6.732-.276a2.935,2.935,0,0,1,.06-.936L-6.48-2.2c.168-.9.228-.948.888-1.044l.084-.324H-8.556l-.084.324c1.188.12,1.248.156,1.08,1.044l-.228,1.1c-.132.648-.6.84-1.284.84-1.62,0-2.52-1.284-2.52-3.072,0-2.256,1.4-4.224,3.528-4.224A1.659,1.659,0,0,1-6.156-5.676ZM-3.7-7.788l-.084.336c.984.084,1.044.156.852,1.116l-.936,4.884c-.192.96-.288,1.032-1.248,1.116L-5.2,0H.468c.168-.384.612-1.512.744-1.86L.864-1.98A4.891,4.891,0,0,1,.048-.84c-.324.312-.684.408-1.548.408-.648,0-1-.024-1.176-.18-.156-.144-.168-.456-.048-1.116l.4-2.1h1.092c1.032,0,1.032.084,1.008.948h.36l.456-2.3H.228c-.288.792-.36.876-1.368.876H-2.232l.492-2.568c.084-.444.12-.492.54-.492h.864c.852,0,1.02.108,1.152.384A2.473,2.473,0,0,1,.984-5.916l.36-.024c.084-.7.192-1.608.228-1.848Zm16.068-.3a.706.706,0,0,1-.624.3H7.188c-.312,0-.444-.024-.564-.3H6.348c-.132.648-.348,1.44-.564,2.16h.372a4.663,4.663,0,0,1,.6-1.08c.228-.264.444-.36,1.44-.36h.6L7.668-1.452C7.488-.516,7.4-.408,6.4-.336L6.312,0H9.684l.072-.336c-1.08-.072-1.164-.168-1-1.116L9.876-7.368h.708c.864,0,1.128.072,1.248.348a2.691,2.691,0,0,1,.144,1.092l.384-.024c.072-.672.18-1.608.288-2.136Zm5.076.108a4.584,4.584,0,0,0-4.38,4.752A3.144,3.144,0,0,0,16.272.18a4.5,4.5,0,0,0,4.392-4.716A3.176,3.176,0,0,0,17.448-7.98Zm-.084.432c1.488,0,2.04,1.272,2.04,2.856,0,1.992-1.116,4.44-3.036,4.44-1.416,0-2.052-1.236-2.052-2.832C14.316-5.22,15.552-7.548,17.364-7.548Zm5.1-.24-.084.336c.948.1,1.008.168.828,1.116L22.248-1.5c-.2,1.008-.288,1.068-1.2,1.164L20.964,0H24.24l.072-.336C23.22-.432,23.136-.5,23.328-1.5l.36-1.884.816.252c.132,0,.288,0,.444-.012A2.792,2.792,0,0,0,27.816-5.76c0-1.368-.924-2.028-2.58-2.028Zm1.86,1.068c.072-.384.156-.516.288-.576a1.139,1.139,0,0,1,.5-.1A1.4,1.4,0,0,1,26.64-5.82a2.046,2.046,0,0,1-2.016,2.2,2.316,2.316,0,0,1-.852-.156Z" transform="translate(27.552 8.088)" fill="#80868b"/>
</svg>
