<svg xmlns="http://www.w3.org/2000/svg" width="149.424" height="12.752" viewBox="0 0 149.424 12.752">
  <path id="パス_130452" data-name="パス 130452" d="M-75.1-8.928c-.08,0-.192.032-.192.16,0,.32,1.136,1.3,1.488,1.3.128,0,.688-.224.832-.256.624-.144,4.592-.784,5.088-.784.176,0,.24.064.24.336,0,.32-.144,1.712-.336,3.12-.112.8-.176.992-.368,1.088a52.731,52.731,0,0,1-5.536.416A5.661,5.661,0,0,1-74.7-3.6a4.289,4.289,0,0,0-.48-.08.129.129,0,0,0-.144.112c0,.56.944,1.28,1.232,1.28.08,0,.48-.176.576-.192.256-.064,3.3-.4,4.288-.4.368,0,2.144.112,2.544.112.128,0,.864,0,.864-.432,0-.4-.592-.608-.992-.672-.24-.048-.384-.064-.384-.272,0-.1.224-.8.256-.944.544-2.224.608-2.464.9-2.672.5-.368.544-.416.544-.56,0-.416-1.536-1.44-1.856-1.44-.144,0-.208.032-.784.416a27.041,27.041,0,0,1-5.2.512C-73.616-8.832-75.008-8.928-75.1-8.928Zm18.672,2.48a8.713,8.713,0,0,1-1.952-.144c-.08-.016-.464-.192-.544-.192s-.128.1-.128.192c0,.544.736,1.536,1.424,1.536.192,0,1.056-.256,1.248-.288.384-.08,4.048-.288,6.256-.288.32,0,1.92.032,2.288.032.672,0,1.328-.048,1.328-.5,0-.112-.144-.7-1.12-.7-.08,0-.256.016-.352.016C-50.32-6.656-55.9-6.448-56.432-6.448Zm26.1-5.968a1.519,1.519,0,0,0-1.552,1.536,1.562,1.562,0,0,0,1.552,1.552,1.561,1.561,0,0,0,1.52-1.568A1.487,1.487,0,0,0-30.336-12.416Zm-.032.544a1.073,1.073,0,0,1,1.024,1.024.985.985,0,0,1-.992.976,1,1,0,0,1-1.04-.976A1.041,1.041,0,0,1-30.368-11.872Zm-4.464,5.248c0-.912.144-.912,1.52-.912.128,0,1.3.016,1.9.08.224.032,1.264.208,1.5.208.064,0,.416-.016.416-.32,0-.272-.224-.4-.4-.512a3.363,3.363,0,0,0-1.552-.544c-.176,0-1.024.208-1.232.24a14.2,14.2,0,0,1-1.552.16c-.416,0-.624-.08-.624-.576a4,4,0,0,1,.144-1.232,3.379,3.379,0,0,0,.288-.528c0-.128-.4-.832-1.5-.832-.368,0-.544.112-.544.16,0,.08.272.336.3.416a5.854,5.854,0,0,1,.336,2.048c0,.528-.16.64-.768.672-.48.016-2.208.112-2.576.112a4.73,4.73,0,0,1-1.424-.16c-.208-.08-.24-.1-.3-.1-.1,0-.112.064-.112.144,0,.32.8,1.408,1.152,1.408a4.765,4.765,0,0,0,.64-.176c.944-.24,2.864-.512,2.96-.512.432,0,.464.288.464,1.056,0,.864,0,2.464-.08,3.216-.032.256-.112.432-.32.432-.112,0-.64-.208-.752-.208a.059.059,0,0,0-.064.064c0,.048.032.08.1.192a4.544,4.544,0,0,1,.592,1.136c.336.928.368,1.024.72,1.024.848,0,.848-1.056.848-1.3C-34.752-2.448-34.832-5.856-34.832-6.624Zm4.816,4.768c.528.016.72-.512.72-.88,0-1.344-2.576-2.9-3.424-2.9-.032,0-.112,0-.112.08a3.686,3.686,0,0,0,.64.672,5.7,5.7,0,0,1,1.3,1.968C-30.608-2.224-30.464-1.856-30.016-1.856ZM-40.56-2.224a.781.781,0,0,0,.3.064c1.056,0,1.808-1.936,1.808-2.688,0-.048-.016-.192-.08-.192s-.24.16-.32.24a13.708,13.708,0,0,1-1.568,1.232c-.464.288-.608.448-.608.752A.644.644,0,0,0-40.56-2.224Zm20.816-6.832c0-.656-1.84-.976-2.016-.976-.064,0-.16.016-.16.08a3.077,3.077,0,0,0,.352.624c.416.752.416,1.184.416,3.3a12.21,12.21,0,0,1-.08,2.064c-.016.032-.144.672-.144.752,0,.432.96,1.216,1.088,1.216.064,0,.1-.016.176-.128.336-.416.464-.512,2.32-1.472A20.112,20.112,0,0,0-11.5-8.4a.126.126,0,0,0-.128-.128c-.112,0-.144.032-.368.224-2.816,2.448-6.912,4.176-7.6,4.176-.528,0-.528-.384-.528-.848A16.073,16.073,0,0,1-20-7.984C-19.968-8.16-19.744-8.928-19.744-9.056ZM-3.632-6.448a8.713,8.713,0,0,1-1.952-.144c-.08-.016-.464-.192-.544-.192s-.128.1-.128.192c0,.544.736,1.536,1.424,1.536.192,0,1.056-.256,1.248-.288.384-.08,4.048-.288,6.256-.288.32,0,1.92.032,2.288.032.672,0,1.328-.048,1.328-.5,0-.112-.144-.7-1.12-.7-.08,0-.256.016-.352.016C2.48-6.656-3.1-6.448-3.632-6.448Zm19.1-5.488.032.064a1.775,1.775,0,0,1,.544.736c.192.512.192,1.024.192,5.6A33.117,33.117,0,0,1,16.1-1.824c0,.064-.064.4-.064.464,0,.416.416,1.5.9,1.5.464,0,.464-1.056.464-1.456,0-.24-.016-.64-.032-.816-.064-1.44-.08-2.288-.08-3.984,0-1.184.064-1.184.224-1.184.5,0,1.248.752,1.7,1.344C20.272-4.56,20.32-4.5,20.72-4.5a.548.548,0,0,0,.576-.56c0-1.2-2.48-2.368-3.456-2.592-.464-.112-.528-.16-.528-.512a20.754,20.754,0,0,1,.144-2.224,4.636,4.636,0,0,0,.192-.672c0-.512-1.152-1.024-1.728-1.024C15.9-12.08,15.488-12.08,15.472-11.936ZM28.56-7.952a.13.13,0,0,0-.112.144c0,.624,1.392,1.328,1.584,1.328a3.768,3.768,0,0,0,.56-.176A13.019,13.019,0,0,1,32.64-7.04c.272,0,.368.1.368.864,0,.16-.144,1.7-.144,1.856,0,.272.464,1.28.848,1.28.224,0,.3-.288.3-1.056,0-.3-.1-1.856-.1-2.208,0-.688,0-.752.208-.864a10.233,10.233,0,0,1,1.9-.16c.224,0,.48,0,.48.512A9.477,9.477,0,0,1,34.96-1.088C34.832-.88,34.032.144,34.032.16a.092.092,0,0,0,.1.1,5.166,5.166,0,0,0,1.664-1.44,8.09,8.09,0,0,0,1.7-5.152c.048-.928.048-1.04.528-1.04.032,0,1.632.032,2.176.112.176.032,1.04.224,1.232.224a.472.472,0,0,0,.512-.464c0-.784-1.408-1.056-2.208-1.056a1.907,1.907,0,0,0-.8.208,4.972,4.972,0,0,1-1.088.176c-.384,0-.384-.16-.384-.672a6.565,6.565,0,0,1,.16-1.792,3.182,3.182,0,0,0,.272-.576c0-.192-.24-.3-.4-.384a3.668,3.668,0,0,0-1.28-.48c-.192,0-.368.1-.368.16,0,.032.448.672.5.816A19.228,19.228,0,0,1,36.448-8.5c0,.16,0,.432-.352.464-.4.032-1.408.1-1.824.1-.224,0-.384-.1-.384-.336a1.453,1.453,0,0,1,.064-.576c.016-.1.288-.56.288-.672,0-.32-1.072-1.072-1.44-1.072-.08,0-.56.048-.56.16,0,.064.256.336.3.4A4.147,4.147,0,0,1,32.9-8.256c0,.384-.176.432-.48.448-.288,0-1.68.1-2,.1-.208,0-1.136-.112-1.376-.144A4.244,4.244,0,0,0,28.56-7.952ZM53.184-7.9c.3-.384.816-.96,1.088-1.344A4.57,4.57,0,0,1,55.36-10.56a.4.4,0,0,0,.144-.32c0-.608-1.616-1.28-1.856-1.28a.158.158,0,0,0-.16.128,1.778,1.778,0,0,0,.112.256.905.905,0,0,1,.128.448c0,.448-1.248,3.168-5.024,6.4-.256.224-.7.592-1.12.96a.145.145,0,0,0-.048.112c0,.064.032.1.08.1A17.574,17.574,0,0,0,52.16-6.816c.128-.128.192-.192.272-.192.416,0,.416,1.68.416,2.256,0,.848-.064,2.08-.16,2.944-.016.16-.176.864-.176,1.024,0,.432.544,1.12.992,1.12.384,0,.384-.544.384-.7,0-.208-.1-1.136-.112-1.328-.032-.624-.048-1.488-.048-1.92a15.447,15.447,0,0,1,.1-2.832c.016-.1.192-.544.192-.64,0-.144-.064-.208-.688-.592A.258.258,0,0,1,53.184-7.9Zm15.088-4.032.032.064a1.775,1.775,0,0,1,.544.736c.192.512.192,1.024.192,5.6A33.117,33.117,0,0,1,68.9-1.824c0,.064-.064.4-.064.464,0,.416.416,1.5.9,1.5.464,0,.464-1.056.464-1.456,0-.24-.016-.64-.032-.816-.064-1.44-.08-2.288-.08-3.984,0-1.184.064-1.184.224-1.184.5,0,1.248.752,1.7,1.344C73.072-4.56,73.12-4.5,73.52-4.5a.548.548,0,0,0,.576-.56c0-1.2-2.48-2.368-3.456-2.592-.464-.112-.528-.16-.528-.512a20.753,20.753,0,0,1,.144-2.224,4.637,4.637,0,0,0,.192-.672c0-.512-1.152-1.024-1.728-1.024C68.7-12.08,68.288-12.08,68.272-11.936Z" transform="translate(75.328 12.416)" fill="#ebebeb"/>
</svg>
