<svg xmlns="http://www.w3.org/2000/svg" width="157.743" height="15.827" viewBox="0 0 157.743 15.827">
  <path id="パス_130448" data-name="パス 130448" d="M5.423-9.452c-.153,0-.9-.068-1.071-.068-.051,0-.153.017-.153.1a1.854,1.854,0,0,0,1.19,1.343,4.359,4.359,0,0,0,.68-.272c.459-.17,3.264-.9,3.519-.9.1,0,.34,0,.34.374,0,.068-.442,3.23-.51,3.774-.085.578-.119.85-.629.918-.187.034-5.015.408-5.355.408a5.033,5.033,0,0,1-1.343-.2A5.053,5.053,0,0,0,1.428-4.2c-.085,0-.1.034-.1.1,0,1.088,1.513,1.819,1.7,1.819a6.056,6.056,0,0,0,.9-.272,40.814,40.814,0,0,1,7.922-.884,8.794,8.794,0,0,1,2.193.238c.068.017,1.071.238,1.122.238.391,0,.408-.306.408-.459,0-.765-1.343-1.377-2.125-1.377-.34,0-2.006.391-2.38.391-.238,0-.374-.068-.374-.34a16.081,16.081,0,0,1,.731-4.063c.051-.1.51-.578.51-.714a2.337,2.337,0,0,0-1.581-1.088,7.151,7.151,0,0,0-.663.289A25.532,25.532,0,0,1,5.423-9.452ZM20.247-4.4a.723.723,0,0,0-.187-.034.135.135,0,0,0-.153.153,2.822,2.822,0,0,0,.51,1.122,3.009,3.009,0,0,0,1.19.629c.017,0,1.258-.289,1.5-.323.935-.153,4.522-.544,5.95-.544a12.738,12.738,0,0,1,1.921.136c.408.068.8.136.935.136.289,0,.952-.1.952-.493,0-.816-2.074-1.156-2.567-1.156-.408,0-2.346.357-2.805.425a33.612,33.612,0,0,1-4.811.374A5.745,5.745,0,0,1,20.247-4.4Zm2.38-5.083c-.1,0-.238.034-.238.085,0,.034.408.544.459.612a1.265,1.265,0,0,0,.918.527c.136,0,3.417-.442,4.08-.476,1.853-.085,2.482-.119,2.482-.544,0-.459-.731-.85-1.513-.85-.2,0-1.241.2-1.479.238-.68.119-3.111.459-3.655.459C23.511-9.435,22.729-9.486,22.627-9.486Zm20.349-.442c-.476,0-.748.221-1.547.867-2.125,1.717-2.992,2.04-3.774,2.04-.085,0-.442-.068-.527-.068-.1,0-.119.119-.119.2a.73.73,0,0,0,.2.527c.782.8,1.071.986,1.428.986a1.088,1.088,0,0,0,.85-.527,3.55,3.55,0,0,1,.765-.867c2.4-2.227,2.414-2.227,2.7-2.227a.809.809,0,0,1,.51.255c.187.2,1.02,1.258,1.224,1.5,4.216,5.1,5.508,5.1,6,5.1.306,0,.714-.119.714-.51a.838.838,0,0,0-.374-.629c-.221-.187-1.5-.952-1.785-1.139a27.232,27.232,0,0,1-4.556-4.267C44.234-9.265,43.656-9.928,42.976-9.928Zm6.1-1.751c-.323,0-.663-.017-.663.136,0,.034.034.119.2.2a3.92,3.92,0,0,1,1.36,1.122c.255.391.476.731.85.731a.5.5,0,0,0,.442-.544C51.272-11.186,49.521-11.662,49.079-11.679ZM47.26-10.285c-.136,0-.306.068-.306.136s.17.187.255.255a4.858,4.858,0,0,1,1.156,1.071c.476.646.629.782.867.782.306,0,.51-.425.51-.663C49.742-9.265,48.841-10.285,47.26-10.285ZM58.191-6.851A9.258,9.258,0,0,1,56.117-7c-.085-.017-.493-.2-.578-.2s-.136.1-.136.2c0,.578.782,1.632,1.513,1.632.2,0,1.122-.272,1.326-.306.408-.085,4.3-.306,6.647-.306.34,0,2.04.034,2.431.034.714,0,1.411-.051,1.411-.527,0-.119-.153-.748-1.19-.748-.085,0-.272.017-.374.017C64.685-7.072,58.752-6.851,58.191-6.851ZM78-8.7c0-.867-1.8-1.445-1.921-1.445-.068,0-.085.034-.085.085a1.262,1.262,0,0,0,.068.306A3.728,3.728,0,0,1,76.347-8.3,9,9,0,0,1,74.29-3.315a4.814,4.814,0,0,0-.68.9.079.079,0,0,0,.085.085,5.92,5.92,0,0,0,3.145-3.23C77.129-6.2,78-8.653,78-8.7Zm2.992,6.12c.119-.017.272-.136.561-.459a9.446,9.446,0,0,1,1.173-1.088c2.975-2.618,3.961-4.726,3.961-4.862a.073.073,0,0,0-.068-.068c-.068,0-1.513,1.53-1.8,1.819-1.632,1.649-3.2,2.771-3.706,2.771-.306,0-.323-.34-.323-.561,0-.561.068-2.618.136-3.077.034-.187.272-1.071.272-1.275,0-.884-1.785-1.19-1.87-1.19-.034,0-.1.017-.1.085a4.418,4.418,0,0,0,.221.612,10.424,10.424,0,0,1,.323,3.2c0,.425-.017,1.768-.068,2.091-.017.085-.1.527-.1.612C79.594-3.5,80.5-2.5,80.988-2.584Zm23.477-3.91c.544,0,.9,0,.9-.238,0-.221-1.377-1.088-1.5-1.088-.153,0-.629.646-.765.765-.119.119-.2.119-.9.119h-.748c-.561,0-.561-.2-.561-.833A22.216,22.216,0,0,1,100.963-10c.1-.187.255-.221.493-.221h2.4c.561,0,.9,0,.9-.238a4.9,4.9,0,0,0-1.411-1.122c-.17,0-.7.68-.833.8-.119.1-.238.119-.629.119h-.408c-.391,0-.561-.085-.561-.527a18.388,18.388,0,0,1,.1-2.006c.017-.068.289-.34.289-.425,0-.187-1.53-.527-1.581-.527a.073.073,0,0,0-.068.068c0,.153.153,1.343.17,1.6.017.136.034,1.156.034,1.36,0,.459-.34.459-.493.459H98.056c-.085,0-.221-.017-.221-.153,0-.017.2-.493.306-.748.238-.544.255-.612.425-.663.306-.1.425-.136.425-.255,0-.238-1.581-.7-1.632-.7-.119,0-.136.034-.17.391a14.78,14.78,0,0,1-.969,3.451c-.085.2-.561,1.275-.561,1.309,0,.051.034.051.051.051a6.213,6.213,0,0,0,1.5-1.819c.221-.391.255-.425.612-.425h1.53c.374,0,.459.119.493.357.051.272.051,1.955.051,2.363,0,.459-.119.561-.6.561H98.77c-.8,0-2.023-.068-2.159-.068-.1,0-.629-.051-.748-.051-.034,0-.068,0-.068.034s.017.034.085.119l.323.391c.051.068.085.1.153.1.051,0,.306-.034.357-.034.391-.034,1.292-.051,1.7-.051.374,0,.646,0,.646.357a14.19,14.19,0,0,1-3.638,5.27,3.662,3.662,0,0,0-.578.612c0,.051.068.068.1.068a2.819,2.819,0,0,0,.612-.289,12.321,12.321,0,0,0,4.029-4.437c.136-.221.17-.255.238-.255.085,0,.1.068.1.323,0,.034-.051,2.72-.068,3.553C99.841-.7,99.722.272,99.722.867c0,.238.1.357.357.357a1.269,1.269,0,0,0,.7-.221c.136-.1.17-.255.17-.527,0-.833-.034-4.9-.034-5.814,0-.085,0-.187.068-.187.034,0,.068.051.068.068.051.119.238.7.289.816a12.051,12.051,0,0,0,2.669,4.3,3.968,3.968,0,0,0,.765-.459,2.209,2.209,0,0,1,.867-.187c.051,0,.17,0,.17-.085s-.391-.306-.646-.459a8.979,8.979,0,0,1-4.012-4.726c0-.238.238-.238.425-.238ZM95.2-9.18c.391,0,.748,0,.748-.2a4.162,4.162,0,0,0-1.275-.969c-.136,0-.187.1-.357.425a.5.5,0,0,1-.442.289c-.34,0-.357-.221-.357-.323,0-.2.119-2.346.119-2.635,0-.306.034-.391.2-.527s.221-.17.221-.289c0-.17-.119-.221-.459-.306a10.585,10.585,0,0,0-1.088-.323c-.034,0-.051.034-.051.068,0,.085.119,1.275.119,1.53,0,2.805,0,2.805-.459,2.805-.357,0-1.921-.119-2.193-.119a.045.045,0,0,0-.051.051c0,.017.017.034.068.1l.272.391c.034.068.068.119.119.119a1.916,1.916,0,0,0,.306-.051c.323-.017,1.02-.034,1.173-.034s.527,0,.527.408a25.776,25.776,0,0,1-1.6,5.1c-.1.221-.629,1.36-.629,1.394a.037.037,0,0,0,.034.034c.51,0,2.261-3.485,2.312-3.485s.051.187.051.221c0,.51-.051,4.386-.068,4.794-.017.187-.051,1.394-.051,1.547a.327.327,0,0,0,.374.357.749.749,0,0,0,.782-.8c0-.527-.068-3.145-.051-3.74,0-.51-.017-2.992-.017-3.553,0-.323.1-.391.17-.391.238,0,.68.8.85,1.122.357.7.442.884.731.884.425,0,.442-.629.442-.7,0-.9-.952-1.258-1.377-1.428-.7-.255-.816-.34-.816-.68,0-.969,0-1.088.6-1.088Zm16.031-1.275c-.8,0-1.547-.017-2.329-.051-.1-.017-.629-.068-.748-.068-.051,0-.068.017-.068.051,0,.017,0,.034.068.1l.34.391c.051.068.085.119.136.119A2.822,2.822,0,0,0,109-9.962c.6-.034,1.751-.034,2.142-.034h4.59c.425,0,.459.1.561.731C117.385-2.754,120.938.867,122.434.867a.386.386,0,0,0,.442-.425.933.933,0,0,0-.17-.476,1.265,1.265,0,0,1-.187-.7c0-.357.221-2.193.221-2.244,0-.034,0-.119-.051-.119-.085,0-.408.748-.493.9-.221.408-.51.9-.748.9-.51,0-2.363-2.142-3.417-5.423a22.592,22.592,0,0,1-.68-3.009c0-.238.1-.272.391-.272h4.5c.6,0,.9,0,.9-.255,0-.289-1.377-1.275-1.632-1.275-.17,0-.221.068-.748.782-.221.289-.306.289-1.088.289h-1.972c-.425,0-.561,0-.578-1.8,0-.782,0-.867.187-1.054.153-.17.17-.187.17-.289,0-.221-.221-.289-.663-.374a7.381,7.381,0,0,0-1.19-.187c-.051,0-.119,0-.119.051,0,.187.2,1.054.238,1.241.051.272.323,2.074.323,2.21,0,.153-.068.2-.357.2Zm3.978,4.471c.578,0,.918,0,.918-.221a2.957,2.957,0,0,0-1.241-1.173c-.17,0-.68.816-.867.9a2.743,2.743,0,0,1-.816.051H111.86c-.782,0-1.547-.017-2.329-.051-.1-.017-.629-.068-.748-.068-.034,0-.068.017-.068.034,0,.034.017.051.085.119l.323.391c.051.068.085.119.153.119.034,0,.2-.034.238-.034a13.259,13.259,0,0,1,1.547-.051c.17,0,.476,0,.493.408,0,.068.017,1.513.017,1.649,0,.2-.017,2.3-.034,2.431a.344.344,0,0,1-.153.238,21.562,21.562,0,0,1-2.346.34c-.527.051-.578.068-.578.136,0,.051.476,1.836.663,1.836.1,0,.459-.425.561-.476a21.428,21.428,0,0,1,3.111-1.054,21.981,21.981,0,0,0,4.556-1.853c0-.051-.068-.051-.085-.051-.034,0-3.876.867-4.131.867-.289,0-.289-.17-.289-1.207s.068-2.822.1-2.992c.068-.272.357-.289.476-.289Zm3.2-7.939c-.017.034.051.1.1.136a8.475,8.475,0,0,1,1.309,1.513c.357.51.391.561.578.561a.628.628,0,0,0,.7-.7c0-.986-2.346-1.564-2.584-1.564C118.473-13.974,118.4-13.957,118.4-13.923Zm7.31,7.259a16.858,16.858,0,0,0,7.446-5.457c.136-.17.408-.51.476-.51s.1.051.289.408c1.921,3.5,5.542,6,5.916,6,.1,0,.153-.051.221-.17a1.994,1.994,0,0,1,1.088-.7c.425-.136.476-.153.476-.255,0-.085,0-.085-.476-.221-4.029-1.139-7.038-4.913-7.038-5.44,0-.068.017-.119.119-.17.17-.119.2-.136.2-.221,0-.289-1.581-1.037-1.6-1.037-.2,0-.2.068-.34.595-.085.374-1.156,2.4-4.063,4.879-1.105.935-2.5,1.921-2.618,2.006-.2.136-.255.17-.255.238C125.562-6.63,125.664-6.647,125.715-6.664Zm5.593,2.278c.289,0,.51,0,.51.289a11.894,11.894,0,0,1-.884,2.244c-.7,1.394-.816,1.394-1.768,1.394a9.01,9.01,0,0,1-1-.068c-.1-.017-.629-.119-.748-.119-.051,0-.136,0-.136.119a13.432,13.432,0,0,0,.935,1.8.193.193,0,0,0,.17.119,3.555,3.555,0,0,0,.493-.272,74.419,74.419,0,0,1,7.888-1.564c.238,0,.391.051.714.629.306.561.663,1.19,1.156,1.19.323,0,.663-.374.663-.918,0-1.071-1.054-1.683-1.513-1.955a15.812,15.812,0,0,0-2.159-1.054c-.051,0-.119.017-.119.1,0,.2,1,1.071,1,1.326,0,.17-.136.187-1.36.306-1.887.187-3.485.289-3.706.289-.068,0-.306-.017-.306-.17s.17-.323.238-.408c.1-.1.8-.935,1.156-1.411.425-.561.459-.612.6-.663.51-.136.51-.136.51-.289,0-.187-.8-.867-.8-.867,0-.051.068-.051.238-.051h5.2c.8,0,.884,0,.884-.221,0-.153,0-.17-.867-.884-.391-.323-.442-.357-.578-.357-.153,0-.221.1-.476.459-.408.561-.6.561-1.309.561h-5.61c-.6,0-1.5-.034-2.329-.068-.1,0-.629-.051-.748-.051-.034,0-.068,0-.068.034,0,.017.051.068.085.119l.323.391c.068.068.085.1.153.1.051,0,.306-.034.357-.034.459-.034.884-.051,2.142-.051Zm.782-3.162c-.68,0-1.5-.017-2.329-.068-.1,0-.629-.051-.748-.051-.034,0-.051.017-.051.034,0,.034,0,.051.068.119l.323.391c.068.068.1.1.153.1s.306-.034.357-.034c.629-.051,1.122-.051,2.159-.051h3.91c.816,0,.9,0,.9-.187a4.61,4.61,0,0,0-1.292-1.275c-.085,0-.289.255-.561.578-.34.408-.374.442-1.207.442ZM149.464.612c.068.085.1.119.153.119s.306-.051.357-.051c.6-.051,1.734-.034,2.142-.034h6.035c.561,0,.918,0,.918-.238,0-.289-1.5-1.394-1.649-1.394-.2,0-.255.068-.714.663a1.056,1.056,0,0,1-1,.51h-.629c-.442,0-.442-.306-.442-.935,0-1.139-.051-6.12-.051-7.14,0-.306.034-.561.493-.561h2.363c.544,0,.9,0,.9-.221,0-.323-1.19-1.428-1.428-1.428-.153,0-.2.068-.7.731-.357.476-.442.476-1.241.476-.408,0-.408-.323-.408-.527,0-.459.051-3.281.153-3.519.034-.085.374-.374.374-.459,0-.289-.357-.374-.51-.425-.119-.034-1.173-.357-1.224-.357-.1,0-.136.034-.136.119,0,.136.1.731.1.867.085,1.275.119,2.04.119,3.6,0,.476-.034.7-.442.7-.578,0-1.955-.068-2.125-.068-.085,0-.7-.051-.714-.051s-.051,0-.051.034,0,.034.068.119l.323.391c.068.068.1.1.153.1.068,0,.306-.034.357-.034.6-.051,1.581-.051,2.006-.051.408,0,.408.357.408.527,0,.884-.034,7.429-.068,7.735-.034.374-.34.374-.493.374H152.2c-.952,0-1.836-.034-2.329-.051-.119,0-.646-.068-.748-.068a.054.054,0,0,0-.051.051c0,.017,0,.017.068.1ZM143.9-9.792c.051.068.085.1.153.1.051,0,.306-.034.357-.034.6-.034,1.309-.051,1.972-.051h1.19c.153,0,.272.017.272.17,0,.493-2.4,3.468-3.077,4.165a17.11,17.11,0,0,0-1.479,1.513c0,.051.051.051.085.051.442,0,2.652-1.921,2.822-1.921s.17.289.17.476c0,2.006-.068,3.774-.1,5.032,0,.187-.068.969-.068,1.139,0,.238.1.408.51.408a.811.811,0,0,0,.9-.782c0-.238-.085-1.292-.085-1.513,0-.7-.017-3.842-.017-4.488,0-.2,0-.442.153-.442.323,0,.884.867.986,1.054.442.9.629,1.241,1.037,1.241.306,0,.6-.255.6-.782,0-1.292-1.6-1.751-2.176-1.887-.408-.085-.561-.119-.561-.476,0-.306.051-.357.544-.867a19.57,19.57,0,0,1,1.581-1.7c.051-.017.289-.068.34-.085a.256.256,0,0,0,.187-.221c0-.1-.034-.136-.408-.493-.051-.034-.408-.459-.612-.663a.321.321,0,0,0-.238-.119c-.153,0-.646.51-.765.578a.605.605,0,0,1-.408.119c-.17,0-.272-.034-.272-.272v-1.428c0-.714,0-.8.085-.952.034-.068.34-.323.34-.391,0-.119-.1-.187-.187-.238a13.069,13.069,0,0,0-1.53-.459c-.017,0-.068,0-.068.034,0,.1.085.493.085.578.051.646.068,1.649.068,1.9,0,1.139,0,1.258-.476,1.258-.357,0-1.921-.1-2.244-.1-.017,0-.068,0-.068.034,0,.017.017.034.085.119Z" transform="translate(-1.326 14.433)" fill="#4a4a4a"/>
</svg>
