<svg xmlns="http://www.w3.org/2000/svg" width="275.158" height="65.816" viewBox="0 0 275.158 65.816">
  <path id="パス_130447" data-name="パス 130447" d="M-113.646-17.264c.6,0,.754.13.754.52,0,1.846-3.094,5.824-6.76,7.384-.078.052-.39.182-.39.234,0,.1.1.1.13.1a8.249,8.249,0,0,0,2.522-.78,11.49,11.49,0,0,0,4.732-3.484c.286-.338,1.482-2.054,1.69-2.158.572-.26.78-.364.78-.624,0-.13,0-.208-.572-.572-.234-.13-.65-.39-.65-.468,0-.156.182-.156.6-.156h2.444a.63.63,0,0,1,.676.624c.052.858.052,2.938.052,3.9,0,2.366.572,2.366,4.576,2.366a14.166,14.166,0,0,0,3.744-.26c.858-.234,1.56-.936,1.56-1.482,0-.182-.026-.208-.39-.494-.442-.338-.442-.754-.442-1.274.026-.676.026-.78-.13-.78a8.2,8.2,0,0,0-.91,1.482c-.7,1.092-.962,1.092-3.484,1.092-2.262,0-2.652-.078-2.834-.754a27.124,27.124,0,0,1-.182-3.614c0-.26,0-.806.676-.806h3.354c.312,0,.494,0,.494.182a11.66,11.66,0,0,1-.832,1.534c0,.052.026.13.1.13a11.3,11.3,0,0,0,1.014-.6,3.169,3.169,0,0,1,1.534-.546c2.158-.052,2.366-.026,2.366-.546,0-.13,0-.338-.65-.78a19.55,19.55,0,0,0-2.314-1.43c-.156,0-.312.312-.468.624a1.009,1.009,0,0,1-1.066.754h-5.642c-.65,0-.65-.52-.65-.754A4.517,4.517,0,0,1-108-20.28c.052-.13.546-.65.546-.78,0-.416-2.08-.806-2.6-.806-.312,0-.338.156-.338.208a3.927,3.927,0,0,0,.234.468,7.728,7.728,0,0,1,.13,1.508c0,1.248,0,1.742-.7,1.742h-6.058a.89.89,0,0,1-.936-.468c-.39-.572-.754-1.118-.91-1.118-.13,0-.156.338-.156.442a6.54,6.54,0,0,1-.52,2.366A10.083,10.083,0,0,0-120.25-15c0,.338.338.676.936.676.988,0,1.716-.988,1.924-2.054.182-.858.234-.884.832-.884Zm-.312,9.776c-1.378,0-2.444-.026-3.562-.078-.182,0-.962-.1-1.144-.1-.078,0-.1.026-.1.078,0,.026,0,.052.1.156l.52.624c.026.026.156.156.208.156.078,0,.468-.078.572-.078.91-.052,2.626-.078,3.276-.078h3.536c.676,0,.676.52.676,1.274,0,.65-.052,3.822-.078,4.55,0,.26,0,.832-.676.832h-5.824c-.962,0-2.99-.052-3.77-.1-.13,0-.806-.078-.936-.078-.078,0-.1.026-.1.078,0,.026.026.052.1.156l.52.6c.078.1.13.156.234.156.078,0,.442-.052.546-.052C-118.95.52-117.208.52-116.4.52h18.434c.39,0,.65-.026.65-.312A7.354,7.354,0,0,0-99.684-2.08c-.234,0-.312.1-.988,1.144-.312.52-.494.78-1.066.78h-5.616c-.026,0-.6,0-.65-.52-.026-.26-.026-4.082-.026-4.524,0-1.066,0-1.612.676-1.612h7.228c.442,0,.676-.1.676-.364,0-.39-2.028-1.846-2.418-1.846-.208,0-.39.052-1.066.884-.546.65-.858.65-1.118.65Zm24.232-12.558c-.364,0-.442-.026-1.118-.39a3.87,3.87,0,0,0-1.222-.468c-.1,0-.1.156-.1.26,0,.026.13,2.184.156,2.392.026.338.026,4.238.026,5.824,0,2.86,0,4.576-.26,12.3,0,.338-.026.962-.026,1.04,0,.182,0,.91.676.91,1.352,0,1.352-1.4,1.352-1.872,0-.624-.078-3.38-.1-3.952-.026-.988-.026-5.382-.026-6.578a12.5,12.5,0,0,1,.078-1.846c.13-.338.546-.338.962-.338h3.224c.494,0,.78,0,.858.546.052.416.13.91.754.91.364,0,1.092-.26,1.092-1.69,0-.754-.13-4.056-.13-4.732,0-.7,0-.91.182-1.144.078-.1.494-.494.494-.624,0-.364-1.3-1.326-1.586-1.326-.234,0-.442.208-.7.494a.809.809,0,0,1-.728.286Zm3.848.7c.52,0,.754,0,.754.52v1.4c0,.676-.156.676-.754.676H-89.6c-.52,0-.754,0-.754-.546v-1.4c0-.65.156-.65.754-.65Zm-.052,3.276c.572,0,.78.026.78.6v1.482c0,.52-.26.52-.78.52H-89.6c-.572,0-.78,0-.78-.572v-1.508c0-.52.26-.52.78-.52Zm7.618-4.03a1.121,1.121,0,0,1-.676-.156,3.587,3.587,0,0,0-1.222-.416c-.234,0-.286.312-.286.442,0,.442.13,2.366.13,2.756s0,5.512.026,5.668a.571.571,0,0,0,.624.494c.468,0,1.118-.26,1.2-.832.078-.416.156-.546.754-.546h3.38c.65,0,1.014,0,1.014.806,0,3.718-.052,10.244-.078,10.5-.078.728-.338.858-2.028.936-.26,0-1.222.052-1.222.182,0,.234,1.092.52,1.274.624a1.8,1.8,0,0,1,.728.754c.26.442.442.7.728.7A4.318,4.318,0,0,0-72.748,1.4c.91-.468,1.04-1.092,1.04-2.132,0-2.678-.052-14.482-.052-16.874,0-.936,0-1.014.416-1.378.156-.13.286-.26.286-.416,0-.494-1.482-1.326-1.69-1.326-.156,0-.26.078-.572.416a.574.574,0,0,1-.546.208Zm.39,3.224c-.364,0-.65,0-.7-.39-.026-.1-.026-1.17-.026-1.56,0-.6.286-.6.728-.6H-74.1c.416,0,.65,0,.728.39v1.586c0,.572-.26.572-.728.572Zm.052,3.51c-.546,0-.754,0-.754-.572v-1.716c0-.52.234-.52.754-.52h3.77c.52,0,.728,0,.728.546v1.716c0,.546-.234.546-.728.546Zm-6.318,3.8c-.312,0-1.638-.624-1.924-.624-.13,0-.234.026-.234.234,0,.13.078.7.078.806.078.936.078,3.432.078,3.562,0,1.092-.026,1.872-.1,3.224-.026.234-.052.936-.052,1.118,0,.806.26.936.6.936.65,0,1.092-.442,1.2-1.222.052-.494.182-.6.78-.6h3.224c.52,0,.858,0,.858.624,0,.39,0,.936.572.936a1.661,1.661,0,0,0,1.092-.572c.234-.286.234-.624.234-1.326,0-.624-.078-4.732,0-5.408a1.145,1.145,0,0,1,.364-.78A.588.588,0,0,0-77.272-9c0-.468-1.274-1.326-1.534-1.326-.234,0-.52.286-.728.52a.62.62,0,0,1-.6.234Zm3.952.7c.494,0,.676,0,.676.65v1.482c-.078.364-.286.364-.676.364H-83.9c-.39,0-.6,0-.676-.364v-1.3c0-.78.052-.832.676-.832Zm-.052,3.2c.52,0,.624,0,.7.364.026.13.026,1.56.026,1.794,0,.676-.156.676-.728.676H-83.85c-.468,0-.728,0-.728-.494V-5.122c0-.546.234-.546.728-.546Zm26.26-12.012c7.1,0,7.2,6.188,7.2,7.2,0,6.474-5.642,8.71-8.346,9.776-.65.26-.7.286-.7.364,0,.156.156.182.26.182A15.98,15.98,0,0,0-51.3-1.118a9.7,9.7,0,0,0,6.552-9.152,8.15,8.15,0,0,0-4.524-7.566,8.47,8.47,0,0,0-4.186-.832,10.757,10.757,0,0,0-8.294,3.38,9.159,9.159,0,0,0-2.886,6.63c0,3.172,1.534,5.85,3.25,5.85,1.04,0,2.366-.624,4.446-3.8,2.288-3.458,2.678-5.876,2.678-7.618a19.93,19.93,0,0,0-.26-2.808c0-.1-.052-.208-.052-.286C-54.574-17.472-54.548-17.68-54.028-17.68Zm-1.456.078c.338,0,.442.13.442,1.69A14.872,14.872,0,0,1-57.59-8.346c-1.794,2.7-2.418,3.016-3.172,3.016-1.586,0-2.262-2.314-2.262-4C-63.024-14.248-57.954-17.6-55.484-17.6Zm33.54,2.99a25.368,25.368,0,0,1-1.3,4.706A24.136,24.136,0,0,1-28.86-1.352a4.734,4.734,0,0,0-.78.884.15.15,0,0,0,.156.156,5.487,5.487,0,0,0,1.17-.6c3.926-2.5,5.954-6.656,6.838-8.632.26-.6,1.43-3.51,1.716-4.134.1-.208.78-1.014.78-1.248,0-.546-2.21-2.262-2.548-2.262-.13,0-.676.468-.832.52-.676.286-8.268,1.248-9.048,1.248-.988,0-1.2-.13-1.378-.26-.78-.468-.962-.572-1.352-.572-.416,0-.936.208-.936.39a4.545,4.545,0,0,0,.468.754,9.24,9.24,0,0,1,.832,4.134,6.887,6.887,0,0,1-.078,1.17,5.365,5.365,0,0,0-.182,1.17c0,.936.884,2.366,1.482,2.366.676,0,.676-1.586.676-1.924,0-.572-.286-3.38-.286-4,0-1.586,0-1.716,1.092-1.872,1.69-.26,8.294-1.066,8.658-1.066C-21.944-15.132-21.944-14.9-21.944-14.612Zm20.774.052c0-1.534-2.184-3.016-4.966-3.016-.364,0-.572.13-.572.234s.13.182.234.234a5.856,5.856,0,0,1,2.366,2.132c.858,1.3,1.118,1.716,1.82,1.716A1.148,1.148,0,0,0-1.17-14.56Zm10.816-.234a.167.167,0,0,0-.13-.13c-.052,0-.78.728-1.2,1.144C4-9.516-2.886-4.914-4.16-4.914a4.3,4.3,0,0,1-1.768-.6,6.473,6.473,0,0,0-.78-.494c-.234,0-.26,1.2-.26,1.378,0,1.04,1.924,2.7,3.328,2.7.39,0,.442-.052.936-.65A18.157,18.157,0,0,1-.156-4.706C6.6-9.7,9.646-14.56,9.646-14.794ZM29.51-14.82c.078.416-3.016,7.15-9.8,12.064a8.022,8.022,0,0,0-1.2.962c0,.156.13.156.182.156a6.387,6.387,0,0,0,1.612-.6A26.121,26.121,0,0,0,27.248-7.8c.572-.65.65-.728.91-.728.572,0,2.86,1.976,4.654,5.122.91,1.612,1.014,1.794,1.612,1.794A1.123,1.123,0,0,0,35.49-2.756c0-2.366-4.654-4.992-5.824-5.668-1.092-.6-1.144-.65-1.144-.884a.855.855,0,0,1,.208-.52c.416-.6,2.47-3.64,2.99-4.264.156-.182,1.118-.884,1.118-1.118,0-.65-1.586-1.976-2.21-1.976a9.925,9.925,0,0,0-1.43.806,35.98,35.98,0,0,1-7.124.962,4.632,4.632,0,0,1-1.378-.26c-.078-.026-.65-.182-.676-.182-.13,0-.156.078-.156.208a5.305,5.305,0,0,0,.624,1.508,5.426,5.426,0,0,0,1.768.936,11.23,11.23,0,0,0,1.17-.494c.13-.052,5.59-1.326,5.772-1.326A.292.292,0,0,1,29.51-14.82ZM51.142-19.4l.052.1a2.885,2.885,0,0,1,.884,1.2c.312.832.312,1.664.312,9.1a53.815,53.815,0,0,1-.234,6.032c0,.1-.1.65-.1.754,0,.676.676,2.444,1.456,2.444.754,0,.754-1.716.754-2.366,0-.39-.026-1.04-.052-1.326-.1-2.34-.13-3.718-.13-6.474,0-1.924.1-1.924.364-1.924.806,0,2.028,1.222,2.756,2.184,1.742,2.262,1.82,2.366,2.47,2.366a.89.89,0,0,0,.936-.91c0-1.95-4.03-3.848-5.616-4.212-.754-.182-.858-.26-.858-.832a33.725,33.725,0,0,1,.234-3.614,7.534,7.534,0,0,0,.312-1.092c0-.832-1.872-1.664-2.808-1.664C51.844-19.63,51.168-19.63,51.142-19.4ZM86.658-11.83c0,2.236-3.042,7.124-8.58,11.362A11.1,11.1,0,0,0,76.622.624a.168.168,0,0,0,.156.156A22.766,22.766,0,0,0,87.36-8.4a21.2,21.2,0,0,1,1.326-2.236c.442-.26.546-.286.546-.494,0-.754-1.04-1.378-1.456-1.586a5.785,5.785,0,0,0-1.17-.65.177.177,0,0,0-.182.182,1.657,1.657,0,0,0,.052.234A2.636,2.636,0,0,1,86.658-11.83Zm-11.388.858c-.182,0-.338.078-.338.234,0,.078.052.156.182.338a9.3,9.3,0,0,1,1.508,2.626c.182.572.364,1.17.936,1.17a.946.946,0,0,0,.884-.988C78.442-9.672,75.894-10.972,75.27-10.972Zm4.5-2.392c-.13-.026-.26.052-.26.13a2.938,2.938,0,0,0,.286.572,8.161,8.161,0,0,1,.962,2.47c.078.442.208,1.092.78,1.092.468,0,.884-.572.884-1.326A3.294,3.294,0,0,0,79.768-13.364Zm39.156-6.916a2.47,2.47,0,0,0-2.548,2.47,2.555,2.555,0,0,0,2.522,2.522,2.536,2.536,0,0,0,2.5-2.522A2.42,2.42,0,0,0,118.924-20.28Zm-.052.884a1.739,1.739,0,0,1,1.664,1.638,1.6,1.6,0,0,1-1.612,1.586,1.614,1.614,0,0,1-1.69-1.56A1.673,1.673,0,0,1,118.872-19.4Zm-18.746,3.172c-.156,0-.234.078-.234.572,0,1.43,2.08,2.73,2.678,2.73a9.429,9.429,0,0,0,1.3-.572,85.312,85.312,0,0,1,9.36-1.872c.13,0,.572.026.572.468a14.689,14.689,0,0,1-1.768,4.394c-2.08,3.692-5.746,7.124-10.27,10.3-.26.182-.338.234-.338.338a.173.173,0,0,0,.182.156c.26,0,9.334-3.64,13.416-12.116a4.3,4.3,0,0,1,1.014-1.638c.468-.468.6-.6.6-.936,0-.364-.156-.65-1.326-1.69-.806-.7-1.222-1.066-1.794-1.066-.182,0-.286.052-1.092.416-1.118.494-8.736,1.222-9.8,1.222a6.125,6.125,0,0,1-2.158-.546C100.412-16.068,100.178-16.224,100.126-16.224ZM-114.868,27c0-.572-.832-1.3-1.092-1.534a2.346,2.346,0,0,0-1.9-.728c-.1,0-.676,0-.676.234,0,.078.1.182.13.208a1.964,1.964,0,0,1,.728,1.326c0,.364-1.534,6.838-7.826,12.584-.416.39-2.756,2.34-2.756,2.444a.139.139,0,0,0,.13.13,14.194,14.194,0,0,0,2.886-1.43,23.165,23.165,0,0,0,7.748-8.632c.26-.468,1.4-2.886,1.716-3.38C-115.648,28.038-114.868,27.232-114.868,27Zm-15.548-.78c-.052,0-.208-.026-.208.078,0,.078.1.182.156.234a11.731,11.731,0,0,1,2.08,2.522c1.144,1.976,1.248,2.132,1.82,2.132.156,0,1.066-.156,1.066-1.4C-125.5,27.18-129.324,26.452-130.416,26.218Zm28.808-2.288c0,.208.13.364.338.6.806.936.936,1.534.936,4.446,0,.468,0,1.482-.052,2.652,0,.208-.13,1.092-.13,1.3,0,.676.6,2.054,1.17,2.054.39,0,.988-.65.988-1.326,0-.26-.13-1.56-.156-1.872-.026-.624-.078-2.964-.078-5.98,0-.13.052-.728.052-.858,0-.442-1.43-1.352-2.054-1.352C-101.192,23.592-101.608,23.748-101.608,23.93Zm9.178,2.418c0,5.2-.182,9.724-5.2,15.08-.312.338-2,2-2,2.106,0,.078.052.13.156.13a10.366,10.366,0,0,0,2.34-1.534,16.448,16.448,0,0,0,6.5-12.064c.078-.91.1-4.81.208-5.512a10.111,10.111,0,0,0,.26-1.04c0-.676-1.3-1.326-2.86-1.326-.754,0-.754.078-.754.156,0,.052.026.1.338.52A4.972,4.972,0,0,1-92.43,26.348Zm18.98,5.46c-.156,0-.234.026-.234.182,0,.494.936,1.716,1.534,1.716a6.639,6.639,0,0,0,.91-.364,41.726,41.726,0,0,1,4.29-1.092c.13,0,.338,0,.338.39,0,.052-.572,4.16-.624,4.654-.078.572-.13.858-.416.988-.312.13-6.24.572-6.89.572a7.356,7.356,0,0,1-1.872-.312,6.07,6.07,0,0,0-.65-.182c-.13,0-.182.052-.182.182,0,1.4,1.924,2.314,2.158,2.314a9.52,9.52,0,0,0,1.144-.338,52.007,52.007,0,0,1,9.8-1.092,10.9,10.9,0,0,1,2.652.286,12.768,12.768,0,0,0,1.43.312c.494,0,.572-.39.572-.65,0-.962-1.638-1.768-2.7-1.768-.416,0-2.47.494-2.938.494-.364,0-.416-.156-.416-.364a19.767,19.767,0,0,1,.91-4.992c.078-.13.65-.728.65-.91a2.9,2.9,0,0,0-2.028-1.43,5.984,5.984,0,0,0-.832.39,32.788,32.788,0,0,1-5.33,1.066C-72.384,31.86-73.372,31.808-73.45,31.808Zm26.6-.286a14.159,14.159,0,0,1-3.172-.234c-.13-.026-.754-.312-.884-.312s-.208.156-.208.312c0,.884,1.2,2.5,2.314,2.5.312,0,1.716-.416,2.028-.468.624-.13,6.578-.468,10.166-.468.52,0,3.12.052,3.718.052,1.092,0,2.158-.078,2.158-.806,0-.182-.234-1.144-1.82-1.144-.13,0-.416.026-.572.026C-36.92,31.184-45.994,31.522-46.852,31.522Zm28.106,9.646c.338,0,1.586-1.17,1.9-1.378C-6.084,32.25-3.8,26.686-3.8,26.4a.1.1,0,0,0-.1-.1,12.393,12.393,0,0,0-1.118,1.17c-6.214,7.046-13.208,10.946-14.326,10.946-.208,0-1.2-.338-1.43-.338-.156,0-.234.078-.234.182a1.1,1.1,0,0,0,.156.494c.078.13.546.676.624.806C-19.578,40.752-19.318,41.168-18.746,41.168Zm-.988-11.986c-.338,0-1.82.026-1.82.39,0,.1.156.208.234.26a6.307,6.307,0,0,1,2.366,2.158c.39.65.52.806.91.806.624,0,1.014-.78,1.014-1.3C-17.03,30.222-18.616,29.182-19.734,29.182Zm3.016-4.966a3.1,3.1,0,0,0-2,.494c0,.078.286.156.39.182a4.525,4.525,0,0,1,2.236,1.378c.936,1.118,1.066,1.222,1.352,1.222.416,0,.832-.572.832-1.17C-13.91,26.244-13.91,24.216-16.718,24.216ZM7.722,30.17a.285.285,0,0,0-.234.286c0,.364.962,1.768,1.924,1.768.312,0,1.9-.26,2.262-.312,1.872-.234,4.836-.546,4.992-.546.39,0,.52.13.52.572a7.618,7.618,0,0,1-.208,2.106c-.234.26-4.55.7-6.864.7a3.541,3.541,0,0,1-1.3-.182,4.062,4.062,0,0,0-.624-.26c-.13,0-.182.078-.182.338a1.883,1.883,0,0,0,1.768,1.586c.442,0,3.224-.364,3.926-.442.962-.13,2.834-.39,2.938-.39.312,0,.416.156.416.494,0,.1-.052,1.2-.052,1.4-.026.728-.026.962-.312,1.118-.234.1-5.356.624-6.4.624a4.186,4.186,0,0,1-1.248-.208,4.32,4.32,0,0,0-.858-.26c-.208,0-.234.208-.234.312,0,.208.78,1.872,1.482,1.872.286,0,1.092-.234,1.3-.26.7-.13,4.862-.624,5.72-.624.364,0,.364.078.416.416.1.6.442,1.014.832,1.014s1.014-.468,1.014-1.664c0-.234-.052-1.378-.052-1.638,0-1.716.052-3.666.13-5.382a1.316,1.316,0,0,1,.26-.858c.364-.416.442-.494.442-.754,0-.52-1.534-1.69-1.742-1.69-.182,0-.91.624-1.118.7a37.179,37.179,0,0,1-6.474.572,6.443,6.443,0,0,1-1.508-.13A8.008,8.008,0,0,0,7.722,30.17ZM39.78,27.44c0-1.534-2.184-3.016-4.966-3.016-.364,0-.572.13-.572.234s.13.182.234.234a5.856,5.856,0,0,1,2.366,2.132c.858,1.3,1.118,1.716,1.82,1.716A1.148,1.148,0,0,0,39.78,27.44ZM50.6,27.206a.167.167,0,0,0-.13-.13c-.052,0-.78.728-1.2,1.144-4.316,4.264-11.206,8.866-12.48,8.866a4.3,4.3,0,0,1-1.768-.6,6.473,6.473,0,0,0-.78-.494c-.234,0-.26,1.2-.26,1.378,0,1.04,1.924,2.7,3.328,2.7.39,0,.442-.052.936-.65a18.157,18.157,0,0,1,2.548-2.132C47.554,32.3,50.6,27.44,50.6,27.206Zm10.66,7.748c.832,0,1.118-.624,1.4-1.274.676-1.56,2.21-2.756,3.2-2.756,1.04,0,1.248,1.456,1.248,2.626a1.108,1.108,0,0,1-.39.91c-2.444,1.976-3.432,2.808-3.432,4.472,0,2.054,1.742,3.406,5.044,3.406.624,0,4.654-.1,4.654-1.716,0-.624-.728-.884-1.274-.884-.338,0-2,.416-2.366.468a8.047,8.047,0,0,1-1.664.156c-.754,0-3.354,0-3.354-1.794,0-1.482,2.314-3.094,2.522-3.094.182,0,.182.208.182.312,0,.026-.078,1.274-.078,1.534,0,.468.1,1.326.806,1.326.962,0,.962-1.482.962-1.9,0-.234-.052-1.326-.052-1.56,0-.546.026-.832.442-1.092.468-.286,3.406-1.456,4.056-1.742,1.612-.7,3.666-1.56,3.666-2.782a2.453,2.453,0,0,0-2.444-2.314c-2.262,0-3.952,2.366-4.81,3.562a12.209,12.209,0,0,1-1.066,1.4c-.052,0-.078-.052-.26-.494a2.345,2.345,0,0,0-2.21-1.586,2.43,2.43,0,0,0-1.014.208,5.192,5.192,0,0,1-.806.286.1.1,0,0,1-.1-.1c0-.1.052-.182.182-.416a20.162,20.162,0,0,0,1.4-2.808c.572-1.326.6-1.378.988-1.534,1.2-.468,3.094-1.2,3.094-2.054,0-.546-.988-.676-1.17-.676-1.04-.078-1.144-.13-1.17-.468-.052-.572-.7-.806-1.326-.806-.468,0-1.144.208-1.144.416,0,.156.546.624.624.754a2.084,2.084,0,0,1,.208.91c0,.52,0,1.222-2.132,1.222a4.132,4.132,0,0,1-1.716-.468,5.84,5.84,0,0,0-.988-.494c-.156,0-.156.1-.156.182a2.759,2.759,0,0,0,2.314,2.288c.234,0,1.3-.208,1.56-.208.1,0,.286.026.286.182a11.964,11.964,0,0,1-2.21,3.874c-1.768,2.054-2.5,2.886-2.5,3.666C60.268,34.8,60.762,34.954,61.256,34.954Zm5.59-10.868c0-.1.1-.832.468-.832.234,0,.884.052.884.39,0,.286-1.248.624-1.3.624S66.846,24.19,66.846,24.086Zm6.812,4.16a.8.8,0,0,1,.91.78c0,1.716-5.122,3.8-5.2,3.8s-.1-.078-.1-.13C69.264,32.276,71.5,28.246,73.658,28.246ZM96.98,21.59a2.027,2.027,0,0,1-1.092-.234,4.026,4.026,0,0,0-1.274-.416c-.208,0-.26.078-.26.234,0,.026.182,1.456.208,1.742.052.988.078,2.314.078,4.758,0,.338-.078,1.9-.078,2.21,0,.572.156.884.624.884.936,0,1.066-.338,1.274-.806.1-.286.39-.286.858-.286h4.29c.416,0,.676,0,.858.416.1.286.182.494.546.494,1.274,0,1.274-1.04,1.274-1.456,0-.728-.156-4.03-.156-4.706,0-1.378,0-1.534.442-1.846.182-.1.26-.156.26-.338,0-.442-1.664-1.4-1.82-1.4a2.527,2.527,0,0,0-.65.494.858.858,0,0,1-.78.26Zm4.576.7c.676,0,.91.026.91.806v1.43c0,.754-.312.754-.91.754H97.11c-.6,0-.806,0-.858-.442-.026-.156-.078-1.846-.078-1.872,0-.676.312-.676.884-.676Zm.052,3.666c.858,0,.858.208.858,1.924,0,.962,0,1.118-.858,1.118H97.266c-.6,0-.832,0-.884-.442-.052-.338-.078-1.612-.078-2,0-.6.338-.6.91-.6Zm-17.472.416c.078.1.13.156.208.156.052,0,.312-.026.39-.026.416-.026,1.768-.1,2.21-.1.806,0,.806.26.806,2a19.567,19.567,0,0,1-.156,3.146c-.26.442-2.99,1.352-3.77,1.43-.754.078-.832.078-.832.338,0,.52.676,2.392,1.17,2.392.156,0,.286-.156.338-.208a4.354,4.354,0,0,1,1.508-1.118c.26-.13,1.456-.936,1.56-.936.182,0,.182.052.182,1.2,0,.91-.052,5.356-.052,6.344,0,.52-.156.728-.7.728H84.708c-.052,0-.312,0-.312.1,0,.026,1.274.806,1.482.988.182.156.988,1.144,1.248,1.144a3.242,3.242,0,0,0,1.2-.39A2.2,2.2,0,0,0,89.466,41.3c0-.546-.13-3.25-.13-3.874V33.056c0-.624.156-.754,1.716-1.794A7.048,7.048,0,0,0,92.924,29.6c0-.052-.078-.052-.078-.052A30.9,30.9,0,0,1,89.7,30.768c-.286,0-.286-.13-.286-.6,0-.494,0-3.172.078-3.38.13-.39.468-.39.962-.39h1.69c.884,0,1.378,0,1.378-.364a2.9,2.9,0,0,0-1.534-1.508c-.182,0-.806.832-.988.988-.078.078-.208.208-.832.208-.728,0-.728-.182-.728-1.846a7.314,7.314,0,0,1,.13-1.768c.1-.13.78-.7.78-.91,0-.312-.468-.442-.754-.52-.7-.156-1.95-.364-2-.364-.13,0-.234.026-.234.182,0,.078.312,2.106.338,2.522.026.962.026,1.066.026,1.924,0,.442-.026.754-.728.754-.494,0-2.86-.156-3.406-.156-.052,0-.078.026-.078.052,0,.052,0,.052.1.182Zm20.592,10.582c.91,0,1.4,0,1.4-.364,0-.416-1.17-1.508-1.508-1.508-.234,0-.858.858-1.014.988-.208.208-.338.208-1.43.208h-.754c-.65,0-1.014,0-1.014-.806,0-.39,0-2.548.026-2.678.13-.494.442-.494.91-.494h4.5a6.546,6.546,0,0,0,1.326-.078c.156-.052.338-.1.338-.286,0-.39-1.4-1.534-1.794-1.534-.208,0-.26.078-.78.754-.338.442-.468.442-1.664.442h-6.89c-1.482,0-2.808-.026-3.562-.078-.182,0-.988-.1-1.144-.1-.052,0-.1,0-.1.078,0,.026.052.078.13.156l.494.6c.078.1.13.182.234.182.078,0,.468-.078.546-.078.91-.052,2.652-.052,3.276-.052h1.586c.65,0,.962,0,.962.884,0,1.144-.078,6.162-.026,7.2,0,.338.026.65-.416.65-1.092,0-3.614-1.586-3.614-2.262a5.79,5.79,0,0,1,.546-1.144c.65-1.482.728-1.664.988-1.794.572-.312.624-.338.624-.52,0-.39-2.08-1.326-2.158-1.326-.208,0-.208.1-.286,1.04a19.469,19.469,0,0,1-1.118,3.354,22.883,22.883,0,0,1-2.262,3.822,3.69,3.69,0,0,0-.39.572c0,.026.026.026.052.026.494,0,2.73-2.106,3.3-3.172.078-.13.182-.312.364-.312.13,0,.156.026.416.364,1.43,1.976,2.886,3.562,9.178,3.562a11.148,11.148,0,0,0,2.184-.1,7.3,7.3,0,0,0,.442-.91c.182-.26,1.2-1.69,1.2-1.716,0-.052-.026-.078-.052-.078-.078,0-1.69.494-2.028.572a29.377,29.377,0,0,1-4.082.312c-1.118,0-1.222,0-1.222-.754,0-.416-.026-2.314-.026-2.7,0-.91.286-.91,1.092-.91Zm24.544-9.438c1.2,0,1.326,0,1.326-.312a3.61,3.61,0,0,0-1.456-1.534c-.312,0-.754.572-.962.832-.26.312-.7.338-1.638.338h-4.6c-.26,0-.338,0-.338-.156s.6-.624.6-.78c0-.39-1.768-.962-1.924-.962s-.156,0-.338.78c-.26,1.118-.728,1.118-1.092,1.118-.936,0-3.094-.078-3.484-.1-.156-.026-.806-.078-.936-.078-.052,0-.1,0-.1.052s0,.052.13.182l.494.6c.078.1.13.156.234.156s.624-.078.728-.078,1.118-.052,2.574-.052c.156,0,.338,0,.338.182,0,.442-2.366,2.574-2.366,3.2,0,.442.546.572.884.572.65,0,.78-.156,1.222-.676a.525.525,0,0,1,.468-.208c.442,0,2.99.312,2.99.65,0,.208-1.794,1.3-4.654,2-1.638.416-2.912.624-2.964.624-.1.026-.208.052-.208.13,0,.182.286.182.572.182a19.13,19.13,0,0,0,7.488-1.56,11.549,11.549,0,0,1,1.846-.832,13.565,13.565,0,0,1,2.574.936,20.332,20.332,0,0,0,3.146,1.508.782.782,0,0,0,.806-.806c0-.728-.39-1.3-3.666-2.366-.182-.052-1.04-.26-1.2-.312a.27.27,0,0,1-.156-.208,11.143,11.143,0,0,1,1.118-1.222c.26-.286.338-.364.65-.416.676-.078.7-.1.7-.26a10.107,10.107,0,0,0-.416-1.014c0-.1.078-.1.234-.1Zm-9.516,9.568c.39,0,.546,0,.546.156a23.769,23.769,0,0,1-6.89,4.784c-.91.442-1.014.494-1.014.65,0,.1.156.1.234.1a24.728,24.728,0,0,0,8.528-4,2.872,2.872,0,0,1,.65-.39c.156,0,.182.208.182.442,0,.572-.156,3.458-.156,4.134,0,.468.1.858.546.858a1.38,1.38,0,0,0,1.456-1.456c0-.078-.286-4.264-.286-4.524,0-.234.078-.312.156-.312.1,0,.208.1,1.04.91,3.354,3.3,6.5,4.5,6.942,4.5a.372.372,0,0,0,.286-.078c.1-.1.546-.572.65-.65.234-.208,1.664-.858,1.664-.962,0-.078-.208-.078-.286-.078a17.177,17.177,0,0,1-5.512-1.43c-1.69-.728-4.03-2.21-4.03-2.5,0-.156.182-.156.338-.156h8.034c1.2,0,1.352,0,1.352-.338,0-.52-2-1.664-2.054-1.664-.26,0-.416.286-.624.65-.39.676-.6.676-1.872.676H124.2c-.286,0-.65-.026-.65-.6a2.3,2.3,0,0,1,.13-.832c.052-.1.416-.468.416-.572,0-.494-1.794-.7-2.08-.7-.078,0-.234,0-.234.156a6.97,6.97,0,0,0,.182.7c.026.312.052.754.052,1.066,0,.338-.052.78-.754.78h-5.1c-1.222,0-2.288-.052-3.562-.1-.156,0-.962-.078-1.144-.078-.052,0-.1,0-.1.052s.026.052.13.182l.494.6c.078.1.13.156.234.156.078,0,.442-.052.546-.052.26-.026.988-.078,3.276-.078Zm5.486-9.568c.208,0,.338,0,.338.182,0,.338-1.4,2.6-2.5,2.6-.416,0-2.262-.1-2.652-.1h-1.118c-.13,0-.26,0-.26-.1a12.653,12.653,0,0,1,1.248-1.924c.442-.572.6-.65,1.118-.65Zm-.7-3.874c-.364,0-.728,0-.728-.6,0-.988.13-1.17.338-1.326.364-.26.416-.312.416-.468a.408.408,0,0,0-.338-.338c-.156-.026-2.288-.468-2.34-.468a.15.15,0,0,0-.156.156c0,.156.13.78.156.936a10.231,10.231,0,0,1,.052,1.274c0,.286,0,.832-.7.832h-6.4c-.572,0-.572-.052-.832-.65-.078-.208-.416-.936-.572-.936-.078,0-.078.1-.078.156a4.509,4.509,0,0,1-1.066,3.016c-.65.832-.78,1.014-.78,1.534a.8.8,0,0,0,.832.91c1.2,0,1.794-1.248,2.028-2.808.078-.494.416-.52.7-.52h15.5c.312,0,.6,0,.6.442,0,.234-.26,1.326-.26,1.534,0,.1,0,.234.156.234s.26-.13.624-.546a2.967,2.967,0,0,1,1.95-1.2c.312-.1.884-.26.884-.6,0-.39-2.028-1.56-2.418-1.56-.26,0-.364.1-.832.676-.26.312-.442.312-1.352.312Zm17.108,14.092a2.886,2.886,0,0,0-.026,5.772,2.886,2.886,0,1,0,.026-5.772Zm-.026.728a2.181,2.181,0,0,1,2.21,2.184,2.146,2.146,0,0,1-2.158,2.132A2.18,2.18,0,0,1,139.49,40.6,2.1,2.1,0,0,1,141.622,38.464Z" transform="translate(130.624 21.866)" fill="#4a4a4a"/>
</svg>
