<svg xmlns="http://www.w3.org/2000/svg" width="431.958" height="27.3" viewBox="0 0 431.958 27.3">
  <path id="パス_130447" data-name="パス 130447" d="M1.48-7.88c.08,2.88.08,5.08.12,6C2.52-.84,5.32.6,8.56.6c4.72,0,8.88-3,8.88-7.72,0-3.24-1.96-5.36-4.72-7.4l-1.2-.88c-2.08-1.56-3.6-3-3.6-5.28a4.36,4.36,0,0,1,4.36-4.56c3.44,0,4.48,2.88,4.8,5.8l1.2-.12c.04-1.92,0-4.04.12-5.68-.32-.12-.96-.4-1.72-.68a12.848,12.848,0,0,0-3.96-.68c-4.8,0-8.2,3-8.2,7.24,0,3.32,2.56,5.56,4.52,7.08l1.16.88c2.28,1.8,3.6,3.36,3.6,5.56C13.8-2.8,11.96-.8,9.08-.8,4.72-.8,3.04-5.04,2.64-8ZM23.32.48a2.44,2.44,0,0,0,2.44-2.6,2.076,2.076,0,0,0-2.04-2.24,2.483,2.483,0,0,0-2.48,2.64A2.072,2.072,0,0,0,23.32.48Zm22.2-26.44H35.08l-.28,1.12c3.28.28,3.56.52,3,3.48L34.56-4.76c-.6,3.08-.84,3.4-3.92,3.64L30.36,0H40.88l.24-1.12c-3.24-.24-3.52-.52-2.92-3.64l3.2-16.6c.6-2.96.8-3.2,3.88-3.48ZM48.16.48a2.44,2.44,0,0,0,2.44-2.6,2.076,2.076,0,0,0-2.04-2.24,2.483,2.483,0,0,0-2.48,2.64A2.072,2.072,0,0,0,48.16.48ZM85.6-25.96H76.52l-.32,1.12c2.92.16,3.64.6,3.48,2.48a61.873,61.873,0,0,1-1.04,6.84l-1.8,9.56h-.12l-11.56-20H59.12l-.28,1.12c2.12.12,2.88.36,3.36,1.2.48.88.64,1.52.2,3.72l-2,9.52c-.8,3.72-1.24,5.52-1.68,6.88-.52,1.76-1.44,2.28-3.52,2.4L54.92,0H64.2l.24-1.12c-2.8-.2-3.52-.64-3.4-2.48a51.55,51.55,0,0,1,1-6.72l2.04-10.4h.12L75.96.32h1.36l3-15.84a67.91,67.91,0,0,1,1.56-6.8c.52-1.76,1.04-2.4,3.48-2.52Zm34.48,6.92c.16-2.76.36-5.08.48-6.32a22.359,22.359,0,0,0-7.12-1.24c-9.96,0-17,6.56-17,15.76,0,7.32,4.96,11.44,12,11.44a34.868,34.868,0,0,0,8.48-1.52,9.783,9.783,0,0,1,.2-3.12l.64-3.28c.56-3,.76-3.16,2.96-3.48l.28-1.08H110.84l-.28,1.08c3.96.4,4.16.52,3.6,3.48l-.76,3.68c-.44,2.16-2,2.8-4.28,2.8-5.4,0-8.4-4.28-8.4-10.24,0-7.52,4.68-14.08,11.76-14.08,3.96,0,6.28,1.64,6.36,6.24ZM145.6-.72a4.816,4.816,0,0,1-2.64-1.88,29.892,29.892,0,0,1-2.48-4.24c-.92-1.84-1.96-4.32-2.36-5.36,3.24-1.12,6.24-3.56,6.24-7.6a5.512,5.512,0,0,0-2.48-4.92c-1.4-.96-3.56-1.24-5.76-1.24h-8.96l-.24,1.12c3.16.28,3.32.44,2.72,3.68L126.52-5.08c-.68,3.44-.92,3.64-3.96,3.96L122.28,0h10.36l.24-1.12c-3.16-.28-3.44-.52-2.76-4l1.12-6.24h1.56c1.4,0,1.92.36,2.52,1.84C136.16-7.48,137-5.48,138-3.6c1.4,2.64,2.72,3.76,6.8,3.92h.48ZM131.52-12.68l1.88-9.8c.2-1.04.4-1.52.72-1.76a2.935,2.935,0,0,1,1.76-.4c2.76,0,4.52,1.72,4.52,5.16a6.923,6.923,0,0,1-2.96,5.8,7.365,7.365,0,0,1-4.2,1ZM163.84-26.6c-8.4,0-14.6,7.48-14.6,15.84C149.24-3.96,153.6.6,159.92.6c8.56,0,14.64-7.2,14.64-15.72C174.56-21.84,170.28-26.6,163.84-26.6Zm-.28,1.44c4.96,0,6.8,4.24,6.8,9.52,0,6.64-3.72,14.8-10.12,14.8-4.72,0-6.84-4.12-6.84-9.44C153.4-17.4,157.52-25.16,163.56-25.16Zm42.84-.8h-9.36l-.28,1.12c2.88.16,3.64.56,3.56,2.2a61.213,61.213,0,0,1-1.04,7.08l-.6,2.92C197.2-5.08,194.52-1.6,189.8-1.6c-3.92,0-6.76-2.72-5.4-9.84l1.84-9.76c.6-3.2.88-3.36,3.84-3.64l.24-1.12h-10.2l-.28,1.12c3.16.28,3.36.52,2.76,3.64l-1.88,9.96c-.92,4.96-.04,7.96,1.8,9.68A9.014,9.014,0,0,0,188.76.6a10.285,10.285,0,0,0,6.92-2.64c2.64-2.48,3.84-6.12,4.64-10.28l.64-3.24c.72-3.64,1.2-5.68,1.6-7.04.48-1.52.96-2.12,3.56-2.24Zm3.28,0-.28,1.12c3.16.32,3.36.56,2.76,3.72L208.96-5c-.68,3.36-.96,3.56-4,3.88L204.68,0H215.6l.24-1.12c-3.64-.32-3.92-.56-3.28-3.88l1.2-6.28,2.72.84c.44,0,.96,0,1.48-.04,4.52-.32,9.56-3.08,9.56-8.72,0-4.56-3.08-6.76-8.6-6.76Zm6.2,3.56c.24-1.28.52-1.72.96-1.92a3.8,3.8,0,0,1,1.68-.32c3.28,0,5.08,1.92,5.08,5.24,0,5.12-3.76,7.32-6.72,7.32a7.719,7.719,0,0,1-2.84-.52ZM260.92-7.08c-2.36,3.64-4.76,6.24-8.6,6.24-5.08,0-7.88-4.4-7.88-10.16,0-7.48,4.76-14.12,11.56-14.12,3.8,0,5.88,1.36,6.2,6.16l1.24-.12c.16-2,.24-4.2.32-6.24a19.653,19.653,0,0,0-6.88-1.28c-9.24,0-16.72,6.16-16.72,15.72C240.16-3.44,245.2.6,251.92.6a28.823,28.823,0,0,0,6.92-1A48.766,48.766,0,0,0,262-6.52ZM281.36-26.6c-8.4,0-14.6,7.48-14.6,15.84,0,6.8,4.36,11.36,10.68,11.36,8.56,0,14.64-7.2,14.64-15.72C292.08-21.84,287.8-26.6,281.36-26.6Zm-.28,1.44c4.96,0,6.8,4.24,6.8,9.52,0,6.64-3.72,14.8-10.12,14.8-4.72,0-6.84-4.12-6.84-9.44C270.92-17.4,275.04-25.16,281.08-25.16Zm48.16-.8h-6.72L310.4-6.44c-1.56-6.96-2.88-13.12-4.2-19.52h-6.92l-.32,1.12c3.72.32,3.96.68,2.8,4.56l-2.32,7.96c-1.44,4.84-2.16,7.12-2.8,8.72-.68,1.72-1.48,2.28-3.72,2.48L292.64,0h9.04l.24-1.12c-2.88-.28-3.28-.76-3-2.52a74.026,74.026,0,0,1,1.84-7.64l2.88-10.4h.12c1.44,7.64,2.72,14.4,3.96,21.52h.96l13-21.88h.12c-.84,5.52-1.72,10.72-2.6,16.6-.6,3.8-.8,4-3.8,4.32L315.12,0h10.36l.24-1.12c-3.16-.32-3.4-.44-2.92-4.32.68-5.24,1.28-9.92,2.16-15.72.48-3.24.6-3.4,4-3.68Zm4.76,0-.28,1.12c3.16.32,3.36.56,2.76,3.72L333.28-5c-.68,3.36-.96,3.56-4,3.88L329,0h10.92l.24-1.12c-3.64-.32-3.92-.56-3.28-3.88l1.2-6.28,2.72.84c.44,0,.96,0,1.48-.04,4.52-.32,9.56-3.08,9.56-8.72,0-4.56-3.08-6.76-8.6-6.76Zm6.2,3.56c.24-1.28.52-1.72.96-1.92a3.8,3.8,0,0,1,1.68-.32c3.28,0,5.08,1.92,5.08,5.24,0,5.12-3.76,7.32-6.72,7.32a7.719,7.719,0,0,1-2.84-.52Zm34,21.28c-2.8-.32-3.04-.64-3.56-3.64-.88-4.88-1.76-9.96-2.6-15.16L367-26.56l-1.4.36L353.68-5.12c-1.92,3.44-2.36,3.64-4.8,4L348.56,0h8.68l.28-1.12c-3.08-.28-3.32-.6-2.2-2.88.84-1.8,1.96-3.96,2.68-5.28h8.24c.36,2.2.68,4.04.92,5.68.24,1.76.08,2.2-2.64,2.48L364.2,0h9.72Zm-8.24-9.92h-7.08c1.72-3.32,3.56-6.56,5.44-10.08h.08ZM407.4-25.96h-9.08L398-24.84c2.92.16,3.64.6,3.48,2.48a61.878,61.878,0,0,1-1.04,6.84l-1.8,9.56h-.12l-11.56-20h-6.04l-.28,1.12c2.12.12,2.88.36,3.36,1.2.48.88.64,1.52.2,3.72l-2,9.52c-.8,3.72-1.24,5.52-1.68,6.88-.52,1.76-1.44,2.28-3.52,2.4L376.72,0H386l.24-1.12c-2.8-.2-3.52-.64-3.4-2.48a51.554,51.554,0,0,1,1-6.72l2.04-10.4H386L397.76.32h1.36l3-15.84a67.91,67.91,0,0,1,1.56-6.8c.52-1.76,1.04-2.4,3.48-2.52Zm25.92,0h-8.68l-.32,1.12,1.16.16c1.52.24,1.76.56.92,1.96-1.56,2.64-4.36,6.64-6.24,9.28-1.12-2.8-2.72-7.24-3.52-9.48-.36-1.2-.28-1.52,1.04-1.72l1.36-.2.28-1.12h-9.48l-.32,1.12c2.52.28,2.8.48,3.72,2.92,1.56,4.12,2.52,6.76,3.4,9.2a3.621,3.621,0,0,1,.2,2.4L415.8-5.04c-.68,3.44-.96,3.68-4.24,3.92L411.28,0h11.04l.28-1.12c-3.56-.32-3.88-.52-3.2-3.92l1.12-5.52a5.938,5.938,0,0,1,1-2.32c2.6-3.72,4.68-6.68,6.44-8.88,2.04-2.56,2.52-2.8,5.04-3.08Z" transform="translate(-1.429 26.65)" fill="#4a4a4a" stroke="#fff" stroke-width="0.1"/>
</svg>
