<svg xmlns="http://www.w3.org/2000/svg" width="237.443" height="76.66" viewBox="0 0 237.443 76.66">
  <path id="パス_130445" data-name="パス 130445" d="M-117.558-8.274c.084,3.024.084,5.334.126,6.3.966,1.092,3.906,2.6,7.308,2.6,4.956,0,9.324-3.15,9.324-8.106,0-3.4-2.058-5.628-4.956-7.77l-1.26-.924c-2.184-1.638-3.78-3.15-3.78-5.544a4.578,4.578,0,0,1,4.578-4.788c3.612,0,4.7,3.024,5.04,6.09l1.26-.126c.042-2.016,0-4.242.126-5.964-.336-.126-1.008-.42-1.806-.714a13.491,13.491,0,0,0-4.158-.714c-5.04,0-8.61,3.15-8.61,7.6,0,3.486,2.688,5.838,4.746,7.434l1.218.924c2.394,1.89,3.78,3.528,3.78,5.838,0,3.192-1.932,5.292-4.956,5.292-4.578,0-6.342-4.452-6.762-7.56ZM-94.626.5a2.562,2.562,0,0,0,2.562-2.73,2.18,2.18,0,0,0-2.142-2.352,2.607,2.607,0,0,0-2.6,2.772A2.176,2.176,0,0,0-94.626.5Zm23.31-27.762H-82.278l-.294,1.176c3.444.294,3.738.546,3.15,3.654L-82.824-5c-.63,3.234-.882,3.57-4.116,3.822L-87.234,0h11.046l.252-1.176c-3.4-.252-3.7-.546-3.066-3.822l3.36-17.43c.63-3.108.84-3.36,4.074-3.654ZM-68.544.5a2.562,2.562,0,0,0,2.562-2.73,2.18,2.18,0,0,0-2.142-2.352,2.607,2.607,0,0,0-2.6,2.772A2.176,2.176,0,0,0-68.544.5Zm39.312-27.762h-9.534l-.336,1.176c3.066.168,3.822.63,3.654,2.6A64.966,64.966,0,0,1-36.54-16.3L-38.43-6.258h-.126l-12.138-21h-6.342l-.294,1.176c2.226.126,3.024.378,3.528,1.26.5.924.672,1.6.21,3.906l-2.1,10c-.84,3.906-1.3,5.8-1.764,7.224-.546,1.848-1.512,2.394-3.7,2.52L-61.446,0H-51.7l.252-1.176c-2.94-.21-3.7-.672-3.57-2.6a54.128,54.128,0,0,1,1.05-7.056l2.142-10.92h.126L-39.354.336h1.428l3.15-16.632a71.308,71.308,0,0,1,1.638-7.14c.546-1.848,1.092-2.52,3.654-2.646Zm36.2,7.266c.168-2.9.378-5.334.5-6.636A23.477,23.477,0,0,0,0-27.93c-10.458,0-17.85,6.888-17.85,16.548C-17.85-3.7-12.642.63-5.25.63c3.318,0,6.3-.966,8.9-1.6a10.272,10.272,0,0,1,.21-3.276l.672-3.444c.588-3.15.8-3.318,3.108-3.654l.294-1.134H-2.73l-.294,1.134c4.158.42,4.368.546,3.78,3.654l-.8,3.864C-.5-1.554-2.142-.882-4.536-.882c-5.67,0-8.82-4.494-8.82-10.752,0-7.9,4.914-14.784,12.348-14.784,4.158,0,6.594,1.722,6.678,6.552ZM33.768-.756A5.056,5.056,0,0,1,31-2.73a31.385,31.385,0,0,1-2.6-4.452c-.966-1.932-2.058-4.536-2.478-5.628,3.4-1.176,6.552-3.738,6.552-7.98a5.788,5.788,0,0,0-2.6-5.166c-1.47-1.008-3.738-1.3-6.048-1.3H14.406l-.252,1.176c3.318.294,3.486.462,2.856,3.864L13.734-5.334c-.714,3.612-.966,3.822-4.158,4.158L9.282,0H20.16l.252-1.176c-3.318-.294-3.612-.546-2.9-4.2l1.176-6.552h1.638c1.47,0,2.016.378,2.646,1.932.882,2.142,1.764,4.242,2.814,6.216,1.47,2.772,2.856,3.948,7.14,4.116h.5ZM18.984-13.314,20.958-23.6c.21-1.092.42-1.6.756-1.848a3.082,3.082,0,0,1,1.848-.42c2.9,0,4.746,1.806,4.746,5.418a7.269,7.269,0,0,1-3.108,6.09,7.733,7.733,0,0,1-4.41,1.05ZM52.92-27.93c-8.82,0-15.33,7.854-15.33,16.632C37.59-4.158,42.168.63,48.8.63c8.988,0,15.372-7.56,15.372-16.506C64.176-22.932,59.682-27.93,52.92-27.93Zm-.294,1.512c5.208,0,7.14,4.452,7.14,10,0,6.972-3.906,15.54-10.626,15.54-4.956,0-7.182-4.326-7.182-9.912C41.958-18.27,46.284-26.418,52.626-26.418Zm44.982-.84H87.78l-.294,1.176c3.024.168,3.822.588,3.738,2.31a64.274,64.274,0,0,1-1.092,7.434l-.63,3.066C87.948-5.334,85.134-1.68,80.178-1.68c-4.116,0-7.1-2.856-5.67-10.332L76.44-22.26c.63-3.36.924-3.528,4.032-3.822l.252-1.176H70.014l-.294,1.176c3.318.294,3.528.546,2.9,3.822L70.644-11.8c-.966,5.208-.042,8.358,1.89,10.164A9.464,9.464,0,0,0,79.086.63a10.8,10.8,0,0,0,7.266-2.772c2.772-2.6,4.032-6.426,4.872-10.794l.672-3.4c.756-3.822,1.26-5.964,1.68-7.392.5-1.6,1.008-2.226,3.738-2.352Zm3.444,0-.294,1.176c3.318.336,3.528.588,2.9,3.906L100.3-5.25c-.714,3.528-1.008,3.738-4.2,4.074L95.8,0h11.466l.252-1.176c-3.822-.336-4.116-.588-3.444-4.074l1.26-6.594,2.856.882c.462,0,1.008,0,1.554-.042,4.746-.336,10.038-3.234,10.038-9.156,0-4.788-3.234-7.1-9.03-7.1Zm6.51,3.738c.252-1.344.546-1.806,1.008-2.016a3.986,3.986,0,0,1,1.764-.336c3.444,0,5.334,2.016,5.334,5.5,0,5.376-3.948,7.686-7.056,7.686a8.1,8.1,0,0,1-2.982-.546ZM-76.671,40.566c-2.478,3.822-5,6.552-9.03,6.552-5.334,0-8.274-4.62-8.274-10.668,0-7.854,5-14.826,12.138-14.826,3.99,0,6.174,1.428,6.51,6.468l1.3-.126c.168-2.1.252-4.41.336-6.552a20.635,20.635,0,0,0-7.224-1.344c-9.7,0-17.556,6.468-17.556,16.506,0,7.812,5.292,12.054,12.348,12.054a30.264,30.264,0,0,0,7.266-1.05,51.207,51.207,0,0,0,3.318-6.426Zm21.462-20.5c-8.82,0-15.33,7.854-15.33,16.632,0,7.14,4.578,11.928,11.214,11.928,8.988,0,15.372-7.56,15.372-16.506C-43.953,25.068-48.447,20.07-55.209,20.07Zm-.294,1.512c5.208,0,7.14,4.452,7.14,10,0,6.972-3.906,15.54-10.626,15.54-4.956,0-7.182-4.326-7.182-9.912C-66.171,29.73-61.845,21.582-55.5,21.582Zm50.568-.84h-7.056l-12.726,20.5c-1.638-7.308-3.024-13.776-4.41-20.5h-7.266l-.336,1.176c3.906.336,4.158.714,2.94,4.788l-2.436,8.358c-1.512,5.082-2.268,7.476-2.94,9.156-.714,1.806-1.554,2.394-3.906,2.6L-43.365,48h9.492l.252-1.176c-3.024-.294-3.444-.8-3.15-2.646a77.728,77.728,0,0,1,1.932-8.022l3.024-10.92h.126c1.512,8.022,2.856,15.12,4.158,22.6h1.008l13.65-22.974h.126c-.882,5.8-1.806,11.256-2.73,17.43-.63,3.99-.84,4.2-3.99,4.536L-19.761,48H-8.883l.252-1.176c-3.318-.336-3.57-.462-3.066-4.536.714-5.5,1.344-10.416,2.268-16.506.5-3.4.63-3.57,4.2-3.864Zm5,0-.294,1.176c3.318.336,3.528.588,2.9,3.906L-.693,42.75c-.714,3.528-1.008,3.738-4.2,4.074L-5.187,48H6.279l.252-1.176c-3.822-.336-4.116-.588-3.444-4.074l1.26-6.594,2.856.882c.462,0,1.008,0,1.554-.042C13.5,36.66,18.8,33.762,18.8,27.84c0-4.788-3.234-7.1-9.03-7.1Zm6.51,3.738c.252-1.344.546-1.806,1.008-2.016a3.986,3.986,0,0,1,1.764-.336c3.444,0,5.334,2.016,5.334,5.5,0,5.376-3.948,7.686-7.056,7.686a8.1,8.1,0,0,1-2.982-.546Zm35.7,22.344c-2.94-.336-3.192-.672-3.738-3.822-.924-5.124-1.848-10.458-2.73-15.918l-1.092-6.972-1.47.378L20.727,42.624c-2.016,3.612-2.478,3.822-5.04,4.2L15.351,48h9.114l.294-1.176c-3.234-.294-3.486-.63-2.31-3.024.882-1.89,2.058-4.158,2.814-5.544h8.652c.378,2.31.714,4.242.966,5.964.252,1.848.084,2.31-2.772,2.6L31.773,48H41.979ZM33.621,36.408H26.187c1.806-3.486,3.738-6.888,5.712-10.584h.084ZM77.133,20.742H67.6l-.336,1.176c3.066.168,3.822.63,3.654,2.6A64.966,64.966,0,0,1,69.825,31.7l-1.89,10.038h-.126l-12.138-21H49.329l-.294,1.176c2.226.126,3.024.378,3.528,1.26.5.924.672,1.6.21,3.906l-2.1,10c-.84,3.906-1.3,5.8-1.764,7.224-.546,1.848-1.512,2.394-3.7,2.52L44.919,48h9.744l.252-1.176c-2.94-.21-3.7-.672-3.57-2.6a54.128,54.128,0,0,1,1.05-7.056l2.142-10.92h.126L67.011,48.336h1.428L71.589,31.7a71.308,71.308,0,0,1,1.638-7.14c.546-1.848,1.092-2.52,3.654-2.646Zm27.216,0H95.235L94.9,21.918l1.218.168c1.6.252,1.848.588.966,2.058-1.638,2.772-4.578,6.972-6.552,9.744-1.176-2.94-2.856-7.6-3.7-9.954-.378-1.26-.294-1.6,1.092-1.806l1.428-.21.294-1.176H79.695l-.336,1.176c2.646.294,2.94.5,3.906,3.066,1.638,4.326,2.646,7.1,3.57,9.66a3.8,3.8,0,0,1,.21,2.52l-1.092,5.544c-.714,3.612-1.008,3.864-4.452,4.116L81.207,48H92.8l.294-1.176c-3.738-.336-4.074-.546-3.36-4.116l1.176-5.8a6.235,6.235,0,0,1,1.05-2.436c2.73-3.906,4.914-7.014,6.762-9.324,2.142-2.688,2.646-2.94,5.292-3.234Z" transform="translate(117.609 27.98)" fill="#4a4a4a" stroke="#fff" stroke-width="0.1"/>
</svg>
