<svg xmlns="http://www.w3.org/2000/svg" width="596.01" height="27.51" viewBox="0 0 596.01 27.51">
  <path id="パス_130455" data-name="パス 130455" d="M11.01-22.38l.06.12a3.328,3.328,0,0,1,1.02,1.38c.36.96.36,1.92.36,10.5a62.094,62.094,0,0,1-.27,6.96c0,.12-.12.75-.12.87,0,.78.78,2.82,1.68,2.82.87,0,.87-1.98.87-2.73,0-.45-.03-1.2-.06-1.53-.12-2.7-.15-4.29-.15-7.47,0-2.22.12-2.22.42-2.22.93,0,2.34,1.41,3.18,2.52,2.01,2.61,2.1,2.73,2.85,2.73a1.027,1.027,0,0,0,1.08-1.05c0-2.25-4.65-4.44-6.48-4.86-.87-.21-.99-.3-.99-.96a38.913,38.913,0,0,1,.27-4.17,8.693,8.693,0,0,0,.36-1.26c0-.96-2.16-1.92-3.24-1.92C11.82-22.65,11.04-22.65,11.01-22.38ZM39.69-12.09a16.337,16.337,0,0,1-3.66-.27c-.15-.03-.87-.36-1.02-.36s-.24.18-.24.36c0,1.02,1.38,2.88,2.67,2.88.36,0,1.98-.48,2.34-.54.72-.15,7.59-.54,11.73-.54.6,0,3.6.06,4.29.06,1.26,0,2.49-.09,2.49-.93,0-.21-.27-1.32-2.1-1.32-.15,0-.48.03-.66.03C51.15-12.48,40.68-12.09,39.69-12.09ZM67.8-.06c-.06.27.21.27.27.27A25.9,25.9,0,0,0,79.14-7.02c.6-.63.78-.84,1.05-.84.3,0,.63.57.69.69,1.14,1.92,1.26,2.13,1.89,2.13a1.292,1.292,0,0,0,1.29-1.44A4.188,4.188,0,0,0,82.8-9.12c-.54-.69-.57-.75-.57-1.02,0-.24.06-.33.33-.75.36-.6,2.4-3.45,2.82-4.11.9-1.41,1.02-1.56,1.47-1.77.54-.24.75-.33.75-.78,0-.96-2.16-2.31-2.46-2.31a7.2,7.2,0,0,0-1.11.66,18.376,18.376,0,0,1-4.5.72c-.39,0-1.02-.06-1.02-.51,0-.18.33-.99.33-1.17,0-.6-1.11-1.77-2.7-1.77-.18,0-.57,0-.57.18,0,.21.48,1.17.48,1.41,0,1.71-2.46,5.94-6.03,9.81a9.844,9.844,0,0,0-1.08,1.29.14.14,0,0,0,.15.15c.99,0,4.62-3.93,5.31-3.93.75,0,4.32,2.28,4.32,3.21S74.61-3.99,68.46-.51C67.89-.18,67.83-.18,67.8-.06ZM80.07-11.37a1.692,1.692,0,0,1-.69-.21,33.464,33.464,0,0,0-3.3-1.53c-.75-.3-1.02-.39-1.02-.81a24.544,24.544,0,0,1,2.55-3.36.472.472,0,0,1,.36-.12,2.017,2.017,0,0,1,.72.12,2.726,2.726,0,0,0,.9.12c.54,0,3.18-.39,3.63-.39.21,0,.51.09.51.42C83.73-16.11,80.73-11.49,80.07-11.37Zm26.07-3.99c0-1.53-3.18-2.55-3.39-2.55-.12,0-.15.06-.15.15a2.227,2.227,0,0,0,.12.54,6.579,6.579,0,0,1,.51,2.58c0,.99-.33,4.26-3.63,8.79a8.5,8.5,0,0,0-1.2,1.59.14.14,0,0,0,.15.15c.6,0,3.75-1.8,5.55-5.7C104.61-10.95,106.14-15.27,106.14-15.36Zm5.28,10.8c.21-.03.48-.24.99-.81a16.668,16.668,0,0,1,2.07-1.92c5.25-4.62,6.99-8.34,6.99-8.58a.129.129,0,0,0-.12-.12c-.12,0-2.67,2.7-3.18,3.21-2.88,2.91-5.64,4.89-6.54,4.89-.54,0-.57-.6-.57-.99,0-.99.12-4.62.24-5.43.06-.33.48-1.89.48-2.25,0-1.56-3.15-2.1-3.3-2.1-.06,0-.18.03-.18.15a7.8,7.8,0,0,0,.39,1.08,18.4,18.4,0,0,1,.57,5.64c0,.75-.03,3.12-.12,3.69-.03.15-.18.93-.18,1.08C108.96-6.18,110.55-4.41,111.42-4.56Zm40.2-18.12c-.21,0-1.11,0-1.11.3,0,.09.06.21.36.33a7.115,7.115,0,0,1,2.52,1.83c.51.69.9,1.2,1.53,1.2a.854.854,0,0,0,.78-.9C155.7-21.66,153.24-22.68,151.62-22.68Zm-2.94,2.88c-.24,0-.51.12-.51.24s.3.39.42.48a8.692,8.692,0,0,1,2.04,1.86c.84,1.14,1.11,1.38,1.53,1.38.54,0,.9-.69.9-1.14C153.06-18.03,151.38-19.8,148.68-19.8Zm-6,6.93a.364.364,0,0,1,.21-.45,25.818,25.818,0,0,1,3.03-.09c.66,0,1.5.09,2.13.15.3.03,1.77.27,2.1.27.39,0,.87-.18.87-.72,0-1.23-3.42-1.89-3.78-1.89-.33,0-1.89.48-2.25.54-2.1.3-9.87,1.14-11.79,1.14a8.875,8.875,0,0,1-1.89-.21,2.64,2.64,0,0,0-.45-.15c-.15,0-.21.12-.21.3a2.625,2.625,0,0,0,2.37,2.28,18.939,18.939,0,0,0,2.16-.54,36.981,36.981,0,0,1,4.77-.9c.66,0,.72.54.72.9A20.232,20.232,0,0,1,134.79-.93,20.433,20.433,0,0,0,133.2.57c0,.09.06.15.18.15.39,0,5.07-1.92,7.95-7.71.27-.51,1.41-3.27,1.5-3.39.09-.15.81-.72.81-.93A9.322,9.322,0,0,0,142.68-12.87Zm-7.26-7.5c-.15.06.78,2.16,2.25,2.16.09,0,1.26-.24,1.41-.27.45-.09,2.46-.48,3.99-.66,1.77-.18,2.28-.24,2.28-1.11s-1.08-.99-1.71-.99a12.259,12.259,0,0,0-2.4.36c-3,.66-3.33.75-4.26.75C136.74-20.13,135.42-20.37,135.42-20.37Zm47.01-3.18c-.45,0-1.11.15-1.11.39,0,.09.09.21.39.33a7.072,7.072,0,0,1,2.64,1.62c.57.69.93,1.11,1.56,1.11a.854.854,0,0,0,.78-.9C186.69-21.99,185.49-23.55,182.43-23.55Zm-2.07,2.46c-.27,0-.54.12-.54.24,0,.18.24.3.45.45a8.374,8.374,0,0,1,2.07,1.86c.87,1.14,1.11,1.35,1.53,1.35.54,0,.9-.69.9-1.14C184.77-19.23,183.33-21.09,180.36-21.09Zm-20.43,6.42a.243.243,0,0,0-.21.27c0,1.17,2.61,2.49,2.97,2.49a7.065,7.065,0,0,0,1.05-.33,24.41,24.41,0,0,1,3.84-.72c.51,0,.69.18.69,1.62,0,.3-.27,3.18-.27,3.48,0,.51.87,2.4,1.59,2.4.42,0,.57-.54.57-1.98,0-.57-.18-3.48-.18-4.14,0-1.29,0-1.41.39-1.62a19.187,19.187,0,0,1,3.57-.3c.42,0,.9,0,.9.96,0,3.87-.54,7.23-2.91,10.74-.24.39-1.74,2.31-1.74,2.34a.173.173,0,0,0,.18.18,9.685,9.685,0,0,0,3.12-2.7c2.73-3.36,3.06-6.81,3.18-9.66.09-1.74.09-1.95.99-1.95.06,0,3.06.06,4.08.21.33.06,1.95.42,2.31.42a.885.885,0,0,0,.96-.87c0-1.47-2.64-1.98-4.14-1.98a3.575,3.575,0,0,0-1.5.39,9.323,9.323,0,0,1-2.04.33c-.72,0-.72-.3-.72-1.26a13.556,13.556,0,0,1,.3-3.36,5.966,5.966,0,0,0,.51-1.08c0-.36-.45-.57-.75-.72a6.877,6.877,0,0,0-2.4-.9c-.36,0-.69.18-.69.3,0,.06.84,1.26.93,1.53a36.052,36.052,0,0,1,.21,4.89c0,.3,0,.81-.66.87-.75.06-2.64.18-3.42.18-.42,0-.72-.18-.72-.63a4.275,4.275,0,0,1,.12-1.08,9.365,9.365,0,0,0,.54-1.26c0-.6-2.01-2.01-2.7-2.01-.51,0-1.05.18-1.05.3s.48.63.57.75a7.775,7.775,0,0,1,.66,3.33c0,.72-.33.81-.9.84-.54,0-3.15.18-3.75.18-.39,0-2.13-.21-2.58-.27A5.269,5.269,0,0,0,159.93-14.67Zm44.79-.15c.57-.72,1.53-1.8,2.04-2.52a8.569,8.569,0,0,1,2.04-2.46.757.757,0,0,0,.27-.6c0-1.14-3.03-2.4-3.48-2.4a.3.3,0,0,0-.3.24,3.333,3.333,0,0,0,.21.48,1.7,1.7,0,0,1,.24.84c0,.84-2.34,5.94-9.42,12-.48.42-1.32,1.11-2.1,1.8a.272.272,0,0,0-.09.21c0,.12.06.18.15.18.54,0,5.58-2.91,8.52-5.73.24-.24.36-.36.51-.36.78,0,.78,3.15.78,4.23,0,1.59-.12,3.9-.3,5.52-.03.3-.33,1.62-.33,1.92,0,.81,1.02,2.1,1.86,2.1.72,0,.72-1.02.72-1.32,0-.39-.18-2.13-.21-2.49-.06-1.17-.09-2.79-.09-3.6,0-4.14.06-4.77.18-5.31.03-.18.36-1.02.36-1.2,0-.27-.12-.39-1.29-1.11A.485.485,0,0,1,204.72-14.82Zm29.43-1.98c0-1.77-2.52-3.48-5.73-3.48-.42,0-.66.15-.66.27s.15.21.27.27a6.757,6.757,0,0,1,2.73,2.46c.99,1.5,1.29,1.98,2.1,1.98A1.325,1.325,0,0,0,234.15-16.8Zm12.48-.27a.193.193,0,0,0-.15-.15c-.06,0-.9.84-1.38,1.32-4.98,4.92-12.93,10.23-14.4,10.23a4.966,4.966,0,0,1-2.04-.69,7.469,7.469,0,0,0-.9-.57c-.27,0-.3,1.38-.3,1.59,0,1.2,2.22,3.12,3.84,3.12.45,0,.51-.06,1.08-.75a20.948,20.948,0,0,1,2.94-2.46C243.12-11.19,246.63-16.8,246.63-17.07Zm9.36-.69c-.39.42,1.05,2.43,2.55,2.43a2.29,2.29,0,0,0,1.02-.39c.99-.57,7.2-3.21,8.94-3.21.06,0,.18,0,.18.06a5.867,5.867,0,0,1-.75.63c-4.32,3.87-4.35,10.23-4.35,11.55,0,1.41,0,6.42,6.12,6.42.18,0,3.48,0,3.48-1.59,0-.72-.54-1.11-1.47-1.11-.27,0-2.4.18-2.85.18-1.77,0-3.66-.33-3.66-5.37,0-7.74,4.26-11.25,8.07-11.25.33,0,2.04.33,2.43.33a1.2,1.2,0,0,0,1.23-1.11c0-1.02-1.35-1.44-2.43-1.44-1.98,0-8.85,1.95-11.52,2.7-4.11,1.17-4.56,1.29-5.82,1.29C256.98-17.64,256.11-17.91,255.99-17.76Zm20.67,2.01a2.769,2.769,0,0,0-.75-.15c-.09,0-.42,0-.42.18,0,.15.12.27.27.39a7.772,7.772,0,0,1,1.98,2.4c.3.72.63,1.59,1.35,1.59.39,0,.87-.33.87-1.11C279.96-13.89,278.43-15.18,276.66-15.75Zm-3.87,1.23c-.27-.06-.6-.03-.6.12a1.627,1.627,0,0,0,.3.54,7.851,7.851,0,0,1,1.5,2.34c.48,1.17.75,1.74,1.29,1.74a1.217,1.217,0,0,0,1.05-1.23C276.33-11.97,275.34-13.83,272.79-14.52Zm26.49-3.69a2.55,2.55,0,0,1-.75-.15,12.894,12.894,0,0,0-2.1-.87c-.24,0-.33.12-.33.3,0,.21.24,1.26.27,1.5.24,2.31.27,5.85.27,7.2,0,.6-.12,3.54-.12,3.81a.764.764,0,0,0,.81.9,1.714,1.714,0,0,0,1.2-.54c.18-.24.18-.51.18-1.44,0-.27,0-.87.81-.87h1.8a.67.67,0,0,1,.75.66c.03.75.03.9.03,2.22a39.2,39.2,0,0,1-.12,3.93c-.33.51-3.96.63-4.68.63a2.888,2.888,0,0,1-.99-.12,1.745,1.745,0,0,0-.48-.15c-.09,0-.21.03-.21.18a12.623,12.623,0,0,0,.54,1.74c.3.87.42,1.17.78,1.17a12.52,12.52,0,0,0,1.62-.51c.9-.27,5.4-1.38,6.42-1.65.6-.18,3.75-1.11,3.84-1.11.33,0,.36.21.36,1.02.03.9.03,1.92.93,1.92.78,0,1.44-1.02,1.44-1.89,0-2.1-2.43-4.62-3.33-4.62a.446.446,0,0,0-.18.03c.06.09.15.21.21.3a3.446,3.446,0,0,1,.69,1.98c0,.24-.12.54-1.11.72a16.057,16.057,0,0,1-2.94.42c-.57,0-.9-.03-.9-.84V-4.83c0-.45,0-2.79.03-2.97a.7.7,0,0,1,.78-.57h2.28c.78,0,.78.54.78,1.35,0,.66.06,1.08.6,1.08a1.514,1.514,0,0,0,1.59-1.56c0-.24-.12-1.41-.12-1.68-.15-2.97-.12-5.16-.12-5.43,0-.87,0-2.01.39-2.34.45-.39.48-.42.48-.63,0-.36-1.89-1.41-2.19-1.41-.18,0-.21.03-.54.39a1.205,1.205,0,0,1-.87.39h-2.34a.757.757,0,0,1-.78-.69v-2.91a2.935,2.935,0,0,1,.18-1.32c.06-.09.48-.51.48-.63,0-.48-2.67-.99-2.73-.99a.265.265,0,0,0-.3.3c0,.21.24,1.26.27,1.47.12.93.24,2.85.24,3.45,0,.63,0,1.32-.81,1.32Zm.09,9.03c-.78,0-.81-.57-.81-.72-.09-1.38-.18-5.37-.18-6.72a.743.743,0,0,1,.84-.81h2.04c.72,0,.84.42.84,1.08v6.33a.751.751,0,0,1-.78.84Zm5.4,0a.714.714,0,0,1-.78-.84c0-1.05-.03-5.58,0-6.51,0-.36,0-.9.81-.9h2.16c.33,0,.84,0,.84.81.03.9.09,5.64.09,6.6a.722.722,0,0,1-.75.84ZM289.56-19.2c0,.69-2.58,3.18-3.51,4.05-.27.24-1.62,1.41-1.62,1.44,0,.06.06.06.09.06a21.922,21.922,0,0,0,3.03-1.62c.48-.3,2.7-1.98,2.91-1.98.39,0,.75,1.41.75,1.65,0,.99-1.26,4.35-5.07,9.93-.24.36-1.68,2.22-1.68,2.31a.129.129,0,0,0,.12.12,36.915,36.915,0,0,0,6.51-7.05c.63-.96.72-1.08.93-1.08.15,0,.21.15.24.27.06.39.09,1.83.09,2.4a23.044,23.044,0,0,1-.81,6.66c-.3.93-.66,1.14-1.2,1.14-.45,0-2.55-.24-2.67-.24-.03,0-.06,0-.06.03a.1.1,0,0,0,.09.09A5.36,5.36,0,0,1,289.83.96c.36.66.57.84.96.84,1.98,0,3.42-4.2,3.42-9.09a29.277,29.277,0,0,0-1.32-8.64c-.15-.42-1.05-2.55-1.05-2.67a1.063,1.063,0,0,1,.33-.72c1.89-2.22,2.1-2.49,2.4-2.58.75-.27.9-.3.9-.69a.755.755,0,0,0-.42-.63c-.12-.12-1.92-1.23-1.98-1.23-.24,0-.51,1.32-.6,1.56-.27.54-1.38,2.52-1.77,2.52a.221.221,0,0,1-.24-.12c-1.56-1.83-3.66-3.69-4.2-3.69-.06,0-.15.03-.15.09C286.11-23.76,289.56-20.16,289.56-19.2ZM328.02.63c.36,0,.87.03.93.57.06.45.09.72.54.72a1.714,1.714,0,0,0,1.29-.72c.24-.36.24-.6.24-2.67a12.329,12.329,0,0,1,0-1.83c.03-.12.09-.18.6-.6a.484.484,0,0,0,.18-.39c0-.63-2.13-1.56-2.19-1.56-.21,0-.39.21-.6.54-.3.45-.54.51-1.11.51h-3.93a2.93,2.93,0,0,1-1.35-.24c-1.26-.75-1.38-.84-1.38-1.29,0-1.23.45-1.23.99-1.23h5.76c.54,0,.66,0,.81.24.27.42.36.51.66.51a1.394,1.394,0,0,0,1.41-1.32c0-.81-.06-4.59,0-5.01.15-.15.45-.48.54-.54a.677.677,0,0,0,.24-.48c0-.36-2.16-1.65-2.31-1.65-.18,0-.66.66-.78.78-.15.12-.36.15-.81.15h-4.98a2.863,2.863,0,0,1-1.92-.63,3.134,3.134,0,0,0-1.35-.57c-.15,0-.24.03-.24.15,0,.15.27.84.3.99a23.9,23.9,0,0,1,.3,4.65c0,.69,0,6.18-2.76,10.32-.21.3-.57.84-.57.84,0,.06.03.09.06.09a10.238,10.238,0,0,0,3.27-3.57c.18-.33.96-2.13,1.02-2.13.18,0,.18,1.5.18,1.77,0,.36,0,1.68-.06,2.73,0,.24-.15,1.29-.15,1.5,0,.24,0,.72.84.72a1.271,1.271,0,0,0,1.38-.96c.15-.36.33-.39.96-.39Zm-5.43-12.42c-.66,0-.84-.15-.84-.78,0-1.2,0-1.5.84-1.5h5.4c.81,0,.81.09.81,1.35,0,.63,0,.93-.87.93Zm-.18,3.42c-.45,0-.81-.03-.81-.66,0-1.95.27-1.98.99-1.98h5.4c.75,0,.81.33.81.84,0,1.62,0,1.8-.81,1.8Zm5.64,4.35c.99,0,.99.36.99,1.26,0,2.34,0,2.61-1.02,2.61h-3.9c-.99,0-.99-.21-.99-2.07,0-1.56,0-1.8.99-1.8Zm4.77-14.31c-.15-.84-.48-1.32-4.98-3.48-.24-.12-1.29-.63-1.29-.78,0-.12.15-.24.18-.27.27-.18.36-.27.36-.51,0-.51-2.01-1.74-2.31-1.74-.18,0-.18.06-.51.75-1.08,2.25-4.41,5.61-5.76,6.93-.33.33-2.28,2.01-2.28,2.04,0,.06.09.09.15.09.51,0,5.1-2.88,9-6.48.24-.21.39-.33.63-.33.42,0,3.69,2.97,4.38,3.84,1.2,1.56,1.38,1.59,1.71,1.59.15,0,.78-.09.78-1.17A2.626,2.626,0,0,0,332.82-18.33Zm-8.13.24c-.48,0-2.79-.21-3.06-.21a.08.08,0,0,0-.09.09c0,.03,0,.03.09.18l.45.69c.09.12.12.18.21.18a1.8,1.8,0,0,0,.36-.06c.36-.03,1.38-.09,1.77-.09h3.96c1.02,0,1.14,0,1.14-.33,0-.48-1.86-1.74-2.01-1.74-.21,0-.93,1.02-1.14,1.17-.12.12-.18.12-.72.12Zm9.51-2.64c-.03.06,0,.15.24.9a20.159,20.159,0,0,1,.18,3.09c0,2.64-.18,7.29-.27,10.17,0,.39-.21,2.34-.21,2.79,0,.24.06.66.72.66.6,0,1.59-.24,1.65-.99.03-.33,0-9.12,0-10.83,0-3,0-3.3.12-3.66.06-.15.63-.81.63-.99,0-.21-.24-.39-.36-.48-.18-.09-2.22-.96-2.4-.96C334.35-21.03,334.23-20.94,334.2-20.73Zm5.16-3.84a7.9,7.9,0,0,0,.12,1.41c.12,2.97.15,9.99.15,13.32,0,3.72-.12,8.37-.18,8.76-.06.57-.45.69-.99.69-.45,0-2.79-.21-2.88-.21-.06,0-.18,0-.18.09s.03.12.36.33a5.612,5.612,0,0,1,1.56,1.68c.42.72.51.78,1.02.78a3.068,3.068,0,0,0,3.27-3.09V-12.96c0-2.04,0-6.84.03-7.77a10.288,10.288,0,0,1,.21-1.68c.09-.15.87-.66.87-.87s-.06-.24-.81-.51c-.3-.15-2.25-.87-2.37-.87A.181.181,0,0,0,339.36-24.57ZM355.92-3.03c.87,0,1.11.15,1.11,1.17,0,.54,0,1.05.87,1.05.39,0,1.47-.27,1.44-1.08,0,0,0-.9-.03-1.26-.09-1.35-.09-6.12-.09-8.16,0-2.13,0-5.46.12-5.7.09-.21.87-.87.87-1.08,0-.42-2.1-1.59-2.25-1.59s-.42.33-.81.78a.9.9,0,0,1-.81.33h-3.42c-.18,0-.45,0-.45-.21a15.494,15.494,0,0,1,3.06-3.99c.15-.12.84-.54.84-.69,0-.39-2.7-1.41-2.88-1.44a6.981,6.981,0,0,1-.09.96,20.86,20.86,0,0,1-1.56,4.65c-.09.18-.18.45-.42.45-.15,0-1.47-.63-1.74-.63a.28.28,0,0,0-.3.33c0,.12.03.57.03.66.09,1.83.12,3.51.12,5.61,0,1.98-.24,10.68-.24,12.45,0,.3,0,.84.84.84,1.47,0,1.47-1.74,1.47-2.46,0-.57.09-.99.93-.99Zm-3.39-8.52c-.33,0-.81,0-.93-.54-.03-.12-.03-4.26-.03-4.86,0-.84.6-.84.96-.84h3.6c.33,0,.81,0,.93.57.03.12.03,4.26.03,4.86,0,.81-.6.81-.96.81Zm3.6.81c.27,0,.69.03.81.39a24.6,24.6,0,0,1,.12,3.06c0,3.39,0,3.48-.93,3.48h-3.66a.809.809,0,0,1-.81-.42,24.119,24.119,0,0,1-.12-3.06c0-3.39,0-3.45.93-3.45Zm14.61-7.29c.33,0,.93,0,.93.81,0,.9.09,4.89.09,5.7,0,3.48-.69,8.61-1.86,10.11a1.732,1.732,0,0,1-1.5.69c-.39,0-2.1-.27-2.46-.3-.18-.03-.93-.21-1.08-.21a.161.161,0,0,0-.15.15c0,.21,1.5.78,1.77.96.78.45.81.6,1.14,1.68a.6.6,0,0,0,.66.42A4.234,4.234,0,0,0,371.52,0c.72-1.26,2.19-3.99,2.19-13.95,0-2.58,0-2.88.12-3.18.12-.21.9-.9.9-1.11,0-.51-2.28-1.71-2.43-1.71-.21,0-.63.75-.75.87a1.246,1.246,0,0,1-.72.27h-5.79c-.36,0-.66,0-.66-.36a19.414,19.414,0,0,1,1.71-3.81c.15-.15,1.02-.69,1.02-.9,0-.51-2.91-1.11-3-1.11-.12,0-.12.06-.24.69a41.915,41.915,0,0,1-2.91,9.12c-.09.24-.63,1.44-.63,1.53,0,.03.03.06.09.06.36,0,1.02-.9,2.34-2.94.87-1.35.96-1.5,1.68-1.5Zm-6.81,4.77c-.06,0-.15.03-.15.12s.06.15.33.6a8.224,8.224,0,0,1,1.23,3.45c.21,1.53.3,2.07,1.2,2.07a1.472,1.472,0,0,0,1.47-1.47C368.01-11.01,364.26-13.26,363.93-13.26Zm24.63-6.93a3.737,3.737,0,0,1-1.32.18,4.445,4.445,0,0,1-2.31-.63c-.6-.36-.69-.39-.81-.39-.18,0-.21.24-.21.36,0,.03,0,2.13,3.54,2.43.45.03.66.06.66.33a26.841,26.841,0,0,1-4.14,9.78c-.9,1.29-.99,1.44-.99,1.86,0,.3.12.84.93.84,2.76,0,5.34-10.14,5.7-11.64.27-1.05.3-1.14.57-1.23,2.43-.72,4.11-1.26,4.11-2.4,0-.84-1.14-1.17-1.71-1.32-.9-.24-1.2-.36-1.35-.57a2.439,2.439,0,0,0-2.16-1.32c-.6,0-1.23.27-1.23.63a5.953,5.953,0,0,0,.57.84,2.449,2.449,0,0,1,.42,1.32A1.42,1.42,0,0,1,388.56-20.19Zm1.89-.27a.322.322,0,0,1-.06-.18c0-.09.21-1.32.72-1.32.18,0,1.23.54,1.23.75C392.34-20.76,390.54-20.37,390.45-20.46Zm7.2,17.64c.42-.18,1.8.75,2.61,1.47.45.39.63.48.93.48.6,0,.81-.54.81-1.05,0-1.11-1.74-2.07-2.37-2.4-.27-.15-1.68-.63-1.95-.84-.9-.63-1.2-5.28-1.2-6.03a3.382,3.382,0,0,1,.72-2.49,3.591,3.591,0,0,1,2.19-.9c.36,0,.48.06,1.62.48a2.074,2.074,0,0,0,.69.12,1.425,1.425,0,0,0,1.41-1.56,3.22,3.22,0,0,0-2.19-3.06,9.553,9.553,0,0,0-1.77-.51c-.12,0-.21.06-.21.15,0,.12.12.24.39.48a2.634,2.634,0,0,1,.84,1.53c0,.78-.21.87-2.07,1.95-2.52,1.44-2.7,3.03-2.7,6.33,0,.42.12,2.43.12,2.88,0,.3-.15.33-.42.33-.21,0-1.32-.06-1.56-.06-2.7,0-4.83,1.02-4.83,2.97,0,1.5,1.68,3.48,4.53,3.48,1.56,0,3.84-.66,4.23-3.27C397.53-2.64,397.53-2.76,397.65-2.82Zm-2.04-.78c.18.48-.24,2.76-3.15,2.76-1.8,0-2.7-.9-2.7-1.62,0-1.59,2.7-1.59,3.39-1.59S395.46-4.05,395.61-3.6Zm23.76-16.32c.69,0,.87.15.87.6,0,2.13-3.57,6.72-7.8,8.52-.09.06-.45.21-.45.27,0,.12.12.12.15.12a9.518,9.518,0,0,0,2.91-.9,13.257,13.257,0,0,0,5.46-4.02c.33-.39,1.71-2.37,1.95-2.49.66-.3.9-.42.9-.72,0-.15,0-.24-.66-.66-.27-.15-.75-.45-.75-.54,0-.18.21-.18.69-.18h2.82a.727.727,0,0,1,.78.72c.06.99.06,3.39.06,4.5,0,2.73.66,2.73,5.28,2.73a16.345,16.345,0,0,0,4.32-.3c.99-.27,1.8-1.08,1.8-1.71,0-.21-.03-.24-.45-.57-.51-.39-.51-.87-.51-1.47.03-.78.03-.9-.15-.9a9.457,9.457,0,0,0-1.05,1.71c-.81,1.26-1.11,1.26-4.02,1.26-2.61,0-3.06-.09-3.27-.87a31.3,31.3,0,0,1-.21-4.17c0-.3,0-.93.78-.93h3.87c.36,0,.57,0,.57.21a13.454,13.454,0,0,1-.96,1.77c0,.06.03.15.12.15a13.044,13.044,0,0,0,1.17-.69,3.657,3.657,0,0,1,1.77-.63c2.49-.06,2.73-.03,2.73-.63,0-.15,0-.39-.75-.9a22.558,22.558,0,0,0-2.67-1.65c-.18,0-.36.36-.54.72a1.165,1.165,0,0,1-1.23.87h-6.51c-.75,0-.75-.6-.75-.87a5.212,5.212,0,0,1,.24-1.83c.06-.15.63-.75.63-.9,0-.48-2.4-.93-3-.93-.36,0-.39.18-.39.24a4.528,4.528,0,0,0,.27.54,8.917,8.917,0,0,1,.15,1.74c0,1.44,0,2.01-.81,2.01h-6.99a1.027,1.027,0,0,1-1.08-.54c-.45-.66-.87-1.29-1.05-1.29-.15,0-.18.39-.18.51a7.546,7.546,0,0,1-.6,2.73,11.635,11.635,0,0,0-1.08,1.98c0,.39.39.78,1.08.78,1.14,0,1.98-1.14,2.22-2.37.21-.99.27-1.02.96-1.02Zm-.36,11.28c-1.59,0-2.82-.03-4.11-.09-.21,0-1.11-.12-1.32-.12-.09,0-.12.03-.12.09,0,.03,0,.06.12.18l.6.72c.03.03.18.18.24.18.09,0,.54-.09.66-.09,1.05-.06,3.03-.09,3.78-.09h4.08c.78,0,.78.6.78,1.47,0,.75-.06,4.41-.09,5.25,0,.3,0,.96-.78.96h-6.72c-1.11,0-3.45-.06-4.35-.12-.15,0-.93-.09-1.08-.09-.09,0-.12.03-.12.09,0,.03.03.06.12.18l.6.69c.09.12.15.18.27.18.09,0,.51-.06.63-.06C413.25.6,415.26.6,416.19.6h21.27c.45,0,.75-.03.75-.36,0-.45-2.37-2.64-2.73-2.64-.27,0-.36.12-1.14,1.32-.36.6-.57.9-1.23.9h-6.48c-.03,0-.69,0-.75-.6-.03-.3-.03-4.71-.03-5.22,0-1.23,0-1.86.78-1.86h8.34c.51,0,.78-.12.78-.42,0-.45-2.34-2.13-2.79-2.13-.24,0-.45.06-1.23,1.02-.63.75-.99.75-1.29.75Zm27.96-14.49c-.42,0-.51-.03-1.29-.45a4.465,4.465,0,0,0-1.41-.54c-.12,0-.12.18-.12.3,0,.03.15,2.52.18,2.76.03.39.03,4.89.03,6.72,0,3.3,0,5.28-.3,14.19,0,.39-.03,1.11-.03,1.2,0,.21,0,1.05.78,1.05,1.56,0,1.56-1.62,1.56-2.16,0-.72-.09-3.9-.12-4.56-.03-1.14-.03-6.21-.03-7.59a14.417,14.417,0,0,1,.09-2.13c.15-.39.63-.39,1.11-.39h3.72c.57,0,.9,0,.99.63.06.48.15,1.05.87,1.05.42,0,1.26-.3,1.26-1.95,0-.87-.15-4.68-.15-5.46,0-.81,0-1.05.21-1.32.09-.12.57-.57.57-.72,0-.42-1.5-1.53-1.83-1.53-.27,0-.51.24-.81.57a.934.934,0,0,1-.84.33Zm4.44.81c.6,0,.87,0,.87.6v1.62c0,.78-.18.78-.87.78h-4.29c-.6,0-.87,0-.87-.63v-1.62c0-.75.18-.75.87-.75Zm-.06,3.78c.66,0,.9.03.9.69v1.71c0,.6-.3.6-.9.6h-4.23c-.66,0-.9,0-.9-.66v-1.74c0-.6.3-.6.9-.6Zm8.79-4.65a1.293,1.293,0,0,1-.78-.18,4.138,4.138,0,0,0-1.41-.48c-.27,0-.33.36-.33.51,0,.51.15,2.73.15,3.18s0,6.36.03,6.54a.659.659,0,0,0,.72.57c.54,0,1.29-.3,1.38-.96.09-.48.18-.63.87-.63h3.9c.75,0,1.17,0,1.17.93,0,4.29-.06,11.82-.09,12.12-.09.84-.39.99-2.34,1.08-.3,0-1.41.06-1.41.21,0,.27,1.26.6,1.47.72a2.078,2.078,0,0,1,.84.87c.3.51.51.81.84.81a4.983,4.983,0,0,0,1.41-.48c1.05-.54,1.2-1.26,1.2-2.46,0-3.09-.06-16.71-.06-19.47,0-1.08,0-1.17.48-1.59.18-.15.33-.3.33-.48,0-.57-1.71-1.53-1.95-1.53-.18,0-.3.09-.66.48a.662.662,0,0,1-.63.24Zm.45,3.72c-.42,0-.75,0-.81-.45-.03-.12-.03-1.35-.03-1.8,0-.69.33-.69.84-.69H465c.48,0,.75,0,.84.45v1.83c0,.66-.3.66-.84.66Zm.06,4.05c-.63,0-.87,0-.87-.66v-1.98c0-.6.27-.6.87-.6H465c.6,0,.84,0,.84.63v1.98c0,.63-.27.63-.84.63Zm-7.29,4.38c-.36,0-1.89-.72-2.22-.72-.15,0-.27.03-.27.27,0,.15.09.81.09.93.09,1.08.09,3.96.09,4.11,0,1.26-.03,2.16-.12,3.72-.03.27-.06,1.08-.06,1.29,0,.93.3,1.08.69,1.08.75,0,1.26-.51,1.38-1.41.06-.57.21-.69.9-.69h3.72c.6,0,.99,0,.99.72,0,.45,0,1.08.66,1.08a1.916,1.916,0,0,0,1.26-.66c.27-.33.27-.72.27-1.53,0-.72-.09-5.46,0-6.24a1.321,1.321,0,0,1,.42-.9.678.678,0,0,0,.18-.39c0-.54-1.47-1.53-1.77-1.53-.27,0-.6.33-.84.6a.715.715,0,0,1-.69.27Zm4.56.81c.57,0,.78,0,.78.75v1.71c-.09.42-.33.42-.78.42h-4.23c-.45,0-.69,0-.78-.42v-1.5c0-.9.06-.96.78-.96Zm-.06,3.69c.6,0,.72,0,.81.42.03.15.03,1.8.03,2.07,0,.78-.18.78-.84.78h-4.11c-.54,0-.84,0-.84-.57V-5.91c0-.63.27-.63.84-.63Zm21.57-1.59c.96,0,1.29-.72,1.62-1.47.78-1.8,2.55-3.18,3.69-3.18,1.2,0,1.44,1.68,1.44,3.03a1.278,1.278,0,0,1-.45,1.05c-2.82,2.28-3.96,3.24-3.96,5.16,0,2.37,2.01,3.93,5.82,3.93.72,0,5.37-.12,5.37-1.98,0-.72-.84-1.02-1.47-1.02-.39,0-2.31.48-2.73.54a9.286,9.286,0,0,1-1.92.18c-.87,0-3.87,0-3.87-2.07,0-1.71,2.67-3.57,2.91-3.57.21,0,.21.24.21.36,0,.03-.09,1.47-.09,1.77,0,.54.12,1.53.93,1.53,1.11,0,1.11-1.71,1.11-2.19,0-.27-.06-1.53-.06-1.8,0-.63.03-.96.51-1.26.54-.33,3.93-1.68,4.68-2.01,1.86-.81,4.23-1.8,4.23-3.21a2.83,2.83,0,0,0-2.82-2.67c-2.61,0-4.56,2.73-5.55,4.11a14.082,14.082,0,0,1-1.23,1.62c-.06,0-.09-.06-.3-.57a2.705,2.705,0,0,0-2.55-1.83,2.8,2.8,0,0,0-1.17.24,5.99,5.99,0,0,1-.93.33.11.11,0,0,1-.12-.12c0-.12.06-.21.21-.48a23.264,23.264,0,0,0,1.62-3.24c.66-1.53.69-1.59,1.14-1.77,1.38-.54,3.57-1.38,3.57-2.37,0-.63-1.14-.78-1.35-.78-1.2-.09-1.32-.15-1.35-.54-.06-.66-.81-.93-1.53-.93-.54,0-1.32.24-1.32.48,0,.18.63.72.72.87a2.4,2.4,0,0,1,.24,1.05c0,.6,0,1.41-2.46,1.41a4.768,4.768,0,0,1-1.98-.54,6.738,6.738,0,0,0-1.14-.57c-.18,0-.18.12-.18.21a3.183,3.183,0,0,0,2.67,2.64c.27,0,1.5-.24,1.8-.24.12,0,.33.03.33.21a13.8,13.8,0,0,1-2.55,4.47c-2.04,2.37-2.88,3.33-2.88,4.23C478.29-8.31,478.86-8.13,479.43-8.13Zm6.45-12.54c0-.12.12-.96.54-.96.27,0,1.02.06,1.02.45,0,.33-1.44.72-1.5.72S485.88-20.55,485.88-20.67Zm7.86,4.8a.923.923,0,0,1,1.05.9c0,1.98-5.91,4.38-6,4.38s-.12-.09-.12-.15C488.67-11.22,491.25-15.87,493.74-15.87Zm20.22,5.55c-.42,0-.57-.21-.57-.51,0-.12.03-.93.03-1.05.03-.15.54-.84.54-1.02,0-.6-2.07-.81-2.28-.81-.09,0-.33.03-.33.21,0,.12.12.75.15.9,0,.51.03,1.11.03,1.62,0,.39-.06.69-.69.69-.9,0-2.46-.09-3.84-.15-.15,0-.87-.06-.9-.06-.06,0-.12,0-.12.06,0,.03,0,.06.09.15l.69.78a.267.267,0,0,0,.24.15c.09,0,.48-.06.57-.06.66-.06,1.32-.09,2.16-.09.66,0,.78.12.78.48,0,.87-1.35,3.69-2.82,5.85-.27.39-1.65,2.28-1.65,2.37a.142.142,0,0,0,.15.15,12,12,0,0,0,1.59-1.26,24.135,24.135,0,0,0,3.15-3.81c.12-.21.27-.42.36-.42.24,0,.24.18.24,1.92,0,.78-.18,4.65-.18,5.52,0,.24,0,.66.69.66a1.629,1.629,0,0,0,1.26-.66,6.045,6.045,0,0,0,.09-1.59c0-.42-.06-2.55-.06-3.06,0-.57.03-3.36.03-3.72.03-.33.03-.81.36-.81.48,0,1.5,1.77,1.86,2.46.63,1.23.69,1.38,1.23,1.38.57,0,.93-.63.93-1.29,0-1.32-1.02-1.89-3.24-3-.99-.51-1.08-.54-1.08-.84,0-.33.45-.33.54-.33h3.6c1.62,0,1.77,0,1.77-.45,0-.39-1.65-1.83-1.89-1.83-.15,0-.39.3-.69.66a1.553,1.553,0,0,1-1.38.81Zm-.24-10.02c.81,0,.9.3.9.84a9.036,9.036,0,0,1-.78,2.88,13.725,13.725,0,0,0-.54,1.32c0,.06.03.18.12.18a2.8,2.8,0,0,0,.72-.42c.33-.33,1.68-2.04,2.01-2.4.12-.15.96-.78.96-.99,0-.27-1.41-.93-1.41-1.23,0-.15.15-.18.24-.18h1.29c.99,0,1.59,0,1.59-.42a4.089,4.089,0,0,0-2.28-1.83c-.21,0-.3.09-1.02.9a1.3,1.3,0,0,1-1.02.54h-.69c-.63,0-.66-.3-.66-.99a2.819,2.819,0,0,1,.27-1.38c.06-.12.39-.81.39-.87,0-.33-2.25-.78-2.34-.78-.3,0-.36.18-.36.27,0,.06.12.45.12.51a3.987,3.987,0,0,1,.12,1.23c0,1.95,0,2.01-.93,2.01-.51,0-3.09-.21-3.66-.21-.06,0-.12.03-.12.09a.986.986,0,0,0,.09.18l.66.75a.4.4,0,0,0,.27.15c.18,0,1.02-.09,1.2-.12.36,0,1.2-.03,3.18-.03Zm-4.92.72c-.06.03,0,.18,0,.24a9.875,9.875,0,0,1,.45,1.8c.3,1.92.33,2.1,1.05,2.1.69,0,1.05-.78,1.05-1.35a3.249,3.249,0,0,0-2.4-2.85A.194.194,0,0,0,508.8-19.62Zm16.95,5.64c.69,0,.78.6.78,2.25,0,1.56,0,6.66-.03,7.77-.09,2.49-.18,4.92-.18,5.22,0,.45.06.69.78.69A1.35,1.35,0,0,0,528.6.42c0-.6-.06-3.57-.06-4.26,0-.63.03-9.09.06-9.3.06-.69.48-.84.69-.84h1.89c1.2,0,1.77,0,1.77-.42,0-.18-.03-.21-.51-.69-1.2-1.2-1.32-1.35-1.62-1.35-.27,0-.36.12-1.11,1.11a1.244,1.244,0,0,1-1.26.57h-4.47c-1.05,0-1.05-.24-1.05-2.49,0-3.57.06-3.69.45-3.87.36-.15,6.54-.84,7.23-.9,1.56-.09,1.68-.12,1.68-.39,0-.33-2.58-1.95-2.91-1.95a6.12,6.12,0,0,0-.87.57,21.4,21.4,0,0,1-5.73,2.04,3.49,3.49,0,0,1-.87-.15,8.533,8.533,0,0,0-1.14-.39c-.15,0-.15.15-.15.27s.15,1.68.18,2.01c.12,1.83.18,2.67.18,6.21,0,7.17-.27,9.87-3.57,14.16-.12.12-.75.66-.75.84,0,.09.12.09.21.09a9.1,9.1,0,0,0,3.66-3.27c1.98-3,2.22-6.21,2.37-9.81.06-1.71.06-2.19,1.05-2.19Zm-15.42-1.05c-1.05,0-2.82-.09-3.99-.15-.12,0-.72-.06-.81-.06-.03,0-.12.03-.12.06,0,.06.03.06.12.18l.66.78a.37.37,0,0,0,.24.12c.18,0,1.05-.09,1.23-.09,1.08-.03,1.44-.06,2.85-.06h7.71c1.59,0,1.77,0,1.77-.45,0-.36-1.65-1.8-1.89-1.8-.15,0-.39.27-.69.66a1.614,1.614,0,0,1-1.38.81Zm41.82-8.52a2.339,2.339,0,0,1-1.26-.27,4.645,4.645,0,0,0-1.47-.48c-.24,0-.3.09-.3.27,0,.03.21,1.68.24,2.01.06,1.14.09,2.67.09,5.49,0,.39-.09,2.19-.09,2.55,0,.66.18,1.02.72,1.02,1.08,0,1.23-.39,1.47-.93.12-.33.45-.33.99-.33h4.95c.48,0,.78,0,.99.48.12.33.21.57.63.57,1.47,0,1.47-1.2,1.47-1.68,0-.84-.18-4.65-.18-5.43,0-1.59,0-1.77.51-2.13.21-.12.3-.18.3-.39,0-.51-1.92-1.62-2.1-1.62a2.916,2.916,0,0,0-.75.57.99.99,0,0,1-.9.3Zm5.28.81c.78,0,1.05.03,1.05.93v1.65c0,.87-.36.87-1.05.87H552.3c-.69,0-.93,0-.99-.51-.03-.18-.09-2.13-.09-2.16,0-.78.36-.78,1.02-.78Zm.06,4.23c.99,0,.99.24.99,2.22,0,1.11,0,1.29-.99,1.29h-5.01c-.69,0-.96,0-1.02-.51-.06-.39-.09-1.86-.09-2.31,0-.69.39-.69,1.05-.69Zm-20.16.48c.09.12.15.18.24.18.06,0,.36-.03.45-.03.48-.03,2.04-.12,2.55-.12.93,0,.93.3.93,2.31a22.578,22.578,0,0,1-.18,3.63c-.3.51-3.45,1.56-4.35,1.65-.87.09-.96.09-.96.39,0,.6.78,2.76,1.35,2.76.18,0,.33-.18.39-.24a5.024,5.024,0,0,1,1.74-1.29c.3-.15,1.68-1.08,1.8-1.08.21,0,.21.06.21,1.38,0,1.05-.06,6.18-.06,7.32,0,.6-.18.84-.81.84h-2.64c-.06,0-.36,0-.36.12,0,.03,1.47.93,1.71,1.14.21.18,1.14,1.32,1.44,1.32a3.74,3.74,0,0,0,1.38-.45,2.535,2.535,0,0,0,1.32-2.61c0-.63-.15-3.75-.15-4.47v-5.04c0-.72.18-.87,1.98-2.07a8.131,8.131,0,0,0,2.16-1.92c0-.06-.09-.06-.09-.06a35.654,35.654,0,0,1-3.63,1.41c-.33,0-.33-.15-.33-.69,0-.57,0-3.66.09-3.9.15-.45.54-.45,1.11-.45h1.95c1.02,0,1.59,0,1.59-.42a3.346,3.346,0,0,0-1.77-1.74c-.21,0-.93.96-1.14,1.14-.09.09-.24.24-.96.24-.84,0-.84-.21-.84-2.13a8.441,8.441,0,0,1,.15-2.04c.12-.15.9-.81.9-1.05,0-.36-.54-.51-.87-.6-.81-.18-2.25-.42-2.31-.42-.15,0-.27.03-.27.21,0,.09.36,2.43.39,2.91.03,1.11.03,1.23.03,2.22,0,.51-.03.87-.84.87-.57,0-3.3-.18-3.93-.18-.06,0-.09.03-.09.06,0,.06,0,.06.12.21ZM561.09-5.82c1.05,0,1.62,0,1.62-.42,0-.48-1.35-1.74-1.74-1.74-.27,0-.99.99-1.17,1.14-.24.24-.39.24-1.65.24h-.87c-.75,0-1.17,0-1.17-.93,0-.45,0-2.94.03-3.09.15-.57.51-.57,1.05-.57h5.19a7.553,7.553,0,0,0,1.53-.09c.18-.06.39-.12.39-.33,0-.45-1.62-1.77-2.07-1.77-.24,0-.3.09-.9.87-.39.51-.54.51-1.92.51h-7.95c-1.71,0-3.24-.03-4.11-.09-.21,0-1.14-.12-1.32-.12-.06,0-.12,0-.12.09,0,.03.06.09.15.18l.57.69c.09.12.15.21.27.21.09,0,.54-.09.63-.09,1.05-.06,3.06-.06,3.78-.06h1.83c.75,0,1.11,0,1.11,1.02,0,1.32-.09,7.11-.03,8.31,0,.39.03.75-.48.75-1.26,0-4.17-1.83-4.17-2.61a6.678,6.678,0,0,1,.63-1.32c.75-1.71.84-1.92,1.14-2.07.66-.36.72-.39.72-.6,0-.45-2.4-1.53-2.49-1.53-.24,0-.24.12-.33,1.2a22.463,22.463,0,0,1-1.29,3.87A26.407,26.407,0,0,1,545.34.24a4.253,4.253,0,0,0-.45.66c0,.03.03.03.06.03.57,0,3.15-2.43,3.81-3.66.09-.15.21-.36.42-.36.15,0,.18.03.48.42,1.65,2.28,3.33,4.11,10.59,4.11a12.862,12.862,0,0,0,2.52-.12,8.432,8.432,0,0,0,.51-1.05c.21-.3,1.38-1.95,1.38-1.98,0-.06-.03-.09-.06-.09-.09,0-1.95.57-2.34.66a33.9,33.9,0,0,1-4.71.36c-1.29,0-1.41,0-1.41-.87,0-.48-.03-2.67-.03-3.12,0-1.05.33-1.05,1.26-1.05Zm28.32-10.89c1.38,0,1.53,0,1.53-.36a4.165,4.165,0,0,0-1.68-1.77c-.36,0-.87.66-1.11.96-.3.36-.81.39-1.89.39h-5.31c-.3,0-.39,0-.39-.18s.69-.72.69-.9c0-.45-2.04-1.11-2.22-1.11s-.18,0-.39.9c-.3,1.29-.84,1.29-1.26,1.29-1.08,0-3.57-.09-4.02-.12-.18-.03-.93-.09-1.08-.09-.06,0-.12,0-.12.06s0,.06.15.21l.57.69c.09.12.15.18.27.18s.72-.09.84-.09,1.29-.06,2.97-.06c.18,0,.39,0,.39.21,0,.51-2.73,2.97-2.73,3.69,0,.51.63.66,1.02.66.75,0,.9-.18,1.41-.78a.606.606,0,0,1,.54-.24c.51,0,3.45.36,3.45.75,0,.24-2.07,1.5-5.37,2.31-1.89.48-3.36.72-3.42.72-.12.03-.24.06-.24.15,0,.21.33.21.66.21a22.073,22.073,0,0,0,8.64-1.8,13.326,13.326,0,0,1,2.13-.96,15.65,15.65,0,0,1,2.97,1.08c.6.27,3.06,1.74,3.63,1.74a.9.9,0,0,0,.93-.93c0-.84-.45-1.5-4.23-2.73-.21-.06-1.2-.3-1.38-.36a.311.311,0,0,1-.18-.24,12.86,12.86,0,0,1,1.29-1.41c.3-.33.39-.42.75-.48.78-.09.81-.12.81-.3a11.662,11.662,0,0,0-.48-1.17c0-.12.09-.12.27-.12ZM578.43-5.67c.45,0,.63,0,.63.18A27.426,27.426,0,0,1,571.11.03c-1.05.51-1.17.57-1.17.75,0,.12.18.12.27.12.81,0,5.55-1.59,9.84-4.62a3.314,3.314,0,0,1,.75-.45c.18,0,.21.24.21.51,0,.66-.18,3.99-.18,4.77,0,.54.12.99.63.99A1.592,1.592,0,0,0,583.14.42c0-.09-.33-4.92-.33-5.22,0-.27.09-.36.18-.36.12,0,.24.12,1.2,1.05,3.87,3.81,7.5,5.19,8.01,5.19a.43.43,0,0,0,.33-.09c.12-.12.63-.66.75-.75.27-.24,1.92-.99,1.92-1.11,0-.09-.24-.09-.33-.09a19.819,19.819,0,0,1-6.36-1.65c-1.95-.84-4.65-2.55-4.65-2.88,0-.18.21-.18.39-.18h9.27c1.38,0,1.56,0,1.56-.39,0-.6-2.31-1.92-2.37-1.92-.3,0-.48.33-.72.75-.45.78-.69.78-2.16.78h-6.27c-.33,0-.75-.03-.75-.69a2.655,2.655,0,0,1,.15-.96c.06-.12.48-.54.48-.66,0-.57-2.07-.81-2.4-.81-.09,0-.27,0-.27.18a8.051,8.051,0,0,0,.21.81c.03.36.06.87.06,1.23,0,.39-.06.9-.87.9h-5.88c-1.41,0-2.64-.06-4.11-.12-.18,0-1.11-.09-1.32-.09-.06,0-.12,0-.12.06s.03.06.15.21l.57.69c.09.12.15.18.27.18.09,0,.51-.06.63-.06.3-.03,1.14-.09,3.78-.09Zm6.33-11.04c.24,0,.39,0,.39.21,0,.39-1.62,3-2.88,3-.48,0-2.61-.12-3.06-.12h-1.29c-.15,0-.3,0-.3-.12a14.6,14.6,0,0,1,1.44-2.22c.51-.66.69-.75,1.29-.75Zm-.81-4.47c-.42,0-.84,0-.84-.69,0-1.14.15-1.35.39-1.53.42-.3.48-.36.48-.54a.471.471,0,0,0-.39-.39c-.18-.03-2.64-.54-2.7-.54a.173.173,0,0,0-.18.18c0,.18.15.9.18,1.08a11.8,11.8,0,0,1,.06,1.47c0,.33,0,.96-.81.96h-7.38c-.66,0-.66-.06-.96-.75-.09-.24-.48-1.08-.66-1.08-.09,0-.09.12-.09.18a5.2,5.2,0,0,1-1.23,3.48c-.75.96-.9,1.17-.9,1.77a.925.925,0,0,0,.96,1.05c1.38,0,2.07-1.44,2.34-3.24.09-.57.48-.6.81-.6h17.88c.36,0,.69,0,.69.51,0,.27-.3,1.53-.3,1.77,0,.12,0,.27.18.27s.3-.15.72-.63a3.423,3.423,0,0,1,2.25-1.38c.36-.12,1.02-.3,1.02-.69,0-.45-2.34-1.8-2.79-1.8-.3,0-.42.12-.96.78-.3.36-.51.36-1.56.36ZM603.69-4.92a3.311,3.311,0,0,0-3.33,3.3,3.319,3.319,0,0,0,3.3,3.36,3.346,3.346,0,0,0,3.36-3.33A3.34,3.34,0,0,0,603.69-4.92Zm-.03.84a2.516,2.516,0,0,1,2.55,2.52A2.476,2.476,0,0,1,603.72.9a2.516,2.516,0,0,1-2.52-2.52A2.427,2.427,0,0,1,603.66-4.08Z" transform="translate(-11.01 25.23)" fill="#4a4a4a"/>
</svg>
