<svg xmlns="http://www.w3.org/2000/svg" width="279.578" height="64.386" viewBox="0 0 279.578 64.386">
  <path id="パス_130450" data-name="パス 130450" d="M-112.658-19.4l.052.1a2.884,2.884,0,0,1,.884,1.2c.312.832.312,1.664.312,9.1a53.815,53.815,0,0,1-.234,6.032c0,.1-.1.65-.1.754,0,.676.676,2.444,1.456,2.444.754,0,.754-1.716.754-2.366,0-.39-.026-1.04-.052-1.326-.1-2.34-.13-3.718-.13-6.474,0-1.924.1-1.924.364-1.924.806,0,2.028,1.222,2.756,2.184,1.742,2.262,1.82,2.366,2.47,2.366a.89.89,0,0,0,.936-.91c0-1.95-4.03-3.848-5.616-4.212-.754-.182-.858-.26-.858-.832a33.725,33.725,0,0,1,.234-3.614,7.534,7.534,0,0,0,.312-1.092c0-.832-1.872-1.664-2.808-1.664C-111.956-19.63-112.632-19.63-112.658-19.4ZM-87.8-10.478a14.159,14.159,0,0,1-3.172-.234c-.13-.026-.754-.312-.884-.312s-.208.156-.208.312c0,.884,1.2,2.5,2.314,2.5.312,0,1.716-.416,2.028-.468.624-.13,6.578-.468,10.166-.468.52,0,3.12.052,3.718.052,1.092,0,2.158-.078,2.158-.806,0-.182-.234-1.144-1.82-1.144-.13,0-.416.026-.572.026C-77.87-10.816-86.944-10.478-87.8-10.478ZM-63.44-.052c-.052.234.182.234.234.234a22.444,22.444,0,0,0,9.594-6.266c.52-.546.676-.728.91-.728.26,0,.546.494.6.6.988,1.664,1.092,1.846,1.638,1.846a1.119,1.119,0,0,0,1.118-1.248A3.629,3.629,0,0,0-50.44-7.9c-.468-.6-.494-.65-.494-.884,0-.208.052-.286.286-.65.312-.52,2.08-2.99,2.444-3.562.78-1.222.884-1.352,1.274-1.534.468-.208.65-.286.65-.676,0-.832-1.872-2-2.132-2a6.236,6.236,0,0,0-.962.572,15.926,15.926,0,0,1-3.9.624c-.338,0-.884-.052-.884-.442,0-.156.286-.858.286-1.014a2.32,2.32,0,0,0-2.34-1.534c-.156,0-.494,0-.494.156,0,.182.416,1.014.416,1.222,0,1.482-2.132,5.148-5.226,8.5a8.531,8.531,0,0,0-.936,1.118.121.121,0,0,0,.13.13c.858,0,4-3.406,4.6-3.406.65,0,3.744,1.976,3.744,2.782s-3.562,5.044-8.892,8.06C-63.362-.156-63.414-.156-63.44-.052Zm10.634-9.8a1.466,1.466,0,0,1-.6-.182,29,29,0,0,0-2.86-1.326c-.65-.26-.884-.338-.884-.7a21.272,21.272,0,0,1,2.21-2.912.409.409,0,0,1,.312-.1,1.748,1.748,0,0,1,.624.1,2.363,2.363,0,0,0,.78.1c.468,0,2.756-.338,3.146-.338.182,0,.442.078.442.364C-49.634-13.962-52.234-9.958-52.806-9.854Zm22.594-3.458c0-1.326-2.756-2.21-2.938-2.21-.1,0-.13.052-.13.13a1.93,1.93,0,0,0,.1.468,5.7,5.7,0,0,1,.442,2.236c0,.858-.286,3.692-3.146,7.618a7.362,7.362,0,0,0-1.04,1.378.121.121,0,0,0,.13.13c.52,0,3.25-1.56,4.81-4.94C-31.538-9.49-30.212-13.234-30.212-13.312Zm4.576,9.36c.182-.026.416-.208.858-.7a14.447,14.447,0,0,1,1.794-1.664c4.55-4,6.058-7.228,6.058-7.436a.112.112,0,0,0-.1-.1c-.1,0-2.314,2.34-2.756,2.782-2.5,2.522-4.888,4.238-5.668,4.238-.468,0-.494-.52-.494-.858,0-.858.1-4,.208-4.706.052-.286.416-1.638.416-1.95,0-1.352-2.73-1.82-2.86-1.82-.052,0-.156.026-.156.13a6.757,6.757,0,0,0,.338.936,15.942,15.942,0,0,1,.494,4.888c0,.65-.026,2.7-.1,3.2-.026.13-.156.806-.156.936C-27.768-5.356-26.39-3.822-25.636-3.952ZM9.2-19.656c-.182,0-.962,0-.962.26,0,.078.052.182.312.286a6.166,6.166,0,0,1,2.184,1.586c.442.6.78,1.04,1.326,1.04a.74.74,0,0,0,.676-.78C12.74-18.772,10.608-19.656,9.2-19.656Zm-2.548,2.5c-.208,0-.442.1-.442.208s.26.338.364.416a7.533,7.533,0,0,1,1.768,1.612c.728.988.962,1.2,1.326,1.2.468,0,.78-.6.78-.988C10.452-15.626,9-17.16,6.656-17.16Zm-5.2,6.006a.315.315,0,0,1,.182-.39,22.376,22.376,0,0,1,2.626-.078c.572,0,1.3.078,1.846.13.26.026,1.534.234,1.82.234.338,0,.754-.156.754-.624,0-1.066-2.964-1.638-3.276-1.638-.286,0-1.638.416-1.95.468-1.82.26-8.554.988-10.218.988A7.691,7.691,0,0,1-8.4-12.246a2.288,2.288,0,0,0-.39-.13c-.13,0-.182.1-.182.26A2.275,2.275,0,0,0-6.916-10.14a16.415,16.415,0,0,0,1.872-.468,32.049,32.049,0,0,1,4.134-.78c.572,0,.624.468.624.78a17.535,17.535,0,0,1-5.1,9.8A17.707,17.707,0,0,0-6.76.494c0,.078.052.13.156.13.338,0,4.394-1.664,6.89-6.682C.52-6.5,1.508-8.892,1.586-9c.078-.13.7-.624.7-.806A8.079,8.079,0,0,0,1.456-11.154Zm-6.292-6.5c-.13.052.676,1.872,1.95,1.872.078,0,1.092-.208,1.222-.234.39-.078,2.132-.416,3.458-.572,1.534-.156,1.976-.208,1.976-.962s-.936-.858-1.482-.858a10.625,10.625,0,0,0-2.08.312,16.044,16.044,0,0,1-3.692.65C-3.692-17.446-4.836-17.654-4.836-17.654ZM35.906-20.41c-.39,0-.962.13-.962.338,0,.078.078.182.338.286a6.129,6.129,0,0,1,2.288,1.4c.494.6.806.962,1.352.962a.74.74,0,0,0,.676-.78C39.6-19.058,38.558-20.41,35.906-20.41Zm-1.794,2.132c-.234,0-.468.1-.468.208,0,.156.208.26.39.39a7.258,7.258,0,0,1,1.794,1.612c.754.988.962,1.17,1.326,1.17.468,0,.78-.6.78-.988C37.934-16.666,36.686-18.278,34.112-18.278ZM16.406-12.714a.211.211,0,0,0-.182.234c0,1.014,2.262,2.158,2.574,2.158a6.122,6.122,0,0,0,.91-.286,21.156,21.156,0,0,1,3.328-.624c.442,0,.6.156.6,1.4,0,.26-.234,2.756-.234,3.016,0,.442.754,2.08,1.378,2.08.364,0,.494-.468.494-1.716,0-.494-.156-3.016-.156-3.588,0-1.118,0-1.222.338-1.4a16.628,16.628,0,0,1,3.094-.26c.364,0,.78,0,.78.832A15.4,15.4,0,0,1,26.806-1.56C26.6-1.222,25.3.442,25.3.468a.15.15,0,0,0,.156.156,8.394,8.394,0,0,0,2.7-2.34,13.146,13.146,0,0,0,2.756-8.372c.078-1.508.078-1.69.858-1.69.052,0,2.652.052,3.536.182.286.052,1.69.364,2,.364a.767.767,0,0,0,.832-.754c0-1.274-2.288-1.716-3.588-1.716a3.1,3.1,0,0,0-1.3.338,8.08,8.08,0,0,1-1.768.286c-.624,0-.624-.26-.624-1.092a11.749,11.749,0,0,1,.26-2.912,5.171,5.171,0,0,0,.442-.936c0-.312-.39-.494-.65-.624a5.96,5.96,0,0,0-2.08-.78c-.312,0-.6.156-.6.26,0,.052.728,1.092.806,1.326a31.246,31.246,0,0,1,.182,4.238c0,.26,0,.7-.572.754-.65.052-2.288.156-2.964.156-.364,0-.624-.156-.624-.546a3.7,3.7,0,0,1,.1-.936,8.118,8.118,0,0,0,.468-1.092c0-.52-1.742-1.742-2.34-1.742-.442,0-.91.156-.91.26s.416.546.494.65a6.739,6.739,0,0,1,.572,2.886c0,.624-.286.7-.78.728-.468,0-2.73.156-3.25.156-.338,0-1.846-.182-2.236-.234A4.566,4.566,0,0,0,16.406-12.714Zm38.818-.13c.494-.624,1.326-1.56,1.768-2.184A7.426,7.426,0,0,1,58.76-17.16a.656.656,0,0,0,.234-.52c0-.988-2.626-2.08-3.016-2.08a.257.257,0,0,0-.26.208,2.889,2.889,0,0,0,.182.416,1.471,1.471,0,0,1,.208.728c0,.728-2.028,5.148-8.164,10.4-.416.364-1.144.962-1.82,1.56a.236.236,0,0,0-.078.182c0,.1.052.156.13.156.468,0,4.836-2.522,7.384-4.966.208-.208.312-.312.442-.312.676,0,.676,2.73.676,3.666,0,1.378-.1,3.38-.26,4.784-.026.26-.286,1.4-.286,1.664,0,.7.884,1.82,1.612,1.82.624,0,.624-.884.624-1.144,0-.338-.156-1.846-.182-2.158-.052-1.014-.078-2.418-.078-3.12a25.1,25.1,0,0,1,.156-4.6c.026-.156.312-.884.312-1.04,0-.234-.1-.338-1.118-.962A.42.42,0,0,1,55.224-12.844ZM80.73-14.56c0-1.534-2.184-3.016-4.966-3.016-.364,0-.572.13-.572.234s.13.182.234.234a5.856,5.856,0,0,1,2.366,2.132c.858,1.3,1.118,1.716,1.82,1.716A1.148,1.148,0,0,0,80.73-14.56Zm10.816-.234a.167.167,0,0,0-.13-.13c-.052,0-.78.728-1.2,1.144C85.9-9.516,79.014-4.914,77.74-4.914a4.3,4.3,0,0,1-1.768-.6,6.472,6.472,0,0,0-.78-.494c-.234,0-.26,1.2-.26,1.378,0,1.04,1.924,2.7,3.328,2.7.39,0,.442-.052.936-.65a18.157,18.157,0,0,1,2.548-2.132C88.5-9.7,91.546-14.56,91.546-14.794Zm8.112-.6c-.338.364.91,2.106,2.21,2.106a1.985,1.985,0,0,0,.884-.338c.858-.494,6.24-2.782,7.748-2.782.052,0,.156,0,.156.052a5.084,5.084,0,0,1-.65.546c-3.744,3.354-3.77,8.866-3.77,10.01,0,1.222,0,5.564,5.3,5.564.156,0,3.016,0,3.016-1.378,0-.624-.468-.962-1.274-.962-.234,0-2.08.156-2.47.156-1.534,0-3.172-.286-3.172-4.654,0-6.708,3.692-9.75,6.994-9.75.286,0,1.768.286,2.106.286a1.039,1.039,0,0,0,1.066-.962c0-.884-1.17-1.248-2.106-1.248-1.716,0-7.67,1.69-9.984,2.34-3.562,1.014-3.952,1.118-5.044,1.118C100.516-15.288,99.762-15.522,99.658-15.392Zm17.914,1.742a2.4,2.4,0,0,0-.65-.13c-.078,0-.364,0-.364.156,0,.13.1.234.234.338a6.736,6.736,0,0,1,1.716,2.08c.26.624.546,1.378,1.17,1.378.338,0,.754-.286.754-.962C120.432-12.038,119.106-13.156,117.572-13.65Zm-3.354,1.066c-.234-.052-.52-.026-.52.1a1.41,1.41,0,0,0,.26.468,6.8,6.8,0,0,1,1.3,2.028c.416,1.014.65,1.508,1.118,1.508a1.055,1.055,0,0,0,.91-1.066C117.286-10.374,116.428-11.986,114.218-12.584Zm-236.392,38.8a2.21,2.21,0,0,1-.65-.13,11.175,11.175,0,0,0-1.82-.754c-.208,0-.286.1-.286.26,0,.182.208,1.092.234,1.3.208,2,.234,5.07.234,6.24,0,.52-.1,3.068-.1,3.3a.662.662,0,0,0,.7.78,1.485,1.485,0,0,0,1.04-.468c.156-.208.156-.442.156-1.248,0-.234,0-.754.7-.754h1.56a.581.581,0,0,1,.65.572c.026.65.026.78.026,1.924a33.972,33.972,0,0,1-.1,3.406c-.286.442-3.432.546-4.056.546a2.5,2.5,0,0,1-.858-.1,1.513,1.513,0,0,0-.416-.13c-.078,0-.182.026-.182.156a10.939,10.939,0,0,0,.468,1.508c.26.754.364,1.014.676,1.014a10.851,10.851,0,0,0,1.4-.442c.78-.234,4.68-1.2,5.564-1.43.52-.156,3.25-.962,3.328-.962.286,0,.312.182.312.884.026.78.026,1.664.806,1.664.676,0,1.248-.884,1.248-1.638,0-1.82-2.106-4-2.886-4a.386.386,0,0,0-.156.026c.052.078.13.182.182.26a2.987,2.987,0,0,1,.6,1.716c0,.208-.1.468-.962.624a13.916,13.916,0,0,1-2.548.364c-.494,0-.78-.026-.78-.728V37.814c0-.39,0-2.418.026-2.574a.6.6,0,0,1,.676-.494h1.976c.676,0,.676.468.676,1.17,0,.572.052.936.52.936A1.312,1.312,0,0,0-112.84,35.5c0-.208-.1-1.222-.1-1.456-.13-2.574-.1-4.472-.1-4.706,0-.754,0-1.742.338-2.028.39-.338.416-.364.416-.546,0-.312-1.638-1.222-1.9-1.222-.156,0-.182.026-.468.338a1.045,1.045,0,0,1-.754.338h-2.028a.656.656,0,0,1-.676-.6V23.1a2.544,2.544,0,0,1,.156-1.144c.052-.078.416-.442.416-.546,0-.416-2.314-.858-2.366-.858a.229.229,0,0,0-.26.26c0,.182.208,1.092.234,1.274.1.806.208,2.47.208,2.99,0,.546,0,1.144-.7,1.144Zm.078,7.826c-.676,0-.7-.494-.7-.624-.078-1.2-.156-4.654-.156-5.824a.644.644,0,0,1,.728-.7h1.768c.624,0,.728.364.728.936v5.486a.651.651,0,0,1-.676.728Zm4.68,0a.619.619,0,0,1-.676-.728c0-.91-.026-4.836,0-5.642,0-.312,0-.78.7-.78h1.872c.286,0,.728,0,.728.7.026.78.078,4.888.078,5.72a.626.626,0,0,1-.65.728ZM-130.6,25.36c0,.6-2.236,2.756-3.042,3.51-.234.208-1.4,1.222-1.4,1.248,0,.052.052.052.078.052a19,19,0,0,0,2.626-1.4c.416-.26,2.34-1.716,2.522-1.716.338,0,.65,1.222.65,1.43,0,.858-1.092,3.77-4.394,8.606-.208.312-1.456,1.924-1.456,2a.112.112,0,0,0,.1.1,31.994,31.994,0,0,0,5.642-6.11c.546-.832.624-.936.806-.936.13,0,.182.13.208.234.052.338.078,1.586.078,2.08a19.972,19.972,0,0,1-.7,5.772c-.26.806-.572.988-1.04.988-.39,0-2.21-.208-2.314-.208-.026,0-.052,0-.052.026a.083.083,0,0,0,.078.078,4.646,4.646,0,0,1,1.846,1.716c.312.572.494.728.832.728,1.716,0,2.964-3.64,2.964-7.878a25.373,25.373,0,0,0-1.144-7.488c-.13-.364-.91-2.21-.91-2.314a.921.921,0,0,1,.286-.624c1.638-1.924,1.82-2.158,2.08-2.236.65-.234.78-.26.78-.6a.655.655,0,0,0-.364-.546c-.1-.1-1.664-1.066-1.716-1.066-.208,0-.442,1.144-.52,1.352-.234.468-1.2,2.184-1.534,2.184a.191.191,0,0,1-.208-.1c-1.352-1.586-3.172-3.2-3.64-3.2-.052,0-.13.026-.13.078C-133.588,21.408-130.6,24.528-130.6,25.36Zm33.332,17.186c.312,0,.754.026.806.494.052.39.078.624.468.624a1.485,1.485,0,0,0,1.118-.624c.208-.312.208-.52.208-2.314a10.684,10.684,0,0,1,0-1.586c.026-.1.078-.156.52-.52a.419.419,0,0,0,.156-.338c0-.546-1.846-1.352-1.9-1.352-.182,0-.338.182-.52.468-.26.39-.468.442-.962.442h-3.406a2.539,2.539,0,0,1-1.17-.208c-1.092-.65-1.2-.728-1.2-1.118,0-1.066.39-1.066.858-1.066h4.992c.468,0,.572,0,.7.208.234.364.312.442.572.442A1.208,1.208,0,0,0-94.8,34.954c0-.7-.052-3.978,0-4.342.13-.13.39-.416.468-.468a.587.587,0,0,0,.208-.416c0-.312-1.872-1.43-2-1.43-.156,0-.572.572-.676.676-.13.1-.312.13-.7.13h-4.316a2.481,2.481,0,0,1-1.664-.546,2.716,2.716,0,0,0-1.17-.494c-.13,0-.208.026-.208.13,0,.13.234.728.26.858a20.713,20.713,0,0,1,.26,4.03c0,.6,0,5.356-2.392,8.944-.182.26-.494.728-.494.728,0,.052.026.078.052.078a8.873,8.873,0,0,0,2.834-3.094c.156-.286.832-1.846.884-1.846.156,0,.156,1.3.156,1.534,0,.312,0,1.456-.052,2.366,0,.208-.13,1.118-.13,1.3,0,.208,0,.624.728.624a1.1,1.1,0,0,0,1.2-.832c.13-.312.286-.338.832-.338Zm-4.706-10.764c-.572,0-.728-.13-.728-.676,0-1.04,0-1.3.728-1.3h4.68c.7,0,.7.078.7,1.17,0,.546,0,.806-.754.806Zm-.156,2.964c-.39,0-.7-.026-.7-.572,0-1.69.234-1.716.858-1.716h4.68c.65,0,.7.286.7.728,0,1.4,0,1.56-.7,1.56Zm4.888,3.77c.858,0,.858.312.858,1.092,0,2.028,0,2.262-.884,2.262h-3.38c-.858,0-.858-.182-.858-1.794,0-1.352,0-1.56.858-1.56Zm4.134-12.4c-.13-.728-.416-1.144-4.316-3.016-.208-.1-1.118-.546-1.118-.676,0-.1.13-.208.156-.234.234-.156.312-.234.312-.442,0-.442-1.742-1.508-2-1.508-.156,0-.156.052-.442.65-.936,1.95-3.822,4.862-4.992,6.006-.286.286-1.976,1.742-1.976,1.768,0,.052.078.078.13.078.442,0,4.42-2.5,7.8-5.616.208-.182.338-.286.546-.286a20.457,20.457,0,0,1,3.8,3.328c1.04,1.352,1.2,1.378,1.482,1.378.13,0,.676-.078.676-1.014A2.276,2.276,0,0,0-93.106,26.114Zm-7.046.208c-.416,0-2.418-.182-2.652-.182a.069.069,0,0,0-.078.078c0,.026,0,.026.078.156l.39.6c.078.1.1.156.182.156a1.557,1.557,0,0,0,.312-.052c.312-.026,1.2-.078,1.534-.078h3.432c.884,0,.988,0,.988-.286,0-.416-1.612-1.508-1.742-1.508-.182,0-.806.884-.988,1.014-.1.1-.156.1-.624.1Zm8.242-2.288c-.026.052,0,.13.208.78a17.47,17.47,0,0,1,.156,2.678c0,2.288-.156,6.318-.234,8.814,0,.338-.182,2.028-.182,2.418,0,.208.052.572.624.572.52,0,1.378-.208,1.43-.858.026-.286,0-7.9,0-9.386a13.362,13.362,0,0,1,.1-3.172c.052-.13.546-.7.546-.858,0-.182-.208-.338-.312-.416-.156-.078-1.924-.832-2.08-.832C-91.78,23.774-91.884,23.852-91.91,24.034Zm4.472-3.328a6.844,6.844,0,0,0,.1,1.222c.1,2.574.13,8.658.13,11.544,0,3.224-.1,7.254-.156,7.592-.052.494-.39.6-.858.6-.39,0-2.418-.182-2.5-.182-.052,0-.156,0-.156.078s.026.1.312.286A4.864,4.864,0,0,1-89.206,43.3c.364.624.442.676.884.676A2.659,2.659,0,0,0-85.488,41.3V30.768c0-1.768,0-5.928.026-6.734a8.917,8.917,0,0,1,.182-1.456c.078-.13.754-.572.754-.754s-.052-.208-.7-.442c-.26-.13-1.95-.754-2.054-.754A.157.157,0,0,0-87.438,20.706Zm14.352,18.668c.754,0,.962.13.962,1.014,0,.468,0,.91.754.91.338,0,1.274-.234,1.248-.936,0,0,0-.78-.026-1.092-.078-1.17-.078-5.3-.078-7.072,0-1.846,0-4.732.1-4.94.078-.182.754-.754.754-.936,0-.364-1.82-1.378-1.95-1.378s-.364.286-.7.676a.78.78,0,0,1-.7.286h-2.964c-.156,0-.39,0-.39-.182a13.428,13.428,0,0,1,2.652-3.458c.13-.1.728-.468.728-.6,0-.338-2.34-1.222-2.5-1.248a6.051,6.051,0,0,1-.078.832,18.079,18.079,0,0,1-1.352,4.03c-.078.156-.156.39-.364.39-.13,0-1.274-.546-1.508-.546a.243.243,0,0,0-.26.286c0,.1.026.494.026.572.078,1.586.1,3.042.1,4.862,0,1.716-.208,9.256-.208,10.79,0,.26,0,.728.728.728,1.274,0,1.274-1.508,1.274-2.132,0-.494.078-.858.806-.858Zm-2.938-7.384c-.286,0-.7,0-.806-.468-.026-.1-.026-3.692-.026-4.212,0-.728.52-.728.832-.728h3.12c.286,0,.7,0,.806.494.026.1.026,3.692.026,4.212,0,.7-.52.7-.832.7Zm3.12.7c.234,0,.6.026.7.338a21.319,21.319,0,0,1,.1,2.652c0,2.938,0,3.016-.806,3.016h-3.172a.7.7,0,0,1-.7-.364,20.9,20.9,0,0,1-.1-2.652c0-2.938,0-2.99.806-2.99Zm12.662-6.318c.286,0,.806,0,.806.7,0,.78.078,4.238.078,4.94,0,3.016-.6,7.462-1.612,8.762a1.5,1.5,0,0,1-1.3.6c-.338,0-1.82-.234-2.132-.26-.156-.026-.806-.182-.936-.182a.139.139,0,0,0-.13.13c0,.182,1.3.676,1.534.832.676.39.7.52.988,1.456a.516.516,0,0,0,.572.364A3.669,3.669,0,0,0-59.566,42c.624-1.092,1.9-3.458,1.9-12.09a10.189,10.189,0,0,1,.1-2.756c.1-.182.78-.78.78-.962,0-.442-1.976-1.482-2.106-1.482-.182,0-.546.65-.65.754a1.08,1.08,0,0,1-.624.234h-5.018c-.312,0-.572,0-.572-.312a16.826,16.826,0,0,1,1.482-3.3c.13-.13.884-.6.884-.78,0-.442-2.522-.962-2.6-.962-.1,0-.1.052-.208.6a36.325,36.325,0,0,1-2.522,7.9c-.078.208-.546,1.248-.546,1.326,0,.026.026.052.078.052.312,0,.884-.78,2.028-2.548.754-1.17.832-1.3,1.456-1.3Zm-5.9,4.134c-.052,0-.13.026-.13.1s.052.13.286.52a7.128,7.128,0,0,1,1.066,2.99c.182,1.326.26,1.794,1.04,1.794a1.276,1.276,0,0,0,1.274-1.274C-62.608,32.458-65.858,30.508-66.144,30.508ZM-44.8,24.5a3.239,3.239,0,0,1-1.144.156,3.853,3.853,0,0,1-2-.546c-.52-.312-.6-.338-.7-.338-.156,0-.182.208-.182.312,0,.026,0,1.846,3.068,2.106.39.026.572.052.572.286a23.263,23.263,0,0,1-3.588,8.476c-.78,1.118-.858,1.248-.858,1.612,0,.26.1.728.806.728,2.392,0,4.628-8.788,4.94-10.088.234-.91.26-.988.494-1.066,2.106-.624,3.562-1.092,3.562-2.08,0-.728-.988-1.014-1.482-1.144-.78-.208-1.04-.312-1.17-.494a2.114,2.114,0,0,0-1.872-1.144c-.52,0-1.066.234-1.066.546a5.159,5.159,0,0,0,.494.728,2.123,2.123,0,0,1,.364,1.144A1.231,1.231,0,0,1-44.8,24.5Zm1.638-.234a.279.279,0,0,1-.052-.156c0-.078.182-1.144.624-1.144.156,0,1.066.468,1.066.65C-41.522,24.008-43.082,24.346-43.16,24.268Zm6.24,15.288c.364-.156,1.56.65,2.262,1.274.39.338.546.416.806.416.52,0,.7-.468.7-.91,0-.962-1.508-1.794-2.054-2.08-.234-.13-1.456-.546-1.69-.728-.78-.546-1.04-4.576-1.04-5.226a2.931,2.931,0,0,1,.624-2.158,3.113,3.113,0,0,1,1.9-.78c.312,0,.416.052,1.4.416a1.8,1.8,0,0,0,.6.1,1.235,1.235,0,0,0,1.222-1.352,2.79,2.79,0,0,0-1.9-2.652,8.279,8.279,0,0,0-1.534-.442c-.1,0-.182.052-.182.13,0,.1.1.208.338.416a2.283,2.283,0,0,1,.728,1.326c0,.676-.182.754-1.794,1.69-2.184,1.248-2.34,2.626-2.34,5.486,0,.364.1,2.106.1,2.5,0,.26-.13.286-.364.286-.182,0-1.144-.052-1.352-.052-2.34,0-4.186.884-4.186,2.574,0,1.3,1.456,3.016,3.926,3.016a3.4,3.4,0,0,0,3.666-2.834C-37.024,39.712-37.024,39.608-36.92,39.556Zm-1.768-.676c.156.416-.208,2.392-2.73,2.392-1.56,0-2.34-.78-2.34-1.4,0-1.378,2.34-1.378,2.938-1.378S-38.818,38.49-38.688,38.88ZM-18.1,24.736c.6,0,.754.13.754.52,0,1.846-3.094,5.824-6.76,7.384-.078.052-.39.182-.39.234,0,.1.1.1.13.1a8.249,8.249,0,0,0,2.522-.78,11.49,11.49,0,0,0,4.732-3.484c.286-.338,1.482-2.054,1.69-2.158.572-.26.78-.364.78-.624,0-.13,0-.208-.572-.572-.234-.13-.65-.39-.65-.468,0-.156.182-.156.6-.156h2.444a.63.63,0,0,1,.676.624c.052.858.052,2.938.052,3.9,0,2.366.572,2.366,4.576,2.366a14.166,14.166,0,0,0,3.744-.26c.858-.234,1.56-.936,1.56-1.482,0-.182-.026-.208-.39-.494-.442-.338-.442-.754-.442-1.274.026-.676.026-.78-.13-.78a8.2,8.2,0,0,0-.91,1.482c-.7,1.092-.962,1.092-3.484,1.092-2.262,0-2.652-.078-2.834-.754a27.124,27.124,0,0,1-.182-3.614c0-.26,0-.806.676-.806h3.354c.312,0,.494,0,.494.182a11.66,11.66,0,0,1-.832,1.534c0,.052.026.13.1.13a11.3,11.3,0,0,0,1.014-.6,3.169,3.169,0,0,1,1.534-.546c2.158-.052,2.366-.026,2.366-.546,0-.13,0-.338-.65-.78a19.55,19.55,0,0,0-2.314-1.43c-.156,0-.312.312-.468.624a1.009,1.009,0,0,1-1.066.754h-5.642c-.65,0-.65-.52-.65-.754a4.517,4.517,0,0,1,.208-1.586c.052-.13.546-.65.546-.78,0-.416-2.08-.806-2.6-.806-.312,0-.338.156-.338.208a3.927,3.927,0,0,0,.234.468,7.728,7.728,0,0,1,.13,1.508c0,1.248,0,1.742-.7,1.742h-6.058a.89.89,0,0,1-.936-.468c-.39-.572-.754-1.118-.91-1.118-.13,0-.156.338-.156.442a6.54,6.54,0,0,1-.52,2.366A10.083,10.083,0,0,0-24.7,27c0,.338.338.676.936.676.988,0,1.716-.988,1.924-2.054.182-.858.234-.884.832-.884Zm-.312,9.776c-1.378,0-2.444-.026-3.562-.078-.182,0-.962-.1-1.144-.1-.078,0-.1.026-.1.078,0,.026,0,.052.1.156l.52.624c.026.026.156.156.208.156.078,0,.468-.078.572-.078.91-.052,2.626-.078,3.276-.078H-15c.676,0,.676.52.676,1.274,0,.65-.052,3.822-.078,4.55,0,.26,0,.832-.676.832H-20.9c-.962,0-2.99-.052-3.77-.1-.13,0-.806-.078-.936-.078-.078,0-.1.026-.1.078,0,.026.026.052.1.156l.52.6c.078.1.13.156.234.156.078,0,.442-.052.546-.052.91-.078,2.652-.078,3.458-.078H-2.418c.39,0,.65-.026.65-.312A7.354,7.354,0,0,0-4.134,39.92c-.234,0-.312.1-.988,1.144-.312.52-.494.78-1.066.78H-11.8c-.026,0-.6,0-.65-.52-.026-.26-.026-4.082-.026-4.524,0-1.066,0-1.612.676-1.612h7.228c.442,0,.676-.1.676-.364,0-.39-2.028-1.846-2.418-1.846-.208,0-.39.052-1.066.884-.546.65-.858.65-1.118.65ZM5.824,21.954c-.364,0-.442-.026-1.118-.39A3.87,3.87,0,0,0,3.484,21.1c-.1,0-.1.156-.1.26,0,.026.13,2.184.156,2.392.026.338.026,4.238.026,5.824,0,2.86,0,4.576-.26,12.3,0,.338-.026.962-.026,1.04,0,.182,0,.91.676.91,1.352,0,1.352-1.4,1.352-1.872,0-.624-.078-3.38-.1-3.952-.026-.988-.026-5.382-.026-6.578a12.494,12.494,0,0,1,.078-1.846c.13-.338.546-.338.962-.338H9.438c.494,0,.78,0,.858.546.052.416.13.91.754.91.364,0,1.092-.26,1.092-1.69,0-.754-.13-4.056-.13-4.732,0-.7,0-.91.182-1.144.078-.1.494-.494.494-.624,0-.364-1.3-1.326-1.586-1.326-.234,0-.442.208-.7.494a.809.809,0,0,1-.728.286Zm3.848.7c.52,0,.754,0,.754.52v1.4c0,.676-.156.676-.754.676H5.954c-.52,0-.754,0-.754-.546v-1.4c0-.65.156-.65.754-.65ZM9.62,25.932c.572,0,.78.026.78.6v1.482c0,.52-.26.52-.78.52H5.954c-.572,0-.78,0-.78-.572V26.452c0-.52.26-.52.78-.52Zm7.618-4.03a1.121,1.121,0,0,1-.676-.156,3.587,3.587,0,0,0-1.222-.416c-.234,0-.286.312-.286.442,0,.442.13,2.366.13,2.756s0,5.512.026,5.668a.571.571,0,0,0,.624.494c.468,0,1.118-.26,1.2-.832.078-.416.156-.546.754-.546h3.38c.65,0,1.014,0,1.014.806,0,3.718-.052,10.244-.078,10.5-.078.728-.338.858-2.028.936-.26,0-1.222.052-1.222.182,0,.234,1.092.52,1.274.624a1.8,1.8,0,0,1,.728.754c.26.442.442.7.728.7A4.318,4.318,0,0,0,22.8,43.4c.91-.468,1.04-1.092,1.04-2.132,0-2.678-.052-14.482-.052-16.874,0-.936,0-1.014.416-1.378.156-.13.286-.26.286-.416,0-.494-1.482-1.326-1.69-1.326-.156,0-.26.078-.572.416a.574.574,0,0,1-.546.208Zm.39,3.224c-.364,0-.65,0-.7-.39-.026-.1-.026-1.17-.026-1.56,0-.6.286-.6.728-.6H21.45c.416,0,.65,0,.728.39v1.586c0,.572-.26.572-.728.572Zm.052,3.51c-.546,0-.754,0-.754-.572V26.348c0-.52.234-.52.754-.52h3.77c.52,0,.728,0,.728.546V28.09c0,.546-.234.546-.728.546Zm-6.318,3.8c-.312,0-1.638-.624-1.924-.624-.13,0-.234.026-.234.234,0,.13.078.7.078.806.078.936.078,3.432.078,3.562,0,1.092-.026,1.872-.1,3.224-.026.234-.052.936-.052,1.118,0,.806.26.936.6.936.65,0,1.092-.442,1.2-1.222.052-.494.182-.6.78-.6H15c.52,0,.858,0,.858.624,0,.39,0,.936.572.936a1.661,1.661,0,0,0,1.092-.572c.234-.286.234-.624.234-1.326,0-.624-.078-4.732,0-5.408a1.145,1.145,0,0,1,.364-.78A.588.588,0,0,0,18.278,33c0-.468-1.274-1.326-1.534-1.326-.234,0-.52.286-.728.52a.62.62,0,0,1-.6.234Zm3.952.7c.494,0,.676,0,.676.65v1.482c-.078.364-.286.364-.676.364H11.648c-.39,0-.6,0-.676-.364v-1.3c0-.78.052-.832.676-.832Zm-.052,3.2c.52,0,.624,0,.7.364.026.13.026,1.56.026,1.794,0,.676-.156.676-.728.676H11.7c-.468,0-.728,0-.728-.494V36.878c0-.546.234-.546.728-.546Zm18.694-1.378c.832,0,1.118-.624,1.4-1.274.676-1.56,2.21-2.756,3.2-2.756,1.04,0,1.248,1.456,1.248,2.626a1.108,1.108,0,0,1-.39.91c-2.444,1.976-3.432,2.808-3.432,4.472,0,2.054,1.742,3.406,5.044,3.406.624,0,4.654-.1,4.654-1.716,0-.624-.728-.884-1.274-.884-.338,0-2,.416-2.366.468a8.047,8.047,0,0,1-1.664.156c-.754,0-3.354,0-3.354-1.794,0-1.482,2.314-3.094,2.522-3.094.182,0,.182.208.182.312,0,.026-.078,1.274-.078,1.534,0,.468.1,1.326.806,1.326.962,0,.962-1.482.962-1.9,0-.234-.052-1.326-.052-1.56,0-.546.026-.832.442-1.092.468-.286,3.406-1.456,4.056-1.742,1.612-.7,3.666-1.56,3.666-2.782a2.453,2.453,0,0,0-2.444-2.314c-2.262,0-3.952,2.366-4.81,3.562a12.208,12.208,0,0,1-1.066,1.4c-.052,0-.078-.052-.26-.494a2.345,2.345,0,0,0-2.21-1.586,2.43,2.43,0,0,0-1.014.208,5.192,5.192,0,0,1-.806.286.1.1,0,0,1-.1-.1c0-.1.052-.182.182-.416a20.163,20.163,0,0,0,1.4-2.808c.572-1.326.6-1.378.988-1.534,1.2-.468,3.094-1.2,3.094-2.054,0-.546-.988-.676-1.17-.676-1.04-.078-1.144-.13-1.17-.468-.052-.572-.7-.806-1.326-.806-.468,0-1.144.208-1.144.416,0,.156.546.624.624.754a2.084,2.084,0,0,1,.208.91c0,.52,0,1.222-2.132,1.222a4.132,4.132,0,0,1-1.716-.468,5.84,5.84,0,0,0-.988-.494c-.156,0-.156.1-.156.182a2.759,2.759,0,0,0,2.314,2.288c.234,0,1.3-.208,1.56-.208.1,0,.286.026.286.182a11.964,11.964,0,0,1-2.21,3.874c-1.768,2.054-2.5,2.886-2.5,3.666C32.968,34.8,33.462,34.954,33.956,34.954Zm5.59-10.868c0-.1.1-.832.468-.832.234,0,.884.052.884.39,0,.286-1.248.624-1.3.624S39.546,24.19,39.546,24.086Zm6.812,4.16a.8.8,0,0,1,.91.78c0,1.716-5.122,3.8-5.2,3.8s-.1-.078-.1-.13C41.964,32.276,44.2,28.246,46.358,28.246Zm17.524,4.81c-.364,0-.494-.182-.494-.442,0-.1.026-.806.026-.91.026-.13.468-.728.468-.884,0-.52-1.794-.7-1.976-.7-.078,0-.286.026-.286.182,0,.1.1.65.13.78,0,.442.026.962.026,1.4,0,.338-.052.6-.6.6-.78,0-2.132-.078-3.328-.13-.13,0-.754-.052-.78-.052-.052,0-.1,0-.1.052,0,.026,0,.052.078.13l.6.676a.232.232,0,0,0,.208.13c.078,0,.416-.052.494-.052.572-.052,1.144-.078,1.872-.078.572,0,.676.1.676.416,0,.754-1.17,3.2-2.444,5.07-.234.338-1.43,1.976-1.43,2.054a.123.123,0,0,0,.13.13,10.4,10.4,0,0,0,1.378-1.092,20.918,20.918,0,0,0,2.73-3.3c.1-.182.234-.364.312-.364.208,0,.208.156.208,1.664,0,.676-.156,4.03-.156,4.784,0,.208,0,.572.6.572a1.412,1.412,0,0,0,1.092-.572,5.241,5.241,0,0,0,.078-1.378c0-.364-.052-2.21-.052-2.652,0-.494.026-2.912.026-3.224.026-.286.026-.7.312-.7.416,0,1.3,1.534,1.612,2.132.546,1.066.6,1.2,1.066,1.2.494,0,.806-.546.806-1.118,0-1.144-.884-1.638-2.808-2.6-.858-.442-.936-.468-.936-.728,0-.286.39-.286.468-.286H67c1.4,0,1.534,0,1.534-.39,0-.338-1.43-1.586-1.638-1.586-.13,0-.338.26-.6.572a1.346,1.346,0,0,1-1.2.7Zm-.208-8.684c.7,0,.78.26.78.728a7.83,7.83,0,0,1-.676,2.5,11.9,11.9,0,0,0-.468,1.144c0,.052.026.156.1.156a2.428,2.428,0,0,0,.624-.364c.286-.286,1.456-1.768,1.742-2.08.1-.13.832-.676.832-.858,0-.234-1.222-.806-1.222-1.066,0-.13.13-.156.208-.156h1.118c.858,0,1.378,0,1.378-.364a3.544,3.544,0,0,0-1.976-1.586c-.182,0-.26.078-.884.78a1.123,1.123,0,0,1-.884.468h-.6c-.546,0-.572-.26-.572-.858a2.442,2.442,0,0,1,.234-1.2c.052-.1.338-.7.338-.754,0-.286-1.95-.676-2.028-.676-.26,0-.312.156-.312.234,0,.052.1.39.1.442a3.456,3.456,0,0,1,.1,1.066c0,1.69,0,1.742-.806,1.742-.442,0-2.678-.182-3.172-.182-.052,0-.1.026-.1.078a.855.855,0,0,0,.078.156l.572.65a.35.35,0,0,0,.234.13c.156,0,.884-.078,1.04-.1.312,0,1.04-.026,2.756-.026ZM59.41,25c-.052.026,0,.156,0,.208a8.56,8.56,0,0,1,.39,1.56c.26,1.664.286,1.82.91,1.82.6,0,.91-.676.91-1.17a2.816,2.816,0,0,0-2.08-2.47A.168.168,0,0,0,59.41,25ZM74.1,29.884c.6,0,.676.52.676,1.95,0,1.352,0,5.772-.026,6.734-.078,2.158-.156,4.264-.156,4.524,0,.39.052.6.676.6a1.17,1.17,0,0,0,1.3-1.326c0-.52-.052-3.094-.052-3.692,0-.546.026-7.878.052-8.06.052-.6.416-.728.6-.728h1.638c1.04,0,1.534,0,1.534-.364,0-.156-.026-.182-.442-.6-1.04-1.04-1.144-1.17-1.4-1.17-.234,0-.312.1-.962.962a1.078,1.078,0,0,1-1.092.494H72.566c-.91,0-.91-.208-.91-2.158,0-3.094.052-3.2.39-3.354.312-.13,5.668-.728,6.266-.78,1.352-.078,1.456-.1,1.456-.338a7.814,7.814,0,0,0-2.522-1.69,5.306,5.306,0,0,0-.754.494,18.549,18.549,0,0,1-4.966,1.768,3.024,3.024,0,0,1-.754-.13,7.4,7.4,0,0,0-.988-.338c-.13,0-.13.13-.13.234s.13,1.456.156,1.742c.1,1.586.156,2.314.156,5.382,0,6.214-.234,8.554-3.094,12.272-.1.1-.65.572-.65.728,0,.078.1.078.182.078a7.882,7.882,0,0,0,3.172-2.834c1.716-2.6,1.924-5.382,2.054-8.5.052-1.482.052-1.9.91-1.9Zm-13.364-.91c-.91,0-2.444-.078-3.458-.13-.1,0-.624-.052-.7-.052-.026,0-.1.026-.1.052,0,.052.026.052.1.156l.572.676a.321.321,0,0,0,.208.1c.156,0,.91-.078,1.066-.078.936-.026,1.248-.052,2.47-.052h6.682c1.378,0,1.534,0,1.534-.39,0-.312-1.43-1.56-1.638-1.56-.13,0-.338.234-.6.572a1.4,1.4,0,0,1-1.2.7ZM96.98,21.59a2.027,2.027,0,0,1-1.092-.234,4.026,4.026,0,0,0-1.274-.416c-.208,0-.26.078-.26.234,0,.026.182,1.456.208,1.742.052.988.078,2.314.078,4.758,0,.338-.078,1.9-.078,2.21,0,.572.156.884.624.884.936,0,1.066-.338,1.274-.806.1-.286.39-.286.858-.286h4.29c.416,0,.676,0,.858.416.1.286.182.494.546.494,1.274,0,1.274-1.04,1.274-1.456,0-.728-.156-4.03-.156-4.706,0-1.378,0-1.534.442-1.846.182-.1.26-.156.26-.338,0-.442-1.664-1.4-1.82-1.4a2.527,2.527,0,0,0-.65.494.858.858,0,0,1-.78.26Zm4.576.7c.676,0,.91.026.91.806v1.43c0,.754-.312.754-.91.754H97.11c-.6,0-.806,0-.858-.442-.026-.156-.078-1.846-.078-1.872,0-.676.312-.676.884-.676Zm.052,3.666c.858,0,.858.208.858,1.924,0,.962,0,1.118-.858,1.118H97.266c-.6,0-.832,0-.884-.442-.052-.338-.078-1.612-.078-2,0-.6.338-.6.91-.6Zm-17.472.416c.078.1.13.156.208.156.052,0,.312-.026.39-.026.416-.026,1.768-.1,2.21-.1.806,0,.806.26.806,2a19.567,19.567,0,0,1-.156,3.146c-.26.442-2.99,1.352-3.77,1.43-.754.078-.832.078-.832.338,0,.52.676,2.392,1.17,2.392.156,0,.286-.156.338-.208a4.354,4.354,0,0,1,1.508-1.118c.26-.13,1.456-.936,1.56-.936.182,0,.182.052.182,1.2,0,.91-.052,5.356-.052,6.344,0,.52-.156.728-.7.728H84.708c-.052,0-.312,0-.312.1,0,.026,1.274.806,1.482.988.182.156.988,1.144,1.248,1.144a3.242,3.242,0,0,0,1.2-.39A2.2,2.2,0,0,0,89.466,41.3c0-.546-.13-3.25-.13-3.874V33.056c0-.624.156-.754,1.716-1.794A7.048,7.048,0,0,0,92.924,29.6c0-.052-.078-.052-.078-.052A30.9,30.9,0,0,1,89.7,30.768c-.286,0-.286-.13-.286-.6,0-.494,0-3.172.078-3.38.13-.39.468-.39.962-.39h1.69c.884,0,1.378,0,1.378-.364a2.9,2.9,0,0,0-1.534-1.508c-.182,0-.806.832-.988.988-.078.078-.208.208-.832.208-.728,0-.728-.182-.728-1.846a7.314,7.314,0,0,1,.13-1.768c.1-.13.78-.7.78-.91,0-.312-.468-.442-.754-.52-.7-.156-1.95-.364-2-.364-.13,0-.234.026-.234.182,0,.078.312,2.106.338,2.522.026.962.026,1.066.026,1.924,0,.442-.026.754-.728.754-.494,0-2.86-.156-3.406-.156-.052,0-.078.026-.078.052,0,.052,0,.052.1.182Zm20.592,10.582c.91,0,1.4,0,1.4-.364,0-.416-1.17-1.508-1.508-1.508-.234,0-.858.858-1.014.988-.208.208-.338.208-1.43.208h-.754c-.65,0-1.014,0-1.014-.806,0-.39,0-2.548.026-2.678.13-.494.442-.494.91-.494h4.5a6.546,6.546,0,0,0,1.326-.078c.156-.052.338-.1.338-.286,0-.39-1.4-1.534-1.794-1.534-.208,0-.26.078-.78.754-.338.442-.468.442-1.664.442h-6.89c-1.482,0-2.808-.026-3.562-.078-.182,0-.988-.1-1.144-.1-.052,0-.1,0-.1.078,0,.026.052.078.13.156l.494.6c.078.1.13.182.234.182.078,0,.468-.078.546-.078.91-.052,2.652-.052,3.276-.052h1.586c.65,0,.962,0,.962.884,0,1.144-.078,6.162-.026,7.2,0,.338.026.65-.416.65-1.092,0-3.614-1.586-3.614-2.262a5.79,5.79,0,0,1,.546-1.144c.65-1.482.728-1.664.988-1.794.572-.312.624-.338.624-.52,0-.39-2.08-1.326-2.158-1.326-.208,0-.208.1-.286,1.04a19.469,19.469,0,0,1-1.118,3.354,22.883,22.883,0,0,1-2.262,3.822,3.69,3.69,0,0,0-.39.572c0,.026.026.026.052.026.494,0,2.73-2.106,3.3-3.172.078-.13.182-.312.364-.312.13,0,.156.026.416.364,1.43,1.976,2.886,3.562,9.178,3.562a11.148,11.148,0,0,0,2.184-.1,7.3,7.3,0,0,0,.442-.91c.182-.26,1.2-1.69,1.2-1.716,0-.052-.026-.078-.052-.078-.078,0-1.69.494-2.028.572a29.377,29.377,0,0,1-4.082.312c-1.118,0-1.222,0-1.222-.754,0-.416-.026-2.314-.026-2.7,0-.91.286-.91,1.092-.91Zm24.544-9.438c1.2,0,1.326,0,1.326-.312a3.61,3.61,0,0,0-1.456-1.534c-.312,0-.754.572-.962.832-.26.312-.7.338-1.638.338h-4.6c-.26,0-.338,0-.338-.156s.6-.624.6-.78c0-.39-1.768-.962-1.924-.962s-.156,0-.338.78c-.26,1.118-.728,1.118-1.092,1.118-.936,0-3.094-.078-3.484-.1-.156-.026-.806-.078-.936-.078-.052,0-.1,0-.1.052s0,.052.13.182l.494.6c.078.1.13.156.234.156s.624-.078.728-.078,1.118-.052,2.574-.052c.156,0,.338,0,.338.182,0,.442-2.366,2.574-2.366,3.2,0,.442.546.572.884.572.65,0,.78-.156,1.222-.676a.525.525,0,0,1,.468-.208c.442,0,2.99.312,2.99.65,0,.208-1.794,1.3-4.654,2-1.638.416-2.912.624-2.964.624-.1.026-.208.052-.208.13,0,.182.286.182.572.182a19.13,19.13,0,0,0,7.488-1.56,11.549,11.549,0,0,1,1.846-.832,13.565,13.565,0,0,1,2.574.936,20.332,20.332,0,0,0,3.146,1.508.782.782,0,0,0,.806-.806c0-.728-.39-1.3-3.666-2.366-.182-.052-1.04-.26-1.2-.312a.27.27,0,0,1-.156-.208,11.143,11.143,0,0,1,1.118-1.222c.26-.286.338-.364.65-.416.676-.078.7-.1.7-.26a10.107,10.107,0,0,0-.416-1.014c0-.1.078-.1.234-.1Zm-9.516,9.568c.39,0,.546,0,.546.156a23.769,23.769,0,0,1-6.89,4.784c-.91.442-1.014.494-1.014.65,0,.1.156.1.234.1a24.728,24.728,0,0,0,8.528-4,2.872,2.872,0,0,1,.65-.39c.156,0,.182.208.182.442,0,.572-.156,3.458-.156,4.134,0,.468.1.858.546.858a1.38,1.38,0,0,0,1.456-1.456c0-.078-.286-4.264-.286-4.524,0-.234.078-.312.156-.312.1,0,.208.1,1.04.91,3.354,3.3,6.5,4.5,6.942,4.5a.372.372,0,0,0,.286-.078c.1-.1.546-.572.65-.65.234-.208,1.664-.858,1.664-.962,0-.078-.208-.078-.286-.078a17.177,17.177,0,0,1-5.512-1.43c-1.69-.728-4.03-2.21-4.03-2.5,0-.156.182-.156.338-.156h8.034c1.2,0,1.352,0,1.352-.338,0-.52-2-1.664-2.054-1.664-.26,0-.416.286-.624.65-.39.676-.6.676-1.872.676H124.2c-.286,0-.65-.026-.65-.6a2.3,2.3,0,0,1,.13-.832c.052-.1.416-.468.416-.572,0-.494-1.794-.7-2.08-.7-.078,0-.234,0-.234.156a6.97,6.97,0,0,0,.182.7c.026.312.052.754.052,1.066,0,.338-.052.78-.754.78h-5.1c-1.222,0-2.288-.052-3.562-.1-.156,0-.962-.078-1.144-.078-.052,0-.1,0-.1.052s.026.052.13.182l.494.6c.078.1.13.156.234.156.078,0,.442-.052.546-.052.26-.026.988-.078,3.276-.078Zm5.486-9.568c.208,0,.338,0,.338.182,0,.338-1.4,2.6-2.5,2.6-.416,0-2.262-.1-2.652-.1h-1.118c-.13,0-.26,0-.26-.1a12.653,12.653,0,0,1,1.248-1.924c.442-.572.6-.65,1.118-.65Zm-.7-3.874c-.364,0-.728,0-.728-.6,0-.988.13-1.17.338-1.326.364-.26.416-.312.416-.468a.408.408,0,0,0-.338-.338c-.156-.026-2.288-.468-2.34-.468a.15.15,0,0,0-.156.156c0,.156.13.78.156.936a10.231,10.231,0,0,1,.052,1.274c0,.286,0,.832-.7.832h-6.4c-.572,0-.572-.052-.832-.65-.078-.208-.416-.936-.572-.936-.078,0-.078.1-.078.156a4.509,4.509,0,0,1-1.066,3.016c-.65.832-.78,1.014-.78,1.534a.8.8,0,0,0,.832.91c1.2,0,1.794-1.248,2.028-2.808.078-.494.416-.52.7-.52h15.5c.312,0,.6,0,.6.442,0,.234-.26,1.326-.26,1.534,0,.1,0,.234.156.234s.26-.13.624-.546a2.967,2.967,0,0,1,1.95-1.2c.312-.1.884-.26.884-.6,0-.39-2.028-1.56-2.418-1.56-.26,0-.364.1-.832.676-.26.312-.442.312-1.352.312Zm17.108,14.092a2.886,2.886,0,0,0-.026,5.772,2.886,2.886,0,1,0,.026-5.772Zm-.026.728a2.181,2.181,0,0,1,2.21,2.184,2.146,2.146,0,0,1-2.158,2.132A2.18,2.18,0,0,1,139.49,40.6,2.1,2.1,0,0,1,141.622,38.464Z" transform="translate(135.044 20.41)" fill="#4a4a4a"/>
</svg>
