<svg xmlns="http://www.w3.org/2000/svg" width="556.05" height="27.36" viewBox="0 0 556.05 27.36">
  <path id="パス_130458" data-name="パス 130458" d="M16.32-23.19a4.442,4.442,0,0,1-1.83-.27c-.27-.09-1.56-.75-1.71-.75-.12,0-.12.09-.12.18,0,.15.12.93.15,1.11.06.6.21,2.25.21,4.71,0,.36-.12,5.82-.15,6.66,0,.27-.12,1.59-.12,1.89,0,.63.15.81.57.81,1.35,0,1.5-.84,1.65-1.83.12-.63.33-.63,1.02-.63h1.95c.27,0,.72,0,.9.33a8.477,8.477,0,0,1,.09,2.34c0,2.22,0,2.46-.93,2.46h-.57c-.96,0-1.92-.03-3.72-.12-.18,0-1.02-.09-1.2-.09-.06,0-.12.03-.12.06,0,.06.03.06.12.21l.54.69c.09.12.15.18.24.18s.48-.06.57-.06c.72-.06,2.07-.09,3.42-.09H18c.96,0,.96.18.96,2.85,0,1.68,0,2.13-.93,2.13H13.71c-.78,0-1.71,0-3.72-.12-.15,0-1.02-.09-1.2-.09-.06,0-.09.03-.09.06a.381.381,0,0,0,.12.21l.51.69c.09.12.15.18.24.18.06,0,.72-.06.81-.09C11.46.36,12.84.36,13.59.36H27.72c1.23,0,1.38,0,1.38-.33,0-.36-1.89-2.37-2.37-2.37-.24,0-.33.12-.96,1.08-.57.84-.63.84-1.98.84H21.78c-.36,0-.78-.09-.87-.54-.03-.18-.03-.42-.03-2.46,0-1.59,0-1.98.9-1.98h3.87c.93,0,1.47,0,1.47-.42,0-.36-2.37-1.98-2.55-1.98-.27,0-1.14,1.2-1.35,1.41-.15.15-.33.21-1.2.21-.69,0-.93,0-1.05-.27a23.045,23.045,0,0,1-.09-2.58c0-2.04,0-2.28.9-2.28h1.95c.36,0,.72,0,.9.42.39.87.42.96.93.96a1.276,1.276,0,0,0,1.41-1.44c0-.75-.09-4.47-.09-5.31,0-1.38.06-4.14.09-4.5a1.01,1.01,0,0,1,.51-.93c.48-.3.63-.39.63-.63,0-.63-2.1-1.53-2.31-1.53a3.422,3.422,0,0,0-.87.66,1.719,1.719,0,0,1-1.32.42Zm-.45,5.34c-.9,0-.9-.12-.9-2.58,0-1.65,0-1.95.9-1.95h2.16c.9,0,.9.3.9,1.92,0,2.34,0,2.61-.9,2.61Zm7.98.78c.99,0,.99.36.99,1.92,0,2.91-.09,3.06-1.05,3.06H21.87c-.99,0-.99-.15-.99-2.85,0-1.8,0-2.13.99-2.13Zm-7.98,4.98c-.93,0-.93-.36-.93-2.01,0-2.85,0-2.97.93-2.97h2.16c.93,0,.93.36.93,1.95,0,2.73,0,3.03-.93,3.03Zm8.07-10.29c.99,0,.99.21.99,2.25s0,2.28-.99,2.28H21.87c-.99,0-.99-.27-.99-1.95,0-2.52,0-2.58.99-2.58ZM10.89-13.05c.84,0,1.35,0,1.35-.45,0-.36-2.19-1.98-2.37-1.98-.24,0-.99,1.11-1.17,1.29a1.007,1.007,0,0,1-.69.33c-.42,0-.42-.39-.42-.54v-3.21c0-.57,0-3.36.09-3.63a.724.724,0,0,1,.78-.42h2.43c.9,0,1.44,0,1.44-.42,0-.36-2.34-1.98-2.52-1.98-.3,0-1.14,1.17-1.35,1.41-.24.21-.36.21-1.5.21H6.39c-1.23,0-2.43-.06-3.69-.12-.18,0-1.02-.09-1.23-.09-.06,0-.09,0-.09.06s.06.09.12.21l.51.69c.09.15.15.18.27.18,0,0,2.01-.15,2.37-.15.42,0,.81.06.9.51s.09,4.5.09,5.28c0,1.62,0,2.01-.96,2.01-.48,0-2.85-.21-3-.21-.06,0-.09.03-.09.06,0,.06,0,.09.09.21l.51.69c.09.15.12.21.24.21.09,0,.63-.09.75-.09a13.965,13.965,0,0,1,1.5-.06c.87,0,.93.36.93,1.05v5.7c0,.99,0,1.32-2.85,1.5-1.26.09-1.38.09-1.38.36,0,.39.84,2.7,1.2,2.7.12,0,.57-.57.69-.69.51-.39,8.88-4.05,8.88-4.83,0-.03-.03-.06-.09-.06-.36,0-3.66,1.41-4.2,1.41-.21,0-.24-.15-.27-.3,0-.48-.03-3.33-.03-3.51,0-3.3.03-3.33.93-3.33ZM54.6-10.89c.36,0,.84,0,.9.66.09.81.15,1.23.84,1.23.36,0,1.35-.33,1.35-1.92,0-.3-.06-1.56-.06-1.83-.03-1.65-.06-3.33-.06-4.98a19.87,19.87,0,0,1,.24-3.9c.09-.15.63-.66.63-.81,0-.45-2.16-1.98-2.34-1.98-.21,0-.69.87-.81.99a1.2,1.2,0,0,1-.87.3H49.83a2.4,2.4,0,0,1-1.14-.24,11.487,11.487,0,0,0-1.71-.87.265.265,0,0,0-.3.3c0,.18.15.96.18,1.11.12,1.29.18,3.99.18,5.31,0,.24,0,4.65-.09,6.06-.03.45-.06,1.32-.06,1.68,0,.6.18.9.75.9,1.14,0,1.38-.99,1.53-1.5.12-.51.63-.51.84-.51Zm.03-7.62c.93,0,.96.33.96,1.53s-.03,1.53-.96,1.53H49.86c-.93,0-.93-.33-.93-1.53s0-1.53.93-1.53Zm-.06-3.84c.96,0,.96.42.96,1.53s0,1.53-.96,1.53H49.89c-.99,0-.99-.42-.99-1.53s0-1.53.99-1.53Zm.09,7.68c.9,0,.9.24.9,2.22,0,.78-.54.78-.9.78h-4.8c-.9,0-.9-.24-.9-2.25,0-.75.54-.75.9-.75ZM44.28-19.71c1.02,0,1.62,0,1.62-.39s-2.04-1.65-2.19-1.65c-.21,0-.78.9-.93,1.02a1.567,1.567,0,0,1-.84.24.621.621,0,0,1-.6-.6,4.878,4.878,0,0,1,.15-1.56c.06-.24.96-.96.96-1.17,0-.51-2.67-1.26-2.76-1.26-.12,0-.36.03-.36.21s.21.96.24,1.14a18.427,18.427,0,0,1,.12,2.34c0,.9-.51.9-.9.9-1.14,0-3.09-.06-4.23-.12-.18,0-.93-.09-1.08-.09-.06,0-.12,0-.12.06s0,.06.12.21l.6.69c.09.12.15.18.24.18.12,0,.57-.06.66-.06.18,0,1.26-.09,3.36-.09a.467.467,0,0,1,.45.48,30.018,30.018,0,0,1-3.33,6.09c-.3.45-2.04,2.82-2.04,2.88,0,.03,0,.06.03.06.06,0,1.38-.09,5.16-5.16.51-.66.57-.75.72-.75a.3.3,0,0,1,.3.27c0,.33-.06,1.83-.06,2.13,0,.63-.18,3.36-.18,3.93,0,.24,0,1.05.81,1.05,1.32,0,1.32-1.5,1.32-1.77,0-.3-.21-4.23-.21-5.04,0-.27-.03-1.53-.03-1.8,0-.33.21-.42.3-.42.27,0,1.38,2.01,1.62,3.18.18.87.36,1.38.81,1.38a1.433,1.433,0,0,0,1.17-1.41c0-1.32-.96-2.04-3.48-3.9a.867.867,0,0,1-.39-.69c0-.12.06-.51.6-.51ZM41.49-7.98a2.725,2.725,0,0,0-.84-.21c-.48,0-.48.33-.48.54,0,.15.09.81.09.96.03.6.06,1.2.06,1.77,0,.36-.06,2.13-.06,2.52,0,2.43,0,3.84,6.78,3.84,6.99,0,7.5-2.25,7.5-2.58,0-.27-.18-.42-.81-.84a2.974,2.974,0,0,1-.84-2.22c-.06-.96-.06-1.08-.21-1.08-.18,0-.24.27-.36.69a10,10,0,0,1-1.38,3.12c-.75.75-4.71.93-5.82.93-2.79,0-2.79-.84-2.79-2.94,0-.54,0-2.43.3-2.61.57-.36.84-.54.84-.75a.64.64,0,0,0-.45-.51C42.99-7.38,41.64-7.92,41.49-7.98ZM37.17-5.31c0-.39-.06-2.01-.42-2.01-.09,0-.18.36-.27.84a8.018,8.018,0,0,1-2.07,3.99c-1.23,1.23-1.35,1.38-1.35,1.92,0,.66.66.75,1.11.75C37.05.18,37.17-4.56,37.17-5.31ZM60.09-1.65a6.088,6.088,0,0,0-4.02-5.19,13.074,13.074,0,0,0-1.44-.45c-.03,0-.06,0-.06.09a4.217,4.217,0,0,0,.51.54A8.42,8.42,0,0,1,57.3-3.18c.6,2.22.84,2.97,1.86,2.97C59.58-.21,60.09-.69,60.09-1.65ZM49.08-5.37c0-2.01-3.51-3.51-3.54-3.51s-.06.06-.06.09c0,.15.03.21.18.45A9.451,9.451,0,0,1,46.8-5.79c.42,1.5.51,1.86,1.17,1.86A1.327,1.327,0,0,0,49.08-5.37ZM78.66-20.4c8.19,0,8.31,7.14,8.31,8.31,0,7.47-6.51,10.05-9.63,11.28-.75.3-.81.33-.81.42,0,.18.18.21.3.21a18.439,18.439,0,0,0,4.98-1.11,11.188,11.188,0,0,0,7.56-10.56,9.4,9.4,0,0,0-5.22-8.73,9.773,9.773,0,0,0-4.83-.96,12.412,12.412,0,0,0-9.57,3.9,10.568,10.568,0,0,0-3.33,7.65c0,3.66,1.77,6.75,3.75,6.75,1.2,0,2.73-.72,5.13-4.38,2.64-3.99,3.09-6.78,3.09-8.79a23,23,0,0,0-.3-3.24c0-.12-.06-.24-.06-.33C78.03-20.16,78.06-20.4,78.66-20.4Zm-1.68.09c.39,0,.51.15.51,1.95a17.16,17.16,0,0,1-2.94,8.73c-2.07,3.12-2.79,3.48-3.66,3.48-1.83,0-2.61-2.67-2.61-4.62C68.28-16.44,74.13-20.31,76.98-20.31Zm27.39.39c.69,0,.87.15.87.6,0,2.13-3.57,6.72-7.8,8.52-.09.06-.45.21-.45.27,0,.12.12.12.15.12a9.518,9.518,0,0,0,2.91-.9,13.257,13.257,0,0,0,5.46-4.02c.33-.39,1.71-2.37,1.95-2.49.66-.3.9-.42.9-.72,0-.15,0-.24-.66-.66-.27-.15-.75-.45-.75-.54,0-.18.21-.18.69-.18h2.82a.727.727,0,0,1,.78.72c.06.99.06,3.39.06,4.5,0,2.73.66,2.73,5.28,2.73a16.345,16.345,0,0,0,4.32-.3c.99-.27,1.8-1.08,1.8-1.71,0-.21-.03-.24-.45-.57-.51-.39-.51-.87-.51-1.47.03-.78.03-.9-.15-.9a9.457,9.457,0,0,0-1.05,1.71c-.81,1.26-1.11,1.26-4.02,1.26-2.61,0-3.06-.09-3.27-.87a31.3,31.3,0,0,1-.21-4.17c0-.3,0-.93.78-.93h3.87c.36,0,.57,0,.57.21a13.454,13.454,0,0,1-.96,1.77c0,.06.03.15.12.15a13.043,13.043,0,0,0,1.17-.69,3.657,3.657,0,0,1,1.77-.63c2.49-.06,2.73-.03,2.73-.63,0-.15,0-.39-.75-.9a22.558,22.558,0,0,0-2.67-1.65c-.18,0-.36.36-.54.72a1.165,1.165,0,0,1-1.23.87h-6.51c-.75,0-.75-.6-.75-.87a5.211,5.211,0,0,1,.24-1.83c.06-.15.63-.75.63-.9,0-.48-2.4-.93-3-.93-.36,0-.39.18-.39.24a4.532,4.532,0,0,0,.27.54,8.917,8.917,0,0,1,.15,1.74c0,1.44,0,2.01-.81,2.01h-6.99a1.027,1.027,0,0,1-1.08-.54c-.45-.66-.87-1.29-1.05-1.29-.15,0-.18.39-.18.51a7.546,7.546,0,0,1-.6,2.73,11.634,11.634,0,0,0-1.08,1.98c0,.39.39.78,1.08.78,1.14,0,1.98-1.14,2.22-2.37.21-.99.27-1.02.96-1.02Zm-.36,11.28c-1.59,0-2.82-.03-4.11-.09-.21,0-1.11-.12-1.32-.12-.09,0-.12.03-.12.09,0,.03,0,.06.12.18l.6.72c.03.03.18.18.24.18.09,0,.54-.09.66-.09,1.05-.06,3.03-.09,3.78-.09h4.08c.78,0,.78.6.78,1.47,0,.75-.06,4.41-.09,5.25,0,.3,0,.96-.78.96h-6.72c-1.11,0-3.45-.06-4.35-.12-.15,0-.93-.09-1.08-.09-.09,0-.12.03-.12.09,0,.03.03.06.12.18l.6.69c.09.12.15.18.27.18.09,0,.51-.06.63-.06C98.25.6,100.26.6,101.19.6h21.27c.45,0,.75-.03.75-.36,0-.45-2.37-2.64-2.73-2.64-.27,0-.36.12-1.14,1.32-.36.6-.57.9-1.23.9h-6.48c-.03,0-.69,0-.75-.6-.03-.3-.03-4.71-.03-5.22,0-1.23,0-1.86.78-1.86h8.34c.51,0,.78-.12.78-.42,0-.45-2.34-2.13-2.79-2.13-.24,0-.45.06-1.23,1.02-.63.75-.99.75-1.29.75Zm27.96-14.49c-.42,0-.51-.03-1.29-.45a4.465,4.465,0,0,0-1.41-.54c-.12,0-.12.18-.12.3,0,.03.15,2.52.18,2.76.03.39.03,4.89.03,6.72,0,3.3,0,5.28-.3,14.19,0,.39-.03,1.11-.03,1.2,0,.21,0,1.05.78,1.05,1.56,0,1.56-1.62,1.56-2.16,0-.72-.09-3.9-.12-4.56-.03-1.14-.03-6.21-.03-7.59a14.417,14.417,0,0,1,.09-2.13c.15-.39.63-.39,1.11-.39h3.72c.57,0,.9,0,.99.63.06.48.15,1.05.87,1.05.42,0,1.26-.3,1.26-1.95,0-.87-.15-4.68-.15-5.46,0-.81,0-1.05.21-1.32.09-.12.57-.57.57-.72,0-.42-1.5-1.53-1.83-1.53-.27,0-.51.24-.81.57a.934.934,0,0,1-.84.33Zm4.44.81c.6,0,.87,0,.87.6v1.62c0,.78-.18.78-.87.78h-4.29c-.6,0-.87,0-.87-.63v-1.62c0-.75.18-.75.87-.75Zm-.06,3.78c.66,0,.9.03.9.69v1.71c0,.6-.3.6-.9.6h-4.23c-.66,0-.9,0-.9-.66v-1.74c0-.6.3-.6.9-.6Zm8.79-4.65a1.293,1.293,0,0,1-.78-.18,4.138,4.138,0,0,0-1.41-.48c-.27,0-.33.36-.33.51,0,.51.15,2.73.15,3.18s0,6.36.03,6.54a.659.659,0,0,0,.72.57c.54,0,1.29-.3,1.38-.96.09-.48.18-.63.87-.63h3.9c.75,0,1.17,0,1.17.93,0,4.29-.06,11.82-.09,12.12-.09.84-.39.99-2.34,1.08-.3,0-1.41.06-1.41.21,0,.27,1.26.6,1.47.72a2.078,2.078,0,0,1,.84.87c.3.51.51.81.84.81a4.982,4.982,0,0,0,1.41-.48c1.05-.54,1.2-1.26,1.2-2.46,0-3.09-.06-16.71-.06-19.47,0-1.08,0-1.17.48-1.59.18-.15.33-.3.33-.48,0-.57-1.71-1.53-1.95-1.53-.18,0-.3.09-.66.48a.662.662,0,0,1-.63.24Zm.45,3.72c-.42,0-.75,0-.81-.45-.03-.12-.03-1.35-.03-1.8,0-.69.33-.69.84-.69H150c.48,0,.75,0,.84.45v1.83c0,.66-.3.66-.84.66Zm.06,4.05c-.63,0-.87,0-.87-.66v-1.98c0-.6.27-.6.87-.6H150c.6,0,.84,0,.84.63v1.98c0,.63-.27.63-.84.63Zm-7.29,4.38c-.36,0-1.89-.72-2.22-.72-.15,0-.27.03-.27.27,0,.15.09.81.09.93.09,1.08.09,3.96.09,4.11,0,1.26-.03,2.16-.12,3.72-.03.27-.06,1.08-.06,1.29,0,.93.3,1.08.69,1.08.75,0,1.26-.51,1.38-1.41.06-.57.21-.69.9-.69h3.72c.6,0,.99,0,.99.72,0,.45,0,1.08.66,1.08a1.916,1.916,0,0,0,1.26-.66c.27-.33.27-.72.27-1.53,0-.72-.09-5.46,0-6.24a1.321,1.321,0,0,1,.42-.9.678.678,0,0,0,.18-.39c0-.54-1.47-1.53-1.77-1.53-.27,0-.6.33-.84.6a.715.715,0,0,1-.69.27Zm4.56.81c.57,0,.78,0,.78.75v1.71c-.09.42-.33.42-.78.42h-4.23c-.45,0-.69,0-.78-.42v-1.5c0-.9.06-.96.78-.96Zm-.06,3.69c.6,0,.72,0,.81.42.03.15.03,1.8.03,2.07,0,.78-.18.78-.84.78h-4.11c-.54,0-.84,0-.84-.57V-5.91c0-.63.27-.63.84-.63Zm21.57-1.59c.96,0,1.29-.72,1.62-1.47.78-1.8,2.55-3.18,3.69-3.18,1.2,0,1.44,1.68,1.44,3.03a1.278,1.278,0,0,1-.45,1.05c-2.82,2.28-3.96,3.24-3.96,5.16,0,2.37,2.01,3.93,5.82,3.93.72,0,5.37-.12,5.37-1.98,0-.72-.84-1.02-1.47-1.02-.39,0-2.31.48-2.73.54a9.285,9.285,0,0,1-1.92.18c-.87,0-3.87,0-3.87-2.07,0-1.71,2.67-3.57,2.91-3.57.21,0,.21.24.21.36,0,.03-.09,1.47-.09,1.77,0,.54.12,1.53.93,1.53,1.11,0,1.11-1.71,1.11-2.19,0-.27-.06-1.53-.06-1.8,0-.63.03-.96.51-1.26.54-.33,3.93-1.68,4.68-2.01,1.86-.81,4.23-1.8,4.23-3.21a2.83,2.83,0,0,0-2.82-2.67c-2.61,0-4.56,2.73-5.55,4.11a14.086,14.086,0,0,1-1.23,1.62c-.06,0-.09-.06-.3-.57a2.705,2.705,0,0,0-2.55-1.83,2.8,2.8,0,0,0-1.17.24,5.991,5.991,0,0,1-.93.33.11.11,0,0,1-.12-.12c0-.12.06-.21.21-.48a23.264,23.264,0,0,0,1.62-3.24c.66-1.53.69-1.59,1.14-1.77,1.38-.54,3.57-1.38,3.57-2.37,0-.63-1.14-.78-1.35-.78-1.2-.09-1.32-.15-1.35-.54-.06-.66-.81-.93-1.53-.93-.54,0-1.32.24-1.32.48,0,.18.63.72.72.87a2.4,2.4,0,0,1,.24,1.05c0,.6,0,1.41-2.46,1.41a4.768,4.768,0,0,1-1.98-.54,6.739,6.739,0,0,0-1.14-.57c-.18,0-.18.12-.18.21a3.183,3.183,0,0,0,2.67,2.64c.27,0,1.5-.24,1.8-.24.12,0,.33.03.33.21a13.8,13.8,0,0,1-2.55,4.47c-2.04,2.37-2.88,3.33-2.88,4.23C163.29-8.31,163.86-8.13,164.43-8.13Zm6.45-12.54c0-.12.12-.96.54-.96.27,0,1.02.06,1.02.45,0,.33-1.44.72-1.5.72S170.88-20.55,170.88-20.67Zm7.86,4.8a.923.923,0,0,1,1.05.9c0,1.98-5.91,4.38-6,4.38s-.12-.09-.12-.15C173.67-11.22,176.25-15.87,178.74-15.87Zm22.68,1.17c1.26,0,1.26.36,1.26.96,0,2.04-.27,2.46-1.26,2.46h-1.23c-1.5,0-3.3-.06-3.93-.09-.21-.03-1.26-.12-1.5-.12-.06,0-.12.03-.12.06s.12.15.15.18l.63.78c.09.09.09.12.24.12.18,0,1.02-.09,1.23-.09,1.11-.06,2.28-.06,3.15-.06h1.41c.72,0,.93.15.93.6,0,2.04-.48,2.85-1.38,2.85h-4.38c-.81,0-2.55,0-3.51-.06-.3-.03-1.8-.15-1.92-.15-.06,0-.12.03-.12.09a.432.432,0,0,0,.06.09l.72.84c.06.06.12.15.24.15.18,0,1.02-.12,1.23-.12.99-.03,2.46-.03,3.15-.03h4.38c.15,0,.48.03.48.36,0,.9-2.28,5.76-9.03,7.23-.78.18-.81.18-.81.33,0,.21.3.21.48.21a21.855,21.855,0,0,0,4.23-.75,11.353,11.353,0,0,0,6.99-6.06c.51-1.14.6-1.32,1.14-1.32a1.127,1.127,0,0,1,.93.63,16.939,16.939,0,0,0,2.19,2.97,14.373,14.373,0,0,0,7.44,4.56c.12,0,.15-.09.24-.3a3.639,3.639,0,0,1,.81-1.11c.18-.18,1.32-1.11,1.32-1.11,0-.12-.12-.12-.75-.12-6,0-10.23-4.44-10.23-5.25,0-.27.51-.27.54-.27h8.4c.99,0,1.59,0,1.59-.42a6.637,6.637,0,0,0-2.31-2.01c-.3,0-.39.12-1.23,1.11-.42.51-1.23.51-2.16.51h-6.24c-.45,0-.72-.12-.72-.6,0-.06.36-2.19.36-2.22.18-.57,1.2-.63,1.83-.63h4.5c1.08,0,1.62,0,1.62-.48,0-.51-1.83-1.8-2.22-1.8a.465.465,0,0,0-.24.06c-.09.09-.66.78-.78.93-.45.51-.6.51-2.04.51h-1.14c-.51,0-1.41-.06-1.41-1.02,0-2.37.21-2.4,1.59-2.4h6.21c.78,0,1.62,0,1.62-.48,0-.51-2.01-1.92-2.4-1.92-.27,0-1.23,1.2-1.47,1.41s-.39.21-1.62.21h-2.91c-.78,0-.96-.27-.96-1.08,0-.66.12-.96.45-1.17.33-.24.48-.33.48-.48,0-.33-.42-.42-.81-.51-.75-.15-2.04-.33-2.19-.33s-.21.09-.21.24a2.541,2.541,0,0,0,.12.51,10.6,10.6,0,0,1,.21,1.98c0,.48-.12.84-1.2.84h-2.85c-.81,0-2.55,0-3.51-.06-.3-.03-1.8-.15-1.92-.15-.06,0-.12.03-.12.06a.227.227,0,0,0,.06.12l.72.81a.267.267,0,0,0,.24.15c.18,0,1.02-.09,1.23-.09.99-.06,2.46-.06,3.15-.06Zm10.71-5.91c.6,0,.81,0,.81.39a2.635,2.635,0,0,1-.63,1.26,3.69,3.69,0,0,0-.54.84c0,.09.09.09.15.09.09,0,1.05-.51,1.2-.57a4.2,4.2,0,0,1,2.31-.57c.18,0,1.05.06,1.26.06.36,0,.69-.15.69-.57,0-.75-2.55-2.49-2.79-2.49-.18,0-1.11.6-1.32.66a5.724,5.724,0,0,1-1.44.12h-5.61c-1.26,0-1.44-.42-1.44-1.44a1.194,1.194,0,0,1,.18-.75c.06-.09.54-.57.54-.72,0-.24-.33-.33-.54-.36-.27-.06-2.34-.54-2.52-.54s-.21.12-.21.18c0,.12.27.69.3.81a10.321,10.321,0,0,1,.09,1.38c0,1.2-.36,1.44-1.71,1.44h-5.76c-.87,0-.99-.15-1.26-.57-.66-1.11-.75-1.23-.9-1.23-.09,0-.12.06-.12.57a5.232,5.232,0,0,1-1.29,3.57c-.93,1.02-1.05,1.11-1.05,1.5a1.213,1.213,0,0,0,1.23,1.11c.27,0,1.53,0,2.34-2.82.39-1.29.39-1.35,1.41-1.35Zm24.39-2.61a4.522,4.522,0,0,1-1.38-.15,14.113,14.113,0,0,0-1.71-.75c-.09,0-.09.12-.09.21,0,.33.12,1.65.12,1.92.12,2.01.12,4.35.12,8.04,0,2.73-.03,3.33-.09,4.29,0,.09-.09,1.26-.09,1.32,0,.78.36.93.75.93a1.274,1.274,0,0,0,1.23-.84c.15-.48.18-.69.63-.69h3.69c.3,0,.72,0,.81.66.09.54.09,4.2.09,5.04,0,.48-.06,2.61,0,3.03.18,1.53,1.62,1.8,4.41,1.8,2.4,0,3.09-.33,3.57-.75a1.757,1.757,0,0,0,.69-1.02c0-.27-.87-1.32-.96-1.59a9.4,9.4,0,0,1-.36-2.1c-.03-.36-.06-.48-.18-.48-.18,0-.21.15-.36.96-.48,2.73-.54,3.12-2.43,3.12-.69,0-1.95-.06-2.28-.63a14.472,14.472,0,0,1-.21-3.21c0-.72,0-3.96.09-4.35.09-.42.54-.48.84-.48.6,0,1.05,0,1.17.51.09.39.15.72.72.72,1.41,0,1.41-1.2,1.41-1.65,0-1.59-.18-8.73-.18-10.17,0-.3.03-1.83.09-2.01.09-.21.9-.78.9-.96,0-.42-2.04-1.8-2.25-1.8s-.75.69-.9.78a1.766,1.766,0,0,1-1.14.3Zm7.14,5.25c.96,0,.96.36.96,1.5,0,1.8,0,2.04-.96,2.04H236.4c-.93,0-.93-.33-.93-1.59,0-1.68,0-1.95.93-1.95Zm-7.26-.81c-.93,0-.93-.27-.93-1.68,0-1.74,0-1.95.93-1.95h7.26c.93,0,.93.27.93,1.65,0,1.77,0,1.98-.93,1.98Zm.06,9.06c-.96,0-.96-.06-.96-2.88,0-.57,0-1.02.93-1.02h7.23c.93,0,.93.42.93,1.14,0,2.64-.06,2.76-.99,2.76Zm-13.5-3.81c.12.12.15.18.24.18s.48-.06.6-.06c.63-.06,1.89-.06,2.01-.06.78,0,.78.63.78.99,0,.57,0,5.79-.09,6-.21.45-3.09.6-3.63.6-.12,0-.63-.06-.75-.06-.18,0-.24.12-.24.27,0,.33,1.14,2.73,1.53,2.73.21,0,.42-.18.66-.45.42-.54.6-.6,2.28-1.26,5.25-2.01,6.39-2.46,6.39-2.73,0-.12-.12-.12-.21-.12-.3,0-3,.72-3.57.72a.293.293,0,0,1-.33-.24c-.06-.24-.06-4.68-.06-5.22,0-.81,0-1.26.96-1.26h1.53c.57,0,1.41,0,1.41-.27a5.142,5.142,0,0,0-1.86-1.98c-.21,0-.36.18-.93.96-.3.45-.51.45-.66.45-.45,0-.45-.15-.45-1.62,0-1.02,0-4.41.09-4.62.15-.39.6-.39.87-.39h1.95c.9,0,1.44,0,1.44-.42,0-.36-2.34-1.98-2.52-1.98-.27,0-.51.3-.75.63-.6.81-.69.9-.93.93a14.029,14.029,0,0,1-2.34.06c-.48,0-2.79-.09-3.18-.12-.15,0-.84-.09-.99-.09-.06,0-.09.03-.09.06,0,.06.03.12.12.21l.51.69c.09.12.15.18.24.18a1.756,1.756,0,0,0,.39-.06c.51-.03,1.77-.09,2.31-.09.42,0,.84.09.87.78.03.6.03,4.05.03,4.89,0,.45,0,.99-.9.99-.45,0-2.76-.18-3.27-.18-.06,0-.09.03-.09.06,0,.06,0,.06.12.21Zm13.71,4.86c-.15-.06-.45-.09-.45.18,0,.09.12.57.12.69a10.13,10.13,0,0,1-1.65,4.68,14.066,14.066,0,0,1-7.29,4.74c-.39.09-.66.12-.66.27,0,.12.15.24.39.24A15.875,15.875,0,0,0,232.59.54c3.93-2.01,4.92-4.65,5.31-5.85.6-1.77.63-1.8.99-1.92.21-.06.39-.12.39-.33C239.28-7.92,237.06-8.58,236.67-8.67Zm27.69-6.15c.63-.15,3.63-1.26,3.81-1.26.87,0,4.86,4.47,4.86,6.42a.962.962,0,0,1-1.05.96,9.321,9.321,0,0,1-2.46-.6,10.7,10.7,0,0,0-3.24-.54c-3.33,0-6.39,1.8-6.39,4.77a4.4,4.4,0,0,0,2.58,3.72,10.078,10.078,0,0,0,4.83.93c.54,0,3.42,0,3.42-1.59a1.268,1.268,0,0,0-1.47-1.17c-.06,0-2.61.27-3.12.27-2.55,0-4.44-.75-4.44-2.67a4.045,4.045,0,0,1,4.2-3.48,11.018,11.018,0,0,1,5.1,1.56c1.8.99,2.01,1.11,2.55,1.11a1.87,1.87,0,0,0,1.98-2.01c0-3.06-3.93-6.54-5.49-7.92a.855.855,0,0,1-.36-.57c0-.21.09-.27.9-.78.42-.24,1.83-1.32,1.83-2.1a1.041,1.041,0,0,0-1.02-1.08c-.33-.03-1.86,0-2.22,0a5,5,0,0,1-2.82-.69c-1.38-.81-1.68-.99-2.31-.99a1.448,1.448,0,0,0-1.5,1.44c0,.87,1.11,1.89,1.92,2.46.39.27,1.38.96,1.38,1.23,0,.48-2.04,1.02-3.18,1.02a7.524,7.524,0,0,1-3.09-.81,7.88,7.88,0,0,0-1.23-.57c-.21,0-.24.12-.24.27,0,.57,1.32,2.88,4.41,2.88A8.68,8.68,0,0,0,264.36-14.82Zm1.68-4.35c-.24-.18-1.32-1.05-1.32-1.77a.557.557,0,0,1,.57-.54c.33,0,.57.12,2.55,1.32.96.57,1.05.66,1.05,1.05,0,.66-.93.96-1.11.96A5.056,5.056,0,0,1,266.04-19.17Zm38.58-.96a2.428,2.428,0,0,0-2.55-2.1c-.15,0-.66.03-.66.33,0,.06.54,1.08.57,1.11a4.421,4.421,0,0,1,.36,2.07c0,.39-.06,1.83-.15,2.43-.12.63-.33.66-2.19.96-.78.12-4.56.96-4.77.96-.39,0-.39-.24-.39-.87a16.554,16.554,0,0,1,.15-2.31,6.139,6.139,0,0,0,.15-.93c0-1.05-1.86-1.89-2.58-1.89-.36,0-.87.15-.87.42,0,.12.6,1.17.69,1.41a7.313,7.313,0,0,1,.48,3.15c0,1.11-.03,1.38-.51,1.53a14.052,14.052,0,0,1-3.81.42c-.27,0-1.53-.12-1.83-.12-.27,0-.39.03-.39.42,0,1.65,2.43,2.22,3.09,2.22.45,0,2.52-.93,3.03-.93.54,0,.54.3.54,2.82,0,5.7,0,8.1,8.58,8.1.69,0,3.42,0,3.42-1.41a1.562,1.562,0,0,0-1.62-1.29,9.467,9.467,0,0,0-1.44.21,13.513,13.513,0,0,1-2.64.24c-4.2,0-4.74-1.41-4.74-4.23,0-.09.06-2.82.09-3.81a2.412,2.412,0,0,1,.27-1.23c.39-.66,5.82-1.86,6.45-1.86.45,0,.45.15.45.39a13.325,13.325,0,0,1-.87,3.42,1.08,1.08,0,0,1-1.02.78c-.27,0-1.62-.54-1.95-.54-.06,0-.15,0-.15.06a3.593,3.593,0,0,0,.39.63,10.9,10.9,0,0,1,.57,1.32c.27.87.39,1.2,1.41,1.2,1.08,0,2.7-1.53,3.27-5.97.18-1.56.21-1.62,1.95-1.62.54,0,3.15.33,3.75.33s1.47-.21,1.47-.99c0-.6-.45-1.08-2.34-1.62a16.159,16.159,0,0,0-2.16-.54c-.06,0-.24,0-.24.12a.247.247,0,0,0,.12.18c.54.51.6.57.6.75,0,.33-.27.36-.93.42-.24,0-1.29.12-1.41.12-.09,0-.33,0-.33-.15,0-.18.03-.39.24-2.4C304.2-18.69,304.62-20.07,304.62-20.13ZM333.03-2.61c-.42,0-.6-.27-1.02-.81a4.429,4.429,0,0,0-3.42-1.92,2.888,2.888,0,0,0-2.97,2.43c0,1.5,2.13,3.09,5.1,3.09,3.81,0,7.5-2.67,7.5-6.48a6.476,6.476,0,0,0-6.75-6.24,7.257,7.257,0,0,0-2.64.48c-.18.06-.57.21-.75.27-.09,0-.18-.12-.18-.21,0-.51,2.64-4.62,4.8-6.15,1.44-.99,2.13-1.47,2.13-2.34,0-1.32-1.95-2.07-3.15-2.07-.66,0-.87.09-2.73.9a14.547,14.547,0,0,1-4.65,1.08c-.63,0-.72,0-.72.09,0,.15.93,2.07,2.34,2.07.51,0,.93-.09,2.13-1.08.51-.42,2.28-1.92,3.39-1.92.36,0,.57.21.57.42,0,.33-.42.96-1.41,2.37-4.53,6.36-4.83,6.75-6.78,9.03-2.13,2.49-2.37,3.15-2.37,3.9a.827.827,0,0,0,.87.84c.81,0,1.11-.57,1.71-1.59.54-.93,3.09-5.04,7.05-5.04a4.749,4.749,0,0,1,5.07,4.56C336.15-4.44,334.05-2.61,333.03-2.61Zm-2.76.3a.5.5,0,0,1-.51.54c-1.29,0-2.58-.63-2.58-1.41a1.226,1.226,0,0,1,1.26-1.05A2.041,2.041,0,0,1,330.27-2.31ZM364.05-17.1c.09.48-3.48,8.25-11.31,13.92a9.256,9.256,0,0,0-1.38,1.11c0,.18.15.18.21.18a7.37,7.37,0,0,0,1.86-.69A30.14,30.14,0,0,0,361.44-9c.66-.75.75-.84,1.05-.84.66,0,3.3,2.28,5.37,5.91,1.05,1.86,1.17,2.07,1.86,2.07a1.3,1.3,0,0,0,1.23-1.32c0-2.73-5.37-5.76-6.72-6.54-1.26-.69-1.32-.75-1.32-1.02a.986.986,0,0,1,.24-.6c.48-.69,2.85-4.2,3.45-4.92.18-.21,1.29-1.02,1.29-1.29,0-.75-1.83-2.28-2.55-2.28a11.452,11.452,0,0,0-1.65.93c-1.56.63-7.2,1.11-8.22,1.11a5.345,5.345,0,0,1-1.59-.3c-.09-.03-.75-.21-.78-.21-.15,0-.18.09-.18.24a6.121,6.121,0,0,0,.72,1.74,6.261,6.261,0,0,0,2.04,1.08,12.955,12.955,0,0,0,1.35-.57c.15-.06,6.45-1.53,6.66-1.53A.337.337,0,0,1,364.05-17.1Zm35.85-3.03a2.875,2.875,0,0,0-2.94,2.88,2.948,2.948,0,0,0,2.91,2.91,2.927,2.927,0,0,0,2.85-2.94A2.78,2.78,0,0,0,399.9-20.13Zm-.06,1.02a2.011,2.011,0,0,1,1.92,1.92,1.869,1.869,0,0,1-1.86,1.83,1.867,1.867,0,0,1-1.95-1.83A1.952,1.952,0,0,1,399.84-19.11Zm-9,1.59c-.84,0-1.32.39-2.73,1.53-3.75,3.03-5.28,3.6-6.66,3.6-.15,0-.78-.12-.93-.12-.18,0-.21.21-.21.36a1.289,1.289,0,0,0,.36.93c1.53,1.59,1.92,1.74,2.52,1.74a1.921,1.921,0,0,0,1.5-.93,6.264,6.264,0,0,1,1.35-1.53c4.23-3.93,4.26-3.93,4.77-3.93a1.427,1.427,0,0,1,.9.45c.33.36,1.8,2.22,2.16,2.64,7.44,9,9.72,9,10.59,9,.54,0,1.26-.21,1.26-.9a1.479,1.479,0,0,0-.66-1.11c-.39-.33-2.64-1.68-3.15-2.01-3.51-2.28-7.86-7.29-8.04-7.53C393.06-16.35,392.04-17.52,390.84-17.52ZM418.62-.96c.39,0,1.83-1.35,2.19-1.59,12.42-8.7,15.06-15.12,15.06-15.45a.11.11,0,0,0-.12-.12,14.3,14.3,0,0,0-1.29,1.35c-7.17,8.13-15.24,12.63-16.53,12.63-.24,0-1.38-.39-1.65-.39-.18,0-.27.09-.27.21a1.273,1.273,0,0,0,.18.57c.09.15.63.78.72.93C417.66-1.44,417.96-.96,418.62-.96Zm-1.14-13.83c-.39,0-2.1.03-2.1.45,0,.12.18.24.27.3a7.278,7.278,0,0,1,2.73,2.49c.45.75.6.93,1.05.93.72,0,1.17-.9,1.17-1.5C420.6-13.59,418.77-14.79,417.48-14.79Zm3.48-5.73a3.572,3.572,0,0,0-2.31.57c0,.09.33.18.45.21a5.222,5.222,0,0,1,2.58,1.59c1.08,1.29,1.23,1.41,1.56,1.41.48,0,.96-.66.96-1.35C424.2-18.18,424.2-20.52,420.96-20.52Zm41.4,5.97a15.155,15.155,0,0,0-1.77.78,29.244,29.244,0,0,1-4.44.93c-.69,0-.69-1.62-.69-3.09,0-.96-.99-1.2-2.22-1.2-.27,0-1.5,0-1.5.48a.229.229,0,0,0,.06.15c.09.06.57.36.69.45a5.82,5.82,0,0,1,1.47,3.36.546.546,0,0,1-.42.48,22.425,22.425,0,0,1-4.2.54,4.753,4.753,0,0,1-1.59-.24c-.12-.03-.57-.21-.66-.21-.24,0-.27.57-.27.75a1.2,1.2,0,0,0,.6,1.08c1.32.9,1.47.99,1.77.99.18,0,.3-.06,1.53-.57a18.025,18.025,0,0,1,3.39-.96c.42,0,.48.15.84,1.35.42,1.38,2.04,8.37,2.19,8.85a3.115,3.115,0,0,0,1.8,1.68c.33,0,.63-.63.63-1.26a8.082,8.082,0,0,0-.84-2.76,69.178,69.178,0,0,1-2.58-8.01c0-.48.12-.51,1.2-.78.42-.09,4.02-.96,4.17-.96.12,0,.33.03.33.24,0,.75-2.61,3.54-2.61,3.87a.156.156,0,0,0,.15.15,13.511,13.511,0,0,0,2.73-1.62,6.75,6.75,0,0,1,2.13-1.32c.54-.18.96-.33.96-.81C465.21-12.99,463.23-14.55,462.36-14.55Zm18.15-6.3c0,.24.15.42.39.69.93,1.08,1.08,1.77,1.08,5.13,0,.54,0,1.71-.06,3.06,0,.24-.15,1.26-.15,1.5,0,.78.69,2.37,1.35,2.37.45,0,1.14-.75,1.14-1.53,0-.3-.15-1.8-.18-2.16-.03-.72-.09-3.42-.09-6.9,0-.15.06-.84.06-.99,0-.51-1.65-1.56-2.37-1.56C480.99-21.24,480.51-21.06,480.51-20.85Zm10.59,2.79c0,6-.21,11.22-6,17.4-.36.39-2.31,2.31-2.31,2.43,0,.09.06.15.18.15a11.962,11.962,0,0,0,2.7-1.77,18.979,18.979,0,0,0,7.5-13.92c.09-1.05.12-5.55.24-6.36a11.668,11.668,0,0,0,.3-1.2c0-.78-1.5-1.53-3.3-1.53-.87,0-.87.09-.87.18,0,.06.03.12.39.6A5.736,5.736,0,0,1,491.1-18.06Zm30.45.96c.09.48-3.48,8.25-11.31,13.92a9.256,9.256,0,0,0-1.38,1.11c0,.18.15.18.21.18a7.37,7.37,0,0,0,1.86-.69A30.139,30.139,0,0,0,518.94-9c.66-.75.75-.84,1.05-.84.66,0,3.3,2.28,5.37,5.91,1.05,1.86,1.17,2.07,1.86,2.07a1.3,1.3,0,0,0,1.23-1.32c0-2.73-5.37-5.76-6.72-6.54-1.26-.69-1.32-.75-1.32-1.02a.986.986,0,0,1,.24-.6c.48-.69,2.85-4.2,3.45-4.92.18-.21,1.29-1.02,1.29-1.29,0-.75-1.83-2.28-2.55-2.28a11.452,11.452,0,0,0-1.65.93c-1.56.63-7.2,1.11-8.22,1.11a5.345,5.345,0,0,1-1.59-.3c-.09-.03-.75-.21-.78-.21-.15,0-.18.09-.18.24a6.121,6.121,0,0,0,.72,1.74,6.26,6.26,0,0,0,2.04,1.08,12.959,12.959,0,0,0,1.35-.57c.15-.06,6.45-1.53,6.66-1.53A.337.337,0,0,1,521.55-17.1Zm24.96-5.28.06.12a3.329,3.329,0,0,1,1.02,1.38c.36.96.36,1.92.36,10.5a62.088,62.088,0,0,1-.27,6.96c0,.12-.12.75-.12.87,0,.78.78,2.82,1.68,2.82.87,0,.87-1.98.87-2.73,0-.45-.03-1.2-.06-1.53-.12-2.7-.15-4.29-.15-7.47,0-2.22.12-2.22.42-2.22.93,0,2.34,1.41,3.18,2.52,2.01,2.61,2.1,2.73,2.85,2.73a1.027,1.027,0,0,0,1.08-1.05c0-2.25-4.65-4.44-6.48-4.86-.87-.21-.99-.3-.99-.96a38.923,38.923,0,0,1,.27-4.17,8.694,8.694,0,0,0,.36-1.26c0-.96-2.16-1.92-3.24-1.92C547.32-22.65,546.54-22.65,546.51-22.38Z" transform="translate(-1.38 25.23)" fill="#4a4a4a"/>
</svg>
