<svg xmlns="http://www.w3.org/2000/svg" width="242.622" height="16.758" viewBox="0 0 242.622 16.758">
  <path id="パス_130449" data-name="パス 130449" d="M5.742-10.008c-.162,0-.954-.072-1.134-.072-.054,0-.162.018-.162.108A1.963,1.963,0,0,0,5.706-8.55a4.615,4.615,0,0,0,.72-.288c.486-.18,3.456-.954,3.726-.954.108,0,.36,0,.36.4,0,.072-.468,3.42-.54,4-.09.612-.126.9-.666.972C9.108-4.392,4-4,3.636-4a5.329,5.329,0,0,1-1.422-.216,5.35,5.35,0,0,0-.7-.234c-.09,0-.108.036-.108.108,0,1.152,1.6,1.926,1.8,1.926A6.412,6.412,0,0,0,4.158-2.7a43.214,43.214,0,0,1,8.388-.936,9.312,9.312,0,0,1,2.322.252c.072.018,1.134.252,1.188.252.414,0,.432-.324.432-.486,0-.81-1.422-1.458-2.25-1.458-.36,0-2.124.414-2.52.414-.252,0-.4-.072-.4-.36a17.027,17.027,0,0,1,.774-4.3c.054-.108.54-.612.54-.756a2.474,2.474,0,0,0-1.674-1.152,7.572,7.572,0,0,0-.7.306A27.034,27.034,0,0,1,5.742-10.008Zm15.7,5.346a.766.766,0,0,0-.2-.036.143.143,0,0,0-.162.162,2.988,2.988,0,0,0,.54,1.188,3.186,3.186,0,0,0,1.26.666c.018,0,1.332-.306,1.584-.342.99-.162,4.788-.576,6.3-.576a13.488,13.488,0,0,1,2.034.144c.432.072.846.144.99.144.306,0,1.008-.108,1.008-.522,0-.864-2.2-1.224-2.718-1.224-.432,0-2.484.378-2.97.45a35.589,35.589,0,0,1-5.094.4A6.083,6.083,0,0,1,21.438-4.662Zm2.52-5.382c-.108,0-.252.036-.252.09,0,.036.432.576.486.648a1.339,1.339,0,0,0,.972.558c.144,0,3.618-.468,4.32-.5,1.962-.09,2.628-.126,2.628-.576,0-.486-.774-.9-1.6-.9-.216,0-1.314.216-1.566.252-.72.126-3.294.486-3.87.486C24.894-9.99,24.066-10.044,23.958-10.044ZM45.5-10.512c-.5,0-.792.234-1.638.918-2.25,1.818-3.168,2.16-4,2.16-.09,0-.468-.072-.558-.072-.108,0-.126.126-.126.216a.773.773,0,0,0,.216.558c.828.846,1.134,1.044,1.512,1.044a1.152,1.152,0,0,0,.9-.558,3.758,3.758,0,0,1,.81-.918c2.538-2.358,2.556-2.358,2.862-2.358a.856.856,0,0,1,.54.27c.2.216,1.08,1.332,1.3,1.584,4.464,5.4,5.832,5.4,6.354,5.4.324,0,.756-.126.756-.54a.887.887,0,0,0-.4-.666c-.234-.2-1.584-1.008-1.89-1.206A28.833,28.833,0,0,1,47.322-9.2C46.836-9.81,46.224-10.512,45.5-10.512Zm6.462-1.854c-.342,0-.7-.018-.7.144,0,.036.036.126.216.216a4.15,4.15,0,0,1,1.44,1.188c.27.414.5.774.9.774a.529.529,0,0,0,.468-.576C54.288-11.844,52.434-12.348,51.966-12.366ZM50.04-10.89c-.144,0-.324.072-.324.144s.18.2.27.27A5.144,5.144,0,0,1,51.21-9.342c.5.684.666.828.918.828.324,0,.54-.45.54-.7C52.668-9.81,51.714-10.89,50.04-10.89ZM61.614-7.254a9.8,9.8,0,0,1-2.2-.162c-.09-.018-.522-.216-.612-.216s-.144.108-.144.216c0,.612.828,1.728,1.6,1.728.216,0,1.188-.288,1.4-.324.432-.09,4.554-.324,7.038-.324.36,0,2.16.036,2.574.036.756,0,1.494-.054,1.494-.558,0-.126-.162-.792-1.26-.792-.09,0-.288.018-.4.018C68.49-7.488,62.208-7.254,61.614-7.254Zm20.97-1.962c0-.918-1.908-1.53-2.034-1.53-.072,0-.09.036-.09.09a1.336,1.336,0,0,0,.072.324,3.948,3.948,0,0,1,.306,1.548c0,.594-.2,2.556-2.178,5.274a5.1,5.1,0,0,0-.72.954.084.084,0,0,0,.09.09,6.268,6.268,0,0,0,3.33-3.42C81.666-6.57,82.584-9.162,82.584-9.216Zm3.168,6.48c.126-.018.288-.144.594-.486a10,10,0,0,1,1.242-1.152c3.15-2.772,4.194-5,4.194-5.148a.077.077,0,0,0-.072-.072c-.072,0-1.6,1.62-1.908,1.926-1.728,1.746-3.384,2.934-3.924,2.934-.324,0-.342-.36-.342-.594,0-.594.072-2.772.144-3.258.036-.2.288-1.134.288-1.35,0-.936-1.89-1.26-1.98-1.26-.036,0-.108.018-.108.09a4.678,4.678,0,0,0,.234.648,11.037,11.037,0,0,1,.342,3.384c0,.45-.018,1.872-.072,2.214-.018.09-.108.558-.108.648C84.276-3.708,85.23-2.646,85.752-2.736ZM96.03-8.946a.146.146,0,0,0-.126.162c0,.7,1.566,1.494,1.782,1.494a4.239,4.239,0,0,0,.63-.2,14.646,14.646,0,0,1,2.3-.432c.306,0,.414.108.414.972,0,.18-.162,1.908-.162,2.088,0,.306.522,1.44.954,1.44.252,0,.342-.324.342-1.188,0-.342-.108-2.088-.108-2.484,0-.774,0-.846.234-.972a11.512,11.512,0,0,1,2.142-.18c.252,0,.54,0,.54.576a10.662,10.662,0,0,1-1.746,6.444c-.144.234-1.044,1.386-1.044,1.4a.1.1,0,0,0,.108.108,5.811,5.811,0,0,0,1.872-1.62,9.1,9.1,0,0,0,1.908-5.8c.054-1.044.054-1.17.594-1.17.036,0,1.836.036,2.448.126.2.036,1.17.252,1.386.252a.531.531,0,0,0,.576-.522c0-.882-1.584-1.188-2.484-1.188a2.145,2.145,0,0,0-.9.234,5.594,5.594,0,0,1-1.224.2c-.432,0-.432-.18-.432-.756a7.386,7.386,0,0,1,.18-2.016,3.58,3.58,0,0,0,.306-.648c0-.216-.27-.342-.45-.432a4.126,4.126,0,0,0-1.44-.54c-.216,0-.414.108-.414.18,0,.036.5.756.558.918a21.632,21.632,0,0,1,.126,2.934c0,.18,0,.486-.4.522-.45.036-1.584.108-2.052.108-.252,0-.432-.108-.432-.378a1.635,1.635,0,0,1,.072-.648c.018-.108.324-.63.324-.756,0-.36-1.206-1.206-1.62-1.206-.09,0-.63.054-.63.18,0,.072.288.378.342.45a4.665,4.665,0,0,1,.4,2c0,.432-.2.486-.54.5-.324,0-1.89.108-2.25.108-.234,0-1.278-.126-1.548-.162A4.775,4.775,0,0,0,96.03-8.946Zm22.284,1.692a9.8,9.8,0,0,1-2.2-.162c-.09-.018-.522-.216-.612-.216s-.144.108-.144.216c0,.612.828,1.728,1.6,1.728.216,0,1.188-.288,1.4-.324.432-.09,4.554-.324,7.038-.324.36,0,2.16.036,2.574.036.756,0,1.494-.054,1.494-.558,0-.126-.162-.792-1.26-.792-.09,0-.288.018-.4.018C125.19-7.488,118.908-7.254,118.314-7.254Zm18.792-5.472c-.162,0-.414.054-.414.162a3.676,3.676,0,0,0,.306.594,5.114,5.114,0,0,1,.468,2.52c0,.594-.054,3.42-.054,4.068,0,2.556.09,4.158,3.816,4.158,1.116,0,4.572,0,4.572-1.35a.7.7,0,0,0-.72-.63,10.577,10.577,0,0,0-1.242.216,11.462,11.462,0,0,1-2.628.324c-2.358,0-2.7-.486-2.7-2.844,0-.684,0-.774.216-.918.09-.054,2.754-1.008,3.258-1.224.342-.144,1.962-.954,2.376-1.044.522-.108.792-.162.792-.576a1.853,1.853,0,0,0-1.854-1.512c-.126,0-.252,0-.252.072,0,.054.126.558.126.666,0,.972-3.924,2.88-4.284,2.88a.3.3,0,0,1-.342-.324c0-.756.036-2.358.108-2.988.018-.162.306-.864.306-1.026a.747.747,0,0,0-.306-.468C137.88-12.6,137.628-12.726,137.106-12.726Zm9.576-1.494c-.216,0-.666.09-.666.234,0,.054.054.144.234.2a4.571,4.571,0,0,1,1.6.954c.36.414.576.648.954.648a.5.5,0,0,0,.45-.54C149.256-13.05,148.9-14.22,146.682-14.22Zm-1.512,1.566c-.162,0-.324.054-.324.144,0,.072.18.216.252.27a5.176,5.176,0,0,1,1.188,1.17c.486.684.648.846.918.846.342,0,.54-.468.54-.684C147.744-11.664,146.556-12.654,145.17-12.654Zm16.56,2.394c.054.288-2.088,4.95-6.786,8.352a5.553,5.553,0,0,0-.828.666c0,.108.09.108.126.108a4.422,4.422,0,0,0,1.116-.414A18.084,18.084,0,0,0,160.164-5.4c.4-.45.45-.5.63-.5.4,0,1.98,1.368,3.222,3.546.63,1.116.7,1.242,1.116,1.242a.777.777,0,0,0,.738-.792c0-1.638-3.222-3.456-4.032-3.924-.756-.414-.792-.45-.792-.612a.592.592,0,0,1,.144-.36c.288-.414,1.71-2.52,2.07-2.952.108-.126.774-.612.774-.774,0-.45-1.1-1.368-1.53-1.368a6.871,6.871,0,0,0-.99.558,24.909,24.909,0,0,1-4.932.666,3.207,3.207,0,0,1-.954-.18c-.054-.018-.45-.126-.468-.126-.09,0-.108.054-.108.144a3.673,3.673,0,0,0,.432,1.044,3.757,3.757,0,0,0,1.224.648,7.774,7.774,0,0,0,.81-.342c.09-.036,3.87-.918,4-.918A.2.2,0,0,1,161.73-10.26Zm24.48,3.384c.576,0,.954,0,.954-.252,0-.234-1.458-1.152-1.584-1.152-.162,0-.666.684-.81.81-.126.126-.216.126-.954.126h-.792c-.594,0-.594-.216-.594-.882a23.518,23.518,0,0,1,.072-2.358c.108-.2.27-.234.522-.234h2.538c.594,0,.954,0,.954-.252a5.188,5.188,0,0,0-1.494-1.188c-.18,0-.738.72-.882.846-.126.108-.252.126-.666.126h-.432c-.414,0-.594-.09-.594-.558a19.472,19.472,0,0,1,.108-2.124c.018-.072.306-.36.306-.45,0-.2-1.62-.558-1.674-.558a.077.077,0,0,0-.072.072c0,.162.162,1.422.18,1.692.018.144.036,1.224.036,1.44,0,.486-.36.486-.522.486h-1.386c-.09,0-.234-.018-.234-.162,0-.018.216-.522.324-.792.252-.576.27-.648.45-.7.324-.108.45-.144.45-.27,0-.252-1.674-.738-1.728-.738-.126,0-.144.036-.18.414a15.651,15.651,0,0,1-1.026,3.654c-.09.216-.594,1.35-.594,1.386,0,.054.036.054.054.054a6.578,6.578,0,0,0,1.584-1.926c.234-.414.27-.45.648-.45h1.62c.4,0,.486.126.522.378.054.288.054,2.07.054,2.5,0,.486-.126.594-.63.594h-.558c-.846,0-2.142-.072-2.286-.072-.108,0-.666-.054-.792-.054-.036,0-.072,0-.072.036s.018.036.09.126l.342.414c.054.072.09.108.162.108.054,0,.324-.036.378-.036.414-.036,1.368-.054,1.8-.054.4,0,.684,0,.684.378a15.024,15.024,0,0,1-3.852,5.58,3.877,3.877,0,0,0-.612.648c0,.054.072.072.108.072a2.985,2.985,0,0,0,.648-.306,13.046,13.046,0,0,0,4.266-4.7c.144-.234.18-.27.252-.27.09,0,.108.072.108.342,0,.036-.054,2.88-.072,3.762-.018.63-.144,1.656-.144,2.286,0,.252.108.378.378.378a1.343,1.343,0,0,0,.738-.234c.144-.108.18-.27.18-.558,0-.882-.036-5.184-.036-6.156,0-.09,0-.2.072-.2.036,0,.072.054.072.072.054.126.252.738.306.864A12.76,12.76,0,0,0,185.724-.36a4.2,4.2,0,0,0,.81-.486,2.339,2.339,0,0,1,.918-.2c.054,0,.18,0,.18-.09s-.414-.324-.684-.486a9.507,9.507,0,0,1-4.248-5c0-.252.252-.252.45-.252ZM176.4-9.72c.414,0,.792,0,.792-.216a4.406,4.406,0,0,0-1.35-1.026c-.144,0-.2.108-.378.45a.534.534,0,0,1-.468.306c-.36,0-.378-.234-.378-.342,0-.216.126-2.484.126-2.79,0-.324.036-.414.216-.558s.234-.18.234-.306c0-.18-.126-.234-.486-.324a11.207,11.207,0,0,0-1.152-.342c-.036,0-.054.036-.054.072,0,.09.126,1.35.126,1.62,0,2.97,0,2.97-.486,2.97-.378,0-2.034-.126-2.322-.126a.048.048,0,0,0-.054.054c0,.018.018.036.072.108l.288.414c.036.072.072.126.126.126a2.029,2.029,0,0,0,.324-.054c.342-.018,1.08-.036,1.242-.036s.558,0,.558.432a27.293,27.293,0,0,1-1.692,5.4c-.108.234-.666,1.44-.666,1.476a.039.039,0,0,0,.036.036c.54,0,2.394-3.69,2.448-3.69s.054.2.054.234c0,.54-.054,4.644-.072,5.076-.018.2-.054,1.476-.054,1.638a.347.347,0,0,0,.4.378.793.793,0,0,0,.828-.846c0-.558-.072-3.33-.054-3.96,0-.54-.018-3.168-.018-3.762,0-.342.108-.414.18-.414.252,0,.72.846.9,1.188.378.738.468.936.774.936.45,0,.468-.666.468-.738,0-.954-1.008-1.332-1.458-1.512-.738-.27-.864-.36-.864-.72,0-1.026,0-1.152.63-1.152Zm16.974-1.35c-.846,0-1.638-.018-2.466-.054-.108-.018-.666-.072-.792-.072-.054,0-.072.018-.072.054,0,.018,0,.036.072.108l.36.414c.054.072.09.126.144.126a2.989,2.989,0,0,0,.4-.054c.63-.036,1.854-.036,2.268-.036h4.86c.45,0,.486.108.594.774,1.152,6.894,4.914,10.728,6.5,10.728a.409.409,0,0,0,.468-.45.987.987,0,0,0-.18-.5,1.339,1.339,0,0,1-.2-.738c0-.378.234-2.322.234-2.376,0-.036,0-.126-.054-.126-.09,0-.432.792-.522.954-.234.432-.54.954-.792.954-.54,0-2.5-2.268-3.618-5.742a23.92,23.92,0,0,1-.72-3.186c0-.252.108-.288.414-.288h4.77c.63,0,.954,0,.954-.27,0-.306-1.458-1.35-1.728-1.35-.18,0-.234.072-.792.828-.234.306-.324.306-1.152.306h-2.088c-.45,0-.594,0-.612-1.908,0-.828,0-.918.2-1.116.162-.18.18-.2.18-.306,0-.234-.234-.306-.7-.4a7.816,7.816,0,0,0-1.26-.2c-.054,0-.126,0-.126.054,0,.2.216,1.116.252,1.314.054.288.342,2.2.342,2.34,0,.162-.072.216-.378.216Zm4.212,4.734c.612,0,.972,0,.972-.234a3.131,3.131,0,0,0-1.314-1.242c-.18,0-.72.864-.918.954a2.9,2.9,0,0,1-.864.054H194.04c-.828,0-1.638-.018-2.466-.054-.108-.018-.666-.072-.792-.072-.036,0-.072.018-.072.036,0,.036.018.054.09.126l.342.414c.054.072.09.126.162.126.036,0,.216-.036.252-.036a14.039,14.039,0,0,1,1.638-.054c.18,0,.5,0,.522.432,0,.072.018,1.6.018,1.746,0,.216-.018,2.43-.036,2.574a.364.364,0,0,1-.162.252,22.83,22.83,0,0,1-2.484.36c-.558.054-.612.072-.612.144,0,.054.5,1.944.7,1.944.108,0,.486-.45.594-.5A22.688,22.688,0,0,1,195.03-.486a23.274,23.274,0,0,0,4.824-1.962c0-.054-.072-.054-.09-.054-.036,0-4.1.918-4.374.918-.306,0-.306-.18-.306-1.278s.072-2.988.108-3.168c.072-.288.378-.306.5-.306Zm3.384-8.406c-.018.036.054.108.108.144a8.973,8.973,0,0,1,1.386,1.6c.378.54.414.594.612.594a.665.665,0,0,0,.738-.738c0-1.044-2.484-1.656-2.736-1.656C201.042-14.8,200.97-14.778,200.97-14.742Zm7.74,7.686a17.85,17.85,0,0,0,7.884-5.778c.144-.18.432-.54.5-.54s.108.054.306.432c2.034,3.708,5.868,6.354,6.264,6.354.108,0,.162-.054.234-.18a2.111,2.111,0,0,1,1.152-.738c.45-.144.5-.162.5-.27,0-.09,0-.09-.5-.234-4.266-1.206-7.452-5.2-7.452-5.76,0-.072.018-.126.126-.18.18-.126.216-.144.216-.234,0-.306-1.674-1.1-1.692-1.1-.216,0-.216.072-.36.63-.09.4-1.224,2.538-4.3,5.166-1.17.99-2.646,2.034-2.772,2.124-.216.144-.27.18-.27.252C208.548-7.02,208.656-7.038,208.71-7.056Zm5.922,2.412c.306,0,.54,0,.54.306a12.593,12.593,0,0,1-.936,2.376c-.738,1.476-.864,1.476-1.872,1.476A9.54,9.54,0,0,1,211.3-.558c-.108-.018-.666-.126-.792-.126-.054,0-.144,0-.144.126a14.221,14.221,0,0,0,.99,1.908.2.2,0,0,0,.18.126,3.764,3.764,0,0,0,.522-.288A78.8,78.8,0,0,1,220.41-.468c.252,0,.414.054.756.666.324.594.7,1.26,1.224,1.26.342,0,.7-.4.7-.972,0-1.134-1.116-1.782-1.6-2.07A16.742,16.742,0,0,0,219.2-2.7c-.054,0-.126.018-.126.108,0,.216,1.062,1.134,1.062,1.4,0,.18-.144.2-1.44.324-2,.2-3.69.306-3.924.306-.072,0-.324-.018-.324-.18s.18-.342.252-.432c.108-.108.846-.99,1.224-1.494.45-.594.486-.648.63-.7.54-.144.54-.144.54-.306,0-.2-.846-.918-.846-.918,0-.054.072-.054.252-.054h5.508c.846,0,.936,0,.936-.234,0-.162,0-.18-.918-.936-.414-.342-.468-.378-.612-.378-.162,0-.234.108-.5.486-.432.594-.63.594-1.386.594h-5.94c-.63,0-1.584-.036-2.466-.072-.108,0-.666-.054-.792-.054-.036,0-.072,0-.072.036,0,.018.054.072.09.126l.342.414c.072.072.09.108.162.108.054,0,.324-.036.378-.036.486-.036.936-.054,2.268-.054Zm.828-3.348c-.72,0-1.584-.018-2.466-.072-.108,0-.666-.054-.792-.054-.036,0-.054.018-.054.036,0,.036,0,.054.072.126l.342.414c.072.072.108.108.162.108s.324-.036.378-.036c.666-.054,1.188-.054,2.286-.054h4.14c.864,0,.954,0,.954-.2a4.881,4.881,0,0,0-1.368-1.35c-.09,0-.306.27-.594.612-.36.432-.4.468-1.278.468Zm18.4,8.64c.072.09.108.126.162.126s.324-.054.378-.054c.63-.054,1.836-.036,2.268-.036h6.39c.594,0,.972,0,.972-.252,0-.306-1.584-1.476-1.746-1.476-.216,0-.27.072-.756.7a1.118,1.118,0,0,1-1.062.54H239.8c-.468,0-.468-.324-.468-.99,0-1.206-.054-6.48-.054-7.56,0-.324.036-.594.522-.594h2.5c.576,0,.954,0,.954-.234,0-.342-1.26-1.512-1.512-1.512-.162,0-.216.072-.738.774-.378.5-.468.5-1.314.5-.432,0-.432-.342-.432-.558,0-.486.054-3.474.162-3.726.036-.09.4-.4.4-.486,0-.306-.378-.4-.54-.45-.126-.036-1.242-.378-1.3-.378-.108,0-.144.036-.144.126,0,.144.108.774.108.918.09,1.35.126,2.16.126,3.816,0,.5-.036.738-.468.738-.612,0-2.07-.072-2.25-.072-.09,0-.738-.054-.756-.054s-.054,0-.054.036,0,.036.072.126l.342.414c.072.072.108.108.162.108.072,0,.324-.036.378-.036.63-.054,1.674-.054,2.124-.054.432,0,.432.378.432.558,0,.936-.036,7.866-.072,8.19-.036.4-.36.4-.522.4h-.7c-1.008,0-1.944-.036-2.466-.054-.126,0-.684-.072-.792-.072a.057.057,0,0,0-.054.054c0,.018,0,.018.072.108ZM227.97-10.368c.054.072.09.108.162.108.054,0,.324-.036.378-.036.63-.036,1.386-.054,2.088-.054h1.26c.162,0,.288.018.288.18,0,.522-2.538,3.672-3.258,4.41a18.116,18.116,0,0,0-1.566,1.6c0,.054.054.054.09.054.468,0,2.808-2.034,2.988-2.034s.18.306.18.5c0,2.124-.072,4-.108,5.328,0,.2-.072,1.026-.072,1.206,0,.252.108.432.54.432A.859.859,0,0,0,231.894.5c0-.252-.09-1.368-.09-1.6,0-.738-.018-4.068-.018-4.752,0-.216,0-.468.162-.468.342,0,.936.918,1.044,1.116.468.954.666,1.314,1.1,1.314.324,0,.63-.27.63-.828,0-1.368-1.692-1.854-2.3-2-.432-.09-.594-.126-.594-.5,0-.324.054-.378.576-.918a20.717,20.717,0,0,1,1.674-1.8c.054-.018.306-.072.36-.09a.271.271,0,0,0,.2-.234c0-.108-.036-.144-.432-.522-.054-.036-.432-.486-.648-.7a.34.34,0,0,0-.252-.126c-.162,0-.684.54-.81.612a.641.641,0,0,1-.432.126c-.18,0-.288-.036-.288-.288v-1.512c0-.756,0-.846.09-1.008.036-.072.36-.342.36-.414,0-.126-.108-.2-.2-.252a13.838,13.838,0,0,0-1.62-.486c-.018,0-.072,0-.072.036,0,.108.09.522.09.612.054.684.072,1.746.072,2.016,0,1.206,0,1.332-.5,1.332-.378,0-2.034-.108-2.376-.108-.018,0-.072,0-.072.036,0,.018.018.036.09.126Z" transform="translate(-1.404 15.282)" fill="#4a4a4a"/>
</svg>
