<svg xmlns="http://www.w3.org/2000/svg" width="605.94" height="27.48" viewBox="0 0 605.94 27.48">
  <path id="パス_130451" data-name="パス 130451" d="M9.87-19.92c.69,0,.87.15.87.6,0,2.13-3.57,6.72-7.8,8.52-.09.06-.45.21-.45.27,0,.12.12.12.15.12a9.518,9.518,0,0,0,2.91-.9,13.257,13.257,0,0,0,5.46-4.02c.33-.39,1.71-2.37,1.95-2.49.66-.3.9-.42.9-.72,0-.15,0-.24-.66-.66-.27-.15-.75-.45-.75-.54,0-.18.21-.18.69-.18h2.82a.727.727,0,0,1,.78.72c.06.99.06,3.39.06,4.5,0,2.73.66,2.73,5.28,2.73a16.345,16.345,0,0,0,4.32-.3c.99-.27,1.8-1.08,1.8-1.71,0-.21-.03-.24-.45-.57-.51-.39-.51-.87-.51-1.47.03-.78.03-.9-.15-.9a9.457,9.457,0,0,0-1.05,1.71c-.81,1.26-1.11,1.26-4.02,1.26-2.61,0-3.06-.09-3.27-.87a31.3,31.3,0,0,1-.21-4.17c0-.3,0-.93.78-.93h3.87c.36,0,.57,0,.57.21a13.454,13.454,0,0,1-.96,1.77c0,.06.03.15.12.15a13.044,13.044,0,0,0,1.17-.69,3.657,3.657,0,0,1,1.77-.63c2.49-.06,2.73-.03,2.73-.63,0-.15,0-.39-.75-.9a22.558,22.558,0,0,0-2.67-1.65c-.18,0-.36.36-.54.72a1.165,1.165,0,0,1-1.23.87H16.89c-.75,0-.75-.6-.75-.87a5.211,5.211,0,0,1,.24-1.83c.06-.15.63-.75.63-.9,0-.48-2.4-.93-3-.93-.36,0-.39.18-.39.24a4.532,4.532,0,0,0,.27.54,8.917,8.917,0,0,1,.15,1.74c0,1.44,0,2.01-.81,2.01H6.24a1.027,1.027,0,0,1-1.08-.54c-.45-.66-.87-1.29-1.05-1.29-.15,0-.18.39-.18.51a7.546,7.546,0,0,1-.6,2.73,11.635,11.635,0,0,0-1.08,1.98c0,.39.39.78,1.08.78,1.14,0,1.98-1.14,2.22-2.37.21-.99.27-1.02.96-1.02ZM9.51-8.64c-1.59,0-2.82-.03-4.11-.09-.21,0-1.11-.12-1.32-.12-.09,0-.12.03-.12.09,0,.03,0,.06.12.18l.6.72c.03.03.18.18.24.18.09,0,.54-.09.66-.09,1.05-.06,3.03-.09,3.78-.09h4.08c.78,0,.78.6.78,1.47,0,.75-.06,4.41-.09,5.25,0,.3,0,.96-.78.96H6.63C5.52-.18,3.18-.24,2.28-.3c-.15,0-.93-.09-1.08-.09-.09,0-.12.03-.12.09,0,.03.03.06.12.18l.6.69c.09.12.15.18.27.18.09,0,.51-.06.63-.06C3.75.6,5.76.6,6.69.6H27.96c.45,0,.75-.03.75-.36,0-.45-2.37-2.64-2.73-2.64-.27,0-.36.12-1.14,1.32-.36.6-.57.9-1.23.9H17.13c-.03,0-.69,0-.75-.6-.03-.3-.03-4.71-.03-5.22,0-1.23,0-1.86.78-1.86h8.34c.51,0,.78-.12.78-.42,0-.45-2.34-2.13-2.79-2.13-.24,0-.45.06-1.23,1.02-.63.75-.99.75-1.29.75ZM37.47-23.13c-.42,0-.51-.03-1.29-.45a4.465,4.465,0,0,0-1.41-.54c-.12,0-.12.18-.12.3,0,.03.15,2.52.18,2.76.03.39.03,4.89.03,6.72,0,3.3,0,5.28-.3,14.19,0,.39-.03,1.11-.03,1.2,0,.21,0,1.05.78,1.05,1.56,0,1.56-1.62,1.56-2.16,0-.72-.09-3.9-.12-4.56-.03-1.14-.03-6.21-.03-7.59a14.416,14.416,0,0,1,.09-2.13c.15-.39.63-.39,1.11-.39h3.72c.57,0,.9,0,.99.63.06.48.15,1.05.87,1.05.42,0,1.26-.3,1.26-1.95,0-.87-.15-4.68-.15-5.46,0-.81,0-1.05.21-1.32.09-.12.57-.57.57-.72,0-.42-1.5-1.53-1.83-1.53-.27,0-.51.24-.81.57a.934.934,0,0,1-.84.33Zm4.44.81c.6,0,.87,0,.87.6v1.62c0,.78-.18.78-.87.78H37.62c-.6,0-.87,0-.87-.63v-1.62c0-.75.18-.75.87-.75Zm-.06,3.78c.66,0,.9.03.9.69v1.71c0,.6-.3.6-.9.6H37.62c-.66,0-.9,0-.9-.66v-1.74c0-.6.3-.6.9-.6Zm8.79-4.65a1.293,1.293,0,0,1-.78-.18,4.138,4.138,0,0,0-1.41-.48c-.27,0-.33.36-.33.51,0,.51.15,2.73.15,3.18s0,6.36.03,6.54a.659.659,0,0,0,.72.57c.54,0,1.29-.3,1.38-.96.09-.48.18-.63.87-.63h3.9c.75,0,1.17,0,1.17.93,0,4.29-.06,11.82-.09,12.12-.09.84-.39.99-2.34,1.08-.3,0-1.41.06-1.41.21,0,.27,1.26.6,1.47.72a2.078,2.078,0,0,1,.84.87c.3.51.51.81.84.81a4.982,4.982,0,0,0,1.41-.48c1.05-.54,1.2-1.26,1.2-2.46,0-3.09-.06-16.71-.06-19.47,0-1.08,0-1.17.48-1.59.18-.15.33-.3.33-.48,0-.57-1.71-1.53-1.95-1.53-.18,0-.3.09-.66.48a.662.662,0,0,1-.63.24Zm.45,3.72c-.42,0-.75,0-.81-.45-.03-.12-.03-1.35-.03-1.8,0-.69.33-.69.84-.69H55.5c.48,0,.75,0,.84.45v1.83c0,.66-.3.66-.84.66Zm.06,4.05c-.63,0-.87,0-.87-.66v-1.98c0-.6.27-.6.87-.6H55.5c.6,0,.84,0,.84.63v1.98c0,.63-.27.63-.84.63Zm-7.29,4.38c-.36,0-1.89-.72-2.22-.72-.15,0-.27.03-.27.27,0,.15.09.81.09.93.09,1.08.09,3.96.09,4.11,0,1.26-.03,2.16-.12,3.72-.03.27-.06,1.08-.06,1.29,0,.93.3,1.08.69,1.08.75,0,1.26-.51,1.38-1.41.06-.57.21-.69.9-.69h3.72c.6,0,.99,0,.99.72,0,.45,0,1.08.66,1.08a1.916,1.916,0,0,0,1.26-.66c.27-.33.27-.72.27-1.53,0-.72-.09-5.46,0-6.24a1.321,1.321,0,0,1,.42-.9.678.678,0,0,0,.18-.39c0-.54-1.47-1.53-1.77-1.53-.27,0-.6.33-.84.6a.715.715,0,0,1-.69.27Zm4.56.81c.57,0,.78,0,.78.75v1.71c-.09.42-.33.42-.78.42H44.19c-.45,0-.69,0-.78-.42v-1.5c0-.9.06-.96.78-.96Zm-.06,3.69c.6,0,.72,0,.81.42.03.15.03,1.8.03,2.07,0,.78-.18.78-.84.78H44.25c-.54,0-.84,0-.84-.57V-5.91c0-.63.27-.63.84-.63ZM78.66-20.4c8.19,0,8.31,7.14,8.31,8.31,0,7.47-6.51,10.05-9.63,11.28-.75.3-.81.33-.81.42,0,.18.18.21.3.21a18.439,18.439,0,0,0,4.98-1.11,11.188,11.188,0,0,0,7.56-10.56,9.4,9.4,0,0,0-5.22-8.73,9.773,9.773,0,0,0-4.83-.96,12.412,12.412,0,0,0-9.57,3.9,10.568,10.568,0,0,0-3.33,7.65c0,3.66,1.77,6.75,3.75,6.75,1.2,0,2.73-.72,5.13-4.38,2.64-3.99,3.09-6.78,3.09-8.79a23,23,0,0,0-.3-3.24c0-.12-.06-.24-.06-.33C78.03-20.16,78.06-20.4,78.66-20.4Zm-1.68.09c.39,0,.51.15.51,1.95a17.16,17.16,0,0,1-2.94,8.73c-2.07,3.12-2.79,3.48-3.66,3.48-1.83,0-2.61-2.67-2.61-4.62C68.28-16.44,74.13-20.31,76.98-20.31Zm38.7,3.45a29.27,29.27,0,0,1-1.5,5.43,27.849,27.849,0,0,1-6.48,9.87,5.463,5.463,0,0,0-.9,1.02.173.173,0,0,0,.18.18,6.332,6.332,0,0,0,1.35-.69c4.53-2.88,6.87-7.68,7.89-9.96.3-.69,1.65-4.05,1.98-4.77.12-.24.9-1.17.9-1.44,0-.63-2.55-2.61-2.94-2.61-.15,0-.78.54-.96.6-.78.33-9.54,1.44-10.44,1.44-1.14,0-1.38-.15-1.59-.3-.9-.54-1.11-.66-1.56-.66-.48,0-1.08.24-1.08.45a5.245,5.245,0,0,0,.54.87,10.662,10.662,0,0,1,.96,4.77,7.947,7.947,0,0,1-.09,1.35,6.19,6.19,0,0,0-.21,1.35c0,1.08,1.02,2.73,1.71,2.73.78,0,.78-1.83.78-2.22,0-.66-.33-3.9-.33-4.62,0-1.83,0-1.98,1.26-2.16,1.95-.3,9.57-1.23,9.99-1.23C115.68-17.46,115.68-17.19,115.68-16.86Zm23.97.06c0-1.77-2.52-3.48-5.73-3.48-.42,0-.66.15-.66.27s.15.21.27.27a6.757,6.757,0,0,1,2.73,2.46c.99,1.5,1.29,1.98,2.1,1.98A1.325,1.325,0,0,0,139.65-16.8Zm12.48-.27a.193.193,0,0,0-.15-.15c-.06,0-.9.84-1.38,1.32-4.98,4.92-12.93,10.23-14.4,10.23a4.966,4.966,0,0,1-2.04-.69,7.469,7.469,0,0,0-.9-.57c-.27,0-.3,1.38-.3,1.59,0,1.2,2.22,3.12,3.84,3.12.45,0,.51-.06,1.08-.75a20.948,20.948,0,0,1,2.94-2.46C148.62-11.19,152.13-16.8,152.13-17.07Zm22.92-.03c.09.48-3.48,8.25-11.31,13.92a9.256,9.256,0,0,0-1.38,1.11c0,.18.15.18.21.18a7.37,7.37,0,0,0,1.86-.69A30.14,30.14,0,0,0,172.44-9c.66-.75.75-.84,1.05-.84.66,0,3.3,2.28,5.37,5.91,1.05,1.86,1.17,2.07,1.86,2.07a1.3,1.3,0,0,0,1.23-1.32c0-2.73-5.37-5.76-6.72-6.54-1.26-.69-1.32-.75-1.32-1.02a.986.986,0,0,1,.24-.6c.48-.69,2.85-4.2,3.45-4.92.18-.21,1.29-1.02,1.29-1.29,0-.75-1.83-2.28-2.55-2.28a11.453,11.453,0,0,0-1.65.93c-1.56.63-7.2,1.11-8.22,1.11a5.345,5.345,0,0,1-1.59-.3c-.09-.03-.75-.21-.78-.21-.15,0-.18.09-.18.24a6.121,6.121,0,0,0,.72,1.74,6.261,6.261,0,0,0,2.04,1.08,12.957,12.957,0,0,0,1.35-.57c.15-.06,6.45-1.53,6.66-1.53A.337.337,0,0,1,175.05-17.1Zm24.96-5.28.06.12a3.328,3.328,0,0,1,1.02,1.38c.36.96.36,1.92.36,10.5a62.092,62.092,0,0,1-.27,6.96c0,.12-.12.75-.12.87,0,.78.78,2.82,1.68,2.82.87,0,.87-1.98.87-2.73,0-.45-.03-1.2-.06-1.53-.12-2.7-.15-4.29-.15-7.47,0-2.22.12-2.22.42-2.22.93,0,2.34,1.41,3.18,2.52,2.01,2.61,2.1,2.73,2.85,2.73a1.027,1.027,0,0,0,1.08-1.05c0-2.25-4.65-4.44-6.48-4.86-.87-.21-.99-.3-.99-.96a38.915,38.915,0,0,1,.27-4.17,8.694,8.694,0,0,0,.36-1.26c0-.96-2.16-1.92-3.24-1.92C200.82-22.65,200.04-22.65,200.01-22.38Zm40.98,8.73c0,2.58-3.51,8.22-9.9,13.11A12.813,12.813,0,0,0,229.41.72a.194.194,0,0,0,.18.18A26.269,26.269,0,0,0,241.8-9.69a24.454,24.454,0,0,1,1.53-2.58c.51-.3.63-.33.63-.57,0-.87-1.2-1.59-1.68-1.83a6.675,6.675,0,0,0-1.35-.75.2.2,0,0,0-.21.21,1.912,1.912,0,0,0,.06.27A3.042,3.042,0,0,1,240.99-13.65Zm-13.14.99c-.21,0-.39.09-.39.27,0,.09.06.18.21.39a10.731,10.731,0,0,1,1.74,3.03c.21.66.42,1.35,1.08,1.35a1.091,1.091,0,0,0,1.02-1.14C231.51-11.16,228.57-12.66,227.85-12.66Zm5.19-2.76c-.15-.03-.3.06-.3.15a3.389,3.389,0,0,0,.33.66,9.416,9.416,0,0,1,1.11,2.85c.09.51.24,1.26.9,1.26.54,0,1.02-.66,1.02-1.53A3.8,3.8,0,0,0,233.04-15.42Zm45.18-7.98a2.85,2.85,0,0,0-2.94,2.85,2.948,2.948,0,0,0,2.91,2.91,2.926,2.926,0,0,0,2.88-2.91A2.792,2.792,0,0,0,278.22-23.4Zm-.06,1.02a2.006,2.006,0,0,1,1.92,1.89,1.85,1.85,0,0,1-1.86,1.83,1.862,1.862,0,0,1-1.95-1.8A1.93,1.93,0,0,1,278.16-22.38Zm-21.63,3.66c-.18,0-.27.09-.27.66,0,1.65,2.4,3.15,3.09,3.15a10.881,10.881,0,0,0,1.5-.66c1.83-.72,10.5-2.16,10.8-2.16.15,0,.66.03.66.54a16.95,16.95,0,0,1-2.04,5.07c-2.4,4.26-6.63,8.22-11.85,11.88-.3.21-.39.27-.39.39a.2.2,0,0,0,.21.18c.3,0,10.77-4.2,15.48-13.98a4.965,4.965,0,0,1,1.17-1.89c.54-.54.69-.69.69-1.08,0-.42-.18-.75-1.53-1.95-.93-.81-1.41-1.23-2.07-1.23-.21,0-.33.06-1.26.48-1.29.57-10.08,1.41-11.31,1.41a7.067,7.067,0,0,1-2.49-.63C256.86-18.54,256.59-18.72,256.53-18.72Zm51.18,1.41c0-.66-.96-1.5-1.26-1.77a2.707,2.707,0,0,0-2.19-.84c-.12,0-.78,0-.78.27,0,.09.12.21.15.24a2.267,2.267,0,0,1,.84,1.53c0,.42-1.77,7.89-9.03,14.52-.48.45-3.18,2.7-3.18,2.82a.161.161,0,0,0,.15.15,16.378,16.378,0,0,0,3.33-1.65A26.729,26.729,0,0,0,304.68-12c.3-.54,1.62-3.33,1.98-3.9C306.81-16.11,307.71-17.04,307.71-17.31Zm-17.94-.9c-.06,0-.24-.03-.24.09,0,.09.12.21.18.27a13.534,13.534,0,0,1,2.4,2.91c1.32,2.28,1.44,2.46,2.1,2.46.18,0,1.23-.18,1.23-1.62C295.44-17.1,291.03-17.94,289.77-18.21Zm33.24-2.64c0,.24.15.42.39.69.93,1.08,1.08,1.77,1.08,5.13,0,.54,0,1.71-.06,3.06,0,.24-.15,1.26-.15,1.5,0,.78.69,2.37,1.35,2.37.45,0,1.14-.75,1.14-1.53,0-.3-.15-1.8-.18-2.16-.03-.72-.09-3.42-.09-6.9,0-.15.06-.84.06-.99,0-.51-1.65-1.56-2.37-1.56C323.49-21.24,323.01-21.06,323.01-20.85Zm10.59,2.79c0,6-.21,11.22-6,17.4-.36.39-2.31,2.31-2.31,2.43,0,.09.06.15.18.15a11.962,11.962,0,0,0,2.7-1.77,18.979,18.979,0,0,0,7.5-13.92c.09-1.05.12-5.55.24-6.36a11.668,11.668,0,0,0,.3-1.2c0-.78-1.5-1.53-3.3-1.53-.87,0-.87.09-.87.18,0,.06.03.12.39.6A5.736,5.736,0,0,1,333.6-18.06Zm21.9,6.3c-.18,0-.27.03-.27.21,0,.57,1.08,1.98,1.77,1.98a7.661,7.661,0,0,0,1.05-.42A48.148,48.148,0,0,1,363-11.25c.15,0,.39,0,.39.45,0,.06-.66,4.8-.72,5.37-.09.66-.15.99-.48,1.14-.36.15-7.2.66-7.95.66a8.488,8.488,0,0,1-2.16-.36,7,7,0,0,0-.75-.21c-.15,0-.21.06-.21.21,0,1.62,2.22,2.67,2.49,2.67a10.983,10.983,0,0,0,1.32-.39,60.008,60.008,0,0,1,11.31-1.26,12.577,12.577,0,0,1,3.06.33,14.731,14.731,0,0,0,1.65.36c.57,0,.66-.45.66-.75,0-1.11-1.89-2.04-3.12-2.04-.48,0-2.85.57-3.39.57-.42,0-.48-.18-.48-.42a22.808,22.808,0,0,1,1.05-5.76c.09-.15.75-.84.75-1.05a3.35,3.35,0,0,0-2.34-1.65,6.9,6.9,0,0,0-.96.45,37.831,37.831,0,0,1-6.15,1.23C356.73-11.7,355.59-11.76,355.5-11.76Zm30.69-.33a16.337,16.337,0,0,1-3.66-.27c-.15-.03-.87-.36-1.02-.36s-.24.18-.24.36c0,1.02,1.38,2.88,2.67,2.88.36,0,1.98-.48,2.34-.54.72-.15,7.59-.54,11.73-.54.6,0,3.6.06,4.29.06,1.26,0,2.49-.09,2.49-.93,0-.21-.27-1.32-2.1-1.32-.15,0-.48.03-.66.03C397.65-12.48,387.18-12.09,386.19-12.09ZM418.62-.96c.39,0,1.83-1.35,2.19-1.59,12.42-8.7,15.06-15.12,15.06-15.45a.11.11,0,0,0-.12-.12,14.3,14.3,0,0,0-1.29,1.35c-7.17,8.13-15.24,12.63-16.53,12.63-.24,0-1.38-.39-1.65-.39-.18,0-.27.09-.27.21a1.273,1.273,0,0,0,.18.57c.09.15.63.78.72.93C417.66-1.44,417.96-.96,418.62-.96Zm-1.14-13.83c-.39,0-2.1.03-2.1.45,0,.12.18.24.27.3a7.278,7.278,0,0,1,2.73,2.49c.45.75.6.93,1.05.93.72,0,1.17-.9,1.17-1.5C420.6-13.59,418.77-14.79,417.48-14.79Zm3.48-5.73a3.572,3.572,0,0,0-2.31.57c0,.09.33.18.45.21a5.222,5.222,0,0,1,2.58,1.59c1.08,1.29,1.23,1.41,1.56,1.41.48,0,.96-.66.96-1.35C424.2-18.18,424.2-20.52,420.96-20.52Zm28.2,6.87a.329.329,0,0,0-.27.33c0,.42,1.11,2.04,2.22,2.04.36,0,2.19-.3,2.61-.36,2.16-.27,5.58-.63,5.76-.63.45,0,.6.15.6.66a8.79,8.79,0,0,1-.24,2.43c-.27.3-5.25.81-7.92.81a4.086,4.086,0,0,1-1.5-.21,4.688,4.688,0,0,0-.72-.3c-.15,0-.21.09-.21.39a2.172,2.172,0,0,0,2.04,1.83c.51,0,3.72-.42,4.53-.51,1.11-.15,3.27-.45,3.39-.45.36,0,.48.18.48.57,0,.12-.06,1.38-.06,1.62-.03.84-.03,1.11-.36,1.29-.27.12-6.18.72-7.38.72a4.83,4.83,0,0,1-1.44-.24,4.984,4.984,0,0,0-.99-.3c-.24,0-.27.24-.27.36,0,.24.9,2.16,1.71,2.16.33,0,1.26-.27,1.5-.3.81-.15,5.61-.72,6.6-.72.42,0,.42.09.48.48.12.69.51,1.17.96,1.17s1.17-.54,1.17-1.92c0-.27-.06-1.59-.06-1.89,0-1.98.06-4.23.15-6.21a1.519,1.519,0,0,1,.3-.99c.42-.48.51-.57.51-.87,0-.6-1.77-1.95-2.01-1.95-.21,0-1.05.72-1.29.81-1.23.45-6.36.66-7.47.66a7.435,7.435,0,0,1-1.74-.15A9.239,9.239,0,0,0,449.16-13.65Zm36.99-3.15c0-1.77-2.52-3.48-5.73-3.48-.42,0-.66.15-.66.27s.15.21.27.27a6.757,6.757,0,0,1,2.73,2.46c.99,1.5,1.29,1.98,2.1,1.98A1.325,1.325,0,0,0,486.15-16.8Zm12.48-.27a.193.193,0,0,0-.15-.15c-.06,0-.9.84-1.38,1.32-4.98,4.92-12.93,10.23-14.4,10.23a4.966,4.966,0,0,1-2.04-.69,7.469,7.469,0,0,0-.9-.57c-.27,0-.3,1.38-.3,1.59,0,1.2,2.22,3.12,3.84,3.12.45,0,.51-.06,1.08-.75a20.95,20.95,0,0,1,2.94-2.46C495.12-11.19,498.63-16.8,498.63-17.07Zm12.3,8.94c.96,0,1.29-.72,1.62-1.47.78-1.8,2.55-3.18,3.69-3.18,1.2,0,1.44,1.68,1.44,3.03a1.278,1.278,0,0,1-.45,1.05c-2.82,2.28-3.96,3.24-3.96,5.16,0,2.37,2.01,3.93,5.82,3.93.72,0,5.37-.12,5.37-1.98,0-.72-.84-1.02-1.47-1.02-.39,0-2.31.48-2.73.54a9.285,9.285,0,0,1-1.92.18c-.87,0-3.87,0-3.87-2.07,0-1.71,2.67-3.57,2.91-3.57.21,0,.21.24.21.36,0,.03-.09,1.47-.09,1.77,0,.54.12,1.53.93,1.53,1.11,0,1.11-1.71,1.11-2.19,0-.27-.06-1.53-.06-1.8,0-.63.03-.96.51-1.26.54-.33,3.93-1.68,4.68-2.01,1.86-.81,4.23-1.8,4.23-3.21a2.83,2.83,0,0,0-2.82-2.67c-2.61,0-4.56,2.73-5.55,4.11a14.086,14.086,0,0,1-1.23,1.62c-.06,0-.09-.06-.3-.57a2.705,2.705,0,0,0-2.55-1.83,2.8,2.8,0,0,0-1.17.24,5.991,5.991,0,0,1-.93.33.11.11,0,0,1-.12-.12c0-.12.06-.21.21-.48a23.264,23.264,0,0,0,1.62-3.24c.66-1.53.69-1.59,1.14-1.77,1.38-.54,3.57-1.38,3.57-2.37,0-.63-1.14-.78-1.35-.78-1.2-.09-1.32-.15-1.35-.54-.06-.66-.81-.93-1.53-.93-.54,0-1.32.24-1.32.48,0,.18.63.72.72.87a2.4,2.4,0,0,1,.24,1.05c0,.6,0,1.41-2.46,1.41a4.768,4.768,0,0,1-1.98-.54,6.738,6.738,0,0,0-1.14-.57c-.18,0-.18.12-.18.21a3.183,3.183,0,0,0,2.67,2.64c.27,0,1.5-.24,1.8-.24.12,0,.33.03.33.21a13.8,13.8,0,0,1-2.55,4.47c-2.04,2.37-2.88,3.33-2.88,4.23C509.79-8.31,510.36-8.13,510.93-8.13Zm6.45-12.54c0-.12.12-.96.54-.96.27,0,1.02.06,1.02.45,0,.33-1.44.72-1.5.72S517.38-20.55,517.38-20.67Zm7.86,4.8a.923.923,0,0,1,1.05.9c0,1.98-5.91,4.38-6,4.38s-.12-.09-.12-.15C520.17-11.22,522.75-15.87,525.24-15.87Zm26.91-7.68a2.339,2.339,0,0,1-1.26-.27,4.645,4.645,0,0,0-1.47-.48c-.24,0-.3.09-.3.27,0,.03.21,1.68.24,2.01.06,1.14.09,2.67.09,5.49,0,.39-.09,2.19-.09,2.55,0,.66.18,1.02.72,1.02,1.08,0,1.23-.39,1.47-.93.12-.33.45-.33.99-.33h4.95c.48,0,.78,0,.99.48.12.33.21.57.63.57,1.47,0,1.47-1.2,1.47-1.68,0-.84-.18-4.65-.18-5.43,0-1.59,0-1.77.51-2.13.21-.12.3-.18.3-.39,0-.51-1.92-1.62-2.1-1.62a2.916,2.916,0,0,0-.75.57.99.99,0,0,1-.9.3Zm5.28.81c.78,0,1.05.03,1.05.93v1.65c0,.87-.36.87-1.05.87H552.3c-.69,0-.93,0-.99-.51-.03-.18-.09-2.13-.09-2.16,0-.78.36-.78,1.02-.78Zm.06,4.23c.99,0,.99.24.99,2.22,0,1.11,0,1.29-.99,1.29h-5.01c-.69,0-.96,0-1.02-.51-.06-.39-.09-1.86-.09-2.31,0-.69.39-.69,1.05-.69Zm-20.16.48c.09.12.15.18.24.18.06,0,.36-.03.45-.03.48-.03,2.04-.12,2.55-.12.93,0,.93.3.93,2.31a22.578,22.578,0,0,1-.18,3.63c-.3.51-3.45,1.56-4.35,1.65-.87.09-.96.09-.96.39,0,.6.78,2.76,1.35,2.76.18,0,.33-.18.39-.24a5.024,5.024,0,0,1,1.74-1.29c.3-.15,1.68-1.08,1.8-1.08.21,0,.21.06.21,1.38,0,1.05-.06,6.18-.06,7.32,0,.6-.18.84-.81.84h-2.64c-.06,0-.36,0-.36.12,0,.03,1.47.93,1.71,1.14.21.18,1.14,1.32,1.44,1.32a3.74,3.74,0,0,0,1.38-.45,2.535,2.535,0,0,0,1.32-2.61c0-.63-.15-3.75-.15-4.47v-5.04c0-.72.18-.87,1.98-2.07a8.131,8.131,0,0,0,2.16-1.92c0-.06-.09-.06-.09-.06a35.654,35.654,0,0,1-3.63,1.41c-.33,0-.33-.15-.33-.69,0-.57,0-3.66.09-3.9.15-.45.54-.45,1.11-.45h1.95c1.02,0,1.59,0,1.59-.42a3.346,3.346,0,0,0-1.77-1.74c-.21,0-.93.96-1.14,1.14-.09.09-.24.24-.96.24-.84,0-.84-.21-.84-2.13a8.441,8.441,0,0,1,.15-2.04c.12-.15.9-.81.9-1.05,0-.36-.54-.51-.87-.6-.81-.18-2.25-.42-2.31-.42-.15,0-.27.03-.27.21,0,.09.36,2.43.39,2.91.03,1.11.03,1.23.03,2.22,0,.51-.03.87-.84.87-.57,0-3.3-.18-3.93-.18-.06,0-.09.03-.09.06,0,.06,0,.06.12.21ZM561.09-5.82c1.05,0,1.62,0,1.62-.42,0-.48-1.35-1.74-1.74-1.74-.27,0-.99.99-1.17,1.14-.24.24-.39.24-1.65.24h-.87c-.75,0-1.17,0-1.17-.93,0-.45,0-2.94.03-3.09.15-.57.51-.57,1.05-.57h5.19a7.553,7.553,0,0,0,1.53-.09c.18-.06.39-.12.39-.33,0-.45-1.62-1.77-2.07-1.77-.24,0-.3.09-.9.87-.39.51-.54.51-1.92.51h-7.95c-1.71,0-3.24-.03-4.11-.09-.21,0-1.14-.12-1.32-.12-.06,0-.12,0-.12.09,0,.03.06.09.15.18l.57.69c.09.12.15.21.27.21.09,0,.54-.09.63-.09,1.05-.06,3.06-.06,3.78-.06h1.83c.75,0,1.11,0,1.11,1.02,0,1.32-.09,7.11-.03,8.31,0,.39.03.75-.48.75-1.26,0-4.17-1.83-4.17-2.61a6.678,6.678,0,0,1,.63-1.32c.75-1.71.84-1.92,1.14-2.07.66-.36.72-.39.72-.6,0-.45-2.4-1.53-2.49-1.53-.24,0-.24.12-.33,1.2a22.463,22.463,0,0,1-1.29,3.87A26.407,26.407,0,0,1,545.34.24a4.253,4.253,0,0,0-.45.66c0,.03.03.03.06.03.57,0,3.15-2.43,3.81-3.66.09-.15.21-.36.42-.36.15,0,.18.03.48.42,1.65,2.28,3.33,4.11,10.59,4.11a12.862,12.862,0,0,0,2.52-.12,8.432,8.432,0,0,0,.51-1.05c.21-.3,1.38-1.95,1.38-1.98,0-.06-.03-.09-.06-.09-.09,0-1.95.57-2.34.66a33.9,33.9,0,0,1-4.71.36c-1.29,0-1.41,0-1.41-.87,0-.48-.03-2.67-.03-3.12,0-1.05.33-1.05,1.26-1.05Zm28.32-10.89c1.38,0,1.53,0,1.53-.36a4.165,4.165,0,0,0-1.68-1.77c-.36,0-.87.66-1.11.96-.3.36-.81.39-1.89.39h-5.31c-.3,0-.39,0-.39-.18s.69-.72.69-.9c0-.45-2.04-1.11-2.22-1.11s-.18,0-.39.9c-.3,1.29-.84,1.29-1.26,1.29-1.08,0-3.57-.09-4.02-.12-.18-.03-.93-.09-1.08-.09-.06,0-.12,0-.12.06s0,.06.15.21l.57.69c.09.12.15.18.27.18s.72-.09.84-.09,1.29-.06,2.97-.06c.18,0,.39,0,.39.21,0,.51-2.73,2.97-2.73,3.69,0,.51.63.66,1.02.66.75,0,.9-.18,1.41-.78a.606.606,0,0,1,.54-.24c.51,0,3.45.36,3.45.75,0,.24-2.07,1.5-5.37,2.31-1.89.48-3.36.72-3.42.72-.12.03-.24.06-.24.15,0,.21.33.21.66.21a22.073,22.073,0,0,0,8.64-1.8,13.326,13.326,0,0,1,2.13-.96,15.65,15.65,0,0,1,2.97,1.08c.6.27,3.06,1.74,3.63,1.74a.9.9,0,0,0,.93-.93c0-.84-.45-1.5-4.23-2.73-.21-.06-1.2-.3-1.38-.36a.311.311,0,0,1-.18-.24,12.86,12.86,0,0,1,1.29-1.41c.3-.33.39-.42.75-.48.78-.09.81-.12.81-.3a11.662,11.662,0,0,0-.48-1.17c0-.12.09-.12.27-.12ZM578.43-5.67c.45,0,.63,0,.63.18A27.426,27.426,0,0,1,571.11.03c-1.05.51-1.17.57-1.17.75,0,.12.18.12.27.12.81,0,5.55-1.59,9.84-4.62a3.314,3.314,0,0,1,.75-.45c.18,0,.21.24.21.51,0,.66-.18,3.99-.18,4.77,0,.54.12.99.63.99A1.592,1.592,0,0,0,583.14.42c0-.09-.33-4.92-.33-5.22,0-.27.09-.36.18-.36.12,0,.24.12,1.2,1.05,3.87,3.81,7.5,5.19,8.01,5.19a.43.43,0,0,0,.33-.09c.12-.12.63-.66.75-.75.27-.24,1.92-.99,1.92-1.11,0-.09-.24-.09-.33-.09a19.819,19.819,0,0,1-6.36-1.65c-1.95-.84-4.65-2.55-4.65-2.88,0-.18.21-.18.39-.18h9.27c1.38,0,1.56,0,1.56-.39,0-.6-2.31-1.92-2.37-1.92-.3,0-.48.33-.72.75-.45.78-.69.78-2.16.78h-6.27c-.33,0-.75-.03-.75-.69a2.655,2.655,0,0,1,.15-.96c.06-.12.48-.54.48-.66,0-.57-2.07-.81-2.4-.81-.09,0-.27,0-.27.18a8.051,8.051,0,0,0,.21.81c.03.36.06.87.06,1.23,0,.39-.06.9-.87.9h-5.88c-1.41,0-2.64-.06-4.11-.12-.18,0-1.11-.09-1.32-.09-.06,0-.12,0-.12.06s.03.06.15.21l.57.69c.09.12.15.18.27.18.09,0,.51-.06.63-.06.3-.03,1.14-.09,3.78-.09Zm6.33-11.04c.24,0,.39,0,.39.21,0,.39-1.62,3-2.88,3-.48,0-2.61-.12-3.06-.12h-1.29c-.15,0-.3,0-.3-.12a14.6,14.6,0,0,1,1.44-2.22c.51-.66.69-.75,1.29-.75Zm-.81-4.47c-.42,0-.84,0-.84-.69,0-1.14.15-1.35.39-1.53.42-.3.48-.36.48-.54a.471.471,0,0,0-.39-.39c-.18-.03-2.64-.54-2.7-.54a.173.173,0,0,0-.18.18c0,.18.15.9.18,1.08a11.8,11.8,0,0,1,.06,1.47c0,.33,0,.96-.81.96h-7.38c-.66,0-.66-.06-.96-.75-.09-.24-.48-1.08-.66-1.08-.09,0-.09.12-.09.18a5.2,5.2,0,0,1-1.23,3.48c-.75.96-.9,1.17-.9,1.77a.925.925,0,0,0,.96,1.05c1.38,0,2.07-1.44,2.34-3.24.09-.57.48-.6.81-.6h17.88c.36,0,.69,0,.69.51,0,.27-.3,1.53-.3,1.77,0,.12,0,.27.18.27s.3-.15.72-.63a3.423,3.423,0,0,1,2.25-1.38c.36-.12,1.02-.3,1.02-.69,0-.45-2.34-1.8-2.79-1.8-.3,0-.42.12-.96.78-.3.36-.51.36-1.56.36ZM603.69-4.92a3.311,3.311,0,0,0-3.33,3.3,3.319,3.319,0,0,0,3.3,3.36,3.346,3.346,0,0,0,3.36-3.33A3.34,3.34,0,0,0,603.69-4.92Zm-.03.84a2.516,2.516,0,0,1,2.55,2.52A2.476,2.476,0,0,1,603.72.9a2.516,2.516,0,0,1-2.52-2.52A2.427,2.427,0,0,1,603.66-4.08Z" transform="translate(-1.08 25.23)" fill="#4a4a4a"/>
</svg>
