<svg xmlns="http://www.w3.org/2000/svg" width="156.978" height="15.827" viewBox="0 0 156.978 15.827">
  <path id="パス_130450" data-name="パス 130450" d="M15.215-6.494c.544,0,.9,0,.9-.238,0-.221-1.377-1.088-1.5-1.088-.153,0-.629.646-.765.765-.119.119-.2.119-.9.119h-.748c-.561,0-.561-.2-.561-.833A22.214,22.214,0,0,1,11.713-10c.1-.187.255-.221.493-.221h2.4c.561,0,.9,0,.9-.238a4.9,4.9,0,0,0-1.411-1.122c-.17,0-.7.68-.833.8-.119.1-.238.119-.629.119h-.408c-.391,0-.561-.085-.561-.527a18.388,18.388,0,0,1,.1-2.006c.017-.068.289-.34.289-.425,0-.187-1.53-.527-1.581-.527a.073.073,0,0,0-.068.068c0,.153.153,1.343.17,1.6.017.136.034,1.156.034,1.36,0,.459-.34.459-.493.459H8.806c-.085,0-.221-.017-.221-.153,0-.017.2-.493.306-.748.238-.544.255-.612.425-.663.306-.1.425-.136.425-.255,0-.238-1.581-.7-1.632-.7-.119,0-.136.034-.17.391A14.78,14.78,0,0,1,6.97-9.333c-.085.2-.561,1.275-.561,1.309,0,.051.034.051.051.051a6.213,6.213,0,0,0,1.5-1.819c.221-.391.255-.425.612-.425H10.1c.374,0,.459.119.493.357.051.272.051,1.955.051,2.363,0,.459-.119.561-.6.561H9.52C8.721-6.936,7.5-7,7.361-7c-.1,0-.629-.051-.748-.051-.034,0-.068,0-.068.034s.017.034.085.119l.323.391c.051.068.085.1.153.1.051,0,.306-.034.357-.034.391-.034,1.292-.051,1.7-.051.374,0,.646,0,.646.357A14.19,14.19,0,0,1,6.171-.867a3.661,3.661,0,0,0-.578.612c0,.051.068.068.1.068a2.819,2.819,0,0,0,.612-.289,12.321,12.321,0,0,0,4.029-4.437c.136-.221.17-.255.238-.255.085,0,.1.068.1.323,0,.034-.051,2.72-.068,3.553C10.591-.7,10.472.272,10.472.867c0,.238.1.357.357.357a1.269,1.269,0,0,0,.7-.221c.136-.1.17-.255.17-.527,0-.833-.034-4.9-.034-5.814,0-.085,0-.187.068-.187.034,0,.068.051.068.068.051.119.238.7.289.816a12.051,12.051,0,0,0,2.669,4.3A3.968,3.968,0,0,0,15.521-.8a2.209,2.209,0,0,1,.867-.187c.051,0,.17,0,.17-.085s-.391-.306-.646-.459A8.979,8.979,0,0,1,11.9-6.256c0-.238.238-.238.425-.238ZM5.95-9.18c.391,0,.748,0,.748-.2a4.162,4.162,0,0,0-1.275-.969c-.136,0-.187.1-.357.425a.5.5,0,0,1-.442.289c-.34,0-.357-.221-.357-.323,0-.2.119-2.346.119-2.635,0-.306.034-.391.2-.527s.221-.17.221-.289c0-.17-.119-.221-.459-.306a10.585,10.585,0,0,0-1.088-.323c-.034,0-.051.034-.051.068,0,.085.119,1.275.119,1.53,0,2.805,0,2.805-.459,2.805-.357,0-1.921-.119-2.193-.119a.045.045,0,0,0-.051.051c0,.017.017.034.068.1l.272.391c.034.068.068.119.119.119a1.916,1.916,0,0,0,.306-.051c.323-.017,1.02-.034,1.173-.034s.527,0,.527.408a25.776,25.776,0,0,1-1.6,5.1c-.1.221-.629,1.36-.629,1.394A.037.037,0,0,0,.9-2.244c.51,0,2.261-3.485,2.312-3.485s.051.187.051.221c0,.51-.051,4.386-.068,4.794C3.179-.527,3.145.68,3.145.833a.327.327,0,0,0,.374.357A.749.749,0,0,0,4.3.391c0-.527-.068-3.145-.051-3.74,0-.51-.017-2.992-.017-3.553,0-.323.1-.391.17-.391.238,0,.68.8.85,1.122.357.7.442.884.731.884.425,0,.442-.629.442-.7,0-.9-.952-1.258-1.377-1.428-.7-.255-.816-.34-.816-.68,0-.969,0-1.088.6-1.088Zm16.031-1.275c-.8,0-1.547-.017-2.329-.051-.1-.017-.629-.068-.748-.068-.051,0-.068.017-.068.051,0,.017,0,.034.068.1l.34.391c.051.068.085.119.136.119a2.822,2.822,0,0,0,.374-.051C20.349-10,21.505-10,21.9-10h4.59c.425,0,.459.1.561.731C28.135-2.754,31.688.867,33.184.867a.386.386,0,0,0,.442-.425.933.933,0,0,0-.17-.476,1.265,1.265,0,0,1-.187-.7c0-.357.221-2.193.221-2.244,0-.034,0-.119-.051-.119-.085,0-.408.748-.493.9-.221.408-.51.9-.748.9-.51,0-2.363-2.142-3.417-5.423a22.591,22.591,0,0,1-.68-3.009c0-.238.1-.272.391-.272H33c.595,0,.9,0,.9-.255,0-.289-1.377-1.275-1.632-1.275-.17,0-.221.068-.748.782-.221.289-.306.289-1.088.289H28.458c-.425,0-.561,0-.578-1.8,0-.782,0-.867.187-1.054.153-.17.17-.187.17-.289,0-.221-.221-.289-.663-.374a7.382,7.382,0,0,0-1.19-.187c-.051,0-.119,0-.119.051,0,.187.2,1.054.238,1.241.051.272.323,2.074.323,2.21,0,.153-.068.2-.357.2Zm3.978,4.471c.578,0,.918,0,.918-.221a2.957,2.957,0,0,0-1.241-1.173c-.17,0-.68.816-.867.9a2.743,2.743,0,0,1-.816.051H22.61c-.782,0-1.547-.017-2.329-.051-.1-.017-.629-.068-.748-.068-.034,0-.068.017-.068.034,0,.034.017.051.085.119L19.873-6c.051.068.085.119.153.119.034,0,.2-.034.238-.034a13.259,13.259,0,0,1,1.547-.051c.17,0,.476,0,.493.408,0,.068.017,1.513.017,1.649,0,.2-.017,2.3-.034,2.431a.344.344,0,0,1-.153.238,21.561,21.561,0,0,1-2.346.34c-.527.051-.578.068-.578.136,0,.051.476,1.836.663,1.836.1,0,.459-.425.561-.476A21.428,21.428,0,0,1,23.545-.459,21.981,21.981,0,0,0,28.1-2.312c0-.051-.068-.051-.085-.051-.034,0-3.876.867-4.131.867-.289,0-.289-.17-.289-1.207s.068-2.822.1-2.992c.068-.272.357-.289.476-.289Zm3.2-7.939c-.017.034.051.1.1.136a8.475,8.475,0,0,1,1.309,1.513c.357.51.391.561.578.561a.628.628,0,0,0,.7-.7c0-.986-2.346-1.564-2.584-1.564C29.223-13.974,29.155-13.957,29.155-13.923Zm7.31,7.259a16.858,16.858,0,0,0,7.446-5.457c.136-.17.408-.51.476-.51s.1.051.289.408c1.921,3.5,5.542,6,5.916,6,.1,0,.153-.051.221-.17a1.994,1.994,0,0,1,1.088-.7c.425-.136.476-.153.476-.255,0-.085,0-.085-.476-.221-4.029-1.139-7.038-4.913-7.038-5.44,0-.068.017-.119.119-.17.17-.119.2-.136.2-.221,0-.289-1.581-1.037-1.6-1.037-.2,0-.2.068-.34.595-.085.374-1.156,2.4-4.063,4.879-1.1.935-2.5,1.921-2.618,2.006-.2.136-.255.17-.255.238C36.312-6.63,36.414-6.647,36.465-6.664Zm5.593,2.278c.289,0,.51,0,.51.289a11.894,11.894,0,0,1-.884,2.244c-.7,1.394-.816,1.394-1.768,1.394a9.009,9.009,0,0,1-1-.068c-.1-.017-.629-.119-.748-.119-.051,0-.136,0-.136.119a13.431,13.431,0,0,0,.935,1.8.193.193,0,0,0,.17.119,3.554,3.554,0,0,0,.493-.272A74.419,74.419,0,0,1,47.515-.442c.238,0,.391.051.714.629.306.561.663,1.19,1.156,1.19.323,0,.663-.374.663-.918,0-1.071-1.054-1.683-1.513-1.955A15.812,15.812,0,0,0,46.376-2.55c-.051,0-.119.017-.119.1,0,.2,1,1.071,1,1.326,0,.17-.136.187-1.36.306-1.887.187-3.485.289-3.706.289-.068,0-.306-.017-.306-.17s.17-.323.238-.408c.1-.1.8-.935,1.156-1.411.425-.561.459-.612.595-.663.51-.136.51-.136.51-.289,0-.187-.8-.867-.8-.867,0-.051.068-.051.238-.051h5.2c.8,0,.884,0,.884-.221,0-.153,0-.17-.867-.884-.391-.323-.442-.357-.578-.357-.153,0-.221.1-.476.459-.408.561-.6.561-1.309.561h-5.61c-.6,0-1.5-.034-2.329-.068-.1,0-.629-.051-.748-.051-.034,0-.068,0-.068.034,0,.017.051.068.085.119l.323.391c.068.068.085.1.153.1.051,0,.306-.034.357-.034.459-.034.884-.051,2.142-.051Zm.782-3.162c-.68,0-1.5-.017-2.329-.068-.1,0-.629-.051-.748-.051-.034,0-.051.017-.051.034,0,.034,0,.051.068.119l.323.391c.068.068.1.1.153.1s.306-.034.357-.034c.629-.051,1.122-.051,2.159-.051h3.91c.816,0,.9,0,.9-.187a4.61,4.61,0,0,0-1.292-1.275c-.085,0-.289.255-.561.578-.34.408-.374.442-1.207.442ZM60.214.612c.068.085.1.119.153.119s.306-.051.357-.051c.6-.051,1.734-.034,2.142-.034H68.9c.561,0,.918,0,.918-.238,0-.289-1.5-1.394-1.649-1.394-.2,0-.255.068-.714.663a1.056,1.056,0,0,1-1,.51h-.629c-.442,0-.442-.306-.442-.935,0-1.139-.051-6.12-.051-7.14,0-.306.034-.561.493-.561h2.363c.544,0,.9,0,.9-.221,0-.323-1.19-1.428-1.428-1.428-.153,0-.2.068-.7.731-.357.476-.442.476-1.241.476-.408,0-.408-.323-.408-.527,0-.459.051-3.281.153-3.519.034-.085.374-.374.374-.459,0-.289-.357-.374-.51-.425-.119-.034-1.173-.357-1.224-.357-.1,0-.136.034-.136.119,0,.136.1.731.1.867.085,1.275.119,2.04.119,3.6,0,.476-.034.7-.442.7-.578,0-1.955-.068-2.125-.068-.085,0-.7-.051-.714-.051s-.051,0-.051.034,0,.034.068.119l.323.391c.068.068.1.1.153.1.068,0,.306-.034.357-.034.595-.051,1.581-.051,2.006-.051.408,0,.408.357.408.527,0,.884-.034,7.429-.068,7.735-.034.374-.34.374-.493.374h-.663C62,.187,61.115.153,60.622.136c-.119,0-.646-.068-.748-.068a.054.054,0,0,0-.051.051c0,.017,0,.017.068.1Zm-5.559-10.4c.051.068.085.1.153.1.051,0,.306-.034.357-.034.595-.034,1.309-.051,1.972-.051h1.19c.153,0,.272.017.272.17,0,.493-2.4,3.468-3.077,4.165a17.109,17.109,0,0,0-1.479,1.513c0,.051.051.051.085.051.442,0,2.652-1.921,2.822-1.921s.17.289.17.476c0,2.006-.068,3.774-.1,5.032,0,.187-.068.969-.068,1.139,0,.238.1.408.51.408a.811.811,0,0,0,.9-.782c0-.238-.085-1.292-.085-1.513,0-.7-.017-3.842-.017-4.488,0-.2,0-.442.153-.442.323,0,.884.867.986,1.054.442.9.629,1.241,1.037,1.241.306,0,.6-.255.6-.782,0-1.292-1.6-1.751-2.176-1.887-.408-.085-.561-.119-.561-.476,0-.306.051-.357.544-.867a19.568,19.568,0,0,1,1.581-1.7c.051-.017.289-.068.34-.085a.256.256,0,0,0,.187-.221c0-.1-.034-.136-.408-.493-.051-.034-.408-.459-.612-.663a.321.321,0,0,0-.238-.119c-.153,0-.646.51-.765.578a.605.605,0,0,1-.408.119c-.17,0-.272-.034-.272-.272v-1.428c0-.714,0-.8.085-.952.034-.068.34-.323.34-.391,0-.119-.1-.187-.187-.238a13.07,13.07,0,0,0-1.53-.459c-.017,0-.068,0-.068.034,0,.1.085.493.085.578.051.646.068,1.649.068,1.9,0,1.139,0,1.258-.476,1.258-.357,0-1.921-.1-2.244-.1-.017,0-.068,0-.068.034,0,.017.017.034.085.119ZM78-8.7c0-.867-1.8-1.445-1.921-1.445-.068,0-.085.034-.085.085a1.262,1.262,0,0,0,.068.306A3.728,3.728,0,0,1,76.347-8.3,9,9,0,0,1,74.29-3.315a4.814,4.814,0,0,0-.68.9.079.079,0,0,0,.085.085,5.92,5.92,0,0,0,3.145-3.23C77.129-6.2,78-8.653,78-8.7Zm2.992,6.12c.119-.017.272-.136.561-.459a9.446,9.446,0,0,1,1.173-1.088c2.975-2.618,3.961-4.726,3.961-4.862a.073.073,0,0,0-.068-.068c-.068,0-1.513,1.53-1.8,1.819-1.632,1.649-3.2,2.771-3.706,2.771-.306,0-.323-.34-.323-.561,0-.561.068-2.618.136-3.077.034-.187.272-1.071.272-1.275,0-.884-1.785-1.19-1.87-1.19-.034,0-.1.017-.1.085a4.418,4.418,0,0,0,.221.612,10.424,10.424,0,0,1,.323,3.2c0,.425-.017,1.768-.068,2.091-.017.085-.1.527-.1.612C79.594-3.5,80.5-2.5,80.988-2.584Zm12.9-4.267A9.258,9.258,0,0,1,91.817-7c-.085-.017-.493-.2-.578-.2s-.136.1-.136.2c0,.578.782,1.632,1.513,1.632.2,0,1.122-.272,1.326-.306.408-.085,4.3-.306,6.647-.306.34,0,2.04.034,2.431.034.714,0,1.411-.051,1.411-.527,0-.119-.153-.748-1.19-.748-.085,0-.272.017-.374.017C100.385-7.072,94.452-6.851,93.891-6.851ZM112.608-4.3c.017-.068.986-1.326,1.173-1.581.425-.612,2.38-3.672,2.652-3.927.34-.323.527-.493.527-.782,0-.595-1.564-1.734-1.683-1.734-.1,0-.119.1-.119.187,0,.068.034.476.034.561,0,1.292-1.53,4.386-2.278,5.763-.918,1.666-1.258,1.887-1.972,1.887a2.948,2.948,0,0,1-.612-.085,4.178,4.178,0,0,0-.493-.153c-.068,0-.068.068-.068.119a3.74,3.74,0,0,0,.442,1.36c.748.731.748.748.9.748.119,0,.527-.493.646-.544.153-.068,2.38-.578,2.839-.7.731-.2,4.573-1.377,4.658-1.377.255,0,.323.153.476.969.221,1.122.289,1.547.867,1.547.119,0,.935-.051.935-1.19,0-1.666-2.567-3.757-3.06-3.757a.114.114,0,0,0-.119.1,6.409,6.409,0,0,0,.391.646,2.131,2.131,0,0,1,.493,1c0,.2,0,.289-2.5.714a26.616,26.616,0,0,1-3.91.493C112.676-4.029,112.591-4.131,112.608-4.3Zm24.344-5.253a16.586,16.586,0,0,1-.85,3.077A15.781,15.781,0,0,1,132.43-.884a3.1,3.1,0,0,0-.51.578.1.1,0,0,0,.1.1,3.588,3.588,0,0,0,.765-.391,12.772,12.772,0,0,0,4.471-5.644c.17-.391.935-2.295,1.122-2.7.068-.136.51-.663.51-.816,0-.357-1.445-1.479-1.666-1.479-.085,0-.442.306-.544.34-.442.187-5.406.816-5.916.816-.646,0-.782-.085-.9-.17-.51-.306-.629-.374-.884-.374-.272,0-.612.136-.612.255a2.971,2.971,0,0,0,.306.493,6.042,6.042,0,0,1,.544,2.7,4.5,4.5,0,0,1-.051.765,3.507,3.507,0,0,0-.119.765c0,.612.578,1.547.969,1.547.442,0,.442-1.037.442-1.258,0-.374-.187-2.21-.187-2.618,0-1.037,0-1.122.714-1.224,1.1-.17,5.423-.7,5.661-.7C136.952-9.894,136.952-9.741,136.952-9.554Zm13.583.034c0-1-1.428-1.972-3.247-1.972-.238,0-.374.085-.374.153s.085.119.153.153a3.829,3.829,0,0,1,1.547,1.394c.561.85.731,1.122,1.19,1.122A.751.751,0,0,0,150.535-9.52Zm7.072-.153a.109.109,0,0,0-.085-.085c-.034,0-.51.476-.782.748-2.822,2.788-7.327,5.8-8.16,5.8a2.814,2.814,0,0,1-1.156-.391,4.231,4.231,0,0,0-.51-.323c-.153,0-.17.782-.17.9,0,.68,1.258,1.768,2.176,1.768.255,0,.289-.034.612-.425A11.872,11.872,0,0,1,151.2-3.077C155.618-6.341,157.607-9.52,157.607-9.673Z" transform="translate(-0.629 14.433)" fill="#4a4a4a"/>
</svg>
