<svg xmlns="http://www.w3.org/2000/svg" width="291.928" height="65.53" viewBox="0 0 291.928 65.53">
  <path id="パス_130452" data-name="パス 130452" d="M-135.356-20.1a3.85,3.85,0,0,1-1.586-.234c-.234-.078-1.352-.65-1.482-.65-.1,0-.1.078-.1.156,0,.13.1.806.13.962.052.52.182,1.95.182,4.082,0,.312-.1,5.044-.13,5.772,0,.234-.1,1.378-.1,1.638,0,.546.13.7.494.7,1.17,0,1.3-.728,1.43-1.586.1-.546.286-.546.884-.546h1.69c.234,0,.624,0,.78.286a7.347,7.347,0,0,1,.078,2.028c0,1.924,0,2.132-.806,2.132h-.494c-.832,0-1.664-.026-3.224-.1-.156,0-.884-.078-1.04-.078-.052,0-.1.026-.1.052,0,.052.026.052.1.182l.468.6c.078.1.13.156.208.156s.416-.052.494-.052c.624-.052,1.794-.078,2.964-.078h.624c.832,0,.832.156.832,2.47,0,1.456,0,1.846-.806,1.846h-3.744c-.676,0-1.482,0-3.224-.1-.13,0-.884-.078-1.04-.078-.052,0-.078.026-.078.052a.33.33,0,0,0,.1.182l.442.6c.078.1.13.156.208.156.052,0,.624-.052.7-.078.936-.052,2.132-.052,2.782-.052h12.246c1.066,0,1.2,0,1.2-.286,0-.312-1.638-2.054-2.054-2.054-.208,0-.286.1-.832.936-.494.728-.546.728-1.716.728h-1.742c-.312,0-.676-.078-.754-.468-.026-.156-.026-.364-.026-2.132,0-1.378,0-1.716.78-1.716h3.354c.806,0,1.274,0,1.274-.364,0-.312-2.054-1.716-2.21-1.716-.234,0-.988,1.04-1.17,1.222-.13.13-.286.182-1.04.182-.6,0-.806,0-.91-.234a19.971,19.971,0,0,1-.078-2.236c0-1.768,0-1.976.78-1.976h1.69c.312,0,.624,0,.78.364.338.754.364.832.806.832a1.106,1.106,0,0,0,1.222-1.248c0-.65-.078-3.874-.078-4.6,0-1.2.052-3.588.078-3.9a.875.875,0,0,1,.442-.806c.416-.26.546-.338.546-.546,0-.546-1.82-1.326-2-1.326a2.965,2.965,0,0,0-.754.572,1.489,1.489,0,0,1-1.144.364Zm-.39,4.628c-.78,0-.78-.1-.78-2.236,0-1.43,0-1.69.78-1.69h1.872c.78,0,.78.26.78,1.664,0,2.028,0,2.262-.78,2.262Zm6.916.676c.858,0,.858.312.858,1.664,0,2.522-.078,2.652-.91,2.652h-1.664c-.858,0-.858-.13-.858-2.47,0-1.56,0-1.846.858-1.846Zm-6.916,4.316c-.806,0-.806-.312-.806-1.742,0-2.47,0-2.574.806-2.574h1.872c.806,0,.806.312.806,1.69,0,2.366,0,2.626-.806,2.626Zm6.994-8.918c.858,0,.858.182.858,1.95s0,1.976-.858,1.976h-1.794c-.858,0-.858-.234-.858-1.69,0-2.184,0-2.236.858-2.236Zm-11.31,8.086c.728,0,1.17,0,1.17-.39,0-.312-1.9-1.716-2.054-1.716-.208,0-.858.962-1.014,1.118a.873.873,0,0,1-.6.286c-.364,0-.364-.338-.364-.468v-2.782c0-.494,0-2.912.078-3.146a.627.627,0,0,1,.676-.364h2.106c.78,0,1.248,0,1.248-.364,0-.312-2.028-1.716-2.184-1.716-.26,0-.988,1.014-1.17,1.222-.208.182-.312.182-1.3.182h-.494c-1.066,0-2.106-.052-3.2-.1-.156,0-.884-.078-1.066-.078-.052,0-.078,0-.078.052s.052.078.1.182l.442.6c.078.13.13.156.234.156,0,0,1.742-.13,2.054-.13.364,0,.7.052.78.442s.078,3.9.078,4.576c0,1.4,0,1.742-.832,1.742-.416,0-2.47-.182-2.6-.182-.052,0-.078.026-.078.052,0,.052,0,.078.078.182l.442.6c.078.13.1.182.208.182.078,0,.546-.078.65-.078a12.1,12.1,0,0,1,1.3-.052c.754,0,.806.312.806.91v4.94c0,.858,0,1.144-2.47,1.3-1.092.078-1.2.078-1.2.312,0,.338.728,2.34,1.04,2.34.1,0,.494-.494.6-.6.442-.338,7.7-3.51,7.7-4.186,0-.026-.026-.052-.078-.052-.312,0-3.172,1.222-3.64,1.222-.182,0-.208-.13-.234-.26,0-.416-.026-2.886-.026-3.042,0-2.86.026-2.886.806-2.886Zm37.882,1.872c.312,0,.728,0,.78.572.078.7.13,1.066.728,1.066.312,0,1.17-.286,1.17-1.664,0-.26-.052-1.352-.052-1.586-.026-1.43-.052-2.886-.052-4.316a17.221,17.221,0,0,1,.208-3.38c.078-.13.546-.572.546-.7,0-.39-1.872-1.716-2.028-1.716-.182,0-.6.754-.7.858a1.044,1.044,0,0,1-.754.26h-3.978a2.076,2.076,0,0,1-.988-.208,9.956,9.956,0,0,0-1.482-.754.229.229,0,0,0-.26.26c0,.156.13.832.156.962.1,1.118.156,3.458.156,4.6,0,.208,0,4.03-.078,5.252-.026.39-.052,1.144-.052,1.456,0,.52.156.78.65.78.988,0,1.2-.858,1.326-1.3.1-.442.546-.442.728-.442Zm.026-6.6c.806,0,.832.286.832,1.326s-.026,1.326-.832,1.326h-4.134c-.806,0-.806-.286-.806-1.326s0-1.326.806-1.326Zm-.052-3.328c.832,0,.832.364.832,1.326s0,1.326-.832,1.326h-4.056c-.858,0-.858-.364-.858-1.326s0-1.326.858-1.326Zm.078,6.656c.78,0,.78.208.78,1.924,0,.676-.468.676-.78.676h-4.16c-.78,0-.78-.208-.78-1.95,0-.65.468-.65.78-.65Zm-9-4.368c.884,0,1.4,0,1.4-.338s-1.768-1.43-1.9-1.43c-.182,0-.676.78-.806.884a1.358,1.358,0,0,1-.728.208.538.538,0,0,1-.52-.52,4.228,4.228,0,0,1,.13-1.352c.052-.208.832-.832.832-1.014,0-.442-2.314-1.092-2.392-1.092-.1,0-.312.026-.312.182s.182.832.208.988a15.971,15.971,0,0,1,.1,2.028c0,.78-.442.78-.78.78-.988,0-2.678-.052-3.666-.1-.156,0-.806-.078-.936-.078-.052,0-.1,0-.1.052s0,.052.1.182l.52.6c.078.1.13.156.208.156.1,0,.494-.052.572-.052.156,0,1.092-.078,2.912-.078a.4.4,0,0,1,.39.416,26.016,26.016,0,0,1-2.886,5.278c-.26.39-1.768,2.444-1.768,2.5,0,.026,0,.052.026.052.052,0,1.2-.078,4.472-4.472.442-.572.494-.65.624-.65a.257.257,0,0,1,.26.234c0,.286-.052,1.586-.052,1.846,0,.546-.156,2.912-.156,3.406,0,.208,0,.91.7.91,1.144,0,1.144-1.3,1.144-1.534,0-.26-.182-3.666-.182-4.368,0-.234-.026-1.326-.026-1.56,0-.286.182-.364.26-.364a6.387,6.387,0,0,1,1.4,2.756c.156.754.312,1.2.7,1.2a1.242,1.242,0,0,0,1.014-1.222c0-1.144-.832-1.768-3.016-3.38a.752.752,0,0,1-.338-.6c0-.1.052-.442.52-.442Zm-2.418,10.166a2.361,2.361,0,0,0-.728-.182c-.416,0-.416.286-.416.468,0,.13.078.7.078.832.026.52.052,1.04.052,1.534,0,.312-.052,1.846-.052,2.184,0,2.106,0,3.328,5.876,3.328,6.058,0,6.5-1.95,6.5-2.236,0-.234-.156-.364-.7-.728a2.577,2.577,0,0,1-.728-1.924c-.052-.832-.052-.936-.182-.936-.156,0-.208.234-.312.6a8.664,8.664,0,0,1-1.2,2.7c-.65.65-4.082.806-5.044.806-2.418,0-2.418-.728-2.418-2.548,0-.468,0-2.106.26-2.262.494-.312.728-.468.728-.65a.555.555,0,0,0-.39-.442C-112.242-6.4-113.412-6.864-113.542-6.916ZM-117.286-4.6c0-.338-.052-1.742-.364-1.742-.078,0-.156.312-.234.728a6.949,6.949,0,0,1-1.794,3.458c-1.066,1.066-1.17,1.2-1.17,1.664,0,.572.572.65.962.65C-117.39.156-117.286-3.952-117.286-4.6ZM-97.422-1.43a5.276,5.276,0,0,0-3.484-4.5,11.331,11.331,0,0,0-1.248-.39c-.026,0-.052,0-.052.078a3.654,3.654,0,0,0,.442.468A7.3,7.3,0,0,1-99.84-2.756c.52,1.924.728,2.574,1.612,2.574C-97.864-.182-97.422-.6-97.422-1.43Zm-9.542-3.224c0-1.742-3.042-3.042-3.068-3.042s-.052.052-.052.078c0,.13.026.182.156.39a8.191,8.191,0,0,1,.988,2.21c.364,1.3.442,1.612,1.014,1.612A1.15,1.15,0,0,0-106.964-4.654ZM-81.328-17.68c7.1,0,7.2,6.188,7.2,7.2,0,6.474-5.642,8.71-8.346,9.776-.65.26-.7.286-.7.364,0,.156.156.182.26.182A15.98,15.98,0,0,0-78.6-1.118a9.7,9.7,0,0,0,6.552-9.152,8.15,8.15,0,0,0-4.524-7.566,8.47,8.47,0,0,0-4.186-.832,10.757,10.757,0,0,0-8.294,3.38,9.159,9.159,0,0,0-2.886,6.63c0,3.172,1.534,5.85,3.25,5.85,1.04,0,2.366-.624,4.446-3.8,2.288-3.458,2.678-5.876,2.678-7.618a19.93,19.93,0,0,0-.26-2.808c0-.1-.052-.208-.052-.286C-81.874-17.472-81.848-17.68-81.328-17.68Zm-1.456.078c.338,0,.442.13.442,1.69A14.872,14.872,0,0,1-84.89-8.346c-1.794,2.7-2.418,3.016-3.172,3.016-1.586,0-2.262-2.314-2.262-4C-90.324-14.248-85.254-17.6-82.784-17.6Zm23.738.338c.6,0,.754.13.754.52,0,1.846-3.094,5.824-6.76,7.384-.078.052-.39.182-.39.234,0,.1.1.1.13.1A8.249,8.249,0,0,0-62.79-9.8a11.49,11.49,0,0,0,4.732-3.484c.286-.338,1.482-2.054,1.69-2.158.572-.26.78-.364.78-.624,0-.13,0-.208-.572-.572-.234-.13-.65-.39-.65-.468,0-.156.182-.156.6-.156h2.444a.63.63,0,0,1,.676.624c.052.858.052,2.938.052,3.9,0,2.366.572,2.366,4.576,2.366a14.166,14.166,0,0,0,3.744-.26c.858-.234,1.56-.936,1.56-1.482,0-.182-.026-.208-.39-.494-.442-.338-.442-.754-.442-1.274.026-.676.026-.78-.13-.78a8.2,8.2,0,0,0-.91,1.482c-.7,1.092-.962,1.092-3.484,1.092-2.262,0-2.652-.078-2.834-.754a27.124,27.124,0,0,1-.182-3.614c0-.26,0-.806.676-.806H-47.5c.312,0,.494,0,.494.182a11.66,11.66,0,0,1-.832,1.534c0,.052.026.13.1.13a11.3,11.3,0,0,0,1.014-.6,3.169,3.169,0,0,1,1.534-.546c2.158-.052,2.366-.026,2.366-.546,0-.13,0-.338-.65-.78a19.55,19.55,0,0,0-2.314-1.43c-.156,0-.312.312-.468.624a1.009,1.009,0,0,1-1.066.754h-5.642c-.65,0-.65-.52-.65-.754A4.517,4.517,0,0,1-53.4-20.28c.052-.13.546-.65.546-.78,0-.416-2.08-.806-2.6-.806-.312,0-.338.156-.338.208a3.927,3.927,0,0,0,.234.468,7.728,7.728,0,0,1,.13,1.508c0,1.248,0,1.742-.7,1.742h-6.058a.89.89,0,0,1-.936-.468c-.39-.572-.754-1.118-.91-1.118-.13,0-.156.338-.156.442a6.54,6.54,0,0,1-.52,2.366A10.083,10.083,0,0,0-65.65-15c0,.338.338.676.936.676.988,0,1.716-.988,1.924-2.054.182-.858.234-.884.832-.884Zm-.312,9.776c-1.378,0-2.444-.026-3.562-.078-.182,0-.962-.1-1.144-.1-.078,0-.1.026-.1.078,0,.026,0,.052.1.156l.52.624c.026.026.156.156.208.156.078,0,.468-.078.572-.078.91-.052,2.626-.078,3.276-.078h3.536c.676,0,.676.52.676,1.274,0,.65-.052,3.822-.078,4.55,0,.26,0,.832-.676.832h-5.824c-.962,0-2.99-.052-3.77-.1-.13,0-.806-.078-.936-.078-.078,0-.1.026-.1.078,0,.026.026.052.1.156l.52.6c.078.1.13.156.234.156.078,0,.442-.052.546-.052C-64.35.52-62.608.52-61.8.52h18.434c.39,0,.65-.026.65-.312A7.354,7.354,0,0,0-45.084-2.08c-.234,0-.312.1-.988,1.144-.312.52-.494.78-1.066.78h-5.616c-.026,0-.6,0-.65-.52-.026-.26-.026-4.082-.026-4.524,0-1.066,0-1.612.676-1.612h7.228c.442,0,.676-.1.676-.364,0-.39-2.028-1.846-2.418-1.846-.208,0-.39.052-1.066.884-.546.65-.858.65-1.118.65Zm24.232-12.558c-.364,0-.442-.026-1.118-.39a3.87,3.87,0,0,0-1.222-.468c-.1,0-.1.156-.1.26,0,.026.13,2.184.156,2.392.026.338.026,4.238.026,5.824,0,2.86,0,4.576-.26,12.3,0,.338-.026.962-.026,1.04,0,.182,0,.91.676.91,1.352,0,1.352-1.4,1.352-1.872,0-.624-.078-3.38-.1-3.952-.026-.988-.026-5.382-.026-6.578a12.494,12.494,0,0,1,.078-1.846c.13-.338.546-.338.962-.338h3.224c.494,0,.78,0,.858.546.052.416.13.91.754.91.364,0,1.092-.26,1.092-1.69,0-.754-.13-4.056-.13-4.732,0-.7,0-.91.182-1.144.078-.1.494-.494.494-.624,0-.364-1.3-1.326-1.586-1.326-.234,0-.442.208-.7.494a.809.809,0,0,1-.728.286Zm3.848.7c.52,0,.754,0,.754.52v1.4c0,.676-.156.676-.754.676H-35c-.52,0-.754,0-.754-.546v-1.4c0-.65.156-.65.754-.65Zm-.052,3.276c.572,0,.78.026.78.6v1.482c0,.52-.26.52-.78.52H-35c-.572,0-.78,0-.78-.572v-1.508c0-.52.26-.52.78-.52Zm7.618-4.03a1.121,1.121,0,0,1-.676-.156,3.587,3.587,0,0,0-1.222-.416c-.234,0-.286.312-.286.442,0,.442.13,2.366.13,2.756s0,5.512.026,5.668a.571.571,0,0,0,.624.494c.468,0,1.118-.26,1.2-.832.078-.416.156-.546.754-.546h3.38c.65,0,1.014,0,1.014.806,0,3.718-.052,10.244-.078,10.5-.078.728-.338.858-2.028.936-.26,0-1.222.052-1.222.182,0,.234,1.092.52,1.274.624a1.8,1.8,0,0,1,.728.754c.26.442.442.7.728.7A4.318,4.318,0,0,0-18.148,1.4c.91-.468,1.04-1.092,1.04-2.132,0-2.678-.052-14.482-.052-16.874,0-.936,0-1.014.416-1.378.156-.13.286-.26.286-.416,0-.494-1.482-1.326-1.69-1.326-.156,0-.26.078-.572.416a.574.574,0,0,1-.546.208Zm.39,3.224c-.364,0-.65,0-.7-.39-.026-.1-.026-1.17-.026-1.56,0-.6.286-.6.728-.6H-19.5c.416,0,.65,0,.728.39v1.586c0,.572-.26.572-.728.572Zm.052,3.51c-.546,0-.754,0-.754-.572v-1.716c0-.52.234-.52.754-.52h3.77c.52,0,.728,0,.728.546v1.716c0,.546-.234.546-.728.546Zm-6.318,3.8c-.312,0-1.638-.624-1.924-.624-.13,0-.234.026-.234.234,0,.13.078.7.078.806.078.936.078,3.432.078,3.562,0,1.092-.026,1.872-.1,3.224-.026.234-.052.936-.052,1.118,0,.806.26.936.6.936.65,0,1.092-.442,1.2-1.222.052-.494.182-.6.78-.6h3.224c.52,0,.858,0,.858.624,0,.39,0,.936.572.936a1.661,1.661,0,0,0,1.092-.572c.234-.286.234-.624.234-1.326,0-.624-.078-4.732,0-5.408a1.145,1.145,0,0,1,.364-.78A.588.588,0,0,0-22.672-9c0-.468-1.274-1.326-1.534-1.326-.234,0-.52.286-.728.52a.62.62,0,0,1-.6.234Zm3.952.7c.494,0,.676,0,.676.65v1.482c-.078.364-.286.364-.676.364H-29.3c-.39,0-.6,0-.676-.364v-1.3c0-.78.052-.832.676-.832Zm-.052,3.2c.52,0,.624,0,.7.364.026.13.026,1.56.026,1.794,0,.676-.156.676-.728.676H-29.25c-.468,0-.728,0-.728-.494V-5.122c0-.546.234-.546.728-.546ZM-6.994-7.046c.832,0,1.118-.624,1.4-1.274.676-1.56,2.21-2.756,3.2-2.756,1.04,0,1.248,1.456,1.248,2.626a1.108,1.108,0,0,1-.39.91C-3.978-5.564-4.966-4.732-4.966-3.068-4.966-1.014-3.224.338.078.338c.624,0,4.654-.1,4.654-1.716C4.732-2,4-2.262,3.458-2.262c-.338,0-2,.416-2.366.468a8.047,8.047,0,0,1-1.664.156c-.754,0-3.354,0-3.354-1.794,0-1.482,2.314-3.094,2.522-3.094.182,0,.182.208.182.312,0,.026-.078,1.274-.078,1.534,0,.468.1,1.326.806,1.326.962,0,.962-1.482.962-1.9,0-.234-.052-1.326-.052-1.56,0-.546.026-.832.442-1.092C1.326-8.19,4.264-9.36,4.914-9.646c1.612-.7,3.666-1.56,3.666-2.782a2.453,2.453,0,0,0-2.444-2.314c-2.262,0-3.952,2.366-4.81,3.562A12.208,12.208,0,0,1,.26-9.776c-.052,0-.078-.052-.26-.494a2.345,2.345,0,0,0-2.21-1.586,2.43,2.43,0,0,0-1.014.208,5.192,5.192,0,0,1-.806.286.1.1,0,0,1-.1-.1c0-.1.052-.182.182-.416a20.162,20.162,0,0,0,1.4-2.808c.572-1.326.6-1.378.988-1.534,1.2-.468,3.094-1.2,3.094-2.054,0-.546-.988-.676-1.17-.676-1.04-.078-1.144-.13-1.17-.468-.052-.572-.7-.806-1.326-.806-.468,0-1.144.208-1.144.416,0,.156.546.624.624.754a2.084,2.084,0,0,1,.208.91c0,.52,0,1.222-2.132,1.222a4.132,4.132,0,0,1-1.716-.468,5.84,5.84,0,0,0-.988-.494c-.156,0-.156.1-.156.182a2.759,2.759,0,0,0,2.314,2.288c.234,0,1.3-.208,1.56-.208.1,0,.286.026.286.182a11.964,11.964,0,0,1-2.21,3.874c-1.768,2.054-2.5,2.886-2.5,3.666C-7.982-7.2-7.488-7.046-6.994-7.046ZM-1.4-17.914c0-.1.1-.832.468-.832.234,0,.884.052.884.39,0,.286-1.248.624-1.3.624S-1.4-17.81-1.4-17.914Zm6.812,4.16a.8.8,0,0,1,.91.78c0,1.716-5.122,3.8-5.2,3.8s-.1-.078-.1-.13C1.014-9.724,3.25-13.754,5.408-13.754ZM25.064-12.74c1.092,0,1.092.312,1.092.832,0,1.768-.234,2.132-1.092,2.132H24c-1.3,0-2.86-.052-3.406-.078-.182-.026-1.092-.1-1.3-.1-.052,0-.1.026-.1.052s.1.13.13.156l.546.676c.078.078.078.1.208.1.156,0,.884-.078,1.066-.078C22.1-9.1,23.114-9.1,23.868-9.1H25.09c.624,0,.806.13.806.52,0,1.768-.416,2.47-1.2,2.47H20.9c-.7,0-2.21,0-3.042-.052-.26-.026-1.56-.13-1.664-.13-.052,0-.1.026-.1.078a.374.374,0,0,0,.052.078l.624.728c.052.052.1.13.208.13.156,0,.884-.1,1.066-.1.858-.026,2.132-.026,2.73-.026h3.8c.13,0,.416.026.416.312,0,.78-1.976,4.992-7.826,6.266-.676.156-.7.156-.7.286,0,.182.26.182.416.182A18.941,18.941,0,0,0,20.54.988,9.84,9.84,0,0,0,26.6-4.264c.442-.988.52-1.144.988-1.144a.977.977,0,0,1,.806.546,14.679,14.679,0,0,0,1.9,2.574,12.457,12.457,0,0,0,6.448,3.952c.1,0,.13-.078.208-.26a3.154,3.154,0,0,1,.7-.962C37.8.286,38.792-.52,38.792-.52c0-.1-.1-.1-.65-.1-5.2,0-8.866-3.848-8.866-4.55,0-.234.442-.234.468-.234h7.28c.858,0,1.378,0,1.378-.364a5.752,5.752,0,0,0-2-1.742c-.26,0-.338.1-1.066.962-.364.442-1.066.442-1.872.442H28.054c-.39,0-.624-.1-.624-.52,0-.052.312-1.9.312-1.924.156-.494,1.04-.546,1.586-.546h3.9c.936,0,1.4,0,1.4-.416,0-.442-1.586-1.56-1.924-1.56a.4.4,0,0,0-.208.052c-.078.078-.572.676-.676.806-.39.442-.52.442-1.768.442h-.988c-.442,0-1.222-.052-1.222-.884,0-2.054.182-2.08,1.378-2.08h5.382c.676,0,1.4,0,1.4-.416,0-.442-1.742-1.664-2.08-1.664-.234,0-1.066,1.04-1.274,1.222s-.338.182-1.4.182H28.73c-.676,0-.832-.234-.832-.936,0-.572.1-.832.39-1.014.286-.208.416-.286.416-.416,0-.286-.364-.364-.7-.442-.65-.13-1.768-.286-1.9-.286s-.182.078-.182.208a2.2,2.2,0,0,0,.1.442,9.183,9.183,0,0,1,.182,1.716c0,.416-.1.728-1.04.728H22.7c-.7,0-2.21,0-3.042-.052-.26-.026-1.56-.13-1.664-.13-.052,0-.1.026-.1.052a.2.2,0,0,0,.052.1l.624.7a.232.232,0,0,0,.208.13c.156,0,.884-.078,1.066-.078.858-.052,2.132-.052,2.73-.052Zm9.282-5.122c.52,0,.7,0,.7.338a2.283,2.283,0,0,1-.546,1.092,3.2,3.2,0,0,0-.468.728c0,.078.078.078.13.078.078,0,.91-.442,1.04-.494a3.641,3.641,0,0,1,2-.494c.156,0,.91.052,1.092.052.312,0,.6-.13.6-.494,0-.65-2.21-2.158-2.418-2.158-.156,0-.962.52-1.144.572a4.96,4.96,0,0,1-1.248.1H29.224c-1.092,0-1.248-.364-1.248-1.248a1.035,1.035,0,0,1,.156-.65c.052-.078.468-.494.468-.624,0-.208-.286-.286-.468-.312-.234-.052-2.028-.468-2.184-.468s-.182.1-.182.156c0,.1.234.6.26.7a8.945,8.945,0,0,1,.078,1.2c0,1.04-.312,1.248-1.482,1.248H19.63c-.754,0-.858-.13-1.092-.494-.572-.962-.65-1.066-.78-1.066-.078,0-.1.052-.1.494a4.534,4.534,0,0,1-1.118,3.094c-.806.884-.91.962-.91,1.3a1.051,1.051,0,0,0,1.066.962c.234,0,1.326,0,2.028-2.444.338-1.118.338-1.17,1.222-1.17Zm21.138-2.262a3.919,3.919,0,0,1-1.2-.13,12.231,12.231,0,0,0-1.482-.65c-.078,0-.078.1-.078.182,0,.286.1,1.43.1,1.664.1,1.742.1,3.77.1,6.968,0,2.366-.026,2.886-.078,3.718,0,.078-.078,1.092-.078,1.144,0,.676.312.806.65.806A1.1,1.1,0,0,0,54.5-7.15c.13-.416.156-.6.546-.6h3.2c.26,0,.624,0,.7.572.078.468.078,3.64.078,4.368,0,.416-.052,2.262,0,2.626.156,1.326,1.4,1.56,3.822,1.56,2.08,0,2.678-.286,3.094-.65a1.523,1.523,0,0,0,.6-.884c0-.234-.754-1.144-.832-1.378a8.146,8.146,0,0,1-.312-1.82c-.026-.312-.052-.416-.156-.416-.156,0-.182.13-.312.832-.416,2.366-.468,2.7-2.106,2.7-.6,0-1.69-.052-1.976-.546a12.542,12.542,0,0,1-.182-2.782c0-.624,0-3.432.078-3.77.078-.364.468-.416.728-.416.52,0,.91,0,1.014.442.078.338.13.624.624.624,1.222,0,1.222-1.04,1.222-1.43,0-1.378-.156-7.566-.156-8.814,0-.26.026-1.586.078-1.742.078-.182.78-.676.78-.832,0-.364-1.768-1.56-1.95-1.56s-.65.6-.78.676a1.53,1.53,0,0,1-.988.26Zm6.188,4.55c.832,0,.832.312.832,1.3,0,1.56,0,1.768-.832,1.768H55.38c-.806,0-.806-.286-.806-1.378,0-1.456,0-1.69.806-1.69Zm-6.292-.7c-.806,0-.806-.234-.806-1.456,0-1.508,0-1.69.806-1.69h6.292c.806,0,.806.234.806,1.43,0,1.534,0,1.716-.806,1.716Zm.052,7.852c-.832,0-.832-.052-.832-2.5,0-.494,0-.884.806-.884h6.266c.806,0,.806.364.806.988,0,2.288-.052,2.392-.858,2.392Zm-11.7-3.3c.1.1.13.156.208.156s.416-.052.52-.052c.546-.052,1.638-.052,1.742-.052.676,0,.676.546.676.858,0,.494,0,5.018-.078,5.2-.182.39-2.678.52-3.146.52-.1,0-.546-.052-.65-.052-.156,0-.208.1-.208.234,0,.286.988,2.366,1.326,2.366.182,0,.364-.156.572-.39.364-.468.52-.52,1.976-1.092,4.55-1.742,5.538-2.132,5.538-2.366,0-.1-.1-.1-.182-.1-.26,0-2.6.624-3.094.624a.254.254,0,0,1-.286-.208c-.052-.208-.052-4.056-.052-4.524,0-.7,0-1.092.832-1.092h1.326c.494,0,1.222,0,1.222-.234a4.457,4.457,0,0,0-1.612-1.716c-.182,0-.312.156-.806.832-.26.39-.442.39-.572.39-.39,0-.39-.13-.39-1.4,0-.884,0-3.822.078-4,.13-.338.52-.338.754-.338h1.69c.78,0,1.248,0,1.248-.364,0-.312-2.028-1.716-2.184-1.716-.234,0-.442.26-.65.546-.52.7-.6.78-.806.806a12.159,12.159,0,0,1-2.028.052c-.416,0-2.418-.078-2.756-.1-.13,0-.728-.078-.858-.078-.052,0-.078.026-.078.052,0,.052.026.1.1.182l.442.6c.078.1.13.156.208.156A1.522,1.522,0,0,0,44.1-18.1c.442-.026,1.534-.078,2-.078.364,0,.728.078.754.676.026.52.026,3.51.026,4.238,0,.39,0,.858-.78.858-.39,0-2.392-.156-2.834-.156-.052,0-.078.026-.078.052,0,.052,0,.052.1.182ZM55.614-7.514c-.13-.052-.39-.078-.39.156,0,.078.1.494.1.6A8.78,8.78,0,0,1,53.9-2.7,12.19,12.19,0,0,1,47.58,1.4c-.338.078-.572.1-.572.234,0,.1.13.208.338.208A13.758,13.758,0,0,0,52.078.468a8.382,8.382,0,0,0,4.6-5.07c.52-1.534.546-1.56.858-1.664.182-.052.338-.1.338-.286C57.876-6.864,55.952-7.436,55.614-7.514Zm24-5.33c.546-.13,3.146-1.092,3.3-1.092.754,0,4.212,3.874,4.212,5.564a.834.834,0,0,1-.91.832,8.078,8.078,0,0,1-2.132-.52,9.277,9.277,0,0,0-2.808-.468c-2.886,0-5.538,1.56-5.538,4.134A3.815,3.815,0,0,0,77.974-1.17a8.734,8.734,0,0,0,4.186.806c.468,0,2.964,0,2.964-1.378A1.1,1.1,0,0,0,83.85-2.756c-.052,0-2.262.234-2.7.234-2.21,0-3.848-.65-3.848-2.314a3.505,3.505,0,0,1,3.64-3.016A9.549,9.549,0,0,1,85.358-6.5c1.56.858,1.742.962,2.21.962A1.621,1.621,0,0,0,89.284-7.28c0-2.652-3.406-5.668-4.758-6.864a.741.741,0,0,1-.312-.494c0-.182.078-.234.78-.676.364-.208,1.586-1.144,1.586-1.82a.9.9,0,0,0-.884-.936c-.286-.026-1.612,0-1.924,0a4.335,4.335,0,0,1-2.444-.6c-1.2-.7-1.456-.858-2-.858a1.255,1.255,0,0,0-1.3,1.248c0,.754.962,1.638,1.664,2.132.338.234,1.2.832,1.2,1.066,0,.416-1.768.884-2.756.884a6.521,6.521,0,0,1-2.678-.7,6.83,6.83,0,0,0-1.066-.494c-.182,0-.208.1-.208.234A3.736,3.736,0,0,0,78-12.662,7.522,7.522,0,0,0,79.612-12.844Zm1.456-3.77c-.208-.156-1.144-.91-1.144-1.534a.482.482,0,0,1,.494-.468c.286,0,.494.1,2.21,1.144.832.494.91.572.91.91,0,.572-.806.832-.962.832A4.382,4.382,0,0,1,81.068-16.614Zm33.436-.832a2.1,2.1,0,0,0-2.21-1.82c-.13,0-.572.026-.572.286,0,.052.468.936.494.962a3.832,3.832,0,0,1,.312,1.794c0,.338-.052,1.586-.13,2.106-.1.546-.286.572-1.9.832-.676.1-3.952.832-4.134.832-.338,0-.338-.208-.338-.754a14.346,14.346,0,0,1,.13-2,5.318,5.318,0,0,0,.13-.806c0-.91-1.612-1.638-2.236-1.638-.312,0-.754.13-.754.364,0,.1.52,1.014.6,1.222a6.338,6.338,0,0,1,.416,2.73c0,.962-.026,1.2-.442,1.326a12.178,12.178,0,0,1-3.3.364c-.234,0-1.326-.1-1.586-.1-.234,0-.338.026-.338.364,0,1.43,2.106,1.924,2.678,1.924.39,0,2.184-.806,2.626-.806.468,0,.468.26.468,2.444,0,4.94,0,7.02,7.436,7.02.6,0,2.964,0,2.964-1.222a1.354,1.354,0,0,0-1.4-1.118,8.2,8.2,0,0,0-1.248.182,11.711,11.711,0,0,1-2.288.208c-3.64,0-4.108-1.222-4.108-3.666,0-.078.052-2.444.078-3.3a2.091,2.091,0,0,1,.234-1.066c.338-.572,5.044-1.612,5.59-1.612.39,0,.39.13.39.338a11.549,11.549,0,0,1-.754,2.964.936.936,0,0,1-.884.676c-.234,0-1.4-.468-1.69-.468-.052,0-.13,0-.13.052a3.114,3.114,0,0,0,.338.546,9.444,9.444,0,0,1,.494,1.144c.234.754.338,1.04,1.222,1.04.936,0,2.34-1.326,2.834-5.174.156-1.352.182-1.4,1.69-1.4.468,0,2.73.286,3.25.286s1.274-.182,1.274-.858c0-.52-.39-.936-2.028-1.4a14,14,0,0,0-1.872-.468c-.052,0-.208,0-.208.1a.214.214,0,0,0,.1.156c.468.442.52.494.52.65,0,.286-.234.312-.806.364-.208,0-1.118.1-1.222.1-.078,0-.286,0-.286-.13,0-.156.026-.338.208-2.08C114.14-16.2,114.5-17.394,114.5-17.446ZM139.126-2.262c-.364,0-.52-.234-.884-.7a3.839,3.839,0,0,0-2.964-1.664A2.5,2.5,0,0,0,132.7-2.522c0,1.3,1.846,2.678,4.42,2.678,3.3,0,6.5-2.314,6.5-5.616a5.612,5.612,0,0,0-5.85-5.408,6.29,6.29,0,0,0-2.288.416c-.156.052-.494.182-.65.234-.078,0-.156-.1-.156-.182a15.855,15.855,0,0,1,4.16-5.33c1.248-.858,1.846-1.274,1.846-2.028,0-1.144-1.69-1.794-2.73-1.794-.572,0-.754.078-2.366.78a12.607,12.607,0,0,1-4.03.936c-.546,0-.624,0-.624.078,0,.13.806,1.794,2.028,1.794.442,0,.806-.078,1.846-.936.442-.364,1.976-1.664,2.938-1.664.312,0,.494.182.494.364,0,.286-.364.832-1.222,2.054a85.638,85.638,0,0,1-5.876,7.826c-1.846,2.158-2.054,2.73-2.054,3.38a.717.717,0,0,0,.754.728c.7,0,.962-.494,1.482-1.378.468-.806,2.678-4.368,6.11-4.368a4.116,4.116,0,0,1,4.394,3.952C141.83-3.848,140.01-2.262,139.126-2.262ZM136.734-2a.43.43,0,0,1-.442.468c-1.118,0-2.236-.546-2.236-1.222a1.063,1.063,0,0,1,1.092-.91A1.769,1.769,0,0,1,136.734-2ZM-79.69,27.18c.078.416-3.016,7.15-9.8,12.064a8.022,8.022,0,0,0-1.2.962c0,.156.13.156.182.156a6.387,6.387,0,0,0,1.612-.6A26.121,26.121,0,0,0-81.952,34.2c.572-.65.65-.728.91-.728.572,0,2.86,1.976,4.654,5.122.91,1.612,1.014,1.794,1.612,1.794a1.123,1.123,0,0,0,1.066-1.144c0-2.366-4.654-4.992-5.824-5.668-1.092-.6-1.144-.65-1.144-.884a.855.855,0,0,1,.208-.52c.416-.6,2.47-3.64,2.99-4.264.156-.182,1.118-.884,1.118-1.118,0-.65-1.586-1.976-2.21-1.976A9.925,9.925,0,0,0-80,25.62a35.98,35.98,0,0,1-7.124.962,4.632,4.632,0,0,1-1.378-.26c-.078-.026-.65-.182-.676-.182-.13,0-.156.078-.156.208a5.305,5.305,0,0,0,.624,1.508,5.426,5.426,0,0,0,1.768.936,11.231,11.231,0,0,0,1.17-.494c.13-.052,5.59-1.326,5.772-1.326A.292.292,0,0,1-79.69,27.18Zm31.07-2.626a2.491,2.491,0,0,0-2.548,2.5,2.555,2.555,0,0,0,2.522,2.522,2.537,2.537,0,0,0,2.47-2.548A2.41,2.41,0,0,0-48.62,24.554Zm-.052.884A1.743,1.743,0,0,1-47.008,27.1a1.619,1.619,0,0,1-1.612,1.586A1.618,1.618,0,0,1-50.31,27.1,1.692,1.692,0,0,1-48.672,25.438Zm-7.8,1.378c-.728,0-1.144.338-2.366,1.326-3.25,2.626-4.576,3.12-5.772,3.12-.13,0-.676-.1-.806-.1-.156,0-.182.182-.182.312a1.117,1.117,0,0,0,.312.806c1.326,1.378,1.664,1.508,2.184,1.508a1.665,1.665,0,0,0,1.3-.806,5.429,5.429,0,0,1,1.17-1.326c3.666-3.406,3.692-3.406,4.134-3.406a1.237,1.237,0,0,1,.78.39c.286.312,1.56,1.924,1.872,2.288,6.448,7.8,8.424,7.8,9.178,7.8.468,0,1.092-.182,1.092-.78a1.282,1.282,0,0,0-.572-.962c-.338-.286-2.288-1.456-2.73-1.742a41.648,41.648,0,0,1-6.968-6.526C-54.548,27.83-55.432,26.816-56.472,26.816ZM-32.4,41.168c.338,0,1.586-1.17,1.9-1.378,10.764-7.54,13.052-13.1,13.052-13.39a.1.1,0,0,0-.1-.1,12.393,12.393,0,0,0-1.118,1.17c-6.214,7.046-13.208,10.946-14.326,10.946-.208,0-1.2-.338-1.43-.338-.156,0-.234.078-.234.182a1.1,1.1,0,0,0,.156.494c.078.13.546.676.624.806C-33.228,40.752-32.968,41.168-32.4,41.168Zm-.988-11.986c-.338,0-1.82.026-1.82.39,0,.1.156.208.234.26A6.307,6.307,0,0,1-32.6,31.99c.39.65.52.806.91.806.624,0,1.014-.78,1.014-1.3C-30.68,30.222-32.266,29.182-33.384,29.182Zm3.016-4.966a3.1,3.1,0,0,0-2,.494c0,.078.286.156.39.182a4.525,4.525,0,0,1,2.236,1.378c.936,1.118,1.066,1.222,1.352,1.222.416,0,.832-.572.832-1.17C-27.56,26.244-27.56,24.216-30.368,24.216ZM5.512,29.39a13.134,13.134,0,0,0-1.534.676,25.344,25.344,0,0,1-3.848.806c-.6,0-.6-1.4-.6-2.678,0-.832-.858-1.04-1.924-1.04-.234,0-1.3,0-1.3.416a.2.2,0,0,0,.052.13c.078.052.494.312.6.39A5.044,5.044,0,0,1-1.768,31a.473.473,0,0,1-.364.416,19.435,19.435,0,0,1-3.64.468,4.119,4.119,0,0,1-1.378-.208c-.1-.026-.494-.182-.572-.182-.208,0-.234.494-.234.65a1.038,1.038,0,0,0,.52.936c1.144.78,1.274.858,1.534.858.156,0,.26-.052,1.326-.494a15.621,15.621,0,0,1,2.938-.832c.364,0,.416.13.728,1.17.364,1.2,1.768,7.254,1.9,7.67a2.7,2.7,0,0,0,1.56,1.456c.286,0,.546-.546.546-1.092a7,7,0,0,0-.728-2.392A59.956,59.956,0,0,1,.13,32.484c0-.416.1-.442,1.04-.676.364-.078,3.484-.832,3.614-.832.1,0,.286.026.286.208,0,.65-2.262,3.068-2.262,3.354a.135.135,0,0,0,.13.13,11.709,11.709,0,0,0,2.366-1.4A5.85,5.85,0,0,1,7.15,32.12c.468-.156.832-.286.832-.7C7.982,30.742,6.266,29.39,5.512,29.39Zm15.73-5.46c0,.208.13.364.338.6.806.936.936,1.534.936,4.446,0,.468,0,1.482-.052,2.652,0,.208-.13,1.092-.13,1.3,0,.676.6,2.054,1.17,2.054.39,0,.988-.65.988-1.326,0-.26-.13-1.56-.156-1.872-.026-.624-.078-2.964-.078-5.98,0-.13.052-.728.052-.858,0-.442-1.43-1.352-2.054-1.352C21.658,23.592,21.242,23.748,21.242,23.93Zm9.178,2.418c0,5.2-.182,9.724-5.2,15.08-.312.338-2,2-2,2.106,0,.078.052.13.156.13a10.366,10.366,0,0,0,2.34-1.534,16.448,16.448,0,0,0,6.5-12.064c.078-.91.1-4.81.208-5.512a10.113,10.113,0,0,0,.26-1.04c0-.676-1.3-1.326-2.86-1.326-.754,0-.754.078-.754.156,0,.052.026.1.338.52A4.972,4.972,0,0,1,30.42,26.348Zm26.39.832c.078.416-3.016,7.15-9.8,12.064a8.022,8.022,0,0,0-1.2.962c0,.156.13.156.182.156a6.387,6.387,0,0,0,1.612-.6A26.121,26.121,0,0,0,54.548,34.2c.572-.65.65-.728.91-.728.572,0,2.86,1.976,4.654,5.122.91,1.612,1.014,1.794,1.612,1.794a1.123,1.123,0,0,0,1.066-1.144c0-2.366-4.654-4.992-5.824-5.668-1.092-.6-1.144-.65-1.144-.884a.855.855,0,0,1,.208-.52c.416-.6,2.47-3.64,2.99-4.264.156-.182,1.118-.884,1.118-1.118,0-.65-1.586-1.976-2.21-1.976a9.925,9.925,0,0,0-1.43.806,35.98,35.98,0,0,1-7.124.962A4.632,4.632,0,0,1,48,26.322c-.078-.026-.65-.182-.676-.182-.13,0-.156.078-.156.208a5.305,5.305,0,0,0,.624,1.508,5.426,5.426,0,0,0,1.768.936,11.231,11.231,0,0,0,1.17-.494c.13-.052,5.59-1.326,5.772-1.326A.292.292,0,0,1,56.81,27.18ZM78.442,22.6l.052.1a2.885,2.885,0,0,1,.884,1.2c.312.832.312,1.664.312,9.1a53.815,53.815,0,0,1-.234,6.032c0,.1-.1.65-.1.754,0,.676.676,2.444,1.456,2.444.754,0,.754-1.716.754-2.366,0-.39-.026-1.04-.052-1.326-.1-2.34-.13-3.718-.13-6.474,0-1.924.1-1.924.364-1.924.806,0,2.028,1.222,2.756,2.184,1.742,2.262,1.82,2.366,2.47,2.366a.89.89,0,0,0,.936-.91c0-1.95-4.03-3.848-5.616-4.212-.754-.182-.858-.26-.858-.832a33.725,33.725,0,0,1,.234-3.614,7.534,7.534,0,0,0,.312-1.092c0-.832-1.872-1.664-2.808-1.664C79.144,22.37,78.468,22.37,78.442,22.6Z" transform="translate(148.304 21.866)" fill="#4a4a4a"/>
</svg>
