<svg xmlns="http://www.w3.org/2000/svg" width="191.178" height="17.689" viewBox="0 0 191.178 17.689">
  <path id="パス_130452" data-name="パス 130452" d="M-79.9-7.258c.608,0,1.007,0,1.007-.266,0-.247-1.539-1.216-1.672-1.216-.171,0-.7.722-.855.855-.133.133-.228.133-1.007.133h-.836c-.627,0-.627-.228-.627-.931a24.826,24.826,0,0,1,.076-2.489c.114-.209.285-.247.551-.247h2.679c.627,0,1.007,0,1.007-.266a5.476,5.476,0,0,0-1.577-1.254c-.19,0-.779.76-.931.893-.133.114-.266.133-.7.133h-.456c-.437,0-.627-.1-.627-.589a20.55,20.55,0,0,1,.114-2.242c.019-.076.323-.38.323-.475,0-.209-1.71-.589-1.767-.589a.082.082,0,0,0-.076.076c0,.171.171,1.5.19,1.786.019.152.038,1.292.038,1.52,0,.513-.38.513-.551.513h-1.463c-.1,0-.247-.019-.247-.171,0-.019.228-.551.342-.836.266-.608.285-.684.475-.741.342-.114.475-.152.475-.285,0-.266-1.767-.779-1.824-.779-.133,0-.152.038-.19.437a16.519,16.519,0,0,1-1.083,3.857c-.1.228-.627,1.425-.627,1.463,0,.057.038.057.057.057a6.944,6.944,0,0,0,1.672-2.033c.247-.437.285-.475.684-.475h1.71c.418,0,.513.133.551.4.057.3.057,2.185.057,2.641,0,.513-.133.627-.665.627h-.589c-.893,0-2.261-.076-2.413-.076-.114,0-.7-.057-.836-.057-.038,0-.076,0-.076.038s.019.038.095.133l.361.437c.057.076.095.114.171.114.057,0,.342-.038.4-.038.437-.038,1.444-.057,1.9-.057.418,0,.722,0,.722.4A15.859,15.859,0,0,1-90-.969a4.092,4.092,0,0,0-.646.684c0,.057.076.076.114.076a3.151,3.151,0,0,0,.684-.323,13.771,13.771,0,0,0,4.5-4.959c.152-.247.19-.285.266-.285.1,0,.114.076.114.361,0,.038-.057,3.04-.076,3.971C-85.063-.779-85.2.3-85.2.969c0,.266.114.4.4.4a1.418,1.418,0,0,0,.779-.247c.152-.114.19-.285.19-.589,0-.931-.038-5.472-.038-6.5,0-.095,0-.209.076-.209.038,0,.076.057.076.076.057.133.266.779.323.912A13.469,13.469,0,0,0-80.408-.38a4.435,4.435,0,0,0,.855-.513,2.469,2.469,0,0,1,.969-.209c.057,0,.19,0,.19-.1s-.437-.342-.722-.513A10.035,10.035,0,0,1-83.6-6.992c0-.266.266-.266.475-.266Zm-10.355-3c.437,0,.836,0,.836-.228a4.651,4.651,0,0,0-1.425-1.083c-.152,0-.209.114-.4.475a.563.563,0,0,1-.494.323c-.38,0-.4-.247-.4-.361,0-.228.133-2.622.133-2.945,0-.342.038-.437.228-.589s.247-.19.247-.323c0-.19-.133-.247-.513-.342a11.83,11.83,0,0,0-1.216-.361c-.038,0-.057.038-.057.076,0,.1.133,1.425.133,1.71,0,3.135,0,3.135-.513,3.135-.4,0-2.147-.133-2.451-.133a.05.05,0,0,0-.057.057c0,.019.019.038.076.114l.3.437c.038.076.076.133.133.133a2.141,2.141,0,0,0,.342-.057c.361-.019,1.14-.038,1.311-.038s.589,0,.589.456a28.809,28.809,0,0,1-1.786,5.7c-.114.247-.7,1.52-.7,1.558a.041.041,0,0,0,.038.038c.57,0,2.527-3.9,2.584-3.9s.057.209.057.247c0,.57-.057,4.9-.076,5.358-.019.209-.057,1.558-.057,1.729a.366.366,0,0,0,.418.4.837.837,0,0,0,.874-.893c0-.589-.076-3.515-.057-4.18,0-.57-.019-3.344-.019-3.971,0-.361.114-.437.19-.437.266,0,.76.893.95,1.254.4.779.494.988.817.988.475,0,.494-.7.494-.779,0-1.007-1.064-1.406-1.539-1.6-.779-.285-.912-.38-.912-.76,0-1.083,0-1.216.665-1.216Zm19.817-1.425c-.893,0-1.729-.019-2.6-.057-.114-.019-.7-.076-.836-.076-.057,0-.076.019-.076.057,0,.019,0,.038.076.114l.38.437c.057.076.1.133.152.133a3.154,3.154,0,0,0,.418-.057c.665-.038,1.957-.038,2.394-.038h5.13c.475,0,.513.114.627.817C-63.555-3.078-59.584.969-57.912.969a.432.432,0,0,0,.494-.475,1.042,1.042,0,0,0-.19-.532,1.414,1.414,0,0,1-.209-.779c0-.4.247-2.451.247-2.508,0-.038,0-.133-.057-.133-.1,0-.456.836-.551,1.007-.247.456-.57,1.007-.836,1.007-.57,0-2.641-2.394-3.819-6.061a25.249,25.249,0,0,1-.76-3.363c0-.266.114-.3.437-.3h5.035c.665,0,1.007,0,1.007-.285,0-.323-1.539-1.425-1.824-1.425-.19,0-.247.076-.836.874-.247.323-.342.323-1.216.323h-2.2c-.475,0-.627,0-.646-2.014,0-.874,0-.969.209-1.178.171-.19.19-.209.19-.323,0-.247-.247-.323-.741-.418a8.25,8.25,0,0,0-1.33-.209c-.057,0-.133,0-.133.057,0,.209.228,1.178.266,1.387.057.3.361,2.318.361,2.47,0,.171-.076.228-.4.228Zm4.446,5c.646,0,1.026,0,1.026-.247a3.305,3.305,0,0,0-1.387-1.311c-.19,0-.76.912-.969,1.007a3.065,3.065,0,0,1-.912.057h-1.5c-.874,0-1.729-.019-2.6-.057-.114-.019-.7-.076-.836-.076-.038,0-.076.019-.076.038,0,.038.019.057.1.133l.361.437c.057.076.1.133.171.133.038,0,.228-.038.266-.038a14.819,14.819,0,0,1,1.729-.057c.19,0,.532,0,.551.456,0,.076.019,1.691.019,1.843,0,.228-.019,2.565-.038,2.717a.384.384,0,0,1-.171.266,24.1,24.1,0,0,1-2.622.38c-.589.057-.646.076-.646.152,0,.057.532,2.052.741,2.052.114,0,.513-.475.627-.532A23.949,23.949,0,0,1-68.685-.513a24.567,24.567,0,0,0,5.092-2.071c0-.057-.076-.057-.1-.057-.038,0-4.332.969-4.617.969-.323,0-.323-.19-.323-1.349s.076-3.154.114-3.344c.076-.3.4-.323.532-.323Zm3.572-8.873c-.019.038.057.114.114.152a9.472,9.472,0,0,1,1.463,1.691c.4.57.437.627.646.627a.7.7,0,0,0,.779-.779c0-1.1-2.622-1.748-2.888-1.748C-62.339-15.618-62.415-15.6-62.415-15.561Zm10.07,8.113a18.841,18.841,0,0,0,8.322-6.1c.152-.19.456-.57.532-.57s.114.057.323.456c2.147,3.914,6.194,6.707,6.612,6.707.114,0,.171-.057.247-.19a2.228,2.228,0,0,1,1.216-.779c.475-.152.532-.171.532-.285,0-.1,0-.1-.532-.247-4.5-1.273-7.866-5.491-7.866-6.08,0-.076.019-.133.133-.19.19-.133.228-.152.228-.247,0-.323-1.767-1.159-1.786-1.159-.228,0-.228.076-.38.665-.1.418-1.292,2.679-4.541,5.453C-50.54-8.968-52.1-7.866-52.231-7.771c-.228.152-.285.19-.285.266C-52.516-7.41-52.4-7.429-52.345-7.448ZM-46.094-4.9c.323,0,.57,0,.57.323a13.293,13.293,0,0,1-.988,2.508c-.779,1.558-.912,1.558-1.976,1.558a10.069,10.069,0,0,1-1.121-.076c-.114-.019-.7-.133-.836-.133-.057,0-.152,0-.152.133a15.012,15.012,0,0,0,1.045,2.014.216.216,0,0,0,.19.133,3.972,3.972,0,0,0,.551-.3A83.174,83.174,0,0,1-40-.494c.266,0,.437.057.8.7.342.627.741,1.33,1.292,1.33.361,0,.741-.418.741-1.026,0-1.2-1.178-1.881-1.691-2.185A17.673,17.673,0,0,0-41.268-2.85c-.057,0-.133.019-.133.114,0,.228,1.121,1.2,1.121,1.482,0,.19-.152.209-1.52.342-2.109.209-3.9.323-4.142.323-.076,0-.342-.019-.342-.19s.19-.361.266-.456c.114-.114.893-1.045,1.292-1.577.475-.627.513-.684.665-.741.57-.152.57-.152.57-.323,0-.209-.893-.969-.893-.969,0-.057.076-.057.266-.057H-38.3c.893,0,.988,0,.988-.247,0-.171,0-.19-.969-.988-.437-.361-.494-.4-.646-.4-.171,0-.247.114-.532.513-.456.627-.665.627-1.463.627H-47.2c-.665,0-1.672-.038-2.6-.076-.114,0-.7-.057-.836-.057-.038,0-.076,0-.076.038,0,.019.057.076.1.133l.361.437c.076.076.1.114.171.114.057,0,.342-.038.4-.038.513-.038.988-.057,2.394-.057Zm.874-3.534c-.76,0-1.672-.019-2.6-.076-.114,0-.7-.057-.836-.057-.038,0-.057.019-.057.038,0,.038,0,.057.076.133l.361.437c.076.076.114.114.171.114s.342-.038.4-.038c.7-.057,1.254-.057,2.413-.057h4.37c.912,0,1.007,0,1.007-.209a5.153,5.153,0,0,0-1.444-1.425c-.1,0-.323.285-.627.646-.38.456-.418.494-1.349.494ZM-23.9.684c.076.1.114.133.171.133s.342-.057.4-.057C-22.667.7-21.394.722-20.938.722h6.745c.627,0,1.026,0,1.026-.266,0-.323-1.672-1.558-1.843-1.558-.228,0-.285.076-.8.741a1.18,1.18,0,0,1-1.121.57h-.7c-.494,0-.494-.342-.494-1.045,0-1.273-.057-6.84-.057-7.98,0-.342.038-.627.551-.627h2.641c.608,0,1.007,0,1.007-.247,0-.361-1.33-1.6-1.6-1.6-.171,0-.228.076-.779.817-.4.532-.494.532-1.387.532-.456,0-.456-.361-.456-.589,0-.513.057-3.667.171-3.933.038-.1.418-.418.418-.513,0-.323-.4-.418-.57-.475-.133-.038-1.311-.4-1.368-.4-.114,0-.152.038-.152.133,0,.152.114.817.114.969.095,1.425.133,2.28.133,4.028,0,.532-.038.779-.494.779-.646,0-2.185-.076-2.375-.076-.095,0-.779-.057-.8-.057s-.057,0-.057.038,0,.038.076.133l.361.437c.076.076.114.114.171.114.076,0,.342-.038.4-.038.665-.057,1.767-.057,2.242-.057.456,0,.456.4.456.589,0,.988-.038,8.3-.076,8.645-.038.418-.38.418-.551.418h-.741c-1.064,0-2.052-.038-2.6-.057-.133,0-.722-.076-.836-.076a.061.061,0,0,0-.057.057c0,.019,0,.019.076.114Zm-6.213-11.628c.057.076.095.114.171.114.057,0,.342-.038.4-.038.665-.038,1.463-.057,2.2-.057h1.33c.171,0,.3.019.3.19,0,.551-2.679,3.876-3.439,4.655A19.122,19.122,0,0,0-30.8-4.389c0,.057.057.057.095.057.494,0,2.964-2.147,3.154-2.147s.19.323.19.532c0,2.242-.076,4.218-.114,5.624,0,.209-.076,1.083-.076,1.273,0,.266.114.456.57.456A.907.907,0,0,0-25.973.532c0-.266-.095-1.444-.095-1.691,0-.779-.019-4.294-.019-5.016,0-.228,0-.494.171-.494.361,0,.988.969,1.1,1.178.494,1.007.7,1.387,1.159,1.387.342,0,.665-.285.665-.874,0-1.444-1.786-1.957-2.432-2.109-.456-.095-.627-.133-.627-.532,0-.342.057-.4.608-.969a21.869,21.869,0,0,1,1.767-1.9c.057-.019.323-.076.38-.095a.286.286,0,0,0,.209-.247c0-.114-.038-.152-.456-.551-.057-.038-.456-.513-.684-.741a.359.359,0,0,0-.266-.133c-.171,0-.722.57-.855.646a.677.677,0,0,1-.456.133c-.19,0-.3-.038-.3-.3v-1.6c0-.8,0-.893.1-1.064.038-.076.38-.361.38-.437,0-.133-.114-.209-.209-.266a14.607,14.607,0,0,0-1.71-.513c-.019,0-.076,0-.076.038,0,.114.1.551.1.646.057.722.076,1.843.076,2.128,0,1.273,0,1.406-.532,1.406-.4,0-2.147-.114-2.508-.114-.019,0-.076,0-.076.038,0,.019.019.038.1.133Zm26.676.38c-.171,0-1.007-.076-1.2-.076-.057,0-.171.019-.171.114a2.072,2.072,0,0,0,1.33,1.5,4.872,4.872,0,0,0,.76-.3c.513-.19,3.648-1.007,3.933-1.007.114,0,.38,0,.38.418,0,.076-.494,3.61-.57,4.218-.095.646-.133.95-.7,1.026-.209.038-5.605.456-5.985.456a5.625,5.625,0,0,1-1.5-.228A5.647,5.647,0,0,0-7.9-4.693c-.095,0-.114.038-.114.114,0,1.216,1.691,2.033,1.9,2.033a6.768,6.768,0,0,0,1.007-.3,45.615,45.615,0,0,1,8.854-.988,9.829,9.829,0,0,1,2.451.266c.076.019,1.2.266,1.254.266.437,0,.456-.342.456-.513,0-.855-1.5-1.539-2.375-1.539-.38,0-2.242.437-2.66.437-.266,0-.418-.076-.418-.38a17.972,17.972,0,0,1,.817-4.541c.057-.114.57-.646.57-.8a2.611,2.611,0,0,0-1.767-1.216,7.993,7.993,0,0,0-.741.323A28.535,28.535,0,0,1-3.439-10.564ZM15.029-4.921a.808.808,0,0,0-.209-.038.151.151,0,0,0-.171.171,3.154,3.154,0,0,0,.57,1.254,3.363,3.363,0,0,0,1.33.7c.019,0,1.406-.323,1.672-.361,1.045-.171,5.054-.608,6.65-.608a14.237,14.237,0,0,1,2.147.152c.456.076.893.152,1.045.152.323,0,1.064-.114,1.064-.551,0-.912-2.318-1.292-2.869-1.292-.456,0-2.622.4-3.135.475a37.566,37.566,0,0,1-5.377.418A6.421,6.421,0,0,1,15.029-4.921Zm2.66-5.681c-.114,0-.266.038-.266.1,0,.038.456.608.513.684a1.414,1.414,0,0,0,1.026.589c.152,0,3.819-.494,4.56-.532,2.071-.1,2.774-.133,2.774-.608,0-.513-.817-.95-1.691-.95-.228,0-1.387.228-1.653.266-.76.133-3.477.513-4.085.513C18.677-10.545,17.8-10.6,17.689-10.6ZM42.332-11.1c-.532,0-.836.247-1.729.969-2.375,1.919-3.344,2.28-4.218,2.28-.1,0-.494-.076-.589-.076-.114,0-.133.133-.133.228a.816.816,0,0,0,.228.589c.874.893,1.2,1.1,1.6,1.1a1.216,1.216,0,0,0,.95-.589,3.967,3.967,0,0,1,.855-.969c2.679-2.489,2.7-2.489,3.021-2.489a.9.9,0,0,1,.57.285c.209.228,1.14,1.406,1.368,1.672,4.712,5.7,6.156,5.7,6.707,5.7.342,0,.8-.133.8-.57a.937.937,0,0,0-.418-.7c-.247-.209-1.672-1.064-2-1.273a30.435,30.435,0,0,1-5.092-4.769C43.738-10.355,43.092-11.1,42.332-11.1Zm6.821-1.957c-.361,0-.741-.019-.741.152,0,.038.038.133.228.228a4.381,4.381,0,0,1,1.52,1.254c.285.437.532.817.95.817a.558.558,0,0,0,.494-.608C51.6-12.5,49.647-13.034,49.153-13.053ZM47.12-11.5c-.152,0-.342.076-.342.152s.19.209.285.285a5.43,5.43,0,0,1,1.292,1.2c.532.722.7.874.969.874.342,0,.57-.475.57-.741C49.894-10.355,48.887-11.5,47.12-11.5ZM61.237-7.657a10.347,10.347,0,0,1-2.318-.171c-.1-.019-.551-.228-.646-.228s-.152.114-.152.228c0,.646.874,1.824,1.691,1.824.228,0,1.254-.3,1.482-.342.456-.1,4.807-.342,7.429-.342.38,0,2.28.038,2.717.038.8,0,1.577-.057,1.577-.589,0-.133-.171-.836-1.33-.836-.1,0-.3.019-.418.019C68.495-7.9,61.864-7.657,61.237-7.657ZM85.272-9.728c0-.969-2.014-1.615-2.147-1.615-.076,0-.1.038-.1.1a1.41,1.41,0,0,0,.076.342,4.167,4.167,0,0,1,.323,1.634c0,.627-.209,2.7-2.3,5.567A5.38,5.38,0,0,0,80.37-2.7a.089.089,0,0,0,.1.1,6.616,6.616,0,0,0,3.515-3.61C84.3-6.935,85.272-9.671,85.272-9.728Zm3.344,6.84c.133-.019.3-.152.627-.513a10.557,10.557,0,0,1,1.311-1.216c3.325-2.926,4.427-5.282,4.427-5.434a.082.082,0,0,0-.076-.076c-.076,0-1.691,1.71-2.014,2.033C91.067-6.251,89.319-5,88.749-5c-.342,0-.361-.38-.361-.627,0-.627.076-2.926.152-3.439.038-.209.3-1.2.3-1.425,0-.988-2-1.33-2.09-1.33-.038,0-.114.019-.114.1a4.938,4.938,0,0,0,.247.684,11.65,11.65,0,0,1,.361,3.572c0,.475-.019,1.976-.076,2.337-.019.1-.114.589-.114.684C87.058-3.914,88.065-2.793,88.616-2.888Z" transform="translate(96.197 16.131)" fill="#717171"/>
</svg>
