<svg xmlns="http://www.w3.org/2000/svg" width="190.646" height="17.689" viewBox="0 0 190.646 17.689">
  <path id="パス_130459" data-name="パス 130459" d="M-79.9-7.258c.608,0,1.007,0,1.007-.266,0-.247-1.539-1.216-1.672-1.216-.171,0-.7.722-.855.855-.133.133-.228.133-1.007.133h-.836c-.627,0-.627-.228-.627-.931a24.826,24.826,0,0,1,.076-2.489c.114-.209.285-.247.551-.247h2.679c.627,0,1.007,0,1.007-.266a5.476,5.476,0,0,0-1.577-1.254c-.19,0-.779.76-.931.893-.133.114-.266.133-.7.133h-.456c-.437,0-.627-.1-.627-.589a20.55,20.55,0,0,1,.114-2.242c.019-.076.323-.38.323-.475,0-.209-1.71-.589-1.767-.589a.082.082,0,0,0-.076.076c0,.171.171,1.5.19,1.786.019.152.038,1.292.038,1.52,0,.513-.38.513-.551.513h-1.463c-.1,0-.247-.019-.247-.171,0-.019.228-.551.342-.836.266-.608.285-.684.475-.741.342-.114.475-.152.475-.285,0-.266-1.767-.779-1.824-.779-.133,0-.152.038-.19.437a16.519,16.519,0,0,1-1.083,3.857c-.1.228-.627,1.425-.627,1.463,0,.057.038.057.057.057a6.944,6.944,0,0,0,1.672-2.033c.247-.437.285-.475.684-.475h1.71c.418,0,.513.133.551.4.057.3.057,2.185.057,2.641,0,.513-.133.627-.665.627h-.589c-.893,0-2.261-.076-2.413-.076-.114,0-.7-.057-.836-.057-.038,0-.076,0-.076.038s.019.038.095.133l.361.437c.057.076.095.114.171.114.057,0,.342-.038.4-.038.437-.038,1.444-.057,1.9-.057.418,0,.722,0,.722.4A15.859,15.859,0,0,1-90-.969a4.092,4.092,0,0,0-.646.684c0,.057.076.076.114.076a3.151,3.151,0,0,0,.684-.323,13.771,13.771,0,0,0,4.5-4.959c.152-.247.19-.285.266-.285.1,0,.114.076.114.361,0,.038-.057,3.04-.076,3.971C-85.063-.779-85.2.3-85.2.969c0,.266.114.4.4.4a1.418,1.418,0,0,0,.779-.247c.152-.114.19-.285.19-.589,0-.931-.038-5.472-.038-6.5,0-.095,0-.209.076-.209.038,0,.076.057.076.076.057.133.266.779.323.912A13.469,13.469,0,0,0-80.408-.38a4.435,4.435,0,0,0,.855-.513,2.469,2.469,0,0,1,.969-.209c.057,0,.19,0,.19-.1s-.437-.342-.722-.513A10.035,10.035,0,0,1-83.6-6.992c0-.266.266-.266.475-.266Zm-10.355-3c.437,0,.836,0,.836-.228a4.651,4.651,0,0,0-1.425-1.083c-.152,0-.209.114-.4.475a.563.563,0,0,1-.494.323c-.38,0-.4-.247-.4-.361,0-.228.133-2.622.133-2.945,0-.342.038-.437.228-.589s.247-.19.247-.323c0-.19-.133-.247-.513-.342a11.83,11.83,0,0,0-1.216-.361c-.038,0-.057.038-.057.076,0,.1.133,1.425.133,1.71,0,3.135,0,3.135-.513,3.135-.4,0-2.147-.133-2.451-.133a.05.05,0,0,0-.057.057c0,.019.019.038.076.114l.3.437c.038.076.076.133.133.133a2.141,2.141,0,0,0,.342-.057c.361-.019,1.14-.038,1.311-.038s.589,0,.589.456a28.809,28.809,0,0,1-1.786,5.7c-.114.247-.7,1.52-.7,1.558a.041.041,0,0,0,.038.038c.57,0,2.527-3.9,2.584-3.9s.057.209.057.247c0,.57-.057,4.9-.076,5.358-.019.209-.057,1.558-.057,1.729a.366.366,0,0,0,.418.4.837.837,0,0,0,.874-.893c0-.589-.076-3.515-.057-4.18,0-.57-.019-3.344-.019-3.971,0-.361.114-.437.19-.437.266,0,.76.893.95,1.254.4.779.494.988.817.988.475,0,.494-.7.494-.779,0-1.007-1.064-1.406-1.539-1.6-.779-.285-.912-.38-.912-.76,0-1.083,0-1.216.665-1.216Zm19.817-1.425c-.893,0-1.729-.019-2.6-.057-.114-.019-.7-.076-.836-.076-.057,0-.076.019-.076.057,0,.019,0,.038.076.114l.38.437c.057.076.1.133.152.133a3.154,3.154,0,0,0,.418-.057c.665-.038,1.957-.038,2.394-.038h5.13c.475,0,.513.114.627.817C-63.555-3.078-59.584.969-57.912.969a.432.432,0,0,0,.494-.475,1.042,1.042,0,0,0-.19-.532,1.414,1.414,0,0,1-.209-.779c0-.4.247-2.451.247-2.508,0-.038,0-.133-.057-.133-.1,0-.456.836-.551,1.007-.247.456-.57,1.007-.836,1.007-.57,0-2.641-2.394-3.819-6.061a25.249,25.249,0,0,1-.76-3.363c0-.266.114-.3.437-.3h5.035c.665,0,1.007,0,1.007-.285,0-.323-1.539-1.425-1.824-1.425-.19,0-.247.076-.836.874-.247.323-.342.323-1.216.323h-2.2c-.475,0-.627,0-.646-2.014,0-.874,0-.969.209-1.178.171-.19.19-.209.19-.323,0-.247-.247-.323-.741-.418a8.25,8.25,0,0,0-1.33-.209c-.057,0-.133,0-.133.057,0,.209.228,1.178.266,1.387.057.3.361,2.318.361,2.47,0,.171-.076.228-.4.228Zm4.446,5c.646,0,1.026,0,1.026-.247a3.305,3.305,0,0,0-1.387-1.311c-.19,0-.76.912-.969,1.007a3.065,3.065,0,0,1-.912.057h-1.5c-.874,0-1.729-.019-2.6-.057-.114-.019-.7-.076-.836-.076-.038,0-.076.019-.076.038,0,.038.019.057.1.133l.361.437c.057.076.1.133.171.133.038,0,.228-.038.266-.038a14.819,14.819,0,0,1,1.729-.057c.19,0,.532,0,.551.456,0,.076.019,1.691.019,1.843,0,.228-.019,2.565-.038,2.717a.384.384,0,0,1-.171.266,24.1,24.1,0,0,1-2.622.38c-.589.057-.646.076-.646.152,0,.057.532,2.052.741,2.052.114,0,.513-.475.627-.532A23.949,23.949,0,0,1-68.685-.513a24.567,24.567,0,0,0,5.092-2.071c0-.057-.076-.057-.1-.057-.038,0-4.332.969-4.617.969-.323,0-.323-.19-.323-1.349s.076-3.154.114-3.344c.076-.3.4-.323.532-.323Zm3.572-8.873c-.019.038.057.114.114.152a9.472,9.472,0,0,1,1.463,1.691c.4.57.437.627.646.627a.7.7,0,0,0,.779-.779c0-1.1-2.622-1.748-2.888-1.748C-62.339-15.618-62.415-15.6-62.415-15.561Zm10.07,8.113a18.841,18.841,0,0,0,8.322-6.1c.152-.19.456-.57.532-.57s.114.057.323.456c2.147,3.914,6.194,6.707,6.612,6.707.114,0,.171-.057.247-.19a2.228,2.228,0,0,1,1.216-.779c.475-.152.532-.171.532-.285,0-.1,0-.1-.532-.247-4.5-1.273-7.866-5.491-7.866-6.08,0-.076.019-.133.133-.19.19-.133.228-.152.228-.247,0-.323-1.767-1.159-1.786-1.159-.228,0-.228.076-.38.665-.1.418-1.292,2.679-4.541,5.453C-50.54-8.968-52.1-7.866-52.231-7.771c-.228.152-.285.19-.285.266C-52.516-7.41-52.4-7.429-52.345-7.448ZM-46.094-4.9c.323,0,.57,0,.57.323a13.293,13.293,0,0,1-.988,2.508c-.779,1.558-.912,1.558-1.976,1.558a10.069,10.069,0,0,1-1.121-.076c-.114-.019-.7-.133-.836-.133-.057,0-.152,0-.152.133a15.012,15.012,0,0,0,1.045,2.014.216.216,0,0,0,.19.133,3.972,3.972,0,0,0,.551-.3A83.174,83.174,0,0,1-40-.494c.266,0,.437.057.8.7.342.627.741,1.33,1.292,1.33.361,0,.741-.418.741-1.026,0-1.2-1.178-1.881-1.691-2.185A17.673,17.673,0,0,0-41.268-2.85c-.057,0-.133.019-.133.114,0,.228,1.121,1.2,1.121,1.482,0,.19-.152.209-1.52.342-2.109.209-3.9.323-4.142.323-.076,0-.342-.019-.342-.19s.19-.361.266-.456c.114-.114.893-1.045,1.292-1.577.475-.627.513-.684.665-.741.57-.152.57-.152.57-.323,0-.209-.893-.969-.893-.969,0-.057.076-.057.266-.057H-38.3c.893,0,.988,0,.988-.247,0-.171,0-.19-.969-.988-.437-.361-.494-.4-.646-.4-.171,0-.247.114-.532.513-.456.627-.665.627-1.463.627H-47.2c-.665,0-1.672-.038-2.6-.076-.114,0-.7-.057-.836-.057-.038,0-.076,0-.076.038,0,.019.057.076.1.133l.361.437c.076.076.1.114.171.114.057,0,.342-.038.4-.038.513-.038.988-.057,2.394-.057Zm.874-3.534c-.76,0-1.672-.019-2.6-.076-.114,0-.7-.057-.836-.057-.038,0-.057.019-.057.038,0,.038,0,.057.076.133l.361.437c.076.076.114.114.171.114s.342-.038.4-.038c.7-.057,1.254-.057,2.413-.057h4.37c.912,0,1.007,0,1.007-.209a5.153,5.153,0,0,0-1.444-1.425c-.1,0-.323.285-.627.646-.38.456-.418.494-1.349.494ZM-23.9.684c.076.1.114.133.171.133s.342-.057.4-.057C-22.667.7-21.394.722-20.938.722h6.745c.627,0,1.026,0,1.026-.266,0-.323-1.672-1.558-1.843-1.558-.228,0-.285.076-.8.741a1.18,1.18,0,0,1-1.121.57h-.7c-.494,0-.494-.342-.494-1.045,0-1.273-.057-6.84-.057-7.98,0-.342.038-.627.551-.627h2.641c.608,0,1.007,0,1.007-.247,0-.361-1.33-1.6-1.6-1.6-.171,0-.228.076-.779.817-.4.532-.494.532-1.387.532-.456,0-.456-.361-.456-.589,0-.513.057-3.667.171-3.933.038-.1.418-.418.418-.513,0-.323-.4-.418-.57-.475-.133-.038-1.311-.4-1.368-.4-.114,0-.152.038-.152.133,0,.152.114.817.114.969.095,1.425.133,2.28.133,4.028,0,.532-.038.779-.494.779-.646,0-2.185-.076-2.375-.076-.095,0-.779-.057-.8-.057s-.057,0-.057.038,0,.038.076.133l.361.437c.076.076.114.114.171.114.076,0,.342-.038.4-.038.665-.057,1.767-.057,2.242-.057.456,0,.456.4.456.589,0,.988-.038,8.3-.076,8.645-.038.418-.38.418-.551.418h-.741c-1.064,0-2.052-.038-2.6-.057-.133,0-.722-.076-.836-.076a.061.061,0,0,0-.057.057c0,.019,0,.019.076.114Zm-6.213-11.628c.057.076.095.114.171.114.057,0,.342-.038.4-.038.665-.038,1.463-.057,2.2-.057h1.33c.171,0,.3.019.3.19,0,.551-2.679,3.876-3.439,4.655A19.122,19.122,0,0,0-30.8-4.389c0,.057.057.057.095.057.494,0,2.964-2.147,3.154-2.147s.19.323.19.532c0,2.242-.076,4.218-.114,5.624,0,.209-.076,1.083-.076,1.273,0,.266.114.456.57.456A.907.907,0,0,0-25.973.532c0-.266-.095-1.444-.095-1.691,0-.779-.019-4.294-.019-5.016,0-.228,0-.494.171-.494.361,0,.988.969,1.1,1.178.494,1.007.7,1.387,1.159,1.387.342,0,.665-.285.665-.874,0-1.444-1.786-1.957-2.432-2.109-.456-.095-.627-.133-.627-.532,0-.342.057-.4.608-.969a21.869,21.869,0,0,1,1.767-1.9c.057-.019.323-.076.38-.095a.286.286,0,0,0,.209-.247c0-.114-.038-.152-.456-.551-.057-.038-.456-.513-.684-.741a.359.359,0,0,0-.266-.133c-.171,0-.722.57-.855.646a.677.677,0,0,1-.456.133c-.19,0-.3-.038-.3-.3v-1.6c0-.8,0-.893.1-1.064.038-.076.38-.361.38-.437,0-.133-.114-.209-.209-.266a14.607,14.607,0,0,0-1.71-.513c-.019,0-.076,0-.076.038,0,.114.1.551.1.646.057.722.076,1.843.076,2.128,0,1.273,0,1.406-.532,1.406-.4,0-2.147-.114-2.508-.114-.019,0-.076,0-.076.038,0,.019.019.038.1.133ZM-2.128-9.728c0-.969-2.014-1.615-2.147-1.615-.076,0-.095.038-.095.1a1.41,1.41,0,0,0,.076.342,4.167,4.167,0,0,1,.323,1.634c0,.627-.209,2.7-2.3,5.567A5.38,5.38,0,0,0-7.03-2.7a.089.089,0,0,0,.1.1A6.616,6.616,0,0,0-3.42-6.213C-3.1-6.935-2.128-9.671-2.128-9.728Zm3.344,6.84c.133-.019.3-.152.627-.513A10.557,10.557,0,0,1,3.154-4.617C6.479-7.543,7.581-9.9,7.581-10.051a.082.082,0,0,0-.076-.076c-.076,0-1.691,1.71-2.014,2.033C3.667-6.251,1.919-5,1.349-5c-.342,0-.361-.38-.361-.627,0-.627.076-2.926.152-3.439.038-.209.3-1.2.3-1.425,0-.988-1.995-1.33-2.09-1.33-.038,0-.114.019-.114.1a4.938,4.938,0,0,0,.247.684A11.65,11.65,0,0,1-.152-7.467c0,.475-.019,1.976-.076,2.337-.019.1-.114.589-.114.684C-.342-3.914.665-2.793,1.216-2.888ZM17.537-7.657a10.347,10.347,0,0,1-2.318-.171c-.095-.019-.551-.228-.646-.228s-.152.114-.152.228c0,.646.874,1.824,1.691,1.824.228,0,1.254-.3,1.482-.342.456-.1,4.807-.342,7.429-.342.38,0,2.28.038,2.717.038.8,0,1.577-.057,1.577-.589,0-.133-.171-.836-1.33-.836-.1,0-.3.019-.418.019C24.795-7.9,18.164-7.657,17.537-7.657Zm22.819,2.85c.019-.076,1.1-1.482,1.311-1.767.475-.684,2.66-4.1,2.964-4.389.38-.361.589-.551.589-.874,0-.665-1.748-1.938-1.881-1.938-.114,0-.133.114-.133.209,0,.076.038.532.038.627,0,1.444-1.71,4.9-2.546,6.441-1.026,1.862-1.406,2.109-2.2,2.109a3.3,3.3,0,0,1-.684-.1,4.669,4.669,0,0,0-.551-.171c-.076,0-.076.076-.076.133A4.18,4.18,0,0,0,37.677-3c.836.817.836.836,1.007.836.133,0,.589-.551.722-.608.171-.076,2.66-.646,3.173-.779.817-.228,5.111-1.539,5.206-1.539.285,0,.361.171.532,1.083.247,1.254.323,1.729.969,1.729.133,0,1.045-.057,1.045-1.33,0-1.862-2.869-4.2-3.42-4.2a.127.127,0,0,0-.133.114,7.162,7.162,0,0,0,.437.722,2.382,2.382,0,0,1,.551,1.121c0,.228,0,.323-2.793.8A29.747,29.747,0,0,1,40.6-4.5C40.432-4.5,40.337-4.617,40.356-4.807Zm29.108-5.871a18.538,18.538,0,0,1-.95,3.439,17.638,17.638,0,0,1-4.1,6.251,3.46,3.46,0,0,0-.57.646.11.11,0,0,0,.114.114,4.01,4.01,0,0,0,.855-.437,14.275,14.275,0,0,0,5-6.308C70-7.41,70.851-9.538,71.06-9.994c.076-.152.57-.741.57-.912,0-.4-1.615-1.653-1.862-1.653-.1,0-.494.342-.608.38-.494.209-6.042.912-6.612.912-.722,0-.874-.095-1.007-.19-.57-.342-.7-.418-.988-.418-.3,0-.684.152-.684.285a3.322,3.322,0,0,0,.342.551,6.753,6.753,0,0,1,.608,3.021,5.033,5.033,0,0,1-.057.855,3.92,3.92,0,0,0-.133.855c0,.684.646,1.729,1.083,1.729.494,0,.494-1.159.494-1.406,0-.418-.209-2.47-.209-2.926,0-1.159,0-1.254.8-1.368,1.235-.19,6.061-.779,6.327-.779C69.464-11.058,69.464-10.887,69.464-10.678Zm17.081.038c0-1.121-1.6-2.2-3.629-2.2-.266,0-.418.095-.418.171s.1.133.171.171A4.28,4.28,0,0,1,84.4-10.944c.627.95.817,1.254,1.33,1.254A.839.839,0,0,0,86.545-10.64Zm7.9-.171a.122.122,0,0,0-.1-.1c-.038,0-.57.532-.874.836-3.154,3.116-8.189,6.479-9.12,6.479a3.145,3.145,0,0,1-1.292-.437,4.73,4.73,0,0,0-.57-.361c-.171,0-.19.874-.19,1.007,0,.76,1.406,1.976,2.432,1.976.285,0,.323-.038.684-.475a13.268,13.268,0,0,1,1.862-1.558C92.226-7.087,94.449-10.64,94.449-10.811Z" transform="translate(96.197 16.131)" fill="#717171"/>
</svg>
