<svg xmlns="http://www.w3.org/2000/svg" width="272.104" height="100.08" viewBox="0 0 272.104 100.08">
  <path id="パス_130445" data-name="パス 130445" d="M-81.34-11.032c.112,4.032.112,7.112.168,8.4C-79.884-1.176-75.964.84-71.428.84-64.82.84-59-3.36-59-9.968c0-4.536-2.744-7.5-6.608-10.36l-1.68-1.232c-2.912-2.184-5.04-4.2-5.04-7.392a6.1,6.1,0,0,1,6.1-6.384c4.816,0,6.272,4.032,6.72,8.12l1.68-.168c.056-2.688,0-5.656.168-7.952C-58.1-35.5-59-35.9-60.06-36.288A17.988,17.988,0,0,0-65.6-37.24c-6.72,0-11.48,4.2-11.48,10.136,0,4.648,3.584,7.784,6.328,9.912l1.624,1.232c3.192,2.52,5.04,4.7,5.04,7.784,0,4.256-2.576,7.056-6.608,7.056-6.1,0-8.456-5.936-9.016-10.08ZM-50.764.672a3.415,3.415,0,0,0,3.416-3.64A2.906,2.906,0,0,0-50.2-6.1a3.477,3.477,0,0,0-3.472,3.7A2.9,2.9,0,0,0-50.764.672Zm31.08-37.016H-34.3l-.392,1.568c4.592.392,4.984.728,4.2,4.872l-4.536,23.24c-.84,4.312-1.176,4.76-5.488,5.1L-40.908,0H-26.18l.336-1.568c-4.536-.336-4.928-.728-4.088-5.1l4.48-23.24c.84-4.144,1.12-4.48,5.432-4.872Zm3.7,37.016a3.415,3.415,0,0,0,3.416-3.64A2.906,2.906,0,0,0-15.428-6.1a3.477,3.477,0,0,0-3.472,3.7A2.9,2.9,0,0,0-15.988.672ZM36.428-36.344H23.716l-.448,1.568c4.088.224,5.1.84,4.872,3.472a86.623,86.623,0,0,1-1.456,9.576L24.164-8.344H24l-16.184-28H-.644l-.392,1.568c2.968.168,4.032.5,4.7,1.68.672,1.232.9,2.128.28,5.208L1.148-14.56C.028-9.352-.588-6.832-1.2-4.928c-.728,2.464-2.016,3.192-4.928,3.36L-6.524,0H6.468L6.8-1.568c-3.92-.28-4.928-.9-4.76-3.472a72.17,72.17,0,0,1,1.4-9.408L6.3-29.008h.168L22.932.448h1.9l4.2-22.176a95.075,95.075,0,0,1,2.184-9.52c.728-2.464,1.456-3.36,4.872-3.528ZM60.34-35.9a3.29,3.29,0,0,0-3.08,3.3,2.358,2.358,0,0,0,2.352,2.464,3.127,3.127,0,0,0,2.968-3.248A2.317,2.317,0,0,0,60.34-35.9ZM60.4-6.1c-1.288,1.176-3.248,2.632-3.92,2.632-.336,0-.448-.448-.112-1.792L60.228-20.72c.616-2.632.672-4.424-.56-4.424-1.512,0-5.432,2.3-8.512,5.32l.672,1.288a10.87,10.87,0,0,1,3.808-2.408c.392,0,.392.56.056,1.792L52.22-4.816C51.1-.224,51.828.672,52.948.672c1.96,0,6.328-3.3,8.176-5.6ZM70.868.672C75.4.672,81-3.528,81-7.784c0-2.408-1.344-4.032-4.7-6.552C74.284-15.9,72.66-17.3,72.66-19.32a3,3,0,0,1,3.024-3.136,5.584,5.584,0,0,1,4.368,2.52.8.8,0,0,0,1.232.224,2.714,2.714,0,0,0,1.4-2.3c0-1.456-1.9-3.136-4.368-3.136A11.069,11.069,0,0,0,72.1-22.456c-2.24,1.96-2.912,3.752-2.912,5.432,0,2.856,2.352,4.928,4.872,6.832,2.632,2.072,3.248,3.3,3.248,4.7a3.458,3.458,0,0,1-3.7,3.36,6.913,6.913,0,0,1-5.376-3.416c-.28-.392-.728-.5-1.4-.168A2.776,2.776,0,0,0,65.212-3.36C65.212-1.4,68.236.672,70.868.672Zm-174.44,34.672c.224-3.864.5-7.112.672-8.848a31.3,31.3,0,0,0-9.968-1.736c-13.944,0-23.8,9.184-23.8,22.064,0,10.248,6.944,16.016,16.8,16.016,4.424,0,8.4-1.288,11.872-2.128a13.7,13.7,0,0,1,.28-4.368l.9-4.592c.784-4.2,1.064-4.424,4.144-4.872l.392-1.512h-14.224l-.392,1.512c5.544.56,5.824.728,5.04,4.872l-1.064,5.152c-.616,3.024-2.8,3.92-5.992,3.92-7.56,0-11.76-5.992-11.76-14.336,0-10.528,6.552-19.712,16.464-19.712,5.544,0,8.792,2.3,8.9,8.736Zm35.728,25.648a6.742,6.742,0,0,1-3.7-2.632,41.847,41.847,0,0,1-3.472-5.936c-1.288-2.576-2.744-6.048-3.3-7.5,4.536-1.568,8.736-4.984,8.736-10.64a7.717,7.717,0,0,0-3.472-6.888c-1.96-1.344-4.984-1.736-8.064-1.736H-93.66L-94,27.224c4.424.392,4.648.616,3.808,5.152l-4.368,22.512c-.952,4.816-1.288,5.1-5.544,5.544L-100.492,62h14.5l.336-1.568c-4.424-.392-4.816-.728-3.864-5.6l1.568-8.736h2.184c1.96,0,2.688.5,3.528,2.576,1.176,2.856,2.352,5.656,3.752,8.288,1.96,3.7,3.808,5.264,9.52,5.488h.672ZM-87.556,44.248l2.632-13.72c.28-1.456.56-2.128,1.008-2.464a4.109,4.109,0,0,1,2.464-.56c3.864,0,6.328,2.408,6.328,7.224a9.692,9.692,0,0,1-4.144,8.12,10.311,10.311,0,0,1-5.88,1.4ZM-42.308,24.76c-11.76,0-20.44,10.472-20.44,22.176,0,9.52,6.1,15.9,14.952,15.9,11.984,0,20.5-10.08,20.5-22.008C-27.3,31.424-33.292,24.76-42.308,24.76Zm-.392,2.016c6.944,0,9.52,5.936,9.52,13.328,0,9.3-5.208,20.72-14.168,20.72-6.608,0-9.576-5.768-9.576-13.216C-56.924,37.64-51.156,26.776-42.7,26.776Zm71.792-1.12H17.052l-.336,1.568,1.4.168c2.856.392,3.136.84,1.96,3.92C18,36.688,13.468,46.432,10,53.992H9.884L5.292,26.272H3.5L-9.492,53.88H-9.6l-2.408-22.736c-.28-3.08.056-3.416,2.24-3.752l1.4-.168.392-1.568h-13.1l-.336,1.568c3.752.392,4.032.672,4.536,5.32l3.416,30.016h1.9L1.6,35.288h.168L6.3,62.56H8.148c7.224-15.624,11.984-25.7,14.28-30.072,2.3-4.536,2.688-4.76,6.328-5.264Zm19.376,0H33.852l-.392,1.568c4.592.392,4.984.728,4.2,4.872l-4.536,23.24c-.84,4.312-1.176,4.76-5.488,5.1L27.244,62H41.972l.336-1.568c-4.536-.336-4.928-.728-4.088-5.1L42.7,32.1c.84-4.144,1.12-4.48,5.432-4.872Zm41.552,0H77.308l-.448,1.568c4.088.224,5.1.84,4.872,3.472a86.621,86.621,0,0,1-1.456,9.576l-2.52,13.384h-.168l-16.184-28H52.948l-.392,1.568c2.968.168,4.032.5,4.7,1.68.672,1.232.9,2.128.28,5.208L54.74,47.44c-1.12,5.208-1.736,7.728-2.352,9.632-.728,2.464-2.016,3.192-4.928,3.36L47.068,62H60.06l.336-1.568c-3.92-.28-4.928-.9-4.76-3.472a72.169,72.169,0,0,1,1.4-9.408l2.856-14.56h.168L76.524,62.448h1.9l4.2-22.176a95.076,95.076,0,0,1,2.184-9.52c.728-2.464,1.456-3.36,4.872-3.528Zm34.272,9.688c.224-3.864.5-7.112.672-8.848A31.3,31.3,0,0,0,115,24.76c-13.944,0-23.8,9.184-23.8,22.064C91.2,57.072,98.14,62.84,108,62.84c4.424,0,8.4-1.288,11.872-2.128a13.7,13.7,0,0,1,.28-4.368l.9-4.592c.784-4.2,1.064-4.424,4.144-4.872l.392-1.512H111.356l-.392,1.512c5.544.56,5.824.728,5.04,4.872L114.94,56.9c-.616,3.024-2.8,3.92-5.992,3.92-7.56,0-11.76-5.992-11.76-14.336,0-10.528,6.552-19.712,16.464-19.712,5.544,0,8.792,2.3,8.9,8.736Zm7.728,27.328a3.415,3.415,0,0,0,3.416-3.64A2.906,2.906,0,0,0,132.58,55.9a3.477,3.477,0,0,0-3.472,3.7A2.9,2.9,0,0,0,132.02,62.672Z" transform="translate(136.668 37.24)" fill="#fff"/>
</svg>
