<svg xmlns="http://www.w3.org/2000/svg" width="247.364" height="77.256" viewBox="0 0 247.364 77.256">
  <path id="パス_130984" data-name="パス 130984" d="M-127.295.266c.14,0,.168-.028.406-.238a.723.723,0,0,1,.532-.182,1.827,1.827,0,0,1,.56.14,4.5,4.5,0,0,0,1.512.28,2.968,2.968,0,0,0,3.038-3.024c0-1.078-.378-2.2-3.206-3.178-1.834-.644-2.674-1.064-2.674-2.226a1.791,1.791,0,0,1,1.9-1.848A3.245,3.245,0,0,1-122.367-8.2c.224.364.252.406.364.406a.22.22,0,0,0,.238-.224c0-.084-.658-1.736-.756-1.96-.14-.364-.182-.49-.35-.49-.1,0-.126.028-.322.182a.532.532,0,0,1-.308.084c-.1,0-.686-.126-.84-.154a5.53,5.53,0,0,0-.994-.112,2.638,2.638,0,0,0-2.8,2.716c0,1.666,1.288,2.408,3.234,3.08,1.778.616,2.618,1.064,2.618,2.338a2.018,2.018,0,0,1-2.072,2.114,4.136,4.136,0,0,1-3.29-1.918c-.336-.518-.364-.588-.518-.588a.3.3,0,0,0-.308.294c0,.084.6,1.666.7,1.918C-127.5.182-127.477.266-127.295.266Zm9.422,0a.935.935,0,0,0,.938-.924.926.926,0,0,0-.938-.924.911.911,0,0,0-.91.924A.92.92,0,0,0-117.873.266ZM-110.089,0c.168,0,.378,0,.378-.224s-.224-.224-.294-.224c-.938,0-1.442,0-1.568-.728a36.943,36.943,0,0,1-.042-3.948c0-.644,0-3.794.056-3.99.182-.63.784-.644,1.2-.644.518,0,.644,0,.644-.21,0-.238-.21-.238-.378-.238h-4.116c-.2,0-.406,0-.406.238s.224.224.308.224c.924,0,1.428,0,1.568.714.042.252.042,3.416.042,3.99,0,.406,0,3.626-.042,3.864-.14.728-.812.728-1.218.728-.546,0-.658,0-.658.224s.21.224.392.224Zm3.626.266a.935.935,0,0,0,.938-.924.926.926,0,0,0-.938-.924.911.911,0,0,0-.91.924A.92.92,0,0,0-106.463.266ZM-99.491,0c.266,0,.448,0,.448-.224s-.21-.224-.322-.224c-.6,0-1.372,0-1.54-.924-.042-.266-.042-3.052-.042-3.612s.014-3,.014-3.5c0-.154.042-.266.112-.266s.1.056.35.462c.07.1,5.558,8.344,5.642,8.442a.244.244,0,0,0,.182.112c.182,0,.182-.238.182-.308,0-1.162-.014-6.342-.014-7.392,0-1.68,0-2.31,1.162-2.31.224,0,.42,0,.42-.224s-.21-.238-.364-.238h-2.912c-.2,0-.392,0-.392.238s.21.224.294.224c.462,0,1.176,0,1.344.854.042.252.042,2.73.042,3.234S-94.9-2.87-94.9-2.478c0,.182-.042.28-.1.28-.084,0-1.372-1.96-1.554-2.24-.854-1.288-2.226-3.346-3.08-4.634-.714-1.092-.742-1.134-1.75-1.134h-1.358c-.21,0-.42,0-.42.238s.224.224.308.224c.476,0,1.246,0,1.414.84a34.851,34.851,0,0,1,.042,3.78c0,3.71-.014,3.724-.126,4.046a1.106,1.106,0,0,1-1.12.63c-.35,0-.518,0-.518.224s.21.224.42.224Zm14.168-9.282c.112.84-1.218,2.772-2.352,3.906a11.873,11.873,0,0,0-1.106,1.05c0,.042.028.084.1.084a4.278,4.278,0,0,0,1.344-.742,10.525,10.525,0,0,0,1.9-1.82c.588-.672.616-.7.882-.7.084,0,.462.042.546.042.336,0,2.268-.434,2.3-.434a.151.151,0,0,1,.154.154,17.485,17.485,0,0,1-6.93,7.56c-.434.238-.476.266-.476.322a.125.125,0,0,0,.126.126,9.577,9.577,0,0,0,2.786-1.344,17.119,17.119,0,0,0,5.012-5.264c.49-.756.546-.84.7-.938.462-.28.56-.336.56-.532a.507.507,0,0,0-.266-.35c-.07-.042-.434-.238-.518-.28-.574-.336-.644-.378-.77-.378a2.616,2.616,0,0,0-.658.224,7.924,7.924,0,0,1-2.128.56c-.056,0-.224,0-.224-.112,0-.07.042-.126.112-.224.28-.35.42-.532.42-.7a1.308,1.308,0,0,0-1.3-.784c-.112,0-.308,0-.308.14C-85.421-9.66-85.337-9.352-85.323-9.282Zm5.348-2.366c-.14,0-.5.084-.5.2,0,.042.042.112.182.154a3.283,3.283,0,0,1,1.288.686c.308.322.448.462.742.462a.379.379,0,0,0,.35-.406c0-.14,0-.462-.574-.8A2.583,2.583,0,0,0-79.975-11.648Zm-.966,1.2c-.126,0-.238.07-.238.126s.14.154.21.2a4.421,4.421,0,0,1,.994.826c.434.518.546.6.742.6.238,0,.406-.308.406-.546C-78.827-9.408-79.149-10.444-80.941-10.444Zm11.3,3.276c0-.714-1.484-1.19-1.582-1.19-.056,0-.07.028-.07.07a1.039,1.039,0,0,0,.056.252A3.07,3.07,0,0,1-71-6.832a7.414,7.414,0,0,1-1.694,4.1,3.964,3.964,0,0,0-.56.742.065.065,0,0,0,.07.07,4.875,4.875,0,0,0,2.59-2.66C-70.357-5.11-69.643-7.126-69.643-7.168Zm2.464,5.04c.1-.014.224-.112.462-.378a7.779,7.779,0,0,1,.966-.9,11.762,11.762,0,0,0,3.262-4,.06.06,0,0,0-.056-.056c-.056,0-1.246,1.26-1.484,1.5a8.334,8.334,0,0,1-3.052,2.282c-.252,0-.266-.28-.266-.462,0-.462.056-2.156.112-2.534.028-.154.224-.882.224-1.05,0-.728-1.47-.98-1.54-.98-.028,0-.084.014-.084.07a3.639,3.639,0,0,0,.182.5A8.584,8.584,0,0,1-68.187-5.5c0,.35-.014,1.456-.056,1.722-.014.07-.084.434-.084.5C-68.327-2.884-67.585-2.058-67.179-2.128Zm11.746-3.514a7.624,7.624,0,0,1-1.708-.126c-.07-.014-.406-.168-.476-.168s-.112.084-.112.168c0,.476.644,1.344,1.246,1.344.168,0,.924-.224,1.092-.252.336-.07,3.542-.252,5.474-.252.28,0,1.68.028,2,.028.588,0,1.162-.042,1.162-.434,0-.1-.126-.616-.98-.616-.07,0-.224.014-.308.014C-50.085-5.824-54.971-5.642-55.433-5.642ZM-31.2-10.92a1.33,1.33,0,0,0-1.372,1.33,1.376,1.376,0,0,0,1.358,1.358A1.366,1.366,0,0,0-29.869-9.59,1.3,1.3,0,0,0-31.2-10.92Zm-.028.476a.936.936,0,0,1,.9.882.863.863,0,0,1-.868.854.869.869,0,0,1-.91-.84A.9.9,0,0,1-31.227-10.444ZM-41.321-8.736c-.084,0-.126.042-.126.308,0,.77,1.12,1.47,1.442,1.47a5.077,5.077,0,0,0,.7-.308,45.937,45.937,0,0,1,5.04-1.008c.07,0,.308.014.308.252a7.91,7.91,0,0,1-.952,2.366,18.221,18.221,0,0,1-5.53,5.544c-.14.1-.182.126-.182.182a.093.093,0,0,0,.1.084A14.246,14.246,0,0,0-33.3-6.37a2.317,2.317,0,0,1,.546-.882c.252-.252.322-.322.322-.5s-.084-.35-.714-.91c-.434-.378-.658-.574-.966-.574-.1,0-.154.028-.588.224a36.247,36.247,0,0,1-5.278.658,3.3,3.3,0,0,1-1.162-.294C-41.167-8.652-41.293-8.736-41.321-8.736Zm19.67-1.456c-.07,0-.168,0-.168-.084a.873.873,0,0,1,.392-.434c.406-.168.49-.21.49-.336,0-.154-.168-.2-.476-.308-.14-.056-.91-.308-.966-.308-.168,0-.2.084-.252.35a11.922,11.922,0,0,1-2.87,3.85c-.028.028-.714.714-.714.728,0,.042.042.07.1.07a9.85,9.85,0,0,0,3.052-2.352,3.264,3.264,0,0,1,.476-.434c.042,0,.084.042.154.182a9.369,9.369,0,0,0,1.19,1.876c.154.21.238.322.238.378,0,.266-2.982,2.618-5.684,3.878-.378.182-.42.2-.42.252a.1.1,0,0,0,.112.1,24.8,24.8,0,0,0,2.6-.98c.154,0,.168.14.2.336a7.791,7.791,0,0,1,.084,1.47c0,.392-.014,1.2-.042,1.9,0,.084-.028.532-.028.63,0,.266.042.462.378.462a.7.7,0,0,0,.77-.658c.028-.294.266-.294.434-.294h4.214c.378,0,.406.2.406.476,0,.112,0,.364.308.364a.813.813,0,0,0,.8-.812c0-.224-.07-1.316-.07-1.568,0-.434.028-.812.028-1.05a.39.39,0,0,1,.168-.35c.224-.168.252-.182.252-.308,0-.182-.938-.8-1.106-.8-.084,0-.112.028-.378.294a.46.46,0,0,1-.406.154h-4.27a1.632,1.632,0,0,1-.742-.2c-.434-.182-.49-.2-.49-.28s.028-.084.252-.2A19.755,19.755,0,0,0-20.8-6.034c.294-.238.336-.266.42-.266a6.2,6.2,0,0,1,.812.672,10.279,10.279,0,0,0,3.906,2.2c.126,0,.21-.084.336-.224A2.3,2.3,0,0,1-14.3-4.326c.126-.042.2-.07.2-.112s-.028-.056-.21-.07c-.224-.014-.714-.084-1.078-.154a9.257,9.257,0,0,1-4.382-2.17c0-.056.056-.1.112-.154.14-.126.49-.462.644-.6.294-.294,1.638-1.89,1.764-1.932.364-.126.448-.154.448-.308,0-.28-1.092-.966-1.232-.966-.1,0-.112.028-.294.322a.493.493,0,0,1-.49.28Zm2.73.364c.112,0,.21,0,.21.126A7.99,7.99,0,0,1-20.5-7.476c-.378,0-1.9-1.988-1.9-2.156,0-.2.238-.2.406-.2ZM-22.659-.28c-.392,0-.42,0-.42-1.666,0-1.134,0-1.2.406-1.2h4.3c.1,0,.294,0,.364.154a9.185,9.185,0,0,1,.056,1.288,9.08,9.08,0,0,1-.056,1.274.368.368,0,0,1-.364.154ZM-6.307.5c.056.07.084.1.126.1S-5.929.56-5.887.56C-5.4.518-4.459.532-4.123.532H.847c.462,0,.756,0,.756-.2C1.6.1.371-.812.245-.812c-.168,0-.21.056-.588.546a.87.87,0,0,1-.826.42h-.518c-.364,0-.364-.252-.364-.77,0-.938-.042-5.04-.042-5.88,0-.252.028-.462.406-.462H.259c.448,0,.742,0,.742-.182C1-7.406.021-8.316-.175-8.316c-.126,0-.168.056-.574.6-.294.392-.364.392-1.022.392-.336,0-.336-.266-.336-.434,0-.378.042-2.7.126-2.9.028-.07.308-.308.308-.378,0-.238-.294-.308-.42-.35-.1-.028-.966-.294-1.008-.294-.084,0-.112.028-.112.1,0,.112.084.6.084.714.07,1.05.1,1.68.1,2.968,0,.392-.028.574-.364.574-.476,0-1.61-.056-1.75-.056-.07,0-.574-.042-.588-.042s-.042,0-.042.028,0,.028.056.1l.266.322c.056.056.084.084.126.084s.252-.028.294-.028c.49-.042,1.3-.042,1.652-.042s.336.294.336.434c0,.728-.028,6.118-.056,6.37-.028.308-.28.308-.406.308h-.546c-.784,0-1.512-.028-1.918-.042-.1,0-.532-.056-.616-.056A.045.045,0,0,0-6.629.1c0,.014,0,.014.056.084Zm-4.578-8.568c.042.056.07.084.126.084s.252-.028.294-.028c.49-.028,1.078-.042,1.624-.042h.98c.126,0,.224.014.224.14a17.241,17.241,0,0,1-2.534,3.43,14.09,14.09,0,0,0-1.218,1.246c0,.042.042.042.07.042.364,0,2.184-1.582,2.324-1.582s.14.238.14.392c0,1.652-.056,3.108-.084,4.144,0,.154-.056.8-.056.938,0,.2.084.336.42.336A.668.668,0,0,0-7.833.392c0-.2-.07-1.064-.07-1.246,0-.574-.014-3.164-.014-3.7,0-.168,0-.364.126-.364.266,0,.728.714.812.868.364.742.518,1.022.854,1.022.252,0,.49-.21.49-.644,0-1.064-1.316-1.442-1.792-1.554-.336-.07-.462-.1-.462-.392,0-.252.042-.294.448-.714a16.114,16.114,0,0,1,1.3-1.4c.042-.014.238-.056.28-.07A.21.21,0,0,0-5.7-7.98c0-.084-.028-.112-.336-.406-.042-.028-.336-.378-.5-.546a.265.265,0,0,0-.2-.1c-.126,0-.532.42-.63.476a.5.5,0,0,1-.336.1c-.14,0-.224-.028-.224-.224V-9.856c0-.588,0-.658.07-.784.028-.056.28-.266.28-.322,0-.1-.084-.154-.154-.2a10.763,10.763,0,0,0-1.26-.378c-.014,0-.056,0-.056.028,0,.084.07.406.07.476.042.532.056,1.358.056,1.568,0,.938,0,1.036-.392,1.036-.294,0-1.582-.084-1.848-.084-.014,0-.056,0-.056.028s.014.028.07.1ZM8.1-2.086c0,2.2,2.03,2.2,2.674,2.2.742,0,3.6-.07,3.6-.784,0-.35-.448-.672-.924-.672a3.809,3.809,0,0,0-1.05.21,6.262,6.262,0,0,1-1.68.252c-1.134,0-1.946-.35-1.946-1.3,0-.91.476-1.932,3.808-3.276.5-.2,1.078-.42,1.078-.84a.538.538,0,0,0-.532-.518,4.324,4.324,0,0,0-1.442.658c-.756.476-.84.532-1.036.532-.364,0-.364-1.134-.364-1.666a13.178,13.178,0,0,1,.126-1.848c.028-.14.2-.77.2-.9,0-.406-.714-1.05-1.512-1.05-.042,0-.378.014-.378.07s.042.084.336.392a1.308,1.308,0,0,1,.42,1.134c0,.364-.07,1.988-.07,2.31a4.5,4.5,0,0,0,.238,1.638,3.559,3.559,0,0,1,.126.434c0,.182-.182.364-.6.756A3.174,3.174,0,0,0,8.1-2.086ZM27.153-9.52a3.606,3.606,0,0,1,3.878,3.878c0,3.486-3.038,4.69-4.494,5.264-.35.14-.378.154-.378.2,0,.084.084.1.14.1A8.6,8.6,0,0,0,28.623-.6,5.221,5.221,0,0,0,32.151-5.53,4.388,4.388,0,0,0,29.715-9.6a4.561,4.561,0,0,0-2.254-.448A5.792,5.792,0,0,0,23-8.232a4.932,4.932,0,0,0-1.554,3.57c0,1.708.826,3.15,1.75,3.15.56,0,1.274-.336,2.394-2.044a7.181,7.181,0,0,0,1.442-4.1,10.731,10.731,0,0,0-.14-1.512c0-.056-.028-.112-.028-.154C26.859-9.408,26.873-9.52,27.153-9.52Zm-.784.042c.182,0,.238.07.238.91a8.008,8.008,0,0,1-1.372,4.074c-.966,1.456-1.3,1.624-1.708,1.624-.854,0-1.218-1.246-1.218-2.156A4.834,4.834,0,0,1,26.369-9.478Zm15.918,1.2a1,1,0,0,1-.532-.1c-.574-.308-.644-.336-.742-.336-.126,0-.126.112-.126.168,0,.182.056,1.078.056,1.288,0,.406-.084,2.408-.084,2.856,0,.308.1.406.364.406.378,0,.434-.112.546-.336.1-.2.168-.2.448-.2h1.022c.406,0,.406.182.406.686,0,.6-.014.784-.42.784h-.616c-.644,0-1.274,0-1.918-.042-.084,0-.518-.056-.616-.056a.037.037,0,0,0-.042.042.213.213,0,0,0,.056.084l.266.322c.056.056.084.1.126.1s.252-.042.294-.042c.49-.028,1.456-.042,1.778-.042H43.2c.2,0,.406.042.406.392,0,.14-.056.84-.056.994,0,.532.336.6.462.6.574,0,.574-.588.574-.784,0-.112-.042-.686-.042-.812,0-.378.252-.392.42-.392h2.814c.658,0,.728,0,.728-.168,0-.224-.826-.882-.966-.882s-.28.168-.42.378c-.224.308-.294.308-.938.308H44.947c-.434,0-.434-.042-.434-1.176,0-.042,0-.294.434-.294H46.1c.252,0,.35,0,.406.21a.286.286,0,0,0,.308.238c.182,0,.644-.07.644-.8,0-.322-.028-1.75-.028-2.044,0-.616,0-.714.182-.812.14-.07.224-.14.224-.224,0-.112-.49-.8-.77-.8-.112,0-.21.07-.392.252-.238.224-.336.224-.91.224h-.854c-.294,0-.42-.112-.42-.42,0-.91,0-1.008.462-1.008h2.6c.476,0,.742,0,.742-.2,0-.294-.9-.812-1.078-.812-.112,0-.14.042-.42.406-.182.238-.252.238-.9.238h-1.05c-.154,0-.336,0-.336-.322a2.453,2.453,0,0,1,.07-.56,2.691,2.691,0,0,0,.2-.406.249.249,0,0,0-.056-.14,4.633,4.633,0,0,0-1.12-.21.132.132,0,0,0-.14.14,3.149,3.149,0,0,0,.07.308,3.081,3.081,0,0,1,.084.7c0,.28-.028.49-.406.49h-.476c-.658,0-1.288-.028-1.918-.056-.1,0-.532-.042-.63-.042-.028,0-.042,0-.042.028s0,.028.056.1l.266.322c.056.056.084.084.126.084s.252-.028.294-.028c.49-.042,1.456-.042,1.778-.042H43.2c.434,0,.434.1.434.924,0,.294,0,.5-.42.5ZM46.151-6.23c.378,0,.378.252.378.364,0,.868-.028.966-.434.966H44.933c-.42,0-.42-.21-.42-.714,0-.378,0-.616.42-.616Zm-4-.378c-.392,0-.392-.168-.392-.7,0-.378.028-.588.392-.588h1.12c.378,0,.378.182.378.658,0,.434,0,.63-.378.63ZM42.161-4.9c-.392,0-.392-.2-.392-.854,0-.308.028-.476.434-.476h1.05c.42,0,.42.2.42.616,0,.574,0,.714-.448.714Zm4-3c.42,0,.434.21.434.63,0,.5-.014.658-.476.658H44.947c-.462,0-.462-.168-.462-.63s0-.658.434-.658Zm-6.72-.84c0-.1,0-.966-1.694-1.652a5.035,5.035,0,0,0-1.246-.364c-.056,0-.1,0-.1.042a3.663,3.663,0,0,0,.406.364,9.447,9.447,0,0,1,1.414,1.484c.476.728.532.812.784.812S39.445-8.316,39.445-8.736ZM36.561-5.6c.042.056.07.084.126.084s.252-.028.294-.028c.308-.028.812-.042,1.162-.042.392,0,.42.126.42,1.54,0,1.848-.014,1.862-.14,2.016A6.694,6.694,0,0,1,36.617-.882c-.2.042-.392.084-.392.21,0,.168.672,1.162.9,1.162.154,0,.168-.056.322-.5A14.076,14.076,0,0,1,39.151-2.1c.112,0,.308.672.364.784C40.355.35,42.189.644,47.761.644c.182,0,.2,0,.266-.336a1.282,1.282,0,0,1,.7-.882c.14-.056.2-.112.2-.168s-.056-.042-.084-.042c-.112,0-.588.126-.686.14A23.853,23.853,0,0,1,44.5-.42c-5.11,0-5.11-.854-5.11-3.36a11.723,11.723,0,0,1,.056-1.47c.056-.1.574-.308.574-.42,0-.084-.616-.868-.784-.868-.07,0-.1.042-.434.42a.525.525,0,0,1-.448.154c-.42,0-1.4-.028-1.568-.042-.084-.014-.434-.042-.5-.042-.028,0-.056,0-.056.028s.014.042.056.1ZM61.117-9.688c-.1,0-.266,0-.266-.21,0-.1.6-1.008.924-1.106.154-.056.266-.084.266-.224a.19.19,0,0,0-.084-.154c-.028-.014-.98-.364-1.036-.364-.084,0-.084.07-.084.14a5.8,5.8,0,0,1-.6,1.736.575.575,0,0,1-.49.182H58.723c-.056,0-.266,0-.266-.21a3.618,3.618,0,0,1,.6-1.078c.168-.056.322-.1.322-.224,0-.238-1.148-.672-1.372-.672-.014,0-.084,0-.084.042s.056.21.056.252a13.055,13.055,0,0,1-1.9,4.228c-.056.084-.168.266-.238.35a.06.06,0,0,0,.056.056c.112,0,1.344-1.4,1.442-1.4a.143.143,0,0,1,.14.154c0,.546-.154,3.08-.154,3.444,0,.238.028.364.308.364a.809.809,0,0,0,.658-.378c.224-.266.322-.266.49-.266h5.474c.364,0,.6,0,.6-.2,0-.168-.966-.924-1.036-.924-.126,0-.462.56-.56.658-.056.056-.084.1-.588.1H61.355c-.378,0-.378-.1-.378-.784,0-.21.084-.322.378-.322h1.82c.35,0,.588,0,.588-.2s-.98-.938-1.022-.938c-.126,0-.476.56-.56.658-.07.07-.154.1-.5.1-.49,0-.546,0-.616-.07s-.084-.126-.084-.574c0-.322.056-.406.406-.406h1.708c.364,0,.6,0,.6-.2,0-.168-.966-.924-1.036-.924-.14,0-.49.63-.616.7a2.351,2.351,0,0,1-.644.056c-.238,0-.42-.112-.42-.378,0-.476,0-.644.462-.644h2.408c.364,0,.588,0,.588-.2s-.952-.924-1.036-.924c-.112,0-.462.546-.546.644-.056.07-.084.1-.6.1Zm-1.33,1.764c.378,0,.378.2.378.574,0,.322-.042.476-.378.476H58.709c-.322,0-.392-.154-.392-.532,0-.518.2-.518.392-.518Zm-.07-1.386c.35,0,.476.014.476.532,0,.49-.182.49-.476.49h-.952c-.322,0-.476-.014-.476-.518s.154-.5.476-.5ZM59.773-6.5c.42,0,.42.126.42.56,0,.406,0,.546-.42.546H58.737c-.42,0-.42-.126-.42-.588,0-.378,0-.518.42-.518Zm-.238,2.422c-.42,0-.77,0-1.75-.042-.126,0-.672-.056-.784-.056-.028,0-.056.014-.056.042s.014.028.07.084l.266.322c.042.056.07.1.126.1.126,0,.924-.07,1.078-.07.406,0,.476.126.476.336A4.917,4.917,0,0,1,57.8-.574a5.971,5.971,0,0,1-1.5,1.3.6.6,0,0,0-.14.1c0,.014.014.028.042.028a5,5,0,0,0,1.33-.462,5.275,5.275,0,0,0,2.436-3.738A.4.4,0,0,1,60.4-3.7h.728a.278.278,0,0,1,.308.28c0,.168-.28,1.232-.28,1.414a.3.3,0,0,0,.322.294A.818.818,0,0,0,62.041-2a.515.515,0,0,1,.434-.14h.532c.084,0,.28,0,.28.224,0,.28-.462,1.876-1.428,1.876-.2,0-1.092-.126-1.274-.126-.112,0,.714.546.84.658a.993.993,0,0,1,.322.448c.07.154.1.182.238.182.742,0,1.792-.77,2.212-2.45a.581.581,0,0,1,.252-.378c.266-.21.28-.21.28-.294s-.644-.952-.84-.952c-.1,0-.14.028-.56.336a.45.45,0,0,1-.336.1h-.448a.272.272,0,0,1-.308-.28c0-.07.1-.616.266-.728.2-.14.294-.21.294-.322,0-.168-.756-.672-.84-.672s-.2.112-.378.28a.592.592,0,0,1-.532.168ZM52.4-8.4c.056.07.084.1.126.1.126,0,.9-.07,1.05-.07.2,0,.42,0,.448.308,0,.07.042,2.3.042,2.506a.525.525,0,0,1-.266.476,8.612,8.612,0,0,1-1.4.294c-.028,0-.21-.028-.252-.028s-.056.056-.056.112.224.546.266.644c.238.686.266.756.434.756.1,0,.392-.364.462-.434s.434-.392.63-.392.2.252.2.336c0,.294.014,1.736.014,2.058,0,1.246,0,1.386-.6,1.386-.14,0-.84-.056-1.008-.056-.056,0-.112.028-.112.07,0,.014.406.28.476.336a1.794,1.794,0,0,1,.728.854c.056.168.07.2.168.2a2.133,2.133,0,0,0,.812-.336,1.114,1.114,0,0,0,.462-1.036c0-.574-.07-3.36-.07-3.99,0-.378.112-.448.63-.728a6.1,6.1,0,0,0,1.218-.826c0-.042-.042-.056-.07-.056-.182,0-1.54.434-1.6.434-.21,0-.21-.2-.21-.434,0-.308-.014-1.792-.014-2.128s.35-.322.476-.322h.854c.14,0,.336-.014.336-.21a2.2,2.2,0,0,0-.924-.9c-.1,0-.112.056-.336.518-.07.154-.112.224-.21.224-.2,0-.2-.084-.2-.756a4.616,4.616,0,0,1,.084-1.12c.042-.084.392-.392.392-.5,0-.056-.042-.168-.21-.21a8.24,8.24,0,0,0-1.316-.336c-.056,0-.112.028-.112.07a4.641,4.641,0,0,1,.224.6c.014.224.042,1.33.042,1.862,0,.378-.308.378-.49.378-.224,0-1.358-.1-1.4-.1a.037.037,0,0,0-.042.042c0,.014.014.042.056.084ZM70.581-4.032a10.915,10.915,0,0,1,1.078-3.612c.266-.476.266-.49.266-.644,0-.5-.588-1.778-1.232-1.778-.056,0-.112.028-.112.07a1.773,1.773,0,0,0,.084.252,3.429,3.429,0,0,1,.14.994,4.754,4.754,0,0,1-.238,1.456,10.063,10.063,0,0,0-.588,3.052c0,1.344.644,3.724,1.512,3.724a.469.469,0,0,0,.462-.476,1.51,1.51,0,0,0-.168-.616,2.5,2.5,0,0,1-.224-.728c0-.336.322-1.974.322-2.128,0-.028,0-.168-.07-.168s-.112.112-.2.35c-.308.868-.434,1.092-.672,1.092S70.581-3.612,70.581-4.032Zm7.252-5.18c-.14-.014-.182,0-.6.154a5.655,5.655,0,0,1-1.54.21,4.784,4.784,0,0,1-.952-.084c-.182-.042-.35-.1-.392-.1-.084,0-.1.042-.1.07A2.746,2.746,0,0,0,76.7-7.924c.168,0,1.722,0,1.722-.686A.7.7,0,0,0,77.833-9.212Zm.6,6.944c-.056,0-1.036.1-1.232.112a11.668,11.668,0,0,1-1.218.042,3.446,3.446,0,0,1-1.5-.238,2.088,2.088,0,0,0-.336-.2c-.07,0-.07.112-.07.14,0,.266.364.63.434.7a2.859,2.859,0,0,0,2.184.63c1.96,0,2.38-.168,2.38-.714C79.079-1.96,78.967-2.268,78.435-2.268Zm11.018-8.694c-.028,0-.126,0-.126.056a.311.311,0,0,0,.084.168,1.592,1.592,0,0,1,.378.84c.042.49.056,3.346.056,3.458,0,.35.14,2.674.14,3.024,0,.322-.084.35-.294.35-.1,0-.6-.042-.728-.042-1.6,0-2.94.6-2.94,1.512,0,.8,1.12,1.638,2.408,1.638A2.33,2.33,0,0,0,90.6-1.2c.182-.392.21-.434.35-.434a1.994,1.994,0,0,1,.8.35,4.4,4.4,0,0,0,1.288.672.533.533,0,0,0,.5-.56c0-.448-.91-.84-1.778-1.218-.728-.308-.812-.35-.868-.56-.042-.154-.21-3.654-.21-3.92s.028-.35.14-.378c.028-.014.938-.014.966-.014,1.148,0,1.484-.336,1.484-.546s-.518-.616-.882-.616a6.222,6.222,0,0,0-.924.35,2.229,2.229,0,0,1-.588.112c-.154,0-.168-.042-.168-.224a9.072,9.072,0,0,1,.126-.966,6.684,6.684,0,0,0,.21-.756A1.66,1.66,0,0,0,89.453-10.962Zm.42,8.89c.042.126-.21,1.162-1.736,1.162-1.008,0-1.484-.42-1.484-.686,0-.77,1.694-.784,1.834-.784C89.1-2.38,89.817-2.254,89.873-2.072Zm17.822-4.1c0,2.856-.42,4.48-2.716,6.216-.322.238-.35.266-.35.308s.028.042.056.042a3.616,3.616,0,0,0,1.008-.462,6.065,6.065,0,0,0,3.052-5.8c0-2.94-.938-3.4-1.806-3.4-1.47,0-2.422,1.764-2.576,2.072-.1.182-.182.35-.252.35C104-6.846,104-7,104-7.042a14.856,14.856,0,0,1,.308-1.736,8.749,8.749,0,0,0,.294-1.036,1.083,1.083,0,0,0-1.078-.938.566.566,0,0,0-.378.1c0,.028.21.308.238.364a1.552,1.552,0,0,1,.182.868,9.57,9.57,0,0,1-.21,1.792A12.613,12.613,0,0,0,103.1-5.4c0,1.106.308,2.268.952,2.268a.468.468,0,0,0,.5-.5,1.4,1.4,0,0,0-.126-.532,2.856,2.856,0,0,1-.182-1.036c0-1.484,1.12-3.444,2.31-3.444C107.415-8.652,107.7-7.714,107.7-6.174ZM118.643.14c0-1.3-2.38-2.03-2.87-2.03-.112,0-.154.056-.154.1s.154.14.2.168a3.958,3.958,0,0,1,1.47,1.5c.462.84.518.938.812.938A.673.673,0,0,0,118.643.14ZM-51.366,32.364c.252,0,.392,0,.406.2.028.322.042.56.434.56.812,0,.812-.714.812-1.008,0-.154-.042-1.638-.042-1.9-.014-.42-.1-7.644-.1-7.7,0-.14.028-.686.126-.756.252-.2.28-.21.28-.308,0-.252-.854-.98-1.05-.98-.112,0-.154.028-.49.392a.479.479,0,0,1-.448.2h-8.092a1.276,1.276,0,0,1-.77-.2c-.532-.28-.588-.308-.686-.308s-.112.056-.112.154c0,.252.084,1.414.1,1.638.028.784.042,4.494.042,5.082,0,.8-.056,4.354-.056,5.082,0,.238,0,.644.378.644.154,0,.658-.028.728-.462.056-.322.056-.322.406-.322Zm-8.05-.378c-.462,0-.462-.21-.462-.588,0-.812-.07-4.83-.07-5.74,0-.518.014-3.08.014-3.668,0-.364.014-.574.462-.574h8.148c.14,0,.336,0,.42.182a3.608,3.608,0,0,1,.028.84c0,.518.028,3.038.028,3.612,0,.686-.056,4.088-.056,4.858,0,.98,0,1.078-.462,1.078Zm5.04-1.946c-.14,0-.392,0-.448-.21-.042-.182-.07-2.044-.07-2.352,0-.714,0-.854.434-.854h1.75c.462,0,.644-.014.644-.14,0-.182-.882-.84-1.064-.84-.112,0-.5.434-.6.518s-.168.1-.518.1-.378,0-.476-.056c-.154-.07-.154-.21-.154-1.5s.056-1.344.462-1.344h1.89c.672,0,.742,0,.742-.154,0-.2-1.078-.952-1.176-.952s-.14.056-.42.5c-.14.238-.308.238-.532.238H-56.63c-.728,0-1.554-.042-1.848-.056-.1,0-.518-.042-.616-.042-.042,0-.056.014-.056.028s.014.028.056.1l.28.322c.042.056.07.084.126.084s.238-.028.294-.028c.378-.028,1.106-.042,1.694-.042h.35a.39.39,0,0,1,.294.1,5.606,5.606,0,0,1,.168,1.652c0,.966,0,1.148-.392,1.148-.686,0-1.61-.042-1.862-.056-.084,0-.518-.042-.616-.042-.028,0-.042.014-.042.028s0,.028.056.1l.266.322c.056.056.084.084.126.084s.252-.028.294-.028c.21-.014.7-.042,1.708-.042.42,0,.462.084.462.938,0,.182-.014,2.2-.056,2.3-.07.182-.308.182-.392.182h-.434c-.728,0-1.554-.028-1.848-.042-.084-.014-.518-.056-.616-.056-.028,0-.056.014-.056.042s.014.028.07.084l.266.322c.042.056.07.1.126.1a2.124,2.124,0,0,0,.294-.042c.49-.028,1.456-.028,1.778-.028h4.48c.672,0,.742,0,.742-.168s-1.064-.938-1.176-.938-.14.042-.42.49c-.14.238-.434.238-.9.238Zm2.422-1.54c-.1-.826-1.68-1.274-1.96-1.274-.042,0-.2,0-.2.1,0,.056.1.14.252.28a3.646,3.646,0,0,1,.616.714c.476.686.518.77.784.77A.527.527,0,0,0-51.954,28.5Zm16.366-4.97c.392,0,.392.1.406.784.056,2.142.07,2.38.07,4.466,0,.294,0,2.38-.014,2.422-.042.28-.266.322-.49.322-.084,0-.812-.056-.994-.084-.112-.014-.672-.112-.714-.112a.114.114,0,0,0-.126.1c0,.084.056.1.6.308a1.408,1.408,0,0,1,1.05,1.05c.028.126.056.224.14.224a2.357,2.357,0,0,0,1.414-.7,2.2,2.2,0,0,0,.238-1.246c0-.854-.126-4.578-.126-5.348,0-1.022.028-1.484.224-1.736.238-.308.266-.336.266-.434,0-.322-.938-1.106-1.134-1.106-.126,0-.238.168-.5.532-.042.056-.14.182-.476.182h-3.052c-.112,0-.322-.028-.322-.28s.112-1.218.14-1.554c.014-.1.322-.434.322-.532,0-.266-1.288-.434-1.442-.434-.07,0-.126,0-.126.028,0,.084.056.42.056.49.014.182.014.5.014.924,0,1.358-.056,1.358-.448,1.358h-2.8c-.294,0-.336-.028-.784-.294a6.458,6.458,0,0,0-.8-.42c-.056,0-.084.042-.084.112s.056.35.056.406c.056.9.056.91.056,5.026,0,1.5,0,2.422-.056,3.752,0,.126-.028.658-.028.77,0,.084,0,.5.28.5a1.875,1.875,0,0,0,.7-.266.509.509,0,0,0,.182-.462c0-.588-.056-3.248-.056-3.78V23.95c0-.168,0-.42.406-.42h2.87c.154,0,.35,0,.35.308a9.292,9.292,0,0,1-3.024,5.642c-.238.2-.336.266-.336.336s.084.07.112.07c.546,0,2.59-1.554,3.626-3.78.042-.084.2-.49.238-.56a.249.249,0,0,1,.21-.154c.224,0,1.134,1.19,1.274,1.428a15.333,15.333,0,0,1,.938,2.016c.112.28.322.784.8.784.42,0,.532-.434.532-.714,0-.546-.574-2.114-2.562-3.416-.126-.084-.686-.42-.742-.462a.324.324,0,0,1-.14-.28c0-.084.168-.938.182-1.008.07-.21.182-.21.364-.21Zm14.868,6.342c.252-.126.98.462,1.386.952.336.42.378.476.546.476a.55.55,0,0,0,.5-.56c0-.826-1.47-1.484-2.156-1.778-.35-.154-.392-.252-.448-.77-.042-.378-.14-1.96-.14-2.268,0-.6,0-.616.518-.84s1.456-.63,1.456-1.288c0-.588-.462-.6-1.078-.63-.084,0-.812-.028-.812-.448a.607.607,0,0,1,.084-.294c.14-.224.154-.252.154-.35,0-.532-.938-.728-1.218-.728s-.476.154-.476.238.378.406.434.476c.266.322.266.714.266,1.6,0,.924,0,.924-.77.924a4.19,4.19,0,0,1-1.568-.28,2.435,2.435,0,0,0-.378-.2c-.056,0-.07.056-.07.1a1.988,1.988,0,0,0,2.072,1.246,4.643,4.643,0,0,1,.644.028.465.465,0,0,1,.112.336c.014.392.056,1.876.056,1.96,0,.868,0,.966-.35.966-2.87.042-2.87,1.526-2.87,1.722a1.586,1.586,0,0,0,1.75,1.4,2.309,2.309,0,0,0,2.086-1.33C-20.944,30.432-20.818,29.914-20.72,29.872Zm-.2-6.482a.3.3,0,0,1,.168-.056c.2,0,.658.182.658.434,0,.322-.532.49-.728.49-.1,0-.21,0-.21-.532A.424.424,0,0,1-20.916,23.39Zm-1.834,6.076c.9,0,1.092.112,1.092.35,0,.476-.854,1.148-1.68,1.148-.49,0-.924-.238-.924-.616C-24.262,29.942-23.548,29.466-22.75,29.466Zm-3.99.518c0-.406.392-2.422.392-2.87,0-.028,0-.126-.056-.126a7.053,7.053,0,0,0-.574,1.4c-.252.77-.266.826-.392.826-.336,0-.336-.9-.336-.98a9.355,9.355,0,0,1,.5-2.814c.112-.35.728-2.072.728-2.184,0-.252-.7-1.652-1.484-1.652-.084,0-.252.028-.252.112a2.812,2.812,0,0,0,.266.49,1.982,1.982,0,0,1,.322,1.162,9.431,9.431,0,0,1-.42,2.226,10.694,10.694,0,0,0-.364,2.744c0,2.17.7,3.57,1.4,3.57.322,0,.462-.266.462-.574C-26.544,31.118-26.74,30.194-26.74,29.984ZM-8.568,20.6a.277.277,0,0,0,.028.14,3.676,3.676,0,0,1,.14.938c0,.2-.112,1.442-.5,1.442a2.074,2.074,0,0,1-.952-.49c-.056-.042-.294-.336-.364-.336-.1,0-.126.154-.126.252,0,.588.532,1.008.938,1.33.308.238.378.294.378.476s-.084.252-.812.84c-.882.714-1.036,1.176-1.036,1.6a1.522,1.522,0,0,0,.756,1.19c.238.182.266.28.266.448,0,.2-.112,1.148-.112,1.372a2.463,2.463,0,0,0,2.674,2.534,2.829,2.829,0,0,0,2.982-2.52c0-.98-.63-2.086-2.24-3.388-.042-.028-.35-.294-.35-.168a.226.226,0,0,0,.056.14c1.26,1.764,1.386,2.562,1.386,3.164a1.859,1.859,0,0,1-2.016,1.9,1.865,1.865,0,0,1-1.932-2.086c0-.308,0-.966.35-.966.07,0,1.078.182,1.288.182.35,0,.728-.154.728-.406,0-.35-.658-.56-.994-.588-.98-.084-1.036-.084-1.036-.308a7.293,7.293,0,0,1,.294-1.218c.266-.882.294-.98.672-1.106.882-.308,1.036-.42,1.036-.644s-.168-.364-.5-.6c-.182-.126-.252-.224-.252-.322,0-.238.658-1.414.658-1.54C-7.168,21.486-8.148,20.562-8.568,20.6ZM-9.31,25.63a9.053,9.053,0,0,1-.336,1.5.178.178,0,0,1-.154.112.92.92,0,0,1-.714-.84c0-.532.7-1.008,1.022-1.008C-9.31,25.392-9.31,25.518-9.31,25.63Zm15.932-4.9c-.07,0-.42.056-.42.168,0,.042.042.084.154.21a1.569,1.569,0,0,1,.308.938,4.17,4.17,0,0,1-.28,1.288c-.056.084-.112.112-.28.112a4.169,4.169,0,0,1-1.666-.28,5.468,5.468,0,0,0-.49-.252c-.042,0-.07.056-.07.1,0,.07.21,1.092,1.988,1.3.238.028.266.028.266.14,0,.392-.728,3.444-.728,4.1,0,.126.112,1.344.686,1.344.294,0,.308-.084.532-.8a3.017,3.017,0,0,1,2.6-1.6,1.578,1.578,0,0,1,1.568,1.806c0,.924-.49,2.086-3.276,2.9a3.156,3.156,0,0,0-.658.238c0,.07.168.07.21.07a8.409,8.409,0,0,0,1.12-.1c1.12-.182,3.668-.742,3.668-3.108a2.363,2.363,0,0,0-2.394-2.478,4.48,4.48,0,0,0-2.618.9.665.665,0,0,1-.294.154c-.168,0-.168-.462-.168-.644a10.239,10.239,0,0,1,.406-2.576c.042-.182.07-.252.35-.294.924-.154,2.212-.518,2.212-1.316,0-.378-.28-.448-.868-.588a1.4,1.4,0,0,1-.91-.77A1.226,1.226,0,0,0,6.622,20.73Zm.966,1.5c.084,0,.658.448.658.714s-.742.49-.952.49c-.056,0-.14-.014-.14-.1C7.154,23.306,7.406,22.228,7.588,22.228Zm13.034.112c-.042,0-.14.014-.14.084,0,.014.476.644.546.742a.925.925,0,0,0,.644.364c.406,0,2.142-1.092,2.59-1.092a.14.14,0,0,1,.154.154c0,.546-3.808,4.718-4.844,5.838-.532.574-.742.8-.742,1.316a.518.518,0,0,0,.518.6c.406,0,.56-.266,1.078-1.162a6.152,6.152,0,0,1,4.8-2.814A1.81,1.81,0,0,1,27.174,28.3c0,2.464-4.046,3.64-4.186,3.682-.49.14-.546.154-.546.238,0,.056.084.084.21.084.8,0,5.726-.9,5.726-3.822a2.941,2.941,0,0,0-3.024-2.772,6.24,6.24,0,0,0-2.142.434,5.036,5.036,0,0,1-.756.308c-.084,0-.1-.042-.1-.07a20.505,20.505,0,0,1,2.548-2.828c.63-.518.952-.8.952-1.3a.944.944,0,0,0-1.05-.8,2.222,2.222,0,0,0-1.162.322,9.552,9.552,0,0,1-2.282.616C21.252,22.4,20.692,22.34,20.622,22.34Zm18.172-.994c-.07,0-.1.042-.1.084s.1.56.1.644a1.44,1.44,0,0,1-.126.56c-.112.252-.7,1.372-.77,1.5a28.164,28.164,0,0,0-2.086,3.556c-.1.21-.546,1.316-.658,1.568-.35.812-.392.9-.392,1.3,0,.91.49,1.05.658,1.05.35,0,.434-.364.462-.462.042-.14.1-.882.126-1.05.5-3.584,2.856-3.85,3.094-3.85,1.036,0,1.316,1.106,1.316,1.89,0,.294-.224,1.764-.224,2.086a1.334,1.334,0,0,0,1.246,1.47,3.844,3.844,0,0,0,2.646-1.372,3.146,3.146,0,0,0,.658-1.3c0-.042-.014-.07-.042-.07s-.224.28-.28.336a3.334,3.334,0,0,1-2.17,1.274.932.932,0,0,1-1.022-1.022c0-.2.084-1.12.084-1.33,0-.56-.1-2.422-1.82-2.422A3.07,3.07,0,0,0,37.7,26.4c-.126.084-.392.238-.546.35-.042,0-.056-.014-.056-.056a3.666,3.666,0,0,1,.28-.588,10.946,10.946,0,0,1,1.848-2.338c.686-.756.77-.84.77-1.064C40,22.284,39.27,21.346,38.794,21.346ZM52.248,32.14c0-1.3-2.38-2.03-2.87-2.03-.112,0-.154.056-.154.1s.154.14.2.168a3.958,3.958,0,0,1,1.47,1.5c.462.84.518.938.812.938A.673.673,0,0,0,52.248,32.14ZM-81.536,59.59c.434,0,.742,0,.742-.182a2.793,2.793,0,0,0-1.078-.924c-.112,0-.154.056-.462.49-.14.182-.168.238-.294.238-.238,0-.294-.14-.294-.266,0-.084.112-1.176.126-1.358.042-.392.042-.448.14-.518.2-.154.28-.224.28-.392,0-.336-.924-.924-1.008-.924s-.392.322-.476.364a1.276,1.276,0,0,1-.518.084h-2.366a1.383,1.383,0,0,1-.406-.042,6.169,6.169,0,0,0-.826-.364c-.084,0-.126.07-.126.168-.014.784-.112,1.4-.252,2.6-.056.406-.07.644-.42.644-.238,0-1.4-.1-1.666-.1a.037.037,0,0,0-.042.042c0,.014,0,.028.056.084l.28.336c.042.056.07.084.112.084.126,0,.952-.056,1.12-.056a.334.334,0,0,1,.392.35c0,.35-.49,3.3-.49,3.556s.126.336.364.336c.532,0,.6-.322.686-.7a.348.348,0,0,1,.378-.252h2.94c.238,0,.406.1.406.322a.7.7,0,0,1-.77.756c-.154,0-.924-.084-.952-.084-.07,0-.112.028-.112.07s0,.07.322.224a1.087,1.087,0,0,1,.63.56c.126.28.126.308.266.308,1.134,0,1.358-.966,1.484-1.5.126-.56.154-.658.518-.658h1.316c.476,0,.756,0,.756-.2a3.9,3.9,0,0,0-1.288-1.008c-.112,0-.14.056-.42.518-.182.28-.2.308-.406.308-.126,0-.294-.028-.294-.28s.154-1.722.168-2.044c.014-.378.028-.6.406-.6Zm-4.774-3.01c.168,0,.406.056.406.364,0,.028-.182,1.806-.2,1.876-.028.2-.056.392-.434.392h-.588a.344.344,0,0,1-.406-.35c0-.1.126-1.5.21-2.058.014-.07.042-.224.392-.224Zm-.336,3.01a.347.347,0,0,1,.406.378c0,.238-.2,1.792-.238,2.142-.028.252-.056.406-.406.406h-.574c-.112,0-.406,0-.406-.35,0-.028.224-2.282.224-2.31.042-.266.308-.266.406-.266Zm2.38,0a.337.337,0,0,1,.392.378c0,.21-.21,2.212-.224,2.3-.028.168-.154.252-.392.252H-85.2c-.224,0-.392-.112-.392-.336,0-.056.21-2.128.224-2.268a.346.346,0,0,1,.364-.322Zm.224-3.01c.112,0,.392,0,.392.392,0,.07-.126,1.778-.14,1.876-.014.224-.1.364-.392.364h-.658a.352.352,0,0,1-.406-.364c0-.084.2-1.848.238-2a.358.358,0,0,1,.406-.266Zm-6.286-2.618c0-.952-1.344-1.442-1.708-1.442-.028,0-.126,0-.126.056s.112.182.154.238a3.622,3.622,0,0,1,.574.966c.266.616.336.77.644.77C-90.426,54.55-90.328,54.214-90.328,53.962Zm-1.134,3.178c0-.924-1.316-1.4-1.666-1.4-.084,0-.154.014-.154.084a1.833,1.833,0,0,0,.168.182,3.439,3.439,0,0,1,.546.938c.168.434.294.728.686.728C-91.644,57.672-91.462,57.448-91.462,57.14Zm9.646-2.744c.476,0,.742,0,.742-.2s-1.05-.938-1.176-.938c-.084,0-.112.042-.392.364-.336.392-.406.392-1.008.392h-3.374c-.364,0-.462-.042-.462-.168a2.15,2.15,0,0,1,.252-.616c.042-.056.364-.266.364-.336,0-.238-1.008-.8-1.148-.8-.112,0-.126.056-.154.462a12.553,12.553,0,0,1-.994,3.094c-.084.2-.364.756-.364.8,0,.014,0,.056.042.056a6.853,6.853,0,0,0,1.33-1.624c.252-.392.322-.49.672-.49Zm-9.156,9.7a6.337,6.337,0,0,0-.364-1.484,6.37,6.37,0,0,1-.126-1.008c0-.63,1.442-4.7,1.442-5.292,0-.07-.042-.1-.084-.1-.07,0-.1.07-.112.1-.056.084-.616,1.554-.91,2.338-.854,2.212-1.092,2.282-1.414,2.38-.07.028-.574.028-.574.126,0,.056.336.35.392.42.392.42.42.6.5,2.2.028.392.126,1.008.588,1.008A.621.621,0,0,0-90.972,64.1Zm16.8-8.5c-.1,0-.28,0-.28-.21a5.963,5.963,0,0,1,.392-.98c.336-.9.378-.994.616-1.12.084-.042.154-.084.154-.168,0-.126-.182-.252-.2-.252-.224-.1-1.218-.56-1.316-.56s-.112.084-.112.322a17.052,17.052,0,0,1-2.03,6.272c-.21.364-.224.392-.224.476,0,.028.014.07.084.07a9.8,9.8,0,0,0,1.932-2.7c.35-.7.392-.77.826-.77h1.75c.126,0,.28,0,.28.2a18.08,18.08,0,0,1-4.046,7.644,11.621,11.621,0,0,1-.966.9c-.056.028-.21.126-.21.2,0,.028.014.056.028.056.406,0,3.094-1.512,4.788-4.774a20.456,20.456,0,0,0,1.5-3.738.578.578,0,0,1,.434-.476c.07,0,.1.056.336.476a11.549,11.549,0,0,0,1.064,1.5,1.4,1.4,0,0,1,.336,1.148c0,1.218-.056,3.094-.112,5.082,0,.1-.028.532-.028.6,0,.112,0,.35.406.35a.769.769,0,0,0,.77-.868c0-.574-.042-3.08-.042-3.6,0-1.036.028-1.036.14-1.036.042,0,.14.07.7.5a10.109,10.109,0,0,0,1.316.826c.07,0,.084-.042.14-.14a1.417,1.417,0,0,1,1.12-.672c.112,0,.126-.042.126-.07s-.014-.042-.238-.112a11.618,11.618,0,0,1-2.982-1.582.654.654,0,0,1-.308-.658c0-.532.028-2.926.028-3.4,0-.42,0-.854.168-.994.224-.2.294-.252.294-.392,0-.182-.154-.224-.392-.308a10.306,10.306,0,0,0-1.036-.308c-.07,0-.084.014-.084.14,0,.7.028,3.752.028,4.368,0,.112,0,.322-.084.322a5.8,5.8,0,0,1-1.428-1.694c-.252-.378-.28-.42-.364-.42-.056,0-.07.028-.07.07s.07.21.07.252c0,.07-.042.1-.084.1a6.335,6.335,0,0,0-.812-.392c-.112,0-.14.028-.378.322a.58.58,0,0,1-.56.21Zm-1.19,1.918a2.454,2.454,0,0,0,.322.49,3.777,3.777,0,0,1,.434,1.092c.14.644.182.826.448.826.336,0,.6-.5.6-.868,0-.938-1.372-1.624-1.666-1.624C-75.278,57.434-75.348,57.448-75.362,57.518Zm14.854-1.806c-.182.2.49,1.134,1.19,1.134a1.069,1.069,0,0,0,.476-.182,17.808,17.808,0,0,1,4.172-1.5c.028,0,.084,0,.084.028a2.738,2.738,0,0,1-.35.294c-2.016,1.806-2.03,4.774-2.03,5.39a2.632,2.632,0,0,0,2.856,3c.084,0,1.624,0,1.624-.742,0-.336-.252-.518-.686-.518-.126,0-1.12.084-1.33.084-.826,0-1.708-.154-1.708-2.506,0-3.612,1.988-5.25,3.766-5.25.154,0,.952.154,1.134.154a.559.559,0,0,0,.574-.518c0-.476-.63-.672-1.134-.672a37.965,37.965,0,0,0-5.376,1.26,9.046,9.046,0,0,1-2.716.6C-60.046,55.768-60.452,55.642-60.508,55.712Zm9.646.938a1.292,1.292,0,0,0-.35-.07c-.042,0-.2,0-.2.084s.056.126.126.182a3.627,3.627,0,0,1,.924,1.12c.14.336.294.742.63.742.182,0,.406-.154.406-.518C-49.322,57.518-50.036,56.916-50.862,56.65Zm-1.806.574c-.126-.028-.28-.014-.28.056a.759.759,0,0,0,.14.252,3.664,3.664,0,0,1,.7,1.092c.224.546.35.812.6.812a.568.568,0,0,0,.49-.574A2.024,2.024,0,0,0-52.668,57.224Zm12.46-4.62a.277.277,0,0,0,.028.14,3.676,3.676,0,0,1,.14.938c0,.2-.112,1.442-.5,1.442a2.074,2.074,0,0,1-.952-.49c-.056-.042-.294-.336-.364-.336-.1,0-.126.154-.126.252,0,.588.532,1.008.938,1.33.308.238.378.294.378.476s-.084.252-.812.84c-.882.714-1.036,1.176-1.036,1.6a1.522,1.522,0,0,0,.756,1.19c.238.182.266.28.266.448,0,.2-.112,1.148-.112,1.372a2.463,2.463,0,0,0,2.674,2.534,2.829,2.829,0,0,0,2.982-2.52c0-.98-.63-2.086-2.24-3.388-.042-.028-.35-.294-.35-.168a.226.226,0,0,0,.056.14c1.26,1.764,1.386,2.562,1.386,3.164a1.859,1.859,0,0,1-2.016,1.9,1.865,1.865,0,0,1-1.932-2.086c0-.308,0-.966.35-.966.07,0,1.078.182,1.288.182.35,0,.728-.154.728-.406,0-.35-.658-.56-.994-.588-.98-.084-1.036-.084-1.036-.308a7.293,7.293,0,0,1,.294-1.218c.266-.882.294-.98.672-1.106.882-.308,1.036-.42,1.036-.644s-.168-.364-.5-.6c-.182-.126-.252-.224-.252-.322,0-.238.658-1.414.658-1.54C-38.808,53.486-39.788,52.562-40.208,52.6Zm-.742,5.026a9.053,9.053,0,0,1-.336,1.5.178.178,0,0,1-.154.112.92.92,0,0,1-.714-.84c0-.532.7-1.008,1.022-1.008C-40.95,57.392-40.95,57.518-40.95,57.63Zm17.22,1.932a1.46,1.46,0,0,1-.8-.154c-.49-.238-.546-.266-.616-.266s-.07.1-.07.14a2.91,2.91,0,0,0,.042.322c.028.252.028.714.028.938,0,.392-.07,2.506-.084,3.052,0,.154-.042.91-.042.98,0,.266.182.308.42.308a.633.633,0,0,0,.7-.434c.1-.364.112-.392.476-.392h3.584c.294,0,.35.14.378.252.056.294.1.462.448.462a.708.708,0,0,0,.77-.756c0-.028-.07-2.688-.07-3.192a.669.669,0,0,1,.182-.532c.2-.2.238-.238.238-.308,0-.2-.9-.98-1.05-.98-.07,0-.084.028-.364.308-.238.238-.322.252-.5.252h-.868c-.168,0-.378-.042-.42-.266-.014-.07-.014-1.778-.014-1.988,0-.378.21-.42.434-.42h2.842c.462,0,.742,0,.742-.2a3.909,3.909,0,0,0-1.092-.924c-.126,0-.168.056-.518.518-.182.238-.252.238-.9.238h-1.106a.376.376,0,0,1-.35-.168c-.042-.1-.056-1.764-.056-2.03,0-.322.154-.392.42-.434a20.037,20.037,0,0,1,2.058-.322c.252,0,.378-.028.378-.154,0-.168-1.316-1.036-1.358-1.036s-.56.364-.672.42a16.609,16.609,0,0,1-4.4,1.316c-.112.028-.672.126-.672.182s.154.1.35.1a13.6,13.6,0,0,0,1.386-.07c.182-.014,1.036-.14,1.232-.14.28,0,.35.21.35.392v1.568c0,.378-.28.378-.448.378H-23.6c-.658,0-1.232-.014-1.918-.056-.084,0-.518-.042-.616-.042-.028,0-.042.014-.042.028s0,.028.056.1l.266.322c.056.056.084.084.126.084s.252-.028.294-.028c.14-.014.546-.042,1.778-.042h.952c.266,0,.378.112.406.28.014.042.014,1.708.014,1.974,0,.168,0,.42-.42.42Zm-.014,4.116c-.392,0-.42-.224-.42-.462v-2.9c0-.308.182-.392.42-.392h3.682c.42,0,.42.266.42.448,0,.42-.014,2.45-.014,2.912,0,.308-.182.392-.42.392ZM-28.532,52.66a.226.226,0,0,0,.056.1,7.162,7.162,0,0,1,.98,1.33c.2.322.336.364.462.364a.534.534,0,0,0,.5-.56c0-.98-1.708-1.358-1.89-1.358A.111.111,0,0,0-28.532,52.66Zm-1.442,3.122a4.168,4.168,0,0,1,1.064,1.372c.14.28.266.378.406.378a.517.517,0,0,0,.462-.546c0-.826-1.274-1.288-1.708-1.288C-29.862,55.7-29.974,55.754-29.974,55.782Zm.028,5.6c0,.07.378.14.448.182.658.322.826.7.854,2.03,0,.364.014,1.2.714,1.2a.607.607,0,0,0,.574-.658,4.226,4.226,0,0,0-.126-.714,8.444,8.444,0,0,1-.462-2.2c0-.56.756-3.276.882-3.892.028-.1.21-1.162.21-1.2,0-.084-.056-.14-.1-.14s-.168.308-.2.392a22.245,22.245,0,0,1-1.68,4.354.873.873,0,0,1-.868.546C-29.778,61.284-29.946,61.3-29.946,61.382Zm27.9,2.688c.406,0,.49-.014.49-.182a3.733,3.733,0,0,0-.938-.938c-.14,0-.49.63-.616.7a1.215,1.215,0,0,1-.532.056h-.882c-.224,0-.392,0-.392-.462,0-.6,0-.742.378-.742h1.792c.56,0,.63,0,.63-.2s-.8-.84-.854-.84c-.14,0-.518.574-.63.616a1.7,1.7,0,0,1-.546.042H-4.55c-.238,0-.364-.028-.364-.5,0-.336.028-.476.378-.476h1.764c.574,0,.63,0,.63-.2,0-.168-.784-.84-.854-.84-.14,0-.518.574-.63.63a1.7,1.7,0,0,1-.546.042h-.364c-.378,0-.378-.2-.378-.5s0-.476.364-.476H-2.3c.364,0,.6,0,.6-.2A4.063,4.063,0,0,0-2.73,58.68c-.154,0-.5.644-.616.7a1.29,1.29,0,0,1-.546.056h-1.26c-.084,0-.182,0-.182-.084a5.321,5.321,0,0,1,1.428-1.2c.154-.07.28-.126.28-.2,0-.126-.168-.182-.224-.21a5.391,5.391,0,0,0-.728-.308c-.1,0-.14.028-.252.308a5.36,5.36,0,0,1-1.008,1.54.6.6,0,0,1-.49.154h-.938c-.154,0-.42-.014-.42-.21a4.207,4.207,0,0,1,.6-.812c.042-.042.336-.154.336-.21,0-.21-.756-.672-.966-.672-.07,0-.112.364-.14.42a22.366,22.366,0,0,1-2.9,3.836.584.584,0,0,0-.084.112s0,.028.042.028a14.767,14.767,0,0,0,1.82-1.484c.252-.238.28-.266.336-.266a.124.124,0,0,1,.126.1c.014.07.028,1.022.028,1.218s-.1,2.142-.112,2.478c0,.1-.042.518-.042.6a.339.339,0,0,0,.364.336c.476,0,.6-.266.63-.5s.1-.336.406-.336Zm-4.074-2.926c.364,0,.364.126.364.56,0,.35-.07.42-.364.42H-7.294c-.308,0-.364-.07-.364-.476s.042-.5.364-.5Zm-1.148-.364c-.378,0-.392-.154-.392-.49s.014-.49.392-.49h1.12c.392,0,.392.168.392.434,0,.406,0,.546-.392.546ZM-6.118,62.5c.336,0,.364.112.364.588s0,.616-.364.616h-1.19c-.35,0-.35-.168-.35-.462,0-.658,0-.742.35-.742Zm-5.894-9.3a1.4,1.4,0,0,1-.63-.14,3.88,3.88,0,0,0-.924-.364.108.108,0,0,0-.112.1c0,.084.084.434.084.518.028.42.042,2.408.042,3.052.014,1.148.014,1.148.35,1.148a.514.514,0,0,0,.532-.336c.07-.154.182-.154.336-.154s.322.014.322.294v5.054c0,.266,0,.434-.574.434a.206.206,0,0,1-.224-.154c-.028-.1-.028-1.078-.028-1.274a12.879,12.879,0,0,1,.1-2.044c.126-.084.224-.154.224-.266,0-.266-1.078-.392-1.12-.392s-.1,0-.1.07.07.658.084.77c.042.406.042,2.52.042,3.066,0,.364-.056.406-.462.406-.056,0-.28-.042-.322-.042a.134.134,0,0,0-.126.126A7.5,7.5,0,0,0-14.1,64.1c.1.224.14.308.238.308s.14-.056.266-.224a9.176,9.176,0,0,1,2.226-.938A16.921,16.921,0,0,0-8.82,62.236c0-.014-.014-.028-.042-.028a1.982,1.982,0,0,0-.28.056c-.546.126-1.736.308-1.792.308a.215.215,0,0,1-.238-.168c-.014-.084-.014-2.268-.014-2.562,0-.238.21-.252.308-.252H-10c.6,0,.672,0,.672-.154a3.182,3.182,0,0,0-.826-.8c-.084,0-.112.042-.378.406a.378.378,0,0,1-.336.182c-.322,0-.322-.1-.322-.42V57.2c0-.056,0-.168.154-.168.1,0,.112.042.14.182a.3.3,0,0,0,.322.224c.63,0,.63-.546.63-.868,0-.364-.042-2.142-.042-2.534,0-.168.014-.238.1-.308.14-.14.266-.252.266-.336,0-.14-.8-.616-.924-.616-.07,0-.308.294-.378.336a.712.712,0,0,1-.476.1Zm.714.378a.369.369,0,0,1,.294.084,5.482,5.482,0,0,1,.1,1.344c0,.21,0,1.372-.042,1.484-.056.154-.224.154-.336.154h-1.008c-.378,0-.378-.07-.378-.8,0-.266,0-1.96.056-2.114s.224-.154.336-.154Zm6.09-.1c.042.056.07.084.126.084s.252-.028.294-.028c.322-.028,1.162-.042,1.288-.042.42,0,.42.154.42.756,0,.49,0,.63-.462.63-.28,0-1.512-.1-1.764-.1-.028,0-.056.014-.056.042s0,.014.056.084l.28.322c.042.056.07.1.126.1.028,0,.168-.028.2-.028.224-.028.966-.042,1.218-.042.2,0,.406.028.406.378,0,.854-.014.994-.406.994-.28,0-1.526-.084-1.778-.084-.014,0-.042,0-.042.028s0,.028.056.1l.266.322c.056.056.084.084.126.084s.182-.014.21-.014c.238-.014.826-.042,1.092-.042.182,0,.42,0,.434.294.014.252.028.42.336.42a.526.526,0,0,0,.588-.5c0-.392-.07-2.114-.07-2.464,0-.686,0-.77.224-.924.252-.182.28-.21.28-.28,0-.168-.9-.714-.952-.714s-.266.182-.308.21a.61.61,0,0,1-.322.07c-.322,0-1.078-.028-1.456-.056-.112,0-.588-.042-.686-.042-.028,0-.056,0-.056.028s0,.028.056.1Zm-3.808-.112c.056.07.084.1.126.1s.168-.028.2-.028C-8.428,53.4-7.6,53.4-7.336,53.4c.378,0,.448.112.448.5,0,.854,0,.952-.392.952-.294,0-1.288-.042-1.372-.042s-.434-.056-.518-.056a.045.045,0,0,0-.042.042c0,.014.014.042.056.1l.266.308c.056.07.084.1.126.1s.168-.028.2-.028c.252-.042,1.036-.042,1.288-.042.406,0,.406.308.406.462,0,.812,0,.98-.42.98-.308,0-1.694-.1-1.974-.1-.014,0-.042,0-.042.028s0,.028.056.1l.266.322c.056.056.07.084.126.084.028,0,.168-.028.2-.028.252-.042,1.05-.042,1.316-.042.308,0,.434.1.462.322s.042.35.308.35a.6.6,0,0,0,.588-.588c0-.252-.1-1.386-.1-1.624s0-1.778.028-1.9c.014-.056.2-.238.2-.28a1.6,1.6,0,0,0-.728-.616c-.07,0-.28.21-.322.252a.682.682,0,0,1-.392.07c-.308,0-1.708-.1-1.988-.1a.045.045,0,0,0-.042.042c0,.014,0,.014.056.084Zm14.462-.21c-.084,0-.2.042-.2.14,0,.014.14.336.154.378a1.763,1.763,0,0,1,.126.686c0,.392-.126,1.54-.182,2a31.926,31.926,0,0,0-.322,3.892c0,2.814.868,3.864,2.688,3.864a6.547,6.547,0,0,0,4.7-2.408.065.065,0,0,0-.07-.07c-.056,0-1.12.588-1.33.686a6.9,6.9,0,0,1-2.94.728c-1.876,0-2.142-1.26-2.142-2.674A33.65,33.65,0,0,1,6.524,55.4a6.439,6.439,0,0,0,.266-.784C6.79,54.3,6.174,53.164,5.446,53.164Zm13.3,2.548c-.168.2.49,1.134,1.19,1.134a1.012,1.012,0,0,0,.49-.182,18.34,18.34,0,0,1,4.158-1.5c.028,0,.084,0,.084.028a2.509,2.509,0,0,1-.336.294c-2.03,1.806-2.044,4.774-2.044,5.39a2.636,2.636,0,0,0,2.87,3c.084,0,1.624,0,1.624-.742,0-.336-.266-.518-.7-.518-.112,0-1.12.084-1.33.084-.826,0-1.708-.154-1.708-2.506,0-3.612,1.988-5.25,3.766-5.25.168,0,.966.154,1.148.154a.556.556,0,0,0,.56-.518c0-.476-.63-.672-1.12-.672a37.525,37.525,0,0,0-5.376,1.26,9.014,9.014,0,0,1-2.73.6C19.222,55.768,18.8,55.642,18.746,55.712Zm16.422-.91c-.028,0-.084.014-.084.056a1.891,1.891,0,0,0,.112.476,3.889,3.889,0,0,1,.1.812c0,.364-.2,2.086-.2,2.478,0,2.674,1.764,4.144,2.66,4.144.238,0,.532-.154.532-.434a3.512,3.512,0,0,0-.112-.462,1.89,1.89,0,0,1-.084-.56,3.928,3.928,0,0,1,.182-1.064,1.68,1.68,0,0,0,.042-.28c0-.056-.028-.112-.07-.112-.112,0-.35.336-.434.476-.42.7-.476.77-.714.77-.434,0-1.162-1.022-1.162-2.436a4.945,4.945,0,0,1,.336-1.806,1.918,1.918,0,0,0,.168-.56C36.442,55.922,35.812,54.8,35.168,54.8Zm6.678,1.288c-.07,0-.126.028-.126.07,0,.084.56.518.672.63.742.742.742,1.33.742,2.492,0,.182,0,.938.686.938s.7-.658.7-.924a3.484,3.484,0,0,0-1.246-2.674A2.725,2.725,0,0,0,41.846,56.09Zm13.748-2.268a9.633,9.633,0,0,1-.084,1.232c-.028.14-.168.21-.462.21a2.471,2.471,0,0,1-1.358-.378c-.042-.028-.378-.224-.392-.224-.042,0-.056.07-.056.1,0,.546.882,1.26,1.876,1.33.224.014.294.014.294.084,0,.014-.112,1.848-.126,1.89-.1.266-1.036.266-1.372.266a5.447,5.447,0,0,1-1.694-.252,3.449,3.449,0,0,0-.532-.2c-.042,0-.042.028-.042.056a1.573,1.573,0,0,0,.406.644,2.855,2.855,0,0,0,1.932.574c.182,0,1.022-.07,1.218-.07.14,0,.14.084.14.21.014.378.028,1.316.028,1.6,0,.476,0,.518-.154.518-.1,0-.616-.042-.742-.042-1.666,0-2.52.644-2.52,1.484a1.624,1.624,0,0,0,1.792,1.512,2.712,2.712,0,0,0,2.38-1.414c.07-.154.1-.224.182-.224a2.5,2.5,0,0,1,.98.756c.5.6.56.672.756.672a.542.542,0,0,0,.476-.588c0-.658-.9-1.4-1.988-1.848-.294-.112-.294-.168-.35-.63-.014-.14-.168-1.75-.168-2.016,0-.14.042-.154.476-.308.644-.21,2.2-.854,2.2-1.344,0-.308-.364-.336-.938-.378-.07,0-.364-.07-.434-.07-.028,0-.07,0-.07.042s.056.21.056.252c0,.448-1.008.728-1.162.728-.182,0-.182-.084-.182-.406,0-.574.056-1.316.07-1.358.014-.21.042-.224.154-.252.392-.126,1.344-.406,1.344-.924,0-.224-.266-.266-.406-.266a1.675,1.675,0,0,0-.5.112,1.634,1.634,0,0,1-.392.126c-.056,0-.056-.056-.056-.084a3.271,3.271,0,0,1,.21-.91,4.022,4.022,0,0,0,.35-.742c0-.294-.756-.644-1.134-.644-.084,0-.35,0-.35.1,0,.028.084.168.1.21A2.661,2.661,0,0,1,55.594,53.822Zm-.336,8.456c.056.126-.07.462-.322.686a2.31,2.31,0,0,1-1.386.518c-.392,0-1.12-.168-1.12-.7,0-.8,1.47-.8,1.5-.8C54.18,61.984,55.16,62.04,55.258,62.278Zm10.4-6.23c-.042.014-.07.084-.07.14,0,.574,1.162,1.162,1.47,1.162a13.013,13.013,0,0,0,1.5-.56,17.34,17.34,0,0,1,2.478-.56c.28,0,.28.084.28.84,0,.714,0,.8-.392.854-1.358.21-1.358,1.75-1.358,1.932,0,1.12.672,1.834,1.428,1.834.042,0,.252-.028.294-.028.14,0,.14.154.14.2a4.554,4.554,0,0,1-.784,2.058c-.1.14-.672.812-.672.84s.042.056.07.056c.434,0,2.548-1.736,2.548-4.452a4.438,4.438,0,0,0-.406-1.89A1.828,1.828,0,0,1,72,57.56c0-1.232.028-1.428.224-1.512a6.531,6.531,0,0,1,1.512-.14c.266,0,1.568.126,1.862.126.49,0,.756-.126.756-.49,0-.49-.616-.546-.8-.546-.112,0-.7.07-.84.07a3.076,3.076,0,0,1-1.232-.28c-.826-.35-1.232-.56-1.232-.882,0-.07.056-.364.056-.434,0-.448-.546-.7-1.162-.7-.084,0-.294,0-.294.1,0,.07.224.322.238.392a8.362,8.362,0,0,1,.2,1.9c0,.364-.084.378-.812.5a28.3,28.3,0,0,1-3.808.476C66.472,56.146,65.8,56.062,65.66,56.048Zm6.608-1.638a3.035,3.035,0,0,1,1.064.742c0,.21-.91.238-.966.238-.2,0-.252-.042-.252-.266C72.114,54.76,72.17,54.438,72.268,54.41Zm-.952,4.424a2.722,2.722,0,0,1,.182.98c0,.224-.014,1.064-.56,1.064a1.015,1.015,0,0,1-.91-1.12c0-.714.448-1.288.8-1.288A.592.592,0,0,1,71.316,58.834ZM82.432,61.7a1.554,1.554,0,0,0-.014,3.108,1.554,1.554,0,1,0,.014-3.108Zm-.014.392a1.174,1.174,0,0,1,1.19,1.176,1.156,1.156,0,0,1-1.162,1.148,1.174,1.174,0,0,1-1.176-1.176A1.133,1.133,0,0,1,82.418,62.1Z" transform="translate(128.596 11.997)" fill="#fff" stroke="#fff" stroke-width="0.25"/>
</svg>
