<svg xmlns="http://www.w3.org/2000/svg" width="627.517" height="52.86" viewBox="0 0 627.517 52.86">
  <path id="パス_130461" data-name="パス 130461" d="M-315.469-15.169c.154,5.544.154,9.779.231,11.55,1.771,2,7.161,4.774,13.4,4.774,9.086,0,17.094-5.775,17.094-14.861,0-6.237-3.773-10.318-9.086-14.245l-2.31-1.694c-4-3-6.93-5.775-6.93-10.164,0-4.466,3.08-8.778,8.393-8.778,6.622,0,8.624,5.544,9.24,11.165l2.31-.231c.077-3.7,0-7.777.231-10.934-.616-.231-1.848-.77-3.311-1.309a24.733,24.733,0,0,0-7.623-1.309c-9.24,0-15.785,5.775-15.785,13.937,0,6.391,4.928,10.7,8.7,13.629l2.233,1.694c4.389,3.465,6.93,6.468,6.93,10.7,0,5.852-3.542,9.7-9.086,9.7-8.393,0-11.627-8.162-12.4-13.86ZM-273.427.924a4.7,4.7,0,0,0,4.7-5,4,4,0,0,0-3.927-4.312,4.78,4.78,0,0,0-4.774,5.082A3.989,3.989,0,0,0-273.427.924Zm42.735-50.9h-20.1l-.539,2.156c6.314.539,6.853,1,5.775,6.7L-251.79-9.163c-1.155,5.929-1.617,6.545-7.546,7.007L-259.875,0h20.251l.462-2.156c-6.237-.462-6.776-1-5.621-7.007l6.16-31.955c1.155-5.7,1.54-6.16,7.469-6.7Zm5.082,50.9a4.7,4.7,0,0,0,4.7-5,4,4,0,0,0-3.927-4.312,4.78,4.78,0,0,0-4.774,5.082A3.989,3.989,0,0,0-225.61.924Zm72.072-50.9h-17.479l-.616,2.156c5.621.308,7.007,1.155,6.7,4.774a119.1,119.1,0,0,1-2,13.167l-3.465,18.4h-.231l-22.253-38.5h-11.627l-.539,2.156c4.081.231,5.544.693,6.468,2.31.924,1.694,1.232,2.926.385,7.161l-3.85,18.326c-1.54,7.161-2.387,10.626-3.234,13.244-1,3.388-2.772,4.389-6.776,4.62L-212.6,0h17.864l.462-2.156c-5.39-.385-6.776-1.232-6.545-4.774a99.233,99.233,0,0,1,1.925-12.936l3.927-20.02h.231l22.638,40.5h2.618l5.775-30.492a130.725,130.725,0,0,1,3-13.09c1-3.388,2-4.62,6.7-4.851Zm32.956.462c-2.849,0-4.466,2.7-4.466,4.774.077,2.156,1.386,3.619,3.388,3.619a4.506,4.506,0,0,0,4.389-4.7C-117.271-47.817-118.349-49.511-120.582-49.511Zm.462,40.887c-1.848,1.694-4.389,3.542-5.313,3.542-.462,0-.616-.616-.154-2.618l5.159-20.636c.924-3.773.847-6.314-.924-6.314-2.233,0-7.623,3.157-12.089,7.469l.924,1.848c2.233-1.848,4.543-3.234,5.159-3.234.539,0,.462.77.077,2.541l-4.7,19.25c-1.54,6.391-.385,7.7,1.309,7.7,2.618,0,8.547-4.158,11.627-7.854ZM-105.644.924C-99.33.924-91.4-4.851-91.4-10.857c0-3.465-2.079-5.852-6.622-9.163-2.849-2.156-5.082-4.081-5.082-6.7A3.886,3.886,0,0,1-99.176-30.8c2.618,0,4.62,1.694,6.16,3.7a1.174,1.174,0,0,0,1.771.308,4.2,4.2,0,0,0,2.079-3.388c0-2.156-2.695-4.466-6.16-4.466-2.618,0-6.314,1.617-8.778,3.773-3.234,2.695-4.158,5.236-4.158,7.623,0,4.158,3.465,6.93,6.853,9.548,3.7,2.849,4.62,4.466,4.62,6.314a4.475,4.475,0,0,1-4.774,4.312c-2.618,0-5.544-1.771-7.7-4.851-.462-.616-1-.77-2-.231a4.278,4.278,0,0,0-2.387,3.388C-113.575-1.925-109.34.924-105.644.924Zm88.55-37.576c.308-5.313.693-9.779.924-12.166a43.041,43.041,0,0,0-13.706-2.387c-19.173,0-32.725,12.628-32.725,30.338,0,14.091,9.548,22.022,23.1,22.022,6.083,0,11.55-1.771,16.324-2.926a18.831,18.831,0,0,1,.385-6.006l1.232-6.314c1.078-5.775,1.463-6.083,5.7-6.7l.539-2.079H-34.881l-.539,2.079c7.623.77,8.008,1,6.93,6.7l-1.463,7.084c-.847,4.158-3.85,5.39-8.239,5.39-10.395,0-16.17-8.239-16.17-19.712,0-14.476,9.009-27.1,22.638-27.1,7.623,0,12.089,3.157,12.243,12.012ZM32.032-1.386A9.27,9.27,0,0,1,26.95-5a57.539,57.539,0,0,1-4.774-8.162C20.4-16.709,18.4-21.483,17.633-23.485c6.237-2.156,12.012-6.853,12.012-14.63,0-4.62-2-7.7-4.774-9.471-2.695-1.848-6.853-2.387-11.088-2.387H-3.465l-.462,2.156c6.083.539,6.391.847,5.236,7.084L-4.7-9.779C-6.006-3.157-6.468-2.772-12.32-2.156L-12.859,0H7.084l.462-2.156c-6.083-.539-6.622-1-5.313-7.7L4.389-21.868h3c2.695,0,3.7.693,4.851,3.542C13.86-14.4,15.477-10.549,17.4-6.93,20.1-1.848,22.638.308,30.492.616h.924ZM4.928-24.409,8.547-43.274c.385-2,.77-2.926,1.386-3.388a5.65,5.65,0,0,1,3.388-.77c5.313,0,8.7,3.311,8.7,9.933a13.326,13.326,0,0,1-5.7,11.165c-2.233,1.463-4.851,1.925-8.085,1.925Zm62.216-26.8c-16.17,0-28.1,14.4-28.1,30.492,0,13.09,8.393,21.868,20.559,21.868,16.478,0,28.182-13.86,28.182-30.261C87.78-42.042,79.541-51.205,67.144-51.205ZM66.6-48.433c9.548,0,13.09,8.162,13.09,18.326,0,12.782-7.161,28.49-19.481,28.49-9.086,0-13.167-7.931-13.167-18.172C47.047-33.495,54.978-48.433,66.6-48.433Zm98.714-1.54H148.764l-.462,2.156,1.925.231c3.927.539,4.312,1.155,2.695,5.39-2.849,7.392-9.086,20.79-13.86,31.185h-.154l-6.314-38.115H130.13L112.266-11.165h-.154L108.8-42.427c-.385-4.235.077-4.7,3.08-5.159l1.925-.231.539-2.156H96.327l-.462,2.156c5.159.539,5.544.924,6.237,7.315L106.8.77h2.618l18.1-37.5h.231L133.98.77h2.541C146.454-20.713,153-34.573,156.156-40.579c3.157-6.237,3.7-6.545,8.7-7.238Zm26.642,0h-20.1l-.539,2.156c6.314.539,6.853,1,5.775,6.7L170.863-9.163c-1.155,5.929-1.617,6.545-7.546,7.007L162.778,0h20.251l.462-2.156c-6.237-.462-6.776-1-5.621-7.007l6.16-31.955c1.155-5.7,1.54-6.16,7.469-6.7Zm57.134,0H231.616L231-47.817c5.621.308,7.007,1.155,6.7,4.774a119.1,119.1,0,0,1-2,13.167l-3.465,18.4H232l-22.253-38.5H198.121l-.539,2.156c4.081.231,5.544.693,6.468,2.31.924,1.694,1.232,2.926.385,7.161l-3.85,18.326c-1.54,7.161-2.387,10.626-3.234,13.244-1,3.388-2.772,4.389-6.776,4.62L190.036,0H207.9l.462-2.156c-5.39-.385-6.776-1.232-6.545-4.774a99.233,99.233,0,0,1,1.925-12.936l3.927-20.02h.231L230.538.616h2.618l5.775-30.492a130.725,130.725,0,0,1,3-13.09c1-3.388,2-4.62,6.7-4.851Zm47.124,13.321c.308-5.313.693-9.779.924-12.166a43.041,43.041,0,0,0-13.706-2.387c-19.173,0-32.725,12.628-32.725,30.338,0,14.091,9.548,22.022,23.1,22.022,6.083,0,11.55-1.771,16.324-2.926a18.832,18.832,0,0,1,.385-6.006l1.232-6.314c1.078-5.775,1.463-6.083,5.7-6.7l.539-2.079H278.432l-.539,2.079c7.623.77,8.008,1,6.93,6.7L283.36-7.007c-.847,4.158-3.85,5.39-8.239,5.39-10.395,0-16.17-8.239-16.17-19.712,0-14.476,9.009-27.1,22.638-27.1,7.623,0,12.089,3.157,12.243,12.012ZM306.845.924a4.7,4.7,0,0,0,4.7-5,4,4,0,0,0-3.927-4.312,4.78,4.78,0,0,0-4.774,5.082A3.989,3.989,0,0,0,306.845.924Z" transform="translate(315.725 51.455)" fill="#fff" stroke="#fff" stroke-width="0.5"/>
</svg>
