<svg xmlns="http://www.w3.org/2000/svg" width="498.249" height="71.39" viewBox="0 0 498.249 71.39">
  <path id="パス_130983" data-name="パス 130983" d="M-209.128.437c.23,0,.276-.046.667-.391a1.188,1.188,0,0,1,.874-.3,3,3,0,0,1,.92.23,7.391,7.391,0,0,0,2.484.46,4.876,4.876,0,0,0,4.991-4.968c0-1.771-.621-3.611-5.267-5.221-3.013-1.058-4.393-1.748-4.393-3.657a2.942,2.942,0,0,1,3.128-3.036,5.331,5.331,0,0,1,4.692,2.967c.368.6.414.667.6.667a.362.362,0,0,0,.391-.368c0-.138-1.081-2.852-1.242-3.22-.23-.6-.3-.805-.575-.805-.161,0-.207.046-.529.3a.875.875,0,0,1-.506.138c-.161,0-1.127-.207-1.38-.253a9.085,9.085,0,0,0-1.633-.184,4.334,4.334,0,0,0-4.6,4.462c0,2.737,2.116,3.956,5.313,5.06,2.921,1.012,4.3,1.748,4.3,3.841a3.315,3.315,0,0,1-3.4,3.473,6.8,6.8,0,0,1-5.4-3.151c-.552-.851-.6-.966-.851-.966a.487.487,0,0,0-.506.483c0,.138.989,2.737,1.15,3.151C-209.472.3-209.426.437-209.128.437Zm15.479,0a1.536,1.536,0,0,0,1.541-1.518A1.522,1.522,0,0,0-193.648-2.6a1.5,1.5,0,0,0-1.495,1.518A1.512,1.512,0,0,0-193.648.437ZM-180.861,0c.276,0,.621,0,.621-.368s-.368-.368-.483-.368c-1.541,0-2.369,0-2.576-1.2-.069-.368-.069-.391-.069-6.486,0-1.058,0-6.233.092-6.555.3-1.035,1.288-1.058,1.978-1.058.851,0,1.058,0,1.058-.345,0-.391-.345-.391-.621-.391h-6.762c-.322,0-.667,0-.667.391,0,.368.368.368.506.368,1.518,0,2.346,0,2.576,1.173.069.414.069,5.612.069,6.555,0,.667,0,5.957-.069,6.348-.23,1.2-1.334,1.2-2,1.2-.9,0-1.081,0-1.081.368s.345.368.644.368Zm5.957.437a1.536,1.536,0,0,0,1.541-1.518A1.522,1.522,0,0,0-174.9-2.6,1.5,1.5,0,0,0-176.4-1.081,1.512,1.512,0,0,0-174.9.437ZM-163.449,0c.437,0,.736,0,.736-.368s-.345-.368-.529-.368c-.989,0-2.254,0-2.53-1.518-.069-.437-.069-5.014-.069-5.934s.023-4.922.023-5.75c0-.253.069-.437.184-.437s.161.092.575.759c.115.161,9.131,13.708,9.269,13.869a.4.4,0,0,0,.3.184c.3,0,.3-.391.3-.506,0-1.909-.023-10.419-.023-12.144,0-2.76,0-3.795,1.909-3.795.368,0,.69,0,.69-.368,0-.391-.345-.391-.6-.391H-158c-.322,0-.644,0-.644.391,0,.368.345.368.483.368.759,0,1.932,0,2.208,1.4.069.414.069,4.485.069,5.313,0,.805-.023,4.577-.023,5.221,0,.3-.069.46-.161.46-.138,0-2.254-3.22-2.553-3.68-1.4-2.116-3.657-5.5-5.06-7.613-1.173-1.794-1.219-1.863-2.875-1.863h-2.231c-.345,0-.69,0-.69.391,0,.368.368.368.506.368.782,0,2.047,0,2.323,1.38.069.391.069.414.069,6.21,0,6.1-.023,6.118-.207,6.647a1.817,1.817,0,0,1-1.84,1.035c-.575,0-.851,0-.851.368s.345.368.69.368Zm23.276-15.249c.184,1.38-2,4.554-3.864,6.417a19.506,19.506,0,0,0-1.817,1.725c0,.069.046.138.161.138a7.029,7.029,0,0,0,2.208-1.219,17.29,17.29,0,0,0,3.128-2.99c.966-1.1,1.012-1.15,1.449-1.15.138,0,.759.069.9.069.552,0,3.726-.713,3.772-.713a.249.249,0,0,1,.253.253c0,.713-4.37,8.556-11.385,12.42-.713.391-.782.437-.782.529a.206.206,0,0,0,.207.207,15.733,15.733,0,0,0,4.577-2.208,28.124,28.124,0,0,0,8.234-8.648c.8-1.242.9-1.38,1.15-1.541.759-.46.92-.552.92-.874a.833.833,0,0,0-.437-.575c-.115-.069-.713-.391-.851-.46-.943-.552-1.058-.621-1.265-.621a4.3,4.3,0,0,0-1.081.368,13.018,13.018,0,0,1-3.5.92c-.092,0-.368,0-.368-.184,0-.115.069-.207.184-.368.46-.575.69-.874.69-1.15a2.149,2.149,0,0,0-2.139-1.288c-.184,0-.506,0-.506.23C-140.335-15.87-140.2-15.364-140.173-15.249Zm8.786-3.887c-.23,0-.828.138-.828.322,0,.069.069.184.3.253a5.393,5.393,0,0,1,2.116,1.127c.506.529.736.759,1.219.759a.622.622,0,0,0,.575-.667c0-.23,0-.759-.943-1.311A4.243,4.243,0,0,0-131.387-19.136Zm-1.587,1.978c-.207,0-.391.115-.391.207s.23.253.345.322a7.263,7.263,0,0,1,1.633,1.357c.713.851.9.989,1.219.989.391,0,.667-.506.667-.9C-129.5-15.456-130.031-17.158-132.975-17.158Zm18.561,5.382c0-1.173-2.438-1.955-2.6-1.955-.092,0-.115.046-.115.115a1.707,1.707,0,0,0,.092.414,5.044,5.044,0,0,1,.391,1.978c0,.759-.253,3.266-2.783,6.739a6.513,6.513,0,0,0-.92,1.219.107.107,0,0,0,.115.115c.46,0,2.875-1.38,4.255-4.37C-115.586-8.4-114.413-11.707-114.413-11.776Zm4.048,8.28c.161-.023.368-.184.759-.621a12.78,12.78,0,0,1,1.587-1.472c4.025-3.542,5.359-6.394,5.359-6.578a.1.1,0,0,0-.092-.092c-.092,0-2.047,2.07-2.438,2.461-2.208,2.231-4.324,3.749-5.014,3.749-.414,0-.437-.46-.437-.759,0-.759.092-3.542.184-4.163.046-.253.368-1.449.368-1.725,0-1.2-2.415-1.61-2.53-1.61-.046,0-.138.023-.138.115a5.978,5.978,0,0,0,.3.828,14.1,14.1,0,0,1,.437,4.324c0,.575-.023,2.392-.092,2.829-.023.115-.138.713-.138.828C-112.251-4.738-111.032-3.381-110.365-3.5Zm19.3-5.773a12.525,12.525,0,0,1-2.806-.207c-.115-.023-.667-.276-.782-.276s-.184.138-.184.276c0,.782,1.058,2.208,2.047,2.208.276,0,1.518-.368,1.794-.414.552-.115,5.819-.414,8.993-.414.46,0,2.76.046,3.289.046.966,0,1.909-.069,1.909-.713,0-.161-.207-1.012-1.61-1.012-.115,0-.368.023-.506.023C-82.282-9.568-90.309-9.269-91.068-9.269Zm39.813-8.671a2.185,2.185,0,0,0-2.254,2.185,2.26,2.26,0,0,0,2.231,2.231,2.243,2.243,0,0,0,2.208-2.231A2.141,2.141,0,0,0-51.255-17.94Zm-.046.782a1.538,1.538,0,0,1,1.472,1.449,1.419,1.419,0,0,1-1.426,1.4,1.427,1.427,0,0,1-1.495-1.38A1.48,1.48,0,0,1-51.3-17.158Zm-16.583,2.806c-.138,0-.207.069-.207.506,0,1.265,1.84,2.415,2.369,2.415a8.341,8.341,0,0,0,1.15-.506,75.469,75.469,0,0,1,8.28-1.656c.115,0,.506.023.506.414A13,13,0,0,1-57.35-9.292c-1.84,3.266-5.083,6.3-9.085,9.108-.23.161-.3.207-.3.3a.153.153,0,0,0,.161.138c.23,0,8.257-3.22,11.868-10.718a3.807,3.807,0,0,1,.9-1.449c.414-.414.529-.529.529-.828,0-.322-.138-.575-1.173-1.495-.713-.621-1.081-.943-1.587-.943-.161,0-.253.046-.966.368-.989.437-7.728,1.081-8.671,1.081a5.418,5.418,0,0,1-1.909-.483C-67.632-14.214-67.839-14.352-67.884-14.352Zm32.315-2.392c-.115,0-.276,0-.276-.138a1.434,1.434,0,0,1,.644-.713c.667-.276.805-.345.805-.552,0-.253-.276-.322-.782-.506-.23-.092-1.495-.506-1.587-.506-.276,0-.322.138-.414.575-.23.92-1.633,3.174-4.715,6.325-.046.046-1.173,1.173-1.173,1.2,0,.069.069.115.161.115.115,0,2.07-.874,5.014-3.864a5.362,5.362,0,0,1,.782-.713c.069,0,.138.069.253.3A15.392,15.392,0,0,0-34.9-12.144c.253.345.391.529.391.621,0,.437-4.9,4.3-9.338,6.371-.621.3-.69.322-.69.414a.164.164,0,0,0,.184.161c.713,0,4.048-1.61,4.278-1.61.253,0,.276.23.322.552a12.8,12.8,0,0,1,.138,2.415c0,.644-.023,1.978-.069,3.128,0,.138-.046.874-.046,1.035,0,.437.069.759.621.759A1.152,1.152,0,0,0-37.846.621c.046-.483.437-.483.713-.483h6.923c.621,0,.667.322.667.782,0,.184,0,.6.506.6A1.336,1.336,0,0,0-27.726.184c0-.368-.115-2.162-.115-2.576,0-.713.046-1.334.046-1.725a.641.641,0,0,1,.276-.575c.368-.276.414-.3.414-.506,0-.3-1.541-1.311-1.817-1.311-.138,0-.184.046-.621.483a.756.756,0,0,1-.667.253h-7.015a2.682,2.682,0,0,1-1.219-.322c-.713-.3-.805-.322-.805-.46,0-.115.046-.138.414-.322a32.455,32.455,0,0,0,4.669-3.036c.483-.391.552-.437.69-.437a10.186,10.186,0,0,1,1.334,1.1c2.783,2.254,5.612,3.611,6.417,3.611.207,0,.345-.138.552-.368a3.781,3.781,0,0,1,1.679-1.1c.207-.069.322-.115.322-.184,0-.092-.046-.092-.345-.115-.368-.023-1.173-.138-1.771-.253-3.772-.736-7.2-3.266-7.2-3.565,0-.092.092-.161.184-.253.23-.207.805-.759,1.058-.989.483-.483,2.691-3.105,2.9-3.174.6-.207.736-.253.736-.506,0-.46-1.794-1.587-2.024-1.587-.161,0-.184.046-.483.529a.81.81,0,0,1-.805.46Zm4.485.6c.184,0,.345,0,.345.207,0,.414-2.553,3.657-2.944,3.657-.621,0-3.128-3.266-3.128-3.542,0-.322.391-.322.667-.322ZM-37.225-.46c-.644,0-.69,0-.69-2.737,0-1.863,0-1.978.667-1.978h7.061c.161,0,.483,0,.6.253A15.091,15.091,0,0,1-29.5-2.806a14.918,14.918,0,0,1-.092,2.093.605.605,0,0,1-.6.253ZM-10.362.828c.092.115.138.161.207.161S-9.741.92-9.672.92c.805-.069,2.346-.046,2.9-.046H1.391c.759,0,1.242,0,1.242-.322C2.633.161.609-1.334.4-1.334c-.276,0-.345.092-.966.9a1.429,1.429,0,0,1-1.357.69h-.851c-.6,0-.6-.414-.6-1.265,0-1.541-.069-8.28-.069-9.66,0-.414.046-.759.667-.759h3.2c.736,0,1.219,0,1.219-.3,0-.437-1.61-1.932-1.932-1.932-.207,0-.276.092-.943.989-.483.644-.6.644-1.679.644-.552,0-.552-.437-.552-.713,0-.621.069-4.439.207-4.761.046-.115.506-.506.506-.621,0-.391-.483-.506-.69-.575-.161-.046-1.587-.483-1.656-.483-.138,0-.184.046-.184.161,0,.184.138.989.138,1.173.115,1.725.161,2.76.161,4.876,0,.644-.046.943-.6.943-.782,0-2.645-.092-2.875-.092-.115,0-.943-.069-.966-.069s-.069,0-.069.046,0,.046.092.161l.437.529c.092.092.138.138.207.138.092,0,.414-.046.483-.046.805-.069,2.139-.069,2.714-.069.552,0,.552.483.552.713,0,1.2-.046,10.051-.092,10.465-.046.506-.46.506-.667.506h-.9C-7.947.253-9.143.207-9.81.184c-.161,0-.874-.092-1.012-.092a.073.073,0,0,0-.069.069c0,.023,0,.023.092.138Zm-7.521-14.076c.069.092.115.138.207.138.069,0,.414-.046.483-.046.805-.046,1.771-.069,2.668-.069h1.61c.207,0,.368.023.368.23,0,.667-3.243,4.692-4.163,5.635a23.147,23.147,0,0,0-2,2.047c0,.069.069.069.115.069.6,0,3.588-2.6,3.818-2.6s.23.391.23.644c0,2.714-.092,5.106-.138,6.808,0,.253-.092,1.311-.092,1.541,0,.322.138.552.69.552A1.1,1.1,0,0,0-12.869.644c0-.322-.115-1.748-.115-2.047,0-.943-.023-5.2-.023-6.072,0-.276,0-.6.207-.6.437,0,1.2,1.173,1.334,1.426.6,1.219.851,1.679,1.4,1.679.414,0,.805-.345.805-1.058,0-1.748-2.162-2.369-2.944-2.553-.552-.115-.759-.161-.759-.644,0-.414.069-.483.736-1.173a26.473,26.473,0,0,1,2.139-2.3c.069-.023.391-.092.46-.115a.346.346,0,0,0,.253-.3c0-.138-.046-.184-.552-.667-.069-.046-.552-.621-.828-.9a.435.435,0,0,0-.322-.161c-.207,0-.874.69-1.035.782a.819.819,0,0,1-.552.161c-.23,0-.368-.046-.368-.368v-1.932c0-.966,0-1.081.115-1.288.046-.092.46-.437.46-.529,0-.161-.138-.253-.253-.322a17.682,17.682,0,0,0-2.07-.621c-.023,0-.092,0-.092.046,0,.138.115.667.115.782.069.874.092,2.231.092,2.576,0,1.541,0,1.7-.644,1.7-.483,0-2.6-.138-3.036-.138-.023,0-.092,0-.092.046,0,.023.023.046.115.161ZM13.306-3.427C13.306.184,16.641.184,17.7.184,18.918.184,23.61.069,23.61-1.1c0-.575-.736-1.1-1.518-1.1a6.258,6.258,0,0,0-1.725.345,10.288,10.288,0,0,1-2.76.414c-1.863,0-3.2-.575-3.2-2.139,0-1.5.782-3.174,6.256-5.382.828-.322,1.771-.69,1.771-1.38a.883.883,0,0,0-.874-.851,7.1,7.1,0,0,0-2.369,1.081c-1.242.782-1.38.874-1.7.874-.6,0-.6-1.863-.6-2.737a21.65,21.65,0,0,1,.207-3.036c.046-.23.322-1.265.322-1.472,0-.667-1.173-1.725-2.484-1.725-.069,0-.621.023-.621.115,0,.069.069.138.552.644a2.15,2.15,0,0,1,.69,1.863c0,.6-.115,3.266-.115,3.8a7.4,7.4,0,0,0,.391,2.691,5.847,5.847,0,0,1,.207.713c0,.3-.3.6-.989,1.242A5.214,5.214,0,0,0,13.306-3.427Zm31.3-12.213c6.279,0,6.371,5.474,6.371,6.371,0,5.727-4.991,7.7-7.383,8.648-.575.23-.621.253-.621.322,0,.138.138.161.23.161a14.136,14.136,0,0,0,3.818-.851,8.577,8.577,0,0,0,5.8-8.1,7.209,7.209,0,0,0-4-6.693,7.493,7.493,0,0,0-3.7-.736,9.516,9.516,0,0,0-7.337,2.99,8.1,8.1,0,0,0-2.553,5.865c0,2.806,1.357,5.175,2.875,5.175.92,0,2.093-.552,3.933-3.358C44.057-8.9,44.4-11.04,44.4-12.581a17.63,17.63,0,0,0-.23-2.484c0-.092-.046-.184-.046-.253C44.126-15.456,44.149-15.64,44.609-15.64Zm-1.288.069c.3,0,.391.115.391,1.495a13.156,13.156,0,0,1-2.254,6.693c-1.587,2.392-2.139,2.668-2.806,2.668-1.4,0-2-2.047-2-3.542C36.651-12.6,41.136-15.571,43.321-15.571Zm26.151,1.978a1.651,1.651,0,0,1-.874-.161c-.943-.506-1.058-.552-1.219-.552-.207,0-.207.184-.207.276,0,.3.092,1.771.092,2.116,0,.667-.138,3.956-.138,4.692,0,.506.161.667.6.667.621,0,.713-.184.9-.552.161-.322.276-.322.736-.322h1.679c.667,0,.667.3.667,1.127,0,.989-.023,1.288-.69,1.288H70c-1.058,0-2.093,0-3.151-.069-.138,0-.851-.092-1.012-.092a.061.061,0,0,0-.069.069.35.35,0,0,0,.092.138l.437.529c.092.092.138.161.207.161s.414-.069.483-.069c.8-.046,2.392-.069,2.921-.069h1.058c.322,0,.667.069.667.644,0,.23-.092,1.38-.092,1.633,0,.874.552.989.759.989.943,0,.943-.966.943-1.288,0-.184-.069-1.127-.069-1.334,0-.621.414-.644.69-.644h4.623c1.081,0,1.2,0,1.2-.276,0-.368-1.357-1.449-1.587-1.449s-.46.276-.69.621c-.368.506-.483.506-1.541.506H73.842c-.713,0-.713-.069-.713-1.932,0-.069,0-.483.713-.483h1.886c.414,0,.575,0,.667.345a.47.47,0,0,0,.506.391c.3,0,1.058-.115,1.058-1.311,0-.529-.046-2.875-.046-3.358,0-1.012,0-1.173.3-1.334.23-.115.368-.23.368-.368,0-.184-.805-1.311-1.265-1.311-.184,0-.345.115-.644.414-.391.368-.552.368-1.5.368h-1.4c-.483,0-.69-.184-.69-.69,0-1.495,0-1.656.759-1.656H78.12c.782,0,1.219,0,1.219-.322,0-.483-1.472-1.334-1.771-1.334-.184,0-.23.069-.69.667-.3.391-.414.391-1.472.391H73.681c-.253,0-.552,0-.552-.529a4.031,4.031,0,0,1,.115-.92,4.42,4.42,0,0,0,.322-.667.409.409,0,0,0-.092-.23,7.611,7.611,0,0,0-1.84-.345.217.217,0,0,0-.23.23,5.173,5.173,0,0,0,.115.506,5.061,5.061,0,0,1,.138,1.15c0,.46-.046.805-.667.805h-.782c-1.081,0-2.116-.046-3.151-.092-.161,0-.874-.069-1.035-.069-.046,0-.069,0-.069.046s0,.046.092.161l.437.529c.092.092.138.138.207.138s.414-.046.483-.046c.805-.069,2.392-.069,2.921-.069h.874c.713,0,.713.161.713,1.518,0,.483,0,.828-.69.828Zm6.348,3.358c.621,0,.621.414.621.6,0,1.426-.046,1.587-.713,1.587H73.819c-.69,0-.69-.345-.69-1.173,0-.621,0-1.012.69-1.012Zm-6.578-.621c-.644,0-.644-.276-.644-1.15,0-.621.046-.966.644-.966h1.84c.621,0,.621.3.621,1.081,0,.713,0,1.035-.621,1.035Zm.023,2.806c-.644,0-.644-.322-.644-1.4,0-.506.046-.782.713-.782h1.725c.69,0,.69.322.69,1.012,0,.943,0,1.173-.736,1.173Zm6.578-4.922c.69,0,.713.345.713,1.035,0,.828-.023,1.081-.782,1.081H73.842c-.759,0-.759-.276-.759-1.035s0-1.081.713-1.081ZM64.8-14.352c0-.161,0-1.587-2.783-2.714a8.272,8.272,0,0,0-2.047-.6c-.092,0-.161,0-.161.069a6.018,6.018,0,0,0,.667.6A15.521,15.521,0,0,1,62.8-14.559c.782,1.2.874,1.334,1.288,1.334C64.481-13.225,64.8-13.662,64.8-14.352ZM60.065-9.2c.069.092.115.138.207.138.069,0,.414-.046.483-.046.506-.046,1.334-.069,1.909-.069.644,0,.69.207.69,2.53,0,3.036-.023,3.059-.23,3.312a11,11,0,0,1-2.967,1.886c-.322.069-.644.138-.644.345,0,.276,1.1,1.909,1.472,1.909.253,0,.276-.092.529-.828A23.125,23.125,0,0,1,64.32-3.45c.184,0,.506,1.1.6,1.288,1.38,2.737,4.393,3.22,13.547,3.22.3,0,.322,0,.437-.552a2.107,2.107,0,0,1,1.15-1.449c.23-.092.322-.184.322-.276,0-.069-.092-.069-.138-.069-.184,0-.966.207-1.127.23a39.187,39.187,0,0,1-6,.368c-8.4,0-8.4-1.4-8.4-5.52A19.259,19.259,0,0,1,64.8-8.625c.092-.161.943-.506.943-.69,0-.138-1.012-1.426-1.288-1.426-.115,0-.161.069-.713.69a.862.862,0,0,1-.736.253c-.69,0-2.3-.046-2.576-.069-.138-.023-.713-.069-.828-.069-.046,0-.092,0-.092.046,0,.023.023.069.092.161Zm40.342-6.716c-.161,0-.437,0-.437-.345,0-.161.989-1.656,1.518-1.817.253-.092.437-.138.437-.368a.312.312,0,0,0-.138-.253c-.046-.023-1.61-.6-1.7-.6-.138,0-.138.115-.138.23a9.534,9.534,0,0,1-.989,2.852.944.944,0,0,1-.805.3H96.474c-.092,0-.437,0-.437-.345a5.944,5.944,0,0,1,.989-1.771c.276-.092.529-.161.529-.368,0-.391-1.886-1.1-2.254-1.1-.023,0-.138,0-.138.069s.092.345.092.414a21.447,21.447,0,0,1-3.128,6.946c-.092.138-.276.437-.391.575a.1.1,0,0,0,.092.092c.184,0,2.208-2.3,2.369-2.3a.235.235,0,0,1,.23.253c0,.9-.253,5.06-.253,5.658,0,.391.046.6.506.6a1.329,1.329,0,0,0,1.081-.621c.368-.437.529-.437.805-.437h8.993c.6,0,.989,0,.989-.322,0-.276-1.587-1.518-1.7-1.518-.207,0-.759.92-.92,1.081-.092.092-.138.161-.966.161H100.8c-.621,0-.621-.161-.621-1.288,0-.345.138-.529.621-.529h2.99c.575,0,.966,0,.966-.322,0-.3-1.61-1.541-1.679-1.541-.207,0-.782.92-.92,1.081-.115.115-.253.161-.828.161-.805,0-.9,0-1.012-.115-.138-.115-.138-.207-.138-.943,0-.529.092-.667.667-.667h2.806c.6,0,.989,0,.989-.322,0-.276-1.587-1.518-1.7-1.518-.23,0-.805,1.035-1.012,1.15a3.862,3.862,0,0,1-1.058.092c-.391,0-.69-.184-.69-.621,0-.782,0-1.058.759-1.058h3.956c.6,0,.966,0,.966-.322,0-.3-1.564-1.518-1.7-1.518-.184,0-.759.9-.9,1.058-.092.115-.138.161-.989.161Zm-2.185,2.9c.621,0,.621.322.621.943,0,.529-.069.782-.621.782H96.451c-.529,0-.644-.253-.644-.874,0-.851.322-.851.644-.851ZM98.107-15.3c.575,0,.782.023.782.874,0,.8-.3.8-.782.8H96.543c-.529,0-.782-.023-.782-.851,0-.8.253-.828.782-.828Zm.092,4.623c.69,0,.69.207.69.92,0,.667,0,.9-.69.9H96.5c-.69,0-.69-.207-.69-.966,0-.621,0-.851.69-.851Zm-.391,3.979c-.69,0-1.265,0-2.875-.069-.207,0-1.1-.092-1.288-.092-.046,0-.092.023-.092.069,0,.023.023.046.115.138l.437.529c.069.092.115.161.207.161.207,0,1.518-.115,1.771-.115.667,0,.782.207.782.552A8.077,8.077,0,0,1,94.956-.943,9.809,9.809,0,0,1,92.495,1.2a.991.991,0,0,0-.23.161c0,.023.023.046.069.046A8.215,8.215,0,0,0,94.519.644c3.059-1.633,3.749-4.991,4-6.141a.658.658,0,0,1,.713-.575h1.2a.457.457,0,0,1,.506.46c0,.276-.46,2.024-.46,2.323a.5.5,0,0,0,.529.483,1.344,1.344,0,0,0,.92-.483.846.846,0,0,1,.713-.23h.874c.138,0,.46,0,.46.368,0,.46-.759,3.082-2.346,3.082-.322,0-1.794-.207-2.093-.207-.184,0,1.173.9,1.38,1.081a1.632,1.632,0,0,1,.529.736c.115.253.161.3.391.3,1.219,0,2.944-1.265,3.634-4.025a.954.954,0,0,1,.414-.621c.437-.345.46-.345.46-.483s-1.058-1.564-1.38-1.564c-.161,0-.23.046-.92.552a.74.74,0,0,1-.552.161h-.736a.446.446,0,0,1-.506-.46c0-.115.161-1.012.437-1.2.322-.23.483-.345.483-.529,0-.276-1.242-1.1-1.38-1.1-.161,0-.322.184-.621.46a.972.972,0,0,1-.874.276ZM86.078-13.8c.092.115.138.161.207.161.207,0,1.472-.115,1.725-.115.322,0,.69,0,.736.506,0,.115.069,3.772.069,4.117a.863.863,0,0,1-.437.782,14.147,14.147,0,0,1-2.3.483c-.046,0-.345-.046-.414-.046s-.092.092-.092.184c0,.069.368.9.437,1.058.391,1.127.437,1.242.713,1.242.161,0,.644-.6.759-.713.115-.092.713-.644,1.035-.644s.322.414.322.552c0,.483.023,2.852.023,3.381,0,2.047,0,2.277-.989,2.277-.23,0-1.38-.092-1.656-.092-.092,0-.184.046-.184.115,0,.023.667.46.782.552a2.947,2.947,0,0,1,1.2,1.4c.092.276.115.322.276.322a3.5,3.5,0,0,0,1.334-.552,1.829,1.829,0,0,0,.759-1.7c0-.943-.115-5.52-.115-6.555,0-.621.184-.736,1.035-1.2a10.021,10.021,0,0,0,2-1.357c0-.069-.069-.092-.115-.092-.3,0-2.53.713-2.622.713-.345,0-.345-.322-.345-.713,0-.506-.023-2.944-.023-3.5,0-.529.575-.529.782-.529h1.4c.23,0,.552-.023.552-.345a3.608,3.608,0,0,0-1.518-1.472c-.161,0-.184.092-.552.851-.115.253-.184.368-.345.368-.322,0-.322-.138-.322-1.242a7.583,7.583,0,0,1,.138-1.84c.069-.138.644-.644.644-.828,0-.092-.069-.276-.345-.345a13.538,13.538,0,0,0-2.162-.552c-.092,0-.184.046-.184.115a7.625,7.625,0,0,1,.368.989c.023.368.069,2.185.069,3.059,0,.621-.506.621-.805.621-.368,0-2.231-.161-2.3-.161a.061.061,0,0,0-.069.069c0,.023.023.069.092.138Zm29.877,7.176c0-2.07,1.518-5.451,1.771-5.934.437-.782.437-.8.437-1.058,0-.828-.966-2.921-2.024-2.921-.092,0-.184.046-.184.115a2.914,2.914,0,0,0,.138.414,5.634,5.634,0,0,1,.23,1.633,7.809,7.809,0,0,1-.391,2.392c-.782,2.875-.966,3.542-.966,5.014,0,2.208,1.058,6.118,2.484,6.118a.771.771,0,0,0,.759-.782,2.48,2.48,0,0,0-.276-1.012,4.1,4.1,0,0,1-.368-1.2c0-.552.529-3.243.529-3.5,0-.046,0-.276-.115-.276s-.184.184-.322.575c-.506,1.426-.713,1.794-1.1,1.794C116.184-5.244,115.954-5.934,115.954-6.624Zm11.914-8.51c-.23-.023-.3,0-.989.253a9.29,9.29,0,0,1-2.53.345,7.859,7.859,0,0,1-1.564-.138c-.3-.069-.575-.161-.644-.161-.138,0-.161.069-.161.115,0,.3,1.426,1.7,4.025,1.7.276,0,2.829,0,2.829-1.127A1.147,1.147,0,0,0,127.868-15.134Zm.989,11.408c-.092,0-1.7.161-2.024.184a19.169,19.169,0,0,1-2,.069,5.661,5.661,0,0,1-2.461-.391,3.431,3.431,0,0,0-.552-.322c-.115,0-.115.184-.115.23,0,.437.6,1.035.713,1.15.483.46,1.334,1.035,3.588,1.035,3.22,0,3.91-.276,3.91-1.173C129.915-3.22,129.731-3.726,128.857-3.726Zm18.1-14.283c-.046,0-.207,0-.207.092a.511.511,0,0,0,.138.276,2.616,2.616,0,0,1,.621,1.38c.069.805.092,5.5.092,5.681,0,.575.23,4.393.23,4.968,0,.529-.138.575-.483.575-.161,0-.989-.069-1.2-.069-2.622,0-4.83.989-4.83,2.484,0,1.311,1.84,2.691,3.956,2.691a3.827,3.827,0,0,0,3.565-2.047c.3-.644.345-.713.575-.713a3.275,3.275,0,0,1,1.311.575,7.225,7.225,0,0,0,2.116,1.1.875.875,0,0,0,.828-.92c0-.736-1.495-1.38-2.921-2-1.2-.506-1.334-.575-1.426-.92-.069-.253-.345-6-.345-6.44s.046-.575.23-.621c.046-.023,1.541-.023,1.587-.023,1.886,0,2.438-.552,2.438-.9,0-.368-.851-1.012-1.449-1.012a10.224,10.224,0,0,0-1.518.575,3.662,3.662,0,0,1-.966.184c-.253,0-.276-.069-.276-.368a14.9,14.9,0,0,1,.207-1.587,10.984,10.984,0,0,0,.345-1.242A2.727,2.727,0,0,0,146.959-18.009Zm.69,14.6c.069.207-.345,1.909-2.852,1.909-1.656,0-2.438-.69-2.438-1.127,0-1.265,2.783-1.288,3.013-1.288C146.384-3.91,147.557-3.7,147.649-3.4Zm29.279-6.739c0,4.692-.69,7.36-4.462,10.212-.529.391-.575.437-.575.506,0,.046.046.069.092.069a5.94,5.94,0,0,0,1.656-.759c4.37-2.6,5.014-6.279,5.014-9.522,0-4.83-1.541-5.589-2.967-5.589-2.415,0-3.979,2.9-4.232,3.4-.161.3-.3.575-.414.575-.184,0-.184-.253-.184-.322a24.4,24.4,0,0,1,.506-2.852,14.374,14.374,0,0,0,.483-1.7,1.779,1.779,0,0,0-1.771-1.541.93.93,0,0,0-.621.161c0,.046.345.506.391.6a2.55,2.55,0,0,1,.3,1.426,15.722,15.722,0,0,1-.345,2.944,20.722,20.722,0,0,0-.414,3.657c0,1.817.506,3.726,1.564,3.726a.769.769,0,0,0,.828-.828,2.3,2.3,0,0,0-.207-.874,4.692,4.692,0,0,1-.3-1.7c0-2.438,1.84-5.658,3.8-5.658C176.467-14.214,176.928-12.673,176.928-10.143ZM194.913.23c0-2.139-3.91-3.335-4.715-3.335-.184,0-.253.092-.253.161s.253.23.322.276a6.5,6.5,0,0,1,2.415,2.461c.759,1.38.851,1.541,1.334,1.541A1.105,1.105,0,0,0,194.913.23ZM-240.327,50.6c.414,0,.644,0,.667.322.046.529.069.92.713.92,1.334,0,1.334-1.173,1.334-1.656,0-.253-.069-2.691-.069-3.128-.023-.69-.161-12.558-.161-12.65,0-.23.046-1.127.207-1.242.414-.322.46-.345.46-.506,0-.414-1.4-1.61-1.725-1.61-.184,0-.253.046-.8.644a.787.787,0,0,1-.736.322h-13.294A2.1,2.1,0,0,1-255,31.692c-.874-.46-.966-.506-1.127-.506-.184,0-.184.092-.184.253,0,.414.138,2.323.161,2.691.046,1.288.069,7.383.069,8.349,0,1.311-.092,7.153-.092,8.349,0,.391,0,1.058.621,1.058.253,0,1.081-.046,1.2-.759.092-.529.092-.529.667-.529Zm-13.225-.621c-.759,0-.759-.345-.759-.966,0-1.334-.115-7.935-.115-9.43,0-.851.023-5.06.023-6.026,0-.6.023-.943.759-.943h13.386c.23,0,.552,0,.69.3a5.929,5.929,0,0,1,.046,1.38c0,.851.046,4.991.046,5.934,0,1.127-.092,6.716-.092,7.981,0,1.61,0,1.771-.759,1.771Zm8.28-3.2c-.23,0-.644,0-.736-.345-.069-.3-.115-3.358-.115-3.864,0-1.173,0-1.4.713-1.4h2.875c.759,0,1.058-.023,1.058-.23,0-.3-1.449-1.38-1.748-1.38-.184,0-.828.713-.989.851-.138.115-.276.161-.851.161-.552,0-.621,0-.782-.092-.253-.115-.253-.345-.253-2.461s.092-2.208.759-2.208h3.105c1.1,0,1.219,0,1.219-.253,0-.322-1.771-1.564-1.932-1.564-.184,0-.23.092-.69.828-.23.391-.506.391-.874.391h-4.462c-1.2,0-2.553-.069-3.036-.092-.161,0-.851-.069-1.012-.069-.069,0-.092.023-.092.046,0,.046.023.046.092.161l.46.529c.069.092.115.138.207.138.069,0,.391-.046.483-.046.621-.046,1.817-.069,2.783-.069h.575a.64.64,0,0,1,.483.161,9.21,9.21,0,0,1,.276,2.714c0,1.587,0,1.886-.644,1.886-1.127,0-2.645-.069-3.059-.092-.138,0-.851-.069-1.012-.069-.046,0-.069.023-.069.046,0,.046,0,.046.092.161l.437.529c.092.092.138.138.207.138s.414-.046.483-.046c.345-.023,1.15-.069,2.806-.069.69,0,.759.138.759,1.541,0,.3-.023,3.611-.092,3.772-.115.3-.506.3-.644.3h-.713c-1.2,0-2.553-.046-3.036-.069-.138-.023-.851-.092-1.012-.092-.046,0-.092.023-.092.069,0,.023.023.046.115.138l.437.529c.069.092.115.161.207.161a3.489,3.489,0,0,0,.483-.069c.8-.046,2.392-.046,2.921-.046h7.36c1.1,0,1.219,0,1.219-.276,0-.3-1.748-1.541-1.932-1.541s-.23.069-.69.805c-.23.391-.713.391-1.472.391Zm3.979-2.53c-.161-1.357-2.76-2.093-3.22-2.093-.069,0-.322,0-.322.161,0,.092.161.23.414.46a5.99,5.99,0,0,1,1.012,1.173c.782,1.127.851,1.265,1.288,1.265A.865.865,0,0,0-241.293,44.25Zm26.887-8.165c.644,0,.644.161.667,1.288.092,3.519.115,3.91.115,7.337,0,.483,0,3.91-.023,3.979-.069.46-.437.529-.805.529-.138,0-1.334-.092-1.633-.138-.184-.023-1.1-.184-1.173-.184a.186.186,0,0,0-.207.161c0,.138.092.161.989.506a2.313,2.313,0,0,1,1.725,1.725c.046.207.092.368.23.368a3.873,3.873,0,0,0,2.323-1.15,3.612,3.612,0,0,0,.391-2.047c0-1.4-.207-7.521-.207-8.786,0-1.679.046-2.438.368-2.852.391-.506.437-.552.437-.713,0-.529-1.541-1.817-1.863-1.817-.207,0-.391.276-.828.874-.069.092-.23.3-.782.3H-219.7c-.184,0-.529-.046-.529-.46,0-.437.184-2,.23-2.553.023-.161.529-.713.529-.874,0-.437-2.116-.713-2.369-.713-.115,0-.207,0-.207.046,0,.138.092.69.092.805.023.3.023.828.023,1.518,0,2.231-.092,2.231-.736,2.231h-4.6c-.483,0-.552-.046-1.288-.483a10.609,10.609,0,0,0-1.311-.69c-.092,0-.138.069-.138.184s.092.575.092.667c.092,1.472.092,1.5.092,8.257,0,2.461,0,3.979-.092,6.164,0,.207-.046,1.081-.046,1.265,0,.138,0,.828.46.828a3.081,3.081,0,0,0,1.15-.437.837.837,0,0,0,.3-.759c0-.966-.092-5.336-.092-6.21V36.775c0-.276,0-.69.667-.69h4.715c.253,0,.575,0,.575.506,0,1.909-1.909,6.831-4.968,9.269-.391.322-.552.437-.552.552s.138.115.184.115c.9,0,4.255-2.553,5.957-6.21.069-.138.322-.805.391-.92a.409.409,0,0,1,.345-.253c.368,0,1.863,1.955,2.093,2.346a25.191,25.191,0,0,1,1.541,3.312c.184.46.529,1.288,1.311,1.288.69,0,.874-.713.874-1.173,0-.9-.943-3.473-4.209-5.612-.207-.138-1.127-.69-1.219-.759a.532.532,0,0,1-.23-.46c0-.138.276-1.541.3-1.656.115-.345.3-.345.6-.345ZM-189.98,46.5c.414-.207,1.61.759,2.277,1.564.552.69.621.782.9.782a.9.9,0,0,0,.828-.92c0-1.357-2.415-2.438-3.542-2.921-.575-.253-.644-.414-.736-1.265-.069-.621-.23-3.22-.23-3.726,0-.989,0-1.012.851-1.38s2.392-1.035,2.392-2.116c0-.966-.759-.989-1.771-1.035-.138,0-1.334-.046-1.334-.736a1,1,0,0,1,.138-.483c.23-.368.253-.414.253-.575,0-.874-1.541-1.2-2-1.2-.483,0-.782.253-.782.391,0,.161.621.667.713.782.437.529.437,1.173.437,2.622,0,1.518,0,1.518-1.265,1.518a6.883,6.883,0,0,1-2.576-.46,4,4,0,0,0-.621-.322c-.092,0-.115.092-.115.161,0,.23.805,2.047,3.4,2.047a7.628,7.628,0,0,1,1.058.046.765.765,0,0,1,.184.552c.023.644.092,3.082.092,3.22,0,1.426,0,1.587-.575,1.587-4.715.069-4.715,2.507-4.715,2.829,0,1.357,1.334,2.3,2.875,2.3a3.793,3.793,0,0,0,3.427-2.185C-190.348,47.424-190.141,46.573-189.98,46.5Zm-.322-10.649a.49.49,0,0,1,.276-.092c.322,0,1.081.3,1.081.713,0,.529-.874.805-1.2.805-.161,0-.345,0-.345-.874A.7.7,0,0,1-190.3,35.855Zm-3.013,9.982c1.472,0,1.794.184,1.794.575,0,.782-1.4,1.886-2.76,1.886-.8,0-1.518-.391-1.518-1.012C-195.8,46.619-194.626,45.837-193.315,45.837Zm-6.555.851c0-.667.644-3.979.644-4.715,0-.046,0-.207-.092-.207a11.587,11.587,0,0,0-.943,2.3c-.414,1.265-.437,1.357-.644,1.357-.552,0-.552-1.472-.552-1.61a15.368,15.368,0,0,1,.828-4.623c.184-.575,1.2-3.4,1.2-3.588,0-.414-1.15-2.714-2.438-2.714-.138,0-.414.046-.414.184a4.62,4.62,0,0,0,.437.805,3.256,3.256,0,0,1,.529,1.909c0,.713-.046.828-.69,3.657a17.568,17.568,0,0,0-.6,4.508c0,3.565,1.15,5.865,2.3,5.865.529,0,.759-.437.759-.943C-199.548,48.551-199.87,47.033-199.87,46.688Zm29.854-15.41a.455.455,0,0,0,.046.23,6.039,6.039,0,0,1,.23,1.541c0,.322-.184,2.369-.828,2.369a3.407,3.407,0,0,1-1.564-.805c-.092-.069-.483-.552-.6-.552-.161,0-.207.253-.207.414,0,.966.874,1.656,1.541,2.185.506.391.621.483.621.782,0,.322-.138.414-1.334,1.38-1.449,1.173-1.7,1.932-1.7,2.622a2.5,2.5,0,0,0,1.242,1.955c.391.3.437.46.437.736,0,.322-.184,1.886-.184,2.254,0,4.163,3.956,4.163,4.393,4.163,2.691,0,4.9-1.955,4.9-4.14,0-1.61-1.035-3.427-3.68-5.566-.069-.046-.575-.483-.575-.276a.372.372,0,0,0,.092.23c2.07,2.9,2.277,4.209,2.277,5.2a3.054,3.054,0,0,1-3.312,3.128c-2.875,0-3.151-2.392-3.174-3.427,0-.506,0-1.587.575-1.587.115,0,1.771.3,2.116.3.575,0,1.2-.253,1.2-.667,0-.575-1.081-.92-1.633-.966-1.61-.138-1.7-.138-1.7-.506a11.981,11.981,0,0,1,.483-2c.437-1.449.483-1.61,1.1-1.817,1.449-.506,1.7-.69,1.7-1.058,0-.345-.276-.6-.828-.989-.3-.207-.414-.368-.414-.529,0-.391,1.081-2.323,1.081-2.53C-167.716,32.727-169.326,31.209-170.016,31.278Zm-1.219,8.257A14.873,14.873,0,0,1-171.787,42a.293.293,0,0,1-.253.184,1.511,1.511,0,0,1-1.173-1.38c0-.874,1.15-1.656,1.679-1.656C-171.235,39.144-171.235,39.351-171.235,39.535Zm26.174-8.05c-.115,0-.69.092-.69.276,0,.069.069.138.253.345a2.578,2.578,0,0,1,.506,1.541,6.85,6.85,0,0,1-.46,2.116c-.092.138-.184.184-.46.184a6.849,6.849,0,0,1-2.737-.46,8.984,8.984,0,0,0-.805-.414c-.069,0-.115.092-.115.161,0,.115.345,1.794,3.266,2.139.391.046.437.046.437.23,0,.644-1.2,5.658-1.2,6.739,0,.207.184,2.208,1.127,2.208.483,0,.506-.138.874-1.311a4.957,4.957,0,0,1,4.278-2.622c.414,0,2.576.161,2.576,2.967,0,1.518-.805,3.427-5.382,4.761a5.186,5.186,0,0,0-1.081.391c0,.115.276.115.345.115a13.815,13.815,0,0,0,1.84-.161c1.84-.3,6.026-1.219,6.026-5.106a3.881,3.881,0,0,0-3.933-4.071,7.359,7.359,0,0,0-4.3,1.472,1.093,1.093,0,0,1-.483.253c-.276,0-.276-.759-.276-1.058-.023-.989.069-1.38.667-4.232.069-.3.115-.414.575-.483,1.518-.253,3.634-.851,3.634-2.162,0-.621-.46-.736-1.426-.966a2.294,2.294,0,0,1-1.495-1.265A2.014,2.014,0,0,0-145.061,31.485Zm1.587,2.461c.138,0,1.081.736,1.081,1.173,0,.46-1.219.805-1.564.805-.092,0-.23-.023-.23-.161C-144.187,35.717-143.773,33.946-143.474,33.946Zm21.413.184c-.069,0-.23.023-.23.138,0,.023.782,1.058.9,1.219a1.52,1.52,0,0,0,1.058.6c.667,0,3.519-1.794,4.255-1.794a.23.23,0,0,1,.253.253c0,.9-6.256,7.751-7.958,9.591-.874.943-1.219,1.311-1.219,2.162a.851.851,0,0,0,.851.989c.667,0,.92-.437,1.771-1.909a10.107,10.107,0,0,1,7.889-4.623,2.973,2.973,0,0,1,3.2,3.174c0,4.048-6.647,5.98-6.877,6.049-.805.23-.9.253-.9.391,0,.092.138.138.345.138,1.311,0,9.407-1.472,9.407-6.279a4.831,4.831,0,0,0-4.968-4.554,10.251,10.251,0,0,0-3.519.713,8.274,8.274,0,0,1-1.242.506c-.138,0-.161-.069-.161-.115a33.688,33.688,0,0,1,4.186-4.646c1.035-.851,1.564-1.311,1.564-2.139a1.551,1.551,0,0,0-1.725-1.311,3.651,3.651,0,0,0-1.909.529,15.692,15.692,0,0,1-3.749,1.012C-121.026,34.222-121.946,34.13-122.061,34.13ZM-92.207,32.5c-.115,0-.161.069-.161.138,0,.092.161.92.161,1.058a2.365,2.365,0,0,1-.207.92c-.184.414-1.15,2.254-1.265,2.461a46.269,46.269,0,0,0-3.427,5.842c-.161.345-.9,2.162-1.081,2.576-.575,1.334-.644,1.472-.644,2.139,0,1.495.805,1.725,1.081,1.725.575,0,.713-.6.759-.759.069-.23.161-1.449.207-1.725.828-5.888,4.692-6.325,5.083-6.325,1.7,0,2.162,1.817,2.162,3.1,0,.483-.368,2.9-.368,3.427a2.192,2.192,0,0,0,2.047,2.415,6.315,6.315,0,0,0,4.347-2.254A5.169,5.169,0,0,0-82.432,45.1c0-.069-.023-.115-.069-.115-.069,0-.368.46-.46.552-1.1,1.15-2.3,2.093-3.565,2.093A1.531,1.531,0,0,1-88.2,45.952c0-.322.138-1.84.138-2.185,0-.92-.161-3.979-2.99-3.979A5.044,5.044,0,0,0-94,40.8c-.207.138-.644.391-.9.575-.069,0-.092-.023-.092-.092a6.022,6.022,0,0,1,.46-.966,17.982,17.982,0,0,1,3.036-3.841c1.127-1.242,1.265-1.38,1.265-1.748C-90.229,34.038-91.425,32.5-92.207,32.5ZM-70.1,50.23c0-2.139-3.91-3.335-4.715-3.335-.184,0-.253.092-.253.161s.253.23.322.276a6.5,6.5,0,0,1,2.415,2.461c.759,1.38.851,1.541,1.334,1.541A1.105,1.105,0,0,0-70.1,50.23Zm40.112-7.475c.713,0,1.219,0,1.219-.3a4.588,4.588,0,0,0-1.771-1.518c-.184,0-.253.092-.759.805-.23.3-.276.391-.483.391-.391,0-.483-.23-.483-.437,0-.138.184-1.932.207-2.231.069-.644.069-.736.23-.851.322-.253.46-.368.46-.644,0-.552-1.518-1.518-1.656-1.518s-.644.529-.782.6a2.1,2.1,0,0,1-.851.138h-3.887a2.272,2.272,0,0,1-.667-.069,10.136,10.136,0,0,0-1.357-.6c-.138,0-.207.115-.207.276-.023,1.288-.184,2.3-.414,4.278-.092.667-.115,1.058-.69,1.058-.391,0-2.3-.161-2.737-.161a.061.061,0,0,0-.069.069c0,.023,0,.046.092.138l.46.552c.069.092.115.138.184.138.207,0,1.564-.092,1.84-.092a.549.549,0,0,1,.644.575c0,.575-.805,5.428-.805,5.842s.207.552.6.552c.874,0,.989-.529,1.127-1.15a.571.571,0,0,1,.621-.414h4.83c.391,0,.667.161.667.529A1.141,1.141,0,0,1-35.7,49.954c-.253,0-1.518-.138-1.564-.138-.115,0-.184.046-.184.115,0,.092,0,.115.529.368a1.785,1.785,0,0,1,1.035.92c.207.46.207.506.437.506,1.863,0,2.231-1.587,2.438-2.461.207-.92.253-1.081.851-1.081h2.162c.782,0,1.242,0,1.242-.322a6.405,6.405,0,0,0-2.116-1.656c-.184,0-.23.092-.69.851-.3.46-.322.506-.667.506-.207,0-.483-.046-.483-.46,0-.391.253-2.829.276-3.358.023-.621.046-.989.667-.989Zm-7.843-4.945c.276,0,.667.092.667.6,0,.046-.3,2.967-.322,3.082-.046.322-.092.644-.713.644h-.966a.565.565,0,0,1-.667-.575c0-.161.207-2.461.345-3.381.023-.115.069-.368.644-.368Zm-.552,4.945a.57.57,0,0,1,.667.621c0,.391-.322,2.944-.391,3.519-.046.414-.092.667-.667.667h-.943c-.184,0-.667,0-.667-.575,0-.046.368-3.749.368-3.795.069-.437.506-.437.667-.437Zm3.91,0a.554.554,0,0,1,.644.621c0,.345-.345,3.634-.368,3.772-.046.276-.253.414-.644.414h-1.173c-.368,0-.644-.184-.644-.552,0-.092.345-3.5.368-3.726a.568.568,0,0,1,.6-.529Zm.368-4.945c.184,0,.644,0,.644.644,0,.115-.207,2.921-.23,3.082-.023.368-.161.6-.644.6H-35.42a.579.579,0,0,1-.667-.6c0-.138.322-3.036.391-3.289a.589.589,0,0,1,.667-.437Zm-10.327-4.3c0-1.564-2.208-2.369-2.806-2.369-.046,0-.207,0-.207.092s.184.3.253.391a5.95,5.95,0,0,1,.943,1.587c.437,1.012.552,1.265,1.058,1.265C-44.6,34.475-44.436,33.923-44.436,33.509ZM-46.3,38.73c0-1.518-2.162-2.3-2.737-2.3-.138,0-.253.023-.253.138a3.012,3.012,0,0,0,.276.3,5.649,5.649,0,0,1,.9,1.541c.276.713.483,1.2,1.127,1.2C-46.6,39.6-46.3,39.236-46.3,38.73Zm15.847-4.508c.782,0,1.219,0,1.219-.322,0-.3-1.725-1.541-1.932-1.541-.138,0-.184.069-.644.6-.552.644-.667.644-1.656.644h-5.543c-.6,0-.759-.069-.759-.276a3.533,3.533,0,0,1,.414-1.012c.069-.092.6-.437.6-.552,0-.391-1.656-1.311-1.886-1.311-.184,0-.207.092-.253.759a20.622,20.622,0,0,1-1.633,5.083c-.138.322-.6,1.242-.6,1.311,0,.023,0,.092.069.092a11.258,11.258,0,0,0,2.185-2.668c.414-.644.529-.805,1.1-.805ZM-45.494,50.161a10.41,10.41,0,0,0-.6-2.438,10.464,10.464,0,0,1-.207-1.656c0-1.035,2.369-7.728,2.369-8.694,0-.115-.069-.161-.138-.161-.115,0-.161.115-.184.161-.092.138-1.012,2.553-1.5,3.841-1.4,3.634-1.794,3.749-2.323,3.91-.115.046-.943.046-.943.207,0,.092.552.575.644.69.644.69.69.989.828,3.611.046.644.207,1.656.966,1.656A1.02,1.02,0,0,0-45.494,50.161Zm27.6-13.961c-.161,0-.46,0-.46-.345a9.8,9.8,0,0,1,.644-1.61c.552-1.472.621-1.633,1.012-1.84.138-.069.253-.138.253-.276,0-.207-.3-.414-.322-.414-.368-.161-2-.92-2.162-.92-.184,0-.184.138-.184.529a28.014,28.014,0,0,1-3.335,10.3c-.345.6-.368.644-.368.782,0,.046.023.115.138.115.414,0,2.461-2.99,3.174-4.439.575-1.15.644-1.265,1.357-1.265h2.875c.207,0,.46,0,.46.322,0,1.357-2.737,8.487-6.647,12.558a19.091,19.091,0,0,1-1.587,1.472c-.092.046-.345.207-.345.322,0,.046.023.092.046.092.667,0,5.083-2.484,7.866-7.843A33.607,33.607,0,0,0-13.018,37.6a.95.95,0,0,1,.713-.782c.115,0,.161.092.552.782A18.971,18.971,0,0,0-10,40.064a2.306,2.306,0,0,1,.552,1.886c0,2-.092,5.083-.184,8.349,0,.161-.046.874-.046.989,0,.184,0,.575.667.575a1.263,1.263,0,0,0,1.265-1.426c0-.943-.069-5.06-.069-5.911,0-1.7.046-1.7.23-1.7.069,0,.23.115,1.15.828a16.608,16.608,0,0,0,2.162,1.357c.115,0,.138-.069.23-.23a2.327,2.327,0,0,1,1.84-1.1c.184,0,.207-.069.207-.115,0-.069-.023-.069-.391-.184a19.087,19.087,0,0,1-4.9-2.6A1.074,1.074,0,0,1-7.8,39.7c0-.874.046-4.807.046-5.589,0-.69,0-1.4.276-1.633.368-.322.483-.414.483-.644,0-.3-.253-.368-.644-.506a16.931,16.931,0,0,0-1.7-.506c-.115,0-.138.023-.138.23,0,1.15.046,6.164.046,7.176,0,.184,0,.529-.138.529a9.531,9.531,0,0,1-2.346-2.783c-.414-.621-.46-.69-.6-.69-.092,0-.115.046-.115.115s.115.345.115.414c0,.115-.069.161-.138.161a10.407,10.407,0,0,0-1.334-.644c-.184,0-.23.046-.621.529a.954.954,0,0,1-.92.345Zm-1.955,3.151a4.031,4.031,0,0,0,.529.805,6.2,6.2,0,0,1,.713,1.794c.23,1.058.3,1.357.736,1.357.552,0,.989-.828.989-1.426,0-1.541-2.254-2.668-2.737-2.668C-19.711,39.213-19.826,39.236-19.849,39.351Zm24.4-2.967c-.3.322.8,1.863,1.955,1.863a1.756,1.756,0,0,0,.782-.3c.759-.437,5.52-2.461,6.854-2.461.046,0,.138,0,.138.046a4.5,4.5,0,0,1-.575.483c-3.312,2.967-3.335,7.843-3.335,8.855,0,1.081,0,4.922,4.692,4.922.138,0,2.668,0,2.668-1.219,0-.552-.414-.851-1.127-.851-.207,0-1.84.138-2.185.138-1.357,0-2.806-.253-2.806-4.117,0-5.934,3.266-8.625,6.187-8.625.253,0,1.564.253,1.863.253a.919.919,0,0,0,.943-.851c0-.782-1.035-1.1-1.863-1.1-1.518,0-6.785,1.495-8.832,2.07-3.151.9-3.5.989-4.462.989C5.313,36.476,4.646,36.269,4.554,36.384ZM20.4,37.925a2.123,2.123,0,0,0-.575-.115c-.069,0-.322,0-.322.138,0,.115.092.207.207.3a5.959,5.959,0,0,1,1.518,1.84c.23.552.483,1.219,1.035,1.219.3,0,.667-.253.667-.851C22.931,39.351,21.758,38.362,20.4,37.925Zm-2.967.943c-.207-.046-.46-.023-.46.092a1.247,1.247,0,0,0,.23.414,6.02,6.02,0,0,1,1.15,1.794c.368.9.575,1.334.989,1.334a.933.933,0,0,0,.805-.943A3.324,3.324,0,0,0,17.434,38.868Zm20.47-7.59a.455.455,0,0,0,.046.23,6.039,6.039,0,0,1,.23,1.541c0,.322-.184,2.369-.828,2.369a3.407,3.407,0,0,1-1.564-.805c-.092-.069-.483-.552-.6-.552-.161,0-.207.253-.207.414,0,.966.874,1.656,1.541,2.185.506.391.621.483.621.782,0,.322-.138.414-1.334,1.38-1.449,1.173-1.7,1.932-1.7,2.622A2.5,2.5,0,0,0,35.351,43.4c.391.3.437.46.437.736,0,.322-.184,1.886-.184,2.254,0,4.163,3.956,4.163,4.393,4.163,2.691,0,4.9-1.955,4.9-4.14,0-1.61-1.035-3.427-3.68-5.566-.069-.046-.575-.483-.575-.276a.372.372,0,0,0,.092.23c2.07,2.9,2.277,4.209,2.277,5.2A3.054,3.054,0,0,1,39.7,49.126c-2.875,0-3.151-2.392-3.174-3.427,0-.506,0-1.587.575-1.587.115,0,1.771.3,2.116.3.575,0,1.2-.253,1.2-.667,0-.575-1.081-.92-1.633-.966-1.61-.138-1.7-.138-1.7-.506a11.981,11.981,0,0,1,.483-2c.437-1.449.483-1.61,1.1-1.817,1.449-.506,1.7-.69,1.7-1.058,0-.345-.276-.6-.828-.989-.3-.207-.414-.368-.414-.529,0-.391,1.081-2.323,1.081-2.53C40.2,32.727,38.594,31.209,37.9,31.278Zm-1.219,8.257A14.873,14.873,0,0,1,36.133,42a.293.293,0,0,1-.253.184,1.511,1.511,0,0,1-1.173-1.38c0-.874,1.15-1.656,1.679-1.656C36.685,39.144,36.685,39.351,36.685,39.535Zm28.29,3.174a2.4,2.4,0,0,1-1.311-.253c-.805-.391-.9-.437-1.012-.437s-.115.161-.115.23a4.781,4.781,0,0,0,.069.529c.046.414.046,1.173.046,1.541,0,.644-.115,4.117-.138,5.014,0,.253-.069,1.495-.069,1.61,0,.437.3.506.69.506a1.041,1.041,0,0,0,1.15-.713c.161-.6.184-.644.782-.644h5.888c.483,0,.575.23.621.414.092.483.161.759.736.759a1.163,1.163,0,0,0,1.265-1.242c0-.046-.115-4.416-.115-5.244a1.1,1.1,0,0,1,.3-.874c.322-.322.391-.391.391-.506,0-.322-1.472-1.61-1.725-1.61-.115,0-.138.046-.6.506-.391.391-.529.414-.828.414H69.575c-.276,0-.621-.069-.69-.437-.023-.115-.023-2.921-.023-3.266,0-.621.345-.69.713-.69h4.669c.759,0,1.219,0,1.219-.322a6.422,6.422,0,0,0-1.794-1.518c-.207,0-.276.092-.851.851-.3.391-.414.391-1.472.391H69.529a.617.617,0,0,1-.575-.276c-.069-.161-.092-2.9-.092-3.335,0-.529.253-.644.69-.713a32.919,32.919,0,0,1,3.381-.529c.414,0,.621-.046.621-.253,0-.276-2.162-1.7-2.231-1.7-.046,0-.92.6-1.1.69A27.286,27.286,0,0,1,63,33.762c-.184.046-1.1.207-1.1.3,0,.069.253.161.575.161a22.351,22.351,0,0,0,2.277-.115c.3-.023,1.7-.23,2.024-.23.46,0,.575.345.575.644V37.1c0,.621-.46.621-.736.621H65.182c-1.081,0-2.024-.023-3.151-.092-.138,0-.851-.069-1.012-.069-.046,0-.069.023-.069.046,0,.046,0,.046.092.161l.437.529c.092.092.138.138.207.138s.414-.046.483-.046c.23-.023.9-.069,2.921-.069h1.564c.437,0,.621.184.667.46.023.069.023,2.806.023,3.243,0,.276,0,.69-.69.69Zm-.023,6.762c-.644,0-.69-.368-.69-.759V43.951c0-.506.3-.644.69-.644H71c.69,0,.69.437.69.736,0,.69-.023,4.025-.023,4.784,0,.506-.3.644-.69.644Zm-7.866-18.1a.371.371,0,0,0,.092.161,11.767,11.767,0,0,1,1.61,2.185c.322.529.552.6.759.6a.877.877,0,0,0,.828-.92c0-1.61-2.806-2.231-3.105-2.231A.183.183,0,0,0,57.086,31.37ZM54.717,36.5a6.847,6.847,0,0,1,1.748,2.254c.23.46.437.621.667.621a.85.85,0,0,0,.759-.9c0-1.357-2.093-2.116-2.806-2.116C54.9,36.361,54.717,36.453,54.717,36.5Zm.046,9.2c0,.115.621.23.736.3,1.081.529,1.357,1.15,1.4,3.335,0,.6.023,1.978,1.173,1.978a1,1,0,0,0,.943-1.081,6.943,6.943,0,0,0-.207-1.173c-.667-2.576-.759-2.852-.759-3.611,0-.92,1.242-5.382,1.449-6.394.046-.161.345-1.909.345-1.978,0-.138-.092-.23-.161-.23-.092,0-.276.506-.322.644-1.426,4.347-1.7,5.175-2.76,7.153a1.434,1.434,0,0,1-1.426.9C55.039,45.538,54.763,45.561,54.763,45.7ZM100.6,50.115c.667,0,.805-.023.805-.3a6.133,6.133,0,0,0-1.541-1.541c-.23,0-.805,1.035-1.012,1.15a2,2,0,0,1-.874.092H96.531c-.368,0-.644,0-.644-.759,0-.989,0-1.219.621-1.219h2.944c.92,0,1.035,0,1.035-.322,0-.3-1.311-1.38-1.4-1.38-.23,0-.851.943-1.035,1.012a2.785,2.785,0,0,1-.9.069h-.667c-.391,0-.6-.046-.6-.828,0-.552.046-.782.621-.782h2.9c.943,0,1.035,0,1.035-.322,0-.276-1.288-1.38-1.4-1.38-.23,0-.851.943-1.035,1.035a2.785,2.785,0,0,1-.9.069h-.6c-.621,0-.621-.322-.621-.828,0-.483,0-.782.6-.782h3.7c.6,0,.989,0,.989-.322a6.675,6.675,0,0,0-1.7-1.518c-.253,0-.828,1.058-1.012,1.15a2.119,2.119,0,0,1-.9.092H95.5c-.138,0-.3,0-.3-.138a8.742,8.742,0,0,1,2.346-1.978c.253-.115.46-.207.46-.322,0-.207-.276-.3-.368-.345a8.856,8.856,0,0,0-1.2-.506c-.161,0-.23.046-.414.506a8.806,8.806,0,0,1-1.656,2.53.977.977,0,0,1-.805.253H92.023c-.253,0-.69-.023-.69-.345a6.912,6.912,0,0,1,.989-1.334c.069-.069.552-.253.552-.345,0-.345-1.242-1.1-1.587-1.1-.115,0-.184.6-.23.69-.943,2.024-4.071,5.543-4.761,6.3a.96.96,0,0,0-.138.184s0,.046.069.046a24.26,24.26,0,0,0,2.99-2.438c.414-.391.46-.437.552-.437a.2.2,0,0,1,.207.161c.023.115.046,1.679.046,2,0,.345-.161,3.519-.184,4.071,0,.161-.069.851-.069.989a.557.557,0,0,0,.6.552c.782,0,.989-.437,1.035-.828s.161-.552.667-.552Zm-6.693-4.807c.6,0,.6.207.6.92,0,.575-.115.69-.6.69H91.977c-.506,0-.6-.115-.6-.782,0-.644.069-.828.6-.828Zm-1.886-.6c-.621,0-.644-.253-.644-.805,0-.575.023-.805.644-.805h1.84c.644,0,.644.276.644.713,0,.667,0,.9-.644.9Zm1.886,2.829c.552,0,.6.184.6.966,0,.759,0,1.012-.6,1.012H91.954c-.575,0-.575-.276-.575-.759,0-1.081,0-1.219.575-1.219ZM84.226,32.267a2.3,2.3,0,0,1-1.035-.23,6.375,6.375,0,0,0-1.518-.6.178.178,0,0,0-.184.161c0,.138.138.713.138.851.046.69.069,3.956.069,5.014.023,1.886.023,1.886.575,1.886a.844.844,0,0,0,.874-.552c.115-.253.3-.253.552-.253.276,0,.529.023.529.483v8.3c0,.437,0,.713-.943.713a.338.338,0,0,1-.368-.253c-.046-.161-.046-1.771-.046-2.093a21.157,21.157,0,0,1,.161-3.358c.207-.138.368-.253.368-.437,0-.437-1.771-.644-1.84-.644-.092,0-.161,0-.161.115,0,.138.115,1.081.138,1.265.069.667.069,4.14.069,5.037,0,.6-.092.667-.759.667-.092,0-.46-.069-.529-.069a.22.22,0,0,0-.207.207,12.313,12.313,0,0,0,.69,1.679c.161.368.23.506.391.506s.23-.092.437-.368c.322-.437,2.875-1.288,3.657-1.541.6-.207,4.186-1.426,4.186-1.656,0-.023-.023-.046-.069-.046a3.257,3.257,0,0,0-.46.092c-.9.207-2.852.506-2.944.506a.353.353,0,0,1-.391-.276c-.023-.138-.023-3.726-.023-4.209,0-.391.345-.414.506-.414h1.449c.989,0,1.1,0,1.1-.253a5.227,5.227,0,0,0-1.357-1.311c-.138,0-.184.069-.621.667a.622.622,0,0,1-.552.3c-.529,0-.529-.161-.529-.69V38.822c0-.092,0-.276.253-.276.161,0,.184.069.23.3a.485.485,0,0,0,.529.368c1.035,0,1.035-.9,1.035-1.426,0-.6-.069-3.519-.069-4.163,0-.276.023-.391.161-.506.23-.23.437-.414.437-.552,0-.23-1.311-1.012-1.518-1.012-.115,0-.506.483-.621.552a1.17,1.17,0,0,1-.782.161Zm1.173.621a.606.606,0,0,1,.483.138,9.006,9.006,0,0,1,.161,2.208c0,.345,0,2.254-.069,2.438-.092.253-.368.253-.552.253H83.766c-.621,0-.621-.115-.621-1.311,0-.437,0-3.22.092-3.473.069-.253.368-.253.552-.253ZM95.4,32.727c.069.092.115.138.207.138.069,0,.414-.046.483-.046.529-.046,1.909-.069,2.116-.069.69,0,.69.253.69,1.242,0,.805,0,1.035-.759,1.035-.46,0-2.484-.161-2.9-.161-.046,0-.092.023-.092.069,0,.023,0,.023.092.138l.46.529c.069.092.115.161.207.161.046,0,.276-.046.322-.046.368-.046,1.587-.069,2-.069.322,0,.667.046.667.621,0,1.4-.023,1.633-.667,1.633-.46,0-2.507-.138-2.921-.138-.023,0-.069,0-.069.046s0,.046.092.161l.437.529c.092.092.138.138.207.138s.3-.023.345-.023c.391-.023,1.357-.069,1.794-.069.3,0,.69,0,.713.483.023.414.046.69.552.69a.864.864,0,0,0,.966-.828c0-.644-.115-3.473-.115-4.048,0-1.127,0-1.265.368-1.518.414-.3.46-.345.46-.46,0-.276-1.472-1.173-1.564-1.173s-.437.3-.506.345a1,1,0,0,1-.529.115c-.529,0-1.771-.046-2.392-.092-.184,0-.966-.069-1.127-.069-.046,0-.092,0-.092.046s0,.046.092.161Zm-6.256-.184c.092.115.138.161.207.161.046,0,.276-.046.322-.046.437-.069,1.794-.069,2.231-.069.621,0,.736.184.736.828,0,1.4,0,1.564-.644,1.564-.483,0-2.116-.069-2.254-.069-.138-.023-.713-.092-.851-.092a.073.073,0,0,0-.069.069c0,.023.023.069.092.161l.437.506c.092.115.138.161.207.161s.276-.046.322-.046C90.3,35.6,91.586,35.6,92,35.6c.667,0,.667.506.667.759,0,1.334,0,1.61-.69,1.61-.506,0-2.783-.161-3.243-.161-.023,0-.069,0-.069.046s0,.046.092.161l.437.529c.092.092.115.138.207.138.046,0,.276-.046.322-.046.414-.069,1.725-.069,2.162-.069.506,0,.713.161.759.529.046.391.069.575.506.575a.981.981,0,0,0,.966-.966c0-.414-.161-2.277-.161-2.668,0-.414,0-2.921.046-3.128.023-.092.322-.391.322-.46a2.622,2.622,0,0,0-1.2-1.012c-.115,0-.46.345-.529.414a1.12,1.12,0,0,1-.644.115c-.506,0-2.806-.161-3.266-.161a.073.073,0,0,0-.069.069c0,.023,0,.023.092.138Zm23.759-.345c-.138,0-.322.069-.322.23,0,.023.23.552.253.621a2.9,2.9,0,0,1,.207,1.127c0,.644-.207,2.53-.3,3.289a52.449,52.449,0,0,0-.529,6.394c0,4.623,1.426,6.348,4.416,6.348a10.756,10.756,0,0,0,7.728-3.956.107.107,0,0,0-.115-.115c-.092,0-1.84.966-2.185,1.127a11.329,11.329,0,0,1-4.83,1.2c-3.082,0-3.519-2.07-3.519-4.393a55.282,55.282,0,0,1,.966-8.188,10.578,10.578,0,0,0,.437-1.288C115.115,34.061,114.1,32.2,112.907,32.2Zm21.85,4.186c-.276.322.805,1.863,1.955,1.863a1.663,1.663,0,0,0,.805-.3c.736-.414,5.52-2.461,6.831-2.461.046,0,.138,0,.138.046a4.122,4.122,0,0,1-.552.483c-3.335,2.967-3.358,7.843-3.358,8.855,0,1.081,0,4.922,4.715,4.922.138,0,2.668,0,2.668-1.219,0-.552-.437-.851-1.15-.851-.184,0-1.84.138-2.185.138-1.357,0-2.806-.253-2.806-4.117,0-5.934,3.266-8.625,6.187-8.625.276,0,1.587.253,1.886.253a.913.913,0,0,0,.92-.851c0-.782-1.035-1.1-1.84-1.1-1.541,0-6.785,1.495-8.832,2.07-3.151.9-3.5.989-4.485.989C135.539,36.476,134.849,36.269,134.757,36.384Zm26.979-1.495c-.046,0-.138.023-.138.092a3.107,3.107,0,0,0,.184.782,6.39,6.39,0,0,1,.161,1.334c0,.6-.322,3.427-.322,4.071,0,4.393,2.9,6.808,4.37,6.808.391,0,.874-.253.874-.713a5.769,5.769,0,0,0-.184-.759,3.1,3.1,0,0,1-.138-.92,6.453,6.453,0,0,1,.3-1.748,2.76,2.76,0,0,0,.069-.46c0-.092-.046-.184-.115-.184-.184,0-.575.552-.713.782-.69,1.15-.782,1.265-1.173,1.265-.713,0-1.909-1.679-1.909-4a8.124,8.124,0,0,1,.552-2.967,3.151,3.151,0,0,0,.276-.92C163.829,36.729,162.794,34.889,161.736,34.889Zm10.971,2.116c-.115,0-.207.046-.207.115,0,.138.92.851,1.1,1.035,1.219,1.219,1.219,2.185,1.219,4.094,0,.3,0,1.541,1.127,1.541,1.1,0,1.15-1.081,1.15-1.518a5.724,5.724,0,0,0-2.047-4.393A4.477,4.477,0,0,0,172.707,37.005Zm22.586-3.726a15.825,15.825,0,0,1-.138,2.024c-.046.23-.276.345-.759.345a4.06,4.06,0,0,1-2.231-.621c-.069-.046-.621-.368-.644-.368-.069,0-.092.115-.092.161,0,.9,1.449,2.07,3.082,2.185.368.023.483.023.483.138,0,.023-.184,3.036-.207,3.105-.161.437-1.7.437-2.254.437a8.949,8.949,0,0,1-2.783-.414,5.666,5.666,0,0,0-.874-.322c-.069,0-.069.046-.069.092a2.584,2.584,0,0,0,.667,1.058,4.691,4.691,0,0,0,3.174.943c.3,0,1.679-.115,2-.115.23,0,.23.138.23.345.023.621.046,2.162.046,2.622,0,.782,0,.851-.253.851-.161,0-1.012-.069-1.219-.069-2.737,0-4.14,1.058-4.14,2.438a2.667,2.667,0,0,0,2.944,2.484,4.456,4.456,0,0,0,3.91-2.323c.115-.253.161-.368.3-.368a4.106,4.106,0,0,1,1.61,1.242c.828.989.92,1.1,1.242,1.1a.891.891,0,0,0,.782-.966c0-1.081-1.472-2.3-3.266-3.036-.483-.184-.483-.276-.575-1.035-.023-.23-.276-2.875-.276-3.312,0-.23.069-.253.782-.506,1.058-.345,3.611-1.4,3.611-2.208,0-.506-.6-.552-1.541-.621-.115,0-.6-.115-.713-.115-.046,0-.115,0-.115.069s.092.345.092.414c0,.736-1.656,1.2-1.909,1.2-.3,0-.3-.138-.3-.667,0-.943.092-2.162.115-2.231.023-.345.069-.368.253-.414.644-.207,2.208-.667,2.208-1.518,0-.368-.437-.437-.667-.437a2.751,2.751,0,0,0-.828.184,2.684,2.684,0,0,1-.644.207c-.092,0-.092-.092-.092-.138a5.374,5.374,0,0,1,.345-1.495,6.608,6.608,0,0,0,.575-1.219c0-.483-1.242-1.058-1.863-1.058-.138,0-.575,0-.575.161,0,.046.138.276.161.345A4.372,4.372,0,0,1,195.293,33.279Zm-.552,13.892c.092.207-.115.759-.529,1.127a3.8,3.8,0,0,1-2.277.851c-.644,0-1.84-.276-1.84-1.15,0-1.311,2.415-1.311,2.461-1.311C192.97,46.688,194.58,46.78,194.741,47.171ZM211.83,36.936c-.069.023-.115.138-.115.23,0,.943,1.909,1.909,2.415,1.909a21.377,21.377,0,0,0,2.461-.92,28.488,28.488,0,0,1,4.071-.92c.46,0,.46.138.46,1.38,0,1.173,0,1.311-.644,1.4-2.231.345-2.231,2.875-2.231,3.174,0,1.84,1.1,3.013,2.346,3.013.069,0,.414-.046.483-.046.23,0,.23.253.23.322a7.482,7.482,0,0,1-1.288,3.381c-.161.23-1.1,1.334-1.1,1.38,0,.069.069.092.115.092.713,0,4.186-2.852,4.186-7.314a7.291,7.291,0,0,0-.667-3.1,3,3,0,0,1-.3-1.5c0-2.024.046-2.346.368-2.484a10.73,10.73,0,0,1,2.484-.23c.437,0,2.576.207,3.059.207.805,0,1.242-.207,1.242-.805,0-.805-1.012-.9-1.311-.9-.184,0-1.15.115-1.38.115a5.054,5.054,0,0,1-2.024-.46c-1.357-.575-2.024-.92-2.024-1.449,0-.115.092-.6.092-.713,0-.736-.9-1.15-1.909-1.15-.138,0-.483,0-.483.161,0,.115.368.529.391.644a13.738,13.738,0,0,1,.322,3.128c0,.6-.138.621-1.334.828a46.487,46.487,0,0,1-6.256.782C213.164,37.1,212.06,36.959,211.83,36.936Zm10.856-2.691a4.987,4.987,0,0,1,1.748,1.219c0,.345-1.495.391-1.587.391-.322,0-.414-.069-.414-.437C222.433,34.82,222.525,34.291,222.686,34.245Zm-1.564,7.268a4.472,4.472,0,0,1,.3,1.61c0,.368-.023,1.748-.92,1.748a1.667,1.667,0,0,1-1.495-1.84c0-1.173.736-2.116,1.311-2.116A.972.972,0,0,1,221.122,41.513Zm18.262,4.715a2.553,2.553,0,0,0-.023,5.106,2.553,2.553,0,1,0,.023-5.106Zm-.023.644a1.929,1.929,0,0,1,1.955,1.932,1.9,1.9,0,0,1-1.909,1.886,1.929,1.929,0,0,1-1.932-1.932A1.861,1.861,0,0,1,239.361,46.872Z" transform="translate(256.312 19.504)" fill="#fff"/>
</svg>
