<svg xmlns="http://www.w3.org/2000/svg" width="255.35" height="25.94" viewBox="0 0 255.35 25.94">
  <path id="パス_130445" data-name="パス 130445" d="M1.406-7.486c.076,2.736.076,4.826.114,5.7A9.825,9.825,0,0,0,8.132.57c4.484,0,8.436-2.85,8.436-7.334,0-3.078-1.862-5.092-4.484-7.03l-1.14-.836c-1.976-1.482-3.42-2.85-3.42-5.016a4.142,4.142,0,0,1,4.142-4.332c3.268,0,4.256,2.736,4.56,5.51l1.14-.114c.038-1.824,0-3.838.114-5.4-.3-.114-.912-.38-1.634-.646a12.206,12.206,0,0,0-3.762-.646c-4.56,0-7.79,2.85-7.79,6.878,0,3.154,2.432,5.282,4.294,6.726l1.1.836c2.166,1.71,3.42,3.192,3.42,5.282C13.11-2.66,11.362-.76,8.626-.76,4.484-.76,2.888-4.788,2.508-7.6ZM22.154.456a2.318,2.318,0,0,0,2.318-2.47,1.972,1.972,0,0,0-1.938-2.128,2.359,2.359,0,0,0-2.356,2.508A1.969,1.969,0,0,0,22.154.456Zm21.09-25.118H33.326L33.06-23.6c3.116.266,3.382.494,2.85,3.306L32.832-4.522c-.57,2.926-.8,3.23-3.724,3.458L28.842,0h9.994l.228-1.064c-3.078-.228-3.344-.494-2.774-3.458l3.04-15.77c.57-2.812.76-3.04,3.686-3.306ZM45.752.456a2.318,2.318,0,0,0,2.318-2.47,1.972,1.972,0,0,0-1.938-2.128,2.359,2.359,0,0,0-2.356,2.508A1.969,1.969,0,0,0,45.752.456ZM81.32-24.662H72.694l-.3,1.064c2.774.152,3.458.57,3.306,2.356a58.781,58.781,0,0,1-.988,6.5L73-5.662h-.114l-10.982-19H56.164L55.9-23.6c2.014.114,2.736.342,3.192,1.14.456.836.608,1.444.19,3.534L57.38-9.88c-.76,3.534-1.178,5.244-1.6,6.536-.494,1.672-1.368,2.166-3.344,2.28L52.174,0H60.99l.228-1.064c-2.66-.19-3.344-.608-3.23-2.356a48.973,48.973,0,0,1,.95-6.384l1.938-9.88h.114L72.162.3h1.292L76.3-14.744a64.514,64.514,0,0,1,1.482-6.46c.494-1.672.988-2.28,3.306-2.394Zm12.692,0L93.784-23.6c3,.266,3.23.494,2.66,3.306L93.4-4.6c-.608,3.04-.912,3.268-3.8,3.534L89.338,0h8.284a18.292,18.292,0,0,0,7.828-1.33c2.546-1.216,4.332-3.344,4.332-6.156,0-3.5-2.622-5.32-5.586-5.928v-.076c3.382-.684,6.232-2.47,6.232-5.928,0-3.838-2.888-5.244-7.334-5.244Zm4.56,10.716,1.368-7.372c.19-1.026.418-1.482.722-1.71a2.922,2.922,0,0,1,1.71-.38c2.128,0,4.332.95,4.332,4.028,0,3.268-2.2,5.434-6.384,5.434Zm-.266,1.292h1.71c3.116,0,5.814,1.216,5.814,4.978A6.006,6.006,0,0,1,99.636-1.33c-2.318,0-3.382-.532-2.85-3.382Zm42.256-12.008H131.67L131.4-23.6c2.736.152,3.458.532,3.382,2.09a58.154,58.154,0,0,1-.988,6.726l-.57,2.774c-1.406,7.182-3.952,10.488-8.436,10.488-3.724,0-6.422-2.584-5.13-9.348l1.748-9.272c.57-3.04.836-3.192,3.648-3.458l.228-1.064H115.6L115.33-23.6c3,.266,3.192.494,2.622,3.458l-1.786,9.462c-.874,4.712-.038,7.562,1.71,9.2A8.563,8.563,0,0,0,123.8.57a9.771,9.771,0,0,0,6.574-2.508c2.508-2.356,3.648-5.814,4.408-9.766l.608-3.078c.684-3.458,1.14-5.4,1.52-6.688.456-1.444.912-2.014,3.382-2.128Zm-.456,17.176c.076,2.736.076,4.826.114,5.7A9.825,9.825,0,0,0,146.832.57c4.484,0,8.436-2.85,8.436-7.334,0-3.078-1.862-5.092-4.484-7.03l-1.14-.836c-1.976-1.482-3.42-2.85-3.42-5.016a4.142,4.142,0,0,1,4.142-4.332c3.268,0,4.256,2.736,4.56,5.51l1.14-.114c.038-1.824,0-3.838.114-5.4-.3-.114-.912-.38-1.634-.646a12.206,12.206,0,0,0-3.762-.646c-4.56,0-7.79,2.85-7.79,6.878,0,3.154,2.432,5.282,4.294,6.726l1.1.836c2.166,1.71,3.42,3.192,3.42,5.282,0,2.888-1.748,4.788-4.484,4.788-4.142,0-5.738-4.028-6.118-6.84ZM171.8-24.662H161.88l-.266,1.064c3.116.266,3.382.494,2.85,3.306l-3.078,15.77c-.57,2.926-.8,3.23-3.724,3.458L157.4,0h9.994l.228-1.064c-3.078-.228-3.344-.494-2.774-3.458l3.04-15.77c.57-2.812.76-3.04,3.686-3.306Zm28.2,0h-8.626l-.3,1.064c2.774.152,3.458.57,3.306,2.356a58.78,58.78,0,0,1-.988,6.5l-1.71,9.082h-.114l-10.982-19h-5.738l-.266,1.064c2.014.114,2.736.342,3.192,1.14.456.836.608,1.444.19,3.534l-1.9,9.044c-.76,3.534-1.178,5.244-1.6,6.536-.494,1.672-1.368,2.166-3.344,2.28L170.848,0h8.816l.228-1.064c-2.66-.19-3.344-.608-3.23-2.356a48.974,48.974,0,0,1,.95-6.384l1.938-9.88h.114L190.836.3h1.292l2.85-15.048a64.513,64.513,0,0,1,1.482-6.46c.494-1.672.988-2.28,3.306-2.394Zm3.23,0-.266,1.064c3.116.266,3.306.494,2.7,3.534L202.692-4.6c-.608,3.04-.912,3.268-3.952,3.534L198.474,0H216.41c.532-1.216,1.938-4.788,2.356-5.89l-1.1-.38a15.489,15.489,0,0,1-2.584,3.61c-1.026.988-2.166,1.292-4.9,1.292-2.052,0-3.154-.076-3.724-.57-.494-.456-.532-1.444-.152-3.534l1.254-6.65h3.458c3.268,0,3.268.266,3.192,3h1.14l1.444-7.3h-1.14c-.912,2.508-1.14,2.774-4.332,2.774H207.86l1.558-8.132c.266-1.406.38-1.558,1.71-1.558h2.736c2.7,0,3.23.342,3.648,1.216a7.832,7.832,0,0,1,.532,3.382l1.14-.076c.266-2.2.608-5.092.722-5.852ZM221.882-7.486c.076,2.736.076,4.826.114,5.7A9.825,9.825,0,0,0,228.608.57c4.484,0,8.436-2.85,8.436-7.334,0-3.078-1.862-5.092-4.484-7.03l-1.14-.836c-1.976-1.482-3.42-2.85-3.42-5.016a4.142,4.142,0,0,1,4.142-4.332c3.268,0,4.256,2.736,4.56,5.51l1.14-.114c.038-1.824,0-3.838.114-5.4-.3-.114-.912-.38-1.634-.646a12.206,12.206,0,0,0-3.762-.646c-4.56,0-7.79,2.85-7.79,6.878,0,3.154,2.432,5.282,4.294,6.726l1.1.836c2.166,1.71,3.42,3.192,3.42,5.282,0,2.888-1.748,4.788-4.484,4.788-4.142,0-5.738-4.028-6.118-6.84Zm18.7,0c.076,2.736.076,4.826.114,5.7A9.825,9.825,0,0,0,247.3.57c4.484,0,8.436-2.85,8.436-7.334,0-3.078-1.862-5.092-4.484-7.03l-1.14-.836c-1.976-1.482-3.42-2.85-3.42-5.016a4.142,4.142,0,0,1,4.142-4.332c3.268,0,4.256,2.736,4.56,5.51l1.14-.114c.038-1.824,0-3.838.114-5.4-.3-.114-.912-.38-1.634-.646a12.206,12.206,0,0,0-3.762-.646c-4.56,0-7.79,2.85-7.79,6.878,0,3.154,2.432,5.282,4.294,6.726l1.1.836c2.166,1.71,3.42,3.192,3.42,5.282,0,2.888-1.748,4.788-4.484,4.788-4.142,0-5.738-4.028-6.118-6.84Z" transform="translate(-1.355 25.32)" fill="#fff" stroke="#fff" stroke-width="0.1"/>
</svg>
