<svg xmlns="http://www.w3.org/2000/svg" width="74.29" height="15.708" viewBox="0 0 74.29 15.708">
  <path id="パス_130446" data-name="パス 130446" d="M7.65-11.509c.34,0,.34.289.34.476,0,.9,0,.986-.374.986H5.78a1.728,1.728,0,0,1-.68-.1,7.5,7.5,0,0,0-1.326-.68c-.1,0-.119.068-.119.153a4.048,4.048,0,0,0,.085.442c.034.34.034,1.445.034,1.5,0,.221-.051,1.292-.051,1.53,0,.221.051.442.442.442a.758.758,0,0,0,.782-.527c.068-.255.085-.323.408-.323H7.6c.357,0,.357.272.357.459,0,.731,0,.918-.374.918H5.321c-.8,0-1.5,0-2.329-.051-.119,0-.629-.068-.748-.068-.051,0-.068.017-.068.051,0,.017.017.034.068.1l.34.408c.051.068.085.1.153.1.051,0,.289-.051.357-.051.153-.017.646-.034,2.142-.034H7.582c.357,0,.357.272.357.646,0,.476,0,.7-.374.7H3.876c-.8,0-1.5-.017-2.329-.051-.1,0-.629-.068-.748-.068-.034,0-.068.017-.068.051,0,.017.017.034.085.1l.323.391c.051.068.1.119.17.119.051,0,.289-.051.34-.051.17-.017.663-.034,2.142-.034H7.565c.357,0,.357.272.357.527,0,.782,0,.969-.408.969H5.78c-.8,0-1.5-.034-2.329-.068-.119,0-.646-.051-.765-.051-.034,0-.051.017-.051.034,0,.034,0,.034.068.119l.34.391c.051.068.085.1.136.1s.306-.034.374-.034c.153-.017.935-.051,2.142-.051H7.514a.35.35,0,0,1,.391.408c0,1.326,0,1.377-.935,1.377-.2,0-1.207-.136-1.428-.136-.034,0-.221,0-.221.085,0,.153.357.272.544.323,1.037.34,1.292.731,1.411,1,.085.187.1.238.221.238a4.035,4.035,0,0,0,.85-.2,1.211,1.211,0,0,0,.8-1.343c0-.17-.034-1-.034-1.19,0-.323,0-.561.408-.561h2.635c.2,0,.34.068.374.391.068.544.085.731.493.731a.815.815,0,0,0,.884-.867c0-.187-.051-1.411-.051-1.683,0-.221,0-.51.357-.51H15.5c.442,0,.748,0,.748-.2,0-.323-1.139-1.054-1.309-1.054-.136,0-.17.068-.527.544a.617.617,0,0,1-.374.221c-.187,0-.187-.153-.187-.255,0-.6,0-.663.1-.765.306-.34.323-.374.323-.459,0-.221-.935-.85-1.088-.85-.187,0-.306.119-.51.323a.84.84,0,0,1-.714.238H9.452c-.374,0-.374-.238-.374-.663,0-.459,0-.714.374-.714h2.176a.3.3,0,0,1,.323.221c.1.357.136.493.578.493a.688.688,0,0,0,.731-.612V-9.129a.337.337,0,0,1,.153-.323c.221-.2.306-.272.306-.391,0-.221-.952-.85-1.071-.85-.153,0-.255.119-.527.408a.546.546,0,0,1-.527.238H9.469c-.357,0-.374-.255-.374-.425.017-.935.017-1.037.425-1.037h5.457c.578,0,.918,0,.918-.238,0-.221-1.5-1.122-1.6-1.122-.153,0-.2.068-.68.629-.255.289-.323.289-1.088.289H9.52a.339.339,0,0,1-.374-.391,2.15,2.15,0,0,1,.051-.476c.034-.1.391-.527.391-.646,0-.357-1.428-.748-1.6-.748-.068,0-.153.034-.153.221,0,.2.153,1.292.153,1.547,0,.187,0,.493-.357.493H4.318c-.8,0-1.5-.034-2.329-.068-.119,0-.629-.051-.748-.051-.051,0-.068,0-.068.034s.017.034.068.119l.34.391c.051.068.085.1.153.1.051,0,.289-.034.357-.034.323-.017.85-.051,2.142-.051ZM5.355-8.058c-.425,0-.425-.17-.425-.765s0-.765.408-.765H7.582c.374,0,.374.255.374.748,0,.527,0,.782-.374.782Zm6.324-1.53c.374,0,.374.272.374.629,0,.7,0,.9-.408.9H9.469c-.391,0-.391-.2-.391-.918,0-.323,0-.612.391-.612ZM9.452-4.437c-.374,0-.374-.2-.374-.8,0-.255,0-.544.374-.544h2.839c.374,0,.374.289.374.544,0,.6-.068.8-.408.8Zm2.805.459c.374,0,.374.272.374.561,0,.8-.068.935-.459.935H9.5c-.408,0-.408-.1-.408-1.02,0-.2,0-.476.374-.476ZM34.6-3.4c.561,0,.9,0,.9-.238,0-.289-1.292-1.122-1.462-1.122-.2,0-.782.782-.935.85a3.252,3.252,0,0,1-.833.051H28.815c-.408,0-.408-.221-.408-.425,0-.782,0-.918.425-.918h3.723c.544,0,.85,0,.85-.272S32.385-6.579,32.1-6.579c-.187,0-.238.068-.731.646-.238.272-.323.272-1.071.272H28.883c-.476,0-.476-.238-.476-.68,0-.663,0-.867.51-.867H33.66c.782,0,.867,0,.867-.221,0-.272-1.224-1.122-1.292-1.122-.17,0-.646.663-.765.765-.136.119-.221.119-.918.119h-1.53c-.119,0-.323,0-.323-.153,0-.221.748-.9,1.139-1.122.238-.119.306-.17.306-.289,0-.17-.068-.2-.629-.527-.34-.2-.374-.221-.374-.289,0-.085.119-.085.187-.085h3.893c.578,0,.918,0,.918-.238a4.508,4.508,0,0,0-1.462-1.088c-.153,0-.646.646-.765.731-.17.136-.34.153-.986.153h-.833c-.068,0-.2-.017-.2-.1a7.743,7.743,0,0,1,1.462-1.071,7.506,7.506,0,0,1,.7-.442c.357-.136.391-.136.391-.255,0-.323-1.258-1-1.292-1-.085,0-.1.034-.289.476-.272.629-1.5,2.4-1.8,2.4-.153,0-.17-.136-.17-.255-.017-.867-.034-.952-.034-1.921a.706.706,0,0,1,.187-.6c.153-.2.187-.238.187-.306,0-.153-.17-.272-.272-.306a7.028,7.028,0,0,0-1.173-.306c-.119,0-.17.1-.17.238a2.823,2.823,0,0,0,.051.374c.017.306.051,1.156.051,1.615,0,1.326,0,1.462-.493,1.462h-.612c-.476,0-.51,0-.51-2.278,0-.374.034-.51.153-.646a.6.6,0,0,0,.17-.272c0-.374-1.377-.476-1.411-.476-.1,0-.17,0-.17.2,0,.17.1.884.119,1.037.017.459.034,1.666.034,1.972,0,.153,0,.459-.374.459h-.51c-.051,0-.187,0-.187-.136a.357.357,0,0,1,.085-.238.891.891,0,0,0,.119-.425c0-1.105-1.836-1.6-2.261-1.6-.1,0-.17.068-.17.119,0,0,.595.578.7.7a4.471,4.471,0,0,1,.68,1.377c0,.2-.1.2-.357.2-.969,0-1.853-.051-2.346-.068-.119,0-.629-.051-.748-.051-.017,0-.051,0-.051.034s0,.034.068.119l.34.391c.051.068.085.1.136.1.068,0,.306-.034.374-.034.323-.034,1.462-.051,2.142-.051h.425c.323,0,.544.034.884.6a7.233,7.233,0,0,1,.7,1.734c0,.136-.1.136-.187.136H24.82c-.952,0-1.836-.034-2.329-.051-.119,0-.646-.068-.748-.068a.054.054,0,0,0-.051.051c0,.017,0,.017.068.1l.323.391c.068.085.1.119.153.119s.306-.034.357-.034c.6-.051,1.751-.051,2.159-.051h2.057c.442,0,.442.357.442.714,0,.629,0,.833-.493.833H25.687c-.765,0-1.853-.034-2.329-.051-.119,0-.646-.068-.748-.068-.034,0-.068.017-.068.051,0,.017,0,.017.068.1l.34.408c.068.068.085.1.153.1.051,0,.408-.051.459-.051C23.936-5.2,24.973-5.2,25.6-5.2h1.224c.408,0,.425.2.425.391,0,.8,0,.952-.357.952H23.562c-.714,0-1.853-.034-2.346-.051-.119,0-.629-.068-.748-.068a.054.054,0,0,0-.051.051c0,.017,0,.017.068.1l.323.391c.068.085.1.119.153.119.068,0,.408-.051.459-.051.442-.034,1.5-.034,2.057-.034h2.244c.119,0,.289,0,.289.17,0,.34-2.686,2.7-5.61,4-.017.017-.357.17-.357.221,0,.068.085.085.119.085A16.94,16.94,0,0,0,26.69-2.057a1.789,1.789,0,0,1,.408-.255c.136,0,.136.153.136.221,0,.442,0,.986-.017,1.428-.017.255-.1,1.53-.1,1.564,0,.374.17.425.374.425a1.065,1.065,0,0,0,.765-.34c.17-.187.17-.323.17-.935,0-.357-.017-1.921-.017-2.244,0-.1-.017-.612-.017-.68,0-.051.017-.2.153-.2.085,0,.1.034.493.51a11.013,11.013,0,0,0,4.675,3.4,4.88,4.88,0,0,0,.833.289c.051,0,.17-.2.221-.323a1.626,1.626,0,0,1,.918-.85c.272-.068.357-.085.357-.187s-.051-.1-.459-.153a12.263,12.263,0,0,1-5.763-2.244c-.544-.408-.612-.442-.612-.6,0-.17.187-.17.425-.17Zm-5.321-6.732c.289,0,.357.051.357.221a5.76,5.76,0,0,1-.323,1.547c-.187.561-.289.7-.782.7H26.639c-.068,0-.187,0-.187-.085a.32.32,0,0,1,.034-.136,1.014,1.014,0,0,0,.119-.442c0-.374-.221-.833-1.037-1.428-.068-.034-.357-.238-.357-.289,0-.085.1-.085.136-.085Zm19.4,4.845a1.589,1.589,0,0,1-.782-.153,2.688,2.688,0,0,0-.918-.34.156.156,0,0,0-.17.17c0,.119.085.629.085.731.051.765.051,1.309.051,1.989,0,.833,0,1.887-.051,2.72,0,.136-.068.782-.068.918,0,.221.034.493.459.493.8,0,.816-.425.833-.952.017-.408.34-.408.527-.408h3.825c.221,0,.493,0,.527.425.017.408.051.714.459.714a.781.781,0,0,0,.867-.9c0-.323-.085-1.768-.085-2.057,0-.34,0-2.4.051-2.482.017-.017.306-.238.34-.272a.207.207,0,0,0,.1-.17c0-.374-1.241-.935-1.36-.935-.1,0-.425.357-.493.408a.894.894,0,0,1-.527.1ZM48.637-.561c-.119,0-.391,0-.476-.221-.068-.136-.068-2.431-.068-2.618,0-1.292,0-1.428.544-1.428H52.5c.306,0,.408.051.493.2.051.136.051,2.431.051,2.635,0,1.292,0,1.428-.544,1.428ZM42.449-9.486a1.738,1.738,0,0,0-.68-1.173.451.451,0,0,1-.153-.255c0-.119.051-.187.6-.7a12.7,12.7,0,0,1,1.36-1.343c.17-.1.238-.119.238-.272,0-.289-1.071-1.02-1.292-1.02-.17,0-.17.068-.17.357,0,.238-.85,2.771-1.19,2.771-.068,0-1.02-.34-1.207-.34-.034,0-.1,0-.1.051a1.218,1.218,0,0,0,.187.255,5.012,5.012,0,0,1,1.173,1.615c.306.612.544.731.748.731C42.211-8.806,42.449-9.129,42.449-9.486Zm6.868-3.587c-.969,0-1.836-.034-2.329-.068-.119,0-.646-.051-.748-.051-.017,0-.068,0-.068.034s.017.051.085.119l.323.391c.051.068.085.1.153.1.051,0,.306-.034.357-.034.221-.017,1.071-.034,1.309-.034.306,0,.374.2.374.442A7.983,7.983,0,0,1,47.4-7.565c-.17.221-1.071,1.292-1.071,1.36a.037.037,0,0,0,.034.034,7.864,7.864,0,0,0,2.618-2.346A7.894,7.894,0,0,0,50.1-12.155c.051-.425.2-.476.544-.476h2.04c.238,0,.493.017.493.459A19.293,19.293,0,0,1,52.7-8.534c-.238.731-.425.731-.7.731a4.53,4.53,0,0,1-1.088-.221c-.017,0-.289-.085-.289-.085-.017,0-.068.017-.068.051,0,.068.306.34.34.425a2.179,2.179,0,0,1,.357.816c.1.391.2.476.459.476A2.19,2.19,0,0,0,53.55-7.514a10.867,10.867,0,0,0,.7-3.621c.119-1.19.187-1.224.34-1.326.289-.17.323-.187.323-.323,0-.289-.969-1-1.224-1-.153,0-.2.085-.408.442a.59.59,0,0,1-.578.272ZM41.191-4.641a6.312,6.312,0,0,0-.7-.2.115.115,0,0,0-.119.119c0,.051.034.323.034.374a18.937,18.937,0,0,1-.357,2.72C39.984-1.36,39.576,0,39.576.1c0,.068,0,.085.085.085a3.6,3.6,0,0,0,.646-.952c.2-.391,1.054-2.329,1.292-2.754.051-.1.425-.595.425-.646C42.024-4.352,41.446-4.556,41.191-4.641Zm3.774.748a2.313,2.313,0,0,0-.578-.391.033.033,0,0,0-.034.034c0,.051,0,.085.119.374a8.406,8.406,0,0,1,.306,1.445c.136,1.02.17,1.377.7,1.377.323,0,.629-.255.629-.782A3.025,3.025,0,0,0,44.965-3.893Zm-.221-3.213c0,.2,0,.238-1.139.238-.51,0-1.054-.017-1.122-.017-.085-.017-.238-.017-.238-.136a.23.23,0,0,1,.085-.17c.476-.527,2.55-3.332,2.873-3.468.476-.221.493-.238.493-.374,0-.476-1.139-.935-1.462-.935-.17,0-.17.068-.17.289a25.381,25.381,0,0,1-2.142,4.454c-.2.323-.289.323-.612.323a6.532,6.532,0,0,1-1.19-.085c-.068,0-.374-.17-.459-.17-.17,0-.221.2-.221.459s.153,1.19.493,1.19a4.749,4.749,0,0,0,.578-.306,12.263,12.263,0,0,1,1.751-.306c.238,0,.289.119.289.442.017.357,0,2.074,0,2.465,0,.1-.153,2.992-.17,3.281,0,.085-.051.527-.051.612a.518.518,0,0,0,.544.578c.765,0,.765-.8.765-1.19,0-.833-.051-4.879-.051-5.8,0-.425,0-.544.289-.629a5.535,5.535,0,0,1,.9-.153c.136,0,.2.017.272.272.119.493.17.68.51.68.476,0,.51-.629.51-.748,0-.68-.34-.918-1.054-1.428a2.153,2.153,0,0,0-.578-.238.062.062,0,0,0-.068.068.854.854,0,0,0,.136.2A1.764,1.764,0,0,1,44.744-7.106Zm13.889.969c.425,0,4.3-1.8,7.548-5.984.476-.612.527-.68.646-.68s.187.085.255.187a19.338,19.338,0,0,0,1.19,1.87,11.973,11.973,0,0,0,4.947,4c.085,0,.136-.051.2-.119a2.347,2.347,0,0,1,.952-.765,5.958,5.958,0,0,0,.646-.306c0-.034-.051-.051-.119-.068-.357-.068-1.088-.306-1.5-.442-3.349-1.156-6.069-4.182-6.069-4.573a.147.147,0,0,1,.068-.119c.136-.085.238-.153.238-.306,0-.408-1.785-.935-1.887-.935-.2,0-.2.136-.2.289,0,1.326-3.74,5.61-6.834,7.769-.017.017-.17.1-.17.119C58.548-6.154,58.6-6.137,58.633-6.137Zm9.86-2.482c-.136-.017-.306.017-.306.187,0,.085.136.459.153.544.068.544.068,1.666.068,2.261,0,1.411,0,3.519-.051,4.726,0,.2-.1,1.241-.1,1.462,0,.187,0,.7.544.7a.87.87,0,0,0,.85-.952c0-.2-.051-1.156-.051-1.377-.034-1.411-.034-2.5-.034-2.856A28.74,28.74,0,0,1,69.7-7.48c.051-.085.408-.374.408-.476C70.108-8.313,68.816-8.585,68.493-8.619Zm-4.675.068c-.17,0-.2.085-.2.17a2.534,2.534,0,0,0,.068.306,15.079,15.079,0,0,1,.136,2.023c0,2.346-.391,4.947-3.332,6.528a4.391,4.391,0,0,0-.9.476c0,.068.1.068.119.068A7.156,7.156,0,0,0,61.846.238c3.026-1.6,3.162-4.318,3.162-6.936,0-.374,0-.714.2-.867.221-.153.238-.187.238-.289a.288.288,0,0,0-.221-.255A12.622,12.622,0,0,0,63.818-8.551Z" transform="translate(-0.731 14.382)" fill="#fff"/>
</svg>
