<svg xmlns="http://www.w3.org/2000/svg" width="92.967" height="14.28" viewBox="0 0 92.967 14.28">
  <path id="パス_130444" data-name="パス 130444" d="M13.146-.651c-1.428-.168-1.575-.378-1.848-2.1-.441-2.73-.945-5.481-1.386-8.316l-.441-2.877-.945.252L2.394-2.919C1.281-.987,1.05-.861-.231-.651L-.4,0H4.242L4.41-.651C2.793-.84,2.73-1.071,3.234-2.1c.4-.861.882-1.827,1.26-2.562H8.631c.168.987.294,1.848.4,2.625.147.966.063,1.239-1.3,1.386L7.539,0h5.439Zm-4.662-5H5.019c.861-1.7,1.806-3.339,2.688-4.977h.042ZM27.216-.441a2.252,2.252,0,0,1-1.3-.9,19.928,19.928,0,0,1-1.281-2.289c-.483-.987-1.008-2.352-1.2-2.814a4.191,4.191,0,0,0,3.276-3.906,2.964,2.964,0,0,0-1.365-2.625,6.12,6.12,0,0,0-3.171-.651h-5.04l-.168.651c1.638.126,1.764.231,1.428,1.932L16.779-2.688C16.443-.966,16.254-.8,14.742-.651L14.574,0h5.817l.126-.651C18.942-.8,18.8-.966,19.11-2.688l.609-3.255h.63c.672,0,.924.252,1.2.987a29.657,29.657,0,0,0,1.323,3.087c.672,1.344,1.323,2,3.864,2.037h.294ZM19.866-6.72l.966-5.019a1.538,1.538,0,0,1,.336-.882,1.3,1.3,0,0,1,.882-.231c1.218,0,2.142.861,2.142,2.625a3.491,3.491,0,0,1-1.533,3,3.554,3.554,0,0,1-2.1.5ZM40.089-3.885C38.661-1.764,37.38-.525,35.6-.525c-2.352,0-3.78-2.1-3.78-5.25,0-3.969,2.541-7.35,5.754-7.35,1.806,0,2.9.735,3.192,3.276l.693-.063c.084-1.155.168-2.331.21-3.423a10.573,10.573,0,0,0-3.633-.63c-4.893,0-8.946,3.192-8.946,8.274,0,3.906,2.667,6.006,6.3,6.006A14.818,14.818,0,0,0,39.039-.21a24.175,24.175,0,0,0,1.7-3.381Zm18.5-9.744H52.752l-.168.651c1.617.147,1.743.315,1.428,1.974l-.63,3.276H47.355L47.985-11c.315-1.638.462-1.827,1.953-1.974l.168-.651h-5.88l-.147.651c1.7.147,1.869.294,1.554,1.974L44-2.646c-.315,1.659-.42,1.848-2,2L41.853,0h5.859l.147-.651c-1.659-.147-1.785-.315-1.47-2l.756-4.074h6.027l-.756,4.074C52.1-.987,51.954-.8,50.3-.651L50.148,0h5.985l.147-.651c-1.7-.147-1.827-.315-1.491-2L56.406-11c.315-1.659.441-1.827,2.037-1.974Zm7.854,0h-5.9l-.147.651c1.7.126,1.848.294,1.533,1.932L60.27-2.6c-.315,1.638-.483,1.827-2.016,1.953L58.107,0h5.9l.147-.651c-1.68-.126-1.827-.315-1.512-1.953l1.638-8.442c.315-1.617.441-1.785,2.016-1.932Zm15.225,0H77.028l-.168.651.483.063c1.008.1,1.155.357.588,1.554-.9,1.869-2.919,5.481-4.452,8.211h-.042c-.567-3.339-1.323-7.329-1.491-8.673-.1-.819,0-.966.8-1.092l.483-.063.168-.651H68.04l-.168.651c1.26.147,1.491.294,1.806,1.911.441,2.31,1.386,7.35,2.037,11.277h.84c2.31-4.2,5.082-9.093,6.363-11.13,1.071-1.743,1.323-1.911,2.6-2.058Zm1.47,0-.189.651c1.68.147,1.785.315,1.491,1.953L82.8-2.625C82.467-.924,82.32-.8,80.682-.651L80.556,0h10.08c.315-.714,1.05-2.6,1.281-3.3l-.672-.252A8.34,8.34,0,0,1,89.8-1.533a3.311,3.311,0,0,1-2.583.714c-1.05,0-1.638-.084-1.89-.4-.252-.252-.252-.8-.063-1.827l.693-3.612h1.638c1.785,0,1.785.147,1.764,1.722h.693l.84-4.2h-.714C89.607-7.728,89.523-7.6,87.759-7.6H86.121l.84-4.347c.147-.777.231-.861.987-.861h1.26c1.3,0,1.659.168,1.911.588a4.271,4.271,0,0,1,.357,1.911l.714-.063c.147-1.113.315-2.751.378-3.255Z" transform="translate(0.399 13.965)" fill="#4a4a4a"/>
</svg>
