<svg xmlns="http://www.w3.org/2000/svg" width="108.129" height="14.469" viewBox="0 0 108.129 14.469">
  <path id="パス_130443" data-name="パス 130443" d="M12.348-3.885C10.92-1.764,9.639-.525,7.854-.525c-2.352,0-3.78-2.1-3.78-5.25,0-3.969,2.541-7.35,5.754-7.35,1.806,0,2.9.735,3.192,3.276l.693-.063c.084-1.155.168-2.331.21-3.423a10.573,10.573,0,0,0-3.633-.63c-4.893,0-8.946,3.192-8.946,8.274,0,3.906,2.667,6.006,6.3,6.006A14.818,14.818,0,0,0,11.3-.21,24.175,24.175,0,0,0,13-3.591ZM27.111-.651c-1.428-.168-1.575-.378-1.848-2.1-.441-2.73-.945-5.481-1.386-8.316l-.441-2.877-.945.252L16.359-2.919C15.246-.987,15.015-.861,13.734-.651L13.566,0h4.641l.168-.651C16.758-.84,16.695-1.071,17.2-2.1c.4-.861.882-1.827,1.26-2.562H22.6c.168.987.294,1.848.4,2.625.147.966.063,1.239-1.3,1.386L21.5,0h5.439Zm-4.662-5H18.984c.861-1.7,1.806-3.339,2.688-4.977h.042Zm17.745-8.505a1.235,1.235,0,0,1-1.092.525H31c-.546,0-.777-.042-.966-.525h-.525a38.511,38.511,0,0,1-1.029,3.885h.714a9.024,9.024,0,0,1,1.071-1.911c.42-.441.8-.63,2.436-.63h.945L31.689-2.625c-.315,1.575-.462,1.848-2.247,1.974L29.3,0h6.363l.147-.651c-1.932-.126-2.037-.357-1.722-1.974L35.994-12.81h1.134c1.281,0,1.785.105,2.037.567a4.367,4.367,0,0,1,.294,1.974l.735-.042c.147-1.218.357-2.982.525-3.843Zm2.436.525-.189.651c1.68.147,1.785.315,1.491,1.953l-1.638,8.4c-.336,1.7-.483,1.827-2.121,1.974L40.047,0h10.08c.315-.714,1.05-2.6,1.281-3.3l-.672-.252a8.34,8.34,0,0,1-1.449,2.016A3.311,3.311,0,0,1,46.7-.819c-1.05,0-1.638-.084-1.89-.4-.252-.252-.252-.8-.063-1.827l.693-3.612h1.638c1.785,0,1.785.147,1.764,1.722h.693l.84-4.2h-.714C49.1-7.728,49.014-7.6,47.25-7.6H45.612l.84-4.347c.147-.777.231-.861.987-.861H48.7c1.3,0,1.659.168,1.911.588a4.271,4.271,0,0,1,.357,1.911l.714-.063c.147-1.113.315-2.751.378-3.255Zm23.6,3.7c.084-1.47.189-2.751.252-3.423a12.57,12.57,0,0,0-3.738-.609c-5.271,0-9.093,3.36-9.093,8.274,0,3.864,2.6,6.006,6.468,6.006A16.994,16.994,0,0,0,64.617-.5a6.427,6.427,0,0,1,.1-1.6l.315-1.7c.294-1.575.42-1.68,1.575-1.848L66.78-6.3H60.942l-.168.651c2.037.21,2.2.294,1.911,1.848l-.357,1.869A1.611,1.611,0,0,1,60.459-.525c-2.541,0-4.053-2.079-4.053-5.25,0-4.053,2.562-7.329,5.838-7.329,1.764,0,3.129.714,3.3,3.234Zm10.143-4.032c-4.515,0-7.77,3.906-7.77,8.337,0,3.591,2.331,5.943,5.733,5.943,4.557,0,7.749-3.717,7.749-8.253C82.089-11.487,79.842-13.965,76.377-13.965Zm-.126.84c2.289,0,3.15,2.058,3.15,4.746,0,3.57-1.89,7.875-4.914,7.875-2.247,0-3.192-2.037-3.192-4.725C71.295-9.135,73.416-13.125,76.251-13.125ZM95.193-.441a2.252,2.252,0,0,1-1.3-.9A19.927,19.927,0,0,1,92.61-3.633c-.483-.987-1.008-2.352-1.2-2.814a4.191,4.191,0,0,0,3.276-3.906,2.964,2.964,0,0,0-1.365-2.625,6.12,6.12,0,0,0-3.171-.651h-5.04l-.168.651c1.638.126,1.764.231,1.428,1.932L84.756-2.688C84.42-.966,84.231-.8,82.719-.651L82.551,0h5.817l.126-.651C86.919-.8,86.772-.966,87.087-2.688L87.7-5.943h.63c.672,0,.924.252,1.2.987a29.655,29.655,0,0,0,1.323,3.087c.672,1.344,1.323,2,3.864,2.037H95ZM87.843-6.72l.966-5.019a1.538,1.538,0,0,1,.336-.882,1.3,1.3,0,0,1,.882-.231c1.218,0,2.142.861,2.142,2.625a3.491,3.491,0,0,1-1.533,3,3.554,3.554,0,0,1-2.1.5Zm21.63-6.909h-4.662l-.189.672.525.084c.861.126.945.336.5,1.092-.735,1.281-2.1,3.276-3.045,4.662-.588-1.575-1.281-3.528-1.68-4.767-.21-.672-.147-.861.5-.966l.609-.126.168-.651H96.936l-.189.651c1.281.147,1.449.273,1.953,1.68.756,2.1,1.239,3.465,1.638,4.6a2.056,2.056,0,0,1,.084,1.365L99.9-2.73C99.54-.966,99.33-.777,97.65-.651L97.482,0h6.279l.147-.651c-1.827-.147-2.016-.336-1.659-2.079l.567-2.772a3.489,3.489,0,0,1,.546-1.26c1.3-1.911,2.373-3.444,3.213-4.515,1.092-1.365,1.365-1.554,2.709-1.7Z" transform="translate(-1.344 14.154)" fill="#4a4a4a"/>
</svg>
