<svg xmlns="http://www.w3.org/2000/svg" width="53.487" height="14.364" viewBox="0 0 53.487 14.364">
  <path id="パス_130448" data-name="パス 130448" d="M15.12-13.65h-5v.609c1.491.084,1.974.378,2.079,1.3a31.791,31.791,0,0,1,.147,3.486V-3.36h-.063L3.654-13.65H.4v.609a2.223,2.223,0,0,1,1.848.777c.4.5.441.651.441,2.142v4.578a34.52,34.52,0,0,1-.147,3.57C2.436-.966,1.911-.693.714-.609V0h5V-.609C4.263-.693,3.8-.987,3.7-2.016A35.1,35.1,0,0,1,3.57-5.544V-10.71h.042l8.9,10.9h.714V-8.253c0-1.932.063-2.877.126-3.528.1-.924.588-1.2,1.764-1.26Zm11.4,10.206a6.965,6.965,0,0,1-1.071,2c-.462.525-1.071.693-2.583.693a4.7,4.7,0,0,1-2.142-.252c-.378-.252-.5-.735-.5-1.722V-6.615h1.89c1.827,0,2,.126,2.268,1.617h.63V-9.051h-.63c-.252,1.407-.4,1.575-2.268,1.575h-1.89V-12.2c0-.63.063-.693.735-.693h1.491c1.449,0,2.016.147,2.331.609a5.069,5.069,0,0,1,.693,1.785l.651-.1c-.084-1.113-.189-2.541-.189-3.045h-9.45v.609c1.6.147,1.785.231,1.785,2.1v8.3c0,1.722-.189,1.89-2.079,2.037V0H26.439c.168-.651.609-2.6.714-3.339ZM41.5,0V-.609c-1.449-.147-1.932-.462-2.877-1.89-1.05-1.617-2.184-3.4-3.339-5.25,1.344-2.016,2.058-3.045,2.562-3.7a3.311,3.311,0,0,1,2.877-1.6v-.609H35.868v.609c1.386.189,1.491.4.987,1.3-.546,1.008-1.2,2.058-2.037,3.318-.9-1.428-1.659-2.6-2.31-3.717-.294-.525-.273-.735.966-.9v-.609H28.1v.609a2.817,2.817,0,0,1,2.667,1.722c.8,1.281,1.764,2.814,2.856,4.578C31.9-4.095,30.744-2.5,30.177-1.806a3.069,3.069,0,0,1-2.457,1.2V0h4.893V-.609C31.206-.8,31.08-.987,31.584-1.89c.63-1.176,1.512-2.625,2.52-4.158,1.344,2.163,2.2,3.591,2.667,4.368.4.693.294.9-1.008,1.071V0Zm12.39-10.4c-.105-1.239-.21-2.835-.21-3.78h-.462a1.1,1.1,0,0,1-1.071.525H43.806c-.588,0-.861-.042-1.155-.525H42.21c-.042,1.134-.168,2.541-.252,3.843h.651a6.047,6.047,0,0,1,.693-1.911c.273-.462.693-.651,2.436-.651h1.2V-2.625c0,1.68-.168,1.89-2.058,2.016V0h6.174V-.609c-1.974-.126-2.142-.336-2.142-2.016V-12.894h1.386c1.533,0,1.89.168,2.247.63a4.988,4.988,0,0,1,.714,1.932Z" transform="translate(-0.399 14.175)" fill="#8e8e8e"/>
</svg>
