<svg xmlns="http://www.w3.org/2000/svg" width="50.463" height="13.86" viewBox="0 0 50.463 13.86">
  <path id="パス_130447" data-name="パス 130447" d="M.945-13.65v.609c1.533.126,1.722.21,1.722,2.058v8.337C2.667-.9,2.478-.735.819-.609V0H6.657V-.609C4.788-.735,4.62-.861,4.62-2.625V-5.859l1.533.4a4.651,4.651,0,0,0,.924-.021c2.079-.273,4.116-1.575,4.116-4.326a3.5,3.5,0,0,0-1.386-2.982,6,6,0,0,0-3.549-.861ZM4.62-11.781c0-.546.063-.8.21-.924a1.744,1.744,0,0,1,1.092-.252A2.892,2.892,0,0,1,8.988-9.723c0,2.688-1.659,3.381-2.919,3.381A4.284,4.284,0,0,1,4.62-6.573ZM25.2-.4a3.042,3.042,0,0,1-1.47-.966,17.889,17.889,0,0,1-1.68-2.2c-.63-.945-1.491-2.352-1.848-3.024a3.829,3.829,0,0,0,2.667-3.57,3.086,3.086,0,0,0-1.407-2.751,5.844,5.844,0,0,0-3.423-.735H12.7v.609c1.617.147,1.806.252,1.806,2.016v8.379c0,1.764-.189,1.911-1.89,2.037V0h5.67V-.609c-1.659-.126-1.848-.273-1.848-2.037v-3.3h.609a1.666,1.666,0,0,1,1.743.861c.609,1.029,1.344,2.31,2.037,3.3A3.883,3.883,0,0,0,24.4.147c.252.021.483.021.714.021ZM16.443-6.657v-5.166c0-.546.063-.777.21-.9a1.971,1.971,0,0,1,1.113-.21,2.792,2.792,0,0,1,2.961,3.108,3.081,3.081,0,0,1-1.113,2.583,3.42,3.42,0,0,1-2.247.588ZM35.952-3.444a6.965,6.965,0,0,1-1.071,2c-.462.525-1.071.693-2.583.693a4.7,4.7,0,0,1-2.142-.252c-.378-.252-.5-.735-.5-1.722V-6.615h1.89c1.827,0,1.995.126,2.268,1.617h.63V-9.051h-.63c-.252,1.407-.4,1.575-2.268,1.575h-1.89V-12.2c0-.63.063-.693.735-.693h1.491c1.449,0,2.016.147,2.331.609A5.07,5.07,0,0,1,34.9-10.5l.651-.1c-.084-1.113-.189-2.541-.189-3.045h-9.45v.609c1.6.147,1.785.231,1.785,2.1v8.3c0,1.722-.189,1.89-2.079,2.037V0H35.868c.168-.651.609-2.6.714-3.339ZM51.282-13.65H46.515v.63c1.7.189,1.806.378,1.386,1.638-.651,2.058-2.1,5.838-3.192,8.547h-.042c-1.281-3.318-2.835-7.413-3.4-8.946-.315-.9-.273-1.071,1.239-1.239v-.63H37.149v.63c1.26.126,1.6.315,2.226,1.89C40.509-8.253,42.294-3.633,43.7.21h.714c1.6-4.326,3.759-9.555,4.347-10.962.8-1.911,1.092-2.121,2.52-2.268Z" transform="translate(-0.819 13.65)" fill="#8e8e8e"/>
</svg>
