<svg xmlns="http://www.w3.org/2000/svg" width="246.525" height="33.42" viewBox="0 0 246.525 33.42">
  <path id="パス_130445" data-name="パス 130445" d="M1.813-9.653c.1,3.528.1,6.223.147,7.35C3.087-1.029,6.517.735,10.486.735c5.782,0,10.878-3.675,10.878-9.457,0-3.969-2.4-6.566-5.782-9.065l-1.47-1.078C11.564-20.776,9.7-22.54,9.7-25.333a5.341,5.341,0,0,1,5.341-5.586c4.214,0,5.488,3.528,5.88,7.1l1.47-.147c.049-2.352,0-4.949.147-6.958-.392-.147-1.176-.49-2.107-.833a15.739,15.739,0,0,0-4.851-.833c-5.88,0-10.045,3.675-10.045,8.869,0,4.067,3.136,6.811,5.537,8.673l1.421,1.078c2.793,2.205,4.41,4.116,4.41,6.811,0,3.724-2.254,6.174-5.782,6.174-5.341,0-7.4-5.194-7.889-8.82ZM28.567.588A2.989,2.989,0,0,0,31.556-2.6a2.543,2.543,0,0,0-2.5-2.744,3.042,3.042,0,0,0-3.038,3.234A2.538,2.538,0,0,0,28.567.588ZM55.762-31.8H42.973l-.343,1.372c4.018.343,4.361.637,3.675,4.263L42.336-5.831c-.735,3.773-1.029,4.165-4.8,4.459L37.191,0H50.078l.294-1.372c-3.969-.294-4.312-.637-3.577-4.459l3.92-20.335c.735-3.626.98-3.92,4.753-4.263ZM59,.588A2.989,2.989,0,0,0,61.985-2.6a2.543,2.543,0,0,0-2.5-2.744,3.042,3.042,0,0,0-3.038,3.234A2.538,2.538,0,0,0,59,.588ZM104.86-31.8H93.737l-.392,1.372c3.577.2,4.459.735,4.263,3.038a75.794,75.794,0,0,1-1.274,8.379L94.129-7.3h-.147L79.821-31.8h-7.4l-.343,1.372c2.6.147,3.528.441,4.116,1.47.588,1.078.784,1.862.245,4.557L73.99-12.74c-.98,4.557-1.519,6.762-2.058,8.428-.637,2.156-1.764,2.793-4.312,2.94L67.277,0H78.645l.294-1.372c-3.43-.245-4.312-.784-4.165-3.038A63.149,63.149,0,0,1,76-12.642l2.5-12.74h.147L93.051.392h1.666l3.675-19.4a83.19,83.19,0,0,1,1.911-8.33c.637-2.156,1.274-2.94,4.263-3.087Zm47.628,0H141.365l-.392,1.372c3.577.2,4.459.735,4.263,3.038a75.794,75.794,0,0,1-1.274,8.379L141.757-7.3h-.147L127.449-31.8h-7.4l-.343,1.372c2.6.147,3.528.441,4.116,1.47.588,1.078.784,1.862.245,4.557l-2.45,11.662c-.98,4.557-1.519,6.762-2.058,8.428-.637,2.156-1.764,2.793-4.312,2.94L114.9,0h11.368l.294-1.372c-3.43-.245-4.312-.784-4.165-3.038a63.149,63.149,0,0,1,1.225-8.232l2.5-12.74h.147L140.679.392h1.666l3.675-19.4a83.189,83.189,0,0,1,1.911-8.33c.637-2.156,1.274-2.94,4.263-3.087Zm4.165,0-.343,1.372c4.018.343,4.263.637,3.479,4.557L155.967-5.929c-.784,3.92-1.176,4.214-5.1,4.557L150.528,0h23.128c.686-1.568,2.5-6.174,3.038-7.6l-1.421-.49a19.972,19.972,0,0,1-3.332,4.655c-1.323,1.274-2.793,1.666-6.321,1.666-2.646,0-4.067-.1-4.8-.735-.637-.588-.686-1.862-.2-4.557l1.617-8.575H166.7c4.214,0,4.214.343,4.116,3.871h1.47l1.862-9.408h-1.47c-1.176,3.234-1.47,3.577-5.586,3.577h-4.459l2.009-10.486c.343-1.813.49-2.009,2.205-2.009h3.528c3.479,0,4.165.441,4.7,1.568a10.1,10.1,0,0,1,.686,4.361l1.47-.1c.343-2.842.784-6.566.931-7.546Zm71,0H217.119l-.294,1.372,1.225.147c2.5.343,2.744.735,1.715,3.43-1.813,4.7-5.782,13.23-8.82,19.845h-.1l-4.018-24.255h-1.568L193.893-7.105h-.1L191.688-27c-.245-2.695.049-2.989,1.96-3.283l1.225-.147.343-1.372H183.75l-.294,1.372c3.283.343,3.528.588,3.969,4.655L190.414.49h1.666L203.6-23.373h.147L207.711.49h1.617C215.649-13.181,219.814-22,221.823-25.823c2.009-3.969,2.352-4.165,5.537-4.606Zm-.147,22.148c.1,3.528.1,6.223.147,7.35,1.127,1.274,4.557,3.038,8.526,3.038,5.782,0,10.878-3.675,10.878-9.457,0-3.969-2.4-6.566-5.782-9.065l-1.47-1.078c-2.548-1.911-4.41-3.675-4.41-6.468a5.341,5.341,0,0,1,5.341-5.586c4.214,0,5.488,3.528,5.88,7.1l1.47-.147c.049-2.352,0-4.949.147-6.958-.392-.147-1.176-.49-2.107-.833a15.739,15.739,0,0,0-4.851-.833c-5.88,0-10.045,3.675-10.045,8.869,0,4.067,3.136,6.811,5.537,8.673l1.421,1.078c2.793,2.205,4.41,4.116,4.41,6.811,0,3.724-2.254,6.174-5.782,6.174-5.341,0-7.4-5.194-7.889-8.82Z" transform="translate(-1.762 32.635)" fill="#fff" stroke="#fff" stroke-width="0.1"/>
</svg>
