<svg xmlns="http://www.w3.org/2000/svg" width="71.723" height="15.402" viewBox="0 0 71.723 15.402">
  <path id="パス_130446" data-name="パス 130446" d="M13.532-9.486A2.174,2.174,0,0,0,11.7-8.415c0,.051.017.068.068.068a.38.38,0,0,0,.17-.051,1.476,1.476,0,0,1,.663-.17c.578,0,1.428.238,1.428.918a.9.9,0,0,1-.068.306,1.171,1.171,0,0,0-.051.136.079.079,0,0,0,.085.085c.068,0,.425-.1.51-.119.085,0,.476.034.578.034.357,0,.561-.459.561-.816C15.64-8.806,14.841-9.486,13.532-9.486ZM7.293-9.979c-.034.017-.068.051-.068.068,0,.034.085.2.085.238,0,.238-.476.425-.595.425-.1,0-.136-.119-.136-.187a9.081,9.081,0,0,1,.17-1.1,6.852,6.852,0,0,0,.357-.884A1.7,1.7,0,0,0,5.355-12.58c-.1,0-.374.034-.374.187a1.7,1.7,0,0,0,.238.272,1.669,1.669,0,0,1,.561,1.36,12.713,12.713,0,0,1-.17,1.853,7.426,7.426,0,0,1-2.159.51,4.939,4.939,0,0,1-.782-.085c-.051,0-.255-.068-.306-.068a.12.12,0,0,0-.136.119c0,.119.646,1.292,1.224,1.292a3.646,3.646,0,0,0,1.207-.323,3.976,3.976,0,0,1,.782-.153c.187,0,.238.255.238.374.017.289.034,1.734.034,2.125,0,.476-.1.527-.969.952a3.634,3.634,0,0,1-1.768.578c-.1,0-.595-.085-.7-.085-.306,0-.493.357-.493.663,0,.561.867,1.071,1.054,1.071a3.358,3.358,0,0,0,.646-.34,1.417,1.417,0,0,1,.425-.1c.221,0,.306,0,.85,1.054.136.272.323.629.782.629.612,0,.867-1.122.867-1.9,0-.17-.051-.935-.051-1.122,0-.289.1-.34,1.054-.85a8.683,8.683,0,0,1,3.519-1.275,1.761,1.761,0,0,1,1.632,1.87c0,1.36-1.428,2.108-2.55,2.108-.17,0-1.1,0-1.1-.816a.7.7,0,0,1,.153-.459c.034-.051.068-.085.068-.136a.091.091,0,0,0-.085-.085,1.515,1.515,0,0,0-.85,1.343c0,.884.782,1.377,1.751,1.377,1.394,0,3.757-1.02,3.757-3.264a2.6,2.6,0,0,0-2.618-2.567,7.989,7.989,0,0,0-2.89.68c-.272.1-1.666.68-1.717.68-.153,0-.153-.2-.153-.306,0-.085,0-1.462.034-1.836.034-.6.051-.663.289-.748.408-.17,1.7-.68,1.7-1.241C8.347-9.775,7.531-10.013,7.293-9.979ZM5.61-3.519c.051.034.051.2.051.272,0,.833-.238,1.309-.476,1.309-.255,0-.714-.544-.714-.8C4.471-2.975,5.559-3.519,5.61-3.519ZM27.778-6.2c.561,0,.884,0,.884-.2a1.655,1.655,0,0,0-.306-.459c-.561-.68-.612-.68-.7-.68-.17,0-.646.663-.748.765-.136.136-.221.136-.935.136h-.357c-.493,0-.527-.255-.527-.544,0-.187.051-2.448.068-2.6.034-.442.306-.442.493-.442h1.479c.782,0,.867,0,.867-.2,0-.255-1.054-1.1-1.139-1.1-.119,0-.612.663-.748.748a1.889,1.889,0,0,1-.9.1H23c-.289,0-.408,0-.408-.136,0-.068.782-1.479.935-1.751a1.453,1.453,0,0,1,.493-.663c.391-.238.391-.238.391-.323a5.655,5.655,0,0,0-1.581-.85c-.068,0-.085.017-.2.544A25.966,25.966,0,0,1,21-9.622c-.1.221-.68,1.224-.68,1.343,0,.017,0,.034.017.034.221,0,1.054-1.037,1.564-1.666a.665.665,0,0,1,.612-.323h.986c.527,0,.527.238.527.782a17.478,17.478,0,0,1-.119,2.6c-.085.2-.306.2-.51.2-.884,0-1.8-.034-2.312-.068-.119,0-.646-.051-.748-.051-.034,0-.068,0-.068.034a.216.216,0,0,0,.068.119l.34.391c.068.085.085.119.153.119.1,0,.612-.068.714-.068.612-.034,1.275-.034,1.819-.034.306,0,.51,0,.51.425A7.643,7.643,0,0,1,20.723.544c-.34.238-.34.238-.34.323a.121.121,0,0,0,.136.119,6.434,6.434,0,0,0,3.944-4.012c.136-.391.221-.629.306-.629a5.439,5.439,0,0,1,1.615,2.72c.306,1.088.34,1.207.68,1.207.391,0,.7-.527.7-.918,0-.9-.9-2.023-2.533-3.094-.357-.238-.425-.272-.425-.476,0-.17.153-1.428.187-1.632.034-.255.17-.357.493-.357ZM33-1.02c.493,0,.493.323.493.544,0,.663,0,.748.357.748.442,0,.952-.323.952-1.173,0-.136,0-.221-.034-1.037-.017-.2-.051-7.293-.051-7.446a3.288,3.288,0,0,1,.068-.969c.034-.1.391-.527.391-.629,0-.2-1-.9-1.071-.9-.1,0-.306.238-.493.476-.136.17-.238.17-.476.17H30.549a1.081,1.081,0,0,1-.714-.255,6.253,6.253,0,0,0-1-.578c-.17,0-.17.153-.17.238,0,.136.153.782.17.918.1,1.037.136,2.04.136,2.89v6.9c0,.085-.051,1.377-.051,1.632,0,.357.034.476.374.476a.83.83,0,0,0,.918-.918c0-.085-.017-.493-.017-.578,0-.374.153-.51.476-.51Zm.051-9.758c.2,0,.408.051.476.238.085.221.085,2.856.085,3.315,0,.306-.051,5.338-.1,5.525-.068.187-.289.238-.476.238h-2.38c-.153,0-.459-.034-.493-.34-.051-.357-.068-6.766-.068-7.956,0-.816,0-1.02.527-1.02Zm13.345-2.6c-.051.051,0,.153.034.221a1.252,1.252,0,0,1,.289.765c0,.493-.408.663-1.36,1.054A2.09,2.09,0,0,0,43.809-9.3c-.051.629-.459,3.757-.459,4.471,0,1.309.578,2.125,1.292,2.125.578,0,.765-.289,1.547-1.394A2.582,2.582,0,0,1,48.4-5.372a1.773,1.773,0,0,1,1.887,1.887c0,1.6-1.6,2.941-3.723,3.417-.119.034-.493.119-.493.2,0,.136.238.136.459.136,2.465,0,5.168-1.377,5.168-3.451a2.9,2.9,0,0,0-3.111-2.669A4.645,4.645,0,0,0,45.815-4.76a2.5,2.5,0,0,1-.986.408c-.425,0-.442-.527-.442-.782,0-.425.136-1.87.221-2.5.034-.238.2-1.241.2-1.394s-.119-.884-.119-1.037A1.132,1.132,0,0,1,45.9-11.186a2.327,2.327,0,0,1,.8.17,3.081,3.081,0,0,0,1,.289.836.836,0,0,0,.867-.816C48.569-12.495,46.512-13.481,46.393-13.379Zm23.715,1.972a1.376,1.376,0,0,0-1.445-1.19c-.085,0-.374.017-.374.187,0,.034.306.612.323.629a2.505,2.505,0,0,1,.2,1.173c0,.221-.034,1.037-.085,1.377-.068.357-.187.374-1.241.544-.442.068-2.584.544-2.7.544-.221,0-.221-.136-.221-.493a9.38,9.38,0,0,1,.085-1.309,3.478,3.478,0,0,0,.085-.527c0-.6-1.054-1.071-1.462-1.071-.2,0-.493.085-.493.238,0,.068.34.663.391.8a4.144,4.144,0,0,1,.272,1.785c0,.629-.017.782-.289.867A7.963,7.963,0,0,1,61-7.616c-.153,0-.867-.068-1.037-.068-.153,0-.221.017-.221.238,0,.935,1.377,1.258,1.751,1.258.255,0,1.428-.527,1.717-.527.306,0,.306.17.306,1.6,0,3.23,0,4.59,4.862,4.59.391,0,1.938,0,1.938-.8a.885.885,0,0,0-.918-.731,5.365,5.365,0,0,0-.816.119,7.657,7.657,0,0,1-1.5.136C64.7-1.8,64.4-2.6,64.4-4.2c0-.051.034-1.6.051-2.159a1.367,1.367,0,0,1,.153-.7c.221-.374,3.3-1.054,3.655-1.054.255,0,.255.085.255.221a7.551,7.551,0,0,1-.493,1.938.612.612,0,0,1-.578.442c-.153,0-.918-.306-1.1-.306-.034,0-.085,0-.085.034a2.036,2.036,0,0,0,.221.357,6.175,6.175,0,0,1,.323.748c.153.493.221.68.8.68.612,0,1.53-.867,1.853-3.383.1-.884.119-.918,1.105-.918.306,0,1.785.187,2.125.187s.833-.119.833-.561c0-.34-.255-.612-1.326-.918a9.157,9.157,0,0,0-1.224-.306c-.034,0-.136,0-.136.068a.14.14,0,0,0,.068.1c.306.289.34.323.34.425,0,.187-.153.2-.527.238-.136,0-.731.068-.8.068-.051,0-.187,0-.187-.085,0-.1.017-.221.136-1.36C69.87-10.591,70.108-11.373,70.108-11.407Z" transform="translate(-1.785 14.416)" fill="#fff"/>
</svg>
