<svg xmlns="http://www.w3.org/2000/svg" width="345.36" height="41.34" viewBox="0 0 345.36 41.34">
  <path id="パス_130503" data-name="パス 130503" d="M38.28-40.44c-1.14,1.14-1.56,1.5-3.12,1.5H12.36c-1.56,0-2.22-.12-2.82-1.5H8.16c-.66,3.24-1.74,7.2-2.82,10.8H7.2a23.316,23.316,0,0,1,3-5.4c1.14-1.32,2.22-1.8,7.2-1.8h3L14.76-7.26c-.9,4.68-1.32,5.22-6.36,5.58L7.98,0H24.84l.36-1.68c-5.4-.36-5.82-.84-4.98-5.58L25.8-36.84h3.54c4.32,0,5.64.36,6.24,1.74.6,1.26.72,3.06.72,5.46l1.92-.12c.36-3.36.9-8.04,1.44-10.68Zm46.8,1.5H69.66l-.36,1.68c4.68.42,4.98.84,4.02,5.7l-1.8,9.66H52.56l1.86-9.66c.9-4.86,1.38-5.28,5.64-5.7l.42-1.68H45.12l-.42,1.68c4.92.42,5.28.78,4.32,5.7L44.34-7.38c-.96,4.8-1.2,5.28-5.7,5.7L38.22,0H53.64l.42-1.68c-4.86-.42-5.22-.78-4.26-5.7l2.22-11.94H70.98L68.7-7.38c-.9,4.8-1.26,5.28-6.06,5.7L62.28,0H78l.36-1.68c-4.8-.42-5.1-.84-4.2-5.7l4.62-24.18c.96-4.86,1.26-5.28,5.88-5.7ZM119.34-1.68c-4.2-.48-4.56-.96-5.34-5.46-1.32-7.32-2.64-14.94-3.9-22.74l-1.56-9.96-2.1.54L88.56-7.68c-2.88,5.16-3.54,5.46-7.2,6L80.88,0H93.9l.42-1.68c-4.62-.42-4.98-.9-3.3-4.32,1.26-2.7,2.94-5.94,4.02-7.92H107.4c.54,3.3,1.02,6.06,1.38,8.52.36,2.64.12,3.3-3.96,3.72L104.34,0h14.58ZM106.98-16.56H96.36c2.58-4.98,5.34-9.84,8.16-15.12h.12Zm62.16-22.38H155.52l-.48,1.68c4.38.24,5.46.9,5.22,3.72a92.813,92.813,0,0,1-1.56,10.26L156-8.94h-.18l-17.34-30h-9.06L129-37.26c3.18.18,4.32.54,5.04,1.8.72,1.32.96,2.28.3,5.58l-3,14.28c-1.2,5.58-1.86,8.28-2.52,10.32-.78,2.64-2.16,3.42-5.28,3.6L123.12,0h13.92l.36-1.68c-4.2-.3-5.28-.96-5.1-3.72a77.323,77.323,0,0,1,1.5-10.08l3.06-15.6h.18L154.68.48h2.04l4.5-23.76a101.869,101.869,0,0,1,2.34-10.2c.78-2.64,1.56-3.6,5.22-3.78Zm40.74,0H195.9l-.42,1.68,1.68.24c2.1.3,2.22.84.48,2.58-4.14,4.14-8.76,8.28-11.88,10.86a14.024,14.024,0,0,1-4.5,2.64L183.3-31.5c.96-4.92,1.26-5.28,5.76-5.76l.36-1.68h-15L174-37.26c4.68.48,4.98.84,4.02,5.76L173.46-7.68c-.96,5.22-1.44,5.58-5.7,6L167.28,0h15.18l.36-1.68c-4.74-.42-4.98-.78-4.02-6l2.1-11.46c1.2-.54,2.1-.24,3.24,1.74C187.56-11.64,191.4-5.58,195,0h9.12l.42-1.68c-3.3-.42-4.2-.96-6.54-4.14-2.82-4.02-7.5-11.22-10.56-16.5,4.98-4.32,9.18-7.98,12.84-10.92,3.72-3,4.92-3.48,9.18-4.08Zm53.64,0H250.5l-.48,1.68,1.74.24c2.28.36,2.64.84,1.38,2.94-2.34,3.96-6.54,9.96-9.36,13.92-1.68-4.2-4.08-10.86-5.28-14.22-.54-1.8-.42-2.28,1.56-2.58l2.04-.3.42-1.68H228.3l-.48,1.68c3.78.42,4.2.72,5.58,4.38,2.34,6.18,3.78,10.14,5.1,13.8a5.432,5.432,0,0,1,.3,3.6l-1.56,7.92c-1.02,5.16-1.44,5.52-6.36,5.88L230.46,0h16.56l.42-1.68c-5.34-.48-5.82-.78-4.8-5.88l1.68-8.28a8.907,8.907,0,0,1,1.5-3.48c3.9-5.58,7.02-10.02,9.66-13.32,3.06-3.84,3.78-4.2,7.56-4.62Zm20.64-.96c-12.6,0-21.9,11.22-21.9,23.76C262.26-5.94,268.8.9,278.28.9c12.84,0,21.96-10.8,21.96-23.58C300.24-32.76,293.82-39.9,284.16-39.9Zm-.42,2.16c7.44,0,10.2,6.36,10.2,14.28,0,9.96-5.58,22.2-15.18,22.2-7.08,0-10.26-6.18-10.26-14.16C268.5-26.1,274.68-37.74,283.74-37.74ZM348-38.94H333.96l-.42,1.68c4.32.24,5.46.84,5.34,3.3a91.822,91.822,0,0,1-1.56,10.62l-.9,4.38C334.2-7.62,330.18-2.4,323.1-2.4c-5.88,0-10.14-4.08-8.1-14.76l2.76-14.64c.9-4.8,1.32-5.04,5.76-5.46l.36-1.68h-15.3l-.42,1.68c4.74.42,5.04.78,4.14,5.46l-2.82,14.94c-1.38,7.44-.06,11.94,2.7,14.52A13.521,13.521,0,0,0,321.54.9a15.427,15.427,0,0,0,10.38-3.96c3.96-3.72,5.76-9.18,6.96-15.42l.96-4.86c1.08-5.46,1.8-8.52,2.4-10.56.72-2.28,1.44-3.18,5.34-3.36ZM347.04.72a3.659,3.659,0,0,0,3.66-3.9,3.114,3.114,0,0,0-3.06-3.36,3.725,3.725,0,0,0-3.72,3.96A3.108,3.108,0,0,0,347.04.72Z" transform="translate(-5.34 40.44)" fill="#8e8e8e"/>
</svg>
